M48
; DRILL file {KiCad 7.0.7-7.0.7~ubuntu23.04.1} date Wed Aug 16 00:34:41 2023
; FORMAT={-:-/ absolute / metric / decimal}
; #@! TF.CreationDate,2023-08-16T00:34:41+00:00
; #@! TF.GenerationSoftware,Kicad,Pcbnew,7.0.7-7.0.7~ubuntu23.04.1
; #@! TF.FileFunction,Plated,1,2,PTH
FMAT,2
METRIC
; #@! TA.AperFunction,Plated,PTH,ViaDrill
T1C0.200
; #@! TA.AperFunction,Plated,PTH,ComponentDrill
T2C0.200
; #@! TA.AperFunction,Plated,PTH,ViaDrill
T3C0.300
; #@! TA.AperFunction,Plated,PTH,ViaDrill
T4C0.400
; #@! TA.AperFunction,Plated,PTH,ComponentDrill
T5C0.500
; #@! TA.AperFunction,Plated,PTH,ComponentDrill
T6C0.600
; #@! TA.AperFunction,Plated,PTH,ComponentDrill
T7C0.760
; #@! TA.AperFunction,Plated,PTH,ComponentDrill
T8C1.000
; #@! TA.AperFunction,Plated,PTH,ComponentDrill
T9C1.100
; #@! TA.AperFunction,Plated,PTH,ComponentDrill
T10C2.300
; #@! TA.AperFunction,Plated,PTH,ComponentDrill
T11C2.800
; #@! TA.AperFunction,Plated,PTH,ComponentDrill
T12C3.200
%
G90
G05
T1
X25.12Y-57.78
X27.07Y-56.98
T2
X27.05Y-40.91
X27.05Y-42.035
X27.05Y-43.16
X27.05Y-44.285
X27.05Y-45.41
X28.175Y-40.91
X28.175Y-42.035
X28.175Y-43.16
X28.175Y-44.285
X28.175Y-45.41
X29.3Y-40.91
X29.3Y-42.035
X29.3Y-43.16
X29.3Y-44.285
X29.3Y-45.41
X30.425Y-40.91
X30.425Y-42.035
X30.425Y-43.16
X30.425Y-44.285
X30.425Y-45.41
X31.55Y-40.91
X31.55Y-42.035
X31.55Y-43.16
X31.55Y-44.285
X31.55Y-45.41
T3
X22.92Y-41.88
X23.32Y-43.78
X27.82Y-53.18
X28.52Y-56.88
X34.42Y-50.78
X35.72Y-46.98
X35.72Y-45.374
X36.12Y-44.325
X36.42Y-45.48
X36.449Y-43.751
X37.499Y-43.176
X37.698Y-45.078
X39.32Y-48.08
X39.37Y-47.38
X39.492Y-37.112
X39.598Y-46.772
X39.83Y-50.396
X40.192Y-49.732
X40.919Y-46.174
X41.52Y-35.28
X42.52Y-37.18
X43.069Y-53.805
X43.12Y-51.58
X43.136Y-50.69
X43.32Y-47.18
X43.439Y-52.244
X43.92Y-48.98
X44.72Y-26.35
X46.22Y-26.38
X46.72Y-53.28
X47.67Y-50.204
X48.844Y-48.694
X49.52Y-54.405
X49.702Y-48.901
X49.72Y-53.78
X49.82Y-47.374
X49.945Y-54.98
X49.97Y-20.23
X50.192Y-45.872
X50.47Y-49.88
X50.599Y-47.053
X50.632Y-42.325
X51.02Y-49.305
X51.62Y-43.374
X52.42Y-53.78
X53.22Y-30.58
X53.62Y-10.48
X54.12Y-31.48
X55.07Y-40.28
X56.844Y-40.83
X57.27Y-41.48
X57.898Y-30.87
X58.12Y-31.48
X58.52Y-42.68
X58.6Y-54.66
X60.22Y-43.08
X66.72Y-31.68
T4
X7.52Y-51.58
X10.22Y-52.98
X10.52Y-45.68
X10.52Y-48.58
X10.62Y-42.48
X11.02Y-33.605
X12.82Y-53.78
X12.92Y-35.58
X13.52Y-42.38
X13.777Y-37.934
X14.52Y-16.28
X15.72Y-16.3
X16.02Y-28.58
X16.02Y-30.93
X16.82Y-37.58
X16.92Y-42.08
X17.12Y-45.08
X19.32Y-54.98
X20.02Y-40.78
X20.02Y-41.98
X20.195Y-46.28
X20.82Y-50.18
X20.846Y-39.606
X21.22Y-40.48
X21.92Y-31.78
X21.92Y-50.88
X22.62Y-51.58
X23.02Y-47.18
X23.42Y-53.08
X23.42Y-58.08
X24.02Y-36.08
X24.07Y-50.58
X25.299Y-28.58
X25.48Y-26.73
X27.2Y-34.26
X27.82Y-36.38
X28.1Y-34.26
X28.6Y-48.96
X28.92Y-29.08
X29.12Y-22.08
X29.5Y-48.96
X30.52Y-58.692
X30.72Y-36.58
X31.02Y-48.95
X31.22Y-26.08
X31.6Y-36.58
X31.79Y-48.95
X32.37Y-22.18
X32.92Y-46.75
X33.12Y-39.08
X33.27Y-28.73
X33.82Y-46.75
X34.12Y-35.38
X35.32Y-42.08
X36.97Y-39.28
X38.94Y-28.46
X40.72Y-20.38
X40.82Y-17.98
X40.82Y-51.28
X41.0Y-22.96
X44.22Y-42.28
X44.9Y-43.66
X44.9Y-44.56
X44.9Y-45.46
X45.12Y-30.18
X45.297Y-46.85
X45.8Y-43.66
X45.8Y-44.56
X45.8Y-45.46
X46.025Y-39.869
X46.32Y-54.98
X46.7Y-43.66
X46.7Y-44.56
X46.7Y-45.46
X46.96Y-42.24
X47.4Y-30.26
X47.819Y-24.58
X48.52Y-28.88
X49.12Y-41.08
X50.02Y-13.28
X50.685Y-44.349
X51.62Y-30.88
X52.12Y-51.95
X52.848Y-21.586
X53.47Y-22.76
X54.12Y-9.18
X54.32Y-33.38
X54.603Y-26.996
X55.445Y-27.83
X56.37Y-27.43
X57.1Y-22.2
X57.869Y-27.729
X58.02Y-49.083
X58.22Y-47.48
X58.92Y-9.18
X60.92Y-49.48
X61.82Y-43.68
X61.92Y-36.48
X62.12Y-48.259
X62.52Y-50.829
X64.8Y-33.5
X68.62Y-26.68
T5
X2.58Y-4.98
X2.58Y-55.78
X3.283Y-3.283
X3.283Y-6.677
X3.283Y-54.083
X3.283Y-57.477
X4.98Y-2.58
X4.98Y-7.38
X4.98Y-53.38
X4.98Y-58.18
X6.677Y-3.283
X6.677Y-6.677
X6.677Y-54.083
X6.677Y-57.477
X7.38Y-4.98
X7.38Y-55.78
X63.54Y-4.98
X63.54Y-55.78
X64.243Y-3.283
X64.243Y-6.677
X64.243Y-54.083
X64.243Y-57.477
X65.94Y-2.58
X65.94Y-7.38
X65.94Y-53.38
X65.94Y-58.18
X67.637Y-3.283
X67.637Y-6.677
X67.637Y-54.083
X67.637Y-57.477
X68.34Y-4.98
X68.34Y-55.78
T7
X31.12Y-14.43
X32.39Y-16.97
X33.66Y-14.43
X34.93Y-16.97
X36.2Y-14.43
X37.47Y-16.97
T8
X44.12Y-10.29
X44.12Y-12.83
X47.82Y-10.29
X47.82Y-12.83
X67.0Y-40.64
X67.0Y-43.18
X67.0Y-45.72
X67.0Y-48.26
X68.42Y-11.7
X68.42Y-14.24
X68.42Y-16.78
T9
X14.47Y-8.729
X14.47Y-11.229
X21.27Y-8.729
X21.27Y-11.229
T10
X11.12Y-5.729
X17.87Y-4.929
X24.62Y-5.729
T11
X7.61Y-19.9
X10.71Y-24.9
X13.81Y-19.9
T12
X4.98Y-4.98
X4.98Y-55.78
X65.94Y-4.98
X65.94Y-55.78
T6
G00X52.2Y-3.18
M15
G01X52.2Y-2.38
M16
G05
G00X52.2Y-7.51
M15
G01X52.2Y-6.41
M16
G05
G00X60.84Y-3.18
M15
G01X60.84Y-2.38
M16
G05
G00X60.84Y-7.51
M15
G01X60.84Y-6.41
M16
G05
T0
M30
