%TF.GenerationSoftware,KiCad,Pcbnew,7.0.7-7.0.7~ubuntu23.04.1*%
%TF.CreationDate,2023-08-16T01:11:18+00:00*%
%TF.ProjectId,AMFOC01,414d464f-4330-4312-9e6b-696361645f70,rev?*%
%TF.SameCoordinates,Original*%
%TF.FileFunction,Soldermask,Bot*%
%TF.FilePolarity,Negative*%
%FSLAX46Y46*%
G04 Gerber Fmt 4.6, Leading zero omitted, Abs format (unit mm)*
G04 Created by KiCad (PCBNEW 7.0.7-7.0.7~ubuntu23.04.1) date 2023-08-16 01:11:18*
%MOMM*%
%LPD*%
G01*
G04 APERTURE LIST*
G04 Aperture macros list*
%AMRoundRect*
0 Rectangle with rounded corners*
0 $1 Rounding radius*
0 $2 $3 $4 $5 $6 $7 $8 $9 X,Y pos of 4 corners*
0 Add a 4 corners polygon primitive as box body*
4,1,4,$2,$3,$4,$5,$6,$7,$8,$9,$2,$3,0*
0 Add four circle primitives for the rounded corners*
1,1,$1+$1,$2,$3*
1,1,$1+$1,$4,$5*
1,1,$1+$1,$6,$7*
1,1,$1+$1,$8,$9*
0 Add four rect primitives between the rounded corners*
20,1,$1+$1,$2,$3,$4,$5,0*
20,1,$1+$1,$4,$5,$6,$7,0*
20,1,$1+$1,$6,$7,$8,$9,0*
20,1,$1+$1,$8,$9,$2,$3,0*%
G04 Aperture macros list end*
%ADD10R,1.700000X1.700000*%
%ADD11O,1.700000X1.700000*%
%ADD12C,0.800000*%
%ADD13C,6.400000*%
%ADD14C,3.250000*%
%ADD15R,1.520000X1.520000*%
%ADD16C,1.520000*%
%ADD17C,1.650000*%
%ADD18C,3.450000*%
%ADD19C,0.650000*%
%ADD20O,1.000000X2.000000*%
%ADD21O,1.050000X2.100000*%
%ADD22R,3.810000X3.810000*%
%ADD23R,0.650000X1.050000*%
%ADD24C,1.000000*%
%ADD25RoundRect,0.087500X0.087500X1.912500X-0.087500X1.912500X-0.087500X-1.912500X0.087500X-1.912500X0*%
G04 APERTURE END LIST*
D10*
%TO.C,J9*%
X47820000Y-12830000D03*
D11*
X47820000Y-10290000D03*
%TD*%
D12*
%TO.C,H4*%
X63540000Y-4980000D03*
X64242944Y-3282944D03*
X64242944Y-6677056D03*
X65940000Y-2580000D03*
D13*
X65940000Y-4980000D03*
D12*
X65940000Y-7380000D03*
X67637056Y-3282944D03*
X67637056Y-6677056D03*
X68340000Y-4980000D03*
%TD*%
D14*
%TO.C,J6*%
X39380000Y-8080000D03*
X29220000Y-8080000D03*
D15*
X37470000Y-16970000D03*
D16*
X36200000Y-14430000D03*
X34930000Y-16970000D03*
X33660000Y-14430000D03*
X32390000Y-16970000D03*
X31120000Y-14430000D03*
%TD*%
D17*
%TO.C,J12*%
X21270000Y-11229492D03*
X14470000Y-11229492D03*
X21270000Y-8729492D03*
X14470000Y-8729492D03*
D18*
X24620000Y-5729492D03*
X17870000Y-4929492D03*
X11120000Y-5729492D03*
%TD*%
D10*
%TO.C,J7*%
X68420000Y-16780000D03*
D11*
X68420000Y-14240000D03*
X68420000Y-11700000D03*
%TD*%
D10*
%TO.C,J11*%
X67000000Y-48260000D03*
D11*
X67000000Y-45720000D03*
X67000000Y-43180000D03*
X67000000Y-40640000D03*
%TD*%
D19*
%TO.C,J2*%
X59410000Y-6460000D03*
X53630000Y-6460000D03*
D20*
X60840000Y-2780000D03*
X52200000Y-2780000D03*
D21*
X60840000Y-6960000D03*
X52200000Y-6960000D03*
%TD*%
D12*
%TO.C,H3*%
X2580000Y-4980000D03*
X3282944Y-3282944D03*
X3282944Y-6677056D03*
X4980000Y-2580000D03*
D13*
X4980000Y-4980000D03*
D12*
X4980000Y-7380000D03*
X6677056Y-3282944D03*
X6677056Y-6677056D03*
X7380000Y-4980000D03*
%TD*%
D10*
%TO.C,J10*%
X44120000Y-12830000D03*
D11*
X44120000Y-10290000D03*
%TD*%
D12*
%TO.C,H2*%
X2580000Y-55780000D03*
X3282944Y-54082944D03*
X3282944Y-57477056D03*
X4980000Y-53380000D03*
D13*
X4980000Y-55780000D03*
D12*
X4980000Y-58180000D03*
X6677056Y-54082944D03*
X6677056Y-57477056D03*
X7380000Y-55780000D03*
%TD*%
D22*
%TO.C,J1*%
X13810000Y-19900000D03*
X7610000Y-19900000D03*
X10710000Y-24900000D03*
%TD*%
D12*
%TO.C,H1*%
X63540000Y-55780000D03*
X64242944Y-54082944D03*
X64242944Y-57477056D03*
X65940000Y-53380000D03*
D13*
X65940000Y-55780000D03*
D12*
X65940000Y-58180000D03*
X67637056Y-54082944D03*
X67637056Y-57477056D03*
X68340000Y-55780000D03*
%TD*%
D23*
%TO.C,SW5*%
X4845000Y-42305000D03*
X4845000Y-46455000D03*
X6995000Y-42305000D03*
X6995000Y-46430000D03*
%TD*%
D24*
%TO.C,J5*%
X57623800Y-50950263D03*
%TD*%
D23*
%TO.C,SW2*%
X12870000Y-34455000D03*
X12870000Y-38605000D03*
X15020000Y-34455000D03*
X15020000Y-38580000D03*
%TD*%
D24*
%TO.C,J3*%
X53223800Y-50950263D03*
%TD*%
D25*
%TO.C,J8*%
X45970000Y-54635000D03*
X45270000Y-54635000D03*
X44570000Y-54635000D03*
X43870000Y-54635000D03*
X43170000Y-54635000D03*
X42470000Y-54635000D03*
X41770000Y-54635000D03*
X41070000Y-54635000D03*
X40370000Y-54635000D03*
X39670000Y-54635000D03*
X38970000Y-54635000D03*
X38270000Y-54635000D03*
X37570000Y-54635000D03*
X36870000Y-54635000D03*
X36170000Y-54635000D03*
X35470000Y-54635000D03*
X34770000Y-54635000D03*
X34070000Y-54635000D03*
X33370000Y-54635000D03*
X32670000Y-54635000D03*
X31970000Y-54635000D03*
X31270000Y-54635000D03*
X30570000Y-54635000D03*
X29870000Y-54635000D03*
X29170000Y-54635000D03*
X28470000Y-54635000D03*
X27770000Y-54635000D03*
X27070000Y-54635000D03*
X26370000Y-54635000D03*
X25670000Y-54635000D03*
%TD*%
D23*
%TO.C,SW4*%
X4870000Y-34355000D03*
X4870000Y-38505000D03*
X7020000Y-34355000D03*
X7020000Y-38480000D03*
%TD*%
%TO.C,SW3*%
X12845000Y-42405000D03*
X12845000Y-46555000D03*
X14995000Y-42405000D03*
X14995000Y-46530000D03*
%TD*%
D24*
%TO.C,J4*%
X55423800Y-50950263D03*
%TD*%
M02*
