%TF.GenerationSoftware,KiCad,Pcbnew,7.0.5.1-1-g8f565ef7f0-dirty-deb11*%
%TF.CreationDate,2023-06-25T19:17:02+00:00*%
%TF.ProjectId,AMFOC01,414d464f-4330-4312-9e6b-696361645f70,rev?*%
%TF.SameCoordinates,Original*%
%TF.FileFunction,Paste,Bot*%
%TF.FilePolarity,Positive*%
%FSLAX46Y46*%
G04 Gerber Fmt 4.6, Leading zero omitted, Abs format (unit mm)*
G04 Created by KiCad (PCBNEW 7.0.5.1-1-g8f565ef7f0-dirty-deb11) date 2023-06-25 19:17:02*
%MOMM*%
%LPD*%
G01*
G04 APERTURE LIST*
G04 Aperture macros list*
%AMRoundRect*
0 Rectangle with rounded corners*
0 $1 Rounding radius*
0 $2 $3 $4 $5 $6 $7 $8 $9 X,Y pos of 4 corners*
0 Add a 4 corners polygon primitive as box body*
4,1,4,$2,$3,$4,$5,$6,$7,$8,$9,$2,$3,0*
0 Add four circle primitives for the rounded corners*
1,1,$1+$1,$2,$3*
1,1,$1+$1,$4,$5*
1,1,$1+$1,$6,$7*
1,1,$1+$1,$8,$9*
0 Add four rect primitives between the rounded corners*
20,1,$1+$1,$2,$3,$4,$5,0*
20,1,$1+$1,$4,$5,$6,$7,0*
20,1,$1+$1,$6,$7,$8,$9,0*
20,1,$1+$1,$8,$9,$2,$3,0*%
G04 Aperture macros list end*
%ADD10R,1.050000X0.650000*%
%ADD11RoundRect,0.087500X0.087500X2.912500X-0.087500X2.912500X-0.087500X-2.912500X0.087500X-2.912500X0*%
G04 APERTURE END LIST*
D10*
%TO.C,SW4*%
X10545000Y-36610556D03*
X14695000Y-36610556D03*
X10545000Y-34460556D03*
X14670000Y-34460556D03*
%TD*%
%TO.C,SW2*%
X14695000Y-47771668D03*
X10545000Y-47771668D03*
X14695000Y-49921668D03*
X10570000Y-49921668D03*
%TD*%
D11*
%TO.C,J10*%
X45970000Y-55435000D03*
X45270000Y-55435000D03*
X44570000Y-55435000D03*
X43870000Y-55435000D03*
X43170000Y-55435000D03*
X42470000Y-55435000D03*
X41770000Y-55435000D03*
X41070000Y-55435000D03*
X40370000Y-55435000D03*
X39670000Y-55435000D03*
X38970000Y-55435000D03*
X38270000Y-55435000D03*
X37570000Y-55435000D03*
X36870000Y-55435000D03*
X36170000Y-55435000D03*
X35470000Y-55435000D03*
X34770000Y-55435000D03*
X34070000Y-55435000D03*
X33370000Y-55435000D03*
X32670000Y-55435000D03*
X31970000Y-55435000D03*
X31270000Y-55435000D03*
X30570000Y-55435000D03*
X29870000Y-55435000D03*
X29170000Y-55435000D03*
X28470000Y-55435000D03*
X27770000Y-55435000D03*
X27070000Y-55435000D03*
X26370000Y-55435000D03*
X25670000Y-55435000D03*
%TD*%
D10*
%TO.C,SW3*%
X14695000Y-41116112D03*
X10545000Y-41116112D03*
X14695000Y-43266112D03*
X10570000Y-43266112D03*
%TD*%
M02*
