%TF.GenerationSoftware,KiCad,Pcbnew,7.0.5.1-1-g8f565ef7f0-dirty-deb11*%
%TF.CreationDate,2023-06-25T19:17:02+00:00*%
%TF.ProjectId,AMFOC01,414d464f-4330-4312-9e6b-696361645f70,rev?*%
%TF.SameCoordinates,Original*%
%TF.FileFunction,Legend,Bot*%
%TF.FilePolarity,Positive*%
%FSLAX46Y46*%
G04 Gerber Fmt 4.6, Leading zero omitted, Abs format (unit mm)*
G04 Created by KiCad (PCBNEW 7.0.5.1-1-g8f565ef7f0-dirty-deb11) date 2023-06-25 19:17:02*
%MOMM*%
%LPD*%
G01*
G04 APERTURE LIST*
%ADD10C,0.080000*%
%ADD11C,0.150000*%
%ADD12C,0.300000*%
%ADD13C,0.100000*%
%ADD14C,0.200000*%
%ADD15C,0.120000*%
G04 APERTURE END LIST*
D10*
X55423800Y-51780000D02*
X55423800Y-52980000D01*
D11*
X51120000Y-49680000D02*
X59820000Y-49680000D01*
X59820000Y-54280000D01*
X51120000Y-54280000D01*
X51120000Y-49680000D01*
X65620000Y-39280000D02*
X68420000Y-39280000D01*
X68420000Y-49480000D01*
X65620000Y-49480000D01*
X65620000Y-39280000D01*
X69920000Y-36980000D02*
X68420000Y-39280000D01*
X69920000Y-29980000D02*
X69920000Y-36980000D01*
D12*
X6202183Y-47904999D02*
X6202183Y-46738332D01*
X5502183Y-48138332D02*
X7952183Y-47321666D01*
X7952183Y-47321666D02*
X5502183Y-46504999D01*
X5502183Y-45688332D02*
X7952183Y-45688332D01*
X7952183Y-45688332D02*
X6202183Y-44871666D01*
X6202183Y-44871666D02*
X7952183Y-44054999D01*
X7952183Y-44054999D02*
X5502183Y-44054999D01*
X6785516Y-42071666D02*
X6785516Y-42888332D01*
X5502183Y-42888332D02*
X7952183Y-42888332D01*
X7952183Y-42888332D02*
X7952183Y-41721666D01*
X7952183Y-40321666D02*
X7952183Y-39854999D01*
X7952183Y-39854999D02*
X7835516Y-39621666D01*
X7835516Y-39621666D02*
X7602183Y-39388332D01*
X7602183Y-39388332D02*
X7135516Y-39271666D01*
X7135516Y-39271666D02*
X6318850Y-39271666D01*
X6318850Y-39271666D02*
X5852183Y-39388332D01*
X5852183Y-39388332D02*
X5618850Y-39621666D01*
X5618850Y-39621666D02*
X5502183Y-39854999D01*
X5502183Y-39854999D02*
X5502183Y-40321666D01*
X5502183Y-40321666D02*
X5618850Y-40554999D01*
X5618850Y-40554999D02*
X5852183Y-40788332D01*
X5852183Y-40788332D02*
X6318850Y-40904999D01*
X6318850Y-40904999D02*
X7135516Y-40904999D01*
X7135516Y-40904999D02*
X7602183Y-40788332D01*
X7602183Y-40788332D02*
X7835516Y-40554999D01*
X7835516Y-40554999D02*
X7952183Y-40321666D01*
X5735516Y-36821665D02*
X5618850Y-36938332D01*
X5618850Y-36938332D02*
X5502183Y-37288332D01*
X5502183Y-37288332D02*
X5502183Y-37521665D01*
X5502183Y-37521665D02*
X5618850Y-37871665D01*
X5618850Y-37871665D02*
X5852183Y-38104999D01*
X5852183Y-38104999D02*
X6085516Y-38221665D01*
X6085516Y-38221665D02*
X6552183Y-38338332D01*
X6552183Y-38338332D02*
X6902183Y-38338332D01*
X6902183Y-38338332D02*
X7368850Y-38221665D01*
X7368850Y-38221665D02*
X7602183Y-38104999D01*
X7602183Y-38104999D02*
X7835516Y-37871665D01*
X7835516Y-37871665D02*
X7952183Y-37521665D01*
X7952183Y-37521665D02*
X7952183Y-37288332D01*
X7952183Y-37288332D02*
X7835516Y-36938332D01*
X7835516Y-36938332D02*
X7718850Y-36821665D01*
X7952183Y-35304999D02*
X7952183Y-35071665D01*
X7952183Y-35071665D02*
X7835516Y-34838332D01*
X7835516Y-34838332D02*
X7718850Y-34721665D01*
X7718850Y-34721665D02*
X7485516Y-34604999D01*
X7485516Y-34604999D02*
X7018850Y-34488332D01*
X7018850Y-34488332D02*
X6435516Y-34488332D01*
X6435516Y-34488332D02*
X5968850Y-34604999D01*
X5968850Y-34604999D02*
X5735516Y-34721665D01*
X5735516Y-34721665D02*
X5618850Y-34838332D01*
X5618850Y-34838332D02*
X5502183Y-35071665D01*
X5502183Y-35071665D02*
X5502183Y-35304999D01*
X5502183Y-35304999D02*
X5618850Y-35538332D01*
X5618850Y-35538332D02*
X5735516Y-35654999D01*
X5735516Y-35654999D02*
X5968850Y-35771665D01*
X5968850Y-35771665D02*
X6435516Y-35888332D01*
X6435516Y-35888332D02*
X7018850Y-35888332D01*
X7018850Y-35888332D02*
X7485516Y-35771665D01*
X7485516Y-35771665D02*
X7718850Y-35654999D01*
X7718850Y-35654999D02*
X7835516Y-35538332D01*
X7835516Y-35538332D02*
X7952183Y-35304999D01*
X5502183Y-32154999D02*
X5502183Y-33554999D01*
X5502183Y-32854999D02*
X7952183Y-32854999D01*
X7952183Y-32854999D02*
X7602183Y-33088332D01*
X7602183Y-33088332D02*
X7368850Y-33321666D01*
X7368850Y-33321666D02*
X7252183Y-33554999D01*
X6202183Y-31221666D02*
X6202183Y-30054999D01*
X5502183Y-31454999D02*
X7952183Y-30638333D01*
X7952183Y-30638333D02*
X5502183Y-29821666D01*
D11*
X69510475Y-31934819D02*
X68939047Y-31934819D01*
X69224761Y-32934819D02*
X69224761Y-31934819D01*
X68700951Y-31934819D02*
X68034285Y-32934819D01*
X68034285Y-31934819D02*
X68700951Y-32934819D01*
X66939047Y-31887200D02*
X67796189Y-33172914D01*
X66653332Y-32887200D02*
X66510475Y-32934819D01*
X66510475Y-32934819D02*
X66272380Y-32934819D01*
X66272380Y-32934819D02*
X66177142Y-32887200D01*
X66177142Y-32887200D02*
X66129523Y-32839580D01*
X66129523Y-32839580D02*
X66081904Y-32744342D01*
X66081904Y-32744342D02*
X66081904Y-32649104D01*
X66081904Y-32649104D02*
X66129523Y-32553866D01*
X66129523Y-32553866D02*
X66177142Y-32506247D01*
X66177142Y-32506247D02*
X66272380Y-32458628D01*
X66272380Y-32458628D02*
X66462856Y-32411009D01*
X66462856Y-32411009D02*
X66558094Y-32363390D01*
X66558094Y-32363390D02*
X66605713Y-32315771D01*
X66605713Y-32315771D02*
X66653332Y-32220533D01*
X66653332Y-32220533D02*
X66653332Y-32125295D01*
X66653332Y-32125295D02*
X66605713Y-32030057D01*
X66605713Y-32030057D02*
X66558094Y-31982438D01*
X66558094Y-31982438D02*
X66462856Y-31934819D01*
X66462856Y-31934819D02*
X66224761Y-31934819D01*
X66224761Y-31934819D02*
X66081904Y-31982438D01*
X65653332Y-32934819D02*
X65653332Y-31934819D01*
X65653332Y-31934819D02*
X65415237Y-31934819D01*
X65415237Y-31934819D02*
X65272380Y-31982438D01*
X65272380Y-31982438D02*
X65177142Y-32077676D01*
X65177142Y-32077676D02*
X65129523Y-32172914D01*
X65129523Y-32172914D02*
X65081904Y-32363390D01*
X65081904Y-32363390D02*
X65081904Y-32506247D01*
X65081904Y-32506247D02*
X65129523Y-32696723D01*
X65129523Y-32696723D02*
X65177142Y-32791961D01*
X65177142Y-32791961D02*
X65272380Y-32887200D01*
X65272380Y-32887200D02*
X65415237Y-32934819D01*
X65415237Y-32934819D02*
X65653332Y-32934819D01*
X64700951Y-32649104D02*
X64224761Y-32649104D01*
X64796189Y-32934819D02*
X64462856Y-31934819D01*
X64462856Y-31934819D02*
X64129523Y-32934819D01*
X68981904Y-30482438D02*
X69077142Y-30434819D01*
X69077142Y-30434819D02*
X69219999Y-30434819D01*
X69219999Y-30434819D02*
X69362856Y-30482438D01*
X69362856Y-30482438D02*
X69458094Y-30577676D01*
X69458094Y-30577676D02*
X69505713Y-30672914D01*
X69505713Y-30672914D02*
X69553332Y-30863390D01*
X69553332Y-30863390D02*
X69553332Y-31006247D01*
X69553332Y-31006247D02*
X69505713Y-31196723D01*
X69505713Y-31196723D02*
X69458094Y-31291961D01*
X69458094Y-31291961D02*
X69362856Y-31387200D01*
X69362856Y-31387200D02*
X69219999Y-31434819D01*
X69219999Y-31434819D02*
X69124761Y-31434819D01*
X69124761Y-31434819D02*
X68981904Y-31387200D01*
X68981904Y-31387200D02*
X68934285Y-31339580D01*
X68934285Y-31339580D02*
X68934285Y-31006247D01*
X68934285Y-31006247D02*
X69124761Y-31006247D01*
X68505713Y-31434819D02*
X68505713Y-30434819D01*
X68505713Y-30434819D02*
X67934285Y-31434819D01*
X67934285Y-31434819D02*
X67934285Y-30434819D01*
X67458094Y-31434819D02*
X67458094Y-30434819D01*
X67458094Y-30434819D02*
X67219999Y-30434819D01*
X67219999Y-30434819D02*
X67077142Y-30482438D01*
X67077142Y-30482438D02*
X66981904Y-30577676D01*
X66981904Y-30577676D02*
X66934285Y-30672914D01*
X66934285Y-30672914D02*
X66886666Y-30863390D01*
X66886666Y-30863390D02*
X66886666Y-31006247D01*
X66886666Y-31006247D02*
X66934285Y-31196723D01*
X66934285Y-31196723D02*
X66981904Y-31291961D01*
X66981904Y-31291961D02*
X67077142Y-31387200D01*
X67077142Y-31387200D02*
X67219999Y-31434819D01*
X67219999Y-31434819D02*
X67458094Y-31434819D01*
D13*
X55029524Y-52806800D02*
X54915238Y-52844895D01*
X54915238Y-52844895D02*
X54724762Y-52844895D01*
X54724762Y-52844895D02*
X54648571Y-52806800D01*
X54648571Y-52806800D02*
X54610476Y-52768704D01*
X54610476Y-52768704D02*
X54572381Y-52692514D01*
X54572381Y-52692514D02*
X54572381Y-52616323D01*
X54572381Y-52616323D02*
X54610476Y-52540133D01*
X54610476Y-52540133D02*
X54648571Y-52502038D01*
X54648571Y-52502038D02*
X54724762Y-52463942D01*
X54724762Y-52463942D02*
X54877143Y-52425847D01*
X54877143Y-52425847D02*
X54953333Y-52387752D01*
X54953333Y-52387752D02*
X54991428Y-52349657D01*
X54991428Y-52349657D02*
X55029524Y-52273466D01*
X55029524Y-52273466D02*
X55029524Y-52197276D01*
X55029524Y-52197276D02*
X54991428Y-52121085D01*
X54991428Y-52121085D02*
X54953333Y-52082990D01*
X54953333Y-52082990D02*
X54877143Y-52044895D01*
X54877143Y-52044895D02*
X54686666Y-52044895D01*
X54686666Y-52044895D02*
X54572381Y-52082990D01*
X54305714Y-52044895D02*
X54115238Y-52844895D01*
X54115238Y-52844895D02*
X53962857Y-52273466D01*
X53962857Y-52273466D02*
X53810476Y-52844895D01*
X53810476Y-52844895D02*
X53620000Y-52044895D01*
X52858094Y-52768704D02*
X52896190Y-52806800D01*
X52896190Y-52806800D02*
X53010475Y-52844895D01*
X53010475Y-52844895D02*
X53086666Y-52844895D01*
X53086666Y-52844895D02*
X53200952Y-52806800D01*
X53200952Y-52806800D02*
X53277142Y-52730609D01*
X53277142Y-52730609D02*
X53315237Y-52654419D01*
X53315237Y-52654419D02*
X53353333Y-52502038D01*
X53353333Y-52502038D02*
X53353333Y-52387752D01*
X53353333Y-52387752D02*
X53315237Y-52235371D01*
X53315237Y-52235371D02*
X53277142Y-52159180D01*
X53277142Y-52159180D02*
X53200952Y-52082990D01*
X53200952Y-52082990D02*
X53086666Y-52044895D01*
X53086666Y-52044895D02*
X53010475Y-52044895D01*
X53010475Y-52044895D02*
X52896190Y-52082990D01*
X52896190Y-52082990D02*
X52858094Y-52121085D01*
X52134285Y-52844895D02*
X52515237Y-52844895D01*
X52515237Y-52844895D02*
X52515237Y-52044895D01*
X51867618Y-52844895D02*
X51867618Y-52044895D01*
X51410475Y-52844895D02*
X51753333Y-52387752D01*
X51410475Y-52044895D02*
X51867618Y-52502038D01*
D14*
X20303332Y-2371004D02*
X20303332Y-1071004D01*
X20303332Y-1071004D02*
X19869998Y-1999576D01*
X19869998Y-1999576D02*
X19436665Y-1071004D01*
X19436665Y-1071004D02*
X19436665Y-2371004D01*
X18631903Y-2371004D02*
X18755713Y-2309100D01*
X18755713Y-2309100D02*
X18817618Y-2247195D01*
X18817618Y-2247195D02*
X18879522Y-2123385D01*
X18879522Y-2123385D02*
X18879522Y-1751957D01*
X18879522Y-1751957D02*
X18817618Y-1628147D01*
X18817618Y-1628147D02*
X18755713Y-1566242D01*
X18755713Y-1566242D02*
X18631903Y-1504338D01*
X18631903Y-1504338D02*
X18446189Y-1504338D01*
X18446189Y-1504338D02*
X18322380Y-1566242D01*
X18322380Y-1566242D02*
X18260475Y-1628147D01*
X18260475Y-1628147D02*
X18198570Y-1751957D01*
X18198570Y-1751957D02*
X18198570Y-2123385D01*
X18198570Y-2123385D02*
X18260475Y-2247195D01*
X18260475Y-2247195D02*
X18322380Y-2309100D01*
X18322380Y-2309100D02*
X18446189Y-2371004D01*
X18446189Y-2371004D02*
X18631903Y-2371004D01*
X17827142Y-1504338D02*
X17331904Y-1504338D01*
X17641428Y-1071004D02*
X17641428Y-2185290D01*
X17641428Y-2185290D02*
X17579523Y-2309100D01*
X17579523Y-2309100D02*
X17455713Y-2371004D01*
X17455713Y-2371004D02*
X17331904Y-2371004D01*
X16712856Y-2371004D02*
X16836666Y-2309100D01*
X16836666Y-2309100D02*
X16898571Y-2247195D01*
X16898571Y-2247195D02*
X16960475Y-2123385D01*
X16960475Y-2123385D02*
X16960475Y-1751957D01*
X16960475Y-1751957D02*
X16898571Y-1628147D01*
X16898571Y-1628147D02*
X16836666Y-1566242D01*
X16836666Y-1566242D02*
X16712856Y-1504338D01*
X16712856Y-1504338D02*
X16527142Y-1504338D01*
X16527142Y-1504338D02*
X16403333Y-1566242D01*
X16403333Y-1566242D02*
X16341428Y-1628147D01*
X16341428Y-1628147D02*
X16279523Y-1751957D01*
X16279523Y-1751957D02*
X16279523Y-2123385D01*
X16279523Y-2123385D02*
X16341428Y-2247195D01*
X16341428Y-2247195D02*
X16403333Y-2309100D01*
X16403333Y-2309100D02*
X16527142Y-2371004D01*
X16527142Y-2371004D02*
X16712856Y-2371004D01*
X15722381Y-2371004D02*
X15722381Y-1504338D01*
X15722381Y-1751957D02*
X15660476Y-1628147D01*
X15660476Y-1628147D02*
X15598571Y-1566242D01*
X15598571Y-1566242D02*
X15474762Y-1504338D01*
X15474762Y-1504338D02*
X15350952Y-1504338D01*
D11*
X68891428Y-34734819D02*
X69224761Y-34258628D01*
X69462856Y-34734819D02*
X69462856Y-33734819D01*
X69462856Y-33734819D02*
X69081904Y-33734819D01*
X69081904Y-33734819D02*
X68986666Y-33782438D01*
X68986666Y-33782438D02*
X68939047Y-33830057D01*
X68939047Y-33830057D02*
X68891428Y-33925295D01*
X68891428Y-33925295D02*
X68891428Y-34068152D01*
X68891428Y-34068152D02*
X68939047Y-34163390D01*
X68939047Y-34163390D02*
X68986666Y-34211009D01*
X68986666Y-34211009D02*
X69081904Y-34258628D01*
X69081904Y-34258628D02*
X69462856Y-34258628D01*
X68558094Y-33734819D02*
X67891428Y-34734819D01*
X67891428Y-33734819D02*
X68558094Y-34734819D01*
X66796190Y-33687200D02*
X67653332Y-34972914D01*
X66510475Y-34687200D02*
X66367618Y-34734819D01*
X66367618Y-34734819D02*
X66129523Y-34734819D01*
X66129523Y-34734819D02*
X66034285Y-34687200D01*
X66034285Y-34687200D02*
X65986666Y-34639580D01*
X65986666Y-34639580D02*
X65939047Y-34544342D01*
X65939047Y-34544342D02*
X65939047Y-34449104D01*
X65939047Y-34449104D02*
X65986666Y-34353866D01*
X65986666Y-34353866D02*
X66034285Y-34306247D01*
X66034285Y-34306247D02*
X66129523Y-34258628D01*
X66129523Y-34258628D02*
X66319999Y-34211009D01*
X66319999Y-34211009D02*
X66415237Y-34163390D01*
X66415237Y-34163390D02*
X66462856Y-34115771D01*
X66462856Y-34115771D02*
X66510475Y-34020533D01*
X66510475Y-34020533D02*
X66510475Y-33925295D01*
X66510475Y-33925295D02*
X66462856Y-33830057D01*
X66462856Y-33830057D02*
X66415237Y-33782438D01*
X66415237Y-33782438D02*
X66319999Y-33734819D01*
X66319999Y-33734819D02*
X66081904Y-33734819D01*
X66081904Y-33734819D02*
X65939047Y-33782438D01*
X64939047Y-34639580D02*
X64986666Y-34687200D01*
X64986666Y-34687200D02*
X65129523Y-34734819D01*
X65129523Y-34734819D02*
X65224761Y-34734819D01*
X65224761Y-34734819D02*
X65367618Y-34687200D01*
X65367618Y-34687200D02*
X65462856Y-34591961D01*
X65462856Y-34591961D02*
X65510475Y-34496723D01*
X65510475Y-34496723D02*
X65558094Y-34306247D01*
X65558094Y-34306247D02*
X65558094Y-34163390D01*
X65558094Y-34163390D02*
X65510475Y-33972914D01*
X65510475Y-33972914D02*
X65462856Y-33877676D01*
X65462856Y-33877676D02*
X65367618Y-33782438D01*
X65367618Y-33782438D02*
X65224761Y-33734819D01*
X65224761Y-33734819D02*
X65129523Y-33734819D01*
X65129523Y-33734819D02*
X64986666Y-33782438D01*
X64986666Y-33782438D02*
X64939047Y-33830057D01*
X64034285Y-34734819D02*
X64510475Y-34734819D01*
X64510475Y-34734819D02*
X64510475Y-33734819D01*
D13*
X59624762Y-52806800D02*
X59510476Y-52844895D01*
X59510476Y-52844895D02*
X59320000Y-52844895D01*
X59320000Y-52844895D02*
X59243809Y-52806800D01*
X59243809Y-52806800D02*
X59205714Y-52768704D01*
X59205714Y-52768704D02*
X59167619Y-52692514D01*
X59167619Y-52692514D02*
X59167619Y-52616323D01*
X59167619Y-52616323D02*
X59205714Y-52540133D01*
X59205714Y-52540133D02*
X59243809Y-52502038D01*
X59243809Y-52502038D02*
X59320000Y-52463942D01*
X59320000Y-52463942D02*
X59472381Y-52425847D01*
X59472381Y-52425847D02*
X59548571Y-52387752D01*
X59548571Y-52387752D02*
X59586666Y-52349657D01*
X59586666Y-52349657D02*
X59624762Y-52273466D01*
X59624762Y-52273466D02*
X59624762Y-52197276D01*
X59624762Y-52197276D02*
X59586666Y-52121085D01*
X59586666Y-52121085D02*
X59548571Y-52082990D01*
X59548571Y-52082990D02*
X59472381Y-52044895D01*
X59472381Y-52044895D02*
X59281904Y-52044895D01*
X59281904Y-52044895D02*
X59167619Y-52082990D01*
X58900952Y-52044895D02*
X58710476Y-52844895D01*
X58710476Y-52844895D02*
X58558095Y-52273466D01*
X58558095Y-52273466D02*
X58405714Y-52844895D01*
X58405714Y-52844895D02*
X58215238Y-52044895D01*
X57491428Y-52082990D02*
X57567618Y-52044895D01*
X57567618Y-52044895D02*
X57681904Y-52044895D01*
X57681904Y-52044895D02*
X57796190Y-52082990D01*
X57796190Y-52082990D02*
X57872380Y-52159180D01*
X57872380Y-52159180D02*
X57910475Y-52235371D01*
X57910475Y-52235371D02*
X57948571Y-52387752D01*
X57948571Y-52387752D02*
X57948571Y-52502038D01*
X57948571Y-52502038D02*
X57910475Y-52654419D01*
X57910475Y-52654419D02*
X57872380Y-52730609D01*
X57872380Y-52730609D02*
X57796190Y-52806800D01*
X57796190Y-52806800D02*
X57681904Y-52844895D01*
X57681904Y-52844895D02*
X57605713Y-52844895D01*
X57605713Y-52844895D02*
X57491428Y-52806800D01*
X57491428Y-52806800D02*
X57453332Y-52768704D01*
X57453332Y-52768704D02*
X57453332Y-52502038D01*
X57453332Y-52502038D02*
X57605713Y-52502038D01*
X57110475Y-52844895D02*
X57110475Y-52044895D01*
X57110475Y-52044895D02*
X56653332Y-52844895D01*
X56653332Y-52844895D02*
X56653332Y-52044895D01*
X56272380Y-52844895D02*
X56272380Y-52044895D01*
X56272380Y-52044895D02*
X56081904Y-52044895D01*
X56081904Y-52044895D02*
X55967618Y-52082990D01*
X55967618Y-52082990D02*
X55891428Y-52159180D01*
X55891428Y-52159180D02*
X55853333Y-52235371D01*
X55853333Y-52235371D02*
X55815237Y-52387752D01*
X55815237Y-52387752D02*
X55815237Y-52502038D01*
X55815237Y-52502038D02*
X55853333Y-52654419D01*
X55853333Y-52654419D02*
X55891428Y-52730609D01*
X55891428Y-52730609D02*
X55967618Y-52806800D01*
X55967618Y-52806800D02*
X56081904Y-52844895D01*
X56081904Y-52844895D02*
X56272380Y-52844895D01*
D11*
X68153332Y-38649104D02*
X67677142Y-38649104D01*
X68248570Y-38934819D02*
X67915237Y-37934819D01*
X67915237Y-37934819D02*
X67581904Y-38934819D01*
X66819999Y-38268152D02*
X66819999Y-38934819D01*
X67248570Y-38268152D02*
X67248570Y-38791961D01*
X67248570Y-38791961D02*
X67200951Y-38887200D01*
X67200951Y-38887200D02*
X67105713Y-38934819D01*
X67105713Y-38934819D02*
X66962856Y-38934819D01*
X66962856Y-38934819D02*
X66867618Y-38887200D01*
X66867618Y-38887200D02*
X66819999Y-38839580D01*
X66439046Y-38934819D02*
X65915237Y-38268152D01*
X66439046Y-38268152D02*
X65915237Y-38934819D01*
X65534284Y-38839580D02*
X65486665Y-38887200D01*
X65486665Y-38887200D02*
X65534284Y-38934819D01*
X65534284Y-38934819D02*
X65581903Y-38887200D01*
X65581903Y-38887200D02*
X65534284Y-38839580D01*
X65534284Y-38839580D02*
X65534284Y-38934819D01*
X2531847Y-48231191D02*
X1865180Y-48050239D01*
X1865180Y-48050239D02*
X2341371Y-47869286D01*
X2341371Y-47869286D02*
X1865180Y-47688334D01*
X1865180Y-47688334D02*
X2531847Y-47507382D01*
X2531847Y-47235953D02*
X1865180Y-47055001D01*
X1865180Y-47055001D02*
X2341371Y-46874048D01*
X2341371Y-46874048D02*
X1865180Y-46693096D01*
X1865180Y-46693096D02*
X2531847Y-46512144D01*
X2531847Y-46240715D02*
X1865180Y-46059763D01*
X1865180Y-46059763D02*
X2341371Y-45878810D01*
X2341371Y-45878810D02*
X1865180Y-45697858D01*
X1865180Y-45697858D02*
X2531847Y-45516906D01*
X1960419Y-45155001D02*
X1912800Y-45109763D01*
X1912800Y-45109763D02*
X1865180Y-45155001D01*
X1865180Y-45155001D02*
X1912800Y-45200239D01*
X1912800Y-45200239D02*
X1960419Y-45155001D01*
X1960419Y-45155001D02*
X1865180Y-45155001D01*
X1865180Y-44295477D02*
X2388990Y-44295477D01*
X2388990Y-44295477D02*
X2484228Y-44340715D01*
X2484228Y-44340715D02*
X2531847Y-44431191D01*
X2531847Y-44431191D02*
X2531847Y-44612144D01*
X2531847Y-44612144D02*
X2484228Y-44702620D01*
X1912800Y-44295477D02*
X1865180Y-44385953D01*
X1865180Y-44385953D02*
X1865180Y-44612144D01*
X1865180Y-44612144D02*
X1912800Y-44702620D01*
X1912800Y-44702620D02*
X2008038Y-44747858D01*
X2008038Y-44747858D02*
X2103276Y-44747858D01*
X2103276Y-44747858D02*
X2198514Y-44702620D01*
X2198514Y-44702620D02*
X2246133Y-44612144D01*
X2246133Y-44612144D02*
X2246133Y-44385953D01*
X2246133Y-44385953D02*
X2293752Y-44295477D01*
X1912800Y-43888334D02*
X1865180Y-43797858D01*
X1865180Y-43797858D02*
X1865180Y-43616906D01*
X1865180Y-43616906D02*
X1912800Y-43526429D01*
X1912800Y-43526429D02*
X2008038Y-43481191D01*
X2008038Y-43481191D02*
X2055657Y-43481191D01*
X2055657Y-43481191D02*
X2150895Y-43526429D01*
X2150895Y-43526429D02*
X2198514Y-43616906D01*
X2198514Y-43616906D02*
X2198514Y-43752620D01*
X2198514Y-43752620D02*
X2246133Y-43843096D01*
X2246133Y-43843096D02*
X2341371Y-43888334D01*
X2341371Y-43888334D02*
X2388990Y-43888334D01*
X2388990Y-43888334D02*
X2484228Y-43843096D01*
X2484228Y-43843096D02*
X2531847Y-43752620D01*
X2531847Y-43752620D02*
X2531847Y-43616906D01*
X2531847Y-43616906D02*
X2484228Y-43526429D01*
X2531847Y-43209762D02*
X2531847Y-42847858D01*
X2865180Y-43074048D02*
X2008038Y-43074048D01*
X2008038Y-43074048D02*
X1912800Y-43028810D01*
X1912800Y-43028810D02*
X1865180Y-42938334D01*
X1865180Y-42938334D02*
X1865180Y-42847858D01*
X1865180Y-42531191D02*
X2531847Y-42531191D01*
X2341371Y-42531191D02*
X2436609Y-42485953D01*
X2436609Y-42485953D02*
X2484228Y-42440715D01*
X2484228Y-42440715D02*
X2531847Y-42350239D01*
X2531847Y-42350239D02*
X2531847Y-42259762D01*
X1865180Y-41807382D02*
X1912800Y-41897858D01*
X1912800Y-41897858D02*
X1960419Y-41943096D01*
X1960419Y-41943096D02*
X2055657Y-41988334D01*
X2055657Y-41988334D02*
X2341371Y-41988334D01*
X2341371Y-41988334D02*
X2436609Y-41943096D01*
X2436609Y-41943096D02*
X2484228Y-41897858D01*
X2484228Y-41897858D02*
X2531847Y-41807382D01*
X2531847Y-41807382D02*
X2531847Y-41671667D01*
X2531847Y-41671667D02*
X2484228Y-41581191D01*
X2484228Y-41581191D02*
X2436609Y-41535953D01*
X2436609Y-41535953D02*
X2341371Y-41490715D01*
X2341371Y-41490715D02*
X2055657Y-41490715D01*
X2055657Y-41490715D02*
X1960419Y-41535953D01*
X1960419Y-41535953D02*
X1912800Y-41581191D01*
X1912800Y-41581191D02*
X1865180Y-41671667D01*
X1865180Y-41671667D02*
X1865180Y-41807382D01*
X1865180Y-41083572D02*
X2531847Y-41083572D01*
X2436609Y-41083572D02*
X2484228Y-41038334D01*
X2484228Y-41038334D02*
X2531847Y-40947858D01*
X2531847Y-40947858D02*
X2531847Y-40812143D01*
X2531847Y-40812143D02*
X2484228Y-40721667D01*
X2484228Y-40721667D02*
X2388990Y-40676429D01*
X2388990Y-40676429D02*
X1865180Y-40676429D01*
X2388990Y-40676429D02*
X2484228Y-40631191D01*
X2484228Y-40631191D02*
X2531847Y-40540715D01*
X2531847Y-40540715D02*
X2531847Y-40405001D01*
X2531847Y-40405001D02*
X2484228Y-40314524D01*
X2484228Y-40314524D02*
X2388990Y-40269286D01*
X2388990Y-40269286D02*
X1865180Y-40269286D01*
X1912800Y-39455000D02*
X1865180Y-39545476D01*
X1865180Y-39545476D02*
X1865180Y-39726429D01*
X1865180Y-39726429D02*
X1912800Y-39816905D01*
X1912800Y-39816905D02*
X2008038Y-39862143D01*
X2008038Y-39862143D02*
X2388990Y-39862143D01*
X2388990Y-39862143D02*
X2484228Y-39816905D01*
X2484228Y-39816905D02*
X2531847Y-39726429D01*
X2531847Y-39726429D02*
X2531847Y-39545476D01*
X2531847Y-39545476D02*
X2484228Y-39455000D01*
X2484228Y-39455000D02*
X2388990Y-39409762D01*
X2388990Y-39409762D02*
X2293752Y-39409762D01*
X2293752Y-39409762D02*
X2198514Y-39862143D01*
X2531847Y-39138333D02*
X2531847Y-38776429D01*
X2865180Y-39002619D02*
X2008038Y-39002619D01*
X2008038Y-39002619D02*
X1912800Y-38957381D01*
X1912800Y-38957381D02*
X1865180Y-38866905D01*
X1865180Y-38866905D02*
X1865180Y-38776429D01*
X1912800Y-38097857D02*
X1865180Y-38188333D01*
X1865180Y-38188333D02*
X1865180Y-38369286D01*
X1865180Y-38369286D02*
X1912800Y-38459762D01*
X1912800Y-38459762D02*
X2008038Y-38505000D01*
X2008038Y-38505000D02*
X2388990Y-38505000D01*
X2388990Y-38505000D02*
X2484228Y-38459762D01*
X2484228Y-38459762D02*
X2531847Y-38369286D01*
X2531847Y-38369286D02*
X2531847Y-38188333D01*
X2531847Y-38188333D02*
X2484228Y-38097857D01*
X2484228Y-38097857D02*
X2388990Y-38052619D01*
X2388990Y-38052619D02*
X2293752Y-38052619D01*
X2293752Y-38052619D02*
X2198514Y-38505000D01*
X1865180Y-37645476D02*
X2531847Y-37645476D01*
X2341371Y-37645476D02*
X2436609Y-37600238D01*
X2436609Y-37600238D02*
X2484228Y-37555000D01*
X2484228Y-37555000D02*
X2531847Y-37464524D01*
X2531847Y-37464524D02*
X2531847Y-37374047D01*
X1912800Y-37102619D02*
X1865180Y-37012143D01*
X1865180Y-37012143D02*
X1865180Y-36831191D01*
X1865180Y-36831191D02*
X1912800Y-36740714D01*
X1912800Y-36740714D02*
X2008038Y-36695476D01*
X2008038Y-36695476D02*
X2055657Y-36695476D01*
X2055657Y-36695476D02*
X2150895Y-36740714D01*
X2150895Y-36740714D02*
X2198514Y-36831191D01*
X2198514Y-36831191D02*
X2198514Y-36966905D01*
X2198514Y-36966905D02*
X2246133Y-37057381D01*
X2246133Y-37057381D02*
X2341371Y-37102619D01*
X2341371Y-37102619D02*
X2388990Y-37102619D01*
X2388990Y-37102619D02*
X2484228Y-37057381D01*
X2484228Y-37057381D02*
X2531847Y-36966905D01*
X2531847Y-36966905D02*
X2531847Y-36831191D01*
X2531847Y-36831191D02*
X2484228Y-36740714D01*
X1960419Y-36288333D02*
X1912800Y-36243095D01*
X1912800Y-36243095D02*
X1865180Y-36288333D01*
X1865180Y-36288333D02*
X1912800Y-36333571D01*
X1912800Y-36333571D02*
X1960419Y-36288333D01*
X1960419Y-36288333D02*
X1865180Y-36288333D01*
X1912800Y-35474047D02*
X1865180Y-35564523D01*
X1865180Y-35564523D02*
X1865180Y-35745476D01*
X1865180Y-35745476D02*
X1912800Y-35835952D01*
X1912800Y-35835952D02*
X2008038Y-35881190D01*
X2008038Y-35881190D02*
X2388990Y-35881190D01*
X2388990Y-35881190D02*
X2484228Y-35835952D01*
X2484228Y-35835952D02*
X2531847Y-35745476D01*
X2531847Y-35745476D02*
X2531847Y-35564523D01*
X2531847Y-35564523D02*
X2484228Y-35474047D01*
X2484228Y-35474047D02*
X2388990Y-35428809D01*
X2388990Y-35428809D02*
X2293752Y-35428809D01*
X2293752Y-35428809D02*
X2198514Y-35881190D01*
X2531847Y-34614523D02*
X1865180Y-34614523D01*
X2531847Y-35021666D02*
X2008038Y-35021666D01*
X2008038Y-35021666D02*
X1912800Y-34976428D01*
X1912800Y-34976428D02*
X1865180Y-34885952D01*
X1865180Y-34885952D02*
X1865180Y-34750237D01*
X1865180Y-34750237D02*
X1912800Y-34659761D01*
X1912800Y-34659761D02*
X1960419Y-34614523D01*
X1912800Y-34116904D02*
X1865180Y-34116904D01*
X1865180Y-34116904D02*
X1769942Y-34162142D01*
X1769942Y-34162142D02*
X1722323Y-34207380D01*
X2769942Y-33031189D02*
X2817561Y-32985951D01*
X2817561Y-32985951D02*
X2865180Y-32895475D01*
X2865180Y-32895475D02*
X2865180Y-32669284D01*
X2865180Y-32669284D02*
X2817561Y-32578808D01*
X2817561Y-32578808D02*
X2769942Y-32533570D01*
X2769942Y-32533570D02*
X2674704Y-32488332D01*
X2674704Y-32488332D02*
X2579466Y-32488332D01*
X2579466Y-32488332D02*
X2436609Y-32533570D01*
X2436609Y-32533570D02*
X1865180Y-33076427D01*
X1865180Y-33076427D02*
X1865180Y-32488332D01*
X2865180Y-31900237D02*
X2865180Y-31809760D01*
X2865180Y-31809760D02*
X2817561Y-31719284D01*
X2817561Y-31719284D02*
X2769942Y-31674046D01*
X2769942Y-31674046D02*
X2674704Y-31628808D01*
X2674704Y-31628808D02*
X2484228Y-31583570D01*
X2484228Y-31583570D02*
X2246133Y-31583570D01*
X2246133Y-31583570D02*
X2055657Y-31628808D01*
X2055657Y-31628808D02*
X1960419Y-31674046D01*
X1960419Y-31674046D02*
X1912800Y-31719284D01*
X1912800Y-31719284D02*
X1865180Y-31809760D01*
X1865180Y-31809760D02*
X1865180Y-31900237D01*
X1865180Y-31900237D02*
X1912800Y-31990713D01*
X1912800Y-31990713D02*
X1960419Y-32035951D01*
X1960419Y-32035951D02*
X2055657Y-32081189D01*
X2055657Y-32081189D02*
X2246133Y-32126427D01*
X2246133Y-32126427D02*
X2484228Y-32126427D01*
X2484228Y-32126427D02*
X2674704Y-32081189D01*
X2674704Y-32081189D02*
X2769942Y-32035951D01*
X2769942Y-32035951D02*
X2817561Y-31990713D01*
X2817561Y-31990713D02*
X2865180Y-31900237D01*
X2769942Y-31221665D02*
X2817561Y-31176427D01*
X2817561Y-31176427D02*
X2865180Y-31085951D01*
X2865180Y-31085951D02*
X2865180Y-30859760D01*
X2865180Y-30859760D02*
X2817561Y-30769284D01*
X2817561Y-30769284D02*
X2769942Y-30724046D01*
X2769942Y-30724046D02*
X2674704Y-30678808D01*
X2674704Y-30678808D02*
X2579466Y-30678808D01*
X2579466Y-30678808D02*
X2436609Y-30724046D01*
X2436609Y-30724046D02*
X1865180Y-31266903D01*
X1865180Y-31266903D02*
X1865180Y-30678808D01*
X2865180Y-30362141D02*
X2865180Y-29774046D01*
X2865180Y-29774046D02*
X2484228Y-30090713D01*
X2484228Y-30090713D02*
X2484228Y-29954998D01*
X2484228Y-29954998D02*
X2436609Y-29864522D01*
X2436609Y-29864522D02*
X2388990Y-29819284D01*
X2388990Y-29819284D02*
X2293752Y-29774046D01*
X2293752Y-29774046D02*
X2055657Y-29774046D01*
X2055657Y-29774046D02*
X1960419Y-29819284D01*
X1960419Y-29819284D02*
X1912800Y-29864522D01*
X1912800Y-29864522D02*
X1865180Y-29954998D01*
X1865180Y-29954998D02*
X1865180Y-30226427D01*
X1865180Y-30226427D02*
X1912800Y-30316903D01*
X1912800Y-30316903D02*
X1960419Y-30362141D01*
X4488990Y-47837145D02*
X4488990Y-48170478D01*
X3965180Y-48170478D02*
X4965180Y-48170478D01*
X4965180Y-48170478D02*
X4965180Y-47694288D01*
X3965180Y-47170478D02*
X4012800Y-47265716D01*
X4012800Y-47265716D02*
X4060419Y-47313335D01*
X4060419Y-47313335D02*
X4155657Y-47360954D01*
X4155657Y-47360954D02*
X4441371Y-47360954D01*
X4441371Y-47360954D02*
X4536609Y-47313335D01*
X4536609Y-47313335D02*
X4584228Y-47265716D01*
X4584228Y-47265716D02*
X4631847Y-47170478D01*
X4631847Y-47170478D02*
X4631847Y-47027621D01*
X4631847Y-47027621D02*
X4584228Y-46932383D01*
X4584228Y-46932383D02*
X4536609Y-46884764D01*
X4536609Y-46884764D02*
X4441371Y-46837145D01*
X4441371Y-46837145D02*
X4155657Y-46837145D01*
X4155657Y-46837145D02*
X4060419Y-46884764D01*
X4060419Y-46884764D02*
X4012800Y-46932383D01*
X4012800Y-46932383D02*
X3965180Y-47027621D01*
X3965180Y-47027621D02*
X3965180Y-47170478D01*
X4012800Y-45980002D02*
X3965180Y-46075240D01*
X3965180Y-46075240D02*
X3965180Y-46265716D01*
X3965180Y-46265716D02*
X4012800Y-46360954D01*
X4012800Y-46360954D02*
X4060419Y-46408573D01*
X4060419Y-46408573D02*
X4155657Y-46456192D01*
X4155657Y-46456192D02*
X4441371Y-46456192D01*
X4441371Y-46456192D02*
X4536609Y-46408573D01*
X4536609Y-46408573D02*
X4584228Y-46360954D01*
X4584228Y-46360954D02*
X4631847Y-46265716D01*
X4631847Y-46265716D02*
X4631847Y-46075240D01*
X4631847Y-46075240D02*
X4584228Y-45980002D01*
X4631847Y-45122859D02*
X3965180Y-45122859D01*
X4631847Y-45551430D02*
X4108038Y-45551430D01*
X4108038Y-45551430D02*
X4012800Y-45503811D01*
X4012800Y-45503811D02*
X3965180Y-45408573D01*
X3965180Y-45408573D02*
X3965180Y-45265716D01*
X3965180Y-45265716D02*
X4012800Y-45170478D01*
X4012800Y-45170478D02*
X4060419Y-45122859D01*
X4012800Y-44694287D02*
X3965180Y-44599049D01*
X3965180Y-44599049D02*
X3965180Y-44408573D01*
X3965180Y-44408573D02*
X4012800Y-44313335D01*
X4012800Y-44313335D02*
X4108038Y-44265716D01*
X4108038Y-44265716D02*
X4155657Y-44265716D01*
X4155657Y-44265716D02*
X4250895Y-44313335D01*
X4250895Y-44313335D02*
X4298514Y-44408573D01*
X4298514Y-44408573D02*
X4298514Y-44551430D01*
X4298514Y-44551430D02*
X4346133Y-44646668D01*
X4346133Y-44646668D02*
X4441371Y-44694287D01*
X4441371Y-44694287D02*
X4488990Y-44694287D01*
X4488990Y-44694287D02*
X4584228Y-44646668D01*
X4584228Y-44646668D02*
X4631847Y-44551430D01*
X4631847Y-44551430D02*
X4631847Y-44408573D01*
X4631847Y-44408573D02*
X4584228Y-44313335D01*
X4012800Y-43456192D02*
X3965180Y-43551430D01*
X3965180Y-43551430D02*
X3965180Y-43741906D01*
X3965180Y-43741906D02*
X4012800Y-43837144D01*
X4012800Y-43837144D02*
X4108038Y-43884763D01*
X4108038Y-43884763D02*
X4488990Y-43884763D01*
X4488990Y-43884763D02*
X4584228Y-43837144D01*
X4584228Y-43837144D02*
X4631847Y-43741906D01*
X4631847Y-43741906D02*
X4631847Y-43551430D01*
X4631847Y-43551430D02*
X4584228Y-43456192D01*
X4584228Y-43456192D02*
X4488990Y-43408573D01*
X4488990Y-43408573D02*
X4393752Y-43408573D01*
X4393752Y-43408573D02*
X4298514Y-43884763D01*
X3965180Y-42980001D02*
X4631847Y-42980001D01*
X4441371Y-42980001D02*
X4536609Y-42932382D01*
X4536609Y-42932382D02*
X4584228Y-42884763D01*
X4584228Y-42884763D02*
X4631847Y-42789525D01*
X4631847Y-42789525D02*
X4631847Y-42694287D01*
X4012800Y-41170477D02*
X3965180Y-41265715D01*
X3965180Y-41265715D02*
X3965180Y-41456191D01*
X3965180Y-41456191D02*
X4012800Y-41551429D01*
X4012800Y-41551429D02*
X4060419Y-41599048D01*
X4060419Y-41599048D02*
X4155657Y-41646667D01*
X4155657Y-41646667D02*
X4441371Y-41646667D01*
X4441371Y-41646667D02*
X4536609Y-41599048D01*
X4536609Y-41599048D02*
X4584228Y-41551429D01*
X4584228Y-41551429D02*
X4631847Y-41456191D01*
X4631847Y-41456191D02*
X4631847Y-41265715D01*
X4631847Y-41265715D02*
X4584228Y-41170477D01*
X3965180Y-40599048D02*
X4012800Y-40694286D01*
X4012800Y-40694286D02*
X4060419Y-40741905D01*
X4060419Y-40741905D02*
X4155657Y-40789524D01*
X4155657Y-40789524D02*
X4441371Y-40789524D01*
X4441371Y-40789524D02*
X4536609Y-40741905D01*
X4536609Y-40741905D02*
X4584228Y-40694286D01*
X4584228Y-40694286D02*
X4631847Y-40599048D01*
X4631847Y-40599048D02*
X4631847Y-40456191D01*
X4631847Y-40456191D02*
X4584228Y-40360953D01*
X4584228Y-40360953D02*
X4536609Y-40313334D01*
X4536609Y-40313334D02*
X4441371Y-40265715D01*
X4441371Y-40265715D02*
X4155657Y-40265715D01*
X4155657Y-40265715D02*
X4060419Y-40313334D01*
X4060419Y-40313334D02*
X4012800Y-40360953D01*
X4012800Y-40360953D02*
X3965180Y-40456191D01*
X3965180Y-40456191D02*
X3965180Y-40599048D01*
X4631847Y-39837143D02*
X3965180Y-39837143D01*
X4536609Y-39837143D02*
X4584228Y-39789524D01*
X4584228Y-39789524D02*
X4631847Y-39694286D01*
X4631847Y-39694286D02*
X4631847Y-39551429D01*
X4631847Y-39551429D02*
X4584228Y-39456191D01*
X4584228Y-39456191D02*
X4488990Y-39408572D01*
X4488990Y-39408572D02*
X3965180Y-39408572D01*
X4631847Y-39075238D02*
X4631847Y-38694286D01*
X4965180Y-38932381D02*
X4108038Y-38932381D01*
X4108038Y-38932381D02*
X4012800Y-38884762D01*
X4012800Y-38884762D02*
X3965180Y-38789524D01*
X3965180Y-38789524D02*
X3965180Y-38694286D01*
X3965180Y-38360952D02*
X4631847Y-38360952D01*
X4441371Y-38360952D02*
X4536609Y-38313333D01*
X4536609Y-38313333D02*
X4584228Y-38265714D01*
X4584228Y-38265714D02*
X4631847Y-38170476D01*
X4631847Y-38170476D02*
X4631847Y-38075238D01*
X3965180Y-37599047D02*
X4012800Y-37694285D01*
X4012800Y-37694285D02*
X4060419Y-37741904D01*
X4060419Y-37741904D02*
X4155657Y-37789523D01*
X4155657Y-37789523D02*
X4441371Y-37789523D01*
X4441371Y-37789523D02*
X4536609Y-37741904D01*
X4536609Y-37741904D02*
X4584228Y-37694285D01*
X4584228Y-37694285D02*
X4631847Y-37599047D01*
X4631847Y-37599047D02*
X4631847Y-37456190D01*
X4631847Y-37456190D02*
X4584228Y-37360952D01*
X4584228Y-37360952D02*
X4536609Y-37313333D01*
X4536609Y-37313333D02*
X4441371Y-37265714D01*
X4441371Y-37265714D02*
X4155657Y-37265714D01*
X4155657Y-37265714D02*
X4060419Y-37313333D01*
X4060419Y-37313333D02*
X4012800Y-37360952D01*
X4012800Y-37360952D02*
X3965180Y-37456190D01*
X3965180Y-37456190D02*
X3965180Y-37599047D01*
X3965180Y-36694285D02*
X4012800Y-36789523D01*
X4012800Y-36789523D02*
X4108038Y-36837142D01*
X4108038Y-36837142D02*
X4965180Y-36837142D01*
X3965180Y-36170475D02*
X4012800Y-36265713D01*
X4012800Y-36265713D02*
X4108038Y-36313332D01*
X4108038Y-36313332D02*
X4965180Y-36313332D01*
X4012800Y-35408570D02*
X3965180Y-35503808D01*
X3965180Y-35503808D02*
X3965180Y-35694284D01*
X3965180Y-35694284D02*
X4012800Y-35789522D01*
X4012800Y-35789522D02*
X4108038Y-35837141D01*
X4108038Y-35837141D02*
X4488990Y-35837141D01*
X4488990Y-35837141D02*
X4584228Y-35789522D01*
X4584228Y-35789522D02*
X4631847Y-35694284D01*
X4631847Y-35694284D02*
X4631847Y-35503808D01*
X4631847Y-35503808D02*
X4584228Y-35408570D01*
X4584228Y-35408570D02*
X4488990Y-35360951D01*
X4488990Y-35360951D02*
X4393752Y-35360951D01*
X4393752Y-35360951D02*
X4298514Y-35837141D01*
X3965180Y-34932379D02*
X4631847Y-34932379D01*
X4441371Y-34932379D02*
X4536609Y-34884760D01*
X4536609Y-34884760D02*
X4584228Y-34837141D01*
X4584228Y-34837141D02*
X4631847Y-34741903D01*
X4631847Y-34741903D02*
X4631847Y-34646665D01*
X3965180Y-33551426D02*
X4965180Y-33551426D01*
X4584228Y-33551426D02*
X4631847Y-33456188D01*
X4631847Y-33456188D02*
X4631847Y-33265712D01*
X4631847Y-33265712D02*
X4584228Y-33170474D01*
X4584228Y-33170474D02*
X4536609Y-33122855D01*
X4536609Y-33122855D02*
X4441371Y-33075236D01*
X4441371Y-33075236D02*
X4155657Y-33075236D01*
X4155657Y-33075236D02*
X4060419Y-33122855D01*
X4060419Y-33122855D02*
X4012800Y-33170474D01*
X4012800Y-33170474D02*
X3965180Y-33265712D01*
X3965180Y-33265712D02*
X3965180Y-33456188D01*
X3965180Y-33456188D02*
X4012800Y-33551426D01*
X3965180Y-32503807D02*
X4012800Y-32599045D01*
X4012800Y-32599045D02*
X4060419Y-32646664D01*
X4060419Y-32646664D02*
X4155657Y-32694283D01*
X4155657Y-32694283D02*
X4441371Y-32694283D01*
X4441371Y-32694283D02*
X4536609Y-32646664D01*
X4536609Y-32646664D02*
X4584228Y-32599045D01*
X4584228Y-32599045D02*
X4631847Y-32503807D01*
X4631847Y-32503807D02*
X4631847Y-32360950D01*
X4631847Y-32360950D02*
X4584228Y-32265712D01*
X4584228Y-32265712D02*
X4536609Y-32218093D01*
X4536609Y-32218093D02*
X4441371Y-32170474D01*
X4441371Y-32170474D02*
X4155657Y-32170474D01*
X4155657Y-32170474D02*
X4060419Y-32218093D01*
X4060419Y-32218093D02*
X4012800Y-32265712D01*
X4012800Y-32265712D02*
X3965180Y-32360950D01*
X3965180Y-32360950D02*
X3965180Y-32503807D01*
X3965180Y-31313331D02*
X4488990Y-31313331D01*
X4488990Y-31313331D02*
X4584228Y-31360950D01*
X4584228Y-31360950D02*
X4631847Y-31456188D01*
X4631847Y-31456188D02*
X4631847Y-31646664D01*
X4631847Y-31646664D02*
X4584228Y-31741902D01*
X4012800Y-31313331D02*
X3965180Y-31408569D01*
X3965180Y-31408569D02*
X3965180Y-31646664D01*
X3965180Y-31646664D02*
X4012800Y-31741902D01*
X4012800Y-31741902D02*
X4108038Y-31789521D01*
X4108038Y-31789521D02*
X4203276Y-31789521D01*
X4203276Y-31789521D02*
X4298514Y-31741902D01*
X4298514Y-31741902D02*
X4346133Y-31646664D01*
X4346133Y-31646664D02*
X4346133Y-31408569D01*
X4346133Y-31408569D02*
X4393752Y-31313331D01*
X3965180Y-30837140D02*
X4631847Y-30837140D01*
X4441371Y-30837140D02*
X4536609Y-30789521D01*
X4536609Y-30789521D02*
X4584228Y-30741902D01*
X4584228Y-30741902D02*
X4631847Y-30646664D01*
X4631847Y-30646664D02*
X4631847Y-30551426D01*
X3965180Y-29789521D02*
X4965180Y-29789521D01*
X4012800Y-29789521D02*
X3965180Y-29884759D01*
X3965180Y-29884759D02*
X3965180Y-30075235D01*
X3965180Y-30075235D02*
X4012800Y-30170473D01*
X4012800Y-30170473D02*
X4060419Y-30218092D01*
X4060419Y-30218092D02*
X4155657Y-30265711D01*
X4155657Y-30265711D02*
X4441371Y-30265711D01*
X4441371Y-30265711D02*
X4536609Y-30218092D01*
X4536609Y-30218092D02*
X4584228Y-30170473D01*
X4584228Y-30170473D02*
X4631847Y-30075235D01*
X4631847Y-30075235D02*
X4631847Y-29884759D01*
X4631847Y-29884759D02*
X4584228Y-29789521D01*
D13*
X57115238Y-53906800D02*
X57000952Y-53944895D01*
X57000952Y-53944895D02*
X56810476Y-53944895D01*
X56810476Y-53944895D02*
X56734285Y-53906800D01*
X56734285Y-53906800D02*
X56696190Y-53868704D01*
X56696190Y-53868704D02*
X56658095Y-53792514D01*
X56658095Y-53792514D02*
X56658095Y-53716323D01*
X56658095Y-53716323D02*
X56696190Y-53640133D01*
X56696190Y-53640133D02*
X56734285Y-53602038D01*
X56734285Y-53602038D02*
X56810476Y-53563942D01*
X56810476Y-53563942D02*
X56962857Y-53525847D01*
X56962857Y-53525847D02*
X57039047Y-53487752D01*
X57039047Y-53487752D02*
X57077142Y-53449657D01*
X57077142Y-53449657D02*
X57115238Y-53373466D01*
X57115238Y-53373466D02*
X57115238Y-53297276D01*
X57115238Y-53297276D02*
X57077142Y-53221085D01*
X57077142Y-53221085D02*
X57039047Y-53182990D01*
X57039047Y-53182990D02*
X56962857Y-53144895D01*
X56962857Y-53144895D02*
X56772380Y-53144895D01*
X56772380Y-53144895D02*
X56658095Y-53182990D01*
X56391428Y-53144895D02*
X56200952Y-53944895D01*
X56200952Y-53944895D02*
X56048571Y-53373466D01*
X56048571Y-53373466D02*
X55896190Y-53944895D01*
X55896190Y-53944895D02*
X55705714Y-53144895D01*
X55400951Y-53944895D02*
X55400951Y-53144895D01*
X55400951Y-53144895D02*
X55210475Y-53144895D01*
X55210475Y-53144895D02*
X55096189Y-53182990D01*
X55096189Y-53182990D02*
X55019999Y-53259180D01*
X55019999Y-53259180D02*
X54981904Y-53335371D01*
X54981904Y-53335371D02*
X54943808Y-53487752D01*
X54943808Y-53487752D02*
X54943808Y-53602038D01*
X54943808Y-53602038D02*
X54981904Y-53754419D01*
X54981904Y-53754419D02*
X55019999Y-53830609D01*
X55019999Y-53830609D02*
X55096189Y-53906800D01*
X55096189Y-53906800D02*
X55210475Y-53944895D01*
X55210475Y-53944895D02*
X55400951Y-53944895D01*
X54600951Y-53944895D02*
X54600951Y-53144895D01*
X54067618Y-53144895D02*
X53915237Y-53144895D01*
X53915237Y-53144895D02*
X53839047Y-53182990D01*
X53839047Y-53182990D02*
X53762856Y-53259180D01*
X53762856Y-53259180D02*
X53724761Y-53411561D01*
X53724761Y-53411561D02*
X53724761Y-53678228D01*
X53724761Y-53678228D02*
X53762856Y-53830609D01*
X53762856Y-53830609D02*
X53839047Y-53906800D01*
X53839047Y-53906800D02*
X53915237Y-53944895D01*
X53915237Y-53944895D02*
X54067618Y-53944895D01*
X54067618Y-53944895D02*
X54143809Y-53906800D01*
X54143809Y-53906800D02*
X54219999Y-53830609D01*
X54219999Y-53830609D02*
X54258095Y-53678228D01*
X54258095Y-53678228D02*
X54258095Y-53411561D01*
X54258095Y-53411561D02*
X54219999Y-53259180D01*
X54219999Y-53259180D02*
X54143809Y-53182990D01*
X54143809Y-53182990D02*
X54067618Y-53144895D01*
D11*
X59767618Y-49134819D02*
X59767618Y-48134819D01*
X59767618Y-48134819D02*
X59529523Y-48134819D01*
X59529523Y-48134819D02*
X59386666Y-48182438D01*
X59386666Y-48182438D02*
X59291428Y-48277676D01*
X59291428Y-48277676D02*
X59243809Y-48372914D01*
X59243809Y-48372914D02*
X59196190Y-48563390D01*
X59196190Y-48563390D02*
X59196190Y-48706247D01*
X59196190Y-48706247D02*
X59243809Y-48896723D01*
X59243809Y-48896723D02*
X59291428Y-48991961D01*
X59291428Y-48991961D02*
X59386666Y-49087200D01*
X59386666Y-49087200D02*
X59529523Y-49134819D01*
X59529523Y-49134819D02*
X59767618Y-49134819D01*
X58386666Y-49087200D02*
X58481904Y-49134819D01*
X58481904Y-49134819D02*
X58672380Y-49134819D01*
X58672380Y-49134819D02*
X58767618Y-49087200D01*
X58767618Y-49087200D02*
X58815237Y-48991961D01*
X58815237Y-48991961D02*
X58815237Y-48611009D01*
X58815237Y-48611009D02*
X58767618Y-48515771D01*
X58767618Y-48515771D02*
X58672380Y-48468152D01*
X58672380Y-48468152D02*
X58481904Y-48468152D01*
X58481904Y-48468152D02*
X58386666Y-48515771D01*
X58386666Y-48515771D02*
X58339047Y-48611009D01*
X58339047Y-48611009D02*
X58339047Y-48706247D01*
X58339047Y-48706247D02*
X58815237Y-48801485D01*
X57910475Y-49134819D02*
X57910475Y-48134819D01*
X57910475Y-48515771D02*
X57815237Y-48468152D01*
X57815237Y-48468152D02*
X57624761Y-48468152D01*
X57624761Y-48468152D02*
X57529523Y-48515771D01*
X57529523Y-48515771D02*
X57481904Y-48563390D01*
X57481904Y-48563390D02*
X57434285Y-48658628D01*
X57434285Y-48658628D02*
X57434285Y-48944342D01*
X57434285Y-48944342D02*
X57481904Y-49039580D01*
X57481904Y-49039580D02*
X57529523Y-49087200D01*
X57529523Y-49087200D02*
X57624761Y-49134819D01*
X57624761Y-49134819D02*
X57815237Y-49134819D01*
X57815237Y-49134819D02*
X57910475Y-49087200D01*
X56577142Y-48468152D02*
X56577142Y-49134819D01*
X57005713Y-48468152D02*
X57005713Y-48991961D01*
X57005713Y-48991961D02*
X56958094Y-49087200D01*
X56958094Y-49087200D02*
X56862856Y-49134819D01*
X56862856Y-49134819D02*
X56719999Y-49134819D01*
X56719999Y-49134819D02*
X56624761Y-49087200D01*
X56624761Y-49087200D02*
X56577142Y-49039580D01*
X55672380Y-48468152D02*
X55672380Y-49277676D01*
X55672380Y-49277676D02*
X55719999Y-49372914D01*
X55719999Y-49372914D02*
X55767618Y-49420533D01*
X55767618Y-49420533D02*
X55862856Y-49468152D01*
X55862856Y-49468152D02*
X56005713Y-49468152D01*
X56005713Y-49468152D02*
X56100951Y-49420533D01*
X55672380Y-49087200D02*
X55767618Y-49134819D01*
X55767618Y-49134819D02*
X55958094Y-49134819D01*
X55958094Y-49134819D02*
X56053332Y-49087200D01*
X56053332Y-49087200D02*
X56100951Y-49039580D01*
X56100951Y-49039580D02*
X56148570Y-48944342D01*
X56148570Y-48944342D02*
X56148570Y-48658628D01*
X56148570Y-48658628D02*
X56100951Y-48563390D01*
X56100951Y-48563390D02*
X56053332Y-48515771D01*
X56053332Y-48515771D02*
X55958094Y-48468152D01*
X55958094Y-48468152D02*
X55767618Y-48468152D01*
X55767618Y-48468152D02*
X55672380Y-48515771D01*
D14*
X59715238Y-1371004D02*
X59715238Y-2423385D01*
X59715238Y-2423385D02*
X59653333Y-2547195D01*
X59653333Y-2547195D02*
X59591428Y-2609100D01*
X59591428Y-2609100D02*
X59467619Y-2671004D01*
X59467619Y-2671004D02*
X59220000Y-2671004D01*
X59220000Y-2671004D02*
X59096190Y-2609100D01*
X59096190Y-2609100D02*
X59034285Y-2547195D01*
X59034285Y-2547195D02*
X58972381Y-2423385D01*
X58972381Y-2423385D02*
X58972381Y-1371004D01*
X58415237Y-2609100D02*
X58229523Y-2671004D01*
X58229523Y-2671004D02*
X57919999Y-2671004D01*
X57919999Y-2671004D02*
X57796190Y-2609100D01*
X57796190Y-2609100D02*
X57734285Y-2547195D01*
X57734285Y-2547195D02*
X57672380Y-2423385D01*
X57672380Y-2423385D02*
X57672380Y-2299576D01*
X57672380Y-2299576D02*
X57734285Y-2175766D01*
X57734285Y-2175766D02*
X57796190Y-2113861D01*
X57796190Y-2113861D02*
X57919999Y-2051957D01*
X57919999Y-2051957D02*
X58167618Y-1990052D01*
X58167618Y-1990052D02*
X58291428Y-1928147D01*
X58291428Y-1928147D02*
X58353333Y-1866242D01*
X58353333Y-1866242D02*
X58415237Y-1742433D01*
X58415237Y-1742433D02*
X58415237Y-1618623D01*
X58415237Y-1618623D02*
X58353333Y-1494814D01*
X58353333Y-1494814D02*
X58291428Y-1432909D01*
X58291428Y-1432909D02*
X58167618Y-1371004D01*
X58167618Y-1371004D02*
X57858095Y-1371004D01*
X57858095Y-1371004D02*
X57672380Y-1432909D01*
X56681904Y-1990052D02*
X56496190Y-2051957D01*
X56496190Y-2051957D02*
X56434285Y-2113861D01*
X56434285Y-2113861D02*
X56372381Y-2237671D01*
X56372381Y-2237671D02*
X56372381Y-2423385D01*
X56372381Y-2423385D02*
X56434285Y-2547195D01*
X56434285Y-2547195D02*
X56496190Y-2609100D01*
X56496190Y-2609100D02*
X56620000Y-2671004D01*
X56620000Y-2671004D02*
X57115238Y-2671004D01*
X57115238Y-2671004D02*
X57115238Y-1371004D01*
X57115238Y-1371004D02*
X56681904Y-1371004D01*
X56681904Y-1371004D02*
X56558095Y-1432909D01*
X56558095Y-1432909D02*
X56496190Y-1494814D01*
X56496190Y-1494814D02*
X56434285Y-1618623D01*
X56434285Y-1618623D02*
X56434285Y-1742433D01*
X56434285Y-1742433D02*
X56496190Y-1866242D01*
X56496190Y-1866242D02*
X56558095Y-1928147D01*
X56558095Y-1928147D02*
X56681904Y-1990052D01*
X56681904Y-1990052D02*
X57115238Y-1990052D01*
X55815238Y-2175766D02*
X54824762Y-2175766D01*
X53462857Y-2547195D02*
X53524761Y-2609100D01*
X53524761Y-2609100D02*
X53710476Y-2671004D01*
X53710476Y-2671004D02*
X53834285Y-2671004D01*
X53834285Y-2671004D02*
X54019999Y-2609100D01*
X54019999Y-2609100D02*
X54143809Y-2485290D01*
X54143809Y-2485290D02*
X54205714Y-2361480D01*
X54205714Y-2361480D02*
X54267618Y-2113861D01*
X54267618Y-2113861D02*
X54267618Y-1928147D01*
X54267618Y-1928147D02*
X54205714Y-1680528D01*
X54205714Y-1680528D02*
X54143809Y-1556719D01*
X54143809Y-1556719D02*
X54019999Y-1432909D01*
X54019999Y-1432909D02*
X53834285Y-1371004D01*
X53834285Y-1371004D02*
X53710476Y-1371004D01*
X53710476Y-1371004D02*
X53524761Y-1432909D01*
X53524761Y-1432909D02*
X53462857Y-1494814D01*
X2875495Y-22449047D02*
X4175495Y-22449047D01*
X4175495Y-22449047D02*
X4175495Y-21953809D01*
X4175495Y-21953809D02*
X4113590Y-21829999D01*
X4113590Y-21829999D02*
X4051685Y-21768094D01*
X4051685Y-21768094D02*
X3927876Y-21706190D01*
X3927876Y-21706190D02*
X3742161Y-21706190D01*
X3742161Y-21706190D02*
X3618352Y-21768094D01*
X3618352Y-21768094D02*
X3556447Y-21829999D01*
X3556447Y-21829999D02*
X3494542Y-21953809D01*
X3494542Y-21953809D02*
X3494542Y-22449047D01*
X2875495Y-20963332D02*
X2937400Y-21087142D01*
X2937400Y-21087142D02*
X2999304Y-21149047D01*
X2999304Y-21149047D02*
X3123114Y-21210951D01*
X3123114Y-21210951D02*
X3494542Y-21210951D01*
X3494542Y-21210951D02*
X3618352Y-21149047D01*
X3618352Y-21149047D02*
X3680257Y-21087142D01*
X3680257Y-21087142D02*
X3742161Y-20963332D01*
X3742161Y-20963332D02*
X3742161Y-20777618D01*
X3742161Y-20777618D02*
X3680257Y-20653809D01*
X3680257Y-20653809D02*
X3618352Y-20591904D01*
X3618352Y-20591904D02*
X3494542Y-20529999D01*
X3494542Y-20529999D02*
X3123114Y-20529999D01*
X3123114Y-20529999D02*
X2999304Y-20591904D01*
X2999304Y-20591904D02*
X2937400Y-20653809D01*
X2937400Y-20653809D02*
X2875495Y-20777618D01*
X2875495Y-20777618D02*
X2875495Y-20963332D01*
X3742161Y-20096666D02*
X2875495Y-19849047D01*
X2875495Y-19849047D02*
X3494542Y-19601428D01*
X3494542Y-19601428D02*
X2875495Y-19353809D01*
X2875495Y-19353809D02*
X3742161Y-19106190D01*
X2937400Y-18115714D02*
X2875495Y-18239523D01*
X2875495Y-18239523D02*
X2875495Y-18487142D01*
X2875495Y-18487142D02*
X2937400Y-18610952D01*
X2937400Y-18610952D02*
X3061209Y-18672856D01*
X3061209Y-18672856D02*
X3556447Y-18672856D01*
X3556447Y-18672856D02*
X3680257Y-18610952D01*
X3680257Y-18610952D02*
X3742161Y-18487142D01*
X3742161Y-18487142D02*
X3742161Y-18239523D01*
X3742161Y-18239523D02*
X3680257Y-18115714D01*
X3680257Y-18115714D02*
X3556447Y-18053809D01*
X3556447Y-18053809D02*
X3432638Y-18053809D01*
X3432638Y-18053809D02*
X3308828Y-18672856D01*
X2875495Y-17496666D02*
X3742161Y-17496666D01*
X3494542Y-17496666D02*
X3618352Y-17434761D01*
X3618352Y-17434761D02*
X3680257Y-17372856D01*
X3680257Y-17372856D02*
X3742161Y-17249047D01*
X3742161Y-17249047D02*
X3742161Y-17125237D01*
X782495Y-20684761D02*
X782495Y-21427618D01*
X782495Y-21056190D02*
X2082495Y-21056190D01*
X2082495Y-21056190D02*
X1896780Y-21179999D01*
X1896780Y-21179999D02*
X1772971Y-21303809D01*
X1772971Y-21303809D02*
X1711066Y-21427618D01*
X1958685Y-20189523D02*
X2020590Y-20127619D01*
X2020590Y-20127619D02*
X2082495Y-20003809D01*
X2082495Y-20003809D02*
X2082495Y-19694285D01*
X2082495Y-19694285D02*
X2020590Y-19570476D01*
X2020590Y-19570476D02*
X1958685Y-19508571D01*
X1958685Y-19508571D02*
X1834876Y-19446666D01*
X1834876Y-19446666D02*
X1711066Y-19446666D01*
X1711066Y-19446666D02*
X1525352Y-19508571D01*
X1525352Y-19508571D02*
X782495Y-20251428D01*
X782495Y-20251428D02*
X782495Y-19446666D01*
X2082495Y-19075238D02*
X782495Y-18641905D01*
X782495Y-18641905D02*
X2082495Y-18208571D01*
D11*
X69510475Y-35434819D02*
X68891428Y-35434819D01*
X68891428Y-35434819D02*
X69224761Y-35815771D01*
X69224761Y-35815771D02*
X69081904Y-35815771D01*
X69081904Y-35815771D02*
X68986666Y-35863390D01*
X68986666Y-35863390D02*
X68939047Y-35911009D01*
X68939047Y-35911009D02*
X68891428Y-36006247D01*
X68891428Y-36006247D02*
X68891428Y-36244342D01*
X68891428Y-36244342D02*
X68939047Y-36339580D01*
X68939047Y-36339580D02*
X68986666Y-36387200D01*
X68986666Y-36387200D02*
X69081904Y-36434819D01*
X69081904Y-36434819D02*
X69367618Y-36434819D01*
X69367618Y-36434819D02*
X69462856Y-36387200D01*
X69462856Y-36387200D02*
X69510475Y-36339580D01*
X68558094Y-35768152D02*
X68319999Y-36434819D01*
X68319999Y-36434819D02*
X68081904Y-35768152D01*
X67796189Y-35434819D02*
X67177142Y-35434819D01*
X67177142Y-35434819D02*
X67510475Y-35815771D01*
X67510475Y-35815771D02*
X67367618Y-35815771D01*
X67367618Y-35815771D02*
X67272380Y-35863390D01*
X67272380Y-35863390D02*
X67224761Y-35911009D01*
X67224761Y-35911009D02*
X67177142Y-36006247D01*
X67177142Y-36006247D02*
X67177142Y-36244342D01*
X67177142Y-36244342D02*
X67224761Y-36339580D01*
X67224761Y-36339580D02*
X67272380Y-36387200D01*
X67272380Y-36387200D02*
X67367618Y-36434819D01*
X67367618Y-36434819D02*
X67653332Y-36434819D01*
X67653332Y-36434819D02*
X67748570Y-36387200D01*
X67748570Y-36387200D02*
X67796189Y-36339580D01*
D14*
X36779524Y-2524504D02*
X36779524Y-1224504D01*
X36779524Y-1843552D02*
X36036667Y-1843552D01*
X36036667Y-2524504D02*
X36036667Y-1224504D01*
X35479523Y-2153076D02*
X34860476Y-2153076D01*
X35603333Y-2524504D02*
X35170000Y-1224504D01*
X35170000Y-1224504D02*
X34736666Y-2524504D01*
X34303333Y-2524504D02*
X34303333Y-1224504D01*
X34303333Y-1224504D02*
X33560476Y-2524504D01*
X33560476Y-2524504D02*
X33560476Y-1224504D01*
X32941428Y-2524504D02*
X32941428Y-1224504D01*
X32941428Y-1224504D02*
X32631904Y-1224504D01*
X32631904Y-1224504D02*
X32446190Y-1286409D01*
X32446190Y-1286409D02*
X32322380Y-1410219D01*
X32322380Y-1410219D02*
X32260475Y-1534028D01*
X32260475Y-1534028D02*
X32198571Y-1781647D01*
X32198571Y-1781647D02*
X32198571Y-1967361D01*
X32198571Y-1967361D02*
X32260475Y-2214980D01*
X32260475Y-2214980D02*
X32322380Y-2338790D01*
X32322380Y-2338790D02*
X32446190Y-2462600D01*
X32446190Y-2462600D02*
X32631904Y-2524504D01*
X32631904Y-2524504D02*
X32941428Y-2524504D01*
X36098571Y-4493695D02*
X36160475Y-4555600D01*
X36160475Y-4555600D02*
X36346190Y-4617504D01*
X36346190Y-4617504D02*
X36469999Y-4617504D01*
X36469999Y-4617504D02*
X36655713Y-4555600D01*
X36655713Y-4555600D02*
X36779523Y-4431790D01*
X36779523Y-4431790D02*
X36841428Y-4307980D01*
X36841428Y-4307980D02*
X36903332Y-4060361D01*
X36903332Y-4060361D02*
X36903332Y-3874647D01*
X36903332Y-3874647D02*
X36841428Y-3627028D01*
X36841428Y-3627028D02*
X36779523Y-3503219D01*
X36779523Y-3503219D02*
X36655713Y-3379409D01*
X36655713Y-3379409D02*
X36469999Y-3317504D01*
X36469999Y-3317504D02*
X36346190Y-3317504D01*
X36346190Y-3317504D02*
X36160475Y-3379409D01*
X36160475Y-3379409D02*
X36098571Y-3441314D01*
X35727142Y-3317504D02*
X34984285Y-3317504D01*
X35355713Y-4617504D02*
X35355713Y-3317504D01*
X33808095Y-4617504D02*
X34241428Y-3998457D01*
X34550952Y-4617504D02*
X34550952Y-3317504D01*
X34550952Y-3317504D02*
X34055714Y-3317504D01*
X34055714Y-3317504D02*
X33931904Y-3379409D01*
X33931904Y-3379409D02*
X33869999Y-3441314D01*
X33869999Y-3441314D02*
X33808095Y-3565123D01*
X33808095Y-3565123D02*
X33808095Y-3750838D01*
X33808095Y-3750838D02*
X33869999Y-3874647D01*
X33869999Y-3874647D02*
X33931904Y-3936552D01*
X33931904Y-3936552D02*
X34055714Y-3998457D01*
X34055714Y-3998457D02*
X34550952Y-3998457D01*
X32631904Y-4617504D02*
X33250952Y-4617504D01*
X33250952Y-4617504D02*
X33250952Y-3317504D01*
X32198571Y-4493695D02*
X32136666Y-4555600D01*
X32136666Y-4555600D02*
X32198571Y-4617504D01*
X32198571Y-4617504D02*
X32260475Y-4555600D01*
X32260475Y-4555600D02*
X32198571Y-4493695D01*
X32198571Y-4493695D02*
X32198571Y-4617504D01*
X50903332Y-1271004D02*
X50160475Y-1271004D01*
X50531903Y-2571004D02*
X50531903Y-1271004D01*
X49727142Y-2571004D02*
X49727142Y-1271004D01*
X49169999Y-2571004D02*
X49169999Y-1890052D01*
X49169999Y-1890052D02*
X49231904Y-1766242D01*
X49231904Y-1766242D02*
X49355713Y-1704338D01*
X49355713Y-1704338D02*
X49541427Y-1704338D01*
X49541427Y-1704338D02*
X49665237Y-1766242D01*
X49665237Y-1766242D02*
X49727142Y-1828147D01*
X48055714Y-2509100D02*
X48179523Y-2571004D01*
X48179523Y-2571004D02*
X48427142Y-2571004D01*
X48427142Y-2571004D02*
X48550952Y-2509100D01*
X48550952Y-2509100D02*
X48612856Y-2385290D01*
X48612856Y-2385290D02*
X48612856Y-1890052D01*
X48612856Y-1890052D02*
X48550952Y-1766242D01*
X48550952Y-1766242D02*
X48427142Y-1704338D01*
X48427142Y-1704338D02*
X48179523Y-1704338D01*
X48179523Y-1704338D02*
X48055714Y-1766242D01*
X48055714Y-1766242D02*
X47993809Y-1890052D01*
X47993809Y-1890052D02*
X47993809Y-2013861D01*
X47993809Y-2013861D02*
X48612856Y-2137671D01*
X47436666Y-2571004D02*
X47436666Y-1704338D01*
X47436666Y-1951957D02*
X47374761Y-1828147D01*
X47374761Y-1828147D02*
X47312856Y-1766242D01*
X47312856Y-1766242D02*
X47189047Y-1704338D01*
X47189047Y-1704338D02*
X47065237Y-1704338D01*
X46631904Y-2571004D02*
X46631904Y-1704338D01*
X46631904Y-1828147D02*
X46569999Y-1766242D01*
X46569999Y-1766242D02*
X46446189Y-1704338D01*
X46446189Y-1704338D02*
X46260475Y-1704338D01*
X46260475Y-1704338D02*
X46136666Y-1766242D01*
X46136666Y-1766242D02*
X46074761Y-1890052D01*
X46074761Y-1890052D02*
X46074761Y-2571004D01*
X46074761Y-1890052D02*
X46012856Y-1766242D01*
X46012856Y-1766242D02*
X45889047Y-1704338D01*
X45889047Y-1704338D02*
X45703332Y-1704338D01*
X45703332Y-1704338D02*
X45579523Y-1766242D01*
X45579523Y-1766242D02*
X45517618Y-1890052D01*
X45517618Y-1890052D02*
X45517618Y-2571004D01*
X44898571Y-2571004D02*
X44898571Y-1704338D01*
X44898571Y-1271004D02*
X44960475Y-1332909D01*
X44960475Y-1332909D02*
X44898571Y-1394814D01*
X44898571Y-1394814D02*
X44836666Y-1332909D01*
X44836666Y-1332909D02*
X44898571Y-1271004D01*
X44898571Y-1271004D02*
X44898571Y-1394814D01*
X44341427Y-2509100D02*
X44217618Y-2571004D01*
X44217618Y-2571004D02*
X43969999Y-2571004D01*
X43969999Y-2571004D02*
X43846189Y-2509100D01*
X43846189Y-2509100D02*
X43784285Y-2385290D01*
X43784285Y-2385290D02*
X43784285Y-2323385D01*
X43784285Y-2323385D02*
X43846189Y-2199576D01*
X43846189Y-2199576D02*
X43969999Y-2137671D01*
X43969999Y-2137671D02*
X44155713Y-2137671D01*
X44155713Y-2137671D02*
X44279523Y-2075766D01*
X44279523Y-2075766D02*
X44341427Y-1951957D01*
X44341427Y-1951957D02*
X44341427Y-1890052D01*
X44341427Y-1890052D02*
X44279523Y-1766242D01*
X44279523Y-1766242D02*
X44155713Y-1704338D01*
X44155713Y-1704338D02*
X43969999Y-1704338D01*
X43969999Y-1704338D02*
X43846189Y-1766242D01*
X43412856Y-1704338D02*
X42917618Y-1704338D01*
X43227142Y-1271004D02*
X43227142Y-2385290D01*
X43227142Y-2385290D02*
X43165237Y-2509100D01*
X43165237Y-2509100D02*
X43041427Y-2571004D01*
X43041427Y-2571004D02*
X42917618Y-2571004D01*
X42298570Y-2571004D02*
X42422380Y-2509100D01*
X42422380Y-2509100D02*
X42484285Y-2447195D01*
X42484285Y-2447195D02*
X42546189Y-2323385D01*
X42546189Y-2323385D02*
X42546189Y-1951957D01*
X42546189Y-1951957D02*
X42484285Y-1828147D01*
X42484285Y-1828147D02*
X42422380Y-1766242D01*
X42422380Y-1766242D02*
X42298570Y-1704338D01*
X42298570Y-1704338D02*
X42112856Y-1704338D01*
X42112856Y-1704338D02*
X41989047Y-1766242D01*
X41989047Y-1766242D02*
X41927142Y-1828147D01*
X41927142Y-1828147D02*
X41865237Y-1951957D01*
X41865237Y-1951957D02*
X41865237Y-2323385D01*
X41865237Y-2323385D02*
X41927142Y-2447195D01*
X41927142Y-2447195D02*
X41989047Y-2509100D01*
X41989047Y-2509100D02*
X42112856Y-2571004D01*
X42112856Y-2571004D02*
X42298570Y-2571004D01*
X41308095Y-2571004D02*
X41308095Y-1704338D01*
X41308095Y-1951957D02*
X41246190Y-1828147D01*
X41246190Y-1828147D02*
X41184285Y-1766242D01*
X41184285Y-1766242D02*
X41060476Y-1704338D01*
X41060476Y-1704338D02*
X40936666Y-1704338D01*
D11*
%TO.C,SW4*%
X14007428Y-33350683D02*
X13864571Y-33398302D01*
X13864571Y-33398302D02*
X13626476Y-33398302D01*
X13626476Y-33398302D02*
X13531238Y-33350683D01*
X13531238Y-33350683D02*
X13483619Y-33303063D01*
X13483619Y-33303063D02*
X13436000Y-33207825D01*
X13436000Y-33207825D02*
X13436000Y-33112587D01*
X13436000Y-33112587D02*
X13483619Y-33017349D01*
X13483619Y-33017349D02*
X13531238Y-32969730D01*
X13531238Y-32969730D02*
X13626476Y-32922111D01*
X13626476Y-32922111D02*
X13816952Y-32874492D01*
X13816952Y-32874492D02*
X13912190Y-32826873D01*
X13912190Y-32826873D02*
X13959809Y-32779254D01*
X13959809Y-32779254D02*
X14007428Y-32684016D01*
X14007428Y-32684016D02*
X14007428Y-32588778D01*
X14007428Y-32588778D02*
X13959809Y-32493540D01*
X13959809Y-32493540D02*
X13912190Y-32445921D01*
X13912190Y-32445921D02*
X13816952Y-32398302D01*
X13816952Y-32398302D02*
X13578857Y-32398302D01*
X13578857Y-32398302D02*
X13436000Y-32445921D01*
X13102666Y-32398302D02*
X12864571Y-33398302D01*
X12864571Y-33398302D02*
X12674095Y-32684016D01*
X12674095Y-32684016D02*
X12483619Y-33398302D01*
X12483619Y-33398302D02*
X12245524Y-32398302D01*
X11436000Y-32731635D02*
X11436000Y-33398302D01*
X11674095Y-32350683D02*
X11912190Y-33064968D01*
X11912190Y-33064968D02*
X11293143Y-33064968D01*
%TO.C,SW2*%
X13803332Y-46653868D02*
X13660475Y-46701487D01*
X13660475Y-46701487D02*
X13422380Y-46701487D01*
X13422380Y-46701487D02*
X13327142Y-46653868D01*
X13327142Y-46653868D02*
X13279523Y-46606248D01*
X13279523Y-46606248D02*
X13231904Y-46511010D01*
X13231904Y-46511010D02*
X13231904Y-46415772D01*
X13231904Y-46415772D02*
X13279523Y-46320534D01*
X13279523Y-46320534D02*
X13327142Y-46272915D01*
X13327142Y-46272915D02*
X13422380Y-46225296D01*
X13422380Y-46225296D02*
X13612856Y-46177677D01*
X13612856Y-46177677D02*
X13708094Y-46130058D01*
X13708094Y-46130058D02*
X13755713Y-46082439D01*
X13755713Y-46082439D02*
X13803332Y-45987201D01*
X13803332Y-45987201D02*
X13803332Y-45891963D01*
X13803332Y-45891963D02*
X13755713Y-45796725D01*
X13755713Y-45796725D02*
X13708094Y-45749106D01*
X13708094Y-45749106D02*
X13612856Y-45701487D01*
X13612856Y-45701487D02*
X13374761Y-45701487D01*
X13374761Y-45701487D02*
X13231904Y-45749106D01*
X12898570Y-45701487D02*
X12660475Y-46701487D01*
X12660475Y-46701487D02*
X12469999Y-45987201D01*
X12469999Y-45987201D02*
X12279523Y-46701487D01*
X12279523Y-46701487D02*
X12041428Y-45701487D01*
X11708094Y-45796725D02*
X11660475Y-45749106D01*
X11660475Y-45749106D02*
X11565237Y-45701487D01*
X11565237Y-45701487D02*
X11327142Y-45701487D01*
X11327142Y-45701487D02*
X11231904Y-45749106D01*
X11231904Y-45749106D02*
X11184285Y-45796725D01*
X11184285Y-45796725D02*
X11136666Y-45891963D01*
X11136666Y-45891963D02*
X11136666Y-45987201D01*
X11136666Y-45987201D02*
X11184285Y-46130058D01*
X11184285Y-46130058D02*
X11755713Y-46701487D01*
X11755713Y-46701487D02*
X11136666Y-46701487D01*
%TO.C,J10*%
X36629523Y-29689819D02*
X36629523Y-30404104D01*
X36629523Y-30404104D02*
X36677142Y-30546961D01*
X36677142Y-30546961D02*
X36772380Y-30642200D01*
X36772380Y-30642200D02*
X36915237Y-30689819D01*
X36915237Y-30689819D02*
X37010475Y-30689819D01*
X35629523Y-30689819D02*
X36200951Y-30689819D01*
X35915237Y-30689819D02*
X35915237Y-29689819D01*
X35915237Y-29689819D02*
X36010475Y-29832676D01*
X36010475Y-29832676D02*
X36105713Y-29927914D01*
X36105713Y-29927914D02*
X36200951Y-29975533D01*
X35010475Y-29689819D02*
X34915237Y-29689819D01*
X34915237Y-29689819D02*
X34819999Y-29737438D01*
X34819999Y-29737438D02*
X34772380Y-29785057D01*
X34772380Y-29785057D02*
X34724761Y-29880295D01*
X34724761Y-29880295D02*
X34677142Y-30070771D01*
X34677142Y-30070771D02*
X34677142Y-30308866D01*
X34677142Y-30308866D02*
X34724761Y-30499342D01*
X34724761Y-30499342D02*
X34772380Y-30594580D01*
X34772380Y-30594580D02*
X34819999Y-30642200D01*
X34819999Y-30642200D02*
X34915237Y-30689819D01*
X34915237Y-30689819D02*
X35010475Y-30689819D01*
X35010475Y-30689819D02*
X35105713Y-30642200D01*
X35105713Y-30642200D02*
X35153332Y-30594580D01*
X35153332Y-30594580D02*
X35200951Y-30499342D01*
X35200951Y-30499342D02*
X35248570Y-30308866D01*
X35248570Y-30308866D02*
X35248570Y-30070771D01*
X35248570Y-30070771D02*
X35200951Y-29880295D01*
X35200951Y-29880295D02*
X35153332Y-29785057D01*
X35153332Y-29785057D02*
X35105713Y-29737438D01*
X35105713Y-29737438D02*
X35010475Y-29689819D01*
%TO.C,SW3*%
X13803332Y-39998312D02*
X13660475Y-40045931D01*
X13660475Y-40045931D02*
X13422380Y-40045931D01*
X13422380Y-40045931D02*
X13327142Y-39998312D01*
X13327142Y-39998312D02*
X13279523Y-39950692D01*
X13279523Y-39950692D02*
X13231904Y-39855454D01*
X13231904Y-39855454D02*
X13231904Y-39760216D01*
X13231904Y-39760216D02*
X13279523Y-39664978D01*
X13279523Y-39664978D02*
X13327142Y-39617359D01*
X13327142Y-39617359D02*
X13422380Y-39569740D01*
X13422380Y-39569740D02*
X13612856Y-39522121D01*
X13612856Y-39522121D02*
X13708094Y-39474502D01*
X13708094Y-39474502D02*
X13755713Y-39426883D01*
X13755713Y-39426883D02*
X13803332Y-39331645D01*
X13803332Y-39331645D02*
X13803332Y-39236407D01*
X13803332Y-39236407D02*
X13755713Y-39141169D01*
X13755713Y-39141169D02*
X13708094Y-39093550D01*
X13708094Y-39093550D02*
X13612856Y-39045931D01*
X13612856Y-39045931D02*
X13374761Y-39045931D01*
X13374761Y-39045931D02*
X13231904Y-39093550D01*
X12898570Y-39045931D02*
X12660475Y-40045931D01*
X12660475Y-40045931D02*
X12469999Y-39331645D01*
X12469999Y-39331645D02*
X12279523Y-40045931D01*
X12279523Y-40045931D02*
X12041428Y-39045931D01*
X11755713Y-39045931D02*
X11136666Y-39045931D01*
X11136666Y-39045931D02*
X11469999Y-39426883D01*
X11469999Y-39426883D02*
X11327142Y-39426883D01*
X11327142Y-39426883D02*
X11231904Y-39474502D01*
X11231904Y-39474502D02*
X11184285Y-39522121D01*
X11184285Y-39522121D02*
X11136666Y-39617359D01*
X11136666Y-39617359D02*
X11136666Y-39855454D01*
X11136666Y-39855454D02*
X11184285Y-39950692D01*
X11184285Y-39950692D02*
X11231904Y-39998312D01*
X11231904Y-39998312D02*
X11327142Y-40045931D01*
X11327142Y-40045931D02*
X11612856Y-40045931D01*
X11612856Y-40045931D02*
X11708094Y-39998312D01*
X11708094Y-39998312D02*
X11755713Y-39950692D01*
D15*
%TO.C,J4*%
X58323800Y-50950263D02*
G75*
G03*
X58323800Y-50950263I-700000J0D01*
G01*
%TO.C,SW4*%
X10420000Y-33785556D02*
X14820000Y-33785556D01*
X10420000Y-35485556D02*
X10420000Y-35585556D01*
X14820000Y-35485556D02*
X14820000Y-35585556D01*
X14820000Y-37285556D02*
X10420000Y-37285556D01*
%TO.C,SW2*%
X14820000Y-50596668D02*
X10420000Y-50596668D01*
X14820000Y-48896668D02*
X14820000Y-48796668D01*
X10420000Y-48896668D02*
X10420000Y-48796668D01*
X10420000Y-47096668D02*
X14820000Y-47096668D01*
%TO.C,J2*%
X53923800Y-50950263D02*
G75*
G03*
X53923800Y-50950263I-700000J0D01*
G01*
%TO.C,J10*%
X53070000Y-21385000D02*
X18570000Y-21385000D01*
X18570000Y-21385000D02*
X18570000Y-44385000D01*
X18570000Y-44385000D02*
X53070000Y-44385000D01*
X53070000Y-44385000D02*
X53070000Y-21385000D01*
X50320000Y-37735000D02*
X21320000Y-37735000D01*
X21320000Y-37735000D02*
X21320000Y-23735000D01*
X21320000Y-23735000D02*
X50320000Y-23735000D01*
X50320000Y-23735000D02*
X50320000Y-37735000D01*
X42820000Y-44385000D02*
X28820000Y-44385000D01*
X28820000Y-44385000D02*
X28820000Y-52135000D01*
X28820000Y-52135000D02*
X42820000Y-52135000D01*
X42820000Y-52135000D02*
X42820000Y-44385000D01*
%TO.C,SW3*%
X14820000Y-43941112D02*
X10420000Y-43941112D01*
X14820000Y-42241112D02*
X14820000Y-42141112D01*
X10420000Y-42241112D02*
X10420000Y-42141112D01*
X10420000Y-40441112D02*
X14820000Y-40441112D01*
%TO.C,J3*%
X56123800Y-50950263D02*
G75*
G03*
X56123800Y-50950263I-700000J0D01*
G01*
%TD*%
M02*
