M48
; DRILL file {KiCad 7.0.5.1-1-g8f565ef7f0-dirty-deb11} date Tue Jun 20 01:38:49 2023
; FORMAT={-:-/ absolute / metric / decimal}
; #@! TF.CreationDate,2023-06-20T01:38:49+00:00
; #@! TF.GenerationSoftware,Kicad,Pcbnew,7.0.5.1-1-g8f565ef7f0-dirty-deb11
; #@! TF.FileFunction,Plated,1,2,PTH
FMAT,2
METRIC
; #@! TA.AperFunction,Plated,PTH,ViaDrill
T1C0.200
; #@! TA.AperFunction,Plated,PTH,ComponentDrill
T2C0.200
; #@! TA.AperFunction,Plated,PTH,ViaDrill
T3C0.300
; #@! TA.AperFunction,Plated,PTH,ViaDrill
T4C0.400
; #@! TA.AperFunction,Plated,PTH,ComponentDrill
T5C0.400
; #@! TA.AperFunction,Plated,PTH,ComponentDrill
T6C0.500
; #@! TA.AperFunction,Plated,PTH,ComponentDrill
T7C0.600
; #@! TA.AperFunction,Plated,PTH,ComponentDrill
T8C0.700
; #@! TA.AperFunction,Plated,PTH,ComponentDrill
T9C0.800
; #@! TA.AperFunction,Plated,PTH,ComponentDrill
T10C1.000
; #@! TA.AperFunction,Plated,PTH,ComponentDrill
T11C1.020
; #@! TA.AperFunction,Plated,PTH,ComponentDrill
T12C1.200
; #@! TA.AperFunction,Plated,PTH,ComponentDrill
T13C2.800
; #@! TA.AperFunction,Plated,PTH,ComponentDrill
T14C3.200
%
G90
G05
T1
X26.42Y-48.32
X27.17Y-48.47
T2
X27.15Y-30.85
X27.15Y-31.975
X27.15Y-33.1
X27.15Y-34.225
X27.15Y-35.35
X28.275Y-30.85
X28.275Y-31.975
X28.275Y-33.1
X28.275Y-34.225
X28.275Y-35.35
X29.4Y-30.85
X29.4Y-31.975
X29.4Y-33.1
X29.4Y-34.225
X29.4Y-35.35
X30.525Y-30.85
X30.525Y-31.975
X30.525Y-33.1
X30.525Y-34.225
X30.525Y-35.35
X31.65Y-30.85
X31.65Y-31.975
X31.65Y-33.1
X31.65Y-34.225
X31.65Y-35.35
T3
X9.136Y-17.545
X10.186Y-23.794
X10.22Y-21.82
X11.42Y-24.82
X11.445Y-31.02
X11.445Y-37.22
X11.995Y-26.62
X11.995Y-33.42
X13.644Y-25.22
X13.82Y-31.12
X14.22Y-26.62
X14.42Y-37.22
X14.52Y-32.92
X17.42Y-38.62
X23.02Y-31.82
X23.42Y-33.72
X26.88Y-27.634
X27.92Y-42.32
X28.62Y-46.12
X35.82Y-36.92
X35.82Y-35.314
X36.22Y-34.265
X36.549Y-33.691
X37.22Y-35.314
X37.599Y-33.116
X37.798Y-35.018
X38.459Y-38.259
X39.592Y-27.052
X40.12Y-36.72
X41.016Y-36.116
X41.02Y-36.766
X41.32Y-38.444
X41.62Y-25.22
X43.119Y-39.459
X43.22Y-41.52
X43.244Y-36.726
X43.27Y-43.42
X43.97Y-42.27
X44.169Y-38.845
X44.82Y-16.29
X46.834Y-43.147
X48.55Y-36.79
X49.214Y-40.226
X49.22Y-44.32
X49.5Y-16.6
X49.72Y-43.72
X50.02Y-37.42
X50.045Y-44.92
X50.42Y-38.634
X50.595Y-36.914
X50.732Y-32.265
X51.075Y-38.314
X51.374Y-38.906
X51.72Y-33.314
X51.82Y-43.72
X52.004Y-39.561
X53.5Y-19.8
X54.22Y-21.42
X55.395Y-30.195
X57.208Y-31.376
X58.22Y-21.42
X58.62Y-32.62
X58.7Y-44.6
X59.22Y-19.82
X60.32Y-33.02
X67.02Y-21.62
T4
X11.52Y-41.42
X14.0Y-21.92
X14.82Y-34.131
X15.9Y-23.133
X16.02Y-10.49
X16.22Y-39.82
X17.02Y-32.02
X17.22Y-35.02
X19.02Y-29.819
X20.12Y-30.72
X20.12Y-31.92
X20.296Y-36.22
X20.52Y-43.92
X20.946Y-29.546
X21.32Y-30.42
X22.02Y-21.72
X22.02Y-40.82
X22.72Y-41.52
X23.12Y-37.12
X23.22Y-39.62
X24.12Y-26.02
X25.72Y-19.02
X26.72Y-18.99
X26.783Y-20.72
X27.3Y-24.2
X27.92Y-26.32
X28.2Y-24.2
X28.7Y-38.9
X29.6Y-38.9
X29.82Y-14.22
X30.12Y-12.99
X30.82Y-26.52
X31.12Y-38.89
X31.7Y-26.52
X31.89Y-38.89
X32.42Y-16.49
X33.02Y-36.69
X33.22Y-17.39
X33.22Y-29.02
X33.92Y-36.69
X34.22Y-25.32
X35.42Y-32.02
X36.5Y-18.4
X39.32Y-30.02
X40.52Y-40.82
X41.1Y-12.9
X43.62Y-17.42
X44.32Y-32.22
X44.946Y-36.859
X45.0Y-33.6
X45.0Y-34.5
X45.0Y-35.4
X45.9Y-33.6
X45.9Y-34.5
X45.9Y-35.4
X46.125Y-29.809
X46.42Y-44.92
X46.8Y-33.6
X46.8Y-34.5
X46.8Y-35.4
X47.06Y-32.18
X47.5Y-20.2
X48.32Y-12.3
X48.62Y-20.42
X49.22Y-31.02
X51.1Y-9.74
X51.643Y-34.819
X51.72Y-15.59
X51.72Y-17.12
X51.72Y-20.82
X52.22Y-41.89
X54.42Y-23.32
X54.62Y-11.12
X55.02Y-38.92
X55.175Y-18.501
X55.495Y-9.12
X55.666Y-17.63
X56.605Y-17.289
X57.419Y-18.077
X58.32Y-37.42
X59.62Y-9.22
X61.02Y-39.42
X61.92Y-33.62
X62.02Y-23.92
X62.02Y-26.42
X62.22Y-38.2
X62.62Y-40.77
X64.02Y-23.92
T5
X53.67Y-6.62
X53.67Y-7.97
X54.52Y-6.62
X54.52Y-7.97
X55.37Y-6.62
X55.37Y-7.97
X56.22Y-6.62
X56.22Y-7.97
X57.07Y-6.62
X57.07Y-7.97
X57.92Y-6.62
X57.92Y-7.97
X58.77Y-6.62
X58.77Y-7.97
X59.62Y-6.62
X59.62Y-7.97
T6
X2.68Y-5.08
X2.68Y-45.72
X3.383Y-3.383
X3.383Y-6.777
X3.383Y-44.023
X3.383Y-47.417
X5.08Y-2.68
X5.08Y-7.48
X5.08Y-43.32
X5.08Y-48.12
X6.777Y-3.383
X6.777Y-6.777
X6.777Y-44.023
X6.777Y-47.417
X7.48Y-5.08
X7.48Y-45.72
X63.64Y-5.08
X63.64Y-45.72
X64.343Y-3.383
X64.343Y-6.777
X64.343Y-44.023
X64.343Y-47.417
X66.04Y-2.68
X66.04Y-7.48
X66.04Y-43.32
X66.04Y-48.12
X67.737Y-3.383
X67.737Y-6.777
X67.737Y-44.023
X67.737Y-47.417
X68.44Y-5.08
X68.44Y-45.72
T8
X45.9Y-6.5
X48.44Y-6.5
T9
X24.32Y12.78
X24.32Y9.98
X26.42Y12.78
X29.02Y12.78
X31.12Y12.78
X31.12Y9.98
T10
X39.32Y-9.615
X39.32Y-12.155
X43.0Y-9.61
X43.0Y-12.15
X67.1Y-30.58
X67.1Y-33.12
X67.1Y-35.66
X67.1Y-38.2
T11
X22.42Y-8.475
X22.42Y-11.475
X25.42Y-8.475
X25.42Y-11.475
T12
X32.22Y-9.935
X32.22Y-12.435
X34.72Y-9.935
X34.72Y-12.435
T13
X8.32Y-9.62
X13.32Y-6.52
X13.32Y-12.72
T14
X5.08Y-5.08
X5.08Y-45.72
X66.04Y-5.08
X66.04Y-45.72
T7
G00X52.32Y-4.01
M15
G01X52.32Y-3.21
M16
G05
G00X52.32Y-7.74
M15
G01X52.32Y-6.24
M16
G05
G00X60.97Y-4.01
M15
G01X60.97Y-3.21
M16
G05
G00X60.97Y-7.74
M15
G01X60.97Y-6.24
M16
G05
T10
G00X20.87Y14.88
M15
G01X20.87Y16.38
M16
G05
G00X28.72Y16.43
M15
G01X26.72Y16.43
M16
G05
G00X34.57Y14.88
M15
G01X34.57Y16.38
M16
G05
T0
M30
