%TF.GenerationSoftware,KiCad,Pcbnew,7.0.7-7.0.7~ubuntu23.04.1*%
%TF.CreationDate,2023-08-15T02:58:59+00:00*%
%TF.ProjectId,AMFOC01,414d464f-4330-4312-9e6b-696361645f70,rev?*%
%TF.SameCoordinates,Original*%
%TF.FileFunction,Soldermask,Top*%
%TF.FilePolarity,Negative*%
%FSLAX46Y46*%
G04 Gerber Fmt 4.6, Leading zero omitted, Abs format (unit mm)*
G04 Created by KiCad (PCBNEW 7.0.7-7.0.7~ubuntu23.04.1) date 2023-08-15 02:58:59*
%MOMM*%
%LPD*%
G01*
G04 APERTURE LIST*
G04 Aperture macros list*
%AMRoundRect*
0 Rectangle with rounded corners*
0 $1 Rounding radius*
0 $2 $3 $4 $5 $6 $7 $8 $9 X,Y pos of 4 corners*
0 Add a 4 corners polygon primitive as box body*
4,1,4,$2,$3,$4,$5,$6,$7,$8,$9,$2,$3,0*
0 Add four circle primitives for the rounded corners*
1,1,$1+$1,$2,$3*
1,1,$1+$1,$4,$5*
1,1,$1+$1,$6,$7*
1,1,$1+$1,$8,$9*
0 Add four rect primitives between the rounded corners*
20,1,$1+$1,$2,$3,$4,$5,0*
20,1,$1+$1,$4,$5,$6,$7,0*
20,1,$1+$1,$6,$7,$8,$9,0*
20,1,$1+$1,$8,$9,$2,$3,0*%
G04 Aperture macros list end*
%ADD10RoundRect,0.250000X-0.262500X-0.450000X0.262500X-0.450000X0.262500X0.450000X-0.262500X0.450000X0*%
%ADD11RoundRect,0.250000X0.450000X-0.262500X0.450000X0.262500X-0.450000X0.262500X-0.450000X-0.262500X0*%
%ADD12RoundRect,0.250000X-0.475000X0.250000X-0.475000X-0.250000X0.475000X-0.250000X0.475000X0.250000X0*%
%ADD13R,1.700000X1.700000*%
%ADD14O,1.700000X1.700000*%
%ADD15RoundRect,0.250000X-0.250000X-0.475000X0.250000X-0.475000X0.250000X0.475000X-0.250000X0.475000X0*%
%ADD16C,0.800000*%
%ADD17C,6.400000*%
%ADD18RoundRect,0.250000X-0.450000X0.262500X-0.450000X-0.262500X0.450000X-0.262500X0.450000X0.262500X0*%
%ADD19RoundRect,0.250000X0.250000X0.475000X-0.250000X0.475000X-0.250000X-0.475000X0.250000X-0.475000X0*%
%ADD20RoundRect,0.250000X0.475000X-0.250000X0.475000X0.250000X-0.475000X0.250000X-0.475000X-0.250000X0*%
%ADD21RoundRect,0.250000X0.262500X0.450000X-0.262500X0.450000X-0.262500X-0.450000X0.262500X-0.450000X0*%
%ADD22RoundRect,0.112500X0.187500X0.112500X-0.187500X0.112500X-0.187500X-0.112500X0.187500X-0.112500X0*%
%ADD23RoundRect,0.150000X0.150000X-0.587500X0.150000X0.587500X-0.150000X0.587500X-0.150000X-0.587500X0*%
%ADD24R,1.050000X0.650000*%
%ADD25RoundRect,0.250000X-0.503814X-0.132583X-0.132583X-0.503814X0.503814X0.132583X0.132583X0.503814X0*%
%ADD26RoundRect,0.150000X-0.587500X-0.150000X0.587500X-0.150000X0.587500X0.150000X-0.587500X0.150000X0*%
%ADD27C,3.250000*%
%ADD28R,1.520000X1.520000*%
%ADD29C,1.520000*%
%ADD30RoundRect,0.150000X-0.150000X0.587500X-0.150000X-0.587500X0.150000X-0.587500X0.150000X0.587500X0*%
%ADD31RoundRect,0.112500X-0.112500X0.187500X-0.112500X-0.187500X0.112500X-0.187500X0.112500X0.187500X0*%
%ADD32C,1.650000*%
%ADD33C,3.450000*%
%ADD34RoundRect,0.150000X-0.150000X0.825000X-0.150000X-0.825000X0.150000X-0.825000X0.150000X0.825000X0*%
%ADD35R,1.500000X1.500000*%
%ADD36R,1.500000X2.000000*%
%ADD37R,3.800000X2.000000*%
%ADD38RoundRect,0.250000X-0.312500X-1.450000X0.312500X-1.450000X0.312500X1.450000X-0.312500X1.450000X0*%
%ADD39RoundRect,0.075000X0.662500X0.075000X-0.662500X0.075000X-0.662500X-0.075000X0.662500X-0.075000X0*%
%ADD40RoundRect,0.075000X0.075000X0.662500X-0.075000X0.662500X-0.075000X-0.662500X0.075000X-0.662500X0*%
%ADD41R,5.000000X5.000000*%
%ADD42RoundRect,0.150000X0.150000X-0.512500X0.150000X0.512500X-0.150000X0.512500X-0.150000X-0.512500X0*%
%ADD43RoundRect,0.150000X-0.150000X0.650000X-0.150000X-0.650000X0.150000X-0.650000X0.150000X0.650000X0*%
%ADD44RoundRect,0.050000X-0.387500X-0.050000X0.387500X-0.050000X0.387500X0.050000X-0.387500X0.050000X0*%
%ADD45RoundRect,0.050000X-0.050000X-0.387500X0.050000X-0.387500X0.050000X0.387500X-0.050000X0.387500X0*%
%ADD46R,3.200000X3.200000*%
%ADD47R,2.500000X2.500000*%
%ADD48C,0.650000*%
%ADD49R,0.600000X1.150000*%
%ADD50R,0.300000X1.150000*%
%ADD51O,1.000000X2.000000*%
%ADD52O,1.050000X2.100000*%
%ADD53R,2.000000X1.500000*%
%ADD54R,2.000000X3.800000*%
%ADD55R,4.500000X2.000000*%
%ADD56R,3.810000X3.810000*%
G04 APERTURE END LIST*
D10*
%TO.C,R1*%
X57620000Y-10980000D03*
X59445000Y-10980000D03*
%TD*%
D11*
%TO.C,R19*%
X13020000Y-40442500D03*
X13020000Y-38617500D03*
%TD*%
D10*
%TO.C,R32*%
X54895000Y-52180000D03*
X56720000Y-52180000D03*
%TD*%
D12*
%TO.C,C7*%
X20820000Y-25480000D03*
X20820000Y-27380000D03*
%TD*%
D13*
%TO.C,J9*%
X47820000Y-12830000D03*
D14*
X47820000Y-10290000D03*
%TD*%
D12*
%TO.C,C1*%
X29020000Y-23130000D03*
X29020000Y-25030000D03*
%TD*%
D10*
%TO.C,R31*%
X65320000Y-37480000D03*
X67145000Y-37480000D03*
%TD*%
D15*
%TO.C,C24*%
X25120000Y-57780000D03*
X27020000Y-57780000D03*
%TD*%
D11*
%TO.C,R12*%
X59620000Y-46880000D03*
X59620000Y-45055000D03*
%TD*%
D16*
%TO.C,H4*%
X63540000Y-4980000D03*
X64242944Y-3282944D03*
X64242944Y-6677056D03*
X65940000Y-2580000D03*
D17*
X65940000Y-4980000D03*
D16*
X65940000Y-7380000D03*
X67637056Y-3282944D03*
X67637056Y-6677056D03*
X68340000Y-4980000D03*
%TD*%
D15*
%TO.C,C17*%
X45670000Y-34480000D03*
X47570000Y-34480000D03*
%TD*%
D18*
%TO.C,R3*%
X53450000Y-35945000D03*
X53450000Y-37770000D03*
%TD*%
%TO.C,R38*%
X50270000Y-17055000D03*
X50270000Y-18880000D03*
%TD*%
D10*
%TO.C,R34*%
X30100000Y-50460000D03*
X31925000Y-50460000D03*
%TD*%
D18*
%TO.C,R16*%
X29220000Y-57080000D03*
X29220000Y-58905000D03*
%TD*%
D19*
%TO.C,C28*%
X27500000Y-49660000D03*
X25600000Y-49660000D03*
%TD*%
D20*
%TO.C,C13*%
X29620000Y-32580000D03*
X29620000Y-30680000D03*
%TD*%
D11*
%TO.C,R39*%
X52370000Y-18880000D03*
X52370000Y-17055000D03*
%TD*%
%TO.C,R29*%
X37970000Y-35980000D03*
X37970000Y-34155000D03*
%TD*%
D21*
%TO.C,R9*%
X11732500Y-57380000D03*
X9907500Y-57380000D03*
%TD*%
D18*
%TO.C,R18*%
X13020000Y-35180000D03*
X13020000Y-37005000D03*
%TD*%
D21*
%TO.C,R4*%
X47020000Y-22780000D03*
X45195000Y-22780000D03*
%TD*%
D15*
%TO.C,C6*%
X49400000Y-50850000D03*
X51300000Y-50850000D03*
%TD*%
D22*
%TO.C,D3*%
X26770000Y-25680000D03*
X24670000Y-25680000D03*
%TD*%
D12*
%TO.C,C30*%
X10970000Y-45480000D03*
X10970000Y-47380000D03*
%TD*%
D11*
%TO.C,R17*%
X48270000Y-18892500D03*
X48270000Y-17067500D03*
%TD*%
%TO.C,R22*%
X13020000Y-43892500D03*
X13020000Y-42067500D03*
%TD*%
D12*
%TO.C,C23*%
X28020000Y-51780000D03*
X28020000Y-53680000D03*
%TD*%
D18*
%TO.C,R14*%
X18320000Y-25480000D03*
X18320000Y-27305000D03*
%TD*%
D20*
%TO.C,C25*%
X13020000Y-30130000D03*
X13020000Y-28230000D03*
%TD*%
D22*
%TO.C,D5*%
X26790000Y-27690000D03*
X24690000Y-27690000D03*
%TD*%
D23*
%TO.C,Q5*%
X58320000Y-51480000D03*
X60220000Y-51480000D03*
X59270000Y-49605000D03*
%TD*%
D19*
%TO.C,C15*%
X38420000Y-46980000D03*
X36520000Y-46980000D03*
%TD*%
D24*
%TO.C,SW1*%
X58195000Y-32010000D03*
X54045000Y-32010000D03*
X58195000Y-29860000D03*
X54070000Y-29860000D03*
%TD*%
D18*
%TO.C,R5*%
X47400000Y-36367500D03*
X47400000Y-38192500D03*
%TD*%
D12*
%TO.C,C32*%
X25820000Y-51580000D03*
X25820000Y-53480000D03*
%TD*%
D25*
%TO.C,R7*%
X46070000Y-50250000D03*
X47360470Y-51540470D03*
%TD*%
D10*
%TO.C,R33*%
X54895000Y-50080000D03*
X56720000Y-50080000D03*
%TD*%
%TO.C,R11*%
X64320000Y-31680000D03*
X66145000Y-31680000D03*
%TD*%
D18*
%TO.C,R6*%
X49380000Y-36375000D03*
X49380000Y-38200000D03*
%TD*%
D12*
%TO.C,C20*%
X57200000Y-45710000D03*
X57200000Y-47610000D03*
%TD*%
D15*
%TO.C,C16*%
X53150000Y-47360000D03*
X55050000Y-47360000D03*
%TD*%
D12*
%TO.C,C21*%
X54320000Y-54080000D03*
X54320000Y-55980000D03*
%TD*%
D26*
%TO.C,Q4*%
X56620000Y-53980000D03*
X56620000Y-55880000D03*
X58495000Y-54930000D03*
%TD*%
D20*
%TO.C,C4*%
X22620000Y-16380000D03*
X22620000Y-14480000D03*
%TD*%
D27*
%TO.C,J6*%
X39380000Y-8080000D03*
X29220000Y-8080000D03*
D28*
X37470000Y-16970000D03*
D29*
X36200000Y-14430000D03*
X34930000Y-16970000D03*
X33660000Y-14430000D03*
X32390000Y-16970000D03*
X31120000Y-14430000D03*
%TD*%
D18*
%TO.C,R25*%
X10970000Y-31717500D03*
X10970000Y-33542500D03*
%TD*%
%TO.C,R21*%
X13020000Y-31717500D03*
X13020000Y-33542500D03*
%TD*%
D30*
%TO.C,Q3*%
X36320000Y-30380000D03*
X34420000Y-30380000D03*
X35370000Y-32255000D03*
%TD*%
D31*
%TO.C,D2*%
X50770000Y-13230000D03*
X50770000Y-15330000D03*
%TD*%
D32*
%TO.C,J12*%
X21270000Y-11229492D03*
X14470000Y-11229492D03*
X21270000Y-8729492D03*
X14470000Y-8729492D03*
D33*
X24620000Y-5729492D03*
X17870000Y-4929492D03*
X11120000Y-5729492D03*
%TD*%
D15*
%TO.C,C9*%
X42160000Y-50730000D03*
X44060000Y-50730000D03*
%TD*%
D30*
%TO.C,Q1*%
X61720000Y-32205000D03*
X59820000Y-32205000D03*
X60770000Y-34080000D03*
%TD*%
D11*
%TO.C,R24*%
X10970000Y-40442500D03*
X10970000Y-38617500D03*
%TD*%
D34*
%TO.C,U6*%
X62690000Y-37230000D03*
X61420000Y-37230000D03*
X60150000Y-37230000D03*
X58880000Y-37230000D03*
X58880000Y-42180000D03*
X60150000Y-42180000D03*
X61420000Y-42180000D03*
X62690000Y-42180000D03*
%TD*%
D35*
%TO.C,D1*%
X17307500Y-57380000D03*
X13547500Y-57380000D03*
%TD*%
D20*
%TO.C,C27*%
X21520000Y-48430000D03*
X21520000Y-46530000D03*
%TD*%
D12*
%TO.C,C11*%
X23020000Y-25480000D03*
X23020000Y-27380000D03*
%TD*%
D19*
%TO.C,C19*%
X22720000Y-32980000D03*
X20820000Y-32980000D03*
%TD*%
D36*
%TO.C,U1*%
X36320000Y-20380000D03*
X34020000Y-20380000D03*
D37*
X34020000Y-26680000D03*
D36*
X31720000Y-20380000D03*
%TD*%
D38*
%TO.C,F1*%
X3800000Y-12400000D03*
X8075000Y-12400000D03*
%TD*%
D39*
%TO.C,U7*%
X33462500Y-45910000D03*
X33462500Y-45410000D03*
X33462500Y-44910000D03*
X33462500Y-44410000D03*
X33462500Y-43910000D03*
X33462500Y-43410000D03*
X33462500Y-42910000D03*
X33462500Y-42410000D03*
X33462500Y-41910000D03*
X33462500Y-41410000D03*
X33462500Y-40910000D03*
X33462500Y-40410000D03*
D40*
X32050000Y-38997500D03*
X31550000Y-38997500D03*
X31050000Y-38997500D03*
X30550000Y-38997500D03*
X30050000Y-38997500D03*
X29550000Y-38997500D03*
X29050000Y-38997500D03*
X28550000Y-38997500D03*
X28050000Y-38997500D03*
X27550000Y-38997500D03*
X27050000Y-38997500D03*
X26550000Y-38997500D03*
D39*
X25137500Y-40410000D03*
X25137500Y-40910000D03*
X25137500Y-41410000D03*
X25137500Y-41910000D03*
X25137500Y-42410000D03*
X25137500Y-42910000D03*
X25137500Y-43410000D03*
X25137500Y-43910000D03*
X25137500Y-44410000D03*
X25137500Y-44910000D03*
X25137500Y-45410000D03*
X25137500Y-45910000D03*
D40*
X26550000Y-47322500D03*
X27050000Y-47322500D03*
X27550000Y-47322500D03*
X28050000Y-47322500D03*
X28550000Y-47322500D03*
X29050000Y-47322500D03*
X29550000Y-47322500D03*
X30050000Y-47322500D03*
X30550000Y-47322500D03*
X31050000Y-47322500D03*
X31550000Y-47322500D03*
X32050000Y-47322500D03*
D41*
X29300000Y-43160000D03*
%TD*%
D11*
%TO.C,R26*%
X10970000Y-43880000D03*
X10970000Y-42055000D03*
%TD*%
D12*
%TO.C,C36*%
X42520000Y-20480000D03*
X42520000Y-22380000D03*
%TD*%
D42*
%TO.C,U2*%
X53570000Y-14736992D03*
X54520000Y-14736992D03*
X55470000Y-14736992D03*
X55470000Y-12461992D03*
X54520000Y-12461992D03*
X53570000Y-12461992D03*
%TD*%
D20*
%TO.C,C31*%
X21520000Y-44660000D03*
X21520000Y-42760000D03*
%TD*%
%TO.C,C3*%
X24920000Y-16380000D03*
X24920000Y-14480000D03*
%TD*%
%TO.C,C35*%
X25570000Y-36580000D03*
X25570000Y-34680000D03*
%TD*%
D11*
%TO.C,R13*%
X65220000Y-16480000D03*
X65220000Y-14655000D03*
%TD*%
D13*
%TO.C,J7*%
X68420000Y-16780000D03*
D14*
X68420000Y-14240000D03*
X68420000Y-11700000D03*
%TD*%
D19*
%TO.C,C10*%
X50820000Y-52880000D03*
X48920000Y-52880000D03*
%TD*%
D20*
%TO.C,C2*%
X29020000Y-21430000D03*
X29020000Y-19530000D03*
%TD*%
D43*
%TO.C,U4*%
X45925000Y-25180000D03*
X44655000Y-25180000D03*
X43385000Y-25180000D03*
X42115000Y-25180000D03*
X42115000Y-32380000D03*
X43385000Y-32380000D03*
X44655000Y-32380000D03*
X45925000Y-32380000D03*
%TD*%
D11*
%TO.C,R28*%
X39970000Y-35980000D03*
X39970000Y-34155000D03*
%TD*%
D18*
%TO.C,R37*%
X42520000Y-17055000D03*
X42520000Y-18880000D03*
%TD*%
%TO.C,R2*%
X50720000Y-9967500D03*
X50720000Y-11792500D03*
%TD*%
D30*
%TO.C,Q2*%
X39920000Y-30355000D03*
X38020000Y-30355000D03*
X38970000Y-32230000D03*
%TD*%
D44*
%TO.C,U5*%
X42282500Y-42050000D03*
X42282500Y-42450000D03*
X42282500Y-42850000D03*
X42282500Y-43250000D03*
X42282500Y-43650000D03*
X42282500Y-44050000D03*
X42282500Y-44450000D03*
X42282500Y-44850000D03*
X42282500Y-45250000D03*
X42282500Y-45650000D03*
X42282500Y-46050000D03*
X42282500Y-46450000D03*
X42282500Y-46850000D03*
X42282500Y-47250000D03*
D45*
X43120000Y-48087500D03*
X43520000Y-48087500D03*
X43920000Y-48087500D03*
X44320000Y-48087500D03*
X44720000Y-48087500D03*
X45120000Y-48087500D03*
X45520000Y-48087500D03*
X45920000Y-48087500D03*
X46320000Y-48087500D03*
X46720000Y-48087500D03*
X47120000Y-48087500D03*
X47520000Y-48087500D03*
X47920000Y-48087500D03*
X48320000Y-48087500D03*
D44*
X49157500Y-47250000D03*
X49157500Y-46850000D03*
X49157500Y-46450000D03*
X49157500Y-46050000D03*
X49157500Y-45650000D03*
X49157500Y-45250000D03*
X49157500Y-44850000D03*
X49157500Y-44450000D03*
X49157500Y-44050000D03*
X49157500Y-43650000D03*
X49157500Y-43250000D03*
X49157500Y-42850000D03*
X49157500Y-42450000D03*
X49157500Y-42050000D03*
D45*
X48320000Y-41212500D03*
X47920000Y-41212500D03*
X47520000Y-41212500D03*
X47120000Y-41212500D03*
X46720000Y-41212500D03*
X46320000Y-41212500D03*
X45920000Y-41212500D03*
X45520000Y-41212500D03*
X45120000Y-41212500D03*
X44720000Y-41212500D03*
X44320000Y-41212500D03*
X43920000Y-41212500D03*
X43520000Y-41212500D03*
X43120000Y-41212500D03*
D46*
X45720000Y-44650000D03*
%TD*%
D15*
%TO.C,C18*%
X36070000Y-40780000D03*
X37970000Y-40780000D03*
%TD*%
D11*
%TO.C,R20*%
X46370000Y-18892500D03*
X46370000Y-17067500D03*
%TD*%
D15*
%TO.C,C12*%
X51530000Y-39620000D03*
X53430000Y-39620000D03*
%TD*%
D11*
%TO.C,R27*%
X19320000Y-45280000D03*
X19320000Y-43455000D03*
%TD*%
D13*
%TO.C,J11*%
X67000000Y-48260000D03*
D14*
X67000000Y-45720000D03*
X67000000Y-43180000D03*
X67000000Y-40640000D03*
%TD*%
D12*
%TO.C,C26*%
X13020000Y-45480000D03*
X13020000Y-47380000D03*
%TD*%
D47*
%TO.C,BZ1*%
X68520000Y-28680000D03*
X68520000Y-21680000D03*
X61520000Y-21680000D03*
X61520000Y-28680000D03*
%TD*%
D48*
%TO.C,J2*%
X59410000Y-6460000D03*
X53630000Y-6460000D03*
D49*
X59720000Y-7535000D03*
X58920000Y-7535000D03*
D50*
X57770000Y-7535000D03*
X56770000Y-7535000D03*
X56270000Y-7535000D03*
X55270000Y-7535000D03*
D49*
X53320000Y-7535000D03*
X54120000Y-7535000D03*
D50*
X54770000Y-7535000D03*
X55770000Y-7535000D03*
X57270000Y-7535000D03*
X58270000Y-7535000D03*
D51*
X60840000Y-2780000D03*
X52200000Y-2780000D03*
D52*
X60840000Y-6960000D03*
X52200000Y-6960000D03*
%TD*%
D16*
%TO.C,H3*%
X2580000Y-4980000D03*
X3282944Y-3282944D03*
X3282944Y-6677056D03*
X4980000Y-2580000D03*
D17*
X4980000Y-4980000D03*
D16*
X4980000Y-7380000D03*
X6677056Y-3282944D03*
X6677056Y-6677056D03*
X7380000Y-4980000D03*
%TD*%
D20*
%TO.C,C8*%
X51430000Y-37800000D03*
X51430000Y-35900000D03*
%TD*%
D11*
%TO.C,R10*%
X61720000Y-46880000D03*
X61720000Y-45055000D03*
%TD*%
D13*
%TO.C,J10*%
X44120000Y-12830000D03*
D14*
X44120000Y-10290000D03*
%TD*%
D11*
%TO.C,R8*%
X44470000Y-18880000D03*
X44470000Y-17055000D03*
%TD*%
D15*
%TO.C,C14*%
X51550000Y-41680000D03*
X53450000Y-41680000D03*
%TD*%
D19*
%TO.C,C34*%
X32920000Y-34880000D03*
X31020000Y-34880000D03*
%TD*%
D20*
%TO.C,C29*%
X10970000Y-30130000D03*
X10970000Y-28230000D03*
%TD*%
D53*
%TO.C,U3*%
X25820000Y-23380000D03*
X25820000Y-21080000D03*
D54*
X19520000Y-21080000D03*
D53*
X25820000Y-18780000D03*
%TD*%
D15*
%TO.C,C33*%
X30000000Y-52460000D03*
X31900000Y-52460000D03*
%TD*%
D11*
%TO.C,R36*%
X60520000Y-58505000D03*
X60520000Y-56680000D03*
%TD*%
D16*
%TO.C,H2*%
X2580000Y-55780000D03*
X3282944Y-54082944D03*
X3282944Y-57477056D03*
X4980000Y-53380000D03*
D17*
X4980000Y-55780000D03*
D16*
X4980000Y-58180000D03*
X6677056Y-54082944D03*
X6677056Y-57477056D03*
X7380000Y-55780000D03*
%TD*%
D55*
%TO.C,Y1*%
X49350000Y-56460000D03*
X40850000Y-56460000D03*
%TD*%
D18*
%TO.C,R23*%
X10970000Y-35180000D03*
X10970000Y-37005000D03*
%TD*%
D56*
%TO.C,J1*%
X13810000Y-19900000D03*
X7610000Y-19900000D03*
X10710000Y-24900000D03*
%TD*%
D11*
%TO.C,R35*%
X34220000Y-38605000D03*
X34220000Y-36780000D03*
%TD*%
D15*
%TO.C,C22*%
X40520000Y-52780000D03*
X42420000Y-52780000D03*
%TD*%
D16*
%TO.C,H1*%
X63540000Y-55780000D03*
X64242944Y-54082944D03*
X64242944Y-57477056D03*
X65940000Y-53380000D03*
D17*
X65940000Y-55780000D03*
D16*
X65940000Y-58180000D03*
X67637056Y-54082944D03*
X67637056Y-57477056D03*
X68340000Y-55780000D03*
%TD*%
D19*
%TO.C,C5*%
X22720000Y-35080000D03*
X20820000Y-35080000D03*
%TD*%
D35*
%TO.C,D4*%
X23380000Y-57380000D03*
X19620000Y-57380000D03*
%TD*%
D10*
%TO.C,R30*%
X65320000Y-35380000D03*
X67145000Y-35380000D03*
%TD*%
D11*
%TO.C,R15*%
X16200000Y-27322500D03*
X16200000Y-25497500D03*
%TD*%
M02*
