%TF.GenerationSoftware,KiCad,Pcbnew,7.0.7-7.0.7~ubuntu23.04.1*%
%TF.CreationDate,2023-08-15T02:38:17+00:00*%
%TF.ProjectId,AMFOC01,414d464f-4330-4312-9e6b-696361645f70,rev?*%
%TF.SameCoordinates,Original*%
%TF.FileFunction,Legend,Top*%
%TF.FilePolarity,Positive*%
%FSLAX46Y46*%
G04 Gerber Fmt 4.6, Leading zero omitted, Abs format (unit mm)*
G04 Created by KiCad (PCBNEW 7.0.7-7.0.7~ubuntu23.04.1) date 2023-08-15 02:38:17*
%MOMM*%
%LPD*%
G01*
G04 APERTURE LIST*
%ADD10C,0.150000*%
%ADD11C,0.200000*%
%ADD12C,0.100000*%
%ADD13C,0.120000*%
%ADD14C,0.127000*%
%ADD15R,3.810000X3.810000*%
G04 APERTURE END LIST*
D10*
X33823607Y-46860000D02*
G75*
G03*
X33823607Y-46860000I-223607J0D01*
G01*
X47523607Y-25460000D02*
G75*
G03*
X47523607Y-25460000I-223607J0D01*
G01*
D11*
X54341428Y-28077814D02*
X54555714Y-28149242D01*
X54555714Y-28149242D02*
X54627143Y-28220671D01*
X54627143Y-28220671D02*
X54698571Y-28363528D01*
X54698571Y-28363528D02*
X54698571Y-28577814D01*
X54698571Y-28577814D02*
X54627143Y-28720671D01*
X54627143Y-28720671D02*
X54555714Y-28792100D01*
X54555714Y-28792100D02*
X54412857Y-28863528D01*
X54412857Y-28863528D02*
X53841428Y-28863528D01*
X53841428Y-28863528D02*
X53841428Y-27363528D01*
X53841428Y-27363528D02*
X54341428Y-27363528D01*
X54341428Y-27363528D02*
X54484286Y-27434957D01*
X54484286Y-27434957D02*
X54555714Y-27506385D01*
X54555714Y-27506385D02*
X54627143Y-27649242D01*
X54627143Y-27649242D02*
X54627143Y-27792100D01*
X54627143Y-27792100D02*
X54555714Y-27934957D01*
X54555714Y-27934957D02*
X54484286Y-28006385D01*
X54484286Y-28006385D02*
X54341428Y-28077814D01*
X54341428Y-28077814D02*
X53841428Y-28077814D01*
X55555714Y-28863528D02*
X55412857Y-28792100D01*
X55412857Y-28792100D02*
X55341428Y-28720671D01*
X55341428Y-28720671D02*
X55270000Y-28577814D01*
X55270000Y-28577814D02*
X55270000Y-28149242D01*
X55270000Y-28149242D02*
X55341428Y-28006385D01*
X55341428Y-28006385D02*
X55412857Y-27934957D01*
X55412857Y-27934957D02*
X55555714Y-27863528D01*
X55555714Y-27863528D02*
X55770000Y-27863528D01*
X55770000Y-27863528D02*
X55912857Y-27934957D01*
X55912857Y-27934957D02*
X55984286Y-28006385D01*
X55984286Y-28006385D02*
X56055714Y-28149242D01*
X56055714Y-28149242D02*
X56055714Y-28577814D01*
X56055714Y-28577814D02*
X55984286Y-28720671D01*
X55984286Y-28720671D02*
X55912857Y-28792100D01*
X55912857Y-28792100D02*
X55770000Y-28863528D01*
X55770000Y-28863528D02*
X55555714Y-28863528D01*
X56912857Y-28863528D02*
X56770000Y-28792100D01*
X56770000Y-28792100D02*
X56698571Y-28720671D01*
X56698571Y-28720671D02*
X56627143Y-28577814D01*
X56627143Y-28577814D02*
X56627143Y-28149242D01*
X56627143Y-28149242D02*
X56698571Y-28006385D01*
X56698571Y-28006385D02*
X56770000Y-27934957D01*
X56770000Y-27934957D02*
X56912857Y-27863528D01*
X56912857Y-27863528D02*
X57127143Y-27863528D01*
X57127143Y-27863528D02*
X57270000Y-27934957D01*
X57270000Y-27934957D02*
X57341429Y-28006385D01*
X57341429Y-28006385D02*
X57412857Y-28149242D01*
X57412857Y-28149242D02*
X57412857Y-28577814D01*
X57412857Y-28577814D02*
X57341429Y-28720671D01*
X57341429Y-28720671D02*
X57270000Y-28792100D01*
X57270000Y-28792100D02*
X57127143Y-28863528D01*
X57127143Y-28863528D02*
X56912857Y-28863528D01*
X57841429Y-27863528D02*
X58412857Y-27863528D01*
X58055714Y-27363528D02*
X58055714Y-28649242D01*
X58055714Y-28649242D02*
X58127143Y-28792100D01*
X58127143Y-28792100D02*
X58270000Y-28863528D01*
X58270000Y-28863528D02*
X58412857Y-28863528D01*
D12*
X61186667Y-11344895D02*
X60920000Y-10963942D01*
X60729524Y-11344895D02*
X60729524Y-10544895D01*
X60729524Y-10544895D02*
X61034286Y-10544895D01*
X61034286Y-10544895D02*
X61110476Y-10582990D01*
X61110476Y-10582990D02*
X61148571Y-10621085D01*
X61148571Y-10621085D02*
X61186667Y-10697276D01*
X61186667Y-10697276D02*
X61186667Y-10811561D01*
X61186667Y-10811561D02*
X61148571Y-10887752D01*
X61148571Y-10887752D02*
X61110476Y-10925847D01*
X61110476Y-10925847D02*
X61034286Y-10963942D01*
X61034286Y-10963942D02*
X60729524Y-10963942D01*
X61948571Y-11344895D02*
X61491428Y-11344895D01*
X61720000Y-11344895D02*
X61720000Y-10544895D01*
X61720000Y-10544895D02*
X61643809Y-10659180D01*
X61643809Y-10659180D02*
X61567619Y-10735371D01*
X61567619Y-10735371D02*
X61491428Y-10773466D01*
X14869819Y-40192445D02*
X14488866Y-40459112D01*
X14869819Y-40649588D02*
X14069819Y-40649588D01*
X14069819Y-40649588D02*
X14069819Y-40344826D01*
X14069819Y-40344826D02*
X14107914Y-40268636D01*
X14107914Y-40268636D02*
X14146009Y-40230541D01*
X14146009Y-40230541D02*
X14222200Y-40192445D01*
X14222200Y-40192445D02*
X14336485Y-40192445D01*
X14336485Y-40192445D02*
X14412676Y-40230541D01*
X14412676Y-40230541D02*
X14450771Y-40268636D01*
X14450771Y-40268636D02*
X14488866Y-40344826D01*
X14488866Y-40344826D02*
X14488866Y-40649588D01*
X14869819Y-39430541D02*
X14869819Y-39887684D01*
X14869819Y-39659112D02*
X14069819Y-39659112D01*
X14069819Y-39659112D02*
X14184104Y-39735303D01*
X14184104Y-39735303D02*
X14260295Y-39811493D01*
X14260295Y-39811493D02*
X14298390Y-39887684D01*
X14869819Y-39049588D02*
X14869819Y-38897207D01*
X14869819Y-38897207D02*
X14831724Y-38821017D01*
X14831724Y-38821017D02*
X14793628Y-38782921D01*
X14793628Y-38782921D02*
X14679343Y-38706731D01*
X14679343Y-38706731D02*
X14526962Y-38668636D01*
X14526962Y-38668636D02*
X14222200Y-38668636D01*
X14222200Y-38668636D02*
X14146009Y-38706731D01*
X14146009Y-38706731D02*
X14107914Y-38744826D01*
X14107914Y-38744826D02*
X14069819Y-38821017D01*
X14069819Y-38821017D02*
X14069819Y-38973398D01*
X14069819Y-38973398D02*
X14107914Y-39049588D01*
X14107914Y-39049588D02*
X14146009Y-39087683D01*
X14146009Y-39087683D02*
X14222200Y-39125779D01*
X14222200Y-39125779D02*
X14412676Y-39125779D01*
X14412676Y-39125779D02*
X14488866Y-39087683D01*
X14488866Y-39087683D02*
X14526962Y-39049588D01*
X14526962Y-39049588D02*
X14565057Y-38973398D01*
X14565057Y-38973398D02*
X14565057Y-38821017D01*
X14565057Y-38821017D02*
X14526962Y-38744826D01*
X14526962Y-38744826D02*
X14488866Y-38706731D01*
X14488866Y-38706731D02*
X14412676Y-38668636D01*
X53882395Y-52714285D02*
X53501442Y-52980952D01*
X53882395Y-53171428D02*
X53082395Y-53171428D01*
X53082395Y-53171428D02*
X53082395Y-52866666D01*
X53082395Y-52866666D02*
X53120490Y-52790476D01*
X53120490Y-52790476D02*
X53158585Y-52752381D01*
X53158585Y-52752381D02*
X53234776Y-52714285D01*
X53234776Y-52714285D02*
X53349061Y-52714285D01*
X53349061Y-52714285D02*
X53425252Y-52752381D01*
X53425252Y-52752381D02*
X53463347Y-52790476D01*
X53463347Y-52790476D02*
X53501442Y-52866666D01*
X53501442Y-52866666D02*
X53501442Y-53171428D01*
X53082395Y-52447619D02*
X53082395Y-51952381D01*
X53082395Y-51952381D02*
X53387157Y-52219047D01*
X53387157Y-52219047D02*
X53387157Y-52104762D01*
X53387157Y-52104762D02*
X53425252Y-52028571D01*
X53425252Y-52028571D02*
X53463347Y-51990476D01*
X53463347Y-51990476D02*
X53539538Y-51952381D01*
X53539538Y-51952381D02*
X53730014Y-51952381D01*
X53730014Y-51952381D02*
X53806204Y-51990476D01*
X53806204Y-51990476D02*
X53844300Y-52028571D01*
X53844300Y-52028571D02*
X53882395Y-52104762D01*
X53882395Y-52104762D02*
X53882395Y-52333333D01*
X53882395Y-52333333D02*
X53844300Y-52409524D01*
X53844300Y-52409524D02*
X53806204Y-52447619D01*
X53158585Y-51647619D02*
X53120490Y-51609523D01*
X53120490Y-51609523D02*
X53082395Y-51533333D01*
X53082395Y-51533333D02*
X53082395Y-51342857D01*
X53082395Y-51342857D02*
X53120490Y-51266666D01*
X53120490Y-51266666D02*
X53158585Y-51228571D01*
X53158585Y-51228571D02*
X53234776Y-51190476D01*
X53234776Y-51190476D02*
X53310966Y-51190476D01*
X53310966Y-51190476D02*
X53425252Y-51228571D01*
X53425252Y-51228571D02*
X53882395Y-51685714D01*
X53882395Y-51685714D02*
X53882395Y-51190476D01*
X20556667Y-28978704D02*
X20518571Y-29016800D01*
X20518571Y-29016800D02*
X20404286Y-29054895D01*
X20404286Y-29054895D02*
X20328095Y-29054895D01*
X20328095Y-29054895D02*
X20213809Y-29016800D01*
X20213809Y-29016800D02*
X20137619Y-28940609D01*
X20137619Y-28940609D02*
X20099524Y-28864419D01*
X20099524Y-28864419D02*
X20061428Y-28712038D01*
X20061428Y-28712038D02*
X20061428Y-28597752D01*
X20061428Y-28597752D02*
X20099524Y-28445371D01*
X20099524Y-28445371D02*
X20137619Y-28369180D01*
X20137619Y-28369180D02*
X20213809Y-28292990D01*
X20213809Y-28292990D02*
X20328095Y-28254895D01*
X20328095Y-28254895D02*
X20404286Y-28254895D01*
X20404286Y-28254895D02*
X20518571Y-28292990D01*
X20518571Y-28292990D02*
X20556667Y-28331085D01*
X20823333Y-28254895D02*
X21356667Y-28254895D01*
X21356667Y-28254895D02*
X21013809Y-29054895D01*
X47580440Y-7084895D02*
X47580440Y-7656323D01*
X47580440Y-7656323D02*
X47542345Y-7770609D01*
X47542345Y-7770609D02*
X47466154Y-7846800D01*
X47466154Y-7846800D02*
X47351869Y-7884895D01*
X47351869Y-7884895D02*
X47275678Y-7884895D01*
X47999488Y-7884895D02*
X48151869Y-7884895D01*
X48151869Y-7884895D02*
X48228059Y-7846800D01*
X48228059Y-7846800D02*
X48266155Y-7808704D01*
X48266155Y-7808704D02*
X48342345Y-7694419D01*
X48342345Y-7694419D02*
X48380440Y-7542038D01*
X48380440Y-7542038D02*
X48380440Y-7237276D01*
X48380440Y-7237276D02*
X48342345Y-7161085D01*
X48342345Y-7161085D02*
X48304250Y-7122990D01*
X48304250Y-7122990D02*
X48228059Y-7084895D01*
X48228059Y-7084895D02*
X48075678Y-7084895D01*
X48075678Y-7084895D02*
X47999488Y-7122990D01*
X47999488Y-7122990D02*
X47961393Y-7161085D01*
X47961393Y-7161085D02*
X47923297Y-7237276D01*
X47923297Y-7237276D02*
X47923297Y-7427752D01*
X47923297Y-7427752D02*
X47961393Y-7503942D01*
X47961393Y-7503942D02*
X47999488Y-7542038D01*
X47999488Y-7542038D02*
X48075678Y-7580133D01*
X48075678Y-7580133D02*
X48228059Y-7580133D01*
X48228059Y-7580133D02*
X48304250Y-7542038D01*
X48304250Y-7542038D02*
X48342345Y-7503942D01*
X48342345Y-7503942D02*
X48380440Y-7427752D01*
X27908704Y-24213332D02*
X27946800Y-24251428D01*
X27946800Y-24251428D02*
X27984895Y-24365713D01*
X27984895Y-24365713D02*
X27984895Y-24441904D01*
X27984895Y-24441904D02*
X27946800Y-24556190D01*
X27946800Y-24556190D02*
X27870609Y-24632380D01*
X27870609Y-24632380D02*
X27794419Y-24670475D01*
X27794419Y-24670475D02*
X27642038Y-24708571D01*
X27642038Y-24708571D02*
X27527752Y-24708571D01*
X27527752Y-24708571D02*
X27375371Y-24670475D01*
X27375371Y-24670475D02*
X27299180Y-24632380D01*
X27299180Y-24632380D02*
X27222990Y-24556190D01*
X27222990Y-24556190D02*
X27184895Y-24441904D01*
X27184895Y-24441904D02*
X27184895Y-24365713D01*
X27184895Y-24365713D02*
X27222990Y-24251428D01*
X27222990Y-24251428D02*
X27261085Y-24213332D01*
X27984895Y-23451428D02*
X27984895Y-23908571D01*
X27984895Y-23679999D02*
X27184895Y-23679999D01*
X27184895Y-23679999D02*
X27299180Y-23756190D01*
X27299180Y-23756190D02*
X27375371Y-23832380D01*
X27375371Y-23832380D02*
X27413466Y-23908571D01*
X68874895Y-38084285D02*
X68493942Y-38350952D01*
X68874895Y-38541428D02*
X68074895Y-38541428D01*
X68074895Y-38541428D02*
X68074895Y-38236666D01*
X68074895Y-38236666D02*
X68112990Y-38160476D01*
X68112990Y-38160476D02*
X68151085Y-38122381D01*
X68151085Y-38122381D02*
X68227276Y-38084285D01*
X68227276Y-38084285D02*
X68341561Y-38084285D01*
X68341561Y-38084285D02*
X68417752Y-38122381D01*
X68417752Y-38122381D02*
X68455847Y-38160476D01*
X68455847Y-38160476D02*
X68493942Y-38236666D01*
X68493942Y-38236666D02*
X68493942Y-38541428D01*
X68074895Y-37817619D02*
X68074895Y-37322381D01*
X68074895Y-37322381D02*
X68379657Y-37589047D01*
X68379657Y-37589047D02*
X68379657Y-37474762D01*
X68379657Y-37474762D02*
X68417752Y-37398571D01*
X68417752Y-37398571D02*
X68455847Y-37360476D01*
X68455847Y-37360476D02*
X68532038Y-37322381D01*
X68532038Y-37322381D02*
X68722514Y-37322381D01*
X68722514Y-37322381D02*
X68798704Y-37360476D01*
X68798704Y-37360476D02*
X68836800Y-37398571D01*
X68836800Y-37398571D02*
X68874895Y-37474762D01*
X68874895Y-37474762D02*
X68874895Y-37703333D01*
X68874895Y-37703333D02*
X68836800Y-37779524D01*
X68836800Y-37779524D02*
X68798704Y-37817619D01*
X68874895Y-36560476D02*
X68874895Y-37017619D01*
X68874895Y-36789047D02*
X68074895Y-36789047D01*
X68074895Y-36789047D02*
X68189180Y-36865238D01*
X68189180Y-36865238D02*
X68265371Y-36941428D01*
X68265371Y-36941428D02*
X68303466Y-37017619D01*
X25705714Y-59668704D02*
X25667618Y-59706800D01*
X25667618Y-59706800D02*
X25553333Y-59744895D01*
X25553333Y-59744895D02*
X25477142Y-59744895D01*
X25477142Y-59744895D02*
X25362856Y-59706800D01*
X25362856Y-59706800D02*
X25286666Y-59630609D01*
X25286666Y-59630609D02*
X25248571Y-59554419D01*
X25248571Y-59554419D02*
X25210475Y-59402038D01*
X25210475Y-59402038D02*
X25210475Y-59287752D01*
X25210475Y-59287752D02*
X25248571Y-59135371D01*
X25248571Y-59135371D02*
X25286666Y-59059180D01*
X25286666Y-59059180D02*
X25362856Y-58982990D01*
X25362856Y-58982990D02*
X25477142Y-58944895D01*
X25477142Y-58944895D02*
X25553333Y-58944895D01*
X25553333Y-58944895D02*
X25667618Y-58982990D01*
X25667618Y-58982990D02*
X25705714Y-59021085D01*
X26010475Y-59021085D02*
X26048571Y-58982990D01*
X26048571Y-58982990D02*
X26124761Y-58944895D01*
X26124761Y-58944895D02*
X26315237Y-58944895D01*
X26315237Y-58944895D02*
X26391428Y-58982990D01*
X26391428Y-58982990D02*
X26429523Y-59021085D01*
X26429523Y-59021085D02*
X26467618Y-59097276D01*
X26467618Y-59097276D02*
X26467618Y-59173466D01*
X26467618Y-59173466D02*
X26429523Y-59287752D01*
X26429523Y-59287752D02*
X25972380Y-59744895D01*
X25972380Y-59744895D02*
X26467618Y-59744895D01*
X27153333Y-59211561D02*
X27153333Y-59744895D01*
X26962857Y-58906800D02*
X26772380Y-59478228D01*
X26772380Y-59478228D02*
X27267619Y-59478228D01*
X59605714Y-44344895D02*
X59339047Y-43963942D01*
X59148571Y-44344895D02*
X59148571Y-43544895D01*
X59148571Y-43544895D02*
X59453333Y-43544895D01*
X59453333Y-43544895D02*
X59529523Y-43582990D01*
X59529523Y-43582990D02*
X59567618Y-43621085D01*
X59567618Y-43621085D02*
X59605714Y-43697276D01*
X59605714Y-43697276D02*
X59605714Y-43811561D01*
X59605714Y-43811561D02*
X59567618Y-43887752D01*
X59567618Y-43887752D02*
X59529523Y-43925847D01*
X59529523Y-43925847D02*
X59453333Y-43963942D01*
X59453333Y-43963942D02*
X59148571Y-43963942D01*
X60367618Y-44344895D02*
X59910475Y-44344895D01*
X60139047Y-44344895D02*
X60139047Y-43544895D01*
X60139047Y-43544895D02*
X60062856Y-43659180D01*
X60062856Y-43659180D02*
X59986666Y-43735371D01*
X59986666Y-43735371D02*
X59910475Y-43773466D01*
X60672380Y-43621085D02*
X60710476Y-43582990D01*
X60710476Y-43582990D02*
X60786666Y-43544895D01*
X60786666Y-43544895D02*
X60977142Y-43544895D01*
X60977142Y-43544895D02*
X61053333Y-43582990D01*
X61053333Y-43582990D02*
X61091428Y-43621085D01*
X61091428Y-43621085D02*
X61129523Y-43697276D01*
X61129523Y-43697276D02*
X61129523Y-43773466D01*
X61129523Y-43773466D02*
X61091428Y-43887752D01*
X61091428Y-43887752D02*
X60634285Y-44344895D01*
X60634285Y-44344895D02*
X61129523Y-44344895D01*
X44708704Y-35294285D02*
X44746800Y-35332381D01*
X44746800Y-35332381D02*
X44784895Y-35446666D01*
X44784895Y-35446666D02*
X44784895Y-35522857D01*
X44784895Y-35522857D02*
X44746800Y-35637143D01*
X44746800Y-35637143D02*
X44670609Y-35713333D01*
X44670609Y-35713333D02*
X44594419Y-35751428D01*
X44594419Y-35751428D02*
X44442038Y-35789524D01*
X44442038Y-35789524D02*
X44327752Y-35789524D01*
X44327752Y-35789524D02*
X44175371Y-35751428D01*
X44175371Y-35751428D02*
X44099180Y-35713333D01*
X44099180Y-35713333D02*
X44022990Y-35637143D01*
X44022990Y-35637143D02*
X43984895Y-35522857D01*
X43984895Y-35522857D02*
X43984895Y-35446666D01*
X43984895Y-35446666D02*
X44022990Y-35332381D01*
X44022990Y-35332381D02*
X44061085Y-35294285D01*
X44784895Y-34532381D02*
X44784895Y-34989524D01*
X44784895Y-34760952D02*
X43984895Y-34760952D01*
X43984895Y-34760952D02*
X44099180Y-34837143D01*
X44099180Y-34837143D02*
X44175371Y-34913333D01*
X44175371Y-34913333D02*
X44213466Y-34989524D01*
X43984895Y-34265714D02*
X43984895Y-33732380D01*
X43984895Y-33732380D02*
X44784895Y-34075238D01*
X53246667Y-34914895D02*
X52980000Y-34533942D01*
X52789524Y-34914895D02*
X52789524Y-34114895D01*
X52789524Y-34114895D02*
X53094286Y-34114895D01*
X53094286Y-34114895D02*
X53170476Y-34152990D01*
X53170476Y-34152990D02*
X53208571Y-34191085D01*
X53208571Y-34191085D02*
X53246667Y-34267276D01*
X53246667Y-34267276D02*
X53246667Y-34381561D01*
X53246667Y-34381561D02*
X53208571Y-34457752D01*
X53208571Y-34457752D02*
X53170476Y-34495847D01*
X53170476Y-34495847D02*
X53094286Y-34533942D01*
X53094286Y-34533942D02*
X52789524Y-34533942D01*
X53513333Y-34114895D02*
X54008571Y-34114895D01*
X54008571Y-34114895D02*
X53741905Y-34419657D01*
X53741905Y-34419657D02*
X53856190Y-34419657D01*
X53856190Y-34419657D02*
X53932381Y-34457752D01*
X53932381Y-34457752D02*
X53970476Y-34495847D01*
X53970476Y-34495847D02*
X54008571Y-34572038D01*
X54008571Y-34572038D02*
X54008571Y-34762514D01*
X54008571Y-34762514D02*
X53970476Y-34838704D01*
X53970476Y-34838704D02*
X53932381Y-34876800D01*
X53932381Y-34876800D02*
X53856190Y-34914895D01*
X53856190Y-34914895D02*
X53627619Y-34914895D01*
X53627619Y-34914895D02*
X53551428Y-34876800D01*
X53551428Y-34876800D02*
X53513333Y-34838704D01*
X49855714Y-20744895D02*
X49589047Y-20363942D01*
X49398571Y-20744895D02*
X49398571Y-19944895D01*
X49398571Y-19944895D02*
X49703333Y-19944895D01*
X49703333Y-19944895D02*
X49779523Y-19982990D01*
X49779523Y-19982990D02*
X49817618Y-20021085D01*
X49817618Y-20021085D02*
X49855714Y-20097276D01*
X49855714Y-20097276D02*
X49855714Y-20211561D01*
X49855714Y-20211561D02*
X49817618Y-20287752D01*
X49817618Y-20287752D02*
X49779523Y-20325847D01*
X49779523Y-20325847D02*
X49703333Y-20363942D01*
X49703333Y-20363942D02*
X49398571Y-20363942D01*
X50122380Y-19944895D02*
X50617618Y-19944895D01*
X50617618Y-19944895D02*
X50350952Y-20249657D01*
X50350952Y-20249657D02*
X50465237Y-20249657D01*
X50465237Y-20249657D02*
X50541428Y-20287752D01*
X50541428Y-20287752D02*
X50579523Y-20325847D01*
X50579523Y-20325847D02*
X50617618Y-20402038D01*
X50617618Y-20402038D02*
X50617618Y-20592514D01*
X50617618Y-20592514D02*
X50579523Y-20668704D01*
X50579523Y-20668704D02*
X50541428Y-20706800D01*
X50541428Y-20706800D02*
X50465237Y-20744895D01*
X50465237Y-20744895D02*
X50236666Y-20744895D01*
X50236666Y-20744895D02*
X50160475Y-20706800D01*
X50160475Y-20706800D02*
X50122380Y-20668704D01*
X51074761Y-20287752D02*
X50998571Y-20249657D01*
X50998571Y-20249657D02*
X50960476Y-20211561D01*
X50960476Y-20211561D02*
X50922380Y-20135371D01*
X50922380Y-20135371D02*
X50922380Y-20097276D01*
X50922380Y-20097276D02*
X50960476Y-20021085D01*
X50960476Y-20021085D02*
X50998571Y-19982990D01*
X50998571Y-19982990D02*
X51074761Y-19944895D01*
X51074761Y-19944895D02*
X51227142Y-19944895D01*
X51227142Y-19944895D02*
X51303333Y-19982990D01*
X51303333Y-19982990D02*
X51341428Y-20021085D01*
X51341428Y-20021085D02*
X51379523Y-20097276D01*
X51379523Y-20097276D02*
X51379523Y-20135371D01*
X51379523Y-20135371D02*
X51341428Y-20211561D01*
X51341428Y-20211561D02*
X51303333Y-20249657D01*
X51303333Y-20249657D02*
X51227142Y-20287752D01*
X51227142Y-20287752D02*
X51074761Y-20287752D01*
X51074761Y-20287752D02*
X50998571Y-20325847D01*
X50998571Y-20325847D02*
X50960476Y-20363942D01*
X50960476Y-20363942D02*
X50922380Y-20440133D01*
X50922380Y-20440133D02*
X50922380Y-20592514D01*
X50922380Y-20592514D02*
X50960476Y-20668704D01*
X50960476Y-20668704D02*
X50998571Y-20706800D01*
X50998571Y-20706800D02*
X51074761Y-20744895D01*
X51074761Y-20744895D02*
X51227142Y-20744895D01*
X51227142Y-20744895D02*
X51303333Y-20706800D01*
X51303333Y-20706800D02*
X51341428Y-20668704D01*
X51341428Y-20668704D02*
X51379523Y-20592514D01*
X51379523Y-20592514D02*
X51379523Y-20440133D01*
X51379523Y-20440133D02*
X51341428Y-20363942D01*
X51341428Y-20363942D02*
X51303333Y-20325847D01*
X51303333Y-20325847D02*
X51227142Y-20287752D01*
X30510714Y-49424895D02*
X30244047Y-49043942D01*
X30053571Y-49424895D02*
X30053571Y-48624895D01*
X30053571Y-48624895D02*
X30358333Y-48624895D01*
X30358333Y-48624895D02*
X30434523Y-48662990D01*
X30434523Y-48662990D02*
X30472618Y-48701085D01*
X30472618Y-48701085D02*
X30510714Y-48777276D01*
X30510714Y-48777276D02*
X30510714Y-48891561D01*
X30510714Y-48891561D02*
X30472618Y-48967752D01*
X30472618Y-48967752D02*
X30434523Y-49005847D01*
X30434523Y-49005847D02*
X30358333Y-49043942D01*
X30358333Y-49043942D02*
X30053571Y-49043942D01*
X30777380Y-48624895D02*
X31272618Y-48624895D01*
X31272618Y-48624895D02*
X31005952Y-48929657D01*
X31005952Y-48929657D02*
X31120237Y-48929657D01*
X31120237Y-48929657D02*
X31196428Y-48967752D01*
X31196428Y-48967752D02*
X31234523Y-49005847D01*
X31234523Y-49005847D02*
X31272618Y-49082038D01*
X31272618Y-49082038D02*
X31272618Y-49272514D01*
X31272618Y-49272514D02*
X31234523Y-49348704D01*
X31234523Y-49348704D02*
X31196428Y-49386800D01*
X31196428Y-49386800D02*
X31120237Y-49424895D01*
X31120237Y-49424895D02*
X30891666Y-49424895D01*
X30891666Y-49424895D02*
X30815475Y-49386800D01*
X30815475Y-49386800D02*
X30777380Y-49348704D01*
X31958333Y-48891561D02*
X31958333Y-49424895D01*
X31767857Y-48586800D02*
X31577380Y-49158228D01*
X31577380Y-49158228D02*
X32072619Y-49158228D01*
X31234895Y-58506785D02*
X30853942Y-58773452D01*
X31234895Y-58963928D02*
X30434895Y-58963928D01*
X30434895Y-58963928D02*
X30434895Y-58659166D01*
X30434895Y-58659166D02*
X30472990Y-58582976D01*
X30472990Y-58582976D02*
X30511085Y-58544881D01*
X30511085Y-58544881D02*
X30587276Y-58506785D01*
X30587276Y-58506785D02*
X30701561Y-58506785D01*
X30701561Y-58506785D02*
X30777752Y-58544881D01*
X30777752Y-58544881D02*
X30815847Y-58582976D01*
X30815847Y-58582976D02*
X30853942Y-58659166D01*
X30853942Y-58659166D02*
X30853942Y-58963928D01*
X31234895Y-57744881D02*
X31234895Y-58202024D01*
X31234895Y-57973452D02*
X30434895Y-57973452D01*
X30434895Y-57973452D02*
X30549180Y-58049643D01*
X30549180Y-58049643D02*
X30625371Y-58125833D01*
X30625371Y-58125833D02*
X30663466Y-58202024D01*
X30434895Y-57059166D02*
X30434895Y-57211547D01*
X30434895Y-57211547D02*
X30472990Y-57287738D01*
X30472990Y-57287738D02*
X30511085Y-57325833D01*
X30511085Y-57325833D02*
X30625371Y-57402023D01*
X30625371Y-57402023D02*
X30777752Y-57440119D01*
X30777752Y-57440119D02*
X31082514Y-57440119D01*
X31082514Y-57440119D02*
X31158704Y-57402023D01*
X31158704Y-57402023D02*
X31196800Y-57363928D01*
X31196800Y-57363928D02*
X31234895Y-57287738D01*
X31234895Y-57287738D02*
X31234895Y-57135357D01*
X31234895Y-57135357D02*
X31196800Y-57059166D01*
X31196800Y-57059166D02*
X31158704Y-57021071D01*
X31158704Y-57021071D02*
X31082514Y-56982976D01*
X31082514Y-56982976D02*
X30892038Y-56982976D01*
X30892038Y-56982976D02*
X30815847Y-57021071D01*
X30815847Y-57021071D02*
X30777752Y-57059166D01*
X30777752Y-57059166D02*
X30739657Y-57135357D01*
X30739657Y-57135357D02*
X30739657Y-57287738D01*
X30739657Y-57287738D02*
X30777752Y-57363928D01*
X30777752Y-57363928D02*
X30815847Y-57402023D01*
X30815847Y-57402023D02*
X30892038Y-57440119D01*
X23105714Y-49868704D02*
X23067618Y-49906800D01*
X23067618Y-49906800D02*
X22953333Y-49944895D01*
X22953333Y-49944895D02*
X22877142Y-49944895D01*
X22877142Y-49944895D02*
X22762856Y-49906800D01*
X22762856Y-49906800D02*
X22686666Y-49830609D01*
X22686666Y-49830609D02*
X22648571Y-49754419D01*
X22648571Y-49754419D02*
X22610475Y-49602038D01*
X22610475Y-49602038D02*
X22610475Y-49487752D01*
X22610475Y-49487752D02*
X22648571Y-49335371D01*
X22648571Y-49335371D02*
X22686666Y-49259180D01*
X22686666Y-49259180D02*
X22762856Y-49182990D01*
X22762856Y-49182990D02*
X22877142Y-49144895D01*
X22877142Y-49144895D02*
X22953333Y-49144895D01*
X22953333Y-49144895D02*
X23067618Y-49182990D01*
X23067618Y-49182990D02*
X23105714Y-49221085D01*
X23410475Y-49221085D02*
X23448571Y-49182990D01*
X23448571Y-49182990D02*
X23524761Y-49144895D01*
X23524761Y-49144895D02*
X23715237Y-49144895D01*
X23715237Y-49144895D02*
X23791428Y-49182990D01*
X23791428Y-49182990D02*
X23829523Y-49221085D01*
X23829523Y-49221085D02*
X23867618Y-49297276D01*
X23867618Y-49297276D02*
X23867618Y-49373466D01*
X23867618Y-49373466D02*
X23829523Y-49487752D01*
X23829523Y-49487752D02*
X23372380Y-49944895D01*
X23372380Y-49944895D02*
X23867618Y-49944895D01*
X24324761Y-49487752D02*
X24248571Y-49449657D01*
X24248571Y-49449657D02*
X24210476Y-49411561D01*
X24210476Y-49411561D02*
X24172380Y-49335371D01*
X24172380Y-49335371D02*
X24172380Y-49297276D01*
X24172380Y-49297276D02*
X24210476Y-49221085D01*
X24210476Y-49221085D02*
X24248571Y-49182990D01*
X24248571Y-49182990D02*
X24324761Y-49144895D01*
X24324761Y-49144895D02*
X24477142Y-49144895D01*
X24477142Y-49144895D02*
X24553333Y-49182990D01*
X24553333Y-49182990D02*
X24591428Y-49221085D01*
X24591428Y-49221085D02*
X24629523Y-49297276D01*
X24629523Y-49297276D02*
X24629523Y-49335371D01*
X24629523Y-49335371D02*
X24591428Y-49411561D01*
X24591428Y-49411561D02*
X24553333Y-49449657D01*
X24553333Y-49449657D02*
X24477142Y-49487752D01*
X24477142Y-49487752D02*
X24324761Y-49487752D01*
X24324761Y-49487752D02*
X24248571Y-49525847D01*
X24248571Y-49525847D02*
X24210476Y-49563942D01*
X24210476Y-49563942D02*
X24172380Y-49640133D01*
X24172380Y-49640133D02*
X24172380Y-49792514D01*
X24172380Y-49792514D02*
X24210476Y-49868704D01*
X24210476Y-49868704D02*
X24248571Y-49906800D01*
X24248571Y-49906800D02*
X24324761Y-49944895D01*
X24324761Y-49944895D02*
X24477142Y-49944895D01*
X24477142Y-49944895D02*
X24553333Y-49906800D01*
X24553333Y-49906800D02*
X24591428Y-49868704D01*
X24591428Y-49868704D02*
X24629523Y-49792514D01*
X24629523Y-49792514D02*
X24629523Y-49640133D01*
X24629523Y-49640133D02*
X24591428Y-49563942D01*
X24591428Y-49563942D02*
X24553333Y-49525847D01*
X24553333Y-49525847D02*
X24477142Y-49487752D01*
X29105714Y-29718704D02*
X29067618Y-29756800D01*
X29067618Y-29756800D02*
X28953333Y-29794895D01*
X28953333Y-29794895D02*
X28877142Y-29794895D01*
X28877142Y-29794895D02*
X28762856Y-29756800D01*
X28762856Y-29756800D02*
X28686666Y-29680609D01*
X28686666Y-29680609D02*
X28648571Y-29604419D01*
X28648571Y-29604419D02*
X28610475Y-29452038D01*
X28610475Y-29452038D02*
X28610475Y-29337752D01*
X28610475Y-29337752D02*
X28648571Y-29185371D01*
X28648571Y-29185371D02*
X28686666Y-29109180D01*
X28686666Y-29109180D02*
X28762856Y-29032990D01*
X28762856Y-29032990D02*
X28877142Y-28994895D01*
X28877142Y-28994895D02*
X28953333Y-28994895D01*
X28953333Y-28994895D02*
X29067618Y-29032990D01*
X29067618Y-29032990D02*
X29105714Y-29071085D01*
X29867618Y-29794895D02*
X29410475Y-29794895D01*
X29639047Y-29794895D02*
X29639047Y-28994895D01*
X29639047Y-28994895D02*
X29562856Y-29109180D01*
X29562856Y-29109180D02*
X29486666Y-29185371D01*
X29486666Y-29185371D02*
X29410475Y-29223466D01*
X30134285Y-28994895D02*
X30629523Y-28994895D01*
X30629523Y-28994895D02*
X30362857Y-29299657D01*
X30362857Y-29299657D02*
X30477142Y-29299657D01*
X30477142Y-29299657D02*
X30553333Y-29337752D01*
X30553333Y-29337752D02*
X30591428Y-29375847D01*
X30591428Y-29375847D02*
X30629523Y-29452038D01*
X30629523Y-29452038D02*
X30629523Y-29642514D01*
X30629523Y-29642514D02*
X30591428Y-29718704D01*
X30591428Y-29718704D02*
X30553333Y-29756800D01*
X30553333Y-29756800D02*
X30477142Y-29794895D01*
X30477142Y-29794895D02*
X30248571Y-29794895D01*
X30248571Y-29794895D02*
X30172380Y-29756800D01*
X30172380Y-29756800D02*
X30134285Y-29718704D01*
X52455714Y-20744895D02*
X52189047Y-20363942D01*
X51998571Y-20744895D02*
X51998571Y-19944895D01*
X51998571Y-19944895D02*
X52303333Y-19944895D01*
X52303333Y-19944895D02*
X52379523Y-19982990D01*
X52379523Y-19982990D02*
X52417618Y-20021085D01*
X52417618Y-20021085D02*
X52455714Y-20097276D01*
X52455714Y-20097276D02*
X52455714Y-20211561D01*
X52455714Y-20211561D02*
X52417618Y-20287752D01*
X52417618Y-20287752D02*
X52379523Y-20325847D01*
X52379523Y-20325847D02*
X52303333Y-20363942D01*
X52303333Y-20363942D02*
X51998571Y-20363942D01*
X52722380Y-19944895D02*
X53217618Y-19944895D01*
X53217618Y-19944895D02*
X52950952Y-20249657D01*
X52950952Y-20249657D02*
X53065237Y-20249657D01*
X53065237Y-20249657D02*
X53141428Y-20287752D01*
X53141428Y-20287752D02*
X53179523Y-20325847D01*
X53179523Y-20325847D02*
X53217618Y-20402038D01*
X53217618Y-20402038D02*
X53217618Y-20592514D01*
X53217618Y-20592514D02*
X53179523Y-20668704D01*
X53179523Y-20668704D02*
X53141428Y-20706800D01*
X53141428Y-20706800D02*
X53065237Y-20744895D01*
X53065237Y-20744895D02*
X52836666Y-20744895D01*
X52836666Y-20744895D02*
X52760475Y-20706800D01*
X52760475Y-20706800D02*
X52722380Y-20668704D01*
X53598571Y-20744895D02*
X53750952Y-20744895D01*
X53750952Y-20744895D02*
X53827142Y-20706800D01*
X53827142Y-20706800D02*
X53865238Y-20668704D01*
X53865238Y-20668704D02*
X53941428Y-20554419D01*
X53941428Y-20554419D02*
X53979523Y-20402038D01*
X53979523Y-20402038D02*
X53979523Y-20097276D01*
X53979523Y-20097276D02*
X53941428Y-20021085D01*
X53941428Y-20021085D02*
X53903333Y-19982990D01*
X53903333Y-19982990D02*
X53827142Y-19944895D01*
X53827142Y-19944895D02*
X53674761Y-19944895D01*
X53674761Y-19944895D02*
X53598571Y-19982990D01*
X53598571Y-19982990D02*
X53560476Y-20021085D01*
X53560476Y-20021085D02*
X53522380Y-20097276D01*
X53522380Y-20097276D02*
X53522380Y-20287752D01*
X53522380Y-20287752D02*
X53560476Y-20363942D01*
X53560476Y-20363942D02*
X53598571Y-20402038D01*
X53598571Y-20402038D02*
X53674761Y-20440133D01*
X53674761Y-20440133D02*
X53827142Y-20440133D01*
X53827142Y-20440133D02*
X53903333Y-20402038D01*
X53903333Y-20402038D02*
X53941428Y-20363942D01*
X53941428Y-20363942D02*
X53979523Y-20287752D01*
X37455714Y-37744895D02*
X37189047Y-37363942D01*
X36998571Y-37744895D02*
X36998571Y-36944895D01*
X36998571Y-36944895D02*
X37303333Y-36944895D01*
X37303333Y-36944895D02*
X37379523Y-36982990D01*
X37379523Y-36982990D02*
X37417618Y-37021085D01*
X37417618Y-37021085D02*
X37455714Y-37097276D01*
X37455714Y-37097276D02*
X37455714Y-37211561D01*
X37455714Y-37211561D02*
X37417618Y-37287752D01*
X37417618Y-37287752D02*
X37379523Y-37325847D01*
X37379523Y-37325847D02*
X37303333Y-37363942D01*
X37303333Y-37363942D02*
X36998571Y-37363942D01*
X37760475Y-37021085D02*
X37798571Y-36982990D01*
X37798571Y-36982990D02*
X37874761Y-36944895D01*
X37874761Y-36944895D02*
X38065237Y-36944895D01*
X38065237Y-36944895D02*
X38141428Y-36982990D01*
X38141428Y-36982990D02*
X38179523Y-37021085D01*
X38179523Y-37021085D02*
X38217618Y-37097276D01*
X38217618Y-37097276D02*
X38217618Y-37173466D01*
X38217618Y-37173466D02*
X38179523Y-37287752D01*
X38179523Y-37287752D02*
X37722380Y-37744895D01*
X37722380Y-37744895D02*
X38217618Y-37744895D01*
X38598571Y-37744895D02*
X38750952Y-37744895D01*
X38750952Y-37744895D02*
X38827142Y-37706800D01*
X38827142Y-37706800D02*
X38865238Y-37668704D01*
X38865238Y-37668704D02*
X38941428Y-37554419D01*
X38941428Y-37554419D02*
X38979523Y-37402038D01*
X38979523Y-37402038D02*
X38979523Y-37097276D01*
X38979523Y-37097276D02*
X38941428Y-37021085D01*
X38941428Y-37021085D02*
X38903333Y-36982990D01*
X38903333Y-36982990D02*
X38827142Y-36944895D01*
X38827142Y-36944895D02*
X38674761Y-36944895D01*
X38674761Y-36944895D02*
X38598571Y-36982990D01*
X38598571Y-36982990D02*
X38560476Y-37021085D01*
X38560476Y-37021085D02*
X38522380Y-37097276D01*
X38522380Y-37097276D02*
X38522380Y-37287752D01*
X38522380Y-37287752D02*
X38560476Y-37363942D01*
X38560476Y-37363942D02*
X38598571Y-37402038D01*
X38598571Y-37402038D02*
X38674761Y-37440133D01*
X38674761Y-37440133D02*
X38827142Y-37440133D01*
X38827142Y-37440133D02*
X38903333Y-37402038D01*
X38903333Y-37402038D02*
X38941428Y-37363942D01*
X38941428Y-37363942D02*
X38979523Y-37287752D01*
X10686667Y-59474895D02*
X10420000Y-59093942D01*
X10229524Y-59474895D02*
X10229524Y-58674895D01*
X10229524Y-58674895D02*
X10534286Y-58674895D01*
X10534286Y-58674895D02*
X10610476Y-58712990D01*
X10610476Y-58712990D02*
X10648571Y-58751085D01*
X10648571Y-58751085D02*
X10686667Y-58827276D01*
X10686667Y-58827276D02*
X10686667Y-58941561D01*
X10686667Y-58941561D02*
X10648571Y-59017752D01*
X10648571Y-59017752D02*
X10610476Y-59055847D01*
X10610476Y-59055847D02*
X10534286Y-59093942D01*
X10534286Y-59093942D02*
X10229524Y-59093942D01*
X11067619Y-59474895D02*
X11220000Y-59474895D01*
X11220000Y-59474895D02*
X11296190Y-59436800D01*
X11296190Y-59436800D02*
X11334286Y-59398704D01*
X11334286Y-59398704D02*
X11410476Y-59284419D01*
X11410476Y-59284419D02*
X11448571Y-59132038D01*
X11448571Y-59132038D02*
X11448571Y-58827276D01*
X11448571Y-58827276D02*
X11410476Y-58751085D01*
X11410476Y-58751085D02*
X11372381Y-58712990D01*
X11372381Y-58712990D02*
X11296190Y-58674895D01*
X11296190Y-58674895D02*
X11143809Y-58674895D01*
X11143809Y-58674895D02*
X11067619Y-58712990D01*
X11067619Y-58712990D02*
X11029524Y-58751085D01*
X11029524Y-58751085D02*
X10991428Y-58827276D01*
X10991428Y-58827276D02*
X10991428Y-59017752D01*
X10991428Y-59017752D02*
X11029524Y-59093942D01*
X11029524Y-59093942D02*
X11067619Y-59132038D01*
X11067619Y-59132038D02*
X11143809Y-59170133D01*
X11143809Y-59170133D02*
X11296190Y-59170133D01*
X11296190Y-59170133D02*
X11372381Y-59132038D01*
X11372381Y-59132038D02*
X11410476Y-59093942D01*
X11410476Y-59093942D02*
X11448571Y-59017752D01*
X15034895Y-36606785D02*
X14653942Y-36873452D01*
X15034895Y-37063928D02*
X14234895Y-37063928D01*
X14234895Y-37063928D02*
X14234895Y-36759166D01*
X14234895Y-36759166D02*
X14272990Y-36682976D01*
X14272990Y-36682976D02*
X14311085Y-36644881D01*
X14311085Y-36644881D02*
X14387276Y-36606785D01*
X14387276Y-36606785D02*
X14501561Y-36606785D01*
X14501561Y-36606785D02*
X14577752Y-36644881D01*
X14577752Y-36644881D02*
X14615847Y-36682976D01*
X14615847Y-36682976D02*
X14653942Y-36759166D01*
X14653942Y-36759166D02*
X14653942Y-37063928D01*
X15034895Y-35844881D02*
X15034895Y-36302024D01*
X15034895Y-36073452D02*
X14234895Y-36073452D01*
X14234895Y-36073452D02*
X14349180Y-36149643D01*
X14349180Y-36149643D02*
X14425371Y-36225833D01*
X14425371Y-36225833D02*
X14463466Y-36302024D01*
X14577752Y-35387738D02*
X14539657Y-35463928D01*
X14539657Y-35463928D02*
X14501561Y-35502023D01*
X14501561Y-35502023D02*
X14425371Y-35540119D01*
X14425371Y-35540119D02*
X14387276Y-35540119D01*
X14387276Y-35540119D02*
X14311085Y-35502023D01*
X14311085Y-35502023D02*
X14272990Y-35463928D01*
X14272990Y-35463928D02*
X14234895Y-35387738D01*
X14234895Y-35387738D02*
X14234895Y-35235357D01*
X14234895Y-35235357D02*
X14272990Y-35159166D01*
X14272990Y-35159166D02*
X14311085Y-35121071D01*
X14311085Y-35121071D02*
X14387276Y-35082976D01*
X14387276Y-35082976D02*
X14425371Y-35082976D01*
X14425371Y-35082976D02*
X14501561Y-35121071D01*
X14501561Y-35121071D02*
X14539657Y-35159166D01*
X14539657Y-35159166D02*
X14577752Y-35235357D01*
X14577752Y-35235357D02*
X14577752Y-35387738D01*
X14577752Y-35387738D02*
X14615847Y-35463928D01*
X14615847Y-35463928D02*
X14653942Y-35502023D01*
X14653942Y-35502023D02*
X14730133Y-35540119D01*
X14730133Y-35540119D02*
X14882514Y-35540119D01*
X14882514Y-35540119D02*
X14958704Y-35502023D01*
X14958704Y-35502023D02*
X14996800Y-35463928D01*
X14996800Y-35463928D02*
X15034895Y-35387738D01*
X15034895Y-35387738D02*
X15034895Y-35235357D01*
X15034895Y-35235357D02*
X14996800Y-35159166D01*
X14996800Y-35159166D02*
X14958704Y-35121071D01*
X14958704Y-35121071D02*
X14882514Y-35082976D01*
X14882514Y-35082976D02*
X14730133Y-35082976D01*
X14730133Y-35082976D02*
X14653942Y-35121071D01*
X14653942Y-35121071D02*
X14615847Y-35159166D01*
X14615847Y-35159166D02*
X14577752Y-35235357D01*
X48614895Y-22803332D02*
X48233942Y-23069999D01*
X48614895Y-23260475D02*
X47814895Y-23260475D01*
X47814895Y-23260475D02*
X47814895Y-22955713D01*
X47814895Y-22955713D02*
X47852990Y-22879523D01*
X47852990Y-22879523D02*
X47891085Y-22841428D01*
X47891085Y-22841428D02*
X47967276Y-22803332D01*
X47967276Y-22803332D02*
X48081561Y-22803332D01*
X48081561Y-22803332D02*
X48157752Y-22841428D01*
X48157752Y-22841428D02*
X48195847Y-22879523D01*
X48195847Y-22879523D02*
X48233942Y-22955713D01*
X48233942Y-22955713D02*
X48233942Y-23260475D01*
X48081561Y-22117618D02*
X48614895Y-22117618D01*
X47776800Y-22308094D02*
X48348228Y-22498571D01*
X48348228Y-22498571D02*
X48348228Y-22003332D01*
X50216667Y-49458704D02*
X50178571Y-49496800D01*
X50178571Y-49496800D02*
X50064286Y-49534895D01*
X50064286Y-49534895D02*
X49988095Y-49534895D01*
X49988095Y-49534895D02*
X49873809Y-49496800D01*
X49873809Y-49496800D02*
X49797619Y-49420609D01*
X49797619Y-49420609D02*
X49759524Y-49344419D01*
X49759524Y-49344419D02*
X49721428Y-49192038D01*
X49721428Y-49192038D02*
X49721428Y-49077752D01*
X49721428Y-49077752D02*
X49759524Y-48925371D01*
X49759524Y-48925371D02*
X49797619Y-48849180D01*
X49797619Y-48849180D02*
X49873809Y-48772990D01*
X49873809Y-48772990D02*
X49988095Y-48734895D01*
X49988095Y-48734895D02*
X50064286Y-48734895D01*
X50064286Y-48734895D02*
X50178571Y-48772990D01*
X50178571Y-48772990D02*
X50216667Y-48811085D01*
X50902381Y-48734895D02*
X50750000Y-48734895D01*
X50750000Y-48734895D02*
X50673809Y-48772990D01*
X50673809Y-48772990D02*
X50635714Y-48811085D01*
X50635714Y-48811085D02*
X50559524Y-48925371D01*
X50559524Y-48925371D02*
X50521428Y-49077752D01*
X50521428Y-49077752D02*
X50521428Y-49382514D01*
X50521428Y-49382514D02*
X50559524Y-49458704D01*
X50559524Y-49458704D02*
X50597619Y-49496800D01*
X50597619Y-49496800D02*
X50673809Y-49534895D01*
X50673809Y-49534895D02*
X50826190Y-49534895D01*
X50826190Y-49534895D02*
X50902381Y-49496800D01*
X50902381Y-49496800D02*
X50940476Y-49458704D01*
X50940476Y-49458704D02*
X50978571Y-49382514D01*
X50978571Y-49382514D02*
X50978571Y-49192038D01*
X50978571Y-49192038D02*
X50940476Y-49115847D01*
X50940476Y-49115847D02*
X50902381Y-49077752D01*
X50902381Y-49077752D02*
X50826190Y-49039657D01*
X50826190Y-49039657D02*
X50673809Y-49039657D01*
X50673809Y-49039657D02*
X50597619Y-49077752D01*
X50597619Y-49077752D02*
X50559524Y-49115847D01*
X50559524Y-49115847D02*
X50521428Y-49192038D01*
X27539524Y-26734895D02*
X27539524Y-25934895D01*
X27539524Y-25934895D02*
X27730000Y-25934895D01*
X27730000Y-25934895D02*
X27844286Y-25972990D01*
X27844286Y-25972990D02*
X27920476Y-26049180D01*
X27920476Y-26049180D02*
X27958571Y-26125371D01*
X27958571Y-26125371D02*
X27996667Y-26277752D01*
X27996667Y-26277752D02*
X27996667Y-26392038D01*
X27996667Y-26392038D02*
X27958571Y-26544419D01*
X27958571Y-26544419D02*
X27920476Y-26620609D01*
X27920476Y-26620609D02*
X27844286Y-26696800D01*
X27844286Y-26696800D02*
X27730000Y-26734895D01*
X27730000Y-26734895D02*
X27539524Y-26734895D01*
X28263333Y-25934895D02*
X28758571Y-25934895D01*
X28758571Y-25934895D02*
X28491905Y-26239657D01*
X28491905Y-26239657D02*
X28606190Y-26239657D01*
X28606190Y-26239657D02*
X28682381Y-26277752D01*
X28682381Y-26277752D02*
X28720476Y-26315847D01*
X28720476Y-26315847D02*
X28758571Y-26392038D01*
X28758571Y-26392038D02*
X28758571Y-26582514D01*
X28758571Y-26582514D02*
X28720476Y-26658704D01*
X28720476Y-26658704D02*
X28682381Y-26696800D01*
X28682381Y-26696800D02*
X28606190Y-26734895D01*
X28606190Y-26734895D02*
X28377619Y-26734895D01*
X28377619Y-26734895D02*
X28301428Y-26696800D01*
X28301428Y-26696800D02*
X28263333Y-26658704D01*
X9758704Y-46894285D02*
X9796800Y-46932381D01*
X9796800Y-46932381D02*
X9834895Y-47046666D01*
X9834895Y-47046666D02*
X9834895Y-47122857D01*
X9834895Y-47122857D02*
X9796800Y-47237143D01*
X9796800Y-47237143D02*
X9720609Y-47313333D01*
X9720609Y-47313333D02*
X9644419Y-47351428D01*
X9644419Y-47351428D02*
X9492038Y-47389524D01*
X9492038Y-47389524D02*
X9377752Y-47389524D01*
X9377752Y-47389524D02*
X9225371Y-47351428D01*
X9225371Y-47351428D02*
X9149180Y-47313333D01*
X9149180Y-47313333D02*
X9072990Y-47237143D01*
X9072990Y-47237143D02*
X9034895Y-47122857D01*
X9034895Y-47122857D02*
X9034895Y-47046666D01*
X9034895Y-47046666D02*
X9072990Y-46932381D01*
X9072990Y-46932381D02*
X9111085Y-46894285D01*
X9034895Y-46627619D02*
X9034895Y-46132381D01*
X9034895Y-46132381D02*
X9339657Y-46399047D01*
X9339657Y-46399047D02*
X9339657Y-46284762D01*
X9339657Y-46284762D02*
X9377752Y-46208571D01*
X9377752Y-46208571D02*
X9415847Y-46170476D01*
X9415847Y-46170476D02*
X9492038Y-46132381D01*
X9492038Y-46132381D02*
X9682514Y-46132381D01*
X9682514Y-46132381D02*
X9758704Y-46170476D01*
X9758704Y-46170476D02*
X9796800Y-46208571D01*
X9796800Y-46208571D02*
X9834895Y-46284762D01*
X9834895Y-46284762D02*
X9834895Y-46513333D01*
X9834895Y-46513333D02*
X9796800Y-46589524D01*
X9796800Y-46589524D02*
X9758704Y-46627619D01*
X9034895Y-45637142D02*
X9034895Y-45560952D01*
X9034895Y-45560952D02*
X9072990Y-45484761D01*
X9072990Y-45484761D02*
X9111085Y-45446666D01*
X9111085Y-45446666D02*
X9187276Y-45408571D01*
X9187276Y-45408571D02*
X9339657Y-45370476D01*
X9339657Y-45370476D02*
X9530133Y-45370476D01*
X9530133Y-45370476D02*
X9682514Y-45408571D01*
X9682514Y-45408571D02*
X9758704Y-45446666D01*
X9758704Y-45446666D02*
X9796800Y-45484761D01*
X9796800Y-45484761D02*
X9834895Y-45560952D01*
X9834895Y-45560952D02*
X9834895Y-45637142D01*
X9834895Y-45637142D02*
X9796800Y-45713333D01*
X9796800Y-45713333D02*
X9758704Y-45751428D01*
X9758704Y-45751428D02*
X9682514Y-45789523D01*
X9682514Y-45789523D02*
X9530133Y-45827619D01*
X9530133Y-45827619D02*
X9339657Y-45827619D01*
X9339657Y-45827619D02*
X9187276Y-45789523D01*
X9187276Y-45789523D02*
X9111085Y-45751428D01*
X9111085Y-45751428D02*
X9072990Y-45713333D01*
X9072990Y-45713333D02*
X9034895Y-45637142D01*
X47405714Y-20744895D02*
X47139047Y-20363942D01*
X46948571Y-20744895D02*
X46948571Y-19944895D01*
X46948571Y-19944895D02*
X47253333Y-19944895D01*
X47253333Y-19944895D02*
X47329523Y-19982990D01*
X47329523Y-19982990D02*
X47367618Y-20021085D01*
X47367618Y-20021085D02*
X47405714Y-20097276D01*
X47405714Y-20097276D02*
X47405714Y-20211561D01*
X47405714Y-20211561D02*
X47367618Y-20287752D01*
X47367618Y-20287752D02*
X47329523Y-20325847D01*
X47329523Y-20325847D02*
X47253333Y-20363942D01*
X47253333Y-20363942D02*
X46948571Y-20363942D01*
X48167618Y-20744895D02*
X47710475Y-20744895D01*
X47939047Y-20744895D02*
X47939047Y-19944895D01*
X47939047Y-19944895D02*
X47862856Y-20059180D01*
X47862856Y-20059180D02*
X47786666Y-20135371D01*
X47786666Y-20135371D02*
X47710475Y-20173466D01*
X48434285Y-19944895D02*
X48967619Y-19944895D01*
X48967619Y-19944895D02*
X48624761Y-20744895D01*
X14984895Y-43481785D02*
X14603942Y-43748452D01*
X14984895Y-43938928D02*
X14184895Y-43938928D01*
X14184895Y-43938928D02*
X14184895Y-43634166D01*
X14184895Y-43634166D02*
X14222990Y-43557976D01*
X14222990Y-43557976D02*
X14261085Y-43519881D01*
X14261085Y-43519881D02*
X14337276Y-43481785D01*
X14337276Y-43481785D02*
X14451561Y-43481785D01*
X14451561Y-43481785D02*
X14527752Y-43519881D01*
X14527752Y-43519881D02*
X14565847Y-43557976D01*
X14565847Y-43557976D02*
X14603942Y-43634166D01*
X14603942Y-43634166D02*
X14603942Y-43938928D01*
X14261085Y-43177024D02*
X14222990Y-43138928D01*
X14222990Y-43138928D02*
X14184895Y-43062738D01*
X14184895Y-43062738D02*
X14184895Y-42872262D01*
X14184895Y-42872262D02*
X14222990Y-42796071D01*
X14222990Y-42796071D02*
X14261085Y-42757976D01*
X14261085Y-42757976D02*
X14337276Y-42719881D01*
X14337276Y-42719881D02*
X14413466Y-42719881D01*
X14413466Y-42719881D02*
X14527752Y-42757976D01*
X14527752Y-42757976D02*
X14984895Y-43215119D01*
X14984895Y-43215119D02*
X14984895Y-42719881D01*
X14261085Y-42415119D02*
X14222990Y-42377023D01*
X14222990Y-42377023D02*
X14184895Y-42300833D01*
X14184895Y-42300833D02*
X14184895Y-42110357D01*
X14184895Y-42110357D02*
X14222990Y-42034166D01*
X14222990Y-42034166D02*
X14261085Y-41996071D01*
X14261085Y-41996071D02*
X14337276Y-41957976D01*
X14337276Y-41957976D02*
X14413466Y-41957976D01*
X14413466Y-41957976D02*
X14527752Y-41996071D01*
X14527752Y-41996071D02*
X14984895Y-42453214D01*
X14984895Y-42453214D02*
X14984895Y-41957976D01*
X27405714Y-55468704D02*
X27367618Y-55506800D01*
X27367618Y-55506800D02*
X27253333Y-55544895D01*
X27253333Y-55544895D02*
X27177142Y-55544895D01*
X27177142Y-55544895D02*
X27062856Y-55506800D01*
X27062856Y-55506800D02*
X26986666Y-55430609D01*
X26986666Y-55430609D02*
X26948571Y-55354419D01*
X26948571Y-55354419D02*
X26910475Y-55202038D01*
X26910475Y-55202038D02*
X26910475Y-55087752D01*
X26910475Y-55087752D02*
X26948571Y-54935371D01*
X26948571Y-54935371D02*
X26986666Y-54859180D01*
X26986666Y-54859180D02*
X27062856Y-54782990D01*
X27062856Y-54782990D02*
X27177142Y-54744895D01*
X27177142Y-54744895D02*
X27253333Y-54744895D01*
X27253333Y-54744895D02*
X27367618Y-54782990D01*
X27367618Y-54782990D02*
X27405714Y-54821085D01*
X27710475Y-54821085D02*
X27748571Y-54782990D01*
X27748571Y-54782990D02*
X27824761Y-54744895D01*
X27824761Y-54744895D02*
X28015237Y-54744895D01*
X28015237Y-54744895D02*
X28091428Y-54782990D01*
X28091428Y-54782990D02*
X28129523Y-54821085D01*
X28129523Y-54821085D02*
X28167618Y-54897276D01*
X28167618Y-54897276D02*
X28167618Y-54973466D01*
X28167618Y-54973466D02*
X28129523Y-55087752D01*
X28129523Y-55087752D02*
X27672380Y-55544895D01*
X27672380Y-55544895D02*
X28167618Y-55544895D01*
X28434285Y-54744895D02*
X28929523Y-54744895D01*
X28929523Y-54744895D02*
X28662857Y-55049657D01*
X28662857Y-55049657D02*
X28777142Y-55049657D01*
X28777142Y-55049657D02*
X28853333Y-55087752D01*
X28853333Y-55087752D02*
X28891428Y-55125847D01*
X28891428Y-55125847D02*
X28929523Y-55202038D01*
X28929523Y-55202038D02*
X28929523Y-55392514D01*
X28929523Y-55392514D02*
X28891428Y-55468704D01*
X28891428Y-55468704D02*
X28853333Y-55506800D01*
X28853333Y-55506800D02*
X28777142Y-55544895D01*
X28777142Y-55544895D02*
X28548571Y-55544895D01*
X28548571Y-55544895D02*
X28472380Y-55506800D01*
X28472380Y-55506800D02*
X28434285Y-55468704D01*
X17845714Y-29084895D02*
X17579047Y-28703942D01*
X17388571Y-29084895D02*
X17388571Y-28284895D01*
X17388571Y-28284895D02*
X17693333Y-28284895D01*
X17693333Y-28284895D02*
X17769523Y-28322990D01*
X17769523Y-28322990D02*
X17807618Y-28361085D01*
X17807618Y-28361085D02*
X17845714Y-28437276D01*
X17845714Y-28437276D02*
X17845714Y-28551561D01*
X17845714Y-28551561D02*
X17807618Y-28627752D01*
X17807618Y-28627752D02*
X17769523Y-28665847D01*
X17769523Y-28665847D02*
X17693333Y-28703942D01*
X17693333Y-28703942D02*
X17388571Y-28703942D01*
X18607618Y-29084895D02*
X18150475Y-29084895D01*
X18379047Y-29084895D02*
X18379047Y-28284895D01*
X18379047Y-28284895D02*
X18302856Y-28399180D01*
X18302856Y-28399180D02*
X18226666Y-28475371D01*
X18226666Y-28475371D02*
X18150475Y-28513466D01*
X19293333Y-28551561D02*
X19293333Y-29084895D01*
X19102857Y-28246800D02*
X18912380Y-28818228D01*
X18912380Y-28818228D02*
X19407619Y-28818228D01*
X14908704Y-29694285D02*
X14946800Y-29732381D01*
X14946800Y-29732381D02*
X14984895Y-29846666D01*
X14984895Y-29846666D02*
X14984895Y-29922857D01*
X14984895Y-29922857D02*
X14946800Y-30037143D01*
X14946800Y-30037143D02*
X14870609Y-30113333D01*
X14870609Y-30113333D02*
X14794419Y-30151428D01*
X14794419Y-30151428D02*
X14642038Y-30189524D01*
X14642038Y-30189524D02*
X14527752Y-30189524D01*
X14527752Y-30189524D02*
X14375371Y-30151428D01*
X14375371Y-30151428D02*
X14299180Y-30113333D01*
X14299180Y-30113333D02*
X14222990Y-30037143D01*
X14222990Y-30037143D02*
X14184895Y-29922857D01*
X14184895Y-29922857D02*
X14184895Y-29846666D01*
X14184895Y-29846666D02*
X14222990Y-29732381D01*
X14222990Y-29732381D02*
X14261085Y-29694285D01*
X14261085Y-29389524D02*
X14222990Y-29351428D01*
X14222990Y-29351428D02*
X14184895Y-29275238D01*
X14184895Y-29275238D02*
X14184895Y-29084762D01*
X14184895Y-29084762D02*
X14222990Y-29008571D01*
X14222990Y-29008571D02*
X14261085Y-28970476D01*
X14261085Y-28970476D02*
X14337276Y-28932381D01*
X14337276Y-28932381D02*
X14413466Y-28932381D01*
X14413466Y-28932381D02*
X14527752Y-28970476D01*
X14527752Y-28970476D02*
X14984895Y-29427619D01*
X14984895Y-29427619D02*
X14984895Y-28932381D01*
X14184895Y-28208571D02*
X14184895Y-28589523D01*
X14184895Y-28589523D02*
X14565847Y-28627619D01*
X14565847Y-28627619D02*
X14527752Y-28589523D01*
X14527752Y-28589523D02*
X14489657Y-28513333D01*
X14489657Y-28513333D02*
X14489657Y-28322857D01*
X14489657Y-28322857D02*
X14527752Y-28246666D01*
X14527752Y-28246666D02*
X14565847Y-28208571D01*
X14565847Y-28208571D02*
X14642038Y-28170476D01*
X14642038Y-28170476D02*
X14832514Y-28170476D01*
X14832514Y-28170476D02*
X14908704Y-28208571D01*
X14908704Y-28208571D02*
X14946800Y-28246666D01*
X14946800Y-28246666D02*
X14984895Y-28322857D01*
X14984895Y-28322857D02*
X14984895Y-28513333D01*
X14984895Y-28513333D02*
X14946800Y-28589523D01*
X14946800Y-28589523D02*
X14908704Y-28627619D01*
X27549524Y-28034895D02*
X27549524Y-27234895D01*
X27549524Y-27234895D02*
X27740000Y-27234895D01*
X27740000Y-27234895D02*
X27854286Y-27272990D01*
X27854286Y-27272990D02*
X27930476Y-27349180D01*
X27930476Y-27349180D02*
X27968571Y-27425371D01*
X27968571Y-27425371D02*
X28006667Y-27577752D01*
X28006667Y-27577752D02*
X28006667Y-27692038D01*
X28006667Y-27692038D02*
X27968571Y-27844419D01*
X27968571Y-27844419D02*
X27930476Y-27920609D01*
X27930476Y-27920609D02*
X27854286Y-27996800D01*
X27854286Y-27996800D02*
X27740000Y-28034895D01*
X27740000Y-28034895D02*
X27549524Y-28034895D01*
X28730476Y-27234895D02*
X28349524Y-27234895D01*
X28349524Y-27234895D02*
X28311428Y-27615847D01*
X28311428Y-27615847D02*
X28349524Y-27577752D01*
X28349524Y-27577752D02*
X28425714Y-27539657D01*
X28425714Y-27539657D02*
X28616190Y-27539657D01*
X28616190Y-27539657D02*
X28692381Y-27577752D01*
X28692381Y-27577752D02*
X28730476Y-27615847D01*
X28730476Y-27615847D02*
X28768571Y-27692038D01*
X28768571Y-27692038D02*
X28768571Y-27882514D01*
X28768571Y-27882514D02*
X28730476Y-27958704D01*
X28730476Y-27958704D02*
X28692381Y-27996800D01*
X28692381Y-27996800D02*
X28616190Y-28034895D01*
X28616190Y-28034895D02*
X28425714Y-28034895D01*
X28425714Y-28034895D02*
X28349524Y-27996800D01*
X28349524Y-27996800D02*
X28311428Y-27958704D01*
X59641085Y-53376190D02*
X59602990Y-53452380D01*
X59602990Y-53452380D02*
X59526800Y-53528571D01*
X59526800Y-53528571D02*
X59412514Y-53642857D01*
X59412514Y-53642857D02*
X59374419Y-53719047D01*
X59374419Y-53719047D02*
X59374419Y-53795238D01*
X59564895Y-53757142D02*
X59526800Y-53833333D01*
X59526800Y-53833333D02*
X59450609Y-53909523D01*
X59450609Y-53909523D02*
X59298228Y-53947619D01*
X59298228Y-53947619D02*
X59031561Y-53947619D01*
X59031561Y-53947619D02*
X58879180Y-53909523D01*
X58879180Y-53909523D02*
X58802990Y-53833333D01*
X58802990Y-53833333D02*
X58764895Y-53757142D01*
X58764895Y-53757142D02*
X58764895Y-53604761D01*
X58764895Y-53604761D02*
X58802990Y-53528571D01*
X58802990Y-53528571D02*
X58879180Y-53452380D01*
X58879180Y-53452380D02*
X59031561Y-53414285D01*
X59031561Y-53414285D02*
X59298228Y-53414285D01*
X59298228Y-53414285D02*
X59450609Y-53452380D01*
X59450609Y-53452380D02*
X59526800Y-53528571D01*
X59526800Y-53528571D02*
X59564895Y-53604761D01*
X59564895Y-53604761D02*
X59564895Y-53757142D01*
X58764895Y-52690476D02*
X58764895Y-53071428D01*
X58764895Y-53071428D02*
X59145847Y-53109524D01*
X59145847Y-53109524D02*
X59107752Y-53071428D01*
X59107752Y-53071428D02*
X59069657Y-52995238D01*
X59069657Y-52995238D02*
X59069657Y-52804762D01*
X59069657Y-52804762D02*
X59107752Y-52728571D01*
X59107752Y-52728571D02*
X59145847Y-52690476D01*
X59145847Y-52690476D02*
X59222038Y-52652381D01*
X59222038Y-52652381D02*
X59412514Y-52652381D01*
X59412514Y-52652381D02*
X59488704Y-52690476D01*
X59488704Y-52690476D02*
X59526800Y-52728571D01*
X59526800Y-52728571D02*
X59564895Y-52804762D01*
X59564895Y-52804762D02*
X59564895Y-52995238D01*
X59564895Y-52995238D02*
X59526800Y-53071428D01*
X59526800Y-53071428D02*
X59488704Y-53109524D01*
X36905714Y-45868704D02*
X36867618Y-45906800D01*
X36867618Y-45906800D02*
X36753333Y-45944895D01*
X36753333Y-45944895D02*
X36677142Y-45944895D01*
X36677142Y-45944895D02*
X36562856Y-45906800D01*
X36562856Y-45906800D02*
X36486666Y-45830609D01*
X36486666Y-45830609D02*
X36448571Y-45754419D01*
X36448571Y-45754419D02*
X36410475Y-45602038D01*
X36410475Y-45602038D02*
X36410475Y-45487752D01*
X36410475Y-45487752D02*
X36448571Y-45335371D01*
X36448571Y-45335371D02*
X36486666Y-45259180D01*
X36486666Y-45259180D02*
X36562856Y-45182990D01*
X36562856Y-45182990D02*
X36677142Y-45144895D01*
X36677142Y-45144895D02*
X36753333Y-45144895D01*
X36753333Y-45144895D02*
X36867618Y-45182990D01*
X36867618Y-45182990D02*
X36905714Y-45221085D01*
X37667618Y-45944895D02*
X37210475Y-45944895D01*
X37439047Y-45944895D02*
X37439047Y-45144895D01*
X37439047Y-45144895D02*
X37362856Y-45259180D01*
X37362856Y-45259180D02*
X37286666Y-45335371D01*
X37286666Y-45335371D02*
X37210475Y-45373466D01*
X38391428Y-45144895D02*
X38010476Y-45144895D01*
X38010476Y-45144895D02*
X37972380Y-45525847D01*
X37972380Y-45525847D02*
X38010476Y-45487752D01*
X38010476Y-45487752D02*
X38086666Y-45449657D01*
X38086666Y-45449657D02*
X38277142Y-45449657D01*
X38277142Y-45449657D02*
X38353333Y-45487752D01*
X38353333Y-45487752D02*
X38391428Y-45525847D01*
X38391428Y-45525847D02*
X38429523Y-45602038D01*
X38429523Y-45602038D02*
X38429523Y-45792514D01*
X38429523Y-45792514D02*
X38391428Y-45868704D01*
X38391428Y-45868704D02*
X38353333Y-45906800D01*
X38353333Y-45906800D02*
X38277142Y-45944895D01*
X38277142Y-45944895D02*
X38086666Y-45944895D01*
X38086666Y-45944895D02*
X38010476Y-45906800D01*
X38010476Y-45906800D02*
X37972380Y-45868704D01*
X53246800Y-31946667D02*
X53284895Y-31832381D01*
X53284895Y-31832381D02*
X53284895Y-31641905D01*
X53284895Y-31641905D02*
X53246800Y-31565714D01*
X53246800Y-31565714D02*
X53208704Y-31527619D01*
X53208704Y-31527619D02*
X53132514Y-31489524D01*
X53132514Y-31489524D02*
X53056323Y-31489524D01*
X53056323Y-31489524D02*
X52980133Y-31527619D01*
X52980133Y-31527619D02*
X52942038Y-31565714D01*
X52942038Y-31565714D02*
X52903942Y-31641905D01*
X52903942Y-31641905D02*
X52865847Y-31794286D01*
X52865847Y-31794286D02*
X52827752Y-31870476D01*
X52827752Y-31870476D02*
X52789657Y-31908571D01*
X52789657Y-31908571D02*
X52713466Y-31946667D01*
X52713466Y-31946667D02*
X52637276Y-31946667D01*
X52637276Y-31946667D02*
X52561085Y-31908571D01*
X52561085Y-31908571D02*
X52522990Y-31870476D01*
X52522990Y-31870476D02*
X52484895Y-31794286D01*
X52484895Y-31794286D02*
X52484895Y-31603809D01*
X52484895Y-31603809D02*
X52522990Y-31489524D01*
X52484895Y-31222857D02*
X53284895Y-31032381D01*
X53284895Y-31032381D02*
X52713466Y-30880000D01*
X52713466Y-30880000D02*
X53284895Y-30727619D01*
X53284895Y-30727619D02*
X52484895Y-30537143D01*
X53284895Y-29813333D02*
X53284895Y-30270476D01*
X53284895Y-30041904D02*
X52484895Y-30041904D01*
X52484895Y-30041904D02*
X52599180Y-30118095D01*
X52599180Y-30118095D02*
X52675371Y-30194285D01*
X52675371Y-30194285D02*
X52713466Y-30270476D01*
X46364895Y-37413332D02*
X45983942Y-37679999D01*
X46364895Y-37870475D02*
X45564895Y-37870475D01*
X45564895Y-37870475D02*
X45564895Y-37565713D01*
X45564895Y-37565713D02*
X45602990Y-37489523D01*
X45602990Y-37489523D02*
X45641085Y-37451428D01*
X45641085Y-37451428D02*
X45717276Y-37413332D01*
X45717276Y-37413332D02*
X45831561Y-37413332D01*
X45831561Y-37413332D02*
X45907752Y-37451428D01*
X45907752Y-37451428D02*
X45945847Y-37489523D01*
X45945847Y-37489523D02*
X45983942Y-37565713D01*
X45983942Y-37565713D02*
X45983942Y-37870475D01*
X45564895Y-36689523D02*
X45564895Y-37070475D01*
X45564895Y-37070475D02*
X45945847Y-37108571D01*
X45945847Y-37108571D02*
X45907752Y-37070475D01*
X45907752Y-37070475D02*
X45869657Y-36994285D01*
X45869657Y-36994285D02*
X45869657Y-36803809D01*
X45869657Y-36803809D02*
X45907752Y-36727618D01*
X45907752Y-36727618D02*
X45945847Y-36689523D01*
X45945847Y-36689523D02*
X46022038Y-36651428D01*
X46022038Y-36651428D02*
X46212514Y-36651428D01*
X46212514Y-36651428D02*
X46288704Y-36689523D01*
X46288704Y-36689523D02*
X46326800Y-36727618D01*
X46326800Y-36727618D02*
X46364895Y-36803809D01*
X46364895Y-36803809D02*
X46364895Y-36994285D01*
X46364895Y-36994285D02*
X46326800Y-37070475D01*
X46326800Y-37070475D02*
X46288704Y-37108571D01*
X22905714Y-52768704D02*
X22867618Y-52806800D01*
X22867618Y-52806800D02*
X22753333Y-52844895D01*
X22753333Y-52844895D02*
X22677142Y-52844895D01*
X22677142Y-52844895D02*
X22562856Y-52806800D01*
X22562856Y-52806800D02*
X22486666Y-52730609D01*
X22486666Y-52730609D02*
X22448571Y-52654419D01*
X22448571Y-52654419D02*
X22410475Y-52502038D01*
X22410475Y-52502038D02*
X22410475Y-52387752D01*
X22410475Y-52387752D02*
X22448571Y-52235371D01*
X22448571Y-52235371D02*
X22486666Y-52159180D01*
X22486666Y-52159180D02*
X22562856Y-52082990D01*
X22562856Y-52082990D02*
X22677142Y-52044895D01*
X22677142Y-52044895D02*
X22753333Y-52044895D01*
X22753333Y-52044895D02*
X22867618Y-52082990D01*
X22867618Y-52082990D02*
X22905714Y-52121085D01*
X23172380Y-52044895D02*
X23667618Y-52044895D01*
X23667618Y-52044895D02*
X23400952Y-52349657D01*
X23400952Y-52349657D02*
X23515237Y-52349657D01*
X23515237Y-52349657D02*
X23591428Y-52387752D01*
X23591428Y-52387752D02*
X23629523Y-52425847D01*
X23629523Y-52425847D02*
X23667618Y-52502038D01*
X23667618Y-52502038D02*
X23667618Y-52692514D01*
X23667618Y-52692514D02*
X23629523Y-52768704D01*
X23629523Y-52768704D02*
X23591428Y-52806800D01*
X23591428Y-52806800D02*
X23515237Y-52844895D01*
X23515237Y-52844895D02*
X23286666Y-52844895D01*
X23286666Y-52844895D02*
X23210475Y-52806800D01*
X23210475Y-52806800D02*
X23172380Y-52768704D01*
X23972380Y-52121085D02*
X24010476Y-52082990D01*
X24010476Y-52082990D02*
X24086666Y-52044895D01*
X24086666Y-52044895D02*
X24277142Y-52044895D01*
X24277142Y-52044895D02*
X24353333Y-52082990D01*
X24353333Y-52082990D02*
X24391428Y-52121085D01*
X24391428Y-52121085D02*
X24429523Y-52197276D01*
X24429523Y-52197276D02*
X24429523Y-52273466D01*
X24429523Y-52273466D02*
X24391428Y-52387752D01*
X24391428Y-52387752D02*
X23934285Y-52844895D01*
X23934285Y-52844895D02*
X24429523Y-52844895D01*
X47417699Y-50013739D02*
X47498511Y-49555803D01*
X47094450Y-49690490D02*
X47660136Y-49124805D01*
X47660136Y-49124805D02*
X47875635Y-49340304D01*
X47875635Y-49340304D02*
X47902572Y-49421116D01*
X47902572Y-49421116D02*
X47902572Y-49474991D01*
X47902572Y-49474991D02*
X47875635Y-49555803D01*
X47875635Y-49555803D02*
X47794823Y-49636615D01*
X47794823Y-49636615D02*
X47714010Y-49663553D01*
X47714010Y-49663553D02*
X47660136Y-49663553D01*
X47660136Y-49663553D02*
X47579323Y-49636615D01*
X47579323Y-49636615D02*
X47363824Y-49421116D01*
X48171946Y-49636615D02*
X48549070Y-50013739D01*
X48549070Y-50013739D02*
X47740948Y-50336988D01*
X53944895Y-50124285D02*
X53563942Y-50390952D01*
X53944895Y-50581428D02*
X53144895Y-50581428D01*
X53144895Y-50581428D02*
X53144895Y-50276666D01*
X53144895Y-50276666D02*
X53182990Y-50200476D01*
X53182990Y-50200476D02*
X53221085Y-50162381D01*
X53221085Y-50162381D02*
X53297276Y-50124285D01*
X53297276Y-50124285D02*
X53411561Y-50124285D01*
X53411561Y-50124285D02*
X53487752Y-50162381D01*
X53487752Y-50162381D02*
X53525847Y-50200476D01*
X53525847Y-50200476D02*
X53563942Y-50276666D01*
X53563942Y-50276666D02*
X53563942Y-50581428D01*
X53144895Y-49857619D02*
X53144895Y-49362381D01*
X53144895Y-49362381D02*
X53449657Y-49629047D01*
X53449657Y-49629047D02*
X53449657Y-49514762D01*
X53449657Y-49514762D02*
X53487752Y-49438571D01*
X53487752Y-49438571D02*
X53525847Y-49400476D01*
X53525847Y-49400476D02*
X53602038Y-49362381D01*
X53602038Y-49362381D02*
X53792514Y-49362381D01*
X53792514Y-49362381D02*
X53868704Y-49400476D01*
X53868704Y-49400476D02*
X53906800Y-49438571D01*
X53906800Y-49438571D02*
X53944895Y-49514762D01*
X53944895Y-49514762D02*
X53944895Y-49743333D01*
X53944895Y-49743333D02*
X53906800Y-49819524D01*
X53906800Y-49819524D02*
X53868704Y-49857619D01*
X53144895Y-49095714D02*
X53144895Y-48600476D01*
X53144895Y-48600476D02*
X53449657Y-48867142D01*
X53449657Y-48867142D02*
X53449657Y-48752857D01*
X53449657Y-48752857D02*
X53487752Y-48676666D01*
X53487752Y-48676666D02*
X53525847Y-48638571D01*
X53525847Y-48638571D02*
X53602038Y-48600476D01*
X53602038Y-48600476D02*
X53792514Y-48600476D01*
X53792514Y-48600476D02*
X53868704Y-48638571D01*
X53868704Y-48638571D02*
X53906800Y-48676666D01*
X53906800Y-48676666D02*
X53944895Y-48752857D01*
X53944895Y-48752857D02*
X53944895Y-48981428D01*
X53944895Y-48981428D02*
X53906800Y-49057619D01*
X53906800Y-49057619D02*
X53868704Y-49095714D01*
X67894895Y-32174285D02*
X67513942Y-32440952D01*
X67894895Y-32631428D02*
X67094895Y-32631428D01*
X67094895Y-32631428D02*
X67094895Y-32326666D01*
X67094895Y-32326666D02*
X67132990Y-32250476D01*
X67132990Y-32250476D02*
X67171085Y-32212381D01*
X67171085Y-32212381D02*
X67247276Y-32174285D01*
X67247276Y-32174285D02*
X67361561Y-32174285D01*
X67361561Y-32174285D02*
X67437752Y-32212381D01*
X67437752Y-32212381D02*
X67475847Y-32250476D01*
X67475847Y-32250476D02*
X67513942Y-32326666D01*
X67513942Y-32326666D02*
X67513942Y-32631428D01*
X67894895Y-31412381D02*
X67894895Y-31869524D01*
X67894895Y-31640952D02*
X67094895Y-31640952D01*
X67094895Y-31640952D02*
X67209180Y-31717143D01*
X67209180Y-31717143D02*
X67285371Y-31793333D01*
X67285371Y-31793333D02*
X67323466Y-31869524D01*
X67894895Y-30650476D02*
X67894895Y-31107619D01*
X67894895Y-30879047D02*
X67094895Y-30879047D01*
X67094895Y-30879047D02*
X67209180Y-30955238D01*
X67209180Y-30955238D02*
X67285371Y-31031428D01*
X67285371Y-31031428D02*
X67323466Y-31107619D01*
X49236667Y-35464895D02*
X48970000Y-35083942D01*
X48779524Y-35464895D02*
X48779524Y-34664895D01*
X48779524Y-34664895D02*
X49084286Y-34664895D01*
X49084286Y-34664895D02*
X49160476Y-34702990D01*
X49160476Y-34702990D02*
X49198571Y-34741085D01*
X49198571Y-34741085D02*
X49236667Y-34817276D01*
X49236667Y-34817276D02*
X49236667Y-34931561D01*
X49236667Y-34931561D02*
X49198571Y-35007752D01*
X49198571Y-35007752D02*
X49160476Y-35045847D01*
X49160476Y-35045847D02*
X49084286Y-35083942D01*
X49084286Y-35083942D02*
X48779524Y-35083942D01*
X49922381Y-34664895D02*
X49770000Y-34664895D01*
X49770000Y-34664895D02*
X49693809Y-34702990D01*
X49693809Y-34702990D02*
X49655714Y-34741085D01*
X49655714Y-34741085D02*
X49579524Y-34855371D01*
X49579524Y-34855371D02*
X49541428Y-35007752D01*
X49541428Y-35007752D02*
X49541428Y-35312514D01*
X49541428Y-35312514D02*
X49579524Y-35388704D01*
X49579524Y-35388704D02*
X49617619Y-35426800D01*
X49617619Y-35426800D02*
X49693809Y-35464895D01*
X49693809Y-35464895D02*
X49846190Y-35464895D01*
X49846190Y-35464895D02*
X49922381Y-35426800D01*
X49922381Y-35426800D02*
X49960476Y-35388704D01*
X49960476Y-35388704D02*
X49998571Y-35312514D01*
X49998571Y-35312514D02*
X49998571Y-35122038D01*
X49998571Y-35122038D02*
X49960476Y-35045847D01*
X49960476Y-35045847D02*
X49922381Y-35007752D01*
X49922381Y-35007752D02*
X49846190Y-34969657D01*
X49846190Y-34969657D02*
X49693809Y-34969657D01*
X49693809Y-34969657D02*
X49617619Y-35007752D01*
X49617619Y-35007752D02*
X49579524Y-35045847D01*
X49579524Y-35045847D02*
X49541428Y-35122038D01*
X56805714Y-44568704D02*
X56767618Y-44606800D01*
X56767618Y-44606800D02*
X56653333Y-44644895D01*
X56653333Y-44644895D02*
X56577142Y-44644895D01*
X56577142Y-44644895D02*
X56462856Y-44606800D01*
X56462856Y-44606800D02*
X56386666Y-44530609D01*
X56386666Y-44530609D02*
X56348571Y-44454419D01*
X56348571Y-44454419D02*
X56310475Y-44302038D01*
X56310475Y-44302038D02*
X56310475Y-44187752D01*
X56310475Y-44187752D02*
X56348571Y-44035371D01*
X56348571Y-44035371D02*
X56386666Y-43959180D01*
X56386666Y-43959180D02*
X56462856Y-43882990D01*
X56462856Y-43882990D02*
X56577142Y-43844895D01*
X56577142Y-43844895D02*
X56653333Y-43844895D01*
X56653333Y-43844895D02*
X56767618Y-43882990D01*
X56767618Y-43882990D02*
X56805714Y-43921085D01*
X57110475Y-43921085D02*
X57148571Y-43882990D01*
X57148571Y-43882990D02*
X57224761Y-43844895D01*
X57224761Y-43844895D02*
X57415237Y-43844895D01*
X57415237Y-43844895D02*
X57491428Y-43882990D01*
X57491428Y-43882990D02*
X57529523Y-43921085D01*
X57529523Y-43921085D02*
X57567618Y-43997276D01*
X57567618Y-43997276D02*
X57567618Y-44073466D01*
X57567618Y-44073466D02*
X57529523Y-44187752D01*
X57529523Y-44187752D02*
X57072380Y-44644895D01*
X57072380Y-44644895D02*
X57567618Y-44644895D01*
X58062857Y-43844895D02*
X58139047Y-43844895D01*
X58139047Y-43844895D02*
X58215238Y-43882990D01*
X58215238Y-43882990D02*
X58253333Y-43921085D01*
X58253333Y-43921085D02*
X58291428Y-43997276D01*
X58291428Y-43997276D02*
X58329523Y-44149657D01*
X58329523Y-44149657D02*
X58329523Y-44340133D01*
X58329523Y-44340133D02*
X58291428Y-44492514D01*
X58291428Y-44492514D02*
X58253333Y-44568704D01*
X58253333Y-44568704D02*
X58215238Y-44606800D01*
X58215238Y-44606800D02*
X58139047Y-44644895D01*
X58139047Y-44644895D02*
X58062857Y-44644895D01*
X58062857Y-44644895D02*
X57986666Y-44606800D01*
X57986666Y-44606800D02*
X57948571Y-44568704D01*
X57948571Y-44568704D02*
X57910476Y-44492514D01*
X57910476Y-44492514D02*
X57872380Y-44340133D01*
X57872380Y-44340133D02*
X57872380Y-44149657D01*
X57872380Y-44149657D02*
X57910476Y-43997276D01*
X57910476Y-43997276D02*
X57948571Y-43921085D01*
X57948571Y-43921085D02*
X57986666Y-43882990D01*
X57986666Y-43882990D02*
X58062857Y-43844895D01*
X52358704Y-47764285D02*
X52396800Y-47802381D01*
X52396800Y-47802381D02*
X52434895Y-47916666D01*
X52434895Y-47916666D02*
X52434895Y-47992857D01*
X52434895Y-47992857D02*
X52396800Y-48107143D01*
X52396800Y-48107143D02*
X52320609Y-48183333D01*
X52320609Y-48183333D02*
X52244419Y-48221428D01*
X52244419Y-48221428D02*
X52092038Y-48259524D01*
X52092038Y-48259524D02*
X51977752Y-48259524D01*
X51977752Y-48259524D02*
X51825371Y-48221428D01*
X51825371Y-48221428D02*
X51749180Y-48183333D01*
X51749180Y-48183333D02*
X51672990Y-48107143D01*
X51672990Y-48107143D02*
X51634895Y-47992857D01*
X51634895Y-47992857D02*
X51634895Y-47916666D01*
X51634895Y-47916666D02*
X51672990Y-47802381D01*
X51672990Y-47802381D02*
X51711085Y-47764285D01*
X52434895Y-47002381D02*
X52434895Y-47459524D01*
X52434895Y-47230952D02*
X51634895Y-47230952D01*
X51634895Y-47230952D02*
X51749180Y-47307143D01*
X51749180Y-47307143D02*
X51825371Y-47383333D01*
X51825371Y-47383333D02*
X51863466Y-47459524D01*
X51634895Y-46316666D02*
X51634895Y-46469047D01*
X51634895Y-46469047D02*
X51672990Y-46545238D01*
X51672990Y-46545238D02*
X51711085Y-46583333D01*
X51711085Y-46583333D02*
X51825371Y-46659523D01*
X51825371Y-46659523D02*
X51977752Y-46697619D01*
X51977752Y-46697619D02*
X52282514Y-46697619D01*
X52282514Y-46697619D02*
X52358704Y-46659523D01*
X52358704Y-46659523D02*
X52396800Y-46621428D01*
X52396800Y-46621428D02*
X52434895Y-46545238D01*
X52434895Y-46545238D02*
X52434895Y-46392857D01*
X52434895Y-46392857D02*
X52396800Y-46316666D01*
X52396800Y-46316666D02*
X52358704Y-46278571D01*
X52358704Y-46278571D02*
X52282514Y-46240476D01*
X52282514Y-46240476D02*
X52092038Y-46240476D01*
X52092038Y-46240476D02*
X52015847Y-46278571D01*
X52015847Y-46278571D02*
X51977752Y-46316666D01*
X51977752Y-46316666D02*
X51939657Y-46392857D01*
X51939657Y-46392857D02*
X51939657Y-46545238D01*
X51939657Y-46545238D02*
X51977752Y-46621428D01*
X51977752Y-46621428D02*
X52015847Y-46659523D01*
X52015847Y-46659523D02*
X52092038Y-46697619D01*
X53705714Y-57468704D02*
X53667618Y-57506800D01*
X53667618Y-57506800D02*
X53553333Y-57544895D01*
X53553333Y-57544895D02*
X53477142Y-57544895D01*
X53477142Y-57544895D02*
X53362856Y-57506800D01*
X53362856Y-57506800D02*
X53286666Y-57430609D01*
X53286666Y-57430609D02*
X53248571Y-57354419D01*
X53248571Y-57354419D02*
X53210475Y-57202038D01*
X53210475Y-57202038D02*
X53210475Y-57087752D01*
X53210475Y-57087752D02*
X53248571Y-56935371D01*
X53248571Y-56935371D02*
X53286666Y-56859180D01*
X53286666Y-56859180D02*
X53362856Y-56782990D01*
X53362856Y-56782990D02*
X53477142Y-56744895D01*
X53477142Y-56744895D02*
X53553333Y-56744895D01*
X53553333Y-56744895D02*
X53667618Y-56782990D01*
X53667618Y-56782990D02*
X53705714Y-56821085D01*
X54010475Y-56821085D02*
X54048571Y-56782990D01*
X54048571Y-56782990D02*
X54124761Y-56744895D01*
X54124761Y-56744895D02*
X54315237Y-56744895D01*
X54315237Y-56744895D02*
X54391428Y-56782990D01*
X54391428Y-56782990D02*
X54429523Y-56821085D01*
X54429523Y-56821085D02*
X54467618Y-56897276D01*
X54467618Y-56897276D02*
X54467618Y-56973466D01*
X54467618Y-56973466D02*
X54429523Y-57087752D01*
X54429523Y-57087752D02*
X53972380Y-57544895D01*
X53972380Y-57544895D02*
X54467618Y-57544895D01*
X55229523Y-57544895D02*
X54772380Y-57544895D01*
X55000952Y-57544895D02*
X55000952Y-56744895D01*
X55000952Y-56744895D02*
X54924761Y-56859180D01*
X54924761Y-56859180D02*
X54848571Y-56935371D01*
X54848571Y-56935371D02*
X54772380Y-56973466D01*
X57643809Y-57721085D02*
X57567619Y-57682990D01*
X57567619Y-57682990D02*
X57491428Y-57606800D01*
X57491428Y-57606800D02*
X57377142Y-57492514D01*
X57377142Y-57492514D02*
X57300952Y-57454419D01*
X57300952Y-57454419D02*
X57224761Y-57454419D01*
X57262857Y-57644895D02*
X57186666Y-57606800D01*
X57186666Y-57606800D02*
X57110476Y-57530609D01*
X57110476Y-57530609D02*
X57072380Y-57378228D01*
X57072380Y-57378228D02*
X57072380Y-57111561D01*
X57072380Y-57111561D02*
X57110476Y-56959180D01*
X57110476Y-56959180D02*
X57186666Y-56882990D01*
X57186666Y-56882990D02*
X57262857Y-56844895D01*
X57262857Y-56844895D02*
X57415238Y-56844895D01*
X57415238Y-56844895D02*
X57491428Y-56882990D01*
X57491428Y-56882990D02*
X57567619Y-56959180D01*
X57567619Y-56959180D02*
X57605714Y-57111561D01*
X57605714Y-57111561D02*
X57605714Y-57378228D01*
X57605714Y-57378228D02*
X57567619Y-57530609D01*
X57567619Y-57530609D02*
X57491428Y-57606800D01*
X57491428Y-57606800D02*
X57415238Y-57644895D01*
X57415238Y-57644895D02*
X57262857Y-57644895D01*
X58291428Y-57111561D02*
X58291428Y-57644895D01*
X58100952Y-56806800D02*
X57910475Y-57378228D01*
X57910475Y-57378228D02*
X58405714Y-57378228D01*
X21508704Y-15413332D02*
X21546800Y-15451428D01*
X21546800Y-15451428D02*
X21584895Y-15565713D01*
X21584895Y-15565713D02*
X21584895Y-15641904D01*
X21584895Y-15641904D02*
X21546800Y-15756190D01*
X21546800Y-15756190D02*
X21470609Y-15832380D01*
X21470609Y-15832380D02*
X21394419Y-15870475D01*
X21394419Y-15870475D02*
X21242038Y-15908571D01*
X21242038Y-15908571D02*
X21127752Y-15908571D01*
X21127752Y-15908571D02*
X20975371Y-15870475D01*
X20975371Y-15870475D02*
X20899180Y-15832380D01*
X20899180Y-15832380D02*
X20822990Y-15756190D01*
X20822990Y-15756190D02*
X20784895Y-15641904D01*
X20784895Y-15641904D02*
X20784895Y-15565713D01*
X20784895Y-15565713D02*
X20822990Y-15451428D01*
X20822990Y-15451428D02*
X20861085Y-15413332D01*
X21051561Y-14727618D02*
X21584895Y-14727618D01*
X20746800Y-14918094D02*
X21318228Y-15108571D01*
X21318228Y-15108571D02*
X21318228Y-14613332D01*
X33973333Y-7894895D02*
X33973333Y-8466323D01*
X33973333Y-8466323D02*
X33935238Y-8580609D01*
X33935238Y-8580609D02*
X33859047Y-8656800D01*
X33859047Y-8656800D02*
X33744762Y-8694895D01*
X33744762Y-8694895D02*
X33668571Y-8694895D01*
X34697143Y-7894895D02*
X34544762Y-7894895D01*
X34544762Y-7894895D02*
X34468571Y-7932990D01*
X34468571Y-7932990D02*
X34430476Y-7971085D01*
X34430476Y-7971085D02*
X34354286Y-8085371D01*
X34354286Y-8085371D02*
X34316190Y-8237752D01*
X34316190Y-8237752D02*
X34316190Y-8542514D01*
X34316190Y-8542514D02*
X34354286Y-8618704D01*
X34354286Y-8618704D02*
X34392381Y-8656800D01*
X34392381Y-8656800D02*
X34468571Y-8694895D01*
X34468571Y-8694895D02*
X34620952Y-8694895D01*
X34620952Y-8694895D02*
X34697143Y-8656800D01*
X34697143Y-8656800D02*
X34735238Y-8618704D01*
X34735238Y-8618704D02*
X34773333Y-8542514D01*
X34773333Y-8542514D02*
X34773333Y-8352038D01*
X34773333Y-8352038D02*
X34735238Y-8275847D01*
X34735238Y-8275847D02*
X34697143Y-8237752D01*
X34697143Y-8237752D02*
X34620952Y-8199657D01*
X34620952Y-8199657D02*
X34468571Y-8199657D01*
X34468571Y-8199657D02*
X34392381Y-8237752D01*
X34392381Y-8237752D02*
X34354286Y-8275847D01*
X34354286Y-8275847D02*
X34316190Y-8352038D01*
X9734895Y-33131785D02*
X9353942Y-33398452D01*
X9734895Y-33588928D02*
X8934895Y-33588928D01*
X8934895Y-33588928D02*
X8934895Y-33284166D01*
X8934895Y-33284166D02*
X8972990Y-33207976D01*
X8972990Y-33207976D02*
X9011085Y-33169881D01*
X9011085Y-33169881D02*
X9087276Y-33131785D01*
X9087276Y-33131785D02*
X9201561Y-33131785D01*
X9201561Y-33131785D02*
X9277752Y-33169881D01*
X9277752Y-33169881D02*
X9315847Y-33207976D01*
X9315847Y-33207976D02*
X9353942Y-33284166D01*
X9353942Y-33284166D02*
X9353942Y-33588928D01*
X9011085Y-32827024D02*
X8972990Y-32788928D01*
X8972990Y-32788928D02*
X8934895Y-32712738D01*
X8934895Y-32712738D02*
X8934895Y-32522262D01*
X8934895Y-32522262D02*
X8972990Y-32446071D01*
X8972990Y-32446071D02*
X9011085Y-32407976D01*
X9011085Y-32407976D02*
X9087276Y-32369881D01*
X9087276Y-32369881D02*
X9163466Y-32369881D01*
X9163466Y-32369881D02*
X9277752Y-32407976D01*
X9277752Y-32407976D02*
X9734895Y-32865119D01*
X9734895Y-32865119D02*
X9734895Y-32369881D01*
X8934895Y-31646071D02*
X8934895Y-32027023D01*
X8934895Y-32027023D02*
X9315847Y-32065119D01*
X9315847Y-32065119D02*
X9277752Y-32027023D01*
X9277752Y-32027023D02*
X9239657Y-31950833D01*
X9239657Y-31950833D02*
X9239657Y-31760357D01*
X9239657Y-31760357D02*
X9277752Y-31684166D01*
X9277752Y-31684166D02*
X9315847Y-31646071D01*
X9315847Y-31646071D02*
X9392038Y-31607976D01*
X9392038Y-31607976D02*
X9582514Y-31607976D01*
X9582514Y-31607976D02*
X9658704Y-31646071D01*
X9658704Y-31646071D02*
X9696800Y-31684166D01*
X9696800Y-31684166D02*
X9734895Y-31760357D01*
X9734895Y-31760357D02*
X9734895Y-31950833D01*
X9734895Y-31950833D02*
X9696800Y-32027023D01*
X9696800Y-32027023D02*
X9658704Y-32065119D01*
X15034895Y-33144285D02*
X14653942Y-33410952D01*
X15034895Y-33601428D02*
X14234895Y-33601428D01*
X14234895Y-33601428D02*
X14234895Y-33296666D01*
X14234895Y-33296666D02*
X14272990Y-33220476D01*
X14272990Y-33220476D02*
X14311085Y-33182381D01*
X14311085Y-33182381D02*
X14387276Y-33144285D01*
X14387276Y-33144285D02*
X14501561Y-33144285D01*
X14501561Y-33144285D02*
X14577752Y-33182381D01*
X14577752Y-33182381D02*
X14615847Y-33220476D01*
X14615847Y-33220476D02*
X14653942Y-33296666D01*
X14653942Y-33296666D02*
X14653942Y-33601428D01*
X14311085Y-32839524D02*
X14272990Y-32801428D01*
X14272990Y-32801428D02*
X14234895Y-32725238D01*
X14234895Y-32725238D02*
X14234895Y-32534762D01*
X14234895Y-32534762D02*
X14272990Y-32458571D01*
X14272990Y-32458571D02*
X14311085Y-32420476D01*
X14311085Y-32420476D02*
X14387276Y-32382381D01*
X14387276Y-32382381D02*
X14463466Y-32382381D01*
X14463466Y-32382381D02*
X14577752Y-32420476D01*
X14577752Y-32420476D02*
X15034895Y-32877619D01*
X15034895Y-32877619D02*
X15034895Y-32382381D01*
X15034895Y-31620476D02*
X15034895Y-32077619D01*
X15034895Y-31849047D02*
X14234895Y-31849047D01*
X14234895Y-31849047D02*
X14349180Y-31925238D01*
X14349180Y-31925238D02*
X14425371Y-32001428D01*
X14425371Y-32001428D02*
X14463466Y-32077619D01*
X35393809Y-29171085D02*
X35317619Y-29132990D01*
X35317619Y-29132990D02*
X35241428Y-29056800D01*
X35241428Y-29056800D02*
X35127142Y-28942514D01*
X35127142Y-28942514D02*
X35050952Y-28904419D01*
X35050952Y-28904419D02*
X34974761Y-28904419D01*
X35012857Y-29094895D02*
X34936666Y-29056800D01*
X34936666Y-29056800D02*
X34860476Y-28980609D01*
X34860476Y-28980609D02*
X34822380Y-28828228D01*
X34822380Y-28828228D02*
X34822380Y-28561561D01*
X34822380Y-28561561D02*
X34860476Y-28409180D01*
X34860476Y-28409180D02*
X34936666Y-28332990D01*
X34936666Y-28332990D02*
X35012857Y-28294895D01*
X35012857Y-28294895D02*
X35165238Y-28294895D01*
X35165238Y-28294895D02*
X35241428Y-28332990D01*
X35241428Y-28332990D02*
X35317619Y-28409180D01*
X35317619Y-28409180D02*
X35355714Y-28561561D01*
X35355714Y-28561561D02*
X35355714Y-28828228D01*
X35355714Y-28828228D02*
X35317619Y-28980609D01*
X35317619Y-28980609D02*
X35241428Y-29056800D01*
X35241428Y-29056800D02*
X35165238Y-29094895D01*
X35165238Y-29094895D02*
X35012857Y-29094895D01*
X35622380Y-28294895D02*
X36117618Y-28294895D01*
X36117618Y-28294895D02*
X35850952Y-28599657D01*
X35850952Y-28599657D02*
X35965237Y-28599657D01*
X35965237Y-28599657D02*
X36041428Y-28637752D01*
X36041428Y-28637752D02*
X36079523Y-28675847D01*
X36079523Y-28675847D02*
X36117618Y-28752038D01*
X36117618Y-28752038D02*
X36117618Y-28942514D01*
X36117618Y-28942514D02*
X36079523Y-29018704D01*
X36079523Y-29018704D02*
X36041428Y-29056800D01*
X36041428Y-29056800D02*
X35965237Y-29094895D01*
X35965237Y-29094895D02*
X35736666Y-29094895D01*
X35736666Y-29094895D02*
X35660475Y-29056800D01*
X35660475Y-29056800D02*
X35622380Y-29018704D01*
X49684895Y-15270475D02*
X48884895Y-15270475D01*
X48884895Y-15270475D02*
X48884895Y-15079999D01*
X48884895Y-15079999D02*
X48922990Y-14965713D01*
X48922990Y-14965713D02*
X48999180Y-14889523D01*
X48999180Y-14889523D02*
X49075371Y-14851428D01*
X49075371Y-14851428D02*
X49227752Y-14813332D01*
X49227752Y-14813332D02*
X49342038Y-14813332D01*
X49342038Y-14813332D02*
X49494419Y-14851428D01*
X49494419Y-14851428D02*
X49570609Y-14889523D01*
X49570609Y-14889523D02*
X49646800Y-14965713D01*
X49646800Y-14965713D02*
X49684895Y-15079999D01*
X49684895Y-15079999D02*
X49684895Y-15270475D01*
X48961085Y-14508571D02*
X48922990Y-14470475D01*
X48922990Y-14470475D02*
X48884895Y-14394285D01*
X48884895Y-14394285D02*
X48884895Y-14203809D01*
X48884895Y-14203809D02*
X48922990Y-14127618D01*
X48922990Y-14127618D02*
X48961085Y-14089523D01*
X48961085Y-14089523D02*
X49037276Y-14051428D01*
X49037276Y-14051428D02*
X49113466Y-14051428D01*
X49113466Y-14051428D02*
X49227752Y-14089523D01*
X49227752Y-14089523D02*
X49684895Y-14546666D01*
X49684895Y-14546666D02*
X49684895Y-14051428D01*
X17222380Y-7134895D02*
X17222380Y-7706323D01*
X17222380Y-7706323D02*
X17184285Y-7820609D01*
X17184285Y-7820609D02*
X17108094Y-7896800D01*
X17108094Y-7896800D02*
X16993809Y-7934895D01*
X16993809Y-7934895D02*
X16917618Y-7934895D01*
X18022380Y-7934895D02*
X17565237Y-7934895D01*
X17793809Y-7934895D02*
X17793809Y-7134895D01*
X17793809Y-7134895D02*
X17717618Y-7249180D01*
X17717618Y-7249180D02*
X17641428Y-7325371D01*
X17641428Y-7325371D02*
X17565237Y-7363466D01*
X18327142Y-7211085D02*
X18365238Y-7172990D01*
X18365238Y-7172990D02*
X18441428Y-7134895D01*
X18441428Y-7134895D02*
X18631904Y-7134895D01*
X18631904Y-7134895D02*
X18708095Y-7172990D01*
X18708095Y-7172990D02*
X18746190Y-7211085D01*
X18746190Y-7211085D02*
X18784285Y-7287276D01*
X18784285Y-7287276D02*
X18784285Y-7363466D01*
X18784285Y-7363466D02*
X18746190Y-7477752D01*
X18746190Y-7477752D02*
X18289047Y-7934895D01*
X18289047Y-7934895D02*
X18784285Y-7934895D01*
X41368704Y-50533332D02*
X41406800Y-50571428D01*
X41406800Y-50571428D02*
X41444895Y-50685713D01*
X41444895Y-50685713D02*
X41444895Y-50761904D01*
X41444895Y-50761904D02*
X41406800Y-50876190D01*
X41406800Y-50876190D02*
X41330609Y-50952380D01*
X41330609Y-50952380D02*
X41254419Y-50990475D01*
X41254419Y-50990475D02*
X41102038Y-51028571D01*
X41102038Y-51028571D02*
X40987752Y-51028571D01*
X40987752Y-51028571D02*
X40835371Y-50990475D01*
X40835371Y-50990475D02*
X40759180Y-50952380D01*
X40759180Y-50952380D02*
X40682990Y-50876190D01*
X40682990Y-50876190D02*
X40644895Y-50761904D01*
X40644895Y-50761904D02*
X40644895Y-50685713D01*
X40644895Y-50685713D02*
X40682990Y-50571428D01*
X40682990Y-50571428D02*
X40721085Y-50533332D01*
X41444895Y-50152380D02*
X41444895Y-49999999D01*
X41444895Y-49999999D02*
X41406800Y-49923809D01*
X41406800Y-49923809D02*
X41368704Y-49885713D01*
X41368704Y-49885713D02*
X41254419Y-49809523D01*
X41254419Y-49809523D02*
X41102038Y-49771428D01*
X41102038Y-49771428D02*
X40797276Y-49771428D01*
X40797276Y-49771428D02*
X40721085Y-49809523D01*
X40721085Y-49809523D02*
X40682990Y-49847618D01*
X40682990Y-49847618D02*
X40644895Y-49923809D01*
X40644895Y-49923809D02*
X40644895Y-50076190D01*
X40644895Y-50076190D02*
X40682990Y-50152380D01*
X40682990Y-50152380D02*
X40721085Y-50190475D01*
X40721085Y-50190475D02*
X40797276Y-50228571D01*
X40797276Y-50228571D02*
X40987752Y-50228571D01*
X40987752Y-50228571D02*
X41063942Y-50190475D01*
X41063942Y-50190475D02*
X41102038Y-50152380D01*
X41102038Y-50152380D02*
X41140133Y-50076190D01*
X41140133Y-50076190D02*
X41140133Y-49923809D01*
X41140133Y-49923809D02*
X41102038Y-49847618D01*
X41102038Y-49847618D02*
X41063942Y-49809523D01*
X41063942Y-49809523D02*
X40987752Y-49771428D01*
X60673809Y-31291085D02*
X60597619Y-31252990D01*
X60597619Y-31252990D02*
X60521428Y-31176800D01*
X60521428Y-31176800D02*
X60407142Y-31062514D01*
X60407142Y-31062514D02*
X60330952Y-31024419D01*
X60330952Y-31024419D02*
X60254761Y-31024419D01*
X60292857Y-31214895D02*
X60216666Y-31176800D01*
X60216666Y-31176800D02*
X60140476Y-31100609D01*
X60140476Y-31100609D02*
X60102380Y-30948228D01*
X60102380Y-30948228D02*
X60102380Y-30681561D01*
X60102380Y-30681561D02*
X60140476Y-30529180D01*
X60140476Y-30529180D02*
X60216666Y-30452990D01*
X60216666Y-30452990D02*
X60292857Y-30414895D01*
X60292857Y-30414895D02*
X60445238Y-30414895D01*
X60445238Y-30414895D02*
X60521428Y-30452990D01*
X60521428Y-30452990D02*
X60597619Y-30529180D01*
X60597619Y-30529180D02*
X60635714Y-30681561D01*
X60635714Y-30681561D02*
X60635714Y-30948228D01*
X60635714Y-30948228D02*
X60597619Y-31100609D01*
X60597619Y-31100609D02*
X60521428Y-31176800D01*
X60521428Y-31176800D02*
X60445238Y-31214895D01*
X60445238Y-31214895D02*
X60292857Y-31214895D01*
X61397618Y-31214895D02*
X60940475Y-31214895D01*
X61169047Y-31214895D02*
X61169047Y-30414895D01*
X61169047Y-30414895D02*
X61092856Y-30529180D01*
X61092856Y-30529180D02*
X61016666Y-30605371D01*
X61016666Y-30605371D02*
X60940475Y-30643466D01*
X9684895Y-40044285D02*
X9303942Y-40310952D01*
X9684895Y-40501428D02*
X8884895Y-40501428D01*
X8884895Y-40501428D02*
X8884895Y-40196666D01*
X8884895Y-40196666D02*
X8922990Y-40120476D01*
X8922990Y-40120476D02*
X8961085Y-40082381D01*
X8961085Y-40082381D02*
X9037276Y-40044285D01*
X9037276Y-40044285D02*
X9151561Y-40044285D01*
X9151561Y-40044285D02*
X9227752Y-40082381D01*
X9227752Y-40082381D02*
X9265847Y-40120476D01*
X9265847Y-40120476D02*
X9303942Y-40196666D01*
X9303942Y-40196666D02*
X9303942Y-40501428D01*
X8961085Y-39739524D02*
X8922990Y-39701428D01*
X8922990Y-39701428D02*
X8884895Y-39625238D01*
X8884895Y-39625238D02*
X8884895Y-39434762D01*
X8884895Y-39434762D02*
X8922990Y-39358571D01*
X8922990Y-39358571D02*
X8961085Y-39320476D01*
X8961085Y-39320476D02*
X9037276Y-39282381D01*
X9037276Y-39282381D02*
X9113466Y-39282381D01*
X9113466Y-39282381D02*
X9227752Y-39320476D01*
X9227752Y-39320476D02*
X9684895Y-39777619D01*
X9684895Y-39777619D02*
X9684895Y-39282381D01*
X9151561Y-38596666D02*
X9684895Y-38596666D01*
X8846800Y-38787142D02*
X9418228Y-38977619D01*
X9418228Y-38977619D02*
X9418228Y-38482380D01*
X63514895Y-37629523D02*
X64162514Y-37629523D01*
X64162514Y-37629523D02*
X64238704Y-37591428D01*
X64238704Y-37591428D02*
X64276800Y-37553333D01*
X64276800Y-37553333D02*
X64314895Y-37477142D01*
X64314895Y-37477142D02*
X64314895Y-37324761D01*
X64314895Y-37324761D02*
X64276800Y-37248571D01*
X64276800Y-37248571D02*
X64238704Y-37210476D01*
X64238704Y-37210476D02*
X64162514Y-37172380D01*
X64162514Y-37172380D02*
X63514895Y-37172380D01*
X63514895Y-36448571D02*
X63514895Y-36600952D01*
X63514895Y-36600952D02*
X63552990Y-36677143D01*
X63552990Y-36677143D02*
X63591085Y-36715238D01*
X63591085Y-36715238D02*
X63705371Y-36791428D01*
X63705371Y-36791428D02*
X63857752Y-36829524D01*
X63857752Y-36829524D02*
X64162514Y-36829524D01*
X64162514Y-36829524D02*
X64238704Y-36791428D01*
X64238704Y-36791428D02*
X64276800Y-36753333D01*
X64276800Y-36753333D02*
X64314895Y-36677143D01*
X64314895Y-36677143D02*
X64314895Y-36524762D01*
X64314895Y-36524762D02*
X64276800Y-36448571D01*
X64276800Y-36448571D02*
X64238704Y-36410476D01*
X64238704Y-36410476D02*
X64162514Y-36372381D01*
X64162514Y-36372381D02*
X63972038Y-36372381D01*
X63972038Y-36372381D02*
X63895847Y-36410476D01*
X63895847Y-36410476D02*
X63857752Y-36448571D01*
X63857752Y-36448571D02*
X63819657Y-36524762D01*
X63819657Y-36524762D02*
X63819657Y-36677143D01*
X63819657Y-36677143D02*
X63857752Y-36753333D01*
X63857752Y-36753333D02*
X63895847Y-36791428D01*
X63895847Y-36791428D02*
X63972038Y-36829524D01*
X20128704Y-48194285D02*
X20166800Y-48232381D01*
X20166800Y-48232381D02*
X20204895Y-48346666D01*
X20204895Y-48346666D02*
X20204895Y-48422857D01*
X20204895Y-48422857D02*
X20166800Y-48537143D01*
X20166800Y-48537143D02*
X20090609Y-48613333D01*
X20090609Y-48613333D02*
X20014419Y-48651428D01*
X20014419Y-48651428D02*
X19862038Y-48689524D01*
X19862038Y-48689524D02*
X19747752Y-48689524D01*
X19747752Y-48689524D02*
X19595371Y-48651428D01*
X19595371Y-48651428D02*
X19519180Y-48613333D01*
X19519180Y-48613333D02*
X19442990Y-48537143D01*
X19442990Y-48537143D02*
X19404895Y-48422857D01*
X19404895Y-48422857D02*
X19404895Y-48346666D01*
X19404895Y-48346666D02*
X19442990Y-48232381D01*
X19442990Y-48232381D02*
X19481085Y-48194285D01*
X19481085Y-47889524D02*
X19442990Y-47851428D01*
X19442990Y-47851428D02*
X19404895Y-47775238D01*
X19404895Y-47775238D02*
X19404895Y-47584762D01*
X19404895Y-47584762D02*
X19442990Y-47508571D01*
X19442990Y-47508571D02*
X19481085Y-47470476D01*
X19481085Y-47470476D02*
X19557276Y-47432381D01*
X19557276Y-47432381D02*
X19633466Y-47432381D01*
X19633466Y-47432381D02*
X19747752Y-47470476D01*
X19747752Y-47470476D02*
X20204895Y-47927619D01*
X20204895Y-47927619D02*
X20204895Y-47432381D01*
X19404895Y-47165714D02*
X19404895Y-46632380D01*
X19404895Y-46632380D02*
X20204895Y-46975238D01*
X22505714Y-28948704D02*
X22467618Y-28986800D01*
X22467618Y-28986800D02*
X22353333Y-29024895D01*
X22353333Y-29024895D02*
X22277142Y-29024895D01*
X22277142Y-29024895D02*
X22162856Y-28986800D01*
X22162856Y-28986800D02*
X22086666Y-28910609D01*
X22086666Y-28910609D02*
X22048571Y-28834419D01*
X22048571Y-28834419D02*
X22010475Y-28682038D01*
X22010475Y-28682038D02*
X22010475Y-28567752D01*
X22010475Y-28567752D02*
X22048571Y-28415371D01*
X22048571Y-28415371D02*
X22086666Y-28339180D01*
X22086666Y-28339180D02*
X22162856Y-28262990D01*
X22162856Y-28262990D02*
X22277142Y-28224895D01*
X22277142Y-28224895D02*
X22353333Y-28224895D01*
X22353333Y-28224895D02*
X22467618Y-28262990D01*
X22467618Y-28262990D02*
X22505714Y-28301085D01*
X23267618Y-29024895D02*
X22810475Y-29024895D01*
X23039047Y-29024895D02*
X23039047Y-28224895D01*
X23039047Y-28224895D02*
X22962856Y-28339180D01*
X22962856Y-28339180D02*
X22886666Y-28415371D01*
X22886666Y-28415371D02*
X22810475Y-28453466D01*
X24029523Y-29024895D02*
X23572380Y-29024895D01*
X23800952Y-29024895D02*
X23800952Y-28224895D01*
X23800952Y-28224895D02*
X23724761Y-28339180D01*
X23724761Y-28339180D02*
X23648571Y-28415371D01*
X23648571Y-28415371D02*
X23572380Y-28453466D01*
X18305714Y-33268704D02*
X18267618Y-33306800D01*
X18267618Y-33306800D02*
X18153333Y-33344895D01*
X18153333Y-33344895D02*
X18077142Y-33344895D01*
X18077142Y-33344895D02*
X17962856Y-33306800D01*
X17962856Y-33306800D02*
X17886666Y-33230609D01*
X17886666Y-33230609D02*
X17848571Y-33154419D01*
X17848571Y-33154419D02*
X17810475Y-33002038D01*
X17810475Y-33002038D02*
X17810475Y-32887752D01*
X17810475Y-32887752D02*
X17848571Y-32735371D01*
X17848571Y-32735371D02*
X17886666Y-32659180D01*
X17886666Y-32659180D02*
X17962856Y-32582990D01*
X17962856Y-32582990D02*
X18077142Y-32544895D01*
X18077142Y-32544895D02*
X18153333Y-32544895D01*
X18153333Y-32544895D02*
X18267618Y-32582990D01*
X18267618Y-32582990D02*
X18305714Y-32621085D01*
X19067618Y-33344895D02*
X18610475Y-33344895D01*
X18839047Y-33344895D02*
X18839047Y-32544895D01*
X18839047Y-32544895D02*
X18762856Y-32659180D01*
X18762856Y-32659180D02*
X18686666Y-32735371D01*
X18686666Y-32735371D02*
X18610475Y-32773466D01*
X19448571Y-33344895D02*
X19600952Y-33344895D01*
X19600952Y-33344895D02*
X19677142Y-33306800D01*
X19677142Y-33306800D02*
X19715238Y-33268704D01*
X19715238Y-33268704D02*
X19791428Y-33154419D01*
X19791428Y-33154419D02*
X19829523Y-33002038D01*
X19829523Y-33002038D02*
X19829523Y-32697276D01*
X19829523Y-32697276D02*
X19791428Y-32621085D01*
X19791428Y-32621085D02*
X19753333Y-32582990D01*
X19753333Y-32582990D02*
X19677142Y-32544895D01*
X19677142Y-32544895D02*
X19524761Y-32544895D01*
X19524761Y-32544895D02*
X19448571Y-32582990D01*
X19448571Y-32582990D02*
X19410476Y-32621085D01*
X19410476Y-32621085D02*
X19372380Y-32697276D01*
X19372380Y-32697276D02*
X19372380Y-32887752D01*
X19372380Y-32887752D02*
X19410476Y-32963942D01*
X19410476Y-32963942D02*
X19448571Y-33002038D01*
X19448571Y-33002038D02*
X19524761Y-33040133D01*
X19524761Y-33040133D02*
X19677142Y-33040133D01*
X19677142Y-33040133D02*
X19753333Y-33002038D01*
X19753333Y-33002038D02*
X19791428Y-32963942D01*
X19791428Y-32963942D02*
X19829523Y-32887752D01*
X37884895Y-21189523D02*
X38532514Y-21189523D01*
X38532514Y-21189523D02*
X38608704Y-21151428D01*
X38608704Y-21151428D02*
X38646800Y-21113333D01*
X38646800Y-21113333D02*
X38684895Y-21037142D01*
X38684895Y-21037142D02*
X38684895Y-20884761D01*
X38684895Y-20884761D02*
X38646800Y-20808571D01*
X38646800Y-20808571D02*
X38608704Y-20770476D01*
X38608704Y-20770476D02*
X38532514Y-20732380D01*
X38532514Y-20732380D02*
X37884895Y-20732380D01*
X38684895Y-19932381D02*
X38684895Y-20389524D01*
X38684895Y-20160952D02*
X37884895Y-20160952D01*
X37884895Y-20160952D02*
X37999180Y-20237143D01*
X37999180Y-20237143D02*
X38075371Y-20313333D01*
X38075371Y-20313333D02*
X38113466Y-20389524D01*
X2183347Y-12566666D02*
X2183347Y-12833332D01*
X2602395Y-12833332D02*
X1802395Y-12833332D01*
X1802395Y-12833332D02*
X1802395Y-12452380D01*
X2602395Y-11728571D02*
X2602395Y-12185714D01*
X2602395Y-11957142D02*
X1802395Y-11957142D01*
X1802395Y-11957142D02*
X1916680Y-12033333D01*
X1916680Y-12033333D02*
X1992871Y-12109523D01*
X1992871Y-12109523D02*
X2030966Y-12185714D01*
X33490476Y-47424895D02*
X33490476Y-48072514D01*
X33490476Y-48072514D02*
X33528571Y-48148704D01*
X33528571Y-48148704D02*
X33566666Y-48186800D01*
X33566666Y-48186800D02*
X33642857Y-48224895D01*
X33642857Y-48224895D02*
X33795238Y-48224895D01*
X33795238Y-48224895D02*
X33871428Y-48186800D01*
X33871428Y-48186800D02*
X33909523Y-48148704D01*
X33909523Y-48148704D02*
X33947619Y-48072514D01*
X33947619Y-48072514D02*
X33947619Y-47424895D01*
X34252380Y-47424895D02*
X34785714Y-47424895D01*
X34785714Y-47424895D02*
X34442856Y-48224895D01*
X9684895Y-43481785D02*
X9303942Y-43748452D01*
X9684895Y-43938928D02*
X8884895Y-43938928D01*
X8884895Y-43938928D02*
X8884895Y-43634166D01*
X8884895Y-43634166D02*
X8922990Y-43557976D01*
X8922990Y-43557976D02*
X8961085Y-43519881D01*
X8961085Y-43519881D02*
X9037276Y-43481785D01*
X9037276Y-43481785D02*
X9151561Y-43481785D01*
X9151561Y-43481785D02*
X9227752Y-43519881D01*
X9227752Y-43519881D02*
X9265847Y-43557976D01*
X9265847Y-43557976D02*
X9303942Y-43634166D01*
X9303942Y-43634166D02*
X9303942Y-43938928D01*
X8961085Y-43177024D02*
X8922990Y-43138928D01*
X8922990Y-43138928D02*
X8884895Y-43062738D01*
X8884895Y-43062738D02*
X8884895Y-42872262D01*
X8884895Y-42872262D02*
X8922990Y-42796071D01*
X8922990Y-42796071D02*
X8961085Y-42757976D01*
X8961085Y-42757976D02*
X9037276Y-42719881D01*
X9037276Y-42719881D02*
X9113466Y-42719881D01*
X9113466Y-42719881D02*
X9227752Y-42757976D01*
X9227752Y-42757976D02*
X9684895Y-43215119D01*
X9684895Y-43215119D02*
X9684895Y-42719881D01*
X8884895Y-42034166D02*
X8884895Y-42186547D01*
X8884895Y-42186547D02*
X8922990Y-42262738D01*
X8922990Y-42262738D02*
X8961085Y-42300833D01*
X8961085Y-42300833D02*
X9075371Y-42377023D01*
X9075371Y-42377023D02*
X9227752Y-42415119D01*
X9227752Y-42415119D02*
X9532514Y-42415119D01*
X9532514Y-42415119D02*
X9608704Y-42377023D01*
X9608704Y-42377023D02*
X9646800Y-42338928D01*
X9646800Y-42338928D02*
X9684895Y-42262738D01*
X9684895Y-42262738D02*
X9684895Y-42110357D01*
X9684895Y-42110357D02*
X9646800Y-42034166D01*
X9646800Y-42034166D02*
X9608704Y-41996071D01*
X9608704Y-41996071D02*
X9532514Y-41957976D01*
X9532514Y-41957976D02*
X9342038Y-41957976D01*
X9342038Y-41957976D02*
X9265847Y-41996071D01*
X9265847Y-41996071D02*
X9227752Y-42034166D01*
X9227752Y-42034166D02*
X9189657Y-42110357D01*
X9189657Y-42110357D02*
X9189657Y-42262738D01*
X9189657Y-42262738D02*
X9227752Y-42338928D01*
X9227752Y-42338928D02*
X9265847Y-42377023D01*
X9265847Y-42377023D02*
X9342038Y-42415119D01*
X44208704Y-21864285D02*
X44246800Y-21902381D01*
X44246800Y-21902381D02*
X44284895Y-22016666D01*
X44284895Y-22016666D02*
X44284895Y-22092857D01*
X44284895Y-22092857D02*
X44246800Y-22207143D01*
X44246800Y-22207143D02*
X44170609Y-22283333D01*
X44170609Y-22283333D02*
X44094419Y-22321428D01*
X44094419Y-22321428D02*
X43942038Y-22359524D01*
X43942038Y-22359524D02*
X43827752Y-22359524D01*
X43827752Y-22359524D02*
X43675371Y-22321428D01*
X43675371Y-22321428D02*
X43599180Y-22283333D01*
X43599180Y-22283333D02*
X43522990Y-22207143D01*
X43522990Y-22207143D02*
X43484895Y-22092857D01*
X43484895Y-22092857D02*
X43484895Y-22016666D01*
X43484895Y-22016666D02*
X43522990Y-21902381D01*
X43522990Y-21902381D02*
X43561085Y-21864285D01*
X43484895Y-21597619D02*
X43484895Y-21102381D01*
X43484895Y-21102381D02*
X43789657Y-21369047D01*
X43789657Y-21369047D02*
X43789657Y-21254762D01*
X43789657Y-21254762D02*
X43827752Y-21178571D01*
X43827752Y-21178571D02*
X43865847Y-21140476D01*
X43865847Y-21140476D02*
X43942038Y-21102381D01*
X43942038Y-21102381D02*
X44132514Y-21102381D01*
X44132514Y-21102381D02*
X44208704Y-21140476D01*
X44208704Y-21140476D02*
X44246800Y-21178571D01*
X44246800Y-21178571D02*
X44284895Y-21254762D01*
X44284895Y-21254762D02*
X44284895Y-21483333D01*
X44284895Y-21483333D02*
X44246800Y-21559524D01*
X44246800Y-21559524D02*
X44208704Y-21597619D01*
X43484895Y-20416666D02*
X43484895Y-20569047D01*
X43484895Y-20569047D02*
X43522990Y-20645238D01*
X43522990Y-20645238D02*
X43561085Y-20683333D01*
X43561085Y-20683333D02*
X43675371Y-20759523D01*
X43675371Y-20759523D02*
X43827752Y-20797619D01*
X43827752Y-20797619D02*
X44132514Y-20797619D01*
X44132514Y-20797619D02*
X44208704Y-20759523D01*
X44208704Y-20759523D02*
X44246800Y-20721428D01*
X44246800Y-20721428D02*
X44284895Y-20645238D01*
X44284895Y-20645238D02*
X44284895Y-20492857D01*
X44284895Y-20492857D02*
X44246800Y-20416666D01*
X44246800Y-20416666D02*
X44208704Y-20378571D01*
X44208704Y-20378571D02*
X44132514Y-20340476D01*
X44132514Y-20340476D02*
X43942038Y-20340476D01*
X43942038Y-20340476D02*
X43865847Y-20378571D01*
X43865847Y-20378571D02*
X43827752Y-20416666D01*
X43827752Y-20416666D02*
X43789657Y-20492857D01*
X43789657Y-20492857D02*
X43789657Y-20645238D01*
X43789657Y-20645238D02*
X43827752Y-20721428D01*
X43827752Y-20721428D02*
X43865847Y-20759523D01*
X43865847Y-20759523D02*
X43942038Y-20797619D01*
X51984895Y-15189523D02*
X52632514Y-15189523D01*
X52632514Y-15189523D02*
X52708704Y-15151428D01*
X52708704Y-15151428D02*
X52746800Y-15113333D01*
X52746800Y-15113333D02*
X52784895Y-15037142D01*
X52784895Y-15037142D02*
X52784895Y-14884761D01*
X52784895Y-14884761D02*
X52746800Y-14808571D01*
X52746800Y-14808571D02*
X52708704Y-14770476D01*
X52708704Y-14770476D02*
X52632514Y-14732380D01*
X52632514Y-14732380D02*
X51984895Y-14732380D01*
X52061085Y-14389524D02*
X52022990Y-14351428D01*
X52022990Y-14351428D02*
X51984895Y-14275238D01*
X51984895Y-14275238D02*
X51984895Y-14084762D01*
X51984895Y-14084762D02*
X52022990Y-14008571D01*
X52022990Y-14008571D02*
X52061085Y-13970476D01*
X52061085Y-13970476D02*
X52137276Y-13932381D01*
X52137276Y-13932381D02*
X52213466Y-13932381D01*
X52213466Y-13932381D02*
X52327752Y-13970476D01*
X52327752Y-13970476D02*
X52784895Y-14427619D01*
X52784895Y-14427619D02*
X52784895Y-13932381D01*
X23308704Y-44224285D02*
X23346800Y-44262381D01*
X23346800Y-44262381D02*
X23384895Y-44376666D01*
X23384895Y-44376666D02*
X23384895Y-44452857D01*
X23384895Y-44452857D02*
X23346800Y-44567143D01*
X23346800Y-44567143D02*
X23270609Y-44643333D01*
X23270609Y-44643333D02*
X23194419Y-44681428D01*
X23194419Y-44681428D02*
X23042038Y-44719524D01*
X23042038Y-44719524D02*
X22927752Y-44719524D01*
X22927752Y-44719524D02*
X22775371Y-44681428D01*
X22775371Y-44681428D02*
X22699180Y-44643333D01*
X22699180Y-44643333D02*
X22622990Y-44567143D01*
X22622990Y-44567143D02*
X22584895Y-44452857D01*
X22584895Y-44452857D02*
X22584895Y-44376666D01*
X22584895Y-44376666D02*
X22622990Y-44262381D01*
X22622990Y-44262381D02*
X22661085Y-44224285D01*
X22584895Y-43957619D02*
X22584895Y-43462381D01*
X22584895Y-43462381D02*
X22889657Y-43729047D01*
X22889657Y-43729047D02*
X22889657Y-43614762D01*
X22889657Y-43614762D02*
X22927752Y-43538571D01*
X22927752Y-43538571D02*
X22965847Y-43500476D01*
X22965847Y-43500476D02*
X23042038Y-43462381D01*
X23042038Y-43462381D02*
X23232514Y-43462381D01*
X23232514Y-43462381D02*
X23308704Y-43500476D01*
X23308704Y-43500476D02*
X23346800Y-43538571D01*
X23346800Y-43538571D02*
X23384895Y-43614762D01*
X23384895Y-43614762D02*
X23384895Y-43843333D01*
X23384895Y-43843333D02*
X23346800Y-43919524D01*
X23346800Y-43919524D02*
X23308704Y-43957619D01*
X23384895Y-42700476D02*
X23384895Y-43157619D01*
X23384895Y-42929047D02*
X22584895Y-42929047D01*
X22584895Y-42929047D02*
X22699180Y-43005238D01*
X22699180Y-43005238D02*
X22775371Y-43081428D01*
X22775371Y-43081428D02*
X22813466Y-43157619D01*
X26908704Y-15413332D02*
X26946800Y-15451428D01*
X26946800Y-15451428D02*
X26984895Y-15565713D01*
X26984895Y-15565713D02*
X26984895Y-15641904D01*
X26984895Y-15641904D02*
X26946800Y-15756190D01*
X26946800Y-15756190D02*
X26870609Y-15832380D01*
X26870609Y-15832380D02*
X26794419Y-15870475D01*
X26794419Y-15870475D02*
X26642038Y-15908571D01*
X26642038Y-15908571D02*
X26527752Y-15908571D01*
X26527752Y-15908571D02*
X26375371Y-15870475D01*
X26375371Y-15870475D02*
X26299180Y-15832380D01*
X26299180Y-15832380D02*
X26222990Y-15756190D01*
X26222990Y-15756190D02*
X26184895Y-15641904D01*
X26184895Y-15641904D02*
X26184895Y-15565713D01*
X26184895Y-15565713D02*
X26222990Y-15451428D01*
X26222990Y-15451428D02*
X26261085Y-15413332D01*
X26184895Y-15146666D02*
X26184895Y-14651428D01*
X26184895Y-14651428D02*
X26489657Y-14918094D01*
X26489657Y-14918094D02*
X26489657Y-14803809D01*
X26489657Y-14803809D02*
X26527752Y-14727618D01*
X26527752Y-14727618D02*
X26565847Y-14689523D01*
X26565847Y-14689523D02*
X26642038Y-14651428D01*
X26642038Y-14651428D02*
X26832514Y-14651428D01*
X26832514Y-14651428D02*
X26908704Y-14689523D01*
X26908704Y-14689523D02*
X26946800Y-14727618D01*
X26946800Y-14727618D02*
X26984895Y-14803809D01*
X26984895Y-14803809D02*
X26984895Y-15032380D01*
X26984895Y-15032380D02*
X26946800Y-15108571D01*
X26946800Y-15108571D02*
X26908704Y-15146666D01*
X25055714Y-33718704D02*
X25017618Y-33756800D01*
X25017618Y-33756800D02*
X24903333Y-33794895D01*
X24903333Y-33794895D02*
X24827142Y-33794895D01*
X24827142Y-33794895D02*
X24712856Y-33756800D01*
X24712856Y-33756800D02*
X24636666Y-33680609D01*
X24636666Y-33680609D02*
X24598571Y-33604419D01*
X24598571Y-33604419D02*
X24560475Y-33452038D01*
X24560475Y-33452038D02*
X24560475Y-33337752D01*
X24560475Y-33337752D02*
X24598571Y-33185371D01*
X24598571Y-33185371D02*
X24636666Y-33109180D01*
X24636666Y-33109180D02*
X24712856Y-33032990D01*
X24712856Y-33032990D02*
X24827142Y-32994895D01*
X24827142Y-32994895D02*
X24903333Y-32994895D01*
X24903333Y-32994895D02*
X25017618Y-33032990D01*
X25017618Y-33032990D02*
X25055714Y-33071085D01*
X25322380Y-32994895D02*
X25817618Y-32994895D01*
X25817618Y-32994895D02*
X25550952Y-33299657D01*
X25550952Y-33299657D02*
X25665237Y-33299657D01*
X25665237Y-33299657D02*
X25741428Y-33337752D01*
X25741428Y-33337752D02*
X25779523Y-33375847D01*
X25779523Y-33375847D02*
X25817618Y-33452038D01*
X25817618Y-33452038D02*
X25817618Y-33642514D01*
X25817618Y-33642514D02*
X25779523Y-33718704D01*
X25779523Y-33718704D02*
X25741428Y-33756800D01*
X25741428Y-33756800D02*
X25665237Y-33794895D01*
X25665237Y-33794895D02*
X25436666Y-33794895D01*
X25436666Y-33794895D02*
X25360475Y-33756800D01*
X25360475Y-33756800D02*
X25322380Y-33718704D01*
X26541428Y-32994895D02*
X26160476Y-32994895D01*
X26160476Y-32994895D02*
X26122380Y-33375847D01*
X26122380Y-33375847D02*
X26160476Y-33337752D01*
X26160476Y-33337752D02*
X26236666Y-33299657D01*
X26236666Y-33299657D02*
X26427142Y-33299657D01*
X26427142Y-33299657D02*
X26503333Y-33337752D01*
X26503333Y-33337752D02*
X26541428Y-33375847D01*
X26541428Y-33375847D02*
X26579523Y-33452038D01*
X26579523Y-33452038D02*
X26579523Y-33642514D01*
X26579523Y-33642514D02*
X26541428Y-33718704D01*
X26541428Y-33718704D02*
X26503333Y-33756800D01*
X26503333Y-33756800D02*
X26427142Y-33794895D01*
X26427142Y-33794895D02*
X26236666Y-33794895D01*
X26236666Y-33794895D02*
X26160476Y-33756800D01*
X26160476Y-33756800D02*
X26122380Y-33718704D01*
X65205714Y-18119895D02*
X64939047Y-17738942D01*
X64748571Y-18119895D02*
X64748571Y-17319895D01*
X64748571Y-17319895D02*
X65053333Y-17319895D01*
X65053333Y-17319895D02*
X65129523Y-17357990D01*
X65129523Y-17357990D02*
X65167618Y-17396085D01*
X65167618Y-17396085D02*
X65205714Y-17472276D01*
X65205714Y-17472276D02*
X65205714Y-17586561D01*
X65205714Y-17586561D02*
X65167618Y-17662752D01*
X65167618Y-17662752D02*
X65129523Y-17700847D01*
X65129523Y-17700847D02*
X65053333Y-17738942D01*
X65053333Y-17738942D02*
X64748571Y-17738942D01*
X65967618Y-18119895D02*
X65510475Y-18119895D01*
X65739047Y-18119895D02*
X65739047Y-17319895D01*
X65739047Y-17319895D02*
X65662856Y-17434180D01*
X65662856Y-17434180D02*
X65586666Y-17510371D01*
X65586666Y-17510371D02*
X65510475Y-17548466D01*
X66234285Y-17319895D02*
X66729523Y-17319895D01*
X66729523Y-17319895D02*
X66462857Y-17624657D01*
X66462857Y-17624657D02*
X66577142Y-17624657D01*
X66577142Y-17624657D02*
X66653333Y-17662752D01*
X66653333Y-17662752D02*
X66691428Y-17700847D01*
X66691428Y-17700847D02*
X66729523Y-17777038D01*
X66729523Y-17777038D02*
X66729523Y-17967514D01*
X66729523Y-17967514D02*
X66691428Y-18043704D01*
X66691428Y-18043704D02*
X66653333Y-18081800D01*
X66653333Y-18081800D02*
X66577142Y-18119895D01*
X66577142Y-18119895D02*
X66348571Y-18119895D01*
X66348571Y-18119895D02*
X66272380Y-18081800D01*
X66272380Y-18081800D02*
X66234285Y-18043704D01*
X68153333Y-18674895D02*
X68153333Y-19246323D01*
X68153333Y-19246323D02*
X68115238Y-19360609D01*
X68115238Y-19360609D02*
X68039047Y-19436800D01*
X68039047Y-19436800D02*
X67924762Y-19474895D01*
X67924762Y-19474895D02*
X67848571Y-19474895D01*
X68458095Y-18674895D02*
X68991429Y-18674895D01*
X68991429Y-18674895D02*
X68648571Y-19474895D01*
X52408704Y-53304285D02*
X52446800Y-53342381D01*
X52446800Y-53342381D02*
X52484895Y-53456666D01*
X52484895Y-53456666D02*
X52484895Y-53532857D01*
X52484895Y-53532857D02*
X52446800Y-53647143D01*
X52446800Y-53647143D02*
X52370609Y-53723333D01*
X52370609Y-53723333D02*
X52294419Y-53761428D01*
X52294419Y-53761428D02*
X52142038Y-53799524D01*
X52142038Y-53799524D02*
X52027752Y-53799524D01*
X52027752Y-53799524D02*
X51875371Y-53761428D01*
X51875371Y-53761428D02*
X51799180Y-53723333D01*
X51799180Y-53723333D02*
X51722990Y-53647143D01*
X51722990Y-53647143D02*
X51684895Y-53532857D01*
X51684895Y-53532857D02*
X51684895Y-53456666D01*
X51684895Y-53456666D02*
X51722990Y-53342381D01*
X51722990Y-53342381D02*
X51761085Y-53304285D01*
X52484895Y-52542381D02*
X52484895Y-52999524D01*
X52484895Y-52770952D02*
X51684895Y-52770952D01*
X51684895Y-52770952D02*
X51799180Y-52847143D01*
X51799180Y-52847143D02*
X51875371Y-52923333D01*
X51875371Y-52923333D02*
X51913466Y-52999524D01*
X51684895Y-52047142D02*
X51684895Y-51970952D01*
X51684895Y-51970952D02*
X51722990Y-51894761D01*
X51722990Y-51894761D02*
X51761085Y-51856666D01*
X51761085Y-51856666D02*
X51837276Y-51818571D01*
X51837276Y-51818571D02*
X51989657Y-51780476D01*
X51989657Y-51780476D02*
X52180133Y-51780476D01*
X52180133Y-51780476D02*
X52332514Y-51818571D01*
X52332514Y-51818571D02*
X52408704Y-51856666D01*
X52408704Y-51856666D02*
X52446800Y-51894761D01*
X52446800Y-51894761D02*
X52484895Y-51970952D01*
X52484895Y-51970952D02*
X52484895Y-52047142D01*
X52484895Y-52047142D02*
X52446800Y-52123333D01*
X52446800Y-52123333D02*
X52408704Y-52161428D01*
X52408704Y-52161428D02*
X52332514Y-52199523D01*
X52332514Y-52199523D02*
X52180133Y-52237619D01*
X52180133Y-52237619D02*
X51989657Y-52237619D01*
X51989657Y-52237619D02*
X51837276Y-52199523D01*
X51837276Y-52199523D02*
X51761085Y-52161428D01*
X51761085Y-52161428D02*
X51722990Y-52123333D01*
X51722990Y-52123333D02*
X51684895Y-52047142D01*
X27908704Y-20663332D02*
X27946800Y-20701428D01*
X27946800Y-20701428D02*
X27984895Y-20815713D01*
X27984895Y-20815713D02*
X27984895Y-20891904D01*
X27984895Y-20891904D02*
X27946800Y-21006190D01*
X27946800Y-21006190D02*
X27870609Y-21082380D01*
X27870609Y-21082380D02*
X27794419Y-21120475D01*
X27794419Y-21120475D02*
X27642038Y-21158571D01*
X27642038Y-21158571D02*
X27527752Y-21158571D01*
X27527752Y-21158571D02*
X27375371Y-21120475D01*
X27375371Y-21120475D02*
X27299180Y-21082380D01*
X27299180Y-21082380D02*
X27222990Y-21006190D01*
X27222990Y-21006190D02*
X27184895Y-20891904D01*
X27184895Y-20891904D02*
X27184895Y-20815713D01*
X27184895Y-20815713D02*
X27222990Y-20701428D01*
X27222990Y-20701428D02*
X27261085Y-20663332D01*
X27261085Y-20358571D02*
X27222990Y-20320475D01*
X27222990Y-20320475D02*
X27184895Y-20244285D01*
X27184895Y-20244285D02*
X27184895Y-20053809D01*
X27184895Y-20053809D02*
X27222990Y-19977618D01*
X27222990Y-19977618D02*
X27261085Y-19939523D01*
X27261085Y-19939523D02*
X27337276Y-19901428D01*
X27337276Y-19901428D02*
X27413466Y-19901428D01*
X27413466Y-19901428D02*
X27527752Y-19939523D01*
X27527752Y-19939523D02*
X27984895Y-20396666D01*
X27984895Y-20396666D02*
X27984895Y-19901428D01*
X47184895Y-27589523D02*
X47832514Y-27589523D01*
X47832514Y-27589523D02*
X47908704Y-27551428D01*
X47908704Y-27551428D02*
X47946800Y-27513333D01*
X47946800Y-27513333D02*
X47984895Y-27437142D01*
X47984895Y-27437142D02*
X47984895Y-27284761D01*
X47984895Y-27284761D02*
X47946800Y-27208571D01*
X47946800Y-27208571D02*
X47908704Y-27170476D01*
X47908704Y-27170476D02*
X47832514Y-27132380D01*
X47832514Y-27132380D02*
X47184895Y-27132380D01*
X47451561Y-26408571D02*
X47984895Y-26408571D01*
X47146800Y-26599047D02*
X47718228Y-26789524D01*
X47718228Y-26789524D02*
X47718228Y-26294285D01*
X39905714Y-37744895D02*
X39639047Y-37363942D01*
X39448571Y-37744895D02*
X39448571Y-36944895D01*
X39448571Y-36944895D02*
X39753333Y-36944895D01*
X39753333Y-36944895D02*
X39829523Y-36982990D01*
X39829523Y-36982990D02*
X39867618Y-37021085D01*
X39867618Y-37021085D02*
X39905714Y-37097276D01*
X39905714Y-37097276D02*
X39905714Y-37211561D01*
X39905714Y-37211561D02*
X39867618Y-37287752D01*
X39867618Y-37287752D02*
X39829523Y-37325847D01*
X39829523Y-37325847D02*
X39753333Y-37363942D01*
X39753333Y-37363942D02*
X39448571Y-37363942D01*
X40210475Y-37021085D02*
X40248571Y-36982990D01*
X40248571Y-36982990D02*
X40324761Y-36944895D01*
X40324761Y-36944895D02*
X40515237Y-36944895D01*
X40515237Y-36944895D02*
X40591428Y-36982990D01*
X40591428Y-36982990D02*
X40629523Y-37021085D01*
X40629523Y-37021085D02*
X40667618Y-37097276D01*
X40667618Y-37097276D02*
X40667618Y-37173466D01*
X40667618Y-37173466D02*
X40629523Y-37287752D01*
X40629523Y-37287752D02*
X40172380Y-37744895D01*
X40172380Y-37744895D02*
X40667618Y-37744895D01*
X41124761Y-37287752D02*
X41048571Y-37249657D01*
X41048571Y-37249657D02*
X41010476Y-37211561D01*
X41010476Y-37211561D02*
X40972380Y-37135371D01*
X40972380Y-37135371D02*
X40972380Y-37097276D01*
X40972380Y-37097276D02*
X41010476Y-37021085D01*
X41010476Y-37021085D02*
X41048571Y-36982990D01*
X41048571Y-36982990D02*
X41124761Y-36944895D01*
X41124761Y-36944895D02*
X41277142Y-36944895D01*
X41277142Y-36944895D02*
X41353333Y-36982990D01*
X41353333Y-36982990D02*
X41391428Y-37021085D01*
X41391428Y-37021085D02*
X41429523Y-37097276D01*
X41429523Y-37097276D02*
X41429523Y-37135371D01*
X41429523Y-37135371D02*
X41391428Y-37211561D01*
X41391428Y-37211561D02*
X41353333Y-37249657D01*
X41353333Y-37249657D02*
X41277142Y-37287752D01*
X41277142Y-37287752D02*
X41124761Y-37287752D01*
X41124761Y-37287752D02*
X41048571Y-37325847D01*
X41048571Y-37325847D02*
X41010476Y-37363942D01*
X41010476Y-37363942D02*
X40972380Y-37440133D01*
X40972380Y-37440133D02*
X40972380Y-37592514D01*
X40972380Y-37592514D02*
X41010476Y-37668704D01*
X41010476Y-37668704D02*
X41048571Y-37706800D01*
X41048571Y-37706800D02*
X41124761Y-37744895D01*
X41124761Y-37744895D02*
X41277142Y-37744895D01*
X41277142Y-37744895D02*
X41353333Y-37706800D01*
X41353333Y-37706800D02*
X41391428Y-37668704D01*
X41391428Y-37668704D02*
X41429523Y-37592514D01*
X41429523Y-37592514D02*
X41429523Y-37440133D01*
X41429523Y-37440133D02*
X41391428Y-37363942D01*
X41391428Y-37363942D02*
X41353333Y-37325847D01*
X41353333Y-37325847D02*
X41277142Y-37287752D01*
X41805714Y-16044895D02*
X41539047Y-15663942D01*
X41348571Y-16044895D02*
X41348571Y-15244895D01*
X41348571Y-15244895D02*
X41653333Y-15244895D01*
X41653333Y-15244895D02*
X41729523Y-15282990D01*
X41729523Y-15282990D02*
X41767618Y-15321085D01*
X41767618Y-15321085D02*
X41805714Y-15397276D01*
X41805714Y-15397276D02*
X41805714Y-15511561D01*
X41805714Y-15511561D02*
X41767618Y-15587752D01*
X41767618Y-15587752D02*
X41729523Y-15625847D01*
X41729523Y-15625847D02*
X41653333Y-15663942D01*
X41653333Y-15663942D02*
X41348571Y-15663942D01*
X42072380Y-15244895D02*
X42567618Y-15244895D01*
X42567618Y-15244895D02*
X42300952Y-15549657D01*
X42300952Y-15549657D02*
X42415237Y-15549657D01*
X42415237Y-15549657D02*
X42491428Y-15587752D01*
X42491428Y-15587752D02*
X42529523Y-15625847D01*
X42529523Y-15625847D02*
X42567618Y-15702038D01*
X42567618Y-15702038D02*
X42567618Y-15892514D01*
X42567618Y-15892514D02*
X42529523Y-15968704D01*
X42529523Y-15968704D02*
X42491428Y-16006800D01*
X42491428Y-16006800D02*
X42415237Y-16044895D01*
X42415237Y-16044895D02*
X42186666Y-16044895D01*
X42186666Y-16044895D02*
X42110475Y-16006800D01*
X42110475Y-16006800D02*
X42072380Y-15968704D01*
X42834285Y-15244895D02*
X43367619Y-15244895D01*
X43367619Y-15244895D02*
X43024761Y-16044895D01*
X50386667Y-8832395D02*
X50120000Y-8451442D01*
X49929524Y-8832395D02*
X49929524Y-8032395D01*
X49929524Y-8032395D02*
X50234286Y-8032395D01*
X50234286Y-8032395D02*
X50310476Y-8070490D01*
X50310476Y-8070490D02*
X50348571Y-8108585D01*
X50348571Y-8108585D02*
X50386667Y-8184776D01*
X50386667Y-8184776D02*
X50386667Y-8299061D01*
X50386667Y-8299061D02*
X50348571Y-8375252D01*
X50348571Y-8375252D02*
X50310476Y-8413347D01*
X50310476Y-8413347D02*
X50234286Y-8451442D01*
X50234286Y-8451442D02*
X49929524Y-8451442D01*
X50691428Y-8108585D02*
X50729524Y-8070490D01*
X50729524Y-8070490D02*
X50805714Y-8032395D01*
X50805714Y-8032395D02*
X50996190Y-8032395D01*
X50996190Y-8032395D02*
X51072381Y-8070490D01*
X51072381Y-8070490D02*
X51110476Y-8108585D01*
X51110476Y-8108585D02*
X51148571Y-8184776D01*
X51148571Y-8184776D02*
X51148571Y-8260966D01*
X51148571Y-8260966D02*
X51110476Y-8375252D01*
X51110476Y-8375252D02*
X50653333Y-8832395D01*
X50653333Y-8832395D02*
X51148571Y-8832395D01*
X38893809Y-29163585D02*
X38817619Y-29125490D01*
X38817619Y-29125490D02*
X38741428Y-29049300D01*
X38741428Y-29049300D02*
X38627142Y-28935014D01*
X38627142Y-28935014D02*
X38550952Y-28896919D01*
X38550952Y-28896919D02*
X38474761Y-28896919D01*
X38512857Y-29087395D02*
X38436666Y-29049300D01*
X38436666Y-29049300D02*
X38360476Y-28973109D01*
X38360476Y-28973109D02*
X38322380Y-28820728D01*
X38322380Y-28820728D02*
X38322380Y-28554061D01*
X38322380Y-28554061D02*
X38360476Y-28401680D01*
X38360476Y-28401680D02*
X38436666Y-28325490D01*
X38436666Y-28325490D02*
X38512857Y-28287395D01*
X38512857Y-28287395D02*
X38665238Y-28287395D01*
X38665238Y-28287395D02*
X38741428Y-28325490D01*
X38741428Y-28325490D02*
X38817619Y-28401680D01*
X38817619Y-28401680D02*
X38855714Y-28554061D01*
X38855714Y-28554061D02*
X38855714Y-28820728D01*
X38855714Y-28820728D02*
X38817619Y-28973109D01*
X38817619Y-28973109D02*
X38741428Y-29049300D01*
X38741428Y-29049300D02*
X38665238Y-29087395D01*
X38665238Y-29087395D02*
X38512857Y-29087395D01*
X39160475Y-28363585D02*
X39198571Y-28325490D01*
X39198571Y-28325490D02*
X39274761Y-28287395D01*
X39274761Y-28287395D02*
X39465237Y-28287395D01*
X39465237Y-28287395D02*
X39541428Y-28325490D01*
X39541428Y-28325490D02*
X39579523Y-28363585D01*
X39579523Y-28363585D02*
X39617618Y-28439776D01*
X39617618Y-28439776D02*
X39617618Y-28515966D01*
X39617618Y-28515966D02*
X39579523Y-28630252D01*
X39579523Y-28630252D02*
X39122380Y-29087395D01*
X39122380Y-29087395D02*
X39617618Y-29087395D01*
X41490476Y-40044895D02*
X41490476Y-40692514D01*
X41490476Y-40692514D02*
X41528571Y-40768704D01*
X41528571Y-40768704D02*
X41566666Y-40806800D01*
X41566666Y-40806800D02*
X41642857Y-40844895D01*
X41642857Y-40844895D02*
X41795238Y-40844895D01*
X41795238Y-40844895D02*
X41871428Y-40806800D01*
X41871428Y-40806800D02*
X41909523Y-40768704D01*
X41909523Y-40768704D02*
X41947619Y-40692514D01*
X41947619Y-40692514D02*
X41947619Y-40044895D01*
X42709523Y-40044895D02*
X42328571Y-40044895D01*
X42328571Y-40044895D02*
X42290475Y-40425847D01*
X42290475Y-40425847D02*
X42328571Y-40387752D01*
X42328571Y-40387752D02*
X42404761Y-40349657D01*
X42404761Y-40349657D02*
X42595237Y-40349657D01*
X42595237Y-40349657D02*
X42671428Y-40387752D01*
X42671428Y-40387752D02*
X42709523Y-40425847D01*
X42709523Y-40425847D02*
X42747618Y-40502038D01*
X42747618Y-40502038D02*
X42747618Y-40692514D01*
X42747618Y-40692514D02*
X42709523Y-40768704D01*
X42709523Y-40768704D02*
X42671428Y-40806800D01*
X42671428Y-40806800D02*
X42595237Y-40844895D01*
X42595237Y-40844895D02*
X42404761Y-40844895D01*
X42404761Y-40844895D02*
X42328571Y-40806800D01*
X42328571Y-40806800D02*
X42290475Y-40768704D01*
X36555714Y-39368704D02*
X36517618Y-39406800D01*
X36517618Y-39406800D02*
X36403333Y-39444895D01*
X36403333Y-39444895D02*
X36327142Y-39444895D01*
X36327142Y-39444895D02*
X36212856Y-39406800D01*
X36212856Y-39406800D02*
X36136666Y-39330609D01*
X36136666Y-39330609D02*
X36098571Y-39254419D01*
X36098571Y-39254419D02*
X36060475Y-39102038D01*
X36060475Y-39102038D02*
X36060475Y-38987752D01*
X36060475Y-38987752D02*
X36098571Y-38835371D01*
X36098571Y-38835371D02*
X36136666Y-38759180D01*
X36136666Y-38759180D02*
X36212856Y-38682990D01*
X36212856Y-38682990D02*
X36327142Y-38644895D01*
X36327142Y-38644895D02*
X36403333Y-38644895D01*
X36403333Y-38644895D02*
X36517618Y-38682990D01*
X36517618Y-38682990D02*
X36555714Y-38721085D01*
X37317618Y-39444895D02*
X36860475Y-39444895D01*
X37089047Y-39444895D02*
X37089047Y-38644895D01*
X37089047Y-38644895D02*
X37012856Y-38759180D01*
X37012856Y-38759180D02*
X36936666Y-38835371D01*
X36936666Y-38835371D02*
X36860475Y-38873466D01*
X37774761Y-38987752D02*
X37698571Y-38949657D01*
X37698571Y-38949657D02*
X37660476Y-38911561D01*
X37660476Y-38911561D02*
X37622380Y-38835371D01*
X37622380Y-38835371D02*
X37622380Y-38797276D01*
X37622380Y-38797276D02*
X37660476Y-38721085D01*
X37660476Y-38721085D02*
X37698571Y-38682990D01*
X37698571Y-38682990D02*
X37774761Y-38644895D01*
X37774761Y-38644895D02*
X37927142Y-38644895D01*
X37927142Y-38644895D02*
X38003333Y-38682990D01*
X38003333Y-38682990D02*
X38041428Y-38721085D01*
X38041428Y-38721085D02*
X38079523Y-38797276D01*
X38079523Y-38797276D02*
X38079523Y-38835371D01*
X38079523Y-38835371D02*
X38041428Y-38911561D01*
X38041428Y-38911561D02*
X38003333Y-38949657D01*
X38003333Y-38949657D02*
X37927142Y-38987752D01*
X37927142Y-38987752D02*
X37774761Y-38987752D01*
X37774761Y-38987752D02*
X37698571Y-39025847D01*
X37698571Y-39025847D02*
X37660476Y-39063942D01*
X37660476Y-39063942D02*
X37622380Y-39140133D01*
X37622380Y-39140133D02*
X37622380Y-39292514D01*
X37622380Y-39292514D02*
X37660476Y-39368704D01*
X37660476Y-39368704D02*
X37698571Y-39406800D01*
X37698571Y-39406800D02*
X37774761Y-39444895D01*
X37774761Y-39444895D02*
X37927142Y-39444895D01*
X37927142Y-39444895D02*
X38003333Y-39406800D01*
X38003333Y-39406800D02*
X38041428Y-39368704D01*
X38041428Y-39368704D02*
X38079523Y-39292514D01*
X38079523Y-39292514D02*
X38079523Y-39140133D01*
X38079523Y-39140133D02*
X38041428Y-39063942D01*
X38041428Y-39063942D02*
X38003333Y-39025847D01*
X38003333Y-39025847D02*
X37927142Y-38987752D01*
X46155714Y-16044895D02*
X45889047Y-15663942D01*
X45698571Y-16044895D02*
X45698571Y-15244895D01*
X45698571Y-15244895D02*
X46003333Y-15244895D01*
X46003333Y-15244895D02*
X46079523Y-15282990D01*
X46079523Y-15282990D02*
X46117618Y-15321085D01*
X46117618Y-15321085D02*
X46155714Y-15397276D01*
X46155714Y-15397276D02*
X46155714Y-15511561D01*
X46155714Y-15511561D02*
X46117618Y-15587752D01*
X46117618Y-15587752D02*
X46079523Y-15625847D01*
X46079523Y-15625847D02*
X46003333Y-15663942D01*
X46003333Y-15663942D02*
X45698571Y-15663942D01*
X46460475Y-15321085D02*
X46498571Y-15282990D01*
X46498571Y-15282990D02*
X46574761Y-15244895D01*
X46574761Y-15244895D02*
X46765237Y-15244895D01*
X46765237Y-15244895D02*
X46841428Y-15282990D01*
X46841428Y-15282990D02*
X46879523Y-15321085D01*
X46879523Y-15321085D02*
X46917618Y-15397276D01*
X46917618Y-15397276D02*
X46917618Y-15473466D01*
X46917618Y-15473466D02*
X46879523Y-15587752D01*
X46879523Y-15587752D02*
X46422380Y-16044895D01*
X46422380Y-16044895D02*
X46917618Y-16044895D01*
X47412857Y-15244895D02*
X47489047Y-15244895D01*
X47489047Y-15244895D02*
X47565238Y-15282990D01*
X47565238Y-15282990D02*
X47603333Y-15321085D01*
X47603333Y-15321085D02*
X47641428Y-15397276D01*
X47641428Y-15397276D02*
X47679523Y-15549657D01*
X47679523Y-15549657D02*
X47679523Y-15740133D01*
X47679523Y-15740133D02*
X47641428Y-15892514D01*
X47641428Y-15892514D02*
X47603333Y-15968704D01*
X47603333Y-15968704D02*
X47565238Y-16006800D01*
X47565238Y-16006800D02*
X47489047Y-16044895D01*
X47489047Y-16044895D02*
X47412857Y-16044895D01*
X47412857Y-16044895D02*
X47336666Y-16006800D01*
X47336666Y-16006800D02*
X47298571Y-15968704D01*
X47298571Y-15968704D02*
X47260476Y-15892514D01*
X47260476Y-15892514D02*
X47222380Y-15740133D01*
X47222380Y-15740133D02*
X47222380Y-15549657D01*
X47222380Y-15549657D02*
X47260476Y-15397276D01*
X47260476Y-15397276D02*
X47298571Y-15321085D01*
X47298571Y-15321085D02*
X47336666Y-15282990D01*
X47336666Y-15282990D02*
X47412857Y-15244895D01*
X55168704Y-39984285D02*
X55206800Y-40022381D01*
X55206800Y-40022381D02*
X55244895Y-40136666D01*
X55244895Y-40136666D02*
X55244895Y-40212857D01*
X55244895Y-40212857D02*
X55206800Y-40327143D01*
X55206800Y-40327143D02*
X55130609Y-40403333D01*
X55130609Y-40403333D02*
X55054419Y-40441428D01*
X55054419Y-40441428D02*
X54902038Y-40479524D01*
X54902038Y-40479524D02*
X54787752Y-40479524D01*
X54787752Y-40479524D02*
X54635371Y-40441428D01*
X54635371Y-40441428D02*
X54559180Y-40403333D01*
X54559180Y-40403333D02*
X54482990Y-40327143D01*
X54482990Y-40327143D02*
X54444895Y-40212857D01*
X54444895Y-40212857D02*
X54444895Y-40136666D01*
X54444895Y-40136666D02*
X54482990Y-40022381D01*
X54482990Y-40022381D02*
X54521085Y-39984285D01*
X55244895Y-39222381D02*
X55244895Y-39679524D01*
X55244895Y-39450952D02*
X54444895Y-39450952D01*
X54444895Y-39450952D02*
X54559180Y-39527143D01*
X54559180Y-39527143D02*
X54635371Y-39603333D01*
X54635371Y-39603333D02*
X54673466Y-39679524D01*
X54521085Y-38917619D02*
X54482990Y-38879523D01*
X54482990Y-38879523D02*
X54444895Y-38803333D01*
X54444895Y-38803333D02*
X54444895Y-38612857D01*
X54444895Y-38612857D02*
X54482990Y-38536666D01*
X54482990Y-38536666D02*
X54521085Y-38498571D01*
X54521085Y-38498571D02*
X54597276Y-38460476D01*
X54597276Y-38460476D02*
X54673466Y-38460476D01*
X54673466Y-38460476D02*
X54787752Y-38498571D01*
X54787752Y-38498571D02*
X55244895Y-38955714D01*
X55244895Y-38955714D02*
X55244895Y-38460476D01*
X18284895Y-44869285D02*
X17903942Y-45135952D01*
X18284895Y-45326428D02*
X17484895Y-45326428D01*
X17484895Y-45326428D02*
X17484895Y-45021666D01*
X17484895Y-45021666D02*
X17522990Y-44945476D01*
X17522990Y-44945476D02*
X17561085Y-44907381D01*
X17561085Y-44907381D02*
X17637276Y-44869285D01*
X17637276Y-44869285D02*
X17751561Y-44869285D01*
X17751561Y-44869285D02*
X17827752Y-44907381D01*
X17827752Y-44907381D02*
X17865847Y-44945476D01*
X17865847Y-44945476D02*
X17903942Y-45021666D01*
X17903942Y-45021666D02*
X17903942Y-45326428D01*
X17561085Y-44564524D02*
X17522990Y-44526428D01*
X17522990Y-44526428D02*
X17484895Y-44450238D01*
X17484895Y-44450238D02*
X17484895Y-44259762D01*
X17484895Y-44259762D02*
X17522990Y-44183571D01*
X17522990Y-44183571D02*
X17561085Y-44145476D01*
X17561085Y-44145476D02*
X17637276Y-44107381D01*
X17637276Y-44107381D02*
X17713466Y-44107381D01*
X17713466Y-44107381D02*
X17827752Y-44145476D01*
X17827752Y-44145476D02*
X18284895Y-44602619D01*
X18284895Y-44602619D02*
X18284895Y-44107381D01*
X17484895Y-43840714D02*
X17484895Y-43307380D01*
X17484895Y-43307380D02*
X18284895Y-43650238D01*
X14808704Y-46994285D02*
X14846800Y-47032381D01*
X14846800Y-47032381D02*
X14884895Y-47146666D01*
X14884895Y-47146666D02*
X14884895Y-47222857D01*
X14884895Y-47222857D02*
X14846800Y-47337143D01*
X14846800Y-47337143D02*
X14770609Y-47413333D01*
X14770609Y-47413333D02*
X14694419Y-47451428D01*
X14694419Y-47451428D02*
X14542038Y-47489524D01*
X14542038Y-47489524D02*
X14427752Y-47489524D01*
X14427752Y-47489524D02*
X14275371Y-47451428D01*
X14275371Y-47451428D02*
X14199180Y-47413333D01*
X14199180Y-47413333D02*
X14122990Y-47337143D01*
X14122990Y-47337143D02*
X14084895Y-47222857D01*
X14084895Y-47222857D02*
X14084895Y-47146666D01*
X14084895Y-47146666D02*
X14122990Y-47032381D01*
X14122990Y-47032381D02*
X14161085Y-46994285D01*
X14161085Y-46689524D02*
X14122990Y-46651428D01*
X14122990Y-46651428D02*
X14084895Y-46575238D01*
X14084895Y-46575238D02*
X14084895Y-46384762D01*
X14084895Y-46384762D02*
X14122990Y-46308571D01*
X14122990Y-46308571D02*
X14161085Y-46270476D01*
X14161085Y-46270476D02*
X14237276Y-46232381D01*
X14237276Y-46232381D02*
X14313466Y-46232381D01*
X14313466Y-46232381D02*
X14427752Y-46270476D01*
X14427752Y-46270476D02*
X14884895Y-46727619D01*
X14884895Y-46727619D02*
X14884895Y-46232381D01*
X14084895Y-45546666D02*
X14084895Y-45699047D01*
X14084895Y-45699047D02*
X14122990Y-45775238D01*
X14122990Y-45775238D02*
X14161085Y-45813333D01*
X14161085Y-45813333D02*
X14275371Y-45889523D01*
X14275371Y-45889523D02*
X14427752Y-45927619D01*
X14427752Y-45927619D02*
X14732514Y-45927619D01*
X14732514Y-45927619D02*
X14808704Y-45889523D01*
X14808704Y-45889523D02*
X14846800Y-45851428D01*
X14846800Y-45851428D02*
X14884895Y-45775238D01*
X14884895Y-45775238D02*
X14884895Y-45622857D01*
X14884895Y-45622857D02*
X14846800Y-45546666D01*
X14846800Y-45546666D02*
X14808704Y-45508571D01*
X14808704Y-45508571D02*
X14732514Y-45470476D01*
X14732514Y-45470476D02*
X14542038Y-45470476D01*
X14542038Y-45470476D02*
X14465847Y-45508571D01*
X14465847Y-45508571D02*
X14427752Y-45546666D01*
X14427752Y-45546666D02*
X14389657Y-45622857D01*
X14389657Y-45622857D02*
X14389657Y-45775238D01*
X14389657Y-45775238D02*
X14427752Y-45851428D01*
X14427752Y-45851428D02*
X14465847Y-45889523D01*
X14465847Y-45889523D02*
X14542038Y-45927619D01*
D10*
X70193866Y-27160951D02*
X70193866Y-26399047D01*
X70574819Y-26779999D02*
X69812914Y-26779999D01*
D12*
X51286667Y-34938704D02*
X51248571Y-34976800D01*
X51248571Y-34976800D02*
X51134286Y-35014895D01*
X51134286Y-35014895D02*
X51058095Y-35014895D01*
X51058095Y-35014895D02*
X50943809Y-34976800D01*
X50943809Y-34976800D02*
X50867619Y-34900609D01*
X50867619Y-34900609D02*
X50829524Y-34824419D01*
X50829524Y-34824419D02*
X50791428Y-34672038D01*
X50791428Y-34672038D02*
X50791428Y-34557752D01*
X50791428Y-34557752D02*
X50829524Y-34405371D01*
X50829524Y-34405371D02*
X50867619Y-34329180D01*
X50867619Y-34329180D02*
X50943809Y-34252990D01*
X50943809Y-34252990D02*
X51058095Y-34214895D01*
X51058095Y-34214895D02*
X51134286Y-34214895D01*
X51134286Y-34214895D02*
X51248571Y-34252990D01*
X51248571Y-34252990D02*
X51286667Y-34291085D01*
X51743809Y-34557752D02*
X51667619Y-34519657D01*
X51667619Y-34519657D02*
X51629524Y-34481561D01*
X51629524Y-34481561D02*
X51591428Y-34405371D01*
X51591428Y-34405371D02*
X51591428Y-34367276D01*
X51591428Y-34367276D02*
X51629524Y-34291085D01*
X51629524Y-34291085D02*
X51667619Y-34252990D01*
X51667619Y-34252990D02*
X51743809Y-34214895D01*
X51743809Y-34214895D02*
X51896190Y-34214895D01*
X51896190Y-34214895D02*
X51972381Y-34252990D01*
X51972381Y-34252990D02*
X52010476Y-34291085D01*
X52010476Y-34291085D02*
X52048571Y-34367276D01*
X52048571Y-34367276D02*
X52048571Y-34405371D01*
X52048571Y-34405371D02*
X52010476Y-34481561D01*
X52010476Y-34481561D02*
X51972381Y-34519657D01*
X51972381Y-34519657D02*
X51896190Y-34557752D01*
X51896190Y-34557752D02*
X51743809Y-34557752D01*
X51743809Y-34557752D02*
X51667619Y-34595847D01*
X51667619Y-34595847D02*
X51629524Y-34633942D01*
X51629524Y-34633942D02*
X51591428Y-34710133D01*
X51591428Y-34710133D02*
X51591428Y-34862514D01*
X51591428Y-34862514D02*
X51629524Y-34938704D01*
X51629524Y-34938704D02*
X51667619Y-34976800D01*
X51667619Y-34976800D02*
X51743809Y-35014895D01*
X51743809Y-35014895D02*
X51896190Y-35014895D01*
X51896190Y-35014895D02*
X51972381Y-34976800D01*
X51972381Y-34976800D02*
X52010476Y-34938704D01*
X52010476Y-34938704D02*
X52048571Y-34862514D01*
X52048571Y-34862514D02*
X52048571Y-34710133D01*
X52048571Y-34710133D02*
X52010476Y-34633942D01*
X52010476Y-34633942D02*
X51972381Y-34595847D01*
X51972381Y-34595847D02*
X51896190Y-34557752D01*
X62605714Y-44344895D02*
X62339047Y-43963942D01*
X62148571Y-44344895D02*
X62148571Y-43544895D01*
X62148571Y-43544895D02*
X62453333Y-43544895D01*
X62453333Y-43544895D02*
X62529523Y-43582990D01*
X62529523Y-43582990D02*
X62567618Y-43621085D01*
X62567618Y-43621085D02*
X62605714Y-43697276D01*
X62605714Y-43697276D02*
X62605714Y-43811561D01*
X62605714Y-43811561D02*
X62567618Y-43887752D01*
X62567618Y-43887752D02*
X62529523Y-43925847D01*
X62529523Y-43925847D02*
X62453333Y-43963942D01*
X62453333Y-43963942D02*
X62148571Y-43963942D01*
X63367618Y-44344895D02*
X62910475Y-44344895D01*
X63139047Y-44344895D02*
X63139047Y-43544895D01*
X63139047Y-43544895D02*
X63062856Y-43659180D01*
X63062856Y-43659180D02*
X62986666Y-43735371D01*
X62986666Y-43735371D02*
X62910475Y-43773466D01*
X63862857Y-43544895D02*
X63939047Y-43544895D01*
X63939047Y-43544895D02*
X64015238Y-43582990D01*
X64015238Y-43582990D02*
X64053333Y-43621085D01*
X64053333Y-43621085D02*
X64091428Y-43697276D01*
X64091428Y-43697276D02*
X64129523Y-43849657D01*
X64129523Y-43849657D02*
X64129523Y-44040133D01*
X64129523Y-44040133D02*
X64091428Y-44192514D01*
X64091428Y-44192514D02*
X64053333Y-44268704D01*
X64053333Y-44268704D02*
X64015238Y-44306800D01*
X64015238Y-44306800D02*
X63939047Y-44344895D01*
X63939047Y-44344895D02*
X63862857Y-44344895D01*
X63862857Y-44344895D02*
X63786666Y-44306800D01*
X63786666Y-44306800D02*
X63748571Y-44268704D01*
X63748571Y-44268704D02*
X63710476Y-44192514D01*
X63710476Y-44192514D02*
X63672380Y-44040133D01*
X63672380Y-44040133D02*
X63672380Y-43849657D01*
X63672380Y-43849657D02*
X63710476Y-43697276D01*
X63710476Y-43697276D02*
X63748571Y-43621085D01*
X63748571Y-43621085D02*
X63786666Y-43582990D01*
X63786666Y-43582990D02*
X63862857Y-43544895D01*
X43492380Y-7164895D02*
X43492380Y-7736323D01*
X43492380Y-7736323D02*
X43454285Y-7850609D01*
X43454285Y-7850609D02*
X43378094Y-7926800D01*
X43378094Y-7926800D02*
X43263809Y-7964895D01*
X43263809Y-7964895D02*
X43187618Y-7964895D01*
X44292380Y-7964895D02*
X43835237Y-7964895D01*
X44063809Y-7964895D02*
X44063809Y-7164895D01*
X44063809Y-7164895D02*
X43987618Y-7279180D01*
X43987618Y-7279180D02*
X43911428Y-7355371D01*
X43911428Y-7355371D02*
X43835237Y-7393466D01*
X44787619Y-7164895D02*
X44863809Y-7164895D01*
X44863809Y-7164895D02*
X44940000Y-7202990D01*
X44940000Y-7202990D02*
X44978095Y-7241085D01*
X44978095Y-7241085D02*
X45016190Y-7317276D01*
X45016190Y-7317276D02*
X45054285Y-7469657D01*
X45054285Y-7469657D02*
X45054285Y-7660133D01*
X45054285Y-7660133D02*
X45016190Y-7812514D01*
X45016190Y-7812514D02*
X44978095Y-7888704D01*
X44978095Y-7888704D02*
X44940000Y-7926800D01*
X44940000Y-7926800D02*
X44863809Y-7964895D01*
X44863809Y-7964895D02*
X44787619Y-7964895D01*
X44787619Y-7964895D02*
X44711428Y-7926800D01*
X44711428Y-7926800D02*
X44673333Y-7888704D01*
X44673333Y-7888704D02*
X44635238Y-7812514D01*
X44635238Y-7812514D02*
X44597142Y-7660133D01*
X44597142Y-7660133D02*
X44597142Y-7469657D01*
X44597142Y-7469657D02*
X44635238Y-7317276D01*
X44635238Y-7317276D02*
X44673333Y-7241085D01*
X44673333Y-7241085D02*
X44711428Y-7202990D01*
X44711428Y-7202990D02*
X44787619Y-7164895D01*
X44436667Y-16044895D02*
X44170000Y-15663942D01*
X43979524Y-16044895D02*
X43979524Y-15244895D01*
X43979524Y-15244895D02*
X44284286Y-15244895D01*
X44284286Y-15244895D02*
X44360476Y-15282990D01*
X44360476Y-15282990D02*
X44398571Y-15321085D01*
X44398571Y-15321085D02*
X44436667Y-15397276D01*
X44436667Y-15397276D02*
X44436667Y-15511561D01*
X44436667Y-15511561D02*
X44398571Y-15587752D01*
X44398571Y-15587752D02*
X44360476Y-15625847D01*
X44360476Y-15625847D02*
X44284286Y-15663942D01*
X44284286Y-15663942D02*
X43979524Y-15663942D01*
X44893809Y-15587752D02*
X44817619Y-15549657D01*
X44817619Y-15549657D02*
X44779524Y-15511561D01*
X44779524Y-15511561D02*
X44741428Y-15435371D01*
X44741428Y-15435371D02*
X44741428Y-15397276D01*
X44741428Y-15397276D02*
X44779524Y-15321085D01*
X44779524Y-15321085D02*
X44817619Y-15282990D01*
X44817619Y-15282990D02*
X44893809Y-15244895D01*
X44893809Y-15244895D02*
X45046190Y-15244895D01*
X45046190Y-15244895D02*
X45122381Y-15282990D01*
X45122381Y-15282990D02*
X45160476Y-15321085D01*
X45160476Y-15321085D02*
X45198571Y-15397276D01*
X45198571Y-15397276D02*
X45198571Y-15435371D01*
X45198571Y-15435371D02*
X45160476Y-15511561D01*
X45160476Y-15511561D02*
X45122381Y-15549657D01*
X45122381Y-15549657D02*
X45046190Y-15587752D01*
X45046190Y-15587752D02*
X44893809Y-15587752D01*
X44893809Y-15587752D02*
X44817619Y-15625847D01*
X44817619Y-15625847D02*
X44779524Y-15663942D01*
X44779524Y-15663942D02*
X44741428Y-15740133D01*
X44741428Y-15740133D02*
X44741428Y-15892514D01*
X44741428Y-15892514D02*
X44779524Y-15968704D01*
X44779524Y-15968704D02*
X44817619Y-16006800D01*
X44817619Y-16006800D02*
X44893809Y-16044895D01*
X44893809Y-16044895D02*
X45046190Y-16044895D01*
X45046190Y-16044895D02*
X45122381Y-16006800D01*
X45122381Y-16006800D02*
X45160476Y-15968704D01*
X45160476Y-15968704D02*
X45198571Y-15892514D01*
X45198571Y-15892514D02*
X45198571Y-15740133D01*
X45198571Y-15740133D02*
X45160476Y-15663942D01*
X45160476Y-15663942D02*
X45122381Y-15625847D01*
X45122381Y-15625847D02*
X45046190Y-15587752D01*
X55208704Y-42604285D02*
X55246800Y-42642381D01*
X55246800Y-42642381D02*
X55284895Y-42756666D01*
X55284895Y-42756666D02*
X55284895Y-42832857D01*
X55284895Y-42832857D02*
X55246800Y-42947143D01*
X55246800Y-42947143D02*
X55170609Y-43023333D01*
X55170609Y-43023333D02*
X55094419Y-43061428D01*
X55094419Y-43061428D02*
X54942038Y-43099524D01*
X54942038Y-43099524D02*
X54827752Y-43099524D01*
X54827752Y-43099524D02*
X54675371Y-43061428D01*
X54675371Y-43061428D02*
X54599180Y-43023333D01*
X54599180Y-43023333D02*
X54522990Y-42947143D01*
X54522990Y-42947143D02*
X54484895Y-42832857D01*
X54484895Y-42832857D02*
X54484895Y-42756666D01*
X54484895Y-42756666D02*
X54522990Y-42642381D01*
X54522990Y-42642381D02*
X54561085Y-42604285D01*
X55284895Y-41842381D02*
X55284895Y-42299524D01*
X55284895Y-42070952D02*
X54484895Y-42070952D01*
X54484895Y-42070952D02*
X54599180Y-42147143D01*
X54599180Y-42147143D02*
X54675371Y-42223333D01*
X54675371Y-42223333D02*
X54713466Y-42299524D01*
X54751561Y-41156666D02*
X55284895Y-41156666D01*
X54446800Y-41347142D02*
X55018228Y-41537619D01*
X55018228Y-41537619D02*
X55018228Y-41042380D01*
X31505714Y-33618704D02*
X31467618Y-33656800D01*
X31467618Y-33656800D02*
X31353333Y-33694895D01*
X31353333Y-33694895D02*
X31277142Y-33694895D01*
X31277142Y-33694895D02*
X31162856Y-33656800D01*
X31162856Y-33656800D02*
X31086666Y-33580609D01*
X31086666Y-33580609D02*
X31048571Y-33504419D01*
X31048571Y-33504419D02*
X31010475Y-33352038D01*
X31010475Y-33352038D02*
X31010475Y-33237752D01*
X31010475Y-33237752D02*
X31048571Y-33085371D01*
X31048571Y-33085371D02*
X31086666Y-33009180D01*
X31086666Y-33009180D02*
X31162856Y-32932990D01*
X31162856Y-32932990D02*
X31277142Y-32894895D01*
X31277142Y-32894895D02*
X31353333Y-32894895D01*
X31353333Y-32894895D02*
X31467618Y-32932990D01*
X31467618Y-32932990D02*
X31505714Y-32971085D01*
X31772380Y-32894895D02*
X32267618Y-32894895D01*
X32267618Y-32894895D02*
X32000952Y-33199657D01*
X32000952Y-33199657D02*
X32115237Y-33199657D01*
X32115237Y-33199657D02*
X32191428Y-33237752D01*
X32191428Y-33237752D02*
X32229523Y-33275847D01*
X32229523Y-33275847D02*
X32267618Y-33352038D01*
X32267618Y-33352038D02*
X32267618Y-33542514D01*
X32267618Y-33542514D02*
X32229523Y-33618704D01*
X32229523Y-33618704D02*
X32191428Y-33656800D01*
X32191428Y-33656800D02*
X32115237Y-33694895D01*
X32115237Y-33694895D02*
X31886666Y-33694895D01*
X31886666Y-33694895D02*
X31810475Y-33656800D01*
X31810475Y-33656800D02*
X31772380Y-33618704D01*
X32953333Y-33161561D02*
X32953333Y-33694895D01*
X32762857Y-32856800D02*
X32572380Y-33428228D01*
X32572380Y-33428228D02*
X33067619Y-33428228D01*
X9578704Y-29694285D02*
X9616800Y-29732381D01*
X9616800Y-29732381D02*
X9654895Y-29846666D01*
X9654895Y-29846666D02*
X9654895Y-29922857D01*
X9654895Y-29922857D02*
X9616800Y-30037143D01*
X9616800Y-30037143D02*
X9540609Y-30113333D01*
X9540609Y-30113333D02*
X9464419Y-30151428D01*
X9464419Y-30151428D02*
X9312038Y-30189524D01*
X9312038Y-30189524D02*
X9197752Y-30189524D01*
X9197752Y-30189524D02*
X9045371Y-30151428D01*
X9045371Y-30151428D02*
X8969180Y-30113333D01*
X8969180Y-30113333D02*
X8892990Y-30037143D01*
X8892990Y-30037143D02*
X8854895Y-29922857D01*
X8854895Y-29922857D02*
X8854895Y-29846666D01*
X8854895Y-29846666D02*
X8892990Y-29732381D01*
X8892990Y-29732381D02*
X8931085Y-29694285D01*
X8931085Y-29389524D02*
X8892990Y-29351428D01*
X8892990Y-29351428D02*
X8854895Y-29275238D01*
X8854895Y-29275238D02*
X8854895Y-29084762D01*
X8854895Y-29084762D02*
X8892990Y-29008571D01*
X8892990Y-29008571D02*
X8931085Y-28970476D01*
X8931085Y-28970476D02*
X9007276Y-28932381D01*
X9007276Y-28932381D02*
X9083466Y-28932381D01*
X9083466Y-28932381D02*
X9197752Y-28970476D01*
X9197752Y-28970476D02*
X9654895Y-29427619D01*
X9654895Y-29427619D02*
X9654895Y-28932381D01*
X9654895Y-28551428D02*
X9654895Y-28399047D01*
X9654895Y-28399047D02*
X9616800Y-28322857D01*
X9616800Y-28322857D02*
X9578704Y-28284761D01*
X9578704Y-28284761D02*
X9464419Y-28208571D01*
X9464419Y-28208571D02*
X9312038Y-28170476D01*
X9312038Y-28170476D02*
X9007276Y-28170476D01*
X9007276Y-28170476D02*
X8931085Y-28208571D01*
X8931085Y-28208571D02*
X8892990Y-28246666D01*
X8892990Y-28246666D02*
X8854895Y-28322857D01*
X8854895Y-28322857D02*
X8854895Y-28475238D01*
X8854895Y-28475238D02*
X8892990Y-28551428D01*
X8892990Y-28551428D02*
X8931085Y-28589523D01*
X8931085Y-28589523D02*
X9007276Y-28627619D01*
X9007276Y-28627619D02*
X9197752Y-28627619D01*
X9197752Y-28627619D02*
X9273942Y-28589523D01*
X9273942Y-28589523D02*
X9312038Y-28551428D01*
X9312038Y-28551428D02*
X9350133Y-28475238D01*
X9350133Y-28475238D02*
X9350133Y-28322857D01*
X9350133Y-28322857D02*
X9312038Y-28246666D01*
X9312038Y-28246666D02*
X9273942Y-28208571D01*
X9273942Y-28208571D02*
X9197752Y-28170476D01*
X19584895Y-18589523D02*
X20232514Y-18589523D01*
X20232514Y-18589523D02*
X20308704Y-18551428D01*
X20308704Y-18551428D02*
X20346800Y-18513333D01*
X20346800Y-18513333D02*
X20384895Y-18437142D01*
X20384895Y-18437142D02*
X20384895Y-18284761D01*
X20384895Y-18284761D02*
X20346800Y-18208571D01*
X20346800Y-18208571D02*
X20308704Y-18170476D01*
X20308704Y-18170476D02*
X20232514Y-18132380D01*
X20232514Y-18132380D02*
X19584895Y-18132380D01*
X19584895Y-17827619D02*
X19584895Y-17332381D01*
X19584895Y-17332381D02*
X19889657Y-17599047D01*
X19889657Y-17599047D02*
X19889657Y-17484762D01*
X19889657Y-17484762D02*
X19927752Y-17408571D01*
X19927752Y-17408571D02*
X19965847Y-17370476D01*
X19965847Y-17370476D02*
X20042038Y-17332381D01*
X20042038Y-17332381D02*
X20232514Y-17332381D01*
X20232514Y-17332381D02*
X20308704Y-17370476D01*
X20308704Y-17370476D02*
X20346800Y-17408571D01*
X20346800Y-17408571D02*
X20384895Y-17484762D01*
X20384895Y-17484762D02*
X20384895Y-17713333D01*
X20384895Y-17713333D02*
X20346800Y-17789524D01*
X20346800Y-17789524D02*
X20308704Y-17827619D01*
X30705714Y-54468704D02*
X30667618Y-54506800D01*
X30667618Y-54506800D02*
X30553333Y-54544895D01*
X30553333Y-54544895D02*
X30477142Y-54544895D01*
X30477142Y-54544895D02*
X30362856Y-54506800D01*
X30362856Y-54506800D02*
X30286666Y-54430609D01*
X30286666Y-54430609D02*
X30248571Y-54354419D01*
X30248571Y-54354419D02*
X30210475Y-54202038D01*
X30210475Y-54202038D02*
X30210475Y-54087752D01*
X30210475Y-54087752D02*
X30248571Y-53935371D01*
X30248571Y-53935371D02*
X30286666Y-53859180D01*
X30286666Y-53859180D02*
X30362856Y-53782990D01*
X30362856Y-53782990D02*
X30477142Y-53744895D01*
X30477142Y-53744895D02*
X30553333Y-53744895D01*
X30553333Y-53744895D02*
X30667618Y-53782990D01*
X30667618Y-53782990D02*
X30705714Y-53821085D01*
X30972380Y-53744895D02*
X31467618Y-53744895D01*
X31467618Y-53744895D02*
X31200952Y-54049657D01*
X31200952Y-54049657D02*
X31315237Y-54049657D01*
X31315237Y-54049657D02*
X31391428Y-54087752D01*
X31391428Y-54087752D02*
X31429523Y-54125847D01*
X31429523Y-54125847D02*
X31467618Y-54202038D01*
X31467618Y-54202038D02*
X31467618Y-54392514D01*
X31467618Y-54392514D02*
X31429523Y-54468704D01*
X31429523Y-54468704D02*
X31391428Y-54506800D01*
X31391428Y-54506800D02*
X31315237Y-54544895D01*
X31315237Y-54544895D02*
X31086666Y-54544895D01*
X31086666Y-54544895D02*
X31010475Y-54506800D01*
X31010475Y-54506800D02*
X30972380Y-54468704D01*
X31734285Y-53744895D02*
X32229523Y-53744895D01*
X32229523Y-53744895D02*
X31962857Y-54049657D01*
X31962857Y-54049657D02*
X32077142Y-54049657D01*
X32077142Y-54049657D02*
X32153333Y-54087752D01*
X32153333Y-54087752D02*
X32191428Y-54125847D01*
X32191428Y-54125847D02*
X32229523Y-54202038D01*
X32229523Y-54202038D02*
X32229523Y-54392514D01*
X32229523Y-54392514D02*
X32191428Y-54468704D01*
X32191428Y-54468704D02*
X32153333Y-54506800D01*
X32153333Y-54506800D02*
X32077142Y-54544895D01*
X32077142Y-54544895D02*
X31848571Y-54544895D01*
X31848571Y-54544895D02*
X31772380Y-54506800D01*
X31772380Y-54506800D02*
X31734285Y-54468704D01*
X62384895Y-58019285D02*
X62003942Y-58285952D01*
X62384895Y-58476428D02*
X61584895Y-58476428D01*
X61584895Y-58476428D02*
X61584895Y-58171666D01*
X61584895Y-58171666D02*
X61622990Y-58095476D01*
X61622990Y-58095476D02*
X61661085Y-58057381D01*
X61661085Y-58057381D02*
X61737276Y-58019285D01*
X61737276Y-58019285D02*
X61851561Y-58019285D01*
X61851561Y-58019285D02*
X61927752Y-58057381D01*
X61927752Y-58057381D02*
X61965847Y-58095476D01*
X61965847Y-58095476D02*
X62003942Y-58171666D01*
X62003942Y-58171666D02*
X62003942Y-58476428D01*
X61584895Y-57752619D02*
X61584895Y-57257381D01*
X61584895Y-57257381D02*
X61889657Y-57524047D01*
X61889657Y-57524047D02*
X61889657Y-57409762D01*
X61889657Y-57409762D02*
X61927752Y-57333571D01*
X61927752Y-57333571D02*
X61965847Y-57295476D01*
X61965847Y-57295476D02*
X62042038Y-57257381D01*
X62042038Y-57257381D02*
X62232514Y-57257381D01*
X62232514Y-57257381D02*
X62308704Y-57295476D01*
X62308704Y-57295476D02*
X62346800Y-57333571D01*
X62346800Y-57333571D02*
X62384895Y-57409762D01*
X62384895Y-57409762D02*
X62384895Y-57638333D01*
X62384895Y-57638333D02*
X62346800Y-57714524D01*
X62346800Y-57714524D02*
X62308704Y-57752619D01*
X61584895Y-56571666D02*
X61584895Y-56724047D01*
X61584895Y-56724047D02*
X61622990Y-56800238D01*
X61622990Y-56800238D02*
X61661085Y-56838333D01*
X61661085Y-56838333D02*
X61775371Y-56914523D01*
X61775371Y-56914523D02*
X61927752Y-56952619D01*
X61927752Y-56952619D02*
X62232514Y-56952619D01*
X62232514Y-56952619D02*
X62308704Y-56914523D01*
X62308704Y-56914523D02*
X62346800Y-56876428D01*
X62346800Y-56876428D02*
X62384895Y-56800238D01*
X62384895Y-56800238D02*
X62384895Y-56647857D01*
X62384895Y-56647857D02*
X62346800Y-56571666D01*
X62346800Y-56571666D02*
X62308704Y-56533571D01*
X62308704Y-56533571D02*
X62232514Y-56495476D01*
X62232514Y-56495476D02*
X62042038Y-56495476D01*
X62042038Y-56495476D02*
X61965847Y-56533571D01*
X61965847Y-56533571D02*
X61927752Y-56571666D01*
X61927752Y-56571666D02*
X61889657Y-56647857D01*
X61889657Y-56647857D02*
X61889657Y-56800238D01*
X61889657Y-56800238D02*
X61927752Y-56876428D01*
X61927752Y-56876428D02*
X61965847Y-56914523D01*
X61965847Y-56914523D02*
X62042038Y-56952619D01*
X52439048Y-58463942D02*
X52439048Y-58844895D01*
X52172381Y-58044895D02*
X52439048Y-58463942D01*
X52439048Y-58463942D02*
X52705714Y-58044895D01*
X53391428Y-58844895D02*
X52934285Y-58844895D01*
X53162857Y-58844895D02*
X53162857Y-58044895D01*
X53162857Y-58044895D02*
X53086666Y-58159180D01*
X53086666Y-58159180D02*
X53010476Y-58235371D01*
X53010476Y-58235371D02*
X52934285Y-58273466D01*
X9734895Y-36594285D02*
X9353942Y-36860952D01*
X9734895Y-37051428D02*
X8934895Y-37051428D01*
X8934895Y-37051428D02*
X8934895Y-36746666D01*
X8934895Y-36746666D02*
X8972990Y-36670476D01*
X8972990Y-36670476D02*
X9011085Y-36632381D01*
X9011085Y-36632381D02*
X9087276Y-36594285D01*
X9087276Y-36594285D02*
X9201561Y-36594285D01*
X9201561Y-36594285D02*
X9277752Y-36632381D01*
X9277752Y-36632381D02*
X9315847Y-36670476D01*
X9315847Y-36670476D02*
X9353942Y-36746666D01*
X9353942Y-36746666D02*
X9353942Y-37051428D01*
X9011085Y-36289524D02*
X8972990Y-36251428D01*
X8972990Y-36251428D02*
X8934895Y-36175238D01*
X8934895Y-36175238D02*
X8934895Y-35984762D01*
X8934895Y-35984762D02*
X8972990Y-35908571D01*
X8972990Y-35908571D02*
X9011085Y-35870476D01*
X9011085Y-35870476D02*
X9087276Y-35832381D01*
X9087276Y-35832381D02*
X9163466Y-35832381D01*
X9163466Y-35832381D02*
X9277752Y-35870476D01*
X9277752Y-35870476D02*
X9734895Y-36327619D01*
X9734895Y-36327619D02*
X9734895Y-35832381D01*
X8934895Y-35565714D02*
X8934895Y-35070476D01*
X8934895Y-35070476D02*
X9239657Y-35337142D01*
X9239657Y-35337142D02*
X9239657Y-35222857D01*
X9239657Y-35222857D02*
X9277752Y-35146666D01*
X9277752Y-35146666D02*
X9315847Y-35108571D01*
X9315847Y-35108571D02*
X9392038Y-35070476D01*
X9392038Y-35070476D02*
X9582514Y-35070476D01*
X9582514Y-35070476D02*
X9658704Y-35108571D01*
X9658704Y-35108571D02*
X9696800Y-35146666D01*
X9696800Y-35146666D02*
X9734895Y-35222857D01*
X9734895Y-35222857D02*
X9734895Y-35451428D01*
X9734895Y-35451428D02*
X9696800Y-35527619D01*
X9696800Y-35527619D02*
X9658704Y-35565714D01*
X10453333Y-19444895D02*
X10453333Y-20016323D01*
X10453333Y-20016323D02*
X10415238Y-20130609D01*
X10415238Y-20130609D02*
X10339047Y-20206800D01*
X10339047Y-20206800D02*
X10224762Y-20244895D01*
X10224762Y-20244895D02*
X10148571Y-20244895D01*
X11253333Y-20244895D02*
X10796190Y-20244895D01*
X11024762Y-20244895D02*
X11024762Y-19444895D01*
X11024762Y-19444895D02*
X10948571Y-19559180D01*
X10948571Y-19559180D02*
X10872381Y-19635371D01*
X10872381Y-19635371D02*
X10796190Y-19673466D01*
X36034895Y-37794285D02*
X35653942Y-38060952D01*
X36034895Y-38251428D02*
X35234895Y-38251428D01*
X35234895Y-38251428D02*
X35234895Y-37946666D01*
X35234895Y-37946666D02*
X35272990Y-37870476D01*
X35272990Y-37870476D02*
X35311085Y-37832381D01*
X35311085Y-37832381D02*
X35387276Y-37794285D01*
X35387276Y-37794285D02*
X35501561Y-37794285D01*
X35501561Y-37794285D02*
X35577752Y-37832381D01*
X35577752Y-37832381D02*
X35615847Y-37870476D01*
X35615847Y-37870476D02*
X35653942Y-37946666D01*
X35653942Y-37946666D02*
X35653942Y-38251428D01*
X35234895Y-37527619D02*
X35234895Y-37032381D01*
X35234895Y-37032381D02*
X35539657Y-37299047D01*
X35539657Y-37299047D02*
X35539657Y-37184762D01*
X35539657Y-37184762D02*
X35577752Y-37108571D01*
X35577752Y-37108571D02*
X35615847Y-37070476D01*
X35615847Y-37070476D02*
X35692038Y-37032381D01*
X35692038Y-37032381D02*
X35882514Y-37032381D01*
X35882514Y-37032381D02*
X35958704Y-37070476D01*
X35958704Y-37070476D02*
X35996800Y-37108571D01*
X35996800Y-37108571D02*
X36034895Y-37184762D01*
X36034895Y-37184762D02*
X36034895Y-37413333D01*
X36034895Y-37413333D02*
X35996800Y-37489524D01*
X35996800Y-37489524D02*
X35958704Y-37527619D01*
X35234895Y-36308571D02*
X35234895Y-36689523D01*
X35234895Y-36689523D02*
X35615847Y-36727619D01*
X35615847Y-36727619D02*
X35577752Y-36689523D01*
X35577752Y-36689523D02*
X35539657Y-36613333D01*
X35539657Y-36613333D02*
X35539657Y-36422857D01*
X35539657Y-36422857D02*
X35577752Y-36346666D01*
X35577752Y-36346666D02*
X35615847Y-36308571D01*
X35615847Y-36308571D02*
X35692038Y-36270476D01*
X35692038Y-36270476D02*
X35882514Y-36270476D01*
X35882514Y-36270476D02*
X35958704Y-36308571D01*
X35958704Y-36308571D02*
X35996800Y-36346666D01*
X35996800Y-36346666D02*
X36034895Y-36422857D01*
X36034895Y-36422857D02*
X36034895Y-36613333D01*
X36034895Y-36613333D02*
X35996800Y-36689523D01*
X35996800Y-36689523D02*
X35958704Y-36727619D01*
X39688704Y-53254285D02*
X39726800Y-53292381D01*
X39726800Y-53292381D02*
X39764895Y-53406666D01*
X39764895Y-53406666D02*
X39764895Y-53482857D01*
X39764895Y-53482857D02*
X39726800Y-53597143D01*
X39726800Y-53597143D02*
X39650609Y-53673333D01*
X39650609Y-53673333D02*
X39574419Y-53711428D01*
X39574419Y-53711428D02*
X39422038Y-53749524D01*
X39422038Y-53749524D02*
X39307752Y-53749524D01*
X39307752Y-53749524D02*
X39155371Y-53711428D01*
X39155371Y-53711428D02*
X39079180Y-53673333D01*
X39079180Y-53673333D02*
X39002990Y-53597143D01*
X39002990Y-53597143D02*
X38964895Y-53482857D01*
X38964895Y-53482857D02*
X38964895Y-53406666D01*
X38964895Y-53406666D02*
X39002990Y-53292381D01*
X39002990Y-53292381D02*
X39041085Y-53254285D01*
X39041085Y-52949524D02*
X39002990Y-52911428D01*
X39002990Y-52911428D02*
X38964895Y-52835238D01*
X38964895Y-52835238D02*
X38964895Y-52644762D01*
X38964895Y-52644762D02*
X39002990Y-52568571D01*
X39002990Y-52568571D02*
X39041085Y-52530476D01*
X39041085Y-52530476D02*
X39117276Y-52492381D01*
X39117276Y-52492381D02*
X39193466Y-52492381D01*
X39193466Y-52492381D02*
X39307752Y-52530476D01*
X39307752Y-52530476D02*
X39764895Y-52987619D01*
X39764895Y-52987619D02*
X39764895Y-52492381D01*
X39041085Y-52187619D02*
X39002990Y-52149523D01*
X39002990Y-52149523D02*
X38964895Y-52073333D01*
X38964895Y-52073333D02*
X38964895Y-51882857D01*
X38964895Y-51882857D02*
X39002990Y-51806666D01*
X39002990Y-51806666D02*
X39041085Y-51768571D01*
X39041085Y-51768571D02*
X39117276Y-51730476D01*
X39117276Y-51730476D02*
X39193466Y-51730476D01*
X39193466Y-51730476D02*
X39307752Y-51768571D01*
X39307752Y-51768571D02*
X39764895Y-52225714D01*
X39764895Y-52225714D02*
X39764895Y-51730476D01*
X18886667Y-35368704D02*
X18848571Y-35406800D01*
X18848571Y-35406800D02*
X18734286Y-35444895D01*
X18734286Y-35444895D02*
X18658095Y-35444895D01*
X18658095Y-35444895D02*
X18543809Y-35406800D01*
X18543809Y-35406800D02*
X18467619Y-35330609D01*
X18467619Y-35330609D02*
X18429524Y-35254419D01*
X18429524Y-35254419D02*
X18391428Y-35102038D01*
X18391428Y-35102038D02*
X18391428Y-34987752D01*
X18391428Y-34987752D02*
X18429524Y-34835371D01*
X18429524Y-34835371D02*
X18467619Y-34759180D01*
X18467619Y-34759180D02*
X18543809Y-34682990D01*
X18543809Y-34682990D02*
X18658095Y-34644895D01*
X18658095Y-34644895D02*
X18734286Y-34644895D01*
X18734286Y-34644895D02*
X18848571Y-34682990D01*
X18848571Y-34682990D02*
X18886667Y-34721085D01*
X19610476Y-34644895D02*
X19229524Y-34644895D01*
X19229524Y-34644895D02*
X19191428Y-35025847D01*
X19191428Y-35025847D02*
X19229524Y-34987752D01*
X19229524Y-34987752D02*
X19305714Y-34949657D01*
X19305714Y-34949657D02*
X19496190Y-34949657D01*
X19496190Y-34949657D02*
X19572381Y-34987752D01*
X19572381Y-34987752D02*
X19610476Y-35025847D01*
X19610476Y-35025847D02*
X19648571Y-35102038D01*
X19648571Y-35102038D02*
X19648571Y-35292514D01*
X19648571Y-35292514D02*
X19610476Y-35368704D01*
X19610476Y-35368704D02*
X19572381Y-35406800D01*
X19572381Y-35406800D02*
X19496190Y-35444895D01*
X19496190Y-35444895D02*
X19305714Y-35444895D01*
X19305714Y-35444895D02*
X19229524Y-35406800D01*
X19229524Y-35406800D02*
X19191428Y-35368704D01*
X68914895Y-35514285D02*
X68533942Y-35780952D01*
X68914895Y-35971428D02*
X68114895Y-35971428D01*
X68114895Y-35971428D02*
X68114895Y-35666666D01*
X68114895Y-35666666D02*
X68152990Y-35590476D01*
X68152990Y-35590476D02*
X68191085Y-35552381D01*
X68191085Y-35552381D02*
X68267276Y-35514285D01*
X68267276Y-35514285D02*
X68381561Y-35514285D01*
X68381561Y-35514285D02*
X68457752Y-35552381D01*
X68457752Y-35552381D02*
X68495847Y-35590476D01*
X68495847Y-35590476D02*
X68533942Y-35666666D01*
X68533942Y-35666666D02*
X68533942Y-35971428D01*
X68114895Y-35247619D02*
X68114895Y-34752381D01*
X68114895Y-34752381D02*
X68419657Y-35019047D01*
X68419657Y-35019047D02*
X68419657Y-34904762D01*
X68419657Y-34904762D02*
X68457752Y-34828571D01*
X68457752Y-34828571D02*
X68495847Y-34790476D01*
X68495847Y-34790476D02*
X68572038Y-34752381D01*
X68572038Y-34752381D02*
X68762514Y-34752381D01*
X68762514Y-34752381D02*
X68838704Y-34790476D01*
X68838704Y-34790476D02*
X68876800Y-34828571D01*
X68876800Y-34828571D02*
X68914895Y-34904762D01*
X68914895Y-34904762D02*
X68914895Y-35133333D01*
X68914895Y-35133333D02*
X68876800Y-35209524D01*
X68876800Y-35209524D02*
X68838704Y-35247619D01*
X68114895Y-34257142D02*
X68114895Y-34180952D01*
X68114895Y-34180952D02*
X68152990Y-34104761D01*
X68152990Y-34104761D02*
X68191085Y-34066666D01*
X68191085Y-34066666D02*
X68267276Y-34028571D01*
X68267276Y-34028571D02*
X68419657Y-33990476D01*
X68419657Y-33990476D02*
X68610133Y-33990476D01*
X68610133Y-33990476D02*
X68762514Y-34028571D01*
X68762514Y-34028571D02*
X68838704Y-34066666D01*
X68838704Y-34066666D02*
X68876800Y-34104761D01*
X68876800Y-34104761D02*
X68914895Y-34180952D01*
X68914895Y-34180952D02*
X68914895Y-34257142D01*
X68914895Y-34257142D02*
X68876800Y-34333333D01*
X68876800Y-34333333D02*
X68838704Y-34371428D01*
X68838704Y-34371428D02*
X68762514Y-34409523D01*
X68762514Y-34409523D02*
X68610133Y-34447619D01*
X68610133Y-34447619D02*
X68419657Y-34447619D01*
X68419657Y-34447619D02*
X68267276Y-34409523D01*
X68267276Y-34409523D02*
X68191085Y-34371428D01*
X68191085Y-34371428D02*
X68152990Y-34333333D01*
X68152990Y-34333333D02*
X68114895Y-34257142D01*
X15104895Y-26944285D02*
X14723942Y-27210952D01*
X15104895Y-27401428D02*
X14304895Y-27401428D01*
X14304895Y-27401428D02*
X14304895Y-27096666D01*
X14304895Y-27096666D02*
X14342990Y-27020476D01*
X14342990Y-27020476D02*
X14381085Y-26982381D01*
X14381085Y-26982381D02*
X14457276Y-26944285D01*
X14457276Y-26944285D02*
X14571561Y-26944285D01*
X14571561Y-26944285D02*
X14647752Y-26982381D01*
X14647752Y-26982381D02*
X14685847Y-27020476D01*
X14685847Y-27020476D02*
X14723942Y-27096666D01*
X14723942Y-27096666D02*
X14723942Y-27401428D01*
X15104895Y-26182381D02*
X15104895Y-26639524D01*
X15104895Y-26410952D02*
X14304895Y-26410952D01*
X14304895Y-26410952D02*
X14419180Y-26487143D01*
X14419180Y-26487143D02*
X14495371Y-26563333D01*
X14495371Y-26563333D02*
X14533466Y-26639524D01*
X14304895Y-25458571D02*
X14304895Y-25839523D01*
X14304895Y-25839523D02*
X14685847Y-25877619D01*
X14685847Y-25877619D02*
X14647752Y-25839523D01*
X14647752Y-25839523D02*
X14609657Y-25763333D01*
X14609657Y-25763333D02*
X14609657Y-25572857D01*
X14609657Y-25572857D02*
X14647752Y-25496666D01*
X14647752Y-25496666D02*
X14685847Y-25458571D01*
X14685847Y-25458571D02*
X14762038Y-25420476D01*
X14762038Y-25420476D02*
X14952514Y-25420476D01*
X14952514Y-25420476D02*
X15028704Y-25458571D01*
X15028704Y-25458571D02*
X15066800Y-25496666D01*
X15066800Y-25496666D02*
X15104895Y-25572857D01*
X15104895Y-25572857D02*
X15104895Y-25763333D01*
X15104895Y-25763333D02*
X15066800Y-25839523D01*
X15066800Y-25839523D02*
X15028704Y-25877619D01*
D13*
%TO.C,R1*%
X58305436Y-10245000D02*
X58759564Y-10245000D01*
X58305436Y-11715000D02*
X58759564Y-11715000D01*
%TO.C,R19*%
X12285000Y-39757064D02*
X12285000Y-39302936D01*
X13755000Y-39757064D02*
X13755000Y-39302936D01*
%TO.C,R32*%
X55580436Y-51445000D02*
X56034564Y-51445000D01*
X55580436Y-52915000D02*
X56034564Y-52915000D01*
%TO.C,C7*%
X21555000Y-26168748D02*
X21555000Y-26691252D01*
X20085000Y-26168748D02*
X20085000Y-26691252D01*
%TO.C,J9*%
X46550000Y-14100000D02*
X46550000Y-12830000D01*
X47820000Y-14100000D02*
X46550000Y-14100000D01*
X47440000Y-11720000D02*
X47440000Y-11332929D01*
X48200000Y-11720000D02*
X48200000Y-11332929D01*
X47440000Y-9247071D02*
X47440000Y-8850000D01*
X48200000Y-9247071D02*
X48200000Y-8850000D01*
X46490000Y-8850000D02*
X49150000Y-8850000D01*
X49150000Y-8850000D02*
X49150000Y-6190000D01*
X46490000Y-6190000D02*
X46490000Y-8850000D01*
X47440000Y-6190000D02*
X47440000Y-190000D01*
X47500000Y-6190000D02*
X47500000Y-190000D01*
X47620000Y-6190000D02*
X47620000Y-190000D01*
X47740000Y-6190000D02*
X47740000Y-190000D01*
X47860000Y-6190000D02*
X47860000Y-190000D01*
X47980000Y-6190000D02*
X47980000Y-190000D01*
X48100000Y-6190000D02*
X48100000Y-190000D01*
X49150000Y-6190000D02*
X46490000Y-6190000D01*
X47440000Y-190000D02*
X48200000Y-190000D01*
X48200000Y-190000D02*
X48200000Y-6190000D01*
%TO.C,C1*%
X29755000Y-23818748D02*
X29755000Y-24341252D01*
X28285000Y-23818748D02*
X28285000Y-24341252D01*
%TO.C,R31*%
X66005436Y-36745000D02*
X66459564Y-36745000D01*
X66005436Y-38215000D02*
X66459564Y-38215000D01*
%TO.C,C24*%
X25808748Y-57045000D02*
X26331252Y-57045000D01*
X25808748Y-58515000D02*
X26331252Y-58515000D01*
%TO.C,R12*%
X58885000Y-46194564D02*
X58885000Y-45740436D01*
X60355000Y-46194564D02*
X60355000Y-45740436D01*
%TO.C,C17*%
X46358748Y-33745000D02*
X46881252Y-33745000D01*
X46358748Y-35215000D02*
X46881252Y-35215000D01*
%TO.C,R3*%
X54185000Y-36630436D02*
X54185000Y-37084564D01*
X52715000Y-36630436D02*
X52715000Y-37084564D01*
%TO.C,R38*%
X51005000Y-17740436D02*
X51005000Y-18194564D01*
X49535000Y-17740436D02*
X49535000Y-18194564D01*
%TO.C,R34*%
X30785436Y-49725000D02*
X31239564Y-49725000D01*
X30785436Y-51195000D02*
X31239564Y-51195000D01*
%TO.C,R16*%
X29955000Y-57765436D02*
X29955000Y-58219564D01*
X28485000Y-57765436D02*
X28485000Y-58219564D01*
%TO.C,C28*%
X26811252Y-50395000D02*
X26288748Y-50395000D01*
X26811252Y-48925000D02*
X26288748Y-48925000D01*
%TO.C,C13*%
X28885000Y-31891252D02*
X28885000Y-31368748D01*
X30355000Y-31891252D02*
X30355000Y-31368748D01*
%TO.C,R39*%
X51635000Y-18194564D02*
X51635000Y-17740436D01*
X53105000Y-18194564D02*
X53105000Y-17740436D01*
%TO.C,R29*%
X37235000Y-35294564D02*
X37235000Y-34840436D01*
X38705000Y-35294564D02*
X38705000Y-34840436D01*
%TO.C,R9*%
X11047064Y-58115000D02*
X10592936Y-58115000D01*
X11047064Y-56645000D02*
X10592936Y-56645000D01*
%TO.C,R18*%
X13755000Y-35865436D02*
X13755000Y-36319564D01*
X12285000Y-35865436D02*
X12285000Y-36319564D01*
%TO.C,R4*%
X46334564Y-23515000D02*
X45880436Y-23515000D01*
X46334564Y-22045000D02*
X45880436Y-22045000D01*
%TO.C,C6*%
X50088748Y-50115000D02*
X50611252Y-50115000D01*
X50088748Y-51585000D02*
X50611252Y-51585000D01*
%TO.C,D3*%
X27330000Y-26530000D02*
X27330000Y-24830000D01*
X27330000Y-26530000D02*
X24670000Y-26530000D01*
X27330000Y-24830000D02*
X24670000Y-24830000D01*
%TO.C,C30*%
X11705000Y-46168748D02*
X11705000Y-46691252D01*
X10235000Y-46168748D02*
X10235000Y-46691252D01*
%TO.C,R17*%
X47535000Y-18207064D02*
X47535000Y-17752936D01*
X49005000Y-18207064D02*
X49005000Y-17752936D01*
%TO.C,R22*%
X12285000Y-43207064D02*
X12285000Y-42752936D01*
X13755000Y-43207064D02*
X13755000Y-42752936D01*
%TO.C,C23*%
X28755000Y-52468748D02*
X28755000Y-52991252D01*
X27285000Y-52468748D02*
X27285000Y-52991252D01*
%TO.C,R14*%
X19055000Y-26165436D02*
X19055000Y-26619564D01*
X17585000Y-26165436D02*
X17585000Y-26619564D01*
%TO.C,C25*%
X12285000Y-29441252D02*
X12285000Y-28918748D01*
X13755000Y-29441252D02*
X13755000Y-28918748D01*
%TO.C,D5*%
X27350000Y-28540000D02*
X27350000Y-26840000D01*
X27350000Y-28540000D02*
X24690000Y-28540000D01*
X27350000Y-26840000D02*
X24690000Y-26840000D01*
%TO.C,Q5*%
X57710000Y-50542500D02*
X57710000Y-52217500D01*
X57710000Y-50542500D02*
X57710000Y-49892500D01*
X60830000Y-50542500D02*
X60830000Y-51192500D01*
X60830000Y-50542500D02*
X60830000Y-49892500D01*
%TO.C,C15*%
X37731252Y-47715000D02*
X37208748Y-47715000D01*
X37731252Y-46245000D02*
X37208748Y-46245000D01*
%TO.C,SW1*%
X58320000Y-30885000D02*
X58320000Y-30985000D01*
X58320000Y-29185000D02*
X53920000Y-29185000D01*
X53920000Y-32685000D02*
X58320000Y-32685000D01*
X53920000Y-30885000D02*
X53920000Y-30985000D01*
%TO.C,R5*%
X48135000Y-37052936D02*
X48135000Y-37507064D01*
X46665000Y-37052936D02*
X46665000Y-37507064D01*
%TO.C,C32*%
X26555000Y-52268748D02*
X26555000Y-52791252D01*
X25085000Y-52268748D02*
X25085000Y-52791252D01*
%TO.C,R7*%
X47074400Y-50214953D02*
X47395517Y-50536070D01*
X46034953Y-51254400D02*
X46356070Y-51575517D01*
%TO.C,R33*%
X55580436Y-49345000D02*
X56034564Y-49345000D01*
X55580436Y-50815000D02*
X56034564Y-50815000D01*
%TO.C,R11*%
X65005436Y-30945000D02*
X65459564Y-30945000D01*
X65005436Y-32415000D02*
X65459564Y-32415000D01*
%TO.C,R6*%
X50115000Y-37060436D02*
X50115000Y-37514564D01*
X48645000Y-37060436D02*
X48645000Y-37514564D01*
%TO.C,C20*%
X57935000Y-46398748D02*
X57935000Y-46921252D01*
X56465000Y-46398748D02*
X56465000Y-46921252D01*
%TO.C,C16*%
X53838748Y-46625000D02*
X54361252Y-46625000D01*
X53838748Y-48095000D02*
X54361252Y-48095000D01*
%TO.C,C21*%
X55055000Y-54768748D02*
X55055000Y-55291252D01*
X53585000Y-54768748D02*
X53585000Y-55291252D01*
%TO.C,Q4*%
X57557500Y-53370000D02*
X55882500Y-53370000D01*
X57557500Y-53370000D02*
X58207500Y-53370000D01*
X57557500Y-56490000D02*
X56907500Y-56490000D01*
X57557500Y-56490000D02*
X58207500Y-56490000D01*
%TO.C,C4*%
X21885000Y-15691252D02*
X21885000Y-15168748D01*
X23355000Y-15691252D02*
X23355000Y-15168748D01*
%TO.C,J6*%
X41370000Y-16200000D02*
X41370000Y-17730000D01*
X40900000Y-18200000D02*
X27700000Y-18200000D01*
D12*
X40900000Y-9250000D02*
X40900000Y-9180000D01*
D13*
X40900000Y-9180000D02*
X40900000Y-18200000D01*
X40900000Y-200000D02*
X40900000Y-6980000D01*
X27700000Y-18200000D02*
X27700000Y-9180000D01*
D12*
X27700000Y-320000D02*
X27700000Y-200000D01*
X27700000Y-210000D02*
X27700000Y-200000D01*
D13*
X27700000Y-200000D02*
X40900000Y-200000D01*
X27700000Y-200000D02*
X27700000Y-6980000D01*
%TO.C,R25*%
X11705000Y-32402936D02*
X11705000Y-32857064D01*
X10235000Y-32402936D02*
X10235000Y-32857064D01*
%TO.C,R21*%
X13755000Y-32402936D02*
X13755000Y-32857064D01*
X12285000Y-32402936D02*
X12285000Y-32857064D01*
%TO.C,Q3*%
X36930000Y-31317500D02*
X36930000Y-29642500D01*
X36930000Y-31317500D02*
X36930000Y-31967500D01*
X33810000Y-31317500D02*
X33810000Y-30667500D01*
X33810000Y-31317500D02*
X33810000Y-31967500D01*
%TO.C,D2*%
X51620000Y-12670000D02*
X49920000Y-12670000D01*
X51620000Y-12670000D02*
X51620000Y-15330000D01*
X49920000Y-12670000D02*
X49920000Y-15330000D01*
D12*
%TO.C,J12*%
X24870000Y-12729492D02*
X24870000Y-7729492D01*
X24870000Y-229492D02*
X24870000Y-3729492D01*
X24870000Y-229492D02*
X10870000Y-229492D01*
X10870000Y-12729492D02*
X24870000Y-12729492D01*
X10870000Y-7729492D02*
X10870000Y-12729492D01*
X10870000Y-229492D02*
X10870000Y-3729492D01*
D13*
%TO.C,C9*%
X42848748Y-49995000D02*
X43371252Y-49995000D01*
X42848748Y-51465000D02*
X43371252Y-51465000D01*
%TO.C,Q1*%
X62330000Y-33142500D02*
X62330000Y-31467500D01*
X62330000Y-33142500D02*
X62330000Y-33792500D01*
X59210000Y-33142500D02*
X59210000Y-32492500D01*
X59210000Y-33142500D02*
X59210000Y-33792500D01*
%TO.C,R24*%
X10235000Y-39757064D02*
X10235000Y-39302936D01*
X11705000Y-39757064D02*
X11705000Y-39302936D01*
%TO.C,U6*%
X63345000Y-39705000D02*
X63345000Y-36255000D01*
X63345000Y-39705000D02*
X63345000Y-41655000D01*
X58225000Y-39705000D02*
X58225000Y-37755000D01*
X58225000Y-39705000D02*
X58225000Y-41655000D01*
%TO.C,C27*%
X20785000Y-47741252D02*
X20785000Y-47218748D01*
X22255000Y-47741252D02*
X22255000Y-47218748D01*
%TO.C,C11*%
X23755000Y-26168748D02*
X23755000Y-26691252D01*
X22285000Y-26168748D02*
X22285000Y-26691252D01*
%TO.C,C19*%
X22031252Y-33715000D02*
X21508748Y-33715000D01*
X22031252Y-32245000D02*
X21508748Y-32245000D01*
%TO.C,U1*%
X37430000Y-19430000D02*
X37430000Y-25440000D01*
X30610000Y-21680000D02*
X30610000Y-25440000D01*
X37430000Y-25440000D02*
X36170000Y-25440000D01*
X30610000Y-25440000D02*
X31870000Y-25440000D01*
%TO.C,F1*%
X4551248Y-10690000D02*
X7323752Y-10690000D01*
X4551248Y-14110000D02*
X7323752Y-14110000D01*
%TO.C,U7*%
X32910000Y-46770000D02*
X32910000Y-46320000D01*
X32910000Y-46320000D02*
X34200000Y-46320000D01*
X32910000Y-39550000D02*
X32910000Y-40000000D01*
X32460000Y-46770000D02*
X32910000Y-46770000D01*
X32460000Y-39550000D02*
X32910000Y-39550000D01*
X26140000Y-46770000D02*
X25690000Y-46770000D01*
X26140000Y-39550000D02*
X25690000Y-39550000D01*
X25690000Y-46770000D02*
X25690000Y-46320000D01*
X25690000Y-39550000D02*
X25690000Y-40000000D01*
%TO.C,R26*%
X10235000Y-43194564D02*
X10235000Y-42740436D01*
X11705000Y-43194564D02*
X11705000Y-42740436D01*
%TO.C,C36*%
X43255000Y-21168748D02*
X43255000Y-21691252D01*
X41785000Y-21168748D02*
X41785000Y-21691252D01*
%TO.C,U2*%
X52960000Y-13599492D02*
X52960000Y-15399492D01*
X52960000Y-13599492D02*
X52960000Y-12799492D01*
X56080000Y-13599492D02*
X56080000Y-14399492D01*
X56080000Y-13599492D02*
X56080000Y-12799492D01*
%TO.C,C31*%
X20785000Y-43971252D02*
X20785000Y-43448748D01*
X22255000Y-43971252D02*
X22255000Y-43448748D01*
%TO.C,C3*%
X24185000Y-15691252D02*
X24185000Y-15168748D01*
X25655000Y-15691252D02*
X25655000Y-15168748D01*
%TO.C,C35*%
X24835000Y-35891252D02*
X24835000Y-35368748D01*
X26305000Y-35891252D02*
X26305000Y-35368748D01*
%TO.C,R13*%
X64485000Y-15794564D02*
X64485000Y-15340436D01*
X65955000Y-15794564D02*
X65955000Y-15340436D01*
%TO.C,J7*%
X69750000Y-18110000D02*
X68420000Y-18110000D01*
X69750000Y-16780000D02*
X69750000Y-18110000D01*
X69750000Y-15510000D02*
X69750000Y-10370000D01*
X69750000Y-15510000D02*
X67090000Y-15510000D01*
X69750000Y-10370000D02*
X67090000Y-10370000D01*
X67090000Y-15510000D02*
X67090000Y-10370000D01*
%TO.C,C10*%
X50131252Y-53615000D02*
X49608748Y-53615000D01*
X50131252Y-52145000D02*
X49608748Y-52145000D01*
%TO.C,C2*%
X28285000Y-20741252D02*
X28285000Y-20218748D01*
X29755000Y-20741252D02*
X29755000Y-20218748D01*
%TO.C,U4*%
X46745000Y-26055000D02*
X46485000Y-26055000D01*
X46485000Y-26055000D02*
X46485000Y-24380000D01*
X41295000Y-26055000D02*
X41555000Y-26055000D01*
X46745000Y-28780000D02*
X46745000Y-26055000D01*
X46745000Y-28780000D02*
X46745000Y-31505000D01*
X41295000Y-28780000D02*
X41295000Y-26055000D01*
X41295000Y-28780000D02*
X41295000Y-31505000D01*
X46745000Y-31505000D02*
X46485000Y-31505000D01*
X41295000Y-31505000D02*
X41555000Y-31505000D01*
%TO.C,R28*%
X39235000Y-35294564D02*
X39235000Y-34840436D01*
X40705000Y-35294564D02*
X40705000Y-34840436D01*
%TO.C,R37*%
X43255000Y-17740436D02*
X43255000Y-18194564D01*
X41785000Y-17740436D02*
X41785000Y-18194564D01*
%TO.C,R2*%
X51455000Y-10652936D02*
X51455000Y-11107064D01*
X49985000Y-10652936D02*
X49985000Y-11107064D01*
%TO.C,Q2*%
X40530000Y-31292500D02*
X40530000Y-29617500D01*
X40530000Y-31292500D02*
X40530000Y-31942500D01*
X37410000Y-31292500D02*
X37410000Y-30642500D01*
X37410000Y-31292500D02*
X37410000Y-31942500D01*
%TO.C,U5*%
X42110000Y-48260000D02*
X42110000Y-47610000D01*
X42760000Y-41040000D02*
X42110000Y-41040000D01*
X42760000Y-48260000D02*
X42110000Y-48260000D01*
X48680000Y-41040000D02*
X49330000Y-41040000D01*
X48680000Y-48260000D02*
X49330000Y-48260000D01*
X49330000Y-41040000D02*
X49330000Y-41690000D01*
X49330000Y-48260000D02*
X49330000Y-47610000D01*
%TO.C,C18*%
X36758748Y-40045000D02*
X37281252Y-40045000D01*
X36758748Y-41515000D02*
X37281252Y-41515000D01*
%TO.C,R20*%
X45635000Y-18207064D02*
X45635000Y-17752936D01*
X47105000Y-18207064D02*
X47105000Y-17752936D01*
%TO.C,C12*%
X52218748Y-38885000D02*
X52741252Y-38885000D01*
X52218748Y-40355000D02*
X52741252Y-40355000D01*
%TO.C,R27*%
X18585000Y-44594564D02*
X18585000Y-44140436D01*
X20055000Y-44594564D02*
X20055000Y-44140436D01*
%TO.C,J11*%
X68330000Y-49590000D02*
X67000000Y-49590000D01*
X68330000Y-48260000D02*
X68330000Y-49590000D01*
X68330000Y-46990000D02*
X68330000Y-39310000D01*
X68330000Y-46990000D02*
X65670000Y-46990000D01*
X68330000Y-39310000D02*
X65670000Y-39310000D01*
X65670000Y-46990000D02*
X65670000Y-39310000D01*
%TO.C,C26*%
X13755000Y-46168748D02*
X13755000Y-46691252D01*
X12285000Y-46168748D02*
X12285000Y-46691252D01*
%TO.C,BZ1*%
X70070000Y-30230000D02*
X69070000Y-30230000D01*
X70070000Y-29230000D02*
X70070000Y-30230000D01*
X69370000Y-27180000D02*
X69370000Y-23180000D01*
X67020000Y-20830000D02*
X63020000Y-20830000D01*
X63020000Y-29530000D02*
X67020000Y-29530000D01*
X60670000Y-23180000D02*
X60670000Y-27180000D01*
D11*
%TO.C,J2*%
X61310000Y-5430000D02*
X61310000Y-4180000D01*
X61310000Y-1460000D02*
X61310000Y-180000D01*
X61310000Y-180000D02*
X51730000Y-180000D01*
X51730000Y-5430000D02*
X51730000Y-4180000D01*
X51730000Y-180000D02*
X51730000Y-1460000D01*
D13*
%TO.C,C8*%
X50695000Y-37111252D02*
X50695000Y-36588748D01*
X52165000Y-37111252D02*
X52165000Y-36588748D01*
%TO.C,R10*%
X60985000Y-46194564D02*
X60985000Y-45740436D01*
X62455000Y-46194564D02*
X62455000Y-45740436D01*
%TO.C,J10*%
X42850000Y-14100000D02*
X42850000Y-12830000D01*
X44120000Y-14100000D02*
X42850000Y-14100000D01*
X43740000Y-11720000D02*
X43740000Y-11332929D01*
X44500000Y-11720000D02*
X44500000Y-11332929D01*
X43740000Y-9247071D02*
X43740000Y-8850000D01*
X44500000Y-9247071D02*
X44500000Y-8850000D01*
X42790000Y-8850000D02*
X45450000Y-8850000D01*
X45450000Y-8850000D02*
X45450000Y-6190000D01*
X42790000Y-6190000D02*
X42790000Y-8850000D01*
X43740000Y-6190000D02*
X43740000Y-190000D01*
X43800000Y-6190000D02*
X43800000Y-190000D01*
X43920000Y-6190000D02*
X43920000Y-190000D01*
X44040000Y-6190000D02*
X44040000Y-190000D01*
X44160000Y-6190000D02*
X44160000Y-190000D01*
X44280000Y-6190000D02*
X44280000Y-190000D01*
X44400000Y-6190000D02*
X44400000Y-190000D01*
X45450000Y-6190000D02*
X42790000Y-6190000D01*
X43740000Y-190000D02*
X44500000Y-190000D01*
X44500000Y-190000D02*
X44500000Y-6190000D01*
%TO.C,R8*%
X43735000Y-18194564D02*
X43735000Y-17740436D01*
X45205000Y-18194564D02*
X45205000Y-17740436D01*
%TO.C,C14*%
X52238748Y-40945000D02*
X52761252Y-40945000D01*
X52238748Y-42415000D02*
X52761252Y-42415000D01*
%TO.C,C34*%
X32231252Y-35615000D02*
X31708748Y-35615000D01*
X32231252Y-34145000D02*
X31708748Y-34145000D01*
%TO.C,C29*%
X10235000Y-29441252D02*
X10235000Y-28918748D01*
X11705000Y-29441252D02*
X11705000Y-28918748D01*
%TO.C,U3*%
X26770000Y-24490000D02*
X20760000Y-24490000D01*
X24520000Y-17670000D02*
X20760000Y-17670000D01*
X20760000Y-24490000D02*
X20760000Y-23230000D01*
X20760000Y-17670000D02*
X20760000Y-18930000D01*
%TO.C,C33*%
X30688748Y-51725000D02*
X31211252Y-51725000D01*
X30688748Y-53195000D02*
X31211252Y-53195000D01*
%TO.C,R36*%
X59785000Y-57819564D02*
X59785000Y-57365436D01*
X61255000Y-57819564D02*
X61255000Y-57365436D01*
%TO.C,Y1*%
X51800000Y-59010000D02*
X51800000Y-53910000D01*
X51800000Y-53910000D02*
X39200000Y-53910000D01*
X39200000Y-59010000D02*
X51800000Y-59010000D01*
%TO.C,R23*%
X11705000Y-35865436D02*
X11705000Y-36319564D01*
X10235000Y-35865436D02*
X10235000Y-36319564D01*
D14*
%TO.C,J1*%
X16110000Y-24400000D02*
X16110000Y-15400000D01*
D12*
X16110000Y-24400000D02*
X13100000Y-24400000D01*
D14*
X16110000Y-15400000D02*
X110000Y-15400000D01*
D12*
X110000Y-24400000D02*
X8400000Y-24400000D01*
D14*
X110000Y-15400000D02*
X110000Y-24400000D01*
D13*
%TO.C,R35*%
X33485000Y-37919564D02*
X33485000Y-37465436D01*
X34955000Y-37919564D02*
X34955000Y-37465436D01*
%TO.C,C22*%
X41208748Y-52045000D02*
X41731252Y-52045000D01*
X41208748Y-53515000D02*
X41731252Y-53515000D01*
%TO.C,C5*%
X22031252Y-35815000D02*
X21508748Y-35815000D01*
X22031252Y-34345000D02*
X21508748Y-34345000D01*
%TO.C,R30*%
X66005436Y-34645000D02*
X66459564Y-34645000D01*
X66005436Y-36115000D02*
X66459564Y-36115000D01*
%TO.C,R15*%
X15465000Y-26637064D02*
X15465000Y-26182936D01*
X16935000Y-26637064D02*
X16935000Y-26182936D01*
%TD*%
D15*
%TO.C,J1*%
X13810000Y-19900000D03*
X7610000Y-19900000D03*
X10710000Y-24900000D03*
%TD*%
M02*
