%TF.GenerationSoftware,KiCad,Pcbnew,7.0.5.1-1-g8f565ef7f0-dirty-deb11*%
%TF.CreationDate,2023-07-02T23:47:22+00:00*%
%TF.ProjectId,AMFOC01,414d464f-4330-4312-9e6b-696361645f70,rev?*%
%TF.SameCoordinates,Original*%
%TF.FileFunction,Legend,Bot*%
%TF.FilePolarity,Positive*%
%FSLAX46Y46*%
G04 Gerber Fmt 4.6, Leading zero omitted, Abs format (unit mm)*
G04 Created by KiCad (PCBNEW 7.0.5.1-1-g8f565ef7f0-dirty-deb11) date 2023-07-02 23:47:22*
%MOMM*%
%LPD*%
G01*
G04 APERTURE LIST*
%ADD10C,0.080000*%
%ADD11C,0.150000*%
%ADD12C,0.300000*%
%ADD13C,0.100000*%
%ADD14C,0.200000*%
%ADD15C,0.120000*%
G04 APERTURE END LIST*
D10*
X55423800Y-51780000D02*
X55423800Y-52980000D01*
D11*
X51120000Y-49680000D02*
X59820000Y-49680000D01*
X59820000Y-54280000D01*
X51120000Y-54280000D01*
X51120000Y-49680000D01*
X65620000Y-39280000D02*
X68420000Y-39280000D01*
X68420000Y-49480000D01*
X65620000Y-49480000D01*
X65620000Y-39280000D01*
X69920000Y-36980000D02*
X68420000Y-39280000D01*
X69920000Y-29980000D02*
X69920000Y-36980000D01*
D12*
G36*
X48793552Y-16707816D02*
G01*
X48043114Y-16707816D01*
X48418333Y-15582157D01*
X48793552Y-16707816D01*
G37*
G36*
X65476885Y-16707816D02*
G01*
X64726447Y-16707816D01*
X65101666Y-15582157D01*
X65476885Y-16707816D01*
G37*
G36*
X53229477Y-15347760D02*
G01*
X53311720Y-15430003D01*
X53410137Y-15626837D01*
X53518332Y-16059614D01*
X53518332Y-16606018D01*
X53410138Y-17038793D01*
X53311720Y-17235629D01*
X53229478Y-17317871D01*
X53049588Y-17407816D01*
X52887075Y-17407816D01*
X52707185Y-17317871D01*
X52624943Y-17235629D01*
X52526527Y-17038795D01*
X52418332Y-16606018D01*
X52418332Y-16059615D01*
X52526526Y-15626838D01*
X52624944Y-15430003D01*
X52707186Y-15347760D01*
X52887076Y-15257816D01*
X53049589Y-15257816D01*
X53229477Y-15347760D01*
G37*
G36*
X58246144Y-15347760D02*
G01*
X58432887Y-15534503D01*
X58534999Y-15942947D01*
X58534999Y-16722684D01*
X58432887Y-17131128D01*
X58246145Y-17317871D01*
X58066255Y-17407816D01*
X57670409Y-17407816D01*
X57490519Y-17317871D01*
X57303776Y-17131128D01*
X57201666Y-16722685D01*
X57201666Y-15942947D01*
X57303776Y-15534504D01*
X57490519Y-15347761D01*
X57670410Y-15257816D01*
X58066256Y-15257816D01*
X58246144Y-15347760D01*
G37*
G36*
X67081667Y-18840000D02*
G01*
X46438334Y-18840000D01*
X46438334Y-17596410D01*
X47450171Y-17596410D01*
X47495086Y-17672187D01*
X47573840Y-17711653D01*
X47661426Y-17702276D01*
X47730041Y-17647034D01*
X47943114Y-17007816D01*
X48893552Y-17007816D01*
X49099517Y-17625712D01*
X49136960Y-17679588D01*
X49218358Y-17713261D01*
X49305040Y-17697582D01*
X49369484Y-17637528D01*
X49384123Y-17580065D01*
X49780257Y-17580065D01*
X49816850Y-17660192D01*
X49890955Y-17707816D01*
X50624268Y-17707816D01*
X50657248Y-17712558D01*
X50667631Y-17707816D01*
X51356567Y-17707816D01*
X51419519Y-17689332D01*
X51477204Y-17622759D01*
X51489741Y-17535567D01*
X51453148Y-17455440D01*
X51379043Y-17407816D01*
X50784999Y-17407816D01*
X50784999Y-16618134D01*
X52112128Y-16618134D01*
X52118332Y-16642949D01*
X52118332Y-16646051D01*
X52123550Y-16663825D01*
X52232997Y-17101609D01*
X52231138Y-17118838D01*
X52243472Y-17143506D01*
X52244709Y-17148454D01*
X52253079Y-17162722D01*
X52359090Y-17374744D01*
X52364455Y-17399405D01*
X52393666Y-17428616D01*
X52421832Y-17458896D01*
X52424672Y-17459622D01*
X52498967Y-17533917D01*
X52511856Y-17555617D01*
X52548815Y-17574096D01*
X52585101Y-17593910D01*
X52588023Y-17593700D01*
X52777362Y-17688370D01*
X52807621Y-17707816D01*
X52838272Y-17707816D01*
X52868447Y-17713246D01*
X52881539Y-17707816D01*
X53076923Y-17707816D01*
X53112687Y-17711677D01*
X53140102Y-17697969D01*
X53169519Y-17689332D01*
X53178800Y-17678620D01*
X53368593Y-17583724D01*
X53393254Y-17578360D01*
X53422465Y-17549148D01*
X53452745Y-17520983D01*
X53453471Y-17518142D01*
X53527766Y-17443847D01*
X53549466Y-17430959D01*
X53567945Y-17393999D01*
X53587759Y-17357714D01*
X53587549Y-17354791D01*
X53608280Y-17313330D01*
X54445730Y-17313330D01*
X54464455Y-17399405D01*
X54606553Y-17541503D01*
X54629114Y-17569525D01*
X54658196Y-17579219D01*
X54685101Y-17593910D01*
X54699236Y-17592899D01*
X55003056Y-17694171D01*
X55024288Y-17707816D01*
X55065611Y-17707816D01*
X55106926Y-17709310D01*
X55109447Y-17707816D01*
X55282860Y-17707816D01*
X55307315Y-17714046D01*
X55346502Y-17700983D01*
X55386185Y-17689332D01*
X55388104Y-17687116D01*
X55691433Y-17586007D01*
X55726587Y-17578360D01*
X55748261Y-17556685D01*
X55773436Y-17539190D01*
X55778853Y-17526093D01*
X55977766Y-17327180D01*
X55999466Y-17314292D01*
X56017945Y-17277332D01*
X56037759Y-17241047D01*
X56037549Y-17238124D01*
X56123881Y-17065460D01*
X56136504Y-17053592D01*
X56143192Y-17026839D01*
X56145475Y-17022274D01*
X56148407Y-17005978D01*
X56216201Y-16734801D01*
X56895462Y-16734801D01*
X56901666Y-16759616D01*
X56901666Y-16762718D01*
X56906884Y-16780491D01*
X57022244Y-17241930D01*
X57031122Y-17282738D01*
X57048678Y-17300294D01*
X57061242Y-17321709D01*
X57079185Y-17330801D01*
X57282301Y-17533917D01*
X57295190Y-17555617D01*
X57332149Y-17574096D01*
X57368435Y-17593910D01*
X57371357Y-17593700D01*
X57560696Y-17688370D01*
X57590955Y-17707816D01*
X57621606Y-17707816D01*
X57651781Y-17713246D01*
X57664873Y-17707816D01*
X58093590Y-17707816D01*
X58129354Y-17711677D01*
X58156769Y-17697969D01*
X58186186Y-17689332D01*
X58195467Y-17678620D01*
X58385259Y-17583725D01*
X58409922Y-17578360D01*
X58439144Y-17549137D01*
X58469412Y-17520983D01*
X58470138Y-17518143D01*
X58672768Y-17315511D01*
X58703171Y-17286925D01*
X58709192Y-17262839D01*
X58721092Y-17241047D01*
X58719656Y-17220982D01*
X58824532Y-16801480D01*
X58834999Y-16785194D01*
X58834999Y-16759614D01*
X58835751Y-16756607D01*
X58834999Y-16738101D01*
X58834999Y-15949169D01*
X58841203Y-15930831D01*
X58834999Y-15906015D01*
X58834999Y-15902915D01*
X58829781Y-15885145D01*
X58714419Y-15423699D01*
X58705542Y-15382894D01*
X58687986Y-15365338D01*
X58675422Y-15343922D01*
X58657476Y-15334828D01*
X58454362Y-15131714D01*
X58453383Y-15130065D01*
X59346924Y-15130065D01*
X59383517Y-15210192D01*
X59457622Y-15257816D01*
X60518332Y-15257816D01*
X60518332Y-16124483D01*
X59830098Y-16124483D01*
X59767146Y-16142967D01*
X59709461Y-16209540D01*
X59696924Y-16296732D01*
X59733517Y-16376859D01*
X59807622Y-16424483D01*
X60518332Y-16424483D01*
X60518332Y-17579384D01*
X60536816Y-17642336D01*
X60603389Y-17700021D01*
X60690581Y-17712558D01*
X60770708Y-17675965D01*
X60818332Y-17601860D01*
X60818332Y-16285213D01*
X60823074Y-16252234D01*
X60818332Y-16241850D01*
X60818332Y-15131337D01*
X61680446Y-15131337D01*
X61684999Y-15141093D01*
X61684999Y-17579384D01*
X61703483Y-17642336D01*
X61770056Y-17700021D01*
X61857248Y-17712558D01*
X61937375Y-17675965D01*
X61984999Y-17601860D01*
X61984999Y-15783950D01*
X62515210Y-16920117D01*
X62532679Y-16959216D01*
X62552538Y-16972211D01*
X62568231Y-16990023D01*
X62588637Y-16995832D01*
X62606390Y-17007449D01*
X62630125Y-17007644D01*
X62652952Y-17014143D01*
X62673256Y-17007999D01*
X62694474Y-17008174D01*
X62714546Y-16995506D01*
X62737266Y-16988632D01*
X62751028Y-16972482D01*
X62768968Y-16961161D01*
X62779004Y-16939653D01*
X62794401Y-16921587D01*
X62797247Y-16900562D01*
X63318332Y-15783950D01*
X63318332Y-17579384D01*
X63336816Y-17642336D01*
X63403389Y-17700021D01*
X63490581Y-17712558D01*
X63570708Y-17675965D01*
X63618332Y-17601860D01*
X63618332Y-17596410D01*
X64133504Y-17596410D01*
X64178419Y-17672187D01*
X64257173Y-17711653D01*
X64344759Y-17702276D01*
X64413374Y-17647034D01*
X64626447Y-17007816D01*
X65576885Y-17007816D01*
X65782850Y-17625712D01*
X65820293Y-17679588D01*
X65901691Y-17713261D01*
X65988373Y-17697582D01*
X66052817Y-17637528D01*
X66074563Y-17552166D01*
X65838522Y-16844043D01*
X65839741Y-16835567D01*
X65824767Y-16802780D01*
X65252549Y-15086125D01*
X65253161Y-15069222D01*
X65238888Y-15045142D01*
X65237148Y-15039921D01*
X65227941Y-15026673D01*
X65208246Y-14993445D01*
X65203032Y-14990832D01*
X65199705Y-14986044D01*
X65164024Y-14971284D01*
X65129493Y-14953979D01*
X65123692Y-14954599D01*
X65118307Y-14952372D01*
X65080315Y-14959243D01*
X65041906Y-14963356D01*
X65037363Y-14967012D01*
X65031625Y-14968051D01*
X65003368Y-14994382D01*
X64973291Y-15018598D01*
X64971447Y-15024129D01*
X64967182Y-15028104D01*
X64957650Y-15065520D01*
X64385454Y-16782108D01*
X64376127Y-16792873D01*
X64371773Y-16823150D01*
X64135876Y-17530843D01*
X64133504Y-17596410D01*
X63618332Y-17596410D01*
X63618332Y-15119167D01*
X63623252Y-15086841D01*
X63609408Y-15055855D01*
X63599848Y-15023296D01*
X63591711Y-15016245D01*
X63587319Y-15006415D01*
X63558918Y-14987830D01*
X63533275Y-14965611D01*
X63522620Y-14964079D01*
X63513609Y-14958182D01*
X63479667Y-14957903D01*
X63446083Y-14953074D01*
X63436289Y-14957546D01*
X63425524Y-14957458D01*
X63396827Y-14975568D01*
X63365956Y-14989667D01*
X63360134Y-14998724D01*
X63351030Y-15004471D01*
X63336678Y-15035223D01*
X63318332Y-15063772D01*
X63318332Y-15074538D01*
X62651666Y-16503110D01*
X61975726Y-15054669D01*
X61966515Y-15023296D01*
X61940868Y-15001073D01*
X61918434Y-14975609D01*
X61908077Y-14972660D01*
X61899942Y-14965611D01*
X61866351Y-14960781D01*
X61833713Y-14951489D01*
X61823409Y-14954606D01*
X61812750Y-14953074D01*
X61781878Y-14967172D01*
X61749399Y-14977000D01*
X61742415Y-14985194D01*
X61732623Y-14989667D01*
X61714277Y-15018212D01*
X61692264Y-15044045D01*
X61690819Y-15054715D01*
X61684999Y-15063772D01*
X61684999Y-15097706D01*
X61680446Y-15131337D01*
X60818332Y-15131337D01*
X60818332Y-15118546D01*
X60823074Y-15085567D01*
X60809233Y-15055260D01*
X60799848Y-15023296D01*
X60791222Y-15015821D01*
X60786481Y-15005440D01*
X60758453Y-14987427D01*
X60733275Y-14965611D01*
X60721977Y-14963986D01*
X60712376Y-14957816D01*
X60679063Y-14957816D01*
X60646083Y-14953074D01*
X60635700Y-14957816D01*
X59480098Y-14957816D01*
X59417146Y-14976300D01*
X59359461Y-15042873D01*
X59346924Y-15130065D01*
X58453383Y-15130065D01*
X58441475Y-15110016D01*
X58404523Y-15091540D01*
X58368230Y-15071722D01*
X58365305Y-15071931D01*
X58175975Y-14977266D01*
X58145710Y-14957816D01*
X58115057Y-14957816D01*
X58084885Y-14952386D01*
X58071793Y-14957816D01*
X57643074Y-14957816D01*
X57607310Y-14953955D01*
X57579893Y-14967663D01*
X57550479Y-14976300D01*
X57541197Y-14987011D01*
X57351406Y-15081908D01*
X57326744Y-15087273D01*
X57297521Y-15116495D01*
X57267253Y-15144650D01*
X57266526Y-15147489D01*
X57063898Y-15350117D01*
X57033493Y-15378707D01*
X57027472Y-15402790D01*
X57015572Y-15424584D01*
X57017007Y-15444650D01*
X56912132Y-15864152D01*
X56901666Y-15880439D01*
X56901666Y-15906018D01*
X56900914Y-15909027D01*
X56901666Y-15927532D01*
X56901666Y-16716462D01*
X56895462Y-16734801D01*
X56216201Y-16734801D01*
X56257865Y-16568145D01*
X56268332Y-16551860D01*
X56268332Y-16526280D01*
X56269084Y-16523273D01*
X56268332Y-16504767D01*
X56268332Y-16182502D01*
X56274536Y-16164164D01*
X56268332Y-16139348D01*
X56268332Y-16136248D01*
X56263114Y-16118478D01*
X56153666Y-15680689D01*
X56155526Y-15663463D01*
X56143192Y-15638796D01*
X56141955Y-15633845D01*
X56133578Y-15619567D01*
X56027572Y-15407552D01*
X56022208Y-15382893D01*
X55992993Y-15353678D01*
X55964832Y-15323404D01*
X55961992Y-15322677D01*
X55763441Y-15124127D01*
X55740883Y-15096108D01*
X55711802Y-15086414D01*
X55684896Y-15071722D01*
X55670758Y-15072733D01*
X55366940Y-14971460D01*
X55345709Y-14957816D01*
X55304396Y-14957816D01*
X55263071Y-14956321D01*
X55260549Y-14957816D01*
X55087136Y-14957816D01*
X55062681Y-14951586D01*
X55023489Y-14964649D01*
X54983812Y-14976300D01*
X54981892Y-14978515D01*
X54678562Y-15079625D01*
X54643410Y-15087273D01*
X54621734Y-15108948D01*
X54596560Y-15126444D01*
X54591142Y-15139540D01*
X54480348Y-15250335D01*
X54448904Y-15307919D01*
X54455189Y-15395782D01*
X54507978Y-15466302D01*
X54590512Y-15497085D01*
X54676587Y-15478360D01*
X54799360Y-15355586D01*
X55092673Y-15257816D01*
X55277324Y-15257816D01*
X55570637Y-15355587D01*
X55761721Y-15546670D01*
X55860136Y-15743503D01*
X55968332Y-16176280D01*
X55968332Y-16489350D01*
X55860137Y-16922127D01*
X55761720Y-17118963D01*
X55570637Y-17310045D01*
X55277324Y-17407816D01*
X55092675Y-17407816D01*
X54799358Y-17310044D01*
X54692480Y-17203166D01*
X54634896Y-17171722D01*
X54547033Y-17178007D01*
X54476513Y-17230796D01*
X54445730Y-17313330D01*
X53608280Y-17313330D01*
X53673881Y-17182127D01*
X53686504Y-17170259D01*
X53693192Y-17143506D01*
X53695475Y-17138941D01*
X53698407Y-17122645D01*
X53807865Y-16684812D01*
X53818332Y-16668527D01*
X53818332Y-16642947D01*
X53819084Y-16639940D01*
X53818332Y-16621434D01*
X53818332Y-16065836D01*
X53824536Y-16047498D01*
X53818332Y-16022682D01*
X53818332Y-16019582D01*
X53813114Y-16001812D01*
X53703666Y-15564022D01*
X53705526Y-15546795D01*
X53693191Y-15522126D01*
X53691955Y-15517179D01*
X53683583Y-15502909D01*
X53577573Y-15290888D01*
X53572209Y-15266228D01*
X53542997Y-15237016D01*
X53514832Y-15206737D01*
X53511991Y-15206010D01*
X53437695Y-15131714D01*
X53424808Y-15110016D01*
X53387856Y-15091540D01*
X53351563Y-15071722D01*
X53348638Y-15071931D01*
X53159308Y-14977266D01*
X53129043Y-14957816D01*
X53098390Y-14957816D01*
X53068218Y-14952386D01*
X53055126Y-14957816D01*
X52859740Y-14957816D01*
X52823976Y-14953955D01*
X52796559Y-14967663D01*
X52767145Y-14976300D01*
X52757863Y-14987011D01*
X52568073Y-15081907D01*
X52543410Y-15087273D01*
X52514189Y-15116493D01*
X52483919Y-15144650D01*
X52483192Y-15147490D01*
X52408897Y-15221785D01*
X52387198Y-15234674D01*
X52368722Y-15271625D01*
X52348904Y-15307919D01*
X52349113Y-15310843D01*
X52262782Y-15483505D01*
X52250160Y-15495374D01*
X52243472Y-15522126D01*
X52241189Y-15526692D01*
X52238256Y-15542987D01*
X52128798Y-15980819D01*
X52118332Y-15997106D01*
X52118332Y-16022685D01*
X52117580Y-16025694D01*
X52118332Y-16044199D01*
X52118332Y-16599795D01*
X52112128Y-16618134D01*
X50784999Y-16618134D01*
X50784999Y-15586614D01*
X50982301Y-15783917D01*
X50995190Y-15805617D01*
X51032149Y-15824096D01*
X51068435Y-15843910D01*
X51071357Y-15843700D01*
X51287208Y-15951626D01*
X51351781Y-15963246D01*
X51433148Y-15929499D01*
X51483355Y-15857118D01*
X51486459Y-15769086D01*
X51441475Y-15693349D01*
X51190518Y-15567871D01*
X50984901Y-15362253D01*
X50772484Y-15043627D01*
X50766515Y-15023296D01*
X50748556Y-15007734D01*
X50747843Y-15006665D01*
X50732251Y-14993606D01*
X50699942Y-14965611D01*
X50698592Y-14965416D01*
X50697544Y-14964539D01*
X50655077Y-14959160D01*
X50612750Y-14953074D01*
X50611507Y-14953641D01*
X50610154Y-14953470D01*
X50571547Y-14971890D01*
X50532623Y-14989667D01*
X50531885Y-14990815D01*
X50530651Y-14991404D01*
X50508106Y-15027816D01*
X50484999Y-15063772D01*
X50484999Y-15065136D01*
X50484280Y-15066298D01*
X50484999Y-15109086D01*
X50484999Y-17407816D01*
X49913431Y-17407816D01*
X49850479Y-17426300D01*
X49792794Y-17492873D01*
X49780257Y-17580065D01*
X49384123Y-17580065D01*
X49391230Y-17552166D01*
X49155189Y-16844043D01*
X49156408Y-16835567D01*
X49141434Y-16802780D01*
X48569216Y-15086125D01*
X48569828Y-15069222D01*
X48555555Y-15045142D01*
X48553815Y-15039921D01*
X48544608Y-15026673D01*
X48524913Y-14993445D01*
X48519699Y-14990832D01*
X48516372Y-14986044D01*
X48480691Y-14971284D01*
X48446160Y-14953979D01*
X48440359Y-14954599D01*
X48434974Y-14952372D01*
X48396982Y-14959243D01*
X48358573Y-14963356D01*
X48354030Y-14967012D01*
X48348292Y-14968051D01*
X48320035Y-14994382D01*
X48289958Y-15018598D01*
X48288114Y-15024129D01*
X48283849Y-15028104D01*
X48274317Y-15065520D01*
X47702121Y-16782108D01*
X47692794Y-16792873D01*
X47688440Y-16823150D01*
X47452543Y-17530843D01*
X47450171Y-17596410D01*
X46438334Y-17596410D01*
X46438334Y-14040000D01*
X67081667Y-14040000D01*
X67081667Y-18840000D01*
G37*
D11*
X69510475Y-31934819D02*
X68939047Y-31934819D01*
X69224761Y-32934819D02*
X69224761Y-31934819D01*
X68700951Y-31934819D02*
X68034285Y-32934819D01*
X68034285Y-31934819D02*
X68700951Y-32934819D01*
X66939047Y-31887200D02*
X67796189Y-33172914D01*
X66653332Y-32887200D02*
X66510475Y-32934819D01*
X66510475Y-32934819D02*
X66272380Y-32934819D01*
X66272380Y-32934819D02*
X66177142Y-32887200D01*
X66177142Y-32887200D02*
X66129523Y-32839580D01*
X66129523Y-32839580D02*
X66081904Y-32744342D01*
X66081904Y-32744342D02*
X66081904Y-32649104D01*
X66081904Y-32649104D02*
X66129523Y-32553866D01*
X66129523Y-32553866D02*
X66177142Y-32506247D01*
X66177142Y-32506247D02*
X66272380Y-32458628D01*
X66272380Y-32458628D02*
X66462856Y-32411009D01*
X66462856Y-32411009D02*
X66558094Y-32363390D01*
X66558094Y-32363390D02*
X66605713Y-32315771D01*
X66605713Y-32315771D02*
X66653332Y-32220533D01*
X66653332Y-32220533D02*
X66653332Y-32125295D01*
X66653332Y-32125295D02*
X66605713Y-32030057D01*
X66605713Y-32030057D02*
X66558094Y-31982438D01*
X66558094Y-31982438D02*
X66462856Y-31934819D01*
X66462856Y-31934819D02*
X66224761Y-31934819D01*
X66224761Y-31934819D02*
X66081904Y-31982438D01*
X65653332Y-32934819D02*
X65653332Y-31934819D01*
X65653332Y-31934819D02*
X65415237Y-31934819D01*
X65415237Y-31934819D02*
X65272380Y-31982438D01*
X65272380Y-31982438D02*
X65177142Y-32077676D01*
X65177142Y-32077676D02*
X65129523Y-32172914D01*
X65129523Y-32172914D02*
X65081904Y-32363390D01*
X65081904Y-32363390D02*
X65081904Y-32506247D01*
X65081904Y-32506247D02*
X65129523Y-32696723D01*
X65129523Y-32696723D02*
X65177142Y-32791961D01*
X65177142Y-32791961D02*
X65272380Y-32887200D01*
X65272380Y-32887200D02*
X65415237Y-32934819D01*
X65415237Y-32934819D02*
X65653332Y-32934819D01*
X64700951Y-32649104D02*
X64224761Y-32649104D01*
X64796189Y-32934819D02*
X64462856Y-31934819D01*
X64462856Y-31934819D02*
X64129523Y-32934819D01*
X68981904Y-30482438D02*
X69077142Y-30434819D01*
X69077142Y-30434819D02*
X69219999Y-30434819D01*
X69219999Y-30434819D02*
X69362856Y-30482438D01*
X69362856Y-30482438D02*
X69458094Y-30577676D01*
X69458094Y-30577676D02*
X69505713Y-30672914D01*
X69505713Y-30672914D02*
X69553332Y-30863390D01*
X69553332Y-30863390D02*
X69553332Y-31006247D01*
X69553332Y-31006247D02*
X69505713Y-31196723D01*
X69505713Y-31196723D02*
X69458094Y-31291961D01*
X69458094Y-31291961D02*
X69362856Y-31387200D01*
X69362856Y-31387200D02*
X69219999Y-31434819D01*
X69219999Y-31434819D02*
X69124761Y-31434819D01*
X69124761Y-31434819D02*
X68981904Y-31387200D01*
X68981904Y-31387200D02*
X68934285Y-31339580D01*
X68934285Y-31339580D02*
X68934285Y-31006247D01*
X68934285Y-31006247D02*
X69124761Y-31006247D01*
X68505713Y-31434819D02*
X68505713Y-30434819D01*
X68505713Y-30434819D02*
X67934285Y-31434819D01*
X67934285Y-31434819D02*
X67934285Y-30434819D01*
X67458094Y-31434819D02*
X67458094Y-30434819D01*
X67458094Y-30434819D02*
X67219999Y-30434819D01*
X67219999Y-30434819D02*
X67077142Y-30482438D01*
X67077142Y-30482438D02*
X66981904Y-30577676D01*
X66981904Y-30577676D02*
X66934285Y-30672914D01*
X66934285Y-30672914D02*
X66886666Y-30863390D01*
X66886666Y-30863390D02*
X66886666Y-31006247D01*
X66886666Y-31006247D02*
X66934285Y-31196723D01*
X66934285Y-31196723D02*
X66981904Y-31291961D01*
X66981904Y-31291961D02*
X67077142Y-31387200D01*
X67077142Y-31387200D02*
X67219999Y-31434819D01*
X67219999Y-31434819D02*
X67458094Y-31434819D01*
D13*
X55029524Y-52806800D02*
X54915238Y-52844895D01*
X54915238Y-52844895D02*
X54724762Y-52844895D01*
X54724762Y-52844895D02*
X54648571Y-52806800D01*
X54648571Y-52806800D02*
X54610476Y-52768704D01*
X54610476Y-52768704D02*
X54572381Y-52692514D01*
X54572381Y-52692514D02*
X54572381Y-52616323D01*
X54572381Y-52616323D02*
X54610476Y-52540133D01*
X54610476Y-52540133D02*
X54648571Y-52502038D01*
X54648571Y-52502038D02*
X54724762Y-52463942D01*
X54724762Y-52463942D02*
X54877143Y-52425847D01*
X54877143Y-52425847D02*
X54953333Y-52387752D01*
X54953333Y-52387752D02*
X54991428Y-52349657D01*
X54991428Y-52349657D02*
X55029524Y-52273466D01*
X55029524Y-52273466D02*
X55029524Y-52197276D01*
X55029524Y-52197276D02*
X54991428Y-52121085D01*
X54991428Y-52121085D02*
X54953333Y-52082990D01*
X54953333Y-52082990D02*
X54877143Y-52044895D01*
X54877143Y-52044895D02*
X54686666Y-52044895D01*
X54686666Y-52044895D02*
X54572381Y-52082990D01*
X54305714Y-52044895D02*
X54115238Y-52844895D01*
X54115238Y-52844895D02*
X53962857Y-52273466D01*
X53962857Y-52273466D02*
X53810476Y-52844895D01*
X53810476Y-52844895D02*
X53620000Y-52044895D01*
X52858094Y-52768704D02*
X52896190Y-52806800D01*
X52896190Y-52806800D02*
X53010475Y-52844895D01*
X53010475Y-52844895D02*
X53086666Y-52844895D01*
X53086666Y-52844895D02*
X53200952Y-52806800D01*
X53200952Y-52806800D02*
X53277142Y-52730609D01*
X53277142Y-52730609D02*
X53315237Y-52654419D01*
X53315237Y-52654419D02*
X53353333Y-52502038D01*
X53353333Y-52502038D02*
X53353333Y-52387752D01*
X53353333Y-52387752D02*
X53315237Y-52235371D01*
X53315237Y-52235371D02*
X53277142Y-52159180D01*
X53277142Y-52159180D02*
X53200952Y-52082990D01*
X53200952Y-52082990D02*
X53086666Y-52044895D01*
X53086666Y-52044895D02*
X53010475Y-52044895D01*
X53010475Y-52044895D02*
X52896190Y-52082990D01*
X52896190Y-52082990D02*
X52858094Y-52121085D01*
X52134285Y-52844895D02*
X52515237Y-52844895D01*
X52515237Y-52844895D02*
X52515237Y-52044895D01*
X51867618Y-52844895D02*
X51867618Y-52044895D01*
X51410475Y-52844895D02*
X51753333Y-52387752D01*
X51410475Y-52044895D02*
X51867618Y-52502038D01*
D14*
X20303332Y-2371004D02*
X20303332Y-1071004D01*
X20303332Y-1071004D02*
X19869998Y-1999576D01*
X19869998Y-1999576D02*
X19436665Y-1071004D01*
X19436665Y-1071004D02*
X19436665Y-2371004D01*
X18631903Y-2371004D02*
X18755713Y-2309100D01*
X18755713Y-2309100D02*
X18817618Y-2247195D01*
X18817618Y-2247195D02*
X18879522Y-2123385D01*
X18879522Y-2123385D02*
X18879522Y-1751957D01*
X18879522Y-1751957D02*
X18817618Y-1628147D01*
X18817618Y-1628147D02*
X18755713Y-1566242D01*
X18755713Y-1566242D02*
X18631903Y-1504338D01*
X18631903Y-1504338D02*
X18446189Y-1504338D01*
X18446189Y-1504338D02*
X18322380Y-1566242D01*
X18322380Y-1566242D02*
X18260475Y-1628147D01*
X18260475Y-1628147D02*
X18198570Y-1751957D01*
X18198570Y-1751957D02*
X18198570Y-2123385D01*
X18198570Y-2123385D02*
X18260475Y-2247195D01*
X18260475Y-2247195D02*
X18322380Y-2309100D01*
X18322380Y-2309100D02*
X18446189Y-2371004D01*
X18446189Y-2371004D02*
X18631903Y-2371004D01*
X17827142Y-1504338D02*
X17331904Y-1504338D01*
X17641428Y-1071004D02*
X17641428Y-2185290D01*
X17641428Y-2185290D02*
X17579523Y-2309100D01*
X17579523Y-2309100D02*
X17455713Y-2371004D01*
X17455713Y-2371004D02*
X17331904Y-2371004D01*
X16712856Y-2371004D02*
X16836666Y-2309100D01*
X16836666Y-2309100D02*
X16898571Y-2247195D01*
X16898571Y-2247195D02*
X16960475Y-2123385D01*
X16960475Y-2123385D02*
X16960475Y-1751957D01*
X16960475Y-1751957D02*
X16898571Y-1628147D01*
X16898571Y-1628147D02*
X16836666Y-1566242D01*
X16836666Y-1566242D02*
X16712856Y-1504338D01*
X16712856Y-1504338D02*
X16527142Y-1504338D01*
X16527142Y-1504338D02*
X16403333Y-1566242D01*
X16403333Y-1566242D02*
X16341428Y-1628147D01*
X16341428Y-1628147D02*
X16279523Y-1751957D01*
X16279523Y-1751957D02*
X16279523Y-2123385D01*
X16279523Y-2123385D02*
X16341428Y-2247195D01*
X16341428Y-2247195D02*
X16403333Y-2309100D01*
X16403333Y-2309100D02*
X16527142Y-2371004D01*
X16527142Y-2371004D02*
X16712856Y-2371004D01*
X15722381Y-2371004D02*
X15722381Y-1504338D01*
X15722381Y-1751957D02*
X15660476Y-1628147D01*
X15660476Y-1628147D02*
X15598571Y-1566242D01*
X15598571Y-1566242D02*
X15474762Y-1504338D01*
X15474762Y-1504338D02*
X15350952Y-1504338D01*
D11*
X68891428Y-34734819D02*
X69224761Y-34258628D01*
X69462856Y-34734819D02*
X69462856Y-33734819D01*
X69462856Y-33734819D02*
X69081904Y-33734819D01*
X69081904Y-33734819D02*
X68986666Y-33782438D01*
X68986666Y-33782438D02*
X68939047Y-33830057D01*
X68939047Y-33830057D02*
X68891428Y-33925295D01*
X68891428Y-33925295D02*
X68891428Y-34068152D01*
X68891428Y-34068152D02*
X68939047Y-34163390D01*
X68939047Y-34163390D02*
X68986666Y-34211009D01*
X68986666Y-34211009D02*
X69081904Y-34258628D01*
X69081904Y-34258628D02*
X69462856Y-34258628D01*
X68558094Y-33734819D02*
X67891428Y-34734819D01*
X67891428Y-33734819D02*
X68558094Y-34734819D01*
X66796190Y-33687200D02*
X67653332Y-34972914D01*
X66510475Y-34687200D02*
X66367618Y-34734819D01*
X66367618Y-34734819D02*
X66129523Y-34734819D01*
X66129523Y-34734819D02*
X66034285Y-34687200D01*
X66034285Y-34687200D02*
X65986666Y-34639580D01*
X65986666Y-34639580D02*
X65939047Y-34544342D01*
X65939047Y-34544342D02*
X65939047Y-34449104D01*
X65939047Y-34449104D02*
X65986666Y-34353866D01*
X65986666Y-34353866D02*
X66034285Y-34306247D01*
X66034285Y-34306247D02*
X66129523Y-34258628D01*
X66129523Y-34258628D02*
X66319999Y-34211009D01*
X66319999Y-34211009D02*
X66415237Y-34163390D01*
X66415237Y-34163390D02*
X66462856Y-34115771D01*
X66462856Y-34115771D02*
X66510475Y-34020533D01*
X66510475Y-34020533D02*
X66510475Y-33925295D01*
X66510475Y-33925295D02*
X66462856Y-33830057D01*
X66462856Y-33830057D02*
X66415237Y-33782438D01*
X66415237Y-33782438D02*
X66319999Y-33734819D01*
X66319999Y-33734819D02*
X66081904Y-33734819D01*
X66081904Y-33734819D02*
X65939047Y-33782438D01*
X64939047Y-34639580D02*
X64986666Y-34687200D01*
X64986666Y-34687200D02*
X65129523Y-34734819D01*
X65129523Y-34734819D02*
X65224761Y-34734819D01*
X65224761Y-34734819D02*
X65367618Y-34687200D01*
X65367618Y-34687200D02*
X65462856Y-34591961D01*
X65462856Y-34591961D02*
X65510475Y-34496723D01*
X65510475Y-34496723D02*
X65558094Y-34306247D01*
X65558094Y-34306247D02*
X65558094Y-34163390D01*
X65558094Y-34163390D02*
X65510475Y-33972914D01*
X65510475Y-33972914D02*
X65462856Y-33877676D01*
X65462856Y-33877676D02*
X65367618Y-33782438D01*
X65367618Y-33782438D02*
X65224761Y-33734819D01*
X65224761Y-33734819D02*
X65129523Y-33734819D01*
X65129523Y-33734819D02*
X64986666Y-33782438D01*
X64986666Y-33782438D02*
X64939047Y-33830057D01*
X64034285Y-34734819D02*
X64510475Y-34734819D01*
X64510475Y-34734819D02*
X64510475Y-33734819D01*
D13*
X59624762Y-52806800D02*
X59510476Y-52844895D01*
X59510476Y-52844895D02*
X59320000Y-52844895D01*
X59320000Y-52844895D02*
X59243809Y-52806800D01*
X59243809Y-52806800D02*
X59205714Y-52768704D01*
X59205714Y-52768704D02*
X59167619Y-52692514D01*
X59167619Y-52692514D02*
X59167619Y-52616323D01*
X59167619Y-52616323D02*
X59205714Y-52540133D01*
X59205714Y-52540133D02*
X59243809Y-52502038D01*
X59243809Y-52502038D02*
X59320000Y-52463942D01*
X59320000Y-52463942D02*
X59472381Y-52425847D01*
X59472381Y-52425847D02*
X59548571Y-52387752D01*
X59548571Y-52387752D02*
X59586666Y-52349657D01*
X59586666Y-52349657D02*
X59624762Y-52273466D01*
X59624762Y-52273466D02*
X59624762Y-52197276D01*
X59624762Y-52197276D02*
X59586666Y-52121085D01*
X59586666Y-52121085D02*
X59548571Y-52082990D01*
X59548571Y-52082990D02*
X59472381Y-52044895D01*
X59472381Y-52044895D02*
X59281904Y-52044895D01*
X59281904Y-52044895D02*
X59167619Y-52082990D01*
X58900952Y-52044895D02*
X58710476Y-52844895D01*
X58710476Y-52844895D02*
X58558095Y-52273466D01*
X58558095Y-52273466D02*
X58405714Y-52844895D01*
X58405714Y-52844895D02*
X58215238Y-52044895D01*
X57491428Y-52082990D02*
X57567618Y-52044895D01*
X57567618Y-52044895D02*
X57681904Y-52044895D01*
X57681904Y-52044895D02*
X57796190Y-52082990D01*
X57796190Y-52082990D02*
X57872380Y-52159180D01*
X57872380Y-52159180D02*
X57910475Y-52235371D01*
X57910475Y-52235371D02*
X57948571Y-52387752D01*
X57948571Y-52387752D02*
X57948571Y-52502038D01*
X57948571Y-52502038D02*
X57910475Y-52654419D01*
X57910475Y-52654419D02*
X57872380Y-52730609D01*
X57872380Y-52730609D02*
X57796190Y-52806800D01*
X57796190Y-52806800D02*
X57681904Y-52844895D01*
X57681904Y-52844895D02*
X57605713Y-52844895D01*
X57605713Y-52844895D02*
X57491428Y-52806800D01*
X57491428Y-52806800D02*
X57453332Y-52768704D01*
X57453332Y-52768704D02*
X57453332Y-52502038D01*
X57453332Y-52502038D02*
X57605713Y-52502038D01*
X57110475Y-52844895D02*
X57110475Y-52044895D01*
X57110475Y-52044895D02*
X56653332Y-52844895D01*
X56653332Y-52844895D02*
X56653332Y-52044895D01*
X56272380Y-52844895D02*
X56272380Y-52044895D01*
X56272380Y-52044895D02*
X56081904Y-52044895D01*
X56081904Y-52044895D02*
X55967618Y-52082990D01*
X55967618Y-52082990D02*
X55891428Y-52159180D01*
X55891428Y-52159180D02*
X55853333Y-52235371D01*
X55853333Y-52235371D02*
X55815237Y-52387752D01*
X55815237Y-52387752D02*
X55815237Y-52502038D01*
X55815237Y-52502038D02*
X55853333Y-52654419D01*
X55853333Y-52654419D02*
X55891428Y-52730609D01*
X55891428Y-52730609D02*
X55967618Y-52806800D01*
X55967618Y-52806800D02*
X56081904Y-52844895D01*
X56081904Y-52844895D02*
X56272380Y-52844895D01*
D11*
X68153332Y-38649104D02*
X67677142Y-38649104D01*
X68248570Y-38934819D02*
X67915237Y-37934819D01*
X67915237Y-37934819D02*
X67581904Y-38934819D01*
X66819999Y-38268152D02*
X66819999Y-38934819D01*
X67248570Y-38268152D02*
X67248570Y-38791961D01*
X67248570Y-38791961D02*
X67200951Y-38887200D01*
X67200951Y-38887200D02*
X67105713Y-38934819D01*
X67105713Y-38934819D02*
X66962856Y-38934819D01*
X66962856Y-38934819D02*
X66867618Y-38887200D01*
X66867618Y-38887200D02*
X66819999Y-38839580D01*
X66439046Y-38934819D02*
X65915237Y-38268152D01*
X66439046Y-38268152D02*
X65915237Y-38934819D01*
X65534284Y-38839580D02*
X65486665Y-38887200D01*
X65486665Y-38887200D02*
X65534284Y-38934819D01*
X65534284Y-38934819D02*
X65581903Y-38887200D01*
X65581903Y-38887200D02*
X65534284Y-38839580D01*
X65534284Y-38839580D02*
X65534284Y-38934819D01*
X62071191Y-58718152D02*
X61890239Y-59384819D01*
X61890239Y-59384819D02*
X61709286Y-58908628D01*
X61709286Y-58908628D02*
X61528334Y-59384819D01*
X61528334Y-59384819D02*
X61347382Y-58718152D01*
X61075953Y-58718152D02*
X60895001Y-59384819D01*
X60895001Y-59384819D02*
X60714048Y-58908628D01*
X60714048Y-58908628D02*
X60533096Y-59384819D01*
X60533096Y-59384819D02*
X60352144Y-58718152D01*
X60080715Y-58718152D02*
X59899763Y-59384819D01*
X59899763Y-59384819D02*
X59718810Y-58908628D01*
X59718810Y-58908628D02*
X59537858Y-59384819D01*
X59537858Y-59384819D02*
X59356906Y-58718152D01*
X58995001Y-59289580D02*
X58949763Y-59337200D01*
X58949763Y-59337200D02*
X58995001Y-59384819D01*
X58995001Y-59384819D02*
X59040239Y-59337200D01*
X59040239Y-59337200D02*
X58995001Y-59289580D01*
X58995001Y-59289580D02*
X58995001Y-59384819D01*
X58135477Y-59384819D02*
X58135477Y-58861009D01*
X58135477Y-58861009D02*
X58180715Y-58765771D01*
X58180715Y-58765771D02*
X58271191Y-58718152D01*
X58271191Y-58718152D02*
X58452144Y-58718152D01*
X58452144Y-58718152D02*
X58542620Y-58765771D01*
X58135477Y-59337200D02*
X58225953Y-59384819D01*
X58225953Y-59384819D02*
X58452144Y-59384819D01*
X58452144Y-59384819D02*
X58542620Y-59337200D01*
X58542620Y-59337200D02*
X58587858Y-59241961D01*
X58587858Y-59241961D02*
X58587858Y-59146723D01*
X58587858Y-59146723D02*
X58542620Y-59051485D01*
X58542620Y-59051485D02*
X58452144Y-59003866D01*
X58452144Y-59003866D02*
X58225953Y-59003866D01*
X58225953Y-59003866D02*
X58135477Y-58956247D01*
X57728334Y-59337200D02*
X57637858Y-59384819D01*
X57637858Y-59384819D02*
X57456906Y-59384819D01*
X57456906Y-59384819D02*
X57366429Y-59337200D01*
X57366429Y-59337200D02*
X57321191Y-59241961D01*
X57321191Y-59241961D02*
X57321191Y-59194342D01*
X57321191Y-59194342D02*
X57366429Y-59099104D01*
X57366429Y-59099104D02*
X57456906Y-59051485D01*
X57456906Y-59051485D02*
X57592620Y-59051485D01*
X57592620Y-59051485D02*
X57683096Y-59003866D01*
X57683096Y-59003866D02*
X57728334Y-58908628D01*
X57728334Y-58908628D02*
X57728334Y-58861009D01*
X57728334Y-58861009D02*
X57683096Y-58765771D01*
X57683096Y-58765771D02*
X57592620Y-58718152D01*
X57592620Y-58718152D02*
X57456906Y-58718152D01*
X57456906Y-58718152D02*
X57366429Y-58765771D01*
X57049762Y-58718152D02*
X56687858Y-58718152D01*
X56914048Y-58384819D02*
X56914048Y-59241961D01*
X56914048Y-59241961D02*
X56868810Y-59337200D01*
X56868810Y-59337200D02*
X56778334Y-59384819D01*
X56778334Y-59384819D02*
X56687858Y-59384819D01*
X56371191Y-59384819D02*
X56371191Y-58718152D01*
X56371191Y-58908628D02*
X56325953Y-58813390D01*
X56325953Y-58813390D02*
X56280715Y-58765771D01*
X56280715Y-58765771D02*
X56190239Y-58718152D01*
X56190239Y-58718152D02*
X56099762Y-58718152D01*
X55647382Y-59384819D02*
X55737858Y-59337200D01*
X55737858Y-59337200D02*
X55783096Y-59289580D01*
X55783096Y-59289580D02*
X55828334Y-59194342D01*
X55828334Y-59194342D02*
X55828334Y-58908628D01*
X55828334Y-58908628D02*
X55783096Y-58813390D01*
X55783096Y-58813390D02*
X55737858Y-58765771D01*
X55737858Y-58765771D02*
X55647382Y-58718152D01*
X55647382Y-58718152D02*
X55511667Y-58718152D01*
X55511667Y-58718152D02*
X55421191Y-58765771D01*
X55421191Y-58765771D02*
X55375953Y-58813390D01*
X55375953Y-58813390D02*
X55330715Y-58908628D01*
X55330715Y-58908628D02*
X55330715Y-59194342D01*
X55330715Y-59194342D02*
X55375953Y-59289580D01*
X55375953Y-59289580D02*
X55421191Y-59337200D01*
X55421191Y-59337200D02*
X55511667Y-59384819D01*
X55511667Y-59384819D02*
X55647382Y-59384819D01*
X54923572Y-59384819D02*
X54923572Y-58718152D01*
X54923572Y-58813390D02*
X54878334Y-58765771D01*
X54878334Y-58765771D02*
X54787858Y-58718152D01*
X54787858Y-58718152D02*
X54652143Y-58718152D01*
X54652143Y-58718152D02*
X54561667Y-58765771D01*
X54561667Y-58765771D02*
X54516429Y-58861009D01*
X54516429Y-58861009D02*
X54516429Y-59384819D01*
X54516429Y-58861009D02*
X54471191Y-58765771D01*
X54471191Y-58765771D02*
X54380715Y-58718152D01*
X54380715Y-58718152D02*
X54245001Y-58718152D01*
X54245001Y-58718152D02*
X54154524Y-58765771D01*
X54154524Y-58765771D02*
X54109286Y-58861009D01*
X54109286Y-58861009D02*
X54109286Y-59384819D01*
X53295000Y-59337200D02*
X53385476Y-59384819D01*
X53385476Y-59384819D02*
X53566429Y-59384819D01*
X53566429Y-59384819D02*
X53656905Y-59337200D01*
X53656905Y-59337200D02*
X53702143Y-59241961D01*
X53702143Y-59241961D02*
X53702143Y-58861009D01*
X53702143Y-58861009D02*
X53656905Y-58765771D01*
X53656905Y-58765771D02*
X53566429Y-58718152D01*
X53566429Y-58718152D02*
X53385476Y-58718152D01*
X53385476Y-58718152D02*
X53295000Y-58765771D01*
X53295000Y-58765771D02*
X53249762Y-58861009D01*
X53249762Y-58861009D02*
X53249762Y-58956247D01*
X53249762Y-58956247D02*
X53702143Y-59051485D01*
X52978333Y-58718152D02*
X52616429Y-58718152D01*
X52842619Y-58384819D02*
X52842619Y-59241961D01*
X52842619Y-59241961D02*
X52797381Y-59337200D01*
X52797381Y-59337200D02*
X52706905Y-59384819D01*
X52706905Y-59384819D02*
X52616429Y-59384819D01*
X51937857Y-59337200D02*
X52028333Y-59384819D01*
X52028333Y-59384819D02*
X52209286Y-59384819D01*
X52209286Y-59384819D02*
X52299762Y-59337200D01*
X52299762Y-59337200D02*
X52345000Y-59241961D01*
X52345000Y-59241961D02*
X52345000Y-58861009D01*
X52345000Y-58861009D02*
X52299762Y-58765771D01*
X52299762Y-58765771D02*
X52209286Y-58718152D01*
X52209286Y-58718152D02*
X52028333Y-58718152D01*
X52028333Y-58718152D02*
X51937857Y-58765771D01*
X51937857Y-58765771D02*
X51892619Y-58861009D01*
X51892619Y-58861009D02*
X51892619Y-58956247D01*
X51892619Y-58956247D02*
X52345000Y-59051485D01*
X51485476Y-59384819D02*
X51485476Y-58718152D01*
X51485476Y-58908628D02*
X51440238Y-58813390D01*
X51440238Y-58813390D02*
X51395000Y-58765771D01*
X51395000Y-58765771D02*
X51304524Y-58718152D01*
X51304524Y-58718152D02*
X51214047Y-58718152D01*
X50942619Y-59337200D02*
X50852143Y-59384819D01*
X50852143Y-59384819D02*
X50671191Y-59384819D01*
X50671191Y-59384819D02*
X50580714Y-59337200D01*
X50580714Y-59337200D02*
X50535476Y-59241961D01*
X50535476Y-59241961D02*
X50535476Y-59194342D01*
X50535476Y-59194342D02*
X50580714Y-59099104D01*
X50580714Y-59099104D02*
X50671191Y-59051485D01*
X50671191Y-59051485D02*
X50806905Y-59051485D01*
X50806905Y-59051485D02*
X50897381Y-59003866D01*
X50897381Y-59003866D02*
X50942619Y-58908628D01*
X50942619Y-58908628D02*
X50942619Y-58861009D01*
X50942619Y-58861009D02*
X50897381Y-58765771D01*
X50897381Y-58765771D02*
X50806905Y-58718152D01*
X50806905Y-58718152D02*
X50671191Y-58718152D01*
X50671191Y-58718152D02*
X50580714Y-58765771D01*
X50128333Y-59289580D02*
X50083095Y-59337200D01*
X50083095Y-59337200D02*
X50128333Y-59384819D01*
X50128333Y-59384819D02*
X50173571Y-59337200D01*
X50173571Y-59337200D02*
X50128333Y-59289580D01*
X50128333Y-59289580D02*
X50128333Y-59384819D01*
X49314047Y-59337200D02*
X49404523Y-59384819D01*
X49404523Y-59384819D02*
X49585476Y-59384819D01*
X49585476Y-59384819D02*
X49675952Y-59337200D01*
X49675952Y-59337200D02*
X49721190Y-59241961D01*
X49721190Y-59241961D02*
X49721190Y-58861009D01*
X49721190Y-58861009D02*
X49675952Y-58765771D01*
X49675952Y-58765771D02*
X49585476Y-58718152D01*
X49585476Y-58718152D02*
X49404523Y-58718152D01*
X49404523Y-58718152D02*
X49314047Y-58765771D01*
X49314047Y-58765771D02*
X49268809Y-58861009D01*
X49268809Y-58861009D02*
X49268809Y-58956247D01*
X49268809Y-58956247D02*
X49721190Y-59051485D01*
X48454523Y-58718152D02*
X48454523Y-59384819D01*
X48861666Y-58718152D02*
X48861666Y-59241961D01*
X48861666Y-59241961D02*
X48816428Y-59337200D01*
X48816428Y-59337200D02*
X48725952Y-59384819D01*
X48725952Y-59384819D02*
X48590237Y-59384819D01*
X48590237Y-59384819D02*
X48499761Y-59337200D01*
X48499761Y-59337200D02*
X48454523Y-59289580D01*
X47956904Y-59337200D02*
X47956904Y-59384819D01*
X47956904Y-59384819D02*
X48002142Y-59480057D01*
X48002142Y-59480057D02*
X48047380Y-59527676D01*
X46871189Y-58480057D02*
X46825951Y-58432438D01*
X46825951Y-58432438D02*
X46735475Y-58384819D01*
X46735475Y-58384819D02*
X46509284Y-58384819D01*
X46509284Y-58384819D02*
X46418808Y-58432438D01*
X46418808Y-58432438D02*
X46373570Y-58480057D01*
X46373570Y-58480057D02*
X46328332Y-58575295D01*
X46328332Y-58575295D02*
X46328332Y-58670533D01*
X46328332Y-58670533D02*
X46373570Y-58813390D01*
X46373570Y-58813390D02*
X46916427Y-59384819D01*
X46916427Y-59384819D02*
X46328332Y-59384819D01*
X45740237Y-58384819D02*
X45649760Y-58384819D01*
X45649760Y-58384819D02*
X45559284Y-58432438D01*
X45559284Y-58432438D02*
X45514046Y-58480057D01*
X45514046Y-58480057D02*
X45468808Y-58575295D01*
X45468808Y-58575295D02*
X45423570Y-58765771D01*
X45423570Y-58765771D02*
X45423570Y-59003866D01*
X45423570Y-59003866D02*
X45468808Y-59194342D01*
X45468808Y-59194342D02*
X45514046Y-59289580D01*
X45514046Y-59289580D02*
X45559284Y-59337200D01*
X45559284Y-59337200D02*
X45649760Y-59384819D01*
X45649760Y-59384819D02*
X45740237Y-59384819D01*
X45740237Y-59384819D02*
X45830713Y-59337200D01*
X45830713Y-59337200D02*
X45875951Y-59289580D01*
X45875951Y-59289580D02*
X45921189Y-59194342D01*
X45921189Y-59194342D02*
X45966427Y-59003866D01*
X45966427Y-59003866D02*
X45966427Y-58765771D01*
X45966427Y-58765771D02*
X45921189Y-58575295D01*
X45921189Y-58575295D02*
X45875951Y-58480057D01*
X45875951Y-58480057D02*
X45830713Y-58432438D01*
X45830713Y-58432438D02*
X45740237Y-58384819D01*
X45061665Y-58480057D02*
X45016427Y-58432438D01*
X45016427Y-58432438D02*
X44925951Y-58384819D01*
X44925951Y-58384819D02*
X44699760Y-58384819D01*
X44699760Y-58384819D02*
X44609284Y-58432438D01*
X44609284Y-58432438D02*
X44564046Y-58480057D01*
X44564046Y-58480057D02*
X44518808Y-58575295D01*
X44518808Y-58575295D02*
X44518808Y-58670533D01*
X44518808Y-58670533D02*
X44564046Y-58813390D01*
X44564046Y-58813390D02*
X45106903Y-59384819D01*
X45106903Y-59384819D02*
X44518808Y-59384819D01*
X44202141Y-58384819D02*
X43614046Y-58384819D01*
X43614046Y-58384819D02*
X43930713Y-58765771D01*
X43930713Y-58765771D02*
X43794998Y-58765771D01*
X43794998Y-58765771D02*
X43704522Y-58813390D01*
X43704522Y-58813390D02*
X43659284Y-58861009D01*
X43659284Y-58861009D02*
X43614046Y-58956247D01*
X43614046Y-58956247D02*
X43614046Y-59194342D01*
X43614046Y-59194342D02*
X43659284Y-59289580D01*
X43659284Y-59289580D02*
X43704522Y-59337200D01*
X43704522Y-59337200D02*
X43794998Y-59384819D01*
X43794998Y-59384819D02*
X44066427Y-59384819D01*
X44066427Y-59384819D02*
X44156903Y-59337200D01*
X44156903Y-59337200D02*
X44202141Y-59289580D01*
G36*
X47567271Y-19650260D02*
G01*
X47604738Y-19682228D01*
X47643857Y-19748983D01*
X47643857Y-19993984D01*
X47604737Y-20060742D01*
X47567272Y-20092709D01*
X47480289Y-20129819D01*
X47287711Y-20129819D01*
X47235762Y-20107656D01*
X47235762Y-19635314D01*
X47287711Y-19613152D01*
X47480289Y-19613152D01*
X47567271Y-19650260D01*
G37*
G36*
X49023047Y-19890372D02*
G01*
X49036264Y-19898866D01*
X49053874Y-19898866D01*
X49071353Y-19900932D01*
X49075591Y-19898866D01*
X49322004Y-19898866D01*
X49396757Y-19930757D01*
X49429762Y-19987078D01*
X49429762Y-20041604D01*
X49396757Y-20097927D01*
X49322004Y-20129819D01*
X49073616Y-20129819D01*
X49021667Y-20107656D01*
X49021667Y-19889783D01*
X49023047Y-19890372D01*
G37*
G36*
X50413557Y-19650260D02*
G01*
X50451024Y-19682228D01*
X50490143Y-19748983D01*
X50490143Y-19993984D01*
X50451023Y-20060742D01*
X50413558Y-20092709D01*
X50326575Y-20129819D01*
X50189807Y-20129819D01*
X50102826Y-20092711D01*
X50065357Y-20060741D01*
X50026239Y-19993986D01*
X50026239Y-19748983D01*
X50065356Y-19682228D01*
X50102824Y-19650260D01*
X50189807Y-19613152D01*
X50326575Y-19613152D01*
X50413557Y-19650260D01*
G37*
G36*
X51494715Y-19635314D02*
G01*
X51494715Y-20107656D01*
X51442766Y-20129819D01*
X51250188Y-20129819D01*
X51163207Y-20092711D01*
X51125738Y-20060741D01*
X51086620Y-19993986D01*
X51086620Y-19748983D01*
X51125737Y-19682228D01*
X51163205Y-19650260D01*
X51250188Y-19613152D01*
X51442766Y-19613152D01*
X51494715Y-19635314D01*
G37*
G36*
X54041176Y-19650260D02*
G01*
X54078643Y-19682228D01*
X54117762Y-19748983D01*
X54117762Y-19993984D01*
X54078642Y-20060742D01*
X54041177Y-20092709D01*
X53954194Y-20129819D01*
X53817426Y-20129819D01*
X53730445Y-20092711D01*
X53692976Y-20060741D01*
X53653858Y-19993986D01*
X53653858Y-19748983D01*
X53692975Y-19682228D01*
X53730443Y-19650260D01*
X53817426Y-19613152D01*
X53954194Y-19613152D01*
X54041176Y-19650260D01*
G37*
G36*
X57557176Y-19650260D02*
G01*
X57594643Y-19682228D01*
X57633762Y-19748983D01*
X57633762Y-19993984D01*
X57594642Y-20060742D01*
X57557177Y-20092709D01*
X57470194Y-20129819D01*
X57333426Y-20129819D01*
X57246445Y-20092711D01*
X57208976Y-20060741D01*
X57169858Y-19993986D01*
X57169858Y-19748983D01*
X57208975Y-19682228D01*
X57246443Y-19650260D01*
X57333426Y-19613152D01*
X57470194Y-19613152D01*
X57557176Y-19650260D01*
G37*
G36*
X61228375Y-19645043D02*
G01*
X61261380Y-19701364D01*
X61261380Y-19782601D01*
X60853285Y-19712961D01*
X60853285Y-19701365D01*
X60886289Y-19645044D01*
X60961044Y-19613152D01*
X61153622Y-19613152D01*
X61228375Y-19645043D01*
G37*
G36*
X65258889Y-19650260D02*
G01*
X65296356Y-19682228D01*
X65335475Y-19748983D01*
X65335475Y-19993984D01*
X65296355Y-20060742D01*
X65258890Y-20092709D01*
X65171907Y-20129819D01*
X65035139Y-20129819D01*
X64948158Y-20092711D01*
X64910689Y-20060741D01*
X64871571Y-19993986D01*
X64871571Y-19748983D01*
X64910688Y-19682228D01*
X64948156Y-19650260D01*
X65035139Y-19613152D01*
X65171907Y-19613152D01*
X65258889Y-19650260D01*
G37*
G36*
X67076442Y-20805357D02*
G01*
X46443558Y-20805357D01*
X46443558Y-19583805D01*
X47082621Y-19583805D01*
X47085762Y-19595590D01*
X47085762Y-20136199D01*
X47085232Y-20137072D01*
X47085762Y-20158133D01*
X47085762Y-20215601D01*
X47095005Y-20247079D01*
X47128291Y-20275921D01*
X47171886Y-20282189D01*
X47211950Y-20263893D01*
X47213622Y-20261291D01*
X47237142Y-20271325D01*
X47250359Y-20279819D01*
X47267969Y-20279819D01*
X47285448Y-20281885D01*
X47289686Y-20279819D01*
X47489307Y-20279819D01*
X47504794Y-20282445D01*
X47520992Y-20275534D01*
X47537879Y-20270576D01*
X47540966Y-20267013D01*
X47627366Y-20230153D01*
X47639167Y-20228548D01*
X47655448Y-20214655D01*
X47671911Y-20201100D01*
X47672128Y-20200423D01*
X47704939Y-20172426D01*
X47716622Y-20166499D01*
X47726836Y-20149068D01*
X47737878Y-20132172D01*
X47737892Y-20130200D01*
X47782784Y-20053593D01*
X47793857Y-20036364D01*
X47793857Y-20023551D01*
X47796956Y-20011127D01*
X47793857Y-20001982D01*
X47793857Y-19730169D01*
X47794699Y-19709709D01*
X47788222Y-19698656D01*
X47784614Y-19686368D01*
X47777315Y-19680043D01*
X47732267Y-19603170D01*
X47728481Y-19590629D01*
X47713108Y-19577512D01*
X47698416Y-19563683D01*
X47696477Y-19563322D01*
X47680015Y-19549276D01*
X47976345Y-19549276D01*
X47994641Y-19589340D01*
X48031693Y-19613152D01*
X48150004Y-19613152D01*
X48236984Y-19650259D01*
X48274453Y-19682230D01*
X48313572Y-19748984D01*
X48313572Y-20215601D01*
X48322815Y-20247079D01*
X48356101Y-20275921D01*
X48399696Y-20282189D01*
X48439760Y-20263893D01*
X48463572Y-20226841D01*
X48463572Y-19730168D01*
X48464414Y-19709709D01*
X48463572Y-19708272D01*
X48463572Y-19684224D01*
X48868567Y-19684224D01*
X48871667Y-19693371D01*
X48871667Y-19755246D01*
X48871137Y-19756119D01*
X48871667Y-19777180D01*
X48871667Y-20136199D01*
X48871137Y-20137072D01*
X48871667Y-20158133D01*
X48871667Y-20215601D01*
X48880910Y-20247079D01*
X48914196Y-20275921D01*
X48957791Y-20282189D01*
X48997855Y-20263893D01*
X48999527Y-20261291D01*
X49023047Y-20271325D01*
X49036264Y-20279819D01*
X49053874Y-20279819D01*
X49071353Y-20281885D01*
X49075591Y-20279819D01*
X49331022Y-20279819D01*
X49346509Y-20282445D01*
X49362707Y-20275534D01*
X49379594Y-20270576D01*
X49382681Y-20267013D01*
X49460590Y-20233775D01*
X49463250Y-20234047D01*
X49480666Y-20225210D01*
X49488300Y-20221954D01*
X49490249Y-20220348D01*
X49502528Y-20214119D01*
X49506922Y-20206619D01*
X49513626Y-20201100D01*
X49517833Y-20188000D01*
X49568695Y-20101203D01*
X49579762Y-20083983D01*
X49579761Y-20071173D01*
X49582862Y-20058745D01*
X49579762Y-20049598D01*
X49579762Y-19968264D01*
X49580604Y-19947804D01*
X49574127Y-19936751D01*
X49570519Y-19924463D01*
X49563220Y-19918138D01*
X49523442Y-19850257D01*
X49523375Y-19847583D01*
X49512401Y-19831417D01*
X49508210Y-19824264D01*
X49506371Y-19822533D01*
X49498639Y-19811142D01*
X49490646Y-19807732D01*
X49484321Y-19801778D01*
X49470789Y-19799260D01*
X49372572Y-19757359D01*
X49359356Y-19748866D01*
X49341746Y-19748866D01*
X49324267Y-19746800D01*
X49320029Y-19748866D01*
X49073616Y-19748866D01*
X49033715Y-19731843D01*
X49873139Y-19731843D01*
X49876239Y-19740989D01*
X49876239Y-20012800D01*
X49875397Y-20033261D01*
X49881873Y-20044313D01*
X49885482Y-20056602D01*
X49892780Y-20062926D01*
X49937827Y-20139798D01*
X49941614Y-20152340D01*
X49956990Y-20165460D01*
X49971680Y-20179286D01*
X49973617Y-20179646D01*
X50006483Y-20207689D01*
X50013172Y-20217543D01*
X50032849Y-20225937D01*
X50052324Y-20234653D01*
X50053028Y-20234546D01*
X50139238Y-20271325D01*
X50152455Y-20279819D01*
X50170065Y-20279819D01*
X50187544Y-20281885D01*
X50191782Y-20279819D01*
X50335593Y-20279819D01*
X50351080Y-20282445D01*
X50367278Y-20275534D01*
X50384165Y-20270576D01*
X50387252Y-20267013D01*
X50473652Y-20230153D01*
X50485453Y-20228548D01*
X50501734Y-20214655D01*
X50518197Y-20201100D01*
X50518414Y-20200423D01*
X50551225Y-20172426D01*
X50562908Y-20166499D01*
X50573122Y-20149068D01*
X50584164Y-20132172D01*
X50584178Y-20130200D01*
X50629070Y-20053593D01*
X50640143Y-20036364D01*
X50640143Y-20023551D01*
X50643242Y-20011127D01*
X50640143Y-20001982D01*
X50640143Y-19731843D01*
X50933520Y-19731843D01*
X50936620Y-19740989D01*
X50936620Y-20012800D01*
X50935778Y-20033261D01*
X50942254Y-20044313D01*
X50945863Y-20056602D01*
X50953161Y-20062926D01*
X50998208Y-20139798D01*
X51001995Y-20152340D01*
X51017371Y-20165460D01*
X51032061Y-20179286D01*
X51033998Y-20179646D01*
X51066864Y-20207689D01*
X51073553Y-20217543D01*
X51093230Y-20225937D01*
X51112705Y-20234653D01*
X51113409Y-20234546D01*
X51199619Y-20271325D01*
X51212836Y-20279819D01*
X51230446Y-20279819D01*
X51247925Y-20281885D01*
X51252163Y-20279819D01*
X51451784Y-20279819D01*
X51467271Y-20282445D01*
X51483469Y-20275534D01*
X51500356Y-20270576D01*
X51503443Y-20267013D01*
X51519203Y-20260289D01*
X51537244Y-20275921D01*
X51580839Y-20282189D01*
X51620903Y-20263893D01*
X51644715Y-20226841D01*
X51644715Y-20202853D01*
X52831002Y-20202853D01*
X52842344Y-20245411D01*
X52874893Y-20275082D01*
X52918318Y-20282445D01*
X53032397Y-20233776D01*
X53035059Y-20234048D01*
X53052479Y-20225208D01*
X53060109Y-20221954D01*
X53062059Y-20220348D01*
X53074336Y-20214119D01*
X53078729Y-20206621D01*
X53085435Y-20201100D01*
X53089642Y-20187998D01*
X53140503Y-20101206D01*
X53151572Y-20083983D01*
X53151572Y-20071173D01*
X53154672Y-20058746D01*
X53151572Y-20049598D01*
X53151572Y-19731843D01*
X53500758Y-19731843D01*
X53503858Y-19740989D01*
X53503858Y-20012800D01*
X53503016Y-20033261D01*
X53509492Y-20044313D01*
X53513101Y-20056602D01*
X53520399Y-20062926D01*
X53565446Y-20139798D01*
X53569233Y-20152340D01*
X53584609Y-20165460D01*
X53599299Y-20179286D01*
X53601236Y-20179646D01*
X53634102Y-20207689D01*
X53640791Y-20217543D01*
X53660468Y-20225937D01*
X53679943Y-20234653D01*
X53680647Y-20234546D01*
X53766857Y-20271325D01*
X53780074Y-20279819D01*
X53797684Y-20279819D01*
X53815163Y-20281885D01*
X53819401Y-20279819D01*
X53963212Y-20279819D01*
X53978699Y-20282445D01*
X53994897Y-20275534D01*
X54011784Y-20270576D01*
X54014871Y-20267013D01*
X54101271Y-20230153D01*
X54113072Y-20228548D01*
X54129353Y-20214655D01*
X54145816Y-20201100D01*
X54146033Y-20200423D01*
X54178844Y-20172426D01*
X54190527Y-20166499D01*
X54200741Y-20149068D01*
X54211783Y-20132172D01*
X54211797Y-20130200D01*
X54256689Y-20053593D01*
X54267762Y-20036364D01*
X54267762Y-20023551D01*
X54270861Y-20011127D01*
X54267762Y-20001982D01*
X54267762Y-19730169D01*
X54268604Y-19709709D01*
X54262127Y-19698656D01*
X54258519Y-19686368D01*
X54251220Y-19680043D01*
X54206172Y-19603170D01*
X54202386Y-19590629D01*
X54187013Y-19577512D01*
X54172321Y-19563683D01*
X54170382Y-19563322D01*
X54153920Y-19549276D01*
X54450250Y-19549276D01*
X54468546Y-19589340D01*
X54505598Y-19613152D01*
X54623909Y-19613152D01*
X54710889Y-19650259D01*
X54748358Y-19682230D01*
X54787477Y-19748984D01*
X54787477Y-20215601D01*
X54796720Y-20247079D01*
X54830006Y-20275921D01*
X54873601Y-20282189D01*
X54913665Y-20263893D01*
X54937477Y-20226841D01*
X54937477Y-20215943D01*
X55175773Y-20215943D01*
X55194069Y-20256007D01*
X55231121Y-20279819D01*
X55358450Y-20279819D01*
X55373937Y-20282445D01*
X55390135Y-20275534D01*
X55407022Y-20270576D01*
X55410109Y-20267013D01*
X55488016Y-20233776D01*
X55490678Y-20234048D01*
X55508098Y-20225208D01*
X55515728Y-20221954D01*
X55517678Y-20220348D01*
X55529955Y-20214119D01*
X55534348Y-20206621D01*
X55541054Y-20201100D01*
X55545261Y-20187998D01*
X55596122Y-20101206D01*
X55607191Y-20083983D01*
X55607191Y-20071173D01*
X55610291Y-20058746D01*
X55607191Y-20049598D01*
X55607191Y-19684224D01*
X56012186Y-19684224D01*
X56015286Y-19693371D01*
X56015286Y-20215601D01*
X56024529Y-20247079D01*
X56057815Y-20275921D01*
X56101410Y-20282189D01*
X56141474Y-20263893D01*
X56165286Y-20226841D01*
X56165286Y-19701365D01*
X56198290Y-19645044D01*
X56273045Y-19613152D01*
X56409813Y-19613152D01*
X56496795Y-19650260D01*
X56517572Y-19667987D01*
X56517572Y-20215601D01*
X56526815Y-20247079D01*
X56560101Y-20275921D01*
X56603696Y-20282189D01*
X56643760Y-20263893D01*
X56667572Y-20226841D01*
X56667572Y-19731843D01*
X57016758Y-19731843D01*
X57019858Y-19740989D01*
X57019858Y-20012800D01*
X57019016Y-20033261D01*
X57025492Y-20044313D01*
X57029101Y-20056602D01*
X57036399Y-20062926D01*
X57081446Y-20139798D01*
X57085233Y-20152340D01*
X57100609Y-20165460D01*
X57115299Y-20179286D01*
X57117236Y-20179646D01*
X57150102Y-20207689D01*
X57156791Y-20217543D01*
X57176468Y-20225937D01*
X57195943Y-20234653D01*
X57196647Y-20234546D01*
X57282857Y-20271325D01*
X57296074Y-20279819D01*
X57313684Y-20279819D01*
X57331163Y-20281885D01*
X57335401Y-20279819D01*
X57479212Y-20279819D01*
X57494699Y-20282445D01*
X57510897Y-20275534D01*
X57527784Y-20270576D01*
X57530871Y-20267013D01*
X57617271Y-20230153D01*
X57629072Y-20228548D01*
X57645353Y-20214655D01*
X57661816Y-20201100D01*
X57662033Y-20200423D01*
X57694844Y-20172426D01*
X57706527Y-20166499D01*
X57716741Y-20149068D01*
X57727783Y-20132172D01*
X57727797Y-20130200D01*
X57772689Y-20053593D01*
X57783762Y-20036364D01*
X57783762Y-20023551D01*
X57786861Y-20011127D01*
X57783762Y-20001982D01*
X57783762Y-19730169D01*
X57784604Y-19709709D01*
X57778127Y-19698656D01*
X57774519Y-19686368D01*
X57767220Y-19680043D01*
X57722172Y-19603170D01*
X57718386Y-19590629D01*
X57710388Y-19583805D01*
X58077097Y-19583805D01*
X58088439Y-19626363D01*
X58120988Y-19656034D01*
X58164413Y-19663397D01*
X58282187Y-19613152D01*
X58474765Y-19613152D01*
X58561747Y-19650260D01*
X58599214Y-19682228D01*
X58638333Y-19748983D01*
X58638333Y-19993984D01*
X58599213Y-20060742D01*
X58561748Y-20092709D01*
X58474765Y-20129819D01*
X58282187Y-20129819D01*
X58174751Y-20083985D01*
X58142171Y-20080134D01*
X58102581Y-20099433D01*
X58079708Y-20137072D01*
X58080816Y-20181102D01*
X58105552Y-20217543D01*
X58231618Y-20271325D01*
X58244835Y-20279819D01*
X58262445Y-20279819D01*
X58279924Y-20281885D01*
X58284162Y-20279819D01*
X58483783Y-20279819D01*
X58499270Y-20282445D01*
X58515468Y-20275534D01*
X58532355Y-20270576D01*
X58535442Y-20267013D01*
X58621842Y-20230153D01*
X58633643Y-20228548D01*
X58649924Y-20214655D01*
X58666387Y-20201100D01*
X58666604Y-20200423D01*
X58699415Y-20172426D01*
X58711098Y-20166499D01*
X58721312Y-20149068D01*
X58732354Y-20132172D01*
X58732368Y-20130200D01*
X58777260Y-20053593D01*
X58788333Y-20036364D01*
X58788333Y-20023551D01*
X58791432Y-20011127D01*
X58788333Y-20001982D01*
X58788333Y-19730169D01*
X58789175Y-19709709D01*
X58782698Y-19698656D01*
X58779090Y-19686368D01*
X58771791Y-19680043D01*
X58726743Y-19603170D01*
X58722957Y-19590629D01*
X58707584Y-19577512D01*
X58692892Y-19563683D01*
X58690953Y-19563322D01*
X58674491Y-19549276D01*
X59863773Y-19549276D01*
X59882069Y-19589340D01*
X59919121Y-19613152D01*
X60037432Y-19613152D01*
X60124412Y-19650259D01*
X60161881Y-19682230D01*
X60201000Y-19748984D01*
X60201000Y-20215601D01*
X60210243Y-20247079D01*
X60243529Y-20275921D01*
X60287124Y-20282189D01*
X60327188Y-20263893D01*
X60351000Y-20226841D01*
X60351000Y-19774198D01*
X60700146Y-19774198D01*
X60703285Y-19786027D01*
X60703285Y-19787029D01*
X60706043Y-19796424D01*
X60711442Y-19816768D01*
X60712228Y-19817486D01*
X60712528Y-19818507D01*
X60728418Y-19832275D01*
X60743961Y-19846474D01*
X60745010Y-19846653D01*
X60745814Y-19847349D01*
X60766609Y-19850338D01*
X61261380Y-19934770D01*
X61261380Y-20041604D01*
X61228375Y-20097927D01*
X61153622Y-20129819D01*
X60961044Y-20129819D01*
X60853608Y-20083985D01*
X60821028Y-20080134D01*
X60781438Y-20099433D01*
X60758565Y-20137072D01*
X60759673Y-20181102D01*
X60784409Y-20217543D01*
X60910475Y-20271325D01*
X60923692Y-20279819D01*
X60941302Y-20279819D01*
X60958781Y-20281885D01*
X60963019Y-20279819D01*
X61162640Y-20279819D01*
X61178127Y-20282445D01*
X61194325Y-20275534D01*
X61211212Y-20270576D01*
X61214299Y-20267013D01*
X61292208Y-20233775D01*
X61294868Y-20234047D01*
X61312284Y-20225210D01*
X61319918Y-20221954D01*
X61321867Y-20220348D01*
X61334146Y-20214119D01*
X61338540Y-20206619D01*
X61345244Y-20201100D01*
X61349451Y-20188000D01*
X61400313Y-20101203D01*
X61411380Y-20083983D01*
X61411380Y-20071173D01*
X61414480Y-20058745D01*
X61411380Y-20049598D01*
X61411380Y-20017557D01*
X61704757Y-20017557D01*
X61707857Y-20026703D01*
X61707857Y-20060419D01*
X61707015Y-20080879D01*
X61713491Y-20091930D01*
X61717100Y-20104221D01*
X61724399Y-20110545D01*
X61764176Y-20178426D01*
X61764244Y-20181102D01*
X61775217Y-20197268D01*
X61779409Y-20204421D01*
X61781247Y-20206151D01*
X61788980Y-20217543D01*
X61796973Y-20220953D01*
X61803298Y-20226906D01*
X61816827Y-20229423D01*
X61915046Y-20271325D01*
X61928263Y-20279819D01*
X61945873Y-20279819D01*
X61963352Y-20281885D01*
X61967590Y-20279819D01*
X62167211Y-20279819D01*
X62182698Y-20282445D01*
X62198896Y-20275534D01*
X62215783Y-20270576D01*
X62218870Y-20267013D01*
X62324489Y-20221954D01*
X62349815Y-20201100D01*
X62363283Y-20159166D01*
X62351941Y-20116608D01*
X62344885Y-20110176D01*
X62709264Y-20110176D01*
X62712428Y-20120655D01*
X62712428Y-20215601D01*
X62721671Y-20247079D01*
X62754957Y-20275921D01*
X62798552Y-20282189D01*
X62838616Y-20263893D01*
X62852297Y-20242604D01*
X62919618Y-20271325D01*
X62932835Y-20279819D01*
X62950445Y-20279819D01*
X62967924Y-20281885D01*
X62972162Y-20279819D01*
X63115973Y-20279819D01*
X63131460Y-20282445D01*
X63147658Y-20275534D01*
X63164545Y-20270576D01*
X63167632Y-20267013D01*
X63245539Y-20233776D01*
X63248201Y-20234048D01*
X63265621Y-20225208D01*
X63273251Y-20221954D01*
X63275201Y-20220348D01*
X63287478Y-20214119D01*
X63291871Y-20206621D01*
X63298577Y-20201100D01*
X63302784Y-20187998D01*
X63353645Y-20101206D01*
X63364714Y-20083983D01*
X63364714Y-20071173D01*
X63367814Y-20058746D01*
X63364714Y-20049598D01*
X63364714Y-19583805D01*
X63713858Y-19583805D01*
X63725200Y-19626363D01*
X63757749Y-19656034D01*
X63801174Y-19663397D01*
X63918948Y-19613152D01*
X64111526Y-19613152D01*
X64198508Y-19650260D01*
X64235975Y-19682228D01*
X64275094Y-19748983D01*
X64275094Y-19993984D01*
X64235974Y-20060742D01*
X64198509Y-20092709D01*
X64111526Y-20129819D01*
X63918948Y-20129819D01*
X63811512Y-20083985D01*
X63778932Y-20080134D01*
X63739342Y-20099433D01*
X63716469Y-20137072D01*
X63717577Y-20181102D01*
X63742313Y-20217543D01*
X63868379Y-20271325D01*
X63881596Y-20279819D01*
X63899206Y-20279819D01*
X63916685Y-20281885D01*
X63920923Y-20279819D01*
X64120544Y-20279819D01*
X64136031Y-20282445D01*
X64152229Y-20275534D01*
X64169116Y-20270576D01*
X64172203Y-20267013D01*
X64258603Y-20230153D01*
X64270404Y-20228548D01*
X64286685Y-20214655D01*
X64303148Y-20201100D01*
X64303365Y-20200423D01*
X64336176Y-20172426D01*
X64347859Y-20166499D01*
X64358073Y-20149068D01*
X64369115Y-20132172D01*
X64369129Y-20130200D01*
X64414021Y-20053593D01*
X64425094Y-20036364D01*
X64425094Y-20023551D01*
X64428193Y-20011127D01*
X64425094Y-20001982D01*
X64425094Y-19731843D01*
X64718471Y-19731843D01*
X64721571Y-19740989D01*
X64721571Y-20012800D01*
X64720729Y-20033261D01*
X64727205Y-20044313D01*
X64730814Y-20056602D01*
X64738112Y-20062926D01*
X64783159Y-20139798D01*
X64786946Y-20152340D01*
X64802322Y-20165460D01*
X64817012Y-20179286D01*
X64818949Y-20179646D01*
X64851815Y-20207689D01*
X64858504Y-20217543D01*
X64878181Y-20225937D01*
X64897656Y-20234653D01*
X64898360Y-20234546D01*
X64984570Y-20271325D01*
X64997787Y-20279819D01*
X65015397Y-20279819D01*
X65032876Y-20281885D01*
X65037114Y-20279819D01*
X65180925Y-20279819D01*
X65196412Y-20282445D01*
X65212610Y-20275534D01*
X65229497Y-20270576D01*
X65232584Y-20267013D01*
X65318984Y-20230153D01*
X65330785Y-20228548D01*
X65347066Y-20214655D01*
X65363529Y-20201100D01*
X65363746Y-20200423D01*
X65396557Y-20172426D01*
X65408240Y-20166499D01*
X65418454Y-20149068D01*
X65429496Y-20132172D01*
X65429510Y-20130200D01*
X65474402Y-20053593D01*
X65485475Y-20036364D01*
X65485475Y-20023551D01*
X65488574Y-20011127D01*
X65485475Y-20001982D01*
X65485475Y-19730169D01*
X65486317Y-19709709D01*
X65479840Y-19698656D01*
X65476232Y-19686368D01*
X65468933Y-19680043D01*
X65423885Y-19603170D01*
X65420099Y-19590629D01*
X65404726Y-19577512D01*
X65390034Y-19563683D01*
X65388095Y-19563322D01*
X65355229Y-19535279D01*
X65348542Y-19525428D01*
X65328887Y-19517043D01*
X65309389Y-19508318D01*
X65308685Y-19508424D01*
X65222475Y-19471645D01*
X65209259Y-19463152D01*
X65191649Y-19463152D01*
X65174170Y-19461086D01*
X65169932Y-19463152D01*
X65026121Y-19463152D01*
X65010634Y-19460526D01*
X64994435Y-19467436D01*
X64977549Y-19472395D01*
X64974461Y-19475957D01*
X64888060Y-19512818D01*
X64876262Y-19514423D01*
X64859998Y-19528299D01*
X64843516Y-19541871D01*
X64843298Y-19542548D01*
X64810487Y-19570543D01*
X64798805Y-19576471D01*
X64788584Y-19593911D01*
X64777551Y-19610797D01*
X64777535Y-19612766D01*
X64732638Y-19689384D01*
X64721571Y-19706606D01*
X64721571Y-19719415D01*
X64718471Y-19731843D01*
X64425094Y-19731843D01*
X64425094Y-19730169D01*
X64425936Y-19709709D01*
X64419459Y-19698656D01*
X64415851Y-19686368D01*
X64408552Y-19680043D01*
X64363504Y-19603170D01*
X64359718Y-19590629D01*
X64344345Y-19577512D01*
X64329653Y-19563683D01*
X64327714Y-19563322D01*
X64294848Y-19535279D01*
X64288161Y-19525428D01*
X64268506Y-19517043D01*
X64249008Y-19508318D01*
X64248304Y-19508424D01*
X64162094Y-19471645D01*
X64148878Y-19463152D01*
X64131268Y-19463152D01*
X64113789Y-19461086D01*
X64109551Y-19463152D01*
X63909930Y-19463152D01*
X63894443Y-19460526D01*
X63878244Y-19467436D01*
X63861358Y-19472395D01*
X63858270Y-19475957D01*
X63752652Y-19521017D01*
X63727325Y-19541871D01*
X63713858Y-19583805D01*
X63364714Y-19583805D01*
X63364714Y-19527370D01*
X63355471Y-19495892D01*
X63322185Y-19467050D01*
X63278590Y-19460782D01*
X63238526Y-19479078D01*
X63214714Y-19516130D01*
X63214714Y-20041605D01*
X63181709Y-20097927D01*
X63106955Y-20129819D01*
X62970187Y-20129819D01*
X62883206Y-20092711D01*
X62862428Y-20074982D01*
X62862428Y-19527370D01*
X62853185Y-19495892D01*
X62819899Y-19467050D01*
X62776304Y-19460782D01*
X62736240Y-19479078D01*
X62712428Y-19516130D01*
X62712428Y-20099089D01*
X62709264Y-20110176D01*
X62344885Y-20110176D01*
X62319391Y-20086937D01*
X62275967Y-20079574D01*
X62158193Y-20129819D01*
X61965615Y-20129819D01*
X61890860Y-20097927D01*
X61857857Y-20041605D01*
X61857857Y-20034697D01*
X61890860Y-19978376D01*
X61965615Y-19946485D01*
X62111402Y-19946485D01*
X62126889Y-19949111D01*
X62143087Y-19942200D01*
X62159974Y-19937242D01*
X62163061Y-19933679D01*
X62240968Y-19900442D01*
X62243630Y-19900714D01*
X62261050Y-19891874D01*
X62268680Y-19888620D01*
X62270630Y-19887014D01*
X62282907Y-19880785D01*
X62287300Y-19873287D01*
X62294006Y-19867766D01*
X62298214Y-19854663D01*
X62349069Y-19767879D01*
X62360142Y-19750650D01*
X62360142Y-19737837D01*
X62363241Y-19725413D01*
X62360142Y-19716268D01*
X62360142Y-19682550D01*
X62360984Y-19662090D01*
X62354507Y-19651037D01*
X62350899Y-19638749D01*
X62343600Y-19632424D01*
X62303822Y-19564543D01*
X62303755Y-19561869D01*
X62292781Y-19545703D01*
X62288590Y-19538550D01*
X62286751Y-19536819D01*
X62279019Y-19525428D01*
X62271026Y-19522018D01*
X62264701Y-19516064D01*
X62251169Y-19513546D01*
X62152952Y-19471645D01*
X62139736Y-19463152D01*
X62122126Y-19463152D01*
X62104647Y-19461086D01*
X62100409Y-19463152D01*
X61956597Y-19463152D01*
X61941110Y-19460526D01*
X61924911Y-19467436D01*
X61908025Y-19472395D01*
X61904937Y-19475957D01*
X61799319Y-19521017D01*
X61773992Y-19541871D01*
X61760525Y-19583805D01*
X61771867Y-19626363D01*
X61804416Y-19656034D01*
X61847841Y-19663397D01*
X61965615Y-19613152D01*
X62102384Y-19613152D01*
X62177137Y-19645043D01*
X62210142Y-19701364D01*
X62210142Y-19708270D01*
X62177137Y-19764593D01*
X62102384Y-19796485D01*
X61956597Y-19796485D01*
X61941110Y-19793859D01*
X61924911Y-19800769D01*
X61908025Y-19805728D01*
X61904937Y-19809290D01*
X61827028Y-19842528D01*
X61824369Y-19842257D01*
X61806952Y-19851093D01*
X61799319Y-19854350D01*
X61797368Y-19855955D01*
X61785091Y-19862185D01*
X61780697Y-19869682D01*
X61773992Y-19875204D01*
X61769784Y-19888305D01*
X61718924Y-19975098D01*
X61707857Y-19992320D01*
X61707857Y-20005129D01*
X61704757Y-20017557D01*
X61411380Y-20017557D01*
X61411380Y-19883272D01*
X61414519Y-19873534D01*
X61411380Y-19861704D01*
X61411380Y-19682550D01*
X61412222Y-19662090D01*
X61405745Y-19651037D01*
X61402137Y-19638749D01*
X61394838Y-19632424D01*
X61355060Y-19564543D01*
X61354993Y-19561869D01*
X61344019Y-19545703D01*
X61339828Y-19538550D01*
X61337989Y-19536819D01*
X61330257Y-19525428D01*
X61322264Y-19522018D01*
X61315939Y-19516064D01*
X61302407Y-19513546D01*
X61204190Y-19471645D01*
X61190974Y-19463152D01*
X61173364Y-19463152D01*
X61155885Y-19461086D01*
X61151647Y-19463152D01*
X60952026Y-19463152D01*
X60936539Y-19460526D01*
X60920340Y-19467436D01*
X60903454Y-19472395D01*
X60900366Y-19475957D01*
X60822459Y-19509194D01*
X60819799Y-19508923D01*
X60802380Y-19517760D01*
X60794748Y-19521017D01*
X60792797Y-19522623D01*
X60780521Y-19528852D01*
X60776128Y-19536348D01*
X60769421Y-19541871D01*
X60765212Y-19554975D01*
X60714358Y-19641756D01*
X60703285Y-19658987D01*
X60703285Y-19671797D01*
X60700185Y-19684224D01*
X60703285Y-19693371D01*
X60703285Y-19764459D01*
X60700146Y-19774198D01*
X60351000Y-19774198D01*
X60351000Y-19730168D01*
X60351842Y-19709709D01*
X60351000Y-19708272D01*
X60351000Y-19527370D01*
X60341757Y-19495892D01*
X60308471Y-19467050D01*
X60264876Y-19460782D01*
X60224812Y-19479078D01*
X60201000Y-19516130D01*
X60201000Y-19519853D01*
X60194389Y-19517033D01*
X60174915Y-19508318D01*
X60174210Y-19508424D01*
X60088000Y-19471645D01*
X60074784Y-19463152D01*
X60057174Y-19463152D01*
X60039695Y-19461086D01*
X60035457Y-19463152D01*
X59930361Y-19463152D01*
X59898883Y-19472395D01*
X59870041Y-19505681D01*
X59863773Y-19549276D01*
X58674491Y-19549276D01*
X58658087Y-19535279D01*
X58651400Y-19525428D01*
X58631745Y-19517043D01*
X58612247Y-19508318D01*
X58611543Y-19508424D01*
X58525333Y-19471645D01*
X58512117Y-19463152D01*
X58494507Y-19463152D01*
X58477028Y-19461086D01*
X58472790Y-19463152D01*
X58273169Y-19463152D01*
X58257682Y-19460526D01*
X58241483Y-19467436D01*
X58224597Y-19472395D01*
X58221509Y-19475957D01*
X58115891Y-19521017D01*
X58090564Y-19541871D01*
X58077097Y-19583805D01*
X57710388Y-19583805D01*
X57703013Y-19577512D01*
X57688321Y-19563683D01*
X57686382Y-19563322D01*
X57653516Y-19535279D01*
X57646829Y-19525428D01*
X57627174Y-19517043D01*
X57607676Y-19508318D01*
X57606972Y-19508424D01*
X57520762Y-19471645D01*
X57507546Y-19463152D01*
X57489936Y-19463152D01*
X57472457Y-19461086D01*
X57468219Y-19463152D01*
X57324408Y-19463152D01*
X57308921Y-19460526D01*
X57292722Y-19467436D01*
X57275836Y-19472395D01*
X57272748Y-19475957D01*
X57186347Y-19512818D01*
X57174549Y-19514423D01*
X57158285Y-19528299D01*
X57141803Y-19541871D01*
X57141585Y-19542548D01*
X57108774Y-19570543D01*
X57097092Y-19576471D01*
X57086871Y-19593911D01*
X57075838Y-19610797D01*
X57075822Y-19612766D01*
X57030925Y-19689384D01*
X57019858Y-19706606D01*
X57019858Y-19719415D01*
X57016758Y-19731843D01*
X56667572Y-19731843D01*
X56667572Y-19643879D01*
X56670736Y-19632793D01*
X56667572Y-19622314D01*
X56667572Y-19527370D01*
X56658329Y-19495892D01*
X56625043Y-19467050D01*
X56581448Y-19460782D01*
X56541384Y-19479078D01*
X56527702Y-19500366D01*
X56460381Y-19471645D01*
X56447165Y-19463152D01*
X56429555Y-19463152D01*
X56412076Y-19461086D01*
X56407838Y-19463152D01*
X56264027Y-19463152D01*
X56248540Y-19460526D01*
X56232341Y-19467436D01*
X56215455Y-19472395D01*
X56212367Y-19475957D01*
X56134460Y-19509194D01*
X56131800Y-19508923D01*
X56114381Y-19517760D01*
X56106749Y-19521017D01*
X56104798Y-19522623D01*
X56092522Y-19528852D01*
X56088129Y-19536348D01*
X56081422Y-19541871D01*
X56077213Y-19554975D01*
X56026359Y-19641756D01*
X56015286Y-19658987D01*
X56015286Y-19671797D01*
X56012186Y-19684224D01*
X55607191Y-19684224D01*
X55607191Y-19613152D01*
X55710401Y-19613152D01*
X55741879Y-19603909D01*
X55770721Y-19570623D01*
X55776989Y-19527028D01*
X55758693Y-19486964D01*
X55721641Y-19463152D01*
X55607191Y-19463152D01*
X55607191Y-19215943D01*
X65723772Y-19215943D01*
X65742068Y-19256007D01*
X65779120Y-19279819D01*
X66284237Y-19279819D01*
X66284237Y-19606009D01*
X65957788Y-19606009D01*
X65926310Y-19615252D01*
X65897468Y-19648538D01*
X65891200Y-19692133D01*
X65909496Y-19732197D01*
X65946548Y-19756009D01*
X66284237Y-19756009D01*
X66284237Y-20215601D01*
X66293480Y-20247079D01*
X66326766Y-20275921D01*
X66370361Y-20282189D01*
X66410425Y-20263893D01*
X66434237Y-20226841D01*
X66434237Y-19686368D01*
X66436607Y-19669885D01*
X66434237Y-19664695D01*
X66434237Y-19210178D01*
X66436607Y-19193695D01*
X66429687Y-19178542D01*
X66424994Y-19162559D01*
X66420681Y-19158822D01*
X66418311Y-19153631D01*
X66404294Y-19144623D01*
X66391708Y-19133717D01*
X66386061Y-19132905D01*
X66381259Y-19129819D01*
X66364597Y-19129819D01*
X66348113Y-19127449D01*
X66342923Y-19129819D01*
X65790360Y-19129819D01*
X65758882Y-19139062D01*
X65730040Y-19172348D01*
X65723772Y-19215943D01*
X55607191Y-19215943D01*
X55607191Y-19194037D01*
X55597948Y-19162559D01*
X55564662Y-19133717D01*
X55521067Y-19127449D01*
X55481003Y-19145745D01*
X55457191Y-19182797D01*
X55457191Y-19463152D01*
X55242361Y-19463152D01*
X55210883Y-19472395D01*
X55182041Y-19505681D01*
X55175773Y-19549276D01*
X55194069Y-19589340D01*
X55231121Y-19613152D01*
X55457191Y-19613152D01*
X55457191Y-20041605D01*
X55424186Y-20097927D01*
X55349432Y-20129819D01*
X55242361Y-20129819D01*
X55210883Y-20139062D01*
X55182041Y-20172348D01*
X55175773Y-20215943D01*
X54937477Y-20215943D01*
X54937477Y-19730168D01*
X54938319Y-19709709D01*
X54937477Y-19708272D01*
X54937477Y-19527370D01*
X54928234Y-19495892D01*
X54894948Y-19467050D01*
X54851353Y-19460782D01*
X54811289Y-19479078D01*
X54787477Y-19516130D01*
X54787477Y-19519853D01*
X54780866Y-19517033D01*
X54761392Y-19508318D01*
X54760687Y-19508424D01*
X54674477Y-19471645D01*
X54661261Y-19463152D01*
X54643651Y-19463152D01*
X54626172Y-19461086D01*
X54621934Y-19463152D01*
X54516838Y-19463152D01*
X54485360Y-19472395D01*
X54456518Y-19505681D01*
X54450250Y-19549276D01*
X54153920Y-19549276D01*
X54137516Y-19535279D01*
X54130829Y-19525428D01*
X54111174Y-19517043D01*
X54091676Y-19508318D01*
X54090972Y-19508424D01*
X54004762Y-19471645D01*
X53991546Y-19463152D01*
X53973936Y-19463152D01*
X53956457Y-19461086D01*
X53952219Y-19463152D01*
X53808408Y-19463152D01*
X53792921Y-19460526D01*
X53776722Y-19467436D01*
X53759836Y-19472395D01*
X53756748Y-19475957D01*
X53670347Y-19512818D01*
X53658549Y-19514423D01*
X53642285Y-19528299D01*
X53625803Y-19541871D01*
X53625585Y-19542548D01*
X53592774Y-19570543D01*
X53581092Y-19576471D01*
X53570871Y-19593911D01*
X53559838Y-19610797D01*
X53559822Y-19612766D01*
X53514925Y-19689384D01*
X53503858Y-19706606D01*
X53503858Y-19719415D01*
X53500758Y-19731843D01*
X53151572Y-19731843D01*
X53151572Y-19194037D01*
X53142329Y-19162559D01*
X53109043Y-19133717D01*
X53065448Y-19127449D01*
X53025384Y-19145745D01*
X53001572Y-19182797D01*
X53001572Y-20041605D01*
X52968567Y-20097927D01*
X52869796Y-20140065D01*
X52844469Y-20160919D01*
X52831002Y-20202853D01*
X51644715Y-20202853D01*
X51644715Y-20168945D01*
X51647856Y-20159166D01*
X51644715Y-20147380D01*
X51644715Y-19606769D01*
X51645244Y-19605899D01*
X51644715Y-19584858D01*
X51644715Y-19194037D01*
X51635472Y-19162559D01*
X51602186Y-19133717D01*
X51558591Y-19127449D01*
X51518527Y-19145745D01*
X51494715Y-19182797D01*
X51494715Y-19472234D01*
X51493334Y-19471645D01*
X51480118Y-19463152D01*
X51462508Y-19463152D01*
X51445029Y-19461086D01*
X51440791Y-19463152D01*
X51241170Y-19463152D01*
X51225683Y-19460526D01*
X51209484Y-19467436D01*
X51192598Y-19472395D01*
X51189510Y-19475957D01*
X51103109Y-19512818D01*
X51091311Y-19514423D01*
X51075047Y-19528299D01*
X51058565Y-19541871D01*
X51058347Y-19542548D01*
X51025536Y-19570543D01*
X51013854Y-19576471D01*
X51003633Y-19593911D01*
X50992600Y-19610797D01*
X50992584Y-19612766D01*
X50947687Y-19689384D01*
X50936620Y-19706606D01*
X50936620Y-19719415D01*
X50933520Y-19731843D01*
X50640143Y-19731843D01*
X50640143Y-19730169D01*
X50640985Y-19709709D01*
X50634508Y-19698656D01*
X50630900Y-19686368D01*
X50623601Y-19680043D01*
X50578553Y-19603170D01*
X50574767Y-19590629D01*
X50559394Y-19577512D01*
X50544702Y-19563683D01*
X50542763Y-19563322D01*
X50509897Y-19535279D01*
X50503210Y-19525428D01*
X50483555Y-19517043D01*
X50464057Y-19508318D01*
X50463353Y-19508424D01*
X50377143Y-19471645D01*
X50363927Y-19463152D01*
X50346317Y-19463152D01*
X50328838Y-19461086D01*
X50324600Y-19463152D01*
X50180789Y-19463152D01*
X50165302Y-19460526D01*
X50149103Y-19467436D01*
X50132217Y-19472395D01*
X50129129Y-19475957D01*
X50042728Y-19512818D01*
X50030930Y-19514423D01*
X50014666Y-19528299D01*
X49998184Y-19541871D01*
X49997966Y-19542548D01*
X49965155Y-19570543D01*
X49953473Y-19576471D01*
X49943252Y-19593911D01*
X49932219Y-19610797D01*
X49932203Y-19612766D01*
X49887306Y-19689384D01*
X49876239Y-19706606D01*
X49876239Y-19719415D01*
X49873139Y-19731843D01*
X49033715Y-19731843D01*
X49021667Y-19726703D01*
X49021667Y-19701365D01*
X49054671Y-19645044D01*
X49129426Y-19613152D01*
X49322004Y-19613152D01*
X49429440Y-19658986D01*
X49462020Y-19662837D01*
X49501610Y-19643538D01*
X49524482Y-19605899D01*
X49523375Y-19561869D01*
X49498639Y-19525428D01*
X49372572Y-19471645D01*
X49359356Y-19463152D01*
X49341746Y-19463152D01*
X49324267Y-19461086D01*
X49320029Y-19463152D01*
X49120408Y-19463152D01*
X49104921Y-19460526D01*
X49088722Y-19467436D01*
X49071836Y-19472395D01*
X49068748Y-19475957D01*
X48990841Y-19509194D01*
X48988181Y-19508923D01*
X48970762Y-19517760D01*
X48963130Y-19521017D01*
X48961179Y-19522623D01*
X48948903Y-19528852D01*
X48944510Y-19536348D01*
X48937803Y-19541871D01*
X48933594Y-19554975D01*
X48882740Y-19641756D01*
X48871667Y-19658987D01*
X48871667Y-19671797D01*
X48868567Y-19684224D01*
X48463572Y-19684224D01*
X48463572Y-19527370D01*
X48454329Y-19495892D01*
X48421043Y-19467050D01*
X48377448Y-19460782D01*
X48337384Y-19479078D01*
X48313572Y-19516130D01*
X48313572Y-19519853D01*
X48306961Y-19517033D01*
X48287487Y-19508318D01*
X48286782Y-19508424D01*
X48200572Y-19471645D01*
X48187356Y-19463152D01*
X48169746Y-19463152D01*
X48152267Y-19461086D01*
X48148029Y-19463152D01*
X48042933Y-19463152D01*
X48011455Y-19472395D01*
X47982613Y-19505681D01*
X47976345Y-19549276D01*
X47680015Y-19549276D01*
X47663611Y-19535279D01*
X47656924Y-19525428D01*
X47637269Y-19517043D01*
X47617771Y-19508318D01*
X47617067Y-19508424D01*
X47530857Y-19471645D01*
X47517641Y-19463152D01*
X47500031Y-19463152D01*
X47482552Y-19461086D01*
X47478314Y-19463152D01*
X47278693Y-19463152D01*
X47263206Y-19460526D01*
X47247007Y-19467436D01*
X47235762Y-19470738D01*
X47235762Y-19194037D01*
X47226519Y-19162559D01*
X47193233Y-19133717D01*
X47149638Y-19127449D01*
X47109574Y-19145745D01*
X47085762Y-19182797D01*
X47085762Y-19574024D01*
X47082621Y-19583805D01*
X46443558Y-19583805D01*
X46443558Y-18694643D01*
X67076442Y-18694643D01*
X67076442Y-20805357D01*
G37*
D13*
X57115238Y-53906800D02*
X57000952Y-53944895D01*
X57000952Y-53944895D02*
X56810476Y-53944895D01*
X56810476Y-53944895D02*
X56734285Y-53906800D01*
X56734285Y-53906800D02*
X56696190Y-53868704D01*
X56696190Y-53868704D02*
X56658095Y-53792514D01*
X56658095Y-53792514D02*
X56658095Y-53716323D01*
X56658095Y-53716323D02*
X56696190Y-53640133D01*
X56696190Y-53640133D02*
X56734285Y-53602038D01*
X56734285Y-53602038D02*
X56810476Y-53563942D01*
X56810476Y-53563942D02*
X56962857Y-53525847D01*
X56962857Y-53525847D02*
X57039047Y-53487752D01*
X57039047Y-53487752D02*
X57077142Y-53449657D01*
X57077142Y-53449657D02*
X57115238Y-53373466D01*
X57115238Y-53373466D02*
X57115238Y-53297276D01*
X57115238Y-53297276D02*
X57077142Y-53221085D01*
X57077142Y-53221085D02*
X57039047Y-53182990D01*
X57039047Y-53182990D02*
X56962857Y-53144895D01*
X56962857Y-53144895D02*
X56772380Y-53144895D01*
X56772380Y-53144895D02*
X56658095Y-53182990D01*
X56391428Y-53144895D02*
X56200952Y-53944895D01*
X56200952Y-53944895D02*
X56048571Y-53373466D01*
X56048571Y-53373466D02*
X55896190Y-53944895D01*
X55896190Y-53944895D02*
X55705714Y-53144895D01*
X55400951Y-53944895D02*
X55400951Y-53144895D01*
X55400951Y-53144895D02*
X55210475Y-53144895D01*
X55210475Y-53144895D02*
X55096189Y-53182990D01*
X55096189Y-53182990D02*
X55019999Y-53259180D01*
X55019999Y-53259180D02*
X54981904Y-53335371D01*
X54981904Y-53335371D02*
X54943808Y-53487752D01*
X54943808Y-53487752D02*
X54943808Y-53602038D01*
X54943808Y-53602038D02*
X54981904Y-53754419D01*
X54981904Y-53754419D02*
X55019999Y-53830609D01*
X55019999Y-53830609D02*
X55096189Y-53906800D01*
X55096189Y-53906800D02*
X55210475Y-53944895D01*
X55210475Y-53944895D02*
X55400951Y-53944895D01*
X54600951Y-53944895D02*
X54600951Y-53144895D01*
X54067618Y-53144895D02*
X53915237Y-53144895D01*
X53915237Y-53144895D02*
X53839047Y-53182990D01*
X53839047Y-53182990D02*
X53762856Y-53259180D01*
X53762856Y-53259180D02*
X53724761Y-53411561D01*
X53724761Y-53411561D02*
X53724761Y-53678228D01*
X53724761Y-53678228D02*
X53762856Y-53830609D01*
X53762856Y-53830609D02*
X53839047Y-53906800D01*
X53839047Y-53906800D02*
X53915237Y-53944895D01*
X53915237Y-53944895D02*
X54067618Y-53944895D01*
X54067618Y-53944895D02*
X54143809Y-53906800D01*
X54143809Y-53906800D02*
X54219999Y-53830609D01*
X54219999Y-53830609D02*
X54258095Y-53678228D01*
X54258095Y-53678228D02*
X54258095Y-53411561D01*
X54258095Y-53411561D02*
X54219999Y-53259180D01*
X54219999Y-53259180D02*
X54143809Y-53182990D01*
X54143809Y-53182990D02*
X54067618Y-53144895D01*
D11*
X59767618Y-49134819D02*
X59767618Y-48134819D01*
X59767618Y-48134819D02*
X59529523Y-48134819D01*
X59529523Y-48134819D02*
X59386666Y-48182438D01*
X59386666Y-48182438D02*
X59291428Y-48277676D01*
X59291428Y-48277676D02*
X59243809Y-48372914D01*
X59243809Y-48372914D02*
X59196190Y-48563390D01*
X59196190Y-48563390D02*
X59196190Y-48706247D01*
X59196190Y-48706247D02*
X59243809Y-48896723D01*
X59243809Y-48896723D02*
X59291428Y-48991961D01*
X59291428Y-48991961D02*
X59386666Y-49087200D01*
X59386666Y-49087200D02*
X59529523Y-49134819D01*
X59529523Y-49134819D02*
X59767618Y-49134819D01*
X58386666Y-49087200D02*
X58481904Y-49134819D01*
X58481904Y-49134819D02*
X58672380Y-49134819D01*
X58672380Y-49134819D02*
X58767618Y-49087200D01*
X58767618Y-49087200D02*
X58815237Y-48991961D01*
X58815237Y-48991961D02*
X58815237Y-48611009D01*
X58815237Y-48611009D02*
X58767618Y-48515771D01*
X58767618Y-48515771D02*
X58672380Y-48468152D01*
X58672380Y-48468152D02*
X58481904Y-48468152D01*
X58481904Y-48468152D02*
X58386666Y-48515771D01*
X58386666Y-48515771D02*
X58339047Y-48611009D01*
X58339047Y-48611009D02*
X58339047Y-48706247D01*
X58339047Y-48706247D02*
X58815237Y-48801485D01*
X57910475Y-49134819D02*
X57910475Y-48134819D01*
X57910475Y-48515771D02*
X57815237Y-48468152D01*
X57815237Y-48468152D02*
X57624761Y-48468152D01*
X57624761Y-48468152D02*
X57529523Y-48515771D01*
X57529523Y-48515771D02*
X57481904Y-48563390D01*
X57481904Y-48563390D02*
X57434285Y-48658628D01*
X57434285Y-48658628D02*
X57434285Y-48944342D01*
X57434285Y-48944342D02*
X57481904Y-49039580D01*
X57481904Y-49039580D02*
X57529523Y-49087200D01*
X57529523Y-49087200D02*
X57624761Y-49134819D01*
X57624761Y-49134819D02*
X57815237Y-49134819D01*
X57815237Y-49134819D02*
X57910475Y-49087200D01*
X56577142Y-48468152D02*
X56577142Y-49134819D01*
X57005713Y-48468152D02*
X57005713Y-48991961D01*
X57005713Y-48991961D02*
X56958094Y-49087200D01*
X56958094Y-49087200D02*
X56862856Y-49134819D01*
X56862856Y-49134819D02*
X56719999Y-49134819D01*
X56719999Y-49134819D02*
X56624761Y-49087200D01*
X56624761Y-49087200D02*
X56577142Y-49039580D01*
X55672380Y-48468152D02*
X55672380Y-49277676D01*
X55672380Y-49277676D02*
X55719999Y-49372914D01*
X55719999Y-49372914D02*
X55767618Y-49420533D01*
X55767618Y-49420533D02*
X55862856Y-49468152D01*
X55862856Y-49468152D02*
X56005713Y-49468152D01*
X56005713Y-49468152D02*
X56100951Y-49420533D01*
X55672380Y-49087200D02*
X55767618Y-49134819D01*
X55767618Y-49134819D02*
X55958094Y-49134819D01*
X55958094Y-49134819D02*
X56053332Y-49087200D01*
X56053332Y-49087200D02*
X56100951Y-49039580D01*
X56100951Y-49039580D02*
X56148570Y-48944342D01*
X56148570Y-48944342D02*
X56148570Y-48658628D01*
X56148570Y-48658628D02*
X56100951Y-48563390D01*
X56100951Y-48563390D02*
X56053332Y-48515771D01*
X56053332Y-48515771D02*
X55958094Y-48468152D01*
X55958094Y-48468152D02*
X55767618Y-48468152D01*
X55767618Y-48468152D02*
X55672380Y-48515771D01*
D14*
X59715238Y-1371004D02*
X59715238Y-2423385D01*
X59715238Y-2423385D02*
X59653333Y-2547195D01*
X59653333Y-2547195D02*
X59591428Y-2609100D01*
X59591428Y-2609100D02*
X59467619Y-2671004D01*
X59467619Y-2671004D02*
X59220000Y-2671004D01*
X59220000Y-2671004D02*
X59096190Y-2609100D01*
X59096190Y-2609100D02*
X59034285Y-2547195D01*
X59034285Y-2547195D02*
X58972381Y-2423385D01*
X58972381Y-2423385D02*
X58972381Y-1371004D01*
X58415237Y-2609100D02*
X58229523Y-2671004D01*
X58229523Y-2671004D02*
X57919999Y-2671004D01*
X57919999Y-2671004D02*
X57796190Y-2609100D01*
X57796190Y-2609100D02*
X57734285Y-2547195D01*
X57734285Y-2547195D02*
X57672380Y-2423385D01*
X57672380Y-2423385D02*
X57672380Y-2299576D01*
X57672380Y-2299576D02*
X57734285Y-2175766D01*
X57734285Y-2175766D02*
X57796190Y-2113861D01*
X57796190Y-2113861D02*
X57919999Y-2051957D01*
X57919999Y-2051957D02*
X58167618Y-1990052D01*
X58167618Y-1990052D02*
X58291428Y-1928147D01*
X58291428Y-1928147D02*
X58353333Y-1866242D01*
X58353333Y-1866242D02*
X58415237Y-1742433D01*
X58415237Y-1742433D02*
X58415237Y-1618623D01*
X58415237Y-1618623D02*
X58353333Y-1494814D01*
X58353333Y-1494814D02*
X58291428Y-1432909D01*
X58291428Y-1432909D02*
X58167618Y-1371004D01*
X58167618Y-1371004D02*
X57858095Y-1371004D01*
X57858095Y-1371004D02*
X57672380Y-1432909D01*
X56681904Y-1990052D02*
X56496190Y-2051957D01*
X56496190Y-2051957D02*
X56434285Y-2113861D01*
X56434285Y-2113861D02*
X56372381Y-2237671D01*
X56372381Y-2237671D02*
X56372381Y-2423385D01*
X56372381Y-2423385D02*
X56434285Y-2547195D01*
X56434285Y-2547195D02*
X56496190Y-2609100D01*
X56496190Y-2609100D02*
X56620000Y-2671004D01*
X56620000Y-2671004D02*
X57115238Y-2671004D01*
X57115238Y-2671004D02*
X57115238Y-1371004D01*
X57115238Y-1371004D02*
X56681904Y-1371004D01*
X56681904Y-1371004D02*
X56558095Y-1432909D01*
X56558095Y-1432909D02*
X56496190Y-1494814D01*
X56496190Y-1494814D02*
X56434285Y-1618623D01*
X56434285Y-1618623D02*
X56434285Y-1742433D01*
X56434285Y-1742433D02*
X56496190Y-1866242D01*
X56496190Y-1866242D02*
X56558095Y-1928147D01*
X56558095Y-1928147D02*
X56681904Y-1990052D01*
X56681904Y-1990052D02*
X57115238Y-1990052D01*
X55815238Y-2175766D02*
X54824762Y-2175766D01*
X53462857Y-2547195D02*
X53524761Y-2609100D01*
X53524761Y-2609100D02*
X53710476Y-2671004D01*
X53710476Y-2671004D02*
X53834285Y-2671004D01*
X53834285Y-2671004D02*
X54019999Y-2609100D01*
X54019999Y-2609100D02*
X54143809Y-2485290D01*
X54143809Y-2485290D02*
X54205714Y-2361480D01*
X54205714Y-2361480D02*
X54267618Y-2113861D01*
X54267618Y-2113861D02*
X54267618Y-1928147D01*
X54267618Y-1928147D02*
X54205714Y-1680528D01*
X54205714Y-1680528D02*
X54143809Y-1556719D01*
X54143809Y-1556719D02*
X54019999Y-1432909D01*
X54019999Y-1432909D02*
X53834285Y-1371004D01*
X53834285Y-1371004D02*
X53710476Y-1371004D01*
X53710476Y-1371004D02*
X53524761Y-1432909D01*
X53524761Y-1432909D02*
X53462857Y-1494814D01*
X2875495Y-22449047D02*
X4175495Y-22449047D01*
X4175495Y-22449047D02*
X4175495Y-21953809D01*
X4175495Y-21953809D02*
X4113590Y-21829999D01*
X4113590Y-21829999D02*
X4051685Y-21768094D01*
X4051685Y-21768094D02*
X3927876Y-21706190D01*
X3927876Y-21706190D02*
X3742161Y-21706190D01*
X3742161Y-21706190D02*
X3618352Y-21768094D01*
X3618352Y-21768094D02*
X3556447Y-21829999D01*
X3556447Y-21829999D02*
X3494542Y-21953809D01*
X3494542Y-21953809D02*
X3494542Y-22449047D01*
X2875495Y-20963332D02*
X2937400Y-21087142D01*
X2937400Y-21087142D02*
X2999304Y-21149047D01*
X2999304Y-21149047D02*
X3123114Y-21210951D01*
X3123114Y-21210951D02*
X3494542Y-21210951D01*
X3494542Y-21210951D02*
X3618352Y-21149047D01*
X3618352Y-21149047D02*
X3680257Y-21087142D01*
X3680257Y-21087142D02*
X3742161Y-20963332D01*
X3742161Y-20963332D02*
X3742161Y-20777618D01*
X3742161Y-20777618D02*
X3680257Y-20653809D01*
X3680257Y-20653809D02*
X3618352Y-20591904D01*
X3618352Y-20591904D02*
X3494542Y-20529999D01*
X3494542Y-20529999D02*
X3123114Y-20529999D01*
X3123114Y-20529999D02*
X2999304Y-20591904D01*
X2999304Y-20591904D02*
X2937400Y-20653809D01*
X2937400Y-20653809D02*
X2875495Y-20777618D01*
X2875495Y-20777618D02*
X2875495Y-20963332D01*
X3742161Y-20096666D02*
X2875495Y-19849047D01*
X2875495Y-19849047D02*
X3494542Y-19601428D01*
X3494542Y-19601428D02*
X2875495Y-19353809D01*
X2875495Y-19353809D02*
X3742161Y-19106190D01*
X2937400Y-18115714D02*
X2875495Y-18239523D01*
X2875495Y-18239523D02*
X2875495Y-18487142D01*
X2875495Y-18487142D02*
X2937400Y-18610952D01*
X2937400Y-18610952D02*
X3061209Y-18672856D01*
X3061209Y-18672856D02*
X3556447Y-18672856D01*
X3556447Y-18672856D02*
X3680257Y-18610952D01*
X3680257Y-18610952D02*
X3742161Y-18487142D01*
X3742161Y-18487142D02*
X3742161Y-18239523D01*
X3742161Y-18239523D02*
X3680257Y-18115714D01*
X3680257Y-18115714D02*
X3556447Y-18053809D01*
X3556447Y-18053809D02*
X3432638Y-18053809D01*
X3432638Y-18053809D02*
X3308828Y-18672856D01*
X2875495Y-17496666D02*
X3742161Y-17496666D01*
X3494542Y-17496666D02*
X3618352Y-17434761D01*
X3618352Y-17434761D02*
X3680257Y-17372856D01*
X3680257Y-17372856D02*
X3742161Y-17249047D01*
X3742161Y-17249047D02*
X3742161Y-17125237D01*
X782495Y-20684761D02*
X782495Y-21427618D01*
X782495Y-21056190D02*
X2082495Y-21056190D01*
X2082495Y-21056190D02*
X1896780Y-21179999D01*
X1896780Y-21179999D02*
X1772971Y-21303809D01*
X1772971Y-21303809D02*
X1711066Y-21427618D01*
X1958685Y-20189523D02*
X2020590Y-20127619D01*
X2020590Y-20127619D02*
X2082495Y-20003809D01*
X2082495Y-20003809D02*
X2082495Y-19694285D01*
X2082495Y-19694285D02*
X2020590Y-19570476D01*
X2020590Y-19570476D02*
X1958685Y-19508571D01*
X1958685Y-19508571D02*
X1834876Y-19446666D01*
X1834876Y-19446666D02*
X1711066Y-19446666D01*
X1711066Y-19446666D02*
X1525352Y-19508571D01*
X1525352Y-19508571D02*
X782495Y-20251428D01*
X782495Y-20251428D02*
X782495Y-19446666D01*
X2082495Y-19075238D02*
X782495Y-18641905D01*
X782495Y-18641905D02*
X2082495Y-18208571D01*
D11*
X69510475Y-35434819D02*
X68891428Y-35434819D01*
X68891428Y-35434819D02*
X69224761Y-35815771D01*
X69224761Y-35815771D02*
X69081904Y-35815771D01*
X69081904Y-35815771D02*
X68986666Y-35863390D01*
X68986666Y-35863390D02*
X68939047Y-35911009D01*
X68939047Y-35911009D02*
X68891428Y-36006247D01*
X68891428Y-36006247D02*
X68891428Y-36244342D01*
X68891428Y-36244342D02*
X68939047Y-36339580D01*
X68939047Y-36339580D02*
X68986666Y-36387200D01*
X68986666Y-36387200D02*
X69081904Y-36434819D01*
X69081904Y-36434819D02*
X69367618Y-36434819D01*
X69367618Y-36434819D02*
X69462856Y-36387200D01*
X69462856Y-36387200D02*
X69510475Y-36339580D01*
X68558094Y-35768152D02*
X68319999Y-36434819D01*
X68319999Y-36434819D02*
X68081904Y-35768152D01*
X67796189Y-35434819D02*
X67177142Y-35434819D01*
X67177142Y-35434819D02*
X67510475Y-35815771D01*
X67510475Y-35815771D02*
X67367618Y-35815771D01*
X67367618Y-35815771D02*
X67272380Y-35863390D01*
X67272380Y-35863390D02*
X67224761Y-35911009D01*
X67224761Y-35911009D02*
X67177142Y-36006247D01*
X67177142Y-36006247D02*
X67177142Y-36244342D01*
X67177142Y-36244342D02*
X67224761Y-36339580D01*
X67224761Y-36339580D02*
X67272380Y-36387200D01*
X67272380Y-36387200D02*
X67367618Y-36434819D01*
X67367618Y-36434819D02*
X67653332Y-36434819D01*
X67653332Y-36434819D02*
X67748570Y-36387200D01*
X67748570Y-36387200D02*
X67796189Y-36339580D01*
D14*
X36779524Y-2524504D02*
X36779524Y-1224504D01*
X36779524Y-1843552D02*
X36036667Y-1843552D01*
X36036667Y-2524504D02*
X36036667Y-1224504D01*
X35479523Y-2153076D02*
X34860476Y-2153076D01*
X35603333Y-2524504D02*
X35170000Y-1224504D01*
X35170000Y-1224504D02*
X34736666Y-2524504D01*
X34303333Y-2524504D02*
X34303333Y-1224504D01*
X34303333Y-1224504D02*
X33560476Y-2524504D01*
X33560476Y-2524504D02*
X33560476Y-1224504D01*
X32941428Y-2524504D02*
X32941428Y-1224504D01*
X32941428Y-1224504D02*
X32631904Y-1224504D01*
X32631904Y-1224504D02*
X32446190Y-1286409D01*
X32446190Y-1286409D02*
X32322380Y-1410219D01*
X32322380Y-1410219D02*
X32260475Y-1534028D01*
X32260475Y-1534028D02*
X32198571Y-1781647D01*
X32198571Y-1781647D02*
X32198571Y-1967361D01*
X32198571Y-1967361D02*
X32260475Y-2214980D01*
X32260475Y-2214980D02*
X32322380Y-2338790D01*
X32322380Y-2338790D02*
X32446190Y-2462600D01*
X32446190Y-2462600D02*
X32631904Y-2524504D01*
X32631904Y-2524504D02*
X32941428Y-2524504D01*
X36098571Y-4493695D02*
X36160475Y-4555600D01*
X36160475Y-4555600D02*
X36346190Y-4617504D01*
X36346190Y-4617504D02*
X36469999Y-4617504D01*
X36469999Y-4617504D02*
X36655713Y-4555600D01*
X36655713Y-4555600D02*
X36779523Y-4431790D01*
X36779523Y-4431790D02*
X36841428Y-4307980D01*
X36841428Y-4307980D02*
X36903332Y-4060361D01*
X36903332Y-4060361D02*
X36903332Y-3874647D01*
X36903332Y-3874647D02*
X36841428Y-3627028D01*
X36841428Y-3627028D02*
X36779523Y-3503219D01*
X36779523Y-3503219D02*
X36655713Y-3379409D01*
X36655713Y-3379409D02*
X36469999Y-3317504D01*
X36469999Y-3317504D02*
X36346190Y-3317504D01*
X36346190Y-3317504D02*
X36160475Y-3379409D01*
X36160475Y-3379409D02*
X36098571Y-3441314D01*
X35727142Y-3317504D02*
X34984285Y-3317504D01*
X35355713Y-4617504D02*
X35355713Y-3317504D01*
X33808095Y-4617504D02*
X34241428Y-3998457D01*
X34550952Y-4617504D02*
X34550952Y-3317504D01*
X34550952Y-3317504D02*
X34055714Y-3317504D01*
X34055714Y-3317504D02*
X33931904Y-3379409D01*
X33931904Y-3379409D02*
X33869999Y-3441314D01*
X33869999Y-3441314D02*
X33808095Y-3565123D01*
X33808095Y-3565123D02*
X33808095Y-3750838D01*
X33808095Y-3750838D02*
X33869999Y-3874647D01*
X33869999Y-3874647D02*
X33931904Y-3936552D01*
X33931904Y-3936552D02*
X34055714Y-3998457D01*
X34055714Y-3998457D02*
X34550952Y-3998457D01*
X32631904Y-4617504D02*
X33250952Y-4617504D01*
X33250952Y-4617504D02*
X33250952Y-3317504D01*
X32198571Y-4493695D02*
X32136666Y-4555600D01*
X32136666Y-4555600D02*
X32198571Y-4617504D01*
X32198571Y-4617504D02*
X32260475Y-4555600D01*
X32260475Y-4555600D02*
X32198571Y-4493695D01*
X32198571Y-4493695D02*
X32198571Y-4617504D01*
X50903332Y-1271004D02*
X50160475Y-1271004D01*
X50531903Y-2571004D02*
X50531903Y-1271004D01*
X49727142Y-2571004D02*
X49727142Y-1271004D01*
X49169999Y-2571004D02*
X49169999Y-1890052D01*
X49169999Y-1890052D02*
X49231904Y-1766242D01*
X49231904Y-1766242D02*
X49355713Y-1704338D01*
X49355713Y-1704338D02*
X49541427Y-1704338D01*
X49541427Y-1704338D02*
X49665237Y-1766242D01*
X49665237Y-1766242D02*
X49727142Y-1828147D01*
X48055714Y-2509100D02*
X48179523Y-2571004D01*
X48179523Y-2571004D02*
X48427142Y-2571004D01*
X48427142Y-2571004D02*
X48550952Y-2509100D01*
X48550952Y-2509100D02*
X48612856Y-2385290D01*
X48612856Y-2385290D02*
X48612856Y-1890052D01*
X48612856Y-1890052D02*
X48550952Y-1766242D01*
X48550952Y-1766242D02*
X48427142Y-1704338D01*
X48427142Y-1704338D02*
X48179523Y-1704338D01*
X48179523Y-1704338D02*
X48055714Y-1766242D01*
X48055714Y-1766242D02*
X47993809Y-1890052D01*
X47993809Y-1890052D02*
X47993809Y-2013861D01*
X47993809Y-2013861D02*
X48612856Y-2137671D01*
X47436666Y-2571004D02*
X47436666Y-1704338D01*
X47436666Y-1951957D02*
X47374761Y-1828147D01*
X47374761Y-1828147D02*
X47312856Y-1766242D01*
X47312856Y-1766242D02*
X47189047Y-1704338D01*
X47189047Y-1704338D02*
X47065237Y-1704338D01*
X46631904Y-2571004D02*
X46631904Y-1704338D01*
X46631904Y-1828147D02*
X46569999Y-1766242D01*
X46569999Y-1766242D02*
X46446189Y-1704338D01*
X46446189Y-1704338D02*
X46260475Y-1704338D01*
X46260475Y-1704338D02*
X46136666Y-1766242D01*
X46136666Y-1766242D02*
X46074761Y-1890052D01*
X46074761Y-1890052D02*
X46074761Y-2571004D01*
X46074761Y-1890052D02*
X46012856Y-1766242D01*
X46012856Y-1766242D02*
X45889047Y-1704338D01*
X45889047Y-1704338D02*
X45703332Y-1704338D01*
X45703332Y-1704338D02*
X45579523Y-1766242D01*
X45579523Y-1766242D02*
X45517618Y-1890052D01*
X45517618Y-1890052D02*
X45517618Y-2571004D01*
X44898571Y-2571004D02*
X44898571Y-1704338D01*
X44898571Y-1271004D02*
X44960475Y-1332909D01*
X44960475Y-1332909D02*
X44898571Y-1394814D01*
X44898571Y-1394814D02*
X44836666Y-1332909D01*
X44836666Y-1332909D02*
X44898571Y-1271004D01*
X44898571Y-1271004D02*
X44898571Y-1394814D01*
X44341427Y-2509100D02*
X44217618Y-2571004D01*
X44217618Y-2571004D02*
X43969999Y-2571004D01*
X43969999Y-2571004D02*
X43846189Y-2509100D01*
X43846189Y-2509100D02*
X43784285Y-2385290D01*
X43784285Y-2385290D02*
X43784285Y-2323385D01*
X43784285Y-2323385D02*
X43846189Y-2199576D01*
X43846189Y-2199576D02*
X43969999Y-2137671D01*
X43969999Y-2137671D02*
X44155713Y-2137671D01*
X44155713Y-2137671D02*
X44279523Y-2075766D01*
X44279523Y-2075766D02*
X44341427Y-1951957D01*
X44341427Y-1951957D02*
X44341427Y-1890052D01*
X44341427Y-1890052D02*
X44279523Y-1766242D01*
X44279523Y-1766242D02*
X44155713Y-1704338D01*
X44155713Y-1704338D02*
X43969999Y-1704338D01*
X43969999Y-1704338D02*
X43846189Y-1766242D01*
X43412856Y-1704338D02*
X42917618Y-1704338D01*
X43227142Y-1271004D02*
X43227142Y-2385290D01*
X43227142Y-2385290D02*
X43165237Y-2509100D01*
X43165237Y-2509100D02*
X43041427Y-2571004D01*
X43041427Y-2571004D02*
X42917618Y-2571004D01*
X42298570Y-2571004D02*
X42422380Y-2509100D01*
X42422380Y-2509100D02*
X42484285Y-2447195D01*
X42484285Y-2447195D02*
X42546189Y-2323385D01*
X42546189Y-2323385D02*
X42546189Y-1951957D01*
X42546189Y-1951957D02*
X42484285Y-1828147D01*
X42484285Y-1828147D02*
X42422380Y-1766242D01*
X42422380Y-1766242D02*
X42298570Y-1704338D01*
X42298570Y-1704338D02*
X42112856Y-1704338D01*
X42112856Y-1704338D02*
X41989047Y-1766242D01*
X41989047Y-1766242D02*
X41927142Y-1828147D01*
X41927142Y-1828147D02*
X41865237Y-1951957D01*
X41865237Y-1951957D02*
X41865237Y-2323385D01*
X41865237Y-2323385D02*
X41927142Y-2447195D01*
X41927142Y-2447195D02*
X41989047Y-2509100D01*
X41989047Y-2509100D02*
X42112856Y-2571004D01*
X42112856Y-2571004D02*
X42298570Y-2571004D01*
X41308095Y-2571004D02*
X41308095Y-1704338D01*
X41308095Y-1951957D02*
X41246190Y-1828147D01*
X41246190Y-1828147D02*
X41184285Y-1766242D01*
X41184285Y-1766242D02*
X41060476Y-1704338D01*
X41060476Y-1704338D02*
X40936666Y-1704338D01*
D13*
%TO.C,SW5*%
X3646800Y-43463332D02*
X3684895Y-43577618D01*
X3684895Y-43577618D02*
X3684895Y-43768094D01*
X3684895Y-43768094D02*
X3646800Y-43844285D01*
X3646800Y-43844285D02*
X3608704Y-43882380D01*
X3608704Y-43882380D02*
X3532514Y-43920475D01*
X3532514Y-43920475D02*
X3456323Y-43920475D01*
X3456323Y-43920475D02*
X3380133Y-43882380D01*
X3380133Y-43882380D02*
X3342038Y-43844285D01*
X3342038Y-43844285D02*
X3303942Y-43768094D01*
X3303942Y-43768094D02*
X3265847Y-43615713D01*
X3265847Y-43615713D02*
X3227752Y-43539523D01*
X3227752Y-43539523D02*
X3189657Y-43501428D01*
X3189657Y-43501428D02*
X3113466Y-43463332D01*
X3113466Y-43463332D02*
X3037276Y-43463332D01*
X3037276Y-43463332D02*
X2961085Y-43501428D01*
X2961085Y-43501428D02*
X2922990Y-43539523D01*
X2922990Y-43539523D02*
X2884895Y-43615713D01*
X2884895Y-43615713D02*
X2884895Y-43806190D01*
X2884895Y-43806190D02*
X2922990Y-43920475D01*
X2884895Y-44187142D02*
X3684895Y-44377618D01*
X3684895Y-44377618D02*
X3113466Y-44529999D01*
X3113466Y-44529999D02*
X3684895Y-44682380D01*
X3684895Y-44682380D02*
X2884895Y-44872857D01*
X2884895Y-45558571D02*
X2884895Y-45177619D01*
X2884895Y-45177619D02*
X3265847Y-45139523D01*
X3265847Y-45139523D02*
X3227752Y-45177619D01*
X3227752Y-45177619D02*
X3189657Y-45253809D01*
X3189657Y-45253809D02*
X3189657Y-45444285D01*
X3189657Y-45444285D02*
X3227752Y-45520476D01*
X3227752Y-45520476D02*
X3265847Y-45558571D01*
X3265847Y-45558571D02*
X3342038Y-45596666D01*
X3342038Y-45596666D02*
X3532514Y-45596666D01*
X3532514Y-45596666D02*
X3608704Y-45558571D01*
X3608704Y-45558571D02*
X3646800Y-45520476D01*
X3646800Y-45520476D02*
X3684895Y-45444285D01*
X3684895Y-45444285D02*
X3684895Y-45253809D01*
X3684895Y-45253809D02*
X3646800Y-45177619D01*
X3646800Y-45177619D02*
X3608704Y-45139523D01*
%TO.C,SW2*%
X11671800Y-35613332D02*
X11709895Y-35727618D01*
X11709895Y-35727618D02*
X11709895Y-35918094D01*
X11709895Y-35918094D02*
X11671800Y-35994285D01*
X11671800Y-35994285D02*
X11633704Y-36032380D01*
X11633704Y-36032380D02*
X11557514Y-36070475D01*
X11557514Y-36070475D02*
X11481323Y-36070475D01*
X11481323Y-36070475D02*
X11405133Y-36032380D01*
X11405133Y-36032380D02*
X11367038Y-35994285D01*
X11367038Y-35994285D02*
X11328942Y-35918094D01*
X11328942Y-35918094D02*
X11290847Y-35765713D01*
X11290847Y-35765713D02*
X11252752Y-35689523D01*
X11252752Y-35689523D02*
X11214657Y-35651428D01*
X11214657Y-35651428D02*
X11138466Y-35613332D01*
X11138466Y-35613332D02*
X11062276Y-35613332D01*
X11062276Y-35613332D02*
X10986085Y-35651428D01*
X10986085Y-35651428D02*
X10947990Y-35689523D01*
X10947990Y-35689523D02*
X10909895Y-35765713D01*
X10909895Y-35765713D02*
X10909895Y-35956190D01*
X10909895Y-35956190D02*
X10947990Y-36070475D01*
X10909895Y-36337142D02*
X11709895Y-36527618D01*
X11709895Y-36527618D02*
X11138466Y-36679999D01*
X11138466Y-36679999D02*
X11709895Y-36832380D01*
X11709895Y-36832380D02*
X10909895Y-37022857D01*
X10986085Y-37289523D02*
X10947990Y-37327619D01*
X10947990Y-37327619D02*
X10909895Y-37403809D01*
X10909895Y-37403809D02*
X10909895Y-37594285D01*
X10909895Y-37594285D02*
X10947990Y-37670476D01*
X10947990Y-37670476D02*
X10986085Y-37708571D01*
X10986085Y-37708571D02*
X11062276Y-37746666D01*
X11062276Y-37746666D02*
X11138466Y-37746666D01*
X11138466Y-37746666D02*
X11252752Y-37708571D01*
X11252752Y-37708571D02*
X11709895Y-37251428D01*
X11709895Y-37251428D02*
X11709895Y-37746666D01*
%TO.C,J8*%
X36086666Y-29799895D02*
X36086666Y-30371323D01*
X36086666Y-30371323D02*
X36124761Y-30485609D01*
X36124761Y-30485609D02*
X36200952Y-30561800D01*
X36200952Y-30561800D02*
X36315237Y-30599895D01*
X36315237Y-30599895D02*
X36391428Y-30599895D01*
X35591428Y-30142752D02*
X35667618Y-30104657D01*
X35667618Y-30104657D02*
X35705713Y-30066561D01*
X35705713Y-30066561D02*
X35743809Y-29990371D01*
X35743809Y-29990371D02*
X35743809Y-29952276D01*
X35743809Y-29952276D02*
X35705713Y-29876085D01*
X35705713Y-29876085D02*
X35667618Y-29837990D01*
X35667618Y-29837990D02*
X35591428Y-29799895D01*
X35591428Y-29799895D02*
X35439047Y-29799895D01*
X35439047Y-29799895D02*
X35362856Y-29837990D01*
X35362856Y-29837990D02*
X35324761Y-29876085D01*
X35324761Y-29876085D02*
X35286666Y-29952276D01*
X35286666Y-29952276D02*
X35286666Y-29990371D01*
X35286666Y-29990371D02*
X35324761Y-30066561D01*
X35324761Y-30066561D02*
X35362856Y-30104657D01*
X35362856Y-30104657D02*
X35439047Y-30142752D01*
X35439047Y-30142752D02*
X35591428Y-30142752D01*
X35591428Y-30142752D02*
X35667618Y-30180847D01*
X35667618Y-30180847D02*
X35705713Y-30218942D01*
X35705713Y-30218942D02*
X35743809Y-30295133D01*
X35743809Y-30295133D02*
X35743809Y-30447514D01*
X35743809Y-30447514D02*
X35705713Y-30523704D01*
X35705713Y-30523704D02*
X35667618Y-30561800D01*
X35667618Y-30561800D02*
X35591428Y-30599895D01*
X35591428Y-30599895D02*
X35439047Y-30599895D01*
X35439047Y-30599895D02*
X35362856Y-30561800D01*
X35362856Y-30561800D02*
X35324761Y-30523704D01*
X35324761Y-30523704D02*
X35286666Y-30447514D01*
X35286666Y-30447514D02*
X35286666Y-30295133D01*
X35286666Y-30295133D02*
X35324761Y-30218942D01*
X35324761Y-30218942D02*
X35362856Y-30180847D01*
X35362856Y-30180847D02*
X35439047Y-30142752D01*
%TO.C,SW4*%
X3671800Y-35513332D02*
X3709895Y-35627618D01*
X3709895Y-35627618D02*
X3709895Y-35818094D01*
X3709895Y-35818094D02*
X3671800Y-35894285D01*
X3671800Y-35894285D02*
X3633704Y-35932380D01*
X3633704Y-35932380D02*
X3557514Y-35970475D01*
X3557514Y-35970475D02*
X3481323Y-35970475D01*
X3481323Y-35970475D02*
X3405133Y-35932380D01*
X3405133Y-35932380D02*
X3367038Y-35894285D01*
X3367038Y-35894285D02*
X3328942Y-35818094D01*
X3328942Y-35818094D02*
X3290847Y-35665713D01*
X3290847Y-35665713D02*
X3252752Y-35589523D01*
X3252752Y-35589523D02*
X3214657Y-35551428D01*
X3214657Y-35551428D02*
X3138466Y-35513332D01*
X3138466Y-35513332D02*
X3062276Y-35513332D01*
X3062276Y-35513332D02*
X2986085Y-35551428D01*
X2986085Y-35551428D02*
X2947990Y-35589523D01*
X2947990Y-35589523D02*
X2909895Y-35665713D01*
X2909895Y-35665713D02*
X2909895Y-35856190D01*
X2909895Y-35856190D02*
X2947990Y-35970475D01*
X2909895Y-36237142D02*
X3709895Y-36427618D01*
X3709895Y-36427618D02*
X3138466Y-36579999D01*
X3138466Y-36579999D02*
X3709895Y-36732380D01*
X3709895Y-36732380D02*
X2909895Y-36922857D01*
X3176561Y-37570476D02*
X3709895Y-37570476D01*
X2871800Y-37380000D02*
X3443228Y-37189523D01*
X3443228Y-37189523D02*
X3443228Y-37684762D01*
%TO.C,SW3*%
X11646800Y-43563332D02*
X11684895Y-43677618D01*
X11684895Y-43677618D02*
X11684895Y-43868094D01*
X11684895Y-43868094D02*
X11646800Y-43944285D01*
X11646800Y-43944285D02*
X11608704Y-43982380D01*
X11608704Y-43982380D02*
X11532514Y-44020475D01*
X11532514Y-44020475D02*
X11456323Y-44020475D01*
X11456323Y-44020475D02*
X11380133Y-43982380D01*
X11380133Y-43982380D02*
X11342038Y-43944285D01*
X11342038Y-43944285D02*
X11303942Y-43868094D01*
X11303942Y-43868094D02*
X11265847Y-43715713D01*
X11265847Y-43715713D02*
X11227752Y-43639523D01*
X11227752Y-43639523D02*
X11189657Y-43601428D01*
X11189657Y-43601428D02*
X11113466Y-43563332D01*
X11113466Y-43563332D02*
X11037276Y-43563332D01*
X11037276Y-43563332D02*
X10961085Y-43601428D01*
X10961085Y-43601428D02*
X10922990Y-43639523D01*
X10922990Y-43639523D02*
X10884895Y-43715713D01*
X10884895Y-43715713D02*
X10884895Y-43906190D01*
X10884895Y-43906190D02*
X10922990Y-44020475D01*
X10884895Y-44287142D02*
X11684895Y-44477618D01*
X11684895Y-44477618D02*
X11113466Y-44629999D01*
X11113466Y-44629999D02*
X11684895Y-44782380D01*
X11684895Y-44782380D02*
X10884895Y-44972857D01*
X10884895Y-45201428D02*
X10884895Y-45696666D01*
X10884895Y-45696666D02*
X11189657Y-45430000D01*
X11189657Y-45430000D02*
X11189657Y-45544285D01*
X11189657Y-45544285D02*
X11227752Y-45620476D01*
X11227752Y-45620476D02*
X11265847Y-45658571D01*
X11265847Y-45658571D02*
X11342038Y-45696666D01*
X11342038Y-45696666D02*
X11532514Y-45696666D01*
X11532514Y-45696666D02*
X11608704Y-45658571D01*
X11608704Y-45658571D02*
X11646800Y-45620476D01*
X11646800Y-45620476D02*
X11684895Y-45544285D01*
X11684895Y-45544285D02*
X11684895Y-45315714D01*
X11684895Y-45315714D02*
X11646800Y-45239523D01*
X11646800Y-45239523D02*
X11608704Y-45201428D01*
D15*
%TO.C,SW5*%
X7670000Y-42180000D02*
X7670000Y-46580000D01*
X5970000Y-42180000D02*
X5870000Y-42180000D01*
X5970000Y-46580000D02*
X5870000Y-46580000D01*
X4170000Y-46580000D02*
X4170000Y-42180000D01*
%TO.C,J5*%
X58323800Y-50950263D02*
G75*
G03*
X58323800Y-50950263I-700000J0D01*
G01*
%TO.C,SW2*%
X15695000Y-34330000D02*
X15695000Y-38730000D01*
X13995000Y-34330000D02*
X13895000Y-34330000D01*
X13995000Y-38730000D02*
X13895000Y-38730000D01*
X12195000Y-38730000D02*
X12195000Y-34330000D01*
%TO.C,J3*%
X53923800Y-50950263D02*
G75*
G03*
X53923800Y-50950263I-700000J0D01*
G01*
%TO.C,J8*%
X53070000Y-21385000D02*
X18570000Y-21385000D01*
X18570000Y-21385000D02*
X18570000Y-44385000D01*
X18570000Y-44385000D02*
X53070000Y-44385000D01*
X53070000Y-44385000D02*
X53070000Y-21385000D01*
X50320000Y-37735000D02*
X21320000Y-37735000D01*
X21320000Y-37735000D02*
X21320000Y-23735000D01*
X21320000Y-23735000D02*
X50320000Y-23735000D01*
X50320000Y-23735000D02*
X50320000Y-37735000D01*
X42820000Y-44385000D02*
X28820000Y-44385000D01*
X28820000Y-44385000D02*
X28820000Y-52135000D01*
X28820000Y-52135000D02*
X42820000Y-52135000D01*
X42820000Y-52135000D02*
X42820000Y-44385000D01*
%TO.C,SW4*%
X7695000Y-34230000D02*
X7695000Y-38630000D01*
X5995000Y-34230000D02*
X5895000Y-34230000D01*
X5995000Y-38630000D02*
X5895000Y-38630000D01*
X4195000Y-38630000D02*
X4195000Y-34230000D01*
%TO.C,SW3*%
X15670000Y-42280000D02*
X15670000Y-46680000D01*
X13970000Y-42280000D02*
X13870000Y-42280000D01*
X13970000Y-46680000D02*
X13870000Y-46680000D01*
X12170000Y-46680000D02*
X12170000Y-42280000D01*
%TO.C,J4*%
X56123800Y-50950263D02*
G75*
G03*
X56123800Y-50950263I-700000J0D01*
G01*
%TD*%
M02*
