%TF.GenerationSoftware,KiCad,Pcbnew,7.0.5.1-1-g8f565ef7f0-dirty-deb11*%
%TF.CreationDate,2023-06-20T01:38:49+00:00*%
%TF.ProjectId,AMFOC01,414d464f-4330-4312-9e6b-696361645f70,rev?*%
%TF.SameCoordinates,Original*%
%TF.FileFunction,Paste,Top*%
%TF.FilePolarity,Positive*%
%FSLAX46Y46*%
G04 Gerber Fmt 4.6, Leading zero omitted, Abs format (unit mm)*
G04 Created by KiCad (PCBNEW 7.0.5.1-1-g8f565ef7f0-dirty-deb11) date 2023-06-20 01:38:49*
%MOMM*%
%LPD*%
G01*
G04 APERTURE LIST*
G04 Aperture macros list*
%AMRoundRect*
0 Rectangle with rounded corners*
0 $1 Rounding radius*
0 $2 $3 $4 $5 $6 $7 $8 $9 X,Y pos of 4 corners*
0 Add a 4 corners polygon primitive as box body*
4,1,4,$2,$3,$4,$5,$6,$7,$8,$9,$2,$3,0*
0 Add four circle primitives for the rounded corners*
1,1,$1+$1,$2,$3*
1,1,$1+$1,$4,$5*
1,1,$1+$1,$6,$7*
1,1,$1+$1,$8,$9*
0 Add four rect primitives between the rounded corners*
20,1,$1+$1,$2,$3,$4,$5,0*
20,1,$1+$1,$4,$5,$6,$7,0*
20,1,$1+$1,$6,$7,$8,$9,0*
20,1,$1+$1,$8,$9,$2,$3,0*%
%AMFreePoly0*
4,1,57,0.310454,0.500914,0.314650,0.501215,0.316895,0.499988,0.322751,0.499147,0.347130,0.483479,0.372568,0.469589,0.469589,0.372568,0.482119,0.355828,0.485300,0.353073,0.486021,0.350617,0.489565,0.345883,0.495723,0.317573,0.503891,0.289756,0.503891,-0.289756,0.500914,-0.310455,0.501215,-0.314651,0.499988,-0.316896,0.499147,-0.322751,0.483480,-0.347128,0.469589,-0.372568,
0.372568,-0.469589,0.355826,-0.482121,0.353073,-0.485300,0.350618,-0.486020,0.345883,-0.489566,0.317566,-0.495725,0.289756,-0.503891,-0.289756,-0.503891,-0.310455,-0.500914,-0.314651,-0.501215,-0.316896,-0.499988,-0.322751,-0.499147,-0.347128,-0.483480,-0.372568,-0.469589,-0.469589,-0.372568,-0.482121,-0.355826,-0.485300,-0.353073,-0.486020,-0.350618,-0.489566,-0.345883,-0.495725,-0.317566,
-0.503891,-0.289756,-0.503891,0.289756,-0.500914,0.310454,-0.501215,0.314650,-0.499988,0.316895,-0.499147,0.322751,-0.483479,0.347130,-0.469589,0.372568,-0.372568,0.469589,-0.355828,0.482119,-0.353073,0.485300,-0.350617,0.486021,-0.345883,0.489565,-0.317573,0.495723,-0.289756,0.503891,0.289756,0.503891,0.310454,0.500914,0.310454,0.500914,$1*%
G04 Aperture macros list end*
%ADD10RoundRect,0.250000X-0.450000X0.262500X-0.450000X-0.262500X0.450000X-0.262500X0.450000X0.262500X0*%
%ADD11RoundRect,0.250000X0.503814X0.132583X0.132583X0.503814X-0.503814X-0.132583X-0.132583X-0.503814X0*%
%ADD12RoundRect,0.250000X-0.262500X-0.450000X0.262500X-0.450000X0.262500X0.450000X-0.262500X0.450000X0*%
%ADD13RoundRect,0.250000X0.250000X0.475000X-0.250000X0.475000X-0.250000X-0.475000X0.250000X-0.475000X0*%
%ADD14RoundRect,0.250000X0.475000X-0.250000X0.475000X0.250000X-0.475000X0.250000X-0.475000X-0.250000X0*%
%ADD15RoundRect,0.250000X-0.250000X-0.475000X0.250000X-0.475000X0.250000X0.475000X-0.250000X0.475000X0*%
%ADD16RoundRect,0.250000X0.450000X-0.262500X0.450000X0.262500X-0.450000X0.262500X-0.450000X-0.262500X0*%
%ADD17RoundRect,0.250000X0.262500X0.450000X-0.262500X0.450000X-0.262500X-0.450000X0.262500X-0.450000X0*%
%ADD18R,0.600000X0.700000*%
%ADD19RoundRect,0.150000X0.150000X-0.587500X0.150000X0.587500X-0.150000X0.587500X-0.150000X-0.587500X0*%
%ADD20R,1.050000X0.650000*%
%ADD21RoundRect,0.250000X-0.475000X0.250000X-0.475000X-0.250000X0.475000X-0.250000X0.475000X0.250000X0*%
%ADD22RoundRect,0.250000X-0.503814X-0.132583X-0.132583X-0.503814X0.503814X0.132583X0.132583X0.503814X0*%
%ADD23RoundRect,0.150000X-0.587500X-0.150000X0.587500X-0.150000X0.587500X0.150000X-0.587500X0.150000X0*%
%ADD24RoundRect,0.150000X-0.150000X0.587500X-0.150000X-0.587500X0.150000X-0.587500X0.150000X0.587500X0*%
%ADD25RoundRect,0.150000X-0.150000X0.825000X-0.150000X-0.825000X0.150000X-0.825000X0.150000X0.825000X0*%
%ADD26RoundRect,0.243750X0.243750X0.456250X-0.243750X0.456250X-0.243750X-0.456250X0.243750X-0.456250X0*%
%ADD27R,1.500000X2.000000*%
%ADD28R,3.800000X2.000000*%
%ADD29RoundRect,0.250000X-1.450000X0.312500X-1.450000X-0.312500X1.450000X-0.312500X1.450000X0.312500X0*%
%ADD30FreePoly0,180.000000*%
%ADD31RoundRect,0.075000X0.662500X0.075000X-0.662500X0.075000X-0.662500X-0.075000X0.662500X-0.075000X0*%
%ADD32RoundRect,0.075000X0.075000X0.662500X-0.075000X0.662500X-0.075000X-0.662500X0.075000X-0.662500X0*%
%ADD33RoundRect,0.150000X0.150000X-0.512500X0.150000X0.512500X-0.150000X0.512500X-0.150000X-0.512500X0*%
%ADD34RoundRect,0.150000X-0.150000X0.650000X-0.150000X-0.650000X0.150000X-0.650000X0.150000X0.650000X0*%
%ADD35RoundRect,0.249999X-0.395001X-0.395001X0.395001X-0.395001X0.395001X0.395001X-0.395001X0.395001X0*%
%ADD36RoundRect,0.050000X-0.387500X-0.050000X0.387500X-0.050000X0.387500X0.050000X-0.387500X0.050000X0*%
%ADD37RoundRect,0.050000X-0.050000X-0.387500X0.050000X-0.387500X0.050000X0.387500X-0.050000X0.387500X0*%
%ADD38R,2.500000X2.500000*%
%ADD39R,2.000000X1.500000*%
%ADD40R,2.000000X3.800000*%
%ADD41R,4.500000X2.000000*%
%ADD42RoundRect,0.243750X-0.243750X-0.456250X0.243750X-0.456250X0.243750X0.456250X-0.243750X0.456250X0*%
G04 APERTURE END LIST*
D10*
%TO.C,R32*%
X23220000Y-28520000D03*
X23220000Y-30345000D03*
%TD*%
%TO.C,R3*%
X58220000Y-14595000D03*
X58220000Y-16420000D03*
%TD*%
%TO.C,R27*%
X9220000Y-24420000D03*
X9220000Y-26245000D03*
%TD*%
D11*
%TO.C,R14*%
X38010470Y-40810470D03*
X36720000Y-39520000D03*
%TD*%
D12*
%TO.C,R15*%
X55095000Y-42120000D03*
X56920000Y-42120000D03*
%TD*%
D13*
%TO.C,C15*%
X18900000Y-23490000D03*
X17000000Y-23490000D03*
%TD*%
D14*
%TO.C,C1*%
X28500000Y-13750000D03*
X28500000Y-11850000D03*
%TD*%
D12*
%TO.C,R12*%
X65420000Y-27420000D03*
X67245000Y-27420000D03*
%TD*%
D15*
%TO.C,C28*%
X26220000Y-47320000D03*
X28120000Y-47320000D03*
%TD*%
D16*
%TO.C,R33*%
X59720000Y-36820000D03*
X59720000Y-34995000D03*
%TD*%
D15*
%TO.C,C16*%
X45770000Y-24420000D03*
X47670000Y-24420000D03*
%TD*%
D10*
%TO.C,R1*%
X53100000Y-25900000D03*
X53100000Y-27725000D03*
%TD*%
D12*
%TO.C,R22*%
X30200000Y-40400000D03*
X32025000Y-40400000D03*
%TD*%
%TO.C,R29*%
X16807500Y-44220000D03*
X18632500Y-44220000D03*
%TD*%
D13*
%TO.C,C22*%
X27600000Y-39600000D03*
X25700000Y-39600000D03*
%TD*%
D14*
%TO.C,C11*%
X33320000Y-22370000D03*
X33320000Y-20470000D03*
%TD*%
D16*
%TO.C,R19*%
X38920000Y-22412500D03*
X38920000Y-20587500D03*
%TD*%
D17*
%TO.C,R8*%
X21320000Y-47320000D03*
X19495000Y-47320000D03*
%TD*%
D16*
%TO.C,R2*%
X48500000Y-18900000D03*
X48500000Y-17075000D03*
%TD*%
D15*
%TO.C,C5*%
X49500000Y-40790000D03*
X51400000Y-40790000D03*
%TD*%
D18*
%TO.C,D2*%
X18632500Y-13690000D03*
X17232500Y-13690000D03*
%TD*%
D16*
%TO.C,R11*%
X53220000Y-35427500D03*
X53220000Y-33602500D03*
%TD*%
D14*
%TO.C,C27*%
X28220000Y-43920000D03*
X28220000Y-42020000D03*
%TD*%
D17*
%TO.C,R25*%
X18820000Y-27920000D03*
X16995000Y-27920000D03*
%TD*%
D19*
%TO.C,Q2*%
X58420000Y-41420000D03*
X60320000Y-41420000D03*
X59370000Y-39545000D03*
%TD*%
D13*
%TO.C,C13*%
X38520000Y-36920000D03*
X36620000Y-36920000D03*
%TD*%
D20*
%TO.C,SW1*%
X58295000Y-21950000D03*
X54145000Y-21950000D03*
X58295000Y-19800000D03*
X54170000Y-19800000D03*
%TD*%
D10*
%TO.C,R5*%
X47500000Y-26307500D03*
X47500000Y-28132500D03*
%TD*%
D21*
%TO.C,C24*%
X25920000Y-41520000D03*
X25920000Y-43420000D03*
%TD*%
D22*
%TO.C,R7*%
X46020000Y-40320000D03*
X47310470Y-41610470D03*
%TD*%
D12*
%TO.C,R16*%
X55095000Y-40020000D03*
X56920000Y-40020000D03*
%TD*%
%TO.C,R31*%
X64420000Y-21620000D03*
X66245000Y-21620000D03*
%TD*%
D10*
%TO.C,R6*%
X49600000Y-26320000D03*
X49600000Y-28145000D03*
%TD*%
D21*
%TO.C,C20*%
X57300000Y-35650000D03*
X57300000Y-37550000D03*
%TD*%
D15*
%TO.C,C14*%
X53250000Y-37300000D03*
X55150000Y-37300000D03*
%TD*%
D21*
%TO.C,C29*%
X54420000Y-44020000D03*
X54420000Y-45920000D03*
%TD*%
D23*
%TO.C,Q1*%
X56720000Y-43920000D03*
X56720000Y-45820000D03*
X58595000Y-44870000D03*
%TD*%
D13*
%TO.C,C10*%
X12100000Y-20600000D03*
X10200000Y-20600000D03*
%TD*%
D24*
%TO.C,Q4*%
X37070000Y-20852500D03*
X35170000Y-20852500D03*
X36120000Y-22727500D03*
%TD*%
D18*
%TO.C,D1*%
X50032500Y-10865000D03*
X51432500Y-10865000D03*
%TD*%
D15*
%TO.C,C4*%
X42220000Y-40620000D03*
X44120000Y-40620000D03*
%TD*%
D24*
%TO.C,Q6*%
X61820000Y-22145000D03*
X59920000Y-22145000D03*
X60870000Y-24020000D03*
%TD*%
D25*
%TO.C,U6*%
X62790000Y-27170000D03*
X61520000Y-27170000D03*
X60250000Y-27170000D03*
X58980000Y-27170000D03*
X58980000Y-32120000D03*
X60250000Y-32120000D03*
X61520000Y-32120000D03*
X62790000Y-32120000D03*
%TD*%
D26*
%TO.C,D3*%
X24720000Y-47320000D03*
X22845000Y-47320000D03*
%TD*%
D14*
%TO.C,C21*%
X21620000Y-38370000D03*
X21620000Y-36470000D03*
%TD*%
D13*
%TO.C,C18*%
X18900000Y-25800000D03*
X17000000Y-25800000D03*
%TD*%
%TO.C,C19*%
X22820000Y-22920000D03*
X20920000Y-22920000D03*
%TD*%
D27*
%TO.C,U1*%
X30082500Y-16140000D03*
D28*
X27782500Y-22440000D03*
D27*
X27782500Y-16140000D03*
X25482500Y-16140000D03*
%TD*%
D29*
%TO.C,F1*%
X11200000Y-13862500D03*
X11200000Y-18137500D03*
%TD*%
D30*
%TO.C,U7*%
X28837500Y-33662500D03*
X28837500Y-32537500D03*
X29962500Y-34787500D03*
X29962500Y-33662500D03*
X31087500Y-32537500D03*
X27712500Y-32537500D03*
X29962500Y-31412500D03*
X27712500Y-34787500D03*
X28837500Y-34787500D03*
X31087500Y-31412500D03*
X27712500Y-31412500D03*
X31087500Y-33662500D03*
X31087500Y-34787500D03*
X27712500Y-33662500D03*
X28837500Y-31412500D03*
X29962500Y-32537500D03*
D31*
X33562500Y-35850000D03*
X33562500Y-35350000D03*
X33562500Y-34850000D03*
X33562500Y-34350000D03*
X33562500Y-33850000D03*
X33562500Y-33350000D03*
X33562500Y-32850000D03*
X33562500Y-32350000D03*
X33562500Y-31850000D03*
X33562500Y-31350000D03*
X33562500Y-30850000D03*
X33562500Y-30350000D03*
D32*
X32150000Y-28937500D03*
X31650000Y-28937500D03*
X31150000Y-28937500D03*
X30650000Y-28937500D03*
X30150000Y-28937500D03*
X29650000Y-28937500D03*
X29150000Y-28937500D03*
X28650000Y-28937500D03*
X28150000Y-28937500D03*
X27650000Y-28937500D03*
X27150000Y-28937500D03*
X26650000Y-28937500D03*
D31*
X25237500Y-30350000D03*
X25237500Y-30850000D03*
X25237500Y-31350000D03*
X25237500Y-31850000D03*
X25237500Y-32350000D03*
X25237500Y-32850000D03*
X25237500Y-33350000D03*
X25237500Y-33850000D03*
X25237500Y-34350000D03*
X25237500Y-34850000D03*
X25237500Y-35350000D03*
X25237500Y-35850000D03*
D32*
X26650000Y-37262500D03*
X27150000Y-37262500D03*
X27650000Y-37262500D03*
X28150000Y-37262500D03*
X28650000Y-37262500D03*
X29150000Y-37262500D03*
X29650000Y-37262500D03*
X30150000Y-37262500D03*
X30650000Y-37262500D03*
X31150000Y-37262500D03*
X31650000Y-37262500D03*
X32150000Y-37262500D03*
%TD*%
D33*
%TO.C,U3*%
X53670000Y-14727500D03*
X54620000Y-14727500D03*
X55570000Y-14727500D03*
X55570000Y-12452500D03*
X54620000Y-12452500D03*
X53670000Y-12452500D03*
%TD*%
D14*
%TO.C,C23*%
X21620000Y-34600000D03*
X21620000Y-32700000D03*
%TD*%
D13*
%TO.C,C9*%
X15050000Y-23490000D03*
X13150000Y-23490000D03*
%TD*%
D16*
%TO.C,R10*%
X57300000Y-34025000D03*
X57300000Y-32200000D03*
%TD*%
D13*
%TO.C,C6*%
X50720000Y-42820000D03*
X48820000Y-42820000D03*
%TD*%
%TO.C,C2*%
X18870000Y-11890000D03*
X16970000Y-11890000D03*
%TD*%
D34*
%TO.C,U2*%
X46025000Y-15120000D03*
X44755000Y-15120000D03*
X43485000Y-15120000D03*
X42215000Y-15120000D03*
X42215000Y-22320000D03*
X43485000Y-22320000D03*
X44755000Y-22320000D03*
X46025000Y-22320000D03*
%TD*%
D16*
%TO.C,R18*%
X39700000Y-25912500D03*
X39700000Y-24087500D03*
%TD*%
D10*
%TO.C,R4*%
X58320000Y-10920000D03*
X58320000Y-12745000D03*
%TD*%
D11*
%TO.C,R13*%
X35910470Y-41510470D03*
X34620000Y-40220000D03*
%TD*%
D24*
%TO.C,Q3*%
X38570000Y-16852500D03*
X36670000Y-16852500D03*
X37620000Y-18727500D03*
%TD*%
D35*
%TO.C,U5*%
X46620000Y-33790000D03*
X45020000Y-33790000D03*
X46620000Y-35390000D03*
X45020000Y-35390000D03*
D36*
X42382500Y-31990000D03*
X42382500Y-32390000D03*
X42382500Y-32790000D03*
X42382500Y-33190000D03*
X42382500Y-33590000D03*
X42382500Y-33990000D03*
X42382500Y-34390000D03*
X42382500Y-34790000D03*
X42382500Y-35190000D03*
X42382500Y-35590000D03*
X42382500Y-35990000D03*
X42382500Y-36390000D03*
X42382500Y-36790000D03*
X42382500Y-37190000D03*
D37*
X43220000Y-38027500D03*
X43620000Y-38027500D03*
X44020000Y-38027500D03*
X44420000Y-38027500D03*
X44820000Y-38027500D03*
X45220000Y-38027500D03*
X45620000Y-38027500D03*
X46020000Y-38027500D03*
X46420000Y-38027500D03*
X46820000Y-38027500D03*
X47220000Y-38027500D03*
X47620000Y-38027500D03*
X48020000Y-38027500D03*
X48420000Y-38027500D03*
D36*
X49257500Y-37190000D03*
X49257500Y-36790000D03*
X49257500Y-36390000D03*
X49257500Y-35990000D03*
X49257500Y-35590000D03*
X49257500Y-35190000D03*
X49257500Y-34790000D03*
X49257500Y-34390000D03*
X49257500Y-33990000D03*
X49257500Y-33590000D03*
X49257500Y-33190000D03*
X49257500Y-32790000D03*
X49257500Y-32390000D03*
X49257500Y-31990000D03*
D37*
X48420000Y-31152500D03*
X48020000Y-31152500D03*
X47620000Y-31152500D03*
X47220000Y-31152500D03*
X46820000Y-31152500D03*
X46420000Y-31152500D03*
X46020000Y-31152500D03*
X45620000Y-31152500D03*
X45220000Y-31152500D03*
X44820000Y-31152500D03*
X44420000Y-31152500D03*
X44020000Y-31152500D03*
X43620000Y-31152500D03*
X43220000Y-31152500D03*
%TD*%
D21*
%TO.C,C17*%
X37020000Y-30020000D03*
X37020000Y-31920000D03*
%TD*%
D16*
%TO.C,R24*%
X48500000Y-15400000D03*
X48500000Y-13575000D03*
%TD*%
D15*
%TO.C,C8*%
X51620000Y-29600000D03*
X53520000Y-29600000D03*
%TD*%
D16*
%TO.C,R21*%
X19420000Y-35220000D03*
X19420000Y-33395000D03*
%TD*%
D38*
%TO.C,BZ1*%
X68620000Y-18620000D03*
X68620000Y-11620000D03*
X61620000Y-11620000D03*
X61620000Y-18620000D03*
%TD*%
D10*
%TO.C,R28*%
X8020000Y-17720000D03*
X8020000Y-19545000D03*
%TD*%
D14*
%TO.C,C7*%
X50800000Y-24300000D03*
X50800000Y-22400000D03*
%TD*%
D16*
%TO.C,R30*%
X61820000Y-36820000D03*
X61820000Y-34995000D03*
%TD*%
%TO.C,R20*%
X55200000Y-35452500D03*
X55200000Y-33627500D03*
%TD*%
D15*
%TO.C,C12*%
X51650000Y-31700000D03*
X53550000Y-31700000D03*
%TD*%
D13*
%TO.C,C26*%
X33020000Y-24820000D03*
X31120000Y-24820000D03*
%TD*%
D39*
%TO.C,U4*%
X15000000Y-15800000D03*
X15000000Y-18100000D03*
D40*
X21300000Y-18100000D03*
D39*
X15000000Y-20400000D03*
%TD*%
D15*
%TO.C,C25*%
X30100000Y-42400000D03*
X32000000Y-42400000D03*
%TD*%
D12*
%TO.C,R17*%
X34832500Y-48390000D03*
X36657500Y-48390000D03*
%TD*%
D41*
%TO.C,Y1*%
X49450000Y-46400000D03*
X40950000Y-46400000D03*
%TD*%
D16*
%TO.C,R23*%
X34320000Y-28545000D03*
X34320000Y-26720000D03*
%TD*%
D15*
%TO.C,C30*%
X40120000Y-42720000D03*
X42020000Y-42720000D03*
%TD*%
D13*
%TO.C,C3*%
X22820000Y-25020000D03*
X20920000Y-25020000D03*
%TD*%
D42*
%TO.C,D4*%
X30545000Y-46890000D03*
X32420000Y-46890000D03*
%TD*%
D12*
%TO.C,R9*%
X65420000Y-25320000D03*
X67245000Y-25320000D03*
%TD*%
D17*
%TO.C,R26*%
X14845000Y-27920000D03*
X13020000Y-27920000D03*
%TD*%
M02*
