%TF.GenerationSoftware,KiCad,Pcbnew,7.0.5.1-1-g8f565ef7f0-dirty-deb11*%
%TF.CreationDate,2023-06-25T19:17:02+00:00*%
%TF.ProjectId,AMFOC01,414d464f-4330-4312-9e6b-696361645f70,rev?*%
%TF.SameCoordinates,Original*%
%TF.FileFunction,Legend,Top*%
%TF.FilePolarity,Positive*%
%FSLAX46Y46*%
G04 Gerber Fmt 4.6, Leading zero omitted, Abs format (unit mm)*
G04 Created by KiCad (PCBNEW 7.0.5.1-1-g8f565ef7f0-dirty-deb11) date 2023-06-25 19:17:02*
%MOMM*%
%LPD*%
G01*
G04 APERTURE LIST*
%ADD10C,0.150000*%
%ADD11C,0.200000*%
%ADD12C,0.100000*%
%ADD13C,0.254000*%
%ADD14C,0.203200*%
%ADD15C,0.120000*%
%ADD16C,0.127000*%
%ADD17R,3.810000X3.810000*%
G04 APERTURE END LIST*
D10*
X33823607Y-46860000D02*
G75*
G03*
X33823607Y-46860000I-223607J0D01*
G01*
X47523607Y-25460000D02*
G75*
G03*
X47523607Y-25460000I-223607J0D01*
G01*
D11*
X54341428Y-28077814D02*
X54555714Y-28149242D01*
X54555714Y-28149242D02*
X54627143Y-28220671D01*
X54627143Y-28220671D02*
X54698571Y-28363528D01*
X54698571Y-28363528D02*
X54698571Y-28577814D01*
X54698571Y-28577814D02*
X54627143Y-28720671D01*
X54627143Y-28720671D02*
X54555714Y-28792100D01*
X54555714Y-28792100D02*
X54412857Y-28863528D01*
X54412857Y-28863528D02*
X53841428Y-28863528D01*
X53841428Y-28863528D02*
X53841428Y-27363528D01*
X53841428Y-27363528D02*
X54341428Y-27363528D01*
X54341428Y-27363528D02*
X54484286Y-27434957D01*
X54484286Y-27434957D02*
X54555714Y-27506385D01*
X54555714Y-27506385D02*
X54627143Y-27649242D01*
X54627143Y-27649242D02*
X54627143Y-27792100D01*
X54627143Y-27792100D02*
X54555714Y-27934957D01*
X54555714Y-27934957D02*
X54484286Y-28006385D01*
X54484286Y-28006385D02*
X54341428Y-28077814D01*
X54341428Y-28077814D02*
X53841428Y-28077814D01*
X55555714Y-28863528D02*
X55412857Y-28792100D01*
X55412857Y-28792100D02*
X55341428Y-28720671D01*
X55341428Y-28720671D02*
X55270000Y-28577814D01*
X55270000Y-28577814D02*
X55270000Y-28149242D01*
X55270000Y-28149242D02*
X55341428Y-28006385D01*
X55341428Y-28006385D02*
X55412857Y-27934957D01*
X55412857Y-27934957D02*
X55555714Y-27863528D01*
X55555714Y-27863528D02*
X55770000Y-27863528D01*
X55770000Y-27863528D02*
X55912857Y-27934957D01*
X55912857Y-27934957D02*
X55984286Y-28006385D01*
X55984286Y-28006385D02*
X56055714Y-28149242D01*
X56055714Y-28149242D02*
X56055714Y-28577814D01*
X56055714Y-28577814D02*
X55984286Y-28720671D01*
X55984286Y-28720671D02*
X55912857Y-28792100D01*
X55912857Y-28792100D02*
X55770000Y-28863528D01*
X55770000Y-28863528D02*
X55555714Y-28863528D01*
X56912857Y-28863528D02*
X56770000Y-28792100D01*
X56770000Y-28792100D02*
X56698571Y-28720671D01*
X56698571Y-28720671D02*
X56627143Y-28577814D01*
X56627143Y-28577814D02*
X56627143Y-28149242D01*
X56627143Y-28149242D02*
X56698571Y-28006385D01*
X56698571Y-28006385D02*
X56770000Y-27934957D01*
X56770000Y-27934957D02*
X56912857Y-27863528D01*
X56912857Y-27863528D02*
X57127143Y-27863528D01*
X57127143Y-27863528D02*
X57270000Y-27934957D01*
X57270000Y-27934957D02*
X57341429Y-28006385D01*
X57341429Y-28006385D02*
X57412857Y-28149242D01*
X57412857Y-28149242D02*
X57412857Y-28577814D01*
X57412857Y-28577814D02*
X57341429Y-28720671D01*
X57341429Y-28720671D02*
X57270000Y-28792100D01*
X57270000Y-28792100D02*
X57127143Y-28863528D01*
X57127143Y-28863528D02*
X56912857Y-28863528D01*
X57841429Y-27863528D02*
X58412857Y-27863528D01*
X58055714Y-27363528D02*
X58055714Y-28649242D01*
X58055714Y-28649242D02*
X58127143Y-28792100D01*
X58127143Y-28792100D02*
X58270000Y-28863528D01*
X58270000Y-28863528D02*
X58412857Y-28863528D01*
D10*
X26409524Y-27614819D02*
X27028571Y-27614819D01*
X27028571Y-27614819D02*
X26695238Y-27995771D01*
X26695238Y-27995771D02*
X26838095Y-27995771D01*
X26838095Y-27995771D02*
X26933333Y-28043390D01*
X26933333Y-28043390D02*
X26980952Y-28091009D01*
X26980952Y-28091009D02*
X27028571Y-28186247D01*
X27028571Y-28186247D02*
X27028571Y-28424342D01*
X27028571Y-28424342D02*
X26980952Y-28519580D01*
X26980952Y-28519580D02*
X26933333Y-28567200D01*
X26933333Y-28567200D02*
X26838095Y-28614819D01*
X26838095Y-28614819D02*
X26552381Y-28614819D01*
X26552381Y-28614819D02*
X26457143Y-28567200D01*
X26457143Y-28567200D02*
X26409524Y-28519580D01*
X27361905Y-27948152D02*
X27600000Y-28614819D01*
X27600000Y-28614819D02*
X27838095Y-27948152D01*
X28123810Y-27614819D02*
X28742857Y-27614819D01*
X28742857Y-27614819D02*
X28409524Y-27995771D01*
X28409524Y-27995771D02*
X28552381Y-27995771D01*
X28552381Y-27995771D02*
X28647619Y-28043390D01*
X28647619Y-28043390D02*
X28695238Y-28091009D01*
X28695238Y-28091009D02*
X28742857Y-28186247D01*
X28742857Y-28186247D02*
X28742857Y-28424342D01*
X28742857Y-28424342D02*
X28695238Y-28519580D01*
X28695238Y-28519580D02*
X28647619Y-28567200D01*
X28647619Y-28567200D02*
X28552381Y-28614819D01*
X28552381Y-28614819D02*
X28266667Y-28614819D01*
X28266667Y-28614819D02*
X28171429Y-28567200D01*
X28171429Y-28567200D02*
X28123810Y-28519580D01*
D12*
%TO.C,R32*%
X24784895Y-39494285D02*
X24403942Y-39760952D01*
X24784895Y-39951428D02*
X23984895Y-39951428D01*
X23984895Y-39951428D02*
X23984895Y-39646666D01*
X23984895Y-39646666D02*
X24022990Y-39570476D01*
X24022990Y-39570476D02*
X24061085Y-39532381D01*
X24061085Y-39532381D02*
X24137276Y-39494285D01*
X24137276Y-39494285D02*
X24251561Y-39494285D01*
X24251561Y-39494285D02*
X24327752Y-39532381D01*
X24327752Y-39532381D02*
X24365847Y-39570476D01*
X24365847Y-39570476D02*
X24403942Y-39646666D01*
X24403942Y-39646666D02*
X24403942Y-39951428D01*
X23984895Y-39227619D02*
X23984895Y-38732381D01*
X23984895Y-38732381D02*
X24289657Y-38999047D01*
X24289657Y-38999047D02*
X24289657Y-38884762D01*
X24289657Y-38884762D02*
X24327752Y-38808571D01*
X24327752Y-38808571D02*
X24365847Y-38770476D01*
X24365847Y-38770476D02*
X24442038Y-38732381D01*
X24442038Y-38732381D02*
X24632514Y-38732381D01*
X24632514Y-38732381D02*
X24708704Y-38770476D01*
X24708704Y-38770476D02*
X24746800Y-38808571D01*
X24746800Y-38808571D02*
X24784895Y-38884762D01*
X24784895Y-38884762D02*
X24784895Y-39113333D01*
X24784895Y-39113333D02*
X24746800Y-39189524D01*
X24746800Y-39189524D02*
X24708704Y-39227619D01*
X24061085Y-38427619D02*
X24022990Y-38389523D01*
X24022990Y-38389523D02*
X23984895Y-38313333D01*
X23984895Y-38313333D02*
X23984895Y-38122857D01*
X23984895Y-38122857D02*
X24022990Y-38046666D01*
X24022990Y-38046666D02*
X24061085Y-38008571D01*
X24061085Y-38008571D02*
X24137276Y-37970476D01*
X24137276Y-37970476D02*
X24213466Y-37970476D01*
X24213466Y-37970476D02*
X24327752Y-38008571D01*
X24327752Y-38008571D02*
X24784895Y-38465714D01*
X24784895Y-38465714D02*
X24784895Y-37970476D01*
D10*
%TO.C,R3*%
X61153333Y-11334819D02*
X60820000Y-10858628D01*
X60581905Y-11334819D02*
X60581905Y-10334819D01*
X60581905Y-10334819D02*
X60962857Y-10334819D01*
X60962857Y-10334819D02*
X61058095Y-10382438D01*
X61058095Y-10382438D02*
X61105714Y-10430057D01*
X61105714Y-10430057D02*
X61153333Y-10525295D01*
X61153333Y-10525295D02*
X61153333Y-10668152D01*
X61153333Y-10668152D02*
X61105714Y-10763390D01*
X61105714Y-10763390D02*
X61058095Y-10811009D01*
X61058095Y-10811009D02*
X60962857Y-10858628D01*
X60962857Y-10858628D02*
X60581905Y-10858628D01*
X61486667Y-10334819D02*
X62105714Y-10334819D01*
X62105714Y-10334819D02*
X61772381Y-10715771D01*
X61772381Y-10715771D02*
X61915238Y-10715771D01*
X61915238Y-10715771D02*
X62010476Y-10763390D01*
X62010476Y-10763390D02*
X62058095Y-10811009D01*
X62058095Y-10811009D02*
X62105714Y-10906247D01*
X62105714Y-10906247D02*
X62105714Y-11144342D01*
X62105714Y-11144342D02*
X62058095Y-11239580D01*
X62058095Y-11239580D02*
X62010476Y-11287200D01*
X62010476Y-11287200D02*
X61915238Y-11334819D01*
X61915238Y-11334819D02*
X61629524Y-11334819D01*
X61629524Y-11334819D02*
X61534286Y-11287200D01*
X61534286Y-11287200D02*
X61486667Y-11239580D01*
%TO.C,R27*%
X12974819Y-32597857D02*
X12498628Y-32931190D01*
X12974819Y-33169285D02*
X11974819Y-33169285D01*
X11974819Y-33169285D02*
X11974819Y-32788333D01*
X11974819Y-32788333D02*
X12022438Y-32693095D01*
X12022438Y-32693095D02*
X12070057Y-32645476D01*
X12070057Y-32645476D02*
X12165295Y-32597857D01*
X12165295Y-32597857D02*
X12308152Y-32597857D01*
X12308152Y-32597857D02*
X12403390Y-32645476D01*
X12403390Y-32645476D02*
X12451009Y-32693095D01*
X12451009Y-32693095D02*
X12498628Y-32788333D01*
X12498628Y-32788333D02*
X12498628Y-33169285D01*
X12070057Y-32216904D02*
X12022438Y-32169285D01*
X12022438Y-32169285D02*
X11974819Y-32074047D01*
X11974819Y-32074047D02*
X11974819Y-31835952D01*
X11974819Y-31835952D02*
X12022438Y-31740714D01*
X12022438Y-31740714D02*
X12070057Y-31693095D01*
X12070057Y-31693095D02*
X12165295Y-31645476D01*
X12165295Y-31645476D02*
X12260533Y-31645476D01*
X12260533Y-31645476D02*
X12403390Y-31693095D01*
X12403390Y-31693095D02*
X12974819Y-32264523D01*
X12974819Y-32264523D02*
X12974819Y-31645476D01*
X11974819Y-31312142D02*
X11974819Y-30645476D01*
X11974819Y-30645476D02*
X12974819Y-31074047D01*
D12*
%TO.C,R14*%
X14369819Y-40329945D02*
X13988866Y-40596612D01*
X14369819Y-40787088D02*
X13569819Y-40787088D01*
X13569819Y-40787088D02*
X13569819Y-40482326D01*
X13569819Y-40482326D02*
X13607914Y-40406136D01*
X13607914Y-40406136D02*
X13646009Y-40368041D01*
X13646009Y-40368041D02*
X13722200Y-40329945D01*
X13722200Y-40329945D02*
X13836485Y-40329945D01*
X13836485Y-40329945D02*
X13912676Y-40368041D01*
X13912676Y-40368041D02*
X13950771Y-40406136D01*
X13950771Y-40406136D02*
X13988866Y-40482326D01*
X13988866Y-40482326D02*
X13988866Y-40787088D01*
X14369819Y-39568041D02*
X14369819Y-40025184D01*
X14369819Y-39796612D02*
X13569819Y-39796612D01*
X13569819Y-39796612D02*
X13684104Y-39872803D01*
X13684104Y-39872803D02*
X13760295Y-39948993D01*
X13760295Y-39948993D02*
X13798390Y-40025184D01*
X13836485Y-38882326D02*
X14369819Y-38882326D01*
X13531724Y-39072802D02*
X14103152Y-39263279D01*
X14103152Y-39263279D02*
X14103152Y-38768040D01*
%TO.C,R15*%
X53882395Y-52714285D02*
X53501442Y-52980952D01*
X53882395Y-53171428D02*
X53082395Y-53171428D01*
X53082395Y-53171428D02*
X53082395Y-52866666D01*
X53082395Y-52866666D02*
X53120490Y-52790476D01*
X53120490Y-52790476D02*
X53158585Y-52752381D01*
X53158585Y-52752381D02*
X53234776Y-52714285D01*
X53234776Y-52714285D02*
X53349061Y-52714285D01*
X53349061Y-52714285D02*
X53425252Y-52752381D01*
X53425252Y-52752381D02*
X53463347Y-52790476D01*
X53463347Y-52790476D02*
X53501442Y-52866666D01*
X53501442Y-52866666D02*
X53501442Y-53171428D01*
X53882395Y-51952381D02*
X53882395Y-52409524D01*
X53882395Y-52180952D02*
X53082395Y-52180952D01*
X53082395Y-52180952D02*
X53196680Y-52257143D01*
X53196680Y-52257143D02*
X53272871Y-52333333D01*
X53272871Y-52333333D02*
X53310966Y-52409524D01*
X53082395Y-51228571D02*
X53082395Y-51609523D01*
X53082395Y-51609523D02*
X53463347Y-51647619D01*
X53463347Y-51647619D02*
X53425252Y-51609523D01*
X53425252Y-51609523D02*
X53387157Y-51533333D01*
X53387157Y-51533333D02*
X53387157Y-51342857D01*
X53387157Y-51342857D02*
X53425252Y-51266666D01*
X53425252Y-51266666D02*
X53463347Y-51228571D01*
X53463347Y-51228571D02*
X53539538Y-51190476D01*
X53539538Y-51190476D02*
X53730014Y-51190476D01*
X53730014Y-51190476D02*
X53806204Y-51228571D01*
X53806204Y-51228571D02*
X53844300Y-51266666D01*
X53844300Y-51266666D02*
X53882395Y-51342857D01*
X53882395Y-51342857D02*
X53882395Y-51533333D01*
X53882395Y-51533333D02*
X53844300Y-51609523D01*
X53844300Y-51609523D02*
X53806204Y-51647619D01*
D10*
%TO.C,C15*%
X20706104Y-29694285D02*
X20744200Y-29732381D01*
X20744200Y-29732381D02*
X20782295Y-29846666D01*
X20782295Y-29846666D02*
X20782295Y-29922857D01*
X20782295Y-29922857D02*
X20744200Y-30037143D01*
X20744200Y-30037143D02*
X20668009Y-30113333D01*
X20668009Y-30113333D02*
X20591819Y-30151428D01*
X20591819Y-30151428D02*
X20439438Y-30189524D01*
X20439438Y-30189524D02*
X20325152Y-30189524D01*
X20325152Y-30189524D02*
X20172771Y-30151428D01*
X20172771Y-30151428D02*
X20096580Y-30113333D01*
X20096580Y-30113333D02*
X20020390Y-30037143D01*
X20020390Y-30037143D02*
X19982295Y-29922857D01*
X19982295Y-29922857D02*
X19982295Y-29846666D01*
X19982295Y-29846666D02*
X20020390Y-29732381D01*
X20020390Y-29732381D02*
X20058485Y-29694285D01*
X20782295Y-28932381D02*
X20782295Y-29389524D01*
X20782295Y-29160952D02*
X19982295Y-29160952D01*
X19982295Y-29160952D02*
X20096580Y-29237143D01*
X20096580Y-29237143D02*
X20172771Y-29313333D01*
X20172771Y-29313333D02*
X20210866Y-29389524D01*
X19982295Y-28208571D02*
X19982295Y-28589523D01*
X19982295Y-28589523D02*
X20363247Y-28627619D01*
X20363247Y-28627619D02*
X20325152Y-28589523D01*
X20325152Y-28589523D02*
X20287057Y-28513333D01*
X20287057Y-28513333D02*
X20287057Y-28322857D01*
X20287057Y-28322857D02*
X20325152Y-28246666D01*
X20325152Y-28246666D02*
X20363247Y-28208571D01*
X20363247Y-28208571D02*
X20439438Y-28170476D01*
X20439438Y-28170476D02*
X20629914Y-28170476D01*
X20629914Y-28170476D02*
X20706104Y-28208571D01*
X20706104Y-28208571D02*
X20744200Y-28246666D01*
X20744200Y-28246666D02*
X20782295Y-28322857D01*
X20782295Y-28322857D02*
X20782295Y-28513333D01*
X20782295Y-28513333D02*
X20744200Y-28589523D01*
X20744200Y-28589523D02*
X20706104Y-28627619D01*
%TO.C,J5*%
X47513773Y-6824819D02*
X47513773Y-7539104D01*
X47513773Y-7539104D02*
X47466154Y-7681961D01*
X47466154Y-7681961D02*
X47370916Y-7777200D01*
X47370916Y-7777200D02*
X47228059Y-7824819D01*
X47228059Y-7824819D02*
X47132821Y-7824819D01*
X48466154Y-6824819D02*
X47989964Y-6824819D01*
X47989964Y-6824819D02*
X47942345Y-7301009D01*
X47942345Y-7301009D02*
X47989964Y-7253390D01*
X47989964Y-7253390D02*
X48085202Y-7205771D01*
X48085202Y-7205771D02*
X48323297Y-7205771D01*
X48323297Y-7205771D02*
X48418535Y-7253390D01*
X48418535Y-7253390D02*
X48466154Y-7301009D01*
X48466154Y-7301009D02*
X48513773Y-7396247D01*
X48513773Y-7396247D02*
X48513773Y-7634342D01*
X48513773Y-7634342D02*
X48466154Y-7729580D01*
X48466154Y-7729580D02*
X48418535Y-7777200D01*
X48418535Y-7777200D02*
X48323297Y-7824819D01*
X48323297Y-7824819D02*
X48085202Y-7824819D01*
X48085202Y-7824819D02*
X47989964Y-7777200D01*
X47989964Y-7777200D02*
X47942345Y-7729580D01*
%TO.C,C1*%
X30979580Y-26746666D02*
X31027200Y-26794285D01*
X31027200Y-26794285D02*
X31074819Y-26937142D01*
X31074819Y-26937142D02*
X31074819Y-27032380D01*
X31074819Y-27032380D02*
X31027200Y-27175237D01*
X31027200Y-27175237D02*
X30931961Y-27270475D01*
X30931961Y-27270475D02*
X30836723Y-27318094D01*
X30836723Y-27318094D02*
X30646247Y-27365713D01*
X30646247Y-27365713D02*
X30503390Y-27365713D01*
X30503390Y-27365713D02*
X30312914Y-27318094D01*
X30312914Y-27318094D02*
X30217676Y-27270475D01*
X30217676Y-27270475D02*
X30122438Y-27175237D01*
X30122438Y-27175237D02*
X30074819Y-27032380D01*
X30074819Y-27032380D02*
X30074819Y-26937142D01*
X30074819Y-26937142D02*
X30122438Y-26794285D01*
X30122438Y-26794285D02*
X30170057Y-26746666D01*
X31074819Y-25794285D02*
X31074819Y-26365713D01*
X31074819Y-26079999D02*
X30074819Y-26079999D01*
X30074819Y-26079999D02*
X30217676Y-26175237D01*
X30217676Y-26175237D02*
X30312914Y-26270475D01*
X30312914Y-26270475D02*
X30360533Y-26365713D01*
D12*
%TO.C,R12*%
X69284895Y-37894285D02*
X68903942Y-38160952D01*
X69284895Y-38351428D02*
X68484895Y-38351428D01*
X68484895Y-38351428D02*
X68484895Y-38046666D01*
X68484895Y-38046666D02*
X68522990Y-37970476D01*
X68522990Y-37970476D02*
X68561085Y-37932381D01*
X68561085Y-37932381D02*
X68637276Y-37894285D01*
X68637276Y-37894285D02*
X68751561Y-37894285D01*
X68751561Y-37894285D02*
X68827752Y-37932381D01*
X68827752Y-37932381D02*
X68865847Y-37970476D01*
X68865847Y-37970476D02*
X68903942Y-38046666D01*
X68903942Y-38046666D02*
X68903942Y-38351428D01*
X69284895Y-37132381D02*
X69284895Y-37589524D01*
X69284895Y-37360952D02*
X68484895Y-37360952D01*
X68484895Y-37360952D02*
X68599180Y-37437143D01*
X68599180Y-37437143D02*
X68675371Y-37513333D01*
X68675371Y-37513333D02*
X68713466Y-37589524D01*
X68561085Y-36827619D02*
X68522990Y-36789523D01*
X68522990Y-36789523D02*
X68484895Y-36713333D01*
X68484895Y-36713333D02*
X68484895Y-36522857D01*
X68484895Y-36522857D02*
X68522990Y-36446666D01*
X68522990Y-36446666D02*
X68561085Y-36408571D01*
X68561085Y-36408571D02*
X68637276Y-36370476D01*
X68637276Y-36370476D02*
X68713466Y-36370476D01*
X68713466Y-36370476D02*
X68827752Y-36408571D01*
X68827752Y-36408571D02*
X69284895Y-36865714D01*
X69284895Y-36865714D02*
X69284895Y-36370476D01*
D10*
%TO.C,C28*%
X25877142Y-59739580D02*
X25829523Y-59787200D01*
X25829523Y-59787200D02*
X25686666Y-59834819D01*
X25686666Y-59834819D02*
X25591428Y-59834819D01*
X25591428Y-59834819D02*
X25448571Y-59787200D01*
X25448571Y-59787200D02*
X25353333Y-59691961D01*
X25353333Y-59691961D02*
X25305714Y-59596723D01*
X25305714Y-59596723D02*
X25258095Y-59406247D01*
X25258095Y-59406247D02*
X25258095Y-59263390D01*
X25258095Y-59263390D02*
X25305714Y-59072914D01*
X25305714Y-59072914D02*
X25353333Y-58977676D01*
X25353333Y-58977676D02*
X25448571Y-58882438D01*
X25448571Y-58882438D02*
X25591428Y-58834819D01*
X25591428Y-58834819D02*
X25686666Y-58834819D01*
X25686666Y-58834819D02*
X25829523Y-58882438D01*
X25829523Y-58882438D02*
X25877142Y-58930057D01*
X26258095Y-58930057D02*
X26305714Y-58882438D01*
X26305714Y-58882438D02*
X26400952Y-58834819D01*
X26400952Y-58834819D02*
X26639047Y-58834819D01*
X26639047Y-58834819D02*
X26734285Y-58882438D01*
X26734285Y-58882438D02*
X26781904Y-58930057D01*
X26781904Y-58930057D02*
X26829523Y-59025295D01*
X26829523Y-59025295D02*
X26829523Y-59120533D01*
X26829523Y-59120533D02*
X26781904Y-59263390D01*
X26781904Y-59263390D02*
X26210476Y-59834819D01*
X26210476Y-59834819D02*
X26829523Y-59834819D01*
X27400952Y-59263390D02*
X27305714Y-59215771D01*
X27305714Y-59215771D02*
X27258095Y-59168152D01*
X27258095Y-59168152D02*
X27210476Y-59072914D01*
X27210476Y-59072914D02*
X27210476Y-59025295D01*
X27210476Y-59025295D02*
X27258095Y-58930057D01*
X27258095Y-58930057D02*
X27305714Y-58882438D01*
X27305714Y-58882438D02*
X27400952Y-58834819D01*
X27400952Y-58834819D02*
X27591428Y-58834819D01*
X27591428Y-58834819D02*
X27686666Y-58882438D01*
X27686666Y-58882438D02*
X27734285Y-58930057D01*
X27734285Y-58930057D02*
X27781904Y-59025295D01*
X27781904Y-59025295D02*
X27781904Y-59072914D01*
X27781904Y-59072914D02*
X27734285Y-59168152D01*
X27734285Y-59168152D02*
X27686666Y-59215771D01*
X27686666Y-59215771D02*
X27591428Y-59263390D01*
X27591428Y-59263390D02*
X27400952Y-59263390D01*
X27400952Y-59263390D02*
X27305714Y-59311009D01*
X27305714Y-59311009D02*
X27258095Y-59358628D01*
X27258095Y-59358628D02*
X27210476Y-59453866D01*
X27210476Y-59453866D02*
X27210476Y-59644342D01*
X27210476Y-59644342D02*
X27258095Y-59739580D01*
X27258095Y-59739580D02*
X27305714Y-59787200D01*
X27305714Y-59787200D02*
X27400952Y-59834819D01*
X27400952Y-59834819D02*
X27591428Y-59834819D01*
X27591428Y-59834819D02*
X27686666Y-59787200D01*
X27686666Y-59787200D02*
X27734285Y-59739580D01*
X27734285Y-59739580D02*
X27781904Y-59644342D01*
X27781904Y-59644342D02*
X27781904Y-59453866D01*
X27781904Y-59453866D02*
X27734285Y-59358628D01*
X27734285Y-59358628D02*
X27686666Y-59311009D01*
X27686666Y-59311009D02*
X27591428Y-59263390D01*
D12*
%TO.C,R33*%
X59605714Y-44344895D02*
X59339047Y-43963942D01*
X59148571Y-44344895D02*
X59148571Y-43544895D01*
X59148571Y-43544895D02*
X59453333Y-43544895D01*
X59453333Y-43544895D02*
X59529523Y-43582990D01*
X59529523Y-43582990D02*
X59567618Y-43621085D01*
X59567618Y-43621085D02*
X59605714Y-43697276D01*
X59605714Y-43697276D02*
X59605714Y-43811561D01*
X59605714Y-43811561D02*
X59567618Y-43887752D01*
X59567618Y-43887752D02*
X59529523Y-43925847D01*
X59529523Y-43925847D02*
X59453333Y-43963942D01*
X59453333Y-43963942D02*
X59148571Y-43963942D01*
X59872380Y-43544895D02*
X60367618Y-43544895D01*
X60367618Y-43544895D02*
X60100952Y-43849657D01*
X60100952Y-43849657D02*
X60215237Y-43849657D01*
X60215237Y-43849657D02*
X60291428Y-43887752D01*
X60291428Y-43887752D02*
X60329523Y-43925847D01*
X60329523Y-43925847D02*
X60367618Y-44002038D01*
X60367618Y-44002038D02*
X60367618Y-44192514D01*
X60367618Y-44192514D02*
X60329523Y-44268704D01*
X60329523Y-44268704D02*
X60291428Y-44306800D01*
X60291428Y-44306800D02*
X60215237Y-44344895D01*
X60215237Y-44344895D02*
X59986666Y-44344895D01*
X59986666Y-44344895D02*
X59910475Y-44306800D01*
X59910475Y-44306800D02*
X59872380Y-44268704D01*
X60634285Y-43544895D02*
X61129523Y-43544895D01*
X61129523Y-43544895D02*
X60862857Y-43849657D01*
X60862857Y-43849657D02*
X60977142Y-43849657D01*
X60977142Y-43849657D02*
X61053333Y-43887752D01*
X61053333Y-43887752D02*
X61091428Y-43925847D01*
X61091428Y-43925847D02*
X61129523Y-44002038D01*
X61129523Y-44002038D02*
X61129523Y-44192514D01*
X61129523Y-44192514D02*
X61091428Y-44268704D01*
X61091428Y-44268704D02*
X61053333Y-44306800D01*
X61053333Y-44306800D02*
X60977142Y-44344895D01*
X60977142Y-44344895D02*
X60748571Y-44344895D01*
X60748571Y-44344895D02*
X60672380Y-44306800D01*
X60672380Y-44306800D02*
X60634285Y-44268704D01*
D10*
%TO.C,C16*%
X44779580Y-35422857D02*
X44827200Y-35470476D01*
X44827200Y-35470476D02*
X44874819Y-35613333D01*
X44874819Y-35613333D02*
X44874819Y-35708571D01*
X44874819Y-35708571D02*
X44827200Y-35851428D01*
X44827200Y-35851428D02*
X44731961Y-35946666D01*
X44731961Y-35946666D02*
X44636723Y-35994285D01*
X44636723Y-35994285D02*
X44446247Y-36041904D01*
X44446247Y-36041904D02*
X44303390Y-36041904D01*
X44303390Y-36041904D02*
X44112914Y-35994285D01*
X44112914Y-35994285D02*
X44017676Y-35946666D01*
X44017676Y-35946666D02*
X43922438Y-35851428D01*
X43922438Y-35851428D02*
X43874819Y-35708571D01*
X43874819Y-35708571D02*
X43874819Y-35613333D01*
X43874819Y-35613333D02*
X43922438Y-35470476D01*
X43922438Y-35470476D02*
X43970057Y-35422857D01*
X44874819Y-34470476D02*
X44874819Y-35041904D01*
X44874819Y-34756190D02*
X43874819Y-34756190D01*
X43874819Y-34756190D02*
X44017676Y-34851428D01*
X44017676Y-34851428D02*
X44112914Y-34946666D01*
X44112914Y-34946666D02*
X44160533Y-35041904D01*
X43874819Y-33613333D02*
X43874819Y-33803809D01*
X43874819Y-33803809D02*
X43922438Y-33899047D01*
X43922438Y-33899047D02*
X43970057Y-33946666D01*
X43970057Y-33946666D02*
X44112914Y-34041904D01*
X44112914Y-34041904D02*
X44303390Y-34089523D01*
X44303390Y-34089523D02*
X44684342Y-34089523D01*
X44684342Y-34089523D02*
X44779580Y-34041904D01*
X44779580Y-34041904D02*
X44827200Y-33994285D01*
X44827200Y-33994285D02*
X44874819Y-33899047D01*
X44874819Y-33899047D02*
X44874819Y-33708571D01*
X44874819Y-33708571D02*
X44827200Y-33613333D01*
X44827200Y-33613333D02*
X44779580Y-33565714D01*
X44779580Y-33565714D02*
X44684342Y-33518095D01*
X44684342Y-33518095D02*
X44446247Y-33518095D01*
X44446247Y-33518095D02*
X44351009Y-33565714D01*
X44351009Y-33565714D02*
X44303390Y-33613333D01*
X44303390Y-33613333D02*
X44255771Y-33708571D01*
X44255771Y-33708571D02*
X44255771Y-33899047D01*
X44255771Y-33899047D02*
X44303390Y-33994285D01*
X44303390Y-33994285D02*
X44351009Y-34041904D01*
X44351009Y-34041904D02*
X44446247Y-34089523D01*
D12*
%TO.C,R1*%
X55014895Y-37005832D02*
X54633942Y-37272499D01*
X55014895Y-37462975D02*
X54214895Y-37462975D01*
X54214895Y-37462975D02*
X54214895Y-37158213D01*
X54214895Y-37158213D02*
X54252990Y-37082023D01*
X54252990Y-37082023D02*
X54291085Y-37043928D01*
X54291085Y-37043928D02*
X54367276Y-37005832D01*
X54367276Y-37005832D02*
X54481561Y-37005832D01*
X54481561Y-37005832D02*
X54557752Y-37043928D01*
X54557752Y-37043928D02*
X54595847Y-37082023D01*
X54595847Y-37082023D02*
X54633942Y-37158213D01*
X54633942Y-37158213D02*
X54633942Y-37462975D01*
X55014895Y-36243928D02*
X55014895Y-36701071D01*
X55014895Y-36472499D02*
X54214895Y-36472499D01*
X54214895Y-36472499D02*
X54329180Y-36548690D01*
X54329180Y-36548690D02*
X54405371Y-36624880D01*
X54405371Y-36624880D02*
X54443466Y-36701071D01*
D10*
%TO.C,R22*%
X30382142Y-49514819D02*
X30048809Y-49038628D01*
X29810714Y-49514819D02*
X29810714Y-48514819D01*
X29810714Y-48514819D02*
X30191666Y-48514819D01*
X30191666Y-48514819D02*
X30286904Y-48562438D01*
X30286904Y-48562438D02*
X30334523Y-48610057D01*
X30334523Y-48610057D02*
X30382142Y-48705295D01*
X30382142Y-48705295D02*
X30382142Y-48848152D01*
X30382142Y-48848152D02*
X30334523Y-48943390D01*
X30334523Y-48943390D02*
X30286904Y-48991009D01*
X30286904Y-48991009D02*
X30191666Y-49038628D01*
X30191666Y-49038628D02*
X29810714Y-49038628D01*
X30763095Y-48610057D02*
X30810714Y-48562438D01*
X30810714Y-48562438D02*
X30905952Y-48514819D01*
X30905952Y-48514819D02*
X31144047Y-48514819D01*
X31144047Y-48514819D02*
X31239285Y-48562438D01*
X31239285Y-48562438D02*
X31286904Y-48610057D01*
X31286904Y-48610057D02*
X31334523Y-48705295D01*
X31334523Y-48705295D02*
X31334523Y-48800533D01*
X31334523Y-48800533D02*
X31286904Y-48943390D01*
X31286904Y-48943390D02*
X30715476Y-49514819D01*
X30715476Y-49514819D02*
X31334523Y-49514819D01*
X31715476Y-48610057D02*
X31763095Y-48562438D01*
X31763095Y-48562438D02*
X31858333Y-48514819D01*
X31858333Y-48514819D02*
X32096428Y-48514819D01*
X32096428Y-48514819D02*
X32191666Y-48562438D01*
X32191666Y-48562438D02*
X32239285Y-48610057D01*
X32239285Y-48610057D02*
X32286904Y-48705295D01*
X32286904Y-48705295D02*
X32286904Y-48800533D01*
X32286904Y-48800533D02*
X32239285Y-48943390D01*
X32239285Y-48943390D02*
X31667857Y-49514819D01*
X31667857Y-49514819D02*
X32286904Y-49514819D01*
%TO.C,R29*%
X16977142Y-53084819D02*
X16643809Y-52608628D01*
X16405714Y-53084819D02*
X16405714Y-52084819D01*
X16405714Y-52084819D02*
X16786666Y-52084819D01*
X16786666Y-52084819D02*
X16881904Y-52132438D01*
X16881904Y-52132438D02*
X16929523Y-52180057D01*
X16929523Y-52180057D02*
X16977142Y-52275295D01*
X16977142Y-52275295D02*
X16977142Y-52418152D01*
X16977142Y-52418152D02*
X16929523Y-52513390D01*
X16929523Y-52513390D02*
X16881904Y-52561009D01*
X16881904Y-52561009D02*
X16786666Y-52608628D01*
X16786666Y-52608628D02*
X16405714Y-52608628D01*
X17358095Y-52180057D02*
X17405714Y-52132438D01*
X17405714Y-52132438D02*
X17500952Y-52084819D01*
X17500952Y-52084819D02*
X17739047Y-52084819D01*
X17739047Y-52084819D02*
X17834285Y-52132438D01*
X17834285Y-52132438D02*
X17881904Y-52180057D01*
X17881904Y-52180057D02*
X17929523Y-52275295D01*
X17929523Y-52275295D02*
X17929523Y-52370533D01*
X17929523Y-52370533D02*
X17881904Y-52513390D01*
X17881904Y-52513390D02*
X17310476Y-53084819D01*
X17310476Y-53084819D02*
X17929523Y-53084819D01*
X18405714Y-53084819D02*
X18596190Y-53084819D01*
X18596190Y-53084819D02*
X18691428Y-53037200D01*
X18691428Y-53037200D02*
X18739047Y-52989580D01*
X18739047Y-52989580D02*
X18834285Y-52846723D01*
X18834285Y-52846723D02*
X18881904Y-52656247D01*
X18881904Y-52656247D02*
X18881904Y-52275295D01*
X18881904Y-52275295D02*
X18834285Y-52180057D01*
X18834285Y-52180057D02*
X18786666Y-52132438D01*
X18786666Y-52132438D02*
X18691428Y-52084819D01*
X18691428Y-52084819D02*
X18500952Y-52084819D01*
X18500952Y-52084819D02*
X18405714Y-52132438D01*
X18405714Y-52132438D02*
X18358095Y-52180057D01*
X18358095Y-52180057D02*
X18310476Y-52275295D01*
X18310476Y-52275295D02*
X18310476Y-52513390D01*
X18310476Y-52513390D02*
X18358095Y-52608628D01*
X18358095Y-52608628D02*
X18405714Y-52656247D01*
X18405714Y-52656247D02*
X18500952Y-52703866D01*
X18500952Y-52703866D02*
X18691428Y-52703866D01*
X18691428Y-52703866D02*
X18786666Y-52656247D01*
X18786666Y-52656247D02*
X18834285Y-52608628D01*
X18834285Y-52608628D02*
X18881904Y-52513390D01*
%TO.C,C22*%
X22977142Y-49939580D02*
X22929523Y-49987200D01*
X22929523Y-49987200D02*
X22786666Y-50034819D01*
X22786666Y-50034819D02*
X22691428Y-50034819D01*
X22691428Y-50034819D02*
X22548571Y-49987200D01*
X22548571Y-49987200D02*
X22453333Y-49891961D01*
X22453333Y-49891961D02*
X22405714Y-49796723D01*
X22405714Y-49796723D02*
X22358095Y-49606247D01*
X22358095Y-49606247D02*
X22358095Y-49463390D01*
X22358095Y-49463390D02*
X22405714Y-49272914D01*
X22405714Y-49272914D02*
X22453333Y-49177676D01*
X22453333Y-49177676D02*
X22548571Y-49082438D01*
X22548571Y-49082438D02*
X22691428Y-49034819D01*
X22691428Y-49034819D02*
X22786666Y-49034819D01*
X22786666Y-49034819D02*
X22929523Y-49082438D01*
X22929523Y-49082438D02*
X22977142Y-49130057D01*
X23358095Y-49130057D02*
X23405714Y-49082438D01*
X23405714Y-49082438D02*
X23500952Y-49034819D01*
X23500952Y-49034819D02*
X23739047Y-49034819D01*
X23739047Y-49034819D02*
X23834285Y-49082438D01*
X23834285Y-49082438D02*
X23881904Y-49130057D01*
X23881904Y-49130057D02*
X23929523Y-49225295D01*
X23929523Y-49225295D02*
X23929523Y-49320533D01*
X23929523Y-49320533D02*
X23881904Y-49463390D01*
X23881904Y-49463390D02*
X23310476Y-50034819D01*
X23310476Y-50034819D02*
X23929523Y-50034819D01*
X24310476Y-49130057D02*
X24358095Y-49082438D01*
X24358095Y-49082438D02*
X24453333Y-49034819D01*
X24453333Y-49034819D02*
X24691428Y-49034819D01*
X24691428Y-49034819D02*
X24786666Y-49082438D01*
X24786666Y-49082438D02*
X24834285Y-49130057D01*
X24834285Y-49130057D02*
X24881904Y-49225295D01*
X24881904Y-49225295D02*
X24881904Y-49320533D01*
X24881904Y-49320533D02*
X24834285Y-49463390D01*
X24834285Y-49463390D02*
X24262857Y-50034819D01*
X24262857Y-50034819D02*
X24881904Y-50034819D01*
%TO.C,C11*%
X28579580Y-32272857D02*
X28627200Y-32320476D01*
X28627200Y-32320476D02*
X28674819Y-32463333D01*
X28674819Y-32463333D02*
X28674819Y-32558571D01*
X28674819Y-32558571D02*
X28627200Y-32701428D01*
X28627200Y-32701428D02*
X28531961Y-32796666D01*
X28531961Y-32796666D02*
X28436723Y-32844285D01*
X28436723Y-32844285D02*
X28246247Y-32891904D01*
X28246247Y-32891904D02*
X28103390Y-32891904D01*
X28103390Y-32891904D02*
X27912914Y-32844285D01*
X27912914Y-32844285D02*
X27817676Y-32796666D01*
X27817676Y-32796666D02*
X27722438Y-32701428D01*
X27722438Y-32701428D02*
X27674819Y-32558571D01*
X27674819Y-32558571D02*
X27674819Y-32463333D01*
X27674819Y-32463333D02*
X27722438Y-32320476D01*
X27722438Y-32320476D02*
X27770057Y-32272857D01*
X28674819Y-31320476D02*
X28674819Y-31891904D01*
X28674819Y-31606190D02*
X27674819Y-31606190D01*
X27674819Y-31606190D02*
X27817676Y-31701428D01*
X27817676Y-31701428D02*
X27912914Y-31796666D01*
X27912914Y-31796666D02*
X27960533Y-31891904D01*
X28674819Y-30368095D02*
X28674819Y-30939523D01*
X28674819Y-30653809D02*
X27674819Y-30653809D01*
X27674819Y-30653809D02*
X27817676Y-30749047D01*
X27817676Y-30749047D02*
X27912914Y-30844285D01*
X27912914Y-30844285D02*
X27960533Y-30939523D01*
%TO.C,R19*%
X40854819Y-32222857D02*
X40378628Y-32556190D01*
X40854819Y-32794285D02*
X39854819Y-32794285D01*
X39854819Y-32794285D02*
X39854819Y-32413333D01*
X39854819Y-32413333D02*
X39902438Y-32318095D01*
X39902438Y-32318095D02*
X39950057Y-32270476D01*
X39950057Y-32270476D02*
X40045295Y-32222857D01*
X40045295Y-32222857D02*
X40188152Y-32222857D01*
X40188152Y-32222857D02*
X40283390Y-32270476D01*
X40283390Y-32270476D02*
X40331009Y-32318095D01*
X40331009Y-32318095D02*
X40378628Y-32413333D01*
X40378628Y-32413333D02*
X40378628Y-32794285D01*
X40854819Y-31270476D02*
X40854819Y-31841904D01*
X40854819Y-31556190D02*
X39854819Y-31556190D01*
X39854819Y-31556190D02*
X39997676Y-31651428D01*
X39997676Y-31651428D02*
X40092914Y-31746666D01*
X40092914Y-31746666D02*
X40140533Y-31841904D01*
X40854819Y-30794285D02*
X40854819Y-30603809D01*
X40854819Y-30603809D02*
X40807200Y-30508571D01*
X40807200Y-30508571D02*
X40759580Y-30460952D01*
X40759580Y-30460952D02*
X40616723Y-30365714D01*
X40616723Y-30365714D02*
X40426247Y-30318095D01*
X40426247Y-30318095D02*
X40045295Y-30318095D01*
X40045295Y-30318095D02*
X39950057Y-30365714D01*
X39950057Y-30365714D02*
X39902438Y-30413333D01*
X39902438Y-30413333D02*
X39854819Y-30508571D01*
X39854819Y-30508571D02*
X39854819Y-30699047D01*
X39854819Y-30699047D02*
X39902438Y-30794285D01*
X39902438Y-30794285D02*
X39950057Y-30841904D01*
X39950057Y-30841904D02*
X40045295Y-30889523D01*
X40045295Y-30889523D02*
X40283390Y-30889523D01*
X40283390Y-30889523D02*
X40378628Y-30841904D01*
X40378628Y-30841904D02*
X40426247Y-30794285D01*
X40426247Y-30794285D02*
X40473866Y-30699047D01*
X40473866Y-30699047D02*
X40473866Y-30508571D01*
X40473866Y-30508571D02*
X40426247Y-30413333D01*
X40426247Y-30413333D02*
X40378628Y-30365714D01*
X40378628Y-30365714D02*
X40283390Y-30318095D01*
%TO.C,R8*%
X10653333Y-59564819D02*
X10320000Y-59088628D01*
X10081905Y-59564819D02*
X10081905Y-58564819D01*
X10081905Y-58564819D02*
X10462857Y-58564819D01*
X10462857Y-58564819D02*
X10558095Y-58612438D01*
X10558095Y-58612438D02*
X10605714Y-58660057D01*
X10605714Y-58660057D02*
X10653333Y-58755295D01*
X10653333Y-58755295D02*
X10653333Y-58898152D01*
X10653333Y-58898152D02*
X10605714Y-58993390D01*
X10605714Y-58993390D02*
X10558095Y-59041009D01*
X10558095Y-59041009D02*
X10462857Y-59088628D01*
X10462857Y-59088628D02*
X10081905Y-59088628D01*
X11224762Y-58993390D02*
X11129524Y-58945771D01*
X11129524Y-58945771D02*
X11081905Y-58898152D01*
X11081905Y-58898152D02*
X11034286Y-58802914D01*
X11034286Y-58802914D02*
X11034286Y-58755295D01*
X11034286Y-58755295D02*
X11081905Y-58660057D01*
X11081905Y-58660057D02*
X11129524Y-58612438D01*
X11129524Y-58612438D02*
X11224762Y-58564819D01*
X11224762Y-58564819D02*
X11415238Y-58564819D01*
X11415238Y-58564819D02*
X11510476Y-58612438D01*
X11510476Y-58612438D02*
X11558095Y-58660057D01*
X11558095Y-58660057D02*
X11605714Y-58755295D01*
X11605714Y-58755295D02*
X11605714Y-58802914D01*
X11605714Y-58802914D02*
X11558095Y-58898152D01*
X11558095Y-58898152D02*
X11510476Y-58945771D01*
X11510476Y-58945771D02*
X11415238Y-58993390D01*
X11415238Y-58993390D02*
X11224762Y-58993390D01*
X11224762Y-58993390D02*
X11129524Y-59041009D01*
X11129524Y-59041009D02*
X11081905Y-59088628D01*
X11081905Y-59088628D02*
X11034286Y-59183866D01*
X11034286Y-59183866D02*
X11034286Y-59374342D01*
X11034286Y-59374342D02*
X11081905Y-59469580D01*
X11081905Y-59469580D02*
X11129524Y-59517200D01*
X11129524Y-59517200D02*
X11224762Y-59564819D01*
X11224762Y-59564819D02*
X11415238Y-59564819D01*
X11415238Y-59564819D02*
X11510476Y-59517200D01*
X11510476Y-59517200D02*
X11558095Y-59469580D01*
X11558095Y-59469580D02*
X11605714Y-59374342D01*
X11605714Y-59374342D02*
X11605714Y-59183866D01*
X11605714Y-59183866D02*
X11558095Y-59088628D01*
X11558095Y-59088628D02*
X11510476Y-59041009D01*
X11510476Y-59041009D02*
X11415238Y-58993390D01*
%TO.C,R2*%
X48653333Y-23234819D02*
X48320000Y-22758628D01*
X48081905Y-23234819D02*
X48081905Y-22234819D01*
X48081905Y-22234819D02*
X48462857Y-22234819D01*
X48462857Y-22234819D02*
X48558095Y-22282438D01*
X48558095Y-22282438D02*
X48605714Y-22330057D01*
X48605714Y-22330057D02*
X48653333Y-22425295D01*
X48653333Y-22425295D02*
X48653333Y-22568152D01*
X48653333Y-22568152D02*
X48605714Y-22663390D01*
X48605714Y-22663390D02*
X48558095Y-22711009D01*
X48558095Y-22711009D02*
X48462857Y-22758628D01*
X48462857Y-22758628D02*
X48081905Y-22758628D01*
X49034286Y-22330057D02*
X49081905Y-22282438D01*
X49081905Y-22282438D02*
X49177143Y-22234819D01*
X49177143Y-22234819D02*
X49415238Y-22234819D01*
X49415238Y-22234819D02*
X49510476Y-22282438D01*
X49510476Y-22282438D02*
X49558095Y-22330057D01*
X49558095Y-22330057D02*
X49605714Y-22425295D01*
X49605714Y-22425295D02*
X49605714Y-22520533D01*
X49605714Y-22520533D02*
X49558095Y-22663390D01*
X49558095Y-22663390D02*
X48986667Y-23234819D01*
X48986667Y-23234819D02*
X49605714Y-23234819D01*
%TO.C,C5*%
X50183333Y-49529580D02*
X50135714Y-49577200D01*
X50135714Y-49577200D02*
X49992857Y-49624819D01*
X49992857Y-49624819D02*
X49897619Y-49624819D01*
X49897619Y-49624819D02*
X49754762Y-49577200D01*
X49754762Y-49577200D02*
X49659524Y-49481961D01*
X49659524Y-49481961D02*
X49611905Y-49386723D01*
X49611905Y-49386723D02*
X49564286Y-49196247D01*
X49564286Y-49196247D02*
X49564286Y-49053390D01*
X49564286Y-49053390D02*
X49611905Y-48862914D01*
X49611905Y-48862914D02*
X49659524Y-48767676D01*
X49659524Y-48767676D02*
X49754762Y-48672438D01*
X49754762Y-48672438D02*
X49897619Y-48624819D01*
X49897619Y-48624819D02*
X49992857Y-48624819D01*
X49992857Y-48624819D02*
X50135714Y-48672438D01*
X50135714Y-48672438D02*
X50183333Y-48720057D01*
X51088095Y-48624819D02*
X50611905Y-48624819D01*
X50611905Y-48624819D02*
X50564286Y-49101009D01*
X50564286Y-49101009D02*
X50611905Y-49053390D01*
X50611905Y-49053390D02*
X50707143Y-49005771D01*
X50707143Y-49005771D02*
X50945238Y-49005771D01*
X50945238Y-49005771D02*
X51040476Y-49053390D01*
X51040476Y-49053390D02*
X51088095Y-49101009D01*
X51088095Y-49101009D02*
X51135714Y-49196247D01*
X51135714Y-49196247D02*
X51135714Y-49434342D01*
X51135714Y-49434342D02*
X51088095Y-49529580D01*
X51088095Y-49529580D02*
X51040476Y-49577200D01*
X51040476Y-49577200D02*
X50945238Y-49624819D01*
X50945238Y-49624819D02*
X50707143Y-49624819D01*
X50707143Y-49624819D02*
X50611905Y-49577200D01*
X50611905Y-49577200D02*
X50564286Y-49529580D01*
%TO.C,D2*%
X25181905Y-27234819D02*
X25181905Y-26234819D01*
X25181905Y-26234819D02*
X25420000Y-26234819D01*
X25420000Y-26234819D02*
X25562857Y-26282438D01*
X25562857Y-26282438D02*
X25658095Y-26377676D01*
X25658095Y-26377676D02*
X25705714Y-26472914D01*
X25705714Y-26472914D02*
X25753333Y-26663390D01*
X25753333Y-26663390D02*
X25753333Y-26806247D01*
X25753333Y-26806247D02*
X25705714Y-26996723D01*
X25705714Y-26996723D02*
X25658095Y-27091961D01*
X25658095Y-27091961D02*
X25562857Y-27187200D01*
X25562857Y-27187200D02*
X25420000Y-27234819D01*
X25420000Y-27234819D02*
X25181905Y-27234819D01*
X26134286Y-26330057D02*
X26181905Y-26282438D01*
X26181905Y-26282438D02*
X26277143Y-26234819D01*
X26277143Y-26234819D02*
X26515238Y-26234819D01*
X26515238Y-26234819D02*
X26610476Y-26282438D01*
X26610476Y-26282438D02*
X26658095Y-26330057D01*
X26658095Y-26330057D02*
X26705714Y-26425295D01*
X26705714Y-26425295D02*
X26705714Y-26520533D01*
X26705714Y-26520533D02*
X26658095Y-26663390D01*
X26658095Y-26663390D02*
X26086667Y-27234819D01*
X26086667Y-27234819D02*
X26705714Y-27234819D01*
D12*
%TO.C,R11*%
X46405714Y-20532395D02*
X46139047Y-20151442D01*
X45948571Y-20532395D02*
X45948571Y-19732395D01*
X45948571Y-19732395D02*
X46253333Y-19732395D01*
X46253333Y-19732395D02*
X46329523Y-19770490D01*
X46329523Y-19770490D02*
X46367618Y-19808585D01*
X46367618Y-19808585D02*
X46405714Y-19884776D01*
X46405714Y-19884776D02*
X46405714Y-19999061D01*
X46405714Y-19999061D02*
X46367618Y-20075252D01*
X46367618Y-20075252D02*
X46329523Y-20113347D01*
X46329523Y-20113347D02*
X46253333Y-20151442D01*
X46253333Y-20151442D02*
X45948571Y-20151442D01*
X47167618Y-20532395D02*
X46710475Y-20532395D01*
X46939047Y-20532395D02*
X46939047Y-19732395D01*
X46939047Y-19732395D02*
X46862856Y-19846680D01*
X46862856Y-19846680D02*
X46786666Y-19922871D01*
X46786666Y-19922871D02*
X46710475Y-19960966D01*
X47929523Y-20532395D02*
X47472380Y-20532395D01*
X47700952Y-20532395D02*
X47700952Y-19732395D01*
X47700952Y-19732395D02*
X47624761Y-19846680D01*
X47624761Y-19846680D02*
X47548571Y-19922871D01*
X47548571Y-19922871D02*
X47472380Y-19960966D01*
D10*
%TO.C,C27*%
X27577142Y-55839580D02*
X27529523Y-55887200D01*
X27529523Y-55887200D02*
X27386666Y-55934819D01*
X27386666Y-55934819D02*
X27291428Y-55934819D01*
X27291428Y-55934819D02*
X27148571Y-55887200D01*
X27148571Y-55887200D02*
X27053333Y-55791961D01*
X27053333Y-55791961D02*
X27005714Y-55696723D01*
X27005714Y-55696723D02*
X26958095Y-55506247D01*
X26958095Y-55506247D02*
X26958095Y-55363390D01*
X26958095Y-55363390D02*
X27005714Y-55172914D01*
X27005714Y-55172914D02*
X27053333Y-55077676D01*
X27053333Y-55077676D02*
X27148571Y-54982438D01*
X27148571Y-54982438D02*
X27291428Y-54934819D01*
X27291428Y-54934819D02*
X27386666Y-54934819D01*
X27386666Y-54934819D02*
X27529523Y-54982438D01*
X27529523Y-54982438D02*
X27577142Y-55030057D01*
X27958095Y-55030057D02*
X28005714Y-54982438D01*
X28005714Y-54982438D02*
X28100952Y-54934819D01*
X28100952Y-54934819D02*
X28339047Y-54934819D01*
X28339047Y-54934819D02*
X28434285Y-54982438D01*
X28434285Y-54982438D02*
X28481904Y-55030057D01*
X28481904Y-55030057D02*
X28529523Y-55125295D01*
X28529523Y-55125295D02*
X28529523Y-55220533D01*
X28529523Y-55220533D02*
X28481904Y-55363390D01*
X28481904Y-55363390D02*
X27910476Y-55934819D01*
X27910476Y-55934819D02*
X28529523Y-55934819D01*
X28862857Y-54934819D02*
X29529523Y-54934819D01*
X29529523Y-54934819D02*
X29100952Y-55934819D01*
%TO.C,R25*%
X18074819Y-23822857D02*
X17598628Y-24156190D01*
X18074819Y-24394285D02*
X17074819Y-24394285D01*
X17074819Y-24394285D02*
X17074819Y-24013333D01*
X17074819Y-24013333D02*
X17122438Y-23918095D01*
X17122438Y-23918095D02*
X17170057Y-23870476D01*
X17170057Y-23870476D02*
X17265295Y-23822857D01*
X17265295Y-23822857D02*
X17408152Y-23822857D01*
X17408152Y-23822857D02*
X17503390Y-23870476D01*
X17503390Y-23870476D02*
X17551009Y-23918095D01*
X17551009Y-23918095D02*
X17598628Y-24013333D01*
X17598628Y-24013333D02*
X17598628Y-24394285D01*
X17170057Y-23441904D02*
X17122438Y-23394285D01*
X17122438Y-23394285D02*
X17074819Y-23299047D01*
X17074819Y-23299047D02*
X17074819Y-23060952D01*
X17074819Y-23060952D02*
X17122438Y-22965714D01*
X17122438Y-22965714D02*
X17170057Y-22918095D01*
X17170057Y-22918095D02*
X17265295Y-22870476D01*
X17265295Y-22870476D02*
X17360533Y-22870476D01*
X17360533Y-22870476D02*
X17503390Y-22918095D01*
X17503390Y-22918095D02*
X18074819Y-23489523D01*
X18074819Y-23489523D02*
X18074819Y-22870476D01*
X17074819Y-21965714D02*
X17074819Y-22441904D01*
X17074819Y-22441904D02*
X17551009Y-22489523D01*
X17551009Y-22489523D02*
X17503390Y-22441904D01*
X17503390Y-22441904D02*
X17455771Y-22346666D01*
X17455771Y-22346666D02*
X17455771Y-22108571D01*
X17455771Y-22108571D02*
X17503390Y-22013333D01*
X17503390Y-22013333D02*
X17551009Y-21965714D01*
X17551009Y-21965714D02*
X17646247Y-21918095D01*
X17646247Y-21918095D02*
X17884342Y-21918095D01*
X17884342Y-21918095D02*
X17979580Y-21965714D01*
X17979580Y-21965714D02*
X18027200Y-22013333D01*
X18027200Y-22013333D02*
X18074819Y-22108571D01*
X18074819Y-22108571D02*
X18074819Y-22346666D01*
X18074819Y-22346666D02*
X18027200Y-22441904D01*
X18027200Y-22441904D02*
X17979580Y-22489523D01*
%TO.C,Q2*%
X59750057Y-53395238D02*
X59702438Y-53490476D01*
X59702438Y-53490476D02*
X59607200Y-53585714D01*
X59607200Y-53585714D02*
X59464342Y-53728571D01*
X59464342Y-53728571D02*
X59416723Y-53823809D01*
X59416723Y-53823809D02*
X59416723Y-53919047D01*
X59654819Y-53871428D02*
X59607200Y-53966666D01*
X59607200Y-53966666D02*
X59511961Y-54061904D01*
X59511961Y-54061904D02*
X59321485Y-54109523D01*
X59321485Y-54109523D02*
X58988152Y-54109523D01*
X58988152Y-54109523D02*
X58797676Y-54061904D01*
X58797676Y-54061904D02*
X58702438Y-53966666D01*
X58702438Y-53966666D02*
X58654819Y-53871428D01*
X58654819Y-53871428D02*
X58654819Y-53680952D01*
X58654819Y-53680952D02*
X58702438Y-53585714D01*
X58702438Y-53585714D02*
X58797676Y-53490476D01*
X58797676Y-53490476D02*
X58988152Y-53442857D01*
X58988152Y-53442857D02*
X59321485Y-53442857D01*
X59321485Y-53442857D02*
X59511961Y-53490476D01*
X59511961Y-53490476D02*
X59607200Y-53585714D01*
X59607200Y-53585714D02*
X59654819Y-53680952D01*
X59654819Y-53680952D02*
X59654819Y-53871428D01*
X58750057Y-53061904D02*
X58702438Y-53014285D01*
X58702438Y-53014285D02*
X58654819Y-52919047D01*
X58654819Y-52919047D02*
X58654819Y-52680952D01*
X58654819Y-52680952D02*
X58702438Y-52585714D01*
X58702438Y-52585714D02*
X58750057Y-52538095D01*
X58750057Y-52538095D02*
X58845295Y-52490476D01*
X58845295Y-52490476D02*
X58940533Y-52490476D01*
X58940533Y-52490476D02*
X59083390Y-52538095D01*
X59083390Y-52538095D02*
X59654819Y-53109523D01*
X59654819Y-53109523D02*
X59654819Y-52490476D01*
D12*
%TO.C,C13*%
X36905714Y-45868704D02*
X36867618Y-45906800D01*
X36867618Y-45906800D02*
X36753333Y-45944895D01*
X36753333Y-45944895D02*
X36677142Y-45944895D01*
X36677142Y-45944895D02*
X36562856Y-45906800D01*
X36562856Y-45906800D02*
X36486666Y-45830609D01*
X36486666Y-45830609D02*
X36448571Y-45754419D01*
X36448571Y-45754419D02*
X36410475Y-45602038D01*
X36410475Y-45602038D02*
X36410475Y-45487752D01*
X36410475Y-45487752D02*
X36448571Y-45335371D01*
X36448571Y-45335371D02*
X36486666Y-45259180D01*
X36486666Y-45259180D02*
X36562856Y-45182990D01*
X36562856Y-45182990D02*
X36677142Y-45144895D01*
X36677142Y-45144895D02*
X36753333Y-45144895D01*
X36753333Y-45144895D02*
X36867618Y-45182990D01*
X36867618Y-45182990D02*
X36905714Y-45221085D01*
X37667618Y-45944895D02*
X37210475Y-45944895D01*
X37439047Y-45944895D02*
X37439047Y-45144895D01*
X37439047Y-45144895D02*
X37362856Y-45259180D01*
X37362856Y-45259180D02*
X37286666Y-45335371D01*
X37286666Y-45335371D02*
X37210475Y-45373466D01*
X37934285Y-45144895D02*
X38429523Y-45144895D01*
X38429523Y-45144895D02*
X38162857Y-45449657D01*
X38162857Y-45449657D02*
X38277142Y-45449657D01*
X38277142Y-45449657D02*
X38353333Y-45487752D01*
X38353333Y-45487752D02*
X38391428Y-45525847D01*
X38391428Y-45525847D02*
X38429523Y-45602038D01*
X38429523Y-45602038D02*
X38429523Y-45792514D01*
X38429523Y-45792514D02*
X38391428Y-45868704D01*
X38391428Y-45868704D02*
X38353333Y-45906800D01*
X38353333Y-45906800D02*
X38277142Y-45944895D01*
X38277142Y-45944895D02*
X38048571Y-45944895D01*
X38048571Y-45944895D02*
X37972380Y-45906800D01*
X37972380Y-45906800D02*
X37934285Y-45868704D01*
%TO.C,SW1*%
X53246800Y-31946667D02*
X53284895Y-31832381D01*
X53284895Y-31832381D02*
X53284895Y-31641905D01*
X53284895Y-31641905D02*
X53246800Y-31565714D01*
X53246800Y-31565714D02*
X53208704Y-31527619D01*
X53208704Y-31527619D02*
X53132514Y-31489524D01*
X53132514Y-31489524D02*
X53056323Y-31489524D01*
X53056323Y-31489524D02*
X52980133Y-31527619D01*
X52980133Y-31527619D02*
X52942038Y-31565714D01*
X52942038Y-31565714D02*
X52903942Y-31641905D01*
X52903942Y-31641905D02*
X52865847Y-31794286D01*
X52865847Y-31794286D02*
X52827752Y-31870476D01*
X52827752Y-31870476D02*
X52789657Y-31908571D01*
X52789657Y-31908571D02*
X52713466Y-31946667D01*
X52713466Y-31946667D02*
X52637276Y-31946667D01*
X52637276Y-31946667D02*
X52561085Y-31908571D01*
X52561085Y-31908571D02*
X52522990Y-31870476D01*
X52522990Y-31870476D02*
X52484895Y-31794286D01*
X52484895Y-31794286D02*
X52484895Y-31603809D01*
X52484895Y-31603809D02*
X52522990Y-31489524D01*
X52484895Y-31222857D02*
X53284895Y-31032381D01*
X53284895Y-31032381D02*
X52713466Y-30880000D01*
X52713466Y-30880000D02*
X53284895Y-30727619D01*
X53284895Y-30727619D02*
X52484895Y-30537143D01*
X53284895Y-29813333D02*
X53284895Y-30270476D01*
X53284895Y-30041904D02*
X52484895Y-30041904D01*
X52484895Y-30041904D02*
X52599180Y-30118095D01*
X52599180Y-30118095D02*
X52675371Y-30194285D01*
X52675371Y-30194285D02*
X52713466Y-30270476D01*
D10*
%TO.C,R5*%
X46454819Y-37446666D02*
X45978628Y-37779999D01*
X46454819Y-38018094D02*
X45454819Y-38018094D01*
X45454819Y-38018094D02*
X45454819Y-37637142D01*
X45454819Y-37637142D02*
X45502438Y-37541904D01*
X45502438Y-37541904D02*
X45550057Y-37494285D01*
X45550057Y-37494285D02*
X45645295Y-37446666D01*
X45645295Y-37446666D02*
X45788152Y-37446666D01*
X45788152Y-37446666D02*
X45883390Y-37494285D01*
X45883390Y-37494285D02*
X45931009Y-37541904D01*
X45931009Y-37541904D02*
X45978628Y-37637142D01*
X45978628Y-37637142D02*
X45978628Y-38018094D01*
X45454819Y-36541904D02*
X45454819Y-37018094D01*
X45454819Y-37018094D02*
X45931009Y-37065713D01*
X45931009Y-37065713D02*
X45883390Y-37018094D01*
X45883390Y-37018094D02*
X45835771Y-36922856D01*
X45835771Y-36922856D02*
X45835771Y-36684761D01*
X45835771Y-36684761D02*
X45883390Y-36589523D01*
X45883390Y-36589523D02*
X45931009Y-36541904D01*
X45931009Y-36541904D02*
X46026247Y-36494285D01*
X46026247Y-36494285D02*
X46264342Y-36494285D01*
X46264342Y-36494285D02*
X46359580Y-36541904D01*
X46359580Y-36541904D02*
X46407200Y-36589523D01*
X46407200Y-36589523D02*
X46454819Y-36684761D01*
X46454819Y-36684761D02*
X46454819Y-36922856D01*
X46454819Y-36922856D02*
X46407200Y-37018094D01*
X46407200Y-37018094D02*
X46359580Y-37065713D01*
%TO.C,C24*%
X22777142Y-52839580D02*
X22729523Y-52887200D01*
X22729523Y-52887200D02*
X22586666Y-52934819D01*
X22586666Y-52934819D02*
X22491428Y-52934819D01*
X22491428Y-52934819D02*
X22348571Y-52887200D01*
X22348571Y-52887200D02*
X22253333Y-52791961D01*
X22253333Y-52791961D02*
X22205714Y-52696723D01*
X22205714Y-52696723D02*
X22158095Y-52506247D01*
X22158095Y-52506247D02*
X22158095Y-52363390D01*
X22158095Y-52363390D02*
X22205714Y-52172914D01*
X22205714Y-52172914D02*
X22253333Y-52077676D01*
X22253333Y-52077676D02*
X22348571Y-51982438D01*
X22348571Y-51982438D02*
X22491428Y-51934819D01*
X22491428Y-51934819D02*
X22586666Y-51934819D01*
X22586666Y-51934819D02*
X22729523Y-51982438D01*
X22729523Y-51982438D02*
X22777142Y-52030057D01*
X23158095Y-52030057D02*
X23205714Y-51982438D01*
X23205714Y-51982438D02*
X23300952Y-51934819D01*
X23300952Y-51934819D02*
X23539047Y-51934819D01*
X23539047Y-51934819D02*
X23634285Y-51982438D01*
X23634285Y-51982438D02*
X23681904Y-52030057D01*
X23681904Y-52030057D02*
X23729523Y-52125295D01*
X23729523Y-52125295D02*
X23729523Y-52220533D01*
X23729523Y-52220533D02*
X23681904Y-52363390D01*
X23681904Y-52363390D02*
X23110476Y-52934819D01*
X23110476Y-52934819D02*
X23729523Y-52934819D01*
X24586666Y-52268152D02*
X24586666Y-52934819D01*
X24348571Y-51887200D02*
X24110476Y-52601485D01*
X24110476Y-52601485D02*
X24729523Y-52601485D01*
%TO.C,R7*%
X47180543Y-50183754D02*
X47281558Y-49611335D01*
X46776482Y-49779693D02*
X47483589Y-49072587D01*
X47483589Y-49072587D02*
X47752963Y-49341961D01*
X47752963Y-49341961D02*
X47786635Y-49442976D01*
X47786635Y-49442976D02*
X47786635Y-49510319D01*
X47786635Y-49510319D02*
X47752963Y-49611335D01*
X47752963Y-49611335D02*
X47651948Y-49712350D01*
X47651948Y-49712350D02*
X47550932Y-49746022D01*
X47550932Y-49746022D02*
X47483589Y-49746022D01*
X47483589Y-49746022D02*
X47382574Y-49712350D01*
X47382574Y-49712350D02*
X47113200Y-49442976D01*
X48123352Y-49712350D02*
X48594757Y-50183754D01*
X48594757Y-50183754D02*
X47584604Y-50587815D01*
D12*
%TO.C,R16*%
X55405714Y-49144895D02*
X55139047Y-48763942D01*
X54948571Y-49144895D02*
X54948571Y-48344895D01*
X54948571Y-48344895D02*
X55253333Y-48344895D01*
X55253333Y-48344895D02*
X55329523Y-48382990D01*
X55329523Y-48382990D02*
X55367618Y-48421085D01*
X55367618Y-48421085D02*
X55405714Y-48497276D01*
X55405714Y-48497276D02*
X55405714Y-48611561D01*
X55405714Y-48611561D02*
X55367618Y-48687752D01*
X55367618Y-48687752D02*
X55329523Y-48725847D01*
X55329523Y-48725847D02*
X55253333Y-48763942D01*
X55253333Y-48763942D02*
X54948571Y-48763942D01*
X56167618Y-49144895D02*
X55710475Y-49144895D01*
X55939047Y-49144895D02*
X55939047Y-48344895D01*
X55939047Y-48344895D02*
X55862856Y-48459180D01*
X55862856Y-48459180D02*
X55786666Y-48535371D01*
X55786666Y-48535371D02*
X55710475Y-48573466D01*
X56853333Y-48344895D02*
X56700952Y-48344895D01*
X56700952Y-48344895D02*
X56624761Y-48382990D01*
X56624761Y-48382990D02*
X56586666Y-48421085D01*
X56586666Y-48421085D02*
X56510476Y-48535371D01*
X56510476Y-48535371D02*
X56472380Y-48687752D01*
X56472380Y-48687752D02*
X56472380Y-48992514D01*
X56472380Y-48992514D02*
X56510476Y-49068704D01*
X56510476Y-49068704D02*
X56548571Y-49106800D01*
X56548571Y-49106800D02*
X56624761Y-49144895D01*
X56624761Y-49144895D02*
X56777142Y-49144895D01*
X56777142Y-49144895D02*
X56853333Y-49106800D01*
X56853333Y-49106800D02*
X56891428Y-49068704D01*
X56891428Y-49068704D02*
X56929523Y-48992514D01*
X56929523Y-48992514D02*
X56929523Y-48802038D01*
X56929523Y-48802038D02*
X56891428Y-48725847D01*
X56891428Y-48725847D02*
X56853333Y-48687752D01*
X56853333Y-48687752D02*
X56777142Y-48649657D01*
X56777142Y-48649657D02*
X56624761Y-48649657D01*
X56624761Y-48649657D02*
X56548571Y-48687752D01*
X56548571Y-48687752D02*
X56510476Y-48725847D01*
X56510476Y-48725847D02*
X56472380Y-48802038D01*
%TO.C,R31*%
X67905714Y-32044895D02*
X67639047Y-31663942D01*
X67448571Y-32044895D02*
X67448571Y-31244895D01*
X67448571Y-31244895D02*
X67753333Y-31244895D01*
X67753333Y-31244895D02*
X67829523Y-31282990D01*
X67829523Y-31282990D02*
X67867618Y-31321085D01*
X67867618Y-31321085D02*
X67905714Y-31397276D01*
X67905714Y-31397276D02*
X67905714Y-31511561D01*
X67905714Y-31511561D02*
X67867618Y-31587752D01*
X67867618Y-31587752D02*
X67829523Y-31625847D01*
X67829523Y-31625847D02*
X67753333Y-31663942D01*
X67753333Y-31663942D02*
X67448571Y-31663942D01*
X68172380Y-31244895D02*
X68667618Y-31244895D01*
X68667618Y-31244895D02*
X68400952Y-31549657D01*
X68400952Y-31549657D02*
X68515237Y-31549657D01*
X68515237Y-31549657D02*
X68591428Y-31587752D01*
X68591428Y-31587752D02*
X68629523Y-31625847D01*
X68629523Y-31625847D02*
X68667618Y-31702038D01*
X68667618Y-31702038D02*
X68667618Y-31892514D01*
X68667618Y-31892514D02*
X68629523Y-31968704D01*
X68629523Y-31968704D02*
X68591428Y-32006800D01*
X68591428Y-32006800D02*
X68515237Y-32044895D01*
X68515237Y-32044895D02*
X68286666Y-32044895D01*
X68286666Y-32044895D02*
X68210475Y-32006800D01*
X68210475Y-32006800D02*
X68172380Y-31968704D01*
X69429523Y-32044895D02*
X68972380Y-32044895D01*
X69200952Y-32044895D02*
X69200952Y-31244895D01*
X69200952Y-31244895D02*
X69124761Y-31359180D01*
X69124761Y-31359180D02*
X69048571Y-31435371D01*
X69048571Y-31435371D02*
X68972380Y-31473466D01*
D10*
%TO.C,R6*%
X51604819Y-37459166D02*
X51128628Y-37792499D01*
X51604819Y-38030594D02*
X50604819Y-38030594D01*
X50604819Y-38030594D02*
X50604819Y-37649642D01*
X50604819Y-37649642D02*
X50652438Y-37554404D01*
X50652438Y-37554404D02*
X50700057Y-37506785D01*
X50700057Y-37506785D02*
X50795295Y-37459166D01*
X50795295Y-37459166D02*
X50938152Y-37459166D01*
X50938152Y-37459166D02*
X51033390Y-37506785D01*
X51033390Y-37506785D02*
X51081009Y-37554404D01*
X51081009Y-37554404D02*
X51128628Y-37649642D01*
X51128628Y-37649642D02*
X51128628Y-38030594D01*
X50604819Y-36602023D02*
X50604819Y-36792499D01*
X50604819Y-36792499D02*
X50652438Y-36887737D01*
X50652438Y-36887737D02*
X50700057Y-36935356D01*
X50700057Y-36935356D02*
X50842914Y-37030594D01*
X50842914Y-37030594D02*
X51033390Y-37078213D01*
X51033390Y-37078213D02*
X51414342Y-37078213D01*
X51414342Y-37078213D02*
X51509580Y-37030594D01*
X51509580Y-37030594D02*
X51557200Y-36982975D01*
X51557200Y-36982975D02*
X51604819Y-36887737D01*
X51604819Y-36887737D02*
X51604819Y-36697261D01*
X51604819Y-36697261D02*
X51557200Y-36602023D01*
X51557200Y-36602023D02*
X51509580Y-36554404D01*
X51509580Y-36554404D02*
X51414342Y-36506785D01*
X51414342Y-36506785D02*
X51176247Y-36506785D01*
X51176247Y-36506785D02*
X51081009Y-36554404D01*
X51081009Y-36554404D02*
X51033390Y-36602023D01*
X51033390Y-36602023D02*
X50985771Y-36697261D01*
X50985771Y-36697261D02*
X50985771Y-36887737D01*
X50985771Y-36887737D02*
X51033390Y-36982975D01*
X51033390Y-36982975D02*
X51081009Y-37030594D01*
X51081009Y-37030594D02*
X51176247Y-37078213D01*
D12*
%TO.C,C20*%
X56805714Y-44568704D02*
X56767618Y-44606800D01*
X56767618Y-44606800D02*
X56653333Y-44644895D01*
X56653333Y-44644895D02*
X56577142Y-44644895D01*
X56577142Y-44644895D02*
X56462856Y-44606800D01*
X56462856Y-44606800D02*
X56386666Y-44530609D01*
X56386666Y-44530609D02*
X56348571Y-44454419D01*
X56348571Y-44454419D02*
X56310475Y-44302038D01*
X56310475Y-44302038D02*
X56310475Y-44187752D01*
X56310475Y-44187752D02*
X56348571Y-44035371D01*
X56348571Y-44035371D02*
X56386666Y-43959180D01*
X56386666Y-43959180D02*
X56462856Y-43882990D01*
X56462856Y-43882990D02*
X56577142Y-43844895D01*
X56577142Y-43844895D02*
X56653333Y-43844895D01*
X56653333Y-43844895D02*
X56767618Y-43882990D01*
X56767618Y-43882990D02*
X56805714Y-43921085D01*
X57110475Y-43921085D02*
X57148571Y-43882990D01*
X57148571Y-43882990D02*
X57224761Y-43844895D01*
X57224761Y-43844895D02*
X57415237Y-43844895D01*
X57415237Y-43844895D02*
X57491428Y-43882990D01*
X57491428Y-43882990D02*
X57529523Y-43921085D01*
X57529523Y-43921085D02*
X57567618Y-43997276D01*
X57567618Y-43997276D02*
X57567618Y-44073466D01*
X57567618Y-44073466D02*
X57529523Y-44187752D01*
X57529523Y-44187752D02*
X57072380Y-44644895D01*
X57072380Y-44644895D02*
X57567618Y-44644895D01*
X58062857Y-43844895D02*
X58139047Y-43844895D01*
X58139047Y-43844895D02*
X58215238Y-43882990D01*
X58215238Y-43882990D02*
X58253333Y-43921085D01*
X58253333Y-43921085D02*
X58291428Y-43997276D01*
X58291428Y-43997276D02*
X58329523Y-44149657D01*
X58329523Y-44149657D02*
X58329523Y-44340133D01*
X58329523Y-44340133D02*
X58291428Y-44492514D01*
X58291428Y-44492514D02*
X58253333Y-44568704D01*
X58253333Y-44568704D02*
X58215238Y-44606800D01*
X58215238Y-44606800D02*
X58139047Y-44644895D01*
X58139047Y-44644895D02*
X58062857Y-44644895D01*
X58062857Y-44644895D02*
X57986666Y-44606800D01*
X57986666Y-44606800D02*
X57948571Y-44568704D01*
X57948571Y-44568704D02*
X57910476Y-44492514D01*
X57910476Y-44492514D02*
X57872380Y-44340133D01*
X57872380Y-44340133D02*
X57872380Y-44149657D01*
X57872380Y-44149657D02*
X57910476Y-43997276D01*
X57910476Y-43997276D02*
X57948571Y-43921085D01*
X57948571Y-43921085D02*
X57986666Y-43882990D01*
X57986666Y-43882990D02*
X58062857Y-43844895D01*
%TO.C,C14*%
X50805714Y-47648704D02*
X50767618Y-47686800D01*
X50767618Y-47686800D02*
X50653333Y-47724895D01*
X50653333Y-47724895D02*
X50577142Y-47724895D01*
X50577142Y-47724895D02*
X50462856Y-47686800D01*
X50462856Y-47686800D02*
X50386666Y-47610609D01*
X50386666Y-47610609D02*
X50348571Y-47534419D01*
X50348571Y-47534419D02*
X50310475Y-47382038D01*
X50310475Y-47382038D02*
X50310475Y-47267752D01*
X50310475Y-47267752D02*
X50348571Y-47115371D01*
X50348571Y-47115371D02*
X50386666Y-47039180D01*
X50386666Y-47039180D02*
X50462856Y-46962990D01*
X50462856Y-46962990D02*
X50577142Y-46924895D01*
X50577142Y-46924895D02*
X50653333Y-46924895D01*
X50653333Y-46924895D02*
X50767618Y-46962990D01*
X50767618Y-46962990D02*
X50805714Y-47001085D01*
X51567618Y-47724895D02*
X51110475Y-47724895D01*
X51339047Y-47724895D02*
X51339047Y-46924895D01*
X51339047Y-46924895D02*
X51262856Y-47039180D01*
X51262856Y-47039180D02*
X51186666Y-47115371D01*
X51186666Y-47115371D02*
X51110475Y-47153466D01*
X52253333Y-47191561D02*
X52253333Y-47724895D01*
X52062857Y-46886800D02*
X51872380Y-47458228D01*
X51872380Y-47458228D02*
X52367619Y-47458228D01*
%TO.C,C29*%
X53705714Y-57468704D02*
X53667618Y-57506800D01*
X53667618Y-57506800D02*
X53553333Y-57544895D01*
X53553333Y-57544895D02*
X53477142Y-57544895D01*
X53477142Y-57544895D02*
X53362856Y-57506800D01*
X53362856Y-57506800D02*
X53286666Y-57430609D01*
X53286666Y-57430609D02*
X53248571Y-57354419D01*
X53248571Y-57354419D02*
X53210475Y-57202038D01*
X53210475Y-57202038D02*
X53210475Y-57087752D01*
X53210475Y-57087752D02*
X53248571Y-56935371D01*
X53248571Y-56935371D02*
X53286666Y-56859180D01*
X53286666Y-56859180D02*
X53362856Y-56782990D01*
X53362856Y-56782990D02*
X53477142Y-56744895D01*
X53477142Y-56744895D02*
X53553333Y-56744895D01*
X53553333Y-56744895D02*
X53667618Y-56782990D01*
X53667618Y-56782990D02*
X53705714Y-56821085D01*
X54010475Y-56821085D02*
X54048571Y-56782990D01*
X54048571Y-56782990D02*
X54124761Y-56744895D01*
X54124761Y-56744895D02*
X54315237Y-56744895D01*
X54315237Y-56744895D02*
X54391428Y-56782990D01*
X54391428Y-56782990D02*
X54429523Y-56821085D01*
X54429523Y-56821085D02*
X54467618Y-56897276D01*
X54467618Y-56897276D02*
X54467618Y-56973466D01*
X54467618Y-56973466D02*
X54429523Y-57087752D01*
X54429523Y-57087752D02*
X53972380Y-57544895D01*
X53972380Y-57544895D02*
X54467618Y-57544895D01*
X54848571Y-57544895D02*
X55000952Y-57544895D01*
X55000952Y-57544895D02*
X55077142Y-57506800D01*
X55077142Y-57506800D02*
X55115238Y-57468704D01*
X55115238Y-57468704D02*
X55191428Y-57354419D01*
X55191428Y-57354419D02*
X55229523Y-57202038D01*
X55229523Y-57202038D02*
X55229523Y-56897276D01*
X55229523Y-56897276D02*
X55191428Y-56821085D01*
X55191428Y-56821085D02*
X55153333Y-56782990D01*
X55153333Y-56782990D02*
X55077142Y-56744895D01*
X55077142Y-56744895D02*
X54924761Y-56744895D01*
X54924761Y-56744895D02*
X54848571Y-56782990D01*
X54848571Y-56782990D02*
X54810476Y-56821085D01*
X54810476Y-56821085D02*
X54772380Y-56897276D01*
X54772380Y-56897276D02*
X54772380Y-57087752D01*
X54772380Y-57087752D02*
X54810476Y-57163942D01*
X54810476Y-57163942D02*
X54848571Y-57202038D01*
X54848571Y-57202038D02*
X54924761Y-57240133D01*
X54924761Y-57240133D02*
X55077142Y-57240133D01*
X55077142Y-57240133D02*
X55153333Y-57202038D01*
X55153333Y-57202038D02*
X55191428Y-57163942D01*
X55191428Y-57163942D02*
X55229523Y-57087752D01*
D10*
%TO.C,Q1*%
X59242261Y-56890057D02*
X59147023Y-56842438D01*
X59147023Y-56842438D02*
X59051785Y-56747200D01*
X59051785Y-56747200D02*
X58908928Y-56604342D01*
X58908928Y-56604342D02*
X58813690Y-56556723D01*
X58813690Y-56556723D02*
X58718452Y-56556723D01*
X58766071Y-56794819D02*
X58670833Y-56747200D01*
X58670833Y-56747200D02*
X58575595Y-56651961D01*
X58575595Y-56651961D02*
X58527976Y-56461485D01*
X58527976Y-56461485D02*
X58527976Y-56128152D01*
X58527976Y-56128152D02*
X58575595Y-55937676D01*
X58575595Y-55937676D02*
X58670833Y-55842438D01*
X58670833Y-55842438D02*
X58766071Y-55794819D01*
X58766071Y-55794819D02*
X58956547Y-55794819D01*
X58956547Y-55794819D02*
X59051785Y-55842438D01*
X59051785Y-55842438D02*
X59147023Y-55937676D01*
X59147023Y-55937676D02*
X59194642Y-56128152D01*
X59194642Y-56128152D02*
X59194642Y-56461485D01*
X59194642Y-56461485D02*
X59147023Y-56651961D01*
X59147023Y-56651961D02*
X59051785Y-56747200D01*
X59051785Y-56747200D02*
X58956547Y-56794819D01*
X58956547Y-56794819D02*
X58766071Y-56794819D01*
X60147023Y-56794819D02*
X59575595Y-56794819D01*
X59861309Y-56794819D02*
X59861309Y-55794819D01*
X59861309Y-55794819D02*
X59766071Y-55937676D01*
X59766071Y-55937676D02*
X59670833Y-56032914D01*
X59670833Y-56032914D02*
X59575595Y-56080533D01*
%TO.C,C10*%
X21506104Y-15794285D02*
X21544200Y-15832381D01*
X21544200Y-15832381D02*
X21582295Y-15946666D01*
X21582295Y-15946666D02*
X21582295Y-16022857D01*
X21582295Y-16022857D02*
X21544200Y-16137143D01*
X21544200Y-16137143D02*
X21468009Y-16213333D01*
X21468009Y-16213333D02*
X21391819Y-16251428D01*
X21391819Y-16251428D02*
X21239438Y-16289524D01*
X21239438Y-16289524D02*
X21125152Y-16289524D01*
X21125152Y-16289524D02*
X20972771Y-16251428D01*
X20972771Y-16251428D02*
X20896580Y-16213333D01*
X20896580Y-16213333D02*
X20820390Y-16137143D01*
X20820390Y-16137143D02*
X20782295Y-16022857D01*
X20782295Y-16022857D02*
X20782295Y-15946666D01*
X20782295Y-15946666D02*
X20820390Y-15832381D01*
X20820390Y-15832381D02*
X20858485Y-15794285D01*
X21582295Y-15032381D02*
X21582295Y-15489524D01*
X21582295Y-15260952D02*
X20782295Y-15260952D01*
X20782295Y-15260952D02*
X20896580Y-15337143D01*
X20896580Y-15337143D02*
X20972771Y-15413333D01*
X20972771Y-15413333D02*
X21010866Y-15489524D01*
X20782295Y-14537142D02*
X20782295Y-14460952D01*
X20782295Y-14460952D02*
X20820390Y-14384761D01*
X20820390Y-14384761D02*
X20858485Y-14346666D01*
X20858485Y-14346666D02*
X20934676Y-14308571D01*
X20934676Y-14308571D02*
X21087057Y-14270476D01*
X21087057Y-14270476D02*
X21277533Y-14270476D01*
X21277533Y-14270476D02*
X21429914Y-14308571D01*
X21429914Y-14308571D02*
X21506104Y-14346666D01*
X21506104Y-14346666D02*
X21544200Y-14384761D01*
X21544200Y-14384761D02*
X21582295Y-14460952D01*
X21582295Y-14460952D02*
X21582295Y-14537142D01*
X21582295Y-14537142D02*
X21544200Y-14613333D01*
X21544200Y-14613333D02*
X21506104Y-14651428D01*
X21506104Y-14651428D02*
X21429914Y-14689523D01*
X21429914Y-14689523D02*
X21277533Y-14727619D01*
X21277533Y-14727619D02*
X21087057Y-14727619D01*
X21087057Y-14727619D02*
X20934676Y-14689523D01*
X20934676Y-14689523D02*
X20858485Y-14651428D01*
X20858485Y-14651428D02*
X20820390Y-14613333D01*
X20820390Y-14613333D02*
X20782295Y-14537142D01*
%TO.C,J7*%
X38846666Y-18434311D02*
X38846666Y-19148596D01*
X38846666Y-19148596D02*
X38799047Y-19291453D01*
X38799047Y-19291453D02*
X38703809Y-19386692D01*
X38703809Y-19386692D02*
X38560952Y-19434311D01*
X38560952Y-19434311D02*
X38465714Y-19434311D01*
X39227619Y-18434311D02*
X39894285Y-18434311D01*
X39894285Y-18434311D02*
X39465714Y-19434311D01*
D12*
%TO.C,Q4*%
X34843809Y-33721085D02*
X34767619Y-33682990D01*
X34767619Y-33682990D02*
X34691428Y-33606800D01*
X34691428Y-33606800D02*
X34577142Y-33492514D01*
X34577142Y-33492514D02*
X34500952Y-33454419D01*
X34500952Y-33454419D02*
X34424761Y-33454419D01*
X34462857Y-33644895D02*
X34386666Y-33606800D01*
X34386666Y-33606800D02*
X34310476Y-33530609D01*
X34310476Y-33530609D02*
X34272380Y-33378228D01*
X34272380Y-33378228D02*
X34272380Y-33111561D01*
X34272380Y-33111561D02*
X34310476Y-32959180D01*
X34310476Y-32959180D02*
X34386666Y-32882990D01*
X34386666Y-32882990D02*
X34462857Y-32844895D01*
X34462857Y-32844895D02*
X34615238Y-32844895D01*
X34615238Y-32844895D02*
X34691428Y-32882990D01*
X34691428Y-32882990D02*
X34767619Y-32959180D01*
X34767619Y-32959180D02*
X34805714Y-33111561D01*
X34805714Y-33111561D02*
X34805714Y-33378228D01*
X34805714Y-33378228D02*
X34767619Y-33530609D01*
X34767619Y-33530609D02*
X34691428Y-33606800D01*
X34691428Y-33606800D02*
X34615238Y-33644895D01*
X34615238Y-33644895D02*
X34462857Y-33644895D01*
X35491428Y-33111561D02*
X35491428Y-33644895D01*
X35300952Y-32806800D02*
X35110475Y-33378228D01*
X35110475Y-33378228D02*
X35605714Y-33378228D01*
%TO.C,D1*%
X50017024Y-19944895D02*
X50017024Y-19144895D01*
X50017024Y-19144895D02*
X50207500Y-19144895D01*
X50207500Y-19144895D02*
X50321786Y-19182990D01*
X50321786Y-19182990D02*
X50397976Y-19259180D01*
X50397976Y-19259180D02*
X50436071Y-19335371D01*
X50436071Y-19335371D02*
X50474167Y-19487752D01*
X50474167Y-19487752D02*
X50474167Y-19602038D01*
X50474167Y-19602038D02*
X50436071Y-19754419D01*
X50436071Y-19754419D02*
X50397976Y-19830609D01*
X50397976Y-19830609D02*
X50321786Y-19906800D01*
X50321786Y-19906800D02*
X50207500Y-19944895D01*
X50207500Y-19944895D02*
X50017024Y-19944895D01*
X51236071Y-19944895D02*
X50778928Y-19944895D01*
X51007500Y-19944895D02*
X51007500Y-19144895D01*
X51007500Y-19144895D02*
X50931309Y-19259180D01*
X50931309Y-19259180D02*
X50855119Y-19335371D01*
X50855119Y-19335371D02*
X50778928Y-19373466D01*
D13*
%TO.C,J12*%
X16841905Y-5783810D02*
X16841905Y-6690953D01*
X16841905Y-6690953D02*
X16781428Y-6872381D01*
X16781428Y-6872381D02*
X16660476Y-6993334D01*
X16660476Y-6993334D02*
X16479047Y-7053810D01*
X16479047Y-7053810D02*
X16358095Y-7053810D01*
X18111905Y-7053810D02*
X17386190Y-7053810D01*
X17749047Y-7053810D02*
X17749047Y-5783810D01*
X17749047Y-5783810D02*
X17628095Y-5965238D01*
X17628095Y-5965238D02*
X17507143Y-6086191D01*
X17507143Y-6086191D02*
X17386190Y-6146667D01*
X18595714Y-5904762D02*
X18656190Y-5844286D01*
X18656190Y-5844286D02*
X18777143Y-5783810D01*
X18777143Y-5783810D02*
X19079524Y-5783810D01*
X19079524Y-5783810D02*
X19200476Y-5844286D01*
X19200476Y-5844286D02*
X19260952Y-5904762D01*
X19260952Y-5904762D02*
X19321429Y-6025714D01*
X19321429Y-6025714D02*
X19321429Y-6146667D01*
X19321429Y-6146667D02*
X19260952Y-6328095D01*
X19260952Y-6328095D02*
X18535238Y-7053810D01*
X18535238Y-7053810D02*
X19321429Y-7053810D01*
D10*
%TO.C,C4*%
X43153333Y-52539580D02*
X43105714Y-52587200D01*
X43105714Y-52587200D02*
X42962857Y-52634819D01*
X42962857Y-52634819D02*
X42867619Y-52634819D01*
X42867619Y-52634819D02*
X42724762Y-52587200D01*
X42724762Y-52587200D02*
X42629524Y-52491961D01*
X42629524Y-52491961D02*
X42581905Y-52396723D01*
X42581905Y-52396723D02*
X42534286Y-52206247D01*
X42534286Y-52206247D02*
X42534286Y-52063390D01*
X42534286Y-52063390D02*
X42581905Y-51872914D01*
X42581905Y-51872914D02*
X42629524Y-51777676D01*
X42629524Y-51777676D02*
X42724762Y-51682438D01*
X42724762Y-51682438D02*
X42867619Y-51634819D01*
X42867619Y-51634819D02*
X42962857Y-51634819D01*
X42962857Y-51634819D02*
X43105714Y-51682438D01*
X43105714Y-51682438D02*
X43153333Y-51730057D01*
X44010476Y-51968152D02*
X44010476Y-52634819D01*
X43772381Y-51587200D02*
X43534286Y-52301485D01*
X43534286Y-52301485D02*
X44153333Y-52301485D01*
D12*
%TO.C,Q6*%
X58861085Y-34356190D02*
X58822990Y-34432380D01*
X58822990Y-34432380D02*
X58746800Y-34508571D01*
X58746800Y-34508571D02*
X58632514Y-34622857D01*
X58632514Y-34622857D02*
X58594419Y-34699047D01*
X58594419Y-34699047D02*
X58594419Y-34775238D01*
X58784895Y-34737142D02*
X58746800Y-34813333D01*
X58746800Y-34813333D02*
X58670609Y-34889523D01*
X58670609Y-34889523D02*
X58518228Y-34927619D01*
X58518228Y-34927619D02*
X58251561Y-34927619D01*
X58251561Y-34927619D02*
X58099180Y-34889523D01*
X58099180Y-34889523D02*
X58022990Y-34813333D01*
X58022990Y-34813333D02*
X57984895Y-34737142D01*
X57984895Y-34737142D02*
X57984895Y-34584761D01*
X57984895Y-34584761D02*
X58022990Y-34508571D01*
X58022990Y-34508571D02*
X58099180Y-34432380D01*
X58099180Y-34432380D02*
X58251561Y-34394285D01*
X58251561Y-34394285D02*
X58518228Y-34394285D01*
X58518228Y-34394285D02*
X58670609Y-34432380D01*
X58670609Y-34432380D02*
X58746800Y-34508571D01*
X58746800Y-34508571D02*
X58784895Y-34584761D01*
X58784895Y-34584761D02*
X58784895Y-34737142D01*
X57984895Y-33708571D02*
X57984895Y-33860952D01*
X57984895Y-33860952D02*
X58022990Y-33937143D01*
X58022990Y-33937143D02*
X58061085Y-33975238D01*
X58061085Y-33975238D02*
X58175371Y-34051428D01*
X58175371Y-34051428D02*
X58327752Y-34089524D01*
X58327752Y-34089524D02*
X58632514Y-34089524D01*
X58632514Y-34089524D02*
X58708704Y-34051428D01*
X58708704Y-34051428D02*
X58746800Y-34013333D01*
X58746800Y-34013333D02*
X58784895Y-33937143D01*
X58784895Y-33937143D02*
X58784895Y-33784762D01*
X58784895Y-33784762D02*
X58746800Y-33708571D01*
X58746800Y-33708571D02*
X58708704Y-33670476D01*
X58708704Y-33670476D02*
X58632514Y-33632381D01*
X58632514Y-33632381D02*
X58442038Y-33632381D01*
X58442038Y-33632381D02*
X58365847Y-33670476D01*
X58365847Y-33670476D02*
X58327752Y-33708571D01*
X58327752Y-33708571D02*
X58289657Y-33784762D01*
X58289657Y-33784762D02*
X58289657Y-33937143D01*
X58289657Y-33937143D02*
X58327752Y-34013333D01*
X58327752Y-34013333D02*
X58365847Y-34051428D01*
X58365847Y-34051428D02*
X58442038Y-34089524D01*
%TO.C,U6*%
X63884895Y-41289523D02*
X64532514Y-41289523D01*
X64532514Y-41289523D02*
X64608704Y-41251428D01*
X64608704Y-41251428D02*
X64646800Y-41213333D01*
X64646800Y-41213333D02*
X64684895Y-41137142D01*
X64684895Y-41137142D02*
X64684895Y-40984761D01*
X64684895Y-40984761D02*
X64646800Y-40908571D01*
X64646800Y-40908571D02*
X64608704Y-40870476D01*
X64608704Y-40870476D02*
X64532514Y-40832380D01*
X64532514Y-40832380D02*
X63884895Y-40832380D01*
X63884895Y-40108571D02*
X63884895Y-40260952D01*
X63884895Y-40260952D02*
X63922990Y-40337143D01*
X63922990Y-40337143D02*
X63961085Y-40375238D01*
X63961085Y-40375238D02*
X64075371Y-40451428D01*
X64075371Y-40451428D02*
X64227752Y-40489524D01*
X64227752Y-40489524D02*
X64532514Y-40489524D01*
X64532514Y-40489524D02*
X64608704Y-40451428D01*
X64608704Y-40451428D02*
X64646800Y-40413333D01*
X64646800Y-40413333D02*
X64684895Y-40337143D01*
X64684895Y-40337143D02*
X64684895Y-40184762D01*
X64684895Y-40184762D02*
X64646800Y-40108571D01*
X64646800Y-40108571D02*
X64608704Y-40070476D01*
X64608704Y-40070476D02*
X64532514Y-40032381D01*
X64532514Y-40032381D02*
X64342038Y-40032381D01*
X64342038Y-40032381D02*
X64265847Y-40070476D01*
X64265847Y-40070476D02*
X64227752Y-40108571D01*
X64227752Y-40108571D02*
X64189657Y-40184762D01*
X64189657Y-40184762D02*
X64189657Y-40337143D01*
X64189657Y-40337143D02*
X64227752Y-40413333D01*
X64227752Y-40413333D02*
X64265847Y-40451428D01*
X64265847Y-40451428D02*
X64342038Y-40489524D01*
D10*
%TO.C,C21*%
X20199580Y-48322857D02*
X20247200Y-48370476D01*
X20247200Y-48370476D02*
X20294819Y-48513333D01*
X20294819Y-48513333D02*
X20294819Y-48608571D01*
X20294819Y-48608571D02*
X20247200Y-48751428D01*
X20247200Y-48751428D02*
X20151961Y-48846666D01*
X20151961Y-48846666D02*
X20056723Y-48894285D01*
X20056723Y-48894285D02*
X19866247Y-48941904D01*
X19866247Y-48941904D02*
X19723390Y-48941904D01*
X19723390Y-48941904D02*
X19532914Y-48894285D01*
X19532914Y-48894285D02*
X19437676Y-48846666D01*
X19437676Y-48846666D02*
X19342438Y-48751428D01*
X19342438Y-48751428D02*
X19294819Y-48608571D01*
X19294819Y-48608571D02*
X19294819Y-48513333D01*
X19294819Y-48513333D02*
X19342438Y-48370476D01*
X19342438Y-48370476D02*
X19390057Y-48322857D01*
X19390057Y-47941904D02*
X19342438Y-47894285D01*
X19342438Y-47894285D02*
X19294819Y-47799047D01*
X19294819Y-47799047D02*
X19294819Y-47560952D01*
X19294819Y-47560952D02*
X19342438Y-47465714D01*
X19342438Y-47465714D02*
X19390057Y-47418095D01*
X19390057Y-47418095D02*
X19485295Y-47370476D01*
X19485295Y-47370476D02*
X19580533Y-47370476D01*
X19580533Y-47370476D02*
X19723390Y-47418095D01*
X19723390Y-47418095D02*
X20294819Y-47989523D01*
X20294819Y-47989523D02*
X20294819Y-47370476D01*
X20294819Y-46418095D02*
X20294819Y-46989523D01*
X20294819Y-46703809D02*
X19294819Y-46703809D01*
X19294819Y-46703809D02*
X19437676Y-46799047D01*
X19437676Y-46799047D02*
X19532914Y-46894285D01*
X19532914Y-46894285D02*
X19580533Y-46989523D01*
%TO.C,C18*%
X22505714Y-28946104D02*
X22467618Y-28984200D01*
X22467618Y-28984200D02*
X22353333Y-29022295D01*
X22353333Y-29022295D02*
X22277142Y-29022295D01*
X22277142Y-29022295D02*
X22162856Y-28984200D01*
X22162856Y-28984200D02*
X22086666Y-28908009D01*
X22086666Y-28908009D02*
X22048571Y-28831819D01*
X22048571Y-28831819D02*
X22010475Y-28679438D01*
X22010475Y-28679438D02*
X22010475Y-28565152D01*
X22010475Y-28565152D02*
X22048571Y-28412771D01*
X22048571Y-28412771D02*
X22086666Y-28336580D01*
X22086666Y-28336580D02*
X22162856Y-28260390D01*
X22162856Y-28260390D02*
X22277142Y-28222295D01*
X22277142Y-28222295D02*
X22353333Y-28222295D01*
X22353333Y-28222295D02*
X22467618Y-28260390D01*
X22467618Y-28260390D02*
X22505714Y-28298485D01*
X23267618Y-29022295D02*
X22810475Y-29022295D01*
X23039047Y-29022295D02*
X23039047Y-28222295D01*
X23039047Y-28222295D02*
X22962856Y-28336580D01*
X22962856Y-28336580D02*
X22886666Y-28412771D01*
X22886666Y-28412771D02*
X22810475Y-28450866D01*
X23724761Y-28565152D02*
X23648571Y-28527057D01*
X23648571Y-28527057D02*
X23610476Y-28488961D01*
X23610476Y-28488961D02*
X23572380Y-28412771D01*
X23572380Y-28412771D02*
X23572380Y-28374676D01*
X23572380Y-28374676D02*
X23610476Y-28298485D01*
X23610476Y-28298485D02*
X23648571Y-28260390D01*
X23648571Y-28260390D02*
X23724761Y-28222295D01*
X23724761Y-28222295D02*
X23877142Y-28222295D01*
X23877142Y-28222295D02*
X23953333Y-28260390D01*
X23953333Y-28260390D02*
X23991428Y-28298485D01*
X23991428Y-28298485D02*
X24029523Y-28374676D01*
X24029523Y-28374676D02*
X24029523Y-28412771D01*
X24029523Y-28412771D02*
X23991428Y-28488961D01*
X23991428Y-28488961D02*
X23953333Y-28527057D01*
X23953333Y-28527057D02*
X23877142Y-28565152D01*
X23877142Y-28565152D02*
X23724761Y-28565152D01*
X23724761Y-28565152D02*
X23648571Y-28603247D01*
X23648571Y-28603247D02*
X23610476Y-28641342D01*
X23610476Y-28641342D02*
X23572380Y-28717533D01*
X23572380Y-28717533D02*
X23572380Y-28869914D01*
X23572380Y-28869914D02*
X23610476Y-28946104D01*
X23610476Y-28946104D02*
X23648571Y-28984200D01*
X23648571Y-28984200D02*
X23724761Y-29022295D01*
X23724761Y-29022295D02*
X23877142Y-29022295D01*
X23877142Y-29022295D02*
X23953333Y-28984200D01*
X23953333Y-28984200D02*
X23991428Y-28946104D01*
X23991428Y-28946104D02*
X24029523Y-28869914D01*
X24029523Y-28869914D02*
X24029523Y-28717533D01*
X24029523Y-28717533D02*
X23991428Y-28641342D01*
X23991428Y-28641342D02*
X23953333Y-28603247D01*
X23953333Y-28603247D02*
X23877142Y-28565152D01*
%TO.C,C19*%
X18305714Y-33266104D02*
X18267618Y-33304200D01*
X18267618Y-33304200D02*
X18153333Y-33342295D01*
X18153333Y-33342295D02*
X18077142Y-33342295D01*
X18077142Y-33342295D02*
X17962856Y-33304200D01*
X17962856Y-33304200D02*
X17886666Y-33228009D01*
X17886666Y-33228009D02*
X17848571Y-33151819D01*
X17848571Y-33151819D02*
X17810475Y-32999438D01*
X17810475Y-32999438D02*
X17810475Y-32885152D01*
X17810475Y-32885152D02*
X17848571Y-32732771D01*
X17848571Y-32732771D02*
X17886666Y-32656580D01*
X17886666Y-32656580D02*
X17962856Y-32580390D01*
X17962856Y-32580390D02*
X18077142Y-32542295D01*
X18077142Y-32542295D02*
X18153333Y-32542295D01*
X18153333Y-32542295D02*
X18267618Y-32580390D01*
X18267618Y-32580390D02*
X18305714Y-32618485D01*
X19067618Y-33342295D02*
X18610475Y-33342295D01*
X18839047Y-33342295D02*
X18839047Y-32542295D01*
X18839047Y-32542295D02*
X18762856Y-32656580D01*
X18762856Y-32656580D02*
X18686666Y-32732771D01*
X18686666Y-32732771D02*
X18610475Y-32770866D01*
X19448571Y-33342295D02*
X19600952Y-33342295D01*
X19600952Y-33342295D02*
X19677142Y-33304200D01*
X19677142Y-33304200D02*
X19715238Y-33266104D01*
X19715238Y-33266104D02*
X19791428Y-33151819D01*
X19791428Y-33151819D02*
X19829523Y-32999438D01*
X19829523Y-32999438D02*
X19829523Y-32694676D01*
X19829523Y-32694676D02*
X19791428Y-32618485D01*
X19791428Y-32618485D02*
X19753333Y-32580390D01*
X19753333Y-32580390D02*
X19677142Y-32542295D01*
X19677142Y-32542295D02*
X19524761Y-32542295D01*
X19524761Y-32542295D02*
X19448571Y-32580390D01*
X19448571Y-32580390D02*
X19410476Y-32618485D01*
X19410476Y-32618485D02*
X19372380Y-32694676D01*
X19372380Y-32694676D02*
X19372380Y-32885152D01*
X19372380Y-32885152D02*
X19410476Y-32961342D01*
X19410476Y-32961342D02*
X19448571Y-32999438D01*
X19448571Y-32999438D02*
X19524761Y-33037533D01*
X19524761Y-33037533D02*
X19677142Y-33037533D01*
X19677142Y-33037533D02*
X19753333Y-32999438D01*
X19753333Y-32999438D02*
X19791428Y-32961342D01*
X19791428Y-32961342D02*
X19829523Y-32885152D01*
%TO.C,U1*%
X37774819Y-21341904D02*
X38584342Y-21341904D01*
X38584342Y-21341904D02*
X38679580Y-21294285D01*
X38679580Y-21294285D02*
X38727200Y-21246666D01*
X38727200Y-21246666D02*
X38774819Y-21151428D01*
X38774819Y-21151428D02*
X38774819Y-20960952D01*
X38774819Y-20960952D02*
X38727200Y-20865714D01*
X38727200Y-20865714D02*
X38679580Y-20818095D01*
X38679580Y-20818095D02*
X38584342Y-20770476D01*
X38584342Y-20770476D02*
X37774819Y-20770476D01*
X38774819Y-19770476D02*
X38774819Y-20341904D01*
X38774819Y-20056190D02*
X37774819Y-20056190D01*
X37774819Y-20056190D02*
X37917676Y-20151428D01*
X37917676Y-20151428D02*
X38012914Y-20246666D01*
X38012914Y-20246666D02*
X38060533Y-20341904D01*
%TO.C,F1*%
X2168509Y-12633333D02*
X2168509Y-12966666D01*
X2692319Y-12966666D02*
X1692319Y-12966666D01*
X1692319Y-12966666D02*
X1692319Y-12490476D01*
X2692319Y-11585714D02*
X2692319Y-12157142D01*
X2692319Y-11871428D02*
X1692319Y-11871428D01*
X1692319Y-11871428D02*
X1835176Y-11966666D01*
X1835176Y-11966666D02*
X1930414Y-12061904D01*
X1930414Y-12061904D02*
X1978033Y-12157142D01*
%TO.C,U7*%
X33338095Y-47314819D02*
X33338095Y-48124342D01*
X33338095Y-48124342D02*
X33385714Y-48219580D01*
X33385714Y-48219580D02*
X33433333Y-48267200D01*
X33433333Y-48267200D02*
X33528571Y-48314819D01*
X33528571Y-48314819D02*
X33719047Y-48314819D01*
X33719047Y-48314819D02*
X33814285Y-48267200D01*
X33814285Y-48267200D02*
X33861904Y-48219580D01*
X33861904Y-48219580D02*
X33909523Y-48124342D01*
X33909523Y-48124342D02*
X33909523Y-47314819D01*
X34290476Y-47314819D02*
X34957142Y-47314819D01*
X34957142Y-47314819D02*
X34528571Y-48314819D01*
%TO.C,U3*%
X52174819Y-17191396D02*
X52984342Y-17191396D01*
X52984342Y-17191396D02*
X53079580Y-17143777D01*
X53079580Y-17143777D02*
X53127200Y-17096158D01*
X53127200Y-17096158D02*
X53174819Y-17000920D01*
X53174819Y-17000920D02*
X53174819Y-16810444D01*
X53174819Y-16810444D02*
X53127200Y-16715206D01*
X53127200Y-16715206D02*
X53079580Y-16667587D01*
X53079580Y-16667587D02*
X52984342Y-16619968D01*
X52984342Y-16619968D02*
X52174819Y-16619968D01*
X52174819Y-16239015D02*
X52174819Y-15619968D01*
X52174819Y-15619968D02*
X52555771Y-15953301D01*
X52555771Y-15953301D02*
X52555771Y-15810444D01*
X52555771Y-15810444D02*
X52603390Y-15715206D01*
X52603390Y-15715206D02*
X52651009Y-15667587D01*
X52651009Y-15667587D02*
X52746247Y-15619968D01*
X52746247Y-15619968D02*
X52984342Y-15619968D01*
X52984342Y-15619968D02*
X53079580Y-15667587D01*
X53079580Y-15667587D02*
X53127200Y-15715206D01*
X53127200Y-15715206D02*
X53174819Y-15810444D01*
X53174819Y-15810444D02*
X53174819Y-16096158D01*
X53174819Y-16096158D02*
X53127200Y-16191396D01*
X53127200Y-16191396D02*
X53079580Y-16239015D01*
%TO.C,C23*%
X23379580Y-44352857D02*
X23427200Y-44400476D01*
X23427200Y-44400476D02*
X23474819Y-44543333D01*
X23474819Y-44543333D02*
X23474819Y-44638571D01*
X23474819Y-44638571D02*
X23427200Y-44781428D01*
X23427200Y-44781428D02*
X23331961Y-44876666D01*
X23331961Y-44876666D02*
X23236723Y-44924285D01*
X23236723Y-44924285D02*
X23046247Y-44971904D01*
X23046247Y-44971904D02*
X22903390Y-44971904D01*
X22903390Y-44971904D02*
X22712914Y-44924285D01*
X22712914Y-44924285D02*
X22617676Y-44876666D01*
X22617676Y-44876666D02*
X22522438Y-44781428D01*
X22522438Y-44781428D02*
X22474819Y-44638571D01*
X22474819Y-44638571D02*
X22474819Y-44543333D01*
X22474819Y-44543333D02*
X22522438Y-44400476D01*
X22522438Y-44400476D02*
X22570057Y-44352857D01*
X22570057Y-43971904D02*
X22522438Y-43924285D01*
X22522438Y-43924285D02*
X22474819Y-43829047D01*
X22474819Y-43829047D02*
X22474819Y-43590952D01*
X22474819Y-43590952D02*
X22522438Y-43495714D01*
X22522438Y-43495714D02*
X22570057Y-43448095D01*
X22570057Y-43448095D02*
X22665295Y-43400476D01*
X22665295Y-43400476D02*
X22760533Y-43400476D01*
X22760533Y-43400476D02*
X22903390Y-43448095D01*
X22903390Y-43448095D02*
X23474819Y-44019523D01*
X23474819Y-44019523D02*
X23474819Y-43400476D01*
X22474819Y-43067142D02*
X22474819Y-42448095D01*
X22474819Y-42448095D02*
X22855771Y-42781428D01*
X22855771Y-42781428D02*
X22855771Y-42638571D01*
X22855771Y-42638571D02*
X22903390Y-42543333D01*
X22903390Y-42543333D02*
X22951009Y-42495714D01*
X22951009Y-42495714D02*
X23046247Y-42448095D01*
X23046247Y-42448095D02*
X23284342Y-42448095D01*
X23284342Y-42448095D02*
X23379580Y-42495714D01*
X23379580Y-42495714D02*
X23427200Y-42543333D01*
X23427200Y-42543333D02*
X23474819Y-42638571D01*
X23474819Y-42638571D02*
X23474819Y-42924285D01*
X23474819Y-42924285D02*
X23427200Y-43019523D01*
X23427200Y-43019523D02*
X23379580Y-43067142D01*
%TO.C,C9*%
X26906104Y-15413332D02*
X26944200Y-15451428D01*
X26944200Y-15451428D02*
X26982295Y-15565713D01*
X26982295Y-15565713D02*
X26982295Y-15641904D01*
X26982295Y-15641904D02*
X26944200Y-15756190D01*
X26944200Y-15756190D02*
X26868009Y-15832380D01*
X26868009Y-15832380D02*
X26791819Y-15870475D01*
X26791819Y-15870475D02*
X26639438Y-15908571D01*
X26639438Y-15908571D02*
X26525152Y-15908571D01*
X26525152Y-15908571D02*
X26372771Y-15870475D01*
X26372771Y-15870475D02*
X26296580Y-15832380D01*
X26296580Y-15832380D02*
X26220390Y-15756190D01*
X26220390Y-15756190D02*
X26182295Y-15641904D01*
X26182295Y-15641904D02*
X26182295Y-15565713D01*
X26182295Y-15565713D02*
X26220390Y-15451428D01*
X26220390Y-15451428D02*
X26258485Y-15413332D01*
X26982295Y-15032380D02*
X26982295Y-14879999D01*
X26982295Y-14879999D02*
X26944200Y-14803809D01*
X26944200Y-14803809D02*
X26906104Y-14765713D01*
X26906104Y-14765713D02*
X26791819Y-14689523D01*
X26791819Y-14689523D02*
X26639438Y-14651428D01*
X26639438Y-14651428D02*
X26334676Y-14651428D01*
X26334676Y-14651428D02*
X26258485Y-14689523D01*
X26258485Y-14689523D02*
X26220390Y-14727618D01*
X26220390Y-14727618D02*
X26182295Y-14803809D01*
X26182295Y-14803809D02*
X26182295Y-14956190D01*
X26182295Y-14956190D02*
X26220390Y-15032380D01*
X26220390Y-15032380D02*
X26258485Y-15070475D01*
X26258485Y-15070475D02*
X26334676Y-15108571D01*
X26334676Y-15108571D02*
X26525152Y-15108571D01*
X26525152Y-15108571D02*
X26601342Y-15070475D01*
X26601342Y-15070475D02*
X26639438Y-15032380D01*
X26639438Y-15032380D02*
X26677533Y-14956190D01*
X26677533Y-14956190D02*
X26677533Y-14803809D01*
X26677533Y-14803809D02*
X26639438Y-14727618D01*
X26639438Y-14727618D02*
X26601342Y-14689523D01*
X26601342Y-14689523D02*
X26525152Y-14651428D01*
D12*
%TO.C,C31*%
X24308704Y-36144285D02*
X24346800Y-36182381D01*
X24346800Y-36182381D02*
X24384895Y-36296666D01*
X24384895Y-36296666D02*
X24384895Y-36372857D01*
X24384895Y-36372857D02*
X24346800Y-36487143D01*
X24346800Y-36487143D02*
X24270609Y-36563333D01*
X24270609Y-36563333D02*
X24194419Y-36601428D01*
X24194419Y-36601428D02*
X24042038Y-36639524D01*
X24042038Y-36639524D02*
X23927752Y-36639524D01*
X23927752Y-36639524D02*
X23775371Y-36601428D01*
X23775371Y-36601428D02*
X23699180Y-36563333D01*
X23699180Y-36563333D02*
X23622990Y-36487143D01*
X23622990Y-36487143D02*
X23584895Y-36372857D01*
X23584895Y-36372857D02*
X23584895Y-36296666D01*
X23584895Y-36296666D02*
X23622990Y-36182381D01*
X23622990Y-36182381D02*
X23661085Y-36144285D01*
X23584895Y-35877619D02*
X23584895Y-35382381D01*
X23584895Y-35382381D02*
X23889657Y-35649047D01*
X23889657Y-35649047D02*
X23889657Y-35534762D01*
X23889657Y-35534762D02*
X23927752Y-35458571D01*
X23927752Y-35458571D02*
X23965847Y-35420476D01*
X23965847Y-35420476D02*
X24042038Y-35382381D01*
X24042038Y-35382381D02*
X24232514Y-35382381D01*
X24232514Y-35382381D02*
X24308704Y-35420476D01*
X24308704Y-35420476D02*
X24346800Y-35458571D01*
X24346800Y-35458571D02*
X24384895Y-35534762D01*
X24384895Y-35534762D02*
X24384895Y-35763333D01*
X24384895Y-35763333D02*
X24346800Y-35839524D01*
X24346800Y-35839524D02*
X24308704Y-35877619D01*
X24384895Y-34620476D02*
X24384895Y-35077619D01*
X24384895Y-34849047D02*
X23584895Y-34849047D01*
X23584895Y-34849047D02*
X23699180Y-34925238D01*
X23699180Y-34925238D02*
X23775371Y-35001428D01*
X23775371Y-35001428D02*
X23813466Y-35077619D01*
%TO.C,R10*%
X66105714Y-18119895D02*
X65839047Y-17738942D01*
X65648571Y-18119895D02*
X65648571Y-17319895D01*
X65648571Y-17319895D02*
X65953333Y-17319895D01*
X65953333Y-17319895D02*
X66029523Y-17357990D01*
X66029523Y-17357990D02*
X66067618Y-17396085D01*
X66067618Y-17396085D02*
X66105714Y-17472276D01*
X66105714Y-17472276D02*
X66105714Y-17586561D01*
X66105714Y-17586561D02*
X66067618Y-17662752D01*
X66067618Y-17662752D02*
X66029523Y-17700847D01*
X66029523Y-17700847D02*
X65953333Y-17738942D01*
X65953333Y-17738942D02*
X65648571Y-17738942D01*
X66867618Y-18119895D02*
X66410475Y-18119895D01*
X66639047Y-18119895D02*
X66639047Y-17319895D01*
X66639047Y-17319895D02*
X66562856Y-17434180D01*
X66562856Y-17434180D02*
X66486666Y-17510371D01*
X66486666Y-17510371D02*
X66410475Y-17548466D01*
X67362857Y-17319895D02*
X67439047Y-17319895D01*
X67439047Y-17319895D02*
X67515238Y-17357990D01*
X67515238Y-17357990D02*
X67553333Y-17396085D01*
X67553333Y-17396085D02*
X67591428Y-17472276D01*
X67591428Y-17472276D02*
X67629523Y-17624657D01*
X67629523Y-17624657D02*
X67629523Y-17815133D01*
X67629523Y-17815133D02*
X67591428Y-17967514D01*
X67591428Y-17967514D02*
X67553333Y-18043704D01*
X67553333Y-18043704D02*
X67515238Y-18081800D01*
X67515238Y-18081800D02*
X67439047Y-18119895D01*
X67439047Y-18119895D02*
X67362857Y-18119895D01*
X67362857Y-18119895D02*
X67286666Y-18081800D01*
X67286666Y-18081800D02*
X67248571Y-18043704D01*
X67248571Y-18043704D02*
X67210476Y-17967514D01*
X67210476Y-17967514D02*
X67172380Y-17815133D01*
X67172380Y-17815133D02*
X67172380Y-17624657D01*
X67172380Y-17624657D02*
X67210476Y-17472276D01*
X67210476Y-17472276D02*
X67248571Y-17396085D01*
X67248571Y-17396085D02*
X67286666Y-17357990D01*
X67286666Y-17357990D02*
X67362857Y-17319895D01*
%TO.C,C6*%
X47206667Y-53488704D02*
X47168571Y-53526800D01*
X47168571Y-53526800D02*
X47054286Y-53564895D01*
X47054286Y-53564895D02*
X46978095Y-53564895D01*
X46978095Y-53564895D02*
X46863809Y-53526800D01*
X46863809Y-53526800D02*
X46787619Y-53450609D01*
X46787619Y-53450609D02*
X46749524Y-53374419D01*
X46749524Y-53374419D02*
X46711428Y-53222038D01*
X46711428Y-53222038D02*
X46711428Y-53107752D01*
X46711428Y-53107752D02*
X46749524Y-52955371D01*
X46749524Y-52955371D02*
X46787619Y-52879180D01*
X46787619Y-52879180D02*
X46863809Y-52802990D01*
X46863809Y-52802990D02*
X46978095Y-52764895D01*
X46978095Y-52764895D02*
X47054286Y-52764895D01*
X47054286Y-52764895D02*
X47168571Y-52802990D01*
X47168571Y-52802990D02*
X47206667Y-52841085D01*
X47892381Y-52764895D02*
X47740000Y-52764895D01*
X47740000Y-52764895D02*
X47663809Y-52802990D01*
X47663809Y-52802990D02*
X47625714Y-52841085D01*
X47625714Y-52841085D02*
X47549524Y-52955371D01*
X47549524Y-52955371D02*
X47511428Y-53107752D01*
X47511428Y-53107752D02*
X47511428Y-53412514D01*
X47511428Y-53412514D02*
X47549524Y-53488704D01*
X47549524Y-53488704D02*
X47587619Y-53526800D01*
X47587619Y-53526800D02*
X47663809Y-53564895D01*
X47663809Y-53564895D02*
X47816190Y-53564895D01*
X47816190Y-53564895D02*
X47892381Y-53526800D01*
X47892381Y-53526800D02*
X47930476Y-53488704D01*
X47930476Y-53488704D02*
X47968571Y-53412514D01*
X47968571Y-53412514D02*
X47968571Y-53222038D01*
X47968571Y-53222038D02*
X47930476Y-53145847D01*
X47930476Y-53145847D02*
X47892381Y-53107752D01*
X47892381Y-53107752D02*
X47816190Y-53069657D01*
X47816190Y-53069657D02*
X47663809Y-53069657D01*
X47663809Y-53069657D02*
X47587619Y-53107752D01*
X47587619Y-53107752D02*
X47549524Y-53145847D01*
X47549524Y-53145847D02*
X47511428Y-53222038D01*
D10*
%TO.C,C2*%
X27979580Y-20546666D02*
X28027200Y-20594285D01*
X28027200Y-20594285D02*
X28074819Y-20737142D01*
X28074819Y-20737142D02*
X28074819Y-20832380D01*
X28074819Y-20832380D02*
X28027200Y-20975237D01*
X28027200Y-20975237D02*
X27931961Y-21070475D01*
X27931961Y-21070475D02*
X27836723Y-21118094D01*
X27836723Y-21118094D02*
X27646247Y-21165713D01*
X27646247Y-21165713D02*
X27503390Y-21165713D01*
X27503390Y-21165713D02*
X27312914Y-21118094D01*
X27312914Y-21118094D02*
X27217676Y-21070475D01*
X27217676Y-21070475D02*
X27122438Y-20975237D01*
X27122438Y-20975237D02*
X27074819Y-20832380D01*
X27074819Y-20832380D02*
X27074819Y-20737142D01*
X27074819Y-20737142D02*
X27122438Y-20594285D01*
X27122438Y-20594285D02*
X27170057Y-20546666D01*
X27170057Y-20165713D02*
X27122438Y-20118094D01*
X27122438Y-20118094D02*
X27074819Y-20022856D01*
X27074819Y-20022856D02*
X27074819Y-19784761D01*
X27074819Y-19784761D02*
X27122438Y-19689523D01*
X27122438Y-19689523D02*
X27170057Y-19641904D01*
X27170057Y-19641904D02*
X27265295Y-19594285D01*
X27265295Y-19594285D02*
X27360533Y-19594285D01*
X27360533Y-19594285D02*
X27503390Y-19641904D01*
X27503390Y-19641904D02*
X28074819Y-20213332D01*
X28074819Y-20213332D02*
X28074819Y-19594285D01*
%TO.C,U2*%
X47074819Y-27741904D02*
X47884342Y-27741904D01*
X47884342Y-27741904D02*
X47979580Y-27694285D01*
X47979580Y-27694285D02*
X48027200Y-27646666D01*
X48027200Y-27646666D02*
X48074819Y-27551428D01*
X48074819Y-27551428D02*
X48074819Y-27360952D01*
X48074819Y-27360952D02*
X48027200Y-27265714D01*
X48027200Y-27265714D02*
X47979580Y-27218095D01*
X47979580Y-27218095D02*
X47884342Y-27170476D01*
X47884342Y-27170476D02*
X47074819Y-27170476D01*
X47170057Y-26741904D02*
X47122438Y-26694285D01*
X47122438Y-26694285D02*
X47074819Y-26599047D01*
X47074819Y-26599047D02*
X47074819Y-26360952D01*
X47074819Y-26360952D02*
X47122438Y-26265714D01*
X47122438Y-26265714D02*
X47170057Y-26218095D01*
X47170057Y-26218095D02*
X47265295Y-26170476D01*
X47265295Y-26170476D02*
X47360533Y-26170476D01*
X47360533Y-26170476D02*
X47503390Y-26218095D01*
X47503390Y-26218095D02*
X48074819Y-26789523D01*
X48074819Y-26789523D02*
X48074819Y-26170476D01*
%TO.C,R18*%
X41674819Y-35735357D02*
X41198628Y-36068690D01*
X41674819Y-36306785D02*
X40674819Y-36306785D01*
X40674819Y-36306785D02*
X40674819Y-35925833D01*
X40674819Y-35925833D02*
X40722438Y-35830595D01*
X40722438Y-35830595D02*
X40770057Y-35782976D01*
X40770057Y-35782976D02*
X40865295Y-35735357D01*
X40865295Y-35735357D02*
X41008152Y-35735357D01*
X41008152Y-35735357D02*
X41103390Y-35782976D01*
X41103390Y-35782976D02*
X41151009Y-35830595D01*
X41151009Y-35830595D02*
X41198628Y-35925833D01*
X41198628Y-35925833D02*
X41198628Y-36306785D01*
X41674819Y-34782976D02*
X41674819Y-35354404D01*
X41674819Y-35068690D02*
X40674819Y-35068690D01*
X40674819Y-35068690D02*
X40817676Y-35163928D01*
X40817676Y-35163928D02*
X40912914Y-35259166D01*
X40912914Y-35259166D02*
X40960533Y-35354404D01*
X41103390Y-34211547D02*
X41055771Y-34306785D01*
X41055771Y-34306785D02*
X41008152Y-34354404D01*
X41008152Y-34354404D02*
X40912914Y-34402023D01*
X40912914Y-34402023D02*
X40865295Y-34402023D01*
X40865295Y-34402023D02*
X40770057Y-34354404D01*
X40770057Y-34354404D02*
X40722438Y-34306785D01*
X40722438Y-34306785D02*
X40674819Y-34211547D01*
X40674819Y-34211547D02*
X40674819Y-34021071D01*
X40674819Y-34021071D02*
X40722438Y-33925833D01*
X40722438Y-33925833D02*
X40770057Y-33878214D01*
X40770057Y-33878214D02*
X40865295Y-33830595D01*
X40865295Y-33830595D02*
X40912914Y-33830595D01*
X40912914Y-33830595D02*
X41008152Y-33878214D01*
X41008152Y-33878214D02*
X41055771Y-33925833D01*
X41055771Y-33925833D02*
X41103390Y-34021071D01*
X41103390Y-34021071D02*
X41103390Y-34211547D01*
X41103390Y-34211547D02*
X41151009Y-34306785D01*
X41151009Y-34306785D02*
X41198628Y-34354404D01*
X41198628Y-34354404D02*
X41293866Y-34402023D01*
X41293866Y-34402023D02*
X41484342Y-34402023D01*
X41484342Y-34402023D02*
X41579580Y-34354404D01*
X41579580Y-34354404D02*
X41627200Y-34306785D01*
X41627200Y-34306785D02*
X41674819Y-34211547D01*
X41674819Y-34211547D02*
X41674819Y-34021071D01*
X41674819Y-34021071D02*
X41627200Y-33925833D01*
X41627200Y-33925833D02*
X41579580Y-33878214D01*
X41579580Y-33878214D02*
X41484342Y-33830595D01*
X41484342Y-33830595D02*
X41293866Y-33830595D01*
X41293866Y-33830595D02*
X41198628Y-33878214D01*
X41198628Y-33878214D02*
X41151009Y-33925833D01*
X41151009Y-33925833D02*
X41103390Y-34021071D01*
%TO.C,R4*%
X50253333Y-8634819D02*
X49920000Y-8158628D01*
X49681905Y-8634819D02*
X49681905Y-7634819D01*
X49681905Y-7634819D02*
X50062857Y-7634819D01*
X50062857Y-7634819D02*
X50158095Y-7682438D01*
X50158095Y-7682438D02*
X50205714Y-7730057D01*
X50205714Y-7730057D02*
X50253333Y-7825295D01*
X50253333Y-7825295D02*
X50253333Y-7968152D01*
X50253333Y-7968152D02*
X50205714Y-8063390D01*
X50205714Y-8063390D02*
X50158095Y-8111009D01*
X50158095Y-8111009D02*
X50062857Y-8158628D01*
X50062857Y-8158628D02*
X49681905Y-8158628D01*
X51110476Y-7968152D02*
X51110476Y-8634819D01*
X50872381Y-7587200D02*
X50634286Y-8301485D01*
X50634286Y-8301485D02*
X51253333Y-8301485D01*
%TO.C,R13*%
X14971875Y-48833644D02*
X14495684Y-49166977D01*
X14971875Y-49405072D02*
X13971875Y-49405072D01*
X13971875Y-49405072D02*
X13971875Y-49024120D01*
X13971875Y-49024120D02*
X14019494Y-48928882D01*
X14019494Y-48928882D02*
X14067113Y-48881263D01*
X14067113Y-48881263D02*
X14162351Y-48833644D01*
X14162351Y-48833644D02*
X14305208Y-48833644D01*
X14305208Y-48833644D02*
X14400446Y-48881263D01*
X14400446Y-48881263D02*
X14448065Y-48928882D01*
X14448065Y-48928882D02*
X14495684Y-49024120D01*
X14495684Y-49024120D02*
X14495684Y-49405072D01*
X14971875Y-47881263D02*
X14971875Y-48452691D01*
X14971875Y-48166977D02*
X13971875Y-48166977D01*
X13971875Y-48166977D02*
X14114732Y-48262215D01*
X14114732Y-48262215D02*
X14209970Y-48357453D01*
X14209970Y-48357453D02*
X14257589Y-48452691D01*
X13971875Y-47547929D02*
X13971875Y-46928882D01*
X13971875Y-46928882D02*
X14352827Y-47262215D01*
X14352827Y-47262215D02*
X14352827Y-47119358D01*
X14352827Y-47119358D02*
X14400446Y-47024120D01*
X14400446Y-47024120D02*
X14448065Y-46976501D01*
X14448065Y-46976501D02*
X14543303Y-46928882D01*
X14543303Y-46928882D02*
X14781398Y-46928882D01*
X14781398Y-46928882D02*
X14876636Y-46976501D01*
X14876636Y-46976501D02*
X14924256Y-47024120D01*
X14924256Y-47024120D02*
X14971875Y-47119358D01*
X14971875Y-47119358D02*
X14971875Y-47405072D01*
X14971875Y-47405072D02*
X14924256Y-47500310D01*
X14924256Y-47500310D02*
X14876636Y-47547929D01*
%TO.C,Q3*%
X39274761Y-25897557D02*
X39179523Y-25849938D01*
X39179523Y-25849938D02*
X39084285Y-25754700D01*
X39084285Y-25754700D02*
X38941428Y-25611842D01*
X38941428Y-25611842D02*
X38846190Y-25564223D01*
X38846190Y-25564223D02*
X38750952Y-25564223D01*
X38798571Y-25802319D02*
X38703333Y-25754700D01*
X38703333Y-25754700D02*
X38608095Y-25659461D01*
X38608095Y-25659461D02*
X38560476Y-25468985D01*
X38560476Y-25468985D02*
X38560476Y-25135652D01*
X38560476Y-25135652D02*
X38608095Y-24945176D01*
X38608095Y-24945176D02*
X38703333Y-24849938D01*
X38703333Y-24849938D02*
X38798571Y-24802319D01*
X38798571Y-24802319D02*
X38989047Y-24802319D01*
X38989047Y-24802319D02*
X39084285Y-24849938D01*
X39084285Y-24849938D02*
X39179523Y-24945176D01*
X39179523Y-24945176D02*
X39227142Y-25135652D01*
X39227142Y-25135652D02*
X39227142Y-25468985D01*
X39227142Y-25468985D02*
X39179523Y-25659461D01*
X39179523Y-25659461D02*
X39084285Y-25754700D01*
X39084285Y-25754700D02*
X38989047Y-25802319D01*
X38989047Y-25802319D02*
X38798571Y-25802319D01*
X39560476Y-24802319D02*
X40179523Y-24802319D01*
X40179523Y-24802319D02*
X39846190Y-25183271D01*
X39846190Y-25183271D02*
X39989047Y-25183271D01*
X39989047Y-25183271D02*
X40084285Y-25230890D01*
X40084285Y-25230890D02*
X40131904Y-25278509D01*
X40131904Y-25278509D02*
X40179523Y-25373747D01*
X40179523Y-25373747D02*
X40179523Y-25611842D01*
X40179523Y-25611842D02*
X40131904Y-25707080D01*
X40131904Y-25707080D02*
X40084285Y-25754700D01*
X40084285Y-25754700D02*
X39989047Y-25802319D01*
X39989047Y-25802319D02*
X39703333Y-25802319D01*
X39703333Y-25802319D02*
X39608095Y-25754700D01*
X39608095Y-25754700D02*
X39560476Y-25707080D01*
D12*
%TO.C,U5*%
X45110476Y-39394895D02*
X45110476Y-40042514D01*
X45110476Y-40042514D02*
X45148571Y-40118704D01*
X45148571Y-40118704D02*
X45186666Y-40156800D01*
X45186666Y-40156800D02*
X45262857Y-40194895D01*
X45262857Y-40194895D02*
X45415238Y-40194895D01*
X45415238Y-40194895D02*
X45491428Y-40156800D01*
X45491428Y-40156800D02*
X45529523Y-40118704D01*
X45529523Y-40118704D02*
X45567619Y-40042514D01*
X45567619Y-40042514D02*
X45567619Y-39394895D01*
X46329523Y-39394895D02*
X45948571Y-39394895D01*
X45948571Y-39394895D02*
X45910475Y-39775847D01*
X45910475Y-39775847D02*
X45948571Y-39737752D01*
X45948571Y-39737752D02*
X46024761Y-39699657D01*
X46024761Y-39699657D02*
X46215237Y-39699657D01*
X46215237Y-39699657D02*
X46291428Y-39737752D01*
X46291428Y-39737752D02*
X46329523Y-39775847D01*
X46329523Y-39775847D02*
X46367618Y-39852038D01*
X46367618Y-39852038D02*
X46367618Y-40042514D01*
X46367618Y-40042514D02*
X46329523Y-40118704D01*
X46329523Y-40118704D02*
X46291428Y-40156800D01*
X46291428Y-40156800D02*
X46215237Y-40194895D01*
X46215237Y-40194895D02*
X46024761Y-40194895D01*
X46024761Y-40194895D02*
X45948571Y-40156800D01*
X45948571Y-40156800D02*
X45910475Y-40118704D01*
%TO.C,C17*%
X38908704Y-41594285D02*
X38946800Y-41632381D01*
X38946800Y-41632381D02*
X38984895Y-41746666D01*
X38984895Y-41746666D02*
X38984895Y-41822857D01*
X38984895Y-41822857D02*
X38946800Y-41937143D01*
X38946800Y-41937143D02*
X38870609Y-42013333D01*
X38870609Y-42013333D02*
X38794419Y-42051428D01*
X38794419Y-42051428D02*
X38642038Y-42089524D01*
X38642038Y-42089524D02*
X38527752Y-42089524D01*
X38527752Y-42089524D02*
X38375371Y-42051428D01*
X38375371Y-42051428D02*
X38299180Y-42013333D01*
X38299180Y-42013333D02*
X38222990Y-41937143D01*
X38222990Y-41937143D02*
X38184895Y-41822857D01*
X38184895Y-41822857D02*
X38184895Y-41746666D01*
X38184895Y-41746666D02*
X38222990Y-41632381D01*
X38222990Y-41632381D02*
X38261085Y-41594285D01*
X38984895Y-40832381D02*
X38984895Y-41289524D01*
X38984895Y-41060952D02*
X38184895Y-41060952D01*
X38184895Y-41060952D02*
X38299180Y-41137143D01*
X38299180Y-41137143D02*
X38375371Y-41213333D01*
X38375371Y-41213333D02*
X38413466Y-41289524D01*
X38184895Y-40565714D02*
X38184895Y-40032380D01*
X38184895Y-40032380D02*
X38984895Y-40375238D01*
%TO.C,R24*%
X43705714Y-20632395D02*
X43439047Y-20251442D01*
X43248571Y-20632395D02*
X43248571Y-19832395D01*
X43248571Y-19832395D02*
X43553333Y-19832395D01*
X43553333Y-19832395D02*
X43629523Y-19870490D01*
X43629523Y-19870490D02*
X43667618Y-19908585D01*
X43667618Y-19908585D02*
X43705714Y-19984776D01*
X43705714Y-19984776D02*
X43705714Y-20099061D01*
X43705714Y-20099061D02*
X43667618Y-20175252D01*
X43667618Y-20175252D02*
X43629523Y-20213347D01*
X43629523Y-20213347D02*
X43553333Y-20251442D01*
X43553333Y-20251442D02*
X43248571Y-20251442D01*
X44010475Y-19908585D02*
X44048571Y-19870490D01*
X44048571Y-19870490D02*
X44124761Y-19832395D01*
X44124761Y-19832395D02*
X44315237Y-19832395D01*
X44315237Y-19832395D02*
X44391428Y-19870490D01*
X44391428Y-19870490D02*
X44429523Y-19908585D01*
X44429523Y-19908585D02*
X44467618Y-19984776D01*
X44467618Y-19984776D02*
X44467618Y-20060966D01*
X44467618Y-20060966D02*
X44429523Y-20175252D01*
X44429523Y-20175252D02*
X43972380Y-20632395D01*
X43972380Y-20632395D02*
X44467618Y-20632395D01*
X45153333Y-20099061D02*
X45153333Y-20632395D01*
X44962857Y-19794300D02*
X44772380Y-20365728D01*
X44772380Y-20365728D02*
X45267619Y-20365728D01*
%TO.C,C8*%
X50558704Y-39693332D02*
X50596800Y-39731428D01*
X50596800Y-39731428D02*
X50634895Y-39845713D01*
X50634895Y-39845713D02*
X50634895Y-39921904D01*
X50634895Y-39921904D02*
X50596800Y-40036190D01*
X50596800Y-40036190D02*
X50520609Y-40112380D01*
X50520609Y-40112380D02*
X50444419Y-40150475D01*
X50444419Y-40150475D02*
X50292038Y-40188571D01*
X50292038Y-40188571D02*
X50177752Y-40188571D01*
X50177752Y-40188571D02*
X50025371Y-40150475D01*
X50025371Y-40150475D02*
X49949180Y-40112380D01*
X49949180Y-40112380D02*
X49872990Y-40036190D01*
X49872990Y-40036190D02*
X49834895Y-39921904D01*
X49834895Y-39921904D02*
X49834895Y-39845713D01*
X49834895Y-39845713D02*
X49872990Y-39731428D01*
X49872990Y-39731428D02*
X49911085Y-39693332D01*
X50177752Y-39236190D02*
X50139657Y-39312380D01*
X50139657Y-39312380D02*
X50101561Y-39350475D01*
X50101561Y-39350475D02*
X50025371Y-39388571D01*
X50025371Y-39388571D02*
X49987276Y-39388571D01*
X49987276Y-39388571D02*
X49911085Y-39350475D01*
X49911085Y-39350475D02*
X49872990Y-39312380D01*
X49872990Y-39312380D02*
X49834895Y-39236190D01*
X49834895Y-39236190D02*
X49834895Y-39083809D01*
X49834895Y-39083809D02*
X49872990Y-39007618D01*
X49872990Y-39007618D02*
X49911085Y-38969523D01*
X49911085Y-38969523D02*
X49987276Y-38931428D01*
X49987276Y-38931428D02*
X50025371Y-38931428D01*
X50025371Y-38931428D02*
X50101561Y-38969523D01*
X50101561Y-38969523D02*
X50139657Y-39007618D01*
X50139657Y-39007618D02*
X50177752Y-39083809D01*
X50177752Y-39083809D02*
X50177752Y-39236190D01*
X50177752Y-39236190D02*
X50215847Y-39312380D01*
X50215847Y-39312380D02*
X50253942Y-39350475D01*
X50253942Y-39350475D02*
X50330133Y-39388571D01*
X50330133Y-39388571D02*
X50482514Y-39388571D01*
X50482514Y-39388571D02*
X50558704Y-39350475D01*
X50558704Y-39350475D02*
X50596800Y-39312380D01*
X50596800Y-39312380D02*
X50634895Y-39236190D01*
X50634895Y-39236190D02*
X50634895Y-39083809D01*
X50634895Y-39083809D02*
X50596800Y-39007618D01*
X50596800Y-39007618D02*
X50558704Y-38969523D01*
X50558704Y-38969523D02*
X50482514Y-38931428D01*
X50482514Y-38931428D02*
X50330133Y-38931428D01*
X50330133Y-38931428D02*
X50253942Y-38969523D01*
X50253942Y-38969523D02*
X50215847Y-39007618D01*
X50215847Y-39007618D02*
X50177752Y-39083809D01*
D10*
%TO.C,R21*%
X18374819Y-44997857D02*
X17898628Y-45331190D01*
X18374819Y-45569285D02*
X17374819Y-45569285D01*
X17374819Y-45569285D02*
X17374819Y-45188333D01*
X17374819Y-45188333D02*
X17422438Y-45093095D01*
X17422438Y-45093095D02*
X17470057Y-45045476D01*
X17470057Y-45045476D02*
X17565295Y-44997857D01*
X17565295Y-44997857D02*
X17708152Y-44997857D01*
X17708152Y-44997857D02*
X17803390Y-45045476D01*
X17803390Y-45045476D02*
X17851009Y-45093095D01*
X17851009Y-45093095D02*
X17898628Y-45188333D01*
X17898628Y-45188333D02*
X17898628Y-45569285D01*
X17470057Y-44616904D02*
X17422438Y-44569285D01*
X17422438Y-44569285D02*
X17374819Y-44474047D01*
X17374819Y-44474047D02*
X17374819Y-44235952D01*
X17374819Y-44235952D02*
X17422438Y-44140714D01*
X17422438Y-44140714D02*
X17470057Y-44093095D01*
X17470057Y-44093095D02*
X17565295Y-44045476D01*
X17565295Y-44045476D02*
X17660533Y-44045476D01*
X17660533Y-44045476D02*
X17803390Y-44093095D01*
X17803390Y-44093095D02*
X18374819Y-44664523D01*
X18374819Y-44664523D02*
X18374819Y-44045476D01*
X18374819Y-43093095D02*
X18374819Y-43664523D01*
X18374819Y-43378809D02*
X17374819Y-43378809D01*
X17374819Y-43378809D02*
X17517676Y-43474047D01*
X17517676Y-43474047D02*
X17612914Y-43569285D01*
X17612914Y-43569285D02*
X17660533Y-43664523D01*
%TO.C,BZ1*%
X70193866Y-27160951D02*
X70193866Y-26399047D01*
X70574819Y-26779999D02*
X69812914Y-26779999D01*
%TO.C,J1*%
X56878333Y-5255180D02*
X56878333Y-4540895D01*
X56878333Y-4540895D02*
X56925952Y-4398038D01*
X56925952Y-4398038D02*
X57021190Y-4302800D01*
X57021190Y-4302800D02*
X57164047Y-4255180D01*
X57164047Y-4255180D02*
X57259285Y-4255180D01*
X55878333Y-4255180D02*
X56449761Y-4255180D01*
X56164047Y-4255180D02*
X56164047Y-5255180D01*
X56164047Y-5255180D02*
X56259285Y-5112323D01*
X56259285Y-5112323D02*
X56354523Y-5017085D01*
X56354523Y-5017085D02*
X56449761Y-4969466D01*
%TO.C,C7*%
X50179580Y-33576666D02*
X50227200Y-33624285D01*
X50227200Y-33624285D02*
X50274819Y-33767142D01*
X50274819Y-33767142D02*
X50274819Y-33862380D01*
X50274819Y-33862380D02*
X50227200Y-34005237D01*
X50227200Y-34005237D02*
X50131961Y-34100475D01*
X50131961Y-34100475D02*
X50036723Y-34148094D01*
X50036723Y-34148094D02*
X49846247Y-34195713D01*
X49846247Y-34195713D02*
X49703390Y-34195713D01*
X49703390Y-34195713D02*
X49512914Y-34148094D01*
X49512914Y-34148094D02*
X49417676Y-34100475D01*
X49417676Y-34100475D02*
X49322438Y-34005237D01*
X49322438Y-34005237D02*
X49274819Y-33862380D01*
X49274819Y-33862380D02*
X49274819Y-33767142D01*
X49274819Y-33767142D02*
X49322438Y-33624285D01*
X49322438Y-33624285D02*
X49370057Y-33576666D01*
X49274819Y-33243332D02*
X49274819Y-32576666D01*
X49274819Y-32576666D02*
X50274819Y-33005237D01*
D12*
%TO.C,R30*%
X62605714Y-44344895D02*
X62339047Y-43963942D01*
X62148571Y-44344895D02*
X62148571Y-43544895D01*
X62148571Y-43544895D02*
X62453333Y-43544895D01*
X62453333Y-43544895D02*
X62529523Y-43582990D01*
X62529523Y-43582990D02*
X62567618Y-43621085D01*
X62567618Y-43621085D02*
X62605714Y-43697276D01*
X62605714Y-43697276D02*
X62605714Y-43811561D01*
X62605714Y-43811561D02*
X62567618Y-43887752D01*
X62567618Y-43887752D02*
X62529523Y-43925847D01*
X62529523Y-43925847D02*
X62453333Y-43963942D01*
X62453333Y-43963942D02*
X62148571Y-43963942D01*
X62872380Y-43544895D02*
X63367618Y-43544895D01*
X63367618Y-43544895D02*
X63100952Y-43849657D01*
X63100952Y-43849657D02*
X63215237Y-43849657D01*
X63215237Y-43849657D02*
X63291428Y-43887752D01*
X63291428Y-43887752D02*
X63329523Y-43925847D01*
X63329523Y-43925847D02*
X63367618Y-44002038D01*
X63367618Y-44002038D02*
X63367618Y-44192514D01*
X63367618Y-44192514D02*
X63329523Y-44268704D01*
X63329523Y-44268704D02*
X63291428Y-44306800D01*
X63291428Y-44306800D02*
X63215237Y-44344895D01*
X63215237Y-44344895D02*
X62986666Y-44344895D01*
X62986666Y-44344895D02*
X62910475Y-44306800D01*
X62910475Y-44306800D02*
X62872380Y-44268704D01*
X63862857Y-43544895D02*
X63939047Y-43544895D01*
X63939047Y-43544895D02*
X64015238Y-43582990D01*
X64015238Y-43582990D02*
X64053333Y-43621085D01*
X64053333Y-43621085D02*
X64091428Y-43697276D01*
X64091428Y-43697276D02*
X64129523Y-43849657D01*
X64129523Y-43849657D02*
X64129523Y-44040133D01*
X64129523Y-44040133D02*
X64091428Y-44192514D01*
X64091428Y-44192514D02*
X64053333Y-44268704D01*
X64053333Y-44268704D02*
X64015238Y-44306800D01*
X64015238Y-44306800D02*
X63939047Y-44344895D01*
X63939047Y-44344895D02*
X63862857Y-44344895D01*
X63862857Y-44344895D02*
X63786666Y-44306800D01*
X63786666Y-44306800D02*
X63748571Y-44268704D01*
X63748571Y-44268704D02*
X63710476Y-44192514D01*
X63710476Y-44192514D02*
X63672380Y-44040133D01*
X63672380Y-44040133D02*
X63672380Y-43849657D01*
X63672380Y-43849657D02*
X63710476Y-43697276D01*
X63710476Y-43697276D02*
X63748571Y-43621085D01*
X63748571Y-43621085D02*
X63786666Y-43582990D01*
X63786666Y-43582990D02*
X63862857Y-43544895D01*
D10*
%TO.C,J9*%
X43806666Y-7004819D02*
X43806666Y-7719104D01*
X43806666Y-7719104D02*
X43759047Y-7861961D01*
X43759047Y-7861961D02*
X43663809Y-7957200D01*
X43663809Y-7957200D02*
X43520952Y-8004819D01*
X43520952Y-8004819D02*
X43425714Y-8004819D01*
X44330476Y-8004819D02*
X44520952Y-8004819D01*
X44520952Y-8004819D02*
X44616190Y-7957200D01*
X44616190Y-7957200D02*
X44663809Y-7909580D01*
X44663809Y-7909580D02*
X44759047Y-7766723D01*
X44759047Y-7766723D02*
X44806666Y-7576247D01*
X44806666Y-7576247D02*
X44806666Y-7195295D01*
X44806666Y-7195295D02*
X44759047Y-7100057D01*
X44759047Y-7100057D02*
X44711428Y-7052438D01*
X44711428Y-7052438D02*
X44616190Y-7004819D01*
X44616190Y-7004819D02*
X44425714Y-7004819D01*
X44425714Y-7004819D02*
X44330476Y-7052438D01*
X44330476Y-7052438D02*
X44282857Y-7100057D01*
X44282857Y-7100057D02*
X44235238Y-7195295D01*
X44235238Y-7195295D02*
X44235238Y-7433390D01*
X44235238Y-7433390D02*
X44282857Y-7528628D01*
X44282857Y-7528628D02*
X44330476Y-7576247D01*
X44330476Y-7576247D02*
X44425714Y-7623866D01*
X44425714Y-7623866D02*
X44616190Y-7623866D01*
X44616190Y-7623866D02*
X44711428Y-7576247D01*
X44711428Y-7576247D02*
X44759047Y-7528628D01*
X44759047Y-7528628D02*
X44806666Y-7433390D01*
D12*
%TO.C,R20*%
X55584895Y-42394285D02*
X55203942Y-42660952D01*
X55584895Y-42851428D02*
X54784895Y-42851428D01*
X54784895Y-42851428D02*
X54784895Y-42546666D01*
X54784895Y-42546666D02*
X54822990Y-42470476D01*
X54822990Y-42470476D02*
X54861085Y-42432381D01*
X54861085Y-42432381D02*
X54937276Y-42394285D01*
X54937276Y-42394285D02*
X55051561Y-42394285D01*
X55051561Y-42394285D02*
X55127752Y-42432381D01*
X55127752Y-42432381D02*
X55165847Y-42470476D01*
X55165847Y-42470476D02*
X55203942Y-42546666D01*
X55203942Y-42546666D02*
X55203942Y-42851428D01*
X54861085Y-42089524D02*
X54822990Y-42051428D01*
X54822990Y-42051428D02*
X54784895Y-41975238D01*
X54784895Y-41975238D02*
X54784895Y-41784762D01*
X54784895Y-41784762D02*
X54822990Y-41708571D01*
X54822990Y-41708571D02*
X54861085Y-41670476D01*
X54861085Y-41670476D02*
X54937276Y-41632381D01*
X54937276Y-41632381D02*
X55013466Y-41632381D01*
X55013466Y-41632381D02*
X55127752Y-41670476D01*
X55127752Y-41670476D02*
X55584895Y-42127619D01*
X55584895Y-42127619D02*
X55584895Y-41632381D01*
X54784895Y-41137142D02*
X54784895Y-41060952D01*
X54784895Y-41060952D02*
X54822990Y-40984761D01*
X54822990Y-40984761D02*
X54861085Y-40946666D01*
X54861085Y-40946666D02*
X54937276Y-40908571D01*
X54937276Y-40908571D02*
X55089657Y-40870476D01*
X55089657Y-40870476D02*
X55280133Y-40870476D01*
X55280133Y-40870476D02*
X55432514Y-40908571D01*
X55432514Y-40908571D02*
X55508704Y-40946666D01*
X55508704Y-40946666D02*
X55546800Y-40984761D01*
X55546800Y-40984761D02*
X55584895Y-41060952D01*
X55584895Y-41060952D02*
X55584895Y-41137142D01*
X55584895Y-41137142D02*
X55546800Y-41213333D01*
X55546800Y-41213333D02*
X55508704Y-41251428D01*
X55508704Y-41251428D02*
X55432514Y-41289523D01*
X55432514Y-41289523D02*
X55280133Y-41327619D01*
X55280133Y-41327619D02*
X55089657Y-41327619D01*
X55089657Y-41327619D02*
X54937276Y-41289523D01*
X54937276Y-41289523D02*
X54861085Y-41251428D01*
X54861085Y-41251428D02*
X54822990Y-41213333D01*
X54822990Y-41213333D02*
X54784895Y-41137142D01*
%TO.C,C12*%
X50688704Y-42294285D02*
X50726800Y-42332381D01*
X50726800Y-42332381D02*
X50764895Y-42446666D01*
X50764895Y-42446666D02*
X50764895Y-42522857D01*
X50764895Y-42522857D02*
X50726800Y-42637143D01*
X50726800Y-42637143D02*
X50650609Y-42713333D01*
X50650609Y-42713333D02*
X50574419Y-42751428D01*
X50574419Y-42751428D02*
X50422038Y-42789524D01*
X50422038Y-42789524D02*
X50307752Y-42789524D01*
X50307752Y-42789524D02*
X50155371Y-42751428D01*
X50155371Y-42751428D02*
X50079180Y-42713333D01*
X50079180Y-42713333D02*
X50002990Y-42637143D01*
X50002990Y-42637143D02*
X49964895Y-42522857D01*
X49964895Y-42522857D02*
X49964895Y-42446666D01*
X49964895Y-42446666D02*
X50002990Y-42332381D01*
X50002990Y-42332381D02*
X50041085Y-42294285D01*
X50764895Y-41532381D02*
X50764895Y-41989524D01*
X50764895Y-41760952D02*
X49964895Y-41760952D01*
X49964895Y-41760952D02*
X50079180Y-41837143D01*
X50079180Y-41837143D02*
X50155371Y-41913333D01*
X50155371Y-41913333D02*
X50193466Y-41989524D01*
X50041085Y-41227619D02*
X50002990Y-41189523D01*
X50002990Y-41189523D02*
X49964895Y-41113333D01*
X49964895Y-41113333D02*
X49964895Y-40922857D01*
X49964895Y-40922857D02*
X50002990Y-40846666D01*
X50002990Y-40846666D02*
X50041085Y-40808571D01*
X50041085Y-40808571D02*
X50117276Y-40770476D01*
X50117276Y-40770476D02*
X50193466Y-40770476D01*
X50193466Y-40770476D02*
X50307752Y-40808571D01*
X50307752Y-40808571D02*
X50764895Y-41265714D01*
X50764895Y-41265714D02*
X50764895Y-40770476D01*
D10*
%TO.C,C26*%
X28277142Y-35339580D02*
X28229523Y-35387200D01*
X28229523Y-35387200D02*
X28086666Y-35434819D01*
X28086666Y-35434819D02*
X27991428Y-35434819D01*
X27991428Y-35434819D02*
X27848571Y-35387200D01*
X27848571Y-35387200D02*
X27753333Y-35291961D01*
X27753333Y-35291961D02*
X27705714Y-35196723D01*
X27705714Y-35196723D02*
X27658095Y-35006247D01*
X27658095Y-35006247D02*
X27658095Y-34863390D01*
X27658095Y-34863390D02*
X27705714Y-34672914D01*
X27705714Y-34672914D02*
X27753333Y-34577676D01*
X27753333Y-34577676D02*
X27848571Y-34482438D01*
X27848571Y-34482438D02*
X27991428Y-34434819D01*
X27991428Y-34434819D02*
X28086666Y-34434819D01*
X28086666Y-34434819D02*
X28229523Y-34482438D01*
X28229523Y-34482438D02*
X28277142Y-34530057D01*
X28658095Y-34530057D02*
X28705714Y-34482438D01*
X28705714Y-34482438D02*
X28800952Y-34434819D01*
X28800952Y-34434819D02*
X29039047Y-34434819D01*
X29039047Y-34434819D02*
X29134285Y-34482438D01*
X29134285Y-34482438D02*
X29181904Y-34530057D01*
X29181904Y-34530057D02*
X29229523Y-34625295D01*
X29229523Y-34625295D02*
X29229523Y-34720533D01*
X29229523Y-34720533D02*
X29181904Y-34863390D01*
X29181904Y-34863390D02*
X28610476Y-35434819D01*
X28610476Y-35434819D02*
X29229523Y-35434819D01*
X30086666Y-34434819D02*
X29896190Y-34434819D01*
X29896190Y-34434819D02*
X29800952Y-34482438D01*
X29800952Y-34482438D02*
X29753333Y-34530057D01*
X29753333Y-34530057D02*
X29658095Y-34672914D01*
X29658095Y-34672914D02*
X29610476Y-34863390D01*
X29610476Y-34863390D02*
X29610476Y-35244342D01*
X29610476Y-35244342D02*
X29658095Y-35339580D01*
X29658095Y-35339580D02*
X29705714Y-35387200D01*
X29705714Y-35387200D02*
X29800952Y-35434819D01*
X29800952Y-35434819D02*
X29991428Y-35434819D01*
X29991428Y-35434819D02*
X30086666Y-35387200D01*
X30086666Y-35387200D02*
X30134285Y-35339580D01*
X30134285Y-35339580D02*
X30181904Y-35244342D01*
X30181904Y-35244342D02*
X30181904Y-35006247D01*
X30181904Y-35006247D02*
X30134285Y-34911009D01*
X30134285Y-34911009D02*
X30086666Y-34863390D01*
X30086666Y-34863390D02*
X29991428Y-34815771D01*
X29991428Y-34815771D02*
X29800952Y-34815771D01*
X29800952Y-34815771D02*
X29705714Y-34863390D01*
X29705714Y-34863390D02*
X29658095Y-34911009D01*
X29658095Y-34911009D02*
X29610476Y-35006247D01*
%TO.C,U4*%
X19474819Y-18741904D02*
X20284342Y-18741904D01*
X20284342Y-18741904D02*
X20379580Y-18694285D01*
X20379580Y-18694285D02*
X20427200Y-18646666D01*
X20427200Y-18646666D02*
X20474819Y-18551428D01*
X20474819Y-18551428D02*
X20474819Y-18360952D01*
X20474819Y-18360952D02*
X20427200Y-18265714D01*
X20427200Y-18265714D02*
X20379580Y-18218095D01*
X20379580Y-18218095D02*
X20284342Y-18170476D01*
X20284342Y-18170476D02*
X19474819Y-18170476D01*
X19808152Y-17265714D02*
X20474819Y-17265714D01*
X19427200Y-17503809D02*
X20141485Y-17741904D01*
X20141485Y-17741904D02*
X20141485Y-17122857D01*
%TO.C,C25*%
X30577142Y-54539580D02*
X30529523Y-54587200D01*
X30529523Y-54587200D02*
X30386666Y-54634819D01*
X30386666Y-54634819D02*
X30291428Y-54634819D01*
X30291428Y-54634819D02*
X30148571Y-54587200D01*
X30148571Y-54587200D02*
X30053333Y-54491961D01*
X30053333Y-54491961D02*
X30005714Y-54396723D01*
X30005714Y-54396723D02*
X29958095Y-54206247D01*
X29958095Y-54206247D02*
X29958095Y-54063390D01*
X29958095Y-54063390D02*
X30005714Y-53872914D01*
X30005714Y-53872914D02*
X30053333Y-53777676D01*
X30053333Y-53777676D02*
X30148571Y-53682438D01*
X30148571Y-53682438D02*
X30291428Y-53634819D01*
X30291428Y-53634819D02*
X30386666Y-53634819D01*
X30386666Y-53634819D02*
X30529523Y-53682438D01*
X30529523Y-53682438D02*
X30577142Y-53730057D01*
X30958095Y-53730057D02*
X31005714Y-53682438D01*
X31005714Y-53682438D02*
X31100952Y-53634819D01*
X31100952Y-53634819D02*
X31339047Y-53634819D01*
X31339047Y-53634819D02*
X31434285Y-53682438D01*
X31434285Y-53682438D02*
X31481904Y-53730057D01*
X31481904Y-53730057D02*
X31529523Y-53825295D01*
X31529523Y-53825295D02*
X31529523Y-53920533D01*
X31529523Y-53920533D02*
X31481904Y-54063390D01*
X31481904Y-54063390D02*
X30910476Y-54634819D01*
X30910476Y-54634819D02*
X31529523Y-54634819D01*
X32434285Y-53634819D02*
X31958095Y-53634819D01*
X31958095Y-53634819D02*
X31910476Y-54111009D01*
X31910476Y-54111009D02*
X31958095Y-54063390D01*
X31958095Y-54063390D02*
X32053333Y-54015771D01*
X32053333Y-54015771D02*
X32291428Y-54015771D01*
X32291428Y-54015771D02*
X32386666Y-54063390D01*
X32386666Y-54063390D02*
X32434285Y-54111009D01*
X32434285Y-54111009D02*
X32481904Y-54206247D01*
X32481904Y-54206247D02*
X32481904Y-54444342D01*
X32481904Y-54444342D02*
X32434285Y-54539580D01*
X32434285Y-54539580D02*
X32386666Y-54587200D01*
X32386666Y-54587200D02*
X32291428Y-54634819D01*
X32291428Y-54634819D02*
X32053333Y-54634819D01*
X32053333Y-54634819D02*
X31958095Y-54587200D01*
X31958095Y-54587200D02*
X31910476Y-54539580D01*
%TO.C,R17*%
X33724819Y-58510357D02*
X33248628Y-58843690D01*
X33724819Y-59081785D02*
X32724819Y-59081785D01*
X32724819Y-59081785D02*
X32724819Y-58700833D01*
X32724819Y-58700833D02*
X32772438Y-58605595D01*
X32772438Y-58605595D02*
X32820057Y-58557976D01*
X32820057Y-58557976D02*
X32915295Y-58510357D01*
X32915295Y-58510357D02*
X33058152Y-58510357D01*
X33058152Y-58510357D02*
X33153390Y-58557976D01*
X33153390Y-58557976D02*
X33201009Y-58605595D01*
X33201009Y-58605595D02*
X33248628Y-58700833D01*
X33248628Y-58700833D02*
X33248628Y-59081785D01*
X33724819Y-57557976D02*
X33724819Y-58129404D01*
X33724819Y-57843690D02*
X32724819Y-57843690D01*
X32724819Y-57843690D02*
X32867676Y-57938928D01*
X32867676Y-57938928D02*
X32962914Y-58034166D01*
X32962914Y-58034166D02*
X33010533Y-58129404D01*
X32724819Y-57224642D02*
X32724819Y-56557976D01*
X32724819Y-56557976D02*
X33724819Y-56986547D01*
%TO.C,Y1*%
X52343809Y-58458628D02*
X52343809Y-58934819D01*
X52010476Y-57934819D02*
X52343809Y-58458628D01*
X52343809Y-58458628D02*
X52677142Y-57934819D01*
X53534285Y-58934819D02*
X52962857Y-58934819D01*
X53248571Y-58934819D02*
X53248571Y-57934819D01*
X53248571Y-57934819D02*
X53153333Y-58077676D01*
X53153333Y-58077676D02*
X53058095Y-58172914D01*
X53058095Y-58172914D02*
X52962857Y-58220533D01*
D14*
%TO.C,J11*%
X2332224Y-25109253D02*
X2332224Y-25834968D01*
X2332224Y-25834968D02*
X2283843Y-25980111D01*
X2283843Y-25980111D02*
X2187081Y-26076873D01*
X2187081Y-26076873D02*
X2041938Y-26125253D01*
X2041938Y-26125253D02*
X1945176Y-26125253D01*
X3348224Y-26125253D02*
X2767652Y-26125253D01*
X3057938Y-26125253D02*
X3057938Y-25109253D01*
X3057938Y-25109253D02*
X2961176Y-25254396D01*
X2961176Y-25254396D02*
X2864414Y-25351158D01*
X2864414Y-25351158D02*
X2767652Y-25399539D01*
X4315843Y-26125253D02*
X3735271Y-26125253D01*
X4025557Y-26125253D02*
X4025557Y-25109253D01*
X4025557Y-25109253D02*
X3928795Y-25254396D01*
X3928795Y-25254396D02*
X3832033Y-25351158D01*
X3832033Y-25351158D02*
X3735271Y-25399539D01*
D12*
%TO.C,R23*%
X36284895Y-38206785D02*
X35903942Y-38473452D01*
X36284895Y-38663928D02*
X35484895Y-38663928D01*
X35484895Y-38663928D02*
X35484895Y-38359166D01*
X35484895Y-38359166D02*
X35522990Y-38282976D01*
X35522990Y-38282976D02*
X35561085Y-38244881D01*
X35561085Y-38244881D02*
X35637276Y-38206785D01*
X35637276Y-38206785D02*
X35751561Y-38206785D01*
X35751561Y-38206785D02*
X35827752Y-38244881D01*
X35827752Y-38244881D02*
X35865847Y-38282976D01*
X35865847Y-38282976D02*
X35903942Y-38359166D01*
X35903942Y-38359166D02*
X35903942Y-38663928D01*
X35561085Y-37902024D02*
X35522990Y-37863928D01*
X35522990Y-37863928D02*
X35484895Y-37787738D01*
X35484895Y-37787738D02*
X35484895Y-37597262D01*
X35484895Y-37597262D02*
X35522990Y-37521071D01*
X35522990Y-37521071D02*
X35561085Y-37482976D01*
X35561085Y-37482976D02*
X35637276Y-37444881D01*
X35637276Y-37444881D02*
X35713466Y-37444881D01*
X35713466Y-37444881D02*
X35827752Y-37482976D01*
X35827752Y-37482976D02*
X36284895Y-37940119D01*
X36284895Y-37940119D02*
X36284895Y-37444881D01*
X35484895Y-37178214D02*
X35484895Y-36682976D01*
X35484895Y-36682976D02*
X35789657Y-36949642D01*
X35789657Y-36949642D02*
X35789657Y-36835357D01*
X35789657Y-36835357D02*
X35827752Y-36759166D01*
X35827752Y-36759166D02*
X35865847Y-36721071D01*
X35865847Y-36721071D02*
X35942038Y-36682976D01*
X35942038Y-36682976D02*
X36132514Y-36682976D01*
X36132514Y-36682976D02*
X36208704Y-36721071D01*
X36208704Y-36721071D02*
X36246800Y-36759166D01*
X36246800Y-36759166D02*
X36284895Y-36835357D01*
X36284895Y-36835357D02*
X36284895Y-37063928D01*
X36284895Y-37063928D02*
X36246800Y-37140119D01*
X36246800Y-37140119D02*
X36208704Y-37178214D01*
%TO.C,C30*%
X39155714Y-51768704D02*
X39117618Y-51806800D01*
X39117618Y-51806800D02*
X39003333Y-51844895D01*
X39003333Y-51844895D02*
X38927142Y-51844895D01*
X38927142Y-51844895D02*
X38812856Y-51806800D01*
X38812856Y-51806800D02*
X38736666Y-51730609D01*
X38736666Y-51730609D02*
X38698571Y-51654419D01*
X38698571Y-51654419D02*
X38660475Y-51502038D01*
X38660475Y-51502038D02*
X38660475Y-51387752D01*
X38660475Y-51387752D02*
X38698571Y-51235371D01*
X38698571Y-51235371D02*
X38736666Y-51159180D01*
X38736666Y-51159180D02*
X38812856Y-51082990D01*
X38812856Y-51082990D02*
X38927142Y-51044895D01*
X38927142Y-51044895D02*
X39003333Y-51044895D01*
X39003333Y-51044895D02*
X39117618Y-51082990D01*
X39117618Y-51082990D02*
X39155714Y-51121085D01*
X39422380Y-51044895D02*
X39917618Y-51044895D01*
X39917618Y-51044895D02*
X39650952Y-51349657D01*
X39650952Y-51349657D02*
X39765237Y-51349657D01*
X39765237Y-51349657D02*
X39841428Y-51387752D01*
X39841428Y-51387752D02*
X39879523Y-51425847D01*
X39879523Y-51425847D02*
X39917618Y-51502038D01*
X39917618Y-51502038D02*
X39917618Y-51692514D01*
X39917618Y-51692514D02*
X39879523Y-51768704D01*
X39879523Y-51768704D02*
X39841428Y-51806800D01*
X39841428Y-51806800D02*
X39765237Y-51844895D01*
X39765237Y-51844895D02*
X39536666Y-51844895D01*
X39536666Y-51844895D02*
X39460475Y-51806800D01*
X39460475Y-51806800D02*
X39422380Y-51768704D01*
X40412857Y-51044895D02*
X40489047Y-51044895D01*
X40489047Y-51044895D02*
X40565238Y-51082990D01*
X40565238Y-51082990D02*
X40603333Y-51121085D01*
X40603333Y-51121085D02*
X40641428Y-51197276D01*
X40641428Y-51197276D02*
X40679523Y-51349657D01*
X40679523Y-51349657D02*
X40679523Y-51540133D01*
X40679523Y-51540133D02*
X40641428Y-51692514D01*
X40641428Y-51692514D02*
X40603333Y-51768704D01*
X40603333Y-51768704D02*
X40565238Y-51806800D01*
X40565238Y-51806800D02*
X40489047Y-51844895D01*
X40489047Y-51844895D02*
X40412857Y-51844895D01*
X40412857Y-51844895D02*
X40336666Y-51806800D01*
X40336666Y-51806800D02*
X40298571Y-51768704D01*
X40298571Y-51768704D02*
X40260476Y-51692514D01*
X40260476Y-51692514D02*
X40222380Y-51540133D01*
X40222380Y-51540133D02*
X40222380Y-51349657D01*
X40222380Y-51349657D02*
X40260476Y-51197276D01*
X40260476Y-51197276D02*
X40298571Y-51121085D01*
X40298571Y-51121085D02*
X40336666Y-51082990D01*
X40336666Y-51082990D02*
X40412857Y-51044895D01*
D10*
%TO.C,C3*%
X18853333Y-35439580D02*
X18805714Y-35487200D01*
X18805714Y-35487200D02*
X18662857Y-35534819D01*
X18662857Y-35534819D02*
X18567619Y-35534819D01*
X18567619Y-35534819D02*
X18424762Y-35487200D01*
X18424762Y-35487200D02*
X18329524Y-35391961D01*
X18329524Y-35391961D02*
X18281905Y-35296723D01*
X18281905Y-35296723D02*
X18234286Y-35106247D01*
X18234286Y-35106247D02*
X18234286Y-34963390D01*
X18234286Y-34963390D02*
X18281905Y-34772914D01*
X18281905Y-34772914D02*
X18329524Y-34677676D01*
X18329524Y-34677676D02*
X18424762Y-34582438D01*
X18424762Y-34582438D02*
X18567619Y-34534819D01*
X18567619Y-34534819D02*
X18662857Y-34534819D01*
X18662857Y-34534819D02*
X18805714Y-34582438D01*
X18805714Y-34582438D02*
X18853333Y-34630057D01*
X19186667Y-34534819D02*
X19805714Y-34534819D01*
X19805714Y-34534819D02*
X19472381Y-34915771D01*
X19472381Y-34915771D02*
X19615238Y-34915771D01*
X19615238Y-34915771D02*
X19710476Y-34963390D01*
X19710476Y-34963390D02*
X19758095Y-35011009D01*
X19758095Y-35011009D02*
X19805714Y-35106247D01*
X19805714Y-35106247D02*
X19805714Y-35344342D01*
X19805714Y-35344342D02*
X19758095Y-35439580D01*
X19758095Y-35439580D02*
X19710476Y-35487200D01*
X19710476Y-35487200D02*
X19615238Y-35534819D01*
X19615238Y-35534819D02*
X19329524Y-35534819D01*
X19329524Y-35534819D02*
X19234286Y-35487200D01*
X19234286Y-35487200D02*
X19186667Y-35439580D01*
D12*
%TO.C,R9*%
X69384895Y-35113332D02*
X69003942Y-35379999D01*
X69384895Y-35570475D02*
X68584895Y-35570475D01*
X68584895Y-35570475D02*
X68584895Y-35265713D01*
X68584895Y-35265713D02*
X68622990Y-35189523D01*
X68622990Y-35189523D02*
X68661085Y-35151428D01*
X68661085Y-35151428D02*
X68737276Y-35113332D01*
X68737276Y-35113332D02*
X68851561Y-35113332D01*
X68851561Y-35113332D02*
X68927752Y-35151428D01*
X68927752Y-35151428D02*
X68965847Y-35189523D01*
X68965847Y-35189523D02*
X69003942Y-35265713D01*
X69003942Y-35265713D02*
X69003942Y-35570475D01*
X69384895Y-34732380D02*
X69384895Y-34579999D01*
X69384895Y-34579999D02*
X69346800Y-34503809D01*
X69346800Y-34503809D02*
X69308704Y-34465713D01*
X69308704Y-34465713D02*
X69194419Y-34389523D01*
X69194419Y-34389523D02*
X69042038Y-34351428D01*
X69042038Y-34351428D02*
X68737276Y-34351428D01*
X68737276Y-34351428D02*
X68661085Y-34389523D01*
X68661085Y-34389523D02*
X68622990Y-34427618D01*
X68622990Y-34427618D02*
X68584895Y-34503809D01*
X68584895Y-34503809D02*
X68584895Y-34656190D01*
X68584895Y-34656190D02*
X68622990Y-34732380D01*
X68622990Y-34732380D02*
X68661085Y-34770475D01*
X68661085Y-34770475D02*
X68737276Y-34808571D01*
X68737276Y-34808571D02*
X68927752Y-34808571D01*
X68927752Y-34808571D02*
X69003942Y-34770475D01*
X69003942Y-34770475D02*
X69042038Y-34732380D01*
X69042038Y-34732380D02*
X69080133Y-34656190D01*
X69080133Y-34656190D02*
X69080133Y-34503809D01*
X69080133Y-34503809D02*
X69042038Y-34427618D01*
X69042038Y-34427618D02*
X69003942Y-34389523D01*
X69003942Y-34389523D02*
X68927752Y-34351428D01*
D10*
%TO.C,R26*%
X14824819Y-27110357D02*
X14348628Y-27443690D01*
X14824819Y-27681785D02*
X13824819Y-27681785D01*
X13824819Y-27681785D02*
X13824819Y-27300833D01*
X13824819Y-27300833D02*
X13872438Y-27205595D01*
X13872438Y-27205595D02*
X13920057Y-27157976D01*
X13920057Y-27157976D02*
X14015295Y-27110357D01*
X14015295Y-27110357D02*
X14158152Y-27110357D01*
X14158152Y-27110357D02*
X14253390Y-27157976D01*
X14253390Y-27157976D02*
X14301009Y-27205595D01*
X14301009Y-27205595D02*
X14348628Y-27300833D01*
X14348628Y-27300833D02*
X14348628Y-27681785D01*
X13920057Y-26729404D02*
X13872438Y-26681785D01*
X13872438Y-26681785D02*
X13824819Y-26586547D01*
X13824819Y-26586547D02*
X13824819Y-26348452D01*
X13824819Y-26348452D02*
X13872438Y-26253214D01*
X13872438Y-26253214D02*
X13920057Y-26205595D01*
X13920057Y-26205595D02*
X14015295Y-26157976D01*
X14015295Y-26157976D02*
X14110533Y-26157976D01*
X14110533Y-26157976D02*
X14253390Y-26205595D01*
X14253390Y-26205595D02*
X14824819Y-26777023D01*
X14824819Y-26777023D02*
X14824819Y-26157976D01*
X13824819Y-25300833D02*
X13824819Y-25491309D01*
X13824819Y-25491309D02*
X13872438Y-25586547D01*
X13872438Y-25586547D02*
X13920057Y-25634166D01*
X13920057Y-25634166D02*
X14062914Y-25729404D01*
X14062914Y-25729404D02*
X14253390Y-25777023D01*
X14253390Y-25777023D02*
X14634342Y-25777023D01*
X14634342Y-25777023D02*
X14729580Y-25729404D01*
X14729580Y-25729404D02*
X14777200Y-25681785D01*
X14777200Y-25681785D02*
X14824819Y-25586547D01*
X14824819Y-25586547D02*
X14824819Y-25396071D01*
X14824819Y-25396071D02*
X14777200Y-25300833D01*
X14777200Y-25300833D02*
X14729580Y-25253214D01*
X14729580Y-25253214D02*
X14634342Y-25205595D01*
X14634342Y-25205595D02*
X14396247Y-25205595D01*
X14396247Y-25205595D02*
X14301009Y-25253214D01*
X14301009Y-25253214D02*
X14253390Y-25300833D01*
X14253390Y-25300833D02*
X14205771Y-25396071D01*
X14205771Y-25396071D02*
X14205771Y-25586547D01*
X14205771Y-25586547D02*
X14253390Y-25681785D01*
X14253390Y-25681785D02*
X14301009Y-25729404D01*
X14301009Y-25729404D02*
X14396247Y-25777023D01*
D15*
%TO.C,R32*%
X23855000Y-39265436D02*
X23855000Y-39719564D01*
X22385000Y-39265436D02*
X22385000Y-39719564D01*
%TO.C,R3*%
X58305436Y-10145000D02*
X58759564Y-10145000D01*
X58305436Y-11615000D02*
X58759564Y-11615000D01*
%TO.C,R27*%
X9985000Y-32294564D02*
X9985000Y-31840436D01*
X11455000Y-32294564D02*
X11455000Y-31840436D01*
%TO.C,R14*%
X11785000Y-39894564D02*
X11785000Y-39440436D01*
X13255000Y-39894564D02*
X13255000Y-39440436D01*
%TO.C,R15*%
X55580436Y-51445000D02*
X56034564Y-51445000D01*
X55580436Y-52915000D02*
X56034564Y-52915000D01*
%TO.C,C15*%
X21555000Y-26168748D02*
X21555000Y-26691252D01*
X20085000Y-26168748D02*
X20085000Y-26691252D01*
%TO.C,J5*%
X46550000Y-13950000D02*
X46550000Y-12680000D01*
X47820000Y-13950000D02*
X46550000Y-13950000D01*
X47440000Y-11570000D02*
X47440000Y-11182929D01*
X48200000Y-11570000D02*
X48200000Y-11182929D01*
X47440000Y-9097071D02*
X47440000Y-8700000D01*
X48200000Y-9097071D02*
X48200000Y-8700000D01*
X46490000Y-8700000D02*
X49150000Y-8700000D01*
X49150000Y-8700000D02*
X49150000Y-6040000D01*
X46490000Y-6040000D02*
X46490000Y-8700000D01*
X47440000Y-6040000D02*
X47440000Y-40000D01*
X47500000Y-6040000D02*
X47500000Y-40000D01*
X47620000Y-6040000D02*
X47620000Y-40000D01*
X47740000Y-6040000D02*
X47740000Y-40000D01*
X47860000Y-6040000D02*
X47860000Y-40000D01*
X47980000Y-6040000D02*
X47980000Y-40000D01*
X48100000Y-6040000D02*
X48100000Y-40000D01*
X49150000Y-6040000D02*
X46490000Y-6040000D01*
X47440000Y-40000D02*
X48200000Y-40000D01*
X48200000Y-40000D02*
X48200000Y-6040000D01*
%TO.C,C1*%
X29855000Y-25268748D02*
X29855000Y-25791252D01*
X28385000Y-25268748D02*
X28385000Y-25791252D01*
%TO.C,R12*%
X66005436Y-36745000D02*
X66459564Y-36745000D01*
X66005436Y-38215000D02*
X66459564Y-38215000D01*
%TO.C,C28*%
X26108748Y-57045000D02*
X26631252Y-57045000D01*
X26108748Y-58515000D02*
X26631252Y-58515000D01*
%TO.C,R33*%
X58885000Y-46194564D02*
X58885000Y-45740436D01*
X60355000Y-46194564D02*
X60355000Y-45740436D01*
%TO.C,C16*%
X46358748Y-33745000D02*
X46881252Y-33745000D01*
X46358748Y-35215000D02*
X46881252Y-35215000D01*
%TO.C,R1*%
X53735000Y-36645436D02*
X53735000Y-37099564D01*
X52265000Y-36645436D02*
X52265000Y-37099564D01*
%TO.C,R22*%
X30785436Y-49725000D02*
X31239564Y-49725000D01*
X30785436Y-51195000D02*
X31239564Y-51195000D01*
%TO.C,R29*%
X17392936Y-53545000D02*
X17847064Y-53545000D01*
X17392936Y-55015000D02*
X17847064Y-55015000D01*
%TO.C,C22*%
X26811252Y-50395000D02*
X26288748Y-50395000D01*
X26811252Y-48925000D02*
X26288748Y-48925000D01*
%TO.C,C11*%
X28885000Y-31891252D02*
X28885000Y-31368748D01*
X30355000Y-31891252D02*
X30355000Y-31368748D01*
%TO.C,R19*%
X38085000Y-31907064D02*
X38085000Y-31452936D01*
X39555000Y-31907064D02*
X39555000Y-31452936D01*
%TO.C,R8*%
X11047064Y-58115000D02*
X10592936Y-58115000D01*
X11047064Y-56645000D02*
X10592936Y-56645000D01*
%TO.C,R2*%
X46334564Y-23515000D02*
X45880436Y-23515000D01*
X46334564Y-22045000D02*
X45880436Y-22045000D01*
%TO.C,C5*%
X50088748Y-50115000D02*
X50611252Y-50115000D01*
X50088748Y-51585000D02*
X50611252Y-51585000D01*
%TO.C,D2*%
X27080000Y-26080000D02*
X27080000Y-24880000D01*
X25120000Y-26080000D02*
X27080000Y-26080000D01*
X25120000Y-24880000D02*
X27080000Y-24880000D01*
%TO.C,R11*%
X46085000Y-18207064D02*
X46085000Y-17752936D01*
X47555000Y-18207064D02*
X47555000Y-17752936D01*
%TO.C,C27*%
X27385000Y-53291252D02*
X27385000Y-52768748D01*
X28855000Y-53291252D02*
X28855000Y-52768748D01*
%TO.C,R25*%
X19055000Y-26165436D02*
X19055000Y-26619564D01*
X17585000Y-26165436D02*
X17585000Y-26619564D01*
%TO.C,Q2*%
X57710000Y-50542500D02*
X57710000Y-52217500D01*
X57710000Y-50542500D02*
X57710000Y-49892500D01*
X60830000Y-50542500D02*
X60830000Y-51192500D01*
X60830000Y-50542500D02*
X60830000Y-49892500D01*
%TO.C,C13*%
X37731252Y-47715000D02*
X37208748Y-47715000D01*
X37731252Y-46245000D02*
X37208748Y-46245000D01*
%TO.C,SW1*%
X58320000Y-30885000D02*
X58320000Y-30985000D01*
X58320000Y-29185000D02*
X53920000Y-29185000D01*
X53920000Y-32685000D02*
X58320000Y-32685000D01*
X53920000Y-30885000D02*
X53920000Y-30985000D01*
%TO.C,R5*%
X48135000Y-37052936D02*
X48135000Y-37507064D01*
X46665000Y-37052936D02*
X46665000Y-37507064D01*
%TO.C,C24*%
X26555000Y-52268748D02*
X26555000Y-52791252D01*
X25085000Y-52268748D02*
X25085000Y-52791252D01*
%TO.C,R7*%
X46924400Y-50344953D02*
X47245517Y-50666070D01*
X45884953Y-51384400D02*
X46206070Y-51705517D01*
%TO.C,R16*%
X55580436Y-49345000D02*
X56034564Y-49345000D01*
X55580436Y-50815000D02*
X56034564Y-50815000D01*
%TO.C,R31*%
X65005436Y-30945000D02*
X65459564Y-30945000D01*
X65005436Y-32415000D02*
X65459564Y-32415000D01*
%TO.C,R6*%
X50235000Y-37065436D02*
X50235000Y-37519564D01*
X48765000Y-37065436D02*
X48765000Y-37519564D01*
%TO.C,C20*%
X57935000Y-46398748D02*
X57935000Y-46921252D01*
X56465000Y-46398748D02*
X56465000Y-46921252D01*
%TO.C,C14*%
X53838748Y-46625000D02*
X54361252Y-46625000D01*
X53838748Y-48095000D02*
X54361252Y-48095000D01*
%TO.C,C29*%
X55055000Y-54768748D02*
X55055000Y-55291252D01*
X53585000Y-54768748D02*
X53585000Y-55291252D01*
%TO.C,Q1*%
X57557500Y-53370000D02*
X55882500Y-53370000D01*
X57557500Y-53370000D02*
X58207500Y-53370000D01*
X57557500Y-56490000D02*
X56907500Y-56490000D01*
X57557500Y-56490000D02*
X58207500Y-56490000D01*
%TO.C,C10*%
X21885000Y-15691252D02*
X21885000Y-15168748D01*
X23355000Y-15691252D02*
X23355000Y-15168748D01*
%TO.C,J7*%
X41410000Y-16049492D02*
X41410000Y-17579492D01*
X40940000Y-18049492D02*
X27740000Y-18049492D01*
D12*
X40940000Y-9099492D02*
X40940000Y-9029492D01*
D15*
X40940000Y-9029492D02*
X40940000Y-18049492D01*
X40940000Y-49492D02*
X40940000Y-6829492D01*
X27740000Y-18049492D02*
X27740000Y-9029492D01*
D12*
X27740000Y-169492D02*
X27740000Y-49492D01*
X27740000Y-59492D02*
X27740000Y-49492D01*
D15*
X27740000Y-49492D02*
X40940000Y-49492D01*
X27740000Y-49492D02*
X27740000Y-6829492D01*
%TO.C,Q4*%
X37630000Y-31917500D02*
X37630000Y-30242500D01*
X37630000Y-31917500D02*
X37630000Y-32567500D01*
X34510000Y-31917500D02*
X34510000Y-31267500D01*
X34510000Y-31917500D02*
X34510000Y-32567500D01*
%TO.C,D1*%
X49460000Y-20325000D02*
X49460000Y-21525000D01*
X51420000Y-20325000D02*
X49460000Y-20325000D01*
X51420000Y-21525000D02*
X49460000Y-21525000D01*
D12*
%TO.C,J12*%
X24870000Y-12729492D02*
X24870000Y-7729492D01*
X24870000Y-229492D02*
X24870000Y-3729492D01*
X24870000Y-229492D02*
X10870000Y-229492D01*
X10870000Y-12729492D02*
X24870000Y-12729492D01*
X10870000Y-7729492D02*
X10870000Y-12729492D01*
X10870000Y-229492D02*
X10870000Y-3729492D01*
D15*
%TO.C,C4*%
X42708748Y-49945000D02*
X43231252Y-49945000D01*
X42708748Y-51415000D02*
X43231252Y-51415000D01*
%TO.C,Q6*%
X62330000Y-33142500D02*
X62330000Y-31467500D01*
X62330000Y-33142500D02*
X62330000Y-33792500D01*
X59210000Y-33142500D02*
X59210000Y-32492500D01*
X59210000Y-33142500D02*
X59210000Y-33792500D01*
%TO.C,TH1*%
X68420000Y-13200000D02*
X68420000Y-13820000D01*
X69340000Y-12280000D02*
G75*
G03*
X69340000Y-12280000I-920000J0D01*
G01*
%TO.C,U6*%
X63345000Y-39705000D02*
X63345000Y-36255000D01*
X63345000Y-39705000D02*
X63345000Y-41655000D01*
X58225000Y-39705000D02*
X58225000Y-37755000D01*
X58225000Y-39705000D02*
X58225000Y-41655000D01*
%TO.C,C21*%
X20785000Y-47741252D02*
X20785000Y-47218748D01*
X22255000Y-47741252D02*
X22255000Y-47218748D01*
%TO.C,C18*%
X23755000Y-26168748D02*
X23755000Y-26691252D01*
X22285000Y-26168748D02*
X22285000Y-26691252D01*
%TO.C,C19*%
X22031252Y-33715000D02*
X21508748Y-33715000D01*
X22031252Y-32245000D02*
X21508748Y-32245000D01*
%TO.C,U1*%
X37430000Y-19430000D02*
X37430000Y-25440000D01*
X30610000Y-21680000D02*
X30610000Y-25440000D01*
X37430000Y-25440000D02*
X36170000Y-25440000D01*
X30610000Y-25440000D02*
X31870000Y-25440000D01*
%TO.C,F1*%
X4551248Y-10690000D02*
X7323752Y-10690000D01*
X4551248Y-14110000D02*
X7323752Y-14110000D01*
%TO.C,U7*%
X32910000Y-46770000D02*
X32910000Y-46320000D01*
X32910000Y-46320000D02*
X34200000Y-46320000D01*
X32910000Y-39550000D02*
X32910000Y-40000000D01*
X32460000Y-46770000D02*
X32910000Y-46770000D01*
X32460000Y-39550000D02*
X32910000Y-39550000D01*
X26140000Y-46770000D02*
X25690000Y-46770000D01*
X26140000Y-39550000D02*
X25690000Y-39550000D01*
X25690000Y-46770000D02*
X25690000Y-46320000D01*
X25690000Y-39550000D02*
X25690000Y-40000000D01*
%TO.C,U3*%
X52960000Y-13599492D02*
X52960000Y-15399492D01*
X52960000Y-13599492D02*
X52960000Y-12799492D01*
X56080000Y-13599492D02*
X56080000Y-14399492D01*
X56080000Y-13599492D02*
X56080000Y-12799492D01*
%TO.C,C23*%
X20785000Y-43971252D02*
X20785000Y-43448748D01*
X22255000Y-43971252D02*
X22255000Y-43448748D01*
%TO.C,C9*%
X24185000Y-15691252D02*
X24185000Y-15168748D01*
X25655000Y-15691252D02*
X25655000Y-15168748D01*
%TO.C,C31*%
X24685000Y-35891252D02*
X24685000Y-35368748D01*
X26155000Y-35891252D02*
X26155000Y-35368748D01*
%TO.C,R10*%
X65385000Y-15794564D02*
X65385000Y-15340436D01*
X66855000Y-15794564D02*
X66855000Y-15340436D01*
%TO.C,C6*%
X50131252Y-53615000D02*
X49608748Y-53615000D01*
X50131252Y-52145000D02*
X49608748Y-52145000D01*
%TO.C,C2*%
X28285000Y-20591252D02*
X28285000Y-20068748D01*
X29755000Y-20591252D02*
X29755000Y-20068748D01*
%TO.C,U2*%
X46745000Y-26055000D02*
X46485000Y-26055000D01*
X46485000Y-26055000D02*
X46485000Y-24380000D01*
X41295000Y-26055000D02*
X41555000Y-26055000D01*
X46745000Y-28780000D02*
X46745000Y-26055000D01*
X46745000Y-28780000D02*
X46745000Y-31505000D01*
X41295000Y-28780000D02*
X41295000Y-26055000D01*
X41295000Y-28780000D02*
X41295000Y-31505000D01*
X46745000Y-31505000D02*
X46485000Y-31505000D01*
X41295000Y-31505000D02*
X41555000Y-31505000D01*
%TO.C,R18*%
X38865000Y-35319564D02*
X38865000Y-34865436D01*
X40335000Y-35319564D02*
X40335000Y-34865436D01*
%TO.C,R4*%
X51355000Y-10365436D02*
X51355000Y-10819564D01*
X49885000Y-10365436D02*
X49885000Y-10819564D01*
%TO.C,R13*%
X13555000Y-48465436D02*
X13555000Y-48919564D01*
X12085000Y-48465436D02*
X12085000Y-48919564D01*
%TO.C,Q3*%
X40930000Y-27917500D02*
X40930000Y-26242500D01*
X40930000Y-27917500D02*
X40930000Y-28567500D01*
X37810000Y-27917500D02*
X37810000Y-27267500D01*
X37810000Y-27917500D02*
X37810000Y-28567500D01*
%TO.C,U5*%
X42110000Y-48260000D02*
X42110000Y-47610000D01*
X42760000Y-41040000D02*
X42110000Y-41040000D01*
X42760000Y-48260000D02*
X42110000Y-48260000D01*
X48680000Y-41040000D02*
X49330000Y-41040000D01*
X48680000Y-48260000D02*
X49330000Y-48260000D01*
X49330000Y-41040000D02*
X49330000Y-41690000D01*
X49330000Y-48260000D02*
X49330000Y-47610000D01*
%TO.C,C17*%
X37655000Y-40768748D02*
X37655000Y-41291252D01*
X36185000Y-40768748D02*
X36185000Y-41291252D01*
%TO.C,R24*%
X43885000Y-18207064D02*
X43885000Y-17752936D01*
X45355000Y-18207064D02*
X45355000Y-17752936D01*
%TO.C,C8*%
X52208748Y-38925000D02*
X52731252Y-38925000D01*
X52208748Y-40395000D02*
X52731252Y-40395000D01*
%TO.C,R21*%
X18585000Y-44594564D02*
X18585000Y-44140436D01*
X20055000Y-44594564D02*
X20055000Y-44140436D01*
%TO.C,J6*%
X68330000Y-49590000D02*
X67000000Y-49590000D01*
X68330000Y-48260000D02*
X68330000Y-49590000D01*
X68330000Y-46990000D02*
X68330000Y-39310000D01*
X68330000Y-46990000D02*
X65670000Y-46990000D01*
X68330000Y-39310000D02*
X65670000Y-39310000D01*
X65670000Y-46990000D02*
X65670000Y-39310000D01*
%TO.C,BZ1*%
X70070000Y-30230000D02*
X69070000Y-30230000D01*
X70070000Y-29230000D02*
X70070000Y-30230000D01*
X69370000Y-27180000D02*
X69370000Y-23180000D01*
X67020000Y-20830000D02*
X63020000Y-20830000D01*
X63020000Y-29530000D02*
X67020000Y-29530000D01*
X60670000Y-23180000D02*
X60670000Y-27180000D01*
%TO.C,J1*%
X61020000Y50000D02*
X61020000Y-2710000D01*
X61020000Y50000D02*
X52070000Y50000D01*
X52070000Y50000D02*
X52070000Y-2710000D01*
%TO.C,C7*%
X50585000Y-33671252D02*
X50585000Y-33148748D01*
X52055000Y-33671252D02*
X52055000Y-33148748D01*
%TO.C,R30*%
X60985000Y-46194564D02*
X60985000Y-45740436D01*
X62455000Y-46194564D02*
X62455000Y-45740436D01*
%TO.C,J9*%
X42850000Y-14050000D02*
X42850000Y-12780000D01*
X44120000Y-14050000D02*
X42850000Y-14050000D01*
X43740000Y-11670000D02*
X43740000Y-11282929D01*
X44500000Y-11670000D02*
X44500000Y-11282929D01*
X43740000Y-9197071D02*
X43740000Y-8800000D01*
X44500000Y-9197071D02*
X44500000Y-8800000D01*
X42790000Y-8800000D02*
X45450000Y-8800000D01*
X45450000Y-8800000D02*
X45450000Y-6140000D01*
X42790000Y-6140000D02*
X42790000Y-8800000D01*
X43740000Y-6140000D02*
X43740000Y-140000D01*
X43800000Y-6140000D02*
X43800000Y-140000D01*
X43920000Y-6140000D02*
X43920000Y-140000D01*
X44040000Y-6140000D02*
X44040000Y-140000D01*
X44160000Y-6140000D02*
X44160000Y-140000D01*
X44280000Y-6140000D02*
X44280000Y-140000D01*
X44400000Y-6140000D02*
X44400000Y-140000D01*
X45450000Y-6140000D02*
X42790000Y-6140000D01*
X43740000Y-140000D02*
X44500000Y-140000D01*
X44500000Y-140000D02*
X44500000Y-6140000D01*
%TO.C,R20*%
X54365000Y-44827064D02*
X54365000Y-44372936D01*
X55835000Y-44827064D02*
X55835000Y-44372936D01*
%TO.C,C12*%
X52238748Y-40945000D02*
X52761252Y-40945000D01*
X52238748Y-42415000D02*
X52761252Y-42415000D01*
%TO.C,C26*%
X32231252Y-35615000D02*
X31708748Y-35615000D01*
X32231252Y-34145000D02*
X31708748Y-34145000D01*
%TO.C,U4*%
X26770000Y-24490000D02*
X20760000Y-24490000D01*
X24520000Y-17670000D02*
X20760000Y-17670000D01*
X20760000Y-24490000D02*
X20760000Y-23230000D01*
X20760000Y-17670000D02*
X20760000Y-18930000D01*
%TO.C,C25*%
X30688748Y-51725000D02*
X31211252Y-51725000D01*
X30688748Y-53195000D02*
X31211252Y-53195000D01*
%TO.C,R17*%
X32355000Y-57640436D02*
X32355000Y-58094564D01*
X30885000Y-57640436D02*
X30885000Y-58094564D01*
%TO.C,Y1*%
X51800000Y-59010000D02*
X51800000Y-53910000D01*
X51800000Y-53910000D02*
X39200000Y-53910000D01*
X39200000Y-59010000D02*
X51800000Y-59010000D01*
D16*
%TO.C,J11*%
X16110000Y-24400000D02*
X16110000Y-15400000D01*
X16110000Y-15400000D02*
X110000Y-15400000D01*
X110000Y-24400000D02*
X16110000Y-24400000D01*
X110000Y-15400000D02*
X110000Y-24400000D01*
D15*
%TO.C,R23*%
X33485000Y-37919564D02*
X33485000Y-37465436D01*
X34955000Y-37919564D02*
X34955000Y-37465436D01*
%TO.C,C30*%
X40358748Y-52045000D02*
X40881252Y-52045000D01*
X40358748Y-53515000D02*
X40881252Y-53515000D01*
%TO.C,C3*%
X22031252Y-35815000D02*
X21508748Y-35815000D01*
X22031252Y-34345000D02*
X21508748Y-34345000D01*
%TO.C,R9*%
X66005436Y-34645000D02*
X66459564Y-34645000D01*
X66005436Y-36115000D02*
X66459564Y-36115000D01*
%TO.C,R26*%
X15285000Y-26694564D02*
X15285000Y-26240436D01*
X16755000Y-26694564D02*
X16755000Y-26240436D01*
%TD*%
D17*
%TO.C,J11*%
X13810000Y-19900000D03*
X7610000Y-19900000D03*
X10710000Y-24900000D03*
%TD*%
M02*
