%TF.GenerationSoftware,KiCad,Pcbnew,7.0.5.1-1-g8f565ef7f0-dirty-deb11*%
%TF.CreationDate,2023-06-19T19:10:50+00:00*%
%TF.ProjectId,AMFOC01,414d464f-4330-4312-9e6b-696361645f70,rev?*%
%TF.SameCoordinates,Original*%
%TF.FileFunction,Paste,Bot*%
%TF.FilePolarity,Positive*%
%FSLAX46Y46*%
G04 Gerber Fmt 4.6, Leading zero omitted, Abs format (unit mm)*
G04 Created by KiCad (PCBNEW 7.0.5.1-1-g8f565ef7f0-dirty-deb11) date 2023-06-19 19:10:50*
%MOMM*%
%LPD*%
G01*
G04 APERTURE LIST*
G04 Aperture macros list*
%AMRoundRect*
0 Rectangle with rounded corners*
0 $1 Rounding radius*
0 $2 $3 $4 $5 $6 $7 $8 $9 X,Y pos of 4 corners*
0 Add a 4 corners polygon primitive as box body*
4,1,4,$2,$3,$4,$5,$6,$7,$8,$9,$2,$3,0*
0 Add four circle primitives for the rounded corners*
1,1,$1+$1,$2,$3*
1,1,$1+$1,$4,$5*
1,1,$1+$1,$6,$7*
1,1,$1+$1,$8,$9*
0 Add four rect primitives between the rounded corners*
20,1,$1+$1,$2,$3,$4,$5,0*
20,1,$1+$1,$4,$5,$6,$7,0*
20,1,$1+$1,$6,$7,$8,$9,0*
20,1,$1+$1,$8,$9,$2,$3,0*%
G04 Aperture macros list end*
%ADD10R,1.050000X0.650000*%
%ADD11RoundRect,0.087500X0.087500X2.912500X-0.087500X2.912500X-0.087500X-2.912500X0.087500X-2.912500X0*%
G04 APERTURE END LIST*
D10*
%TO.C,SW5*%
X14795000Y-19895000D03*
X10645000Y-19895000D03*
X14770000Y-17745000D03*
X10645000Y-17745000D03*
%TD*%
%TO.C,SW4*%
X10645000Y-26550556D03*
X14795000Y-26550556D03*
X14770000Y-24400556D03*
X10645000Y-24400556D03*
%TD*%
%TO.C,SW2*%
X10645000Y-37711668D03*
X14795000Y-37711668D03*
X10670000Y-39861668D03*
X14795000Y-39861668D03*
%TD*%
D11*
%TO.C,J10*%
X46070000Y-45375000D03*
X45370000Y-45375000D03*
X44670000Y-45375000D03*
X43970000Y-45375000D03*
X43270000Y-45375000D03*
X42570000Y-45375000D03*
X41870000Y-45375000D03*
X41170000Y-45375000D03*
X40470000Y-45375000D03*
X39770000Y-45375000D03*
X39070000Y-45375000D03*
X38370000Y-45375000D03*
X37670000Y-45375000D03*
X36970000Y-45375000D03*
X36270000Y-45375000D03*
X35570000Y-45375000D03*
X34870000Y-45375000D03*
X34170000Y-45375000D03*
X33470000Y-45375000D03*
X32770000Y-45375000D03*
X32070000Y-45375000D03*
X31370000Y-45375000D03*
X30670000Y-45375000D03*
X29970000Y-45375000D03*
X29270000Y-45375000D03*
X28570000Y-45375000D03*
X27870000Y-45375000D03*
X27170000Y-45375000D03*
X26470000Y-45375000D03*
X25770000Y-45375000D03*
%TD*%
D10*
%TO.C,SW3*%
X10645000Y-31056112D03*
X14795000Y-31056112D03*
X14795000Y-33206112D03*
X10670000Y-33206112D03*
%TD*%
M02*
