M48
; DRILL file {KiCad 7.0.5.1-1-g8f565ef7f0-dirty-deb11} date Sun Jun 25 19:17:02 2023
; FORMAT={-:-/ absolute / metric / decimal}
; #@! TF.CreationDate,2023-06-25T19:17:02+00:00
; #@! TF.GenerationSoftware,Kicad,Pcbnew,7.0.5.1-1-g8f565ef7f0-dirty-deb11
; #@! TF.FileFunction,Plated,1,2,PTH
FMAT,2
METRIC
; #@! TA.AperFunction,Plated,PTH,ViaDrill
T1C0.200
; #@! TA.AperFunction,Plated,PTH,ComponentDrill
T2C0.200
; #@! TA.AperFunction,Plated,PTH,ViaDrill
T3C0.300
; #@! TA.AperFunction,Plated,PTH,ViaDrill
T4C0.400
; #@! TA.AperFunction,Plated,PTH,ComponentDrill
T5C0.400
; #@! TA.AperFunction,Plated,PTH,ComponentDrill
T6C0.500
; #@! TA.AperFunction,Plated,PTH,ComponentDrill
T7C0.600
; #@! TA.AperFunction,Plated,PTH,ComponentDrill
T8C0.700
; #@! TA.AperFunction,Plated,PTH,ComponentDrill
T9C0.760
; #@! TA.AperFunction,Plated,PTH,ComponentDrill
T10C1.000
; #@! TA.AperFunction,Plated,PTH,ComponentDrill
T11C1.100
; #@! TA.AperFunction,Plated,PTH,ComponentDrill
T12C2.300
; #@! TA.AperFunction,Plated,PTH,ComponentDrill
T13C2.800
; #@! TA.AperFunction,Plated,PTH,ComponentDrill
T14C3.200
%
G90
G05
T1
X25.42Y-57.78
X27.07Y-58.28
T2
X27.05Y-40.91
X27.05Y-42.035
X27.05Y-43.16
X27.05Y-44.285
X27.05Y-45.41
X28.175Y-40.91
X28.175Y-42.035
X28.175Y-43.16
X28.175Y-44.285
X28.175Y-45.41
X29.3Y-40.91
X29.3Y-42.035
X29.3Y-43.16
X29.3Y-44.285
X29.3Y-45.41
X30.425Y-40.91
X30.425Y-42.035
X30.425Y-43.16
X30.425Y-44.285
X30.425Y-45.41
X31.55Y-40.91
X31.55Y-42.035
X31.55Y-43.16
X31.55Y-44.285
X31.55Y-45.41
T3
X10.72Y-33.48
X11.345Y-41.08
X11.345Y-47.28
X11.72Y-36.98
X11.896Y-43.48
X13.72Y-41.18
X14.12Y-36.68
X14.32Y-47.28
X14.42Y-42.98
X17.82Y-48.68
X22.92Y-41.88
X23.32Y-43.78
X26.78Y-37.694
X27.82Y-52.38
X28.52Y-56.18
X35.72Y-46.98
X35.72Y-45.374
X36.12Y-44.325
X36.449Y-43.751
X37.12Y-45.374
X37.499Y-43.176
X37.698Y-45.078
X39.32Y-48.08
X39.37Y-47.38
X39.492Y-37.112
X39.598Y-46.772
X40.919Y-46.174
X41.52Y-35.28
X42.889Y-49.649
X43.12Y-51.58
X43.145Y-46.836
X43.17Y-52.904
X43.87Y-52.33
X44.069Y-48.905
X44.72Y-26.35
X46.22Y-26.38
X46.72Y-53.28
X49.114Y-50.286
X49.52Y-54.405
X49.62Y-48.755
X49.72Y-53.78
X49.92Y-47.48
X49.945Y-54.98
X50.495Y-46.974
X50.62Y-49.155
X50.632Y-42.325
X50.975Y-48.374
X50.995Y-49.686
X51.62Y-43.374
X52.42Y-53.78
X53.22Y-30.58
X54.12Y-31.48
X55.295Y-40.255
X57.108Y-41.436
X57.694Y-30.905
X58.12Y-31.48
X58.52Y-42.68
X58.6Y-54.66
X60.22Y-43.08
X66.72Y-31.68
T4
X8.32Y-51.48
X11.42Y-51.48
X13.92Y-31.48
X14.52Y-16.28
X14.72Y-44.191
X15.22Y-30.28
X15.62Y-32.58
X15.72Y-16.3
X16.12Y-49.88
X16.52Y-31.58
X16.92Y-42.08
X17.12Y-45.08
X17.12Y-53.98
X18.92Y-40.28
X20.02Y-40.78
X20.02Y-41.98
X20.195Y-46.28
X20.42Y-53.98
X20.82Y-50.18
X20.846Y-39.606
X21.22Y-40.48
X21.92Y-31.78
X21.92Y-50.88
X22.62Y-51.58
X23.02Y-47.18
X23.42Y-53.08
X24.02Y-36.08
X24.02Y-50.58
X25.42Y-28.58
X25.62Y-27.08
X27.2Y-34.26
X27.82Y-36.38
X28.1Y-34.26
X28.6Y-48.96
X28.92Y-29.08
X29.12Y-22.08
X29.5Y-48.96
X30.02Y-23.05
X30.72Y-36.58
X31.02Y-48.95
X31.22Y-26.08
X31.6Y-36.58
X31.79Y-48.95
X32.92Y-46.75
X33.12Y-39.08
X33.82Y-46.75
X34.12Y-35.38
X34.32Y-28.88
X35.32Y-42.08
X38.12Y-28.46
X39.22Y-40.08
X40.42Y-50.88
X40.72Y-20.38
X41.0Y-22.96
X44.22Y-42.28
X44.9Y-43.66
X44.9Y-44.56
X44.9Y-45.46
X44.944Y-47.049
X45.72Y-27.58
X45.8Y-43.66
X45.8Y-44.56
X45.8Y-45.46
X46.025Y-39.869
X46.32Y-54.98
X46.7Y-43.66
X46.7Y-44.56
X46.7Y-45.46
X46.96Y-42.24
X47.4Y-30.26
X47.819Y-24.58
X48.52Y-28.88
X49.12Y-41.08
X50.02Y-18.88
X51.62Y-30.88
X51.932Y-45.23
X52.12Y-51.95
X54.32Y-33.38
X54.52Y-15.78
X55.212Y-9.564
X55.33Y-27.241
X56.32Y-27.381
X56.92Y-28.18
X58.02Y-49.083
X58.22Y-47.48
X60.02Y-19.28
X60.92Y-49.48
X61.82Y-43.68
X61.92Y-36.48
X62.12Y-48.259
X62.52Y-50.829
X64.8Y-33.5
X66.92Y-16.38
X68.62Y-26.68
T5
X53.57Y-7.21
X53.57Y-8.56
X54.42Y-7.21
X54.42Y-8.56
X55.27Y-7.21
X55.27Y-8.56
X56.12Y-7.21
X56.12Y-8.56
X56.97Y-7.21
X56.97Y-8.56
X57.82Y-7.21
X57.82Y-8.56
X58.67Y-7.21
X58.67Y-8.56
X59.52Y-7.21
X59.52Y-8.56
T6
X2.58Y-4.98
X2.58Y-55.78
X3.283Y-3.283
X3.283Y-6.677
X3.283Y-54.083
X3.283Y-57.477
X4.98Y-2.58
X4.98Y-7.38
X4.98Y-53.38
X4.98Y-58.18
X6.677Y-3.283
X6.677Y-6.677
X6.677Y-54.083
X6.677Y-57.477
X7.38Y-4.98
X7.38Y-55.78
X63.54Y-4.98
X63.54Y-55.78
X64.243Y-3.283
X64.243Y-6.677
X64.243Y-54.083
X64.243Y-57.477
X65.94Y-2.58
X65.94Y-7.38
X65.94Y-53.38
X65.94Y-58.18
X67.637Y-3.283
X67.637Y-6.677
X67.637Y-54.083
X67.637Y-57.477
X68.34Y-4.98
X68.34Y-55.78
T8
X68.42Y-12.28
X68.42Y-14.82
T9
X31.16Y-14.279
X32.43Y-16.819
X33.7Y-14.279
X34.97Y-16.819
X36.24Y-14.279
X37.51Y-16.819
T10
X44.12Y-10.24
X44.12Y-12.78
X47.82Y-10.14
X47.82Y-12.68
X67.0Y-40.64
X67.0Y-43.18
X67.0Y-45.72
X67.0Y-48.26
T11
X14.47Y-8.729
X14.47Y-11.229
X21.27Y-8.729
X21.27Y-11.229
T12
X11.12Y-5.729
X17.87Y-4.929
X24.62Y-5.729
T13
X7.61Y-19.9
X10.71Y-24.9
X13.81Y-19.9
T14
X4.98Y-4.98
X4.98Y-55.78
X65.94Y-4.98
X65.94Y-55.78
T7
G00X52.22Y-4.6
M15
G01X52.22Y-3.8
M16
G05
G00X52.22Y-8.33
M15
G01X52.22Y-6.83
M16
G05
G00X60.87Y-4.6
M15
G01X60.87Y-3.8
M16
G05
G00X60.87Y-8.33
M15
G01X60.87Y-6.83
M16
G05
T0
M30
