%TF.GenerationSoftware,KiCad,Pcbnew,7.0.5.1-1-g8f565ef7f0-dirty-deb11*%
%TF.CreationDate,2023-06-19T19:00:14+00:00*%
%TF.ProjectId,AMFOC01,414d464f-4330-4312-9e6b-696361645f70,rev?*%
%TF.SameCoordinates,Original*%
%TF.FileFunction,Soldermask,Bot*%
%TF.FilePolarity,Negative*%
%FSLAX46Y46*%
G04 Gerber Fmt 4.6, Leading zero omitted, Abs format (unit mm)*
G04 Created by KiCad (PCBNEW 7.0.5.1-1-g8f565ef7f0-dirty-deb11) date 2023-06-19 19:00:14*
%MOMM*%
%LPD*%
G01*
G04 APERTURE LIST*
G04 Aperture macros list*
%AMRoundRect*
0 Rectangle with rounded corners*
0 $1 Rounding radius*
0 $2 $3 $4 $5 $6 $7 $8 $9 X,Y pos of 4 corners*
0 Add a 4 corners polygon primitive as box body*
4,1,4,$2,$3,$4,$5,$6,$7,$8,$9,$2,$3,0*
0 Add four circle primitives for the rounded corners*
1,1,$1+$1,$2,$3*
1,1,$1+$1,$4,$5*
1,1,$1+$1,$6,$7*
1,1,$1+$1,$8,$9*
0 Add four rect primitives between the rounded corners*
20,1,$1+$1,$2,$3,$4,$5,0*
20,1,$1+$1,$4,$5,$6,$7,0*
20,1,$1+$1,$6,$7,$8,$9,0*
20,1,$1+$1,$8,$9,$2,$3,0*%
G04 Aperture macros list end*
%ADD10R,1.700000X1.700000*%
%ADD11O,1.700000X1.700000*%
%ADD12C,0.800000*%
%ADD13C,6.400000*%
%ADD14C,3.000000*%
%ADD15RoundRect,0.250001X-0.499999X-0.499999X0.499999X-0.499999X0.499999X0.499999X-0.499999X0.499999X0*%
%ADD16C,1.500000*%
%ADD17C,1.700000*%
%ADD18RoundRect,0.250000X0.600000X-0.600000X0.600000X0.600000X-0.600000X0.600000X-0.600000X-0.600000X0*%
%ADD19C,1.400000*%
%ADD20O,1.400000X1.400000*%
%ADD21C,0.650000*%
%ADD22O,0.900000X1.700000*%
%ADD23O,0.900000X2.400000*%
%ADD24R,1.600000X1.600000*%
%ADD25C,1.600000*%
%ADD26O,2.000000X3.500000*%
%ADD27O,4.000000X2.000000*%
%ADD28R,3.810000X3.810000*%
%ADD29R,1.050000X0.650000*%
%ADD30C,1.000000*%
%ADD31RoundRect,0.087500X0.087500X2.912500X-0.087500X2.912500X-0.087500X-2.912500X0.087500X-2.912500X0*%
G04 APERTURE END LIST*
D10*
%TO.C,J5*%
X39320000Y-12155000D03*
D11*
X39320000Y-9615000D03*
%TD*%
D12*
%TO.C,H4*%
X64342944Y-3382944D03*
X68440000Y-5080000D03*
X63640000Y-5080000D03*
X66040000Y-7480000D03*
D13*
X66040000Y-5080000D03*
D12*
X67737056Y-3382944D03*
X66040000Y-2680000D03*
X64342944Y-6777056D03*
X67737056Y-6777056D03*
%TD*%
D14*
%TO.C,J8*%
X23920000Y-4155000D03*
D15*
X22420000Y-8475000D03*
D16*
X25420000Y-8475000D03*
X22420000Y-11475000D03*
X25420000Y-11475000D03*
%TD*%
D17*
%TO.C,J7*%
X32220000Y-2755000D03*
X34720000Y-2755000D03*
D18*
X32220000Y-12435000D03*
D17*
X34720000Y-12435000D03*
X32220000Y-9935000D03*
X34720000Y-9935000D03*
%TD*%
D19*
%TO.C,TH1*%
X45900000Y-6500000D03*
D20*
X48440000Y-6500000D03*
%TD*%
D10*
%TO.C,J6*%
X67100000Y-38200000D03*
D11*
X67100000Y-35660000D03*
X67100000Y-33120000D03*
X67100000Y-30580000D03*
%TD*%
D21*
%TO.C,J1*%
X59620000Y-7970000D03*
X58770000Y-7970000D03*
X57920000Y-7970000D03*
X57070000Y-7970000D03*
X56220000Y-7970000D03*
X55370000Y-7970000D03*
X54520000Y-7970000D03*
X53670000Y-7970000D03*
X53670000Y-6620000D03*
X54520000Y-6620000D03*
X55370000Y-6620000D03*
X56220000Y-6620000D03*
X57070000Y-6620000D03*
X57920000Y-6620000D03*
X58770000Y-6620000D03*
X59620000Y-6620000D03*
D22*
X52320000Y-3610000D03*
X60970000Y-3610000D03*
D23*
X52320000Y-6990000D03*
X60970000Y-6990000D03*
%TD*%
D12*
%TO.C,H3*%
X6777056Y-6777056D03*
X3382944Y-3382944D03*
D13*
X5080000Y-5080000D03*
D12*
X2680000Y-5080000D03*
X5080000Y-7480000D03*
X7480000Y-5080000D03*
X6777056Y-3382944D03*
X3382944Y-6777056D03*
X5080000Y-2680000D03*
%TD*%
D10*
%TO.C,J9*%
X43000000Y-12150000D03*
D11*
X43000000Y-9610000D03*
%TD*%
D24*
%TO.C,J12*%
X26420000Y12780000D03*
D25*
X29020000Y12780000D03*
X24320000Y12780000D03*
X31120000Y12780000D03*
X24320000Y9980000D03*
X31120000Y9980000D03*
D26*
X34570000Y15630000D03*
D27*
X27720000Y16430000D03*
D26*
X20870000Y15630000D03*
%TD*%
D12*
%TO.C,H1*%
X7480000Y-45720000D03*
X3382944Y-44022944D03*
X5080000Y-43320000D03*
X6777056Y-47417056D03*
X2680000Y-45720000D03*
X6777056Y-44022944D03*
X3382944Y-47417056D03*
D13*
X5080000Y-45720000D03*
D12*
X5080000Y-48120000D03*
%TD*%
D28*
%TO.C,J11*%
X13320000Y-12720000D03*
X13320000Y-6520000D03*
X8320000Y-9620000D03*
%TD*%
D12*
%TO.C,H2*%
X66040000Y-43320000D03*
X68440000Y-45720000D03*
X64342944Y-44022944D03*
X66040000Y-48120000D03*
X64342944Y-47417056D03*
X67737056Y-44022944D03*
X63640000Y-45720000D03*
D13*
X66040000Y-45720000D03*
D12*
X67737056Y-47417056D03*
%TD*%
D29*
%TO.C,SW5*%
X14795000Y-19895000D03*
X10645000Y-19895000D03*
X14770000Y-17745000D03*
X10645000Y-17745000D03*
%TD*%
D30*
%TO.C,J4*%
X57723800Y-40890263D03*
%TD*%
D29*
%TO.C,SW4*%
X10645000Y-26550556D03*
X14795000Y-26550556D03*
X14770000Y-24400556D03*
X10645000Y-24400556D03*
%TD*%
%TO.C,SW2*%
X10645000Y-37711668D03*
X14795000Y-37711668D03*
X10670000Y-39861668D03*
X14795000Y-39861668D03*
%TD*%
D30*
%TO.C,J2*%
X53323800Y-40890263D03*
%TD*%
D31*
%TO.C,J10*%
X46070000Y-45375000D03*
X45370000Y-45375000D03*
X44670000Y-45375000D03*
X43970000Y-45375000D03*
X43270000Y-45375000D03*
X42570000Y-45375000D03*
X41870000Y-45375000D03*
X41170000Y-45375000D03*
X40470000Y-45375000D03*
X39770000Y-45375000D03*
X39070000Y-45375000D03*
X38370000Y-45375000D03*
X37670000Y-45375000D03*
X36970000Y-45375000D03*
X36270000Y-45375000D03*
X35570000Y-45375000D03*
X34870000Y-45375000D03*
X34170000Y-45375000D03*
X33470000Y-45375000D03*
X32770000Y-45375000D03*
X32070000Y-45375000D03*
X31370000Y-45375000D03*
X30670000Y-45375000D03*
X29970000Y-45375000D03*
X29270000Y-45375000D03*
X28570000Y-45375000D03*
X27870000Y-45375000D03*
X27170000Y-45375000D03*
X26470000Y-45375000D03*
X25770000Y-45375000D03*
%TD*%
D29*
%TO.C,SW3*%
X10645000Y-31056112D03*
X14795000Y-31056112D03*
X14795000Y-33206112D03*
X10670000Y-33206112D03*
%TD*%
D30*
%TO.C,J3*%
X55523800Y-40890263D03*
%TD*%
M02*
