%TF.GenerationSoftware,KiCad,Pcbnew,7.0.7-7.0.7~ubuntu23.04.1*%
%TF.CreationDate,2023-08-15T02:38:17+00:00*%
%TF.ProjectId,AMFOC01,414d464f-4330-4312-9e6b-696361645f70,rev?*%
%TF.SameCoordinates,Original*%
%TF.FileFunction,Legend,Bot*%
%TF.FilePolarity,Positive*%
%FSLAX46Y46*%
G04 Gerber Fmt 4.6, Leading zero omitted, Abs format (unit mm)*
G04 Created by KiCad (PCBNEW 7.0.7-7.0.7~ubuntu23.04.1) date 2023-08-15 02:38:17*
%MOMM*%
%LPD*%
G01*
G04 APERTURE LIST*
%ADD10C,0.080000*%
%ADD11C,0.150000*%
%ADD12C,0.300000*%
%ADD13C,0.100000*%
%ADD14C,0.200000*%
%ADD15C,0.120000*%
G04 APERTURE END LIST*
D10*
X55423800Y-51780000D02*
X55423800Y-52980000D01*
D11*
X51120000Y-49680000D02*
X59820000Y-49680000D01*
X59820000Y-54280000D01*
X51120000Y-54280000D01*
X51120000Y-49680000D01*
X65620000Y-39280000D02*
X68420000Y-39280000D01*
X68420000Y-49480000D01*
X65620000Y-49480000D01*
X65620000Y-39280000D01*
X69920000Y-36980000D02*
X68420000Y-39280000D01*
X69920000Y-29980000D02*
X69920000Y-36980000D01*
D12*
G36*
X53229478Y-15347761D02*
G01*
X53311720Y-15430003D01*
X53410137Y-15626838D01*
X53518332Y-16059614D01*
X53518332Y-16606018D01*
X53410137Y-17038794D01*
X53311720Y-17235629D01*
X53229478Y-17317871D01*
X53049589Y-17407816D01*
X52887075Y-17407816D01*
X52707185Y-17317871D01*
X52624943Y-17235629D01*
X52526526Y-17038795D01*
X52418332Y-16606018D01*
X52418332Y-16059614D01*
X52526526Y-15626837D01*
X52624943Y-15430003D01*
X52707186Y-15347760D01*
X52887075Y-15257816D01*
X53049589Y-15257816D01*
X53229478Y-15347761D01*
G37*
G36*
X58246145Y-15347761D02*
G01*
X58432888Y-15534504D01*
X58534999Y-15942947D01*
X58534999Y-16722685D01*
X58432888Y-17131126D01*
X58246144Y-17317872D01*
X58066256Y-17407816D01*
X57670409Y-17407816D01*
X57490519Y-17317871D01*
X57303776Y-17131128D01*
X57201666Y-16722686D01*
X57201666Y-15942946D01*
X57303776Y-15534504D01*
X57490521Y-15347760D01*
X57670409Y-15257816D01*
X58066256Y-15257816D01*
X58246145Y-15347761D01*
G37*
G36*
X48793552Y-16707816D02*
G01*
X48043113Y-16707816D01*
X48418332Y-15582158D01*
X48793552Y-16707816D01*
G37*
G36*
X65476885Y-16707816D02*
G01*
X64726446Y-16707816D01*
X65101665Y-15582158D01*
X65476885Y-16707816D01*
G37*
G36*
X66415287Y-18057816D02*
G01*
X47104711Y-18057816D01*
X47104711Y-17587888D01*
X47454711Y-17587888D01*
X47489435Y-17657337D01*
X47554232Y-17700118D01*
X47631738Y-17704771D01*
X47701187Y-17670047D01*
X47743968Y-17605250D01*
X47943113Y-17007816D01*
X48893552Y-17007816D01*
X49092697Y-17605251D01*
X49135478Y-17670047D01*
X49204927Y-17704771D01*
X49282433Y-17700119D01*
X49347230Y-17657337D01*
X49381954Y-17587888D01*
X49380149Y-17557816D01*
X49784999Y-17557816D01*
X49805095Y-17632816D01*
X49859999Y-17687720D01*
X49934999Y-17707816D01*
X50634999Y-17707816D01*
X51334999Y-17707816D01*
X51409999Y-17687720D01*
X51464903Y-17632816D01*
X51484999Y-17557816D01*
X51464903Y-17482816D01*
X51409999Y-17427912D01*
X51334999Y-17407816D01*
X50784999Y-17407816D01*
X50784999Y-16624483D01*
X52118332Y-16624483D01*
X52123122Y-16642359D01*
X52122811Y-16660863D01*
X52239478Y-17127530D01*
X52247514Y-17142007D01*
X52250835Y-17158232D01*
X52367501Y-17391565D01*
X52383524Y-17409634D01*
X52395599Y-17430549D01*
X52512266Y-17547216D01*
X52533180Y-17559290D01*
X52551250Y-17575314D01*
X52784583Y-17691980D01*
X52818363Y-17698892D01*
X52851665Y-17707816D01*
X53084999Y-17707816D01*
X53118300Y-17698892D01*
X53152081Y-17691980D01*
X53385414Y-17575314D01*
X53403483Y-17559290D01*
X53424398Y-17547216D01*
X53541065Y-17430549D01*
X53553139Y-17409634D01*
X53569163Y-17391565D01*
X53583292Y-17363306D01*
X54456776Y-17363306D01*
X54495599Y-17430549D01*
X54612266Y-17547216D01*
X54642122Y-17564453D01*
X54670898Y-17583453D01*
X55020898Y-17700119D01*
X55045006Y-17701566D01*
X55068332Y-17707816D01*
X55301665Y-17707816D01*
X55324990Y-17701566D01*
X55349099Y-17700119D01*
X55699099Y-17583453D01*
X55727874Y-17564453D01*
X55757731Y-17547216D01*
X55991065Y-17313882D01*
X56003139Y-17292967D01*
X56019163Y-17274898D01*
X56135829Y-17041565D01*
X56139149Y-17025340D01*
X56147186Y-17010863D01*
X56214615Y-16741150D01*
X56901666Y-16741150D01*
X56906456Y-16759026D01*
X56906145Y-16777530D01*
X57022811Y-17244196D01*
X57023443Y-17245334D01*
X57023443Y-17246639D01*
X57042255Y-17279222D01*
X57060497Y-17312083D01*
X57061614Y-17312753D01*
X57062266Y-17313882D01*
X57295600Y-17547216D01*
X57316514Y-17559290D01*
X57334584Y-17575314D01*
X57567917Y-17691980D01*
X57601697Y-17698892D01*
X57634999Y-17707816D01*
X58101666Y-17707816D01*
X58134967Y-17698892D01*
X58168748Y-17691980D01*
X58402081Y-17575314D01*
X58420150Y-17559290D01*
X58441065Y-17547216D01*
X58674398Y-17313882D01*
X58675049Y-17312753D01*
X58676167Y-17312083D01*
X58694408Y-17279222D01*
X58713221Y-17246639D01*
X58713221Y-17245334D01*
X58713853Y-17244196D01*
X58830520Y-16777531D01*
X58830208Y-16759026D01*
X58834999Y-16741150D01*
X58834999Y-15924483D01*
X58830208Y-15906605D01*
X58830520Y-15888102D01*
X58713853Y-15421436D01*
X58713221Y-15420297D01*
X58713221Y-15418993D01*
X58694408Y-15386409D01*
X58676167Y-15353549D01*
X58675049Y-15352878D01*
X58674398Y-15351750D01*
X58441065Y-15118417D01*
X58422703Y-15107816D01*
X59351666Y-15107816D01*
X59371762Y-15182816D01*
X59426666Y-15237720D01*
X59501666Y-15257816D01*
X60518332Y-15257816D01*
X60518332Y-16124483D01*
X59851666Y-16124483D01*
X59776666Y-16144579D01*
X59721762Y-16199483D01*
X59701666Y-16274483D01*
X59721762Y-16349483D01*
X59776666Y-16404387D01*
X59851666Y-16424483D01*
X60518332Y-16424483D01*
X60518332Y-17557816D01*
X60538428Y-17632816D01*
X60593332Y-17687720D01*
X60668332Y-17707816D01*
X60743332Y-17687720D01*
X60798236Y-17632816D01*
X60818332Y-17557816D01*
X61684999Y-17557816D01*
X61705095Y-17632816D01*
X61759999Y-17687720D01*
X61834999Y-17707816D01*
X61909999Y-17687720D01*
X61964903Y-17632816D01*
X61984999Y-17557816D01*
X61984999Y-15783950D01*
X62515738Y-16921249D01*
X62524247Y-16931383D01*
X62528768Y-16943816D01*
X62548824Y-16960655D01*
X62565666Y-16980714D01*
X62578100Y-16985235D01*
X62588233Y-16993743D01*
X62614023Y-16998298D01*
X62638637Y-17007249D01*
X62651665Y-17004947D01*
X62664695Y-17007249D01*
X62689308Y-16998298D01*
X62715099Y-16993743D01*
X62725231Y-16985235D01*
X62737666Y-16980714D01*
X62754506Y-16960656D01*
X62774564Y-16943816D01*
X62779085Y-16931381D01*
X62787593Y-16921249D01*
X63318332Y-15783950D01*
X63318332Y-17557816D01*
X63338428Y-17632816D01*
X63393332Y-17687720D01*
X63468332Y-17707816D01*
X63543332Y-17687720D01*
X63598236Y-17632816D01*
X63610274Y-17587888D01*
X64138044Y-17587888D01*
X64172768Y-17657337D01*
X64237565Y-17700118D01*
X64315071Y-17704771D01*
X64384520Y-17670047D01*
X64427301Y-17605250D01*
X64626446Y-17007816D01*
X65576885Y-17007816D01*
X65776030Y-17605251D01*
X65818811Y-17670047D01*
X65888260Y-17704771D01*
X65965766Y-17700119D01*
X66030563Y-17657337D01*
X66065287Y-17587888D01*
X66060635Y-17510382D01*
X65243969Y-15060382D01*
X65227370Y-15035243D01*
X65213897Y-15008295D01*
X65206240Y-15003239D01*
X65201187Y-14995586D01*
X65174244Y-14982114D01*
X65149100Y-14965513D01*
X65139942Y-14964963D01*
X65131738Y-14960861D01*
X65101666Y-14962665D01*
X65071594Y-14960861D01*
X65063389Y-14964963D01*
X65054232Y-14965513D01*
X65029093Y-14982111D01*
X65002145Y-14995585D01*
X64997090Y-15003241D01*
X64989436Y-15008295D01*
X64975962Y-15035241D01*
X64959364Y-15060382D01*
X64142697Y-17510382D01*
X64138044Y-17587888D01*
X63610274Y-17587888D01*
X63618332Y-17557816D01*
X63618332Y-15107816D01*
X63616603Y-15101363D01*
X63617765Y-15094786D01*
X63606652Y-15064225D01*
X63598236Y-15032816D01*
X63593512Y-15028092D01*
X63591230Y-15021815D01*
X63566323Y-15000903D01*
X63543332Y-14977912D01*
X63536881Y-14976183D01*
X63531765Y-14971888D01*
X63499734Y-14966230D01*
X63468332Y-14957816D01*
X63461882Y-14959544D01*
X63455303Y-14958382D01*
X63424735Y-14969497D01*
X63393332Y-14977912D01*
X63388609Y-14982634D01*
X63382332Y-14984917D01*
X63361422Y-15009821D01*
X63338428Y-15032816D01*
X63336699Y-15039268D01*
X63332405Y-15044383D01*
X62651665Y-16503110D01*
X61970926Y-15044383D01*
X61966631Y-15039268D01*
X61964903Y-15032816D01*
X61941905Y-15009818D01*
X61920999Y-14984918D01*
X61914722Y-14982635D01*
X61909999Y-14977912D01*
X61878585Y-14969494D01*
X61848028Y-14958383D01*
X61841450Y-14959544D01*
X61834999Y-14957816D01*
X61803585Y-14966233D01*
X61771566Y-14971889D01*
X61766451Y-14976183D01*
X61759999Y-14977912D01*
X61737001Y-15000909D01*
X61712101Y-15021816D01*
X61709818Y-15028092D01*
X61705095Y-15032816D01*
X61696677Y-15064229D01*
X61685566Y-15094787D01*
X61686727Y-15101364D01*
X61684999Y-15107816D01*
X61684999Y-17557816D01*
X60818332Y-17557816D01*
X60818332Y-15107816D01*
X60798236Y-15032816D01*
X60743332Y-14977912D01*
X60668332Y-14957816D01*
X59501666Y-14957816D01*
X59426666Y-14977912D01*
X59371762Y-15032816D01*
X59351666Y-15107816D01*
X58422703Y-15107816D01*
X58420150Y-15106342D01*
X58402081Y-15090319D01*
X58168748Y-14973652D01*
X58134967Y-14966739D01*
X58101666Y-14957816D01*
X57634999Y-14957816D01*
X57601698Y-14966738D01*
X57567916Y-14973652D01*
X57334584Y-15090319D01*
X57316515Y-15106341D01*
X57295600Y-15118417D01*
X57062266Y-15351750D01*
X57061614Y-15352878D01*
X57060497Y-15353549D01*
X57042255Y-15386409D01*
X57023443Y-15418993D01*
X57023443Y-15420297D01*
X57022811Y-15421436D01*
X56906145Y-15888103D01*
X56906456Y-15906606D01*
X56901666Y-15924483D01*
X56901666Y-16741150D01*
X56214615Y-16741150D01*
X56263853Y-16544197D01*
X56263541Y-16525693D01*
X56268332Y-16507816D01*
X56268332Y-16157816D01*
X56263541Y-16139939D01*
X56263853Y-16121435D01*
X56147186Y-15654770D01*
X56139148Y-15640292D01*
X56135829Y-15624069D01*
X56019163Y-15390734D01*
X56003141Y-15372666D01*
X55991065Y-15351749D01*
X55757731Y-15118417D01*
X55727874Y-15101179D01*
X55699099Y-15082180D01*
X55349099Y-14965514D01*
X55324993Y-14964066D01*
X55301665Y-14957816D01*
X55068332Y-14957816D01*
X55045003Y-14964066D01*
X55020897Y-14965514D01*
X54670898Y-15082181D01*
X54642125Y-15101177D01*
X54612266Y-15118417D01*
X54495599Y-15235084D01*
X54456776Y-15302327D01*
X54456776Y-15379973D01*
X54495599Y-15447216D01*
X54562842Y-15486039D01*
X54640488Y-15486039D01*
X54707731Y-15447216D01*
X54799359Y-15355587D01*
X55092675Y-15257816D01*
X55277325Y-15257816D01*
X55570637Y-15355587D01*
X55761720Y-15546669D01*
X55860137Y-15743505D01*
X55968332Y-16176280D01*
X55968332Y-16489351D01*
X55860137Y-16922127D01*
X55761720Y-17118962D01*
X55570638Y-17310044D01*
X55277322Y-17407816D01*
X55092675Y-17407816D01*
X54799358Y-17310044D01*
X54707731Y-17218417D01*
X54640488Y-17179594D01*
X54562842Y-17179594D01*
X54495599Y-17218417D01*
X54456776Y-17285660D01*
X54456776Y-17363306D01*
X53583292Y-17363306D01*
X53685829Y-17158232D01*
X53689149Y-17142007D01*
X53697186Y-17127530D01*
X53813853Y-16660864D01*
X53813541Y-16642360D01*
X53818332Y-16624483D01*
X53818332Y-16041150D01*
X53813541Y-16023272D01*
X53813853Y-16004769D01*
X53697186Y-15538103D01*
X53689149Y-15523625D01*
X53685829Y-15507401D01*
X53569163Y-15274068D01*
X53553139Y-15255998D01*
X53541065Y-15235084D01*
X53424398Y-15118417D01*
X53403483Y-15106342D01*
X53385414Y-15090319D01*
X53152081Y-14973652D01*
X53118300Y-14966739D01*
X53084999Y-14957816D01*
X52851665Y-14957816D01*
X52818364Y-14966738D01*
X52784582Y-14973652D01*
X52551250Y-15090319D01*
X52533181Y-15106341D01*
X52512266Y-15118417D01*
X52395599Y-15235084D01*
X52383524Y-15255998D01*
X52367501Y-15274068D01*
X52250835Y-15507401D01*
X52247514Y-15523625D01*
X52239478Y-15538103D01*
X52122811Y-16004770D01*
X52123122Y-16023273D01*
X52118332Y-16041150D01*
X52118332Y-16624483D01*
X50784999Y-16624483D01*
X50784999Y-15586614D01*
X50995600Y-15797216D01*
X51016514Y-15809290D01*
X51034584Y-15825314D01*
X51267917Y-15941980D01*
X51343986Y-15957547D01*
X51417648Y-15932993D01*
X51469163Y-15874898D01*
X51484730Y-15798829D01*
X51460176Y-15725167D01*
X51402081Y-15673652D01*
X51190519Y-15567871D01*
X50984899Y-15362251D01*
X50759807Y-15024611D01*
X50734148Y-15002061D01*
X50709999Y-14977912D01*
X50705209Y-14976628D01*
X50701483Y-14973354D01*
X50667987Y-14966655D01*
X50634999Y-14957816D01*
X50630208Y-14959099D01*
X50625345Y-14958127D01*
X50592989Y-14969072D01*
X50559999Y-14977912D01*
X50556492Y-14981418D01*
X50551794Y-14983008D01*
X50529244Y-15008666D01*
X50505095Y-15032816D01*
X50503811Y-15037605D01*
X50500537Y-15041332D01*
X50493838Y-15074827D01*
X50484999Y-15107816D01*
X50484999Y-17407816D01*
X49934999Y-17407816D01*
X49859999Y-17427912D01*
X49805095Y-17482816D01*
X49784999Y-17557816D01*
X49380149Y-17557816D01*
X49377302Y-17510382D01*
X48560636Y-15060382D01*
X48544037Y-15035243D01*
X48530564Y-15008295D01*
X48522907Y-15003239D01*
X48517854Y-14995586D01*
X48490911Y-14982114D01*
X48465767Y-14965513D01*
X48456609Y-14964963D01*
X48448405Y-14960861D01*
X48418333Y-14962665D01*
X48388261Y-14960861D01*
X48380056Y-14964963D01*
X48370899Y-14965513D01*
X48345760Y-14982111D01*
X48318812Y-14995585D01*
X48313757Y-15003241D01*
X48306103Y-15008295D01*
X48292629Y-15035241D01*
X48276031Y-15060382D01*
X47459364Y-17510382D01*
X47454711Y-17587888D01*
X47104711Y-17587888D01*
X47104711Y-14607816D01*
X66415287Y-14607816D01*
X66415287Y-18057816D01*
G37*
D11*
X69510475Y-31934819D02*
X68939047Y-31934819D01*
X69224761Y-32934819D02*
X69224761Y-31934819D01*
X68700951Y-31934819D02*
X68034285Y-32934819D01*
X68034285Y-31934819D02*
X68700951Y-32934819D01*
X66939047Y-31887200D02*
X67796189Y-33172914D01*
X66653332Y-32887200D02*
X66510475Y-32934819D01*
X66510475Y-32934819D02*
X66272380Y-32934819D01*
X66272380Y-32934819D02*
X66177142Y-32887200D01*
X66177142Y-32887200D02*
X66129523Y-32839580D01*
X66129523Y-32839580D02*
X66081904Y-32744342D01*
X66081904Y-32744342D02*
X66081904Y-32649104D01*
X66081904Y-32649104D02*
X66129523Y-32553866D01*
X66129523Y-32553866D02*
X66177142Y-32506247D01*
X66177142Y-32506247D02*
X66272380Y-32458628D01*
X66272380Y-32458628D02*
X66462856Y-32411009D01*
X66462856Y-32411009D02*
X66558094Y-32363390D01*
X66558094Y-32363390D02*
X66605713Y-32315771D01*
X66605713Y-32315771D02*
X66653332Y-32220533D01*
X66653332Y-32220533D02*
X66653332Y-32125295D01*
X66653332Y-32125295D02*
X66605713Y-32030057D01*
X66605713Y-32030057D02*
X66558094Y-31982438D01*
X66558094Y-31982438D02*
X66462856Y-31934819D01*
X66462856Y-31934819D02*
X66224761Y-31934819D01*
X66224761Y-31934819D02*
X66081904Y-31982438D01*
X65653332Y-32934819D02*
X65653332Y-31934819D01*
X65653332Y-31934819D02*
X65415237Y-31934819D01*
X65415237Y-31934819D02*
X65272380Y-31982438D01*
X65272380Y-31982438D02*
X65177142Y-32077676D01*
X65177142Y-32077676D02*
X65129523Y-32172914D01*
X65129523Y-32172914D02*
X65081904Y-32363390D01*
X65081904Y-32363390D02*
X65081904Y-32506247D01*
X65081904Y-32506247D02*
X65129523Y-32696723D01*
X65129523Y-32696723D02*
X65177142Y-32791961D01*
X65177142Y-32791961D02*
X65272380Y-32887200D01*
X65272380Y-32887200D02*
X65415237Y-32934819D01*
X65415237Y-32934819D02*
X65653332Y-32934819D01*
X64700951Y-32649104D02*
X64224761Y-32649104D01*
X64796189Y-32934819D02*
X64462856Y-31934819D01*
X64462856Y-31934819D02*
X64129523Y-32934819D01*
X68981904Y-30482438D02*
X69077142Y-30434819D01*
X69077142Y-30434819D02*
X69219999Y-30434819D01*
X69219999Y-30434819D02*
X69362856Y-30482438D01*
X69362856Y-30482438D02*
X69458094Y-30577676D01*
X69458094Y-30577676D02*
X69505713Y-30672914D01*
X69505713Y-30672914D02*
X69553332Y-30863390D01*
X69553332Y-30863390D02*
X69553332Y-31006247D01*
X69553332Y-31006247D02*
X69505713Y-31196723D01*
X69505713Y-31196723D02*
X69458094Y-31291961D01*
X69458094Y-31291961D02*
X69362856Y-31387200D01*
X69362856Y-31387200D02*
X69219999Y-31434819D01*
X69219999Y-31434819D02*
X69124761Y-31434819D01*
X69124761Y-31434819D02*
X68981904Y-31387200D01*
X68981904Y-31387200D02*
X68934285Y-31339580D01*
X68934285Y-31339580D02*
X68934285Y-31006247D01*
X68934285Y-31006247D02*
X69124761Y-31006247D01*
X68505713Y-31434819D02*
X68505713Y-30434819D01*
X68505713Y-30434819D02*
X67934285Y-31434819D01*
X67934285Y-31434819D02*
X67934285Y-30434819D01*
X67458094Y-31434819D02*
X67458094Y-30434819D01*
X67458094Y-30434819D02*
X67219999Y-30434819D01*
X67219999Y-30434819D02*
X67077142Y-30482438D01*
X67077142Y-30482438D02*
X66981904Y-30577676D01*
X66981904Y-30577676D02*
X66934285Y-30672914D01*
X66934285Y-30672914D02*
X66886666Y-30863390D01*
X66886666Y-30863390D02*
X66886666Y-31006247D01*
X66886666Y-31006247D02*
X66934285Y-31196723D01*
X66934285Y-31196723D02*
X66981904Y-31291961D01*
X66981904Y-31291961D02*
X67077142Y-31387200D01*
X67077142Y-31387200D02*
X67219999Y-31434819D01*
X67219999Y-31434819D02*
X67458094Y-31434819D01*
D13*
X55029524Y-52806800D02*
X54915238Y-52844895D01*
X54915238Y-52844895D02*
X54724762Y-52844895D01*
X54724762Y-52844895D02*
X54648571Y-52806800D01*
X54648571Y-52806800D02*
X54610476Y-52768704D01*
X54610476Y-52768704D02*
X54572381Y-52692514D01*
X54572381Y-52692514D02*
X54572381Y-52616323D01*
X54572381Y-52616323D02*
X54610476Y-52540133D01*
X54610476Y-52540133D02*
X54648571Y-52502038D01*
X54648571Y-52502038D02*
X54724762Y-52463942D01*
X54724762Y-52463942D02*
X54877143Y-52425847D01*
X54877143Y-52425847D02*
X54953333Y-52387752D01*
X54953333Y-52387752D02*
X54991428Y-52349657D01*
X54991428Y-52349657D02*
X55029524Y-52273466D01*
X55029524Y-52273466D02*
X55029524Y-52197276D01*
X55029524Y-52197276D02*
X54991428Y-52121085D01*
X54991428Y-52121085D02*
X54953333Y-52082990D01*
X54953333Y-52082990D02*
X54877143Y-52044895D01*
X54877143Y-52044895D02*
X54686666Y-52044895D01*
X54686666Y-52044895D02*
X54572381Y-52082990D01*
X54305714Y-52044895D02*
X54115238Y-52844895D01*
X54115238Y-52844895D02*
X53962857Y-52273466D01*
X53962857Y-52273466D02*
X53810476Y-52844895D01*
X53810476Y-52844895D02*
X53620000Y-52044895D01*
X52858094Y-52768704D02*
X52896190Y-52806800D01*
X52896190Y-52806800D02*
X53010475Y-52844895D01*
X53010475Y-52844895D02*
X53086666Y-52844895D01*
X53086666Y-52844895D02*
X53200952Y-52806800D01*
X53200952Y-52806800D02*
X53277142Y-52730609D01*
X53277142Y-52730609D02*
X53315237Y-52654419D01*
X53315237Y-52654419D02*
X53353333Y-52502038D01*
X53353333Y-52502038D02*
X53353333Y-52387752D01*
X53353333Y-52387752D02*
X53315237Y-52235371D01*
X53315237Y-52235371D02*
X53277142Y-52159180D01*
X53277142Y-52159180D02*
X53200952Y-52082990D01*
X53200952Y-52082990D02*
X53086666Y-52044895D01*
X53086666Y-52044895D02*
X53010475Y-52044895D01*
X53010475Y-52044895D02*
X52896190Y-52082990D01*
X52896190Y-52082990D02*
X52858094Y-52121085D01*
X52134285Y-52844895D02*
X52515237Y-52844895D01*
X52515237Y-52844895D02*
X52515237Y-52044895D01*
X51867618Y-52844895D02*
X51867618Y-52044895D01*
X51410475Y-52844895D02*
X51753333Y-52387752D01*
X51410475Y-52044895D02*
X51867618Y-52502038D01*
D14*
X20303332Y-2371004D02*
X20303332Y-1071004D01*
X20303332Y-1071004D02*
X19869998Y-1999576D01*
X19869998Y-1999576D02*
X19436665Y-1071004D01*
X19436665Y-1071004D02*
X19436665Y-2371004D01*
X18631903Y-2371004D02*
X18755713Y-2309100D01*
X18755713Y-2309100D02*
X18817618Y-2247195D01*
X18817618Y-2247195D02*
X18879522Y-2123385D01*
X18879522Y-2123385D02*
X18879522Y-1751957D01*
X18879522Y-1751957D02*
X18817618Y-1628147D01*
X18817618Y-1628147D02*
X18755713Y-1566242D01*
X18755713Y-1566242D02*
X18631903Y-1504338D01*
X18631903Y-1504338D02*
X18446189Y-1504338D01*
X18446189Y-1504338D02*
X18322380Y-1566242D01*
X18322380Y-1566242D02*
X18260475Y-1628147D01*
X18260475Y-1628147D02*
X18198570Y-1751957D01*
X18198570Y-1751957D02*
X18198570Y-2123385D01*
X18198570Y-2123385D02*
X18260475Y-2247195D01*
X18260475Y-2247195D02*
X18322380Y-2309100D01*
X18322380Y-2309100D02*
X18446189Y-2371004D01*
X18446189Y-2371004D02*
X18631903Y-2371004D01*
X17827142Y-1504338D02*
X17331904Y-1504338D01*
X17641428Y-1071004D02*
X17641428Y-2185290D01*
X17641428Y-2185290D02*
X17579523Y-2309100D01*
X17579523Y-2309100D02*
X17455713Y-2371004D01*
X17455713Y-2371004D02*
X17331904Y-2371004D01*
X16712856Y-2371004D02*
X16836666Y-2309100D01*
X16836666Y-2309100D02*
X16898571Y-2247195D01*
X16898571Y-2247195D02*
X16960475Y-2123385D01*
X16960475Y-2123385D02*
X16960475Y-1751957D01*
X16960475Y-1751957D02*
X16898571Y-1628147D01*
X16898571Y-1628147D02*
X16836666Y-1566242D01*
X16836666Y-1566242D02*
X16712856Y-1504338D01*
X16712856Y-1504338D02*
X16527142Y-1504338D01*
X16527142Y-1504338D02*
X16403333Y-1566242D01*
X16403333Y-1566242D02*
X16341428Y-1628147D01*
X16341428Y-1628147D02*
X16279523Y-1751957D01*
X16279523Y-1751957D02*
X16279523Y-2123385D01*
X16279523Y-2123385D02*
X16341428Y-2247195D01*
X16341428Y-2247195D02*
X16403333Y-2309100D01*
X16403333Y-2309100D02*
X16527142Y-2371004D01*
X16527142Y-2371004D02*
X16712856Y-2371004D01*
X15722381Y-2371004D02*
X15722381Y-1504338D01*
X15722381Y-1751957D02*
X15660476Y-1628147D01*
X15660476Y-1628147D02*
X15598571Y-1566242D01*
X15598571Y-1566242D02*
X15474762Y-1504338D01*
X15474762Y-1504338D02*
X15350952Y-1504338D01*
D11*
X68891428Y-34734819D02*
X69224761Y-34258628D01*
X69462856Y-34734819D02*
X69462856Y-33734819D01*
X69462856Y-33734819D02*
X69081904Y-33734819D01*
X69081904Y-33734819D02*
X68986666Y-33782438D01*
X68986666Y-33782438D02*
X68939047Y-33830057D01*
X68939047Y-33830057D02*
X68891428Y-33925295D01*
X68891428Y-33925295D02*
X68891428Y-34068152D01*
X68891428Y-34068152D02*
X68939047Y-34163390D01*
X68939047Y-34163390D02*
X68986666Y-34211009D01*
X68986666Y-34211009D02*
X69081904Y-34258628D01*
X69081904Y-34258628D02*
X69462856Y-34258628D01*
X68558094Y-33734819D02*
X67891428Y-34734819D01*
X67891428Y-33734819D02*
X68558094Y-34734819D01*
X66796190Y-33687200D02*
X67653332Y-34972914D01*
X66510475Y-34687200D02*
X66367618Y-34734819D01*
X66367618Y-34734819D02*
X66129523Y-34734819D01*
X66129523Y-34734819D02*
X66034285Y-34687200D01*
X66034285Y-34687200D02*
X65986666Y-34639580D01*
X65986666Y-34639580D02*
X65939047Y-34544342D01*
X65939047Y-34544342D02*
X65939047Y-34449104D01*
X65939047Y-34449104D02*
X65986666Y-34353866D01*
X65986666Y-34353866D02*
X66034285Y-34306247D01*
X66034285Y-34306247D02*
X66129523Y-34258628D01*
X66129523Y-34258628D02*
X66319999Y-34211009D01*
X66319999Y-34211009D02*
X66415237Y-34163390D01*
X66415237Y-34163390D02*
X66462856Y-34115771D01*
X66462856Y-34115771D02*
X66510475Y-34020533D01*
X66510475Y-34020533D02*
X66510475Y-33925295D01*
X66510475Y-33925295D02*
X66462856Y-33830057D01*
X66462856Y-33830057D02*
X66415237Y-33782438D01*
X66415237Y-33782438D02*
X66319999Y-33734819D01*
X66319999Y-33734819D02*
X66081904Y-33734819D01*
X66081904Y-33734819D02*
X65939047Y-33782438D01*
X64939047Y-34639580D02*
X64986666Y-34687200D01*
X64986666Y-34687200D02*
X65129523Y-34734819D01*
X65129523Y-34734819D02*
X65224761Y-34734819D01*
X65224761Y-34734819D02*
X65367618Y-34687200D01*
X65367618Y-34687200D02*
X65462856Y-34591961D01*
X65462856Y-34591961D02*
X65510475Y-34496723D01*
X65510475Y-34496723D02*
X65558094Y-34306247D01*
X65558094Y-34306247D02*
X65558094Y-34163390D01*
X65558094Y-34163390D02*
X65510475Y-33972914D01*
X65510475Y-33972914D02*
X65462856Y-33877676D01*
X65462856Y-33877676D02*
X65367618Y-33782438D01*
X65367618Y-33782438D02*
X65224761Y-33734819D01*
X65224761Y-33734819D02*
X65129523Y-33734819D01*
X65129523Y-33734819D02*
X64986666Y-33782438D01*
X64986666Y-33782438D02*
X64939047Y-33830057D01*
X64034285Y-34734819D02*
X64510475Y-34734819D01*
X64510475Y-34734819D02*
X64510475Y-33734819D01*
D13*
X59624762Y-52806800D02*
X59510476Y-52844895D01*
X59510476Y-52844895D02*
X59320000Y-52844895D01*
X59320000Y-52844895D02*
X59243809Y-52806800D01*
X59243809Y-52806800D02*
X59205714Y-52768704D01*
X59205714Y-52768704D02*
X59167619Y-52692514D01*
X59167619Y-52692514D02*
X59167619Y-52616323D01*
X59167619Y-52616323D02*
X59205714Y-52540133D01*
X59205714Y-52540133D02*
X59243809Y-52502038D01*
X59243809Y-52502038D02*
X59320000Y-52463942D01*
X59320000Y-52463942D02*
X59472381Y-52425847D01*
X59472381Y-52425847D02*
X59548571Y-52387752D01*
X59548571Y-52387752D02*
X59586666Y-52349657D01*
X59586666Y-52349657D02*
X59624762Y-52273466D01*
X59624762Y-52273466D02*
X59624762Y-52197276D01*
X59624762Y-52197276D02*
X59586666Y-52121085D01*
X59586666Y-52121085D02*
X59548571Y-52082990D01*
X59548571Y-52082990D02*
X59472381Y-52044895D01*
X59472381Y-52044895D02*
X59281904Y-52044895D01*
X59281904Y-52044895D02*
X59167619Y-52082990D01*
X58900952Y-52044895D02*
X58710476Y-52844895D01*
X58710476Y-52844895D02*
X58558095Y-52273466D01*
X58558095Y-52273466D02*
X58405714Y-52844895D01*
X58405714Y-52844895D02*
X58215238Y-52044895D01*
X57491428Y-52082990D02*
X57567618Y-52044895D01*
X57567618Y-52044895D02*
X57681904Y-52044895D01*
X57681904Y-52044895D02*
X57796190Y-52082990D01*
X57796190Y-52082990D02*
X57872380Y-52159180D01*
X57872380Y-52159180D02*
X57910475Y-52235371D01*
X57910475Y-52235371D02*
X57948571Y-52387752D01*
X57948571Y-52387752D02*
X57948571Y-52502038D01*
X57948571Y-52502038D02*
X57910475Y-52654419D01*
X57910475Y-52654419D02*
X57872380Y-52730609D01*
X57872380Y-52730609D02*
X57796190Y-52806800D01*
X57796190Y-52806800D02*
X57681904Y-52844895D01*
X57681904Y-52844895D02*
X57605713Y-52844895D01*
X57605713Y-52844895D02*
X57491428Y-52806800D01*
X57491428Y-52806800D02*
X57453332Y-52768704D01*
X57453332Y-52768704D02*
X57453332Y-52502038D01*
X57453332Y-52502038D02*
X57605713Y-52502038D01*
X57110475Y-52844895D02*
X57110475Y-52044895D01*
X57110475Y-52044895D02*
X56653332Y-52844895D01*
X56653332Y-52844895D02*
X56653332Y-52044895D01*
X56272380Y-52844895D02*
X56272380Y-52044895D01*
X56272380Y-52044895D02*
X56081904Y-52044895D01*
X56081904Y-52044895D02*
X55967618Y-52082990D01*
X55967618Y-52082990D02*
X55891428Y-52159180D01*
X55891428Y-52159180D02*
X55853333Y-52235371D01*
X55853333Y-52235371D02*
X55815237Y-52387752D01*
X55815237Y-52387752D02*
X55815237Y-52502038D01*
X55815237Y-52502038D02*
X55853333Y-52654419D01*
X55853333Y-52654419D02*
X55891428Y-52730609D01*
X55891428Y-52730609D02*
X55967618Y-52806800D01*
X55967618Y-52806800D02*
X56081904Y-52844895D01*
X56081904Y-52844895D02*
X56272380Y-52844895D01*
D11*
X68153332Y-38649104D02*
X67677142Y-38649104D01*
X68248570Y-38934819D02*
X67915237Y-37934819D01*
X67915237Y-37934819D02*
X67581904Y-38934819D01*
X66819999Y-38268152D02*
X66819999Y-38934819D01*
X67248570Y-38268152D02*
X67248570Y-38791961D01*
X67248570Y-38791961D02*
X67200951Y-38887200D01*
X67200951Y-38887200D02*
X67105713Y-38934819D01*
X67105713Y-38934819D02*
X66962856Y-38934819D01*
X66962856Y-38934819D02*
X66867618Y-38887200D01*
X66867618Y-38887200D02*
X66819999Y-38839580D01*
X66439046Y-38934819D02*
X65915237Y-38268152D01*
X66439046Y-38268152D02*
X65915237Y-38934819D01*
X65534284Y-38839580D02*
X65486665Y-38887200D01*
X65486665Y-38887200D02*
X65534284Y-38934819D01*
X65534284Y-38934819D02*
X65581903Y-38887200D01*
X65581903Y-38887200D02*
X65534284Y-38839580D01*
X65534284Y-38839580D02*
X65534284Y-38934819D01*
X62071191Y-58718152D02*
X61890239Y-59384819D01*
X61890239Y-59384819D02*
X61709286Y-58908628D01*
X61709286Y-58908628D02*
X61528334Y-59384819D01*
X61528334Y-59384819D02*
X61347382Y-58718152D01*
X61075953Y-58718152D02*
X60895001Y-59384819D01*
X60895001Y-59384819D02*
X60714048Y-58908628D01*
X60714048Y-58908628D02*
X60533096Y-59384819D01*
X60533096Y-59384819D02*
X60352144Y-58718152D01*
X60080715Y-58718152D02*
X59899763Y-59384819D01*
X59899763Y-59384819D02*
X59718810Y-58908628D01*
X59718810Y-58908628D02*
X59537858Y-59384819D01*
X59537858Y-59384819D02*
X59356906Y-58718152D01*
X58995001Y-59289580D02*
X58949763Y-59337200D01*
X58949763Y-59337200D02*
X58995001Y-59384819D01*
X58995001Y-59384819D02*
X59040239Y-59337200D01*
X59040239Y-59337200D02*
X58995001Y-59289580D01*
X58995001Y-59289580D02*
X58995001Y-59384819D01*
X58135477Y-59384819D02*
X58135477Y-58861009D01*
X58135477Y-58861009D02*
X58180715Y-58765771D01*
X58180715Y-58765771D02*
X58271191Y-58718152D01*
X58271191Y-58718152D02*
X58452144Y-58718152D01*
X58452144Y-58718152D02*
X58542620Y-58765771D01*
X58135477Y-59337200D02*
X58225953Y-59384819D01*
X58225953Y-59384819D02*
X58452144Y-59384819D01*
X58452144Y-59384819D02*
X58542620Y-59337200D01*
X58542620Y-59337200D02*
X58587858Y-59241961D01*
X58587858Y-59241961D02*
X58587858Y-59146723D01*
X58587858Y-59146723D02*
X58542620Y-59051485D01*
X58542620Y-59051485D02*
X58452144Y-59003866D01*
X58452144Y-59003866D02*
X58225953Y-59003866D01*
X58225953Y-59003866D02*
X58135477Y-58956247D01*
X57728334Y-59337200D02*
X57637858Y-59384819D01*
X57637858Y-59384819D02*
X57456906Y-59384819D01*
X57456906Y-59384819D02*
X57366429Y-59337200D01*
X57366429Y-59337200D02*
X57321191Y-59241961D01*
X57321191Y-59241961D02*
X57321191Y-59194342D01*
X57321191Y-59194342D02*
X57366429Y-59099104D01*
X57366429Y-59099104D02*
X57456906Y-59051485D01*
X57456906Y-59051485D02*
X57592620Y-59051485D01*
X57592620Y-59051485D02*
X57683096Y-59003866D01*
X57683096Y-59003866D02*
X57728334Y-58908628D01*
X57728334Y-58908628D02*
X57728334Y-58861009D01*
X57728334Y-58861009D02*
X57683096Y-58765771D01*
X57683096Y-58765771D02*
X57592620Y-58718152D01*
X57592620Y-58718152D02*
X57456906Y-58718152D01*
X57456906Y-58718152D02*
X57366429Y-58765771D01*
X57049762Y-58718152D02*
X56687858Y-58718152D01*
X56914048Y-58384819D02*
X56914048Y-59241961D01*
X56914048Y-59241961D02*
X56868810Y-59337200D01*
X56868810Y-59337200D02*
X56778334Y-59384819D01*
X56778334Y-59384819D02*
X56687858Y-59384819D01*
X56371191Y-59384819D02*
X56371191Y-58718152D01*
X56371191Y-58908628D02*
X56325953Y-58813390D01*
X56325953Y-58813390D02*
X56280715Y-58765771D01*
X56280715Y-58765771D02*
X56190239Y-58718152D01*
X56190239Y-58718152D02*
X56099762Y-58718152D01*
X55647382Y-59384819D02*
X55737858Y-59337200D01*
X55737858Y-59337200D02*
X55783096Y-59289580D01*
X55783096Y-59289580D02*
X55828334Y-59194342D01*
X55828334Y-59194342D02*
X55828334Y-58908628D01*
X55828334Y-58908628D02*
X55783096Y-58813390D01*
X55783096Y-58813390D02*
X55737858Y-58765771D01*
X55737858Y-58765771D02*
X55647382Y-58718152D01*
X55647382Y-58718152D02*
X55511667Y-58718152D01*
X55511667Y-58718152D02*
X55421191Y-58765771D01*
X55421191Y-58765771D02*
X55375953Y-58813390D01*
X55375953Y-58813390D02*
X55330715Y-58908628D01*
X55330715Y-58908628D02*
X55330715Y-59194342D01*
X55330715Y-59194342D02*
X55375953Y-59289580D01*
X55375953Y-59289580D02*
X55421191Y-59337200D01*
X55421191Y-59337200D02*
X55511667Y-59384819D01*
X55511667Y-59384819D02*
X55647382Y-59384819D01*
X54923572Y-59384819D02*
X54923572Y-58718152D01*
X54923572Y-58813390D02*
X54878334Y-58765771D01*
X54878334Y-58765771D02*
X54787858Y-58718152D01*
X54787858Y-58718152D02*
X54652143Y-58718152D01*
X54652143Y-58718152D02*
X54561667Y-58765771D01*
X54561667Y-58765771D02*
X54516429Y-58861009D01*
X54516429Y-58861009D02*
X54516429Y-59384819D01*
X54516429Y-58861009D02*
X54471191Y-58765771D01*
X54471191Y-58765771D02*
X54380715Y-58718152D01*
X54380715Y-58718152D02*
X54245001Y-58718152D01*
X54245001Y-58718152D02*
X54154524Y-58765771D01*
X54154524Y-58765771D02*
X54109286Y-58861009D01*
X54109286Y-58861009D02*
X54109286Y-59384819D01*
X53295000Y-59337200D02*
X53385476Y-59384819D01*
X53385476Y-59384819D02*
X53566429Y-59384819D01*
X53566429Y-59384819D02*
X53656905Y-59337200D01*
X53656905Y-59337200D02*
X53702143Y-59241961D01*
X53702143Y-59241961D02*
X53702143Y-58861009D01*
X53702143Y-58861009D02*
X53656905Y-58765771D01*
X53656905Y-58765771D02*
X53566429Y-58718152D01*
X53566429Y-58718152D02*
X53385476Y-58718152D01*
X53385476Y-58718152D02*
X53295000Y-58765771D01*
X53295000Y-58765771D02*
X53249762Y-58861009D01*
X53249762Y-58861009D02*
X53249762Y-58956247D01*
X53249762Y-58956247D02*
X53702143Y-59051485D01*
X52978333Y-58718152D02*
X52616429Y-58718152D01*
X52842619Y-58384819D02*
X52842619Y-59241961D01*
X52842619Y-59241961D02*
X52797381Y-59337200D01*
X52797381Y-59337200D02*
X52706905Y-59384819D01*
X52706905Y-59384819D02*
X52616429Y-59384819D01*
X51937857Y-59337200D02*
X52028333Y-59384819D01*
X52028333Y-59384819D02*
X52209286Y-59384819D01*
X52209286Y-59384819D02*
X52299762Y-59337200D01*
X52299762Y-59337200D02*
X52345000Y-59241961D01*
X52345000Y-59241961D02*
X52345000Y-58861009D01*
X52345000Y-58861009D02*
X52299762Y-58765771D01*
X52299762Y-58765771D02*
X52209286Y-58718152D01*
X52209286Y-58718152D02*
X52028333Y-58718152D01*
X52028333Y-58718152D02*
X51937857Y-58765771D01*
X51937857Y-58765771D02*
X51892619Y-58861009D01*
X51892619Y-58861009D02*
X51892619Y-58956247D01*
X51892619Y-58956247D02*
X52345000Y-59051485D01*
X51485476Y-59384819D02*
X51485476Y-58718152D01*
X51485476Y-58908628D02*
X51440238Y-58813390D01*
X51440238Y-58813390D02*
X51395000Y-58765771D01*
X51395000Y-58765771D02*
X51304524Y-58718152D01*
X51304524Y-58718152D02*
X51214047Y-58718152D01*
X50942619Y-59337200D02*
X50852143Y-59384819D01*
X50852143Y-59384819D02*
X50671191Y-59384819D01*
X50671191Y-59384819D02*
X50580714Y-59337200D01*
X50580714Y-59337200D02*
X50535476Y-59241961D01*
X50535476Y-59241961D02*
X50535476Y-59194342D01*
X50535476Y-59194342D02*
X50580714Y-59099104D01*
X50580714Y-59099104D02*
X50671191Y-59051485D01*
X50671191Y-59051485D02*
X50806905Y-59051485D01*
X50806905Y-59051485D02*
X50897381Y-59003866D01*
X50897381Y-59003866D02*
X50942619Y-58908628D01*
X50942619Y-58908628D02*
X50942619Y-58861009D01*
X50942619Y-58861009D02*
X50897381Y-58765771D01*
X50897381Y-58765771D02*
X50806905Y-58718152D01*
X50806905Y-58718152D02*
X50671191Y-58718152D01*
X50671191Y-58718152D02*
X50580714Y-58765771D01*
X50128333Y-59289580D02*
X50083095Y-59337200D01*
X50083095Y-59337200D02*
X50128333Y-59384819D01*
X50128333Y-59384819D02*
X50173571Y-59337200D01*
X50173571Y-59337200D02*
X50128333Y-59289580D01*
X50128333Y-59289580D02*
X50128333Y-59384819D01*
X49314047Y-59337200D02*
X49404523Y-59384819D01*
X49404523Y-59384819D02*
X49585476Y-59384819D01*
X49585476Y-59384819D02*
X49675952Y-59337200D01*
X49675952Y-59337200D02*
X49721190Y-59241961D01*
X49721190Y-59241961D02*
X49721190Y-58861009D01*
X49721190Y-58861009D02*
X49675952Y-58765771D01*
X49675952Y-58765771D02*
X49585476Y-58718152D01*
X49585476Y-58718152D02*
X49404523Y-58718152D01*
X49404523Y-58718152D02*
X49314047Y-58765771D01*
X49314047Y-58765771D02*
X49268809Y-58861009D01*
X49268809Y-58861009D02*
X49268809Y-58956247D01*
X49268809Y-58956247D02*
X49721190Y-59051485D01*
X48454523Y-58718152D02*
X48454523Y-59384819D01*
X48861666Y-58718152D02*
X48861666Y-59241961D01*
X48861666Y-59241961D02*
X48816428Y-59337200D01*
X48816428Y-59337200D02*
X48725952Y-59384819D01*
X48725952Y-59384819D02*
X48590237Y-59384819D01*
X48590237Y-59384819D02*
X48499761Y-59337200D01*
X48499761Y-59337200D02*
X48454523Y-59289580D01*
X47956904Y-59337200D02*
X47956904Y-59384819D01*
X47956904Y-59384819D02*
X48002142Y-59480057D01*
X48002142Y-59480057D02*
X48047380Y-59527676D01*
X46871189Y-58480057D02*
X46825951Y-58432438D01*
X46825951Y-58432438D02*
X46735475Y-58384819D01*
X46735475Y-58384819D02*
X46509284Y-58384819D01*
X46509284Y-58384819D02*
X46418808Y-58432438D01*
X46418808Y-58432438D02*
X46373570Y-58480057D01*
X46373570Y-58480057D02*
X46328332Y-58575295D01*
X46328332Y-58575295D02*
X46328332Y-58670533D01*
X46328332Y-58670533D02*
X46373570Y-58813390D01*
X46373570Y-58813390D02*
X46916427Y-59384819D01*
X46916427Y-59384819D02*
X46328332Y-59384819D01*
X45740237Y-58384819D02*
X45649760Y-58384819D01*
X45649760Y-58384819D02*
X45559284Y-58432438D01*
X45559284Y-58432438D02*
X45514046Y-58480057D01*
X45514046Y-58480057D02*
X45468808Y-58575295D01*
X45468808Y-58575295D02*
X45423570Y-58765771D01*
X45423570Y-58765771D02*
X45423570Y-59003866D01*
X45423570Y-59003866D02*
X45468808Y-59194342D01*
X45468808Y-59194342D02*
X45514046Y-59289580D01*
X45514046Y-59289580D02*
X45559284Y-59337200D01*
X45559284Y-59337200D02*
X45649760Y-59384819D01*
X45649760Y-59384819D02*
X45740237Y-59384819D01*
X45740237Y-59384819D02*
X45830713Y-59337200D01*
X45830713Y-59337200D02*
X45875951Y-59289580D01*
X45875951Y-59289580D02*
X45921189Y-59194342D01*
X45921189Y-59194342D02*
X45966427Y-59003866D01*
X45966427Y-59003866D02*
X45966427Y-58765771D01*
X45966427Y-58765771D02*
X45921189Y-58575295D01*
X45921189Y-58575295D02*
X45875951Y-58480057D01*
X45875951Y-58480057D02*
X45830713Y-58432438D01*
X45830713Y-58432438D02*
X45740237Y-58384819D01*
X45061665Y-58480057D02*
X45016427Y-58432438D01*
X45016427Y-58432438D02*
X44925951Y-58384819D01*
X44925951Y-58384819D02*
X44699760Y-58384819D01*
X44699760Y-58384819D02*
X44609284Y-58432438D01*
X44609284Y-58432438D02*
X44564046Y-58480057D01*
X44564046Y-58480057D02*
X44518808Y-58575295D01*
X44518808Y-58575295D02*
X44518808Y-58670533D01*
X44518808Y-58670533D02*
X44564046Y-58813390D01*
X44564046Y-58813390D02*
X45106903Y-59384819D01*
X45106903Y-59384819D02*
X44518808Y-59384819D01*
X44202141Y-58384819D02*
X43614046Y-58384819D01*
X43614046Y-58384819D02*
X43930713Y-58765771D01*
X43930713Y-58765771D02*
X43794998Y-58765771D01*
X43794998Y-58765771D02*
X43704522Y-58813390D01*
X43704522Y-58813390D02*
X43659284Y-58861009D01*
X43659284Y-58861009D02*
X43614046Y-58956247D01*
X43614046Y-58956247D02*
X43614046Y-59194342D01*
X43614046Y-59194342D02*
X43659284Y-59289580D01*
X43659284Y-59289580D02*
X43704522Y-59337200D01*
X43704522Y-59337200D02*
X43794998Y-59384819D01*
X43794998Y-59384819D02*
X44066427Y-59384819D01*
X44066427Y-59384819D02*
X44156903Y-59337200D01*
X44156903Y-59337200D02*
X44202141Y-59289580D01*
G36*
X47567270Y-19650259D02*
G01*
X47604739Y-19682229D01*
X47643857Y-19748982D01*
X47643857Y-19993987D01*
X47604739Y-20060740D01*
X47567269Y-20092711D01*
X47480288Y-20129819D01*
X47287712Y-20129819D01*
X47235762Y-20107656D01*
X47235762Y-19635314D01*
X47287712Y-19613152D01*
X47480288Y-19613152D01*
X47567270Y-19650259D01*
G37*
G36*
X49028856Y-19892850D02*
G01*
X49030992Y-19892965D01*
X49032634Y-19894343D01*
X49058286Y-19898866D01*
X49322003Y-19898866D01*
X49396757Y-19930757D01*
X49429762Y-19987077D01*
X49429762Y-20041604D01*
X49396757Y-20097928D01*
X49322003Y-20129819D01*
X49073617Y-20129819D01*
X49021667Y-20107656D01*
X49021667Y-19889783D01*
X49028856Y-19892850D01*
G37*
G36*
X50413556Y-19650259D02*
G01*
X50451025Y-19682229D01*
X50490143Y-19748982D01*
X50490143Y-19993987D01*
X50451025Y-20060740D01*
X50413555Y-20092711D01*
X50326574Y-20129819D01*
X50189808Y-20129819D01*
X50102823Y-20092709D01*
X50065356Y-20060741D01*
X50026239Y-19993986D01*
X50026239Y-19748983D01*
X50065356Y-19682229D01*
X50102823Y-19650261D01*
X50189808Y-19613152D01*
X50326574Y-19613152D01*
X50413556Y-19650259D01*
G37*
G36*
X51494715Y-19635314D02*
G01*
X51494715Y-20107656D01*
X51442765Y-20129819D01*
X51250189Y-20129819D01*
X51163204Y-20092709D01*
X51125737Y-20060741D01*
X51086620Y-19993986D01*
X51086620Y-19748983D01*
X51125737Y-19682229D01*
X51163204Y-19650261D01*
X51250189Y-19613152D01*
X51442765Y-19613152D01*
X51494715Y-19635314D01*
G37*
G36*
X54041175Y-19650259D02*
G01*
X54078644Y-19682229D01*
X54117762Y-19748982D01*
X54117762Y-19993987D01*
X54078644Y-20060740D01*
X54041174Y-20092711D01*
X53954193Y-20129819D01*
X53817427Y-20129819D01*
X53730442Y-20092709D01*
X53692975Y-20060741D01*
X53653858Y-19993986D01*
X53653858Y-19748983D01*
X53692975Y-19682229D01*
X53730442Y-19650261D01*
X53817427Y-19613152D01*
X53954193Y-19613152D01*
X54041175Y-19650259D01*
G37*
G36*
X57557175Y-19650259D02*
G01*
X57594644Y-19682229D01*
X57633762Y-19748982D01*
X57633762Y-19993987D01*
X57594644Y-20060740D01*
X57557174Y-20092711D01*
X57470193Y-20129819D01*
X57333427Y-20129819D01*
X57246442Y-20092709D01*
X57208975Y-20060741D01*
X57169858Y-19993986D01*
X57169858Y-19748983D01*
X57208975Y-19682229D01*
X57246442Y-19650261D01*
X57333427Y-19613152D01*
X57470193Y-19613152D01*
X57557175Y-19650259D01*
G37*
G36*
X61228375Y-19645043D02*
G01*
X61261380Y-19701363D01*
X61261380Y-19782602D01*
X60853285Y-19712961D01*
X60853285Y-19701365D01*
X60886289Y-19645044D01*
X60961045Y-19613152D01*
X61153621Y-19613152D01*
X61228375Y-19645043D01*
G37*
G36*
X65258888Y-19650259D02*
G01*
X65296357Y-19682229D01*
X65335475Y-19748982D01*
X65335475Y-19993987D01*
X65296357Y-20060740D01*
X65258887Y-20092711D01*
X65171906Y-20129819D01*
X65035140Y-20129819D01*
X64948155Y-20092709D01*
X64910688Y-20060741D01*
X64871571Y-19993986D01*
X64871571Y-19748983D01*
X64910688Y-19682229D01*
X64948155Y-19650261D01*
X65035140Y-19613152D01*
X65171906Y-19613152D01*
X65258888Y-19650259D01*
G37*
G36*
X66577094Y-20422676D02*
G01*
X46942905Y-20422676D01*
X46942905Y-20204819D01*
X47085762Y-20204819D01*
X47103309Y-20253028D01*
X47147738Y-20278680D01*
X47198262Y-20269771D01*
X47207550Y-20258700D01*
X47242951Y-20273803D01*
X47245087Y-20273918D01*
X47246729Y-20275296D01*
X47272381Y-20279819D01*
X47495619Y-20279819D01*
X47497631Y-20279086D01*
X47499680Y-20279709D01*
X47525049Y-20273804D01*
X47636668Y-20226185D01*
X47638405Y-20224559D01*
X47655919Y-20214254D01*
X47711729Y-20166634D01*
X47712208Y-20165786D01*
X47727756Y-20147499D01*
X47783565Y-20052261D01*
X47784826Y-20045365D01*
X47789334Y-20039994D01*
X47793857Y-20014342D01*
X47793857Y-19728628D01*
X47791459Y-19722040D01*
X47792632Y-19715128D01*
X47783565Y-19690709D01*
X47727756Y-19595471D01*
X47727007Y-19594850D01*
X47711728Y-19576335D01*
X47655919Y-19528717D01*
X47653690Y-19527885D01*
X47649462Y-19525128D01*
X47979854Y-19525128D01*
X47988763Y-19575652D01*
X48028063Y-19608629D01*
X48053715Y-19613152D01*
X48150003Y-19613152D01*
X48236985Y-19650259D01*
X48274453Y-19682229D01*
X48313572Y-19748984D01*
X48313572Y-20204819D01*
X48331119Y-20253028D01*
X48375548Y-20278680D01*
X48426072Y-20269771D01*
X48459049Y-20230471D01*
X48463572Y-20204819D01*
X48871667Y-20204819D01*
X48889214Y-20253028D01*
X48933643Y-20278680D01*
X48984167Y-20269771D01*
X48993455Y-20258700D01*
X49028856Y-20273803D01*
X49030992Y-20273918D01*
X49032634Y-20275296D01*
X49058286Y-20279819D01*
X49337334Y-20279819D01*
X49339346Y-20279086D01*
X49341395Y-20279709D01*
X49366764Y-20273804D01*
X49478383Y-20226185D01*
X49486420Y-20218662D01*
X49496790Y-20214964D01*
X49513662Y-20195118D01*
X49569470Y-20099880D01*
X49570731Y-20092984D01*
X49575239Y-20087613D01*
X49579762Y-20061961D01*
X49579762Y-20014342D01*
X49876239Y-20014342D01*
X49878636Y-20020929D01*
X49877464Y-20027842D01*
X49886531Y-20052261D01*
X49942340Y-20147498D01*
X49943088Y-20148117D01*
X49958367Y-20166634D01*
X50014177Y-20214254D01*
X50016405Y-20215085D01*
X50033428Y-20226185D01*
X50145047Y-20273803D01*
X50147183Y-20273918D01*
X50148825Y-20275296D01*
X50174477Y-20279819D01*
X50341905Y-20279819D01*
X50343917Y-20279086D01*
X50345966Y-20279709D01*
X50371335Y-20273804D01*
X50482954Y-20226185D01*
X50484691Y-20224559D01*
X50502205Y-20214254D01*
X50558015Y-20166634D01*
X50558494Y-20165786D01*
X50574042Y-20147499D01*
X50629851Y-20052261D01*
X50631112Y-20045365D01*
X50635620Y-20039994D01*
X50640143Y-20014342D01*
X50936620Y-20014342D01*
X50939017Y-20020929D01*
X50937845Y-20027842D01*
X50946912Y-20052261D01*
X51002721Y-20147498D01*
X51003469Y-20148117D01*
X51018748Y-20166634D01*
X51074558Y-20214254D01*
X51076786Y-20215085D01*
X51093809Y-20226185D01*
X51205428Y-20273803D01*
X51207564Y-20273918D01*
X51209206Y-20275296D01*
X51234858Y-20279819D01*
X51458096Y-20279819D01*
X51460108Y-20279086D01*
X51462157Y-20279709D01*
X51487526Y-20273804D01*
X51522444Y-20258907D01*
X51556691Y-20278680D01*
X51607215Y-20269771D01*
X51640192Y-20230471D01*
X51641717Y-20221823D01*
X52836095Y-20221823D01*
X52864116Y-20264799D01*
X52913204Y-20279709D01*
X52938573Y-20273804D01*
X53050192Y-20226185D01*
X53058229Y-20218662D01*
X53068599Y-20214964D01*
X53085470Y-20195119D01*
X53141280Y-20099880D01*
X53142541Y-20092984D01*
X53147049Y-20087613D01*
X53151572Y-20061961D01*
X53151572Y-20014342D01*
X53503858Y-20014342D01*
X53506255Y-20020929D01*
X53505083Y-20027842D01*
X53514150Y-20052261D01*
X53569959Y-20147498D01*
X53570707Y-20148117D01*
X53585986Y-20166634D01*
X53641796Y-20214254D01*
X53644024Y-20215085D01*
X53661047Y-20226185D01*
X53772666Y-20273803D01*
X53774802Y-20273918D01*
X53776444Y-20275296D01*
X53802096Y-20279819D01*
X53969524Y-20279819D01*
X53971536Y-20279086D01*
X53973585Y-20279709D01*
X53998954Y-20273804D01*
X54110573Y-20226185D01*
X54112310Y-20224559D01*
X54129824Y-20214254D01*
X54185634Y-20166634D01*
X54186113Y-20165786D01*
X54201661Y-20147499D01*
X54257470Y-20052261D01*
X54258731Y-20045365D01*
X54263239Y-20039994D01*
X54267762Y-20014342D01*
X54267762Y-19728628D01*
X54265364Y-19722040D01*
X54266537Y-19715128D01*
X54257470Y-19690709D01*
X54201661Y-19595471D01*
X54200912Y-19594850D01*
X54185633Y-19576335D01*
X54129824Y-19528717D01*
X54127595Y-19527885D01*
X54123367Y-19525128D01*
X54453759Y-19525128D01*
X54462668Y-19575652D01*
X54501968Y-19608629D01*
X54527620Y-19613152D01*
X54623908Y-19613152D01*
X54710890Y-19650259D01*
X54748358Y-19682229D01*
X54787477Y-19748984D01*
X54787477Y-20204819D01*
X54805024Y-20253028D01*
X54849453Y-20278680D01*
X54899977Y-20269771D01*
X54932954Y-20230471D01*
X54937477Y-20204819D01*
X54937477Y-20191795D01*
X55179282Y-20191795D01*
X55188191Y-20242319D01*
X55227491Y-20275296D01*
X55253143Y-20279819D01*
X55364762Y-20279819D01*
X55366774Y-20279086D01*
X55368823Y-20279709D01*
X55394192Y-20273804D01*
X55505811Y-20226185D01*
X55513848Y-20218662D01*
X55524218Y-20214964D01*
X55532843Y-20204819D01*
X56015286Y-20204819D01*
X56032833Y-20253028D01*
X56077262Y-20278680D01*
X56127786Y-20269771D01*
X56160763Y-20230471D01*
X56165286Y-20204819D01*
X56165286Y-19701365D01*
X56198290Y-19645044D01*
X56273046Y-19613152D01*
X56409812Y-19613152D01*
X56496794Y-19650259D01*
X56517572Y-19667987D01*
X56517572Y-20204819D01*
X56535119Y-20253028D01*
X56579548Y-20278680D01*
X56630072Y-20269771D01*
X56663049Y-20230471D01*
X56667572Y-20204819D01*
X56667572Y-20014342D01*
X57019858Y-20014342D01*
X57022255Y-20020929D01*
X57021083Y-20027842D01*
X57030150Y-20052261D01*
X57085959Y-20147498D01*
X57086707Y-20148117D01*
X57101986Y-20166634D01*
X57157796Y-20214254D01*
X57160024Y-20215085D01*
X57177047Y-20226185D01*
X57288666Y-20273803D01*
X57290802Y-20273918D01*
X57292444Y-20275296D01*
X57318096Y-20279819D01*
X57485524Y-20279819D01*
X57487536Y-20279086D01*
X57489585Y-20279709D01*
X57514954Y-20273804D01*
X57626573Y-20226185D01*
X57628310Y-20224559D01*
X57645824Y-20214254D01*
X57701634Y-20166634D01*
X57701876Y-20166205D01*
X58080780Y-20166205D01*
X58103988Y-20211958D01*
X58125808Y-20226185D01*
X58237427Y-20273803D01*
X58239563Y-20273918D01*
X58241205Y-20275296D01*
X58266857Y-20279819D01*
X58490095Y-20279819D01*
X58492107Y-20279086D01*
X58494156Y-20279709D01*
X58519525Y-20273804D01*
X58631144Y-20226185D01*
X58632881Y-20224559D01*
X58650395Y-20214254D01*
X58706205Y-20166634D01*
X58706684Y-20165786D01*
X58722232Y-20147499D01*
X58778041Y-20052261D01*
X58779302Y-20045365D01*
X58783810Y-20039994D01*
X58788333Y-20014342D01*
X58788333Y-19728628D01*
X58785935Y-19722040D01*
X58787108Y-19715128D01*
X58778041Y-19690709D01*
X58722232Y-19595471D01*
X58721483Y-19594850D01*
X58706204Y-19576335D01*
X58650395Y-19528717D01*
X58648166Y-19527885D01*
X58643938Y-19525128D01*
X59867282Y-19525128D01*
X59876191Y-19575652D01*
X59915491Y-19608629D01*
X59941143Y-19613152D01*
X60037431Y-19613152D01*
X60124413Y-19650259D01*
X60161881Y-19682229D01*
X60201000Y-19748984D01*
X60201000Y-20204819D01*
X60218547Y-20253028D01*
X60262976Y-20278680D01*
X60313500Y-20269771D01*
X60346477Y-20230471D01*
X60351000Y-20204819D01*
X60351000Y-19776247D01*
X60703285Y-19776247D01*
X60707875Y-19788860D01*
X60707950Y-19802287D01*
X60716378Y-19812219D01*
X60720832Y-19824456D01*
X60732455Y-19831167D01*
X60741143Y-19841405D01*
X60764915Y-19849908D01*
X60765261Y-19850108D01*
X60765403Y-19850082D01*
X60765669Y-19850178D01*
X61261380Y-19934770D01*
X61261380Y-20041604D01*
X61228375Y-20097928D01*
X61153621Y-20129819D01*
X60961045Y-20129819D01*
X60863525Y-20088215D01*
X60812297Y-20085438D01*
X60771269Y-20116237D01*
X60759637Y-20166205D01*
X60782845Y-20211958D01*
X60804665Y-20226185D01*
X60916284Y-20273803D01*
X60918420Y-20273918D01*
X60920062Y-20275296D01*
X60945714Y-20279819D01*
X61168952Y-20279819D01*
X61170964Y-20279086D01*
X61173013Y-20279709D01*
X61198382Y-20273804D01*
X61310001Y-20226185D01*
X61318038Y-20218662D01*
X61328408Y-20214964D01*
X61345280Y-20195118D01*
X61401088Y-20099880D01*
X61402349Y-20092984D01*
X61406857Y-20087613D01*
X61411380Y-20061961D01*
X61707857Y-20061961D01*
X61710254Y-20068548D01*
X61709082Y-20075461D01*
X61718148Y-20099879D01*
X61773957Y-20195118D01*
X61782435Y-20202139D01*
X61787416Y-20211958D01*
X61809236Y-20226185D01*
X61920855Y-20273803D01*
X61922991Y-20273918D01*
X61924633Y-20275296D01*
X61950285Y-20279819D01*
X62173523Y-20279819D01*
X62175535Y-20279086D01*
X62177584Y-20279709D01*
X62202953Y-20273804D01*
X62314572Y-20226185D01*
X62337401Y-20204819D01*
X62712428Y-20204819D01*
X62729975Y-20253028D01*
X62774404Y-20278680D01*
X62824928Y-20269771D01*
X62848929Y-20241168D01*
X62925427Y-20273803D01*
X62927563Y-20273918D01*
X62929205Y-20275296D01*
X62954857Y-20279819D01*
X63122285Y-20279819D01*
X63124297Y-20279086D01*
X63126346Y-20279709D01*
X63151715Y-20273804D01*
X63263334Y-20226185D01*
X63271371Y-20218662D01*
X63281741Y-20214964D01*
X63298612Y-20195119D01*
X63315556Y-20166205D01*
X63717541Y-20166205D01*
X63740749Y-20211958D01*
X63762569Y-20226185D01*
X63874188Y-20273803D01*
X63876324Y-20273918D01*
X63877966Y-20275296D01*
X63903618Y-20279819D01*
X64126856Y-20279819D01*
X64128868Y-20279086D01*
X64130917Y-20279709D01*
X64156286Y-20273804D01*
X64267905Y-20226185D01*
X64269642Y-20224559D01*
X64287156Y-20214254D01*
X64342966Y-20166634D01*
X64343445Y-20165786D01*
X64358993Y-20147499D01*
X64414802Y-20052261D01*
X64416063Y-20045365D01*
X64420571Y-20039994D01*
X64425094Y-20014342D01*
X64721571Y-20014342D01*
X64723968Y-20020929D01*
X64722796Y-20027842D01*
X64731863Y-20052261D01*
X64787672Y-20147498D01*
X64788420Y-20148117D01*
X64803699Y-20166634D01*
X64859509Y-20214254D01*
X64861737Y-20215085D01*
X64878760Y-20226185D01*
X64990379Y-20273803D01*
X64992515Y-20273918D01*
X64994157Y-20275296D01*
X65019809Y-20279819D01*
X65187237Y-20279819D01*
X65189249Y-20279086D01*
X65191298Y-20279709D01*
X65216667Y-20273804D01*
X65328286Y-20226185D01*
X65330023Y-20224559D01*
X65347537Y-20214254D01*
X65403347Y-20166634D01*
X65403826Y-20165786D01*
X65419374Y-20147499D01*
X65475183Y-20052261D01*
X65476444Y-20045365D01*
X65480952Y-20039994D01*
X65485475Y-20014342D01*
X65485475Y-19728628D01*
X65483077Y-19722040D01*
X65484250Y-19715128D01*
X65475183Y-19690709D01*
X65419374Y-19595471D01*
X65418625Y-19594850D01*
X65403346Y-19576335D01*
X65347537Y-19528717D01*
X65345308Y-19527885D01*
X65328286Y-19516786D01*
X65216667Y-19469167D01*
X65214528Y-19469051D01*
X65212889Y-19467675D01*
X65187237Y-19463152D01*
X65019809Y-19463152D01*
X65017796Y-19463884D01*
X65015748Y-19463262D01*
X64990379Y-19469168D01*
X64878760Y-19516786D01*
X64877021Y-19518413D01*
X64859509Y-19528717D01*
X64803699Y-19576336D01*
X64803218Y-19577183D01*
X64787672Y-19595472D01*
X64731863Y-19690709D01*
X64730601Y-19697604D01*
X64726094Y-19702976D01*
X64721571Y-19728628D01*
X64721571Y-20014342D01*
X64425094Y-20014342D01*
X64425094Y-19728628D01*
X64422696Y-19722040D01*
X64423869Y-19715128D01*
X64414802Y-19690709D01*
X64358993Y-19595471D01*
X64358244Y-19594850D01*
X64342965Y-19576335D01*
X64287156Y-19528717D01*
X64284927Y-19527885D01*
X64267905Y-19516786D01*
X64156286Y-19469167D01*
X64154147Y-19469051D01*
X64152508Y-19467675D01*
X64126856Y-19463152D01*
X63903618Y-19463152D01*
X63901605Y-19463884D01*
X63899557Y-19463262D01*
X63874188Y-19469168D01*
X63762569Y-19516786D01*
X63725112Y-19551843D01*
X63718951Y-19602775D01*
X63746972Y-19645751D01*
X63796060Y-19660661D01*
X63821429Y-19654756D01*
X63918949Y-19613152D01*
X64111525Y-19613152D01*
X64198507Y-19650259D01*
X64235976Y-19682229D01*
X64275094Y-19748982D01*
X64275094Y-19993987D01*
X64235976Y-20060740D01*
X64198506Y-20092711D01*
X64111525Y-20129819D01*
X63918949Y-20129819D01*
X63821429Y-20088215D01*
X63770201Y-20085438D01*
X63729173Y-20116237D01*
X63717541Y-20166205D01*
X63315556Y-20166205D01*
X63354422Y-20099880D01*
X63355683Y-20092984D01*
X63360191Y-20087613D01*
X63364714Y-20061961D01*
X63364714Y-19538152D01*
X63347167Y-19489943D01*
X63302738Y-19464291D01*
X63252214Y-19473200D01*
X63219237Y-19512500D01*
X63214714Y-19538152D01*
X63214714Y-20041605D01*
X63181708Y-20097927D01*
X63106954Y-20129819D01*
X62970188Y-20129819D01*
X62883203Y-20092709D01*
X62862428Y-20074982D01*
X62862428Y-19538152D01*
X62844881Y-19489943D01*
X62800452Y-19464291D01*
X62749928Y-19473200D01*
X62716951Y-19512500D01*
X62712428Y-19538152D01*
X62712428Y-20204819D01*
X62337401Y-20204819D01*
X62352029Y-20191128D01*
X62358189Y-20140196D01*
X62330169Y-20097220D01*
X62281081Y-20082310D01*
X62255712Y-20088216D01*
X62158192Y-20129819D01*
X61965616Y-20129819D01*
X61890860Y-20097926D01*
X61857857Y-20041604D01*
X61857857Y-20034697D01*
X61890860Y-19978377D01*
X61965616Y-19946485D01*
X62117714Y-19946485D01*
X62119726Y-19945752D01*
X62121775Y-19946375D01*
X62147144Y-19940470D01*
X62258763Y-19892851D01*
X62266800Y-19885328D01*
X62277170Y-19881630D01*
X62294041Y-19861785D01*
X62349850Y-19766547D01*
X62351111Y-19759651D01*
X62355619Y-19754280D01*
X62360142Y-19728628D01*
X62360142Y-19681009D01*
X62357744Y-19674421D01*
X62358917Y-19667509D01*
X62349850Y-19643090D01*
X62294041Y-19547852D01*
X62285562Y-19540831D01*
X62280583Y-19531013D01*
X62258763Y-19516786D01*
X62147144Y-19469167D01*
X62145005Y-19469051D01*
X62143366Y-19467675D01*
X62117714Y-19463152D01*
X61950285Y-19463152D01*
X61948272Y-19463884D01*
X61946224Y-19463262D01*
X61920855Y-19469168D01*
X61809236Y-19516786D01*
X61771779Y-19551843D01*
X61765618Y-19602775D01*
X61793639Y-19645751D01*
X61842727Y-19660661D01*
X61868096Y-19654756D01*
X61965616Y-19613152D01*
X62102383Y-19613152D01*
X62177137Y-19645043D01*
X62210142Y-19701363D01*
X62210142Y-19708273D01*
X62177137Y-19764593D01*
X62102383Y-19796485D01*
X61950285Y-19796485D01*
X61948272Y-19797217D01*
X61946224Y-19796595D01*
X61920855Y-19802501D01*
X61809236Y-19850119D01*
X61801198Y-19857641D01*
X61790829Y-19861340D01*
X61773958Y-19881186D01*
X61718149Y-19976423D01*
X61716887Y-19983318D01*
X61712380Y-19988690D01*
X61707857Y-20014342D01*
X61707857Y-20061961D01*
X61411380Y-20061961D01*
X61411380Y-19681009D01*
X61408982Y-19674421D01*
X61410155Y-19667509D01*
X61401088Y-19643090D01*
X61345279Y-19547852D01*
X61336800Y-19540831D01*
X61331821Y-19531013D01*
X61310001Y-19516786D01*
X61198382Y-19469167D01*
X61196243Y-19469051D01*
X61194604Y-19467675D01*
X61168952Y-19463152D01*
X60945714Y-19463152D01*
X60943701Y-19463884D01*
X60941653Y-19463262D01*
X60916284Y-19469168D01*
X60804665Y-19516786D01*
X60796627Y-19524308D01*
X60786259Y-19528007D01*
X60769387Y-19547852D01*
X60713577Y-19643090D01*
X60712315Y-19649985D01*
X60707808Y-19655357D01*
X60703285Y-19681009D01*
X60703285Y-19776247D01*
X60351000Y-19776247D01*
X60351000Y-19538152D01*
X60333453Y-19489943D01*
X60289024Y-19464291D01*
X60238500Y-19473200D01*
X60205523Y-19512500D01*
X60203637Y-19523193D01*
X60193811Y-19516786D01*
X60082192Y-19469167D01*
X60080053Y-19469051D01*
X60078414Y-19467675D01*
X60052762Y-19463152D01*
X59941143Y-19463152D01*
X59892934Y-19480699D01*
X59867282Y-19525128D01*
X58643938Y-19525128D01*
X58631144Y-19516786D01*
X58519525Y-19469167D01*
X58517386Y-19469051D01*
X58515747Y-19467675D01*
X58490095Y-19463152D01*
X58266857Y-19463152D01*
X58264844Y-19463884D01*
X58262796Y-19463262D01*
X58237427Y-19469168D01*
X58125808Y-19516786D01*
X58088351Y-19551843D01*
X58082190Y-19602775D01*
X58110211Y-19645751D01*
X58159299Y-19660661D01*
X58184668Y-19654756D01*
X58282188Y-19613152D01*
X58474764Y-19613152D01*
X58561746Y-19650259D01*
X58599215Y-19682229D01*
X58638333Y-19748982D01*
X58638333Y-19993987D01*
X58599215Y-20060740D01*
X58561745Y-20092711D01*
X58474764Y-20129819D01*
X58282188Y-20129819D01*
X58184668Y-20088215D01*
X58133440Y-20085438D01*
X58092412Y-20116237D01*
X58080780Y-20166205D01*
X57701876Y-20166205D01*
X57702113Y-20165786D01*
X57717661Y-20147499D01*
X57773470Y-20052261D01*
X57774731Y-20045365D01*
X57779239Y-20039994D01*
X57783762Y-20014342D01*
X57783762Y-19728628D01*
X57781364Y-19722040D01*
X57782537Y-19715128D01*
X57773470Y-19690709D01*
X57717661Y-19595471D01*
X57716912Y-19594850D01*
X57701633Y-19576335D01*
X57645824Y-19528717D01*
X57643595Y-19527885D01*
X57626573Y-19516786D01*
X57514954Y-19469167D01*
X57512815Y-19469051D01*
X57511176Y-19467675D01*
X57485524Y-19463152D01*
X57318096Y-19463152D01*
X57316083Y-19463884D01*
X57314035Y-19463262D01*
X57288666Y-19469168D01*
X57177047Y-19516786D01*
X57175308Y-19518413D01*
X57157796Y-19528717D01*
X57101986Y-19576336D01*
X57101505Y-19577183D01*
X57085959Y-19595472D01*
X57030150Y-19690709D01*
X57028888Y-19697604D01*
X57024381Y-19702976D01*
X57019858Y-19728628D01*
X57019858Y-20014342D01*
X56667572Y-20014342D01*
X56667572Y-19538152D01*
X56650025Y-19489943D01*
X56605596Y-19464291D01*
X56555072Y-19473200D01*
X56531071Y-19501802D01*
X56454573Y-19469167D01*
X56452434Y-19469051D01*
X56450795Y-19467675D01*
X56425143Y-19463152D01*
X56257715Y-19463152D01*
X56255702Y-19463884D01*
X56253654Y-19463262D01*
X56228285Y-19469168D01*
X56116666Y-19516786D01*
X56108628Y-19524308D01*
X56098260Y-19528007D01*
X56081388Y-19547852D01*
X56025578Y-19643090D01*
X56024316Y-19649985D01*
X56019809Y-19655357D01*
X56015286Y-19681009D01*
X56015286Y-20204819D01*
X55532843Y-20204819D01*
X55541089Y-20195119D01*
X55596899Y-20099880D01*
X55598160Y-20092984D01*
X55602668Y-20087613D01*
X55607191Y-20061961D01*
X55607191Y-19613152D01*
X55699619Y-19613152D01*
X55747828Y-19595605D01*
X55773480Y-19551176D01*
X55764571Y-19500652D01*
X55725271Y-19467675D01*
X55699619Y-19463152D01*
X55607191Y-19463152D01*
X55607191Y-19204819D01*
X55602451Y-19191795D01*
X65727281Y-19191795D01*
X65736190Y-19242319D01*
X65775490Y-19275296D01*
X65801142Y-19279819D01*
X66284237Y-19279819D01*
X66284237Y-19606009D01*
X65968570Y-19606009D01*
X65920361Y-19623556D01*
X65894709Y-19667985D01*
X65903618Y-19718509D01*
X65942918Y-19751486D01*
X65968570Y-19756009D01*
X66284237Y-19756009D01*
X66284237Y-20204819D01*
X66301784Y-20253028D01*
X66346213Y-20278680D01*
X66396737Y-20269771D01*
X66429714Y-20230471D01*
X66434237Y-20204819D01*
X66434237Y-19204819D01*
X66427573Y-19186510D01*
X66424189Y-19167319D01*
X66419004Y-19162968D01*
X66416690Y-19156610D01*
X66399816Y-19146867D01*
X66384889Y-19134342D01*
X66375146Y-19132624D01*
X66372261Y-19130958D01*
X66368978Y-19131536D01*
X66359237Y-19129819D01*
X65801142Y-19129819D01*
X65752933Y-19147366D01*
X65727281Y-19191795D01*
X55602451Y-19191795D01*
X55589644Y-19156610D01*
X55545215Y-19130958D01*
X55494691Y-19139867D01*
X55461714Y-19179167D01*
X55457191Y-19204819D01*
X55457191Y-19463152D01*
X55253143Y-19463152D01*
X55204934Y-19480699D01*
X55179282Y-19525128D01*
X55188191Y-19575652D01*
X55227491Y-19608629D01*
X55253143Y-19613152D01*
X55457191Y-19613152D01*
X55457191Y-20041605D01*
X55424185Y-20097927D01*
X55349431Y-20129819D01*
X55253143Y-20129819D01*
X55204934Y-20147366D01*
X55179282Y-20191795D01*
X54937477Y-20191795D01*
X54937477Y-19538152D01*
X54919930Y-19489943D01*
X54875501Y-19464291D01*
X54824977Y-19473200D01*
X54792000Y-19512500D01*
X54790114Y-19523193D01*
X54780288Y-19516786D01*
X54668669Y-19469167D01*
X54666530Y-19469051D01*
X54664891Y-19467675D01*
X54639239Y-19463152D01*
X54527620Y-19463152D01*
X54479411Y-19480699D01*
X54453759Y-19525128D01*
X54123367Y-19525128D01*
X54110573Y-19516786D01*
X53998954Y-19469167D01*
X53996815Y-19469051D01*
X53995176Y-19467675D01*
X53969524Y-19463152D01*
X53802096Y-19463152D01*
X53800083Y-19463884D01*
X53798035Y-19463262D01*
X53772666Y-19469168D01*
X53661047Y-19516786D01*
X53659308Y-19518413D01*
X53641796Y-19528717D01*
X53585986Y-19576336D01*
X53585505Y-19577183D01*
X53569959Y-19595472D01*
X53514150Y-19690709D01*
X53512888Y-19697604D01*
X53508381Y-19702976D01*
X53503858Y-19728628D01*
X53503858Y-20014342D01*
X53151572Y-20014342D01*
X53151572Y-19204819D01*
X53134025Y-19156610D01*
X53089596Y-19130958D01*
X53039072Y-19139867D01*
X53006095Y-19179167D01*
X53001572Y-19204819D01*
X53001572Y-20041605D01*
X52968566Y-20097927D01*
X52879713Y-20135834D01*
X52842256Y-20170891D01*
X52836095Y-20221823D01*
X51641717Y-20221823D01*
X51644715Y-20204819D01*
X51644715Y-19204819D01*
X51627168Y-19156610D01*
X51582739Y-19130958D01*
X51532215Y-19139867D01*
X51499238Y-19179167D01*
X51494715Y-19204819D01*
X51494715Y-19472233D01*
X51487526Y-19469167D01*
X51485387Y-19469051D01*
X51483748Y-19467675D01*
X51458096Y-19463152D01*
X51234858Y-19463152D01*
X51232845Y-19463884D01*
X51230797Y-19463262D01*
X51205428Y-19469168D01*
X51093809Y-19516786D01*
X51092070Y-19518413D01*
X51074558Y-19528717D01*
X51018748Y-19576336D01*
X51018267Y-19577183D01*
X51002721Y-19595472D01*
X50946912Y-19690709D01*
X50945650Y-19697604D01*
X50941143Y-19702976D01*
X50936620Y-19728628D01*
X50936620Y-20014342D01*
X50640143Y-20014342D01*
X50640143Y-19728628D01*
X50637745Y-19722040D01*
X50638918Y-19715128D01*
X50629851Y-19690709D01*
X50574042Y-19595471D01*
X50573293Y-19594850D01*
X50558014Y-19576335D01*
X50502205Y-19528717D01*
X50499976Y-19527885D01*
X50482954Y-19516786D01*
X50371335Y-19469167D01*
X50369196Y-19469051D01*
X50367557Y-19467675D01*
X50341905Y-19463152D01*
X50174477Y-19463152D01*
X50172464Y-19463884D01*
X50170416Y-19463262D01*
X50145047Y-19469168D01*
X50033428Y-19516786D01*
X50031689Y-19518413D01*
X50014177Y-19528717D01*
X49958367Y-19576336D01*
X49957886Y-19577183D01*
X49942340Y-19595472D01*
X49886531Y-19690709D01*
X49885269Y-19697604D01*
X49880762Y-19702976D01*
X49876239Y-19728628D01*
X49876239Y-20014342D01*
X49579762Y-20014342D01*
X49579762Y-19966723D01*
X49577364Y-19960135D01*
X49578537Y-19953223D01*
X49569470Y-19928804D01*
X49513661Y-19833566D01*
X49505182Y-19826545D01*
X49500203Y-19816727D01*
X49478383Y-19802500D01*
X49366764Y-19754881D01*
X49364625Y-19754765D01*
X49362986Y-19753389D01*
X49337334Y-19748866D01*
X49073617Y-19748866D01*
X49021667Y-19726703D01*
X49021667Y-19701365D01*
X49054671Y-19645044D01*
X49129427Y-19613152D01*
X49322003Y-19613152D01*
X49419523Y-19654755D01*
X49470750Y-19657533D01*
X49511779Y-19626734D01*
X49523410Y-19576766D01*
X49500203Y-19531013D01*
X49478383Y-19516786D01*
X49366764Y-19469167D01*
X49364625Y-19469051D01*
X49362986Y-19467675D01*
X49337334Y-19463152D01*
X49114096Y-19463152D01*
X49112083Y-19463884D01*
X49110035Y-19463262D01*
X49084666Y-19469168D01*
X48973047Y-19516786D01*
X48965009Y-19524308D01*
X48954641Y-19528007D01*
X48937769Y-19547852D01*
X48881959Y-19643090D01*
X48880697Y-19649985D01*
X48876190Y-19655357D01*
X48871667Y-19681009D01*
X48871667Y-20204819D01*
X48463572Y-20204819D01*
X48463572Y-19538152D01*
X48446025Y-19489943D01*
X48401596Y-19464291D01*
X48351072Y-19473200D01*
X48318095Y-19512500D01*
X48316209Y-19523193D01*
X48306383Y-19516786D01*
X48194764Y-19469167D01*
X48192625Y-19469051D01*
X48190986Y-19467675D01*
X48165334Y-19463152D01*
X48053715Y-19463152D01*
X48005506Y-19480699D01*
X47979854Y-19525128D01*
X47649462Y-19525128D01*
X47636668Y-19516786D01*
X47525049Y-19469167D01*
X47522910Y-19469051D01*
X47521271Y-19467675D01*
X47495619Y-19463152D01*
X47272381Y-19463152D01*
X47270368Y-19463884D01*
X47268320Y-19463262D01*
X47242951Y-19469168D01*
X47235762Y-19472234D01*
X47235762Y-19204819D01*
X47218215Y-19156610D01*
X47173786Y-19130958D01*
X47123262Y-19139867D01*
X47090285Y-19179167D01*
X47085762Y-19204819D01*
X47085762Y-20204819D01*
X46942905Y-20204819D01*
X46942905Y-18986962D01*
X66577094Y-18986962D01*
X66577094Y-20422676D01*
G37*
D13*
X57115238Y-53906800D02*
X57000952Y-53944895D01*
X57000952Y-53944895D02*
X56810476Y-53944895D01*
X56810476Y-53944895D02*
X56734285Y-53906800D01*
X56734285Y-53906800D02*
X56696190Y-53868704D01*
X56696190Y-53868704D02*
X56658095Y-53792514D01*
X56658095Y-53792514D02*
X56658095Y-53716323D01*
X56658095Y-53716323D02*
X56696190Y-53640133D01*
X56696190Y-53640133D02*
X56734285Y-53602038D01*
X56734285Y-53602038D02*
X56810476Y-53563942D01*
X56810476Y-53563942D02*
X56962857Y-53525847D01*
X56962857Y-53525847D02*
X57039047Y-53487752D01*
X57039047Y-53487752D02*
X57077142Y-53449657D01*
X57077142Y-53449657D02*
X57115238Y-53373466D01*
X57115238Y-53373466D02*
X57115238Y-53297276D01*
X57115238Y-53297276D02*
X57077142Y-53221085D01*
X57077142Y-53221085D02*
X57039047Y-53182990D01*
X57039047Y-53182990D02*
X56962857Y-53144895D01*
X56962857Y-53144895D02*
X56772380Y-53144895D01*
X56772380Y-53144895D02*
X56658095Y-53182990D01*
X56391428Y-53144895D02*
X56200952Y-53944895D01*
X56200952Y-53944895D02*
X56048571Y-53373466D01*
X56048571Y-53373466D02*
X55896190Y-53944895D01*
X55896190Y-53944895D02*
X55705714Y-53144895D01*
X55400951Y-53944895D02*
X55400951Y-53144895D01*
X55400951Y-53144895D02*
X55210475Y-53144895D01*
X55210475Y-53144895D02*
X55096189Y-53182990D01*
X55096189Y-53182990D02*
X55019999Y-53259180D01*
X55019999Y-53259180D02*
X54981904Y-53335371D01*
X54981904Y-53335371D02*
X54943808Y-53487752D01*
X54943808Y-53487752D02*
X54943808Y-53602038D01*
X54943808Y-53602038D02*
X54981904Y-53754419D01*
X54981904Y-53754419D02*
X55019999Y-53830609D01*
X55019999Y-53830609D02*
X55096189Y-53906800D01*
X55096189Y-53906800D02*
X55210475Y-53944895D01*
X55210475Y-53944895D02*
X55400951Y-53944895D01*
X54600951Y-53944895D02*
X54600951Y-53144895D01*
X54067618Y-53144895D02*
X53915237Y-53144895D01*
X53915237Y-53144895D02*
X53839047Y-53182990D01*
X53839047Y-53182990D02*
X53762856Y-53259180D01*
X53762856Y-53259180D02*
X53724761Y-53411561D01*
X53724761Y-53411561D02*
X53724761Y-53678228D01*
X53724761Y-53678228D02*
X53762856Y-53830609D01*
X53762856Y-53830609D02*
X53839047Y-53906800D01*
X53839047Y-53906800D02*
X53915237Y-53944895D01*
X53915237Y-53944895D02*
X54067618Y-53944895D01*
X54067618Y-53944895D02*
X54143809Y-53906800D01*
X54143809Y-53906800D02*
X54219999Y-53830609D01*
X54219999Y-53830609D02*
X54258095Y-53678228D01*
X54258095Y-53678228D02*
X54258095Y-53411561D01*
X54258095Y-53411561D02*
X54219999Y-53259180D01*
X54219999Y-53259180D02*
X54143809Y-53182990D01*
X54143809Y-53182990D02*
X54067618Y-53144895D01*
D11*
X59767618Y-49134819D02*
X59767618Y-48134819D01*
X59767618Y-48134819D02*
X59529523Y-48134819D01*
X59529523Y-48134819D02*
X59386666Y-48182438D01*
X59386666Y-48182438D02*
X59291428Y-48277676D01*
X59291428Y-48277676D02*
X59243809Y-48372914D01*
X59243809Y-48372914D02*
X59196190Y-48563390D01*
X59196190Y-48563390D02*
X59196190Y-48706247D01*
X59196190Y-48706247D02*
X59243809Y-48896723D01*
X59243809Y-48896723D02*
X59291428Y-48991961D01*
X59291428Y-48991961D02*
X59386666Y-49087200D01*
X59386666Y-49087200D02*
X59529523Y-49134819D01*
X59529523Y-49134819D02*
X59767618Y-49134819D01*
X58386666Y-49087200D02*
X58481904Y-49134819D01*
X58481904Y-49134819D02*
X58672380Y-49134819D01*
X58672380Y-49134819D02*
X58767618Y-49087200D01*
X58767618Y-49087200D02*
X58815237Y-48991961D01*
X58815237Y-48991961D02*
X58815237Y-48611009D01*
X58815237Y-48611009D02*
X58767618Y-48515771D01*
X58767618Y-48515771D02*
X58672380Y-48468152D01*
X58672380Y-48468152D02*
X58481904Y-48468152D01*
X58481904Y-48468152D02*
X58386666Y-48515771D01*
X58386666Y-48515771D02*
X58339047Y-48611009D01*
X58339047Y-48611009D02*
X58339047Y-48706247D01*
X58339047Y-48706247D02*
X58815237Y-48801485D01*
X57910475Y-49134819D02*
X57910475Y-48134819D01*
X57910475Y-48515771D02*
X57815237Y-48468152D01*
X57815237Y-48468152D02*
X57624761Y-48468152D01*
X57624761Y-48468152D02*
X57529523Y-48515771D01*
X57529523Y-48515771D02*
X57481904Y-48563390D01*
X57481904Y-48563390D02*
X57434285Y-48658628D01*
X57434285Y-48658628D02*
X57434285Y-48944342D01*
X57434285Y-48944342D02*
X57481904Y-49039580D01*
X57481904Y-49039580D02*
X57529523Y-49087200D01*
X57529523Y-49087200D02*
X57624761Y-49134819D01*
X57624761Y-49134819D02*
X57815237Y-49134819D01*
X57815237Y-49134819D02*
X57910475Y-49087200D01*
X56577142Y-48468152D02*
X56577142Y-49134819D01*
X57005713Y-48468152D02*
X57005713Y-48991961D01*
X57005713Y-48991961D02*
X56958094Y-49087200D01*
X56958094Y-49087200D02*
X56862856Y-49134819D01*
X56862856Y-49134819D02*
X56719999Y-49134819D01*
X56719999Y-49134819D02*
X56624761Y-49087200D01*
X56624761Y-49087200D02*
X56577142Y-49039580D01*
X55672380Y-48468152D02*
X55672380Y-49277676D01*
X55672380Y-49277676D02*
X55719999Y-49372914D01*
X55719999Y-49372914D02*
X55767618Y-49420533D01*
X55767618Y-49420533D02*
X55862856Y-49468152D01*
X55862856Y-49468152D02*
X56005713Y-49468152D01*
X56005713Y-49468152D02*
X56100951Y-49420533D01*
X55672380Y-49087200D02*
X55767618Y-49134819D01*
X55767618Y-49134819D02*
X55958094Y-49134819D01*
X55958094Y-49134819D02*
X56053332Y-49087200D01*
X56053332Y-49087200D02*
X56100951Y-49039580D01*
X56100951Y-49039580D02*
X56148570Y-48944342D01*
X56148570Y-48944342D02*
X56148570Y-48658628D01*
X56148570Y-48658628D02*
X56100951Y-48563390D01*
X56100951Y-48563390D02*
X56053332Y-48515771D01*
X56053332Y-48515771D02*
X55958094Y-48468152D01*
X55958094Y-48468152D02*
X55767618Y-48468152D01*
X55767618Y-48468152D02*
X55672380Y-48515771D01*
D14*
X59715238Y-1371004D02*
X59715238Y-2423385D01*
X59715238Y-2423385D02*
X59653333Y-2547195D01*
X59653333Y-2547195D02*
X59591428Y-2609100D01*
X59591428Y-2609100D02*
X59467619Y-2671004D01*
X59467619Y-2671004D02*
X59220000Y-2671004D01*
X59220000Y-2671004D02*
X59096190Y-2609100D01*
X59096190Y-2609100D02*
X59034285Y-2547195D01*
X59034285Y-2547195D02*
X58972381Y-2423385D01*
X58972381Y-2423385D02*
X58972381Y-1371004D01*
X58415237Y-2609100D02*
X58229523Y-2671004D01*
X58229523Y-2671004D02*
X57919999Y-2671004D01*
X57919999Y-2671004D02*
X57796190Y-2609100D01*
X57796190Y-2609100D02*
X57734285Y-2547195D01*
X57734285Y-2547195D02*
X57672380Y-2423385D01*
X57672380Y-2423385D02*
X57672380Y-2299576D01*
X57672380Y-2299576D02*
X57734285Y-2175766D01*
X57734285Y-2175766D02*
X57796190Y-2113861D01*
X57796190Y-2113861D02*
X57919999Y-2051957D01*
X57919999Y-2051957D02*
X58167618Y-1990052D01*
X58167618Y-1990052D02*
X58291428Y-1928147D01*
X58291428Y-1928147D02*
X58353333Y-1866242D01*
X58353333Y-1866242D02*
X58415237Y-1742433D01*
X58415237Y-1742433D02*
X58415237Y-1618623D01*
X58415237Y-1618623D02*
X58353333Y-1494814D01*
X58353333Y-1494814D02*
X58291428Y-1432909D01*
X58291428Y-1432909D02*
X58167618Y-1371004D01*
X58167618Y-1371004D02*
X57858095Y-1371004D01*
X57858095Y-1371004D02*
X57672380Y-1432909D01*
X56681904Y-1990052D02*
X56496190Y-2051957D01*
X56496190Y-2051957D02*
X56434285Y-2113861D01*
X56434285Y-2113861D02*
X56372381Y-2237671D01*
X56372381Y-2237671D02*
X56372381Y-2423385D01*
X56372381Y-2423385D02*
X56434285Y-2547195D01*
X56434285Y-2547195D02*
X56496190Y-2609100D01*
X56496190Y-2609100D02*
X56620000Y-2671004D01*
X56620000Y-2671004D02*
X57115238Y-2671004D01*
X57115238Y-2671004D02*
X57115238Y-1371004D01*
X57115238Y-1371004D02*
X56681904Y-1371004D01*
X56681904Y-1371004D02*
X56558095Y-1432909D01*
X56558095Y-1432909D02*
X56496190Y-1494814D01*
X56496190Y-1494814D02*
X56434285Y-1618623D01*
X56434285Y-1618623D02*
X56434285Y-1742433D01*
X56434285Y-1742433D02*
X56496190Y-1866242D01*
X56496190Y-1866242D02*
X56558095Y-1928147D01*
X56558095Y-1928147D02*
X56681904Y-1990052D01*
X56681904Y-1990052D02*
X57115238Y-1990052D01*
X55815238Y-2175766D02*
X54824762Y-2175766D01*
X53462857Y-2547195D02*
X53524761Y-2609100D01*
X53524761Y-2609100D02*
X53710476Y-2671004D01*
X53710476Y-2671004D02*
X53834285Y-2671004D01*
X53834285Y-2671004D02*
X54019999Y-2609100D01*
X54019999Y-2609100D02*
X54143809Y-2485290D01*
X54143809Y-2485290D02*
X54205714Y-2361480D01*
X54205714Y-2361480D02*
X54267618Y-2113861D01*
X54267618Y-2113861D02*
X54267618Y-1928147D01*
X54267618Y-1928147D02*
X54205714Y-1680528D01*
X54205714Y-1680528D02*
X54143809Y-1556719D01*
X54143809Y-1556719D02*
X54019999Y-1432909D01*
X54019999Y-1432909D02*
X53834285Y-1371004D01*
X53834285Y-1371004D02*
X53710476Y-1371004D01*
X53710476Y-1371004D02*
X53524761Y-1432909D01*
X53524761Y-1432909D02*
X53462857Y-1494814D01*
X2875495Y-22449047D02*
X4175495Y-22449047D01*
X4175495Y-22449047D02*
X4175495Y-21953809D01*
X4175495Y-21953809D02*
X4113590Y-21829999D01*
X4113590Y-21829999D02*
X4051685Y-21768094D01*
X4051685Y-21768094D02*
X3927876Y-21706190D01*
X3927876Y-21706190D02*
X3742161Y-21706190D01*
X3742161Y-21706190D02*
X3618352Y-21768094D01*
X3618352Y-21768094D02*
X3556447Y-21829999D01*
X3556447Y-21829999D02*
X3494542Y-21953809D01*
X3494542Y-21953809D02*
X3494542Y-22449047D01*
X2875495Y-20963332D02*
X2937400Y-21087142D01*
X2937400Y-21087142D02*
X2999304Y-21149047D01*
X2999304Y-21149047D02*
X3123114Y-21210951D01*
X3123114Y-21210951D02*
X3494542Y-21210951D01*
X3494542Y-21210951D02*
X3618352Y-21149047D01*
X3618352Y-21149047D02*
X3680257Y-21087142D01*
X3680257Y-21087142D02*
X3742161Y-20963332D01*
X3742161Y-20963332D02*
X3742161Y-20777618D01*
X3742161Y-20777618D02*
X3680257Y-20653809D01*
X3680257Y-20653809D02*
X3618352Y-20591904D01*
X3618352Y-20591904D02*
X3494542Y-20529999D01*
X3494542Y-20529999D02*
X3123114Y-20529999D01*
X3123114Y-20529999D02*
X2999304Y-20591904D01*
X2999304Y-20591904D02*
X2937400Y-20653809D01*
X2937400Y-20653809D02*
X2875495Y-20777618D01*
X2875495Y-20777618D02*
X2875495Y-20963332D01*
X3742161Y-20096666D02*
X2875495Y-19849047D01*
X2875495Y-19849047D02*
X3494542Y-19601428D01*
X3494542Y-19601428D02*
X2875495Y-19353809D01*
X2875495Y-19353809D02*
X3742161Y-19106190D01*
X2937400Y-18115714D02*
X2875495Y-18239523D01*
X2875495Y-18239523D02*
X2875495Y-18487142D01*
X2875495Y-18487142D02*
X2937400Y-18610952D01*
X2937400Y-18610952D02*
X3061209Y-18672856D01*
X3061209Y-18672856D02*
X3556447Y-18672856D01*
X3556447Y-18672856D02*
X3680257Y-18610952D01*
X3680257Y-18610952D02*
X3742161Y-18487142D01*
X3742161Y-18487142D02*
X3742161Y-18239523D01*
X3742161Y-18239523D02*
X3680257Y-18115714D01*
X3680257Y-18115714D02*
X3556447Y-18053809D01*
X3556447Y-18053809D02*
X3432638Y-18053809D01*
X3432638Y-18053809D02*
X3308828Y-18672856D01*
X2875495Y-17496666D02*
X3742161Y-17496666D01*
X3494542Y-17496666D02*
X3618352Y-17434761D01*
X3618352Y-17434761D02*
X3680257Y-17372856D01*
X3680257Y-17372856D02*
X3742161Y-17249047D01*
X3742161Y-17249047D02*
X3742161Y-17125237D01*
X782495Y-20684761D02*
X782495Y-21427618D01*
X782495Y-21056190D02*
X2082495Y-21056190D01*
X2082495Y-21056190D02*
X1896780Y-21179999D01*
X1896780Y-21179999D02*
X1772971Y-21303809D01*
X1772971Y-21303809D02*
X1711066Y-21427618D01*
X1958685Y-20189523D02*
X2020590Y-20127619D01*
X2020590Y-20127619D02*
X2082495Y-20003809D01*
X2082495Y-20003809D02*
X2082495Y-19694285D01*
X2082495Y-19694285D02*
X2020590Y-19570476D01*
X2020590Y-19570476D02*
X1958685Y-19508571D01*
X1958685Y-19508571D02*
X1834876Y-19446666D01*
X1834876Y-19446666D02*
X1711066Y-19446666D01*
X1711066Y-19446666D02*
X1525352Y-19508571D01*
X1525352Y-19508571D02*
X782495Y-20251428D01*
X782495Y-20251428D02*
X782495Y-19446666D01*
X2082495Y-19075238D02*
X782495Y-18641905D01*
X782495Y-18641905D02*
X2082495Y-18208571D01*
D11*
X69510475Y-35434819D02*
X68891428Y-35434819D01*
X68891428Y-35434819D02*
X69224761Y-35815771D01*
X69224761Y-35815771D02*
X69081904Y-35815771D01*
X69081904Y-35815771D02*
X68986666Y-35863390D01*
X68986666Y-35863390D02*
X68939047Y-35911009D01*
X68939047Y-35911009D02*
X68891428Y-36006247D01*
X68891428Y-36006247D02*
X68891428Y-36244342D01*
X68891428Y-36244342D02*
X68939047Y-36339580D01*
X68939047Y-36339580D02*
X68986666Y-36387200D01*
X68986666Y-36387200D02*
X69081904Y-36434819D01*
X69081904Y-36434819D02*
X69367618Y-36434819D01*
X69367618Y-36434819D02*
X69462856Y-36387200D01*
X69462856Y-36387200D02*
X69510475Y-36339580D01*
X68558094Y-35768152D02*
X68319999Y-36434819D01*
X68319999Y-36434819D02*
X68081904Y-35768152D01*
X67796189Y-35434819D02*
X67177142Y-35434819D01*
X67177142Y-35434819D02*
X67510475Y-35815771D01*
X67510475Y-35815771D02*
X67367618Y-35815771D01*
X67367618Y-35815771D02*
X67272380Y-35863390D01*
X67272380Y-35863390D02*
X67224761Y-35911009D01*
X67224761Y-35911009D02*
X67177142Y-36006247D01*
X67177142Y-36006247D02*
X67177142Y-36244342D01*
X67177142Y-36244342D02*
X67224761Y-36339580D01*
X67224761Y-36339580D02*
X67272380Y-36387200D01*
X67272380Y-36387200D02*
X67367618Y-36434819D01*
X67367618Y-36434819D02*
X67653332Y-36434819D01*
X67653332Y-36434819D02*
X67748570Y-36387200D01*
X67748570Y-36387200D02*
X67796189Y-36339580D01*
D14*
X36779524Y-2524504D02*
X36779524Y-1224504D01*
X36779524Y-1843552D02*
X36036667Y-1843552D01*
X36036667Y-2524504D02*
X36036667Y-1224504D01*
X35479523Y-2153076D02*
X34860476Y-2153076D01*
X35603333Y-2524504D02*
X35170000Y-1224504D01*
X35170000Y-1224504D02*
X34736666Y-2524504D01*
X34303333Y-2524504D02*
X34303333Y-1224504D01*
X34303333Y-1224504D02*
X33560476Y-2524504D01*
X33560476Y-2524504D02*
X33560476Y-1224504D01*
X32941428Y-2524504D02*
X32941428Y-1224504D01*
X32941428Y-1224504D02*
X32631904Y-1224504D01*
X32631904Y-1224504D02*
X32446190Y-1286409D01*
X32446190Y-1286409D02*
X32322380Y-1410219D01*
X32322380Y-1410219D02*
X32260475Y-1534028D01*
X32260475Y-1534028D02*
X32198571Y-1781647D01*
X32198571Y-1781647D02*
X32198571Y-1967361D01*
X32198571Y-1967361D02*
X32260475Y-2214980D01*
X32260475Y-2214980D02*
X32322380Y-2338790D01*
X32322380Y-2338790D02*
X32446190Y-2462600D01*
X32446190Y-2462600D02*
X32631904Y-2524504D01*
X32631904Y-2524504D02*
X32941428Y-2524504D01*
X36098571Y-4493695D02*
X36160475Y-4555600D01*
X36160475Y-4555600D02*
X36346190Y-4617504D01*
X36346190Y-4617504D02*
X36469999Y-4617504D01*
X36469999Y-4617504D02*
X36655713Y-4555600D01*
X36655713Y-4555600D02*
X36779523Y-4431790D01*
X36779523Y-4431790D02*
X36841428Y-4307980D01*
X36841428Y-4307980D02*
X36903332Y-4060361D01*
X36903332Y-4060361D02*
X36903332Y-3874647D01*
X36903332Y-3874647D02*
X36841428Y-3627028D01*
X36841428Y-3627028D02*
X36779523Y-3503219D01*
X36779523Y-3503219D02*
X36655713Y-3379409D01*
X36655713Y-3379409D02*
X36469999Y-3317504D01*
X36469999Y-3317504D02*
X36346190Y-3317504D01*
X36346190Y-3317504D02*
X36160475Y-3379409D01*
X36160475Y-3379409D02*
X36098571Y-3441314D01*
X35727142Y-3317504D02*
X34984285Y-3317504D01*
X35355713Y-4617504D02*
X35355713Y-3317504D01*
X33808095Y-4617504D02*
X34241428Y-3998457D01*
X34550952Y-4617504D02*
X34550952Y-3317504D01*
X34550952Y-3317504D02*
X34055714Y-3317504D01*
X34055714Y-3317504D02*
X33931904Y-3379409D01*
X33931904Y-3379409D02*
X33869999Y-3441314D01*
X33869999Y-3441314D02*
X33808095Y-3565123D01*
X33808095Y-3565123D02*
X33808095Y-3750838D01*
X33808095Y-3750838D02*
X33869999Y-3874647D01*
X33869999Y-3874647D02*
X33931904Y-3936552D01*
X33931904Y-3936552D02*
X34055714Y-3998457D01*
X34055714Y-3998457D02*
X34550952Y-3998457D01*
X32631904Y-4617504D02*
X33250952Y-4617504D01*
X33250952Y-4617504D02*
X33250952Y-3317504D01*
X32198571Y-4493695D02*
X32136666Y-4555600D01*
X32136666Y-4555600D02*
X32198571Y-4617504D01*
X32198571Y-4617504D02*
X32260475Y-4555600D01*
X32260475Y-4555600D02*
X32198571Y-4493695D01*
X32198571Y-4493695D02*
X32198571Y-4617504D01*
X50903332Y-1271004D02*
X50160475Y-1271004D01*
X50531903Y-2571004D02*
X50531903Y-1271004D01*
X49727142Y-2571004D02*
X49727142Y-1271004D01*
X49169999Y-2571004D02*
X49169999Y-1890052D01*
X49169999Y-1890052D02*
X49231904Y-1766242D01*
X49231904Y-1766242D02*
X49355713Y-1704338D01*
X49355713Y-1704338D02*
X49541427Y-1704338D01*
X49541427Y-1704338D02*
X49665237Y-1766242D01*
X49665237Y-1766242D02*
X49727142Y-1828147D01*
X48055714Y-2509100D02*
X48179523Y-2571004D01*
X48179523Y-2571004D02*
X48427142Y-2571004D01*
X48427142Y-2571004D02*
X48550952Y-2509100D01*
X48550952Y-2509100D02*
X48612856Y-2385290D01*
X48612856Y-2385290D02*
X48612856Y-1890052D01*
X48612856Y-1890052D02*
X48550952Y-1766242D01*
X48550952Y-1766242D02*
X48427142Y-1704338D01*
X48427142Y-1704338D02*
X48179523Y-1704338D01*
X48179523Y-1704338D02*
X48055714Y-1766242D01*
X48055714Y-1766242D02*
X47993809Y-1890052D01*
X47993809Y-1890052D02*
X47993809Y-2013861D01*
X47993809Y-2013861D02*
X48612856Y-2137671D01*
X47436666Y-2571004D02*
X47436666Y-1704338D01*
X47436666Y-1951957D02*
X47374761Y-1828147D01*
X47374761Y-1828147D02*
X47312856Y-1766242D01*
X47312856Y-1766242D02*
X47189047Y-1704338D01*
X47189047Y-1704338D02*
X47065237Y-1704338D01*
X46631904Y-2571004D02*
X46631904Y-1704338D01*
X46631904Y-1828147D02*
X46569999Y-1766242D01*
X46569999Y-1766242D02*
X46446189Y-1704338D01*
X46446189Y-1704338D02*
X46260475Y-1704338D01*
X46260475Y-1704338D02*
X46136666Y-1766242D01*
X46136666Y-1766242D02*
X46074761Y-1890052D01*
X46074761Y-1890052D02*
X46074761Y-2571004D01*
X46074761Y-1890052D02*
X46012856Y-1766242D01*
X46012856Y-1766242D02*
X45889047Y-1704338D01*
X45889047Y-1704338D02*
X45703332Y-1704338D01*
X45703332Y-1704338D02*
X45579523Y-1766242D01*
X45579523Y-1766242D02*
X45517618Y-1890052D01*
X45517618Y-1890052D02*
X45517618Y-2571004D01*
X44898571Y-2571004D02*
X44898571Y-1704338D01*
X44898571Y-1271004D02*
X44960475Y-1332909D01*
X44960475Y-1332909D02*
X44898571Y-1394814D01*
X44898571Y-1394814D02*
X44836666Y-1332909D01*
X44836666Y-1332909D02*
X44898571Y-1271004D01*
X44898571Y-1271004D02*
X44898571Y-1394814D01*
X44341427Y-2509100D02*
X44217618Y-2571004D01*
X44217618Y-2571004D02*
X43969999Y-2571004D01*
X43969999Y-2571004D02*
X43846189Y-2509100D01*
X43846189Y-2509100D02*
X43784285Y-2385290D01*
X43784285Y-2385290D02*
X43784285Y-2323385D01*
X43784285Y-2323385D02*
X43846189Y-2199576D01*
X43846189Y-2199576D02*
X43969999Y-2137671D01*
X43969999Y-2137671D02*
X44155713Y-2137671D01*
X44155713Y-2137671D02*
X44279523Y-2075766D01*
X44279523Y-2075766D02*
X44341427Y-1951957D01*
X44341427Y-1951957D02*
X44341427Y-1890052D01*
X44341427Y-1890052D02*
X44279523Y-1766242D01*
X44279523Y-1766242D02*
X44155713Y-1704338D01*
X44155713Y-1704338D02*
X43969999Y-1704338D01*
X43969999Y-1704338D02*
X43846189Y-1766242D01*
X43412856Y-1704338D02*
X42917618Y-1704338D01*
X43227142Y-1271004D02*
X43227142Y-2385290D01*
X43227142Y-2385290D02*
X43165237Y-2509100D01*
X43165237Y-2509100D02*
X43041427Y-2571004D01*
X43041427Y-2571004D02*
X42917618Y-2571004D01*
X42298570Y-2571004D02*
X42422380Y-2509100D01*
X42422380Y-2509100D02*
X42484285Y-2447195D01*
X42484285Y-2447195D02*
X42546189Y-2323385D01*
X42546189Y-2323385D02*
X42546189Y-1951957D01*
X42546189Y-1951957D02*
X42484285Y-1828147D01*
X42484285Y-1828147D02*
X42422380Y-1766242D01*
X42422380Y-1766242D02*
X42298570Y-1704338D01*
X42298570Y-1704338D02*
X42112856Y-1704338D01*
X42112856Y-1704338D02*
X41989047Y-1766242D01*
X41989047Y-1766242D02*
X41927142Y-1828147D01*
X41927142Y-1828147D02*
X41865237Y-1951957D01*
X41865237Y-1951957D02*
X41865237Y-2323385D01*
X41865237Y-2323385D02*
X41927142Y-2447195D01*
X41927142Y-2447195D02*
X41989047Y-2509100D01*
X41989047Y-2509100D02*
X42112856Y-2571004D01*
X42112856Y-2571004D02*
X42298570Y-2571004D01*
X41308095Y-2571004D02*
X41308095Y-1704338D01*
X41308095Y-1951957D02*
X41246190Y-1828147D01*
X41246190Y-1828147D02*
X41184285Y-1766242D01*
X41184285Y-1766242D02*
X41060476Y-1704338D01*
X41060476Y-1704338D02*
X40936666Y-1704338D01*
D13*
X3646800Y-43463332D02*
X3684895Y-43577618D01*
X3684895Y-43577618D02*
X3684895Y-43768094D01*
X3684895Y-43768094D02*
X3646800Y-43844285D01*
X3646800Y-43844285D02*
X3608704Y-43882380D01*
X3608704Y-43882380D02*
X3532514Y-43920475D01*
X3532514Y-43920475D02*
X3456323Y-43920475D01*
X3456323Y-43920475D02*
X3380133Y-43882380D01*
X3380133Y-43882380D02*
X3342038Y-43844285D01*
X3342038Y-43844285D02*
X3303942Y-43768094D01*
X3303942Y-43768094D02*
X3265847Y-43615713D01*
X3265847Y-43615713D02*
X3227752Y-43539523D01*
X3227752Y-43539523D02*
X3189657Y-43501428D01*
X3189657Y-43501428D02*
X3113466Y-43463332D01*
X3113466Y-43463332D02*
X3037276Y-43463332D01*
X3037276Y-43463332D02*
X2961085Y-43501428D01*
X2961085Y-43501428D02*
X2922990Y-43539523D01*
X2922990Y-43539523D02*
X2884895Y-43615713D01*
X2884895Y-43615713D02*
X2884895Y-43806190D01*
X2884895Y-43806190D02*
X2922990Y-43920475D01*
X2884895Y-44187142D02*
X3684895Y-44377618D01*
X3684895Y-44377618D02*
X3113466Y-44529999D01*
X3113466Y-44529999D02*
X3684895Y-44682380D01*
X3684895Y-44682380D02*
X2884895Y-44872857D01*
X2884895Y-45558571D02*
X2884895Y-45177619D01*
X2884895Y-45177619D02*
X3265847Y-45139523D01*
X3265847Y-45139523D02*
X3227752Y-45177619D01*
X3227752Y-45177619D02*
X3189657Y-45253809D01*
X3189657Y-45253809D02*
X3189657Y-45444285D01*
X3189657Y-45444285D02*
X3227752Y-45520476D01*
X3227752Y-45520476D02*
X3265847Y-45558571D01*
X3265847Y-45558571D02*
X3342038Y-45596666D01*
X3342038Y-45596666D02*
X3532514Y-45596666D01*
X3532514Y-45596666D02*
X3608704Y-45558571D01*
X3608704Y-45558571D02*
X3646800Y-45520476D01*
X3646800Y-45520476D02*
X3684895Y-45444285D01*
X3684895Y-45444285D02*
X3684895Y-45253809D01*
X3684895Y-45253809D02*
X3646800Y-45177619D01*
X3646800Y-45177619D02*
X3608704Y-45139523D01*
X11671800Y-35613332D02*
X11709895Y-35727618D01*
X11709895Y-35727618D02*
X11709895Y-35918094D01*
X11709895Y-35918094D02*
X11671800Y-35994285D01*
X11671800Y-35994285D02*
X11633704Y-36032380D01*
X11633704Y-36032380D02*
X11557514Y-36070475D01*
X11557514Y-36070475D02*
X11481323Y-36070475D01*
X11481323Y-36070475D02*
X11405133Y-36032380D01*
X11405133Y-36032380D02*
X11367038Y-35994285D01*
X11367038Y-35994285D02*
X11328942Y-35918094D01*
X11328942Y-35918094D02*
X11290847Y-35765713D01*
X11290847Y-35765713D02*
X11252752Y-35689523D01*
X11252752Y-35689523D02*
X11214657Y-35651428D01*
X11214657Y-35651428D02*
X11138466Y-35613332D01*
X11138466Y-35613332D02*
X11062276Y-35613332D01*
X11062276Y-35613332D02*
X10986085Y-35651428D01*
X10986085Y-35651428D02*
X10947990Y-35689523D01*
X10947990Y-35689523D02*
X10909895Y-35765713D01*
X10909895Y-35765713D02*
X10909895Y-35956190D01*
X10909895Y-35956190D02*
X10947990Y-36070475D01*
X10909895Y-36337142D02*
X11709895Y-36527618D01*
X11709895Y-36527618D02*
X11138466Y-36679999D01*
X11138466Y-36679999D02*
X11709895Y-36832380D01*
X11709895Y-36832380D02*
X10909895Y-37022857D01*
X10986085Y-37289523D02*
X10947990Y-37327619D01*
X10947990Y-37327619D02*
X10909895Y-37403809D01*
X10909895Y-37403809D02*
X10909895Y-37594285D01*
X10909895Y-37594285D02*
X10947990Y-37670476D01*
X10947990Y-37670476D02*
X10986085Y-37708571D01*
X10986085Y-37708571D02*
X11062276Y-37746666D01*
X11062276Y-37746666D02*
X11138466Y-37746666D01*
X11138466Y-37746666D02*
X11252752Y-37708571D01*
X11252752Y-37708571D02*
X11709895Y-37251428D01*
X11709895Y-37251428D02*
X11709895Y-37746666D01*
X36086666Y-29799895D02*
X36086666Y-30371323D01*
X36086666Y-30371323D02*
X36124761Y-30485609D01*
X36124761Y-30485609D02*
X36200952Y-30561800D01*
X36200952Y-30561800D02*
X36315237Y-30599895D01*
X36315237Y-30599895D02*
X36391428Y-30599895D01*
X35591428Y-30142752D02*
X35667618Y-30104657D01*
X35667618Y-30104657D02*
X35705713Y-30066561D01*
X35705713Y-30066561D02*
X35743809Y-29990371D01*
X35743809Y-29990371D02*
X35743809Y-29952276D01*
X35743809Y-29952276D02*
X35705713Y-29876085D01*
X35705713Y-29876085D02*
X35667618Y-29837990D01*
X35667618Y-29837990D02*
X35591428Y-29799895D01*
X35591428Y-29799895D02*
X35439047Y-29799895D01*
X35439047Y-29799895D02*
X35362856Y-29837990D01*
X35362856Y-29837990D02*
X35324761Y-29876085D01*
X35324761Y-29876085D02*
X35286666Y-29952276D01*
X35286666Y-29952276D02*
X35286666Y-29990371D01*
X35286666Y-29990371D02*
X35324761Y-30066561D01*
X35324761Y-30066561D02*
X35362856Y-30104657D01*
X35362856Y-30104657D02*
X35439047Y-30142752D01*
X35439047Y-30142752D02*
X35591428Y-30142752D01*
X35591428Y-30142752D02*
X35667618Y-30180847D01*
X35667618Y-30180847D02*
X35705713Y-30218942D01*
X35705713Y-30218942D02*
X35743809Y-30295133D01*
X35743809Y-30295133D02*
X35743809Y-30447514D01*
X35743809Y-30447514D02*
X35705713Y-30523704D01*
X35705713Y-30523704D02*
X35667618Y-30561800D01*
X35667618Y-30561800D02*
X35591428Y-30599895D01*
X35591428Y-30599895D02*
X35439047Y-30599895D01*
X35439047Y-30599895D02*
X35362856Y-30561800D01*
X35362856Y-30561800D02*
X35324761Y-30523704D01*
X35324761Y-30523704D02*
X35286666Y-30447514D01*
X35286666Y-30447514D02*
X35286666Y-30295133D01*
X35286666Y-30295133D02*
X35324761Y-30218942D01*
X35324761Y-30218942D02*
X35362856Y-30180847D01*
X35362856Y-30180847D02*
X35439047Y-30142752D01*
X3671800Y-35513332D02*
X3709895Y-35627618D01*
X3709895Y-35627618D02*
X3709895Y-35818094D01*
X3709895Y-35818094D02*
X3671800Y-35894285D01*
X3671800Y-35894285D02*
X3633704Y-35932380D01*
X3633704Y-35932380D02*
X3557514Y-35970475D01*
X3557514Y-35970475D02*
X3481323Y-35970475D01*
X3481323Y-35970475D02*
X3405133Y-35932380D01*
X3405133Y-35932380D02*
X3367038Y-35894285D01*
X3367038Y-35894285D02*
X3328942Y-35818094D01*
X3328942Y-35818094D02*
X3290847Y-35665713D01*
X3290847Y-35665713D02*
X3252752Y-35589523D01*
X3252752Y-35589523D02*
X3214657Y-35551428D01*
X3214657Y-35551428D02*
X3138466Y-35513332D01*
X3138466Y-35513332D02*
X3062276Y-35513332D01*
X3062276Y-35513332D02*
X2986085Y-35551428D01*
X2986085Y-35551428D02*
X2947990Y-35589523D01*
X2947990Y-35589523D02*
X2909895Y-35665713D01*
X2909895Y-35665713D02*
X2909895Y-35856190D01*
X2909895Y-35856190D02*
X2947990Y-35970475D01*
X2909895Y-36237142D02*
X3709895Y-36427618D01*
X3709895Y-36427618D02*
X3138466Y-36579999D01*
X3138466Y-36579999D02*
X3709895Y-36732380D01*
X3709895Y-36732380D02*
X2909895Y-36922857D01*
X3176561Y-37570476D02*
X3709895Y-37570476D01*
X2871800Y-37380000D02*
X3443228Y-37189523D01*
X3443228Y-37189523D02*
X3443228Y-37684762D01*
X11646800Y-43563332D02*
X11684895Y-43677618D01*
X11684895Y-43677618D02*
X11684895Y-43868094D01*
X11684895Y-43868094D02*
X11646800Y-43944285D01*
X11646800Y-43944285D02*
X11608704Y-43982380D01*
X11608704Y-43982380D02*
X11532514Y-44020475D01*
X11532514Y-44020475D02*
X11456323Y-44020475D01*
X11456323Y-44020475D02*
X11380133Y-43982380D01*
X11380133Y-43982380D02*
X11342038Y-43944285D01*
X11342038Y-43944285D02*
X11303942Y-43868094D01*
X11303942Y-43868094D02*
X11265847Y-43715713D01*
X11265847Y-43715713D02*
X11227752Y-43639523D01*
X11227752Y-43639523D02*
X11189657Y-43601428D01*
X11189657Y-43601428D02*
X11113466Y-43563332D01*
X11113466Y-43563332D02*
X11037276Y-43563332D01*
X11037276Y-43563332D02*
X10961085Y-43601428D01*
X10961085Y-43601428D02*
X10922990Y-43639523D01*
X10922990Y-43639523D02*
X10884895Y-43715713D01*
X10884895Y-43715713D02*
X10884895Y-43906190D01*
X10884895Y-43906190D02*
X10922990Y-44020475D01*
X10884895Y-44287142D02*
X11684895Y-44477618D01*
X11684895Y-44477618D02*
X11113466Y-44629999D01*
X11113466Y-44629999D02*
X11684895Y-44782380D01*
X11684895Y-44782380D02*
X10884895Y-44972857D01*
X10884895Y-45201428D02*
X10884895Y-45696666D01*
X10884895Y-45696666D02*
X11189657Y-45430000D01*
X11189657Y-45430000D02*
X11189657Y-45544285D01*
X11189657Y-45544285D02*
X11227752Y-45620476D01*
X11227752Y-45620476D02*
X11265847Y-45658571D01*
X11265847Y-45658571D02*
X11342038Y-45696666D01*
X11342038Y-45696666D02*
X11532514Y-45696666D01*
X11532514Y-45696666D02*
X11608704Y-45658571D01*
X11608704Y-45658571D02*
X11646800Y-45620476D01*
X11646800Y-45620476D02*
X11684895Y-45544285D01*
X11684895Y-45544285D02*
X11684895Y-45315714D01*
X11684895Y-45315714D02*
X11646800Y-45239523D01*
X11646800Y-45239523D02*
X11608704Y-45201428D01*
D15*
%TO.C,SW5*%
X7670000Y-42180000D02*
X7670000Y-46580000D01*
X5970000Y-42180000D02*
X5870000Y-42180000D01*
X5970000Y-46580000D02*
X5870000Y-46580000D01*
X4170000Y-46580000D02*
X4170000Y-42180000D01*
%TO.C,J5*%
X58323800Y-50950263D02*
G75*
G03*
X58323800Y-50950263I-700000J0D01*
G01*
%TO.C,SW2*%
X15695000Y-34330000D02*
X15695000Y-38730000D01*
X13995000Y-34330000D02*
X13895000Y-34330000D01*
X13995000Y-38730000D02*
X13895000Y-38730000D01*
X12195000Y-38730000D02*
X12195000Y-34330000D01*
%TO.C,J3*%
X53923800Y-50950263D02*
G75*
G03*
X53923800Y-50950263I-700000J0D01*
G01*
%TO.C,J8*%
X53070000Y-21385000D02*
X18570000Y-21385000D01*
X18570000Y-21385000D02*
X18570000Y-44385000D01*
X18570000Y-44385000D02*
X53070000Y-44385000D01*
X53070000Y-44385000D02*
X53070000Y-21385000D01*
X50320000Y-37735000D02*
X21320000Y-37735000D01*
X21320000Y-37735000D02*
X21320000Y-23735000D01*
X21320000Y-23735000D02*
X50320000Y-23735000D01*
X50320000Y-23735000D02*
X50320000Y-37735000D01*
X42820000Y-44385000D02*
X28820000Y-44385000D01*
X28820000Y-44385000D02*
X28820000Y-52135000D01*
X28820000Y-52135000D02*
X42820000Y-52135000D01*
X42820000Y-52135000D02*
X42820000Y-44385000D01*
%TO.C,SW4*%
X7695000Y-34230000D02*
X7695000Y-38630000D01*
X5995000Y-34230000D02*
X5895000Y-34230000D01*
X5995000Y-38630000D02*
X5895000Y-38630000D01*
X4195000Y-38630000D02*
X4195000Y-34230000D01*
%TO.C,SW3*%
X15670000Y-42280000D02*
X15670000Y-46680000D01*
X13970000Y-42280000D02*
X13870000Y-42280000D01*
X13970000Y-46680000D02*
X13870000Y-46680000D01*
X12170000Y-46680000D02*
X12170000Y-42280000D01*
%TO.C,J4*%
X56123800Y-50950263D02*
G75*
G03*
X56123800Y-50950263I-700000J0D01*
G01*
%TD*%
M02*
