%TF.GenerationSoftware,KiCad,Pcbnew,7.0.5.1-1-g8f565ef7f0-dirty-deb11*%
%TF.CreationDate,2023-06-19T19:00:14+00:00*%
%TF.ProjectId,AMFOC01,414d464f-4330-4312-9e6b-696361645f70,rev?*%
%TF.SameCoordinates,Original*%
%TF.FileFunction,Legend,Bot*%
%TF.FilePolarity,Positive*%
%FSLAX46Y46*%
G04 Gerber Fmt 4.6, Leading zero omitted, Abs format (unit mm)*
G04 Created by KiCad (PCBNEW 7.0.5.1-1-g8f565ef7f0-dirty-deb11) date 2023-06-19 19:00:14*
%MOMM*%
%LPD*%
G01*
G04 APERTURE LIST*
%ADD10C,0.080000*%
%ADD11C,0.150000*%
%ADD12C,0.300000*%
%ADD13C,0.100000*%
%ADD14C,0.200000*%
%ADD15C,0.120000*%
G04 APERTURE END LIST*
D10*
X55523800Y-41720000D02*
X55523800Y-42920000D01*
D11*
X51220000Y-39620000D02*
X59920000Y-39620000D01*
X59920000Y-44220000D01*
X51220000Y-44220000D01*
X51220000Y-39620000D01*
X65720000Y-29220000D02*
X68520000Y-29220000D01*
X68520000Y-39420000D01*
X65720000Y-39420000D01*
X65720000Y-29220000D01*
X70020000Y-26920000D02*
X68520000Y-29220000D01*
X70020000Y-19920000D02*
X70020000Y-26920000D01*
D12*
X4302183Y-33844999D02*
X4302183Y-32678332D01*
X3602183Y-34078332D02*
X6052183Y-33261666D01*
X6052183Y-33261666D02*
X3602183Y-32444999D01*
X3602183Y-31628332D02*
X6052183Y-31628332D01*
X6052183Y-31628332D02*
X4302183Y-30811666D01*
X4302183Y-30811666D02*
X6052183Y-29994999D01*
X6052183Y-29994999D02*
X3602183Y-29994999D01*
X4885516Y-28011666D02*
X4885516Y-28828332D01*
X3602183Y-28828332D02*
X6052183Y-28828332D01*
X6052183Y-28828332D02*
X6052183Y-27661666D01*
X6052183Y-26261666D02*
X6052183Y-25794999D01*
X6052183Y-25794999D02*
X5935516Y-25561666D01*
X5935516Y-25561666D02*
X5702183Y-25328332D01*
X5702183Y-25328332D02*
X5235516Y-25211666D01*
X5235516Y-25211666D02*
X4418850Y-25211666D01*
X4418850Y-25211666D02*
X3952183Y-25328332D01*
X3952183Y-25328332D02*
X3718850Y-25561666D01*
X3718850Y-25561666D02*
X3602183Y-25794999D01*
X3602183Y-25794999D02*
X3602183Y-26261666D01*
X3602183Y-26261666D02*
X3718850Y-26494999D01*
X3718850Y-26494999D02*
X3952183Y-26728332D01*
X3952183Y-26728332D02*
X4418850Y-26844999D01*
X4418850Y-26844999D02*
X5235516Y-26844999D01*
X5235516Y-26844999D02*
X5702183Y-26728332D01*
X5702183Y-26728332D02*
X5935516Y-26494999D01*
X5935516Y-26494999D02*
X6052183Y-26261666D01*
X3835516Y-22761665D02*
X3718850Y-22878332D01*
X3718850Y-22878332D02*
X3602183Y-23228332D01*
X3602183Y-23228332D02*
X3602183Y-23461665D01*
X3602183Y-23461665D02*
X3718850Y-23811665D01*
X3718850Y-23811665D02*
X3952183Y-24044999D01*
X3952183Y-24044999D02*
X4185516Y-24161665D01*
X4185516Y-24161665D02*
X4652183Y-24278332D01*
X4652183Y-24278332D02*
X5002183Y-24278332D01*
X5002183Y-24278332D02*
X5468850Y-24161665D01*
X5468850Y-24161665D02*
X5702183Y-24044999D01*
X5702183Y-24044999D02*
X5935516Y-23811665D01*
X5935516Y-23811665D02*
X6052183Y-23461665D01*
X6052183Y-23461665D02*
X6052183Y-23228332D01*
X6052183Y-23228332D02*
X5935516Y-22878332D01*
X5935516Y-22878332D02*
X5818850Y-22761665D01*
X6052183Y-21244999D02*
X6052183Y-21011665D01*
X6052183Y-21011665D02*
X5935516Y-20778332D01*
X5935516Y-20778332D02*
X5818850Y-20661665D01*
X5818850Y-20661665D02*
X5585516Y-20544999D01*
X5585516Y-20544999D02*
X5118850Y-20428332D01*
X5118850Y-20428332D02*
X4535516Y-20428332D01*
X4535516Y-20428332D02*
X4068850Y-20544999D01*
X4068850Y-20544999D02*
X3835516Y-20661665D01*
X3835516Y-20661665D02*
X3718850Y-20778332D01*
X3718850Y-20778332D02*
X3602183Y-21011665D01*
X3602183Y-21011665D02*
X3602183Y-21244999D01*
X3602183Y-21244999D02*
X3718850Y-21478332D01*
X3718850Y-21478332D02*
X3835516Y-21594999D01*
X3835516Y-21594999D02*
X4068850Y-21711665D01*
X4068850Y-21711665D02*
X4535516Y-21828332D01*
X4535516Y-21828332D02*
X5118850Y-21828332D01*
X5118850Y-21828332D02*
X5585516Y-21711665D01*
X5585516Y-21711665D02*
X5818850Y-21594999D01*
X5818850Y-21594999D02*
X5935516Y-21478332D01*
X5935516Y-21478332D02*
X6052183Y-21244999D01*
X3602183Y-18094999D02*
X3602183Y-19494999D01*
X3602183Y-18794999D02*
X6052183Y-18794999D01*
X6052183Y-18794999D02*
X5702183Y-19028332D01*
X5702183Y-19028332D02*
X5468850Y-19261666D01*
X5468850Y-19261666D02*
X5352183Y-19494999D01*
X4302183Y-17161666D02*
X4302183Y-15994999D01*
X3602183Y-17394999D02*
X6052183Y-16578333D01*
X6052183Y-16578333D02*
X3602183Y-15761666D01*
D11*
X69610475Y-21874819D02*
X69039047Y-21874819D01*
X69324761Y-22874819D02*
X69324761Y-21874819D01*
X68800951Y-21874819D02*
X68134285Y-22874819D01*
X68134285Y-21874819D02*
X68800951Y-22874819D01*
X67039047Y-21827200D02*
X67896189Y-23112914D01*
X66753332Y-22827200D02*
X66610475Y-22874819D01*
X66610475Y-22874819D02*
X66372380Y-22874819D01*
X66372380Y-22874819D02*
X66277142Y-22827200D01*
X66277142Y-22827200D02*
X66229523Y-22779580D01*
X66229523Y-22779580D02*
X66181904Y-22684342D01*
X66181904Y-22684342D02*
X66181904Y-22589104D01*
X66181904Y-22589104D02*
X66229523Y-22493866D01*
X66229523Y-22493866D02*
X66277142Y-22446247D01*
X66277142Y-22446247D02*
X66372380Y-22398628D01*
X66372380Y-22398628D02*
X66562856Y-22351009D01*
X66562856Y-22351009D02*
X66658094Y-22303390D01*
X66658094Y-22303390D02*
X66705713Y-22255771D01*
X66705713Y-22255771D02*
X66753332Y-22160533D01*
X66753332Y-22160533D02*
X66753332Y-22065295D01*
X66753332Y-22065295D02*
X66705713Y-21970057D01*
X66705713Y-21970057D02*
X66658094Y-21922438D01*
X66658094Y-21922438D02*
X66562856Y-21874819D01*
X66562856Y-21874819D02*
X66324761Y-21874819D01*
X66324761Y-21874819D02*
X66181904Y-21922438D01*
X65753332Y-22874819D02*
X65753332Y-21874819D01*
X65753332Y-21874819D02*
X65515237Y-21874819D01*
X65515237Y-21874819D02*
X65372380Y-21922438D01*
X65372380Y-21922438D02*
X65277142Y-22017676D01*
X65277142Y-22017676D02*
X65229523Y-22112914D01*
X65229523Y-22112914D02*
X65181904Y-22303390D01*
X65181904Y-22303390D02*
X65181904Y-22446247D01*
X65181904Y-22446247D02*
X65229523Y-22636723D01*
X65229523Y-22636723D02*
X65277142Y-22731961D01*
X65277142Y-22731961D02*
X65372380Y-22827200D01*
X65372380Y-22827200D02*
X65515237Y-22874819D01*
X65515237Y-22874819D02*
X65753332Y-22874819D01*
X64800951Y-22589104D02*
X64324761Y-22589104D01*
X64896189Y-22874819D02*
X64562856Y-21874819D01*
X64562856Y-21874819D02*
X64229523Y-22874819D01*
X69081904Y-20422438D02*
X69177142Y-20374819D01*
X69177142Y-20374819D02*
X69319999Y-20374819D01*
X69319999Y-20374819D02*
X69462856Y-20422438D01*
X69462856Y-20422438D02*
X69558094Y-20517676D01*
X69558094Y-20517676D02*
X69605713Y-20612914D01*
X69605713Y-20612914D02*
X69653332Y-20803390D01*
X69653332Y-20803390D02*
X69653332Y-20946247D01*
X69653332Y-20946247D02*
X69605713Y-21136723D01*
X69605713Y-21136723D02*
X69558094Y-21231961D01*
X69558094Y-21231961D02*
X69462856Y-21327200D01*
X69462856Y-21327200D02*
X69319999Y-21374819D01*
X69319999Y-21374819D02*
X69224761Y-21374819D01*
X69224761Y-21374819D02*
X69081904Y-21327200D01*
X69081904Y-21327200D02*
X69034285Y-21279580D01*
X69034285Y-21279580D02*
X69034285Y-20946247D01*
X69034285Y-20946247D02*
X69224761Y-20946247D01*
X68605713Y-21374819D02*
X68605713Y-20374819D01*
X68605713Y-20374819D02*
X68034285Y-21374819D01*
X68034285Y-21374819D02*
X68034285Y-20374819D01*
X67558094Y-21374819D02*
X67558094Y-20374819D01*
X67558094Y-20374819D02*
X67319999Y-20374819D01*
X67319999Y-20374819D02*
X67177142Y-20422438D01*
X67177142Y-20422438D02*
X67081904Y-20517676D01*
X67081904Y-20517676D02*
X67034285Y-20612914D01*
X67034285Y-20612914D02*
X66986666Y-20803390D01*
X66986666Y-20803390D02*
X66986666Y-20946247D01*
X66986666Y-20946247D02*
X67034285Y-21136723D01*
X67034285Y-21136723D02*
X67081904Y-21231961D01*
X67081904Y-21231961D02*
X67177142Y-21327200D01*
X67177142Y-21327200D02*
X67319999Y-21374819D01*
X67319999Y-21374819D02*
X67558094Y-21374819D01*
D13*
X55129524Y-42746800D02*
X55015238Y-42784895D01*
X55015238Y-42784895D02*
X54824762Y-42784895D01*
X54824762Y-42784895D02*
X54748571Y-42746800D01*
X54748571Y-42746800D02*
X54710476Y-42708704D01*
X54710476Y-42708704D02*
X54672381Y-42632514D01*
X54672381Y-42632514D02*
X54672381Y-42556323D01*
X54672381Y-42556323D02*
X54710476Y-42480133D01*
X54710476Y-42480133D02*
X54748571Y-42442038D01*
X54748571Y-42442038D02*
X54824762Y-42403942D01*
X54824762Y-42403942D02*
X54977143Y-42365847D01*
X54977143Y-42365847D02*
X55053333Y-42327752D01*
X55053333Y-42327752D02*
X55091428Y-42289657D01*
X55091428Y-42289657D02*
X55129524Y-42213466D01*
X55129524Y-42213466D02*
X55129524Y-42137276D01*
X55129524Y-42137276D02*
X55091428Y-42061085D01*
X55091428Y-42061085D02*
X55053333Y-42022990D01*
X55053333Y-42022990D02*
X54977143Y-41984895D01*
X54977143Y-41984895D02*
X54786666Y-41984895D01*
X54786666Y-41984895D02*
X54672381Y-42022990D01*
X54405714Y-41984895D02*
X54215238Y-42784895D01*
X54215238Y-42784895D02*
X54062857Y-42213466D01*
X54062857Y-42213466D02*
X53910476Y-42784895D01*
X53910476Y-42784895D02*
X53720000Y-41984895D01*
X52958094Y-42708704D02*
X52996190Y-42746800D01*
X52996190Y-42746800D02*
X53110475Y-42784895D01*
X53110475Y-42784895D02*
X53186666Y-42784895D01*
X53186666Y-42784895D02*
X53300952Y-42746800D01*
X53300952Y-42746800D02*
X53377142Y-42670609D01*
X53377142Y-42670609D02*
X53415237Y-42594419D01*
X53415237Y-42594419D02*
X53453333Y-42442038D01*
X53453333Y-42442038D02*
X53453333Y-42327752D01*
X53453333Y-42327752D02*
X53415237Y-42175371D01*
X53415237Y-42175371D02*
X53377142Y-42099180D01*
X53377142Y-42099180D02*
X53300952Y-42022990D01*
X53300952Y-42022990D02*
X53186666Y-41984895D01*
X53186666Y-41984895D02*
X53110475Y-41984895D01*
X53110475Y-41984895D02*
X52996190Y-42022990D01*
X52996190Y-42022990D02*
X52958094Y-42061085D01*
X52234285Y-42784895D02*
X52615237Y-42784895D01*
X52615237Y-42784895D02*
X52615237Y-41984895D01*
X51967618Y-42784895D02*
X51967618Y-41984895D01*
X51510475Y-42784895D02*
X51853333Y-42327752D01*
X51510475Y-41984895D02*
X51967618Y-42442038D01*
D14*
X26283332Y-2091004D02*
X26283332Y-791004D01*
X26283332Y-791004D02*
X25849998Y-1719576D01*
X25849998Y-1719576D02*
X25416665Y-791004D01*
X25416665Y-791004D02*
X25416665Y-2091004D01*
X24611903Y-2091004D02*
X24735713Y-2029100D01*
X24735713Y-2029100D02*
X24797618Y-1967195D01*
X24797618Y-1967195D02*
X24859522Y-1843385D01*
X24859522Y-1843385D02*
X24859522Y-1471957D01*
X24859522Y-1471957D02*
X24797618Y-1348147D01*
X24797618Y-1348147D02*
X24735713Y-1286242D01*
X24735713Y-1286242D02*
X24611903Y-1224338D01*
X24611903Y-1224338D02*
X24426189Y-1224338D01*
X24426189Y-1224338D02*
X24302380Y-1286242D01*
X24302380Y-1286242D02*
X24240475Y-1348147D01*
X24240475Y-1348147D02*
X24178570Y-1471957D01*
X24178570Y-1471957D02*
X24178570Y-1843385D01*
X24178570Y-1843385D02*
X24240475Y-1967195D01*
X24240475Y-1967195D02*
X24302380Y-2029100D01*
X24302380Y-2029100D02*
X24426189Y-2091004D01*
X24426189Y-2091004D02*
X24611903Y-2091004D01*
X23807142Y-1224338D02*
X23311904Y-1224338D01*
X23621428Y-791004D02*
X23621428Y-1905290D01*
X23621428Y-1905290D02*
X23559523Y-2029100D01*
X23559523Y-2029100D02*
X23435713Y-2091004D01*
X23435713Y-2091004D02*
X23311904Y-2091004D01*
X22692856Y-2091004D02*
X22816666Y-2029100D01*
X22816666Y-2029100D02*
X22878571Y-1967195D01*
X22878571Y-1967195D02*
X22940475Y-1843385D01*
X22940475Y-1843385D02*
X22940475Y-1471957D01*
X22940475Y-1471957D02*
X22878571Y-1348147D01*
X22878571Y-1348147D02*
X22816666Y-1286242D01*
X22816666Y-1286242D02*
X22692856Y-1224338D01*
X22692856Y-1224338D02*
X22507142Y-1224338D01*
X22507142Y-1224338D02*
X22383333Y-1286242D01*
X22383333Y-1286242D02*
X22321428Y-1348147D01*
X22321428Y-1348147D02*
X22259523Y-1471957D01*
X22259523Y-1471957D02*
X22259523Y-1843385D01*
X22259523Y-1843385D02*
X22321428Y-1967195D01*
X22321428Y-1967195D02*
X22383333Y-2029100D01*
X22383333Y-2029100D02*
X22507142Y-2091004D01*
X22507142Y-2091004D02*
X22692856Y-2091004D01*
X21702381Y-2091004D02*
X21702381Y-1224338D01*
X21702381Y-1471957D02*
X21640476Y-1348147D01*
X21640476Y-1348147D02*
X21578571Y-1286242D01*
X21578571Y-1286242D02*
X21454762Y-1224338D01*
X21454762Y-1224338D02*
X21330952Y-1224338D01*
D11*
X68991428Y-24674819D02*
X69324761Y-24198628D01*
X69562856Y-24674819D02*
X69562856Y-23674819D01*
X69562856Y-23674819D02*
X69181904Y-23674819D01*
X69181904Y-23674819D02*
X69086666Y-23722438D01*
X69086666Y-23722438D02*
X69039047Y-23770057D01*
X69039047Y-23770057D02*
X68991428Y-23865295D01*
X68991428Y-23865295D02*
X68991428Y-24008152D01*
X68991428Y-24008152D02*
X69039047Y-24103390D01*
X69039047Y-24103390D02*
X69086666Y-24151009D01*
X69086666Y-24151009D02*
X69181904Y-24198628D01*
X69181904Y-24198628D02*
X69562856Y-24198628D01*
X68658094Y-23674819D02*
X67991428Y-24674819D01*
X67991428Y-23674819D02*
X68658094Y-24674819D01*
X66896190Y-23627200D02*
X67753332Y-24912914D01*
X66610475Y-24627200D02*
X66467618Y-24674819D01*
X66467618Y-24674819D02*
X66229523Y-24674819D01*
X66229523Y-24674819D02*
X66134285Y-24627200D01*
X66134285Y-24627200D02*
X66086666Y-24579580D01*
X66086666Y-24579580D02*
X66039047Y-24484342D01*
X66039047Y-24484342D02*
X66039047Y-24389104D01*
X66039047Y-24389104D02*
X66086666Y-24293866D01*
X66086666Y-24293866D02*
X66134285Y-24246247D01*
X66134285Y-24246247D02*
X66229523Y-24198628D01*
X66229523Y-24198628D02*
X66419999Y-24151009D01*
X66419999Y-24151009D02*
X66515237Y-24103390D01*
X66515237Y-24103390D02*
X66562856Y-24055771D01*
X66562856Y-24055771D02*
X66610475Y-23960533D01*
X66610475Y-23960533D02*
X66610475Y-23865295D01*
X66610475Y-23865295D02*
X66562856Y-23770057D01*
X66562856Y-23770057D02*
X66515237Y-23722438D01*
X66515237Y-23722438D02*
X66419999Y-23674819D01*
X66419999Y-23674819D02*
X66181904Y-23674819D01*
X66181904Y-23674819D02*
X66039047Y-23722438D01*
X65039047Y-24579580D02*
X65086666Y-24627200D01*
X65086666Y-24627200D02*
X65229523Y-24674819D01*
X65229523Y-24674819D02*
X65324761Y-24674819D01*
X65324761Y-24674819D02*
X65467618Y-24627200D01*
X65467618Y-24627200D02*
X65562856Y-24531961D01*
X65562856Y-24531961D02*
X65610475Y-24436723D01*
X65610475Y-24436723D02*
X65658094Y-24246247D01*
X65658094Y-24246247D02*
X65658094Y-24103390D01*
X65658094Y-24103390D02*
X65610475Y-23912914D01*
X65610475Y-23912914D02*
X65562856Y-23817676D01*
X65562856Y-23817676D02*
X65467618Y-23722438D01*
X65467618Y-23722438D02*
X65324761Y-23674819D01*
X65324761Y-23674819D02*
X65229523Y-23674819D01*
X65229523Y-23674819D02*
X65086666Y-23722438D01*
X65086666Y-23722438D02*
X65039047Y-23770057D01*
X64134285Y-24674819D02*
X64610475Y-24674819D01*
X64610475Y-24674819D02*
X64610475Y-23674819D01*
D13*
X59724762Y-42746800D02*
X59610476Y-42784895D01*
X59610476Y-42784895D02*
X59420000Y-42784895D01*
X59420000Y-42784895D02*
X59343809Y-42746800D01*
X59343809Y-42746800D02*
X59305714Y-42708704D01*
X59305714Y-42708704D02*
X59267619Y-42632514D01*
X59267619Y-42632514D02*
X59267619Y-42556323D01*
X59267619Y-42556323D02*
X59305714Y-42480133D01*
X59305714Y-42480133D02*
X59343809Y-42442038D01*
X59343809Y-42442038D02*
X59420000Y-42403942D01*
X59420000Y-42403942D02*
X59572381Y-42365847D01*
X59572381Y-42365847D02*
X59648571Y-42327752D01*
X59648571Y-42327752D02*
X59686666Y-42289657D01*
X59686666Y-42289657D02*
X59724762Y-42213466D01*
X59724762Y-42213466D02*
X59724762Y-42137276D01*
X59724762Y-42137276D02*
X59686666Y-42061085D01*
X59686666Y-42061085D02*
X59648571Y-42022990D01*
X59648571Y-42022990D02*
X59572381Y-41984895D01*
X59572381Y-41984895D02*
X59381904Y-41984895D01*
X59381904Y-41984895D02*
X59267619Y-42022990D01*
X59000952Y-41984895D02*
X58810476Y-42784895D01*
X58810476Y-42784895D02*
X58658095Y-42213466D01*
X58658095Y-42213466D02*
X58505714Y-42784895D01*
X58505714Y-42784895D02*
X58315238Y-41984895D01*
X57591428Y-42022990D02*
X57667618Y-41984895D01*
X57667618Y-41984895D02*
X57781904Y-41984895D01*
X57781904Y-41984895D02*
X57896190Y-42022990D01*
X57896190Y-42022990D02*
X57972380Y-42099180D01*
X57972380Y-42099180D02*
X58010475Y-42175371D01*
X58010475Y-42175371D02*
X58048571Y-42327752D01*
X58048571Y-42327752D02*
X58048571Y-42442038D01*
X58048571Y-42442038D02*
X58010475Y-42594419D01*
X58010475Y-42594419D02*
X57972380Y-42670609D01*
X57972380Y-42670609D02*
X57896190Y-42746800D01*
X57896190Y-42746800D02*
X57781904Y-42784895D01*
X57781904Y-42784895D02*
X57705713Y-42784895D01*
X57705713Y-42784895D02*
X57591428Y-42746800D01*
X57591428Y-42746800D02*
X57553332Y-42708704D01*
X57553332Y-42708704D02*
X57553332Y-42442038D01*
X57553332Y-42442038D02*
X57705713Y-42442038D01*
X57210475Y-42784895D02*
X57210475Y-41984895D01*
X57210475Y-41984895D02*
X56753332Y-42784895D01*
X56753332Y-42784895D02*
X56753332Y-41984895D01*
X56372380Y-42784895D02*
X56372380Y-41984895D01*
X56372380Y-41984895D02*
X56181904Y-41984895D01*
X56181904Y-41984895D02*
X56067618Y-42022990D01*
X56067618Y-42022990D02*
X55991428Y-42099180D01*
X55991428Y-42099180D02*
X55953333Y-42175371D01*
X55953333Y-42175371D02*
X55915237Y-42327752D01*
X55915237Y-42327752D02*
X55915237Y-42442038D01*
X55915237Y-42442038D02*
X55953333Y-42594419D01*
X55953333Y-42594419D02*
X55991428Y-42670609D01*
X55991428Y-42670609D02*
X56067618Y-42746800D01*
X56067618Y-42746800D02*
X56181904Y-42784895D01*
X56181904Y-42784895D02*
X56372380Y-42784895D01*
D11*
X68253332Y-28589104D02*
X67777142Y-28589104D01*
X68348570Y-28874819D02*
X68015237Y-27874819D01*
X68015237Y-27874819D02*
X67681904Y-28874819D01*
X66919999Y-28208152D02*
X66919999Y-28874819D01*
X67348570Y-28208152D02*
X67348570Y-28731961D01*
X67348570Y-28731961D02*
X67300951Y-28827200D01*
X67300951Y-28827200D02*
X67205713Y-28874819D01*
X67205713Y-28874819D02*
X67062856Y-28874819D01*
X67062856Y-28874819D02*
X66967618Y-28827200D01*
X66967618Y-28827200D02*
X66919999Y-28779580D01*
X66539046Y-28874819D02*
X66015237Y-28208152D01*
X66539046Y-28208152D02*
X66015237Y-28874819D01*
X65634284Y-28779580D02*
X65586665Y-28827200D01*
X65586665Y-28827200D02*
X65634284Y-28874819D01*
X65634284Y-28874819D02*
X65681903Y-28827200D01*
X65681903Y-28827200D02*
X65634284Y-28779580D01*
X65634284Y-28779580D02*
X65634284Y-28874819D01*
X2588990Y-33777145D02*
X2588990Y-34110478D01*
X2065180Y-34110478D02*
X3065180Y-34110478D01*
X3065180Y-34110478D02*
X3065180Y-33634288D01*
X2065180Y-33110478D02*
X2112800Y-33205716D01*
X2112800Y-33205716D02*
X2160419Y-33253335D01*
X2160419Y-33253335D02*
X2255657Y-33300954D01*
X2255657Y-33300954D02*
X2541371Y-33300954D01*
X2541371Y-33300954D02*
X2636609Y-33253335D01*
X2636609Y-33253335D02*
X2684228Y-33205716D01*
X2684228Y-33205716D02*
X2731847Y-33110478D01*
X2731847Y-33110478D02*
X2731847Y-32967621D01*
X2731847Y-32967621D02*
X2684228Y-32872383D01*
X2684228Y-32872383D02*
X2636609Y-32824764D01*
X2636609Y-32824764D02*
X2541371Y-32777145D01*
X2541371Y-32777145D02*
X2255657Y-32777145D01*
X2255657Y-32777145D02*
X2160419Y-32824764D01*
X2160419Y-32824764D02*
X2112800Y-32872383D01*
X2112800Y-32872383D02*
X2065180Y-32967621D01*
X2065180Y-32967621D02*
X2065180Y-33110478D01*
X2112800Y-31920002D02*
X2065180Y-32015240D01*
X2065180Y-32015240D02*
X2065180Y-32205716D01*
X2065180Y-32205716D02*
X2112800Y-32300954D01*
X2112800Y-32300954D02*
X2160419Y-32348573D01*
X2160419Y-32348573D02*
X2255657Y-32396192D01*
X2255657Y-32396192D02*
X2541371Y-32396192D01*
X2541371Y-32396192D02*
X2636609Y-32348573D01*
X2636609Y-32348573D02*
X2684228Y-32300954D01*
X2684228Y-32300954D02*
X2731847Y-32205716D01*
X2731847Y-32205716D02*
X2731847Y-32015240D01*
X2731847Y-32015240D02*
X2684228Y-31920002D01*
X2731847Y-31062859D02*
X2065180Y-31062859D01*
X2731847Y-31491430D02*
X2208038Y-31491430D01*
X2208038Y-31491430D02*
X2112800Y-31443811D01*
X2112800Y-31443811D02*
X2065180Y-31348573D01*
X2065180Y-31348573D02*
X2065180Y-31205716D01*
X2065180Y-31205716D02*
X2112800Y-31110478D01*
X2112800Y-31110478D02*
X2160419Y-31062859D01*
X2112800Y-30634287D02*
X2065180Y-30539049D01*
X2065180Y-30539049D02*
X2065180Y-30348573D01*
X2065180Y-30348573D02*
X2112800Y-30253335D01*
X2112800Y-30253335D02*
X2208038Y-30205716D01*
X2208038Y-30205716D02*
X2255657Y-30205716D01*
X2255657Y-30205716D02*
X2350895Y-30253335D01*
X2350895Y-30253335D02*
X2398514Y-30348573D01*
X2398514Y-30348573D02*
X2398514Y-30491430D01*
X2398514Y-30491430D02*
X2446133Y-30586668D01*
X2446133Y-30586668D02*
X2541371Y-30634287D01*
X2541371Y-30634287D02*
X2588990Y-30634287D01*
X2588990Y-30634287D02*
X2684228Y-30586668D01*
X2684228Y-30586668D02*
X2731847Y-30491430D01*
X2731847Y-30491430D02*
X2731847Y-30348573D01*
X2731847Y-30348573D02*
X2684228Y-30253335D01*
X2112800Y-29396192D02*
X2065180Y-29491430D01*
X2065180Y-29491430D02*
X2065180Y-29681906D01*
X2065180Y-29681906D02*
X2112800Y-29777144D01*
X2112800Y-29777144D02*
X2208038Y-29824763D01*
X2208038Y-29824763D02*
X2588990Y-29824763D01*
X2588990Y-29824763D02*
X2684228Y-29777144D01*
X2684228Y-29777144D02*
X2731847Y-29681906D01*
X2731847Y-29681906D02*
X2731847Y-29491430D01*
X2731847Y-29491430D02*
X2684228Y-29396192D01*
X2684228Y-29396192D02*
X2588990Y-29348573D01*
X2588990Y-29348573D02*
X2493752Y-29348573D01*
X2493752Y-29348573D02*
X2398514Y-29824763D01*
X2065180Y-28920001D02*
X2731847Y-28920001D01*
X2541371Y-28920001D02*
X2636609Y-28872382D01*
X2636609Y-28872382D02*
X2684228Y-28824763D01*
X2684228Y-28824763D02*
X2731847Y-28729525D01*
X2731847Y-28729525D02*
X2731847Y-28634287D01*
X2112800Y-27110477D02*
X2065180Y-27205715D01*
X2065180Y-27205715D02*
X2065180Y-27396191D01*
X2065180Y-27396191D02*
X2112800Y-27491429D01*
X2112800Y-27491429D02*
X2160419Y-27539048D01*
X2160419Y-27539048D02*
X2255657Y-27586667D01*
X2255657Y-27586667D02*
X2541371Y-27586667D01*
X2541371Y-27586667D02*
X2636609Y-27539048D01*
X2636609Y-27539048D02*
X2684228Y-27491429D01*
X2684228Y-27491429D02*
X2731847Y-27396191D01*
X2731847Y-27396191D02*
X2731847Y-27205715D01*
X2731847Y-27205715D02*
X2684228Y-27110477D01*
X2065180Y-26539048D02*
X2112800Y-26634286D01*
X2112800Y-26634286D02*
X2160419Y-26681905D01*
X2160419Y-26681905D02*
X2255657Y-26729524D01*
X2255657Y-26729524D02*
X2541371Y-26729524D01*
X2541371Y-26729524D02*
X2636609Y-26681905D01*
X2636609Y-26681905D02*
X2684228Y-26634286D01*
X2684228Y-26634286D02*
X2731847Y-26539048D01*
X2731847Y-26539048D02*
X2731847Y-26396191D01*
X2731847Y-26396191D02*
X2684228Y-26300953D01*
X2684228Y-26300953D02*
X2636609Y-26253334D01*
X2636609Y-26253334D02*
X2541371Y-26205715D01*
X2541371Y-26205715D02*
X2255657Y-26205715D01*
X2255657Y-26205715D02*
X2160419Y-26253334D01*
X2160419Y-26253334D02*
X2112800Y-26300953D01*
X2112800Y-26300953D02*
X2065180Y-26396191D01*
X2065180Y-26396191D02*
X2065180Y-26539048D01*
X2731847Y-25777143D02*
X2065180Y-25777143D01*
X2636609Y-25777143D02*
X2684228Y-25729524D01*
X2684228Y-25729524D02*
X2731847Y-25634286D01*
X2731847Y-25634286D02*
X2731847Y-25491429D01*
X2731847Y-25491429D02*
X2684228Y-25396191D01*
X2684228Y-25396191D02*
X2588990Y-25348572D01*
X2588990Y-25348572D02*
X2065180Y-25348572D01*
X2731847Y-25015238D02*
X2731847Y-24634286D01*
X3065180Y-24872381D02*
X2208038Y-24872381D01*
X2208038Y-24872381D02*
X2112800Y-24824762D01*
X2112800Y-24824762D02*
X2065180Y-24729524D01*
X2065180Y-24729524D02*
X2065180Y-24634286D01*
X2065180Y-24300952D02*
X2731847Y-24300952D01*
X2541371Y-24300952D02*
X2636609Y-24253333D01*
X2636609Y-24253333D02*
X2684228Y-24205714D01*
X2684228Y-24205714D02*
X2731847Y-24110476D01*
X2731847Y-24110476D02*
X2731847Y-24015238D01*
X2065180Y-23539047D02*
X2112800Y-23634285D01*
X2112800Y-23634285D02*
X2160419Y-23681904D01*
X2160419Y-23681904D02*
X2255657Y-23729523D01*
X2255657Y-23729523D02*
X2541371Y-23729523D01*
X2541371Y-23729523D02*
X2636609Y-23681904D01*
X2636609Y-23681904D02*
X2684228Y-23634285D01*
X2684228Y-23634285D02*
X2731847Y-23539047D01*
X2731847Y-23539047D02*
X2731847Y-23396190D01*
X2731847Y-23396190D02*
X2684228Y-23300952D01*
X2684228Y-23300952D02*
X2636609Y-23253333D01*
X2636609Y-23253333D02*
X2541371Y-23205714D01*
X2541371Y-23205714D02*
X2255657Y-23205714D01*
X2255657Y-23205714D02*
X2160419Y-23253333D01*
X2160419Y-23253333D02*
X2112800Y-23300952D01*
X2112800Y-23300952D02*
X2065180Y-23396190D01*
X2065180Y-23396190D02*
X2065180Y-23539047D01*
X2065180Y-22634285D02*
X2112800Y-22729523D01*
X2112800Y-22729523D02*
X2208038Y-22777142D01*
X2208038Y-22777142D02*
X3065180Y-22777142D01*
X2065180Y-22110475D02*
X2112800Y-22205713D01*
X2112800Y-22205713D02*
X2208038Y-22253332D01*
X2208038Y-22253332D02*
X3065180Y-22253332D01*
X2112800Y-21348570D02*
X2065180Y-21443808D01*
X2065180Y-21443808D02*
X2065180Y-21634284D01*
X2065180Y-21634284D02*
X2112800Y-21729522D01*
X2112800Y-21729522D02*
X2208038Y-21777141D01*
X2208038Y-21777141D02*
X2588990Y-21777141D01*
X2588990Y-21777141D02*
X2684228Y-21729522D01*
X2684228Y-21729522D02*
X2731847Y-21634284D01*
X2731847Y-21634284D02*
X2731847Y-21443808D01*
X2731847Y-21443808D02*
X2684228Y-21348570D01*
X2684228Y-21348570D02*
X2588990Y-21300951D01*
X2588990Y-21300951D02*
X2493752Y-21300951D01*
X2493752Y-21300951D02*
X2398514Y-21777141D01*
X2065180Y-20872379D02*
X2731847Y-20872379D01*
X2541371Y-20872379D02*
X2636609Y-20824760D01*
X2636609Y-20824760D02*
X2684228Y-20777141D01*
X2684228Y-20777141D02*
X2731847Y-20681903D01*
X2731847Y-20681903D02*
X2731847Y-20586665D01*
X2065180Y-19491426D02*
X3065180Y-19491426D01*
X2684228Y-19491426D02*
X2731847Y-19396188D01*
X2731847Y-19396188D02*
X2731847Y-19205712D01*
X2731847Y-19205712D02*
X2684228Y-19110474D01*
X2684228Y-19110474D02*
X2636609Y-19062855D01*
X2636609Y-19062855D02*
X2541371Y-19015236D01*
X2541371Y-19015236D02*
X2255657Y-19015236D01*
X2255657Y-19015236D02*
X2160419Y-19062855D01*
X2160419Y-19062855D02*
X2112800Y-19110474D01*
X2112800Y-19110474D02*
X2065180Y-19205712D01*
X2065180Y-19205712D02*
X2065180Y-19396188D01*
X2065180Y-19396188D02*
X2112800Y-19491426D01*
X2065180Y-18443807D02*
X2112800Y-18539045D01*
X2112800Y-18539045D02*
X2160419Y-18586664D01*
X2160419Y-18586664D02*
X2255657Y-18634283D01*
X2255657Y-18634283D02*
X2541371Y-18634283D01*
X2541371Y-18634283D02*
X2636609Y-18586664D01*
X2636609Y-18586664D02*
X2684228Y-18539045D01*
X2684228Y-18539045D02*
X2731847Y-18443807D01*
X2731847Y-18443807D02*
X2731847Y-18300950D01*
X2731847Y-18300950D02*
X2684228Y-18205712D01*
X2684228Y-18205712D02*
X2636609Y-18158093D01*
X2636609Y-18158093D02*
X2541371Y-18110474D01*
X2541371Y-18110474D02*
X2255657Y-18110474D01*
X2255657Y-18110474D02*
X2160419Y-18158093D01*
X2160419Y-18158093D02*
X2112800Y-18205712D01*
X2112800Y-18205712D02*
X2065180Y-18300950D01*
X2065180Y-18300950D02*
X2065180Y-18443807D01*
X2065180Y-17253331D02*
X2588990Y-17253331D01*
X2588990Y-17253331D02*
X2684228Y-17300950D01*
X2684228Y-17300950D02*
X2731847Y-17396188D01*
X2731847Y-17396188D02*
X2731847Y-17586664D01*
X2731847Y-17586664D02*
X2684228Y-17681902D01*
X2112800Y-17253331D02*
X2065180Y-17348569D01*
X2065180Y-17348569D02*
X2065180Y-17586664D01*
X2065180Y-17586664D02*
X2112800Y-17681902D01*
X2112800Y-17681902D02*
X2208038Y-17729521D01*
X2208038Y-17729521D02*
X2303276Y-17729521D01*
X2303276Y-17729521D02*
X2398514Y-17681902D01*
X2398514Y-17681902D02*
X2446133Y-17586664D01*
X2446133Y-17586664D02*
X2446133Y-17348569D01*
X2446133Y-17348569D02*
X2493752Y-17253331D01*
X2065180Y-16777140D02*
X2731847Y-16777140D01*
X2541371Y-16777140D02*
X2636609Y-16729521D01*
X2636609Y-16729521D02*
X2684228Y-16681902D01*
X2684228Y-16681902D02*
X2731847Y-16586664D01*
X2731847Y-16586664D02*
X2731847Y-16491426D01*
X2065180Y-15729521D02*
X3065180Y-15729521D01*
X2112800Y-15729521D02*
X2065180Y-15824759D01*
X2065180Y-15824759D02*
X2065180Y-16015235D01*
X2065180Y-16015235D02*
X2112800Y-16110473D01*
X2112800Y-16110473D02*
X2160419Y-16158092D01*
X2160419Y-16158092D02*
X2255657Y-16205711D01*
X2255657Y-16205711D02*
X2541371Y-16205711D01*
X2541371Y-16205711D02*
X2636609Y-16158092D01*
X2636609Y-16158092D02*
X2684228Y-16110473D01*
X2684228Y-16110473D02*
X2731847Y-16015235D01*
X2731847Y-16015235D02*
X2731847Y-15824759D01*
X2731847Y-15824759D02*
X2684228Y-15729521D01*
D13*
X57215238Y-43846800D02*
X57100952Y-43884895D01*
X57100952Y-43884895D02*
X56910476Y-43884895D01*
X56910476Y-43884895D02*
X56834285Y-43846800D01*
X56834285Y-43846800D02*
X56796190Y-43808704D01*
X56796190Y-43808704D02*
X56758095Y-43732514D01*
X56758095Y-43732514D02*
X56758095Y-43656323D01*
X56758095Y-43656323D02*
X56796190Y-43580133D01*
X56796190Y-43580133D02*
X56834285Y-43542038D01*
X56834285Y-43542038D02*
X56910476Y-43503942D01*
X56910476Y-43503942D02*
X57062857Y-43465847D01*
X57062857Y-43465847D02*
X57139047Y-43427752D01*
X57139047Y-43427752D02*
X57177142Y-43389657D01*
X57177142Y-43389657D02*
X57215238Y-43313466D01*
X57215238Y-43313466D02*
X57215238Y-43237276D01*
X57215238Y-43237276D02*
X57177142Y-43161085D01*
X57177142Y-43161085D02*
X57139047Y-43122990D01*
X57139047Y-43122990D02*
X57062857Y-43084895D01*
X57062857Y-43084895D02*
X56872380Y-43084895D01*
X56872380Y-43084895D02*
X56758095Y-43122990D01*
X56491428Y-43084895D02*
X56300952Y-43884895D01*
X56300952Y-43884895D02*
X56148571Y-43313466D01*
X56148571Y-43313466D02*
X55996190Y-43884895D01*
X55996190Y-43884895D02*
X55805714Y-43084895D01*
X55500951Y-43884895D02*
X55500951Y-43084895D01*
X55500951Y-43084895D02*
X55310475Y-43084895D01*
X55310475Y-43084895D02*
X55196189Y-43122990D01*
X55196189Y-43122990D02*
X55119999Y-43199180D01*
X55119999Y-43199180D02*
X55081904Y-43275371D01*
X55081904Y-43275371D02*
X55043808Y-43427752D01*
X55043808Y-43427752D02*
X55043808Y-43542038D01*
X55043808Y-43542038D02*
X55081904Y-43694419D01*
X55081904Y-43694419D02*
X55119999Y-43770609D01*
X55119999Y-43770609D02*
X55196189Y-43846800D01*
X55196189Y-43846800D02*
X55310475Y-43884895D01*
X55310475Y-43884895D02*
X55500951Y-43884895D01*
X54700951Y-43884895D02*
X54700951Y-43084895D01*
X54167618Y-43084895D02*
X54015237Y-43084895D01*
X54015237Y-43084895D02*
X53939047Y-43122990D01*
X53939047Y-43122990D02*
X53862856Y-43199180D01*
X53862856Y-43199180D02*
X53824761Y-43351561D01*
X53824761Y-43351561D02*
X53824761Y-43618228D01*
X53824761Y-43618228D02*
X53862856Y-43770609D01*
X53862856Y-43770609D02*
X53939047Y-43846800D01*
X53939047Y-43846800D02*
X54015237Y-43884895D01*
X54015237Y-43884895D02*
X54167618Y-43884895D01*
X54167618Y-43884895D02*
X54243809Y-43846800D01*
X54243809Y-43846800D02*
X54319999Y-43770609D01*
X54319999Y-43770609D02*
X54358095Y-43618228D01*
X54358095Y-43618228D02*
X54358095Y-43351561D01*
X54358095Y-43351561D02*
X54319999Y-43199180D01*
X54319999Y-43199180D02*
X54243809Y-43122990D01*
X54243809Y-43122990D02*
X54167618Y-43084895D01*
D11*
X59867618Y-39074819D02*
X59867618Y-38074819D01*
X59867618Y-38074819D02*
X59629523Y-38074819D01*
X59629523Y-38074819D02*
X59486666Y-38122438D01*
X59486666Y-38122438D02*
X59391428Y-38217676D01*
X59391428Y-38217676D02*
X59343809Y-38312914D01*
X59343809Y-38312914D02*
X59296190Y-38503390D01*
X59296190Y-38503390D02*
X59296190Y-38646247D01*
X59296190Y-38646247D02*
X59343809Y-38836723D01*
X59343809Y-38836723D02*
X59391428Y-38931961D01*
X59391428Y-38931961D02*
X59486666Y-39027200D01*
X59486666Y-39027200D02*
X59629523Y-39074819D01*
X59629523Y-39074819D02*
X59867618Y-39074819D01*
X58486666Y-39027200D02*
X58581904Y-39074819D01*
X58581904Y-39074819D02*
X58772380Y-39074819D01*
X58772380Y-39074819D02*
X58867618Y-39027200D01*
X58867618Y-39027200D02*
X58915237Y-38931961D01*
X58915237Y-38931961D02*
X58915237Y-38551009D01*
X58915237Y-38551009D02*
X58867618Y-38455771D01*
X58867618Y-38455771D02*
X58772380Y-38408152D01*
X58772380Y-38408152D02*
X58581904Y-38408152D01*
X58581904Y-38408152D02*
X58486666Y-38455771D01*
X58486666Y-38455771D02*
X58439047Y-38551009D01*
X58439047Y-38551009D02*
X58439047Y-38646247D01*
X58439047Y-38646247D02*
X58915237Y-38741485D01*
X58010475Y-39074819D02*
X58010475Y-38074819D01*
X58010475Y-38455771D02*
X57915237Y-38408152D01*
X57915237Y-38408152D02*
X57724761Y-38408152D01*
X57724761Y-38408152D02*
X57629523Y-38455771D01*
X57629523Y-38455771D02*
X57581904Y-38503390D01*
X57581904Y-38503390D02*
X57534285Y-38598628D01*
X57534285Y-38598628D02*
X57534285Y-38884342D01*
X57534285Y-38884342D02*
X57581904Y-38979580D01*
X57581904Y-38979580D02*
X57629523Y-39027200D01*
X57629523Y-39027200D02*
X57724761Y-39074819D01*
X57724761Y-39074819D02*
X57915237Y-39074819D01*
X57915237Y-39074819D02*
X58010475Y-39027200D01*
X56677142Y-38408152D02*
X56677142Y-39074819D01*
X57105713Y-38408152D02*
X57105713Y-38931961D01*
X57105713Y-38931961D02*
X57058094Y-39027200D01*
X57058094Y-39027200D02*
X56962856Y-39074819D01*
X56962856Y-39074819D02*
X56819999Y-39074819D01*
X56819999Y-39074819D02*
X56724761Y-39027200D01*
X56724761Y-39027200D02*
X56677142Y-38979580D01*
X55772380Y-38408152D02*
X55772380Y-39217676D01*
X55772380Y-39217676D02*
X55819999Y-39312914D01*
X55819999Y-39312914D02*
X55867618Y-39360533D01*
X55867618Y-39360533D02*
X55962856Y-39408152D01*
X55962856Y-39408152D02*
X56105713Y-39408152D01*
X56105713Y-39408152D02*
X56200951Y-39360533D01*
X55772380Y-39027200D02*
X55867618Y-39074819D01*
X55867618Y-39074819D02*
X56058094Y-39074819D01*
X56058094Y-39074819D02*
X56153332Y-39027200D01*
X56153332Y-39027200D02*
X56200951Y-38979580D01*
X56200951Y-38979580D02*
X56248570Y-38884342D01*
X56248570Y-38884342D02*
X56248570Y-38598628D01*
X56248570Y-38598628D02*
X56200951Y-38503390D01*
X56200951Y-38503390D02*
X56153332Y-38455771D01*
X56153332Y-38455771D02*
X56058094Y-38408152D01*
X56058094Y-38408152D02*
X55867618Y-38408152D01*
X55867618Y-38408152D02*
X55772380Y-38455771D01*
D14*
X57695238Y-1391004D02*
X57695238Y-2443385D01*
X57695238Y-2443385D02*
X57633333Y-2567195D01*
X57633333Y-2567195D02*
X57571428Y-2629100D01*
X57571428Y-2629100D02*
X57447619Y-2691004D01*
X57447619Y-2691004D02*
X57200000Y-2691004D01*
X57200000Y-2691004D02*
X57076190Y-2629100D01*
X57076190Y-2629100D02*
X57014285Y-2567195D01*
X57014285Y-2567195D02*
X56952381Y-2443385D01*
X56952381Y-2443385D02*
X56952381Y-1391004D01*
X56395237Y-2629100D02*
X56209523Y-2691004D01*
X56209523Y-2691004D02*
X55899999Y-2691004D01*
X55899999Y-2691004D02*
X55776190Y-2629100D01*
X55776190Y-2629100D02*
X55714285Y-2567195D01*
X55714285Y-2567195D02*
X55652380Y-2443385D01*
X55652380Y-2443385D02*
X55652380Y-2319576D01*
X55652380Y-2319576D02*
X55714285Y-2195766D01*
X55714285Y-2195766D02*
X55776190Y-2133861D01*
X55776190Y-2133861D02*
X55899999Y-2071957D01*
X55899999Y-2071957D02*
X56147618Y-2010052D01*
X56147618Y-2010052D02*
X56271428Y-1948147D01*
X56271428Y-1948147D02*
X56333333Y-1886242D01*
X56333333Y-1886242D02*
X56395237Y-1762433D01*
X56395237Y-1762433D02*
X56395237Y-1638623D01*
X56395237Y-1638623D02*
X56333333Y-1514814D01*
X56333333Y-1514814D02*
X56271428Y-1452909D01*
X56271428Y-1452909D02*
X56147618Y-1391004D01*
X56147618Y-1391004D02*
X55838095Y-1391004D01*
X55838095Y-1391004D02*
X55652380Y-1452909D01*
X54661904Y-2010052D02*
X54476190Y-2071957D01*
X54476190Y-2071957D02*
X54414285Y-2133861D01*
X54414285Y-2133861D02*
X54352381Y-2257671D01*
X54352381Y-2257671D02*
X54352381Y-2443385D01*
X54352381Y-2443385D02*
X54414285Y-2567195D01*
X54414285Y-2567195D02*
X54476190Y-2629100D01*
X54476190Y-2629100D02*
X54600000Y-2691004D01*
X54600000Y-2691004D02*
X55095238Y-2691004D01*
X55095238Y-2691004D02*
X55095238Y-1391004D01*
X55095238Y-1391004D02*
X54661904Y-1391004D01*
X54661904Y-1391004D02*
X54538095Y-1452909D01*
X54538095Y-1452909D02*
X54476190Y-1514814D01*
X54476190Y-1514814D02*
X54414285Y-1638623D01*
X54414285Y-1638623D02*
X54414285Y-1762433D01*
X54414285Y-1762433D02*
X54476190Y-1886242D01*
X54476190Y-1886242D02*
X54538095Y-1948147D01*
X54538095Y-1948147D02*
X54661904Y-2010052D01*
X54661904Y-2010052D02*
X55095238Y-2010052D01*
X53795238Y-2195766D02*
X52804762Y-2195766D01*
X51442857Y-2567195D02*
X51504761Y-2629100D01*
X51504761Y-2629100D02*
X51690476Y-2691004D01*
X51690476Y-2691004D02*
X51814285Y-2691004D01*
X51814285Y-2691004D02*
X51999999Y-2629100D01*
X51999999Y-2629100D02*
X52123809Y-2505290D01*
X52123809Y-2505290D02*
X52185714Y-2381480D01*
X52185714Y-2381480D02*
X52247618Y-2133861D01*
X52247618Y-2133861D02*
X52247618Y-1948147D01*
X52247618Y-1948147D02*
X52185714Y-1700528D01*
X52185714Y-1700528D02*
X52123809Y-1576719D01*
X52123809Y-1576719D02*
X51999999Y-1452909D01*
X51999999Y-1452909D02*
X51814285Y-1391004D01*
X51814285Y-1391004D02*
X51690476Y-1391004D01*
X51690476Y-1391004D02*
X51504761Y-1452909D01*
X51504761Y-1452909D02*
X51442857Y-1514814D01*
X16469047Y-2091004D02*
X16469047Y-791004D01*
X16469047Y-791004D02*
X15973809Y-791004D01*
X15973809Y-791004D02*
X15849999Y-852909D01*
X15849999Y-852909D02*
X15788094Y-914814D01*
X15788094Y-914814D02*
X15726190Y-1038623D01*
X15726190Y-1038623D02*
X15726190Y-1224338D01*
X15726190Y-1224338D02*
X15788094Y-1348147D01*
X15788094Y-1348147D02*
X15849999Y-1410052D01*
X15849999Y-1410052D02*
X15973809Y-1471957D01*
X15973809Y-1471957D02*
X16469047Y-1471957D01*
X14983332Y-2091004D02*
X15107142Y-2029100D01*
X15107142Y-2029100D02*
X15169047Y-1967195D01*
X15169047Y-1967195D02*
X15230951Y-1843385D01*
X15230951Y-1843385D02*
X15230951Y-1471957D01*
X15230951Y-1471957D02*
X15169047Y-1348147D01*
X15169047Y-1348147D02*
X15107142Y-1286242D01*
X15107142Y-1286242D02*
X14983332Y-1224338D01*
X14983332Y-1224338D02*
X14797618Y-1224338D01*
X14797618Y-1224338D02*
X14673809Y-1286242D01*
X14673809Y-1286242D02*
X14611904Y-1348147D01*
X14611904Y-1348147D02*
X14549999Y-1471957D01*
X14549999Y-1471957D02*
X14549999Y-1843385D01*
X14549999Y-1843385D02*
X14611904Y-1967195D01*
X14611904Y-1967195D02*
X14673809Y-2029100D01*
X14673809Y-2029100D02*
X14797618Y-2091004D01*
X14797618Y-2091004D02*
X14983332Y-2091004D01*
X14116666Y-1224338D02*
X13869047Y-2091004D01*
X13869047Y-2091004D02*
X13621428Y-1471957D01*
X13621428Y-1471957D02*
X13373809Y-2091004D01*
X13373809Y-2091004D02*
X13126190Y-1224338D01*
X12135714Y-2029100D02*
X12259523Y-2091004D01*
X12259523Y-2091004D02*
X12507142Y-2091004D01*
X12507142Y-2091004D02*
X12630952Y-2029100D01*
X12630952Y-2029100D02*
X12692856Y-1905290D01*
X12692856Y-1905290D02*
X12692856Y-1410052D01*
X12692856Y-1410052D02*
X12630952Y-1286242D01*
X12630952Y-1286242D02*
X12507142Y-1224338D01*
X12507142Y-1224338D02*
X12259523Y-1224338D01*
X12259523Y-1224338D02*
X12135714Y-1286242D01*
X12135714Y-1286242D02*
X12073809Y-1410052D01*
X12073809Y-1410052D02*
X12073809Y-1533861D01*
X12073809Y-1533861D02*
X12692856Y-1657671D01*
X11516666Y-2091004D02*
X11516666Y-1224338D01*
X11516666Y-1471957D02*
X11454761Y-1348147D01*
X11454761Y-1348147D02*
X11392856Y-1286242D01*
X11392856Y-1286242D02*
X11269047Y-1224338D01*
X11269047Y-1224338D02*
X11145237Y-1224338D01*
D11*
X69610475Y-25374819D02*
X68991428Y-25374819D01*
X68991428Y-25374819D02*
X69324761Y-25755771D01*
X69324761Y-25755771D02*
X69181904Y-25755771D01*
X69181904Y-25755771D02*
X69086666Y-25803390D01*
X69086666Y-25803390D02*
X69039047Y-25851009D01*
X69039047Y-25851009D02*
X68991428Y-25946247D01*
X68991428Y-25946247D02*
X68991428Y-26184342D01*
X68991428Y-26184342D02*
X69039047Y-26279580D01*
X69039047Y-26279580D02*
X69086666Y-26327200D01*
X69086666Y-26327200D02*
X69181904Y-26374819D01*
X69181904Y-26374819D02*
X69467618Y-26374819D01*
X69467618Y-26374819D02*
X69562856Y-26327200D01*
X69562856Y-26327200D02*
X69610475Y-26279580D01*
X68658094Y-25708152D02*
X68419999Y-26374819D01*
X68419999Y-26374819D02*
X68181904Y-25708152D01*
X67896189Y-25374819D02*
X67277142Y-25374819D01*
X67277142Y-25374819D02*
X67610475Y-25755771D01*
X67610475Y-25755771D02*
X67467618Y-25755771D01*
X67467618Y-25755771D02*
X67372380Y-25803390D01*
X67372380Y-25803390D02*
X67324761Y-25851009D01*
X67324761Y-25851009D02*
X67277142Y-25946247D01*
X67277142Y-25946247D02*
X67277142Y-26184342D01*
X67277142Y-26184342D02*
X67324761Y-26279580D01*
X67324761Y-26279580D02*
X67372380Y-26327200D01*
X67372380Y-26327200D02*
X67467618Y-26374819D01*
X67467618Y-26374819D02*
X67753332Y-26374819D01*
X67753332Y-26374819D02*
X67848570Y-26327200D01*
X67848570Y-26327200D02*
X67896189Y-26279580D01*
D14*
X35559524Y-5644504D02*
X35559524Y-4344504D01*
X35559524Y-4963552D02*
X34816667Y-4963552D01*
X34816667Y-5644504D02*
X34816667Y-4344504D01*
X34259523Y-5273076D02*
X33640476Y-5273076D01*
X34383333Y-5644504D02*
X33950000Y-4344504D01*
X33950000Y-4344504D02*
X33516666Y-5644504D01*
X33083333Y-5644504D02*
X33083333Y-4344504D01*
X33083333Y-4344504D02*
X32340476Y-5644504D01*
X32340476Y-5644504D02*
X32340476Y-4344504D01*
X31721428Y-5644504D02*
X31721428Y-4344504D01*
X31721428Y-4344504D02*
X31411904Y-4344504D01*
X31411904Y-4344504D02*
X31226190Y-4406409D01*
X31226190Y-4406409D02*
X31102380Y-4530219D01*
X31102380Y-4530219D02*
X31040475Y-4654028D01*
X31040475Y-4654028D02*
X30978571Y-4901647D01*
X30978571Y-4901647D02*
X30978571Y-5087361D01*
X30978571Y-5087361D02*
X31040475Y-5334980D01*
X31040475Y-5334980D02*
X31102380Y-5458790D01*
X31102380Y-5458790D02*
X31226190Y-5582600D01*
X31226190Y-5582600D02*
X31411904Y-5644504D01*
X31411904Y-5644504D02*
X31721428Y-5644504D01*
X34878571Y-7613695D02*
X34940475Y-7675600D01*
X34940475Y-7675600D02*
X35126190Y-7737504D01*
X35126190Y-7737504D02*
X35249999Y-7737504D01*
X35249999Y-7737504D02*
X35435713Y-7675600D01*
X35435713Y-7675600D02*
X35559523Y-7551790D01*
X35559523Y-7551790D02*
X35621428Y-7427980D01*
X35621428Y-7427980D02*
X35683332Y-7180361D01*
X35683332Y-7180361D02*
X35683332Y-6994647D01*
X35683332Y-6994647D02*
X35621428Y-6747028D01*
X35621428Y-6747028D02*
X35559523Y-6623219D01*
X35559523Y-6623219D02*
X35435713Y-6499409D01*
X35435713Y-6499409D02*
X35249999Y-6437504D01*
X35249999Y-6437504D02*
X35126190Y-6437504D01*
X35126190Y-6437504D02*
X34940475Y-6499409D01*
X34940475Y-6499409D02*
X34878571Y-6561314D01*
X34507142Y-6437504D02*
X33764285Y-6437504D01*
X34135713Y-7737504D02*
X34135713Y-6437504D01*
X32588095Y-7737504D02*
X33021428Y-7118457D01*
X33330952Y-7737504D02*
X33330952Y-6437504D01*
X33330952Y-6437504D02*
X32835714Y-6437504D01*
X32835714Y-6437504D02*
X32711904Y-6499409D01*
X32711904Y-6499409D02*
X32649999Y-6561314D01*
X32649999Y-6561314D02*
X32588095Y-6685123D01*
X32588095Y-6685123D02*
X32588095Y-6870838D01*
X32588095Y-6870838D02*
X32649999Y-6994647D01*
X32649999Y-6994647D02*
X32711904Y-7056552D01*
X32711904Y-7056552D02*
X32835714Y-7118457D01*
X32835714Y-7118457D02*
X33330952Y-7118457D01*
X31411904Y-7737504D02*
X32030952Y-7737504D01*
X32030952Y-7737504D02*
X32030952Y-6437504D01*
X30978571Y-7613695D02*
X30916666Y-7675600D01*
X30916666Y-7675600D02*
X30978571Y-7737504D01*
X30978571Y-7737504D02*
X31040475Y-7675600D01*
X31040475Y-7675600D02*
X30978571Y-7613695D01*
X30978571Y-7613695D02*
X30978571Y-7737504D01*
X48683332Y-1391004D02*
X47940475Y-1391004D01*
X48311903Y-2691004D02*
X48311903Y-1391004D01*
X47507142Y-2691004D02*
X47507142Y-1391004D01*
X46949999Y-2691004D02*
X46949999Y-2010052D01*
X46949999Y-2010052D02*
X47011904Y-1886242D01*
X47011904Y-1886242D02*
X47135713Y-1824338D01*
X47135713Y-1824338D02*
X47321427Y-1824338D01*
X47321427Y-1824338D02*
X47445237Y-1886242D01*
X47445237Y-1886242D02*
X47507142Y-1948147D01*
X45835714Y-2629100D02*
X45959523Y-2691004D01*
X45959523Y-2691004D02*
X46207142Y-2691004D01*
X46207142Y-2691004D02*
X46330952Y-2629100D01*
X46330952Y-2629100D02*
X46392856Y-2505290D01*
X46392856Y-2505290D02*
X46392856Y-2010052D01*
X46392856Y-2010052D02*
X46330952Y-1886242D01*
X46330952Y-1886242D02*
X46207142Y-1824338D01*
X46207142Y-1824338D02*
X45959523Y-1824338D01*
X45959523Y-1824338D02*
X45835714Y-1886242D01*
X45835714Y-1886242D02*
X45773809Y-2010052D01*
X45773809Y-2010052D02*
X45773809Y-2133861D01*
X45773809Y-2133861D02*
X46392856Y-2257671D01*
X45216666Y-2691004D02*
X45216666Y-1824338D01*
X45216666Y-2071957D02*
X45154761Y-1948147D01*
X45154761Y-1948147D02*
X45092856Y-1886242D01*
X45092856Y-1886242D02*
X44969047Y-1824338D01*
X44969047Y-1824338D02*
X44845237Y-1824338D01*
X44411904Y-2691004D02*
X44411904Y-1824338D01*
X44411904Y-1948147D02*
X44349999Y-1886242D01*
X44349999Y-1886242D02*
X44226189Y-1824338D01*
X44226189Y-1824338D02*
X44040475Y-1824338D01*
X44040475Y-1824338D02*
X43916666Y-1886242D01*
X43916666Y-1886242D02*
X43854761Y-2010052D01*
X43854761Y-2010052D02*
X43854761Y-2691004D01*
X43854761Y-2010052D02*
X43792856Y-1886242D01*
X43792856Y-1886242D02*
X43669047Y-1824338D01*
X43669047Y-1824338D02*
X43483332Y-1824338D01*
X43483332Y-1824338D02*
X43359523Y-1886242D01*
X43359523Y-1886242D02*
X43297618Y-2010052D01*
X43297618Y-2010052D02*
X43297618Y-2691004D01*
X42678571Y-2691004D02*
X42678571Y-1824338D01*
X42678571Y-1391004D02*
X42740475Y-1452909D01*
X42740475Y-1452909D02*
X42678571Y-1514814D01*
X42678571Y-1514814D02*
X42616666Y-1452909D01*
X42616666Y-1452909D02*
X42678571Y-1391004D01*
X42678571Y-1391004D02*
X42678571Y-1514814D01*
X42121427Y-2629100D02*
X41997618Y-2691004D01*
X41997618Y-2691004D02*
X41749999Y-2691004D01*
X41749999Y-2691004D02*
X41626189Y-2629100D01*
X41626189Y-2629100D02*
X41564285Y-2505290D01*
X41564285Y-2505290D02*
X41564285Y-2443385D01*
X41564285Y-2443385D02*
X41626189Y-2319576D01*
X41626189Y-2319576D02*
X41749999Y-2257671D01*
X41749999Y-2257671D02*
X41935713Y-2257671D01*
X41935713Y-2257671D02*
X42059523Y-2195766D01*
X42059523Y-2195766D02*
X42121427Y-2071957D01*
X42121427Y-2071957D02*
X42121427Y-2010052D01*
X42121427Y-2010052D02*
X42059523Y-1886242D01*
X42059523Y-1886242D02*
X41935713Y-1824338D01*
X41935713Y-1824338D02*
X41749999Y-1824338D01*
X41749999Y-1824338D02*
X41626189Y-1886242D01*
X41192856Y-1824338D02*
X40697618Y-1824338D01*
X41007142Y-1391004D02*
X41007142Y-2505290D01*
X41007142Y-2505290D02*
X40945237Y-2629100D01*
X40945237Y-2629100D02*
X40821427Y-2691004D01*
X40821427Y-2691004D02*
X40697618Y-2691004D01*
X40078570Y-2691004D02*
X40202380Y-2629100D01*
X40202380Y-2629100D02*
X40264285Y-2567195D01*
X40264285Y-2567195D02*
X40326189Y-2443385D01*
X40326189Y-2443385D02*
X40326189Y-2071957D01*
X40326189Y-2071957D02*
X40264285Y-1948147D01*
X40264285Y-1948147D02*
X40202380Y-1886242D01*
X40202380Y-1886242D02*
X40078570Y-1824338D01*
X40078570Y-1824338D02*
X39892856Y-1824338D01*
X39892856Y-1824338D02*
X39769047Y-1886242D01*
X39769047Y-1886242D02*
X39707142Y-1948147D01*
X39707142Y-1948147D02*
X39645237Y-2071957D01*
X39645237Y-2071957D02*
X39645237Y-2443385D01*
X39645237Y-2443385D02*
X39707142Y-2567195D01*
X39707142Y-2567195D02*
X39769047Y-2629100D01*
X39769047Y-2629100D02*
X39892856Y-2691004D01*
X39892856Y-2691004D02*
X40078570Y-2691004D01*
X39088095Y-2691004D02*
X39088095Y-1824338D01*
X39088095Y-2071957D02*
X39026190Y-1948147D01*
X39026190Y-1948147D02*
X38964285Y-1886242D01*
X38964285Y-1886242D02*
X38840476Y-1824338D01*
X38840476Y-1824338D02*
X38716666Y-1824338D01*
D11*
%TO.C,SW5*%
X14040363Y-16651288D02*
X13897506Y-16698907D01*
X13897506Y-16698907D02*
X13659411Y-16698907D01*
X13659411Y-16698907D02*
X13564173Y-16651288D01*
X13564173Y-16651288D02*
X13516554Y-16603668D01*
X13516554Y-16603668D02*
X13468935Y-16508430D01*
X13468935Y-16508430D02*
X13468935Y-16413192D01*
X13468935Y-16413192D02*
X13516554Y-16317954D01*
X13516554Y-16317954D02*
X13564173Y-16270335D01*
X13564173Y-16270335D02*
X13659411Y-16222716D01*
X13659411Y-16222716D02*
X13849887Y-16175097D01*
X13849887Y-16175097D02*
X13945125Y-16127478D01*
X13945125Y-16127478D02*
X13992744Y-16079859D01*
X13992744Y-16079859D02*
X14040363Y-15984621D01*
X14040363Y-15984621D02*
X14040363Y-15889383D01*
X14040363Y-15889383D02*
X13992744Y-15794145D01*
X13992744Y-15794145D02*
X13945125Y-15746526D01*
X13945125Y-15746526D02*
X13849887Y-15698907D01*
X13849887Y-15698907D02*
X13611792Y-15698907D01*
X13611792Y-15698907D02*
X13468935Y-15746526D01*
X13135601Y-15698907D02*
X12897506Y-16698907D01*
X12897506Y-16698907D02*
X12707030Y-15984621D01*
X12707030Y-15984621D02*
X12516554Y-16698907D01*
X12516554Y-16698907D02*
X12278459Y-15698907D01*
X11421316Y-15698907D02*
X11897506Y-15698907D01*
X11897506Y-15698907D02*
X11945125Y-16175097D01*
X11945125Y-16175097D02*
X11897506Y-16127478D01*
X11897506Y-16127478D02*
X11802268Y-16079859D01*
X11802268Y-16079859D02*
X11564173Y-16079859D01*
X11564173Y-16079859D02*
X11468935Y-16127478D01*
X11468935Y-16127478D02*
X11421316Y-16175097D01*
X11421316Y-16175097D02*
X11373697Y-16270335D01*
X11373697Y-16270335D02*
X11373697Y-16508430D01*
X11373697Y-16508430D02*
X11421316Y-16603668D01*
X11421316Y-16603668D02*
X11468935Y-16651288D01*
X11468935Y-16651288D02*
X11564173Y-16698907D01*
X11564173Y-16698907D02*
X11802268Y-16698907D01*
X11802268Y-16698907D02*
X11897506Y-16651288D01*
X11897506Y-16651288D02*
X11945125Y-16603668D01*
%TO.C,SW4*%
X14107428Y-23290683D02*
X13964571Y-23338302D01*
X13964571Y-23338302D02*
X13726476Y-23338302D01*
X13726476Y-23338302D02*
X13631238Y-23290683D01*
X13631238Y-23290683D02*
X13583619Y-23243063D01*
X13583619Y-23243063D02*
X13536000Y-23147825D01*
X13536000Y-23147825D02*
X13536000Y-23052587D01*
X13536000Y-23052587D02*
X13583619Y-22957349D01*
X13583619Y-22957349D02*
X13631238Y-22909730D01*
X13631238Y-22909730D02*
X13726476Y-22862111D01*
X13726476Y-22862111D02*
X13916952Y-22814492D01*
X13916952Y-22814492D02*
X14012190Y-22766873D01*
X14012190Y-22766873D02*
X14059809Y-22719254D01*
X14059809Y-22719254D02*
X14107428Y-22624016D01*
X14107428Y-22624016D02*
X14107428Y-22528778D01*
X14107428Y-22528778D02*
X14059809Y-22433540D01*
X14059809Y-22433540D02*
X14012190Y-22385921D01*
X14012190Y-22385921D02*
X13916952Y-22338302D01*
X13916952Y-22338302D02*
X13678857Y-22338302D01*
X13678857Y-22338302D02*
X13536000Y-22385921D01*
X13202666Y-22338302D02*
X12964571Y-23338302D01*
X12964571Y-23338302D02*
X12774095Y-22624016D01*
X12774095Y-22624016D02*
X12583619Y-23338302D01*
X12583619Y-23338302D02*
X12345524Y-22338302D01*
X11536000Y-22671635D02*
X11536000Y-23338302D01*
X11774095Y-22290683D02*
X12012190Y-23004968D01*
X12012190Y-23004968D02*
X11393143Y-23004968D01*
%TO.C,SW2*%
X13903332Y-36593868D02*
X13760475Y-36641487D01*
X13760475Y-36641487D02*
X13522380Y-36641487D01*
X13522380Y-36641487D02*
X13427142Y-36593868D01*
X13427142Y-36593868D02*
X13379523Y-36546248D01*
X13379523Y-36546248D02*
X13331904Y-36451010D01*
X13331904Y-36451010D02*
X13331904Y-36355772D01*
X13331904Y-36355772D02*
X13379523Y-36260534D01*
X13379523Y-36260534D02*
X13427142Y-36212915D01*
X13427142Y-36212915D02*
X13522380Y-36165296D01*
X13522380Y-36165296D02*
X13712856Y-36117677D01*
X13712856Y-36117677D02*
X13808094Y-36070058D01*
X13808094Y-36070058D02*
X13855713Y-36022439D01*
X13855713Y-36022439D02*
X13903332Y-35927201D01*
X13903332Y-35927201D02*
X13903332Y-35831963D01*
X13903332Y-35831963D02*
X13855713Y-35736725D01*
X13855713Y-35736725D02*
X13808094Y-35689106D01*
X13808094Y-35689106D02*
X13712856Y-35641487D01*
X13712856Y-35641487D02*
X13474761Y-35641487D01*
X13474761Y-35641487D02*
X13331904Y-35689106D01*
X12998570Y-35641487D02*
X12760475Y-36641487D01*
X12760475Y-36641487D02*
X12569999Y-35927201D01*
X12569999Y-35927201D02*
X12379523Y-36641487D01*
X12379523Y-36641487D02*
X12141428Y-35641487D01*
X11808094Y-35736725D02*
X11760475Y-35689106D01*
X11760475Y-35689106D02*
X11665237Y-35641487D01*
X11665237Y-35641487D02*
X11427142Y-35641487D01*
X11427142Y-35641487D02*
X11331904Y-35689106D01*
X11331904Y-35689106D02*
X11284285Y-35736725D01*
X11284285Y-35736725D02*
X11236666Y-35831963D01*
X11236666Y-35831963D02*
X11236666Y-35927201D01*
X11236666Y-35927201D02*
X11284285Y-36070058D01*
X11284285Y-36070058D02*
X11855713Y-36641487D01*
X11855713Y-36641487D02*
X11236666Y-36641487D01*
%TO.C,J10*%
X36729523Y-19629819D02*
X36729523Y-20344104D01*
X36729523Y-20344104D02*
X36777142Y-20486961D01*
X36777142Y-20486961D02*
X36872380Y-20582200D01*
X36872380Y-20582200D02*
X37015237Y-20629819D01*
X37015237Y-20629819D02*
X37110475Y-20629819D01*
X35729523Y-20629819D02*
X36300951Y-20629819D01*
X36015237Y-20629819D02*
X36015237Y-19629819D01*
X36015237Y-19629819D02*
X36110475Y-19772676D01*
X36110475Y-19772676D02*
X36205713Y-19867914D01*
X36205713Y-19867914D02*
X36300951Y-19915533D01*
X35110475Y-19629819D02*
X35015237Y-19629819D01*
X35015237Y-19629819D02*
X34919999Y-19677438D01*
X34919999Y-19677438D02*
X34872380Y-19725057D01*
X34872380Y-19725057D02*
X34824761Y-19820295D01*
X34824761Y-19820295D02*
X34777142Y-20010771D01*
X34777142Y-20010771D02*
X34777142Y-20248866D01*
X34777142Y-20248866D02*
X34824761Y-20439342D01*
X34824761Y-20439342D02*
X34872380Y-20534580D01*
X34872380Y-20534580D02*
X34919999Y-20582200D01*
X34919999Y-20582200D02*
X35015237Y-20629819D01*
X35015237Y-20629819D02*
X35110475Y-20629819D01*
X35110475Y-20629819D02*
X35205713Y-20582200D01*
X35205713Y-20582200D02*
X35253332Y-20534580D01*
X35253332Y-20534580D02*
X35300951Y-20439342D01*
X35300951Y-20439342D02*
X35348570Y-20248866D01*
X35348570Y-20248866D02*
X35348570Y-20010771D01*
X35348570Y-20010771D02*
X35300951Y-19820295D01*
X35300951Y-19820295D02*
X35253332Y-19725057D01*
X35253332Y-19725057D02*
X35205713Y-19677438D01*
X35205713Y-19677438D02*
X35110475Y-19629819D01*
%TO.C,SW3*%
X13903332Y-29938312D02*
X13760475Y-29985931D01*
X13760475Y-29985931D02*
X13522380Y-29985931D01*
X13522380Y-29985931D02*
X13427142Y-29938312D01*
X13427142Y-29938312D02*
X13379523Y-29890692D01*
X13379523Y-29890692D02*
X13331904Y-29795454D01*
X13331904Y-29795454D02*
X13331904Y-29700216D01*
X13331904Y-29700216D02*
X13379523Y-29604978D01*
X13379523Y-29604978D02*
X13427142Y-29557359D01*
X13427142Y-29557359D02*
X13522380Y-29509740D01*
X13522380Y-29509740D02*
X13712856Y-29462121D01*
X13712856Y-29462121D02*
X13808094Y-29414502D01*
X13808094Y-29414502D02*
X13855713Y-29366883D01*
X13855713Y-29366883D02*
X13903332Y-29271645D01*
X13903332Y-29271645D02*
X13903332Y-29176407D01*
X13903332Y-29176407D02*
X13855713Y-29081169D01*
X13855713Y-29081169D02*
X13808094Y-29033550D01*
X13808094Y-29033550D02*
X13712856Y-28985931D01*
X13712856Y-28985931D02*
X13474761Y-28985931D01*
X13474761Y-28985931D02*
X13331904Y-29033550D01*
X12998570Y-28985931D02*
X12760475Y-29985931D01*
X12760475Y-29985931D02*
X12569999Y-29271645D01*
X12569999Y-29271645D02*
X12379523Y-29985931D01*
X12379523Y-29985931D02*
X12141428Y-28985931D01*
X11855713Y-28985931D02*
X11236666Y-28985931D01*
X11236666Y-28985931D02*
X11569999Y-29366883D01*
X11569999Y-29366883D02*
X11427142Y-29366883D01*
X11427142Y-29366883D02*
X11331904Y-29414502D01*
X11331904Y-29414502D02*
X11284285Y-29462121D01*
X11284285Y-29462121D02*
X11236666Y-29557359D01*
X11236666Y-29557359D02*
X11236666Y-29795454D01*
X11236666Y-29795454D02*
X11284285Y-29890692D01*
X11284285Y-29890692D02*
X11331904Y-29938312D01*
X11331904Y-29938312D02*
X11427142Y-29985931D01*
X11427142Y-29985931D02*
X11712856Y-29985931D01*
X11712856Y-29985931D02*
X11808094Y-29938312D01*
X11808094Y-29938312D02*
X11855713Y-29890692D01*
D15*
%TO.C,SW5*%
X14920000Y-18770000D02*
X14920000Y-18870000D01*
X10520000Y-17070000D02*
X14920000Y-17070000D01*
X14920000Y-20570000D02*
X10520000Y-20570000D01*
X10520000Y-18770000D02*
X10520000Y-18870000D01*
%TO.C,J4*%
X58423800Y-40890263D02*
G75*
G03*
X58423800Y-40890263I-700000J0D01*
G01*
%TO.C,SW4*%
X14920000Y-27225556D02*
X10520000Y-27225556D01*
X10520000Y-23725556D02*
X14920000Y-23725556D01*
X14920000Y-25425556D02*
X14920000Y-25525556D01*
X10520000Y-25425556D02*
X10520000Y-25525556D01*
%TO.C,SW2*%
X14920000Y-38836668D02*
X14920000Y-38736668D01*
X10520000Y-37036668D02*
X14920000Y-37036668D01*
X10520000Y-38836668D02*
X10520000Y-38736668D01*
X14920000Y-40536668D02*
X10520000Y-40536668D01*
%TO.C,J2*%
X54023800Y-40890263D02*
G75*
G03*
X54023800Y-40890263I-700000J0D01*
G01*
%TO.C,J10*%
X42920000Y-34325000D02*
X28920000Y-34325000D01*
X28920000Y-34325000D02*
X28920000Y-42075000D01*
X28920000Y-42075000D02*
X42920000Y-42075000D01*
X42920000Y-42075000D02*
X42920000Y-34325000D01*
X50420000Y-27675000D02*
X21420000Y-27675000D01*
X21420000Y-27675000D02*
X21420000Y-13675000D01*
X21420000Y-13675000D02*
X50420000Y-13675000D01*
X50420000Y-13675000D02*
X50420000Y-27675000D01*
X53170000Y-11325000D02*
X18670000Y-11325000D01*
X18670000Y-11325000D02*
X18670000Y-34325000D01*
X18670000Y-34325000D02*
X53170000Y-34325000D01*
X53170000Y-34325000D02*
X53170000Y-11325000D01*
%TO.C,SW3*%
X10520000Y-32181112D02*
X10520000Y-32081112D01*
X14920000Y-33881112D02*
X10520000Y-33881112D01*
X14920000Y-32181112D02*
X14920000Y-32081112D01*
X10520000Y-30381112D02*
X14920000Y-30381112D01*
%TO.C,J3*%
X56223800Y-40890263D02*
G75*
G03*
X56223800Y-40890263I-700000J0D01*
G01*
%TD*%
M02*
