%TF.GenerationSoftware,KiCad,Pcbnew,7.0.5.1-1-g8f565ef7f0-dirty-deb11*%
%TF.CreationDate,2023-06-19T19:00:14+00:00*%
%TF.ProjectId,AMFOC01,414d464f-4330-4312-9e6b-696361645f70,rev?*%
%TF.SameCoordinates,Original*%
%TF.FileFunction,Soldermask,Top*%
%TF.FilePolarity,Negative*%
%FSLAX46Y46*%
G04 Gerber Fmt 4.6, Leading zero omitted, Abs format (unit mm)*
G04 Created by KiCad (PCBNEW 7.0.5.1-1-g8f565ef7f0-dirty-deb11) date 2023-06-19 19:00:14*
%MOMM*%
%LPD*%
G01*
G04 APERTURE LIST*
G04 Aperture macros list*
%AMRoundRect*
0 Rectangle with rounded corners*
0 $1 Rounding radius*
0 $2 $3 $4 $5 $6 $7 $8 $9 X,Y pos of 4 corners*
0 Add a 4 corners polygon primitive as box body*
4,1,4,$2,$3,$4,$5,$6,$7,$8,$9,$2,$3,0*
0 Add four circle primitives for the rounded corners*
1,1,$1+$1,$2,$3*
1,1,$1+$1,$4,$5*
1,1,$1+$1,$6,$7*
1,1,$1+$1,$8,$9*
0 Add four rect primitives between the rounded corners*
20,1,$1+$1,$2,$3,$4,$5,0*
20,1,$1+$1,$4,$5,$6,$7,0*
20,1,$1+$1,$6,$7,$8,$9,0*
20,1,$1+$1,$8,$9,$2,$3,0*%
G04 Aperture macros list end*
%ADD10RoundRect,0.250000X-0.450000X0.262500X-0.450000X-0.262500X0.450000X-0.262500X0.450000X0.262500X0*%
%ADD11RoundRect,0.250000X0.503814X0.132583X0.132583X0.503814X-0.503814X-0.132583X-0.132583X-0.503814X0*%
%ADD12RoundRect,0.250000X-0.262500X-0.450000X0.262500X-0.450000X0.262500X0.450000X-0.262500X0.450000X0*%
%ADD13RoundRect,0.250000X0.250000X0.475000X-0.250000X0.475000X-0.250000X-0.475000X0.250000X-0.475000X0*%
%ADD14R,1.700000X1.700000*%
%ADD15O,1.700000X1.700000*%
%ADD16RoundRect,0.250000X0.475000X-0.250000X0.475000X0.250000X-0.475000X0.250000X-0.475000X-0.250000X0*%
%ADD17RoundRect,0.250000X-0.250000X-0.475000X0.250000X-0.475000X0.250000X0.475000X-0.250000X0.475000X0*%
%ADD18RoundRect,0.250000X0.450000X-0.262500X0.450000X0.262500X-0.450000X0.262500X-0.450000X-0.262500X0*%
%ADD19C,0.800000*%
%ADD20C,6.400000*%
%ADD21RoundRect,0.250000X0.262500X0.450000X-0.262500X0.450000X-0.262500X-0.450000X0.262500X-0.450000X0*%
%ADD22C,3.000000*%
%ADD23RoundRect,0.250001X-0.499999X-0.499999X0.499999X-0.499999X0.499999X0.499999X-0.499999X0.499999X0*%
%ADD24C,1.500000*%
%ADD25R,0.600000X0.700000*%
%ADD26RoundRect,0.150000X0.150000X-0.587500X0.150000X0.587500X-0.150000X0.587500X-0.150000X-0.587500X0*%
%ADD27R,1.050000X0.650000*%
%ADD28RoundRect,0.250000X-0.475000X0.250000X-0.475000X-0.250000X0.475000X-0.250000X0.475000X0.250000X0*%
%ADD29RoundRect,0.250000X-0.503814X-0.132583X-0.132583X-0.503814X0.503814X0.132583X0.132583X0.503814X0*%
%ADD30RoundRect,0.150000X-0.587500X-0.150000X0.587500X-0.150000X0.587500X0.150000X-0.587500X0.150000X0*%
%ADD31C,1.700000*%
%ADD32RoundRect,0.250000X0.600000X-0.600000X0.600000X0.600000X-0.600000X0.600000X-0.600000X-0.600000X0*%
%ADD33RoundRect,0.150000X-0.150000X0.587500X-0.150000X-0.587500X0.150000X-0.587500X0.150000X0.587500X0*%
%ADD34C,1.400000*%
%ADD35O,1.400000X1.400000*%
%ADD36RoundRect,0.150000X-0.150000X0.825000X-0.150000X-0.825000X0.150000X-0.825000X0.150000X0.825000X0*%
%ADD37RoundRect,0.243750X0.243750X0.456250X-0.243750X0.456250X-0.243750X-0.456250X0.243750X-0.456250X0*%
%ADD38R,1.500000X2.000000*%
%ADD39R,3.800000X2.000000*%
%ADD40RoundRect,0.250000X-1.450000X0.312500X-1.450000X-0.312500X1.450000X-0.312500X1.450000X0.312500X0*%
%ADD41RoundRect,0.075000X0.662500X0.075000X-0.662500X0.075000X-0.662500X-0.075000X0.662500X-0.075000X0*%
%ADD42RoundRect,0.075000X0.075000X0.662500X-0.075000X0.662500X-0.075000X-0.662500X0.075000X-0.662500X0*%
%ADD43R,5.000000X5.000000*%
%ADD44RoundRect,0.150000X0.150000X-0.512500X0.150000X0.512500X-0.150000X0.512500X-0.150000X-0.512500X0*%
%ADD45RoundRect,0.150000X-0.150000X0.650000X-0.150000X-0.650000X0.150000X-0.650000X0.150000X0.650000X0*%
%ADD46RoundRect,0.050000X-0.387500X-0.050000X0.387500X-0.050000X0.387500X0.050000X-0.387500X0.050000X0*%
%ADD47RoundRect,0.050000X-0.050000X-0.387500X0.050000X-0.387500X0.050000X0.387500X-0.050000X0.387500X0*%
%ADD48R,3.200000X3.200000*%
%ADD49R,2.500000X2.500000*%
%ADD50C,0.650000*%
%ADD51O,0.900000X1.700000*%
%ADD52O,0.900000X2.400000*%
%ADD53R,2.000000X1.500000*%
%ADD54R,2.000000X3.800000*%
%ADD55R,1.600000X1.600000*%
%ADD56C,1.600000*%
%ADD57O,2.000000X3.500000*%
%ADD58O,4.000000X2.000000*%
%ADD59R,4.500000X2.000000*%
%ADD60R,3.810000X3.810000*%
%ADD61RoundRect,0.243750X-0.243750X-0.456250X0.243750X-0.456250X0.243750X0.456250X-0.243750X0.456250X0*%
G04 APERTURE END LIST*
D10*
%TO.C,R32*%
X23220000Y-28520000D03*
X23220000Y-30345000D03*
%TD*%
%TO.C,R3*%
X58220000Y-14595000D03*
X58220000Y-16420000D03*
%TD*%
%TO.C,R27*%
X9220000Y-24420000D03*
X9220000Y-26245000D03*
%TD*%
D11*
%TO.C,R14*%
X38010470Y-40810470D03*
X36720000Y-39520000D03*
%TD*%
D12*
%TO.C,R15*%
X55095000Y-42120000D03*
X56920000Y-42120000D03*
%TD*%
D13*
%TO.C,C15*%
X18900000Y-23490000D03*
X17000000Y-23490000D03*
%TD*%
D14*
%TO.C,J5*%
X39320000Y-12155000D03*
D15*
X39320000Y-9615000D03*
%TD*%
D16*
%TO.C,C1*%
X28500000Y-13750000D03*
X28500000Y-11850000D03*
%TD*%
D12*
%TO.C,R12*%
X65420000Y-27420000D03*
X67245000Y-27420000D03*
%TD*%
D17*
%TO.C,C28*%
X26220000Y-47320000D03*
X28120000Y-47320000D03*
%TD*%
D18*
%TO.C,R33*%
X59720000Y-36820000D03*
X59720000Y-34995000D03*
%TD*%
D19*
%TO.C,H4*%
X64342944Y-3382944D03*
X68440000Y-5080000D03*
X63640000Y-5080000D03*
X66040000Y-7480000D03*
D20*
X66040000Y-5080000D03*
D19*
X67737056Y-3382944D03*
X66040000Y-2680000D03*
X64342944Y-6777056D03*
X67737056Y-6777056D03*
%TD*%
D17*
%TO.C,C16*%
X45770000Y-24420000D03*
X47670000Y-24420000D03*
%TD*%
D10*
%TO.C,R1*%
X53100000Y-25900000D03*
X53100000Y-27725000D03*
%TD*%
D12*
%TO.C,R22*%
X30200000Y-40400000D03*
X32025000Y-40400000D03*
%TD*%
%TO.C,R29*%
X16807500Y-44220000D03*
X18632500Y-44220000D03*
%TD*%
D13*
%TO.C,C22*%
X27600000Y-39600000D03*
X25700000Y-39600000D03*
%TD*%
D16*
%TO.C,C11*%
X33320000Y-22370000D03*
X33320000Y-20470000D03*
%TD*%
D18*
%TO.C,R19*%
X38920000Y-22412500D03*
X38920000Y-20587500D03*
%TD*%
D21*
%TO.C,R8*%
X21320000Y-47320000D03*
X19495000Y-47320000D03*
%TD*%
D22*
%TO.C,J8*%
X23920000Y-4155000D03*
D23*
X22420000Y-8475000D03*
D24*
X25420000Y-8475000D03*
X22420000Y-11475000D03*
X25420000Y-11475000D03*
%TD*%
D18*
%TO.C,R2*%
X48500000Y-18900000D03*
X48500000Y-17075000D03*
%TD*%
D17*
%TO.C,C5*%
X49500000Y-40790000D03*
X51400000Y-40790000D03*
%TD*%
D25*
%TO.C,D2*%
X18632500Y-13690000D03*
X17232500Y-13690000D03*
%TD*%
D18*
%TO.C,R11*%
X53220000Y-35427500D03*
X53220000Y-33602500D03*
%TD*%
D16*
%TO.C,C27*%
X28220000Y-43920000D03*
X28220000Y-42020000D03*
%TD*%
D21*
%TO.C,R25*%
X18820000Y-27920000D03*
X16995000Y-27920000D03*
%TD*%
D26*
%TO.C,Q2*%
X58420000Y-41420000D03*
X60320000Y-41420000D03*
X59370000Y-39545000D03*
%TD*%
D13*
%TO.C,C13*%
X38520000Y-36920000D03*
X36620000Y-36920000D03*
%TD*%
D27*
%TO.C,SW1*%
X58295000Y-21950000D03*
X54145000Y-21950000D03*
X58295000Y-19800000D03*
X54170000Y-19800000D03*
%TD*%
D10*
%TO.C,R5*%
X47500000Y-26307500D03*
X47500000Y-28132500D03*
%TD*%
D28*
%TO.C,C24*%
X25920000Y-41520000D03*
X25920000Y-43420000D03*
%TD*%
D29*
%TO.C,R7*%
X46020000Y-40320000D03*
X47310470Y-41610470D03*
%TD*%
D12*
%TO.C,R16*%
X55095000Y-40020000D03*
X56920000Y-40020000D03*
%TD*%
%TO.C,R31*%
X64420000Y-21620000D03*
X66245000Y-21620000D03*
%TD*%
D10*
%TO.C,R6*%
X49600000Y-26320000D03*
X49600000Y-28145000D03*
%TD*%
D28*
%TO.C,C20*%
X57300000Y-35650000D03*
X57300000Y-37550000D03*
%TD*%
D17*
%TO.C,C14*%
X53250000Y-37300000D03*
X55150000Y-37300000D03*
%TD*%
D28*
%TO.C,C29*%
X54420000Y-44020000D03*
X54420000Y-45920000D03*
%TD*%
D30*
%TO.C,Q1*%
X56720000Y-43920000D03*
X56720000Y-45820000D03*
X58595000Y-44870000D03*
%TD*%
D13*
%TO.C,C10*%
X12100000Y-20600000D03*
X10200000Y-20600000D03*
%TD*%
D31*
%TO.C,J7*%
X32220000Y-2755000D03*
X34720000Y-2755000D03*
D32*
X32220000Y-12435000D03*
D31*
X34720000Y-12435000D03*
X32220000Y-9935000D03*
X34720000Y-9935000D03*
%TD*%
D33*
%TO.C,Q4*%
X37070000Y-20852500D03*
X35170000Y-20852500D03*
X36120000Y-22727500D03*
%TD*%
D25*
%TO.C,D1*%
X50032500Y-10865000D03*
X51432500Y-10865000D03*
%TD*%
D17*
%TO.C,C4*%
X42220000Y-40620000D03*
X44120000Y-40620000D03*
%TD*%
D33*
%TO.C,Q6*%
X61820000Y-22145000D03*
X59920000Y-22145000D03*
X60870000Y-24020000D03*
%TD*%
D34*
%TO.C,TH1*%
X45900000Y-6500000D03*
D35*
X48440000Y-6500000D03*
%TD*%
D36*
%TO.C,U6*%
X62790000Y-27170000D03*
X61520000Y-27170000D03*
X60250000Y-27170000D03*
X58980000Y-27170000D03*
X58980000Y-32120000D03*
X60250000Y-32120000D03*
X61520000Y-32120000D03*
X62790000Y-32120000D03*
%TD*%
D37*
%TO.C,D3*%
X24720000Y-47320000D03*
X22845000Y-47320000D03*
%TD*%
D16*
%TO.C,C21*%
X21620000Y-38370000D03*
X21620000Y-36470000D03*
%TD*%
D13*
%TO.C,C18*%
X18900000Y-25800000D03*
X17000000Y-25800000D03*
%TD*%
%TO.C,C19*%
X22820000Y-22920000D03*
X20920000Y-22920000D03*
%TD*%
D38*
%TO.C,U1*%
X30082500Y-16140000D03*
D39*
X27782500Y-22440000D03*
D38*
X27782500Y-16140000D03*
X25482500Y-16140000D03*
%TD*%
D40*
%TO.C,F1*%
X11200000Y-13862500D03*
X11200000Y-18137500D03*
%TD*%
D41*
%TO.C,U7*%
X33562500Y-35850000D03*
X33562500Y-35350000D03*
X33562500Y-34850000D03*
X33562500Y-34350000D03*
X33562500Y-33850000D03*
X33562500Y-33350000D03*
X33562500Y-32850000D03*
X33562500Y-32350000D03*
X33562500Y-31850000D03*
X33562500Y-31350000D03*
X33562500Y-30850000D03*
X33562500Y-30350000D03*
D42*
X32150000Y-28937500D03*
X31650000Y-28937500D03*
X31150000Y-28937500D03*
X30650000Y-28937500D03*
X30150000Y-28937500D03*
X29650000Y-28937500D03*
X29150000Y-28937500D03*
X28650000Y-28937500D03*
X28150000Y-28937500D03*
X27650000Y-28937500D03*
X27150000Y-28937500D03*
X26650000Y-28937500D03*
D41*
X25237500Y-30350000D03*
X25237500Y-30850000D03*
X25237500Y-31350000D03*
X25237500Y-31850000D03*
X25237500Y-32350000D03*
X25237500Y-32850000D03*
X25237500Y-33350000D03*
X25237500Y-33850000D03*
X25237500Y-34350000D03*
X25237500Y-34850000D03*
X25237500Y-35350000D03*
X25237500Y-35850000D03*
D42*
X26650000Y-37262500D03*
X27150000Y-37262500D03*
X27650000Y-37262500D03*
X28150000Y-37262500D03*
X28650000Y-37262500D03*
X29150000Y-37262500D03*
X29650000Y-37262500D03*
X30150000Y-37262500D03*
X30650000Y-37262500D03*
X31150000Y-37262500D03*
X31650000Y-37262500D03*
X32150000Y-37262500D03*
D43*
X29400000Y-33100000D03*
%TD*%
D44*
%TO.C,U3*%
X53670000Y-14727500D03*
X54620000Y-14727500D03*
X55570000Y-14727500D03*
X55570000Y-12452500D03*
X54620000Y-12452500D03*
X53670000Y-12452500D03*
%TD*%
D16*
%TO.C,C23*%
X21620000Y-34600000D03*
X21620000Y-32700000D03*
%TD*%
D13*
%TO.C,C9*%
X15050000Y-23490000D03*
X13150000Y-23490000D03*
%TD*%
D18*
%TO.C,R10*%
X57300000Y-34025000D03*
X57300000Y-32200000D03*
%TD*%
D13*
%TO.C,C6*%
X50720000Y-42820000D03*
X48820000Y-42820000D03*
%TD*%
%TO.C,C2*%
X18870000Y-11890000D03*
X16970000Y-11890000D03*
%TD*%
D45*
%TO.C,U2*%
X46025000Y-15120000D03*
X44755000Y-15120000D03*
X43485000Y-15120000D03*
X42215000Y-15120000D03*
X42215000Y-22320000D03*
X43485000Y-22320000D03*
X44755000Y-22320000D03*
X46025000Y-22320000D03*
%TD*%
D18*
%TO.C,R18*%
X39700000Y-25912500D03*
X39700000Y-24087500D03*
%TD*%
D10*
%TO.C,R4*%
X58320000Y-10920000D03*
X58320000Y-12745000D03*
%TD*%
D11*
%TO.C,R13*%
X35910470Y-41510470D03*
X34620000Y-40220000D03*
%TD*%
D33*
%TO.C,Q3*%
X38570000Y-16852500D03*
X36670000Y-16852500D03*
X37620000Y-18727500D03*
%TD*%
D46*
%TO.C,U5*%
X42382500Y-31990000D03*
X42382500Y-32390000D03*
X42382500Y-32790000D03*
X42382500Y-33190000D03*
X42382500Y-33590000D03*
X42382500Y-33990000D03*
X42382500Y-34390000D03*
X42382500Y-34790000D03*
X42382500Y-35190000D03*
X42382500Y-35590000D03*
X42382500Y-35990000D03*
X42382500Y-36390000D03*
X42382500Y-36790000D03*
X42382500Y-37190000D03*
D47*
X43220000Y-38027500D03*
X43620000Y-38027500D03*
X44020000Y-38027500D03*
X44420000Y-38027500D03*
X44820000Y-38027500D03*
X45220000Y-38027500D03*
X45620000Y-38027500D03*
X46020000Y-38027500D03*
X46420000Y-38027500D03*
X46820000Y-38027500D03*
X47220000Y-38027500D03*
X47620000Y-38027500D03*
X48020000Y-38027500D03*
X48420000Y-38027500D03*
D46*
X49257500Y-37190000D03*
X49257500Y-36790000D03*
X49257500Y-36390000D03*
X49257500Y-35990000D03*
X49257500Y-35590000D03*
X49257500Y-35190000D03*
X49257500Y-34790000D03*
X49257500Y-34390000D03*
X49257500Y-33990000D03*
X49257500Y-33590000D03*
X49257500Y-33190000D03*
X49257500Y-32790000D03*
X49257500Y-32390000D03*
X49257500Y-31990000D03*
D47*
X48420000Y-31152500D03*
X48020000Y-31152500D03*
X47620000Y-31152500D03*
X47220000Y-31152500D03*
X46820000Y-31152500D03*
X46420000Y-31152500D03*
X46020000Y-31152500D03*
X45620000Y-31152500D03*
X45220000Y-31152500D03*
X44820000Y-31152500D03*
X44420000Y-31152500D03*
X44020000Y-31152500D03*
X43620000Y-31152500D03*
X43220000Y-31152500D03*
D48*
X45820000Y-34590000D03*
%TD*%
D28*
%TO.C,C17*%
X37020000Y-30020000D03*
X37020000Y-31920000D03*
%TD*%
D18*
%TO.C,R24*%
X48500000Y-15400000D03*
X48500000Y-13575000D03*
%TD*%
D17*
%TO.C,C8*%
X51620000Y-29600000D03*
X53520000Y-29600000D03*
%TD*%
D18*
%TO.C,R21*%
X19420000Y-35220000D03*
X19420000Y-33395000D03*
%TD*%
D14*
%TO.C,J6*%
X67100000Y-38200000D03*
D15*
X67100000Y-35660000D03*
X67100000Y-33120000D03*
X67100000Y-30580000D03*
%TD*%
D49*
%TO.C,BZ1*%
X68620000Y-18620000D03*
X68620000Y-11620000D03*
X61620000Y-11620000D03*
X61620000Y-18620000D03*
%TD*%
D10*
%TO.C,R28*%
X8020000Y-17720000D03*
X8020000Y-19545000D03*
%TD*%
D50*
%TO.C,J1*%
X59620000Y-7970000D03*
X58770000Y-7970000D03*
X57920000Y-7970000D03*
X57070000Y-7970000D03*
X56220000Y-7970000D03*
X55370000Y-7970000D03*
X54520000Y-7970000D03*
X53670000Y-7970000D03*
X53670000Y-6620000D03*
X54520000Y-6620000D03*
X55370000Y-6620000D03*
X56220000Y-6620000D03*
X57070000Y-6620000D03*
X57920000Y-6620000D03*
X58770000Y-6620000D03*
X59620000Y-6620000D03*
D51*
X52320000Y-3610000D03*
X60970000Y-3610000D03*
D52*
X52320000Y-6990000D03*
X60970000Y-6990000D03*
%TD*%
D19*
%TO.C,H3*%
X6777056Y-6777056D03*
X3382944Y-3382944D03*
D20*
X5080000Y-5080000D03*
D19*
X2680000Y-5080000D03*
X5080000Y-7480000D03*
X7480000Y-5080000D03*
X6777056Y-3382944D03*
X3382944Y-6777056D03*
X5080000Y-2680000D03*
%TD*%
D16*
%TO.C,C7*%
X50800000Y-24300000D03*
X50800000Y-22400000D03*
%TD*%
D18*
%TO.C,R30*%
X61820000Y-36820000D03*
X61820000Y-34995000D03*
%TD*%
D14*
%TO.C,J9*%
X43000000Y-12150000D03*
D15*
X43000000Y-9610000D03*
%TD*%
D18*
%TO.C,R20*%
X55200000Y-35452500D03*
X55200000Y-33627500D03*
%TD*%
D17*
%TO.C,C12*%
X51650000Y-31700000D03*
X53550000Y-31700000D03*
%TD*%
D13*
%TO.C,C26*%
X33020000Y-24820000D03*
X31120000Y-24820000D03*
%TD*%
D53*
%TO.C,U4*%
X15000000Y-15800000D03*
X15000000Y-18100000D03*
D54*
X21300000Y-18100000D03*
D53*
X15000000Y-20400000D03*
%TD*%
D17*
%TO.C,C25*%
X30100000Y-42400000D03*
X32000000Y-42400000D03*
%TD*%
D55*
%TO.C,J12*%
X26420000Y12780000D03*
D56*
X29020000Y12780000D03*
X24320000Y12780000D03*
X31120000Y12780000D03*
X24320000Y9980000D03*
X31120000Y9980000D03*
D57*
X34570000Y15630000D03*
D58*
X27720000Y16430000D03*
D57*
X20870000Y15630000D03*
%TD*%
D12*
%TO.C,R17*%
X34832500Y-48390000D03*
X36657500Y-48390000D03*
%TD*%
D19*
%TO.C,H1*%
X7480000Y-45720000D03*
X3382944Y-44022944D03*
X5080000Y-43320000D03*
X6777056Y-47417056D03*
X2680000Y-45720000D03*
X6777056Y-44022944D03*
X3382944Y-47417056D03*
D20*
X5080000Y-45720000D03*
D19*
X5080000Y-48120000D03*
%TD*%
D59*
%TO.C,Y1*%
X49450000Y-46400000D03*
X40950000Y-46400000D03*
%TD*%
D60*
%TO.C,J11*%
X13320000Y-12720000D03*
X13320000Y-6520000D03*
X8320000Y-9620000D03*
%TD*%
D18*
%TO.C,R23*%
X34320000Y-28545000D03*
X34320000Y-26720000D03*
%TD*%
D17*
%TO.C,C30*%
X40120000Y-42720000D03*
X42020000Y-42720000D03*
%TD*%
D19*
%TO.C,H2*%
X66040000Y-43320000D03*
X68440000Y-45720000D03*
X64342944Y-44022944D03*
X66040000Y-48120000D03*
X64342944Y-47417056D03*
X67737056Y-44022944D03*
X63640000Y-45720000D03*
D20*
X66040000Y-45720000D03*
D19*
X67737056Y-47417056D03*
%TD*%
D13*
%TO.C,C3*%
X22820000Y-25020000D03*
X20920000Y-25020000D03*
%TD*%
D61*
%TO.C,D4*%
X30545000Y-46890000D03*
X32420000Y-46890000D03*
%TD*%
D12*
%TO.C,R9*%
X65420000Y-25320000D03*
X67245000Y-25320000D03*
%TD*%
D21*
%TO.C,R26*%
X14845000Y-27920000D03*
X13020000Y-27920000D03*
%TD*%
M02*
