  0
SECTION
  2
HEADER
  9
$ANGBASE
  50
0.0
  9
$ANGDIR
  70
1
  9
$MEASUREMENT
  70
0
  0
ENDSEC
  0
SECTION
  2
TABLES
  0
TABLE
  2
LTYPE
  70
4
  0
LTYPE
  5
40F
  2
CONTINUOUS
  70
0
  3
Solid line
  72
65
  73
0
  40
0.0
  0
LTYPE
  5
410
  2
DASHDOT
 70
0
  3
Dash Dot ____ _ ____ _
 72
65
 73
4
 40
2.0
 49
1.25
 49
-0.25
 49
0.25
 49
-0.25
  0
LTYPE
  5
411
  2
DASHED
 70
0
  3
Dashed __ __ __ __ __
 72
65
 73
2
 40
0.75
 49
0.5
 49
-0.25
  0
LTYPE
  5
43B
  2
DOTTED
 70
0
  3
Dotted .  .  .  .
 72
65
 73
2
 40
0.2
 49
0.0
 49
-0.2
  0
ENDTAB
  0
TABLE
  2
STYLE
  70
4
  0
STYLE
  2
KICAD
  70
0
  40
0
  41
1
  42
1
  50
0
  71
0
  3
isocp.shx
  0
STYLE
  2
KICADB
  70
0
  40
0
  41
1
  42
1
  50
0
  71
0
  3
isocp.shx
  0
STYLE
  2
KICADI
  70
0
  40
0
  41
1
  42
1
  50
15
  71
0
  3
isocp.shx
  0
STYLE
  2
KICADBI
  70
0
  40
0
  41
1
  42
1
  50
15
  71
0
  3
isocp.shx
  0
ENDTAB
  0
TABLE
  2
LAYER
  70
1
  0
LAYER
  2
BLACK
  70
0
  62
7
  6
CONTINUOUS
  0
ENDTAB
  0
ENDSEC
  0
SECTION
  2
ENTITIES
0
LINE
8
BLACK
6
CONTINUOUS
10
0.216923
20
-2.06882
11
0.230557
21
-2.07183
0
LINE
8
BLACK
6
CONTINUOUS
10
0.230557
20
-2.07183
11
0.243787
21
-2.07628
0
LINE
8
BLACK
6
CONTINUOUS
10
0.243787
20
-2.07628
11
0.256458
21
-2.08215
0
LINE
8
BLACK
6
CONTINUOUS
10
0.256458
20
-2.08215
11
0.268421
21
-2.08934
0
LINE
8
BLACK
6
CONTINUOUS
10
0.268421
20
-2.08934
11
0.279535
21
-2.09779
0
LINE
8
BLACK
6
CONTINUOUS
10
0.279535
20
-2.09779
11
0.289671
21
-2.10739
0
LINE
8
BLACK
6
CONTINUOUS
10
0.289671
20
-2.10739
11
0.298709
21
-2.11803
0
LINE
8
BLACK
6
CONTINUOUS
10
0.298709
20
-2.11803
11
0.306544
21
-2.12959
0
LINE
8
BLACK
6
CONTINUOUS
10
0.306544
20
-2.12959
11
0.313083
21
-2.14192
0
LINE
8
BLACK
6
CONTINUOUS
10
0.313083
20
-2.14192
11
0.318251
21
-2.15489
0
LINE
8
BLACK
6
CONTINUOUS
10
0.318251
20
-2.15489
11
0.321986
21
-2.16835
0
LINE
8
BLACK
6
CONTINUOUS
10
0.321986
20
-2.16835
11
0.324244
21
-2.18212
0
LINE
8
BLACK
6
CONTINUOUS
10
0.324244
20
-2.18212
11
0.325
21
-2.19606
0
LINE
8
BLACK
6
CONTINUOUS
10
0.325
20
-2.19606
11
0.324244
21
-2.21
0
LINE
8
BLACK
6
CONTINUOUS
10
0.324244
20
-2.21
11
0.321986
21
-2.22378
0
LINE
8
BLACK
6
CONTINUOUS
10
0.321986
20
-2.22378
11
0.318251
21
-2.23723
0
LINE
8
BLACK
6
CONTINUOUS
10
0.318251
20
-2.23723
11
0.313083
21
-2.2502
0
LINE
8
BLACK
6
CONTINUOUS
10
0.313083
20
-2.2502
11
0.306544
21
-2.26254
0
LINE
8
BLACK
6
CONTINUOUS
10
0.306544
20
-2.26254
11
0.298709
21
-2.27409
0
LINE
8
BLACK
6
CONTINUOUS
10
0.298709
20
-2.27409
11
0.289671
21
-2.28473
0
LINE
8
BLACK
6
CONTINUOUS
10
0.289671
20
-2.28473
11
0.279535
21
-2.29433
0
LINE
8
BLACK
6
CONTINUOUS
10
0.279535
20
-2.29433
11
0.268421
21
-2.30278
0
LINE
8
BLACK
6
CONTINUOUS
10
0.268421
20
-2.30278
11
0.256458
21
-2.30998
0
LINE
8
BLACK
6
CONTINUOUS
10
0.256458
20
-2.30998
11
0.243787
21
-2.31584
0
LINE
8
BLACK
6
CONTINUOUS
10
0.243787
20
-2.31584
11
0.230557
21
-2.3203
0
LINE
8
BLACK
6
CONTINUOUS
10
0.230557
20
-2.3203
11
0.216923
21
-2.3233
0
LINE
8
BLACK
6
CONTINUOUS
10
0.216923
20
-2.3233
11
0.203044
21
-2.32481
0
LINE
8
BLACK
6
CONTINUOUS
10
0.203044
20
-2.32481
11
0.189082
21
-2.32481
0
LINE
8
BLACK
6
CONTINUOUS
10
0.189082
20
-2.32481
11
0.175203
21
-2.3233
0
LINE
8
BLACK
6
CONTINUOUS
10
0.175203
20
-2.3233
11
0.161569
21
-2.3203
0
LINE
8
BLACK
6
CONTINUOUS
10
0.161569
20
-2.3203
11
0.148339
21
-2.31584
0
LINE
8
BLACK
6
CONTINUOUS
10
0.148339
20
-2.31584
11
0.135668
21
-2.30998
0
LINE
8
BLACK
6
CONTINUOUS
10
0.135668
20
-2.30998
11
0.123705
21
-2.30278
0
LINE
8
BLACK
6
CONTINUOUS
10
0.123705
20
-2.30278
11
0.112591
21
-2.29433
0
LINE
8
BLACK
6
CONTINUOUS
10
0.112591
20
-2.29433
11
0.102455
21
-2.28473
0
LINE
8
BLACK
6
CONTINUOUS
10
0.102455
20
-2.28473
11
0.0934171
21
-2.27409
0
LINE
8
BLACK
6
CONTINUOUS
10
0.0934171
20
-2.27409
11
0.0855824
21
-2.26254
0
LINE
8
BLACK
6
CONTINUOUS
10
0.0855824
20
-2.26254
11
0.079043
21
-2.2502
0
LINE
8
BLACK
6
CONTINUOUS
10
0.079043
20
-2.2502
11
0.0738754
21
-2.23723
0
LINE
8
BLACK
6
CONTINUOUS
10
0.0738754
20
-2.23723
11
0.0701405
21
-2.22378
0
LINE
8
BLACK
6
CONTINUOUS
10
0.0701405
20
-2.22378
11
0.0678818
21
-2.21
0
LINE
8
BLACK
6
CONTINUOUS
10
0.0678818
20
-2.21
11
0.067126
21
-2.19606
0
LINE
8
BLACK
6
CONTINUOUS
10
0.067126
20
-2.19606
11
0.0678818
21
-2.18212
0
LINE
8
BLACK
6
CONTINUOUS
10
0.0678818
20
-2.18212
11
0.0701405
21
-2.16835
0
LINE
8
BLACK
6
CONTINUOUS
10
0.0701405
20
-2.16835
11
0.0738754
21
-2.15489
0
LINE
8
BLACK
6
CONTINUOUS
10
0.0738754
20
-2.15489
11
0.079043
21
-2.14192
0
LINE
8
BLACK
6
CONTINUOUS
10
0.079043
20
-2.14192
11
0.0855824
21
-2.12959
0
LINE
8
BLACK
6
CONTINUOUS
10
0.0855824
20
-2.12959
11
0.0934171
21
-2.11803
0
LINE
8
BLACK
6
CONTINUOUS
10
0.0934171
20
-2.11803
11
0.102455
21
-2.10739
0
LINE
8
BLACK
6
CONTINUOUS
10
0.102455
20
-2.10739
11
0.112591
21
-2.09779
0
LINE
8
BLACK
6
CONTINUOUS
10
0.112591
20
-2.09779
11
0.123705
21
-2.08934
0
LINE
8
BLACK
6
CONTINUOUS
10
0.123705
20
-2.08934
11
0.135668
21
-2.08215
0
LINE
8
BLACK
6
CONTINUOUS
10
0.135668
20
-2.08215
11
0.148339
21
-2.07628
0
LINE
8
BLACK
6
CONTINUOUS
10
0.148339
20
-2.07628
11
0.161569
21
-2.07183
0
LINE
8
BLACK
6
CONTINUOUS
10
0.161569
20
-2.07183
11
0.175203
21
-2.06882
0
LINE
8
BLACK
6
CONTINUOUS
10
0.175203
20
-2.06882
11
0.189082
21
-2.06732
0
LINE
8
BLACK
6
CONTINUOUS
10
0.189082
20
-2.06732
11
0.203044
21
-2.06732
0
LINE
8
BLACK
6
CONTINUOUS
10
0.203044
20
-2.06732
11
0.216923
21
-2.06882
0
LINE
8
BLACK
6
CONTINUOUS
10
0.0736124
20
-2.20986
11
0.0759272
21
-2.22348
0
LINE
8
BLACK
6
CONTINUOUS
10
0.0759272
20
-2.22348
11
0.0797526
21
-2.23676
0
LINE
8
BLACK
6
CONTINUOUS
10
0.0797526
20
-2.23676
11
0.0850408
21
-2.24953
0
LINE
8
BLACK
6
CONTINUOUS
10
0.0850408
20
-2.24953
11
0.0917251
21
-2.26162
0
LINE
8
BLACK
6
CONTINUOUS
10
0.0917251
20
-2.26162
11
0.0997215
21
-2.27289
0
LINE
8
BLACK
6
CONTINUOUS
10
0.0997215
20
-2.27289
11
0.10893
21
-2.2832
0
LINE
8
BLACK
6
CONTINUOUS
10
0.10893
20
-2.2832
11
0.119233
21
-2.2924
0
LINE
8
BLACK
6
CONTINUOUS
10
0.119233
20
-2.2924
11
0.130503
21
-2.3004
0
LINE
8
BLACK
6
CONTINUOUS
10
0.130503
20
-2.3004
11
0.142598
21
-2.30709
0
LINE
8
BLACK
6
CONTINUOUS
10
0.142598
20
-2.30709
11
0.155364
21
-2.31237
0
LINE
8
BLACK
6
CONTINUOUS
10
0.155364
20
-2.31237
11
0.168643
21
-2.3162
0
LINE
8
BLACK
6
CONTINUOUS
10
0.168643
20
-2.3162
11
0.182266
21
-2.31851
0
LINE
8
BLACK
6
CONTINUOUS
10
0.182266
20
-2.31851
11
0.196063
21
-2.31929
0
LINE
8
BLACK
6
CONTINUOUS
10
0.196063
20
-2.31929
11
0.20986
21
-2.31851
0
LINE
8
BLACK
6
CONTINUOUS
10
0.20986
20
-2.31851
11
0.223483
21
-2.3162
0
LINE
8
BLACK
6
CONTINUOUS
10
0.223483
20
-2.3162
11
0.236762
21
-2.31237
0
LINE
8
BLACK
6
CONTINUOUS
10
0.236762
20
-2.31237
11
0.249528
21
-2.30709
0
LINE
8
BLACK
6
CONTINUOUS
10
0.249528
20
-2.30709
11
0.261623
21
-2.3004
0
LINE
8
BLACK
6
CONTINUOUS
10
0.261623
20
-2.3004
11
0.272893
21
-2.2924
0
LINE
8
BLACK
6
CONTINUOUS
10
0.272893
20
-2.2924
11
0.283196
21
-2.2832
0
LINE
8
BLACK
6
CONTINUOUS
10
0.283196
20
-2.2832
11
0.292404
21
-2.27289
0
LINE
8
BLACK
6
CONTINUOUS
10
0.292404
20
-2.27289
11
0.300401
21
-2.26162
0
LINE
8
BLACK
6
CONTINUOUS
10
0.300401
20
-2.26162
11
0.307085
21
-2.24953
0
LINE
8
BLACK
6
CONTINUOUS
10
0.307085
20
-2.24953
11
0.312373
21
-2.23676
0
LINE
8
BLACK
6
CONTINUOUS
10
0.312373
20
-2.23676
11
0.316199
21
-2.22348
0
LINE
8
BLACK
6
CONTINUOUS
10
0.316199
20
-2.22348
11
0.318514
21
-2.20986
0
LINE
8
BLACK
6
CONTINUOUS
10
0.318514
20
-2.20986
11
0.319288
21
-2.19606
0
LINE
8
BLACK
6
CONTINUOUS
10
0.319288
20
-2.19606
11
0.318514
21
-2.18227
0
LINE
8
BLACK
6
CONTINUOUS
10
0.318514
20
-2.18227
11
0.316199
21
-2.16864
0
LINE
8
BLACK
6
CONTINUOUS
10
0.316199
20
-2.16864
11
0.312373
21
-2.15536
0
LINE
8
BLACK
6
CONTINUOUS
10
0.312373
20
-2.15536
11
0.307085
21
-2.1426
0
LINE
8
BLACK
6
CONTINUOUS
10
0.307085
20
-2.1426
11
0.300401
21
-2.1305
0
LINE
8
BLACK
6
CONTINUOUS
10
0.300401
20
-2.1305
11
0.292404
21
-2.11923
0
LINE
8
BLACK
6
CONTINUOUS
10
0.292404
20
-2.11923
11
0.283196
21
-2.10893
0
LINE
8
BLACK
6
CONTINUOUS
10
0.283196
20
-2.10893
11
0.272893
21
-2.09972
0
LINE
8
BLACK
6
CONTINUOUS
10
0.272893
20
-2.09972
11
0.261623
21
-2.09173
0
LINE
8
BLACK
6
CONTINUOUS
10
0.261623
20
-2.09173
11
0.249528
21
-2.08504
0
LINE
8
BLACK
6
CONTINUOUS
10
0.249528
20
-2.08504
11
0.236762
21
-2.07975
0
LINE
8
BLACK
6
CONTINUOUS
10
0.236762
20
-2.07975
11
0.223483
21
-2.07593
0
LINE
8
BLACK
6
CONTINUOUS
10
0.223483
20
-2.07593
11
0.20986
21
-2.07361
0
LINE
8
BLACK
6
CONTINUOUS
10
0.20986
20
-2.07361
11
0.196063
21
-2.07284
0
LINE
8
BLACK
6
CONTINUOUS
10
0.196063
20
-2.07284
11
0.182266
21
-2.07361
0
LINE
8
BLACK
6
CONTINUOUS
10
0.182266
20
-2.07361
11
0.168643
21
-2.07593
0
LINE
8
BLACK
6
CONTINUOUS
10
0.168643
20
-2.07593
11
0.155364
21
-2.07975
0
LINE
8
BLACK
6
CONTINUOUS
10
0.155364
20
-2.07975
11
0.142598
21
-2.08504
0
LINE
8
BLACK
6
CONTINUOUS
10
0.142598
20
-2.08504
11
0.130503
21
-2.09173
0
LINE
8
BLACK
6
CONTINUOUS
10
0.130503
20
-2.09173
11
0.119233
21
-2.09972
0
LINE
8
BLACK
6
CONTINUOUS
10
0.119233
20
-2.09972
11
0.10893
21
-2.10893
0
LINE
8
BLACK
6
CONTINUOUS
10
0.10893
20
-2.10893
11
0.0997215
21
-2.11923
0
LINE
8
BLACK
6
CONTINUOUS
10
0.0997215
20
-2.11923
11
0.0917251
21
-2.1305
0
LINE
8
BLACK
6
CONTINUOUS
10
0.0917251
20
-2.1305
11
0.0850408
21
-2.1426
0
LINE
8
BLACK
6
CONTINUOUS
10
0.0850408
20
-2.1426
11
0.0797526
21
-2.15536
0
LINE
8
BLACK
6
CONTINUOUS
10
0.0797526
20
-2.15536
11
0.0759272
21
-2.16864
0
LINE
8
BLACK
6
CONTINUOUS
10
0.0759272
20
-2.16864
11
0.0736124
21
-2.18227
0
LINE
8
BLACK
6
CONTINUOUS
10
0.0736124
20
-2.18227
11
0.0728376
21
-2.19606
0
LINE
8
BLACK
6
CONTINUOUS
10
0.0728376
20
-2.19606
11
0.0736124
21
-2.20986
0
LINE
8
BLACK
6
CONTINUOUS
10
2.61692
20
-2.06882
11
2.63056
21
-2.07183
0
LINE
8
BLACK
6
CONTINUOUS
10
2.63056
20
-2.07183
11
2.64379
21
-2.07628
0
LINE
8
BLACK
6
CONTINUOUS
10
2.64379
20
-2.07628
11
2.65646
21
-2.08215
0
LINE
8
BLACK
6
CONTINUOUS
10
2.65646
20
-2.08215
11
2.66842
21
-2.08934
0
LINE
8
BLACK
6
CONTINUOUS
10
2.66842
20
-2.08934
11
2.67954
21
-2.09779
0
LINE
8
BLACK
6
CONTINUOUS
10
2.67954
20
-2.09779
11
2.68967
21
-2.10739
0
LINE
8
BLACK
6
CONTINUOUS
10
2.68967
20
-2.10739
11
2.69871
21
-2.11803
0
LINE
8
BLACK
6
CONTINUOUS
10
2.69871
20
-2.11803
11
2.70654
21
-2.12959
0
LINE
8
BLACK
6
CONTINUOUS
10
2.70654
20
-2.12959
11
2.71308
21
-2.14192
0
LINE
8
BLACK
6
CONTINUOUS
10
2.71308
20
-2.14192
11
2.71825
21
-2.15489
0
LINE
8
BLACK
6
CONTINUOUS
10
2.71825
20
-2.15489
11
2.72199
21
-2.16835
0
LINE
8
BLACK
6
CONTINUOUS
10
2.72199
20
-2.16835
11
2.72424
21
-2.18212
0
LINE
8
BLACK
6
CONTINUOUS
10
2.72424
20
-2.18212
11
2.725
21
-2.19606
0
LINE
8
BLACK
6
CONTINUOUS
10
2.725
20
-2.19606
11
2.72424
21
-2.21
0
LINE
8
BLACK
6
CONTINUOUS
10
2.72424
20
-2.21
11
2.72199
21
-2.22378
0
LINE
8
BLACK
6
CONTINUOUS
10
2.72199
20
-2.22378
11
2.71825
21
-2.23723
0
LINE
8
BLACK
6
CONTINUOUS
10
2.71825
20
-2.23723
11
2.71308
21
-2.2502
0
LINE
8
BLACK
6
CONTINUOUS
10
2.71308
20
-2.2502
11
2.70654
21
-2.26254
0
LINE
8
BLACK
6
CONTINUOUS
10
2.70654
20
-2.26254
11
2.69871
21
-2.27409
0
LINE
8
BLACK
6
CONTINUOUS
10
2.69871
20
-2.27409
11
2.68967
21
-2.28473
0
LINE
8
BLACK
6
CONTINUOUS
10
2.68967
20
-2.28473
11
2.67954
21
-2.29433
0
LINE
8
BLACK
6
CONTINUOUS
10
2.67954
20
-2.29433
11
2.66842
21
-2.30278
0
LINE
8
BLACK
6
CONTINUOUS
10
2.66842
20
-2.30278
11
2.65646
21
-2.30998
0
LINE
8
BLACK
6
CONTINUOUS
10
2.65646
20
-2.30998
11
2.64379
21
-2.31584
0
LINE
8
BLACK
6
CONTINUOUS
10
2.64379
20
-2.31584
11
2.63056
21
-2.3203
0
LINE
8
BLACK
6
CONTINUOUS
10
2.63056
20
-2.3203
11
2.61692
21
-2.3233
0
LINE
8
BLACK
6
CONTINUOUS
10
2.61692
20
-2.3233
11
2.60304
21
-2.32481
0
LINE
8
BLACK
6
CONTINUOUS
10
2.60304
20
-2.32481
11
2.58908
21
-2.32481
0
LINE
8
BLACK
6
CONTINUOUS
10
2.58908
20
-2.32481
11
2.5752
21
-2.3233
0
LINE
8
BLACK
6
CONTINUOUS
10
2.5752
20
-2.3233
11
2.56157
21
-2.3203
0
LINE
8
BLACK
6
CONTINUOUS
10
2.56157
20
-2.3203
11
2.54834
21
-2.31584
0
LINE
8
BLACK
6
CONTINUOUS
10
2.54834
20
-2.31584
11
2.53567
21
-2.30998
0
LINE
8
BLACK
6
CONTINUOUS
10
2.53567
20
-2.30998
11
2.52371
21
-2.30278
0
LINE
8
BLACK
6
CONTINUOUS
10
2.52371
20
-2.30278
11
2.51259
21
-2.29433
0
LINE
8
BLACK
6
CONTINUOUS
10
2.51259
20
-2.29433
11
2.50246
21
-2.28473
0
LINE
8
BLACK
6
CONTINUOUS
10
2.50246
20
-2.28473
11
2.49342
21
-2.27409
0
LINE
8
BLACK
6
CONTINUOUS
10
2.49342
20
-2.27409
11
2.48558
21
-2.26254
0
LINE
8
BLACK
6
CONTINUOUS
10
2.48558
20
-2.26254
11
2.47904
21
-2.2502
0
LINE
8
BLACK
6
CONTINUOUS
10
2.47904
20
-2.2502
11
2.47388
21
-2.23723
0
LINE
8
BLACK
6
CONTINUOUS
10
2.47388
20
-2.23723
11
2.47014
21
-2.22378
0
LINE
8
BLACK
6
CONTINUOUS
10
2.47014
20
-2.22378
11
2.46788
21
-2.21
0
LINE
8
BLACK
6
CONTINUOUS
10
2.46788
20
-2.21
11
2.46713
21
-2.19606
0
LINE
8
BLACK
6
CONTINUOUS
10
2.46713
20
-2.19606
11
2.46788
21
-2.18212
0
LINE
8
BLACK
6
CONTINUOUS
10
2.46788
20
-2.18212
11
2.47014
21
-2.16835
0
LINE
8
BLACK
6
CONTINUOUS
10
2.47014
20
-2.16835
11
2.47388
21
-2.15489
0
LINE
8
BLACK
6
CONTINUOUS
10
2.47388
20
-2.15489
11
2.47904
21
-2.14192
0
LINE
8
BLACK
6
CONTINUOUS
10
2.47904
20
-2.14192
11
2.48558
21
-2.12959
0
LINE
8
BLACK
6
CONTINUOUS
10
2.48558
20
-2.12959
11
2.49342
21
-2.11803
0
LINE
8
BLACK
6
CONTINUOUS
10
2.49342
20
-2.11803
11
2.50246
21
-2.10739
0
LINE
8
BLACK
6
CONTINUOUS
10
2.50246
20
-2.10739
11
2.51259
21
-2.09779
0
LINE
8
BLACK
6
CONTINUOUS
10
2.51259
20
-2.09779
11
2.52371
21
-2.08934
0
LINE
8
BLACK
6
CONTINUOUS
10
2.52371
20
-2.08934
11
2.53567
21
-2.08215
0
LINE
8
BLACK
6
CONTINUOUS
10
2.53567
20
-2.08215
11
2.54834
21
-2.07628
0
LINE
8
BLACK
6
CONTINUOUS
10
2.54834
20
-2.07628
11
2.56157
21
-2.07183
0
LINE
8
BLACK
6
CONTINUOUS
10
2.56157
20
-2.07183
11
2.5752
21
-2.06882
0
LINE
8
BLACK
6
CONTINUOUS
10
2.5752
20
-2.06882
11
2.58908
21
-2.06732
0
LINE
8
BLACK
6
CONTINUOUS
10
2.58908
20
-2.06732
11
2.60304
21
-2.06732
0
LINE
8
BLACK
6
CONTINUOUS
10
2.60304
20
-2.06732
11
2.61692
21
-2.06882
0
LINE
8
BLACK
6
CONTINUOUS
10
2.47361
20
-2.20986
11
2.47593
21
-2.22348
0
LINE
8
BLACK
6
CONTINUOUS
10
2.47593
20
-2.22348
11
2.47975
21
-2.23676
0
LINE
8
BLACK
6
CONTINUOUS
10
2.47975
20
-2.23676
11
2.48504
21
-2.24953
0
LINE
8
BLACK
6
CONTINUOUS
10
2.48504
20
-2.24953
11
2.49173
21
-2.26162
0
LINE
8
BLACK
6
CONTINUOUS
10
2.49173
20
-2.26162
11
2.49972
21
-2.27289
0
LINE
8
BLACK
6
CONTINUOUS
10
2.49972
20
-2.27289
11
2.50893
21
-2.2832
0
LINE
8
BLACK
6
CONTINUOUS
10
2.50893
20
-2.2832
11
2.51923
21
-2.2924
0
LINE
8
BLACK
6
CONTINUOUS
10
2.51923
20
-2.2924
11
2.5305
21
-2.3004
0
LINE
8
BLACK
6
CONTINUOUS
10
2.5305
20
-2.3004
11
2.5426
21
-2.30709
0
LINE
8
BLACK
6
CONTINUOUS
10
2.5426
20
-2.30709
11
2.55536
21
-2.31237
0
LINE
8
BLACK
6
CONTINUOUS
10
2.55536
20
-2.31237
11
2.56864
21
-2.3162
0
LINE
8
BLACK
6
CONTINUOUS
10
2.56864
20
-2.3162
11
2.58227
21
-2.31851
0
LINE
8
BLACK
6
CONTINUOUS
10
2.58227
20
-2.31851
11
2.59606
21
-2.31929
0
LINE
8
BLACK
6
CONTINUOUS
10
2.59606
20
-2.31929
11
2.60986
21
-2.31851
0
LINE
8
BLACK
6
CONTINUOUS
10
2.60986
20
-2.31851
11
2.62348
21
-2.3162
0
LINE
8
BLACK
6
CONTINUOUS
10
2.62348
20
-2.3162
11
2.63676
21
-2.31237
0
LINE
8
BLACK
6
CONTINUOUS
10
2.63676
20
-2.31237
11
2.64953
21
-2.30709
0
LINE
8
BLACK
6
CONTINUOUS
10
2.64953
20
-2.30709
11
2.66162
21
-2.3004
0
LINE
8
BLACK
6
CONTINUOUS
10
2.66162
20
-2.3004
11
2.67289
21
-2.2924
0
LINE
8
BLACK
6
CONTINUOUS
10
2.67289
20
-2.2924
11
2.6832
21
-2.2832
0
LINE
8
BLACK
6
CONTINUOUS
10
2.6832
20
-2.2832
11
2.6924
21
-2.27289
0
LINE
8
BLACK
6
CONTINUOUS
10
2.6924
20
-2.27289
11
2.7004
21
-2.26162
0
LINE
8
BLACK
6
CONTINUOUS
10
2.7004
20
-2.26162
11
2.70709
21
-2.24953
0
LINE
8
BLACK
6
CONTINUOUS
10
2.70709
20
-2.24953
11
2.71237
21
-2.23676
0
LINE
8
BLACK
6
CONTINUOUS
10
2.71237
20
-2.23676
11
2.7162
21
-2.22348
0
LINE
8
BLACK
6
CONTINUOUS
10
2.7162
20
-2.22348
11
2.71851
21
-2.20986
0
LINE
8
BLACK
6
CONTINUOUS
10
2.71851
20
-2.20986
11
2.71929
21
-2.19606
0
LINE
8
BLACK
6
CONTINUOUS
10
2.71929
20
-2.19606
11
2.71851
21
-2.18227
0
LINE
8
BLACK
6
CONTINUOUS
10
2.71851
20
-2.18227
11
2.7162
21
-2.16864
0
LINE
8
BLACK
6
CONTINUOUS
10
2.7162
20
-2.16864
11
2.71237
21
-2.15536
0
LINE
8
BLACK
6
CONTINUOUS
10
2.71237
20
-2.15536
11
2.70709
21
-2.1426
0
LINE
8
BLACK
6
CONTINUOUS
10
2.70709
20
-2.1426
11
2.7004
21
-2.1305
0
LINE
8
BLACK
6
CONTINUOUS
10
2.7004
20
-2.1305
11
2.6924
21
-2.11923
0
LINE
8
BLACK
6
CONTINUOUS
10
2.6924
20
-2.11923
11
2.6832
21
-2.10893
0
LINE
8
BLACK
6
CONTINUOUS
10
2.6832
20
-2.10893
11
2.67289
21
-2.09972
0
LINE
8
BLACK
6
CONTINUOUS
10
2.67289
20
-2.09972
11
2.66162
21
-2.09173
0
LINE
8
BLACK
6
CONTINUOUS
10
2.66162
20
-2.09173
11
2.64953
21
-2.08504
0
LINE
8
BLACK
6
CONTINUOUS
10
2.64953
20
-2.08504
11
2.63676
21
-2.07975
0
LINE
8
BLACK
6
CONTINUOUS
10
2.63676
20
-2.07975
11
2.62348
21
-2.07593
0
LINE
8
BLACK
6
CONTINUOUS
10
2.62348
20
-2.07593
11
2.60986
21
-2.07361
0
LINE
8
BLACK
6
CONTINUOUS
10
2.60986
20
-2.07361
11
2.59606
21
-2.07284
0
LINE
8
BLACK
6
CONTINUOUS
10
2.59606
20
-2.07284
11
2.58227
21
-2.07361
0
LINE
8
BLACK
6
CONTINUOUS
10
2.58227
20
-2.07361
11
2.56864
21
-2.07593
0
LINE
8
BLACK
6
CONTINUOUS
10
2.56864
20
-2.07593
11
2.55536
21
-2.07975
0
LINE
8
BLACK
6
CONTINUOUS
10
2.55536
20
-2.07975
11
2.5426
21
-2.08504
0
LINE
8
BLACK
6
CONTINUOUS
10
2.5426
20
-2.08504
11
2.5305
21
-2.09173
0
LINE
8
BLACK
6
CONTINUOUS
10
2.5305
20
-2.09173
11
2.51923
21
-2.09972
0
LINE
8
BLACK
6
CONTINUOUS
10
2.51923
20
-2.09972
11
2.50893
21
-2.10893
0
LINE
8
BLACK
6
CONTINUOUS
10
2.50893
20
-2.10893
11
2.49972
21
-2.11923
0
LINE
8
BLACK
6
CONTINUOUS
10
2.49972
20
-2.11923
11
2.49173
21
-2.1305
0
LINE
8
BLACK
6
CONTINUOUS
10
2.49173
20
-2.1305
11
2.48504
21
-2.1426
0
LINE
8
BLACK
6
CONTINUOUS
10
2.48504
20
-2.1426
11
2.47975
21
-2.15536
0
LINE
8
BLACK
6
CONTINUOUS
10
2.47975
20
-2.15536
11
2.47593
21
-2.16864
0
LINE
8
BLACK
6
CONTINUOUS
10
2.47593
20
-2.16864
11
2.47361
21
-2.18227
0
LINE
8
BLACK
6
CONTINUOUS
10
2.47361
20
-2.18227
11
2.47284
21
-2.19606
0
LINE
8
BLACK
6
CONTINUOUS
10
2.47284
20
-2.19606
11
2.47361
21
-2.20986
0
LINE
8
BLACK
6
CONTINUOUS
10
0.216923
20
-0.0688245
11
0.230557
21
-0.0718257
0
LINE
8
BLACK
6
CONTINUOUS
10
0.230557
20
-0.0718257
11
0.243787
21
-0.0762835
0
LINE
8
BLACK
6
CONTINUOUS
10
0.243787
20
-0.0762835
11
0.256458
21
-0.0821456
0
LINE
8
BLACK
6
CONTINUOUS
10
0.256458
20
-0.0821456
11
0.268421
21
-0.0893433
0
LINE
8
BLACK
6
CONTINUOUS
10
0.268421
20
-0.0893433
11
0.279535
21
-0.0977921
0
LINE
8
BLACK
6
CONTINUOUS
10
0.279535
20
-0.0977921
11
0.289671
21
-0.107393
0
LINE
8
BLACK
6
CONTINUOUS
10
0.289671
20
-0.107393
11
0.298709
21
-0.118034
0
LINE
8
BLACK
6
CONTINUOUS
10
0.298709
20
-0.118034
11
0.306544
21
-0.129589
0
LINE
8
BLACK
6
CONTINUOUS
10
0.306544
20
-0.129589
11
0.313083
21
-0.141924
0
LINE
8
BLACK
6
CONTINUOUS
10
0.313083
20
-0.141924
11
0.318251
21
-0.154893
0
LINE
8
BLACK
6
CONTINUOUS
10
0.318251
20
-0.154893
11
0.321986
21
-0.168345
0
LINE
8
BLACK
6
CONTINUOUS
10
0.321986
20
-0.168345
11
0.324244
21
-0.182122
0
LINE
8
BLACK
6
CONTINUOUS
10
0.324244
20
-0.182122
11
0.325
21
-0.196063
0
LINE
8
BLACK
6
CONTINUOUS
10
0.325
20
-0.196063
11
0.324244
21
-0.210004
0
LINE
8
BLACK
6
CONTINUOUS
10
0.324244
20
-0.210004
11
0.321986
21
-0.223781
0
LINE
8
BLACK
6
CONTINUOUS
10
0.321986
20
-0.223781
11
0.318251
21
-0.237233
0
LINE
8
BLACK
6
CONTINUOUS
10
0.318251
20
-0.237233
11
0.313083
21
-0.250202
0
LINE
8
BLACK
6
CONTINUOUS
10
0.313083
20
-0.250202
11
0.306544
21
-0.262537
0
LINE
8
BLACK
6
CONTINUOUS
10
0.306544
20
-0.262537
11
0.298709
21
-0.274092
0
LINE
8
BLACK
6
CONTINUOUS
10
0.298709
20
-0.274092
11
0.289671
21
-0.284733
0
LINE
8
BLACK
6
CONTINUOUS
10
0.289671
20
-0.284733
11
0.279535
21
-0.294334
0
LINE
8
BLACK
6
CONTINUOUS
10
0.279535
20
-0.294334
11
0.268421
21
-0.302783
0
LINE
8
BLACK
6
CONTINUOUS
10
0.268421
20
-0.302783
11
0.256458
21
-0.30998
0
LINE
8
BLACK
6
CONTINUOUS
10
0.256458
20
-0.30998
11
0.243787
21
-0.315842
0
LINE
8
BLACK
6
CONTINUOUS
10
0.243787
20
-0.315842
11
0.230557
21
-0.3203
0
LINE
8
BLACK
6
CONTINUOUS
10
0.230557
20
-0.3203
11
0.216923
21
-0.323301
0
LINE
8
BLACK
6
CONTINUOUS
10
0.216923
20
-0.323301
11
0.203044
21
-0.324811
0
LINE
8
BLACK
6
CONTINUOUS
10
0.203044
20
-0.324811
11
0.189082
21
-0.324811
0
LINE
8
BLACK
6
CONTINUOUS
10
0.189082
20
-0.324811
11
0.175203
21
-0.323301
0
LINE
8
BLACK
6
CONTINUOUS
10
0.175203
20
-0.323301
11
0.161569
21
-0.3203
0
LINE
8
BLACK
6
CONTINUOUS
10
0.161569
20
-0.3203
11
0.148339
21
-0.315842
0
LINE
8
BLACK
6
CONTINUOUS
10
0.148339
20
-0.315842
11
0.135668
21
-0.30998
0
LINE
8
BLACK
6
CONTINUOUS
10
0.135668
20
-0.30998
11
0.123705
21
-0.302783
0
LINE
8
BLACK
6
CONTINUOUS
10
0.123705
20
-0.302783
11
0.112591
21
-0.294334
0
LINE
8
BLACK
6
CONTINUOUS
10
0.112591
20
-0.294334
11
0.102455
21
-0.284733
0
LINE
8
BLACK
6
CONTINUOUS
10
0.102455
20
-0.284733
11
0.0934171
21
-0.274092
0
LINE
8
BLACK
6
CONTINUOUS
10
0.0934171
20
-0.274092
11
0.0855824
21
-0.262537
0
LINE
8
BLACK
6
CONTINUOUS
10
0.0855824
20
-0.262537
11
0.079043
21
-0.250202
0
LINE
8
BLACK
6
CONTINUOUS
10
0.079043
20
-0.250202
11
0.0738754
21
-0.237233
0
LINE
8
BLACK
6
CONTINUOUS
10
0.0738754
20
-0.237233
11
0.0701405
21
-0.223781
0
LINE
8
BLACK
6
CONTINUOUS
10
0.0701405
20
-0.223781
11
0.0678818
21
-0.210004
0
LINE
8
BLACK
6
CONTINUOUS
10
0.0678818
20
-0.210004
11
0.067126
21
-0.196063
0
LINE
8
BLACK
6
CONTINUOUS
10
0.067126
20
-0.196063
11
0.0678818
21
-0.182122
0
LINE
8
BLACK
6
CONTINUOUS
10
0.0678818
20
-0.182122
11
0.0701405
21
-0.168345
0
LINE
8
BLACK
6
CONTINUOUS
10
0.0701405
20
-0.168345
11
0.0738754
21
-0.154893
0
LINE
8
BLACK
6
CONTINUOUS
10
0.0738754
20
-0.154893
11
0.079043
21
-0.141924
0
LINE
8
BLACK
6
CONTINUOUS
10
0.079043
20
-0.141924
11
0.0855824
21
-0.129589
0
LINE
8
BLACK
6
CONTINUOUS
10
0.0855824
20
-0.129589
11
0.0934171
21
-0.118034
0
LINE
8
BLACK
6
CONTINUOUS
10
0.0934171
20
-0.118034
11
0.102455
21
-0.107393
0
LINE
8
BLACK
6
CONTINUOUS
10
0.102455
20
-0.107393
11
0.112591
21
-0.0977921
0
LINE
8
BLACK
6
CONTINUOUS
10
0.112591
20
-0.0977921
11
0.123705
21
-0.0893433
0
LINE
8
BLACK
6
CONTINUOUS
10
0.123705
20
-0.0893433
11
0.135668
21
-0.0821456
0
LINE
8
BLACK
6
CONTINUOUS
10
0.135668
20
-0.0821456
11
0.148339
21
-0.0762835
0
LINE
8
BLACK
6
CONTINUOUS
10
0.148339
20
-0.0762835
11
0.161569
21
-0.0718257
0
LINE
8
BLACK
6
CONTINUOUS
10
0.161569
20
-0.0718257
11
0.175203
21
-0.0688245
0
LINE
8
BLACK
6
CONTINUOUS
10
0.175203
20
-0.0688245
11
0.189082
21
-0.0673151
0
LINE
8
BLACK
6
CONTINUOUS
10
0.189082
20
-0.0673151
11
0.203044
21
-0.0673151
0
LINE
8
BLACK
6
CONTINUOUS
10
0.203044
20
-0.0673151
11
0.216923
21
-0.0688245
0
LINE
8
BLACK
6
CONTINUOUS
10
0.0736124
20
-0.20986
11
0.0759272
21
-0.223483
0
LINE
8
BLACK
6
CONTINUOUS
10
0.0759272
20
-0.223483
11
0.0797526
21
-0.236762
0
LINE
8
BLACK
6
CONTINUOUS
10
0.0797526
20
-0.236762
11
0.0850408
21
-0.249528
0
LINE
8
BLACK
6
CONTINUOUS
10
0.0850408
20
-0.249528
11
0.0917251
21
-0.261623
0
LINE
8
BLACK
6
CONTINUOUS
10
0.0917251
20
-0.261623
11
0.0997215
21
-0.272893
0
LINE
8
BLACK
6
CONTINUOUS
10
0.0997215
20
-0.272893
11
0.10893
21
-0.283196
0
LINE
8
BLACK
6
CONTINUOUS
10
0.10893
20
-0.283196
11
0.119233
21
-0.292404
0
LINE
8
BLACK
6
CONTINUOUS
10
0.119233
20
-0.292404
11
0.130503
21
-0.300401
0
LINE
8
BLACK
6
CONTINUOUS
10
0.130503
20
-0.300401
11
0.142598
21
-0.307085
0
LINE
8
BLACK
6
CONTINUOUS
10
0.142598
20
-0.307085
11
0.155364
21
-0.312373
0
LINE
8
BLACK
6
CONTINUOUS
10
0.155364
20
-0.312373
11
0.168643
21
-0.316199
0
LINE
8
BLACK
6
CONTINUOUS
10
0.168643
20
-0.316199
11
0.182266
21
-0.318514
0
LINE
8
BLACK
6
CONTINUOUS
10
0.182266
20
-0.318514
11
0.196063
21
-0.319288
0
LINE
8
BLACK
6
CONTINUOUS
10
0.196063
20
-0.319288
11
0.20986
21
-0.318514
0
LINE
8
BLACK
6
CONTINUOUS
10
0.20986
20
-0.318514
11
0.223483
21
-0.316199
0
LINE
8
BLACK
6
CONTINUOUS
10
0.223483
20
-0.316199
11
0.236762
21
-0.312373
0
LINE
8
BLACK
6
CONTINUOUS
10
0.236762
20
-0.312373
11
0.249528
21
-0.307085
0
LINE
8
BLACK
6
CONTINUOUS
10
0.249528
20
-0.307085
11
0.261623
21
-0.300401
0
LINE
8
BLACK
6
CONTINUOUS
10
0.261623
20
-0.300401
11
0.272893
21
-0.292404
0
LINE
8
BLACK
6
CONTINUOUS
10
0.272893
20
-0.292404
11
0.283196
21
-0.283196
0
LINE
8
BLACK
6
CONTINUOUS
10
0.283196
20
-0.283196
11
0.292404
21
-0.272893
0
LINE
8
BLACK
6
CONTINUOUS
10
0.292404
20
-0.272893
11
0.300401
21
-0.261623
0
LINE
8
BLACK
6
CONTINUOUS
10
0.300401
20
-0.261623
11
0.307085
21
-0.249528
0
LINE
8
BLACK
6
CONTINUOUS
10
0.307085
20
-0.249528
11
0.312373
21
-0.236762
0
LINE
8
BLACK
6
CONTINUOUS
10
0.312373
20
-0.236762
11
0.316199
21
-0.223483
0
LINE
8
BLACK
6
CONTINUOUS
10
0.316199
20
-0.223483
11
0.318514
21
-0.20986
0
LINE
8
BLACK
6
CONTINUOUS
10
0.318514
20
-0.20986
11
0.319288
21
-0.196063
0
LINE
8
BLACK
6
CONTINUOUS
10
0.319288
20
-0.196063
11
0.318514
21
-0.182266
0
LINE
8
BLACK
6
CONTINUOUS
10
0.318514
20
-0.182266
11
0.316199
21
-0.168643
0
LINE
8
BLACK
6
CONTINUOUS
10
0.316199
20
-0.168643
11
0.312373
21
-0.155364
0
LINE
8
BLACK
6
CONTINUOUS
10
0.312373
20
-0.155364
11
0.307085
21
-0.142598
0
LINE
8
BLACK
6
CONTINUOUS
10
0.307085
20
-0.142598
11
0.300401
21
-0.130503
0
LINE
8
BLACK
6
CONTINUOUS
10
0.300401
20
-0.130503
11
0.292404
21
-0.119233
0
LINE
8
BLACK
6
CONTINUOUS
10
0.292404
20
-0.119233
11
0.283196
21
-0.10893
0
LINE
8
BLACK
6
CONTINUOUS
10
0.283196
20
-0.10893
11
0.272893
21
-0.0997215
0
LINE
8
BLACK
6
CONTINUOUS
10
0.272893
20
-0.0997215
11
0.261623
21
-0.0917251
0
LINE
8
BLACK
6
CONTINUOUS
10
0.261623
20
-0.0917251
11
0.249528
21
-0.0850408
0
LINE
8
BLACK
6
CONTINUOUS
10
0.249528
20
-0.0850408
11
0.236762
21
-0.0797526
0
LINE
8
BLACK
6
CONTINUOUS
10
0.236762
20
-0.0797526
11
0.223483
21
-0.0759272
0
LINE
8
BLACK
6
CONTINUOUS
10
0.223483
20
-0.0759272
11
0.20986
21
-0.0736124
0
LINE
8
BLACK
6
CONTINUOUS
10
0.20986
20
-0.0736124
11
0.196063
21
-0.0728376
0
LINE
8
BLACK
6
CONTINUOUS
10
0.196063
20
-0.0728376
11
0.182266
21
-0.0736124
0
LINE
8
BLACK
6
CONTINUOUS
10
0.182266
20
-0.0736124
11
0.168643
21
-0.0759272
0
LINE
8
BLACK
6
CONTINUOUS
10
0.168643
20
-0.0759272
11
0.155364
21
-0.0797526
0
LINE
8
BLACK
6
CONTINUOUS
10
0.155364
20
-0.0797526
11
0.142598
21
-0.0850408
0
LINE
8
BLACK
6
CONTINUOUS
10
0.142598
20
-0.0850408
11
0.130503
21
-0.0917251
0
LINE
8
BLACK
6
CONTINUOUS
10
0.130503
20
-0.0917251
11
0.119233
21
-0.0997215
0
LINE
8
BLACK
6
CONTINUOUS
10
0.119233
20
-0.0997215
11
0.10893
21
-0.10893
0
LINE
8
BLACK
6
CONTINUOUS
10
0.10893
20
-0.10893
11
0.0997215
21
-0.119233
0
LINE
8
BLACK
6
CONTINUOUS
10
0.0997215
20
-0.119233
11
0.0917251
21
-0.130503
0
LINE
8
BLACK
6
CONTINUOUS
10
0.0917251
20
-0.130503
11
0.0850408
21
-0.142598
0
LINE
8
BLACK
6
CONTINUOUS
10
0.0850408
20
-0.142598
11
0.0797526
21
-0.155364
0
LINE
8
BLACK
6
CONTINUOUS
10
0.0797526
20
-0.155364
11
0.0759272
21
-0.168643
0
LINE
8
BLACK
6
CONTINUOUS
10
0.0759272
20
-0.168643
11
0.0736124
21
-0.182266
0
LINE
8
BLACK
6
CONTINUOUS
10
0.0736124
20
-0.182266
11
0.0728376
21
-0.196063
0
LINE
8
BLACK
6
CONTINUOUS
10
0.0728376
20
-0.196063
11
0.0736124
21
-0.20986
0
LINE
8
BLACK
6
CONTINUOUS
10
2.61692
20
-0.0688245
11
2.63056
21
-0.0718257
0
LINE
8
BLACK
6
CONTINUOUS
10
2.63056
20
-0.0718257
11
2.64379
21
-0.0762835
0
LINE
8
BLACK
6
CONTINUOUS
10
2.64379
20
-0.0762835
11
2.65646
21
-0.0821456
0
LINE
8
BLACK
6
CONTINUOUS
10
2.65646
20
-0.0821456
11
2.66842
21
-0.0893433
0
LINE
8
BLACK
6
CONTINUOUS
10
2.66842
20
-0.0893433
11
2.67954
21
-0.0977921
0
LINE
8
BLACK
6
CONTINUOUS
10
2.67954
20
-0.0977921
11
2.68967
21
-0.107393
0
LINE
8
BLACK
6
CONTINUOUS
10
2.68967
20
-0.107393
11
2.69871
21
-0.118034
0
LINE
8
BLACK
6
CONTINUOUS
10
2.69871
20
-0.118034
11
2.70654
21
-0.129589
0
LINE
8
BLACK
6
CONTINUOUS
10
2.70654
20
-0.129589
11
2.71308
21
-0.141924
0
LINE
8
BLACK
6
CONTINUOUS
10
2.71308
20
-0.141924
11
2.71825
21
-0.154893
0
LINE
8
BLACK
6
CONTINUOUS
10
2.71825
20
-0.154893
11
2.72199
21
-0.168345
0
LINE
8
BLACK
6
CONTINUOUS
10
2.72199
20
-0.168345
11
2.72424
21
-0.182122
0
LINE
8
BLACK
6
CONTINUOUS
10
2.72424
20
-0.182122
11
2.725
21
-0.196063
0
LINE
8
BLACK
6
CONTINUOUS
10
2.725
20
-0.196063
11
2.72424
21
-0.210004
0
LINE
8
BLACK
6
CONTINUOUS
10
2.72424
20
-0.210004
11
2.72199
21
-0.223781
0
LINE
8
BLACK
6
CONTINUOUS
10
2.72199
20
-0.223781
11
2.71825
21
-0.237233
0
LINE
8
BLACK
6
CONTINUOUS
10
2.71825
20
-0.237233
11
2.71308
21
-0.250202
0
LINE
8
BLACK
6
CONTINUOUS
10
2.71308
20
-0.250202
11
2.70654
21
-0.262537
0
LINE
8
BLACK
6
CONTINUOUS
10
2.70654
20
-0.262537
11
2.69871
21
-0.274092
0
LINE
8
BLACK
6
CONTINUOUS
10
2.69871
20
-0.274092
11
2.68967
21
-0.284733
0
LINE
8
BLACK
6
CONTINUOUS
10
2.68967
20
-0.284733
11
2.67954
21
-0.294334
0
LINE
8
BLACK
6
CONTINUOUS
10
2.67954
20
-0.294334
11
2.66842
21
-0.302783
0
LINE
8
BLACK
6
CONTINUOUS
10
2.66842
20
-0.302783
11
2.65646
21
-0.30998
0
LINE
8
BLACK
6
CONTINUOUS
10
2.65646
20
-0.30998
11
2.64379
21
-0.315842
0
LINE
8
BLACK
6
CONTINUOUS
10
2.64379
20
-0.315842
11
2.63056
21
-0.3203
0
LINE
8
BLACK
6
CONTINUOUS
10
2.63056
20
-0.3203
11
2.61692
21
-0.323301
0
LINE
8
BLACK
6
CONTINUOUS
10
2.61692
20
-0.323301
11
2.60304
21
-0.324811
0
LINE
8
BLACK
6
CONTINUOUS
10
2.60304
20
-0.324811
11
2.58908
21
-0.324811
0
LINE
8
BLACK
6
CONTINUOUS
10
2.58908
20
-0.324811
11
2.5752
21
-0.323301
0
LINE
8
BLACK
6
CONTINUOUS
10
2.5752
20
-0.323301
11
2.56157
21
-0.3203
0
LINE
8
BLACK
6
CONTINUOUS
10
2.56157
20
-0.3203
11
2.54834
21
-0.315842
0
LINE
8
BLACK
6
CONTINUOUS
10
2.54834
20
-0.315842
11
2.53567
21
-0.30998
0
LINE
8
BLACK
6
CONTINUOUS
10
2.53567
20
-0.30998
11
2.52371
21
-0.302783
0
LINE
8
BLACK
6
CONTINUOUS
10
2.52371
20
-0.302783
11
2.51259
21
-0.294334
0
LINE
8
BLACK
6
CONTINUOUS
10
2.51259
20
-0.294334
11
2.50246
21
-0.284733
0
LINE
8
BLACK
6
CONTINUOUS
10
2.50246
20
-0.284733
11
2.49342
21
-0.274092
0
LINE
8
BLACK
6
CONTINUOUS
10
2.49342
20
-0.274092
11
2.48558
21
-0.262537
0
LINE
8
BLACK
6
CONTINUOUS
10
2.48558
20
-0.262537
11
2.47904
21
-0.250202
0
LINE
8
BLACK
6
CONTINUOUS
10
2.47904
20
-0.250202
11
2.47388
21
-0.237233
0
LINE
8
BLACK
6
CONTINUOUS
10
2.47388
20
-0.237233
11
2.47014
21
-0.223781
0
LINE
8
BLACK
6
CONTINUOUS
10
2.47014
20
-0.223781
11
2.46788
21
-0.210004
0
LINE
8
BLACK
6
CONTINUOUS
10
2.46788
20
-0.210004
11
2.46713
21
-0.196063
0
LINE
8
BLACK
6
CONTINUOUS
10
2.46713
20
-0.196063
11
2.46788
21
-0.182122
0
LINE
8
BLACK
6
CONTINUOUS
10
2.46788
20
-0.182122
11
2.47014
21
-0.168345
0
LINE
8
BLACK
6
CONTINUOUS
10
2.47014
20
-0.168345
11
2.47388
21
-0.154893
0
LINE
8
BLACK
6
CONTINUOUS
10
2.47388
20
-0.154893
11
2.47904
21
-0.141924
0
LINE
8
BLACK
6
CONTINUOUS
10
2.47904
20
-0.141924
11
2.48558
21
-0.129589
0
LINE
8
BLACK
6
CONTINUOUS
10
2.48558
20
-0.129589
11
2.49342
21
-0.118034
0
LINE
8
BLACK
6
CONTINUOUS
10
2.49342
20
-0.118034
11
2.50246
21
-0.107393
0
LINE
8
BLACK
6
CONTINUOUS
10
2.50246
20
-0.107393
11
2.51259
21
-0.0977921
0
LINE
8
BLACK
6
CONTINUOUS
10
2.51259
20
-0.0977921
11
2.52371
21
-0.0893433
0
LINE
8
BLACK
6
CONTINUOUS
10
2.52371
20
-0.0893433
11
2.53567
21
-0.0821456
0
LINE
8
BLACK
6
CONTINUOUS
10
2.53567
20
-0.0821456
11
2.54834
21
-0.0762835
0
LINE
8
BLACK
6
CONTINUOUS
10
2.54834
20
-0.0762835
11
2.56157
21
-0.0718257
0
LINE
8
BLACK
6
CONTINUOUS
10
2.56157
20
-0.0718257
11
2.5752
21
-0.0688245
0
LINE
8
BLACK
6
CONTINUOUS
10
2.5752
20
-0.0688245
11
2.58908
21
-0.0673151
0
LINE
8
BLACK
6
CONTINUOUS
10
2.58908
20
-0.0673151
11
2.60304
21
-0.0673151
0
LINE
8
BLACK
6
CONTINUOUS
10
2.60304
20
-0.0673151
11
2.61692
21
-0.0688245
0
LINE
8
BLACK
6
CONTINUOUS
10
2.47361
20
-0.20986
11
2.47593
21
-0.223483
0
LINE
8
BLACK
6
CONTINUOUS
10
2.47593
20
-0.223483
11
2.47975
21
-0.236762
0
LINE
8
BLACK
6
CONTINUOUS
10
2.47975
20
-0.236762
11
2.48504
21
-0.249528
0
LINE
8
BLACK
6
CONTINUOUS
10
2.48504
20
-0.249528
11
2.49173
21
-0.261623
0
LINE
8
BLACK
6
CONTINUOUS
10
2.49173
20
-0.261623
11
2.49972
21
-0.272893
0
LINE
8
BLACK
6
CONTINUOUS
10
2.49972
20
-0.272893
11
2.50893
21
-0.283196
0
LINE
8
BLACK
6
CONTINUOUS
10
2.50893
20
-0.283196
11
2.51923
21
-0.292404
0
LINE
8
BLACK
6
CONTINUOUS
10
2.51923
20
-0.292404
11
2.5305
21
-0.300401
0
LINE
8
BLACK
6
CONTINUOUS
10
2.5305
20
-0.300401
11
2.5426
21
-0.307085
0
LINE
8
BLACK
6
CONTINUOUS
10
2.5426
20
-0.307085
11
2.55536
21
-0.312373
0
LINE
8
BLACK
6
CONTINUOUS
10
2.55536
20
-0.312373
11
2.56864
21
-0.316199
0
LINE
8
BLACK
6
CONTINUOUS
10
2.56864
20
-0.316199
11
2.58227
21
-0.318514
0
LINE
8
BLACK
6
CONTINUOUS
10
2.58227
20
-0.318514
11
2.59606
21
-0.319288
0
LINE
8
BLACK
6
CONTINUOUS
10
2.59606
20
-0.319288
11
2.60986
21
-0.318514
0
LINE
8
BLACK
6
CONTINUOUS
10
2.60986
20
-0.318514
11
2.62348
21
-0.316199
0
LINE
8
BLACK
6
CONTINUOUS
10
2.62348
20
-0.316199
11
2.63676
21
-0.312373
0
LINE
8
BLACK
6
CONTINUOUS
10
2.63676
20
-0.312373
11
2.64953
21
-0.307085
0
LINE
8
BLACK
6
CONTINUOUS
10
2.64953
20
-0.307085
11
2.66162
21
-0.300401
0
LINE
8
BLACK
6
CONTINUOUS
10
2.66162
20
-0.300401
11
2.67289
21
-0.292404
0
LINE
8
BLACK
6
CONTINUOUS
10
2.67289
20
-0.292404
11
2.6832
21
-0.283196
0
LINE
8
BLACK
6
CONTINUOUS
10
2.6832
20
-0.283196
11
2.6924
21
-0.272893
0
LINE
8
BLACK
6
CONTINUOUS
10
2.6924
20
-0.272893
11
2.7004
21
-0.261623
0
LINE
8
BLACK
6
CONTINUOUS
10
2.7004
20
-0.261623
11
2.70709
21
-0.249528
0
LINE
8
BLACK
6
CONTINUOUS
10
2.70709
20
-0.249528
11
2.71237
21
-0.236762
0
LINE
8
BLACK
6
CONTINUOUS
10
2.71237
20
-0.236762
11
2.7162
21
-0.223483
0
LINE
8
BLACK
6
CONTINUOUS
10
2.7162
20
-0.223483
11
2.71851
21
-0.20986
0
LINE
8
BLACK
6
CONTINUOUS
10
2.71851
20
-0.20986
11
2.71929
21
-0.196063
0
LINE
8
BLACK
6
CONTINUOUS
10
2.71929
20
-0.196063
11
2.71851
21
-0.182266
0
LINE
8
BLACK
6
CONTINUOUS
10
2.71851
20
-0.182266
11
2.7162
21
-0.168643
0
LINE
8
BLACK
6
CONTINUOUS
10
2.7162
20
-0.168643
11
2.71237
21
-0.155364
0
LINE
8
BLACK
6
CONTINUOUS
10
2.71237
20
-0.155364
11
2.70709
21
-0.142598
0
LINE
8
BLACK
6
CONTINUOUS
10
2.70709
20
-0.142598
11
2.7004
21
-0.130503
0
LINE
8
BLACK
6
CONTINUOUS
10
2.7004
20
-0.130503
11
2.6924
21
-0.119233
0
LINE
8
BLACK
6
CONTINUOUS
10
2.6924
20
-0.119233
11
2.6832
21
-0.10893
0
LINE
8
BLACK
6
CONTINUOUS
10
2.6832
20
-0.10893
11
2.67289
21
-0.0997215
0
LINE
8
BLACK
6
CONTINUOUS
10
2.67289
20
-0.0997215
11
2.66162
21
-0.0917251
0
LINE
8
BLACK
6
CONTINUOUS
10
2.66162
20
-0.0917251
11
2.64953
21
-0.0850408
0
LINE
8
BLACK
6
CONTINUOUS
10
2.64953
20
-0.0850408
11
2.63676
21
-0.0797526
0
LINE
8
BLACK
6
CONTINUOUS
10
2.63676
20
-0.0797526
11
2.62348
21
-0.0759272
0
LINE
8
BLACK
6
CONTINUOUS
10
2.62348
20
-0.0759272
11
2.60986
21
-0.0736124
0
LINE
8
BLACK
6
CONTINUOUS
10
2.60986
20
-0.0736124
11
2.59606
21
-0.0728376
0
LINE
8
BLACK
6
CONTINUOUS
10
2.59606
20
-0.0728376
11
2.58227
21
-0.0736124
0
LINE
8
BLACK
6
CONTINUOUS
10
2.58227
20
-0.0736124
11
2.56864
21
-0.0759272
0
LINE
8
BLACK
6
CONTINUOUS
10
2.56864
20
-0.0759272
11
2.55536
21
-0.0797526
0
LINE
8
BLACK
6
CONTINUOUS
10
2.55536
20
-0.0797526
11
2.5426
21
-0.0850408
0
LINE
8
BLACK
6
CONTINUOUS
10
2.5426
20
-0.0850408
11
2.5305
21
-0.0917251
0
LINE
8
BLACK
6
CONTINUOUS
10
2.5305
20
-0.0917251
11
2.51923
21
-0.0997215
0
LINE
8
BLACK
6
CONTINUOUS
10
2.51923
20
-0.0997215
11
2.50893
21
-0.10893
0
LINE
8
BLACK
6
CONTINUOUS
10
2.50893
20
-0.10893
11
2.49972
21
-0.119233
0
LINE
8
BLACK
6
CONTINUOUS
10
2.49972
20
-0.119233
11
2.49173
21
-0.130503
0
LINE
8
BLACK
6
CONTINUOUS
10
2.49173
20
-0.130503
11
2.48504
21
-0.142598
0
LINE
8
BLACK
6
CONTINUOUS
10
2.48504
20
-0.142598
11
2.47975
21
-0.155364
0
LINE
8
BLACK
6
CONTINUOUS
10
2.47975
20
-0.155364
11
2.47593
21
-0.168643
0
LINE
8
BLACK
6
CONTINUOUS
10
2.47593
20
-0.168643
11
2.47361
21
-0.182266
0
LINE
8
BLACK
6
CONTINUOUS
10
2.47361
20
-0.182266
11
2.47284
21
-0.196063
0
LINE
8
BLACK
6
CONTINUOUS
10
2.47284
20
-0.196063
11
2.47361
21
-0.20986
  0
ENDSEC
  0
EOF
