  0
SECTION
  2
HEADER
  9
$ANGBASE
  50
0.0
  9
$ANGDIR
  70
1
  9
$MEASUREMENT
  70
0
  0
ENDSEC
  0
SECTION
  2
TABLES
  0
TABLE
  2
LTYPE
  70
4
  0
LTYPE
  5
40F
  2
CONTINUOUS
  70
0
  3
Solid line
  72
65
  73
0
  40
0.0
  0
LTYPE
  5
410
  2
DASHDOT
 70
0
  3
Dash Dot ____ _ ____ _
 72
65
 73
4
 40
2.0
 49
1.25
 49
-0.25
 49
0.25
 49
-0.25
  0
LTYPE
  5
411
  2
DASHED
 70
0
  3
Dashed __ __ __ __ __
 72
65
 73
2
 40
0.75
 49
0.5
 49
-0.25
  0
LTYPE
  5
43B
  2
DOTTED
 70
0
  3
Dotted .  .  .  .
 72
65
 73
2
 40
0.2
 49
0.0
 49
-0.2
  0
ENDTAB
  0
TABLE
  2
STYLE
  70
4
  0
STYLE
  2
KICAD
  70
0
  40
0
  41
1
  42
1
  50
0
  71
0
  3
isocp.shx
  0
STYLE
  2
KICADB
  70
0
  40
0
  41
1
  42
1
  50
0
  71
0
  3
isocp.shx
  0
STYLE
  2
KICADI
  70
0
  40
0
  41
1
  42
1
  50
15
  71
0
  3
isocp.shx
  0
STYLE
  2
KICADBI
  70
0
  40
0
  41
1
  42
1
  50
15
  71
0
  3
isocp.shx
  0
ENDTAB
  0
TABLE
  2
LAYER
  70
1
  0
LAYER
  2
BLACK
  70
0
  62
7
  6
CONTINUOUS
  0
ENDTAB
  0
ENDSEC
  0
SECTION
  2
ENTITIES
0
LINE
8
BLACK
6
CONTINUOUS
10
1.01933
20
-1.66857
11
1.02045
21
-1.66932
0
LINE
8
BLACK
6
CONTINUOUS
10
1.02045
20
-1.66932
11
1.02119
21
-1.67043
0
LINE
8
BLACK
6
CONTINUOUS
10
1.02119
20
-1.67043
11
1.02146
21
-1.67175
0
LINE
8
BLACK
6
CONTINUOUS
10
1.02146
20
-1.67175
11
1.02146
21
-1.90108
0
LINE
8
BLACK
6
CONTINUOUS
10
1.02146
20
-1.90108
11
1.02119
21
-1.9024
0
LINE
8
BLACK
6
CONTINUOUS
10
1.02119
20
-1.9024
11
1.02045
21
-1.90352
0
LINE
8
BLACK
6
CONTINUOUS
10
1.02045
20
-1.90352
11
1.01933
21
-1.90427
0
LINE
8
BLACK
6
CONTINUOUS
10
1.01933
20
-1.90427
11
1.01801
21
-1.90453
0
LINE
8
BLACK
6
CONTINUOUS
10
1.01801
20
-1.90453
11
1.01112
21
-1.90453
0
LINE
8
BLACK
6
CONTINUOUS
10
1.01112
20
-1.90453
11
1.0098
21
-1.90427
0
LINE
8
BLACK
6
CONTINUOUS
10
1.0098
20
-1.90427
11
1.00869
21
-1.90352
0
LINE
8
BLACK
6
CONTINUOUS
10
1.00869
20
-1.90352
11
1.00794
21
-1.9024
0
LINE
8
BLACK
6
CONTINUOUS
10
1.00794
20
-1.9024
11
1.00768
21
-1.90108
0
LINE
8
BLACK
6
CONTINUOUS
10
1.00768
20
-1.90108
11
1.00768
21
-1.67175
0
LINE
8
BLACK
6
CONTINUOUS
10
1.00768
20
-1.67175
11
1.00794
21
-1.67043
0
LINE
8
BLACK
6
CONTINUOUS
10
1.00794
20
-1.67043
11
1.00869
21
-1.66932
0
LINE
8
BLACK
6
CONTINUOUS
10
1.00869
20
-1.66932
11
1.0098
21
-1.66857
0
LINE
8
BLACK
6
CONTINUOUS
10
1.0098
20
-1.66857
11
1.01112
21
-1.66831
0
LINE
8
BLACK
6
CONTINUOUS
10
1.01112
20
-1.66831
11
1.01801
21
-1.66831
0
LINE
8
BLACK
6
CONTINUOUS
10
1.01801
20
-1.66831
11
1.01933
21
-1.66857
0
LINE
8
BLACK
6
CONTINUOUS
10
1.04689
20
-1.66857
11
1.04801
21
-1.66932
0
LINE
8
BLACK
6
CONTINUOUS
10
1.04801
20
-1.66932
11
1.04875
21
-1.67043
0
LINE
8
BLACK
6
CONTINUOUS
10
1.04875
20
-1.67043
11
1.04902
21
-1.67175
0
LINE
8
BLACK
6
CONTINUOUS
10
1.04902
20
-1.67175
11
1.04902
21
-1.90108
0
LINE
8
BLACK
6
CONTINUOUS
10
1.04902
20
-1.90108
11
1.04875
21
-1.9024
0
LINE
8
BLACK
6
CONTINUOUS
10
1.04875
20
-1.9024
11
1.04801
21
-1.90352
0
LINE
8
BLACK
6
CONTINUOUS
10
1.04801
20
-1.90352
11
1.04689
21
-1.90427
0
LINE
8
BLACK
6
CONTINUOUS
10
1.04689
20
-1.90427
11
1.04557
21
-1.90453
0
LINE
8
BLACK
6
CONTINUOUS
10
1.04557
20
-1.90453
11
1.03868
21
-1.90453
0
LINE
8
BLACK
6
CONTINUOUS
10
1.03868
20
-1.90453
11
1.03736
21
-1.90427
0
LINE
8
BLACK
6
CONTINUOUS
10
1.03736
20
-1.90427
11
1.03625
21
-1.90352
0
LINE
8
BLACK
6
CONTINUOUS
10
1.03625
20
-1.90352
11
1.0355
21
-1.9024
0
LINE
8
BLACK
6
CONTINUOUS
10
1.0355
20
-1.9024
11
1.03524
21
-1.90108
0
LINE
8
BLACK
6
CONTINUOUS
10
1.03524
20
-1.90108
11
1.03524
21
-1.67175
0
LINE
8
BLACK
6
CONTINUOUS
10
1.03524
20
-1.67175
11
1.0355
21
-1.67043
0
LINE
8
BLACK
6
CONTINUOUS
10
1.0355
20
-1.67043
11
1.03625
21
-1.66932
0
LINE
8
BLACK
6
CONTINUOUS
10
1.03625
20
-1.66932
11
1.03736
21
-1.66857
0
LINE
8
BLACK
6
CONTINUOUS
10
1.03736
20
-1.66857
11
1.03868
21
-1.66831
0
LINE
8
BLACK
6
CONTINUOUS
10
1.03868
20
-1.66831
11
1.04557
21
-1.66831
0
LINE
8
BLACK
6
CONTINUOUS
10
1.04557
20
-1.66831
11
1.04689
21
-1.66857
0
LINE
8
BLACK
6
CONTINUOUS
10
1.07445
20
-1.66857
11
1.07557
21
-1.66932
0
LINE
8
BLACK
6
CONTINUOUS
10
1.07557
20
-1.66932
11
1.07631
21
-1.67043
0
LINE
8
BLACK
6
CONTINUOUS
10
1.07631
20
-1.67043
11
1.07657
21
-1.67175
0
LINE
8
BLACK
6
CONTINUOUS
10
1.07657
20
-1.67175
11
1.07657
21
-1.90108
0
LINE
8
BLACK
6
CONTINUOUS
10
1.07657
20
-1.90108
11
1.07631
21
-1.9024
0
LINE
8
BLACK
6
CONTINUOUS
10
1.07631
20
-1.9024
11
1.07557
21
-1.90352
0
LINE
8
BLACK
6
CONTINUOUS
10
1.07557
20
-1.90352
11
1.07445
21
-1.90427
0
LINE
8
BLACK
6
CONTINUOUS
10
1.07445
20
-1.90427
11
1.07313
21
-1.90453
0
LINE
8
BLACK
6
CONTINUOUS
10
1.07313
20
-1.90453
11
1.06624
21
-1.90453
0
LINE
8
BLACK
6
CONTINUOUS
10
1.06624
20
-1.90453
11
1.06492
21
-1.90427
0
LINE
8
BLACK
6
CONTINUOUS
10
1.06492
20
-1.90427
11
1.0638
21
-1.90352
0
LINE
8
BLACK
6
CONTINUOUS
10
1.0638
20
-1.90352
11
1.06306
21
-1.9024
0
LINE
8
BLACK
6
CONTINUOUS
10
1.06306
20
-1.9024
11
1.0628
21
-1.90108
0
LINE
8
BLACK
6
CONTINUOUS
10
1.0628
20
-1.90108
11
1.0628
21
-1.67175
0
LINE
8
BLACK
6
CONTINUOUS
10
1.0628
20
-1.67175
11
1.06306
21
-1.67043
0
LINE
8
BLACK
6
CONTINUOUS
10
1.06306
20
-1.67043
11
1.0638
21
-1.66932
0
LINE
8
BLACK
6
CONTINUOUS
10
1.0638
20
-1.66932
11
1.06492
21
-1.66857
0
LINE
8
BLACK
6
CONTINUOUS
10
1.06492
20
-1.66857
11
1.06624
21
-1.66831
0
LINE
8
BLACK
6
CONTINUOUS
10
1.06624
20
-1.66831
11
1.07313
21
-1.66831
0
LINE
8
BLACK
6
CONTINUOUS
10
1.07313
20
-1.66831
11
1.07445
21
-1.66857
0
LINE
8
BLACK
6
CONTINUOUS
10
1.10201
20
-1.66857
11
1.10312
21
-1.66932
0
LINE
8
BLACK
6
CONTINUOUS
10
1.10312
20
-1.66932
11
1.10387
21
-1.67043
0
LINE
8
BLACK
6
CONTINUOUS
10
1.10387
20
-1.67043
11
1.10413
21
-1.67175
0
LINE
8
BLACK
6
CONTINUOUS
10
1.10413
20
-1.67175
11
1.10413
21
-1.90108
0
LINE
8
BLACK
6
CONTINUOUS
10
1.10413
20
-1.90108
11
1.10387
21
-1.9024
0
LINE
8
BLACK
6
CONTINUOUS
10
1.10387
20
-1.9024
11
1.10312
21
-1.90352
0
LINE
8
BLACK
6
CONTINUOUS
10
1.10312
20
-1.90352
11
1.10201
21
-1.90427
0
LINE
8
BLACK
6
CONTINUOUS
10
1.10201
20
-1.90427
11
1.10069
21
-1.90453
0
LINE
8
BLACK
6
CONTINUOUS
10
1.10069
20
-1.90453
11
1.0938
21
-1.90453
0
LINE
8
BLACK
6
CONTINUOUS
10
1.0938
20
-1.90453
11
1.09248
21
-1.90427
0
LINE
8
BLACK
6
CONTINUOUS
10
1.09248
20
-1.90427
11
1.09136
21
-1.90352
0
LINE
8
BLACK
6
CONTINUOUS
10
1.09136
20
-1.90352
11
1.09062
21
-1.9024
0
LINE
8
BLACK
6
CONTINUOUS
10
1.09062
20
-1.9024
11
1.09035
21
-1.90108
0
LINE
8
BLACK
6
CONTINUOUS
10
1.09035
20
-1.90108
11
1.09035
21
-1.67175
0
LINE
8
BLACK
6
CONTINUOUS
10
1.09035
20
-1.67175
11
1.09062
21
-1.67043
0
LINE
8
BLACK
6
CONTINUOUS
10
1.09062
20
-1.67043
11
1.09136
21
-1.66932
0
LINE
8
BLACK
6
CONTINUOUS
10
1.09136
20
-1.66932
11
1.09248
21
-1.66857
0
LINE
8
BLACK
6
CONTINUOUS
10
1.09248
20
-1.66857
11
1.0938
21
-1.66831
0
LINE
8
BLACK
6
CONTINUOUS
10
1.0938
20
-1.66831
11
1.10069
21
-1.66831
0
LINE
8
BLACK
6
CONTINUOUS
10
1.10069
20
-1.66831
11
1.10201
21
-1.66857
0
LINE
8
BLACK
6
CONTINUOUS
10
1.12957
20
-1.66857
11
1.13068
21
-1.66932
0
LINE
8
BLACK
6
CONTINUOUS
10
1.13068
20
-1.66932
11
1.13143
21
-1.67043
0
LINE
8
BLACK
6
CONTINUOUS
10
1.13143
20
-1.67043
11
1.13169
21
-1.67175
0
LINE
8
BLACK
6
CONTINUOUS
10
1.13169
20
-1.67175
11
1.13169
21
-1.90108
0
LINE
8
BLACK
6
CONTINUOUS
10
1.13169
20
-1.90108
11
1.13143
21
-1.9024
0
LINE
8
BLACK
6
CONTINUOUS
10
1.13143
20
-1.9024
11
1.13068
21
-1.90352
0
LINE
8
BLACK
6
CONTINUOUS
10
1.13068
20
-1.90352
11
1.12957
21
-1.90427
0
LINE
8
BLACK
6
CONTINUOUS
10
1.12957
20
-1.90427
11
1.12825
21
-1.90453
0
LINE
8
BLACK
6
CONTINUOUS
10
1.12825
20
-1.90453
11
1.12136
21
-1.90453
0
LINE
8
BLACK
6
CONTINUOUS
10
1.12136
20
-1.90453
11
1.12004
21
-1.90427
0
LINE
8
BLACK
6
CONTINUOUS
10
1.12004
20
-1.90427
11
1.11892
21
-1.90352
0
LINE
8
BLACK
6
CONTINUOUS
10
1.11892
20
-1.90352
11
1.11818
21
-1.9024
0
LINE
8
BLACK
6
CONTINUOUS
10
1.11818
20
-1.9024
11
1.11791
21
-1.90108
0
LINE
8
BLACK
6
CONTINUOUS
10
1.11791
20
-1.90108
11
1.11791
21
-1.67175
0
LINE
8
BLACK
6
CONTINUOUS
10
1.11791
20
-1.67175
11
1.11818
21
-1.67043
0
LINE
8
BLACK
6
CONTINUOUS
10
1.11818
20
-1.67043
11
1.11892
21
-1.66932
0
LINE
8
BLACK
6
CONTINUOUS
10
1.11892
20
-1.66932
11
1.12004
21
-1.66857
0
LINE
8
BLACK
6
CONTINUOUS
10
1.12004
20
-1.66857
11
1.12136
21
-1.66831
0
LINE
8
BLACK
6
CONTINUOUS
10
1.12136
20
-1.66831
11
1.12825
21
-1.66831
0
LINE
8
BLACK
6
CONTINUOUS
10
1.12825
20
-1.66831
11
1.12957
21
-1.66857
0
LINE
8
BLACK
6
CONTINUOUS
10
1.15713
20
-1.66857
11
1.15824
21
-1.66932
0
LINE
8
BLACK
6
CONTINUOUS
10
1.15824
20
-1.66932
11
1.15899
21
-1.67043
0
LINE
8
BLACK
6
CONTINUOUS
10
1.15899
20
-1.67043
11
1.15925
21
-1.67175
0
LINE
8
BLACK
6
CONTINUOUS
10
1.15925
20
-1.67175
11
1.15925
21
-1.90108
0
LINE
8
BLACK
6
CONTINUOUS
10
1.15925
20
-1.90108
11
1.15899
21
-1.9024
0
LINE
8
BLACK
6
CONTINUOUS
10
1.15899
20
-1.9024
11
1.15824
21
-1.90352
0
LINE
8
BLACK
6
CONTINUOUS
10
1.15824
20
-1.90352
11
1.15713
21
-1.90427
0
LINE
8
BLACK
6
CONTINUOUS
10
1.15713
20
-1.90427
11
1.15581
21
-1.90453
0
LINE
8
BLACK
6
CONTINUOUS
10
1.15581
20
-1.90453
11
1.14892
21
-1.90453
0
LINE
8
BLACK
6
CONTINUOUS
10
1.14892
20
-1.90453
11
1.1476
21
-1.90427
0
LINE
8
BLACK
6
CONTINUOUS
10
1.1476
20
-1.90427
11
1.14648
21
-1.90352
0
LINE
8
BLACK
6
CONTINUOUS
10
1.14648
20
-1.90352
11
1.14573
21
-1.9024
0
LINE
8
BLACK
6
CONTINUOUS
10
1.14573
20
-1.9024
11
1.14547
21
-1.90108
0
LINE
8
BLACK
6
CONTINUOUS
10
1.14547
20
-1.90108
11
1.14547
21
-1.67175
0
LINE
8
BLACK
6
CONTINUOUS
10
1.14547
20
-1.67175
11
1.14573
21
-1.67043
0
LINE
8
BLACK
6
CONTINUOUS
10
1.14573
20
-1.67043
11
1.14648
21
-1.66932
0
LINE
8
BLACK
6
CONTINUOUS
10
1.14648
20
-1.66932
11
1.1476
21
-1.66857
0
LINE
8
BLACK
6
CONTINUOUS
10
1.1476
20
-1.66857
11
1.14892
21
-1.66831
0
LINE
8
BLACK
6
CONTINUOUS
10
1.14892
20
-1.66831
11
1.15581
21
-1.66831
0
LINE
8
BLACK
6
CONTINUOUS
10
1.15581
20
-1.66831
11
1.15713
21
-1.66857
0
LINE
8
BLACK
6
CONTINUOUS
10
1.18468
20
-1.66857
11
1.1858
21
-1.66932
0
LINE
8
BLACK
6
CONTINUOUS
10
1.1858
20
-1.66932
11
1.18655
21
-1.67043
0
LINE
8
BLACK
6
CONTINUOUS
10
1.18655
20
-1.67043
11
1.18681
21
-1.67175
0
LINE
8
BLACK
6
CONTINUOUS
10
1.18681
20
-1.67175
11
1.18681
21
-1.90108
0
LINE
8
BLACK
6
CONTINUOUS
10
1.18681
20
-1.90108
11
1.18655
21
-1.9024
0
LINE
8
BLACK
6
CONTINUOUS
10
1.18655
20
-1.9024
11
1.1858
21
-1.90352
0
LINE
8
BLACK
6
CONTINUOUS
10
1.1858
20
-1.90352
11
1.18468
21
-1.90427
0
LINE
8
BLACK
6
CONTINUOUS
10
1.18468
20
-1.90427
11
1.18337
21
-1.90453
0
LINE
8
BLACK
6
CONTINUOUS
10
1.18337
20
-1.90453
11
1.17648
21
-1.90453
0
LINE
8
BLACK
6
CONTINUOUS
10
1.17648
20
-1.90453
11
1.17516
21
-1.90427
0
LINE
8
BLACK
6
CONTINUOUS
10
1.17516
20
-1.90427
11
1.17404
21
-1.90352
0
LINE
8
BLACK
6
CONTINUOUS
10
1.17404
20
-1.90352
11
1.17329
21
-1.9024
0
LINE
8
BLACK
6
CONTINUOUS
10
1.17329
20
-1.9024
11
1.17303
21
-1.90108
0
LINE
8
BLACK
6
CONTINUOUS
10
1.17303
20
-1.90108
11
1.17303
21
-1.67175
0
LINE
8
BLACK
6
CONTINUOUS
10
1.17303
20
-1.67175
11
1.17329
21
-1.67043
0
LINE
8
BLACK
6
CONTINUOUS
10
1.17329
20
-1.67043
11
1.17404
21
-1.66932
0
LINE
8
BLACK
6
CONTINUOUS
10
1.17404
20
-1.66932
11
1.17516
21
-1.66857
0
LINE
8
BLACK
6
CONTINUOUS
10
1.17516
20
-1.66857
11
1.17648
21
-1.66831
0
LINE
8
BLACK
6
CONTINUOUS
10
1.17648
20
-1.66831
11
1.18337
21
-1.66831
0
LINE
8
BLACK
6
CONTINUOUS
10
1.18337
20
-1.66831
11
1.18468
21
-1.66857
0
LINE
8
BLACK
6
CONTINUOUS
10
1.21224
20
-1.66857
11
1.21336
21
-1.66932
0
LINE
8
BLACK
6
CONTINUOUS
10
1.21336
20
-1.66932
11
1.21411
21
-1.67043
0
LINE
8
BLACK
6
CONTINUOUS
10
1.21411
20
-1.67043
11
1.21437
21
-1.67175
0
LINE
8
BLACK
6
CONTINUOUS
10
1.21437
20
-1.67175
11
1.21437
21
-1.90108
0
LINE
8
BLACK
6
CONTINUOUS
10
1.21437
20
-1.90108
11
1.21411
21
-1.9024
0
LINE
8
BLACK
6
CONTINUOUS
10
1.21411
20
-1.9024
11
1.21336
21
-1.90352
0
LINE
8
BLACK
6
CONTINUOUS
10
1.21336
20
-1.90352
11
1.21224
21
-1.90427
0
LINE
8
BLACK
6
CONTINUOUS
10
1.21224
20
-1.90427
11
1.21093
21
-1.90453
0
LINE
8
BLACK
6
CONTINUOUS
10
1.21093
20
-1.90453
11
1.20404
21
-1.90453
0
LINE
8
BLACK
6
CONTINUOUS
10
1.20404
20
-1.90453
11
1.20272
21
-1.90427
0
LINE
8
BLACK
6
CONTINUOUS
10
1.20272
20
-1.90427
11
1.2016
21
-1.90352
0
LINE
8
BLACK
6
CONTINUOUS
10
1.2016
20
-1.90352
11
1.20085
21
-1.9024
0
LINE
8
BLACK
6
CONTINUOUS
10
1.20085
20
-1.9024
11
1.20059
21
-1.90108
0
LINE
8
BLACK
6
CONTINUOUS
10
1.20059
20
-1.90108
11
1.20059
21
-1.67175
0
LINE
8
BLACK
6
CONTINUOUS
10
1.20059
20
-1.67175
11
1.20085
21
-1.67043
0
LINE
8
BLACK
6
CONTINUOUS
10
1.20085
20
-1.67043
11
1.2016
21
-1.66932
0
LINE
8
BLACK
6
CONTINUOUS
10
1.2016
20
-1.66932
11
1.20272
21
-1.66857
0
LINE
8
BLACK
6
CONTINUOUS
10
1.20272
20
-1.66857
11
1.20404
21
-1.66831
0
LINE
8
BLACK
6
CONTINUOUS
10
1.20404
20
-1.66831
11
1.21093
21
-1.66831
0
LINE
8
BLACK
6
CONTINUOUS
10
1.21093
20
-1.66831
11
1.21224
21
-1.66857
0
LINE
8
BLACK
6
CONTINUOUS
10
1.2398
20
-1.66857
11
1.24092
21
-1.66932
0
LINE
8
BLACK
6
CONTINUOUS
10
1.24092
20
-1.66932
11
1.24167
21
-1.67043
0
LINE
8
BLACK
6
CONTINUOUS
10
1.24167
20
-1.67043
11
1.24193
21
-1.67175
0
LINE
8
BLACK
6
CONTINUOUS
10
1.24193
20
-1.67175
11
1.24193
21
-1.90108
0
LINE
8
BLACK
6
CONTINUOUS
10
1.24193
20
-1.90108
11
1.24167
21
-1.9024
0
LINE
8
BLACK
6
CONTINUOUS
10
1.24167
20
-1.9024
11
1.24092
21
-1.90352
0
LINE
8
BLACK
6
CONTINUOUS
10
1.24092
20
-1.90352
11
1.2398
21
-1.90427
0
LINE
8
BLACK
6
CONTINUOUS
10
1.2398
20
-1.90427
11
1.23848
21
-1.90453
0
LINE
8
BLACK
6
CONTINUOUS
10
1.23848
20
-1.90453
11
1.23159
21
-1.90453
0
LINE
8
BLACK
6
CONTINUOUS
10
1.23159
20
-1.90453
11
1.23028
21
-1.90427
0
LINE
8
BLACK
6
CONTINUOUS
10
1.23028
20
-1.90427
11
1.22916
21
-1.90352
0
LINE
8
BLACK
6
CONTINUOUS
10
1.22916
20
-1.90352
11
1.22841
21
-1.9024
0
LINE
8
BLACK
6
CONTINUOUS
10
1.22841
20
-1.9024
11
1.22815
21
-1.90108
0
LINE
8
BLACK
6
CONTINUOUS
10
1.22815
20
-1.90108
11
1.22815
21
-1.67175
0
LINE
8
BLACK
6
CONTINUOUS
10
1.22815
20
-1.67175
11
1.22841
21
-1.67043
0
LINE
8
BLACK
6
CONTINUOUS
10
1.22841
20
-1.67043
11
1.22916
21
-1.66932
0
LINE
8
BLACK
6
CONTINUOUS
10
1.22916
20
-1.66932
11
1.23028
21
-1.66857
0
LINE
8
BLACK
6
CONTINUOUS
10
1.23028
20
-1.66857
11
1.23159
21
-1.66831
0
LINE
8
BLACK
6
CONTINUOUS
10
1.23159
20
-1.66831
11
1.23848
21
-1.66831
0
LINE
8
BLACK
6
CONTINUOUS
10
1.23848
20
-1.66831
11
1.2398
21
-1.66857
0
LINE
8
BLACK
6
CONTINUOUS
10
1.26736
20
-1.66857
11
1.26848
21
-1.66932
0
LINE
8
BLACK
6
CONTINUOUS
10
1.26848
20
-1.66932
11
1.26923
21
-1.67043
0
LINE
8
BLACK
6
CONTINUOUS
10
1.26923
20
-1.67043
11
1.26949
21
-1.67175
0
LINE
8
BLACK
6
CONTINUOUS
10
1.26949
20
-1.67175
11
1.26949
21
-1.90108
0
LINE
8
BLACK
6
CONTINUOUS
10
1.26949
20
-1.90108
11
1.26923
21
-1.9024
0
LINE
8
BLACK
6
CONTINUOUS
10
1.26923
20
-1.9024
11
1.26848
21
-1.90352
0
LINE
8
BLACK
6
CONTINUOUS
10
1.26848
20
-1.90352
11
1.26736
21
-1.90427
0
LINE
8
BLACK
6
CONTINUOUS
10
1.26736
20
-1.90427
11
1.26604
21
-1.90453
0
LINE
8
BLACK
6
CONTINUOUS
10
1.26604
20
-1.90453
11
1.25915
21
-1.90453
0
LINE
8
BLACK
6
CONTINUOUS
10
1.25915
20
-1.90453
11
1.25784
21
-1.90427
0
LINE
8
BLACK
6
CONTINUOUS
10
1.25784
20
-1.90427
11
1.25672
21
-1.90352
0
LINE
8
BLACK
6
CONTINUOUS
10
1.25672
20
-1.90352
11
1.25597
21
-1.9024
0
LINE
8
BLACK
6
CONTINUOUS
10
1.25597
20
-1.9024
11
1.25571
21
-1.90108
0
LINE
8
BLACK
6
CONTINUOUS
10
1.25571
20
-1.90108
11
1.25571
21
-1.67175
0
LINE
8
BLACK
6
CONTINUOUS
10
1.25571
20
-1.67175
11
1.25597
21
-1.67043
0
LINE
8
BLACK
6
CONTINUOUS
10
1.25597
20
-1.67043
11
1.25672
21
-1.66932
0
LINE
8
BLACK
6
CONTINUOUS
10
1.25672
20
-1.66932
11
1.25784
21
-1.66857
0
LINE
8
BLACK
6
CONTINUOUS
10
1.25784
20
-1.66857
11
1.25915
21
-1.66831
0
LINE
8
BLACK
6
CONTINUOUS
10
1.25915
20
-1.66831
11
1.26604
21
-1.66831
0
LINE
8
BLACK
6
CONTINUOUS
10
1.26604
20
-1.66831
11
1.26736
21
-1.66857
0
LINE
8
BLACK
6
CONTINUOUS
10
1.29492
20
-1.66857
11
1.29604
21
-1.66932
0
LINE
8
BLACK
6
CONTINUOUS
10
1.29604
20
-1.66932
11
1.29679
21
-1.67043
0
LINE
8
BLACK
6
CONTINUOUS
10
1.29679
20
-1.67043
11
1.29705
21
-1.67175
0
LINE
8
BLACK
6
CONTINUOUS
10
1.29705
20
-1.67175
11
1.29705
21
-1.90108
0
LINE
8
BLACK
6
CONTINUOUS
10
1.29705
20
-1.90108
11
1.29679
21
-1.9024
0
LINE
8
BLACK
6
CONTINUOUS
10
1.29679
20
-1.9024
11
1.29604
21
-1.90352
0
LINE
8
BLACK
6
CONTINUOUS
10
1.29604
20
-1.90352
11
1.29492
21
-1.90427
0
LINE
8
BLACK
6
CONTINUOUS
10
1.29492
20
-1.90427
11
1.2936
21
-1.90453
0
LINE
8
BLACK
6
CONTINUOUS
10
1.2936
20
-1.90453
11
1.28671
21
-1.90453
0
LINE
8
BLACK
6
CONTINUOUS
10
1.28671
20
-1.90453
11
1.28539
21
-1.90427
0
LINE
8
BLACK
6
CONTINUOUS
10
1.28539
20
-1.90427
11
1.28428
21
-1.90352
0
LINE
8
BLACK
6
CONTINUOUS
10
1.28428
20
-1.90352
11
1.28353
21
-1.9024
0
LINE
8
BLACK
6
CONTINUOUS
10
1.28353
20
-1.9024
11
1.28327
21
-1.90108
0
LINE
8
BLACK
6
CONTINUOUS
10
1.28327
20
-1.90108
11
1.28327
21
-1.67175
0
LINE
8
BLACK
6
CONTINUOUS
10
1.28327
20
-1.67175
11
1.28353
21
-1.67043
0
LINE
8
BLACK
6
CONTINUOUS
10
1.28353
20
-1.67043
11
1.28428
21
-1.66932
0
LINE
8
BLACK
6
CONTINUOUS
10
1.28428
20
-1.66932
11
1.28539
21
-1.66857
0
LINE
8
BLACK
6
CONTINUOUS
10
1.28539
20
-1.66857
11
1.28671
21
-1.66831
0
LINE
8
BLACK
6
CONTINUOUS
10
1.28671
20
-1.66831
11
1.2936
21
-1.66831
0
LINE
8
BLACK
6
CONTINUOUS
10
1.2936
20
-1.66831
11
1.29492
21
-1.66857
0
LINE
8
BLACK
6
CONTINUOUS
10
1.32248
20
-1.66857
11
1.3236
21
-1.66932
0
LINE
8
BLACK
6
CONTINUOUS
10
1.3236
20
-1.66932
11
1.32434
21
-1.67043
0
LINE
8
BLACK
6
CONTINUOUS
10
1.32434
20
-1.67043
11
1.32461
21
-1.67175
0
LINE
8
BLACK
6
CONTINUOUS
10
1.32461
20
-1.67175
11
1.32461
21
-1.90108
0
LINE
8
BLACK
6
CONTINUOUS
10
1.32461
20
-1.90108
11
1.32434
21
-1.9024
0
LINE
8
BLACK
6
CONTINUOUS
10
1.32434
20
-1.9024
11
1.3236
21
-1.90352
0
LINE
8
BLACK
6
CONTINUOUS
10
1.3236
20
-1.90352
11
1.32248
21
-1.90427
0
LINE
8
BLACK
6
CONTINUOUS
10
1.32248
20
-1.90427
11
1.32116
21
-1.90453
0
LINE
8
BLACK
6
CONTINUOUS
10
1.32116
20
-1.90453
11
1.31427
21
-1.90453
0
LINE
8
BLACK
6
CONTINUOUS
10
1.31427
20
-1.90453
11
1.31295
21
-1.90427
0
LINE
8
BLACK
6
CONTINUOUS
10
1.31295
20
-1.90427
11
1.31184
21
-1.90352
0
LINE
8
BLACK
6
CONTINUOUS
10
1.31184
20
-1.90352
11
1.31109
21
-1.9024
0
LINE
8
BLACK
6
CONTINUOUS
10
1.31109
20
-1.9024
11
1.31083
21
-1.90108
0
LINE
8
BLACK
6
CONTINUOUS
10
1.31083
20
-1.90108
11
1.31083
21
-1.67175
0
LINE
8
BLACK
6
CONTINUOUS
10
1.31083
20
-1.67175
11
1.31109
21
-1.67043
0
LINE
8
BLACK
6
CONTINUOUS
10
1.31109
20
-1.67043
11
1.31184
21
-1.66932
0
LINE
8
BLACK
6
CONTINUOUS
10
1.31184
20
-1.66932
11
1.31295
21
-1.66857
0
LINE
8
BLACK
6
CONTINUOUS
10
1.31295
20
-1.66857
11
1.31427
21
-1.66831
0
LINE
8
BLACK
6
CONTINUOUS
10
1.31427
20
-1.66831
11
1.32116
21
-1.66831
0
LINE
8
BLACK
6
CONTINUOUS
10
1.32116
20
-1.66831
11
1.32248
21
-1.66857
0
LINE
8
BLACK
6
CONTINUOUS
10
1.35004
20
-1.66857
11
1.35116
21
-1.66932
0
LINE
8
BLACK
6
CONTINUOUS
10
1.35116
20
-1.66932
11
1.3519
21
-1.67043
0
LINE
8
BLACK
6
CONTINUOUS
10
1.3519
20
-1.67043
11
1.35217
21
-1.67175
0
LINE
8
BLACK
6
CONTINUOUS
10
1.35217
20
-1.67175
11
1.35217
21
-1.90108
0
LINE
8
BLACK
6
CONTINUOUS
10
1.35217
20
-1.90108
11
1.3519
21
-1.9024
0
LINE
8
BLACK
6
CONTINUOUS
10
1.3519
20
-1.9024
11
1.35116
21
-1.90352
0
LINE
8
BLACK
6
CONTINUOUS
10
1.35116
20
-1.90352
11
1.35004
21
-1.90427
0
LINE
8
BLACK
6
CONTINUOUS
10
1.35004
20
-1.90427
11
1.34872
21
-1.90453
0
LINE
8
BLACK
6
CONTINUOUS
10
1.34872
20
-1.90453
11
1.34183
21
-1.90453
0
LINE
8
BLACK
6
CONTINUOUS
10
1.34183
20
-1.90453
11
1.34051
21
-1.90427
0
LINE
8
BLACK
6
CONTINUOUS
10
1.34051
20
-1.90427
11
1.33939
21
-1.90352
0
LINE
8
BLACK
6
CONTINUOUS
10
1.33939
20
-1.90352
11
1.33865
21
-1.9024
0
LINE
8
BLACK
6
CONTINUOUS
10
1.33865
20
-1.9024
11
1.33839
21
-1.90108
0
LINE
8
BLACK
6
CONTINUOUS
10
1.33839
20
-1.90108
11
1.33839
21
-1.67175
0
LINE
8
BLACK
6
CONTINUOUS
10
1.33839
20
-1.67175
11
1.33865
21
-1.67043
0
LINE
8
BLACK
6
CONTINUOUS
10
1.33865
20
-1.67043
11
1.33939
21
-1.66932
0
LINE
8
BLACK
6
CONTINUOUS
10
1.33939
20
-1.66932
11
1.34051
21
-1.66857
0
LINE
8
BLACK
6
CONTINUOUS
10
1.34051
20
-1.66857
11
1.34183
21
-1.66831
0
LINE
8
BLACK
6
CONTINUOUS
10
1.34183
20
-1.66831
11
1.34872
21
-1.66831
0
LINE
8
BLACK
6
CONTINUOUS
10
1.34872
20
-1.66831
11
1.35004
21
-1.66857
0
LINE
8
BLACK
6
CONTINUOUS
10
1.3776
20
-1.66857
11
1.37872
21
-1.66932
0
LINE
8
BLACK
6
CONTINUOUS
10
1.37872
20
-1.66932
11
1.37946
21
-1.67043
0
LINE
8
BLACK
6
CONTINUOUS
10
1.37946
20
-1.67043
11
1.37972
21
-1.67175
0
LINE
8
BLACK
6
CONTINUOUS
10
1.37972
20
-1.67175
11
1.37972
21
-1.90108
0
LINE
8
BLACK
6
CONTINUOUS
10
1.37972
20
-1.90108
11
1.37946
21
-1.9024
0
LINE
8
BLACK
6
CONTINUOUS
10
1.37946
20
-1.9024
11
1.37872
21
-1.90352
0
LINE
8
BLACK
6
CONTINUOUS
10
1.37872
20
-1.90352
11
1.3776
21
-1.90427
0
LINE
8
BLACK
6
CONTINUOUS
10
1.3776
20
-1.90427
11
1.37628
21
-1.90453
0
LINE
8
BLACK
6
CONTINUOUS
10
1.37628
20
-1.90453
11
1.36939
21
-1.90453
0
LINE
8
BLACK
6
CONTINUOUS
10
1.36939
20
-1.90453
11
1.36807
21
-1.90427
0
LINE
8
BLACK
6
CONTINUOUS
10
1.36807
20
-1.90427
11
1.36695
21
-1.90352
0
LINE
8
BLACK
6
CONTINUOUS
10
1.36695
20
-1.90352
11
1.36621
21
-1.9024
0
LINE
8
BLACK
6
CONTINUOUS
10
1.36621
20
-1.9024
11
1.36594
21
-1.90108
0
LINE
8
BLACK
6
CONTINUOUS
10
1.36594
20
-1.90108
11
1.36594
21
-1.67175
0
LINE
8
BLACK
6
CONTINUOUS
10
1.36594
20
-1.67175
11
1.36621
21
-1.67043
0
LINE
8
BLACK
6
CONTINUOUS
10
1.36621
20
-1.67043
11
1.36695
21
-1.66932
0
LINE
8
BLACK
6
CONTINUOUS
10
1.36695
20
-1.66932
11
1.36807
21
-1.66857
0
LINE
8
BLACK
6
CONTINUOUS
10
1.36807
20
-1.66857
11
1.36939
21
-1.66831
0
LINE
8
BLACK
6
CONTINUOUS
10
1.36939
20
-1.66831
11
1.37628
21
-1.66831
0
LINE
8
BLACK
6
CONTINUOUS
10
1.37628
20
-1.66831
11
1.3776
21
-1.66857
0
LINE
8
BLACK
6
CONTINUOUS
10
1.40516
20
-1.66857
11
1.40627
21
-1.66932
0
LINE
8
BLACK
6
CONTINUOUS
10
1.40627
20
-1.66932
11
1.40702
21
-1.67043
0
LINE
8
BLACK
6
CONTINUOUS
10
1.40702
20
-1.67043
11
1.40728
21
-1.67175
0
LINE
8
BLACK
6
CONTINUOUS
10
1.40728
20
-1.67175
11
1.40728
21
-1.90108
0
LINE
8
BLACK
6
CONTINUOUS
10
1.40728
20
-1.90108
11
1.40702
21
-1.9024
0
LINE
8
BLACK
6
CONTINUOUS
10
1.40702
20
-1.9024
11
1.40627
21
-1.90352
0
LINE
8
BLACK
6
CONTINUOUS
10
1.40627
20
-1.90352
11
1.40516
21
-1.90427
0
LINE
8
BLACK
6
CONTINUOUS
10
1.40516
20
-1.90427
11
1.40384
21
-1.90453
0
LINE
8
BLACK
6
CONTINUOUS
10
1.40384
20
-1.90453
11
1.39695
21
-1.90453
0
LINE
8
BLACK
6
CONTINUOUS
10
1.39695
20
-1.90453
11
1.39563
21
-1.90427
0
LINE
8
BLACK
6
CONTINUOUS
10
1.39563
20
-1.90427
11
1.39451
21
-1.90352
0
LINE
8
BLACK
6
CONTINUOUS
10
1.39451
20
-1.90352
11
1.39377
21
-1.9024
0
LINE
8
BLACK
6
CONTINUOUS
10
1.39377
20
-1.9024
11
1.3935
21
-1.90108
0
LINE
8
BLACK
6
CONTINUOUS
10
1.3935
20
-1.90108
11
1.3935
21
-1.67175
0
LINE
8
BLACK
6
CONTINUOUS
10
1.3935
20
-1.67175
11
1.39377
21
-1.67043
0
LINE
8
BLACK
6
CONTINUOUS
10
1.39377
20
-1.67043
11
1.39451
21
-1.66932
0
LINE
8
BLACK
6
CONTINUOUS
10
1.39451
20
-1.66932
11
1.39563
21
-1.66857
0
LINE
8
BLACK
6
CONTINUOUS
10
1.39563
20
-1.66857
11
1.39695
21
-1.66831
0
LINE
8
BLACK
6
CONTINUOUS
10
1.39695
20
-1.66831
11
1.40384
21
-1.66831
0
LINE
8
BLACK
6
CONTINUOUS
10
1.40384
20
-1.66831
11
1.40516
21
-1.66857
0
LINE
8
BLACK
6
CONTINUOUS
10
1.43272
20
-1.66857
11
1.43383
21
-1.66932
0
LINE
8
BLACK
6
CONTINUOUS
10
1.43383
20
-1.66932
11
1.43458
21
-1.67043
0
LINE
8
BLACK
6
CONTINUOUS
10
1.43458
20
-1.67043
11
1.43484
21
-1.67175
0
LINE
8
BLACK
6
CONTINUOUS
10
1.43484
20
-1.67175
11
1.43484
21
-1.90108
0
LINE
8
BLACK
6
CONTINUOUS
10
1.43484
20
-1.90108
11
1.43458
21
-1.9024
0
LINE
8
BLACK
6
CONTINUOUS
10
1.43458
20
-1.9024
11
1.43383
21
-1.90352
0
LINE
8
BLACK
6
CONTINUOUS
10
1.43383
20
-1.90352
11
1.43272
21
-1.90427
0
LINE
8
BLACK
6
CONTINUOUS
10
1.43272
20
-1.90427
11
1.4314
21
-1.90453
0
LINE
8
BLACK
6
CONTINUOUS
10
1.4314
20
-1.90453
11
1.42451
21
-1.90453
0
LINE
8
BLACK
6
CONTINUOUS
10
1.42451
20
-1.90453
11
1.42319
21
-1.90427
0
LINE
8
BLACK
6
CONTINUOUS
10
1.42319
20
-1.90427
11
1.42207
21
-1.90352
0
LINE
8
BLACK
6
CONTINUOUS
10
1.42207
20
-1.90352
11
1.42133
21
-1.9024
0
LINE
8
BLACK
6
CONTINUOUS
10
1.42133
20
-1.9024
11
1.42106
21
-1.90108
0
LINE
8
BLACK
6
CONTINUOUS
10
1.42106
20
-1.90108
11
1.42106
21
-1.67175
0
LINE
8
BLACK
6
CONTINUOUS
10
1.42106
20
-1.67175
11
1.42133
21
-1.67043
0
LINE
8
BLACK
6
CONTINUOUS
10
1.42133
20
-1.67043
11
1.42207
21
-1.66932
0
LINE
8
BLACK
6
CONTINUOUS
10
1.42207
20
-1.66932
11
1.42319
21
-1.66857
0
LINE
8
BLACK
6
CONTINUOUS
10
1.42319
20
-1.66857
11
1.42451
21
-1.66831
0
LINE
8
BLACK
6
CONTINUOUS
10
1.42451
20
-1.66831
11
1.4314
21
-1.66831
0
LINE
8
BLACK
6
CONTINUOUS
10
1.4314
20
-1.66831
11
1.43272
21
-1.66857
0
LINE
8
BLACK
6
CONTINUOUS
10
1.46027
20
-1.66857
11
1.46139
21
-1.66932
0
LINE
8
BLACK
6
CONTINUOUS
10
1.46139
20
-1.66932
11
1.46214
21
-1.67043
0
LINE
8
BLACK
6
CONTINUOUS
10
1.46214
20
-1.67043
11
1.4624
21
-1.67175
0
LINE
8
BLACK
6
CONTINUOUS
10
1.4624
20
-1.67175
11
1.4624
21
-1.90108
0
LINE
8
BLACK
6
CONTINUOUS
10
1.4624
20
-1.90108
11
1.46214
21
-1.9024
0
LINE
8
BLACK
6
CONTINUOUS
10
1.46214
20
-1.9024
11
1.46139
21
-1.90352
0
LINE
8
BLACK
6
CONTINUOUS
10
1.46139
20
-1.90352
11
1.46027
21
-1.90427
0
LINE
8
BLACK
6
CONTINUOUS
10
1.46027
20
-1.90427
11
1.45896
21
-1.90453
0
LINE
8
BLACK
6
CONTINUOUS
10
1.45896
20
-1.90453
11
1.45207
21
-1.90453
0
LINE
8
BLACK
6
CONTINUOUS
10
1.45207
20
-1.90453
11
1.45075
21
-1.90427
0
LINE
8
BLACK
6
CONTINUOUS
10
1.45075
20
-1.90427
11
1.44963
21
-1.90352
0
LINE
8
BLACK
6
CONTINUOUS
10
1.44963
20
-1.90352
11
1.44888
21
-1.9024
0
LINE
8
BLACK
6
CONTINUOUS
10
1.44888
20
-1.9024
11
1.44862
21
-1.90108
0
LINE
8
BLACK
6
CONTINUOUS
10
1.44862
20
-1.90108
11
1.44862
21
-1.67175
0
LINE
8
BLACK
6
CONTINUOUS
10
1.44862
20
-1.67175
11
1.44888
21
-1.67043
0
LINE
8
BLACK
6
CONTINUOUS
10
1.44888
20
-1.67043
11
1.44963
21
-1.66932
0
LINE
8
BLACK
6
CONTINUOUS
10
1.44963
20
-1.66932
11
1.45075
21
-1.66857
0
LINE
8
BLACK
6
CONTINUOUS
10
1.45075
20
-1.66857
11
1.45207
21
-1.66831
0
LINE
8
BLACK
6
CONTINUOUS
10
1.45207
20
-1.66831
11
1.45896
21
-1.66831
0
LINE
8
BLACK
6
CONTINUOUS
10
1.45896
20
-1.66831
11
1.46027
21
-1.66857
0
LINE
8
BLACK
6
CONTINUOUS
10
1.48783
20
-1.66857
11
1.48895
21
-1.66932
0
LINE
8
BLACK
6
CONTINUOUS
10
1.48895
20
-1.66932
11
1.4897
21
-1.67043
0
LINE
8
BLACK
6
CONTINUOUS
10
1.4897
20
-1.67043
11
1.48996
21
-1.67175
0
LINE
8
BLACK
6
CONTINUOUS
10
1.48996
20
-1.67175
11
1.48996
21
-1.90108
0
LINE
8
BLACK
6
CONTINUOUS
10
1.48996
20
-1.90108
11
1.4897
21
-1.9024
0
LINE
8
BLACK
6
CONTINUOUS
10
1.4897
20
-1.9024
11
1.48895
21
-1.90352
0
LINE
8
BLACK
6
CONTINUOUS
10
1.48895
20
-1.90352
11
1.48783
21
-1.90427
0
LINE
8
BLACK
6
CONTINUOUS
10
1.48783
20
-1.90427
11
1.48652
21
-1.90453
0
LINE
8
BLACK
6
CONTINUOUS
10
1.48652
20
-1.90453
11
1.47963
21
-1.90453
0
LINE
8
BLACK
6
CONTINUOUS
10
1.47963
20
-1.90453
11
1.47831
21
-1.90427
0
LINE
8
BLACK
6
CONTINUOUS
10
1.47831
20
-1.90427
11
1.47719
21
-1.90352
0
LINE
8
BLACK
6
CONTINUOUS
10
1.47719
20
-1.90352
11
1.47644
21
-1.9024
0
LINE
8
BLACK
6
CONTINUOUS
10
1.47644
20
-1.9024
11
1.47618
21
-1.90108
0
LINE
8
BLACK
6
CONTINUOUS
10
1.47618
20
-1.90108
11
1.47618
21
-1.67175
0
LINE
8
BLACK
6
CONTINUOUS
10
1.47618
20
-1.67175
11
1.47644
21
-1.67043
0
LINE
8
BLACK
6
CONTINUOUS
10
1.47644
20
-1.67043
11
1.47719
21
-1.66932
0
LINE
8
BLACK
6
CONTINUOUS
10
1.47719
20
-1.66932
11
1.47831
21
-1.66857
0
LINE
8
BLACK
6
CONTINUOUS
10
1.47831
20
-1.66857
11
1.47963
21
-1.66831
0
LINE
8
BLACK
6
CONTINUOUS
10
1.47963
20
-1.66831
11
1.48652
21
-1.66831
0
LINE
8
BLACK
6
CONTINUOUS
10
1.48652
20
-1.66831
11
1.48783
21
-1.66857
0
LINE
8
BLACK
6
CONTINUOUS
10
1.51539
20
-1.66857
11
1.51651
21
-1.66932
0
LINE
8
BLACK
6
CONTINUOUS
10
1.51651
20
-1.66932
11
1.51726
21
-1.67043
0
LINE
8
BLACK
6
CONTINUOUS
10
1.51726
20
-1.67043
11
1.51752
21
-1.67175
0
LINE
8
BLACK
6
CONTINUOUS
10
1.51752
20
-1.67175
11
1.51752
21
-1.90108
0
LINE
8
BLACK
6
CONTINUOUS
10
1.51752
20
-1.90108
11
1.51726
21
-1.9024
0
LINE
8
BLACK
6
CONTINUOUS
10
1.51726
20
-1.9024
11
1.51651
21
-1.90352
0
LINE
8
BLACK
6
CONTINUOUS
10
1.51651
20
-1.90352
11
1.51539
21
-1.90427
0
LINE
8
BLACK
6
CONTINUOUS
10
1.51539
20
-1.90427
11
1.51407
21
-1.90453
0
LINE
8
BLACK
6
CONTINUOUS
10
1.51407
20
-1.90453
11
1.50719
21
-1.90453
0
LINE
8
BLACK
6
CONTINUOUS
10
1.50719
20
-1.90453
11
1.50587
21
-1.90427
0
LINE
8
BLACK
6
CONTINUOUS
10
1.50587
20
-1.90427
11
1.50475
21
-1.90352
0
LINE
8
BLACK
6
CONTINUOUS
10
1.50475
20
-1.90352
11
1.504
21
-1.9024
0
LINE
8
BLACK
6
CONTINUOUS
10
1.504
20
-1.9024
11
1.50374
21
-1.90108
0
LINE
8
BLACK
6
CONTINUOUS
10
1.50374
20
-1.90108
11
1.50374
21
-1.67175
0
LINE
8
BLACK
6
CONTINUOUS
10
1.50374
20
-1.67175
11
1.504
21
-1.67043
0
LINE
8
BLACK
6
CONTINUOUS
10
1.504
20
-1.67043
11
1.50475
21
-1.66932
0
LINE
8
BLACK
6
CONTINUOUS
10
1.50475
20
-1.66932
11
1.50587
21
-1.66857
0
LINE
8
BLACK
6
CONTINUOUS
10
1.50587
20
-1.66857
11
1.50719
21
-1.66831
0
LINE
8
BLACK
6
CONTINUOUS
10
1.50719
20
-1.66831
11
1.51407
21
-1.66831
0
LINE
8
BLACK
6
CONTINUOUS
10
1.51407
20
-1.66831
11
1.51539
21
-1.66857
0
LINE
8
BLACK
6
CONTINUOUS
10
1.54295
20
-1.66857
11
1.54407
21
-1.66932
0
LINE
8
BLACK
6
CONTINUOUS
10
1.54407
20
-1.66932
11
1.54482
21
-1.67043
0
LINE
8
BLACK
6
CONTINUOUS
10
1.54482
20
-1.67043
11
1.54508
21
-1.67175
0
LINE
8
BLACK
6
CONTINUOUS
10
1.54508
20
-1.67175
11
1.54508
21
-1.90108
0
LINE
8
BLACK
6
CONTINUOUS
10
1.54508
20
-1.90108
11
1.54482
21
-1.9024
0
LINE
8
BLACK
6
CONTINUOUS
10
1.54482
20
-1.9024
11
1.54407
21
-1.90352
0
LINE
8
BLACK
6
CONTINUOUS
10
1.54407
20
-1.90352
11
1.54295
21
-1.90427
0
LINE
8
BLACK
6
CONTINUOUS
10
1.54295
20
-1.90427
11
1.54163
21
-1.90453
0
LINE
8
BLACK
6
CONTINUOUS
10
1.54163
20
-1.90453
11
1.53474
21
-1.90453
0
LINE
8
BLACK
6
CONTINUOUS
10
1.53474
20
-1.90453
11
1.53343
21
-1.90427
0
LINE
8
BLACK
6
CONTINUOUS
10
1.53343
20
-1.90427
11
1.53231
21
-1.90352
0
LINE
8
BLACK
6
CONTINUOUS
10
1.53231
20
-1.90352
11
1.53156
21
-1.9024
0
LINE
8
BLACK
6
CONTINUOUS
10
1.53156
20
-1.9024
11
1.5313
21
-1.90108
0
LINE
8
BLACK
6
CONTINUOUS
10
1.5313
20
-1.90108
11
1.5313
21
-1.67175
0
LINE
8
BLACK
6
CONTINUOUS
10
1.5313
20
-1.67175
11
1.53156
21
-1.67043
0
LINE
8
BLACK
6
CONTINUOUS
10
1.53156
20
-1.67043
11
1.53231
21
-1.66932
0
LINE
8
BLACK
6
CONTINUOUS
10
1.53231
20
-1.66932
11
1.53343
21
-1.66857
0
LINE
8
BLACK
6
CONTINUOUS
10
1.53343
20
-1.66857
11
1.53474
21
-1.66831
0
LINE
8
BLACK
6
CONTINUOUS
10
1.53474
20
-1.66831
11
1.54163
21
-1.66831
0
LINE
8
BLACK
6
CONTINUOUS
10
1.54163
20
-1.66831
11
1.54295
21
-1.66857
0
LINE
8
BLACK
6
CONTINUOUS
10
1.57051
20
-1.66857
11
1.57163
21
-1.66932
0
LINE
8
BLACK
6
CONTINUOUS
10
1.57163
20
-1.66932
11
1.57238
21
-1.67043
0
LINE
8
BLACK
6
CONTINUOUS
10
1.57238
20
-1.67043
11
1.57264
21
-1.67175
0
LINE
8
BLACK
6
CONTINUOUS
10
1.57264
20
-1.67175
11
1.57264
21
-1.90108
0
LINE
8
BLACK
6
CONTINUOUS
10
1.57264
20
-1.90108
11
1.57238
21
-1.9024
0
LINE
8
BLACK
6
CONTINUOUS
10
1.57238
20
-1.9024
11
1.57163
21
-1.90352
0
LINE
8
BLACK
6
CONTINUOUS
10
1.57163
20
-1.90352
11
1.57051
21
-1.90427
0
LINE
8
BLACK
6
CONTINUOUS
10
1.57051
20
-1.90427
11
1.56919
21
-1.90453
0
LINE
8
BLACK
6
CONTINUOUS
10
1.56919
20
-1.90453
11
1.5623
21
-1.90453
0
LINE
8
BLACK
6
CONTINUOUS
10
1.5623
20
-1.90453
11
1.56098
21
-1.90427
0
LINE
8
BLACK
6
CONTINUOUS
10
1.56098
20
-1.90427
11
1.55987
21
-1.90352
0
LINE
8
BLACK
6
CONTINUOUS
10
1.55987
20
-1.90352
11
1.55912
21
-1.9024
0
LINE
8
BLACK
6
CONTINUOUS
10
1.55912
20
-1.9024
11
1.55886
21
-1.90108
0
LINE
8
BLACK
6
CONTINUOUS
10
1.55886
20
-1.90108
11
1.55886
21
-1.67175
0
LINE
8
BLACK
6
CONTINUOUS
10
1.55886
20
-1.67175
11
1.55912
21
-1.67043
0
LINE
8
BLACK
6
CONTINUOUS
10
1.55912
20
-1.67043
11
1.55987
21
-1.66932
0
LINE
8
BLACK
6
CONTINUOUS
10
1.55987
20
-1.66932
11
1.56098
21
-1.66857
0
LINE
8
BLACK
6
CONTINUOUS
10
1.56098
20
-1.66857
11
1.5623
21
-1.66831
0
LINE
8
BLACK
6
CONTINUOUS
10
1.5623
20
-1.66831
11
1.56919
21
-1.66831
0
LINE
8
BLACK
6
CONTINUOUS
10
1.56919
20
-1.66831
11
1.57051
21
-1.66857
0
LINE
8
BLACK
6
CONTINUOUS
10
1.59807
20
-1.66857
11
1.59919
21
-1.66932
0
LINE
8
BLACK
6
CONTINUOUS
10
1.59919
20
-1.66932
11
1.59993
21
-1.67043
0
LINE
8
BLACK
6
CONTINUOUS
10
1.59993
20
-1.67043
11
1.6002
21
-1.67175
0
LINE
8
BLACK
6
CONTINUOUS
10
1.6002
20
-1.67175
11
1.6002
21
-1.90108
0
LINE
8
BLACK
6
CONTINUOUS
10
1.6002
20
-1.90108
11
1.59993
21
-1.9024
0
LINE
8
BLACK
6
CONTINUOUS
10
1.59993
20
-1.9024
11
1.59919
21
-1.90352
0
LINE
8
BLACK
6
CONTINUOUS
10
1.59919
20
-1.90352
11
1.59807
21
-1.90427
0
LINE
8
BLACK
6
CONTINUOUS
10
1.59807
20
-1.90427
11
1.59675
21
-1.90453
0
LINE
8
BLACK
6
CONTINUOUS
10
1.59675
20
-1.90453
11
1.58986
21
-1.90453
0
LINE
8
BLACK
6
CONTINUOUS
10
1.58986
20
-1.90453
11
1.58854
21
-1.90427
0
LINE
8
BLACK
6
CONTINUOUS
10
1.58854
20
-1.90427
11
1.58743
21
-1.90352
0
LINE
8
BLACK
6
CONTINUOUS
10
1.58743
20
-1.90352
11
1.58668
21
-1.9024
0
LINE
8
BLACK
6
CONTINUOUS
10
1.58668
20
-1.9024
11
1.58642
21
-1.90108
0
LINE
8
BLACK
6
CONTINUOUS
10
1.58642
20
-1.90108
11
1.58642
21
-1.67175
0
LINE
8
BLACK
6
CONTINUOUS
10
1.58642
20
-1.67175
11
1.58668
21
-1.67043
0
LINE
8
BLACK
6
CONTINUOUS
10
1.58668
20
-1.67043
11
1.58743
21
-1.66932
0
LINE
8
BLACK
6
CONTINUOUS
10
1.58743
20
-1.66932
11
1.58854
21
-1.66857
0
LINE
8
BLACK
6
CONTINUOUS
10
1.58854
20
-1.66857
11
1.58986
21
-1.66831
0
LINE
8
BLACK
6
CONTINUOUS
10
1.58986
20
-1.66831
11
1.59675
21
-1.66831
0
LINE
8
BLACK
6
CONTINUOUS
10
1.59675
20
-1.66831
11
1.59807
21
-1.66857
0
LINE
8
BLACK
6
CONTINUOUS
10
1.62563
20
-1.66857
11
1.62675
21
-1.66932
0
LINE
8
BLACK
6
CONTINUOUS
10
1.62675
20
-1.66932
11
1.62749
21
-1.67043
0
LINE
8
BLACK
6
CONTINUOUS
10
1.62749
20
-1.67043
11
1.62776
21
-1.67175
0
LINE
8
BLACK
6
CONTINUOUS
10
1.62776
20
-1.67175
11
1.62776
21
-1.90108
0
LINE
8
BLACK
6
CONTINUOUS
10
1.62776
20
-1.90108
11
1.62749
21
-1.9024
0
LINE
8
BLACK
6
CONTINUOUS
10
1.62749
20
-1.9024
11
1.62675
21
-1.90352
0
LINE
8
BLACK
6
CONTINUOUS
10
1.62675
20
-1.90352
11
1.62563
21
-1.90427
0
LINE
8
BLACK
6
CONTINUOUS
10
1.62563
20
-1.90427
11
1.62431
21
-1.90453
0
LINE
8
BLACK
6
CONTINUOUS
10
1.62431
20
-1.90453
11
1.61742
21
-1.90453
0
LINE
8
BLACK
6
CONTINUOUS
10
1.61742
20
-1.90453
11
1.6161
21
-1.90427
0
LINE
8
BLACK
6
CONTINUOUS
10
1.6161
20
-1.90427
11
1.61499
21
-1.90352
0
LINE
8
BLACK
6
CONTINUOUS
10
1.61499
20
-1.90352
11
1.61424
21
-1.9024
0
LINE
8
BLACK
6
CONTINUOUS
10
1.61424
20
-1.9024
11
1.61398
21
-1.90108
0
LINE
8
BLACK
6
CONTINUOUS
10
1.61398
20
-1.90108
11
1.61398
21
-1.67175
0
LINE
8
BLACK
6
CONTINUOUS
10
1.61398
20
-1.67175
11
1.61424
21
-1.67043
0
LINE
8
BLACK
6
CONTINUOUS
10
1.61424
20
-1.67043
11
1.61499
21
-1.66932
0
LINE
8
BLACK
6
CONTINUOUS
10
1.61499
20
-1.66932
11
1.6161
21
-1.66857
0
LINE
8
BLACK
6
CONTINUOUS
10
1.6161
20
-1.66857
11
1.61742
21
-1.66831
0
LINE
8
BLACK
6
CONTINUOUS
10
1.61742
20
-1.66831
11
1.62431
21
-1.66831
0
LINE
8
BLACK
6
CONTINUOUS
10
1.62431
20
-1.66831
11
1.62563
21
-1.66857
0
LINE
8
BLACK
6
CONTINUOUS
10
1.65319
20
-1.66857
11
1.65431
21
-1.66932
0
LINE
8
BLACK
6
CONTINUOUS
10
1.65431
20
-1.66932
11
1.65505
21
-1.67043
0
LINE
8
BLACK
6
CONTINUOUS
10
1.65505
20
-1.67043
11
1.65531
21
-1.67175
0
LINE
8
BLACK
6
CONTINUOUS
10
1.65531
20
-1.67175
11
1.65531
21
-1.90108
0
LINE
8
BLACK
6
CONTINUOUS
10
1.65531
20
-1.90108
11
1.65505
21
-1.9024
0
LINE
8
BLACK
6
CONTINUOUS
10
1.65505
20
-1.9024
11
1.65431
21
-1.90352
0
LINE
8
BLACK
6
CONTINUOUS
10
1.65431
20
-1.90352
11
1.65319
21
-1.90427
0
LINE
8
BLACK
6
CONTINUOUS
10
1.65319
20
-1.90427
11
1.65187
21
-1.90453
0
LINE
8
BLACK
6
CONTINUOUS
10
1.65187
20
-1.90453
11
1.64498
21
-1.90453
0
LINE
8
BLACK
6
CONTINUOUS
10
1.64498
20
-1.90453
11
1.64366
21
-1.90427
0
LINE
8
BLACK
6
CONTINUOUS
10
1.64366
20
-1.90427
11
1.64254
21
-1.90352
0
LINE
8
BLACK
6
CONTINUOUS
10
1.64254
20
-1.90352
11
1.6418
21
-1.9024
0
LINE
8
BLACK
6
CONTINUOUS
10
1.6418
20
-1.9024
11
1.64154
21
-1.90108
0
LINE
8
BLACK
6
CONTINUOUS
10
1.64154
20
-1.90108
11
1.64154
21
-1.67175
0
LINE
8
BLACK
6
CONTINUOUS
10
1.64154
20
-1.67175
11
1.6418
21
-1.67043
0
LINE
8
BLACK
6
CONTINUOUS
10
1.6418
20
-1.67043
11
1.64254
21
-1.66932
0
LINE
8
BLACK
6
CONTINUOUS
10
1.64254
20
-1.66932
11
1.64366
21
-1.66857
0
LINE
8
BLACK
6
CONTINUOUS
10
1.64366
20
-1.66857
11
1.64498
21
-1.66831
0
LINE
8
BLACK
6
CONTINUOUS
10
1.64498
20
-1.66831
11
1.65187
21
-1.66831
0
LINE
8
BLACK
6
CONTINUOUS
10
1.65187
20
-1.66831
11
1.65319
21
-1.66857
0
LINE
8
BLACK
6
CONTINUOUS
10
1.68075
20
-1.66857
11
1.68187
21
-1.66932
0
LINE
8
BLACK
6
CONTINUOUS
10
1.68187
20
-1.66932
11
1.68261
21
-1.67043
0
LINE
8
BLACK
6
CONTINUOUS
10
1.68261
20
-1.67043
11
1.68287
21
-1.67175
0
LINE
8
BLACK
6
CONTINUOUS
10
1.68287
20
-1.67175
11
1.68287
21
-1.90108
0
LINE
8
BLACK
6
CONTINUOUS
10
1.68287
20
-1.90108
11
1.68261
21
-1.9024
0
LINE
8
BLACK
6
CONTINUOUS
10
1.68261
20
-1.9024
11
1.68187
21
-1.90352
0
LINE
8
BLACK
6
CONTINUOUS
10
1.68187
20
-1.90352
11
1.68075
21
-1.90427
0
LINE
8
BLACK
6
CONTINUOUS
10
1.68075
20
-1.90427
11
1.67943
21
-1.90453
0
LINE
8
BLACK
6
CONTINUOUS
10
1.67943
20
-1.90453
11
1.67254
21
-1.90453
0
LINE
8
BLACK
6
CONTINUOUS
10
1.67254
20
-1.90453
11
1.67122
21
-1.90427
0
LINE
8
BLACK
6
CONTINUOUS
10
1.67122
20
-1.90427
11
1.6701
21
-1.90352
0
LINE
8
BLACK
6
CONTINUOUS
10
1.6701
20
-1.90352
11
1.66936
21
-1.9024
0
LINE
8
BLACK
6
CONTINUOUS
10
1.66936
20
-1.9024
11
1.66909
21
-1.90108
0
LINE
8
BLACK
6
CONTINUOUS
10
1.66909
20
-1.90108
11
1.66909
21
-1.67175
0
LINE
8
BLACK
6
CONTINUOUS
10
1.66909
20
-1.67175
11
1.66936
21
-1.67043
0
LINE
8
BLACK
6
CONTINUOUS
10
1.66936
20
-1.67043
11
1.6701
21
-1.66932
0
LINE
8
BLACK
6
CONTINUOUS
10
1.6701
20
-1.66932
11
1.67122
21
-1.66857
0
LINE
8
BLACK
6
CONTINUOUS
10
1.67122
20
-1.66857
11
1.67254
21
-1.66831
0
LINE
8
BLACK
6
CONTINUOUS
10
1.67254
20
-1.66831
11
1.67943
21
-1.66831
0
LINE
8
BLACK
6
CONTINUOUS
10
1.67943
20
-1.66831
11
1.68075
21
-1.66857
0
LINE
8
BLACK
6
CONTINUOUS
10
1.70831
20
-1.66857
11
1.70942
21
-1.66932
0
LINE
8
BLACK
6
CONTINUOUS
10
1.70942
20
-1.66932
11
1.71017
21
-1.67043
0
LINE
8
BLACK
6
CONTINUOUS
10
1.71017
20
-1.67043
11
1.71043
21
-1.67175
0
LINE
8
BLACK
6
CONTINUOUS
10
1.71043
20
-1.67175
11
1.71043
21
-1.90108
0
LINE
8
BLACK
6
CONTINUOUS
10
1.71043
20
-1.90108
11
1.71017
21
-1.9024
0
LINE
8
BLACK
6
CONTINUOUS
10
1.71017
20
-1.9024
11
1.70942
21
-1.90352
0
LINE
8
BLACK
6
CONTINUOUS
10
1.70942
20
-1.90352
11
1.70831
21
-1.90427
0
LINE
8
BLACK
6
CONTINUOUS
10
1.70831
20
-1.90427
11
1.70699
21
-1.90453
0
LINE
8
BLACK
6
CONTINUOUS
10
1.70699
20
-1.90453
11
1.7001
21
-1.90453
0
LINE
8
BLACK
6
CONTINUOUS
10
1.7001
20
-1.90453
11
1.69878
21
-1.90427
0
LINE
8
BLACK
6
CONTINUOUS
10
1.69878
20
-1.90427
11
1.69766
21
-1.90352
0
LINE
8
BLACK
6
CONTINUOUS
10
1.69766
20
-1.90352
11
1.69692
21
-1.9024
0
LINE
8
BLACK
6
CONTINUOUS
10
1.69692
20
-1.9024
11
1.69665
21
-1.90108
0
LINE
8
BLACK
6
CONTINUOUS
10
1.69665
20
-1.90108
11
1.69665
21
-1.67175
0
LINE
8
BLACK
6
CONTINUOUS
10
1.69665
20
-1.67175
11
1.69692
21
-1.67043
0
LINE
8
BLACK
6
CONTINUOUS
10
1.69692
20
-1.67043
11
1.69766
21
-1.66932
0
LINE
8
BLACK
6
CONTINUOUS
10
1.69766
20
-1.66932
11
1.69878
21
-1.66857
0
LINE
8
BLACK
6
CONTINUOUS
10
1.69878
20
-1.66857
11
1.7001
21
-1.66831
0
LINE
8
BLACK
6
CONTINUOUS
10
1.7001
20
-1.66831
11
1.70699
21
-1.66831
0
LINE
8
BLACK
6
CONTINUOUS
10
1.70699
20
-1.66831
11
1.70831
21
-1.66857
0
LINE
8
BLACK
6
CONTINUOUS
10
1.73587
20
-1.66857
11
1.73698
21
-1.66932
0
LINE
8
BLACK
6
CONTINUOUS
10
1.73698
20
-1.66932
11
1.73773
21
-1.67043
0
LINE
8
BLACK
6
CONTINUOUS
10
1.73773
20
-1.67043
11
1.73799
21
-1.67175
0
LINE
8
BLACK
6
CONTINUOUS
10
1.73799
20
-1.67175
11
1.73799
21
-1.90108
0
LINE
8
BLACK
6
CONTINUOUS
10
1.73799
20
-1.90108
11
1.73773
21
-1.9024
0
LINE
8
BLACK
6
CONTINUOUS
10
1.73773
20
-1.9024
11
1.73698
21
-1.90352
0
LINE
8
BLACK
6
CONTINUOUS
10
1.73698
20
-1.90352
11
1.73587
21
-1.90427
0
LINE
8
BLACK
6
CONTINUOUS
10
1.73587
20
-1.90427
11
1.73455
21
-1.90453
0
LINE
8
BLACK
6
CONTINUOUS
10
1.73455
20
-1.90453
11
1.72766
21
-1.90453
0
LINE
8
BLACK
6
CONTINUOUS
10
1.72766
20
-1.90453
11
1.72634
21
-1.90427
0
LINE
8
BLACK
6
CONTINUOUS
10
1.72634
20
-1.90427
11
1.72522
21
-1.90352
0
LINE
8
BLACK
6
CONTINUOUS
10
1.72522
20
-1.90352
11
1.72447
21
-1.9024
0
LINE
8
BLACK
6
CONTINUOUS
10
1.72447
20
-1.9024
11
1.72421
21
-1.90108
0
LINE
8
BLACK
6
CONTINUOUS
10
1.72421
20
-1.90108
11
1.72421
21
-1.67175
0
LINE
8
BLACK
6
CONTINUOUS
10
1.72421
20
-1.67175
11
1.72447
21
-1.67043
0
LINE
8
BLACK
6
CONTINUOUS
10
1.72447
20
-1.67043
11
1.72522
21
-1.66932
0
LINE
8
BLACK
6
CONTINUOUS
10
1.72522
20
-1.66932
11
1.72634
21
-1.66857
0
LINE
8
BLACK
6
CONTINUOUS
10
1.72634
20
-1.66857
11
1.72766
21
-1.66831
0
LINE
8
BLACK
6
CONTINUOUS
10
1.72766
20
-1.66831
11
1.73455
21
-1.66831
0
LINE
8
BLACK
6
CONTINUOUS
10
1.73455
20
-1.66831
11
1.73587
21
-1.66857
0
LINE
8
BLACK
6
CONTINUOUS
10
1.76342
20
-1.66857
11
1.76454
21
-1.66932
0
LINE
8
BLACK
6
CONTINUOUS
10
1.76454
20
-1.66932
11
1.76529
21
-1.67043
0
LINE
8
BLACK
6
CONTINUOUS
10
1.76529
20
-1.67043
11
1.76555
21
-1.67175
0
LINE
8
BLACK
6
CONTINUOUS
10
1.76555
20
-1.67175
11
1.76555
21
-1.90108
0
LINE
8
BLACK
6
CONTINUOUS
10
1.76555
20
-1.90108
11
1.76529
21
-1.9024
0
LINE
8
BLACK
6
CONTINUOUS
10
1.76529
20
-1.9024
11
1.76454
21
-1.90352
0
LINE
8
BLACK
6
CONTINUOUS
10
1.76454
20
-1.90352
11
1.76342
21
-1.90427
0
LINE
8
BLACK
6
CONTINUOUS
10
1.76342
20
-1.90427
11
1.76211
21
-1.90453
0
LINE
8
BLACK
6
CONTINUOUS
10
1.76211
20
-1.90453
11
1.75522
21
-1.90453
0
LINE
8
BLACK
6
CONTINUOUS
10
1.75522
20
-1.90453
11
1.7539
21
-1.90427
0
LINE
8
BLACK
6
CONTINUOUS
10
1.7539
20
-1.90427
11
1.75278
21
-1.90352
0
LINE
8
BLACK
6
CONTINUOUS
10
1.75278
20
-1.90352
11
1.75203
21
-1.9024
0
LINE
8
BLACK
6
CONTINUOUS
10
1.75203
20
-1.9024
11
1.75177
21
-1.90108
0
LINE
8
BLACK
6
CONTINUOUS
10
1.75177
20
-1.90108
11
1.75177
21
-1.67175
0
LINE
8
BLACK
6
CONTINUOUS
10
1.75177
20
-1.67175
11
1.75203
21
-1.67043
0
LINE
8
BLACK
6
CONTINUOUS
10
1.75203
20
-1.67043
11
1.75278
21
-1.66932
0
LINE
8
BLACK
6
CONTINUOUS
10
1.75278
20
-1.66932
11
1.7539
21
-1.66857
0
LINE
8
BLACK
6
CONTINUOUS
10
1.7539
20
-1.66857
11
1.75522
21
-1.66831
0
LINE
8
BLACK
6
CONTINUOUS
10
1.75522
20
-1.66831
11
1.76211
21
-1.66831
0
LINE
8
BLACK
6
CONTINUOUS
10
1.76211
20
-1.66831
11
1.76342
21
-1.66857
0
LINE
8
BLACK
6
CONTINUOUS
10
1.79098
20
-1.66857
11
1.7921
21
-1.66932
0
LINE
8
BLACK
6
CONTINUOUS
10
1.7921
20
-1.66932
11
1.79285
21
-1.67043
0
LINE
8
BLACK
6
CONTINUOUS
10
1.79285
20
-1.67043
11
1.79311
21
-1.67175
0
LINE
8
BLACK
6
CONTINUOUS
10
1.79311
20
-1.67175
11
1.79311
21
-1.90108
0
LINE
8
BLACK
6
CONTINUOUS
10
1.79311
20
-1.90108
11
1.79285
21
-1.9024
0
LINE
8
BLACK
6
CONTINUOUS
10
1.79285
20
-1.9024
11
1.7921
21
-1.90352
0
LINE
8
BLACK
6
CONTINUOUS
10
1.7921
20
-1.90352
11
1.79098
21
-1.90427
0
LINE
8
BLACK
6
CONTINUOUS
10
1.79098
20
-1.90427
11
1.78967
21
-1.90453
0
LINE
8
BLACK
6
CONTINUOUS
10
1.78967
20
-1.90453
11
1.78278
21
-1.90453
0
LINE
8
BLACK
6
CONTINUOUS
10
1.78278
20
-1.90453
11
1.78146
21
-1.90427
0
LINE
8
BLACK
6
CONTINUOUS
10
1.78146
20
-1.90427
11
1.78034
21
-1.90352
0
LINE
8
BLACK
6
CONTINUOUS
10
1.78034
20
-1.90352
11
1.77959
21
-1.9024
0
LINE
8
BLACK
6
CONTINUOUS
10
1.77959
20
-1.9024
11
1.77933
21
-1.90108
0
LINE
8
BLACK
6
CONTINUOUS
10
1.77933
20
-1.90108
11
1.77933
21
-1.67175
0
LINE
8
BLACK
6
CONTINUOUS
10
1.77933
20
-1.67175
11
1.77959
21
-1.67043
0
LINE
8
BLACK
6
CONTINUOUS
10
1.77959
20
-1.67043
11
1.78034
21
-1.66932
0
LINE
8
BLACK
6
CONTINUOUS
10
1.78034
20
-1.66932
11
1.78146
21
-1.66857
0
LINE
8
BLACK
6
CONTINUOUS
10
1.78146
20
-1.66857
11
1.78278
21
-1.66831
0
LINE
8
BLACK
6
CONTINUOUS
10
1.78278
20
-1.66831
11
1.78967
21
-1.66831
0
LINE
8
BLACK
6
CONTINUOUS
10
1.78967
20
-1.66831
11
1.79098
21
-1.66857
0
LINE
8
BLACK
6
CONTINUOUS
10
1.81854
20
-1.66857
11
1.81966
21
-1.66932
0
LINE
8
BLACK
6
CONTINUOUS
10
1.81966
20
-1.66932
11
1.82041
21
-1.67043
0
LINE
8
BLACK
6
CONTINUOUS
10
1.82041
20
-1.67043
11
1.82067
21
-1.67175
0
LINE
8
BLACK
6
CONTINUOUS
10
1.82067
20
-1.67175
11
1.82067
21
-1.90108
0
LINE
8
BLACK
6
CONTINUOUS
10
1.82067
20
-1.90108
11
1.82041
21
-1.9024
0
LINE
8
BLACK
6
CONTINUOUS
10
1.82041
20
-1.9024
11
1.81966
21
-1.90352
0
LINE
8
BLACK
6
CONTINUOUS
10
1.81966
20
-1.90352
11
1.81854
21
-1.90427
0
LINE
8
BLACK
6
CONTINUOUS
10
1.81854
20
-1.90427
11
1.81722
21
-1.90453
0
LINE
8
BLACK
6
CONTINUOUS
10
1.81722
20
-1.90453
11
1.81033
21
-1.90453
0
LINE
8
BLACK
6
CONTINUOUS
10
1.81033
20
-1.90453
11
1.80902
21
-1.90427
0
LINE
8
BLACK
6
CONTINUOUS
10
1.80902
20
-1.90427
11
1.8079
21
-1.90352
0
LINE
8
BLACK
6
CONTINUOUS
10
1.8079
20
-1.90352
11
1.80715
21
-1.9024
0
LINE
8
BLACK
6
CONTINUOUS
10
1.80715
20
-1.9024
11
1.80689
21
-1.90108
0
LINE
8
BLACK
6
CONTINUOUS
10
1.80689
20
-1.90108
11
1.80689
21
-1.67175
0
LINE
8
BLACK
6
CONTINUOUS
10
1.80689
20
-1.67175
11
1.80715
21
-1.67043
0
LINE
8
BLACK
6
CONTINUOUS
10
1.80715
20
-1.67043
11
1.8079
21
-1.66932
0
LINE
8
BLACK
6
CONTINUOUS
10
1.8079
20
-1.66932
11
1.80902
21
-1.66857
0
LINE
8
BLACK
6
CONTINUOUS
10
1.80902
20
-1.66857
11
1.81033
21
-1.66831
0
LINE
8
BLACK
6
CONTINUOUS
10
1.81033
20
-1.66831
11
1.81722
21
-1.66831
0
LINE
8
BLACK
6
CONTINUOUS
10
1.81722
20
-1.66831
11
1.81854
21
-1.66857
0
LINE
8
BLACK
6
CONTINUOUS
10
0.440748
20
-1.58215
11
0.399409
21
-1.58215
0
LINE
8
BLACK
6
CONTINUOUS
10
0.399409
20
-1.58215
11
0.399409
21
-1.55656
0
LINE
8
BLACK
6
CONTINUOUS
10
0.399409
20
-1.55656
11
0.440748
21
-1.55656
0
LINE
8
BLACK
6
CONTINUOUS
10
0.440748
20
-1.55656
11
0.440748
21
-1.58215
0
LINE
8
BLACK
6
CONTINUOUS
10
0.60315
20
-1.58215
11
0.561811
21
-1.58215
0
LINE
8
BLACK
6
CONTINUOUS
10
0.561811
20
-1.58215
11
0.561811
21
-1.55656
0
LINE
8
BLACK
6
CONTINUOUS
10
0.561811
20
-1.55656
11
0.60315
21
-1.55656
0
LINE
8
BLACK
6
CONTINUOUS
10
0.60315
20
-1.55656
11
0.60315
21
-1.58215
0
LINE
8
BLACK
6
CONTINUOUS
10
0.439764
20
-1.49751
11
0.398425
21
-1.49751
0
LINE
8
BLACK
6
CONTINUOUS
10
0.398425
20
-1.49751
11
0.398425
21
-1.47192
0
LINE
8
BLACK
6
CONTINUOUS
10
0.398425
20
-1.47192
11
0.439764
21
-1.47192
0
LINE
8
BLACK
6
CONTINUOUS
10
0.439764
20
-1.47192
11
0.439764
21
-1.49751
0
LINE
8
BLACK
6
CONTINUOUS
10
0.60315
20
-1.49751
11
0.561811
21
-1.49751
0
LINE
8
BLACK
6
CONTINUOUS
10
0.561811
20
-1.49751
11
0.561811
21
-1.47192
0
LINE
8
BLACK
6
CONTINUOUS
10
0.561811
20
-1.47192
11
0.60315
21
-1.47192
0
LINE
8
BLACK
6
CONTINUOUS
10
0.60315
20
-1.47192
11
0.60315
21
-1.49751
0
LINE
8
BLACK
6
CONTINUOUS
10
0.440748
20
-1.32012
11
0.399409
21
-1.32012
0
LINE
8
BLACK
6
CONTINUOUS
10
0.399409
20
-1.32012
11
0.399409
21
-1.29453
0
LINE
8
BLACK
6
CONTINUOUS
10
0.399409
20
-1.29453
11
0.440748
21
-1.29453
0
LINE
8
BLACK
6
CONTINUOUS
10
0.440748
20
-1.29453
11
0.440748
21
-1.32012
0
LINE
8
BLACK
6
CONTINUOUS
10
0.60315
20
-1.32012
11
0.561811
21
-1.32012
0
LINE
8
BLACK
6
CONTINUOUS
10
0.561811
20
-1.32012
11
0.561811
21
-1.29453
0
LINE
8
BLACK
6
CONTINUOUS
10
0.561811
20
-1.29453
11
0.60315
21
-1.29453
0
LINE
8
BLACK
6
CONTINUOUS
10
0.60315
20
-1.29453
11
0.60315
21
-1.32012
0
LINE
8
BLACK
6
CONTINUOUS
10
0.439764
20
-1.23548
11
0.398425
21
-1.23548
0
LINE
8
BLACK
6
CONTINUOUS
10
0.398425
20
-1.23548
11
0.398425
21
-1.20989
0
LINE
8
BLACK
6
CONTINUOUS
10
0.398425
20
-1.20989
11
0.439764
21
-1.20989
0
LINE
8
BLACK
6
CONTINUOUS
10
0.439764
20
-1.20989
11
0.439764
21
-1.23548
0
LINE
8
BLACK
6
CONTINUOUS
10
0.60315
20
-1.23548
11
0.561811
21
-1.23548
0
LINE
8
BLACK
6
CONTINUOUS
10
0.561811
20
-1.23548
11
0.561811
21
-1.20989
0
LINE
8
BLACK
6
CONTINUOUS
10
0.561811
20
-1.20989
11
0.60315
21
-1.20989
0
LINE
8
BLACK
6
CONTINUOUS
10
0.60315
20
-1.20989
11
0.60315
21
-1.23548
0
LINE
8
BLACK
6
CONTINUOUS
10
0.439764
20
-1.05809
11
0.398425
21
-1.05809
0
LINE
8
BLACK
6
CONTINUOUS
10
0.398425
20
-1.05809
11
0.398425
21
-1.0325
0
LINE
8
BLACK
6
CONTINUOUS
10
0.398425
20
-1.0325
11
0.439764
21
-1.0325
0
LINE
8
BLACK
6
CONTINUOUS
10
0.439764
20
-1.0325
11
0.439764
21
-1.05809
0
LINE
8
BLACK
6
CONTINUOUS
10
0.60315
20
-1.05809
11
0.561811
21
-1.05809
0
LINE
8
BLACK
6
CONTINUOUS
10
0.561811
20
-1.05809
11
0.561811
21
-1.0325
0
LINE
8
BLACK
6
CONTINUOUS
10
0.561811
20
-1.0325
11
0.60315
21
-1.0325
0
LINE
8
BLACK
6
CONTINUOUS
10
0.60315
20
-1.0325
11
0.60315
21
-1.05809
0
LINE
8
BLACK
6
CONTINUOUS
10
0.439764
20
-0.973447
11
0.398425
21
-0.973447
0
LINE
8
BLACK
6
CONTINUOUS
10
0.398425
20
-0.973447
11
0.398425
21
-0.947857
0
LINE
8
BLACK
6
CONTINUOUS
10
0.398425
20
-0.947857
11
0.439764
21
-0.947857
0
LINE
8
BLACK
6
CONTINUOUS
10
0.439764
20
-0.947857
11
0.439764
21
-0.973447
0
LINE
8
BLACK
6
CONTINUOUS
10
0.602165
20
-0.973447
11
0.560827
21
-0.973447
0
LINE
8
BLACK
6
CONTINUOUS
10
0.560827
20
-0.973447
11
0.560827
21
-0.947857
0
LINE
8
BLACK
6
CONTINUOUS
10
0.560827
20
-0.947857
11
0.602165
21
-0.947857
0
LINE
8
BLACK
6
CONTINUOUS
10
0.602165
20
-0.947857
11
0.602165
21
-0.973447
0
LINE
8
BLACK
6
CONTINUOUS
10
0.439764
20
-0.796063
11
0.398425
21
-0.796063
0
LINE
8
BLACK
6
CONTINUOUS
10
0.398425
20
-0.796063
11
0.398425
21
-0.770472
0
LINE
8
BLACK
6
CONTINUOUS
10
0.398425
20
-0.770472
11
0.439764
21
-0.770472
0
LINE
8
BLACK
6
CONTINUOUS
10
0.439764
20
-0.770472
11
0.439764
21
-0.796063
0
LINE
8
BLACK
6
CONTINUOUS
10
0.60315
20
-0.796063
11
0.561811
21
-0.796063
0
LINE
8
BLACK
6
CONTINUOUS
10
0.561811
20
-0.796063
11
0.561811
21
-0.770472
0
LINE
8
BLACK
6
CONTINUOUS
10
0.561811
20
-0.770472
11
0.60315
21
-0.770472
0
LINE
8
BLACK
6
CONTINUOUS
10
0.60315
20
-0.770472
11
0.60315
21
-0.796063
0
LINE
8
BLACK
6
CONTINUOUS
10
0.439764
20
-0.711417
11
0.398425
21
-0.711417
0
LINE
8
BLACK
6
CONTINUOUS
10
0.398425
20
-0.711417
11
0.398425
21
-0.685827
0
LINE
8
BLACK
6
CONTINUOUS
10
0.398425
20
-0.685827
11
0.439764
21
-0.685827
0
LINE
8
BLACK
6
CONTINUOUS
10
0.439764
20
-0.685827
11
0.439764
21
-0.711417
0
LINE
8
BLACK
6
CONTINUOUS
10
0.602165
20
-0.711417
11
0.560827
21
-0.711417
0
LINE
8
BLACK
6
CONTINUOUS
10
0.560827
20
-0.711417
11
0.560827
21
-0.685827
0
LINE
8
BLACK
6
CONTINUOUS
10
0.560827
20
-0.685827
11
0.602165
21
-0.685827
0
LINE
8
BLACK
6
CONTINUOUS
10
0.602165
20
-0.685827
11
0.602165
21
-0.711417
  0
ENDSEC
  0
EOF
