  0
SECTION
  2
HEADER
  9
$ANGBASE
  50
0.0
  9
$ANGDIR
  70
1
  9
$MEASUREMENT
  70
0
  0
ENDSEC
  0
SECTION
  2
TABLES
  0
TABLE
  2
LTYPE
  70
4
  0
LTYPE
  5
40F
  2
CONTINUOUS
  70
0
  3
Solid line
  72
65
  73
0
  40
0.0
  0
LTYPE
  5
410
  2
DASHDOT
 70
0
  3
Dash Dot ____ _ ____ _
 72
65
 73
4
 40
2.0
 49
1.25
 49
-0.25
 49
0.25
 49
-0.25
  0
LTYPE
  5
411
  2
DASHED
 70
0
  3
Dashed __ __ __ __ __
 72
65
 73
2
 40
0.75
 49
0.5
 49
-0.25
  0
LTYPE
  5
43B
  2
DOTTED
 70
0
  3
Dotted .  .  .  .
 72
65
 73
2
 40
0.2
 49
0.0
 49
-0.2
  0
ENDTAB
  0
TABLE
  2
STYLE
  70
4
  0
STYLE
  2
KICAD
  70
0
  40
0
  41
1
  42
1
  50
0
  71
0
  3
isocp.shx
  0
STYLE
  2
KICADB
  70
0
  40
0
  41
1
  42
1
  50
0
  71
0
  3
isocp.shx
  0
STYLE
  2
KICADI
  70
0
  40
0
  41
1
  42
1
  50
15
  71
0
  3
isocp.shx
  0
STYLE
  2
KICADBI
  70
0
  40
0
  41
1
  42
1
  50
15
  71
0
  3
isocp.shx
  0
ENDTAB
  0
TABLE
  2
LAYER
  70
1
  0
LAYER
  2
BLACK
  70
0
  62
7
  6
CONTINUOUS
  0
ENDTAB
  0
ENDSEC
  0
SECTION
  2
ENTITIES
0
LINE
8
BLACK
6
CONTINUOUS
10
1.47343
20
-1.86673
11
1.47412
21
-1.86702
0
LINE
8
BLACK
6
CONTINUOUS
10
1.47412
20
-1.86702
11
1.47441
21
-1.86772
0
LINE
8
BLACK
6
CONTINUOUS
10
1.47441
20
-1.86772
11
1.47441
21
-1.94252
0
LINE
8
BLACK
6
CONTINUOUS
10
1.47441
20
-1.94252
11
1.47412
21
-1.94322
0
LINE
8
BLACK
6
CONTINUOUS
10
1.47412
20
-1.94322
11
1.47343
21
-1.9435
0
LINE
8
BLACK
6
CONTINUOUS
10
1.47343
20
-1.9435
11
1.34114
21
-1.9435
0
LINE
8
BLACK
6
CONTINUOUS
10
1.34114
20
-1.9435
11
1.34045
21
-1.94322
0
LINE
8
BLACK
6
CONTINUOUS
10
1.34045
20
-1.94322
11
1.34016
21
-1.94252
0
LINE
8
BLACK
6
CONTINUOUS
10
1.34016
20
-1.94252
11
1.34016
21
-1.86772
0
LINE
8
BLACK
6
CONTINUOUS
10
1.34016
20
-1.86772
11
1.34045
21
-1.86702
0
LINE
8
BLACK
6
CONTINUOUS
10
1.34045
20
-1.86702
11
1.34114
21
-1.86673
0
LINE
8
BLACK
6
CONTINUOUS
10
1.34114
20
-1.86673
11
1.47343
21
-1.86673
0
LINE
8
BLACK
6
CONTINUOUS
10
1.34213
20
-1.8687
11
1.34213
21
-1.94154
0
LINE
8
BLACK
6
CONTINUOUS
10
1.34213
20
-1.94154
11
1.47244
21
-1.94154
0
LINE
8
BLACK
6
CONTINUOUS
10
1.47244
20
-1.94154
11
1.47244
21
-1.8687
0
LINE
8
BLACK
6
CONTINUOUS
10
1.47244
20
-1.8687
11
1.34213
21
-1.8687
0
LINE
8
BLACK
6
CONTINUOUS
10
0.214301
20
-1.66394
11
0.228445
21
-1.66618
0
LINE
8
BLACK
6
CONTINUOUS
10
0.228445
20
-1.66618
11
0.242277
21
-1.66989
0
LINE
8
BLACK
6
CONTINUOUS
10
0.242277
20
-1.66989
11
0.255646
21
-1.67502
0
LINE
8
BLACK
6
CONTINUOUS
10
0.255646
20
-1.67502
11
0.268406
21
-1.68152
0
LINE
8
BLACK
6
CONTINUOUS
10
0.268406
20
-1.68152
11
0.280416
21
-1.68932
0
LINE
8
BLACK
6
CONTINUOUS
10
0.280416
20
-1.68932
11
0.291544
21
-1.69833
0
LINE
8
BLACK
6
CONTINUOUS
10
0.291544
20
-1.69833
11
0.30167
21
-1.70846
0
LINE
8
BLACK
6
CONTINUOUS
10
0.30167
20
-1.70846
11
0.310682
21
-1.71958
0
LINE
8
BLACK
6
CONTINUOUS
10
0.310682
20
-1.71958
11
0.318482
21
-1.73159
0
LINE
8
BLACK
6
CONTINUOUS
10
0.318482
20
-1.73159
11
0.324983
21
-1.74435
0
LINE
8
BLACK
6
CONTINUOUS
10
0.324983
20
-1.74435
11
0.330115
21
-1.75772
0
LINE
8
BLACK
6
CONTINUOUS
10
0.330115
20
-1.75772
11
0.333821
21
-1.77156
0
LINE
8
BLACK
6
CONTINUOUS
10
0.333821
20
-1.77156
11
0.336062
21
-1.7857
0
LINE
8
BLACK
6
CONTINUOUS
10
0.336062
20
-1.7857
11
0.336811
21
-1.8
0
LINE
8
BLACK
6
CONTINUOUS
10
0.336811
20
-1.8
11
0.336062
21
-1.8143
0
LINE
8
BLACK
6
CONTINUOUS
10
0.336062
20
-1.8143
11
0.333821
21
-1.82844
0
LINE
8
BLACK
6
CONTINUOUS
10
0.333821
20
-1.82844
11
0.330115
21
-1.84228
0
LINE
8
BLACK
6
CONTINUOUS
10
0.330115
20
-1.84228
11
0.324983
21
-1.85565
0
LINE
8
BLACK
6
CONTINUOUS
10
0.324983
20
-1.85565
11
0.318482
21
-1.86841
0
LINE
8
BLACK
6
CONTINUOUS
10
0.318482
20
-1.86841
11
0.310682
21
-1.88042
0
LINE
8
BLACK
6
CONTINUOUS
10
0.310682
20
-1.88042
11
0.30167
21
-1.89154
0
LINE
8
BLACK
6
CONTINUOUS
10
0.30167
20
-1.89154
11
0.291544
21
-1.90167
0
LINE
8
BLACK
6
CONTINUOUS
10
0.291544
20
-1.90167
11
0.280416
21
-1.91068
0
LINE
8
BLACK
6
CONTINUOUS
10
0.280416
20
-1.91068
11
0.268406
21
-1.91848
0
LINE
8
BLACK
6
CONTINUOUS
10
0.268406
20
-1.91848
11
0.255646
21
-1.92498
0
LINE
8
BLACK
6
CONTINUOUS
10
0.255646
20
-1.92498
11
0.242277
21
-1.93012
0
LINE
8
BLACK
6
CONTINUOUS
10
0.242277
20
-1.93012
11
0.228445
21
-1.93382
0
LINE
8
BLACK
6
CONTINUOUS
10
0.228445
20
-1.93382
11
0.214301
21
-1.93606
0
LINE
8
BLACK
6
CONTINUOUS
10
0.214301
20
-1.93606
11
0.2
21
-1.93681
0
LINE
8
BLACK
6
CONTINUOUS
10
0.2
20
-1.93681
11
0.185699
21
-1.93606
0
LINE
8
BLACK
6
CONTINUOUS
10
0.185699
20
-1.93606
11
0.171555
21
-1.93382
0
LINE
8
BLACK
6
CONTINUOUS
10
0.171555
20
-1.93382
11
0.157723
21
-1.93012
0
LINE
8
BLACK
6
CONTINUOUS
10
0.157723
20
-1.93012
11
0.144354
21
-1.92498
0
LINE
8
BLACK
6
CONTINUOUS
10
0.144354
20
-1.92498
11
0.131594
21
-1.91848
0
LINE
8
BLACK
6
CONTINUOUS
10
0.131594
20
-1.91848
11
0.119584
21
-1.91068
0
LINE
8
BLACK
6
CONTINUOUS
10
0.119584
20
-1.91068
11
0.108456
21
-1.90167
0
LINE
8
BLACK
6
CONTINUOUS
10
0.108456
20
-1.90167
11
0.0983296
21
-1.89154
0
LINE
8
BLACK
6
CONTINUOUS
10
0.0983296
20
-1.89154
11
0.0893176
21
-1.88042
0
LINE
8
BLACK
6
CONTINUOUS
10
0.0893176
20
-1.88042
11
0.0815182
21
-1.86841
0
LINE
8
BLACK
6
CONTINUOUS
10
0.0815182
20
-1.86841
11
0.0750169
21
-1.85565
0
LINE
8
BLACK
6
CONTINUOUS
10
0.0750169
20
-1.85565
11
0.069885
21
-1.84228
0
LINE
8
BLACK
6
CONTINUOUS
10
0.069885
20
-1.84228
11
0.0661786
21
-1.82844
0
LINE
8
BLACK
6
CONTINUOUS
10
0.0661786
20
-1.82844
11
0.0639384
21
-1.8143
0
LINE
8
BLACK
6
CONTINUOUS
10
0.0639384
20
-1.8143
11
0.063189
21
-1.8
0
LINE
8
BLACK
6
CONTINUOUS
10
0.063189
20
-1.8
11
0.0639384
21
-1.7857
0
LINE
8
BLACK
6
CONTINUOUS
10
0.0639384
20
-1.7857
11
0.0661786
21
-1.77156
0
LINE
8
BLACK
6
CONTINUOUS
10
0.0661786
20
-1.77156
11
0.069885
21
-1.75772
0
LINE
8
BLACK
6
CONTINUOUS
10
0.069885
20
-1.75772
11
0.0750169
21
-1.74435
0
LINE
8
BLACK
6
CONTINUOUS
10
0.0750169
20
-1.74435
11
0.0815182
21
-1.73159
0
LINE
8
BLACK
6
CONTINUOUS
10
0.0815182
20
-1.73159
11
0.0893176
21
-1.71958
0
LINE
8
BLACK
6
CONTINUOUS
10
0.0893176
20
-1.71958
11
0.0983296
21
-1.70846
0
LINE
8
BLACK
6
CONTINUOUS
10
0.0983296
20
-1.70846
11
0.108456
21
-1.69833
0
LINE
8
BLACK
6
CONTINUOUS
10
0.108456
20
-1.69833
11
0.119584
21
-1.68932
0
LINE
8
BLACK
6
CONTINUOUS
10
0.119584
20
-1.68932
11
0.131594
21
-1.68152
0
LINE
8
BLACK
6
CONTINUOUS
10
0.131594
20
-1.68152
11
0.144354
21
-1.67502
0
LINE
8
BLACK
6
CONTINUOUS
10
0.144354
20
-1.67502
11
0.157723
21
-1.66989
0
LINE
8
BLACK
6
CONTINUOUS
10
0.157723
20
-1.66989
11
0.171555
21
-1.66618
0
LINE
8
BLACK
6
CONTINUOUS
10
0.171555
20
-1.66618
11
0.185699
21
-1.66394
0
LINE
8
BLACK
6
CONTINUOUS
10
0.185699
20
-1.66394
11
0.2
21
-1.66319
0
LINE
8
BLACK
6
CONTINUOUS
10
0.2
20
-1.66319
11
0.214301
21
-1.66394
0
LINE
8
BLACK
6
CONTINUOUS
10
0.0657511
20
-1.8146
11
0.0681166
21
-1.82903
0
LINE
8
BLACK
6
CONTINUOUS
10
0.0681166
20
-1.82903
11
0.0720284
21
-1.84312
0
LINE
8
BLACK
6
CONTINUOUS
10
0.0720284
20
-1.84312
11
0.0774405
21
-1.8567
0
LINE
8
BLACK
6
CONTINUOUS
10
0.0774405
20
-1.8567
11
0.0842895
21
-1.86962
0
LINE
8
BLACK
6
CONTINUOUS
10
0.0842895
20
-1.86962
11
0.0924952
21
-1.88172
0
LINE
8
BLACK
6
CONTINUOUS
10
0.0924952
20
-1.88172
11
0.101961
21
-1.89287
0
LINE
8
BLACK
6
CONTINUOUS
10
0.101961
20
-1.89287
11
0.112577
21
-1.90292
0
LINE
8
BLACK
6
CONTINUOUS
10
0.112577
20
-1.90292
11
0.124217
21
-1.91177
0
LINE
8
BLACK
6
CONTINUOUS
10
0.124217
20
-1.91177
11
0.136746
21
-1.91931
0
LINE
8
BLACK
6
CONTINUOUS
10
0.136746
20
-1.91931
11
0.150016
21
-1.92545
0
LINE
8
BLACK
6
CONTINUOUS
10
0.150016
20
-1.92545
11
0.163873
21
-1.93012
0
LINE
8
BLACK
6
CONTINUOUS
10
0.163873
20
-1.93012
11
0.178153
21
-1.93326
0
LINE
8
BLACK
6
CONTINUOUS
10
0.178153
20
-1.93326
11
0.192689
21
-1.93484
0
LINE
8
BLACK
6
CONTINUOUS
10
0.192689
20
-1.93484
11
0.207311
21
-1.93484
0
LINE
8
BLACK
6
CONTINUOUS
10
0.207311
20
-1.93484
11
0.221847
21
-1.93326
0
LINE
8
BLACK
6
CONTINUOUS
10
0.221847
20
-1.93326
11
0.236127
21
-1.93012
0
LINE
8
BLACK
6
CONTINUOUS
10
0.236127
20
-1.93012
11
0.249984
21
-1.92545
0
LINE
8
BLACK
6
CONTINUOUS
10
0.249984
20
-1.92545
11
0.263254
21
-1.91931
0
LINE
8
BLACK
6
CONTINUOUS
10
0.263254
20
-1.91931
11
0.275783
21
-1.91177
0
LINE
8
BLACK
6
CONTINUOUS
10
0.275783
20
-1.91177
11
0.287423
21
-1.90292
0
LINE
8
BLACK
6
CONTINUOUS
10
0.287423
20
-1.90292
11
0.298039
21
-1.89287
0
LINE
8
BLACK
6
CONTINUOUS
10
0.298039
20
-1.89287
11
0.307505
21
-1.88172
0
LINE
8
BLACK
6
CONTINUOUS
10
0.307505
20
-1.88172
11
0.31571
21
-1.86962
0
LINE
8
BLACK
6
CONTINUOUS
10
0.31571
20
-1.86962
11
0.322559
21
-1.8567
0
LINE
8
BLACK
6
CONTINUOUS
10
0.322559
20
-1.8567
11
0.327972
21
-1.84312
0
LINE
8
BLACK
6
CONTINUOUS
10
0.327972
20
-1.84312
11
0.331883
21
-1.82903
0
LINE
8
BLACK
6
CONTINUOUS
10
0.331883
20
-1.82903
11
0.334249
21
-1.8146
0
LINE
8
BLACK
6
CONTINUOUS
10
0.334249
20
-1.8146
11
0.335041
21
-1.8
0
LINE
8
BLACK
6
CONTINUOUS
10
0.335041
20
-1.8
11
0.334249
21
-1.7854
0
LINE
8
BLACK
6
CONTINUOUS
10
0.334249
20
-1.7854
11
0.331883
21
-1.77097
0
LINE
8
BLACK
6
CONTINUOUS
10
0.331883
20
-1.77097
11
0.327972
21
-1.75688
0
LINE
8
BLACK
6
CONTINUOUS
10
0.327972
20
-1.75688
11
0.322559
21
-1.7433
0
LINE
8
BLACK
6
CONTINUOUS
10
0.322559
20
-1.7433
11
0.31571
21
-1.73038
0
LINE
8
BLACK
6
CONTINUOUS
10
0.31571
20
-1.73038
11
0.307505
21
-1.71828
0
LINE
8
BLACK
6
CONTINUOUS
10
0.307505
20
-1.71828
11
0.298039
21
-1.70713
0
LINE
8
BLACK
6
CONTINUOUS
10
0.298039
20
-1.70713
11
0.287423
21
-1.69708
0
LINE
8
BLACK
6
CONTINUOUS
10
0.287423
20
-1.69708
11
0.275783
21
-1.68823
0
LINE
8
BLACK
6
CONTINUOUS
10
0.275783
20
-1.68823
11
0.263254
21
-1.68069
0
LINE
8
BLACK
6
CONTINUOUS
10
0.263254
20
-1.68069
11
0.249984
21
-1.67455
0
LINE
8
BLACK
6
CONTINUOUS
10
0.249984
20
-1.67455
11
0.236127
21
-1.66988
0
LINE
8
BLACK
6
CONTINUOUS
10
0.236127
20
-1.66988
11
0.221847
21
-1.66674
0
LINE
8
BLACK
6
CONTINUOUS
10
0.221847
20
-1.66674
11
0.207311
21
-1.66516
0
LINE
8
BLACK
6
CONTINUOUS
10
0.207311
20
-1.66516
11
0.192689
21
-1.66516
0
LINE
8
BLACK
6
CONTINUOUS
10
0.192689
20
-1.66516
11
0.178153
21
-1.66674
0
LINE
8
BLACK
6
CONTINUOUS
10
0.178153
20
-1.66674
11
0.163873
21
-1.66988
0
LINE
8
BLACK
6
CONTINUOUS
10
0.163873
20
-1.66988
11
0.150016
21
-1.67455
0
LINE
8
BLACK
6
CONTINUOUS
10
0.150016
20
-1.67455
11
0.136746
21
-1.68069
0
LINE
8
BLACK
6
CONTINUOUS
10
0.136746
20
-1.68069
11
0.124217
21
-1.68823
0
LINE
8
BLACK
6
CONTINUOUS
10
0.124217
20
-1.68823
11
0.112577
21
-1.69708
0
LINE
8
BLACK
6
CONTINUOUS
10
0.112577
20
-1.69708
11
0.101961
21
-1.70713
0
LINE
8
BLACK
6
CONTINUOUS
10
0.101961
20
-1.70713
11
0.0924952
21
-1.71828
0
LINE
8
BLACK
6
CONTINUOUS
10
0.0924952
20
-1.71828
11
0.0842895
21
-1.73038
0
LINE
8
BLACK
6
CONTINUOUS
10
0.0842895
20
-1.73038
11
0.0774405
21
-1.7433
0
LINE
8
BLACK
6
CONTINUOUS
10
0.0774405
20
-1.7433
11
0.0720284
21
-1.75688
0
LINE
8
BLACK
6
CONTINUOUS
10
0.0720284
20
-1.75688
11
0.0681166
21
-1.77097
0
LINE
8
BLACK
6
CONTINUOUS
10
0.0681166
20
-1.77097
11
0.0657511
21
-1.7854
0
LINE
8
BLACK
6
CONTINUOUS
10
0.0657511
20
-1.7854
11
0.0649594
21
-1.8
0
LINE
8
BLACK
6
CONTINUOUS
10
0.0649594
20
-1.8
11
0.0657511
21
-1.8146
0
LINE
8
BLACK
6
CONTINUOUS
10
2.6143
20
-1.66394
11
2.62844
21
-1.66618
0
LINE
8
BLACK
6
CONTINUOUS
10
2.62844
20
-1.66618
11
2.64228
21
-1.66989
0
LINE
8
BLACK
6
CONTINUOUS
10
2.64228
20
-1.66989
11
2.65565
21
-1.67502
0
LINE
8
BLACK
6
CONTINUOUS
10
2.65565
20
-1.67502
11
2.66841
21
-1.68152
0
LINE
8
BLACK
6
CONTINUOUS
10
2.66841
20
-1.68152
11
2.68042
21
-1.68932
0
LINE
8
BLACK
6
CONTINUOUS
10
2.68042
20
-1.68932
11
2.69154
21
-1.69833
0
LINE
8
BLACK
6
CONTINUOUS
10
2.69154
20
-1.69833
11
2.70167
21
-1.70846
0
LINE
8
BLACK
6
CONTINUOUS
10
2.70167
20
-1.70846
11
2.71068
21
-1.71958
0
LINE
8
BLACK
6
CONTINUOUS
10
2.71068
20
-1.71958
11
2.71848
21
-1.73159
0
LINE
8
BLACK
6
CONTINUOUS
10
2.71848
20
-1.73159
11
2.72498
21
-1.74435
0
LINE
8
BLACK
6
CONTINUOUS
10
2.72498
20
-1.74435
11
2.73012
21
-1.75772
0
LINE
8
BLACK
6
CONTINUOUS
10
2.73012
20
-1.75772
11
2.73382
21
-1.77156
0
LINE
8
BLACK
6
CONTINUOUS
10
2.73382
20
-1.77156
11
2.73606
21
-1.7857
0
LINE
8
BLACK
6
CONTINUOUS
10
2.73606
20
-1.7857
11
2.73681
21
-1.8
0
LINE
8
BLACK
6
CONTINUOUS
10
2.73681
20
-1.8
11
2.73606
21
-1.8143
0
LINE
8
BLACK
6
CONTINUOUS
10
2.73606
20
-1.8143
11
2.73382
21
-1.82844
0
LINE
8
BLACK
6
CONTINUOUS
10
2.73382
20
-1.82844
11
2.73012
21
-1.84228
0
LINE
8
BLACK
6
CONTINUOUS
10
2.73012
20
-1.84228
11
2.72498
21
-1.85565
0
LINE
8
BLACK
6
CONTINUOUS
10
2.72498
20
-1.85565
11
2.71848
21
-1.86841
0
LINE
8
BLACK
6
CONTINUOUS
10
2.71848
20
-1.86841
11
2.71068
21
-1.88042
0
LINE
8
BLACK
6
CONTINUOUS
10
2.71068
20
-1.88042
11
2.70167
21
-1.89154
0
LINE
8
BLACK
6
CONTINUOUS
10
2.70167
20
-1.89154
11
2.69154
21
-1.90167
0
LINE
8
BLACK
6
CONTINUOUS
10
2.69154
20
-1.90167
11
2.68042
21
-1.91068
0
LINE
8
BLACK
6
CONTINUOUS
10
2.68042
20
-1.91068
11
2.66841
21
-1.91848
0
LINE
8
BLACK
6
CONTINUOUS
10
2.66841
20
-1.91848
11
2.65565
21
-1.92498
0
LINE
8
BLACK
6
CONTINUOUS
10
2.65565
20
-1.92498
11
2.64228
21
-1.93012
0
LINE
8
BLACK
6
CONTINUOUS
10
2.64228
20
-1.93012
11
2.62844
21
-1.93382
0
LINE
8
BLACK
6
CONTINUOUS
10
2.62844
20
-1.93382
11
2.6143
21
-1.93606
0
LINE
8
BLACK
6
CONTINUOUS
10
2.6143
20
-1.93606
11
2.6
21
-1.93681
0
LINE
8
BLACK
6
CONTINUOUS
10
2.6
20
-1.93681
11
2.5857
21
-1.93606
0
LINE
8
BLACK
6
CONTINUOUS
10
2.5857
20
-1.93606
11
2.57156
21
-1.93382
0
LINE
8
BLACK
6
CONTINUOUS
10
2.57156
20
-1.93382
11
2.55772
21
-1.93012
0
LINE
8
BLACK
6
CONTINUOUS
10
2.55772
20
-1.93012
11
2.54435
21
-1.92498
0
LINE
8
BLACK
6
CONTINUOUS
10
2.54435
20
-1.92498
11
2.53159
21
-1.91848
0
LINE
8
BLACK
6
CONTINUOUS
10
2.53159
20
-1.91848
11
2.51958
21
-1.91068
0
LINE
8
BLACK
6
CONTINUOUS
10
2.51958
20
-1.91068
11
2.50846
21
-1.90167
0
LINE
8
BLACK
6
CONTINUOUS
10
2.50846
20
-1.90167
11
2.49833
21
-1.89154
0
LINE
8
BLACK
6
CONTINUOUS
10
2.49833
20
-1.89154
11
2.48932
21
-1.88042
0
LINE
8
BLACK
6
CONTINUOUS
10
2.48932
20
-1.88042
11
2.48152
21
-1.86841
0
LINE
8
BLACK
6
CONTINUOUS
10
2.48152
20
-1.86841
11
2.47502
21
-1.85565
0
LINE
8
BLACK
6
CONTINUOUS
10
2.47502
20
-1.85565
11
2.46989
21
-1.84228
0
LINE
8
BLACK
6
CONTINUOUS
10
2.46989
20
-1.84228
11
2.46618
21
-1.82844
0
LINE
8
BLACK
6
CONTINUOUS
10
2.46618
20
-1.82844
11
2.46394
21
-1.8143
0
LINE
8
BLACK
6
CONTINUOUS
10
2.46394
20
-1.8143
11
2.46319
21
-1.8
0
LINE
8
BLACK
6
CONTINUOUS
10
2.46319
20
-1.8
11
2.46394
21
-1.7857
0
LINE
8
BLACK
6
CONTINUOUS
10
2.46394
20
-1.7857
11
2.46618
21
-1.77156
0
LINE
8
BLACK
6
CONTINUOUS
10
2.46618
20
-1.77156
11
2.46989
21
-1.75772
0
LINE
8
BLACK
6
CONTINUOUS
10
2.46989
20
-1.75772
11
2.47502
21
-1.74435
0
LINE
8
BLACK
6
CONTINUOUS
10
2.47502
20
-1.74435
11
2.48152
21
-1.73159
0
LINE
8
BLACK
6
CONTINUOUS
10
2.48152
20
-1.73159
11
2.48932
21
-1.71958
0
LINE
8
BLACK
6
CONTINUOUS
10
2.48932
20
-1.71958
11
2.49833
21
-1.70846
0
LINE
8
BLACK
6
CONTINUOUS
10
2.49833
20
-1.70846
11
2.50846
21
-1.69833
0
LINE
8
BLACK
6
CONTINUOUS
10
2.50846
20
-1.69833
11
2.51958
21
-1.68932
0
LINE
8
BLACK
6
CONTINUOUS
10
2.51958
20
-1.68932
11
2.53159
21
-1.68152
0
LINE
8
BLACK
6
CONTINUOUS
10
2.53159
20
-1.68152
11
2.54435
21
-1.67502
0
LINE
8
BLACK
6
CONTINUOUS
10
2.54435
20
-1.67502
11
2.55772
21
-1.66989
0
LINE
8
BLACK
6
CONTINUOUS
10
2.55772
20
-1.66989
11
2.57156
21
-1.66618
0
LINE
8
BLACK
6
CONTINUOUS
10
2.57156
20
-1.66618
11
2.5857
21
-1.66394
0
LINE
8
BLACK
6
CONTINUOUS
10
2.5857
20
-1.66394
11
2.6
21
-1.66319
0
LINE
8
BLACK
6
CONTINUOUS
10
2.6
20
-1.66319
11
2.6143
21
-1.66394
0
LINE
8
BLACK
6
CONTINUOUS
10
2.46575
20
-1.8146
11
2.46812
21
-1.82903
0
LINE
8
BLACK
6
CONTINUOUS
10
2.46812
20
-1.82903
11
2.47203
21
-1.84312
0
LINE
8
BLACK
6
CONTINUOUS
10
2.47203
20
-1.84312
11
2.47744
21
-1.8567
0
LINE
8
BLACK
6
CONTINUOUS
10
2.47744
20
-1.8567
11
2.48429
21
-1.86962
0
LINE
8
BLACK
6
CONTINUOUS
10
2.48429
20
-1.86962
11
2.4925
21
-1.88172
0
LINE
8
BLACK
6
CONTINUOUS
10
2.4925
20
-1.88172
11
2.50196
21
-1.89287
0
LINE
8
BLACK
6
CONTINUOUS
10
2.50196
20
-1.89287
11
2.51258
21
-1.90292
0
LINE
8
BLACK
6
CONTINUOUS
10
2.51258
20
-1.90292
11
2.52422
21
-1.91177
0
LINE
8
BLACK
6
CONTINUOUS
10
2.52422
20
-1.91177
11
2.53675
21
-1.91931
0
LINE
8
BLACK
6
CONTINUOUS
10
2.53675
20
-1.91931
11
2.55002
21
-1.92545
0
LINE
8
BLACK
6
CONTINUOUS
10
2.55002
20
-1.92545
11
2.56387
21
-1.93012
0
LINE
8
BLACK
6
CONTINUOUS
10
2.56387
20
-1.93012
11
2.57815
21
-1.93326
0
LINE
8
BLACK
6
CONTINUOUS
10
2.57815
20
-1.93326
11
2.59269
21
-1.93484
0
LINE
8
BLACK
6
CONTINUOUS
10
2.59269
20
-1.93484
11
2.60731
21
-1.93484
0
LINE
8
BLACK
6
CONTINUOUS
10
2.60731
20
-1.93484
11
2.62185
21
-1.93326
0
LINE
8
BLACK
6
CONTINUOUS
10
2.62185
20
-1.93326
11
2.63613
21
-1.93012
0
LINE
8
BLACK
6
CONTINUOUS
10
2.63613
20
-1.93012
11
2.64998
21
-1.92545
0
LINE
8
BLACK
6
CONTINUOUS
10
2.64998
20
-1.92545
11
2.66325
21
-1.91931
0
LINE
8
BLACK
6
CONTINUOUS
10
2.66325
20
-1.91931
11
2.67578
21
-1.91177
0
LINE
8
BLACK
6
CONTINUOUS
10
2.67578
20
-1.91177
11
2.68742
21
-1.90292
0
LINE
8
BLACK
6
CONTINUOUS
10
2.68742
20
-1.90292
11
2.69804
21
-1.89287
0
LINE
8
BLACK
6
CONTINUOUS
10
2.69804
20
-1.89287
11
2.7075
21
-1.88172
0
LINE
8
BLACK
6
CONTINUOUS
10
2.7075
20
-1.88172
11
2.71571
21
-1.86962
0
LINE
8
BLACK
6
CONTINUOUS
10
2.71571
20
-1.86962
11
2.72256
21
-1.8567
0
LINE
8
BLACK
6
CONTINUOUS
10
2.72256
20
-1.8567
11
2.72797
21
-1.84312
0
LINE
8
BLACK
6
CONTINUOUS
10
2.72797
20
-1.84312
11
2.73188
21
-1.82903
0
LINE
8
BLACK
6
CONTINUOUS
10
2.73188
20
-1.82903
11
2.73425
21
-1.8146
0
LINE
8
BLACK
6
CONTINUOUS
10
2.73425
20
-1.8146
11
2.73504
21
-1.8
0
LINE
8
BLACK
6
CONTINUOUS
10
2.73504
20
-1.8
11
2.73425
21
-1.7854
0
LINE
8
BLACK
6
CONTINUOUS
10
2.73425
20
-1.7854
11
2.73188
21
-1.77097
0
LINE
8
BLACK
6
CONTINUOUS
10
2.73188
20
-1.77097
11
2.72797
21
-1.75688
0
LINE
8
BLACK
6
CONTINUOUS
10
2.72797
20
-1.75688
11
2.72256
21
-1.7433
0
LINE
8
BLACK
6
CONTINUOUS
10
2.72256
20
-1.7433
11
2.71571
21
-1.73038
0
LINE
8
BLACK
6
CONTINUOUS
10
2.71571
20
-1.73038
11
2.7075
21
-1.71828
0
LINE
8
BLACK
6
CONTINUOUS
10
2.7075
20
-1.71828
11
2.69804
21
-1.70713
0
LINE
8
BLACK
6
CONTINUOUS
10
2.69804
20
-1.70713
11
2.68742
21
-1.69708
0
LINE
8
BLACK
6
CONTINUOUS
10
2.68742
20
-1.69708
11
2.67578
21
-1.68823
0
LINE
8
BLACK
6
CONTINUOUS
10
2.67578
20
-1.68823
11
2.66325
21
-1.68069
0
LINE
8
BLACK
6
CONTINUOUS
10
2.66325
20
-1.68069
11
2.64998
21
-1.67455
0
LINE
8
BLACK
6
CONTINUOUS
10
2.64998
20
-1.67455
11
2.63613
21
-1.66988
0
LINE
8
BLACK
6
CONTINUOUS
10
2.63613
20
-1.66988
11
2.62185
21
-1.66674
0
LINE
8
BLACK
6
CONTINUOUS
10
2.62185
20
-1.66674
11
2.60731
21
-1.66516
0
LINE
8
BLACK
6
CONTINUOUS
10
2.60731
20
-1.66516
11
2.59269
21
-1.66516
0
LINE
8
BLACK
6
CONTINUOUS
10
2.59269
20
-1.66516
11
2.57815
21
-1.66674
0
LINE
8
BLACK
6
CONTINUOUS
10
2.57815
20
-1.66674
11
2.56387
21
-1.66988
0
LINE
8
BLACK
6
CONTINUOUS
10
2.56387
20
-1.66988
11
2.55002
21
-1.67455
0
LINE
8
BLACK
6
CONTINUOUS
10
2.55002
20
-1.67455
11
2.53675
21
-1.68069
0
LINE
8
BLACK
6
CONTINUOUS
10
2.53675
20
-1.68069
11
2.52422
21
-1.68823
0
LINE
8
BLACK
6
CONTINUOUS
10
2.52422
20
-1.68823
11
2.51258
21
-1.69708
0
LINE
8
BLACK
6
CONTINUOUS
10
2.51258
20
-1.69708
11
2.50196
21
-1.70713
0
LINE
8
BLACK
6
CONTINUOUS
10
2.50196
20
-1.70713
11
2.4925
21
-1.71828
0
LINE
8
BLACK
6
CONTINUOUS
10
2.4925
20
-1.71828
11
2.48429
21
-1.73038
0
LINE
8
BLACK
6
CONTINUOUS
10
2.48429
20
-1.73038
11
2.47744
21
-1.7433
0
LINE
8
BLACK
6
CONTINUOUS
10
2.47744
20
-1.7433
11
2.47203
21
-1.75688
0
LINE
8
BLACK
6
CONTINUOUS
10
2.47203
20
-1.75688
11
2.46812
21
-1.77097
0
LINE
8
BLACK
6
CONTINUOUS
10
2.46812
20
-1.77097
11
2.46575
21
-1.7854
0
LINE
8
BLACK
6
CONTINUOUS
10
2.46575
20
-1.7854
11
2.46496
21
-1.8
0
LINE
8
BLACK
6
CONTINUOUS
10
2.46496
20
-1.8
11
2.46575
21
-1.8146
0
LINE
8
BLACK
6
CONTINUOUS
10
1.81759
20
-1.53889
11
1.91113
21
-1.63243
0
LINE
8
BLACK
6
CONTINUOUS
10
1.91113
20
-1.63243
11
1.91113
21
-1.63243
0
LINE
8
BLACK
6
CONTINUOUS
10
1.91113
20
-1.63243
11
1.91141
21
-1.63313
0
LINE
8
BLACK
6
CONTINUOUS
10
1.91141
20
-1.63313
11
1.91113
21
-1.63382
0
LINE
8
BLACK
6
CONTINUOUS
10
1.91113
20
-1.63382
11
1.89869
21
-1.64626
0
LINE
8
BLACK
6
CONTINUOUS
10
1.89869
20
-1.64626
11
2.02638
21
-1.64626
0
LINE
8
BLACK
6
CONTINUOUS
10
2.02638
20
-1.64626
11
2.02707
21
-1.64655
0
LINE
8
BLACK
6
CONTINUOUS
10
2.02707
20
-1.64655
11
2.02736
21
-1.64724
0
LINE
8
BLACK
6
CONTINUOUS
10
2.02736
20
-1.64724
11
2.02736
21
-1.72343
0
LINE
8
BLACK
6
CONTINUOUS
10
2.02736
20
-1.72343
11
2.04724
21
-1.72343
0
LINE
8
BLACK
6
CONTINUOUS
10
2.04724
20
-1.72343
11
2.04794
21
-1.72371
0
LINE
8
BLACK
6
CONTINUOUS
10
2.04794
20
-1.72371
11
2.04823
21
-1.72441
0
LINE
8
BLACK
6
CONTINUOUS
10
2.04823
20
-1.72441
11
2.04823
21
-1.92913
0
LINE
8
BLACK
6
CONTINUOUS
10
2.04823
20
-1.92913
11
2.04794
21
-1.92983
0
LINE
8
BLACK
6
CONTINUOUS
10
2.04794
20
-1.92983
11
2.04724
21
-1.93012
0
LINE
8
BLACK
6
CONTINUOUS
10
2.04724
20
-1.93012
11
1.51181
21
-1.93012
0
LINE
8
BLACK
6
CONTINUOUS
10
1.51181
20
-1.93012
11
1.51112
21
-1.92983
0
LINE
8
BLACK
6
CONTINUOUS
10
1.51112
20
-1.92983
11
1.51083
21
-1.92913
0
LINE
8
BLACK
6
CONTINUOUS
10
1.51083
20
-1.92913
11
1.51083
21
-1.72441
0
LINE
8
BLACK
6
CONTINUOUS
10
1.51083
20
-1.72441
11
1.51112
21
-1.72371
0
LINE
8
BLACK
6
CONTINUOUS
10
1.51112
20
-1.72371
11
1.51181
21
-1.72343
0
LINE
8
BLACK
6
CONTINUOUS
10
1.51181
20
-1.72343
11
1.89154
21
-1.72343
0
LINE
8
BLACK
6
CONTINUOUS
10
1.89154
20
-1.72343
11
1.89154
21
-1.65341
0
LINE
8
BLACK
6
CONTINUOUS
10
1.89154
20
-1.65341
11
1.85823
21
-1.68672
0
LINE
8
BLACK
6
CONTINUOUS
10
1.85823
20
-1.68672
11
1.85754
21
-1.687
0
LINE
8
BLACK
6
CONTINUOUS
10
1.85754
20
-1.687
11
1.85684
21
-1.68672
0
LINE
8
BLACK
6
CONTINUOUS
10
1.85684
20
-1.68672
11
1.85684
21
-1.68672
0
LINE
8
BLACK
6
CONTINUOUS
10
1.85684
20
-1.68672
11
1.76752
21
-1.5974
0
LINE
8
BLACK
6
CONTINUOUS
10
1.76752
20
-1.5974
11
1.76752
21
-1.6378
0
LINE
8
BLACK
6
CONTINUOUS
10
1.76752
20
-1.6378
11
1.76723
21
-1.63849
0
LINE
8
BLACK
6
CONTINUOUS
10
1.76723
20
-1.63849
11
1.76654
21
-1.63878
0
LINE
8
BLACK
6
CONTINUOUS
10
1.76654
20
-1.63878
11
1.63268
21
-1.63878
0
LINE
8
BLACK
6
CONTINUOUS
10
1.63268
20
-1.63878
11
1.63198
21
-1.63849
0
LINE
8
BLACK
6
CONTINUOUS
10
1.63198
20
-1.63849
11
1.63169
21
-1.6378
0
LINE
8
BLACK
6
CONTINUOUS
10
1.63169
20
-1.6378
11
1.63169
21
-1.56063
0
LINE
8
BLACK
6
CONTINUOUS
10
1.63169
20
-1.56063
11
1.63198
21
-1.55993
0
LINE
8
BLACK
6
CONTINUOUS
10
1.63198
20
-1.55993
11
1.63268
21
-1.55965
0
LINE
8
BLACK
6
CONTINUOUS
10
1.63268
20
-1.55965
11
1.76654
21
-1.55965
0
LINE
8
BLACK
6
CONTINUOUS
10
1.76654
20
-1.55965
11
1.76723
21
-1.55993
0
LINE
8
BLACK
6
CONTINUOUS
10
1.76723
20
-1.55993
11
1.76752
21
-1.56063
0
LINE
8
BLACK
6
CONTINUOUS
10
1.76752
20
-1.56063
11
1.76752
21
-1.58757
0
LINE
8
BLACK
6
CONTINUOUS
10
1.76752
20
-1.58757
11
1.8162
21
-1.53889
0
LINE
8
BLACK
6
CONTINUOUS
10
1.8162
20
-1.53889
11
1.81689
21
-1.5386
0
LINE
8
BLACK
6
CONTINUOUS
10
1.81689
20
-1.5386
11
1.81759
21
-1.53889
0
LINE
8
BLACK
6
CONTINUOUS
10
2.02638
20
-1.72539
11
1.89252
21
-1.72539
0
LINE
8
BLACK
6
CONTINUOUS
10
1.89252
20
-1.72539
11
1.5128
21
-1.72539
0
LINE
8
BLACK
6
CONTINUOUS
10
1.5128
20
-1.72539
11
1.5128
21
-1.92815
0
LINE
8
BLACK
6
CONTINUOUS
10
1.5128
20
-1.92815
11
2.04626
21
-1.92815
0
LINE
8
BLACK
6
CONTINUOUS
10
2.04626
20
-1.92815
11
2.04626
21
-1.72539
0
LINE
8
BLACK
6
CONTINUOUS
10
2.04626
20
-1.72539
11
2.02638
21
-1.72539
0
LINE
8
BLACK
6
CONTINUOUS
10
1.89672
20
-1.64823
11
1.8935
21
-1.65145
0
LINE
8
BLACK
6
CONTINUOUS
10
1.8935
20
-1.65145
11
1.8935
21
-1.72343
0
LINE
8
BLACK
6
CONTINUOUS
10
1.8935
20
-1.72343
11
2.02539
21
-1.72343
0
LINE
8
BLACK
6
CONTINUOUS
10
2.02539
20
-1.72343
11
2.02539
21
-1.64823
0
LINE
8
BLACK
6
CONTINUOUS
10
2.02539
20
-1.64823
11
1.89672
21
-1.64823
0
LINE
8
BLACK
6
CONTINUOUS
10
1.76752
20
-1.59035
11
1.76752
21
-1.59461
0
LINE
8
BLACK
6
CONTINUOUS
10
1.76752
20
-1.59461
11
1.85754
21
-1.68463
0
LINE
8
BLACK
6
CONTINUOUS
10
1.85754
20
-1.68463
11
1.89154
21
-1.65063
0
LINE
8
BLACK
6
CONTINUOUS
10
1.89154
20
-1.65063
11
1.89154
21
-1.64724
0
LINE
8
BLACK
6
CONTINUOUS
10
1.89154
20
-1.64724
11
1.89182
21
-1.64655
0
LINE
8
BLACK
6
CONTINUOUS
10
1.89182
20
-1.64655
11
1.89252
21
-1.64626
0
LINE
8
BLACK
6
CONTINUOUS
10
1.89252
20
-1.64626
11
1.89591
21
-1.64626
0
LINE
8
BLACK
6
CONTINUOUS
10
1.89591
20
-1.64626
11
1.90904
21
-1.63313
0
LINE
8
BLACK
6
CONTINUOUS
10
1.90904
20
-1.63313
11
1.81689
21
-1.54098
0
LINE
8
BLACK
6
CONTINUOUS
10
1.81689
20
-1.54098
11
1.76752
21
-1.59035
0
LINE
8
BLACK
6
CONTINUOUS
10
1.8935
20
-1.64823
11
1.8935
21
-1.64866
0
LINE
8
BLACK
6
CONTINUOUS
10
1.8935
20
-1.64866
11
1.89394
21
-1.64823
0
LINE
8
BLACK
6
CONTINUOUS
10
1.89394
20
-1.64823
11
1.8935
21
-1.64823
0
LINE
8
BLACK
6
CONTINUOUS
10
1.63366
20
-1.56161
11
1.63366
21
-1.63681
0
LINE
8
BLACK
6
CONTINUOUS
10
1.63366
20
-1.63681
11
1.76555
21
-1.63681
0
LINE
8
BLACK
6
CONTINUOUS
10
1.76555
20
-1.63681
11
1.76555
21
-1.59543
0
LINE
8
BLACK
6
CONTINUOUS
10
1.76555
20
-1.59543
11
1.7633
21
-1.59318
0
LINE
8
BLACK
6
CONTINUOUS
10
1.7633
20
-1.59318
11
1.76301
21
-1.59248
0
LINE
8
BLACK
6
CONTINUOUS
10
1.76301
20
-1.59248
11
1.7633
21
-1.59179
0
LINE
8
BLACK
6
CONTINUOUS
10
1.7633
20
-1.59179
11
1.7633
21
-1.59179
0
LINE
8
BLACK
6
CONTINUOUS
10
1.7633
20
-1.59179
11
1.76555
21
-1.58954
0
LINE
8
BLACK
6
CONTINUOUS
10
1.76555
20
-1.58954
11
1.76555
21
-1.56161
0
LINE
8
BLACK
6
CONTINUOUS
10
1.76555
20
-1.56161
11
1.63366
21
-1.56161
0
LINE
8
BLACK
6
CONTINUOUS
10
1.76539
20
-1.59248
11
1.76555
21
-1.59264
0
LINE
8
BLACK
6
CONTINUOUS
10
1.76555
20
-1.59264
11
1.76555
21
-1.59232
0
LINE
8
BLACK
6
CONTINUOUS
10
1.76555
20
-1.59232
11
1.76539
21
-1.59248
0
LINE
8
BLACK
6
CONTINUOUS
10
1.13661
20
-1.82343
11
1.13731
21
-1.82371
0
LINE
8
BLACK
6
CONTINUOUS
10
1.13731
20
-1.82371
11
1.1376
21
-1.82441
0
LINE
8
BLACK
6
CONTINUOUS
10
1.1376
20
-1.82441
11
1.1376
21
-1.90157
0
LINE
8
BLACK
6
CONTINUOUS
10
1.1376
20
-1.90157
11
1.13731
21
-1.90227
0
LINE
8
BLACK
6
CONTINUOUS
10
1.13731
20
-1.90227
11
1.13661
21
-1.90256
0
LINE
8
BLACK
6
CONTINUOUS
10
1.13661
20
-1.90256
11
1.00276
21
-1.90256
0
LINE
8
BLACK
6
CONTINUOUS
10
1.00276
20
-1.90256
11
1.00206
21
-1.90227
0
LINE
8
BLACK
6
CONTINUOUS
10
1.00206
20
-1.90227
11
1.00177
21
-1.90157
0
LINE
8
BLACK
6
CONTINUOUS
10
1.00177
20
-1.90157
11
1.00177
21
-1.90138
0
LINE
8
BLACK
6
CONTINUOUS
10
1.00177
20
-1.90138
11
0.870177
21
-1.90138
0
LINE
8
BLACK
6
CONTINUOUS
10
0.870177
20
-1.90138
11
0.869882
21
-1.90126
0
LINE
8
BLACK
6
CONTINUOUS
10
0.869882
20
-1.90126
11
0.869587
21
-1.90138
0
LINE
8
BLACK
6
CONTINUOUS
10
0.869587
20
-1.90138
11
0.737303
21
-1.90138
0
LINE
8
BLACK
6
CONTINUOUS
10
0.737303
20
-1.90138
11
0.736607
21
-1.90109
0
LINE
8
BLACK
6
CONTINUOUS
10
0.736607
20
-1.90109
11
0.736319
21
-1.90039
0
LINE
8
BLACK
6
CONTINUOUS
10
0.736319
20
-1.90039
11
0.736319
21
-1.82559
0
LINE
8
BLACK
6
CONTINUOUS
10
0.736319
20
-1.82559
11
0.736607
21
-1.82489
0
LINE
8
BLACK
6
CONTINUOUS
10
0.736607
20
-1.82489
11
0.737303
21
-1.82461
0
LINE
8
BLACK
6
CONTINUOUS
10
0.737303
20
-1.82461
11
0.869587
21
-1.82461
0
LINE
8
BLACK
6
CONTINUOUS
10
0.869587
20
-1.82461
11
0.869882
21
-1.82473
0
LINE
8
BLACK
6
CONTINUOUS
10
0.869882
20
-1.82473
11
0.870177
21
-1.82461
0
LINE
8
BLACK
6
CONTINUOUS
10
0.870177
20
-1.82461
11
1.00177
21
-1.82461
0
LINE
8
BLACK
6
CONTINUOUS
10
1.00177
20
-1.82461
11
1.00177
21
-1.82441
0
LINE
8
BLACK
6
CONTINUOUS
10
1.00177
20
-1.82441
11
1.00206
21
-1.82371
0
LINE
8
BLACK
6
CONTINUOUS
10
1.00206
20
-1.82371
11
1.00276
21
-1.82343
0
LINE
8
BLACK
6
CONTINUOUS
10
1.00276
20
-1.82343
11
1.13661
21
-1.82343
0
LINE
8
BLACK
6
CONTINUOUS
10
1.00374
20
-1.82539
11
1.00374
21
-1.90059
0
LINE
8
BLACK
6
CONTINUOUS
10
1.00374
20
-1.90059
11
1.13563
21
-1.90059
0
LINE
8
BLACK
6
CONTINUOUS
10
1.13563
20
-1.90059
11
1.13563
21
-1.82539
0
LINE
8
BLACK
6
CONTINUOUS
10
1.13563
20
-1.82539
11
1.00374
21
-1.82539
0
LINE
8
BLACK
6
CONTINUOUS
10
0.871161
20
-1.82657
11
0.871161
21
-1.89941
0
LINE
8
BLACK
6
CONTINUOUS
10
0.871161
20
-1.89941
11
1.00148
21
-1.89941
0
LINE
8
BLACK
6
CONTINUOUS
10
1.00148
20
-1.89941
11
1.00148
21
-1.82657
0
LINE
8
BLACK
6
CONTINUOUS
10
1.00148
20
-1.82657
11
0.871161
21
-1.82657
0
LINE
8
BLACK
6
CONTINUOUS
10
0.738287
20
-1.82657
11
0.738287
21
-1.89941
0
LINE
8
BLACK
6
CONTINUOUS
10
0.738287
20
-1.89941
11
0.868602
21
-1.89941
0
LINE
8
BLACK
6
CONTINUOUS
10
0.868602
20
-1.89941
11
0.868602
21
-1.82657
0
LINE
8
BLACK
6
CONTINUOUS
10
0.868602
20
-1.82657
11
0.738287
21
-1.82657
0
LINE
8
BLACK
6
CONTINUOUS
10
1.30561
20
-1.80768
11
1.30631
21
-1.80797
0
LINE
8
BLACK
6
CONTINUOUS
10
1.30631
20
-1.80797
11
1.30659
21
-1.80866
0
LINE
8
BLACK
6
CONTINUOUS
10
1.30659
20
-1.80866
11
1.30659
21
-1.88346
0
LINE
8
BLACK
6
CONTINUOUS
10
1.30659
20
-1.88346
11
1.30631
21
-1.88416
0
LINE
8
BLACK
6
CONTINUOUS
10
1.30631
20
-1.88416
11
1.30561
21
-1.88445
0
LINE
8
BLACK
6
CONTINUOUS
10
1.30561
20
-1.88445
11
1.17333
21
-1.88445
0
LINE
8
BLACK
6
CONTINUOUS
10
1.17333
20
-1.88445
11
1.17263
21
-1.88416
0
LINE
8
BLACK
6
CONTINUOUS
10
1.17263
20
-1.88416
11
1.17234
21
-1.88346
0
LINE
8
BLACK
6
CONTINUOUS
10
1.17234
20
-1.88346
11
1.17234
21
-1.80866
0
LINE
8
BLACK
6
CONTINUOUS
10
1.17234
20
-1.80866
11
1.17263
21
-1.80797
0
LINE
8
BLACK
6
CONTINUOUS
10
1.17263
20
-1.80797
11
1.17333
21
-1.80768
0
LINE
8
BLACK
6
CONTINUOUS
10
1.17333
20
-1.80768
11
1.30561
21
-1.80768
0
LINE
8
BLACK
6
CONTINUOUS
10
1.17431
20
-1.80965
11
1.17431
21
-1.88248
0
LINE
8
BLACK
6
CONTINUOUS
10
1.17431
20
-1.88248
11
1.30463
21
-1.88248
0
LINE
8
BLACK
6
CONTINUOUS
10
1.30463
20
-1.88248
11
1.30463
21
-1.80965
0
LINE
8
BLACK
6
CONTINUOUS
10
1.30463
20
-1.80965
11
1.17431
21
-1.80965
0
LINE
8
BLACK
6
CONTINUOUS
10
2.1811
20
-1.70256
11
2.1818
21
-1.70285
0
LINE
8
BLACK
6
CONTINUOUS
10
2.1818
20
-1.70285
11
2.18209
21
-1.70354
0
LINE
8
BLACK
6
CONTINUOUS
10
2.18209
20
-1.70354
11
2.18209
21
-1.8374
0
LINE
8
BLACK
6
CONTINUOUS
10
2.18209
20
-1.8374
11
2.1818
21
-1.8381
0
LINE
8
BLACK
6
CONTINUOUS
10
2.1818
20
-1.8381
11
2.1811
21
-1.83839
0
LINE
8
BLACK
6
CONTINUOUS
10
2.1811
20
-1.83839
11
2.10394
21
-1.83839
0
LINE
8
BLACK
6
CONTINUOUS
10
2.10394
20
-1.83839
11
2.10324
21
-1.8381
0
LINE
8
BLACK
6
CONTINUOUS
10
2.10324
20
-1.8381
11
2.10295
21
-1.8374
0
LINE
8
BLACK
6
CONTINUOUS
10
2.10295
20
-1.8374
11
2.10295
21
-1.70354
0
LINE
8
BLACK
6
CONTINUOUS
10
2.10295
20
-1.70354
11
2.10324
21
-1.70285
0
LINE
8
BLACK
6
CONTINUOUS
10
2.10324
20
-1.70285
11
2.10394
21
-1.70256
0
LINE
8
BLACK
6
CONTINUOUS
10
2.10394
20
-1.70256
11
2.1811
21
-1.70256
0
LINE
8
BLACK
6
CONTINUOUS
10
2.10492
20
-1.70453
11
2.10492
21
-1.83642
0
LINE
8
BLACK
6
CONTINUOUS
10
2.10492
20
-1.83642
11
2.18012
21
-1.83642
0
LINE
8
BLACK
6
CONTINUOUS
10
2.18012
20
-1.83642
11
2.18012
21
-1.70453
0
LINE
8
BLACK
6
CONTINUOUS
10
2.18012
20
-1.70453
11
2.10492
21
-1.70453
0
LINE
8
BLACK
6
CONTINUOUS
10
2.34557
20
-1.69862
11
2.34627
21
-1.69891
0
LINE
8
BLACK
6
CONTINUOUS
10
2.34627
20
-1.69891
11
2.34656
21
-1.69961
0
LINE
8
BLACK
6
CONTINUOUS
10
2.34656
20
-1.69961
11
2.34656
21
-1.83346
0
LINE
8
BLACK
6
CONTINUOUS
10
2.34656
20
-1.83346
11
2.34627
21
-1.83416
0
LINE
8
BLACK
6
CONTINUOUS
10
2.34627
20
-1.83416
11
2.34557
21
-1.83445
0
LINE
8
BLACK
6
CONTINUOUS
10
2.34557
20
-1.83445
11
2.19439
21
-1.83445
0
LINE
8
BLACK
6
CONTINUOUS
10
2.19439
20
-1.83445
11
2.19369
21
-1.83416
0
LINE
8
BLACK
6
CONTINUOUS
10
2.19369
20
-1.83416
11
2.19341
21
-1.83346
0
LINE
8
BLACK
6
CONTINUOUS
10
2.19341
20
-1.83346
11
2.19341
21
-1.69961
0
LINE
8
BLACK
6
CONTINUOUS
10
2.19341
20
-1.69961
11
2.19369
21
-1.69891
0
LINE
8
BLACK
6
CONTINUOUS
10
2.19369
20
-1.69891
11
2.19439
21
-1.69862
0
LINE
8
BLACK
6
CONTINUOUS
10
2.19439
20
-1.69862
11
2.34557
21
-1.69862
0
LINE
8
BLACK
6
CONTINUOUS
10
2.19537
20
-1.70059
11
2.19537
21
-1.83248
0
LINE
8
BLACK
6
CONTINUOUS
10
2.19537
20
-1.83248
11
2.34459
21
-1.83248
0
LINE
8
BLACK
6
CONTINUOUS
10
2.34459
20
-1.83248
11
2.34459
21
-1.70059
0
LINE
8
BLACK
6
CONTINUOUS
10
2.34459
20
-1.70059
11
2.19537
21
-1.70059
0
LINE
8
BLACK
6
CONTINUOUS
10
0.76378
20
-1.70256
11
0.764476
21
-1.70285
0
LINE
8
BLACK
6
CONTINUOUS
10
0.764476
20
-1.70285
11
0.764764
21
-1.70354
0
LINE
8
BLACK
6
CONTINUOUS
10
0.764764
20
-1.70354
11
0.764764
21
-1.77835
0
LINE
8
BLACK
6
CONTINUOUS
10
0.764764
20
-1.77835
11
0.764476
21
-1.77904
0
LINE
8
BLACK
6
CONTINUOUS
10
0.764476
20
-1.77904
11
0.76378
21
-1.77933
0
LINE
8
BLACK
6
CONTINUOUS
10
0.76378
20
-1.77933
11
0.631496
21
-1.77933
0
LINE
8
BLACK
6
CONTINUOUS
10
0.631496
20
-1.77933
11
0.6308
21
-1.77904
0
LINE
8
BLACK
6
CONTINUOUS
10
0.6308
20
-1.77904
11
0.630512
21
-1.77835
0
LINE
8
BLACK
6
CONTINUOUS
10
0.630512
20
-1.77835
11
0.630512
21
-1.77835
0
LINE
8
BLACK
6
CONTINUOUS
10
0.630512
20
-1.77835
11
0.630512
21
-1.70354
0
LINE
8
BLACK
6
CONTINUOUS
10
0.630512
20
-1.70354
11
0.6308
21
-1.70285
0
LINE
8
BLACK
6
CONTINUOUS
10
0.6308
20
-1.70285
11
0.631496
21
-1.70256
0
LINE
8
BLACK
6
CONTINUOUS
10
0.631496
20
-1.70256
11
0.76378
21
-1.70256
0
LINE
8
BLACK
6
CONTINUOUS
10
0.63248
20
-1.70453
11
0.63248
21
-1.77736
0
LINE
8
BLACK
6
CONTINUOUS
10
0.63248
20
-1.77736
11
0.762795
21
-1.77736
0
LINE
8
BLACK
6
CONTINUOUS
10
0.762795
20
-1.77736
11
0.762795
21
-1.70453
0
LINE
8
BLACK
6
CONTINUOUS
10
0.762795
20
-1.70453
11
0.63248
21
-1.70453
0
LINE
8
BLACK
6
CONTINUOUS
10
1.14961
20
-1.62382
11
1.1503
21
-1.62411
0
LINE
8
BLACK
6
CONTINUOUS
10
1.1503
20
-1.62411
11
1.15059
21
-1.6248
0
LINE
8
BLACK
6
CONTINUOUS
10
1.15059
20
-1.6248
11
1.15059
21
-1.75866
0
LINE
8
BLACK
6
CONTINUOUS
10
1.15059
20
-1.75866
11
1.1503
21
-1.75936
0
LINE
8
BLACK
6
CONTINUOUS
10
1.1503
20
-1.75936
11
1.14961
21
-1.75965
0
LINE
8
BLACK
6
CONTINUOUS
10
1.14961
20
-1.75965
11
1.07244
21
-1.75965
0
LINE
8
BLACK
6
CONTINUOUS
10
1.07244
20
-1.75965
11
1.07174
21
-1.75936
0
LINE
8
BLACK
6
CONTINUOUS
10
1.07174
20
-1.75936
11
1.07146
21
-1.75866
0
LINE
8
BLACK
6
CONTINUOUS
10
1.07146
20
-1.75866
11
1.07146
21
-1.6248
0
LINE
8
BLACK
6
CONTINUOUS
10
1.07146
20
-1.6248
11
1.07174
21
-1.62411
0
LINE
8
BLACK
6
CONTINUOUS
10
1.07174
20
-1.62411
11
1.07244
21
-1.62382
0
LINE
8
BLACK
6
CONTINUOUS
10
1.07244
20
-1.62382
11
1.14961
21
-1.62382
0
LINE
8
BLACK
6
CONTINUOUS
10
1.07343
20
-1.62579
11
1.07343
21
-1.75768
0
LINE
8
BLACK
6
CONTINUOUS
10
1.07343
20
-1.75768
11
1.14862
21
-1.75768
0
LINE
8
BLACK
6
CONTINUOUS
10
1.14862
20
-1.75768
11
1.14862
21
-1.62579
0
LINE
8
BLACK
6
CONTINUOUS
10
1.14862
20
-1.62579
11
1.07343
21
-1.62579
0
LINE
8
BLACK
6
CONTINUOUS
10
1.05906
20
-1.60413
11
1.05975
21
-1.60442
0
LINE
8
BLACK
6
CONTINUOUS
10
1.05975
20
-1.60442
11
1.06004
21
-1.60512
0
LINE
8
BLACK
6
CONTINUOUS
10
1.06004
20
-1.60512
11
1.06004
21
-1.73898
0
LINE
8
BLACK
6
CONTINUOUS
10
1.06004
20
-1.73898
11
1.05975
21
-1.73967
0
LINE
8
BLACK
6
CONTINUOUS
10
1.05975
20
-1.73967
11
1.05906
21
-1.73996
0
LINE
8
BLACK
6
CONTINUOUS
10
1.05906
20
-1.73996
11
0.98189
21
-1.73996
0
LINE
8
BLACK
6
CONTINUOUS
10
0.98189
20
-1.73996
11
0.981194
21
-1.73967
0
LINE
8
BLACK
6
CONTINUOUS
10
0.981194
20
-1.73967
11
0.980906
21
-1.73898
0
LINE
8
BLACK
6
CONTINUOUS
10
0.980906
20
-1.73898
11
0.980906
21
-1.60512
0
LINE
8
BLACK
6
CONTINUOUS
10
0.980906
20
-1.60512
11
0.981194
21
-1.60442
0
LINE
8
BLACK
6
CONTINUOUS
10
0.981194
20
-1.60442
11
0.98189
21
-1.60413
0
LINE
8
BLACK
6
CONTINUOUS
10
0.98189
20
-1.60413
11
1.05906
21
-1.60413
0
LINE
8
BLACK
6
CONTINUOUS
10
0.982874
20
-1.6061
11
0.982874
21
-1.73799
0
LINE
8
BLACK
6
CONTINUOUS
10
0.982874
20
-1.73799
11
1.05807
21
-1.73799
0
LINE
8
BLACK
6
CONTINUOUS
10
1.05807
20
-1.73799
11
1.05807
21
-1.6061
0
LINE
8
BLACK
6
CONTINUOUS
10
1.05807
20
-1.6061
11
0.982874
21
-1.6061
0
LINE
8
BLACK
6
CONTINUOUS
10
1.68386
20
-1.64232
11
1.68455
21
-1.64261
0
LINE
8
BLACK
6
CONTINUOUS
10
1.68455
20
-1.64261
11
1.68484
21
-1.64331
0
LINE
8
BLACK
6
CONTINUOUS
10
1.68484
20
-1.64331
11
1.68484
21
-1.72047
0
LINE
8
BLACK
6
CONTINUOUS
10
1.68484
20
-1.72047
11
1.68455
21
-1.72117
0
LINE
8
BLACK
6
CONTINUOUS
10
1.68455
20
-1.72117
11
1.68386
21
-1.72146
0
LINE
8
BLACK
6
CONTINUOUS
10
1.68386
20
-1.72146
11
1.55
21
-1.72146
0
LINE
8
BLACK
6
CONTINUOUS
10
1.55
20
-1.72146
11
1.5493
21
-1.72117
0
LINE
8
BLACK
6
CONTINUOUS
10
1.5493
20
-1.72117
11
1.54902
21
-1.72047
0
LINE
8
BLACK
6
CONTINUOUS
10
1.54902
20
-1.72047
11
1.54902
21
-1.64331
0
LINE
8
BLACK
6
CONTINUOUS
10
1.54902
20
-1.64331
11
1.5493
21
-1.64261
0
LINE
8
BLACK
6
CONTINUOUS
10
1.5493
20
-1.64261
11
1.55
21
-1.64232
0
LINE
8
BLACK
6
CONTINUOUS
10
1.55
20
-1.64232
11
1.68386
21
-1.64232
0
LINE
8
BLACK
6
CONTINUOUS
10
1.55098
20
-1.64429
11
1.55098
21
-1.71949
0
LINE
8
BLACK
6
CONTINUOUS
10
1.55098
20
-1.71949
11
1.68287
21
-1.71949
0
LINE
8
BLACK
6
CONTINUOUS
10
1.68287
20
-1.71949
11
1.68287
21
-1.64429
0
LINE
8
BLACK
6
CONTINUOUS
10
1.68287
20
-1.64429
11
1.55098
21
-1.64429
0
LINE
8
BLACK
6
CONTINUOUS
10
1.28937
20
-1.62972
11
1.29007
21
-1.63001
0
LINE
8
BLACK
6
CONTINUOUS
10
1.29007
20
-1.63001
11
1.29035
21
-1.63071
0
LINE
8
BLACK
6
CONTINUOUS
10
1.29035
20
-1.63071
11
1.29035
21
-1.70787
0
LINE
8
BLACK
6
CONTINUOUS
10
1.29035
20
-1.70787
11
1.29007
21
-1.70857
0
LINE
8
BLACK
6
CONTINUOUS
10
1.29007
20
-1.70857
11
1.28937
21
-1.70886
0
LINE
8
BLACK
6
CONTINUOUS
10
1.28937
20
-1.70886
11
1.15551
21
-1.70886
0
LINE
8
BLACK
6
CONTINUOUS
10
1.15551
20
-1.70886
11
1.15482
21
-1.70857
0
LINE
8
BLACK
6
CONTINUOUS
10
1.15482
20
-1.70857
11
1.15453
21
-1.70787
0
LINE
8
BLACK
6
CONTINUOUS
10
1.15453
20
-1.70787
11
1.15453
21
-1.63071
0
LINE
8
BLACK
6
CONTINUOUS
10
1.15453
20
-1.63071
11
1.15482
21
-1.63001
0
LINE
8
BLACK
6
CONTINUOUS
10
1.15482
20
-1.63001
11
1.15551
21
-1.62972
0
LINE
8
BLACK
6
CONTINUOUS
10
1.15551
20
-1.62972
11
1.28937
21
-1.62972
0
LINE
8
BLACK
6
CONTINUOUS
10
1.1565
20
-1.63169
11
1.1565
21
-1.70689
0
LINE
8
BLACK
6
CONTINUOUS
10
1.1565
20
-1.70689
11
1.28839
21
-1.70689
0
LINE
8
BLACK
6
CONTINUOUS
10
1.28839
20
-1.70689
11
1.28839
21
-1.63169
0
LINE
8
BLACK
6
CONTINUOUS
10
1.28839
20
-1.63169
11
1.1565
21
-1.63169
0
LINE
8
BLACK
6
CONTINUOUS
10
2.40433
20
-1.51722
11
2.40503
21
-1.51751
0
LINE
8
BLACK
6
CONTINUOUS
10
2.40503
20
-1.51751
11
2.40531
21
-1.51821
0
LINE
8
BLACK
6
CONTINUOUS
10
2.40531
20
-1.51821
11
2.40531
21
-1.66939
0
LINE
8
BLACK
6
CONTINUOUS
10
2.40531
20
-1.66939
11
2.40503
21
-1.67009
0
LINE
8
BLACK
6
CONTINUOUS
10
2.40503
20
-1.67009
11
2.40433
21
-1.67037
0
LINE
8
BLACK
6
CONTINUOUS
10
2.40433
20
-1.67037
11
2.27215
21
-1.67037
0
LINE
8
BLACK
6
CONTINUOUS
10
2.27215
20
-1.67037
11
2.27215
21
-1.69567
0
LINE
8
BLACK
6
CONTINUOUS
10
2.27215
20
-1.69567
11
2.27186
21
-1.69637
0
LINE
8
BLACK
6
CONTINUOUS
10
2.27186
20
-1.69637
11
2.27116
21
-1.69665
0
LINE
8
BLACK
6
CONTINUOUS
10
2.27116
20
-1.69665
11
2.13888
21
-1.69665
0
LINE
8
BLACK
6
CONTINUOUS
10
2.13888
20
-1.69665
11
2.13818
21
-1.69637
0
LINE
8
BLACK
6
CONTINUOUS
10
2.13818
20
-1.69637
11
2.13789
21
-1.69567
0
LINE
8
BLACK
6
CONTINUOUS
10
2.13789
20
-1.69567
11
2.13789
21
-1.62087
0
LINE
8
BLACK
6
CONTINUOUS
10
2.13789
20
-1.62087
11
2.13818
21
-1.62017
0
LINE
8
BLACK
6
CONTINUOUS
10
2.13818
20
-1.62017
11
2.13888
21
-1.61988
0
LINE
8
BLACK
6
CONTINUOUS
10
2.13888
20
-1.61988
11
2.26949
21
-1.61988
0
LINE
8
BLACK
6
CONTINUOUS
10
2.26949
20
-1.61988
11
2.26949
21
-1.61398
0
LINE
8
BLACK
6
CONTINUOUS
10
2.26949
20
-1.61398
11
2.13888
21
-1.61398
0
LINE
8
BLACK
6
CONTINUOUS
10
2.13888
20
-1.61398
11
2.13818
21
-1.61369
0
LINE
8
BLACK
6
CONTINUOUS
10
2.13818
20
-1.61369
11
2.13789
21
-1.61299
0
LINE
8
BLACK
6
CONTINUOUS
10
2.13789
20
-1.61299
11
2.13789
21
-1.53819
0
LINE
8
BLACK
6
CONTINUOUS
10
2.13789
20
-1.53819
11
2.13818
21
-1.53749
0
LINE
8
BLACK
6
CONTINUOUS
10
2.13818
20
-1.53749
11
2.13888
21
-1.5372
0
LINE
8
BLACK
6
CONTINUOUS
10
2.13888
20
-1.5372
11
2.26949
21
-1.5372
0
LINE
8
BLACK
6
CONTINUOUS
10
2.26949
20
-1.5372
11
2.26949
21
-1.51821
0
LINE
8
BLACK
6
CONTINUOUS
10
2.26949
20
-1.51821
11
2.26978
21
-1.51751
0
LINE
8
BLACK
6
CONTINUOUS
10
2.26978
20
-1.51751
11
2.27047
21
-1.51722
0
LINE
8
BLACK
6
CONTINUOUS
10
2.27047
20
-1.51722
11
2.40433
21
-1.51722
0
LINE
8
BLACK
6
CONTINUOUS
10
2.13986
20
-1.62185
11
2.13986
21
-1.69469
0
LINE
8
BLACK
6
CONTINUOUS
10
2.13986
20
-1.69469
11
2.27018
21
-1.69469
0
LINE
8
BLACK
6
CONTINUOUS
10
2.27018
20
-1.69469
11
2.27018
21
-1.67025
0
LINE
8
BLACK
6
CONTINUOUS
10
2.27018
20
-1.67025
11
2.26978
21
-1.67009
0
LINE
8
BLACK
6
CONTINUOUS
10
2.26978
20
-1.67009
11
2.26949
21
-1.66939
0
LINE
8
BLACK
6
CONTINUOUS
10
2.26949
20
-1.66939
11
2.26949
21
-1.62185
0
LINE
8
BLACK
6
CONTINUOUS
10
2.26949
20
-1.62185
11
2.13986
21
-1.62185
0
LINE
8
BLACK
6
CONTINUOUS
10
2.27146
20
-1.51919
11
2.27146
21
-1.53733
0
LINE
8
BLACK
6
CONTINUOUS
10
2.27146
20
-1.53733
11
2.27186
21
-1.53749
0
LINE
8
BLACK
6
CONTINUOUS
10
2.27186
20
-1.53749
11
2.27215
21
-1.53819
0
LINE
8
BLACK
6
CONTINUOUS
10
2.27215
20
-1.53819
11
2.27215
21
-1.61299
0
LINE
8
BLACK
6
CONTINUOUS
10
2.27215
20
-1.61299
11
2.27186
21
-1.61369
0
LINE
8
BLACK
6
CONTINUOUS
10
2.27186
20
-1.61369
11
2.27146
21
-1.61385
0
LINE
8
BLACK
6
CONTINUOUS
10
2.27146
20
-1.61385
11
2.27146
21
-1.62
0
LINE
8
BLACK
6
CONTINUOUS
10
2.27146
20
-1.62
11
2.27186
21
-1.62017
0
LINE
8
BLACK
6
CONTINUOUS
10
2.27186
20
-1.62017
11
2.27215
21
-1.62087
0
LINE
8
BLACK
6
CONTINUOUS
10
2.27215
20
-1.62087
11
2.27215
21
-1.66841
0
LINE
8
BLACK
6
CONTINUOUS
10
2.27215
20
-1.66841
11
2.40335
21
-1.66841
0
LINE
8
BLACK
6
CONTINUOUS
10
2.40335
20
-1.66841
11
2.40335
21
-1.51919
0
LINE
8
BLACK
6
CONTINUOUS
10
2.40335
20
-1.51919
11
2.27146
21
-1.51919
0
LINE
8
BLACK
6
CONTINUOUS
10
2.13986
20
-1.53917
11
2.13986
21
-1.61201
0
LINE
8
BLACK
6
CONTINUOUS
10
2.13986
20
-1.61201
11
2.26949
21
-1.61201
0
LINE
8
BLACK
6
CONTINUOUS
10
2.26949
20
-1.61201
11
2.26949
21
-1.53917
0
LINE
8
BLACK
6
CONTINUOUS
10
2.26949
20
-1.53917
11
2.13986
21
-1.53917
0
LINE
8
BLACK
6
CONTINUOUS
10
1.36877
20
-1.53496
11
1.46231
21
-1.62849
0
LINE
8
BLACK
6
CONTINUOUS
10
1.46231
20
-1.62849
11
1.46231
21
-1.62849
0
LINE
8
BLACK
6
CONTINUOUS
10
1.46231
20
-1.62849
11
1.4626
21
-1.62919
0
LINE
8
BLACK
6
CONTINUOUS
10
1.4626
20
-1.62919
11
1.46231
21
-1.62989
0
LINE
8
BLACK
6
CONTINUOUS
10
1.46231
20
-1.62989
11
1.40941
21
-1.68278
0
LINE
8
BLACK
6
CONTINUOUS
10
1.40941
20
-1.68278
11
1.40872
21
-1.68307
0
LINE
8
BLACK
6
CONTINUOUS
10
1.40872
20
-1.68307
11
1.40802
21
-1.68278
0
LINE
8
BLACK
6
CONTINUOUS
10
1.40802
20
-1.68278
11
1.40802
21
-1.68278
0
LINE
8
BLACK
6
CONTINUOUS
10
1.40802
20
-1.68278
11
1.31448
21
-1.58924
0
LINE
8
BLACK
6
CONTINUOUS
10
1.31448
20
-1.58924
11
1.31419
21
-1.58855
0
LINE
8
BLACK
6
CONTINUOUS
10
1.31419
20
-1.58855
11
1.31448
21
-1.58785
0
LINE
8
BLACK
6
CONTINUOUS
10
1.31448
20
-1.58785
11
1.31448
21
-1.58785
0
LINE
8
BLACK
6
CONTINUOUS
10
1.31448
20
-1.58785
11
1.36738
21
-1.53496
0
LINE
8
BLACK
6
CONTINUOUS
10
1.36738
20
-1.53496
11
1.36807
21
-1.53467
0
LINE
8
BLACK
6
CONTINUOUS
10
1.36807
20
-1.53467
11
1.36877
21
-1.53496
0
LINE
8
BLACK
6
CONTINUOUS
10
1.31657
20
-1.58855
11
1.40872
21
-1.68069
0
LINE
8
BLACK
6
CONTINUOUS
10
1.40872
20
-1.68069
11
1.46022
21
-1.62919
0
LINE
8
BLACK
6
CONTINUOUS
10
1.46022
20
-1.62919
11
1.36807
21
-1.53704
0
LINE
8
BLACK
6
CONTINUOUS
10
1.36807
20
-1.53704
11
1.31657
21
-1.58855
0
LINE
8
BLACK
6
CONTINUOUS
10
1.45145
20
-1.5074
11
1.54498
21
-1.60093
0
LINE
8
BLACK
6
CONTINUOUS
10
1.54498
20
-1.60093
11
1.54498
21
-1.60093
0
LINE
8
BLACK
6
CONTINUOUS
10
1.54498
20
-1.60093
11
1.54527
21
-1.60163
0
LINE
8
BLACK
6
CONTINUOUS
10
1.54527
20
-1.60163
11
1.54498
21
-1.60233
0
LINE
8
BLACK
6
CONTINUOUS
10
1.54498
20
-1.60233
11
1.49209
21
-1.65522
0
LINE
8
BLACK
6
CONTINUOUS
10
1.49209
20
-1.65522
11
1.49139
21
-1.65551
0
LINE
8
BLACK
6
CONTINUOUS
10
1.49139
20
-1.65551
11
1.4907
21
-1.65522
0
LINE
8
BLACK
6
CONTINUOUS
10
1.4907
20
-1.65522
11
1.4907
21
-1.65522
0
LINE
8
BLACK
6
CONTINUOUS
10
1.4907
20
-1.65522
11
1.39716
21
-1.56168
0
LINE
8
BLACK
6
CONTINUOUS
10
1.39716
20
-1.56168
11
1.39687
21
-1.56099
0
LINE
8
BLACK
6
CONTINUOUS
10
1.39687
20
-1.56099
11
1.39716
21
-1.56029
0
LINE
8
BLACK
6
CONTINUOUS
10
1.39716
20
-1.56029
11
1.39716
21
-1.56029
0
LINE
8
BLACK
6
CONTINUOUS
10
1.39716
20
-1.56029
11
1.45005
21
-1.5074
0
LINE
8
BLACK
6
CONTINUOUS
10
1.45005
20
-1.5074
11
1.45075
21
-1.50711
0
LINE
8
BLACK
6
CONTINUOUS
10
1.45075
20
-1.50711
11
1.45145
21
-1.5074
0
LINE
8
BLACK
6
CONTINUOUS
10
1.39925
20
-1.56099
11
1.49139
21
-1.65313
0
LINE
8
BLACK
6
CONTINUOUS
10
1.49139
20
-1.65313
11
1.5429
21
-1.60163
0
LINE
8
BLACK
6
CONTINUOUS
10
1.5429
20
-1.60163
11
1.45075
21
-1.50948
0
LINE
8
BLACK
6
CONTINUOUS
10
1.45075
20
-1.50948
11
1.39925
21
-1.56099
0
LINE
8
BLACK
6
CONTINUOUS
10
2.05315
20
-1.56634
11
2.05385
21
-1.56663
0
LINE
8
BLACK
6
CONTINUOUS
10
2.05385
20
-1.56663
11
2.05413
21
-1.56732
0
LINE
8
BLACK
6
CONTINUOUS
10
2.05413
20
-1.56732
11
2.05413
21
-1.64449
0
LINE
8
BLACK
6
CONTINUOUS
10
2.05413
20
-1.64449
11
2.05385
21
-1.64518
0
LINE
8
BLACK
6
CONTINUOUS
10
2.05385
20
-1.64518
11
2.05315
21
-1.64547
0
LINE
8
BLACK
6
CONTINUOUS
10
2.05315
20
-1.64547
11
1.91929
21
-1.64547
0
LINE
8
BLACK
6
CONTINUOUS
10
1.91929
20
-1.64547
11
1.9186
21
-1.64518
0
LINE
8
BLACK
6
CONTINUOUS
10
1.9186
20
-1.64518
11
1.91831
21
-1.64449
0
LINE
8
BLACK
6
CONTINUOUS
10
1.91831
20
-1.64449
11
1.91831
21
-1.56732
0
LINE
8
BLACK
6
CONTINUOUS
10
1.91831
20
-1.56732
11
1.9186
21
-1.56663
0
LINE
8
BLACK
6
CONTINUOUS
10
1.9186
20
-1.56663
11
1.91929
21
-1.56634
0
LINE
8
BLACK
6
CONTINUOUS
10
1.91929
20
-1.56634
11
2.05315
21
-1.56634
0
LINE
8
BLACK
6
CONTINUOUS
10
1.92028
20
-1.56831
11
1.92028
21
-1.6435
0
LINE
8
BLACK
6
CONTINUOUS
10
1.92028
20
-1.6435
11
2.05217
21
-1.6435
0
LINE
8
BLACK
6
CONTINUOUS
10
2.05217
20
-1.6435
11
2.05217
21
-1.56831
0
LINE
8
BLACK
6
CONTINUOUS
10
2.05217
20
-1.56831
11
1.92028
21
-1.56831
0
LINE
8
BLACK
6
CONTINUOUS
10
1.29104
20
-1.55217
11
1.29174
21
-1.55245
0
LINE
8
BLACK
6
CONTINUOUS
10
1.29174
20
-1.55245
11
1.29203
21
-1.55315
0
LINE
8
BLACK
6
CONTINUOUS
10
1.29203
20
-1.55315
11
1.29203
21
-1.62795
0
LINE
8
BLACK
6
CONTINUOUS
10
1.29203
20
-1.62795
11
1.29174
21
-1.62865
0
LINE
8
BLACK
6
CONTINUOUS
10
1.29174
20
-1.62865
11
1.29104
21
-1.62894
0
LINE
8
BLACK
6
CONTINUOUS
10
1.29104
20
-1.62894
11
1.15876
21
-1.62894
0
LINE
8
BLACK
6
CONTINUOUS
10
1.15876
20
-1.62894
11
1.15806
21
-1.62865
0
LINE
8
BLACK
6
CONTINUOUS
10
1.15806
20
-1.62865
11
1.15778
21
-1.62795
0
LINE
8
BLACK
6
CONTINUOUS
10
1.15778
20
-1.62795
11
1.15778
21
-1.55315
0
LINE
8
BLACK
6
CONTINUOUS
10
1.15778
20
-1.55315
11
1.15806
21
-1.55245
0
LINE
8
BLACK
6
CONTINUOUS
10
1.15806
20
-1.55245
11
1.15876
21
-1.55217
0
LINE
8
BLACK
6
CONTINUOUS
10
1.15876
20
-1.55217
11
1.29104
21
-1.55217
0
LINE
8
BLACK
6
CONTINUOUS
10
1.15974
20
-1.55413
11
1.15974
21
-1.62697
0
LINE
8
BLACK
6
CONTINUOUS
10
1.15974
20
-1.62697
11
1.29006
21
-1.62697
0
LINE
8
BLACK
6
CONTINUOUS
10
1.29006
20
-1.62697
11
1.29006
21
-1.55413
0
LINE
8
BLACK
6
CONTINUOUS
10
1.29006
20
-1.55413
11
1.15974
21
-1.55413
0
LINE
8
BLACK
6
CONTINUOUS
10
1.11614
20
-1.51949
11
1.11684
21
-1.51978
0
LINE
8
BLACK
6
CONTINUOUS
10
1.11684
20
-1.51978
11
1.11713
21
-1.52047
0
LINE
8
BLACK
6
CONTINUOUS
10
1.11713
20
-1.52047
11
1.11713
21
-1.59764
0
LINE
8
BLACK
6
CONTINUOUS
10
1.11713
20
-1.59764
11
1.11684
21
-1.59833
0
LINE
8
BLACK
6
CONTINUOUS
10
1.11684
20
-1.59833
11
1.11614
21
-1.59862
0
LINE
8
BLACK
6
CONTINUOUS
10
1.11614
20
-1.59862
11
0.982283
21
-1.59862
0
LINE
8
BLACK
6
CONTINUOUS
10
0.982283
20
-1.59862
11
0.981587
21
-1.59833
0
LINE
8
BLACK
6
CONTINUOUS
10
0.981587
20
-1.59833
11
0.981299
21
-1.59764
0
LINE
8
BLACK
6
CONTINUOUS
10
0.981299
20
-1.59764
11
0.981299
21
-1.52047
0
LINE
8
BLACK
6
CONTINUOUS
10
0.981299
20
-1.52047
11
0.981587
21
-1.51978
0
LINE
8
BLACK
6
CONTINUOUS
10
0.981587
20
-1.51978
11
0.982283
21
-1.51949
0
LINE
8
BLACK
6
CONTINUOUS
10
0.982283
20
-1.51949
11
1.11614
21
-1.51949
0
LINE
8
BLACK
6
CONTINUOUS
10
0.983268
20
-1.52146
11
0.983268
21
-1.59665
0
LINE
8
BLACK
6
CONTINUOUS
10
0.983268
20
-1.59665
11
1.11516
21
-1.59665
0
LINE
8
BLACK
6
CONTINUOUS
10
1.11516
20
-1.59665
11
1.11516
21
-1.52146
0
LINE
8
BLACK
6
CONTINUOUS
10
1.11516
20
-1.52146
11
0.983268
21
-1.52146
0
LINE
8
BLACK
6
CONTINUOUS
10
2.7126
20
-1.13287
11
2.71329
21
-1.13316
0
LINE
8
BLACK
6
CONTINUOUS
10
2.71329
20
-1.13316
11
2.71358
21
-1.13386
0
LINE
8
BLACK
6
CONTINUOUS
10
2.71358
20
-1.13386
11
2.71358
21
-1.5748
0
LINE
8
BLACK
6
CONTINUOUS
10
2.71358
20
-1.5748
11
2.71329
21
-1.5755
0
LINE
8
BLACK
6
CONTINUOUS
10
2.71329
20
-1.5755
11
2.7126
21
-1.57579
0
LINE
8
BLACK
6
CONTINUOUS
10
2.7126
20
-1.57579
11
2.57087
21
-1.57579
0
LINE
8
BLACK
6
CONTINUOUS
10
2.57087
20
-1.57579
11
2.57017
21
-1.5755
0
LINE
8
BLACK
6
CONTINUOUS
10
2.57017
20
-1.5755
11
2.56988
21
-1.5748
0
LINE
8
BLACK
6
CONTINUOUS
10
2.56988
20
-1.5748
11
2.56988
21
-1.13386
0
LINE
8
BLACK
6
CONTINUOUS
10
2.56988
20
-1.13386
11
2.57017
21
-1.13316
0
LINE
8
BLACK
6
CONTINUOUS
10
2.57017
20
-1.13316
11
2.57087
21
-1.13287
0
LINE
8
BLACK
6
CONTINUOUS
10
2.57087
20
-1.13287
11
2.7126
21
-1.13287
0
LINE
8
BLACK
6
CONTINUOUS
10
2.57185
20
-1.13484
11
2.57185
21
-1.57382
0
LINE
8
BLACK
6
CONTINUOUS
10
2.57185
20
-1.57382
11
2.71161
21
-1.57382
0
LINE
8
BLACK
6
CONTINUOUS
10
2.71161
20
-1.57382
11
2.71161
21
-1.13484
0
LINE
8
BLACK
6
CONTINUOUS
10
2.71161
20
-1.13484
11
2.57185
21
-1.13484
0
LINE
8
BLACK
6
CONTINUOUS
10
0.889764
20
-1.40531
11
0.89046
21
-1.4056
0
LINE
8
BLACK
6
CONTINUOUS
10
0.89046
20
-1.4056
11
0.890748
21
-1.4063
0
LINE
8
BLACK
6
CONTINUOUS
10
0.890748
20
-1.4063
11
0.890748
21
-1.54016
0
LINE
8
BLACK
6
CONTINUOUS
10
0.890748
20
-1.54016
11
0.89046
21
-1.54085
0
LINE
8
BLACK
6
CONTINUOUS
10
0.89046
20
-1.54085
11
0.889764
21
-1.54114
0
LINE
8
BLACK
6
CONTINUOUS
10
0.889764
20
-1.54114
11
0.812598
21
-1.54114
0
LINE
8
BLACK
6
CONTINUOUS
10
0.812598
20
-1.54114
11
0.811902
21
-1.54085
0
LINE
8
BLACK
6
CONTINUOUS
10
0.811902
20
-1.54085
11
0.811614
21
-1.54016
0
LINE
8
BLACK
6
CONTINUOUS
10
0.811614
20
-1.54016
11
0.811614
21
-1.54016
0
LINE
8
BLACK
6
CONTINUOUS
10
0.811614
20
-1.54016
11
0.811614
21
-1.4063
0
LINE
8
BLACK
6
CONTINUOUS
10
0.811614
20
-1.4063
11
0.811902
21
-1.4056
0
LINE
8
BLACK
6
CONTINUOUS
10
0.811902
20
-1.4056
11
0.812598
21
-1.40531
0
LINE
8
BLACK
6
CONTINUOUS
10
0.812598
20
-1.40531
11
0.889764
21
-1.40531
0
LINE
8
BLACK
6
CONTINUOUS
10
0.813583
20
-1.40728
11
0.813583
21
-1.53917
0
LINE
8
BLACK
6
CONTINUOUS
10
0.813583
20
-1.53917
11
0.88878
21
-1.53917
0
LINE
8
BLACK
6
CONTINUOUS
10
0.88878
20
-1.53917
11
0.88878
21
-1.40728
0
LINE
8
BLACK
6
CONTINUOUS
10
0.88878
20
-1.40728
11
0.813583
21
-1.40728
0
LINE
8
BLACK
6
CONTINUOUS
10
1.96614
20
-1.19862
11
1.96684
21
-1.19891
0
LINE
8
BLACK
6
CONTINUOUS
10
1.96684
20
-1.19891
11
1.96713
21
-1.19961
0
LINE
8
BLACK
6
CONTINUOUS
10
1.96713
20
-1.19961
11
1.96713
21
-1.52402
0
LINE
8
BLACK
6
CONTINUOUS
10
1.96713
20
-1.52402
11
1.96684
21
-1.52471
0
LINE
8
BLACK
6
CONTINUOUS
10
1.96684
20
-1.52471
11
1.96614
21
-1.525
0
LINE
8
BLACK
6
CONTINUOUS
10
1.96614
20
-1.525
11
1.64173
21
-1.525
0
LINE
8
BLACK
6
CONTINUOUS
10
1.64173
20
-1.525
11
1.64104
21
-1.52471
0
LINE
8
BLACK
6
CONTINUOUS
10
1.64104
20
-1.52471
11
1.64075
21
-1.52402
0
LINE
8
BLACK
6
CONTINUOUS
10
1.64075
20
-1.52402
11
1.64075
21
-1.52402
0
LINE
8
BLACK
6
CONTINUOUS
10
1.64075
20
-1.52402
11
1.64075
21
-1.19961
0
LINE
8
BLACK
6
CONTINUOUS
10
1.64075
20
-1.19961
11
1.64104
21
-1.19891
0
LINE
8
BLACK
6
CONTINUOUS
10
1.64104
20
-1.19891
11
1.64173
21
-1.19862
0
LINE
8
BLACK
6
CONTINUOUS
10
1.64173
20
-1.19862
11
1.96614
21
-1.19862
0
LINE
8
BLACK
6
CONTINUOUS
10
1.64272
20
-1.20059
11
1.64272
21
-1.52303
0
LINE
8
BLACK
6
CONTINUOUS
10
1.64272
20
-1.52303
11
1.96516
21
-1.52303
0
LINE
8
BLACK
6
CONTINUOUS
10
1.96516
20
-1.52303
11
1.96516
21
-1.20059
0
LINE
8
BLACK
6
CONTINUOUS
10
1.96516
20
-1.20059
11
1.64272
21
-1.20059
0
LINE
8
BLACK
6
CONTINUOUS
10
2.29449
20
-1.37303
11
2.29518
21
-1.37332
0
LINE
8
BLACK
6
CONTINUOUS
10
2.29518
20
-1.37332
11
2.29547
21
-1.37402
0
LINE
8
BLACK
6
CONTINUOUS
10
2.29547
20
-1.37402
11
2.29547
21
-1.50787
0
LINE
8
BLACK
6
CONTINUOUS
10
2.29547
20
-1.50787
11
2.29518
21
-1.50857
0
LINE
8
BLACK
6
CONTINUOUS
10
2.29518
20
-1.50857
11
2.29449
21
-1.50886
0
LINE
8
BLACK
6
CONTINUOUS
10
2.29449
20
-1.50886
11
2.21732
21
-1.50886
0
LINE
8
BLACK
6
CONTINUOUS
10
2.21732
20
-1.50886
11
2.21663
21
-1.50857
0
LINE
8
BLACK
6
CONTINUOUS
10
2.21663
20
-1.50857
11
2.21634
21
-1.50787
0
LINE
8
BLACK
6
CONTINUOUS
10
2.21634
20
-1.50787
11
2.21634
21
-1.50787
0
LINE
8
BLACK
6
CONTINUOUS
10
2.21634
20
-1.50787
11
2.21634
21
-1.37402
0
LINE
8
BLACK
6
CONTINUOUS
10
2.21634
20
-1.37402
11
2.21663
21
-1.37332
0
LINE
8
BLACK
6
CONTINUOUS
10
2.21663
20
-1.37332
11
2.21732
21
-1.37303
0
LINE
8
BLACK
6
CONTINUOUS
10
2.21732
20
-1.37303
11
2.29449
21
-1.37303
0
LINE
8
BLACK
6
CONTINUOUS
10
2.21831
20
-1.375
11
2.21831
21
-1.50689
0
LINE
8
BLACK
6
CONTINUOUS
10
2.21831
20
-1.50689
11
2.2935
21
-1.50689
0
LINE
8
BLACK
6
CONTINUOUS
10
2.2935
20
-1.50689
11
2.2935
21
-1.375
0
LINE
8
BLACK
6
CONTINUOUS
10
2.2935
20
-1.375
11
2.21831
21
-1.375
0
LINE
8
BLACK
6
CONTINUOUS
10
2.20079
20
-1.42894
11
2.20148
21
-1.42923
0
LINE
8
BLACK
6
CONTINUOUS
10
2.20148
20
-1.42923
11
2.20177
21
-1.42992
0
LINE
8
BLACK
6
CONTINUOUS
10
2.20177
20
-1.42992
11
2.20177
21
-1.50709
0
LINE
8
BLACK
6
CONTINUOUS
10
2.20177
20
-1.50709
11
2.20148
21
-1.50778
0
LINE
8
BLACK
6
CONTINUOUS
10
2.20148
20
-1.50778
11
2.20079
21
-1.50807
0
LINE
8
BLACK
6
CONTINUOUS
10
2.20079
20
-1.50807
11
2.06693
21
-1.50807
0
LINE
8
BLACK
6
CONTINUOUS
10
2.06693
20
-1.50807
11
2.06623
21
-1.50778
0
LINE
8
BLACK
6
CONTINUOUS
10
2.06623
20
-1.50778
11
2.06594
21
-1.50709
0
LINE
8
BLACK
6
CONTINUOUS
10
2.06594
20
-1.50709
11
2.06594
21
-1.42992
0
LINE
8
BLACK
6
CONTINUOUS
10
2.06594
20
-1.42992
11
2.06623
21
-1.42923
0
LINE
8
BLACK
6
CONTINUOUS
10
2.06623
20
-1.42923
11
2.06693
21
-1.42894
0
LINE
8
BLACK
6
CONTINUOUS
10
2.06693
20
-1.42894
11
2.20079
21
-1.42894
0
LINE
8
BLACK
6
CONTINUOUS
10
2.06791
20
-1.43091
11
2.06791
21
-1.5061
0
LINE
8
BLACK
6
CONTINUOUS
10
2.06791
20
-1.5061
11
2.1998
21
-1.5061
0
LINE
8
BLACK
6
CONTINUOUS
10
2.1998
20
-1.5061
11
2.1998
21
-1.43091
0
LINE
8
BLACK
6
CONTINUOUS
10
2.1998
20
-1.43091
11
2.06791
21
-1.43091
0
LINE
8
BLACK
6
CONTINUOUS
10
1.15748
20
-1.09941
11
1.2815
21
-1.09941
0
LINE
8
BLACK
6
CONTINUOUS
10
1.2815
20
-1.09941
11
1.28219
21
-1.0997
0
LINE
8
BLACK
6
CONTINUOUS
10
1.28219
20
-1.0997
11
1.28248
21
-1.10039
0
LINE
8
BLACK
6
CONTINUOUS
10
1.28248
20
-1.10039
11
1.28248
21
-1.15453
0
LINE
8
BLACK
6
CONTINUOUS
10
1.28248
20
-1.15453
11
1.30512
21
-1.15453
0
LINE
8
BLACK
6
CONTINUOUS
10
1.30512
20
-1.15453
11
1.30581
21
-1.15482
0
LINE
8
BLACK
6
CONTINUOUS
10
1.30581
20
-1.15482
11
1.3061
21
-1.15551
0
LINE
8
BLACK
6
CONTINUOUS
10
1.3061
20
-1.15551
11
1.3061
21
-1.17815
0
LINE
8
BLACK
6
CONTINUOUS
10
1.3061
20
-1.17815
11
1.36024
21
-1.17815
0
LINE
8
BLACK
6
CONTINUOUS
10
1.36024
20
-1.17815
11
1.36093
21
-1.17844
0
LINE
8
BLACK
6
CONTINUOUS
10
1.36093
20
-1.17844
11
1.36122
21
-1.17913
0
LINE
8
BLACK
6
CONTINUOUS
10
1.36122
20
-1.17913
11
1.36122
21
-1.30315
0
LINE
8
BLACK
6
CONTINUOUS
10
1.36122
20
-1.30315
11
1.36122
21
-1.30315
0
LINE
8
BLACK
6
CONTINUOUS
10
1.36122
20
-1.30315
11
1.36122
21
-1.42717
0
LINE
8
BLACK
6
CONTINUOUS
10
1.36122
20
-1.42717
11
1.36093
21
-1.42786
0
LINE
8
BLACK
6
CONTINUOUS
10
1.36093
20
-1.42786
11
1.36024
21
-1.42815
0
LINE
8
BLACK
6
CONTINUOUS
10
1.36024
20
-1.42815
11
1.3061
21
-1.42815
0
LINE
8
BLACK
6
CONTINUOUS
10
1.3061
20
-1.42815
11
1.3061
21
-1.45079
0
LINE
8
BLACK
6
CONTINUOUS
10
1.3061
20
-1.45079
11
1.30581
21
-1.45148
0
LINE
8
BLACK
6
CONTINUOUS
10
1.30581
20
-1.45148
11
1.30512
21
-1.45177
0
LINE
8
BLACK
6
CONTINUOUS
10
1.30512
20
-1.45177
11
1.28248
21
-1.45177
0
LINE
8
BLACK
6
CONTINUOUS
10
1.28248
20
-1.45177
11
1.28248
21
-1.50591
0
LINE
8
BLACK
6
CONTINUOUS
10
1.28248
20
-1.50591
11
1.28219
21
-1.5066
0
LINE
8
BLACK
6
CONTINUOUS
10
1.28219
20
-1.5066
11
1.2815
21
-1.50689
0
LINE
8
BLACK
6
CONTINUOUS
10
1.2815
20
-1.50689
11
1.15748
21
-1.50689
0
LINE
8
BLACK
6
CONTINUOUS
10
1.15748
20
-1.50689
11
1.03346
21
-1.50689
0
LINE
8
BLACK
6
CONTINUOUS
10
1.03346
20
-1.50689
11
1.03277
21
-1.5066
0
LINE
8
BLACK
6
CONTINUOUS
10
1.03277
20
-1.5066
11
1.03248
21
-1.50591
0
LINE
8
BLACK
6
CONTINUOUS
10
1.03248
20
-1.50591
11
1.03248
21
-1.45177
0
LINE
8
BLACK
6
CONTINUOUS
10
1.03248
20
-1.45177
11
1.00984
21
-1.45177
0
LINE
8
BLACK
6
CONTINUOUS
10
1.00984
20
-1.45177
11
1.00915
21
-1.45148
0
LINE
8
BLACK
6
CONTINUOUS
10
1.00915
20
-1.45148
11
1.00886
21
-1.45079
0
LINE
8
BLACK
6
CONTINUOUS
10
1.00886
20
-1.45079
11
1.00886
21
-1.42815
0
LINE
8
BLACK
6
CONTINUOUS
10
1.00886
20
-1.42815
11
0.954724
21
-1.42815
0
LINE
8
BLACK
6
CONTINUOUS
10
0.954724
20
-1.42815
11
0.954028
21
-1.42786
0
LINE
8
BLACK
6
CONTINUOUS
10
0.954028
20
-1.42786
11
0.95374
21
-1.42717
0
LINE
8
BLACK
6
CONTINUOUS
10
0.95374
20
-1.42717
11
0.95374
21
-1.30315
0
LINE
8
BLACK
6
CONTINUOUS
10
0.95374
20
-1.30315
11
0.95374
21
-1.17913
0
LINE
8
BLACK
6
CONTINUOUS
10
0.95374
20
-1.17913
11
0.954028
21
-1.17844
0
LINE
8
BLACK
6
CONTINUOUS
10
0.954028
20
-1.17844
11
0.954724
21
-1.17815
0
LINE
8
BLACK
6
CONTINUOUS
10
0.954724
20
-1.17815
11
1.00886
21
-1.17815
0
LINE
8
BLACK
6
CONTINUOUS
10
1.00886
20
-1.17815
11
1.00886
21
-1.15551
0
LINE
8
BLACK
6
CONTINUOUS
10
1.00886
20
-1.15551
11
1.00915
21
-1.15482
0
LINE
8
BLACK
6
CONTINUOUS
10
1.00915
20
-1.15482
11
1.00984
21
-1.15453
0
LINE
8
BLACK
6
CONTINUOUS
10
1.00984
20
-1.15453
11
1.03248
21
-1.15453
0
LINE
8
BLACK
6
CONTINUOUS
10
1.03248
20
-1.15453
11
1.03248
21
-1.10039
0
LINE
8
BLACK
6
CONTINUOUS
10
1.03248
20
-1.10039
11
1.03277
21
-1.0997
0
LINE
8
BLACK
6
CONTINUOUS
10
1.03277
20
-1.0997
11
1.03346
21
-1.09941
0
LINE
8
BLACK
6
CONTINUOUS
10
1.03346
20
-1.09941
11
1.15748
21
-1.09941
0
LINE
8
BLACK
6
CONTINUOUS
10
1.03445
20
-1.10138
11
1.03445
21
-1.15551
0
LINE
8
BLACK
6
CONTINUOUS
10
1.03445
20
-1.15551
11
1.03416
21
-1.15621
0
LINE
8
BLACK
6
CONTINUOUS
10
1.03416
20
-1.15621
11
1.03346
21
-1.1565
0
LINE
8
BLACK
6
CONTINUOUS
10
1.03346
20
-1.1565
11
1.01083
21
-1.1565
0
LINE
8
BLACK
6
CONTINUOUS
10
1.01083
20
-1.1565
11
1.01083
21
-1.17913
0
LINE
8
BLACK
6
CONTINUOUS
10
1.01083
20
-1.17913
11
1.01054
21
-1.17983
0
LINE
8
BLACK
6
CONTINUOUS
10
1.01054
20
-1.17983
11
1.00984
21
-1.18012
0
LINE
8
BLACK
6
CONTINUOUS
10
1.00984
20
-1.18012
11
0.955709
21
-1.18012
0
LINE
8
BLACK
6
CONTINUOUS
10
0.955709
20
-1.18012
11
0.955709
21
-1.30315
0
LINE
8
BLACK
6
CONTINUOUS
10
0.955709
20
-1.30315
11
0.955709
21
-1.30315
0
LINE
8
BLACK
6
CONTINUOUS
10
0.955709
20
-1.30315
11
0.955709
21
-1.42618
0
LINE
8
BLACK
6
CONTINUOUS
10
0.955709
20
-1.42618
11
1.00984
21
-1.42618
0
LINE
8
BLACK
6
CONTINUOUS
10
1.00984
20
-1.42618
11
1.01054
21
-1.42647
0
LINE
8
BLACK
6
CONTINUOUS
10
1.01054
20
-1.42647
11
1.01083
21
-1.42717
0
LINE
8
BLACK
6
CONTINUOUS
10
1.01083
20
-1.42717
11
1.01083
21
-1.4498
0
LINE
8
BLACK
6
CONTINUOUS
10
1.01083
20
-1.4498
11
1.03346
21
-1.4498
0
LINE
8
BLACK
6
CONTINUOUS
10
1.03346
20
-1.4498
11
1.03416
21
-1.45009
0
LINE
8
BLACK
6
CONTINUOUS
10
1.03416
20
-1.45009
11
1.03445
21
-1.45079
0
LINE
8
BLACK
6
CONTINUOUS
10
1.03445
20
-1.45079
11
1.03445
21
-1.50492
0
LINE
8
BLACK
6
CONTINUOUS
10
1.03445
20
-1.50492
11
1.15748
21
-1.50492
0
LINE
8
BLACK
6
CONTINUOUS
10
1.15748
20
-1.50492
11
1.28051
21
-1.50492
0
LINE
8
BLACK
6
CONTINUOUS
10
1.28051
20
-1.50492
11
1.28051
21
-1.45079
0
LINE
8
BLACK
6
CONTINUOUS
10
1.28051
20
-1.45079
11
1.2808
21
-1.45009
0
LINE
8
BLACK
6
CONTINUOUS
10
1.2808
20
-1.45009
11
1.2815
21
-1.4498
0
LINE
8
BLACK
6
CONTINUOUS
10
1.2815
20
-1.4498
11
1.30413
21
-1.4498
0
LINE
8
BLACK
6
CONTINUOUS
10
1.30413
20
-1.4498
11
1.30413
21
-1.42717
0
LINE
8
BLACK
6
CONTINUOUS
10
1.30413
20
-1.42717
11
1.30442
21
-1.42647
0
LINE
8
BLACK
6
CONTINUOUS
10
1.30442
20
-1.42647
11
1.30512
21
-1.42618
0
LINE
8
BLACK
6
CONTINUOUS
10
1.30512
20
-1.42618
11
1.35925
21
-1.42618
0
LINE
8
BLACK
6
CONTINUOUS
10
1.35925
20
-1.42618
11
1.35925
21
-1.30315
0
LINE
8
BLACK
6
CONTINUOUS
10
1.35925
20
-1.30315
11
1.35925
21
-1.18012
0
LINE
8
BLACK
6
CONTINUOUS
10
1.35925
20
-1.18012
11
1.30512
21
-1.18012
0
LINE
8
BLACK
6
CONTINUOUS
10
1.30512
20
-1.18012
11
1.30442
21
-1.17983
0
LINE
8
BLACK
6
CONTINUOUS
10
1.30442
20
-1.17983
11
1.30413
21
-1.17913
0
LINE
8
BLACK
6
CONTINUOUS
10
1.30413
20
-1.17913
11
1.30413
21
-1.1565
0
LINE
8
BLACK
6
CONTINUOUS
10
1.30413
20
-1.1565
11
1.2815
21
-1.1565
0
LINE
8
BLACK
6
CONTINUOUS
10
1.2815
20
-1.1565
11
1.2808
21
-1.15621
0
LINE
8
BLACK
6
CONTINUOUS
10
1.2808
20
-1.15621
11
1.28051
21
-1.15551
0
LINE
8
BLACK
6
CONTINUOUS
10
1.28051
20
-1.15551
11
1.28051
21
-1.10138
0
LINE
8
BLACK
6
CONTINUOUS
10
1.28051
20
-1.10138
11
1.15748
21
-1.10138
0
LINE
8
BLACK
6
CONTINUOUS
10
1.15748
20
-1.10138
11
1.03445
21
-1.10138
0
LINE
8
BLACK
6
CONTINUOUS
10
1.54606
20
-1.41398
11
1.54676
21
-1.41426
0
LINE
8
BLACK
6
CONTINUOUS
10
1.54676
20
-1.41426
11
1.54705
21
-1.41496
0
LINE
8
BLACK
6
CONTINUOUS
10
1.54705
20
-1.41496
11
1.54705
21
-1.49213
0
LINE
8
BLACK
6
CONTINUOUS
10
1.54705
20
-1.49213
11
1.54676
21
-1.49282
0
LINE
8
BLACK
6
CONTINUOUS
10
1.54676
20
-1.49282
11
1.54606
21
-1.49311
0
LINE
8
BLACK
6
CONTINUOUS
10
1.54606
20
-1.49311
11
1.4122
21
-1.49311
0
LINE
8
BLACK
6
CONTINUOUS
10
1.4122
20
-1.49311
11
1.41151
21
-1.49282
0
LINE
8
BLACK
6
CONTINUOUS
10
1.41151
20
-1.49282
11
1.41122
21
-1.49213
0
LINE
8
BLACK
6
CONTINUOUS
10
1.41122
20
-1.49213
11
1.41122
21
-1.41496
0
LINE
8
BLACK
6
CONTINUOUS
10
1.41122
20
-1.41496
11
1.41151
21
-1.41426
0
LINE
8
BLACK
6
CONTINUOUS
10
1.41151
20
-1.41426
11
1.4122
21
-1.41398
0
LINE
8
BLACK
6
CONTINUOUS
10
1.4122
20
-1.41398
11
1.54606
21
-1.41398
0
LINE
8
BLACK
6
CONTINUOUS
10
1.41319
20
-1.41594
11
1.41319
21
-1.49114
0
LINE
8
BLACK
6
CONTINUOUS
10
1.41319
20
-1.49114
11
1.54508
21
-1.49114
0
LINE
8
BLACK
6
CONTINUOUS
10
1.54508
20
-1.49114
11
1.54508
21
-1.41594
0
LINE
8
BLACK
6
CONTINUOUS
10
1.54508
20
-1.41594
11
1.41319
21
-1.41594
0
LINE
8
BLACK
6
CONTINUOUS
10
2.38858
20
-1.34656
11
2.38928
21
-1.34684
0
LINE
8
BLACK
6
CONTINUOUS
10
2.38928
20
-1.34684
11
2.38957
21
-1.34754
0
LINE
8
BLACK
6
CONTINUOUS
10
2.38957
20
-1.34754
11
2.38957
21
-1.47982
0
LINE
8
BLACK
6
CONTINUOUS
10
2.38957
20
-1.47982
11
2.38928
21
-1.48052
0
LINE
8
BLACK
6
CONTINUOUS
10
2.38928
20
-1.48052
11
2.38858
21
-1.48081
0
LINE
8
BLACK
6
CONTINUOUS
10
2.38858
20
-1.48081
11
2.31378
21
-1.48081
0
LINE
8
BLACK
6
CONTINUOUS
10
2.31378
20
-1.48081
11
2.31308
21
-1.48052
0
LINE
8
BLACK
6
CONTINUOUS
10
2.31308
20
-1.48052
11
2.3128
21
-1.47982
0
LINE
8
BLACK
6
CONTINUOUS
10
2.3128
20
-1.47982
11
2.3128
21
-1.34754
0
LINE
8
BLACK
6
CONTINUOUS
10
2.3128
20
-1.34754
11
2.31308
21
-1.34684
0
LINE
8
BLACK
6
CONTINUOUS
10
2.31308
20
-1.34684
11
2.31378
21
-1.34656
0
LINE
8
BLACK
6
CONTINUOUS
10
2.31378
20
-1.34656
11
2.38858
21
-1.34656
0
LINE
8
BLACK
6
CONTINUOUS
10
2.31476
20
-1.34852
11
2.31476
21
-1.47884
0
LINE
8
BLACK
6
CONTINUOUS
10
2.31476
20
-1.47884
11
2.3876
21
-1.47884
0
LINE
8
BLACK
6
CONTINUOUS
10
2.3876
20
-1.47884
11
2.3876
21
-1.34852
0
LINE
8
BLACK
6
CONTINUOUS
10
2.3876
20
-1.34852
11
2.31476
21
-1.34852
0
LINE
8
BLACK
6
CONTINUOUS
10
2.47126
20
-1.34656
11
2.47196
21
-1.34684
0
LINE
8
BLACK
6
CONTINUOUS
10
2.47196
20
-1.34684
11
2.47224
21
-1.34754
0
LINE
8
BLACK
6
CONTINUOUS
10
2.47224
20
-1.34754
11
2.47224
21
-1.47982
0
LINE
8
BLACK
6
CONTINUOUS
10
2.47224
20
-1.47982
11
2.47196
21
-1.48052
0
LINE
8
BLACK
6
CONTINUOUS
10
2.47196
20
-1.48052
11
2.47126
21
-1.48081
0
LINE
8
BLACK
6
CONTINUOUS
10
2.47126
20
-1.48081
11
2.39646
21
-1.48081
0
LINE
8
BLACK
6
CONTINUOUS
10
2.39646
20
-1.48081
11
2.39576
21
-1.48052
0
LINE
8
BLACK
6
CONTINUOUS
10
2.39576
20
-1.48052
11
2.39547
21
-1.47982
0
LINE
8
BLACK
6
CONTINUOUS
10
2.39547
20
-1.47982
11
2.39547
21
-1.34754
0
LINE
8
BLACK
6
CONTINUOUS
10
2.39547
20
-1.34754
11
2.39576
21
-1.34684
0
LINE
8
BLACK
6
CONTINUOUS
10
2.39576
20
-1.34684
11
2.39646
21
-1.34656
0
LINE
8
BLACK
6
CONTINUOUS
10
2.39646
20
-1.34656
11
2.47126
21
-1.34656
0
LINE
8
BLACK
6
CONTINUOUS
10
2.39744
20
-1.34852
11
2.39744
21
-1.47884
0
LINE
8
BLACK
6
CONTINUOUS
10
2.39744
20
-1.47884
11
2.47028
21
-1.47884
0
LINE
8
BLACK
6
CONTINUOUS
10
2.47028
20
-1.47884
11
2.47028
21
-1.34852
0
LINE
8
BLACK
6
CONTINUOUS
10
2.47028
20
-1.34852
11
2.39744
21
-1.34852
0
LINE
8
BLACK
6
CONTINUOUS
10
2.21063
20
-1.29272
11
2.21133
21
-1.293
0
LINE
8
BLACK
6
CONTINUOUS
10
2.21133
20
-1.293
11
2.21161
21
-1.2937
0
LINE
8
BLACK
6
CONTINUOUS
10
2.21161
20
-1.2937
11
2.21161
21
-1.42598
0
LINE
8
BLACK
6
CONTINUOUS
10
2.21161
20
-1.42598
11
2.21133
21
-1.42668
0
LINE
8
BLACK
6
CONTINUOUS
10
2.21133
20
-1.42668
11
2.21063
21
-1.42697
0
LINE
8
BLACK
6
CONTINUOUS
10
2.21063
20
-1.42697
11
2.13583
21
-1.42697
0
LINE
8
BLACK
6
CONTINUOUS
10
2.13583
20
-1.42697
11
2.13513
21
-1.42668
0
LINE
8
BLACK
6
CONTINUOUS
10
2.13513
20
-1.42668
11
2.13484
21
-1.42598
0
LINE
8
BLACK
6
CONTINUOUS
10
2.13484
20
-1.42598
11
2.13484
21
-1.2937
0
LINE
8
BLACK
6
CONTINUOUS
10
2.13484
20
-1.2937
11
2.13513
21
-1.293
0
LINE
8
BLACK
6
CONTINUOUS
10
2.13513
20
-1.293
11
2.13583
21
-1.29272
0
LINE
8
BLACK
6
CONTINUOUS
10
2.13583
20
-1.29272
11
2.21063
21
-1.29272
0
LINE
8
BLACK
6
CONTINUOUS
10
2.13681
20
-1.29469
11
2.13681
21
-1.425
0
LINE
8
BLACK
6
CONTINUOUS
10
2.13681
20
-1.425
11
2.20965
21
-1.425
0
LINE
8
BLACK
6
CONTINUOUS
10
2.20965
20
-1.425
11
2.20965
21
-1.29469
0
LINE
8
BLACK
6
CONTINUOUS
10
2.20965
20
-1.29469
11
2.13681
21
-1.29469
0
LINE
8
BLACK
6
CONTINUOUS
10
2.13268
20
-1.29173
11
2.13337
21
-1.29202
0
LINE
8
BLACK
6
CONTINUOUS
10
2.13337
20
-1.29202
11
2.13366
21
-1.29272
0
LINE
8
BLACK
6
CONTINUOUS
10
2.13366
20
-1.29272
11
2.13366
21
-1.425
0
LINE
8
BLACK
6
CONTINUOUS
10
2.13366
20
-1.425
11
2.13337
21
-1.4257
0
LINE
8
BLACK
6
CONTINUOUS
10
2.13337
20
-1.4257
11
2.13268
21
-1.42598
0
LINE
8
BLACK
6
CONTINUOUS
10
2.13268
20
-1.42598
11
2.05787
21
-1.42598
0
LINE
8
BLACK
6
CONTINUOUS
10
2.05787
20
-1.42598
11
2.05718
21
-1.4257
0
LINE
8
BLACK
6
CONTINUOUS
10
2.05718
20
-1.4257
11
2.05689
21
-1.425
0
LINE
8
BLACK
6
CONTINUOUS
10
2.05689
20
-1.425
11
2.05689
21
-1.29272
0
LINE
8
BLACK
6
CONTINUOUS
10
2.05689
20
-1.29272
11
2.05718
21
-1.29202
0
LINE
8
BLACK
6
CONTINUOUS
10
2.05718
20
-1.29202
11
2.05787
21
-1.29173
0
LINE
8
BLACK
6
CONTINUOUS
10
2.05787
20
-1.29173
11
2.13268
21
-1.29173
0
LINE
8
BLACK
6
CONTINUOUS
10
2.05886
20
-1.2937
11
2.05886
21
-1.42402
0
LINE
8
BLACK
6
CONTINUOUS
10
2.05886
20
-1.42402
11
2.13169
21
-1.42402
0
LINE
8
BLACK
6
CONTINUOUS
10
2.13169
20
-1.42402
11
2.13169
21
-1.2937
0
LINE
8
BLACK
6
CONTINUOUS
10
2.13169
20
-1.2937
11
2.05886
21
-1.2937
0
LINE
8
BLACK
6
CONTINUOUS
10
0.801969
20
-1.28356
11
0.802664
21
-1.28385
0
LINE
8
BLACK
6
CONTINUOUS
10
0.802664
20
-1.28385
11
0.802953
21
-1.28455
0
LINE
8
BLACK
6
CONTINUOUS
10
0.802953
20
-1.28455
11
0.802953
21
-1.41683
0
LINE
8
BLACK
6
CONTINUOUS
10
0.802953
20
-1.41683
11
0.802664
21
-1.41753
0
LINE
8
BLACK
6
CONTINUOUS
10
0.802664
20
-1.41753
11
0.801969
21
-1.41781
0
LINE
8
BLACK
6
CONTINUOUS
10
0.801969
20
-1.41781
11
0.727165
21
-1.41781
0
LINE
8
BLACK
6
CONTINUOUS
10
0.727165
20
-1.41781
11
0.726469
21
-1.41753
0
LINE
8
BLACK
6
CONTINUOUS
10
0.726469
20
-1.41753
11
0.726181
21
-1.41683
0
LINE
8
BLACK
6
CONTINUOUS
10
0.726181
20
-1.41683
11
0.726181
21
-1.28455
0
LINE
8
BLACK
6
CONTINUOUS
10
0.726181
20
-1.28455
11
0.726469
21
-1.28385
0
LINE
8
BLACK
6
CONTINUOUS
10
0.726469
20
-1.28385
11
0.727165
21
-1.28356
0
LINE
8
BLACK
6
CONTINUOUS
10
0.727165
20
-1.28356
11
0.801969
21
-1.28356
0
LINE
8
BLACK
6
CONTINUOUS
10
0.72815
20
-1.28553
11
0.72815
21
-1.41585
0
LINE
8
BLACK
6
CONTINUOUS
10
0.72815
20
-1.41585
11
0.800984
21
-1.41585
0
LINE
8
BLACK
6
CONTINUOUS
10
0.800984
20
-1.41585
11
0.800984
21
-1.28553
0
LINE
8
BLACK
6
CONTINUOUS
10
0.800984
20
-1.28553
11
0.72815
21
-1.28553
0
LINE
8
BLACK
6
CONTINUOUS
10
0.889764
20
-1.25689
11
0.89046
21
-1.25718
0
LINE
8
BLACK
6
CONTINUOUS
10
0.89046
20
-1.25718
11
0.890748
21
-1.25787
0
LINE
8
BLACK
6
CONTINUOUS
10
0.890748
20
-1.25787
11
0.890748
21
-1.39173
0
LINE
8
BLACK
6
CONTINUOUS
10
0.890748
20
-1.39173
11
0.89046
21
-1.39243
0
LINE
8
BLACK
6
CONTINUOUS
10
0.89046
20
-1.39243
11
0.889764
21
-1.39272
0
LINE
8
BLACK
6
CONTINUOUS
10
0.889764
20
-1.39272
11
0.812598
21
-1.39272
0
LINE
8
BLACK
6
CONTINUOUS
10
0.812598
20
-1.39272
11
0.811902
21
-1.39243
0
LINE
8
BLACK
6
CONTINUOUS
10
0.811902
20
-1.39243
11
0.811614
21
-1.39173
0
LINE
8
BLACK
6
CONTINUOUS
10
0.811614
20
-1.39173
11
0.811614
21
-1.25787
0
LINE
8
BLACK
6
CONTINUOUS
10
0.811614
20
-1.25787
11
0.811902
21
-1.25718
0
LINE
8
BLACK
6
CONTINUOUS
10
0.811902
20
-1.25718
11
0.812598
21
-1.25689
0
LINE
8
BLACK
6
CONTINUOUS
10
0.812598
20
-1.25689
11
0.889764
21
-1.25689
0
LINE
8
BLACK
6
CONTINUOUS
10
0.813583
20
-1.25886
11
0.813583
21
-1.39075
0
LINE
8
BLACK
6
CONTINUOUS
10
0.813583
20
-1.39075
11
0.88878
21
-1.39075
0
LINE
8
BLACK
6
CONTINUOUS
10
0.88878
20
-1.39075
11
0.88878
21
-1.25886
0
LINE
8
BLACK
6
CONTINUOUS
10
0.88878
20
-1.25886
11
0.813583
21
-1.25886
0
LINE
8
BLACK
6
CONTINUOUS
10
2.50335
20
-1.02047
11
2.50404
21
-1.02076
0
LINE
8
BLACK
6
CONTINUOUS
10
2.50404
20
-1.02076
11
2.50433
21
-1.02146
0
LINE
8
BLACK
6
CONTINUOUS
10
2.50433
20
-1.02146
11
2.50433
21
-1.3128
0
LINE
8
BLACK
6
CONTINUOUS
10
2.50433
20
-1.3128
11
2.50404
21
-1.31349
0
LINE
8
BLACK
6
CONTINUOUS
10
2.50404
20
-1.31349
11
2.50335
21
-1.31378
0
LINE
8
BLACK
6
CONTINUOUS
10
2.50335
20
-1.31378
11
2.29429
21
-1.31378
0
LINE
8
BLACK
6
CONTINUOUS
10
2.29429
20
-1.31378
11
2.29429
21
-1.36978
0
LINE
8
BLACK
6
CONTINUOUS
10
2.29429
20
-1.36978
11
2.294
21
-1.37048
0
LINE
8
BLACK
6
CONTINUOUS
10
2.294
20
-1.37048
11
2.29331
21
-1.37077
0
LINE
8
BLACK
6
CONTINUOUS
10
2.29331
20
-1.37077
11
2.2185
21
-1.37077
0
LINE
8
BLACK
6
CONTINUOUS
10
2.2185
20
-1.37077
11
2.21781
21
-1.37048
0
LINE
8
BLACK
6
CONTINUOUS
10
2.21781
20
-1.37048
11
2.21752
21
-1.36978
0
LINE
8
BLACK
6
CONTINUOUS
10
2.21752
20
-1.36978
11
2.21752
21
-1.2375
0
LINE
8
BLACK
6
CONTINUOUS
10
2.21752
20
-1.2375
11
2.21781
21
-1.2368
0
LINE
8
BLACK
6
CONTINUOUS
10
2.21781
20
-1.2368
11
2.2185
21
-1.23652
0
LINE
8
BLACK
6
CONTINUOUS
10
2.2185
20
-1.23652
11
2.28976
21
-1.23652
0
LINE
8
BLACK
6
CONTINUOUS
10
2.28976
20
-1.23652
11
2.28976
21
-1.02146
0
LINE
8
BLACK
6
CONTINUOUS
10
2.28976
20
-1.02146
11
2.29005
21
-1.02076
0
LINE
8
BLACK
6
CONTINUOUS
10
2.29005
20
-1.02076
11
2.29075
21
-1.02047
0
LINE
8
BLACK
6
CONTINUOUS
10
2.29075
20
-1.02047
11
2.50335
21
-1.02047
0
LINE
8
BLACK
6
CONTINUOUS
10
2.21949
20
-1.23848
11
2.21949
21
-1.3688
0
LINE
8
BLACK
6
CONTINUOUS
10
2.21949
20
-1.3688
11
2.29232
21
-1.3688
0
LINE
8
BLACK
6
CONTINUOUS
10
2.29232
20
-1.3688
11
2.29232
21
-1.31378
0
LINE
8
BLACK
6
CONTINUOUS
10
2.29232
20
-1.31378
11
2.29075
21
-1.31378
0
LINE
8
BLACK
6
CONTINUOUS
10
2.29075
20
-1.31378
11
2.29005
21
-1.31349
0
LINE
8
BLACK
6
CONTINUOUS
10
2.29005
20
-1.31349
11
2.28976
21
-1.3128
0
LINE
8
BLACK
6
CONTINUOUS
10
2.28976
20
-1.3128
11
2.28976
21
-1.3128
0
LINE
8
BLACK
6
CONTINUOUS
10
2.28976
20
-1.3128
11
2.28976
21
-1.23848
0
LINE
8
BLACK
6
CONTINUOUS
10
2.28976
20
-1.23848
11
2.21949
21
-1.23848
0
LINE
8
BLACK
6
CONTINUOUS
10
2.29173
20
-1.23848
11
2.29173
21
-1.31181
0
LINE
8
BLACK
6
CONTINUOUS
10
2.29173
20
-1.31181
11
2.29232
21
-1.31181
0
LINE
8
BLACK
6
CONTINUOUS
10
2.29232
20
-1.31181
11
2.29232
21
-1.23848
0
LINE
8
BLACK
6
CONTINUOUS
10
2.29232
20
-1.23848
11
2.29173
21
-1.23848
0
LINE
8
BLACK
6
CONTINUOUS
10
2.29173
20
-1.02244
11
2.29173
21
-1.23652
0
LINE
8
BLACK
6
CONTINUOUS
10
2.29173
20
-1.23652
11
2.29331
21
-1.23652
0
LINE
8
BLACK
6
CONTINUOUS
10
2.29331
20
-1.23652
11
2.294
21
-1.2368
0
LINE
8
BLACK
6
CONTINUOUS
10
2.294
20
-1.2368
11
2.29429
21
-1.2375
0
LINE
8
BLACK
6
CONTINUOUS
10
2.29429
20
-1.2375
11
2.29429
21
-1.31181
0
LINE
8
BLACK
6
CONTINUOUS
10
2.29429
20
-1.31181
11
2.50236
21
-1.31181
0
LINE
8
BLACK
6
CONTINUOUS
10
2.50236
20
-1.31181
11
2.50236
21
-1.02244
0
LINE
8
BLACK
6
CONTINUOUS
10
2.50236
20
-1.02244
11
2.29173
21
-1.02244
0
LINE
8
BLACK
6
CONTINUOUS
10
2.1378
20
-1.20846
11
2.13849
21
-1.20875
0
LINE
8
BLACK
6
CONTINUOUS
10
2.13849
20
-1.20875
11
2.13878
21
-1.20945
0
LINE
8
BLACK
6
CONTINUOUS
10
2.13878
20
-1.20945
11
2.13878
21
-1.28661
0
LINE
8
BLACK
6
CONTINUOUS
10
2.13878
20
-1.28661
11
2.13849
21
-1.28731
0
LINE
8
BLACK
6
CONTINUOUS
10
2.13849
20
-1.28731
11
2.1378
21
-1.2876
0
LINE
8
BLACK
6
CONTINUOUS
10
2.1378
20
-1.2876
11
2.00394
21
-1.2876
0
LINE
8
BLACK
6
CONTINUOUS
10
2.00394
20
-1.2876
11
2.00324
21
-1.28731
0
LINE
8
BLACK
6
CONTINUOUS
10
2.00324
20
-1.28731
11
2.00295
21
-1.28661
0
LINE
8
BLACK
6
CONTINUOUS
10
2.00295
20
-1.28661
11
2.00295
21
-1.20945
0
LINE
8
BLACK
6
CONTINUOUS
10
2.00295
20
-1.20945
11
2.00324
21
-1.20875
0
LINE
8
BLACK
6
CONTINUOUS
10
2.00324
20
-1.20875
11
2.00394
21
-1.20846
0
LINE
8
BLACK
6
CONTINUOUS
10
2.00394
20
-1.20846
11
2.1378
21
-1.20846
0
LINE
8
BLACK
6
CONTINUOUS
10
2.00492
20
-1.21043
11
2.00492
21
-1.28563
0
LINE
8
BLACK
6
CONTINUOUS
10
2.00492
20
-1.28563
11
2.13681
21
-1.28563
0
LINE
8
BLACK
6
CONTINUOUS
10
2.13681
20
-1.28563
11
2.13681
21
-1.21043
0
LINE
8
BLACK
6
CONTINUOUS
10
2.13681
20
-1.21043
11
2.00492
21
-1.21043
0
LINE
8
BLACK
6
CONTINUOUS
10
1.49606
20
-1.15138
11
1.49676
21
-1.15167
0
LINE
8
BLACK
6
CONTINUOUS
10
1.49676
20
-1.15167
11
1.49705
21
-1.15236
0
LINE
8
BLACK
6
CONTINUOUS
10
1.49705
20
-1.15236
11
1.49705
21
-1.28622
0
LINE
8
BLACK
6
CONTINUOUS
10
1.49705
20
-1.28622
11
1.49676
21
-1.28692
0
LINE
8
BLACK
6
CONTINUOUS
10
1.49676
20
-1.28692
11
1.49606
21
-1.2872
0
LINE
8
BLACK
6
CONTINUOUS
10
1.49606
20
-1.2872
11
1.4189
21
-1.2872
0
LINE
8
BLACK
6
CONTINUOUS
10
1.4189
20
-1.2872
11
1.4182
21
-1.28692
0
LINE
8
BLACK
6
CONTINUOUS
10
1.4182
20
-1.28692
11
1.41791
21
-1.28622
0
LINE
8
BLACK
6
CONTINUOUS
10
1.41791
20
-1.28622
11
1.41791
21
-1.15236
0
LINE
8
BLACK
6
CONTINUOUS
10
1.41791
20
-1.15236
11
1.4182
21
-1.15167
0
LINE
8
BLACK
6
CONTINUOUS
10
1.4182
20
-1.15167
11
1.4189
21
-1.15138
0
LINE
8
BLACK
6
CONTINUOUS
10
1.4189
20
-1.15138
11
1.49606
21
-1.15138
0
LINE
8
BLACK
6
CONTINUOUS
10
1.41988
20
-1.15335
11
1.41988
21
-1.28524
0
LINE
8
BLACK
6
CONTINUOUS
10
1.41988
20
-1.28524
11
1.49508
21
-1.28524
0
LINE
8
BLACK
6
CONTINUOUS
10
1.49508
20
-1.28524
11
1.49508
21
-1.15335
0
LINE
8
BLACK
6
CONTINUOUS
10
1.49508
20
-1.15335
11
1.41988
21
-1.15335
0
LINE
8
BLACK
6
CONTINUOUS
10
0.951575
20
-1.09163
11
0.952271
21
-1.09192
0
LINE
8
BLACK
6
CONTINUOUS
10
0.952271
20
-1.09192
11
0.952559
21
-1.09262
0
LINE
8
BLACK
6
CONTINUOUS
10
0.952559
20
-1.09262
11
0.952559
21
-1.2249
0
LINE
8
BLACK
6
CONTINUOUS
10
0.952559
20
-1.2249
11
0.952271
21
-1.2256
0
LINE
8
BLACK
6
CONTINUOUS
10
0.952271
20
-1.2256
11
0.951575
21
-1.22589
0
LINE
8
BLACK
6
CONTINUOUS
10
0.951575
20
-1.22589
11
0.876772
21
-1.22589
0
LINE
8
BLACK
6
CONTINUOUS
10
0.876772
20
-1.22589
11
0.876076
21
-1.2256
0
LINE
8
BLACK
6
CONTINUOUS
10
0.876076
20
-1.2256
11
0.875787
21
-1.2249
0
LINE
8
BLACK
6
CONTINUOUS
10
0.875787
20
-1.2249
11
0.875787
21
-1.09262
0
LINE
8
BLACK
6
CONTINUOUS
10
0.875787
20
-1.09262
11
0.876076
21
-1.09192
0
LINE
8
BLACK
6
CONTINUOUS
10
0.876076
20
-1.09192
11
0.876772
21
-1.09163
0
LINE
8
BLACK
6
CONTINUOUS
10
0.876772
20
-1.09163
11
0.951575
21
-1.09163
0
LINE
8
BLACK
6
CONTINUOUS
10
0.877756
20
-1.0936
11
0.877756
21
-1.22392
0
LINE
8
BLACK
6
CONTINUOUS
10
0.877756
20
-1.22392
11
0.950591
21
-1.22392
0
LINE
8
BLACK
6
CONTINUOUS
10
0.950591
20
-1.22392
11
0.950591
21
-1.0936
0
LINE
8
BLACK
6
CONTINUOUS
10
0.950591
20
-1.0936
11
0.877756
21
-1.0936
0
LINE
8
BLACK
6
CONTINUOUS
10
2.13661
20
-1.12579
11
2.13731
21
-1.12608
0
LINE
8
BLACK
6
CONTINUOUS
10
2.13731
20
-1.12608
11
2.1376
21
-1.12677
0
LINE
8
BLACK
6
CONTINUOUS
10
2.1376
20
-1.12677
11
2.1376
21
-1.20394
0
LINE
8
BLACK
6
CONTINUOUS
10
2.1376
20
-1.20394
11
2.13731
21
-1.20463
0
LINE
8
BLACK
6
CONTINUOUS
10
2.13731
20
-1.20463
11
2.13661
21
-1.20492
0
LINE
8
BLACK
6
CONTINUOUS
10
2.13661
20
-1.20492
11
2.00276
21
-1.20492
0
LINE
8
BLACK
6
CONTINUOUS
10
2.00276
20
-1.20492
11
2.00206
21
-1.20463
0
LINE
8
BLACK
6
CONTINUOUS
10
2.00206
20
-1.20463
11
2.00177
21
-1.20394
0
LINE
8
BLACK
6
CONTINUOUS
10
2.00177
20
-1.20394
11
2.00177
21
-1.12677
0
LINE
8
BLACK
6
CONTINUOUS
10
2.00177
20
-1.12677
11
2.00206
21
-1.12608
0
LINE
8
BLACK
6
CONTINUOUS
10
2.00206
20
-1.12608
11
2.00276
21
-1.12579
0
LINE
8
BLACK
6
CONTINUOUS
10
2.00276
20
-1.12579
11
2.13661
21
-1.12579
0
LINE
8
BLACK
6
CONTINUOUS
10
2.00374
20
-1.12776
11
2.00374
21
-1.20295
0
LINE
8
BLACK
6
CONTINUOUS
10
2.00374
20
-1.20295
11
2.13563
21
-1.20295
0
LINE
8
BLACK
6
CONTINUOUS
10
2.13563
20
-1.20295
11
2.13563
21
-1.12776
0
LINE
8
BLACK
6
CONTINUOUS
10
2.13563
20
-1.12776
11
2.00374
21
-1.12776
0
LINE
8
BLACK
6
CONTINUOUS
10
1.38858
20
-1.02077
11
1.38928
21
-1.02106
0
LINE
8
BLACK
6
CONTINUOUS
10
1.38928
20
-1.02106
11
1.38957
21
-1.02175
0
LINE
8
BLACK
6
CONTINUOUS
10
1.38957
20
-1.02175
11
1.38957
21
-1.15404
0
LINE
8
BLACK
6
CONTINUOUS
10
1.38957
20
-1.15404
11
1.38928
21
-1.15473
0
LINE
8
BLACK
6
CONTINUOUS
10
1.38928
20
-1.15473
11
1.38858
21
-1.15502
0
LINE
8
BLACK
6
CONTINUOUS
10
1.38858
20
-1.15502
11
1.31378
21
-1.15502
0
LINE
8
BLACK
6
CONTINUOUS
10
1.31378
20
-1.15502
11
1.31308
21
-1.15473
0
LINE
8
BLACK
6
CONTINUOUS
10
1.31308
20
-1.15473
11
1.3128
21
-1.15404
0
LINE
8
BLACK
6
CONTINUOUS
10
1.3128
20
-1.15404
11
1.3128
21
-1.02175
0
LINE
8
BLACK
6
CONTINUOUS
10
1.3128
20
-1.02175
11
1.31308
21
-1.02106
0
LINE
8
BLACK
6
CONTINUOUS
10
1.31308
20
-1.02106
11
1.31378
21
-1.02077
0
LINE
8
BLACK
6
CONTINUOUS
10
1.31378
20
-1.02077
11
1.38858
21
-1.02077
0
LINE
8
BLACK
6
CONTINUOUS
10
1.31476
20
-1.02274
11
1.31476
21
-1.15305
0
LINE
8
BLACK
6
CONTINUOUS
10
1.31476
20
-1.15305
11
1.3876
21
-1.15305
0
LINE
8
BLACK
6
CONTINUOUS
10
1.3876
20
-1.15305
11
1.3876
21
-1.02274
0
LINE
8
BLACK
6
CONTINUOUS
10
1.3876
20
-1.02274
11
1.31476
21
-1.02274
0
LINE
8
BLACK
6
CONTINUOUS
10
1.99016
20
-1.00502
11
1.99085
21
-1.00531
0
LINE
8
BLACK
6
CONTINUOUS
10
1.99085
20
-1.00531
11
1.99114
21
-1.006
0
LINE
8
BLACK
6
CONTINUOUS
10
1.99114
20
-1.006
11
1.99114
21
-1.13829
0
LINE
8
BLACK
6
CONTINUOUS
10
1.99114
20
-1.13829
11
1.99085
21
-1.13898
0
LINE
8
BLACK
6
CONTINUOUS
10
1.99085
20
-1.13898
11
1.99016
21
-1.13927
0
LINE
8
BLACK
6
CONTINUOUS
10
1.99016
20
-1.13927
11
1.91535
21
-1.13927
0
LINE
8
BLACK
6
CONTINUOUS
10
1.91535
20
-1.13927
11
1.91466
21
-1.13898
0
LINE
8
BLACK
6
CONTINUOUS
10
1.91466
20
-1.13898
11
1.91437
21
-1.13829
0
LINE
8
BLACK
6
CONTINUOUS
10
1.91437
20
-1.13829
11
1.91437
21
-1.006
0
LINE
8
BLACK
6
CONTINUOUS
10
1.91437
20
-1.006
11
1.91466
21
-1.00531
0
LINE
8
BLACK
6
CONTINUOUS
10
1.91466
20
-1.00531
11
1.91535
21
-1.00502
0
LINE
8
BLACK
6
CONTINUOUS
10
1.91535
20
-1.00502
11
1.99016
21
-1.00502
0
LINE
8
BLACK
6
CONTINUOUS
10
1.91634
20
-1.00699
11
1.91634
21
-1.1373
0
LINE
8
BLACK
6
CONTINUOUS
10
1.91634
20
-1.1373
11
1.98917
21
-1.1373
0
LINE
8
BLACK
6
CONTINUOUS
10
1.98917
20
-1.1373
11
1.98917
21
-1.00699
0
LINE
8
BLACK
6
CONTINUOUS
10
1.98917
20
-1.00699
11
1.91634
21
-1.00699
0
LINE
8
BLACK
6
CONTINUOUS
10
1.90748
20
-1.00453
11
1.90818
21
-1.00482
0
LINE
8
BLACK
6
CONTINUOUS
10
1.90818
20
-1.00482
11
1.90846
21
-1.00551
0
LINE
8
BLACK
6
CONTINUOUS
10
1.90846
20
-1.00551
11
1.90846
21
-1.1378
0
LINE
8
BLACK
6
CONTINUOUS
10
1.90846
20
-1.1378
11
1.90818
21
-1.13849
0
LINE
8
BLACK
6
CONTINUOUS
10
1.90818
20
-1.13849
11
1.90748
21
-1.13878
0
LINE
8
BLACK
6
CONTINUOUS
10
1.90748
20
-1.13878
11
1.83268
21
-1.13878
0
LINE
8
BLACK
6
CONTINUOUS
10
1.83268
20
-1.13878
11
1.83198
21
-1.13849
0
LINE
8
BLACK
6
CONTINUOUS
10
1.83198
20
-1.13849
11
1.83169
21
-1.1378
0
LINE
8
BLACK
6
CONTINUOUS
10
1.83169
20
-1.1378
11
1.83169
21
-1.00551
0
LINE
8
BLACK
6
CONTINUOUS
10
1.83169
20
-1.00551
11
1.83198
21
-1.00482
0
LINE
8
BLACK
6
CONTINUOUS
10
1.83198
20
-1.00482
11
1.83268
21
-1.00453
0
LINE
8
BLACK
6
CONTINUOUS
10
1.83268
20
-1.00453
11
1.90748
21
-1.00453
0
LINE
8
BLACK
6
CONTINUOUS
10
1.83366
20
-1.0065
11
1.83366
21
-1.13681
0
LINE
8
BLACK
6
CONTINUOUS
10
1.83366
20
-1.13681
11
1.9065
21
-1.13681
0
LINE
8
BLACK
6
CONTINUOUS
10
1.9065
20
-1.13681
11
1.9065
21
-1.0065
0
LINE
8
BLACK
6
CONTINUOUS
10
1.9065
20
-1.0065
11
1.83366
21
-1.0065
0
LINE
8
BLACK
6
CONTINUOUS
10
0.614665
20
-1.06083
11
0.615361
21
-1.06112
0
LINE
8
BLACK
6
CONTINUOUS
10
0.615361
20
-1.06112
11
0.61565
21
-1.06181
0
LINE
8
BLACK
6
CONTINUOUS
10
0.61565
20
-1.06181
11
0.61565
21
-1.13661
0
LINE
8
BLACK
6
CONTINUOUS
10
0.61565
20
-1.13661
11
0.615361
21
-1.13731
0
LINE
8
BLACK
6
CONTINUOUS
10
0.615361
20
-1.13731
11
0.614665
21
-1.1376
0
LINE
8
BLACK
6
CONTINUOUS
10
0.614665
20
-1.1376
11
0.482382
21
-1.1376
0
LINE
8
BLACK
6
CONTINUOUS
10
0.482382
20
-1.1376
11
0.481686
21
-1.13731
0
LINE
8
BLACK
6
CONTINUOUS
10
0.481686
20
-1.13731
11
0.481398
21
-1.13661
0
LINE
8
BLACK
6
CONTINUOUS
10
0.481398
20
-1.13661
11
0.481398
21
-1.06181
0
LINE
8
BLACK
6
CONTINUOUS
10
0.481398
20
-1.06181
11
0.481686
21
-1.06112
0
LINE
8
BLACK
6
CONTINUOUS
10
0.481686
20
-1.06112
11
0.482382
21
-1.06083
0
LINE
8
BLACK
6
CONTINUOUS
10
0.482382
20
-1.06083
11
0.614665
21
-1.06083
0
LINE
8
BLACK
6
CONTINUOUS
10
0.483366
20
-1.0628
11
0.483366
21
-1.13563
0
LINE
8
BLACK
6
CONTINUOUS
10
0.483366
20
-1.13563
11
0.613681
21
-1.13563
0
LINE
8
BLACK
6
CONTINUOUS
10
0.613681
20
-1.13563
11
0.613681
21
-1.0628
0
LINE
8
BLACK
6
CONTINUOUS
10
0.613681
20
-1.0628
11
0.483366
21
-1.0628
0
LINE
8
BLACK
6
CONTINUOUS
10
0.771161
20
-1.06083
11
0.771857
21
-1.06112
0
LINE
8
BLACK
6
CONTINUOUS
10
0.771857
20
-1.06112
11
0.772146
21
-1.06181
0
LINE
8
BLACK
6
CONTINUOUS
10
0.772146
20
-1.06181
11
0.772146
21
-1.13661
0
LINE
8
BLACK
6
CONTINUOUS
10
0.772146
20
-1.13661
11
0.771857
21
-1.13731
0
LINE
8
BLACK
6
CONTINUOUS
10
0.771857
20
-1.13731
11
0.771161
21
-1.1376
0
LINE
8
BLACK
6
CONTINUOUS
10
0.771161
20
-1.1376
11
0.638878
21
-1.1376
0
LINE
8
BLACK
6
CONTINUOUS
10
0.638878
20
-1.1376
11
0.638182
21
-1.13731
0
LINE
8
BLACK
6
CONTINUOUS
10
0.638182
20
-1.13731
11
0.637894
21
-1.13661
0
LINE
8
BLACK
6
CONTINUOUS
10
0.637894
20
-1.13661
11
0.637894
21
-1.06181
0
LINE
8
BLACK
6
CONTINUOUS
10
0.637894
20
-1.06181
11
0.638182
21
-1.06112
0
LINE
8
BLACK
6
CONTINUOUS
10
0.638182
20
-1.06112
11
0.638878
21
-1.06083
0
LINE
8
BLACK
6
CONTINUOUS
10
0.638878
20
-1.06083
11
0.771161
21
-1.06083
0
LINE
8
BLACK
6
CONTINUOUS
10
0.639862
20
-1.0628
11
0.639862
21
-1.13563
0
LINE
8
BLACK
6
CONTINUOUS
10
0.639862
20
-1.13563
11
0.770177
21
-1.13563
0
LINE
8
BLACK
6
CONTINUOUS
10
0.770177
20
-1.13563
11
0.770177
21
-1.0628
0
LINE
8
BLACK
6
CONTINUOUS
10
0.770177
20
-1.0628
11
0.639862
21
-1.0628
0
LINE
8
BLACK
6
CONTINUOUS
10
2.12795
20
-0.988484
11
2.12865
21
-0.988773
0
LINE
8
BLACK
6
CONTINUOUS
10
2.12865
20
-0.988773
11
2.12894
21
-0.989469
0
LINE
8
BLACK
6
CONTINUOUS
10
2.12894
20
-0.989469
11
2.12894
21
-1.12175
0
LINE
8
BLACK
6
CONTINUOUS
10
2.12894
20
-1.12175
11
2.12865
21
-1.12245
0
LINE
8
BLACK
6
CONTINUOUS
10
2.12865
20
-1.12245
11
2.12795
21
-1.12274
0
LINE
8
BLACK
6
CONTINUOUS
10
2.12795
20
-1.12274
11
2.05315
21
-1.12274
0
LINE
8
BLACK
6
CONTINUOUS
10
2.05315
20
-1.12274
11
2.05245
21
-1.12245
0
LINE
8
BLACK
6
CONTINUOUS
10
2.05245
20
-1.12245
11
2.05217
21
-1.12175
0
LINE
8
BLACK
6
CONTINUOUS
10
2.05217
20
-1.12175
11
2.05217
21
-0.989469
0
LINE
8
BLACK
6
CONTINUOUS
10
2.05217
20
-0.989469
11
2.05245
21
-0.988773
0
LINE
8
BLACK
6
CONTINUOUS
10
2.05245
20
-0.988773
11
2.05315
21
-0.988484
0
LINE
8
BLACK
6
CONTINUOUS
10
2.05315
20
-0.988484
11
2.12795
21
-0.988484
0
LINE
8
BLACK
6
CONTINUOUS
10
2.05413
20
-0.990453
11
2.05413
21
-1.12077
0
LINE
8
BLACK
6
CONTINUOUS
10
2.05413
20
-1.12077
11
2.12697
21
-1.12077
0
LINE
8
BLACK
6
CONTINUOUS
10
2.12697
20
-1.12077
11
2.12697
21
-0.990453
0
LINE
8
BLACK
6
CONTINUOUS
10
2.12697
20
-0.990453
11
2.05413
21
-0.990453
0
LINE
8
BLACK
6
CONTINUOUS
10
2.67766
20
-1.04114
11
2.67835
21
-1.04143
0
LINE
8
BLACK
6
CONTINUOUS
10
2.67835
20
-1.04143
11
2.67864
21
-1.04213
0
LINE
8
BLACK
6
CONTINUOUS
10
2.67864
20
-1.04213
11
2.67864
21
-1.11693
0
LINE
8
BLACK
6
CONTINUOUS
10
2.67864
20
-1.11693
11
2.67835
21
-1.11763
0
LINE
8
BLACK
6
CONTINUOUS
10
2.67835
20
-1.11763
11
2.67766
21
-1.11791
0
LINE
8
BLACK
6
CONTINUOUS
10
2.67766
20
-1.11791
11
2.54537
21
-1.11791
0
LINE
8
BLACK
6
CONTINUOUS
10
2.54537
20
-1.11791
11
2.54468
21
-1.11763
0
LINE
8
BLACK
6
CONTINUOUS
10
2.54468
20
-1.11763
11
2.54439
21
-1.11693
0
LINE
8
BLACK
6
CONTINUOUS
10
2.54439
20
-1.11693
11
2.54439
21
-1.04213
0
LINE
8
BLACK
6
CONTINUOUS
10
2.54439
20
-1.04213
11
2.54468
21
-1.04143
0
LINE
8
BLACK
6
CONTINUOUS
10
2.54468
20
-1.04143
11
2.54537
21
-1.04114
0
LINE
8
BLACK
6
CONTINUOUS
10
2.54537
20
-1.04114
11
2.67766
21
-1.04114
0
LINE
8
BLACK
6
CONTINUOUS
10
2.54636
20
-1.04311
11
2.54636
21
-1.11594
0
LINE
8
BLACK
6
CONTINUOUS
10
2.54636
20
-1.11594
11
2.67667
21
-1.11594
0
LINE
8
BLACK
6
CONTINUOUS
10
2.67667
20
-1.11594
11
2.67667
21
-1.04311
0
LINE
8
BLACK
6
CONTINUOUS
10
2.67667
20
-1.04311
11
2.54636
21
-1.04311
0
LINE
8
BLACK
6
CONTINUOUS
10
0.400394
20
-0.930217
11
0.40109
21
-0.930505
0
LINE
8
BLACK
6
CONTINUOUS
10
0.40109
20
-0.930505
11
0.401378
21
-0.931201
0
LINE
8
BLACK
6
CONTINUOUS
10
0.401378
20
-0.931201
11
0.401378
21
-1.06348
0
LINE
8
BLACK
6
CONTINUOUS
10
0.401378
20
-1.06348
11
0.40109
21
-1.06418
0
LINE
8
BLACK
6
CONTINUOUS
10
0.40109
20
-1.06418
11
0.400394
21
-1.06447
0
LINE
8
BLACK
6
CONTINUOUS
10
0.400394
20
-1.06447
11
0.325591
21
-1.06447
0
LINE
8
BLACK
6
CONTINUOUS
10
0.325591
20
-1.06447
11
0.324895
21
-1.06418
0
LINE
8
BLACK
6
CONTINUOUS
10
0.324895
20
-1.06418
11
0.324606
21
-1.06348
0
LINE
8
BLACK
6
CONTINUOUS
10
0.324606
20
-1.06348
11
0.324606
21
-0.931201
0
LINE
8
BLACK
6
CONTINUOUS
10
0.324606
20
-0.931201
11
0.324895
21
-0.930505
0
LINE
8
BLACK
6
CONTINUOUS
10
0.324895
20
-0.930505
11
0.325591
21
-0.930217
0
LINE
8
BLACK
6
CONTINUOUS
10
0.325591
20
-0.930217
11
0.400394
21
-0.930217
0
LINE
8
BLACK
6
CONTINUOUS
10
0.326575
20
-0.932185
11
0.326575
21
-1.0625
0
LINE
8
BLACK
6
CONTINUOUS
10
0.326575
20
-1.0625
11
0.399409
21
-1.0625
0
LINE
8
BLACK
6
CONTINUOUS
10
0.399409
20
-1.0625
11
0.399409
21
-0.932185
0
LINE
8
BLACK
6
CONTINUOUS
10
0.399409
20
-0.932185
11
0.326575
21
-0.932185
0
LINE
8
BLACK
6
CONTINUOUS
10
0.773622
20
-0.976181
11
0.774318
21
-0.976469
0
LINE
8
BLACK
6
CONTINUOUS
10
0.774318
20
-0.976469
11
0.774606
21
-0.977165
0
LINE
8
BLACK
6
CONTINUOUS
10
0.774606
20
-0.977165
11
0.774606
21
-1.05433
0
LINE
8
BLACK
6
CONTINUOUS
10
0.774606
20
-1.05433
11
0.774318
21
-1.05503
0
LINE
8
BLACK
6
CONTINUOUS
10
0.774318
20
-1.05503
11
0.773622
21
-1.05531
0
LINE
8
BLACK
6
CONTINUOUS
10
0.773622
20
-1.05531
11
0.639764
21
-1.05531
0
LINE
8
BLACK
6
CONTINUOUS
10
0.639764
20
-1.05531
11
0.639068
21
-1.05503
0
LINE
8
BLACK
6
CONTINUOUS
10
0.639068
20
-1.05503
11
0.63878
21
-1.05433
0
LINE
8
BLACK
6
CONTINUOUS
10
0.63878
20
-1.05433
11
0.63878
21
-0.977165
0
LINE
8
BLACK
6
CONTINUOUS
10
0.63878
20
-0.977165
11
0.639068
21
-0.976469
0
LINE
8
BLACK
6
CONTINUOUS
10
0.639068
20
-0.976469
11
0.639764
21
-0.976181
0
LINE
8
BLACK
6
CONTINUOUS
10
0.639764
20
-0.976181
11
0.773622
21
-0.976181
0
LINE
8
BLACK
6
CONTINUOUS
10
0.640748
20
-0.97815
11
0.640748
21
-1.05335
0
LINE
8
BLACK
6
CONTINUOUS
10
0.640748
20
-1.05335
11
0.772638
21
-1.05335
0
LINE
8
BLACK
6
CONTINUOUS
10
0.772638
20
-1.05335
11
0.772638
21
-0.97815
0
LINE
8
BLACK
6
CONTINUOUS
10
0.772638
20
-0.97815
11
0.640748
21
-0.97815
0
LINE
8
BLACK
6
CONTINUOUS
10
1.60039
20
-0.917126
11
1.60109
21
-0.917414
0
LINE
8
BLACK
6
CONTINUOUS
10
1.60109
20
-0.917414
11
1.60138
21
-0.91811
0
LINE
8
BLACK
6
CONTINUOUS
10
1.60138
20
-0.91811
11
1.60138
21
-1.05039
0
LINE
8
BLACK
6
CONTINUOUS
10
1.60138
20
-1.05039
11
1.60109
21
-1.05109
0
LINE
8
BLACK
6
CONTINUOUS
10
1.60109
20
-1.05109
11
1.60039
21
-1.05138
0
LINE
8
BLACK
6
CONTINUOUS
10
1.60039
20
-1.05138
11
1.52559
21
-1.05138
0
LINE
8
BLACK
6
CONTINUOUS
10
1.52559
20
-1.05138
11
1.52489
21
-1.05109
0
LINE
8
BLACK
6
CONTINUOUS
10
1.52489
20
-1.05109
11
1.52461
21
-1.05039
0
LINE
8
BLACK
6
CONTINUOUS
10
1.52461
20
-1.05039
11
1.52461
21
-0.91811
0
LINE
8
BLACK
6
CONTINUOUS
10
1.52461
20
-0.91811
11
1.52489
21
-0.917414
0
LINE
8
BLACK
6
CONTINUOUS
10
1.52489
20
-0.917414
11
1.52559
21
-0.917126
0
LINE
8
BLACK
6
CONTINUOUS
10
1.52559
20
-0.917126
11
1.60039
21
-0.917126
0
LINE
8
BLACK
6
CONTINUOUS
10
1.52657
20
-0.919094
11
1.52657
21
-1.04941
0
LINE
8
BLACK
6
CONTINUOUS
10
1.52657
20
-1.04941
11
1.59941
21
-1.04941
0
LINE
8
BLACK
6
CONTINUOUS
10
1.59941
20
-1.04941
11
1.59941
21
-0.919094
0
LINE
8
BLACK
6
CONTINUOUS
10
1.59941
20
-0.919094
11
1.52657
21
-0.919094
0
LINE
8
BLACK
6
CONTINUOUS
10
2.67766
20
-0.958465
11
2.67835
21
-0.958753
0
LINE
8
BLACK
6
CONTINUOUS
10
2.67835
20
-0.958753
11
2.67864
21
-0.959449
0
LINE
8
BLACK
6
CONTINUOUS
10
2.67864
20
-0.959449
11
2.67864
21
-1.03425
0
LINE
8
BLACK
6
CONTINUOUS
10
2.67864
20
-1.03425
11
2.67835
21
-1.03495
0
LINE
8
BLACK
6
CONTINUOUS
10
2.67835
20
-1.03495
11
2.67766
21
-1.03524
0
LINE
8
BLACK
6
CONTINUOUS
10
2.67766
20
-1.03524
11
2.54537
21
-1.03524
0
LINE
8
BLACK
6
CONTINUOUS
10
2.54537
20
-1.03524
11
2.54468
21
-1.03495
0
LINE
8
BLACK
6
CONTINUOUS
10
2.54468
20
-1.03495
11
2.54439
21
-1.03425
0
LINE
8
BLACK
6
CONTINUOUS
10
2.54439
20
-1.03425
11
2.54439
21
-0.959449
0
LINE
8
BLACK
6
CONTINUOUS
10
2.54439
20
-0.959449
11
2.54468
21
-0.958753
0
LINE
8
BLACK
6
CONTINUOUS
10
2.54468
20
-0.958753
11
2.54537
21
-0.958465
0
LINE
8
BLACK
6
CONTINUOUS
10
2.54537
20
-0.958465
11
2.67766
21
-0.958465
0
LINE
8
BLACK
6
CONTINUOUS
10
2.54636
20
-0.960433
11
2.54636
21
-1.03327
0
LINE
8
BLACK
6
CONTINUOUS
10
2.54636
20
-1.03327
11
2.67667
21
-1.03327
0
LINE
8
BLACK
6
CONTINUOUS
10
2.67667
20
-1.03327
11
2.67667
21
-0.960433
0
LINE
8
BLACK
6
CONTINUOUS
10
2.67667
20
-0.960433
11
2.54636
21
-0.960433
0
LINE
8
BLACK
6
CONTINUOUS
10
0.927953
20
-0.945472
11
0.928649
21
-0.945761
0
LINE
8
BLACK
6
CONTINUOUS
10
0.928649
20
-0.945761
11
0.928937
21
-0.946457
0
LINE
8
BLACK
6
CONTINUOUS
10
0.928937
20
-0.946457
11
0.928937
21
-1.02362
0
LINE
8
BLACK
6
CONTINUOUS
10
0.928937
20
-1.02362
11
0.928649
21
-1.02432
0
LINE
8
BLACK
6
CONTINUOUS
10
0.928649
20
-1.02432
11
0.927953
21
-1.02461
0
LINE
8
BLACK
6
CONTINUOUS
10
0.927953
20
-1.02461
11
0.794094
21
-1.02461
0
LINE
8
BLACK
6
CONTINUOUS
10
0.794094
20
-1.02461
11
0.793399
21
-1.02432
0
LINE
8
BLACK
6
CONTINUOUS
10
0.793399
20
-1.02432
11
0.79311
21
-1.02362
0
LINE
8
BLACK
6
CONTINUOUS
10
0.79311
20
-1.02362
11
0.79311
21
-0.946457
0
LINE
8
BLACK
6
CONTINUOUS
10
0.79311
20
-0.946457
11
0.793399
21
-0.945761
0
LINE
8
BLACK
6
CONTINUOUS
10
0.793399
20
-0.945761
11
0.794094
21
-0.945472
0
LINE
8
BLACK
6
CONTINUOUS
10
0.794094
20
-0.945472
11
0.927953
21
-0.945472
0
LINE
8
BLACK
6
CONTINUOUS
10
0.795079
20
-0.947441
11
0.795079
21
-1.02264
0
LINE
8
BLACK
6
CONTINUOUS
10
0.795079
20
-1.02264
11
0.926969
21
-1.02264
0
LINE
8
BLACK
6
CONTINUOUS
10
0.926969
20
-1.02264
11
0.926969
21
-0.947441
0
LINE
8
BLACK
6
CONTINUOUS
10
0.926969
20
-0.947441
11
0.795079
21
-0.947441
0
LINE
8
BLACK
6
CONTINUOUS
10
1.32953
20
-0.937598
11
1.33022
21
-0.937887
0
LINE
8
BLACK
6
CONTINUOUS
10
1.33022
20
-0.937887
11
1.33051
21
-0.938583
0
LINE
8
BLACK
6
CONTINUOUS
10
1.33051
20
-0.938583
11
1.33051
21
-1.01575
0
LINE
8
BLACK
6
CONTINUOUS
10
1.33051
20
-1.01575
11
1.33022
21
-1.01644
0
LINE
8
BLACK
6
CONTINUOUS
10
1.33022
20
-1.01644
11
1.32953
21
-1.01673
0
LINE
8
BLACK
6
CONTINUOUS
10
1.32953
20
-1.01673
11
1.19567
21
-1.01673
0
LINE
8
BLACK
6
CONTINUOUS
10
1.19567
20
-1.01673
11
1.19497
21
-1.01644
0
LINE
8
BLACK
6
CONTINUOUS
10
1.19497
20
-1.01644
11
1.19469
21
-1.01575
0
LINE
8
BLACK
6
CONTINUOUS
10
1.19469
20
-1.01575
11
1.19469
21
-0.938583
0
LINE
8
BLACK
6
CONTINUOUS
10
1.19469
20
-0.938583
11
1.19497
21
-0.937887
0
LINE
8
BLACK
6
CONTINUOUS
10
1.19497
20
-0.937887
11
1.19567
21
-0.937598
0
LINE
8
BLACK
6
CONTINUOUS
10
1.19567
20
-0.937598
11
1.32953
21
-0.937598
0
LINE
8
BLACK
6
CONTINUOUS
10
1.19665
20
-0.939567
11
1.19665
21
-1.01476
0
LINE
8
BLACK
6
CONTINUOUS
10
1.19665
20
-1.01476
11
1.32854
21
-1.01476
0
LINE
8
BLACK
6
CONTINUOUS
10
1.32854
20
-1.01476
11
1.32854
21
-0.939567
0
LINE
8
BLACK
6
CONTINUOUS
10
1.32854
20
-0.939567
11
1.19665
21
-0.939567
0
LINE
8
BLACK
6
CONTINUOUS
10
1.9063
20
-0.92185
11
1.907
21
-0.922139
0
LINE
8
BLACK
6
CONTINUOUS
10
1.907
20
-0.922139
11
1.90728
21
-0.922835
0
LINE
8
BLACK
6
CONTINUOUS
10
1.90728
20
-0.922835
11
1.90728
21
-1
0
LINE
8
BLACK
6
CONTINUOUS
10
1.90728
20
-1
11
1.907
21
-1.0007
0
LINE
8
BLACK
6
CONTINUOUS
10
1.907
20
-1.0007
11
1.9063
21
-1.00098
0
LINE
8
BLACK
6
CONTINUOUS
10
1.9063
20
-1.00098
11
1.77244
21
-1.00098
0
LINE
8
BLACK
6
CONTINUOUS
10
1.77244
20
-1.00098
11
1.77174
21
-1.0007
0
LINE
8
BLACK
6
CONTINUOUS
10
1.77174
20
-1.0007
11
1.77146
21
-1
0
LINE
8
BLACK
6
CONTINUOUS
10
1.77146
20
-1
11
1.77146
21
-0.922835
0
LINE
8
BLACK
6
CONTINUOUS
10
1.77146
20
-0.922835
11
1.77174
21
-0.922139
0
LINE
8
BLACK
6
CONTINUOUS
10
1.77174
20
-0.922139
11
1.77244
21
-0.92185
0
LINE
8
BLACK
6
CONTINUOUS
10
1.77244
20
-0.92185
11
1.9063
21
-0.92185
0
LINE
8
BLACK
6
CONTINUOUS
10
1.77343
20
-0.923819
11
1.77343
21
-0.999016
0
LINE
8
BLACK
6
CONTINUOUS
10
1.77343
20
-0.999016
11
1.90531
21
-0.999016
0
LINE
8
BLACK
6
CONTINUOUS
10
1.90531
20
-0.999016
11
1.90531
21
-0.923819
0
LINE
8
BLACK
6
CONTINUOUS
10
1.90531
20
-0.923819
11
1.77343
21
-0.923819
0
LINE
8
BLACK
6
CONTINUOUS
10
2.03858
20
-0.851378
11
2.03928
21
-0.851666
0
LINE
8
BLACK
6
CONTINUOUS
10
2.03928
20
-0.851666
11
2.03957
21
-0.852362
0
LINE
8
BLACK
6
CONTINUOUS
10
2.03957
20
-0.852362
11
2.03957
21
-0.98622
0
LINE
8
BLACK
6
CONTINUOUS
10
2.03957
20
-0.98622
11
2.03928
21
-0.986916
0
LINE
8
BLACK
6
CONTINUOUS
10
2.03928
20
-0.986916
11
2.03858
21
-0.987205
0
LINE
8
BLACK
6
CONTINUOUS
10
2.03858
20
-0.987205
11
1.96142
21
-0.987205
0
LINE
8
BLACK
6
CONTINUOUS
10
1.96142
20
-0.987205
11
1.96072
21
-0.986916
0
LINE
8
BLACK
6
CONTINUOUS
10
1.96072
20
-0.986916
11
1.96043
21
-0.98622
0
LINE
8
BLACK
6
CONTINUOUS
10
1.96043
20
-0.98622
11
1.96043
21
-0.852362
0
LINE
8
BLACK
6
CONTINUOUS
10
1.96043
20
-0.852362
11
1.96072
21
-0.851666
0
LINE
8
BLACK
6
CONTINUOUS
10
1.96072
20
-0.851666
11
1.96142
21
-0.851378
0
LINE
8
BLACK
6
CONTINUOUS
10
1.96142
20
-0.851378
11
2.03858
21
-0.851378
0
LINE
8
BLACK
6
CONTINUOUS
10
1.9624
20
-0.853346
11
1.9624
21
-0.985236
0
LINE
8
BLACK
6
CONTINUOUS
10
1.9624
20
-0.985236
11
2.0376
21
-0.985236
0
LINE
8
BLACK
6
CONTINUOUS
10
2.0376
20
-0.985236
11
2.0376
21
-0.853346
0
LINE
8
BLACK
6
CONTINUOUS
10
2.0376
20
-0.853346
11
1.9624
21
-0.853346
0
LINE
8
BLACK
6
CONTINUOUS
10
2.46339
20
-0.832185
11
2.46408
21
-0.832473
0
LINE
8
BLACK
6
CONTINUOUS
10
2.46408
20
-0.832473
11
2.46437
21
-0.833169
0
LINE
8
BLACK
6
CONTINUOUS
10
2.46437
20
-0.833169
11
2.46437
21
-0.98435
0
LINE
8
BLACK
6
CONTINUOUS
10
2.46437
20
-0.98435
11
2.46408
21
-0.985046
0
LINE
8
BLACK
6
CONTINUOUS
10
2.46408
20
-0.985046
11
2.46339
21
-0.985335
0
LINE
8
BLACK
6
CONTINUOUS
10
2.46339
20
-0.985335
11
2.32953
21
-0.985335
0
LINE
8
BLACK
6
CONTINUOUS
10
2.32953
20
-0.985335
11
2.32883
21
-0.985046
0
LINE
8
BLACK
6
CONTINUOUS
10
2.32883
20
-0.985046
11
2.32854
21
-0.98435
0
LINE
8
BLACK
6
CONTINUOUS
10
2.32854
20
-0.98435
11
2.32854
21
-0.833169
0
LINE
8
BLACK
6
CONTINUOUS
10
2.32854
20
-0.833169
11
2.32883
21
-0.832473
0
LINE
8
BLACK
6
CONTINUOUS
10
2.32883
20
-0.832473
11
2.32953
21
-0.832185
0
LINE
8
BLACK
6
CONTINUOUS
10
2.32953
20
-0.832185
11
2.46339
21
-0.832185
0
LINE
8
BLACK
6
CONTINUOUS
10
2.33051
20
-0.834154
11
2.33051
21
-0.983366
0
LINE
8
BLACK
6
CONTINUOUS
10
2.33051
20
-0.983366
11
2.4624
21
-0.983366
0
LINE
8
BLACK
6
CONTINUOUS
10
2.4624
20
-0.983366
11
2.4624
21
-0.834154
0
LINE
8
BLACK
6
CONTINUOUS
10
2.4624
20
-0.834154
11
2.33051
21
-0.834154
0
LINE
8
BLACK
6
CONTINUOUS
10
0.622047
20
-0.885236
11
0.622743
21
-0.885524
0
LINE
8
BLACK
6
CONTINUOUS
10
0.622743
20
-0.885524
11
0.623031
21
-0.88622
0
LINE
8
BLACK
6
CONTINUOUS
10
0.623031
20
-0.88622
11
0.623031
21
-0.963386
0
LINE
8
BLACK
6
CONTINUOUS
10
0.623031
20
-0.963386
11
0.622743
21
-0.964082
0
LINE
8
BLACK
6
CONTINUOUS
10
0.622743
20
-0.964082
11
0.622047
21
-0.96437
0
LINE
8
BLACK
6
CONTINUOUS
10
0.622047
20
-0.96437
11
0.488189
21
-0.96437
0
LINE
8
BLACK
6
CONTINUOUS
10
0.488189
20
-0.96437
11
0.487493
21
-0.964082
0
LINE
8
BLACK
6
CONTINUOUS
10
0.487493
20
-0.964082
11
0.487205
21
-0.963386
0
LINE
8
BLACK
6
CONTINUOUS
10
0.487205
20
-0.963386
11
0.487205
21
-0.88622
0
LINE
8
BLACK
6
CONTINUOUS
10
0.487205
20
-0.88622
11
0.487493
21
-0.885524
0
LINE
8
BLACK
6
CONTINUOUS
10
0.487493
20
-0.885524
11
0.488189
21
-0.885236
0
LINE
8
BLACK
6
CONTINUOUS
10
0.488189
20
-0.885236
11
0.622047
21
-0.885236
0
LINE
8
BLACK
6
CONTINUOUS
10
0.489173
20
-0.887205
11
0.489173
21
-0.962402
0
LINE
8
BLACK
6
CONTINUOUS
10
0.489173
20
-0.962402
11
0.621063
21
-0.962402
0
LINE
8
BLACK
6
CONTINUOUS
10
0.621063
20
-0.962402
11
0.621063
21
-0.887205
0
LINE
8
BLACK
6
CONTINUOUS
10
0.621063
20
-0.887205
11
0.489173
21
-0.887205
0
LINE
8
BLACK
6
CONTINUOUS
10
0.773622
20
-0.885236
11
0.774318
21
-0.885524
0
LINE
8
BLACK
6
CONTINUOUS
10
0.774318
20
-0.885524
11
0.774606
21
-0.88622
0
LINE
8
BLACK
6
CONTINUOUS
10
0.774606
20
-0.88622
11
0.774606
21
-0.963386
0
LINE
8
BLACK
6
CONTINUOUS
10
0.774606
20
-0.963386
11
0.774318
21
-0.964082
0
LINE
8
BLACK
6
CONTINUOUS
10
0.774318
20
-0.964082
11
0.773622
21
-0.96437
0
LINE
8
BLACK
6
CONTINUOUS
10
0.773622
20
-0.96437
11
0.639764
21
-0.96437
0
LINE
8
BLACK
6
CONTINUOUS
10
0.639764
20
-0.96437
11
0.639068
21
-0.964082
0
LINE
8
BLACK
6
CONTINUOUS
10
0.639068
20
-0.964082
11
0.63878
21
-0.963386
0
LINE
8
BLACK
6
CONTINUOUS
10
0.63878
20
-0.963386
11
0.63878
21
-0.88622
0
LINE
8
BLACK
6
CONTINUOUS
10
0.63878
20
-0.88622
11
0.639068
21
-0.885524
0
LINE
8
BLACK
6
CONTINUOUS
10
0.639068
20
-0.885524
11
0.639764
21
-0.885236
0
LINE
8
BLACK
6
CONTINUOUS
10
0.639764
20
-0.885236
11
0.773622
21
-0.885236
0
LINE
8
BLACK
6
CONTINUOUS
10
0.640748
20
-0.887205
11
0.640748
21
-0.962402
0
LINE
8
BLACK
6
CONTINUOUS
10
0.640748
20
-0.962402
11
0.772638
21
-0.962402
0
LINE
8
BLACK
6
CONTINUOUS
10
0.772638
20
-0.962402
11
0.772638
21
-0.887205
0
LINE
8
BLACK
6
CONTINUOUS
10
0.772638
20
-0.887205
11
0.640748
21
-0.887205
0
LINE
8
BLACK
6
CONTINUOUS
10
0.927953
20
-0.862795
11
0.928649
21
-0.863084
0
LINE
8
BLACK
6
CONTINUOUS
10
0.928649
20
-0.863084
11
0.928937
21
-0.86378
0
LINE
8
BLACK
6
CONTINUOUS
10
0.928937
20
-0.86378
11
0.928937
21
-0.940945
0
LINE
8
BLACK
6
CONTINUOUS
10
0.928937
20
-0.940945
11
0.928649
21
-0.941641
0
LINE
8
BLACK
6
CONTINUOUS
10
0.928649
20
-0.941641
11
0.927953
21
-0.941929
0
LINE
8
BLACK
6
CONTINUOUS
10
0.927953
20
-0.941929
11
0.794094
21
-0.941929
0
LINE
8
BLACK
6
CONTINUOUS
10
0.794094
20
-0.941929
11
0.793399
21
-0.941641
0
LINE
8
BLACK
6
CONTINUOUS
10
0.793399
20
-0.941641
11
0.79311
21
-0.940945
0
LINE
8
BLACK
6
CONTINUOUS
10
0.79311
20
-0.940945
11
0.79311
21
-0.86378
0
LINE
8
BLACK
6
CONTINUOUS
10
0.79311
20
-0.86378
11
0.793399
21
-0.863084
0
LINE
8
BLACK
6
CONTINUOUS
10
0.793399
20
-0.863084
11
0.794094
21
-0.862795
0
LINE
8
BLACK
6
CONTINUOUS
10
0.794094
20
-0.862795
11
0.927953
21
-0.862795
0
LINE
8
BLACK
6
CONTINUOUS
10
0.795079
20
-0.864764
11
0.795079
21
-0.939961
0
LINE
8
BLACK
6
CONTINUOUS
10
0.795079
20
-0.939961
11
0.926969
21
-0.939961
0
LINE
8
BLACK
6
CONTINUOUS
10
0.926969
20
-0.939961
11
0.926969
21
-0.864764
0
LINE
8
BLACK
6
CONTINUOUS
10
0.926969
20
-0.864764
11
0.795079
21
-0.864764
0
LINE
8
BLACK
6
CONTINUOUS
10
1.48898
20
-0.781299
11
1.48967
21
-0.781587
0
LINE
8
BLACK
6
CONTINUOUS
10
1.48967
20
-0.781587
11
1.48996
21
-0.782283
0
LINE
8
BLACK
6
CONTINUOUS
10
1.48996
20
-0.782283
11
1.48996
21
-0.933465
0
LINE
8
BLACK
6
CONTINUOUS
10
1.48996
20
-0.933465
11
1.48967
21
-0.934161
0
LINE
8
BLACK
6
CONTINUOUS
10
1.48967
20
-0.934161
11
1.48898
21
-0.934449
0
LINE
8
BLACK
6
CONTINUOUS
10
1.48898
20
-0.934449
11
1.35512
21
-0.934449
0
LINE
8
BLACK
6
CONTINUOUS
10
1.35512
20
-0.934449
11
1.35442
21
-0.934161
0
LINE
8
BLACK
6
CONTINUOUS
10
1.35442
20
-0.934161
11
1.35413
21
-0.933465
0
LINE
8
BLACK
6
CONTINUOUS
10
1.35413
20
-0.933465
11
1.35413
21
-0.782283
0
LINE
8
BLACK
6
CONTINUOUS
10
1.35413
20
-0.782283
11
1.35442
21
-0.781587
0
LINE
8
BLACK
6
CONTINUOUS
10
1.35442
20
-0.781587
11
1.35512
21
-0.781299
0
LINE
8
BLACK
6
CONTINUOUS
10
1.35512
20
-0.781299
11
1.48898
21
-0.781299
0
LINE
8
BLACK
6
CONTINUOUS
10
1.3561
20
-0.783268
11
1.3561
21
-0.93248
0
LINE
8
BLACK
6
CONTINUOUS
10
1.3561
20
-0.93248
11
1.48799
21
-0.93248
0
LINE
8
BLACK
6
CONTINUOUS
10
1.48799
20
-0.93248
11
1.48799
21
-0.783268
0
LINE
8
BLACK
6
CONTINUOUS
10
1.48799
20
-0.783268
11
1.3561
21
-0.783268
0
LINE
8
BLACK
6
CONTINUOUS
10
1.23553
20
-0.585236
11
1.23623
21
-0.585524
0
LINE
8
BLACK
6
CONTINUOUS
10
1.23623
20
-0.585524
11
1.23652
21
-0.58622
0
LINE
8
BLACK
6
CONTINUOUS
10
1.23652
20
-0.58622
11
1.23652
21
-0.932677
0
LINE
8
BLACK
6
CONTINUOUS
10
1.23652
20
-0.932677
11
1.23623
21
-0.933373
0
LINE
8
BLACK
6
CONTINUOUS
10
1.23623
20
-0.933373
11
1.23553
21
-0.933661
0
LINE
8
BLACK
6
CONTINUOUS
10
1.23553
20
-0.933661
11
0.952067
21
-0.933661
0
LINE
8
BLACK
6
CONTINUOUS
10
0.952067
20
-0.933661
11
0.951371
21
-0.933373
0
LINE
8
BLACK
6
CONTINUOUS
10
0.951371
20
-0.933373
11
0.951083
21
-0.932677
0
LINE
8
BLACK
6
CONTINUOUS
10
0.951083
20
-0.932677
11
0.951083
21
-0.58622
0
LINE
8
BLACK
6
CONTINUOUS
10
0.951083
20
-0.58622
11
0.951371
21
-0.585524
0
LINE
8
BLACK
6
CONTINUOUS
10
0.951371
20
-0.585524
11
0.952067
21
-0.585236
0
LINE
8
BLACK
6
CONTINUOUS
10
0.952067
20
-0.585236
11
1.23553
21
-0.585236
0
LINE
8
BLACK
6
CONTINUOUS
10
0.953051
20
-0.587205
11
0.953051
21
-0.931693
0
LINE
8
BLACK
6
CONTINUOUS
10
0.953051
20
-0.931693
11
1.23455
21
-0.931693
0
LINE
8
BLACK
6
CONTINUOUS
10
1.23455
20
-0.931693
11
1.23455
21
-0.587205
0
LINE
8
BLACK
6
CONTINUOUS
10
1.23455
20
-0.587205
11
0.953051
21
-0.587205
0
LINE
8
BLACK
6
CONTINUOUS
10
1.84961
20
-0.552953
11
1.8503
21
-0.553241
0
LINE
8
BLACK
6
CONTINUOUS
10
1.8503
20
-0.553241
11
1.85059
21
-0.553937
0
LINE
8
BLACK
6
CONTINUOUS
10
1.85059
20
-0.553937
11
1.85059
21
-0.920079
0
LINE
8
BLACK
6
CONTINUOUS
10
1.85059
20
-0.920079
11
1.8503
21
-0.920775
0
LINE
8
BLACK
6
CONTINUOUS
10
1.8503
20
-0.920775
11
1.84961
21
-0.921063
0
LINE
8
BLACK
6
CONTINUOUS
10
1.84961
20
-0.921063
11
1.62441
21
-0.921063
0
LINE
8
BLACK
6
CONTINUOUS
10
1.62441
20
-0.921063
11
1.62371
21
-0.920775
0
LINE
8
BLACK
6
CONTINUOUS
10
1.62371
20
-0.920775
11
1.62343
21
-0.920079
0
LINE
8
BLACK
6
CONTINUOUS
10
1.62343
20
-0.920079
11
1.62343
21
-0.920079
0
LINE
8
BLACK
6
CONTINUOUS
10
1.62343
20
-0.920079
11
1.62343
21
-0.553937
0
LINE
8
BLACK
6
CONTINUOUS
10
1.62343
20
-0.553937
11
1.62371
21
-0.553241
0
LINE
8
BLACK
6
CONTINUOUS
10
1.62371
20
-0.553241
11
1.62441
21
-0.552953
0
LINE
8
BLACK
6
CONTINUOUS
10
1.62441
20
-0.552953
11
1.84961
21
-0.552953
0
LINE
8
BLACK
6
CONTINUOUS
10
1.62539
20
-0.554921
11
1.62539
21
-0.919094
0
LINE
8
BLACK
6
CONTINUOUS
10
1.62539
20
-0.919094
11
1.84862
21
-0.919094
0
LINE
8
BLACK
6
CONTINUOUS
10
1.84862
20
-0.919094
11
1.84862
21
-0.554921
0
LINE
8
BLACK
6
CONTINUOUS
10
1.84862
20
-0.554921
11
1.62539
21
-0.554921
0
LINE
8
BLACK
6
CONTINUOUS
10
1.56969
20
-0.779331
11
1.57038
21
-0.779619
0
LINE
8
BLACK
6
CONTINUOUS
10
1.57038
20
-0.779619
11
1.57067
21
-0.780315
0
LINE
8
BLACK
6
CONTINUOUS
10
1.57067
20
-0.780315
11
1.57067
21
-0.912598
0
LINE
8
BLACK
6
CONTINUOUS
10
1.57067
20
-0.912598
11
1.57038
21
-0.913294
0
LINE
8
BLACK
6
CONTINUOUS
10
1.57038
20
-0.913294
11
1.56969
21
-0.913583
0
LINE
8
BLACK
6
CONTINUOUS
10
1.56969
20
-0.913583
11
1.49488
21
-0.913583
0
LINE
8
BLACK
6
CONTINUOUS
10
1.49488
20
-0.913583
11
1.49419
21
-0.913294
0
LINE
8
BLACK
6
CONTINUOUS
10
1.49419
20
-0.913294
11
1.4939
21
-0.912598
0
LINE
8
BLACK
6
CONTINUOUS
10
1.4939
20
-0.912598
11
1.4939
21
-0.780315
0
LINE
8
BLACK
6
CONTINUOUS
10
1.4939
20
-0.780315
11
1.49419
21
-0.779619
0
LINE
8
BLACK
6
CONTINUOUS
10
1.49419
20
-0.779619
11
1.49488
21
-0.779331
0
LINE
8
BLACK
6
CONTINUOUS
10
1.49488
20
-0.779331
11
1.56969
21
-0.779331
0
LINE
8
BLACK
6
CONTINUOUS
10
1.49587
20
-0.781299
11
1.49587
21
-0.911614
0
LINE
8
BLACK
6
CONTINUOUS
10
1.49587
20
-0.911614
11
1.5687
21
-0.911614
0
LINE
8
BLACK
6
CONTINUOUS
10
1.5687
20
-0.911614
11
1.5687
21
-0.781299
0
LINE
8
BLACK
6
CONTINUOUS
10
1.5687
20
-0.781299
11
1.49587
21
-0.781299
0
LINE
8
BLACK
6
CONTINUOUS
10
1.35039
20
-0.775394
11
1.35109
21
-0.775682
0
LINE
8
BLACK
6
CONTINUOUS
10
1.35109
20
-0.775682
11
1.35138
21
-0.776378
0
LINE
8
BLACK
6
CONTINUOUS
10
1.35138
20
-0.776378
11
1.35138
21
-0.910236
0
LINE
8
BLACK
6
CONTINUOUS
10
1.35138
20
-0.910236
11
1.35109
21
-0.910932
0
LINE
8
BLACK
6
CONTINUOUS
10
1.35109
20
-0.910932
11
1.35039
21
-0.91122
0
LINE
8
BLACK
6
CONTINUOUS
10
1.35039
20
-0.91122
11
1.27323
21
-0.91122
0
LINE
8
BLACK
6
CONTINUOUS
10
1.27323
20
-0.91122
11
1.27253
21
-0.910932
0
LINE
8
BLACK
6
CONTINUOUS
10
1.27253
20
-0.910932
11
1.27224
21
-0.910236
0
LINE
8
BLACK
6
CONTINUOUS
10
1.27224
20
-0.910236
11
1.27224
21
-0.910236
0
LINE
8
BLACK
6
CONTINUOUS
10
1.27224
20
-0.910236
11
1.27224
21
-0.776378
0
LINE
8
BLACK
6
CONTINUOUS
10
1.27224
20
-0.776378
11
1.27253
21
-0.775682
0
LINE
8
BLACK
6
CONTINUOUS
10
1.27253
20
-0.775682
11
1.27323
21
-0.775394
0
LINE
8
BLACK
6
CONTINUOUS
10
1.27323
20
-0.775394
11
1.35039
21
-0.775394
0
LINE
8
BLACK
6
CONTINUOUS
10
1.27421
20
-0.777362
11
1.27421
21
-0.909252
0
LINE
8
BLACK
6
CONTINUOUS
10
1.27421
20
-0.909252
11
1.34941
21
-0.909252
0
LINE
8
BLACK
6
CONTINUOUS
10
1.34941
20
-0.909252
11
1.34941
21
-0.777362
0
LINE
8
BLACK
6
CONTINUOUS
10
1.34941
20
-0.777362
11
1.27421
21
-0.777362
0
LINE
8
BLACK
6
CONTINUOUS
10
2.32559
20
-0.748031
11
2.32629
21
-0.74832
0
LINE
8
BLACK
6
CONTINUOUS
10
2.32629
20
-0.74832
11
2.32657
21
-0.749016
0
LINE
8
BLACK
6
CONTINUOUS
10
2.32657
20
-0.749016
11
2.32657
21
-0.894685
0
LINE
8
BLACK
6
CONTINUOUS
10
2.32657
20
-0.894685
11
2.32629
21
-0.895381
0
LINE
8
BLACK
6
CONTINUOUS
10
2.32629
20
-0.895381
11
2.32559
21
-0.895669
0
LINE
8
BLACK
6
CONTINUOUS
10
2.32559
20
-0.895669
11
2.10118
21
-0.895669
0
LINE
8
BLACK
6
CONTINUOUS
10
2.10118
20
-0.895669
11
2.10049
21
-0.895381
0
LINE
8
BLACK
6
CONTINUOUS
10
2.10049
20
-0.895381
11
2.1002
21
-0.894685
0
LINE
8
BLACK
6
CONTINUOUS
10
2.1002
20
-0.894685
11
2.1002
21
-0.894685
0
LINE
8
BLACK
6
CONTINUOUS
10
2.1002
20
-0.894685
11
2.1002
21
-0.749016
0
LINE
8
BLACK
6
CONTINUOUS
10
2.1002
20
-0.749016
11
2.10049
21
-0.74832
0
LINE
8
BLACK
6
CONTINUOUS
10
2.10049
20
-0.74832
11
2.10118
21
-0.748031
0
LINE
8
BLACK
6
CONTINUOUS
10
2.10118
20
-0.748031
11
2.32559
21
-0.748031
0
LINE
8
BLACK
6
CONTINUOUS
10
2.10217
20
-0.75
11
2.10217
21
-0.893701
0
LINE
8
BLACK
6
CONTINUOUS
10
2.10217
20
-0.893701
11
2.32461
21
-0.893701
0
LINE
8
BLACK
6
CONTINUOUS
10
2.32461
20
-0.893701
11
2.32461
21
-0.75
0
LINE
8
BLACK
6
CONTINUOUS
10
2.32461
20
-0.75
11
2.10217
21
-0.75
0
LINE
8
BLACK
6
CONTINUOUS
10
2.63829
20
-0.812795
11
2.63898
21
-0.813084
0
LINE
8
BLACK
6
CONTINUOUS
10
2.63898
20
-0.813084
11
2.63927
21
-0.81378
0
LINE
8
BLACK
6
CONTINUOUS
10
2.63927
20
-0.81378
11
2.63927
21
-0.888583
0
LINE
8
BLACK
6
CONTINUOUS
10
2.63927
20
-0.888583
11
2.63898
21
-0.889279
0
LINE
8
BLACK
6
CONTINUOUS
10
2.63898
20
-0.889279
11
2.63829
21
-0.889567
0
LINE
8
BLACK
6
CONTINUOUS
10
2.63829
20
-0.889567
11
2.506
21
-0.889567
0
LINE
8
BLACK
6
CONTINUOUS
10
2.506
20
-0.889567
11
2.50531
21
-0.889279
0
LINE
8
BLACK
6
CONTINUOUS
10
2.50531
20
-0.889279
11
2.50502
21
-0.888583
0
LINE
8
BLACK
6
CONTINUOUS
10
2.50502
20
-0.888583
11
2.50502
21
-0.81378
0
LINE
8
BLACK
6
CONTINUOUS
10
2.50502
20
-0.81378
11
2.50531
21
-0.813084
0
LINE
8
BLACK
6
CONTINUOUS
10
2.50531
20
-0.813084
11
2.506
21
-0.812795
0
LINE
8
BLACK
6
CONTINUOUS
10
2.506
20
-0.812795
11
2.63829
21
-0.812795
0
LINE
8
BLACK
6
CONTINUOUS
10
2.50699
20
-0.814764
11
2.50699
21
-0.887598
0
LINE
8
BLACK
6
CONTINUOUS
10
2.50699
20
-0.887598
11
2.6373
21
-0.887598
0
LINE
8
BLACK
6
CONTINUOUS
10
2.6373
20
-0.887598
11
2.6373
21
-0.814764
0
LINE
8
BLACK
6
CONTINUOUS
10
2.6373
20
-0.814764
11
2.50699
21
-0.814764
0
LINE
8
BLACK
6
CONTINUOUS
10
0.887795
20
-0.569882
11
0.888491
21
-0.57017
0
LINE
8
BLACK
6
CONTINUOUS
10
0.888491
20
-0.57017
11
0.88878
21
-0.570866
0
LINE
8
BLACK
6
CONTINUOUS
10
0.88878
20
-0.570866
11
0.88878
21
-0.854331
0
LINE
8
BLACK
6
CONTINUOUS
10
0.88878
20
-0.854331
11
0.888491
21
-0.855027
0
LINE
8
BLACK
6
CONTINUOUS
10
0.888491
20
-0.855027
11
0.887795
21
-0.855315
0
LINE
8
BLACK
6
CONTINUOUS
10
0.887795
20
-0.855315
11
0.541339
21
-0.855315
0
LINE
8
BLACK
6
CONTINUOUS
10
0.541339
20
-0.855315
11
0.540643
21
-0.855027
0
LINE
8
BLACK
6
CONTINUOUS
10
0.540643
20
-0.855027
11
0.540354
21
-0.854331
0
LINE
8
BLACK
6
CONTINUOUS
10
0.540354
20
-0.854331
11
0.540354
21
-0.570866
0
LINE
8
BLACK
6
CONTINUOUS
10
0.540354
20
-0.570866
11
0.540643
21
-0.57017
0
LINE
8
BLACK
6
CONTINUOUS
10
0.540643
20
-0.57017
11
0.541339
21
-0.569882
0
LINE
8
BLACK
6
CONTINUOUS
10
0.541339
20
-0.569882
11
0.887795
21
-0.569882
0
LINE
8
BLACK
6
CONTINUOUS
10
0.542323
20
-0.57185
11
0.542323
21
-0.853346
0
LINE
8
BLACK
6
CONTINUOUS
10
0.542323
20
-0.853346
11
0.886811
21
-0.853346
0
LINE
8
BLACK
6
CONTINUOUS
10
0.886811
20
-0.853346
11
0.886811
21
-0.57185
0
LINE
8
BLACK
6
CONTINUOUS
10
0.886811
20
-0.57185
11
0.542323
21
-0.57185
0
LINE
8
BLACK
6
CONTINUOUS
10
0.505906
20
-0.771457
11
0.506601
21
-0.771745
0
LINE
8
BLACK
6
CONTINUOUS
10
0.506601
20
-0.771745
11
0.50689
21
-0.772441
0
LINE
8
BLACK
6
CONTINUOUS
10
0.50689
20
-0.772441
11
0.50689
21
-0.849606
0
LINE
8
BLACK
6
CONTINUOUS
10
0.50689
20
-0.849606
11
0.506601
21
-0.850302
0
LINE
8
BLACK
6
CONTINUOUS
10
0.506601
20
-0.850302
11
0.505906
21
-0.850591
0
LINE
8
BLACK
6
CONTINUOUS
10
0.505906
20
-0.850591
11
0.372047
21
-0.850591
0
LINE
8
BLACK
6
CONTINUOUS
10
0.372047
20
-0.850591
11
0.371351
21
-0.850302
0
LINE
8
BLACK
6
CONTINUOUS
10
0.371351
20
-0.850302
11
0.371063
21
-0.849606
0
LINE
8
BLACK
6
CONTINUOUS
10
0.371063
20
-0.849606
11
0.371063
21
-0.772441
0
LINE
8
BLACK
6
CONTINUOUS
10
0.371063
20
-0.772441
11
0.371351
21
-0.771745
0
LINE
8
BLACK
6
CONTINUOUS
10
0.371351
20
-0.771745
11
0.372047
21
-0.771457
0
LINE
8
BLACK
6
CONTINUOUS
10
0.372047
20
-0.771457
11
0.505906
21
-0.771457
0
LINE
8
BLACK
6
CONTINUOUS
10
0.373031
20
-0.773425
11
0.373031
21
-0.848622
0
LINE
8
BLACK
6
CONTINUOUS
10
0.373031
20
-0.848622
11
0.504921
21
-0.848622
0
LINE
8
BLACK
6
CONTINUOUS
10
0.504921
20
-0.848622
11
0.504921
21
-0.773425
0
LINE
8
BLACK
6
CONTINUOUS
10
0.504921
20
-0.773425
11
0.373031
21
-0.773425
0
LINE
8
BLACK
6
CONTINUOUS
10
0.35315
20
-0.666437
11
0.353846
21
-0.666725
0
LINE
8
BLACK
6
CONTINUOUS
10
0.353846
20
-0.666725
11
0.354134
21
-0.667421
0
LINE
8
BLACK
6
CONTINUOUS
10
0.354134
20
-0.667421
11
0.354134
21
-0.799705
0
LINE
8
BLACK
6
CONTINUOUS
10
0.354134
20
-0.799705
11
0.353846
21
-0.800401
0
LINE
8
BLACK
6
CONTINUOUS
10
0.353846
20
-0.800401
11
0.35315
21
-0.800689
0
LINE
8
BLACK
6
CONTINUOUS
10
0.35315
20
-0.800689
11
0.278346
21
-0.800689
0
LINE
8
BLACK
6
CONTINUOUS
10
0.278346
20
-0.800689
11
0.27765
21
-0.800401
0
LINE
8
BLACK
6
CONTINUOUS
10
0.27765
20
-0.800401
11
0.277362
21
-0.799705
0
LINE
8
BLACK
6
CONTINUOUS
10
0.277362
20
-0.799705
11
0.277362
21
-0.667421
0
LINE
8
BLACK
6
CONTINUOUS
10
0.277362
20
-0.667421
11
0.27765
21
-0.666725
0
LINE
8
BLACK
6
CONTINUOUS
10
0.27765
20
-0.666725
11
0.278346
21
-0.666437
0
LINE
8
BLACK
6
CONTINUOUS
10
0.278346
20
-0.666437
11
0.35315
21
-0.666437
0
LINE
8
BLACK
6
CONTINUOUS
10
0.279331
20
-0.668406
11
0.279331
21
-0.79872
0
LINE
8
BLACK
6
CONTINUOUS
10
0.279331
20
-0.79872
11
0.352165
21
-0.79872
0
LINE
8
BLACK
6
CONTINUOUS
10
0.352165
20
-0.79872
11
0.352165
21
-0.668406
0
LINE
8
BLACK
6
CONTINUOUS
10
0.352165
20
-0.668406
11
0.279331
21
-0.668406
0
LINE
8
BLACK
6
CONTINUOUS
10
2.48504
20
-0.397441
11
2.48574
21
-0.397729
0
LINE
8
BLACK
6
CONTINUOUS
10
2.48574
20
-0.397729
11
2.48602
21
-0.398425
0
LINE
8
BLACK
6
CONTINUOUS
10
2.48602
20
-0.398425
11
2.48602
21
-0.417126
0
LINE
8
BLACK
6
CONTINUOUS
10
2.48602
20
-0.417126
11
2.64154
21
-0.417126
0
LINE
8
BLACK
6
CONTINUOUS
10
2.64154
20
-0.417126
11
2.64154
21
-0.398425
0
LINE
8
BLACK
6
CONTINUOUS
10
2.64154
20
-0.398425
11
2.64182
21
-0.397729
0
LINE
8
BLACK
6
CONTINUOUS
10
2.64182
20
-0.397729
11
2.64252
21
-0.397441
0
LINE
8
BLACK
6
CONTINUOUS
10
2.64252
20
-0.397441
11
2.76063
21
-0.397441
0
LINE
8
BLACK
6
CONTINUOUS
10
2.76063
20
-0.397441
11
2.76133
21
-0.397729
0
LINE
8
BLACK
6
CONTINUOUS
10
2.76133
20
-0.397729
11
2.76161
21
-0.398425
0
LINE
8
BLACK
6
CONTINUOUS
10
2.76161
20
-0.398425
11
2.76161
21
-0.516535
0
LINE
8
BLACK
6
CONTINUOUS
10
2.76161
20
-0.516535
11
2.76133
21
-0.517231
0
LINE
8
BLACK
6
CONTINUOUS
10
2.76133
20
-0.517231
11
2.76063
21
-0.51752
0
LINE
8
BLACK
6
CONTINUOUS
10
2.76063
20
-0.51752
11
2.74193
21
-0.51752
0
LINE
8
BLACK
6
CONTINUOUS
10
2.74193
20
-0.51752
11
2.74193
21
-0.673031
0
LINE
8
BLACK
6
CONTINUOUS
10
2.74193
20
-0.673031
11
2.76063
21
-0.673031
0
LINE
8
BLACK
6
CONTINUOUS
10
2.76063
20
-0.673031
11
2.76133
21
-0.67332
0
LINE
8
BLACK
6
CONTINUOUS
10
2.76133
20
-0.67332
11
2.76161
21
-0.674016
0
LINE
8
BLACK
6
CONTINUOUS
10
2.76161
20
-0.674016
11
2.76161
21
-0.792126
0
LINE
8
BLACK
6
CONTINUOUS
10
2.76161
20
-0.792126
11
2.76133
21
-0.792822
0
LINE
8
BLACK
6
CONTINUOUS
10
2.76133
20
-0.792822
11
2.76063
21
-0.79311
0
LINE
8
BLACK
6
CONTINUOUS
10
2.76063
20
-0.79311
11
2.64252
21
-0.79311
0
LINE
8
BLACK
6
CONTINUOUS
10
2.64252
20
-0.79311
11
2.64182
21
-0.792822
0
LINE
8
BLACK
6
CONTINUOUS
10
2.64182
20
-0.792822
11
2.64154
21
-0.792126
0
LINE
8
BLACK
6
CONTINUOUS
10
2.64154
20
-0.792126
11
2.64154
21
-0.773425
0
LINE
8
BLACK
6
CONTINUOUS
10
2.64154
20
-0.773425
11
2.48602
21
-0.773425
0
LINE
8
BLACK
6
CONTINUOUS
10
2.48602
20
-0.773425
11
2.48602
21
-0.792126
0
LINE
8
BLACK
6
CONTINUOUS
10
2.48602
20
-0.792126
11
2.48574
21
-0.792822
0
LINE
8
BLACK
6
CONTINUOUS
10
2.48574
20
-0.792822
11
2.48504
21
-0.79311
0
LINE
8
BLACK
6
CONTINUOUS
10
2.48504
20
-0.79311
11
2.36693
21
-0.79311
0
LINE
8
BLACK
6
CONTINUOUS
10
2.36693
20
-0.79311
11
2.36623
21
-0.792822
0
LINE
8
BLACK
6
CONTINUOUS
10
2.36623
20
-0.792822
11
2.36594
21
-0.792126
0
LINE
8
BLACK
6
CONTINUOUS
10
2.36594
20
-0.792126
11
2.36594
21
-0.674016
0
LINE
8
BLACK
6
CONTINUOUS
10
2.36594
20
-0.674016
11
2.36623
21
-0.67332
0
LINE
8
BLACK
6
CONTINUOUS
10
2.36623
20
-0.67332
11
2.36693
21
-0.673031
0
LINE
8
BLACK
6
CONTINUOUS
10
2.36693
20
-0.673031
11
2.38563
21
-0.673031
0
LINE
8
BLACK
6
CONTINUOUS
10
2.38563
20
-0.673031
11
2.38563
21
-0.51752
0
LINE
8
BLACK
6
CONTINUOUS
10
2.38563
20
-0.51752
11
2.36693
21
-0.51752
0
LINE
8
BLACK
6
CONTINUOUS
10
2.36693
20
-0.51752
11
2.36623
21
-0.517231
0
LINE
8
BLACK
6
CONTINUOUS
10
2.36623
20
-0.517231
11
2.36594
21
-0.516535
0
LINE
8
BLACK
6
CONTINUOUS
10
2.36594
20
-0.516535
11
2.36594
21
-0.398425
0
LINE
8
BLACK
6
CONTINUOUS
10
2.36594
20
-0.398425
11
2.36623
21
-0.397729
0
LINE
8
BLACK
6
CONTINUOUS
10
2.36623
20
-0.397729
11
2.36693
21
-0.397441
0
LINE
8
BLACK
6
CONTINUOUS
10
2.36693
20
-0.397441
11
2.48504
21
-0.397441
0
LINE
8
BLACK
6
CONTINUOUS
10
2.36791
20
-0.399409
11
2.36791
21
-0.515551
0
LINE
8
BLACK
6
CONTINUOUS
10
2.36791
20
-0.515551
11
2.38661
21
-0.515551
0
LINE
8
BLACK
6
CONTINUOUS
10
2.38661
20
-0.515551
11
2.38731
21
-0.515839
0
LINE
8
BLACK
6
CONTINUOUS
10
2.38731
20
-0.515839
11
2.3876
21
-0.516535
0
LINE
8
BLACK
6
CONTINUOUS
10
2.3876
20
-0.516535
11
2.3876
21
-0.674016
0
LINE
8
BLACK
6
CONTINUOUS
10
2.3876
20
-0.674016
11
2.38731
21
-0.674712
0
LINE
8
BLACK
6
CONTINUOUS
10
2.38731
20
-0.674712
11
2.38661
21
-0.675
0
LINE
8
BLACK
6
CONTINUOUS
10
2.38661
20
-0.675
11
2.36791
21
-0.675
0
LINE
8
BLACK
6
CONTINUOUS
10
2.36791
20
-0.675
11
2.36791
21
-0.791142
0
LINE
8
BLACK
6
CONTINUOUS
10
2.36791
20
-0.791142
11
2.48406
21
-0.791142
0
LINE
8
BLACK
6
CONTINUOUS
10
2.48406
20
-0.791142
11
2.48406
21
-0.772441
0
LINE
8
BLACK
6
CONTINUOUS
10
2.48406
20
-0.772441
11
2.48434
21
-0.771745
0
LINE
8
BLACK
6
CONTINUOUS
10
2.48434
20
-0.771745
11
2.48504
21
-0.771457
0
LINE
8
BLACK
6
CONTINUOUS
10
2.48504
20
-0.771457
11
2.64252
21
-0.771457
0
LINE
8
BLACK
6
CONTINUOUS
10
2.64252
20
-0.771457
11
2.64322
21
-0.771745
0
LINE
8
BLACK
6
CONTINUOUS
10
2.64322
20
-0.771745
11
2.6435
21
-0.772441
0
LINE
8
BLACK
6
CONTINUOUS
10
2.6435
20
-0.772441
11
2.6435
21
-0.791142
0
LINE
8
BLACK
6
CONTINUOUS
10
2.6435
20
-0.791142
11
2.75965
21
-0.791142
0
LINE
8
BLACK
6
CONTINUOUS
10
2.75965
20
-0.791142
11
2.75965
21
-0.675
0
LINE
8
BLACK
6
CONTINUOUS
10
2.75965
20
-0.675
11
2.74094
21
-0.675
0
LINE
8
BLACK
6
CONTINUOUS
10
2.74094
20
-0.675
11
2.74025
21
-0.674712
0
LINE
8
BLACK
6
CONTINUOUS
10
2.74025
20
-0.674712
11
2.73996
21
-0.674016
0
LINE
8
BLACK
6
CONTINUOUS
10
2.73996
20
-0.674016
11
2.73996
21
-0.516535
0
LINE
8
BLACK
6
CONTINUOUS
10
2.73996
20
-0.516535
11
2.74025
21
-0.515839
0
LINE
8
BLACK
6
CONTINUOUS
10
2.74025
20
-0.515839
11
2.74094
21
-0.515551
0
LINE
8
BLACK
6
CONTINUOUS
10
2.74094
20
-0.515551
11
2.75965
21
-0.515551
0
LINE
8
BLACK
6
CONTINUOUS
10
2.75965
20
-0.515551
11
2.75965
21
-0.399409
0
LINE
8
BLACK
6
CONTINUOUS
10
2.75965
20
-0.399409
11
2.6435
21
-0.399409
0
LINE
8
BLACK
6
CONTINUOUS
10
2.6435
20
-0.399409
11
2.6435
21
-0.41811
0
LINE
8
BLACK
6
CONTINUOUS
10
2.6435
20
-0.41811
11
2.64322
21
-0.418806
0
LINE
8
BLACK
6
CONTINUOUS
10
2.64322
20
-0.418806
11
2.64252
21
-0.419094
0
LINE
8
BLACK
6
CONTINUOUS
10
2.64252
20
-0.419094
11
2.48504
21
-0.419094
0
LINE
8
BLACK
6
CONTINUOUS
10
2.48504
20
-0.419094
11
2.48434
21
-0.418806
0
LINE
8
BLACK
6
CONTINUOUS
10
2.48434
20
-0.418806
11
2.48406
21
-0.41811
0
LINE
8
BLACK
6
CONTINUOUS
10
2.48406
20
-0.41811
11
2.48406
21
-0.399409
0
LINE
8
BLACK
6
CONTINUOUS
10
2.48406
20
-0.399409
11
2.36791
21
-0.399409
0
LINE
8
BLACK
6
CONTINUOUS
10
1.54803
20
-0.623819
11
1.54873
21
-0.624107
0
LINE
8
BLACK
6
CONTINUOUS
10
1.54873
20
-0.624107
11
1.54902
21
-0.624803
0
LINE
8
BLACK
6
CONTINUOUS
10
1.54902
20
-0.624803
11
1.54902
21
-0.775984
0
LINE
8
BLACK
6
CONTINUOUS
10
1.54902
20
-0.775984
11
1.54873
21
-0.77668
0
LINE
8
BLACK
6
CONTINUOUS
10
1.54873
20
-0.77668
11
1.54803
21
-0.776969
0
LINE
8
BLACK
6
CONTINUOUS
10
1.54803
20
-0.776969
11
1.41417
21
-0.776969
0
LINE
8
BLACK
6
CONTINUOUS
10
1.41417
20
-0.776969
11
1.41348
21
-0.77668
0
LINE
8
BLACK
6
CONTINUOUS
10
1.41348
20
-0.77668
11
1.41319
21
-0.775984
0
LINE
8
BLACK
6
CONTINUOUS
10
1.41319
20
-0.775984
11
1.41319
21
-0.624803
0
LINE
8
BLACK
6
CONTINUOUS
10
1.41319
20
-0.624803
11
1.41348
21
-0.624107
0
LINE
8
BLACK
6
CONTINUOUS
10
1.41348
20
-0.624107
11
1.41417
21
-0.623819
0
LINE
8
BLACK
6
CONTINUOUS
10
1.41417
20
-0.623819
11
1.54803
21
-0.623819
0
LINE
8
BLACK
6
CONTINUOUS
10
1.41516
20
-0.625787
11
1.41516
21
-0.775
0
LINE
8
BLACK
6
CONTINUOUS
10
1.41516
20
-0.775
11
1.54705
21
-0.775
0
LINE
8
BLACK
6
CONTINUOUS
10
1.54705
20
-0.775
11
1.54705
21
-0.625787
0
LINE
8
BLACK
6
CONTINUOUS
10
1.54705
20
-0.625787
11
1.41516
21
-0.625787
0
LINE
8
BLACK
6
CONTINUOUS
10
1.94685
20
-0.641043
11
1.94755
21
-0.641332
0
LINE
8
BLACK
6
CONTINUOUS
10
1.94755
20
-0.641332
11
1.94783
21
-0.642028
0
LINE
8
BLACK
6
CONTINUOUS
10
1.94783
20
-0.642028
11
1.94783
21
-0.774311
0
LINE
8
BLACK
6
CONTINUOUS
10
1.94783
20
-0.774311
11
1.94755
21
-0.775007
0
LINE
8
BLACK
6
CONTINUOUS
10
1.94755
20
-0.775007
11
1.94685
21
-0.775295
0
LINE
8
BLACK
6
CONTINUOUS
10
1.94685
20
-0.775295
11
1.87205
21
-0.775295
0
LINE
8
BLACK
6
CONTINUOUS
10
1.87205
20
-0.775295
11
1.87135
21
-0.775007
0
LINE
8
BLACK
6
CONTINUOUS
10
1.87135
20
-0.775007
11
1.87106
21
-0.774311
0
LINE
8
BLACK
6
CONTINUOUS
10
1.87106
20
-0.774311
11
1.87106
21
-0.642028
0
LINE
8
BLACK
6
CONTINUOUS
10
1.87106
20
-0.642028
11
1.87135
21
-0.641332
0
LINE
8
BLACK
6
CONTINUOUS
10
1.87135
20
-0.641332
11
1.87205
21
-0.641043
0
LINE
8
BLACK
6
CONTINUOUS
10
1.87205
20
-0.641043
11
1.94685
21
-0.641043
0
LINE
8
BLACK
6
CONTINUOUS
10
1.87303
20
-0.643012
11
1.87303
21
-0.773327
0
LINE
8
BLACK
6
CONTINUOUS
10
1.87303
20
-0.773327
11
1.94587
21
-0.773327
0
LINE
8
BLACK
6
CONTINUOUS
10
1.94587
20
-0.773327
11
1.94587
21
-0.643012
0
LINE
8
BLACK
6
CONTINUOUS
10
1.94587
20
-0.643012
11
1.87303
21
-0.643012
0
LINE
8
BLACK
6
CONTINUOUS
10
0.517717
20
-0.512795
11
0.518413
21
-0.513084
0
LINE
8
BLACK
6
CONTINUOUS
10
0.518413
20
-0.513084
11
0.518701
21
-0.51378
0
LINE
8
BLACK
6
CONTINUOUS
10
0.518701
20
-0.51378
11
0.518701
21
-0.746063
0
LINE
8
BLACK
6
CONTINUOUS
10
0.518701
20
-0.746063
11
0.518413
21
-0.746759
0
LINE
8
BLACK
6
CONTINUOUS
10
0.518413
20
-0.746759
11
0.517717
21
-0.747047
0
LINE
8
BLACK
6
CONTINUOUS
10
0.517717
20
-0.747047
11
0.364173
21
-0.747047
0
LINE
8
BLACK
6
CONTINUOUS
10
0.364173
20
-0.747047
11
0.363477
21
-0.746759
0
LINE
8
BLACK
6
CONTINUOUS
10
0.363477
20
-0.746759
11
0.363189
21
-0.746063
0
LINE
8
BLACK
6
CONTINUOUS
10
0.363189
20
-0.746063
11
0.363189
21
-0.51378
0
LINE
8
BLACK
6
CONTINUOUS
10
0.363189
20
-0.51378
11
0.363477
21
-0.513084
0
LINE
8
BLACK
6
CONTINUOUS
10
0.363477
20
-0.513084
11
0.364173
21
-0.512795
0
LINE
8
BLACK
6
CONTINUOUS
10
0.364173
20
-0.512795
11
0.517717
21
-0.512795
0
LINE
8
BLACK
6
CONTINUOUS
10
0.365157
20
-0.514764
11
0.365157
21
-0.745079
0
LINE
8
BLACK
6
CONTINUOUS
10
0.365157
20
-0.745079
11
0.516732
21
-0.745079
0
LINE
8
BLACK
6
CONTINUOUS
10
0.516732
20
-0.745079
11
0.516732
21
-0.514764
0
LINE
8
BLACK
6
CONTINUOUS
10
0.516732
20
-0.514764
11
0.365157
21
-0.514764
0
LINE
8
BLACK
6
CONTINUOUS
10
2.32953
20
-0.543406
11
2.33022
21
-0.543694
0
LINE
8
BLACK
6
CONTINUOUS
10
2.33022
20
-0.543694
11
2.33051
21
-0.54439
0
LINE
8
BLACK
6
CONTINUOUS
10
2.33051
20
-0.54439
11
2.33051
21
-0.676673
0
LINE
8
BLACK
6
CONTINUOUS
10
2.33051
20
-0.676673
11
2.33022
21
-0.677369
0
LINE
8
BLACK
6
CONTINUOUS
10
2.33022
20
-0.677369
11
2.32953
21
-0.677657
0
LINE
8
BLACK
6
CONTINUOUS
10
2.32953
20
-0.677657
11
2.25472
21
-0.677657
0
LINE
8
BLACK
6
CONTINUOUS
10
2.25472
20
-0.677657
11
2.25403
21
-0.677369
0
LINE
8
BLACK
6
CONTINUOUS
10
2.25403
20
-0.677369
11
2.25374
21
-0.676673
0
LINE
8
BLACK
6
CONTINUOUS
10
2.25374
20
-0.676673
11
2.25374
21
-0.54439
0
LINE
8
BLACK
6
CONTINUOUS
10
2.25374
20
-0.54439
11
2.25403
21
-0.543694
0
LINE
8
BLACK
6
CONTINUOUS
10
2.25403
20
-0.543694
11
2.25472
21
-0.543406
0
LINE
8
BLACK
6
CONTINUOUS
10
2.25472
20
-0.543406
11
2.32953
21
-0.543406
0
LINE
8
BLACK
6
CONTINUOUS
10
2.25571
20
-0.545374
11
2.25571
21
-0.675689
0
LINE
8
BLACK
6
CONTINUOUS
10
2.25571
20
-0.675689
11
2.32854
21
-0.675689
0
LINE
8
BLACK
6
CONTINUOUS
10
2.32854
20
-0.675689
11
2.32854
21
-0.545374
0
LINE
8
BLACK
6
CONTINUOUS
10
2.32854
20
-0.545374
11
2.25571
21
-0.545374
0
LINE
8
BLACK
6
CONTINUOUS
10
1.94685
20
-0.503248
11
1.94755
21
-0.503536
0
LINE
8
BLACK
6
CONTINUOUS
10
1.94755
20
-0.503536
11
1.94783
21
-0.504232
0
LINE
8
BLACK
6
CONTINUOUS
10
1.94783
20
-0.504232
11
1.94783
21
-0.636516
0
LINE
8
BLACK
6
CONTINUOUS
10
1.94783
20
-0.636516
11
1.94755
21
-0.637212
0
LINE
8
BLACK
6
CONTINUOUS
10
1.94755
20
-0.637212
11
1.94685
21
-0.6375
0
LINE
8
BLACK
6
CONTINUOUS
10
1.94685
20
-0.6375
11
1.87205
21
-0.6375
0
LINE
8
BLACK
6
CONTINUOUS
10
1.87205
20
-0.6375
11
1.87135
21
-0.637212
0
LINE
8
BLACK
6
CONTINUOUS
10
1.87135
20
-0.637212
11
1.87106
21
-0.636516
0
LINE
8
BLACK
6
CONTINUOUS
10
1.87106
20
-0.636516
11
1.87106
21
-0.504232
0
LINE
8
BLACK
6
CONTINUOUS
10
1.87106
20
-0.504232
11
1.87135
21
-0.503536
0
LINE
8
BLACK
6
CONTINUOUS
10
1.87135
20
-0.503536
11
1.87205
21
-0.503248
0
LINE
8
BLACK
6
CONTINUOUS
10
1.87205
20
-0.503248
11
1.94685
21
-0.503248
0
LINE
8
BLACK
6
CONTINUOUS
10
1.87303
20
-0.505217
11
1.87303
21
-0.635531
0
LINE
8
BLACK
6
CONTINUOUS
10
1.87303
20
-0.635531
11
1.94587
21
-0.635531
0
LINE
8
BLACK
6
CONTINUOUS
10
1.94587
20
-0.635531
11
1.94587
21
-0.505217
0
LINE
8
BLACK
6
CONTINUOUS
10
1.94587
20
-0.505217
11
1.87303
21
-0.505217
0
LINE
8
BLACK
6
CONTINUOUS
10
2.21732
20
-0.453346
11
2.21802
21
-0.453635
0
LINE
8
BLACK
6
CONTINUOUS
10
2.21802
20
-0.453635
11
2.21831
21
-0.454331
0
LINE
8
BLACK
6
CONTINUOUS
10
2.21831
20
-0.454331
11
2.21831
21
-0.615748
0
LINE
8
BLACK
6
CONTINUOUS
10
2.21831
20
-0.615748
11
2.21802
21
-0.616444
0
LINE
8
BLACK
6
CONTINUOUS
10
2.21802
20
-0.616444
11
2.21732
21
-0.616732
0
LINE
8
BLACK
6
CONTINUOUS
10
2.21732
20
-0.616732
11
2.08346
21
-0.616732
0
LINE
8
BLACK
6
CONTINUOUS
10
2.08346
20
-0.616732
11
2.08277
21
-0.616444
0
LINE
8
BLACK
6
CONTINUOUS
10
2.08277
20
-0.616444
11
2.08248
21
-0.615748
0
LINE
8
BLACK
6
CONTINUOUS
10
2.08248
20
-0.615748
11
2.08248
21
-0.454331
0
LINE
8
BLACK
6
CONTINUOUS
10
2.08248
20
-0.454331
11
2.08277
21
-0.453635
0
LINE
8
BLACK
6
CONTINUOUS
10
2.08277
20
-0.453635
11
2.08346
21
-0.453346
0
LINE
8
BLACK
6
CONTINUOUS
10
2.08346
20
-0.453346
11
2.21732
21
-0.453346
0
LINE
8
BLACK
6
CONTINUOUS
10
2.08445
20
-0.455315
11
2.08445
21
-0.614764
0
LINE
8
BLACK
6
CONTINUOUS
10
2.08445
20
-0.614764
11
2.21634
21
-0.614764
0
LINE
8
BLACK
6
CONTINUOUS
10
2.21634
20
-0.614764
11
2.21634
21
-0.455315
0
LINE
8
BLACK
6
CONTINUOUS
10
2.21634
20
-0.455315
11
2.08445
21
-0.455315
0
LINE
8
BLACK
6
CONTINUOUS
10
1.16063
20
-0.436024
11
1.16133
21
-0.436312
0
LINE
8
BLACK
6
CONTINUOUS
10
1.16133
20
-0.436312
11
1.16161
21
-0.437008
0
LINE
8
BLACK
6
CONTINUOUS
10
1.16161
20
-0.437008
11
1.16161
21
-0.570866
0
LINE
8
BLACK
6
CONTINUOUS
10
1.16161
20
-0.570866
11
1.16133
21
-0.571562
0
LINE
8
BLACK
6
CONTINUOUS
10
1.16133
20
-0.571562
11
1.16063
21
-0.57185
0
LINE
8
BLACK
6
CONTINUOUS
10
1.16063
20
-0.57185
11
1.08346
21
-0.57185
0
LINE
8
BLACK
6
CONTINUOUS
10
1.08346
20
-0.57185
11
1.08277
21
-0.571562
0
LINE
8
BLACK
6
CONTINUOUS
10
1.08277
20
-0.571562
11
1.08248
21
-0.570866
0
LINE
8
BLACK
6
CONTINUOUS
10
1.08248
20
-0.570866
11
1.08248
21
-0.570866
0
LINE
8
BLACK
6
CONTINUOUS
10
1.08248
20
-0.570866
11
1.08248
21
-0.437008
0
LINE
8
BLACK
6
CONTINUOUS
10
1.08248
20
-0.437008
11
1.08277
21
-0.436312
0
LINE
8
BLACK
6
CONTINUOUS
10
1.08277
20
-0.436312
11
1.08346
21
-0.436024
0
LINE
8
BLACK
6
CONTINUOUS
10
1.08346
20
-0.436024
11
1.16063
21
-0.436024
0
LINE
8
BLACK
6
CONTINUOUS
10
1.08445
20
-0.437992
11
1.08445
21
-0.569882
0
LINE
8
BLACK
6
CONTINUOUS
10
1.08445
20
-0.569882
11
1.15965
21
-0.569882
0
LINE
8
BLACK
6
CONTINUOUS
10
1.15965
20
-0.569882
11
1.15965
21
-0.437992
0
LINE
8
BLACK
6
CONTINUOUS
10
1.15965
20
-0.437992
11
1.08445
21
-0.437992
0
LINE
8
BLACK
6
CONTINUOUS
10
0.755217
20
-0.510433
11
0.755913
21
-0.510721
0
LINE
8
BLACK
6
CONTINUOUS
10
0.755913
20
-0.510721
11
0.756201
21
-0.511417
0
LINE
8
BLACK
6
CONTINUOUS
10
0.756201
20
-0.511417
11
0.756201
21
-0.566535
0
LINE
8
BLACK
6
CONTINUOUS
10
0.756201
20
-0.566535
11
0.755913
21
-0.567231
0
LINE
8
BLACK
6
CONTINUOUS
10
0.755913
20
-0.567231
11
0.755217
21
-0.56752
0
LINE
8
BLACK
6
CONTINUOUS
10
0.755217
20
-0.56752
11
0.656791
21
-0.56752
0
LINE
8
BLACK
6
CONTINUOUS
10
0.656791
20
-0.56752
11
0.656095
21
-0.567231
0
LINE
8
BLACK
6
CONTINUOUS
10
0.656095
20
-0.567231
11
0.655807
21
-0.566535
0
LINE
8
BLACK
6
CONTINUOUS
10
0.655807
20
-0.566535
11
0.655807
21
-0.511417
0
LINE
8
BLACK
6
CONTINUOUS
10
0.655807
20
-0.511417
11
0.656095
21
-0.510721
0
LINE
8
BLACK
6
CONTINUOUS
10
0.656095
20
-0.510721
11
0.656791
21
-0.510433
0
LINE
8
BLACK
6
CONTINUOUS
10
0.656791
20
-0.510433
11
0.755217
21
-0.510433
0
LINE
8
BLACK
6
CONTINUOUS
10
0.657776
20
-0.512402
11
0.657776
21
-0.565551
0
LINE
8
BLACK
6
CONTINUOUS
10
0.657776
20
-0.565551
11
0.754232
21
-0.565551
0
LINE
8
BLACK
6
CONTINUOUS
10
0.754232
20
-0.565551
11
0.754232
21
-0.512402
0
LINE
8
BLACK
6
CONTINUOUS
10
0.754232
20
-0.512402
11
0.657776
21
-0.512402
0
LINE
8
BLACK
6
CONTINUOUS
10
1.6189
20
0.038189
11
1.61959
21
0.0379007
0
LINE
8
BLACK
6
CONTINUOUS
10
1.61959
20
0.0379007
11
1.61988
21
0.0372047
0
LINE
8
BLACK
6
CONTINUOUS
10
1.61988
20
0.0372047
11
1.61988
21
-0.549409
0
LINE
8
BLACK
6
CONTINUOUS
10
1.61988
20
-0.549409
11
1.61959
21
-0.550105
0
LINE
8
BLACK
6
CONTINUOUS
10
1.61959
20
-0.550105
11
1.6189
21
-0.550394
0
LINE
8
BLACK
6
CONTINUOUS
10
1.6189
20
-0.550394
11
1.47717
21
-0.550394
0
LINE
8
BLACK
6
CONTINUOUS
10
1.47717
20
-0.550394
11
1.47647
21
-0.550105
0
LINE
8
BLACK
6
CONTINUOUS
10
1.47647
20
-0.550105
11
1.47618
21
-0.549409
0
LINE
8
BLACK
6
CONTINUOUS
10
1.47618
20
-0.549409
11
1.47618
21
0.0372047
0
LINE
8
BLACK
6
CONTINUOUS
10
1.47618
20
0.0372047
11
1.47647
21
0.0379007
0
LINE
8
BLACK
6
CONTINUOUS
10
1.47647
20
0.0379007
11
1.47717
21
0.038189
0
LINE
8
BLACK
6
CONTINUOUS
10
1.47717
20
0.038189
11
1.6189
21
0.038189
0
LINE
8
BLACK
6
CONTINUOUS
10
1.47815
20
0.0362205
11
1.47815
21
-0.548425
0
LINE
8
BLACK
6
CONTINUOUS
10
1.47815
20
-0.548425
11
1.61791
21
-0.548425
0
LINE
8
BLACK
6
CONTINUOUS
10
1.61791
20
-0.548425
11
1.61791
21
0.0362205
0
LINE
8
BLACK
6
CONTINUOUS
10
1.61791
20
0.0362205
11
1.47815
21
0.0362205
0
LINE
8
BLACK
6
CONTINUOUS
10
1.76378
20
0.0383858
11
1.76448
21
0.0380976
0
LINE
8
BLACK
6
CONTINUOUS
10
1.76448
20
0.0380976
11
1.76476
21
0.0374016
0
LINE
8
BLACK
6
CONTINUOUS
10
1.76476
20
0.0374016
11
1.76476
21
-0.214567
0
LINE
8
BLACK
6
CONTINUOUS
10
1.76476
20
-0.214567
11
1.76505
21
-0.213871
0
LINE
8
BLACK
6
CONTINUOUS
10
1.76505
20
-0.213871
11
1.76575
21
-0.213583
0
LINE
8
BLACK
6
CONTINUOUS
10
1.76575
20
-0.213583
11
1.94449
21
-0.213583
0
LINE
8
BLACK
6
CONTINUOUS
10
1.94449
20
-0.213583
11
1.94518
21
-0.213871
0
LINE
8
BLACK
6
CONTINUOUS
10
1.94518
20
-0.213871
11
1.94547
21
-0.214567
0
LINE
8
BLACK
6
CONTINUOUS
10
1.94547
20
-0.214567
11
1.94547
21
-0.297244
0
LINE
8
BLACK
6
CONTINUOUS
10
1.94547
20
-0.297244
11
1.94518
21
-0.29794
0
LINE
8
BLACK
6
CONTINUOUS
10
1.94518
20
-0.29794
11
1.94449
21
-0.298228
0
LINE
8
BLACK
6
CONTINUOUS
10
1.94449
20
-0.298228
11
1.76575
21
-0.298228
0
LINE
8
BLACK
6
CONTINUOUS
10
1.76575
20
-0.298228
11
1.76505
21
-0.29794
0
LINE
8
BLACK
6
CONTINUOUS
10
1.76505
20
-0.29794
11
1.76476
21
-0.297244
0
LINE
8
BLACK
6
CONTINUOUS
10
1.76476
20
-0.297244
11
1.76476
21
-0.549213
0
LINE
8
BLACK
6
CONTINUOUS
10
1.76476
20
-0.549213
11
1.76448
21
-0.549909
0
LINE
8
BLACK
6
CONTINUOUS
10
1.76448
20
-0.549909
11
1.76378
21
-0.550197
0
LINE
8
BLACK
6
CONTINUOUS
10
1.76378
20
-0.550197
11
1.62205
21
-0.550197
0
LINE
8
BLACK
6
CONTINUOUS
10
1.62205
20
-0.550197
11
1.62135
21
-0.549909
0
LINE
8
BLACK
6
CONTINUOUS
10
1.62135
20
-0.549909
11
1.62106
21
-0.549213
0
LINE
8
BLACK
6
CONTINUOUS
10
1.62106
20
-0.549213
11
1.62106
21
0.0374016
0
LINE
8
BLACK
6
CONTINUOUS
10
1.62106
20
0.0374016
11
1.62135
21
0.0380976
0
LINE
8
BLACK
6
CONTINUOUS
10
1.62135
20
0.0380976
11
1.62205
21
0.0383858
0
LINE
8
BLACK
6
CONTINUOUS
10
1.62205
20
0.0383858
11
1.76378
21
0.0383858
0
LINE
8
BLACK
6
CONTINUOUS
10
1.62303
20
0.0364173
11
1.62303
21
-0.548228
0
LINE
8
BLACK
6
CONTINUOUS
10
1.62303
20
-0.548228
11
1.7628
21
-0.548228
0
LINE
8
BLACK
6
CONTINUOUS
10
1.7628
20
-0.548228
11
1.7628
21
0.0364173
0
LINE
8
BLACK
6
CONTINUOUS
10
1.7628
20
0.0364173
11
1.62303
21
0.0364173
0
LINE
8
BLACK
6
CONTINUOUS
10
1.76673
20
-0.215551
11
1.76673
21
-0.29626
0
LINE
8
BLACK
6
CONTINUOUS
10
1.76673
20
-0.29626
11
1.9435
21
-0.29626
0
LINE
8
BLACK
6
CONTINUOUS
10
1.9435
20
-0.29626
11
1.9435
21
-0.215551
0
LINE
8
BLACK
6
CONTINUOUS
10
1.9435
20
-0.215551
11
1.76673
21
-0.215551
0
LINE
8
BLACK
6
CONTINUOUS
10
1.45433
20
0.038189
11
1.45503
21
0.0379007
0
LINE
8
BLACK
6
CONTINUOUS
10
1.45503
20
0.0379007
11
1.45531
21
0.0372047
0
LINE
8
BLACK
6
CONTINUOUS
10
1.45531
20
0.0372047
11
1.45531
21
-0.542717
0
LINE
8
BLACK
6
CONTINUOUS
10
1.45531
20
-0.542717
11
1.45503
21
-0.543413
0
LINE
8
BLACK
6
CONTINUOUS
10
1.45503
20
-0.543413
11
1.45433
21
-0.543701
0
LINE
8
BLACK
6
CONTINUOUS
10
1.45433
20
-0.543701
11
1.1811
21
-0.543701
0
LINE
8
BLACK
6
CONTINUOUS
10
1.1811
20
-0.543701
11
1.18041
21
-0.543413
0
LINE
8
BLACK
6
CONTINUOUS
10
1.18041
20
-0.543413
11
1.18012
21
-0.542717
0
LINE
8
BLACK
6
CONTINUOUS
10
1.18012
20
-0.542717
11
1.18012
21
-0.542716
0
LINE
8
BLACK
6
CONTINUOUS
10
1.18012
20
-0.542716
11
1.18012
21
0.0372047
0
LINE
8
BLACK
6
CONTINUOUS
10
1.18012
20
0.0372047
11
1.18041
21
0.0379007
0
LINE
8
BLACK
6
CONTINUOUS
10
1.18041
20
0.0379007
11
1.1811
21
0.038189
0
LINE
8
BLACK
6
CONTINUOUS
10
1.1811
20
0.038189
11
1.45433
21
0.038189
0
LINE
8
BLACK
6
CONTINUOUS
10
1.18209
20
0.0362205
11
1.18209
21
-0.541732
0
LINE
8
BLACK
6
CONTINUOUS
10
1.18209
20
-0.541732
11
1.45335
21
-0.541732
0
LINE
8
BLACK
6
CONTINUOUS
10
1.45335
20
-0.541732
11
1.45335
21
0.0362205
0
LINE
8
BLACK
6
CONTINUOUS
10
1.45335
20
0.0362205
11
1.18209
21
0.0362205
0
LINE
8
BLACK
6
CONTINUOUS
10
2.33346
20
-0.39872
11
2.33416
21
-0.399009
0
LINE
8
BLACK
6
CONTINUOUS
10
2.33416
20
-0.399009
11
2.33445
21
-0.399705
0
LINE
8
BLACK
6
CONTINUOUS
10
2.33445
20
-0.399705
11
2.33445
21
-0.531988
0
LINE
8
BLACK
6
CONTINUOUS
10
2.33445
20
-0.531988
11
2.33416
21
-0.532684
0
LINE
8
BLACK
6
CONTINUOUS
10
2.33416
20
-0.532684
11
2.33346
21
-0.532972
0
LINE
8
BLACK
6
CONTINUOUS
10
2.33346
20
-0.532972
11
2.25866
21
-0.532972
0
LINE
8
BLACK
6
CONTINUOUS
10
2.25866
20
-0.532972
11
2.25797
21
-0.532684
0
LINE
8
BLACK
6
CONTINUOUS
10
2.25797
20
-0.532684
11
2.25768
21
-0.531988
0
LINE
8
BLACK
6
CONTINUOUS
10
2.25768
20
-0.531988
11
2.25768
21
-0.399705
0
LINE
8
BLACK
6
CONTINUOUS
10
2.25768
20
-0.399705
11
2.25797
21
-0.399009
0
LINE
8
BLACK
6
CONTINUOUS
10
2.25797
20
-0.399009
11
2.25866
21
-0.39872
0
LINE
8
BLACK
6
CONTINUOUS
10
2.25866
20
-0.39872
11
2.33346
21
-0.39872
0
LINE
8
BLACK
6
CONTINUOUS
10
2.25965
20
-0.400689
11
2.25965
21
-0.531004
0
LINE
8
BLACK
6
CONTINUOUS
10
2.25965
20
-0.531004
11
2.33248
21
-0.531004
0
LINE
8
BLACK
6
CONTINUOUS
10
2.33248
20
-0.531004
11
2.33248
21
-0.400689
0
LINE
8
BLACK
6
CONTINUOUS
10
2.33248
20
-0.400689
11
2.25965
21
-0.400689
0
LINE
8
BLACK
6
CONTINUOUS
10
0.772441
20
-0.428543
11
0.773137
21
-0.428832
0
LINE
8
BLACK
6
CONTINUOUS
10
0.773137
20
-0.428832
11
0.773425
21
-0.429528
0
LINE
8
BLACK
6
CONTINUOUS
10
0.773425
20
-0.429528
11
0.773425
21
-0.506693
0
LINE
8
BLACK
6
CONTINUOUS
10
0.773425
20
-0.506693
11
0.773137
21
-0.507389
0
LINE
8
BLACK
6
CONTINUOUS
10
0.773137
20
-0.507389
11
0.772441
21
-0.507677
0
LINE
8
BLACK
6
CONTINUOUS
10
0.772441
20
-0.507677
11
0.638583
21
-0.507677
0
LINE
8
BLACK
6
CONTINUOUS
10
0.638583
20
-0.507677
11
0.637887
21
-0.507389
0
LINE
8
BLACK
6
CONTINUOUS
10
0.637887
20
-0.507389
11
0.637598
21
-0.506693
0
LINE
8
BLACK
6
CONTINUOUS
10
0.637598
20
-0.506693
11
0.637598
21
-0.429528
0
LINE
8
BLACK
6
CONTINUOUS
10
0.637598
20
-0.429528
11
0.637887
21
-0.428832
0
LINE
8
BLACK
6
CONTINUOUS
10
0.637887
20
-0.428832
11
0.638583
21
-0.428543
0
LINE
8
BLACK
6
CONTINUOUS
10
0.638583
20
-0.428543
11
0.772441
21
-0.428543
0
LINE
8
BLACK
6
CONTINUOUS
10
0.639567
20
-0.430512
11
0.639567
21
-0.505709
0
LINE
8
BLACK
6
CONTINUOUS
10
0.639567
20
-0.505709
11
0.771457
21
-0.505709
0
LINE
8
BLACK
6
CONTINUOUS
10
0.771457
20
-0.505709
11
0.771457
21
-0.430512
0
LINE
8
BLACK
6
CONTINUOUS
10
0.771457
20
-0.430512
11
0.639567
21
-0.430512
0
LINE
8
BLACK
6
CONTINUOUS
10
1.16142
20
0.038189
11
1.16211
21
0.0379007
0
LINE
8
BLACK
6
CONTINUOUS
10
1.16211
20
0.0379007
11
1.1624
21
0.0372047
0
LINE
8
BLACK
6
CONTINUOUS
10
1.1624
20
0.0372047
11
1.1624
21
-0.392323
0
LINE
8
BLACK
6
CONTINUOUS
10
1.1624
20
-0.392323
11
1.16211
21
-0.393019
0
LINE
8
BLACK
6
CONTINUOUS
10
1.16211
20
-0.393019
11
1.16142
21
-0.393307
0
LINE
8
BLACK
6
CONTINUOUS
10
1.16142
20
-0.393307
11
1.05098
21
-0.393307
0
LINE
8
BLACK
6
CONTINUOUS
10
1.05098
20
-0.393307
11
1.05098
21
-0.500984
0
LINE
8
BLACK
6
CONTINUOUS
10
1.05098
20
-0.500984
11
1.0507
21
-0.50168
0
LINE
8
BLACK
6
CONTINUOUS
10
1.0507
20
-0.50168
11
1.05
21
-0.501969
0
LINE
8
BLACK
6
CONTINUOUS
10
1.05
20
-0.501969
11
0.833465
21
-0.501969
0
LINE
8
BLACK
6
CONTINUOUS
10
0.833465
20
-0.501969
11
0.832769
21
-0.50168
0
LINE
8
BLACK
6
CONTINUOUS
10
0.832769
20
-0.50168
11
0.83248
21
-0.500984
0
LINE
8
BLACK
6
CONTINUOUS
10
0.83248
20
-0.500984
11
0.83248
21
-0.393307
0
LINE
8
BLACK
6
CONTINUOUS
10
0.83248
20
-0.393307
11
0.722047
21
-0.393307
0
LINE
8
BLACK
6
CONTINUOUS
10
0.722047
20
-0.393307
11
0.721351
21
-0.393019
0
LINE
8
BLACK
6
CONTINUOUS
10
0.721351
20
-0.393019
11
0.721063
21
-0.392323
0
LINE
8
BLACK
6
CONTINUOUS
10
0.721063
20
-0.392323
11
0.721063
21
0.0372047
0
LINE
8
BLACK
6
CONTINUOUS
10
0.721063
20
0.0372047
11
0.721351
21
0.0379007
0
LINE
8
BLACK
6
CONTINUOUS
10
0.721351
20
0.0379007
11
0.722047
21
0.038189
0
LINE
8
BLACK
6
CONTINUOUS
10
0.722047
20
0.038189
11
1.16142
21
0.038189
0
LINE
8
BLACK
6
CONTINUOUS
10
0.723031
20
0.0362205
11
0.723031
21
-0.391339
0
LINE
8
BLACK
6
CONTINUOUS
10
0.723031
20
-0.391339
11
0.833465
21
-0.391339
0
LINE
8
BLACK
6
CONTINUOUS
10
0.833465
20
-0.391339
11
0.834161
21
-0.391627
0
LINE
8
BLACK
6
CONTINUOUS
10
0.834161
20
-0.391627
11
0.834449
21
-0.392323
0
LINE
8
BLACK
6
CONTINUOUS
10
0.834449
20
-0.392323
11
0.834449
21
-0.5
0
LINE
8
BLACK
6
CONTINUOUS
10
0.834449
20
-0.5
11
1.04902
21
-0.5
0
LINE
8
BLACK
6
CONTINUOUS
10
1.04902
20
-0.5
11
1.04902
21
-0.392323
0
LINE
8
BLACK
6
CONTINUOUS
10
1.04902
20
-0.392323
11
1.0493
21
-0.391627
0
LINE
8
BLACK
6
CONTINUOUS
10
1.0493
20
-0.391627
11
1.05
21
-0.391339
0
LINE
8
BLACK
6
CONTINUOUS
10
1.05
20
-0.391339
11
1.16043
21
-0.391339
0
LINE
8
BLACK
6
CONTINUOUS
10
1.16043
20
-0.391339
11
1.16043
21
0.0362205
0
LINE
8
BLACK
6
CONTINUOUS
10
1.16043
20
0.0362205
11
0.723031
21
0.0362205
0
LINE
8
BLACK
6
CONTINUOUS
10
2.04656
20
-0.399213
11
2.04725
21
-0.399501
0
LINE
8
BLACK
6
CONTINUOUS
10
2.04725
20
-0.399501
11
2.04754
21
-0.400197
0
LINE
8
BLACK
6
CONTINUOUS
10
2.04754
20
-0.400197
11
2.04754
21
-0.455315
0
LINE
8
BLACK
6
CONTINUOUS
10
2.04754
20
-0.455315
11
2.04725
21
-0.456011
0
LINE
8
BLACK
6
CONTINUOUS
10
2.04725
20
-0.456011
11
2.04656
21
-0.456299
0
LINE
8
BLACK
6
CONTINUOUS
10
2.04656
20
-0.456299
11
1.94813
21
-0.456299
0
LINE
8
BLACK
6
CONTINUOUS
10
1.94813
20
-0.456299
11
1.94743
21
-0.456011
0
LINE
8
BLACK
6
CONTINUOUS
10
1.94743
20
-0.456011
11
1.94715
21
-0.455315
0
LINE
8
BLACK
6
CONTINUOUS
10
1.94715
20
-0.455315
11
1.94715
21
-0.400197
0
LINE
8
BLACK
6
CONTINUOUS
10
1.94715
20
-0.400197
11
1.94743
21
-0.399501
0
LINE
8
BLACK
6
CONTINUOUS
10
1.94743
20
-0.399501
11
1.94813
21
-0.399213
0
LINE
8
BLACK
6
CONTINUOUS
10
1.94813
20
-0.399213
11
2.04656
21
-0.399213
0
LINE
8
BLACK
6
CONTINUOUS
10
1.94911
20
-0.401181
11
1.94911
21
-0.454331
0
LINE
8
BLACK
6
CONTINUOUS
10
1.94911
20
-0.454331
11
2.04557
21
-0.454331
0
LINE
8
BLACK
6
CONTINUOUS
10
2.04557
20
-0.454331
11
2.04557
21
-0.401181
0
LINE
8
BLACK
6
CONTINUOUS
10
2.04557
20
-0.401181
11
1.94911
21
-0.401181
0
LINE
8
BLACK
6
CONTINUOUS
10
0.214301
20
-0.0639384
11
0.228445
21
-0.0661786
0
LINE
8
BLACK
6
CONTINUOUS
10
0.228445
20
-0.0661786
11
0.242277
21
-0.069885
0
LINE
8
BLACK
6
CONTINUOUS
10
0.242277
20
-0.069885
11
0.255646
21
-0.0750169
0
LINE
8
BLACK
6
CONTINUOUS
10
0.255646
20
-0.0750169
11
0.268406
21
-0.0815182
0
LINE
8
BLACK
6
CONTINUOUS
10
0.268406
20
-0.0815182
11
0.280416
21
-0.0893176
0
LINE
8
BLACK
6
CONTINUOUS
10
0.280416
20
-0.0893176
11
0.291544
21
-0.0983296
0
LINE
8
BLACK
6
CONTINUOUS
10
0.291544
20
-0.0983296
11
0.30167
21
-0.108456
0
LINE
8
BLACK
6
CONTINUOUS
10
0.30167
20
-0.108456
11
0.310682
21
-0.119584
0
LINE
8
BLACK
6
CONTINUOUS
10
0.310682
20
-0.119584
11
0.318482
21
-0.131594
0
LINE
8
BLACK
6
CONTINUOUS
10
0.318482
20
-0.131594
11
0.324983
21
-0.144354
0
LINE
8
BLACK
6
CONTINUOUS
10
0.324983
20
-0.144354
11
0.330115
21
-0.157723
0
LINE
8
BLACK
6
CONTINUOUS
10
0.330115
20
-0.157723
11
0.333821
21
-0.171555
0
LINE
8
BLACK
6
CONTINUOUS
10
0.333821
20
-0.171555
11
0.336062
21
-0.185699
0
LINE
8
BLACK
6
CONTINUOUS
10
0.336062
20
-0.185699
11
0.336811
21
-0.2
0
LINE
8
BLACK
6
CONTINUOUS
10
0.336811
20
-0.2
11
0.336062
21
-0.214301
0
LINE
8
BLACK
6
CONTINUOUS
10
0.336062
20
-0.214301
11
0.333821
21
-0.228445
0
LINE
8
BLACK
6
CONTINUOUS
10
0.333821
20
-0.228445
11
0.330115
21
-0.242277
0
LINE
8
BLACK
6
CONTINUOUS
10
0.330115
20
-0.242277
11
0.324983
21
-0.255646
0
LINE
8
BLACK
6
CONTINUOUS
10
0.324983
20
-0.255646
11
0.318482
21
-0.268406
0
LINE
8
BLACK
6
CONTINUOUS
10
0.318482
20
-0.268406
11
0.310682
21
-0.280416
0
LINE
8
BLACK
6
CONTINUOUS
10
0.310682
20
-0.280416
11
0.30167
21
-0.291544
0
LINE
8
BLACK
6
CONTINUOUS
10
0.30167
20
-0.291544
11
0.291544
21
-0.30167
0
LINE
8
BLACK
6
CONTINUOUS
10
0.291544
20
-0.30167
11
0.280416
21
-0.310682
0
LINE
8
BLACK
6
CONTINUOUS
10
0.280416
20
-0.310682
11
0.268406
21
-0.318482
0
LINE
8
BLACK
6
CONTINUOUS
10
0.268406
20
-0.318482
11
0.255646
21
-0.324983
0
LINE
8
BLACK
6
CONTINUOUS
10
0.255646
20
-0.324983
11
0.242277
21
-0.330115
0
LINE
8
BLACK
6
CONTINUOUS
10
0.242277
20
-0.330115
11
0.228445
21
-0.333821
0
LINE
8
BLACK
6
CONTINUOUS
10
0.228445
20
-0.333821
11
0.214301
21
-0.336062
0
LINE
8
BLACK
6
CONTINUOUS
10
0.214301
20
-0.336062
11
0.2
21
-0.336811
0
LINE
8
BLACK
6
CONTINUOUS
10
0.2
20
-0.336811
11
0.185699
21
-0.336062
0
LINE
8
BLACK
6
CONTINUOUS
10
0.185699
20
-0.336062
11
0.171555
21
-0.333821
0
LINE
8
BLACK
6
CONTINUOUS
10
0.171555
20
-0.333821
11
0.157723
21
-0.330115
0
LINE
8
BLACK
6
CONTINUOUS
10
0.157723
20
-0.330115
11
0.144354
21
-0.324983
0
LINE
8
BLACK
6
CONTINUOUS
10
0.144354
20
-0.324983
11
0.131594
21
-0.318482
0
LINE
8
BLACK
6
CONTINUOUS
10
0.131594
20
-0.318482
11
0.119584
21
-0.310682
0
LINE
8
BLACK
6
CONTINUOUS
10
0.119584
20
-0.310682
11
0.108456
21
-0.30167
0
LINE
8
BLACK
6
CONTINUOUS
10
0.108456
20
-0.30167
11
0.0983296
21
-0.291544
0
LINE
8
BLACK
6
CONTINUOUS
10
0.0983296
20
-0.291544
11
0.0893176
21
-0.280416
0
LINE
8
BLACK
6
CONTINUOUS
10
0.0893176
20
-0.280416
11
0.0815182
21
-0.268406
0
LINE
8
BLACK
6
CONTINUOUS
10
0.0815182
20
-0.268406
11
0.0750169
21
-0.255646
0
LINE
8
BLACK
6
CONTINUOUS
10
0.0750169
20
-0.255646
11
0.069885
21
-0.242277
0
LINE
8
BLACK
6
CONTINUOUS
10
0.069885
20
-0.242277
11
0.0661786
21
-0.228445
0
LINE
8
BLACK
6
CONTINUOUS
10
0.0661786
20
-0.228445
11
0.0639384
21
-0.214301
0
LINE
8
BLACK
6
CONTINUOUS
10
0.0639384
20
-0.214301
11
0.063189
21
-0.2
0
LINE
8
BLACK
6
CONTINUOUS
10
0.063189
20
-0.2
11
0.0639384
21
-0.185699
0
LINE
8
BLACK
6
CONTINUOUS
10
0.0639384
20
-0.185699
11
0.0661786
21
-0.171555
0
LINE
8
BLACK
6
CONTINUOUS
10
0.0661786
20
-0.171555
11
0.069885
21
-0.157723
0
LINE
8
BLACK
6
CONTINUOUS
10
0.069885
20
-0.157723
11
0.0750169
21
-0.144354
0
LINE
8
BLACK
6
CONTINUOUS
10
0.0750169
20
-0.144354
11
0.0815182
21
-0.131594
0
LINE
8
BLACK
6
CONTINUOUS
10
0.0815182
20
-0.131594
11
0.0893176
21
-0.119584
0
LINE
8
BLACK
6
CONTINUOUS
10
0.0893176
20
-0.119584
11
0.0983296
21
-0.108456
0
LINE
8
BLACK
6
CONTINUOUS
10
0.0983296
20
-0.108456
11
0.108456
21
-0.0983296
0
LINE
8
BLACK
6
CONTINUOUS
10
0.108456
20
-0.0983296
11
0.119584
21
-0.0893176
0
LINE
8
BLACK
6
CONTINUOUS
10
0.119584
20
-0.0893176
11
0.131594
21
-0.0815182
0
LINE
8
BLACK
6
CONTINUOUS
10
0.131594
20
-0.0815182
11
0.144354
21
-0.0750169
0
LINE
8
BLACK
6
CONTINUOUS
10
0.144354
20
-0.0750169
11
0.157723
21
-0.069885
0
LINE
8
BLACK
6
CONTINUOUS
10
0.157723
20
-0.069885
11
0.171555
21
-0.0661786
0
LINE
8
BLACK
6
CONTINUOUS
10
0.171555
20
-0.0661786
11
0.185699
21
-0.0639384
0
LINE
8
BLACK
6
CONTINUOUS
10
0.185699
20
-0.0639384
11
0.2
21
-0.063189
0
LINE
8
BLACK
6
CONTINUOUS
10
0.2
20
-0.063189
11
0.214301
21
-0.0639384
0
LINE
8
BLACK
6
CONTINUOUS
10
0.0657511
20
-0.2146
11
0.0681166
21
-0.22903
0
LINE
8
BLACK
6
CONTINUOUS
10
0.0681166
20
-0.22903
11
0.0720284
21
-0.243119
0
LINE
8
BLACK
6
CONTINUOUS
10
0.0720284
20
-0.243119
11
0.0774405
21
-0.256702
0
LINE
8
BLACK
6
CONTINUOUS
10
0.0774405
20
-0.256702
11
0.0842895
21
-0.269621
0
LINE
8
BLACK
6
CONTINUOUS
10
0.0842895
20
-0.269621
11
0.0924952
21
-0.281723
0
LINE
8
BLACK
6
CONTINUOUS
10
0.0924952
20
-0.281723
11
0.101961
21
-0.292867
0
LINE
8
BLACK
6
CONTINUOUS
10
0.101961
20
-0.292867
11
0.112577
21
-0.302923
0
LINE
8
BLACK
6
CONTINUOUS
10
0.112577
20
-0.302923
11
0.124217
21
-0.311772
0
LINE
8
BLACK
6
CONTINUOUS
10
0.124217
20
-0.311772
11
0.136746
21
-0.31931
0
LINE
8
BLACK
6
CONTINUOUS
10
0.136746
20
-0.31931
11
0.150016
21
-0.32545
0
LINE
8
BLACK
6
CONTINUOUS
10
0.150016
20
-0.32545
11
0.163873
21
-0.330118
0
LINE
8
BLACK
6
CONTINUOUS
10
0.163873
20
-0.330118
11
0.178153
21
-0.333262
0
LINE
8
BLACK
6
CONTINUOUS
10
0.178153
20
-0.333262
11
0.192689
21
-0.334843
0
LINE
8
BLACK
6
CONTINUOUS
10
0.192689
20
-0.334843
11
0.207311
21
-0.334843
0
LINE
8
BLACK
6
CONTINUOUS
10
0.207311
20
-0.334843
11
0.221847
21
-0.333262
0
LINE
8
BLACK
6
CONTINUOUS
10
0.221847
20
-0.333262
11
0.236127
21
-0.330118
0
LINE
8
BLACK
6
CONTINUOUS
10
0.236127
20
-0.330118
11
0.249984
21
-0.32545
0
LINE
8
BLACK
6
CONTINUOUS
10
0.249984
20
-0.32545
11
0.263254
21
-0.31931
0
LINE
8
BLACK
6
CONTINUOUS
10
0.263254
20
-0.31931
11
0.275783
21
-0.311772
0
LINE
8
BLACK
6
CONTINUOUS
10
0.275783
20
-0.311772
11
0.287423
21
-0.302923
0
LINE
8
BLACK
6
CONTINUOUS
10
0.287423
20
-0.302923
11
0.298039
21
-0.292867
0
LINE
8
BLACK
6
CONTINUOUS
10
0.298039
20
-0.292867
11
0.307505
21
-0.281723
0
LINE
8
BLACK
6
CONTINUOUS
10
0.307505
20
-0.281723
11
0.31571
21
-0.269621
0
LINE
8
BLACK
6
CONTINUOUS
10
0.31571
20
-0.269621
11
0.322559
21
-0.256702
0
LINE
8
BLACK
6
CONTINUOUS
10
0.322559
20
-0.256702
11
0.327972
21
-0.243119
0
LINE
8
BLACK
6
CONTINUOUS
10
0.327972
20
-0.243119
11
0.331883
21
-0.22903
0
LINE
8
BLACK
6
CONTINUOUS
10
0.331883
20
-0.22903
11
0.334249
21
-0.2146
0
LINE
8
BLACK
6
CONTINUOUS
10
0.334249
20
-0.2146
11
0.335041
21
-0.2
0
LINE
8
BLACK
6
CONTINUOUS
10
0.335041
20
-0.2
11
0.334249
21
-0.1854
0
LINE
8
BLACK
6
CONTINUOUS
10
0.334249
20
-0.1854
11
0.331883
21
-0.17097
0
LINE
8
BLACK
6
CONTINUOUS
10
0.331883
20
-0.17097
11
0.327972
21
-0.156881
0
LINE
8
BLACK
6
CONTINUOUS
10
0.327972
20
-0.156881
11
0.322559
21
-0.143298
0
LINE
8
BLACK
6
CONTINUOUS
10
0.322559
20
-0.143298
11
0.31571
21
-0.130379
0
LINE
8
BLACK
6
CONTINUOUS
10
0.31571
20
-0.130379
11
0.307505
21
-0.118277
0
LINE
8
BLACK
6
CONTINUOUS
10
0.307505
20
-0.118277
11
0.298039
21
-0.107133
0
LINE
8
BLACK
6
CONTINUOUS
10
0.298039
20
-0.107133
11
0.287423
21
-0.0970772
0
LINE
8
BLACK
6
CONTINUOUS
10
0.287423
20
-0.0970772
11
0.275783
21
-0.0882284
0
LINE
8
BLACK
6
CONTINUOUS
10
0.275783
20
-0.0882284
11
0.263254
21
-0.08069
0
LINE
8
BLACK
6
CONTINUOUS
10
0.263254
20
-0.08069
11
0.249984
21
-0.0745505
0
LINE
8
BLACK
6
CONTINUOUS
10
0.249984
20
-0.0745505
11
0.236127
21
-0.0698817
0
LINE
8
BLACK
6
CONTINUOUS
10
0.236127
20
-0.0698817
11
0.221847
21
-0.0667384
0
LINE
8
BLACK
6
CONTINUOUS
10
0.221847
20
-0.0667384
11
0.207311
21
-0.0651575
0
LINE
8
BLACK
6
CONTINUOUS
10
0.207311
20
-0.0651575
11
0.192689
21
-0.0651575
0
LINE
8
BLACK
6
CONTINUOUS
10
0.192689
20
-0.0651575
11
0.178153
21
-0.0667384
0
LINE
8
BLACK
6
CONTINUOUS
10
0.178153
20
-0.0667384
11
0.163873
21
-0.0698817
0
LINE
8
BLACK
6
CONTINUOUS
10
0.163873
20
-0.0698817
11
0.150016
21
-0.0745505
0
LINE
8
BLACK
6
CONTINUOUS
10
0.150016
20
-0.0745505
11
0.136746
21
-0.08069
0
LINE
8
BLACK
6
CONTINUOUS
10
0.136746
20
-0.08069
11
0.124217
21
-0.0882284
0
LINE
8
BLACK
6
CONTINUOUS
10
0.124217
20
-0.0882284
11
0.112577
21
-0.0970772
0
LINE
8
BLACK
6
CONTINUOUS
10
0.112577
20
-0.0970772
11
0.101961
21
-0.107133
0
LINE
8
BLACK
6
CONTINUOUS
10
0.101961
20
-0.107133
11
0.0924952
21
-0.118277
0
LINE
8
BLACK
6
CONTINUOUS
10
0.0924952
20
-0.118277
11
0.0842895
21
-0.130379
0
LINE
8
BLACK
6
CONTINUOUS
10
0.0842895
20
-0.130379
11
0.0774405
21
-0.143298
0
LINE
8
BLACK
6
CONTINUOUS
10
0.0774405
20
-0.143298
11
0.0720284
21
-0.156881
0
LINE
8
BLACK
6
CONTINUOUS
10
0.0720284
20
-0.156881
11
0.0681166
21
-0.17097
0
LINE
8
BLACK
6
CONTINUOUS
10
0.0681166
20
-0.17097
11
0.0657511
21
-0.1854
0
LINE
8
BLACK
6
CONTINUOUS
10
0.0657511
20
-0.1854
11
0.0649594
21
-0.2
0
LINE
8
BLACK
6
CONTINUOUS
10
0.0649594
20
-0.2
11
0.0657511
21
-0.2146
0
LINE
8
BLACK
6
CONTINUOUS
10
2.6143
20
-0.0639384
11
2.62844
21
-0.0661786
0
LINE
8
BLACK
6
CONTINUOUS
10
2.62844
20
-0.0661786
11
2.64228
21
-0.069885
0
LINE
8
BLACK
6
CONTINUOUS
10
2.64228
20
-0.069885
11
2.65565
21
-0.0750169
0
LINE
8
BLACK
6
CONTINUOUS
10
2.65565
20
-0.0750169
11
2.66841
21
-0.0815182
0
LINE
8
BLACK
6
CONTINUOUS
10
2.66841
20
-0.0815182
11
2.68042
21
-0.0893176
0
LINE
8
BLACK
6
CONTINUOUS
10
2.68042
20
-0.0893176
11
2.69154
21
-0.0983296
0
LINE
8
BLACK
6
CONTINUOUS
10
2.69154
20
-0.0983296
11
2.70167
21
-0.108456
0
LINE
8
BLACK
6
CONTINUOUS
10
2.70167
20
-0.108456
11
2.71068
21
-0.119584
0
LINE
8
BLACK
6
CONTINUOUS
10
2.71068
20
-0.119584
11
2.71848
21
-0.131594
0
LINE
8
BLACK
6
CONTINUOUS
10
2.71848
20
-0.131594
11
2.72498
21
-0.144354
0
LINE
8
BLACK
6
CONTINUOUS
10
2.72498
20
-0.144354
11
2.73012
21
-0.157723
0
LINE
8
BLACK
6
CONTINUOUS
10
2.73012
20
-0.157723
11
2.73382
21
-0.171555
0
LINE
8
BLACK
6
CONTINUOUS
10
2.73382
20
-0.171555
11
2.73606
21
-0.185699
0
LINE
8
BLACK
6
CONTINUOUS
10
2.73606
20
-0.185699
11
2.73681
21
-0.2
0
LINE
8
BLACK
6
CONTINUOUS
10
2.73681
20
-0.2
11
2.73606
21
-0.214301
0
LINE
8
BLACK
6
CONTINUOUS
10
2.73606
20
-0.214301
11
2.73382
21
-0.228445
0
LINE
8
BLACK
6
CONTINUOUS
10
2.73382
20
-0.228445
11
2.73012
21
-0.242277
0
LINE
8
BLACK
6
CONTINUOUS
10
2.73012
20
-0.242277
11
2.72498
21
-0.255646
0
LINE
8
BLACK
6
CONTINUOUS
10
2.72498
20
-0.255646
11
2.71848
21
-0.268406
0
LINE
8
BLACK
6
CONTINUOUS
10
2.71848
20
-0.268406
11
2.71068
21
-0.280416
0
LINE
8
BLACK
6
CONTINUOUS
10
2.71068
20
-0.280416
11
2.70167
21
-0.291544
0
LINE
8
BLACK
6
CONTINUOUS
10
2.70167
20
-0.291544
11
2.69154
21
-0.30167
0
LINE
8
BLACK
6
CONTINUOUS
10
2.69154
20
-0.30167
11
2.68042
21
-0.310682
0
LINE
8
BLACK
6
CONTINUOUS
10
2.68042
20
-0.310682
11
2.66841
21
-0.318482
0
LINE
8
BLACK
6
CONTINUOUS
10
2.66841
20
-0.318482
11
2.65565
21
-0.324983
0
LINE
8
BLACK
6
CONTINUOUS
10
2.65565
20
-0.324983
11
2.64228
21
-0.330115
0
LINE
8
BLACK
6
CONTINUOUS
10
2.64228
20
-0.330115
11
2.62844
21
-0.333821
0
LINE
8
BLACK
6
CONTINUOUS
10
2.62844
20
-0.333821
11
2.6143
21
-0.336062
0
LINE
8
BLACK
6
CONTINUOUS
10
2.6143
20
-0.336062
11
2.6
21
-0.336811
0
LINE
8
BLACK
6
CONTINUOUS
10
2.6
20
-0.336811
11
2.5857
21
-0.336062
0
LINE
8
BLACK
6
CONTINUOUS
10
2.5857
20
-0.336062
11
2.57156
21
-0.333821
0
LINE
8
BLACK
6
CONTINUOUS
10
2.57156
20
-0.333821
11
2.55772
21
-0.330115
0
LINE
8
BLACK
6
CONTINUOUS
10
2.55772
20
-0.330115
11
2.54435
21
-0.324983
0
LINE
8
BLACK
6
CONTINUOUS
10
2.54435
20
-0.324983
11
2.53159
21
-0.318482
0
LINE
8
BLACK
6
CONTINUOUS
10
2.53159
20
-0.318482
11
2.51958
21
-0.310682
0
LINE
8
BLACK
6
CONTINUOUS
10
2.51958
20
-0.310682
11
2.50846
21
-0.30167
0
LINE
8
BLACK
6
CONTINUOUS
10
2.50846
20
-0.30167
11
2.49833
21
-0.291544
0
LINE
8
BLACK
6
CONTINUOUS
10
2.49833
20
-0.291544
11
2.48932
21
-0.280416
0
LINE
8
BLACK
6
CONTINUOUS
10
2.48932
20
-0.280416
11
2.48152
21
-0.268406
0
LINE
8
BLACK
6
CONTINUOUS
10
2.48152
20
-0.268406
11
2.47502
21
-0.255646
0
LINE
8
BLACK
6
CONTINUOUS
10
2.47502
20
-0.255646
11
2.46989
21
-0.242277
0
LINE
8
BLACK
6
CONTINUOUS
10
2.46989
20
-0.242277
11
2.46618
21
-0.228445
0
LINE
8
BLACK
6
CONTINUOUS
10
2.46618
20
-0.228445
11
2.46394
21
-0.214301
0
LINE
8
BLACK
6
CONTINUOUS
10
2.46394
20
-0.214301
11
2.46319
21
-0.2
0
LINE
8
BLACK
6
CONTINUOUS
10
2.46319
20
-0.2
11
2.46394
21
-0.185699
0
LINE
8
BLACK
6
CONTINUOUS
10
2.46394
20
-0.185699
11
2.46618
21
-0.171555
0
LINE
8
BLACK
6
CONTINUOUS
10
2.46618
20
-0.171555
11
2.46989
21
-0.157723
0
LINE
8
BLACK
6
CONTINUOUS
10
2.46989
20
-0.157723
11
2.47502
21
-0.144354
0
LINE
8
BLACK
6
CONTINUOUS
10
2.47502
20
-0.144354
11
2.48152
21
-0.131594
0
LINE
8
BLACK
6
CONTINUOUS
10
2.48152
20
-0.131594
11
2.48932
21
-0.119584
0
LINE
8
BLACK
6
CONTINUOUS
10
2.48932
20
-0.119584
11
2.49833
21
-0.108456
0
LINE
8
BLACK
6
CONTINUOUS
10
2.49833
20
-0.108456
11
2.50846
21
-0.0983296
0
LINE
8
BLACK
6
CONTINUOUS
10
2.50846
20
-0.0983296
11
2.51958
21
-0.0893176
0
LINE
8
BLACK
6
CONTINUOUS
10
2.51958
20
-0.0893176
11
2.53159
21
-0.0815182
0
LINE
8
BLACK
6
CONTINUOUS
10
2.53159
20
-0.0815182
11
2.54435
21
-0.0750169
0
LINE
8
BLACK
6
CONTINUOUS
10
2.54435
20
-0.0750169
11
2.55772
21
-0.069885
0
LINE
8
BLACK
6
CONTINUOUS
10
2.55772
20
-0.069885
11
2.57156
21
-0.0661786
0
LINE
8
BLACK
6
CONTINUOUS
10
2.57156
20
-0.0661786
11
2.5857
21
-0.0639384
0
LINE
8
BLACK
6
CONTINUOUS
10
2.5857
20
-0.0639384
11
2.6
21
-0.063189
0
LINE
8
BLACK
6
CONTINUOUS
10
2.6
20
-0.063189
11
2.6143
21
-0.0639384
0
LINE
8
BLACK
6
CONTINUOUS
10
2.46575
20
-0.2146
11
2.46812
21
-0.22903
0
LINE
8
BLACK
6
CONTINUOUS
10
2.46812
20
-0.22903
11
2.47203
21
-0.243119
0
LINE
8
BLACK
6
CONTINUOUS
10
2.47203
20
-0.243119
11
2.47744
21
-0.256702
0
LINE
8
BLACK
6
CONTINUOUS
10
2.47744
20
-0.256702
11
2.48429
21
-0.269621
0
LINE
8
BLACK
6
CONTINUOUS
10
2.48429
20
-0.269621
11
2.4925
21
-0.281723
0
LINE
8
BLACK
6
CONTINUOUS
10
2.4925
20
-0.281723
11
2.50196
21
-0.292867
0
LINE
8
BLACK
6
CONTINUOUS
10
2.50196
20
-0.292867
11
2.51258
21
-0.302923
0
LINE
8
BLACK
6
CONTINUOUS
10
2.51258
20
-0.302923
11
2.52422
21
-0.311772
0
LINE
8
BLACK
6
CONTINUOUS
10
2.52422
20
-0.311772
11
2.53675
21
-0.31931
0
LINE
8
BLACK
6
CONTINUOUS
10
2.53675
20
-0.31931
11
2.55002
21
-0.32545
0
LINE
8
BLACK
6
CONTINUOUS
10
2.55002
20
-0.32545
11
2.56387
21
-0.330118
0
LINE
8
BLACK
6
CONTINUOUS
10
2.56387
20
-0.330118
11
2.57815
21
-0.333262
0
LINE
8
BLACK
6
CONTINUOUS
10
2.57815
20
-0.333262
11
2.59269
21
-0.334843
0
LINE
8
BLACK
6
CONTINUOUS
10
2.59269
20
-0.334843
11
2.60731
21
-0.334843
0
LINE
8
BLACK
6
CONTINUOUS
10
2.60731
20
-0.334843
11
2.62185
21
-0.333262
0
LINE
8
BLACK
6
CONTINUOUS
10
2.62185
20
-0.333262
11
2.63613
21
-0.330118
0
LINE
8
BLACK
6
CONTINUOUS
10
2.63613
20
-0.330118
11
2.64998
21
-0.32545
0
LINE
8
BLACK
6
CONTINUOUS
10
2.64998
20
-0.32545
11
2.66325
21
-0.31931
0
LINE
8
BLACK
6
CONTINUOUS
10
2.66325
20
-0.31931
11
2.67578
21
-0.311772
0
LINE
8
BLACK
6
CONTINUOUS
10
2.67578
20
-0.311772
11
2.68742
21
-0.302923
0
LINE
8
BLACK
6
CONTINUOUS
10
2.68742
20
-0.302923
11
2.69804
21
-0.292867
0
LINE
8
BLACK
6
CONTINUOUS
10
2.69804
20
-0.292867
11
2.7075
21
-0.281723
0
LINE
8
BLACK
6
CONTINUOUS
10
2.7075
20
-0.281723
11
2.71571
21
-0.269621
0
LINE
8
BLACK
6
CONTINUOUS
10
2.71571
20
-0.269621
11
2.72256
21
-0.256702
0
LINE
8
BLACK
6
CONTINUOUS
10
2.72256
20
-0.256702
11
2.72797
21
-0.243119
0
LINE
8
BLACK
6
CONTINUOUS
10
2.72797
20
-0.243119
11
2.73188
21
-0.22903
0
LINE
8
BLACK
6
CONTINUOUS
10
2.73188
20
-0.22903
11
2.73425
21
-0.2146
0
LINE
8
BLACK
6
CONTINUOUS
10
2.73425
20
-0.2146
11
2.73504
21
-0.2
0
LINE
8
BLACK
6
CONTINUOUS
10
2.73504
20
-0.2
11
2.73425
21
-0.1854
0
LINE
8
BLACK
6
CONTINUOUS
10
2.73425
20
-0.1854
11
2.73188
21
-0.17097
0
LINE
8
BLACK
6
CONTINUOUS
10
2.73188
20
-0.17097
11
2.72797
21
-0.156881
0
LINE
8
BLACK
6
CONTINUOUS
10
2.72797
20
-0.156881
11
2.72256
21
-0.143298
0
LINE
8
BLACK
6
CONTINUOUS
10
2.72256
20
-0.143298
11
2.71571
21
-0.130379
0
LINE
8
BLACK
6
CONTINUOUS
10
2.71571
20
-0.130379
11
2.7075
21
-0.118277
0
LINE
8
BLACK
6
CONTINUOUS
10
2.7075
20
-0.118277
11
2.69804
21
-0.107133
0
LINE
8
BLACK
6
CONTINUOUS
10
2.69804
20
-0.107133
11
2.68742
21
-0.0970772
0
LINE
8
BLACK
6
CONTINUOUS
10
2.68742
20
-0.0970772
11
2.67578
21
-0.0882284
0
LINE
8
BLACK
6
CONTINUOUS
10
2.67578
20
-0.0882284
11
2.66325
21
-0.08069
0
LINE
8
BLACK
6
CONTINUOUS
10
2.66325
20
-0.08069
11
2.64998
21
-0.0745505
0
LINE
8
BLACK
6
CONTINUOUS
10
2.64998
20
-0.0745505
11
2.63613
21
-0.0698817
0
LINE
8
BLACK
6
CONTINUOUS
10
2.63613
20
-0.0698817
11
2.62185
21
-0.0667384
0
LINE
8
BLACK
6
CONTINUOUS
10
2.62185
20
-0.0667384
11
2.60731
21
-0.0651575
0
LINE
8
BLACK
6
CONTINUOUS
10
2.60731
20
-0.0651575
11
2.59269
21
-0.0651575
0
LINE
8
BLACK
6
CONTINUOUS
10
2.59269
20
-0.0651575
11
2.57815
21
-0.0667384
0
LINE
8
BLACK
6
CONTINUOUS
10
2.57815
20
-0.0667384
11
2.56387
21
-0.0698817
0
LINE
8
BLACK
6
CONTINUOUS
10
2.56387
20
-0.0698817
11
2.55002
21
-0.0745505
0
LINE
8
BLACK
6
CONTINUOUS
10
2.55002
20
-0.0745505
11
2.53675
21
-0.08069
0
LINE
8
BLACK
6
CONTINUOUS
10
2.53675
20
-0.08069
11
2.52422
21
-0.0882284
0
LINE
8
BLACK
6
CONTINUOUS
10
2.52422
20
-0.0882284
11
2.51258
21
-0.0970772
0
LINE
8
BLACK
6
CONTINUOUS
10
2.51258
20
-0.0970772
11
2.50196
21
-0.107133
0
LINE
8
BLACK
6
CONTINUOUS
10
2.50196
20
-0.107133
11
2.4925
21
-0.118277
0
LINE
8
BLACK
6
CONTINUOUS
10
2.4925
20
-0.118277
11
2.48429
21
-0.130379
0
LINE
8
BLACK
6
CONTINUOUS
10
2.48429
20
-0.130379
11
2.47744
21
-0.143298
0
LINE
8
BLACK
6
CONTINUOUS
10
2.47744
20
-0.143298
11
2.47203
21
-0.156881
0
LINE
8
BLACK
6
CONTINUOUS
10
2.47203
20
-0.156881
11
2.46812
21
-0.17097
0
LINE
8
BLACK
6
CONTINUOUS
10
2.46812
20
-0.17097
11
2.46575
21
-0.1854
0
LINE
8
BLACK
6
CONTINUOUS
10
2.46575
20
-0.1854
11
2.46496
21
-0.2
0
LINE
8
BLACK
6
CONTINUOUS
10
2.46496
20
-0.2
11
2.46575
21
-0.2146
0
LINE
8
BLACK
6
CONTINUOUS
10
1.42638
20
0.858465
11
1.42707
21
0.858176
0
LINE
8
BLACK
6
CONTINUOUS
10
1.42707
20
0.858176
11
1.42736
21
0.85748
0
LINE
8
BLACK
6
CONTINUOUS
10
1.42736
20
0.85748
11
1.42736
21
0.304331
0
LINE
8
BLACK
6
CONTINUOUS
10
1.42736
20
0.304331
11
1.42707
21
0.303635
0
LINE
8
BLACK
6
CONTINUOUS
10
1.42707
20
0.303635
11
1.42638
21
0.303346
0
LINE
8
BLACK
6
CONTINUOUS
10
1.42638
20
0.303346
11
0.757087
21
0.303346
0
LINE
8
BLACK
6
CONTINUOUS
10
0.757087
20
0.303346
11
0.756391
21
0.303635
0
LINE
8
BLACK
6
CONTINUOUS
10
0.756391
20
0.303635
11
0.756102
21
0.304331
0
LINE
8
BLACK
6
CONTINUOUS
10
0.756102
20
0.304331
11
0.756102
21
0.85748
0
LINE
8
BLACK
6
CONTINUOUS
10
0.756102
20
0.85748
11
0.756391
21
0.858176
0
LINE
8
BLACK
6
CONTINUOUS
10
0.756391
20
0.858176
11
0.757087
21
0.858465
0
LINE
8
BLACK
6
CONTINUOUS
10
0.757087
20
0.858465
11
1.42638
21
0.858465
0
LINE
8
BLACK
6
CONTINUOUS
10
0.758071
20
0.856496
11
0.758071
21
0.305315
0
LINE
8
BLACK
6
CONTINUOUS
10
0.758071
20
0.305315
11
1.42539
21
0.305315
0
LINE
8
BLACK
6
CONTINUOUS
10
1.42539
20
0.305315
11
1.42539
21
0.856496
0
LINE
8
BLACK
6
CONTINUOUS
10
1.42539
20
0.856496
11
0.758071
21
0.856496
  0
ENDSEC
  0
EOF
