  0
SECTION
  2
HEADER
  9
$ANGBASE
  50
0.0
  9
$ANGDIR
  70
1
  9
$MEASUREMENT
  70
0
  0
ENDSEC
  0
SECTION
  2
TABLES
  0
TABLE
  2
LTYPE
  70
4
  0
LTYPE
  5
40F
  2
CONTINUOUS
  70
0
  3
Solid line
  72
65
  73
0
  40
0.0
  0
LTYPE
  5
410
  2
DASHDOT
 70
0
  3
Dash Dot ____ _ ____ _
 72
65
 73
4
 40
2.0
 49
1.25
 49
-0.25
 49
0.25
 49
-0.25
  0
LTYPE
  5
411
  2
DASHED
 70
0
  3
Dashed __ __ __ __ __
 72
65
 73
2
 40
0.75
 49
0.5
 49
-0.25
  0
LTYPE
  5
43B
  2
DOTTED
 70
0
  3
Dotted .  .  .  .
 72
65
 73
2
 40
0.2
 49
0.0
 49
-0.2
  0
ENDTAB
  0
TABLE
  2
STYLE
  70
4
  0
STYLE
  2
KICAD
  70
0
  40
0
  41
1
  42
1
  50
0
  71
0
  3
isocp.shx
  0
STYLE
  2
KICADB
  70
0
  40
0
  41
1
  42
1
  50
0
  71
0
  3
isocp.shx
  0
STYLE
  2
KICADI
  70
0
  40
0
  41
1
  42
1
  50
15
  71
0
  3
isocp.shx
  0
STYLE
  2
KICADBI
  70
0
  40
0
  41
1
  42
1
  50
15
  71
0
  3
isocp.shx
  0
ENDTAB
  0
TABLE
  2
LAYER
  70
1
  0
LAYER
  2
BLACK
  70
0
  62
7
  6
CONTINUOUS
  0
ENDTAB
  0
ENDSEC
  0
SECTION
  2
ENTITIES
0
LINE
8
BLACK
6
CONTINUOUS
10
1.28228
20
-2.21112
11
1.28298
21
-2.21141
0
LINE
8
BLACK
6
CONTINUOUS
10
1.28298
20
-2.21141
11
1.28327
21
-2.21211
0
LINE
8
BLACK
6
CONTINUOUS
10
1.28327
20
-2.21211
11
1.28327
21
-2.34439
0
LINE
8
BLACK
6
CONTINUOUS
10
1.28327
20
-2.34439
11
1.28298
21
-2.34509
0
LINE
8
BLACK
6
CONTINUOUS
10
1.28298
20
-2.34509
11
1.28228
21
-2.34537
0
LINE
8
BLACK
6
CONTINUOUS
10
1.28228
20
-2.34537
11
1.20748
21
-2.34537
0
LINE
8
BLACK
6
CONTINUOUS
10
1.20748
20
-2.34537
11
1.20678
21
-2.34509
0
LINE
8
BLACK
6
CONTINUOUS
10
1.20678
20
-2.34509
11
1.2065
21
-2.34439
0
LINE
8
BLACK
6
CONTINUOUS
10
1.2065
20
-2.34439
11
1.2065
21
-2.21211
0
LINE
8
BLACK
6
CONTINUOUS
10
1.2065
20
-2.21211
11
1.20678
21
-2.21141
0
LINE
8
BLACK
6
CONTINUOUS
10
1.20678
20
-2.21141
11
1.20748
21
-2.21112
0
LINE
8
BLACK
6
CONTINUOUS
10
1.20748
20
-2.21112
11
1.28228
21
-2.21112
0
LINE
8
BLACK
6
CONTINUOUS
10
1.20846
20
-2.21309
11
1.20846
21
-2.34341
0
LINE
8
BLACK
6
CONTINUOUS
10
1.20846
20
-2.34341
11
1.2813
21
-2.34341
0
LINE
8
BLACK
6
CONTINUOUS
10
1.2813
20
-2.34341
11
1.2813
21
-2.21309
0
LINE
8
BLACK
6
CONTINUOUS
10
1.2813
20
-2.21309
11
1.20846
21
-2.21309
0
LINE
8
BLACK
6
CONTINUOUS
10
0.210364
20
-2.06
11
0.224508
21
-2.06224
0
LINE
8
BLACK
6
CONTINUOUS
10
0.224508
20
-2.06224
11
0.23834
21
-2.06595
0
LINE
8
BLACK
6
CONTINUOUS
10
0.23834
20
-2.06595
11
0.251709
21
-2.07108
0
LINE
8
BLACK
6
CONTINUOUS
10
0.251709
20
-2.07108
11
0.264469
21
-2.07758
0
LINE
8
BLACK
6
CONTINUOUS
10
0.264469
20
-2.07758
11
0.276479
21
-2.08538
0
LINE
8
BLACK
6
CONTINUOUS
10
0.276479
20
-2.08538
11
0.287607
21
-2.09439
0
LINE
8
BLACK
6
CONTINUOUS
10
0.287607
20
-2.09439
11
0.297733
21
-2.10452
0
LINE
8
BLACK
6
CONTINUOUS
10
0.297733
20
-2.10452
11
0.306745
21
-2.11565
0
LINE
8
BLACK
6
CONTINUOUS
10
0.306745
20
-2.11565
11
0.314545
21
-2.12766
0
LINE
8
BLACK
6
CONTINUOUS
10
0.314545
20
-2.12766
11
0.321046
21
-2.14042
0
LINE
8
BLACK
6
CONTINUOUS
10
0.321046
20
-2.14042
11
0.326178
21
-2.15379
0
LINE
8
BLACK
6
CONTINUOUS
10
0.326178
20
-2.15379
11
0.329884
21
-2.16762
0
LINE
8
BLACK
6
CONTINUOUS
10
0.329884
20
-2.16762
11
0.332125
21
-2.18176
0
LINE
8
BLACK
6
CONTINUOUS
10
0.332125
20
-2.18176
11
0.332874
21
-2.19606
0
LINE
8
BLACK
6
CONTINUOUS
10
0.332874
20
-2.19606
11
0.332125
21
-2.21036
0
LINE
8
BLACK
6
CONTINUOUS
10
0.332125
20
-2.21036
11
0.329884
21
-2.22451
0
LINE
8
BLACK
6
CONTINUOUS
10
0.329884
20
-2.22451
11
0.326178
21
-2.23834
0
LINE
8
BLACK
6
CONTINUOUS
10
0.326178
20
-2.23834
11
0.321046
21
-2.25171
0
LINE
8
BLACK
6
CONTINUOUS
10
0.321046
20
-2.25171
11
0.314545
21
-2.26447
0
LINE
8
BLACK
6
CONTINUOUS
10
0.314545
20
-2.26447
11
0.306745
21
-2.27648
0
LINE
8
BLACK
6
CONTINUOUS
10
0.306745
20
-2.27648
11
0.297733
21
-2.28761
0
LINE
8
BLACK
6
CONTINUOUS
10
0.297733
20
-2.28761
11
0.287607
21
-2.29773
0
LINE
8
BLACK
6
CONTINUOUS
10
0.287607
20
-2.29773
11
0.276479
21
-2.30675
0
LINE
8
BLACK
6
CONTINUOUS
10
0.276479
20
-2.30675
11
0.264469
21
-2.31454
0
LINE
8
BLACK
6
CONTINUOUS
10
0.264469
20
-2.31454
11
0.251709
21
-2.32105
0
LINE
8
BLACK
6
CONTINUOUS
10
0.251709
20
-2.32105
11
0.23834
21
-2.32618
0
LINE
8
BLACK
6
CONTINUOUS
10
0.23834
20
-2.32618
11
0.224508
21
-2.32988
0
LINE
8
BLACK
6
CONTINUOUS
10
0.224508
20
-2.32988
11
0.210364
21
-2.33212
0
LINE
8
BLACK
6
CONTINUOUS
10
0.210364
20
-2.33212
11
0.196063
21
-2.33287
0
LINE
8
BLACK
6
CONTINUOUS
10
0.196063
20
-2.33287
11
0.181762
21
-2.33212
0
LINE
8
BLACK
6
CONTINUOUS
10
0.181762
20
-2.33212
11
0.167618
21
-2.32988
0
LINE
8
BLACK
6
CONTINUOUS
10
0.167618
20
-2.32988
11
0.153786
21
-2.32618
0
LINE
8
BLACK
6
CONTINUOUS
10
0.153786
20
-2.32618
11
0.140417
21
-2.32105
0
LINE
8
BLACK
6
CONTINUOUS
10
0.140417
20
-2.32105
11
0.127657
21
-2.31454
0
LINE
8
BLACK
6
CONTINUOUS
10
0.127657
20
-2.31454
11
0.115647
21
-2.30675
0
LINE
8
BLACK
6
CONTINUOUS
10
0.115647
20
-2.30675
11
0.104519
21
-2.29773
0
LINE
8
BLACK
6
CONTINUOUS
10
0.104519
20
-2.29773
11
0.0943926
21
-2.28761
0
LINE
8
BLACK
6
CONTINUOUS
10
0.0943926
20
-2.28761
11
0.0853806
21
-2.27648
0
LINE
8
BLACK
6
CONTINUOUS
10
0.0853806
20
-2.27648
11
0.0775812
21
-2.26447
0
LINE
8
BLACK
6
CONTINUOUS
10
0.0775812
20
-2.26447
11
0.0710799
21
-2.25171
0
LINE
8
BLACK
6
CONTINUOUS
10
0.0710799
20
-2.25171
11
0.065948
21
-2.23834
0
LINE
8
BLACK
6
CONTINUOUS
10
0.065948
20
-2.23834
11
0.0622416
21
-2.22451
0
LINE
8
BLACK
6
CONTINUOUS
10
0.0622416
20
-2.22451
11
0.0600014
21
-2.21036
0
LINE
8
BLACK
6
CONTINUOUS
10
0.0600014
20
-2.21036
11
0.059252
21
-2.19606
0
LINE
8
BLACK
6
CONTINUOUS
10
0.059252
20
-2.19606
11
0.0600014
21
-2.18176
0
LINE
8
BLACK
6
CONTINUOUS
10
0.0600014
20
-2.18176
11
0.0622416
21
-2.16762
0
LINE
8
BLACK
6
CONTINUOUS
10
0.0622416
20
-2.16762
11
0.065948
21
-2.15379
0
LINE
8
BLACK
6
CONTINUOUS
10
0.065948
20
-2.15379
11
0.0710799
21
-2.14042
0
LINE
8
BLACK
6
CONTINUOUS
10
0.0710799
20
-2.14042
11
0.0775812
21
-2.12766
0
LINE
8
BLACK
6
CONTINUOUS
10
0.0775812
20
-2.12766
11
0.0853806
21
-2.11565
0
LINE
8
BLACK
6
CONTINUOUS
10
0.0853806
20
-2.11565
11
0.0943926
21
-2.10452
0
LINE
8
BLACK
6
CONTINUOUS
10
0.0943926
20
-2.10452
11
0.104519
21
-2.09439
0
LINE
8
BLACK
6
CONTINUOUS
10
0.104519
20
-2.09439
11
0.115647
21
-2.08538
0
LINE
8
BLACK
6
CONTINUOUS
10
0.115647
20
-2.08538
11
0.127657
21
-2.07758
0
LINE
8
BLACK
6
CONTINUOUS
10
0.127657
20
-2.07758
11
0.140417
21
-2.07108
0
LINE
8
BLACK
6
CONTINUOUS
10
0.140417
20
-2.07108
11
0.153786
21
-2.06595
0
LINE
8
BLACK
6
CONTINUOUS
10
0.153786
20
-2.06595
11
0.167618
21
-2.06224
0
LINE
8
BLACK
6
CONTINUOUS
10
0.167618
20
-2.06224
11
0.181762
21
-2.06
0
LINE
8
BLACK
6
CONTINUOUS
10
0.181762
20
-2.06
11
0.196063
21
-2.05925
0
LINE
8
BLACK
6
CONTINUOUS
10
0.196063
20
-2.05925
11
0.210364
21
-2.06
0
LINE
8
BLACK
6
CONTINUOUS
10
0.0618141
20
-2.21066
11
0.0641796
21
-2.22509
0
LINE
8
BLACK
6
CONTINUOUS
10
0.0641796
20
-2.22509
11
0.0680914
21
-2.23918
0
LINE
8
BLACK
6
CONTINUOUS
10
0.0680914
20
-2.23918
11
0.0735035
21
-2.25277
0
LINE
8
BLACK
6
CONTINUOUS
10
0.0735035
20
-2.25277
11
0.0803525
21
-2.26568
0
LINE
8
BLACK
6
CONTINUOUS
10
0.0803525
20
-2.26568
11
0.0885581
21
-2.27779
0
LINE
8
BLACK
6
CONTINUOUS
10
0.0885581
20
-2.27779
11
0.0980242
21
-2.28893
0
LINE
8
BLACK
6
CONTINUOUS
10
0.0980242
20
-2.28893
11
0.10864
21
-2.29899
0
LINE
8
BLACK
6
CONTINUOUS
10
0.10864
20
-2.29899
11
0.12028
21
-2.30783
0
LINE
8
BLACK
6
CONTINUOUS
10
0.12028
20
-2.30783
11
0.132809
21
-2.31537
0
LINE
8
BLACK
6
CONTINUOUS
10
0.132809
20
-2.31537
11
0.146079
21
-2.32151
0
LINE
8
BLACK
6
CONTINUOUS
10
0.146079
20
-2.32151
11
0.159936
21
-2.32618
0
LINE
8
BLACK
6
CONTINUOUS
10
0.159936
20
-2.32618
11
0.174216
21
-2.32932
0
LINE
8
BLACK
6
CONTINUOUS
10
0.174216
20
-2.32932
11
0.188752
21
-2.33091
0
LINE
8
BLACK
6
CONTINUOUS
10
0.188752
20
-2.33091
11
0.203374
21
-2.33091
0
LINE
8
BLACK
6
CONTINUOUS
10
0.203374
20
-2.33091
11
0.21791
21
-2.32932
0
LINE
8
BLACK
6
CONTINUOUS
10
0.21791
20
-2.32932
11
0.23219
21
-2.32618
0
LINE
8
BLACK
6
CONTINUOUS
10
0.23219
20
-2.32618
11
0.246047
21
-2.32151
0
LINE
8
BLACK
6
CONTINUOUS
10
0.246047
20
-2.32151
11
0.259317
21
-2.31537
0
LINE
8
BLACK
6
CONTINUOUS
10
0.259317
20
-2.31537
11
0.271846
21
-2.30783
0
LINE
8
BLACK
6
CONTINUOUS
10
0.271846
20
-2.30783
11
0.283486
21
-2.29899
0
LINE
8
BLACK
6
CONTINUOUS
10
0.283486
20
-2.29899
11
0.294102
21
-2.28893
0
LINE
8
BLACK
6
CONTINUOUS
10
0.294102
20
-2.28893
11
0.303568
21
-2.27779
0
LINE
8
BLACK
6
CONTINUOUS
10
0.303568
20
-2.27779
11
0.311773
21
-2.26568
0
LINE
8
BLACK
6
CONTINUOUS
10
0.311773
20
-2.26568
11
0.318622
21
-2.25277
0
LINE
8
BLACK
6
CONTINUOUS
10
0.318622
20
-2.25277
11
0.324035
21
-2.23918
0
LINE
8
BLACK
6
CONTINUOUS
10
0.324035
20
-2.23918
11
0.327946
21
-2.22509
0
LINE
8
BLACK
6
CONTINUOUS
10
0.327946
20
-2.22509
11
0.330312
21
-2.21066
0
LINE
8
BLACK
6
CONTINUOUS
10
0.330312
20
-2.21066
11
0.331104
21
-2.19606
0
LINE
8
BLACK
6
CONTINUOUS
10
0.331104
20
-2.19606
11
0.330312
21
-2.18146
0
LINE
8
BLACK
6
CONTINUOUS
10
0.330312
20
-2.18146
11
0.327946
21
-2.16703
0
LINE
8
BLACK
6
CONTINUOUS
10
0.327946
20
-2.16703
11
0.324035
21
-2.15294
0
LINE
8
BLACK
6
CONTINUOUS
10
0.324035
20
-2.15294
11
0.318622
21
-2.13936
0
LINE
8
BLACK
6
CONTINUOUS
10
0.318622
20
-2.13936
11
0.311773
21
-2.12644
0
LINE
8
BLACK
6
CONTINUOUS
10
0.311773
20
-2.12644
11
0.303568
21
-2.11434
0
LINE
8
BLACK
6
CONTINUOUS
10
0.303568
20
-2.11434
11
0.294102
21
-2.1032
0
LINE
8
BLACK
6
CONTINUOUS
10
0.294102
20
-2.1032
11
0.283486
21
-2.09314
0
LINE
8
BLACK
6
CONTINUOUS
10
0.283486
20
-2.09314
11
0.271846
21
-2.08429
0
LINE
8
BLACK
6
CONTINUOUS
10
0.271846
20
-2.08429
11
0.259317
21
-2.07675
0
LINE
8
BLACK
6
CONTINUOUS
10
0.259317
20
-2.07675
11
0.246047
21
-2.07061
0
LINE
8
BLACK
6
CONTINUOUS
10
0.246047
20
-2.07061
11
0.23219
21
-2.06594
0
LINE
8
BLACK
6
CONTINUOUS
10
0.23219
20
-2.06594
11
0.21791
21
-2.0628
0
LINE
8
BLACK
6
CONTINUOUS
10
0.21791
20
-2.0628
11
0.203374
21
-2.06122
0
LINE
8
BLACK
6
CONTINUOUS
10
0.203374
20
-2.06122
11
0.188752
21
-2.06122
0
LINE
8
BLACK
6
CONTINUOUS
10
0.188752
20
-2.06122
11
0.174216
21
-2.0628
0
LINE
8
BLACK
6
CONTINUOUS
10
0.174216
20
-2.0628
11
0.159936
21
-2.06594
0
LINE
8
BLACK
6
CONTINUOUS
10
0.159936
20
-2.06594
11
0.146079
21
-2.07061
0
LINE
8
BLACK
6
CONTINUOUS
10
0.146079
20
-2.07061
11
0.132809
21
-2.07675
0
LINE
8
BLACK
6
CONTINUOUS
10
0.132809
20
-2.07675
11
0.12028
21
-2.08429
0
LINE
8
BLACK
6
CONTINUOUS
10
0.12028
20
-2.08429
11
0.10864
21
-2.09314
0
LINE
8
BLACK
6
CONTINUOUS
10
0.10864
20
-2.09314
11
0.0980242
21
-2.1032
0
LINE
8
BLACK
6
CONTINUOUS
10
0.0980242
20
-2.1032
11
0.0885581
21
-2.11434
0
LINE
8
BLACK
6
CONTINUOUS
10
0.0885581
20
-2.11434
11
0.0803525
21
-2.12644
0
LINE
8
BLACK
6
CONTINUOUS
10
0.0803525
20
-2.12644
11
0.0735035
21
-2.13936
0
LINE
8
BLACK
6
CONTINUOUS
10
0.0735035
20
-2.13936
11
0.0680914
21
-2.15294
0
LINE
8
BLACK
6
CONTINUOUS
10
0.0680914
20
-2.15294
11
0.0641796
21
-2.16703
0
LINE
8
BLACK
6
CONTINUOUS
10
0.0641796
20
-2.16703
11
0.0618141
21
-2.18146
0
LINE
8
BLACK
6
CONTINUOUS
10
0.0618141
20
-2.18146
11
0.0610224
21
-2.19606
0
LINE
8
BLACK
6
CONTINUOUS
10
0.0610224
20
-2.19606
11
0.0618141
21
-2.21066
0
LINE
8
BLACK
6
CONTINUOUS
10
2.61036
20
-2.06
11
2.62451
21
-2.06224
0
LINE
8
BLACK
6
CONTINUOUS
10
2.62451
20
-2.06224
11
2.63834
21
-2.06595
0
LINE
8
BLACK
6
CONTINUOUS
10
2.63834
20
-2.06595
11
2.65171
21
-2.07108
0
LINE
8
BLACK
6
CONTINUOUS
10
2.65171
20
-2.07108
11
2.66447
21
-2.07758
0
LINE
8
BLACK
6
CONTINUOUS
10
2.66447
20
-2.07758
11
2.67648
21
-2.08538
0
LINE
8
BLACK
6
CONTINUOUS
10
2.67648
20
-2.08538
11
2.68761
21
-2.09439
0
LINE
8
BLACK
6
CONTINUOUS
10
2.68761
20
-2.09439
11
2.69773
21
-2.10452
0
LINE
8
BLACK
6
CONTINUOUS
10
2.69773
20
-2.10452
11
2.70675
21
-2.11565
0
LINE
8
BLACK
6
CONTINUOUS
10
2.70675
20
-2.11565
11
2.71454
21
-2.12766
0
LINE
8
BLACK
6
CONTINUOUS
10
2.71454
20
-2.12766
11
2.72105
21
-2.14042
0
LINE
8
BLACK
6
CONTINUOUS
10
2.72105
20
-2.14042
11
2.72618
21
-2.15379
0
LINE
8
BLACK
6
CONTINUOUS
10
2.72618
20
-2.15379
11
2.72988
21
-2.16762
0
LINE
8
BLACK
6
CONTINUOUS
10
2.72988
20
-2.16762
11
2.73212
21
-2.18176
0
LINE
8
BLACK
6
CONTINUOUS
10
2.73212
20
-2.18176
11
2.73287
21
-2.19606
0
LINE
8
BLACK
6
CONTINUOUS
10
2.73287
20
-2.19606
11
2.73212
21
-2.21036
0
LINE
8
BLACK
6
CONTINUOUS
10
2.73212
20
-2.21036
11
2.72988
21
-2.22451
0
LINE
8
BLACK
6
CONTINUOUS
10
2.72988
20
-2.22451
11
2.72618
21
-2.23834
0
LINE
8
BLACK
6
CONTINUOUS
10
2.72618
20
-2.23834
11
2.72105
21
-2.25171
0
LINE
8
BLACK
6
CONTINUOUS
10
2.72105
20
-2.25171
11
2.71454
21
-2.26447
0
LINE
8
BLACK
6
CONTINUOUS
10
2.71454
20
-2.26447
11
2.70675
21
-2.27648
0
LINE
8
BLACK
6
CONTINUOUS
10
2.70675
20
-2.27648
11
2.69773
21
-2.28761
0
LINE
8
BLACK
6
CONTINUOUS
10
2.69773
20
-2.28761
11
2.68761
21
-2.29773
0
LINE
8
BLACK
6
CONTINUOUS
10
2.68761
20
-2.29773
11
2.67648
21
-2.30675
0
LINE
8
BLACK
6
CONTINUOUS
10
2.67648
20
-2.30675
11
2.66447
21
-2.31454
0
LINE
8
BLACK
6
CONTINUOUS
10
2.66447
20
-2.31454
11
2.65171
21
-2.32105
0
LINE
8
BLACK
6
CONTINUOUS
10
2.65171
20
-2.32105
11
2.63834
21
-2.32618
0
LINE
8
BLACK
6
CONTINUOUS
10
2.63834
20
-2.32618
11
2.62451
21
-2.32988
0
LINE
8
BLACK
6
CONTINUOUS
10
2.62451
20
-2.32988
11
2.61036
21
-2.33212
0
LINE
8
BLACK
6
CONTINUOUS
10
2.61036
20
-2.33212
11
2.59606
21
-2.33287
0
LINE
8
BLACK
6
CONTINUOUS
10
2.59606
20
-2.33287
11
2.58176
21
-2.33212
0
LINE
8
BLACK
6
CONTINUOUS
10
2.58176
20
-2.33212
11
2.56762
21
-2.32988
0
LINE
8
BLACK
6
CONTINUOUS
10
2.56762
20
-2.32988
11
2.55379
21
-2.32618
0
LINE
8
BLACK
6
CONTINUOUS
10
2.55379
20
-2.32618
11
2.54042
21
-2.32105
0
LINE
8
BLACK
6
CONTINUOUS
10
2.54042
20
-2.32105
11
2.52766
21
-2.31454
0
LINE
8
BLACK
6
CONTINUOUS
10
2.52766
20
-2.31454
11
2.51565
21
-2.30675
0
LINE
8
BLACK
6
CONTINUOUS
10
2.51565
20
-2.30675
11
2.50452
21
-2.29773
0
LINE
8
BLACK
6
CONTINUOUS
10
2.50452
20
-2.29773
11
2.49439
21
-2.28761
0
LINE
8
BLACK
6
CONTINUOUS
10
2.49439
20
-2.28761
11
2.48538
21
-2.27648
0
LINE
8
BLACK
6
CONTINUOUS
10
2.48538
20
-2.27648
11
2.47758
21
-2.26447
0
LINE
8
BLACK
6
CONTINUOUS
10
2.47758
20
-2.26447
11
2.47108
21
-2.25171
0
LINE
8
BLACK
6
CONTINUOUS
10
2.47108
20
-2.25171
11
2.46595
21
-2.23834
0
LINE
8
BLACK
6
CONTINUOUS
10
2.46595
20
-2.23834
11
2.46224
21
-2.22451
0
LINE
8
BLACK
6
CONTINUOUS
10
2.46224
20
-2.22451
11
2.46
21
-2.21036
0
LINE
8
BLACK
6
CONTINUOUS
10
2.46
20
-2.21036
11
2.45925
21
-2.19606
0
LINE
8
BLACK
6
CONTINUOUS
10
2.45925
20
-2.19606
11
2.46
21
-2.18176
0
LINE
8
BLACK
6
CONTINUOUS
10
2.46
20
-2.18176
11
2.46224
21
-2.16762
0
LINE
8
BLACK
6
CONTINUOUS
10
2.46224
20
-2.16762
11
2.46595
21
-2.15379
0
LINE
8
BLACK
6
CONTINUOUS
10
2.46595
20
-2.15379
11
2.47108
21
-2.14042
0
LINE
8
BLACK
6
CONTINUOUS
10
2.47108
20
-2.14042
11
2.47758
21
-2.12766
0
LINE
8
BLACK
6
CONTINUOUS
10
2.47758
20
-2.12766
11
2.48538
21
-2.11565
0
LINE
8
BLACK
6
CONTINUOUS
10
2.48538
20
-2.11565
11
2.49439
21
-2.10452
0
LINE
8
BLACK
6
CONTINUOUS
10
2.49439
20
-2.10452
11
2.50452
21
-2.09439
0
LINE
8
BLACK
6
CONTINUOUS
10
2.50452
20
-2.09439
11
2.51565
21
-2.08538
0
LINE
8
BLACK
6
CONTINUOUS
10
2.51565
20
-2.08538
11
2.52766
21
-2.07758
0
LINE
8
BLACK
6
CONTINUOUS
10
2.52766
20
-2.07758
11
2.54042
21
-2.07108
0
LINE
8
BLACK
6
CONTINUOUS
10
2.54042
20
-2.07108
11
2.55379
21
-2.06595
0
LINE
8
BLACK
6
CONTINUOUS
10
2.55379
20
-2.06595
11
2.56762
21
-2.06224
0
LINE
8
BLACK
6
CONTINUOUS
10
2.56762
20
-2.06224
11
2.58176
21
-2.06
0
LINE
8
BLACK
6
CONTINUOUS
10
2.58176
20
-2.06
11
2.59606
21
-2.05925
0
LINE
8
BLACK
6
CONTINUOUS
10
2.59606
20
-2.05925
11
2.61036
21
-2.06
0
LINE
8
BLACK
6
CONTINUOUS
10
2.46181
20
-2.21066
11
2.46418
21
-2.22509
0
LINE
8
BLACK
6
CONTINUOUS
10
2.46418
20
-2.22509
11
2.46809
21
-2.23918
0
LINE
8
BLACK
6
CONTINUOUS
10
2.46809
20
-2.23918
11
2.4735
21
-2.25277
0
LINE
8
BLACK
6
CONTINUOUS
10
2.4735
20
-2.25277
11
2.48035
21
-2.26568
0
LINE
8
BLACK
6
CONTINUOUS
10
2.48035
20
-2.26568
11
2.48856
21
-2.27779
0
LINE
8
BLACK
6
CONTINUOUS
10
2.48856
20
-2.27779
11
2.49802
21
-2.28893
0
LINE
8
BLACK
6
CONTINUOUS
10
2.49802
20
-2.28893
11
2.50864
21
-2.29899
0
LINE
8
BLACK
6
CONTINUOUS
10
2.50864
20
-2.29899
11
2.52028
21
-2.30783
0
LINE
8
BLACK
6
CONTINUOUS
10
2.52028
20
-2.30783
11
2.53281
21
-2.31537
0
LINE
8
BLACK
6
CONTINUOUS
10
2.53281
20
-2.31537
11
2.54608
21
-2.32151
0
LINE
8
BLACK
6
CONTINUOUS
10
2.54608
20
-2.32151
11
2.55994
21
-2.32618
0
LINE
8
BLACK
6
CONTINUOUS
10
2.55994
20
-2.32618
11
2.57422
21
-2.32932
0
LINE
8
BLACK
6
CONTINUOUS
10
2.57422
20
-2.32932
11
2.58875
21
-2.33091
0
LINE
8
BLACK
6
CONTINUOUS
10
2.58875
20
-2.33091
11
2.60337
21
-2.33091
0
LINE
8
BLACK
6
CONTINUOUS
10
2.60337
20
-2.33091
11
2.61791
21
-2.32932
0
LINE
8
BLACK
6
CONTINUOUS
10
2.61791
20
-2.32932
11
2.63219
21
-2.32618
0
LINE
8
BLACK
6
CONTINUOUS
10
2.63219
20
-2.32618
11
2.64605
21
-2.32151
0
LINE
8
BLACK
6
CONTINUOUS
10
2.64605
20
-2.32151
11
2.65932
21
-2.31537
0
LINE
8
BLACK
6
CONTINUOUS
10
2.65932
20
-2.31537
11
2.67185
21
-2.30783
0
LINE
8
BLACK
6
CONTINUOUS
10
2.67185
20
-2.30783
11
2.68349
21
-2.29899
0
LINE
8
BLACK
6
CONTINUOUS
10
2.68349
20
-2.29899
11
2.6941
21
-2.28893
0
LINE
8
BLACK
6
CONTINUOUS
10
2.6941
20
-2.28893
11
2.70357
21
-2.27779
0
LINE
8
BLACK
6
CONTINUOUS
10
2.70357
20
-2.27779
11
2.71177
21
-2.26568
0
LINE
8
BLACK
6
CONTINUOUS
10
2.71177
20
-2.26568
11
2.71862
21
-2.25277
0
LINE
8
BLACK
6
CONTINUOUS
10
2.71862
20
-2.25277
11
2.72403
21
-2.23918
0
LINE
8
BLACK
6
CONTINUOUS
10
2.72403
20
-2.23918
11
2.72795
21
-2.22509
0
LINE
8
BLACK
6
CONTINUOUS
10
2.72795
20
-2.22509
11
2.73031
21
-2.21066
0
LINE
8
BLACK
6
CONTINUOUS
10
2.73031
20
-2.21066
11
2.7311
21
-2.19606
0
LINE
8
BLACK
6
CONTINUOUS
10
2.7311
20
-2.19606
11
2.73031
21
-2.18146
0
LINE
8
BLACK
6
CONTINUOUS
10
2.73031
20
-2.18146
11
2.72795
21
-2.16703
0
LINE
8
BLACK
6
CONTINUOUS
10
2.72795
20
-2.16703
11
2.72403
21
-2.15294
0
LINE
8
BLACK
6
CONTINUOUS
10
2.72403
20
-2.15294
11
2.71862
21
-2.13936
0
LINE
8
BLACK
6
CONTINUOUS
10
2.71862
20
-2.13936
11
2.71177
21
-2.12644
0
LINE
8
BLACK
6
CONTINUOUS
10
2.71177
20
-2.12644
11
2.70357
21
-2.11434
0
LINE
8
BLACK
6
CONTINUOUS
10
2.70357
20
-2.11434
11
2.6941
21
-2.1032
0
LINE
8
BLACK
6
CONTINUOUS
10
2.6941
20
-2.1032
11
2.68349
21
-2.09314
0
LINE
8
BLACK
6
CONTINUOUS
10
2.68349
20
-2.09314
11
2.67185
21
-2.08429
0
LINE
8
BLACK
6
CONTINUOUS
10
2.67185
20
-2.08429
11
2.65932
21
-2.07675
0
LINE
8
BLACK
6
CONTINUOUS
10
2.65932
20
-2.07675
11
2.64605
21
-2.07061
0
LINE
8
BLACK
6
CONTINUOUS
10
2.64605
20
-2.07061
11
2.63219
21
-2.06594
0
LINE
8
BLACK
6
CONTINUOUS
10
2.63219
20
-2.06594
11
2.61791
21
-2.0628
0
LINE
8
BLACK
6
CONTINUOUS
10
2.61791
20
-2.0628
11
2.60337
21
-2.06122
0
LINE
8
BLACK
6
CONTINUOUS
10
2.60337
20
-2.06122
11
2.58875
21
-2.06122
0
LINE
8
BLACK
6
CONTINUOUS
10
2.58875
20
-2.06122
11
2.57422
21
-2.0628
0
LINE
8
BLACK
6
CONTINUOUS
10
2.57422
20
-2.0628
11
2.55994
21
-2.06594
0
LINE
8
BLACK
6
CONTINUOUS
10
2.55994
20
-2.06594
11
2.54608
21
-2.07061
0
LINE
8
BLACK
6
CONTINUOUS
10
2.54608
20
-2.07061
11
2.53281
21
-2.07675
0
LINE
8
BLACK
6
CONTINUOUS
10
2.53281
20
-2.07675
11
2.52028
21
-2.08429
0
LINE
8
BLACK
6
CONTINUOUS
10
2.52028
20
-2.08429
11
2.50864
21
-2.09314
0
LINE
8
BLACK
6
CONTINUOUS
10
2.50864
20
-2.09314
11
2.49802
21
-2.1032
0
LINE
8
BLACK
6
CONTINUOUS
10
2.49802
20
-2.1032
11
2.48856
21
-2.11434
0
LINE
8
BLACK
6
CONTINUOUS
10
2.48856
20
-2.11434
11
2.48035
21
-2.12644
0
LINE
8
BLACK
6
CONTINUOUS
10
2.48035
20
-2.12644
11
2.4735
21
-2.13936
0
LINE
8
BLACK
6
CONTINUOUS
10
2.4735
20
-2.13936
11
2.46809
21
-2.15294
0
LINE
8
BLACK
6
CONTINUOUS
10
2.46809
20
-2.15294
11
2.46418
21
-2.16703
0
LINE
8
BLACK
6
CONTINUOUS
10
2.46418
20
-2.16703
11
2.46181
21
-2.18146
0
LINE
8
BLACK
6
CONTINUOUS
10
2.46181
20
-2.18146
11
2.46102
21
-2.19606
0
LINE
8
BLACK
6
CONTINUOUS
10
2.46102
20
-2.19606
11
2.46181
21
-2.21066
0
LINE
8
BLACK
6
CONTINUOUS
10
2.03031
20
-2.04232
11
2.03101
21
-2.04261
0
LINE
8
BLACK
6
CONTINUOUS
10
2.03101
20
-2.04261
11
2.0313
21
-2.04331
0
LINE
8
BLACK
6
CONTINUOUS
10
2.0313
20
-2.04331
11
2.0313
21
-2.11949
0
LINE
8
BLACK
6
CONTINUOUS
10
2.0313
20
-2.11949
11
2.04331
21
-2.11949
0
LINE
8
BLACK
6
CONTINUOUS
10
2.04331
20
-2.11949
11
2.044
21
-2.11978
0
LINE
8
BLACK
6
CONTINUOUS
10
2.044
20
-2.11978
11
2.04429
21
-2.12047
0
LINE
8
BLACK
6
CONTINUOUS
10
2.04429
20
-2.12047
11
2.04429
21
-2.3252
0
LINE
8
BLACK
6
CONTINUOUS
10
2.04429
20
-2.3252
11
2.044
21
-2.32589
0
LINE
8
BLACK
6
CONTINUOUS
10
2.044
20
-2.32589
11
2.04331
21
-2.32618
0
LINE
8
BLACK
6
CONTINUOUS
10
2.04331
20
-2.32618
11
1.50787
21
-2.32618
0
LINE
8
BLACK
6
CONTINUOUS
10
1.50787
20
-2.32618
11
1.50718
21
-2.32589
0
LINE
8
BLACK
6
CONTINUOUS
10
1.50718
20
-2.32589
11
1.50689
21
-2.3252
0
LINE
8
BLACK
6
CONTINUOUS
10
1.50689
20
-2.3252
11
1.50689
21
-2.12047
0
LINE
8
BLACK
6
CONTINUOUS
10
1.50689
20
-2.12047
11
1.50718
21
-2.11978
0
LINE
8
BLACK
6
CONTINUOUS
10
1.50718
20
-2.11978
11
1.50787
21
-2.11949
0
LINE
8
BLACK
6
CONTINUOUS
10
1.50787
20
-2.11949
11
1.89547
21
-2.11949
0
LINE
8
BLACK
6
CONTINUOUS
10
1.89547
20
-2.11949
11
1.89547
21
-2.04331
0
LINE
8
BLACK
6
CONTINUOUS
10
1.89547
20
-2.04331
11
1.89576
21
-2.04261
0
LINE
8
BLACK
6
CONTINUOUS
10
1.89576
20
-2.04261
11
1.89646
21
-2.04232
0
LINE
8
BLACK
6
CONTINUOUS
10
1.89646
20
-2.04232
11
2.03031
21
-2.04232
0
LINE
8
BLACK
6
CONTINUOUS
10
2.03031
20
-2.12146
11
1.89646
21
-2.12146
0
LINE
8
BLACK
6
CONTINUOUS
10
1.89646
20
-2.12146
11
1.50886
21
-2.12146
0
LINE
8
BLACK
6
CONTINUOUS
10
1.50886
20
-2.12146
11
1.50886
21
-2.32421
0
LINE
8
BLACK
6
CONTINUOUS
10
1.50886
20
-2.32421
11
2.04232
21
-2.32421
0
LINE
8
BLACK
6
CONTINUOUS
10
2.04232
20
-2.32421
11
2.04232
21
-2.12146
0
LINE
8
BLACK
6
CONTINUOUS
10
2.04232
20
-2.12146
11
2.03031
21
-2.12146
0
LINE
8
BLACK
6
CONTINUOUS
10
1.89744
20
-2.04429
11
1.89744
21
-2.11949
0
LINE
8
BLACK
6
CONTINUOUS
10
1.89744
20
-2.11949
11
2.02933
21
-2.11949
0
LINE
8
BLACK
6
CONTINUOUS
10
2.02933
20
-2.11949
11
2.02933
21
-2.04429
0
LINE
8
BLACK
6
CONTINUOUS
10
2.02933
20
-2.04429
11
1.89744
21
-2.04429
0
LINE
8
BLACK
6
CONTINUOUS
10
1.10512
20
-2.23524
11
1.10581
21
-2.23552
0
LINE
8
BLACK
6
CONTINUOUS
10
1.10581
20
-2.23552
11
1.1061
21
-2.23622
0
LINE
8
BLACK
6
CONTINUOUS
10
1.1061
20
-2.23622
11
1.1061
21
-2.31339
0
LINE
8
BLACK
6
CONTINUOUS
10
1.1061
20
-2.31339
11
1.10581
21
-2.31408
0
LINE
8
BLACK
6
CONTINUOUS
10
1.10581
20
-2.31408
11
1.10512
21
-2.31437
0
LINE
8
BLACK
6
CONTINUOUS
10
1.10512
20
-2.31437
11
0.97126
21
-2.31437
0
LINE
8
BLACK
6
CONTINUOUS
10
0.97126
20
-2.31437
11
0.970564
21
-2.31408
0
LINE
8
BLACK
6
CONTINUOUS
10
0.970564
20
-2.31408
11
0.970276
21
-2.31339
0
LINE
8
BLACK
6
CONTINUOUS
10
0.970276
20
-2.31339
11
0.970276
21
-2.23622
0
LINE
8
BLACK
6
CONTINUOUS
10
0.970276
20
-2.23622
11
0.970564
21
-2.23552
0
LINE
8
BLACK
6
CONTINUOUS
10
0.970564
20
-2.23552
11
0.97126
21
-2.23524
0
LINE
8
BLACK
6
CONTINUOUS
10
0.97126
20
-2.23524
11
1.10512
21
-2.23524
0
LINE
8
BLACK
6
CONTINUOUS
10
0.972244
20
-2.2372
11
0.972244
21
-2.3124
0
LINE
8
BLACK
6
CONTINUOUS
10
0.972244
20
-2.3124
11
1.10413
21
-2.3124
0
LINE
8
BLACK
6
CONTINUOUS
10
1.10413
20
-2.3124
11
1.10413
21
-2.2372
0
LINE
8
BLACK
6
CONTINUOUS
10
1.10413
20
-2.2372
11
0.972244
21
-2.2372
0
LINE
8
BLACK
6
CONTINUOUS
10
0.492126
20
-2.22067
11
0.492822
21
-2.22096
0
LINE
8
BLACK
6
CONTINUOUS
10
0.492822
20
-2.22096
11
0.49311
21
-2.22165
0
LINE
8
BLACK
6
CONTINUOUS
10
0.49311
20
-2.22165
11
0.49311
21
-2.29646
0
LINE
8
BLACK
6
CONTINUOUS
10
0.49311
20
-2.29646
11
0.492822
21
-2.29715
0
LINE
8
BLACK
6
CONTINUOUS
10
0.492822
20
-2.29715
11
0.492126
21
-2.29744
0
LINE
8
BLACK
6
CONTINUOUS
10
0.492126
20
-2.29744
11
0.359843
21
-2.29744
0
LINE
8
BLACK
6
CONTINUOUS
10
0.359843
20
-2.29744
11
0.359147
21
-2.29715
0
LINE
8
BLACK
6
CONTINUOUS
10
0.359147
20
-2.29715
11
0.358858
21
-2.29646
0
LINE
8
BLACK
6
CONTINUOUS
10
0.358858
20
-2.29646
11
0.358858
21
-2.29646
0
LINE
8
BLACK
6
CONTINUOUS
10
0.358858
20
-2.29646
11
0.358858
21
-2.22165
0
LINE
8
BLACK
6
CONTINUOUS
10
0.358858
20
-2.22165
11
0.359147
21
-2.22096
0
LINE
8
BLACK
6
CONTINUOUS
10
0.359147
20
-2.22096
11
0.359843
21
-2.22067
0
LINE
8
BLACK
6
CONTINUOUS
10
0.359843
20
-2.22067
11
0.492126
21
-2.22067
0
LINE
8
BLACK
6
CONTINUOUS
10
0.360827
20
-2.22264
11
0.360827
21
-2.29547
0
LINE
8
BLACK
6
CONTINUOUS
10
0.360827
20
-2.29547
11
0.491142
21
-2.29547
0
LINE
8
BLACK
6
CONTINUOUS
10
0.491142
20
-2.29547
11
0.491142
21
-2.22264
0
LINE
8
BLACK
6
CONTINUOUS
10
0.491142
20
-2.22264
11
0.360827
21
-2.22264
0
LINE
8
BLACK
6
CONTINUOUS
10
2.17717
20
-2.09862
11
2.17786
21
-2.09891
0
LINE
8
BLACK
6
CONTINUOUS
10
2.17786
20
-2.09891
11
2.17815
21
-2.09961
0
LINE
8
BLACK
6
CONTINUOUS
10
2.17815
20
-2.09961
11
2.17815
21
-2.23346
0
LINE
8
BLACK
6
CONTINUOUS
10
2.17815
20
-2.23346
11
2.17786
21
-2.23416
0
LINE
8
BLACK
6
CONTINUOUS
10
2.17786
20
-2.23416
11
2.17717
21
-2.23445
0
LINE
8
BLACK
6
CONTINUOUS
10
2.17717
20
-2.23445
11
2.1
21
-2.23445
0
LINE
8
BLACK
6
CONTINUOUS
10
2.1
20
-2.23445
11
2.0993
21
-2.23416
0
LINE
8
BLACK
6
CONTINUOUS
10
2.0993
20
-2.23416
11
2.09902
21
-2.23346
0
LINE
8
BLACK
6
CONTINUOUS
10
2.09902
20
-2.23346
11
2.09902
21
-2.09961
0
LINE
8
BLACK
6
CONTINUOUS
10
2.09902
20
-2.09961
11
2.0993
21
-2.09891
0
LINE
8
BLACK
6
CONTINUOUS
10
2.0993
20
-2.09891
11
2.1
21
-2.09862
0
LINE
8
BLACK
6
CONTINUOUS
10
2.1
20
-2.09862
11
2.17717
21
-2.09862
0
LINE
8
BLACK
6
CONTINUOUS
10
2.10098
20
-2.10059
11
2.10098
21
-2.23248
0
LINE
8
BLACK
6
CONTINUOUS
10
2.10098
20
-2.23248
11
2.17618
21
-2.23248
0
LINE
8
BLACK
6
CONTINUOUS
10
2.17618
20
-2.23248
11
2.17618
21
-2.10059
0
LINE
8
BLACK
6
CONTINUOUS
10
2.17618
20
-2.10059
11
2.10098
21
-2.10059
0
LINE
8
BLACK
6
CONTINUOUS
10
2.34163
20
-2.09469
11
2.34233
21
-2.09497
0
LINE
8
BLACK
6
CONTINUOUS
10
2.34233
20
-2.09497
11
2.34262
21
-2.09567
0
LINE
8
BLACK
6
CONTINUOUS
10
2.34262
20
-2.09567
11
2.34262
21
-2.22953
0
LINE
8
BLACK
6
CONTINUOUS
10
2.34262
20
-2.22953
11
2.34233
21
-2.23022
0
LINE
8
BLACK
6
CONTINUOUS
10
2.34233
20
-2.23022
11
2.34163
21
-2.23051
0
LINE
8
BLACK
6
CONTINUOUS
10
2.34163
20
-2.23051
11
2.19045
21
-2.23051
0
LINE
8
BLACK
6
CONTINUOUS
10
2.19045
20
-2.23051
11
2.18976
21
-2.23022
0
LINE
8
BLACK
6
CONTINUOUS
10
2.18976
20
-2.23022
11
2.18947
21
-2.22953
0
LINE
8
BLACK
6
CONTINUOUS
10
2.18947
20
-2.22953
11
2.18947
21
-2.09567
0
LINE
8
BLACK
6
CONTINUOUS
10
2.18947
20
-2.09567
11
2.18976
21
-2.09497
0
LINE
8
BLACK
6
CONTINUOUS
10
2.18976
20
-2.09497
11
2.19045
21
-2.09469
0
LINE
8
BLACK
6
CONTINUOUS
10
2.19045
20
-2.09469
11
2.34163
21
-2.09469
0
LINE
8
BLACK
6
CONTINUOUS
10
2.19144
20
-2.09665
11
2.19144
21
-2.22854
0
LINE
8
BLACK
6
CONTINUOUS
10
2.19144
20
-2.22854
11
2.34065
21
-2.22854
0
LINE
8
BLACK
6
CONTINUOUS
10
2.34065
20
-2.22854
11
2.34065
21
-2.09665
0
LINE
8
BLACK
6
CONTINUOUS
10
2.34065
20
-2.09665
11
2.19144
21
-2.09665
0
LINE
8
BLACK
6
CONTINUOUS
10
0.759843
20
-2.09862
11
0.760539
21
-2.09891
0
LINE
8
BLACK
6
CONTINUOUS
10
0.760539
20
-2.09891
11
0.760827
21
-2.09961
0
LINE
8
BLACK
6
CONTINUOUS
10
0.760827
20
-2.09961
11
0.760827
21
-2.17441
0
LINE
8
BLACK
6
CONTINUOUS
10
0.760827
20
-2.17441
11
0.760539
21
-2.17511
0
LINE
8
BLACK
6
CONTINUOUS
10
0.760539
20
-2.17511
11
0.759843
21
-2.17539
0
LINE
8
BLACK
6
CONTINUOUS
10
0.759843
20
-2.17539
11
0.627559
21
-2.17539
0
LINE
8
BLACK
6
CONTINUOUS
10
0.627559
20
-2.17539
11
0.626863
21
-2.17511
0
LINE
8
BLACK
6
CONTINUOUS
10
0.626863
20
-2.17511
11
0.626575
21
-2.17441
0
LINE
8
BLACK
6
CONTINUOUS
10
0.626575
20
-2.17441
11
0.626575
21
-2.17441
0
LINE
8
BLACK
6
CONTINUOUS
10
0.626575
20
-2.17441
11
0.626575
21
-2.09961
0
LINE
8
BLACK
6
CONTINUOUS
10
0.626575
20
-2.09961
11
0.626863
21
-2.09891
0
LINE
8
BLACK
6
CONTINUOUS
10
0.626863
20
-2.09891
11
0.627559
21
-2.09862
0
LINE
8
BLACK
6
CONTINUOUS
10
0.627559
20
-2.09862
11
0.759843
21
-2.09862
0
LINE
8
BLACK
6
CONTINUOUS
10
0.628543
20
-2.10059
11
0.628543
21
-2.17343
0
LINE
8
BLACK
6
CONTINUOUS
10
0.628543
20
-2.17343
11
0.758858
21
-2.17343
0
LINE
8
BLACK
6
CONTINUOUS
10
0.758858
20
-2.17343
11
0.758858
21
-2.10059
0
LINE
8
BLACK
6
CONTINUOUS
10
0.758858
20
-2.10059
11
0.628543
21
-2.10059
0
LINE
8
BLACK
6
CONTINUOUS
10
1.14567
20
-2.01988
11
1.14637
21
-2.02017
0
LINE
8
BLACK
6
CONTINUOUS
10
1.14637
20
-2.02017
11
1.14665
21
-2.02087
0
LINE
8
BLACK
6
CONTINUOUS
10
1.14665
20
-2.02087
11
1.14665
21
-2.15472
0
LINE
8
BLACK
6
CONTINUOUS
10
1.14665
20
-2.15472
11
1.14637
21
-2.15542
0
LINE
8
BLACK
6
CONTINUOUS
10
1.14637
20
-2.15542
11
1.14567
21
-2.15571
0
LINE
8
BLACK
6
CONTINUOUS
10
1.14567
20
-2.15571
11
1.0685
21
-2.15571
0
LINE
8
BLACK
6
CONTINUOUS
10
1.0685
20
-2.15571
11
1.06781
21
-2.15542
0
LINE
8
BLACK
6
CONTINUOUS
10
1.06781
20
-2.15542
11
1.06752
21
-2.15472
0
LINE
8
BLACK
6
CONTINUOUS
10
1.06752
20
-2.15472
11
1.06752
21
-2.02087
0
LINE
8
BLACK
6
CONTINUOUS
10
1.06752
20
-2.02087
11
1.06781
21
-2.02017
0
LINE
8
BLACK
6
CONTINUOUS
10
1.06781
20
-2.02017
11
1.0685
21
-2.01988
0
LINE
8
BLACK
6
CONTINUOUS
10
1.0685
20
-2.01988
11
1.14567
21
-2.01988
0
LINE
8
BLACK
6
CONTINUOUS
10
1.06949
20
-2.02185
11
1.06949
21
-2.15374
0
LINE
8
BLACK
6
CONTINUOUS
10
1.06949
20
-2.15374
11
1.14469
21
-2.15374
0
LINE
8
BLACK
6
CONTINUOUS
10
1.14469
20
-2.15374
11
1.14469
21
-2.02185
0
LINE
8
BLACK
6
CONTINUOUS
10
1.14469
20
-2.02185
11
1.06949
21
-2.02185
0
LINE
8
BLACK
6
CONTINUOUS
10
1.05512
20
-2.0002
11
1.05581
21
-2.00049
0
LINE
8
BLACK
6
CONTINUOUS
10
1.05581
20
-2.00049
11
1.0561
21
-2.00118
0
LINE
8
BLACK
6
CONTINUOUS
10
1.0561
20
-2.00118
11
1.0561
21
-2.13504
0
LINE
8
BLACK
6
CONTINUOUS
10
1.0561
20
-2.13504
11
1.05581
21
-2.13574
0
LINE
8
BLACK
6
CONTINUOUS
10
1.05581
20
-2.13574
11
1.05512
21
-2.13602
0
LINE
8
BLACK
6
CONTINUOUS
10
1.05512
20
-2.13602
11
0.977953
21
-2.13602
0
LINE
8
BLACK
6
CONTINUOUS
10
0.977953
20
-2.13602
11
0.977257
21
-2.13574
0
LINE
8
BLACK
6
CONTINUOUS
10
0.977257
20
-2.13574
11
0.976969
21
-2.13504
0
LINE
8
BLACK
6
CONTINUOUS
10
0.976969
20
-2.13504
11
0.976969
21
-2.00118
0
LINE
8
BLACK
6
CONTINUOUS
10
0.976969
20
-2.00118
11
0.977257
21
-2.00049
0
LINE
8
BLACK
6
CONTINUOUS
10
0.977257
20
-2.00049
11
0.977953
21
-2.0002
0
LINE
8
BLACK
6
CONTINUOUS
10
0.977953
20
-2.0002
11
1.05512
21
-2.0002
0
LINE
8
BLACK
6
CONTINUOUS
10
0.978937
20
-2.00217
11
0.978937
21
-2.13406
0
LINE
8
BLACK
6
CONTINUOUS
10
0.978937
20
-2.13406
11
1.05413
21
-2.13406
0
LINE
8
BLACK
6
CONTINUOUS
10
1.05413
20
-2.13406
11
1.05413
21
-2.00217
0
LINE
8
BLACK
6
CONTINUOUS
10
1.05413
20
-2.00217
11
0.978937
21
-2.00217
0
LINE
8
BLACK
6
CONTINUOUS
10
1.66614
20
-2.03839
11
1.66684
21
-2.03867
0
LINE
8
BLACK
6
CONTINUOUS
10
1.66684
20
-2.03867
11
1.66713
21
-2.03937
0
LINE
8
BLACK
6
CONTINUOUS
10
1.66713
20
-2.03937
11
1.66713
21
-2.11654
0
LINE
8
BLACK
6
CONTINUOUS
10
1.66713
20
-2.11654
11
1.66684
21
-2.11723
0
LINE
8
BLACK
6
CONTINUOUS
10
1.66684
20
-2.11723
11
1.66614
21
-2.11752
0
LINE
8
BLACK
6
CONTINUOUS
10
1.66614
20
-2.11752
11
1.53228
21
-2.11752
0
LINE
8
BLACK
6
CONTINUOUS
10
1.53228
20
-2.11752
11
1.53159
21
-2.11723
0
LINE
8
BLACK
6
CONTINUOUS
10
1.53159
20
-2.11723
11
1.5313
21
-2.11654
0
LINE
8
BLACK
6
CONTINUOUS
10
1.5313
20
-2.11654
11
1.5313
21
-2.03937
0
LINE
8
BLACK
6
CONTINUOUS
10
1.5313
20
-2.03937
11
1.53159
21
-2.03867
0
LINE
8
BLACK
6
CONTINUOUS
10
1.53159
20
-2.03867
11
1.53228
21
-2.03839
0
LINE
8
BLACK
6
CONTINUOUS
10
1.53228
20
-2.03839
11
1.66614
21
-2.03839
0
LINE
8
BLACK
6
CONTINUOUS
10
1.53327
20
-2.04035
11
1.53327
21
-2.11555
0
LINE
8
BLACK
6
CONTINUOUS
10
1.53327
20
-2.11555
11
1.66516
21
-2.11555
0
LINE
8
BLACK
6
CONTINUOUS
10
1.66516
20
-2.11555
11
1.66516
21
-2.04035
0
LINE
8
BLACK
6
CONTINUOUS
10
1.66516
20
-2.04035
11
1.53327
21
-2.04035
0
LINE
8
BLACK
6
CONTINUOUS
10
1.28543
20
-2.02579
11
1.28613
21
-2.02608
0
LINE
8
BLACK
6
CONTINUOUS
10
1.28613
20
-2.02608
11
1.28642
21
-2.02677
0
LINE
8
BLACK
6
CONTINUOUS
10
1.28642
20
-2.02677
11
1.28642
21
-2.10394
0
LINE
8
BLACK
6
CONTINUOUS
10
1.28642
20
-2.10394
11
1.28613
21
-2.10463
0
LINE
8
BLACK
6
CONTINUOUS
10
1.28613
20
-2.10463
11
1.28543
21
-2.10492
0
LINE
8
BLACK
6
CONTINUOUS
10
1.28543
20
-2.10492
11
1.15157
21
-2.10492
0
LINE
8
BLACK
6
CONTINUOUS
10
1.15157
20
-2.10492
11
1.15088
21
-2.10463
0
LINE
8
BLACK
6
CONTINUOUS
10
1.15088
20
-2.10463
11
1.15059
21
-2.10394
0
LINE
8
BLACK
6
CONTINUOUS
10
1.15059
20
-2.10394
11
1.15059
21
-2.02677
0
LINE
8
BLACK
6
CONTINUOUS
10
1.15059
20
-2.02677
11
1.15088
21
-2.02608
0
LINE
8
BLACK
6
CONTINUOUS
10
1.15088
20
-2.02608
11
1.15157
21
-2.02579
0
LINE
8
BLACK
6
CONTINUOUS
10
1.15157
20
-2.02579
11
1.28543
21
-2.02579
0
LINE
8
BLACK
6
CONTINUOUS
10
1.15256
20
-2.02776
11
1.15256
21
-2.10295
0
LINE
8
BLACK
6
CONTINUOUS
10
1.15256
20
-2.10295
11
1.28445
21
-2.10295
0
LINE
8
BLACK
6
CONTINUOUS
10
1.28445
20
-2.10295
11
1.28445
21
-2.02776
0
LINE
8
BLACK
6
CONTINUOUS
10
1.28445
20
-2.02776
11
1.15256
21
-2.02776
0
LINE
8
BLACK
6
CONTINUOUS
10
2.26329
20
-2.01594
11
2.26398
21
-2.01623
0
LINE
8
BLACK
6
CONTINUOUS
10
2.26398
20
-2.01623
11
2.26427
21
-2.01693
0
LINE
8
BLACK
6
CONTINUOUS
10
2.26427
20
-2.01693
11
2.26427
21
-2.09173
0
LINE
8
BLACK
6
CONTINUOUS
10
2.26427
20
-2.09173
11
2.26398
21
-2.09243
0
LINE
8
BLACK
6
CONTINUOUS
10
2.26398
20
-2.09243
11
2.26329
21
-2.09272
0
LINE
8
BLACK
6
CONTINUOUS
10
2.26329
20
-2.09272
11
2.131
21
-2.09272
0
LINE
8
BLACK
6
CONTINUOUS
10
2.131
20
-2.09272
11
2.13031
21
-2.09243
0
LINE
8
BLACK
6
CONTINUOUS
10
2.13031
20
-2.09243
11
2.13002
21
-2.09173
0
LINE
8
BLACK
6
CONTINUOUS
10
2.13002
20
-2.09173
11
2.13002
21
-2.01693
0
LINE
8
BLACK
6
CONTINUOUS
10
2.13002
20
-2.01693
11
2.13031
21
-2.01623
0
LINE
8
BLACK
6
CONTINUOUS
10
2.13031
20
-2.01623
11
2.131
21
-2.01594
0
LINE
8
BLACK
6
CONTINUOUS
10
2.131
20
-2.01594
11
2.26329
21
-2.01594
0
LINE
8
BLACK
6
CONTINUOUS
10
2.13199
20
-2.01791
11
2.13199
21
-2.09075
0
LINE
8
BLACK
6
CONTINUOUS
10
2.13199
20
-2.09075
11
2.2623
21
-2.09075
0
LINE
8
BLACK
6
CONTINUOUS
10
2.2623
20
-2.09075
11
2.2623
21
-2.01791
0
LINE
8
BLACK
6
CONTINUOUS
10
2.2623
20
-2.01791
11
2.13199
21
-2.01791
0
LINE
8
BLACK
6
CONTINUOUS
10
1.81365
20
-1.93496
11
1.90719
21
-2.02849
0
LINE
8
BLACK
6
CONTINUOUS
10
1.90719
20
-2.02849
11
1.90719
21
-2.02849
0
LINE
8
BLACK
6
CONTINUOUS
10
1.90719
20
-2.02849
11
1.90748
21
-2.02919
0
LINE
8
BLACK
6
CONTINUOUS
10
1.90748
20
-2.02919
11
1.90719
21
-2.02989
0
LINE
8
BLACK
6
CONTINUOUS
10
1.90719
20
-2.02989
11
1.8543
21
-2.08278
0
LINE
8
BLACK
6
CONTINUOUS
10
1.8543
20
-2.08278
11
1.8536
21
-2.08307
0
LINE
8
BLACK
6
CONTINUOUS
10
1.8536
20
-2.08307
11
1.8529
21
-2.08278
0
LINE
8
BLACK
6
CONTINUOUS
10
1.8529
20
-2.08278
11
1.8529
21
-2.08278
0
LINE
8
BLACK
6
CONTINUOUS
10
1.8529
20
-2.08278
11
1.75965
21
-1.98952
0
LINE
8
BLACK
6
CONTINUOUS
10
1.75965
20
-1.98952
11
1.75965
21
-2.03386
0
LINE
8
BLACK
6
CONTINUOUS
10
1.75965
20
-2.03386
11
1.75936
21
-2.03455
0
LINE
8
BLACK
6
CONTINUOUS
10
1.75936
20
-2.03455
11
1.75866
21
-2.03484
0
LINE
8
BLACK
6
CONTINUOUS
10
1.75866
20
-2.03484
11
1.6248
21
-2.03484
0
LINE
8
BLACK
6
CONTINUOUS
10
1.6248
20
-2.03484
11
1.62411
21
-2.03455
0
LINE
8
BLACK
6
CONTINUOUS
10
1.62411
20
-2.03455
11
1.62382
21
-2.03386
0
LINE
8
BLACK
6
CONTINUOUS
10
1.62382
20
-2.03386
11
1.62382
21
-1.95669
0
LINE
8
BLACK
6
CONTINUOUS
10
1.62382
20
-1.95669
11
1.62411
21
-1.956
0
LINE
8
BLACK
6
CONTINUOUS
10
1.62411
20
-1.956
11
1.6248
21
-1.95571
0
LINE
8
BLACK
6
CONTINUOUS
10
1.6248
20
-1.95571
11
1.75866
21
-1.95571
0
LINE
8
BLACK
6
CONTINUOUS
10
1.75866
20
-1.95571
11
1.75936
21
-1.956
0
LINE
8
BLACK
6
CONTINUOUS
10
1.75936
20
-1.956
11
1.75965
21
-1.95669
0
LINE
8
BLACK
6
CONTINUOUS
10
1.75965
20
-1.95669
11
1.75965
21
-1.98757
0
LINE
8
BLACK
6
CONTINUOUS
10
1.75965
20
-1.98757
11
1.81226
21
-1.93496
0
LINE
8
BLACK
6
CONTINUOUS
10
1.81226
20
-1.93496
11
1.81295
21
-1.93467
0
LINE
8
BLACK
6
CONTINUOUS
10
1.81295
20
-1.93467
11
1.81365
21
-1.93496
0
LINE
8
BLACK
6
CONTINUOUS
10
1.76145
20
-1.98855
11
1.8536
21
-2.08069
0
LINE
8
BLACK
6
CONTINUOUS
10
1.8536
20
-2.08069
11
1.9051
21
-2.02919
0
LINE
8
BLACK
6
CONTINUOUS
10
1.9051
20
-2.02919
11
1.81295
21
-1.93704
0
LINE
8
BLACK
6
CONTINUOUS
10
1.81295
20
-1.93704
11
1.76145
21
-1.98855
0
LINE
8
BLACK
6
CONTINUOUS
10
1.62579
20
-1.95768
11
1.62579
21
-2.03287
0
LINE
8
BLACK
6
CONTINUOUS
10
1.62579
20
-2.03287
11
1.75768
21
-2.03287
0
LINE
8
BLACK
6
CONTINUOUS
10
1.75768
20
-2.03287
11
1.75768
21
-1.95768
0
LINE
8
BLACK
6
CONTINUOUS
10
1.75768
20
-1.95768
11
1.62579
21
-1.95768
0
LINE
8
BLACK
6
CONTINUOUS
10
2.40039
20
-1.91329
11
2.40109
21
-1.91358
0
LINE
8
BLACK
6
CONTINUOUS
10
2.40109
20
-1.91358
11
2.40138
21
-1.91427
0
LINE
8
BLACK
6
CONTINUOUS
10
2.40138
20
-1.91427
11
2.40138
21
-2.06545
0
LINE
8
BLACK
6
CONTINUOUS
10
2.40138
20
-2.06545
11
2.40109
21
-2.06615
0
LINE
8
BLACK
6
CONTINUOUS
10
2.40109
20
-2.06615
11
2.40039
21
-2.06644
0
LINE
8
BLACK
6
CONTINUOUS
10
2.40039
20
-2.06644
11
2.26654
21
-2.06644
0
LINE
8
BLACK
6
CONTINUOUS
10
2.26654
20
-2.06644
11
2.26584
21
-2.06615
0
LINE
8
BLACK
6
CONTINUOUS
10
2.26584
20
-2.06615
11
2.26555
21
-2.06545
0
LINE
8
BLACK
6
CONTINUOUS
10
2.26555
20
-2.06545
11
2.26555
21
-1.91427
0
LINE
8
BLACK
6
CONTINUOUS
10
2.26555
20
-1.91427
11
2.26584
21
-1.91358
0
LINE
8
BLACK
6
CONTINUOUS
10
2.26584
20
-1.91358
11
2.26654
21
-1.91329
0
LINE
8
BLACK
6
CONTINUOUS
10
2.26654
20
-1.91329
11
2.40039
21
-1.91329
0
LINE
8
BLACK
6
CONTINUOUS
10
2.26752
20
-1.91526
11
2.26752
21
-2.06447
0
LINE
8
BLACK
6
CONTINUOUS
10
2.26752
20
-2.06447
11
2.39941
21
-2.06447
0
LINE
8
BLACK
6
CONTINUOUS
10
2.39941
20
-2.06447
11
2.39941
21
-1.91526
0
LINE
8
BLACK
6
CONTINUOUS
10
2.39941
20
-1.91526
11
2.26752
21
-1.91526
0
LINE
8
BLACK
6
CONTINUOUS
10
2.04921
20
-1.9624
11
2.04991
21
-1.96269
0
LINE
8
BLACK
6
CONTINUOUS
10
2.04991
20
-1.96269
11
2.0502
21
-1.96339
0
LINE
8
BLACK
6
CONTINUOUS
10
2.0502
20
-1.96339
11
2.0502
21
-2.04055
0
LINE
8
BLACK
6
CONTINUOUS
10
2.0502
20
-2.04055
11
2.04991
21
-2.04125
0
LINE
8
BLACK
6
CONTINUOUS
10
2.04991
20
-2.04125
11
2.04921
21
-2.04154
0
LINE
8
BLACK
6
CONTINUOUS
10
2.04921
20
-2.04154
11
1.91535
21
-2.04154
0
LINE
8
BLACK
6
CONTINUOUS
10
1.91535
20
-2.04154
11
1.91466
21
-2.04125
0
LINE
8
BLACK
6
CONTINUOUS
10
1.91466
20
-2.04125
11
1.91437
21
-2.04055
0
LINE
8
BLACK
6
CONTINUOUS
10
1.91437
20
-2.04055
11
1.91437
21
-1.96339
0
LINE
8
BLACK
6
CONTINUOUS
10
1.91437
20
-1.96339
11
1.91466
21
-1.96269
0
LINE
8
BLACK
6
CONTINUOUS
10
1.91466
20
-1.96269
11
1.91535
21
-1.9624
0
LINE
8
BLACK
6
CONTINUOUS
10
1.91535
20
-1.9624
11
2.04921
21
-1.9624
0
LINE
8
BLACK
6
CONTINUOUS
10
1.91634
20
-1.96437
11
1.91634
21
-2.03957
0
LINE
8
BLACK
6
CONTINUOUS
10
1.91634
20
-2.03957
11
2.04823
21
-2.03957
0
LINE
8
BLACK
6
CONTINUOUS
10
2.04823
20
-2.03957
11
2.04823
21
-1.96437
0
LINE
8
BLACK
6
CONTINUOUS
10
2.04823
20
-1.96437
11
1.91634
21
-1.96437
0
LINE
8
BLACK
6
CONTINUOUS
10
1.28711
20
-1.94823
11
1.2878
21
-1.94852
0
LINE
8
BLACK
6
CONTINUOUS
10
1.2878
20
-1.94852
11
1.28809
21
-1.94921
0
LINE
8
BLACK
6
CONTINUOUS
10
1.28809
20
-1.94921
11
1.28809
21
-2.02402
0
LINE
8
BLACK
6
CONTINUOUS
10
1.28809
20
-2.02402
11
1.2878
21
-2.02471
0
LINE
8
BLACK
6
CONTINUOUS
10
1.2878
20
-2.02471
11
1.28711
21
-2.025
0
LINE
8
BLACK
6
CONTINUOUS
10
1.28711
20
-2.025
11
1.15482
21
-2.025
0
LINE
8
BLACK
6
CONTINUOUS
10
1.15482
20
-2.025
11
1.15413
21
-2.02471
0
LINE
8
BLACK
6
CONTINUOUS
10
1.15413
20
-2.02471
11
1.15384
21
-2.02402
0
LINE
8
BLACK
6
CONTINUOUS
10
1.15384
20
-2.02402
11
1.15384
21
-1.94921
0
LINE
8
BLACK
6
CONTINUOUS
10
1.15384
20
-1.94921
11
1.15413
21
-1.94852
0
LINE
8
BLACK
6
CONTINUOUS
10
1.15413
20
-1.94852
11
1.15482
21
-1.94823
0
LINE
8
BLACK
6
CONTINUOUS
10
1.15482
20
-1.94823
11
1.28711
21
-1.94823
0
LINE
8
BLACK
6
CONTINUOUS
10
1.15581
20
-1.9502
11
1.15581
21
-2.02303
0
LINE
8
BLACK
6
CONTINUOUS
10
1.15581
20
-2.02303
11
1.28612
21
-2.02303
0
LINE
8
BLACK
6
CONTINUOUS
10
1.28612
20
-2.02303
11
1.28612
21
-1.9502
0
LINE
8
BLACK
6
CONTINUOUS
10
1.28612
20
-1.9502
11
1.15581
21
-1.9502
0
LINE
8
BLACK
6
CONTINUOUS
10
2.26329
20
-1.93327
11
2.26398
21
-1.93356
0
LINE
8
BLACK
6
CONTINUOUS
10
2.26398
20
-1.93356
11
2.26427
21
-1.93425
0
LINE
8
BLACK
6
CONTINUOUS
10
2.26427
20
-1.93425
11
2.26427
21
-2.00906
0
LINE
8
BLACK
6
CONTINUOUS
10
2.26427
20
-2.00906
11
2.26398
21
-2.00975
0
LINE
8
BLACK
6
CONTINUOUS
10
2.26398
20
-2.00975
11
2.26329
21
-2.01004
0
LINE
8
BLACK
6
CONTINUOUS
10
2.26329
20
-2.01004
11
2.131
21
-2.01004
0
LINE
8
BLACK
6
CONTINUOUS
10
2.131
20
-2.01004
11
2.13031
21
-2.00975
0
LINE
8
BLACK
6
CONTINUOUS
10
2.13031
20
-2.00975
11
2.13002
21
-2.00906
0
LINE
8
BLACK
6
CONTINUOUS
10
2.13002
20
-2.00906
11
2.13002
21
-1.93425
0
LINE
8
BLACK
6
CONTINUOUS
10
2.13002
20
-1.93425
11
2.13031
21
-1.93356
0
LINE
8
BLACK
6
CONTINUOUS
10
2.13031
20
-1.93356
11
2.131
21
-1.93327
0
LINE
8
BLACK
6
CONTINUOUS
10
2.131
20
-1.93327
11
2.26329
21
-1.93327
0
LINE
8
BLACK
6
CONTINUOUS
10
2.13199
20
-1.93524
11
2.13199
21
-2.00807
0
LINE
8
BLACK
6
CONTINUOUS
10
2.13199
20
-2.00807
11
2.2623
21
-2.00807
0
LINE
8
BLACK
6
CONTINUOUS
10
2.2623
20
-2.00807
11
2.2623
21
-1.93524
0
LINE
8
BLACK
6
CONTINUOUS
10
2.2623
20
-1.93524
11
2.13199
21
-1.93524
0
LINE
8
BLACK
6
CONTINUOUS
10
1.1122
20
-1.91555
11
1.1129
21
-1.91584
0
LINE
8
BLACK
6
CONTINUOUS
10
1.1129
20
-1.91584
11
1.11319
21
-1.91654
0
LINE
8
BLACK
6
CONTINUOUS
10
1.11319
20
-1.91654
11
1.11319
21
-1.9937
0
LINE
8
BLACK
6
CONTINUOUS
10
1.11319
20
-1.9937
11
1.1129
21
-1.9944
0
LINE
8
BLACK
6
CONTINUOUS
10
1.1129
20
-1.9944
11
1.1122
21
-1.99469
0
LINE
8
BLACK
6
CONTINUOUS
10
1.1122
20
-1.99469
11
0.978346
21
-1.99469
0
LINE
8
BLACK
6
CONTINUOUS
10
0.978346
20
-1.99469
11
0.97765
21
-1.9944
0
LINE
8
BLACK
6
CONTINUOUS
10
0.97765
20
-1.9944
11
0.977362
21
-1.9937
0
LINE
8
BLACK
6
CONTINUOUS
10
0.977362
20
-1.9937
11
0.977362
21
-1.91654
0
LINE
8
BLACK
6
CONTINUOUS
10
0.977362
20
-1.91654
11
0.97765
21
-1.91584
0
LINE
8
BLACK
6
CONTINUOUS
10
0.97765
20
-1.91584
11
0.978346
21
-1.91555
0
LINE
8
BLACK
6
CONTINUOUS
10
0.978346
20
-1.91555
11
1.1122
21
-1.91555
0
LINE
8
BLACK
6
CONTINUOUS
10
0.979331
20
-1.91752
11
0.979331
21
-1.99272
0
LINE
8
BLACK
6
CONTINUOUS
10
0.979331
20
-1.99272
11
1.11122
21
-1.99272
0
LINE
8
BLACK
6
CONTINUOUS
10
1.11122
20
-1.99272
11
1.11122
21
-1.91752
0
LINE
8
BLACK
6
CONTINUOUS
10
1.11122
20
-1.91752
11
0.979331
21
-1.91752
0
LINE
8
BLACK
6
CONTINUOUS
10
0.542126
20
-1.8499
11
0.542822
21
-1.85019
0
LINE
8
BLACK
6
CONTINUOUS
10
0.542822
20
-1.85019
11
0.54311
21
-1.85089
0
LINE
8
BLACK
6
CONTINUOUS
10
0.54311
20
-1.85089
11
0.54311
21
-1.98317
0
LINE
8
BLACK
6
CONTINUOUS
10
0.54311
20
-1.98317
11
0.542822
21
-1.98387
0
LINE
8
BLACK
6
CONTINUOUS
10
0.542822
20
-1.98387
11
0.542126
21
-1.98415
0
LINE
8
BLACK
6
CONTINUOUS
10
0.542126
20
-1.98415
11
0.467323
21
-1.98415
0
LINE
8
BLACK
6
CONTINUOUS
10
0.467323
20
-1.98415
11
0.466627
21
-1.98387
0
LINE
8
BLACK
6
CONTINUOUS
10
0.466627
20
-1.98387
11
0.466339
21
-1.98317
0
LINE
8
BLACK
6
CONTINUOUS
10
0.466339
20
-1.98317
11
0.466339
21
-1.85089
0
LINE
8
BLACK
6
CONTINUOUS
10
0.466339
20
-1.85089
11
0.466627
21
-1.85019
0
LINE
8
BLACK
6
CONTINUOUS
10
0.466627
20
-1.85019
11
0.467323
21
-1.8499
0
LINE
8
BLACK
6
CONTINUOUS
10
0.467323
20
-1.8499
11
0.542126
21
-1.8499
0
LINE
8
BLACK
6
CONTINUOUS
10
0.468307
20
-1.85187
11
0.468307
21
-1.98219
0
LINE
8
BLACK
6
CONTINUOUS
10
0.468307
20
-1.98219
11
0.541142
21
-1.98219
0
LINE
8
BLACK
6
CONTINUOUS
10
0.541142
20
-1.98219
11
0.541142
21
-1.85187
0
LINE
8
BLACK
6
CONTINUOUS
10
0.541142
20
-1.85187
11
0.468307
21
-1.85187
0
LINE
8
BLACK
6
CONTINUOUS
10
2.70866
20
-1.52894
11
2.70936
21
-1.52923
0
LINE
8
BLACK
6
CONTINUOUS
10
2.70936
20
-1.52923
11
2.70965
21
-1.52992
0
LINE
8
BLACK
6
CONTINUOUS
10
2.70965
20
-1.52992
11
2.70965
21
-1.97087
0
LINE
8
BLACK
6
CONTINUOUS
10
2.70965
20
-1.97087
11
2.70936
21
-1.97156
0
LINE
8
BLACK
6
CONTINUOUS
10
2.70936
20
-1.97156
11
2.70866
21
-1.97185
0
LINE
8
BLACK
6
CONTINUOUS
10
2.70866
20
-1.97185
11
2.56693
21
-1.97185
0
LINE
8
BLACK
6
CONTINUOUS
10
2.56693
20
-1.97185
11
2.56623
21
-1.97156
0
LINE
8
BLACK
6
CONTINUOUS
10
2.56623
20
-1.97156
11
2.56594
21
-1.97087
0
LINE
8
BLACK
6
CONTINUOUS
10
2.56594
20
-1.97087
11
2.56594
21
-1.52992
0
LINE
8
BLACK
6
CONTINUOUS
10
2.56594
20
-1.52992
11
2.56623
21
-1.52923
0
LINE
8
BLACK
6
CONTINUOUS
10
2.56623
20
-1.52923
11
2.56693
21
-1.52894
0
LINE
8
BLACK
6
CONTINUOUS
10
2.56693
20
-1.52894
11
2.70866
21
-1.52894
0
LINE
8
BLACK
6
CONTINUOUS
10
2.56791
20
-1.53091
11
2.56791
21
-1.96988
0
LINE
8
BLACK
6
CONTINUOUS
10
2.56791
20
-1.96988
11
2.70768
21
-1.96988
0
LINE
8
BLACK
6
CONTINUOUS
10
2.70768
20
-1.96988
11
2.70768
21
-1.53091
0
LINE
8
BLACK
6
CONTINUOUS
10
2.70768
20
-1.53091
11
2.56791
21
-1.53091
0
LINE
8
BLACK
6
CONTINUOUS
10
0.885827
20
-1.80138
11
0.886523
21
-1.80167
0
LINE
8
BLACK
6
CONTINUOUS
10
0.886523
20
-1.80167
11
0.886811
21
-1.80236
0
LINE
8
BLACK
6
CONTINUOUS
10
0.886811
20
-1.80236
11
0.886811
21
-1.93622
0
LINE
8
BLACK
6
CONTINUOUS
10
0.886811
20
-1.93622
11
0.886523
21
-1.93692
0
LINE
8
BLACK
6
CONTINUOUS
10
0.886523
20
-1.93692
11
0.885827
21
-1.9372
0
LINE
8
BLACK
6
CONTINUOUS
10
0.885827
20
-1.9372
11
0.808661
21
-1.9372
0
LINE
8
BLACK
6
CONTINUOUS
10
0.808661
20
-1.9372
11
0.807965
21
-1.93692
0
LINE
8
BLACK
6
CONTINUOUS
10
0.807965
20
-1.93692
11
0.807677
21
-1.93622
0
LINE
8
BLACK
6
CONTINUOUS
10
0.807677
20
-1.93622
11
0.807677
21
-1.93622
0
LINE
8
BLACK
6
CONTINUOUS
10
0.807677
20
-1.93622
11
0.807677
21
-1.80236
0
LINE
8
BLACK
6
CONTINUOUS
10
0.807677
20
-1.80236
11
0.807965
21
-1.80167
0
LINE
8
BLACK
6
CONTINUOUS
10
0.807965
20
-1.80167
11
0.808661
21
-1.80138
0
LINE
8
BLACK
6
CONTINUOUS
10
0.808661
20
-1.80138
11
0.885827
21
-1.80138
0
LINE
8
BLACK
6
CONTINUOUS
10
0.809646
20
-1.80335
11
0.809646
21
-1.93524
0
LINE
8
BLACK
6
CONTINUOUS
10
0.809646
20
-1.93524
11
0.884843
21
-1.93524
0
LINE
8
BLACK
6
CONTINUOUS
10
0.884843
20
-1.93524
11
0.884843
21
-1.80335
0
LINE
8
BLACK
6
CONTINUOUS
10
0.884843
20
-1.80335
11
0.809646
21
-1.80335
0
LINE
8
BLACK
6
CONTINUOUS
10
1.9622
20
-1.59469
11
1.9629
21
-1.59497
0
LINE
8
BLACK
6
CONTINUOUS
10
1.9629
20
-1.59497
11
1.96319
21
-1.59567
0
LINE
8
BLACK
6
CONTINUOUS
10
1.96319
20
-1.59567
11
1.96319
21
-1.92008
0
LINE
8
BLACK
6
CONTINUOUS
10
1.96319
20
-1.92008
11
1.9629
21
-1.92077
0
LINE
8
BLACK
6
CONTINUOUS
10
1.9629
20
-1.92077
11
1.9622
21
-1.92106
0
LINE
8
BLACK
6
CONTINUOUS
10
1.9622
20
-1.92106
11
1.6378
21
-1.92106
0
LINE
8
BLACK
6
CONTINUOUS
10
1.6378
20
-1.92106
11
1.6371
21
-1.92077
0
LINE
8
BLACK
6
CONTINUOUS
10
1.6371
20
-1.92077
11
1.63681
21
-1.92008
0
LINE
8
BLACK
6
CONTINUOUS
10
1.63681
20
-1.92008
11
1.63681
21
-1.92008
0
LINE
8
BLACK
6
CONTINUOUS
10
1.63681
20
-1.92008
11
1.63681
21
-1.59567
0
LINE
8
BLACK
6
CONTINUOUS
10
1.63681
20
-1.59567
11
1.6371
21
-1.59497
0
LINE
8
BLACK
6
CONTINUOUS
10
1.6371
20
-1.59497
11
1.6378
21
-1.59469
0
LINE
8
BLACK
6
CONTINUOUS
10
1.6378
20
-1.59469
11
1.9622
21
-1.59469
0
LINE
8
BLACK
6
CONTINUOUS
10
1.63878
20
-1.59665
11
1.63878
21
-1.91909
0
LINE
8
BLACK
6
CONTINUOUS
10
1.63878
20
-1.91909
11
1.96122
21
-1.91909
0
LINE
8
BLACK
6
CONTINUOUS
10
1.96122
20
-1.91909
11
1.96122
21
-1.59665
0
LINE
8
BLACK
6
CONTINUOUS
10
1.96122
20
-1.59665
11
1.63878
21
-1.59665
0
LINE
8
BLACK
6
CONTINUOUS
10
2.29055
20
-1.76909
11
2.29125
21
-1.76938
0
LINE
8
BLACK
6
CONTINUOUS
10
2.29125
20
-1.76938
11
2.29154
21
-1.77008
0
LINE
8
BLACK
6
CONTINUOUS
10
2.29154
20
-1.77008
11
2.29154
21
-1.90394
0
LINE
8
BLACK
6
CONTINUOUS
10
2.29154
20
-1.90394
11
2.29125
21
-1.90463
0
LINE
8
BLACK
6
CONTINUOUS
10
2.29125
20
-1.90463
11
2.29055
21
-1.90492
0
LINE
8
BLACK
6
CONTINUOUS
10
2.29055
20
-1.90492
11
2.21339
21
-1.90492
0
LINE
8
BLACK
6
CONTINUOUS
10
2.21339
20
-1.90492
11
2.21269
21
-1.90463
0
LINE
8
BLACK
6
CONTINUOUS
10
2.21269
20
-1.90463
11
2.2124
21
-1.90394
0
LINE
8
BLACK
6
CONTINUOUS
10
2.2124
20
-1.90394
11
2.2124
21
-1.90394
0
LINE
8
BLACK
6
CONTINUOUS
10
2.2124
20
-1.90394
11
2.2124
21
-1.77008
0
LINE
8
BLACK
6
CONTINUOUS
10
2.2124
20
-1.77008
11
2.21269
21
-1.76938
0
LINE
8
BLACK
6
CONTINUOUS
10
2.21269
20
-1.76938
11
2.21339
21
-1.76909
0
LINE
8
BLACK
6
CONTINUOUS
10
2.21339
20
-1.76909
11
2.29055
21
-1.76909
0
LINE
8
BLACK
6
CONTINUOUS
10
2.21437
20
-1.77106
11
2.21437
21
-1.90295
0
LINE
8
BLACK
6
CONTINUOUS
10
2.21437
20
-1.90295
11
2.28957
21
-1.90295
0
LINE
8
BLACK
6
CONTINUOUS
10
2.28957
20
-1.90295
11
2.28957
21
-1.77106
0
LINE
8
BLACK
6
CONTINUOUS
10
2.28957
20
-1.77106
11
2.21437
21
-1.77106
0
LINE
8
BLACK
6
CONTINUOUS
10
2.19685
20
-1.825
11
2.19755
21
-1.82529
0
LINE
8
BLACK
6
CONTINUOUS
10
2.19755
20
-1.82529
11
2.19783
21
-1.82598
0
LINE
8
BLACK
6
CONTINUOUS
10
2.19783
20
-1.82598
11
2.19783
21
-1.90315
0
LINE
8
BLACK
6
CONTINUOUS
10
2.19783
20
-1.90315
11
2.19755
21
-1.90385
0
LINE
8
BLACK
6
CONTINUOUS
10
2.19755
20
-1.90385
11
2.19685
21
-1.90413
0
LINE
8
BLACK
6
CONTINUOUS
10
2.19685
20
-1.90413
11
2.06299
21
-1.90413
0
LINE
8
BLACK
6
CONTINUOUS
10
2.06299
20
-1.90413
11
2.0623
21
-1.90385
0
LINE
8
BLACK
6
CONTINUOUS
10
2.0623
20
-1.90385
11
2.06201
21
-1.90315
0
LINE
8
BLACK
6
CONTINUOUS
10
2.06201
20
-1.90315
11
2.06201
21
-1.82598
0
LINE
8
BLACK
6
CONTINUOUS
10
2.06201
20
-1.82598
11
2.0623
21
-1.82529
0
LINE
8
BLACK
6
CONTINUOUS
10
2.0623
20
-1.82529
11
2.06299
21
-1.825
0
LINE
8
BLACK
6
CONTINUOUS
10
2.06299
20
-1.825
11
2.19685
21
-1.825
0
LINE
8
BLACK
6
CONTINUOUS
10
2.06398
20
-1.82697
11
2.06398
21
-1.90217
0
LINE
8
BLACK
6
CONTINUOUS
10
2.06398
20
-1.90217
11
2.19587
21
-1.90217
0
LINE
8
BLACK
6
CONTINUOUS
10
2.19587
20
-1.90217
11
2.19587
21
-1.82697
0
LINE
8
BLACK
6
CONTINUOUS
10
2.19587
20
-1.82697
11
2.06398
21
-1.82697
0
LINE
8
BLACK
6
CONTINUOUS
10
1.15354
20
-1.49547
11
1.27756
21
-1.49547
0
LINE
8
BLACK
6
CONTINUOUS
10
1.27756
20
-1.49547
11
1.27826
21
-1.49576
0
LINE
8
BLACK
6
CONTINUOUS
10
1.27826
20
-1.49576
11
1.27854
21
-1.49646
0
LINE
8
BLACK
6
CONTINUOUS
10
1.27854
20
-1.49646
11
1.27854
21
-1.55059
0
LINE
8
BLACK
6
CONTINUOUS
10
1.27854
20
-1.55059
11
1.30118
21
-1.55059
0
LINE
8
BLACK
6
CONTINUOUS
10
1.30118
20
-1.55059
11
1.30188
21
-1.55088
0
LINE
8
BLACK
6
CONTINUOUS
10
1.30188
20
-1.55088
11
1.30217
21
-1.55157
0
LINE
8
BLACK
6
CONTINUOUS
10
1.30217
20
-1.55157
11
1.30217
21
-1.57421
0
LINE
8
BLACK
6
CONTINUOUS
10
1.30217
20
-1.57421
11
1.3563
21
-1.57421
0
LINE
8
BLACK
6
CONTINUOUS
10
1.3563
20
-1.57421
11
1.357
21
-1.5745
0
LINE
8
BLACK
6
CONTINUOUS
10
1.357
20
-1.5745
11
1.35728
21
-1.5752
0
LINE
8
BLACK
6
CONTINUOUS
10
1.35728
20
-1.5752
11
1.35728
21
-1.69921
0
LINE
8
BLACK
6
CONTINUOUS
10
1.35728
20
-1.69921
11
1.35728
21
-1.69921
0
LINE
8
BLACK
6
CONTINUOUS
10
1.35728
20
-1.69921
11
1.35728
21
-1.82323
0
LINE
8
BLACK
6
CONTINUOUS
10
1.35728
20
-1.82323
11
1.357
21
-1.82392
0
LINE
8
BLACK
6
CONTINUOUS
10
1.357
20
-1.82392
11
1.3563
21
-1.82421
0
LINE
8
BLACK
6
CONTINUOUS
10
1.3563
20
-1.82421
11
1.30217
21
-1.82421
0
LINE
8
BLACK
6
CONTINUOUS
10
1.30217
20
-1.82421
11
1.30217
21
-1.84685
0
LINE
8
BLACK
6
CONTINUOUS
10
1.30217
20
-1.84685
11
1.30188
21
-1.84755
0
LINE
8
BLACK
6
CONTINUOUS
10
1.30188
20
-1.84755
11
1.30118
21
-1.84783
0
LINE
8
BLACK
6
CONTINUOUS
10
1.30118
20
-1.84783
11
1.27854
21
-1.84783
0
LINE
8
BLACK
6
CONTINUOUS
10
1.27854
20
-1.84783
11
1.27854
21
-1.90197
0
LINE
8
BLACK
6
CONTINUOUS
10
1.27854
20
-1.90197
11
1.27826
21
-1.90266
0
LINE
8
BLACK
6
CONTINUOUS
10
1.27826
20
-1.90266
11
1.27756
21
-1.90295
0
LINE
8
BLACK
6
CONTINUOUS
10
1.27756
20
-1.90295
11
1.15354
21
-1.90295
0
LINE
8
BLACK
6
CONTINUOUS
10
1.15354
20
-1.90295
11
1.02953
21
-1.90295
0
LINE
8
BLACK
6
CONTINUOUS
10
1.02953
20
-1.90295
11
1.02883
21
-1.90266
0
LINE
8
BLACK
6
CONTINUOUS
10
1.02883
20
-1.90266
11
1.02854
21
-1.90197
0
LINE
8
BLACK
6
CONTINUOUS
10
1.02854
20
-1.90197
11
1.02854
21
-1.84783
0
LINE
8
BLACK
6
CONTINUOUS
10
1.02854
20
-1.84783
11
1.00591
21
-1.84783
0
LINE
8
BLACK
6
CONTINUOUS
10
1.00591
20
-1.84783
11
1.00521
21
-1.84755
0
LINE
8
BLACK
6
CONTINUOUS
10
1.00521
20
-1.84755
11
1.00492
21
-1.84685
0
LINE
8
BLACK
6
CONTINUOUS
10
1.00492
20
-1.84685
11
1.00492
21
-1.82421
0
LINE
8
BLACK
6
CONTINUOUS
10
1.00492
20
-1.82421
11
0.950787
21
-1.82421
0
LINE
8
BLACK
6
CONTINUOUS
10
0.950787
20
-1.82421
11
0.950091
21
-1.82392
0
LINE
8
BLACK
6
CONTINUOUS
10
0.950091
20
-1.82392
11
0.949803
21
-1.82323
0
LINE
8
BLACK
6
CONTINUOUS
10
0.949803
20
-1.82323
11
0.949803
21
-1.69921
0
LINE
8
BLACK
6
CONTINUOUS
10
0.949803
20
-1.69921
11
0.949803
21
-1.5752
0
LINE
8
BLACK
6
CONTINUOUS
10
0.949803
20
-1.5752
11
0.950091
21
-1.5745
0
LINE
8
BLACK
6
CONTINUOUS
10
0.950091
20
-1.5745
11
0.950787
21
-1.57421
0
LINE
8
BLACK
6
CONTINUOUS
10
0.950787
20
-1.57421
11
1.00492
21
-1.57421
0
LINE
8
BLACK
6
CONTINUOUS
10
1.00492
20
-1.57421
11
1.00492
21
-1.55157
0
LINE
8
BLACK
6
CONTINUOUS
10
1.00492
20
-1.55157
11
1.00521
21
-1.55088
0
LINE
8
BLACK
6
CONTINUOUS
10
1.00521
20
-1.55088
11
1.00591
21
-1.55059
0
LINE
8
BLACK
6
CONTINUOUS
10
1.00591
20
-1.55059
11
1.02854
21
-1.55059
0
LINE
8
BLACK
6
CONTINUOUS
10
1.02854
20
-1.55059
11
1.02854
21
-1.49646
0
LINE
8
BLACK
6
CONTINUOUS
10
1.02854
20
-1.49646
11
1.02883
21
-1.49576
0
LINE
8
BLACK
6
CONTINUOUS
10
1.02883
20
-1.49576
11
1.02953
21
-1.49547
0
LINE
8
BLACK
6
CONTINUOUS
10
1.02953
20
-1.49547
11
1.15354
21
-1.49547
0
LINE
8
BLACK
6
CONTINUOUS
10
1.03051
20
-1.49744
11
1.03051
21
-1.55157
0
LINE
8
BLACK
6
CONTINUOUS
10
1.03051
20
-1.55157
11
1.03022
21
-1.55227
0
LINE
8
BLACK
6
CONTINUOUS
10
1.03022
20
-1.55227
11
1.02953
21
-1.55256
0
LINE
8
BLACK
6
CONTINUOUS
10
1.02953
20
-1.55256
11
1.00689
21
-1.55256
0
LINE
8
BLACK
6
CONTINUOUS
10
1.00689
20
-1.55256
11
1.00689
21
-1.5752
0
LINE
8
BLACK
6
CONTINUOUS
10
1.00689
20
-1.5752
11
1.0066
21
-1.57589
0
LINE
8
BLACK
6
CONTINUOUS
10
1.0066
20
-1.57589
11
1.00591
21
-1.57618
0
LINE
8
BLACK
6
CONTINUOUS
10
1.00591
20
-1.57618
11
0.951772
21
-1.57618
0
LINE
8
BLACK
6
CONTINUOUS
10
0.951772
20
-1.57618
11
0.951772
21
-1.69921
0
LINE
8
BLACK
6
CONTINUOUS
10
0.951772
20
-1.69921
11
0.951772
21
-1.69921
0
LINE
8
BLACK
6
CONTINUOUS
10
0.951772
20
-1.69921
11
0.951772
21
-1.82224
0
LINE
8
BLACK
6
CONTINUOUS
10
0.951772
20
-1.82224
11
1.00591
21
-1.82224
0
LINE
8
BLACK
6
CONTINUOUS
10
1.00591
20
-1.82224
11
1.0066
21
-1.82253
0
LINE
8
BLACK
6
CONTINUOUS
10
1.0066
20
-1.82253
11
1.00689
21
-1.82323
0
LINE
8
BLACK
6
CONTINUOUS
10
1.00689
20
-1.82323
11
1.00689
21
-1.84587
0
LINE
8
BLACK
6
CONTINUOUS
10
1.00689
20
-1.84587
11
1.02953
21
-1.84587
0
LINE
8
BLACK
6
CONTINUOUS
10
1.02953
20
-1.84587
11
1.03022
21
-1.84615
0
LINE
8
BLACK
6
CONTINUOUS
10
1.03022
20
-1.84615
11
1.03051
21
-1.84685
0
LINE
8
BLACK
6
CONTINUOUS
10
1.03051
20
-1.84685
11
1.03051
21
-1.90098
0
LINE
8
BLACK
6
CONTINUOUS
10
1.03051
20
-1.90098
11
1.15354
21
-1.90098
0
LINE
8
BLACK
6
CONTINUOUS
10
1.15354
20
-1.90098
11
1.27657
21
-1.90098
0
LINE
8
BLACK
6
CONTINUOUS
10
1.27657
20
-1.90098
11
1.27657
21
-1.84685
0
LINE
8
BLACK
6
CONTINUOUS
10
1.27657
20
-1.84685
11
1.27686
21
-1.84615
0
LINE
8
BLACK
6
CONTINUOUS
10
1.27686
20
-1.84615
11
1.27756
21
-1.84587
0
LINE
8
BLACK
6
CONTINUOUS
10
1.27756
20
-1.84587
11
1.3002
21
-1.84587
0
LINE
8
BLACK
6
CONTINUOUS
10
1.3002
20
-1.84587
11
1.3002
21
-1.82323
0
LINE
8
BLACK
6
CONTINUOUS
10
1.3002
20
-1.82323
11
1.30049
21
-1.82253
0
LINE
8
BLACK
6
CONTINUOUS
10
1.30049
20
-1.82253
11
1.30118
21
-1.82224
0
LINE
8
BLACK
6
CONTINUOUS
10
1.30118
20
-1.82224
11
1.35531
21
-1.82224
0
LINE
8
BLACK
6
CONTINUOUS
10
1.35531
20
-1.82224
11
1.35531
21
-1.69921
0
LINE
8
BLACK
6
CONTINUOUS
10
1.35531
20
-1.69921
11
1.35531
21
-1.57618
0
LINE
8
BLACK
6
CONTINUOUS
10
1.35531
20
-1.57618
11
1.30118
21
-1.57618
0
LINE
8
BLACK
6
CONTINUOUS
10
1.30118
20
-1.57618
11
1.30049
21
-1.57589
0
LINE
8
BLACK
6
CONTINUOUS
10
1.30049
20
-1.57589
11
1.3002
21
-1.5752
0
LINE
8
BLACK
6
CONTINUOUS
10
1.3002
20
-1.5752
11
1.3002
21
-1.55256
0
LINE
8
BLACK
6
CONTINUOUS
10
1.3002
20
-1.55256
11
1.27756
21
-1.55256
0
LINE
8
BLACK
6
CONTINUOUS
10
1.27756
20
-1.55256
11
1.27686
21
-1.55227
0
LINE
8
BLACK
6
CONTINUOUS
10
1.27686
20
-1.55227
11
1.27657
21
-1.55157
0
LINE
8
BLACK
6
CONTINUOUS
10
1.27657
20
-1.55157
11
1.27657
21
-1.49744
0
LINE
8
BLACK
6
CONTINUOUS
10
1.27657
20
-1.49744
11
1.15354
21
-1.49744
0
LINE
8
BLACK
6
CONTINUOUS
10
1.15354
20
-1.49744
11
1.03051
21
-1.49744
0
LINE
8
BLACK
6
CONTINUOUS
10
1.54213
20
-1.81004
11
1.54282
21
-1.81033
0
LINE
8
BLACK
6
CONTINUOUS
10
1.54282
20
-1.81033
11
1.54311
21
-1.81102
0
LINE
8
BLACK
6
CONTINUOUS
10
1.54311
20
-1.81102
11
1.54311
21
-1.88819
0
LINE
8
BLACK
6
CONTINUOUS
10
1.54311
20
-1.88819
11
1.54282
21
-1.88888
0
LINE
8
BLACK
6
CONTINUOUS
10
1.54282
20
-1.88888
11
1.54213
21
-1.88917
0
LINE
8
BLACK
6
CONTINUOUS
10
1.54213
20
-1.88917
11
1.40827
21
-1.88917
0
LINE
8
BLACK
6
CONTINUOUS
10
1.40827
20
-1.88917
11
1.40757
21
-1.88888
0
LINE
8
BLACK
6
CONTINUOUS
10
1.40757
20
-1.88888
11
1.40728
21
-1.88819
0
LINE
8
BLACK
6
CONTINUOUS
10
1.40728
20
-1.88819
11
1.40728
21
-1.81102
0
LINE
8
BLACK
6
CONTINUOUS
10
1.40728
20
-1.81102
11
1.40757
21
-1.81033
0
LINE
8
BLACK
6
CONTINUOUS
10
1.40757
20
-1.81033
11
1.40827
21
-1.81004
0
LINE
8
BLACK
6
CONTINUOUS
10
1.40827
20
-1.81004
11
1.54213
21
-1.81004
0
LINE
8
BLACK
6
CONTINUOUS
10
1.40925
20
-1.81201
11
1.40925
21
-1.8872
0
LINE
8
BLACK
6
CONTINUOUS
10
1.40925
20
-1.8872
11
1.54114
21
-1.8872
0
LINE
8
BLACK
6
CONTINUOUS
10
1.54114
20
-1.8872
11
1.54114
21
-1.81201
0
LINE
8
BLACK
6
CONTINUOUS
10
1.54114
20
-1.81201
11
1.40925
21
-1.81201
0
LINE
8
BLACK
6
CONTINUOUS
10
2.38465
20
-1.74262
11
2.38534
21
-1.74291
0
LINE
8
BLACK
6
CONTINUOUS
10
2.38534
20
-1.74291
11
2.38563
21
-1.7436
0
LINE
8
BLACK
6
CONTINUOUS
10
2.38563
20
-1.7436
11
2.38563
21
-1.87589
0
LINE
8
BLACK
6
CONTINUOUS
10
2.38563
20
-1.87589
11
2.38534
21
-1.87658
0
LINE
8
BLACK
6
CONTINUOUS
10
2.38534
20
-1.87658
11
2.38465
21
-1.87687
0
LINE
8
BLACK
6
CONTINUOUS
10
2.38465
20
-1.87687
11
2.30984
21
-1.87687
0
LINE
8
BLACK
6
CONTINUOUS
10
2.30984
20
-1.87687
11
2.30915
21
-1.87658
0
LINE
8
BLACK
6
CONTINUOUS
10
2.30915
20
-1.87658
11
2.30886
21
-1.87589
0
LINE
8
BLACK
6
CONTINUOUS
10
2.30886
20
-1.87589
11
2.30886
21
-1.7436
0
LINE
8
BLACK
6
CONTINUOUS
10
2.30886
20
-1.7436
11
2.30915
21
-1.74291
0
LINE
8
BLACK
6
CONTINUOUS
10
2.30915
20
-1.74291
11
2.30984
21
-1.74262
0
LINE
8
BLACK
6
CONTINUOUS
10
2.30984
20
-1.74262
11
2.38465
21
-1.74262
0
LINE
8
BLACK
6
CONTINUOUS
10
2.31083
20
-1.74459
11
2.31083
21
-1.8749
0
LINE
8
BLACK
6
CONTINUOUS
10
2.31083
20
-1.8749
11
2.38366
21
-1.8749
0
LINE
8
BLACK
6
CONTINUOUS
10
2.38366
20
-1.8749
11
2.38366
21
-1.74459
0
LINE
8
BLACK
6
CONTINUOUS
10
2.38366
20
-1.74459
11
2.31083
21
-1.74459
0
LINE
8
BLACK
6
CONTINUOUS
10
2.46732
20
-1.74262
11
2.46802
21
-1.74291
0
LINE
8
BLACK
6
CONTINUOUS
10
2.46802
20
-1.74291
11
2.46831
21
-1.7436
0
LINE
8
BLACK
6
CONTINUOUS
10
2.46831
20
-1.7436
11
2.46831
21
-1.87589
0
LINE
8
BLACK
6
CONTINUOUS
10
2.46831
20
-1.87589
11
2.46802
21
-1.87658
0
LINE
8
BLACK
6
CONTINUOUS
10
2.46802
20
-1.87658
11
2.46732
21
-1.87687
0
LINE
8
BLACK
6
CONTINUOUS
10
2.46732
20
-1.87687
11
2.39252
21
-1.87687
0
LINE
8
BLACK
6
CONTINUOUS
10
2.39252
20
-1.87687
11
2.39182
21
-1.87658
0
LINE
8
BLACK
6
CONTINUOUS
10
2.39182
20
-1.87658
11
2.39154
21
-1.87589
0
LINE
8
BLACK
6
CONTINUOUS
10
2.39154
20
-1.87589
11
2.39154
21
-1.7436
0
LINE
8
BLACK
6
CONTINUOUS
10
2.39154
20
-1.7436
11
2.39182
21
-1.74291
0
LINE
8
BLACK
6
CONTINUOUS
10
2.39182
20
-1.74291
11
2.39252
21
-1.74262
0
LINE
8
BLACK
6
CONTINUOUS
10
2.39252
20
-1.74262
11
2.46732
21
-1.74262
0
LINE
8
BLACK
6
CONTINUOUS
10
2.3935
20
-1.74459
11
2.3935
21
-1.8749
0
LINE
8
BLACK
6
CONTINUOUS
10
2.3935
20
-1.8749
11
2.46634
21
-1.8749
0
LINE
8
BLACK
6
CONTINUOUS
10
2.46634
20
-1.8749
11
2.46634
21
-1.74459
0
LINE
8
BLACK
6
CONTINUOUS
10
2.46634
20
-1.74459
11
2.3935
21
-1.74459
0
LINE
8
BLACK
6
CONTINUOUS
10
2.20669
20
-1.68878
11
2.20739
21
-1.68907
0
LINE
8
BLACK
6
CONTINUOUS
10
2.20739
20
-1.68907
11
2.20768
21
-1.68976
0
LINE
8
BLACK
6
CONTINUOUS
10
2.20768
20
-1.68976
11
2.20768
21
-1.82205
0
LINE
8
BLACK
6
CONTINUOUS
10
2.20768
20
-1.82205
11
2.20739
21
-1.82274
0
LINE
8
BLACK
6
CONTINUOUS
10
2.20739
20
-1.82274
11
2.20669
21
-1.82303
0
LINE
8
BLACK
6
CONTINUOUS
10
2.20669
20
-1.82303
11
2.13189
21
-1.82303
0
LINE
8
BLACK
6
CONTINUOUS
10
2.13189
20
-1.82303
11
2.13119
21
-1.82274
0
LINE
8
BLACK
6
CONTINUOUS
10
2.13119
20
-1.82274
11
2.13091
21
-1.82205
0
LINE
8
BLACK
6
CONTINUOUS
10
2.13091
20
-1.82205
11
2.13091
21
-1.68976
0
LINE
8
BLACK
6
CONTINUOUS
10
2.13091
20
-1.68976
11
2.13119
21
-1.68907
0
LINE
8
BLACK
6
CONTINUOUS
10
2.13119
20
-1.68907
11
2.13189
21
-1.68878
0
LINE
8
BLACK
6
CONTINUOUS
10
2.13189
20
-1.68878
11
2.20669
21
-1.68878
0
LINE
8
BLACK
6
CONTINUOUS
10
2.13287
20
-1.69075
11
2.13287
21
-1.82106
0
LINE
8
BLACK
6
CONTINUOUS
10
2.13287
20
-1.82106
11
2.20571
21
-1.82106
0
LINE
8
BLACK
6
CONTINUOUS
10
2.20571
20
-1.82106
11
2.20571
21
-1.69075
0
LINE
8
BLACK
6
CONTINUOUS
10
2.20571
20
-1.69075
11
2.13287
21
-1.69075
0
LINE
8
BLACK
6
CONTINUOUS
10
0.798031
20
-1.67963
11
0.798727
21
-1.67991
0
LINE
8
BLACK
6
CONTINUOUS
10
0.798727
20
-1.67991
11
0.799016
21
-1.68061
0
LINE
8
BLACK
6
CONTINUOUS
10
0.799016
20
-1.68061
11
0.799016
21
-1.81289
0
LINE
8
BLACK
6
CONTINUOUS
10
0.799016
20
-1.81289
11
0.798727
21
-1.81359
0
LINE
8
BLACK
6
CONTINUOUS
10
0.798727
20
-1.81359
11
0.798031
21
-1.81388
0
LINE
8
BLACK
6
CONTINUOUS
10
0.798031
20
-1.81388
11
0.723228
21
-1.81388
0
LINE
8
BLACK
6
CONTINUOUS
10
0.723228
20
-1.81388
11
0.722532
21
-1.81359
0
LINE
8
BLACK
6
CONTINUOUS
10
0.722532
20
-1.81359
11
0.722244
21
-1.81289
0
LINE
8
BLACK
6
CONTINUOUS
10
0.722244
20
-1.81289
11
0.722244
21
-1.68061
0
LINE
8
BLACK
6
CONTINUOUS
10
0.722244
20
-1.68061
11
0.722532
21
-1.67991
0
LINE
8
BLACK
6
CONTINUOUS
10
0.722532
20
-1.67991
11
0.723228
21
-1.67963
0
LINE
8
BLACK
6
CONTINUOUS
10
0.723228
20
-1.67963
11
0.798031
21
-1.67963
0
LINE
8
BLACK
6
CONTINUOUS
10
0.724213
20
-1.68159
11
0.724213
21
-1.81191
0
LINE
8
BLACK
6
CONTINUOUS
10
0.724213
20
-1.81191
11
0.797047
21
-1.81191
0
LINE
8
BLACK
6
CONTINUOUS
10
0.797047
20
-1.81191
11
0.797047
21
-1.68159
0
LINE
8
BLACK
6
CONTINUOUS
10
0.797047
20
-1.68159
11
0.724213
21
-1.68159
0
LINE
8
BLACK
6
CONTINUOUS
10
0.885827
20
-1.65295
11
0.886523
21
-1.65324
0
LINE
8
BLACK
6
CONTINUOUS
10
0.886523
20
-1.65324
11
0.886811
21
-1.65394
0
LINE
8
BLACK
6
CONTINUOUS
10
0.886811
20
-1.65394
11
0.886811
21
-1.7878
0
LINE
8
BLACK
6
CONTINUOUS
10
0.886811
20
-1.7878
11
0.886523
21
-1.78849
0
LINE
8
BLACK
6
CONTINUOUS
10
0.886523
20
-1.78849
11
0.885827
21
-1.78878
0
LINE
8
BLACK
6
CONTINUOUS
10
0.885827
20
-1.78878
11
0.808661
21
-1.78878
0
LINE
8
BLACK
6
CONTINUOUS
10
0.808661
20
-1.78878
11
0.807965
21
-1.78849
0
LINE
8
BLACK
6
CONTINUOUS
10
0.807965
20
-1.78849
11
0.807677
21
-1.7878
0
LINE
8
BLACK
6
CONTINUOUS
10
0.807677
20
-1.7878
11
0.807677
21
-1.65394
0
LINE
8
BLACK
6
CONTINUOUS
10
0.807677
20
-1.65394
11
0.807965
21
-1.65324
0
LINE
8
BLACK
6
CONTINUOUS
10
0.807965
20
-1.65324
11
0.808661
21
-1.65295
0
LINE
8
BLACK
6
CONTINUOUS
10
0.808661
20
-1.65295
11
0.885827
21
-1.65295
0
LINE
8
BLACK
6
CONTINUOUS
10
0.809646
20
-1.65492
11
0.809646
21
-1.78681
0
LINE
8
BLACK
6
CONTINUOUS
10
0.809646
20
-1.78681
11
0.884843
21
-1.78681
0
LINE
8
BLACK
6
CONTINUOUS
10
0.884843
20
-1.78681
11
0.884843
21
-1.65492
0
LINE
8
BLACK
6
CONTINUOUS
10
0.884843
20
-1.65492
11
0.809646
21
-1.65492
0
LINE
8
BLACK
6
CONTINUOUS
10
2.49941
20
-1.41654
11
2.50011
21
-1.41682
0
LINE
8
BLACK
6
CONTINUOUS
10
2.50011
20
-1.41682
11
2.50039
21
-1.41752
0
LINE
8
BLACK
6
CONTINUOUS
10
2.50039
20
-1.41752
11
2.50039
21
-1.70886
0
LINE
8
BLACK
6
CONTINUOUS
10
2.50039
20
-1.70886
11
2.50011
21
-1.70955
0
LINE
8
BLACK
6
CONTINUOUS
10
2.50011
20
-1.70955
11
2.49941
21
-1.70984
0
LINE
8
BLACK
6
CONTINUOUS
10
2.49941
20
-1.70984
11
2.28681
21
-1.70984
0
LINE
8
BLACK
6
CONTINUOUS
10
2.28681
20
-1.70984
11
2.28612
21
-1.70955
0
LINE
8
BLACK
6
CONTINUOUS
10
2.28612
20
-1.70955
11
2.28583
21
-1.70886
0
LINE
8
BLACK
6
CONTINUOUS
10
2.28583
20
-1.70886
11
2.28583
21
-1.70886
0
LINE
8
BLACK
6
CONTINUOUS
10
2.28583
20
-1.70886
11
2.28583
21
-1.41752
0
LINE
8
BLACK
6
CONTINUOUS
10
2.28583
20
-1.41752
11
2.28612
21
-1.41682
0
LINE
8
BLACK
6
CONTINUOUS
10
2.28612
20
-1.41682
11
2.28681
21
-1.41654
0
LINE
8
BLACK
6
CONTINUOUS
10
2.28681
20
-1.41654
11
2.49941
21
-1.41654
0
LINE
8
BLACK
6
CONTINUOUS
10
2.2878
20
-1.4185
11
2.2878
21
-1.70787
0
LINE
8
BLACK
6
CONTINUOUS
10
2.2878
20
-1.70787
11
2.49843
21
-1.70787
0
LINE
8
BLACK
6
CONTINUOUS
10
2.49843
20
-1.70787
11
2.49843
21
-1.4185
0
LINE
8
BLACK
6
CONTINUOUS
10
2.49843
20
-1.4185
11
2.2878
21
-1.4185
0
LINE
8
BLACK
6
CONTINUOUS
10
1.49213
20
-1.54744
11
1.49282
21
-1.54773
0
LINE
8
BLACK
6
CONTINUOUS
10
1.49282
20
-1.54773
11
1.49311
21
-1.54843
0
LINE
8
BLACK
6
CONTINUOUS
10
1.49311
20
-1.54843
11
1.49311
21
-1.68228
0
LINE
8
BLACK
6
CONTINUOUS
10
1.49311
20
-1.68228
11
1.49282
21
-1.68298
0
LINE
8
BLACK
6
CONTINUOUS
10
1.49282
20
-1.68298
11
1.49213
21
-1.68327
0
LINE
8
BLACK
6
CONTINUOUS
10
1.49213
20
-1.68327
11
1.41496
21
-1.68327
0
LINE
8
BLACK
6
CONTINUOUS
10
1.41496
20
-1.68327
11
1.41426
21
-1.68298
0
LINE
8
BLACK
6
CONTINUOUS
10
1.41426
20
-1.68298
11
1.41398
21
-1.68228
0
LINE
8
BLACK
6
CONTINUOUS
10
1.41398
20
-1.68228
11
1.41398
21
-1.54843
0
LINE
8
BLACK
6
CONTINUOUS
10
1.41398
20
-1.54843
11
1.41426
21
-1.54773
0
LINE
8
BLACK
6
CONTINUOUS
10
1.41426
20
-1.54773
11
1.41496
21
-1.54744
0
LINE
8
BLACK
6
CONTINUOUS
10
1.41496
20
-1.54744
11
1.49213
21
-1.54744
0
LINE
8
BLACK
6
CONTINUOUS
10
1.41594
20
-1.54941
11
1.41594
21
-1.6813
0
LINE
8
BLACK
6
CONTINUOUS
10
1.41594
20
-1.6813
11
1.49114
21
-1.6813
0
LINE
8
BLACK
6
CONTINUOUS
10
1.49114
20
-1.6813
11
1.49114
21
-1.54941
0
LINE
8
BLACK
6
CONTINUOUS
10
1.49114
20
-1.54941
11
1.41594
21
-1.54941
0
LINE
8
BLACK
6
CONTINUOUS
10
2.13386
20
-1.60138
11
2.13455
21
-1.60167
0
LINE
8
BLACK
6
CONTINUOUS
10
2.13455
20
-1.60167
11
2.13484
21
-1.60236
0
LINE
8
BLACK
6
CONTINUOUS
10
2.13484
20
-1.60236
11
2.13484
21
-1.67953
0
LINE
8
BLACK
6
CONTINUOUS
10
2.13484
20
-1.67953
11
2.13455
21
-1.68022
0
LINE
8
BLACK
6
CONTINUOUS
10
2.13455
20
-1.68022
11
2.13386
21
-1.68051
0
LINE
8
BLACK
6
CONTINUOUS
10
2.13386
20
-1.68051
11
2
21
-1.68051
0
LINE
8
BLACK
6
CONTINUOUS
10
2
20
-1.68051
11
1.9993
21
-1.68022
0
LINE
8
BLACK
6
CONTINUOUS
10
1.9993
20
-1.68022
11
1.99902
21
-1.67953
0
LINE
8
BLACK
6
CONTINUOUS
10
1.99902
20
-1.67953
11
1.99902
21
-1.60236
0
LINE
8
BLACK
6
CONTINUOUS
10
1.99902
20
-1.60236
11
1.9993
21
-1.60167
0
LINE
8
BLACK
6
CONTINUOUS
10
1.9993
20
-1.60167
11
2
21
-1.60138
0
LINE
8
BLACK
6
CONTINUOUS
10
2
20
-1.60138
11
2.13386
21
-1.60138
0
LINE
8
BLACK
6
CONTINUOUS
10
2.00098
20
-1.60335
11
2.00098
21
-1.67854
0
LINE
8
BLACK
6
CONTINUOUS
10
2.00098
20
-1.67854
11
2.13287
21
-1.67854
0
LINE
8
BLACK
6
CONTINUOUS
10
2.13287
20
-1.67854
11
2.13287
21
-1.60335
0
LINE
8
BLACK
6
CONTINUOUS
10
2.13287
20
-1.60335
11
2.00098
21
-1.60335
0
LINE
8
BLACK
6
CONTINUOUS
10
0.530315
20
-1.49459
11
0.531011
21
-1.49487
0
LINE
8
BLACK
6
CONTINUOUS
10
0.531011
20
-1.49487
11
0.531299
21
-1.49557
0
LINE
8
BLACK
6
CONTINUOUS
10
0.531299
20
-1.49557
11
0.531299
21
-1.62785
0
LINE
8
BLACK
6
CONTINUOUS
10
0.531299
20
-1.62785
11
0.531011
21
-1.62855
0
LINE
8
BLACK
6
CONTINUOUS
10
0.531011
20
-1.62855
11
0.530315
21
-1.62884
0
LINE
8
BLACK
6
CONTINUOUS
10
0.530315
20
-1.62884
11
0.455512
21
-1.62884
0
LINE
8
BLACK
6
CONTINUOUS
10
0.455512
20
-1.62884
11
0.454816
21
-1.62855
0
LINE
8
BLACK
6
CONTINUOUS
10
0.454816
20
-1.62855
11
0.454528
21
-1.62785
0
LINE
8
BLACK
6
CONTINUOUS
10
0.454528
20
-1.62785
11
0.454528
21
-1.49557
0
LINE
8
BLACK
6
CONTINUOUS
10
0.454528
20
-1.49557
11
0.454816
21
-1.49487
0
LINE
8
BLACK
6
CONTINUOUS
10
0.454816
20
-1.49487
11
0.455512
21
-1.49459
0
LINE
8
BLACK
6
CONTINUOUS
10
0.455512
20
-1.49459
11
0.530315
21
-1.49459
0
LINE
8
BLACK
6
CONTINUOUS
10
0.456496
20
-1.49656
11
0.456496
21
-1.62687
0
LINE
8
BLACK
6
CONTINUOUS
10
0.456496
20
-1.62687
11
0.529331
21
-1.62687
0
LINE
8
BLACK
6
CONTINUOUS
10
0.529331
20
-1.62687
11
0.529331
21
-1.49656
0
LINE
8
BLACK
6
CONTINUOUS
10
0.529331
20
-1.49656
11
0.456496
21
-1.49656
0
LINE
8
BLACK
6
CONTINUOUS
10
0.947638
20
-1.4877
11
0.948334
21
-1.48799
0
LINE
8
BLACK
6
CONTINUOUS
10
0.948334
20
-1.48799
11
0.948622
21
-1.48868
0
LINE
8
BLACK
6
CONTINUOUS
10
0.948622
20
-1.48868
11
0.948622
21
-1.62096
0
LINE
8
BLACK
6
CONTINUOUS
10
0.948622
20
-1.62096
11
0.948334
21
-1.62166
0
LINE
8
BLACK
6
CONTINUOUS
10
0.948334
20
-1.62166
11
0.947638
21
-1.62195
0
LINE
8
BLACK
6
CONTINUOUS
10
0.947638
20
-1.62195
11
0.872835
21
-1.62195
0
LINE
8
BLACK
6
CONTINUOUS
10
0.872835
20
-1.62195
11
0.872139
21
-1.62166
0
LINE
8
BLACK
6
CONTINUOUS
10
0.872139
20
-1.62166
11
0.87185
21
-1.62096
0
LINE
8
BLACK
6
CONTINUOUS
10
0.87185
20
-1.62096
11
0.87185
21
-1.48868
0
LINE
8
BLACK
6
CONTINUOUS
10
0.87185
20
-1.48868
11
0.872139
21
-1.48799
0
LINE
8
BLACK
6
CONTINUOUS
10
0.872139
20
-1.48799
11
0.872835
21
-1.4877
0
LINE
8
BLACK
6
CONTINUOUS
10
0.872835
20
-1.4877
11
0.947638
21
-1.4877
0
LINE
8
BLACK
6
CONTINUOUS
10
0.873819
20
-1.48967
11
0.873819
21
-1.61998
0
LINE
8
BLACK
6
CONTINUOUS
10
0.873819
20
-1.61998
11
0.946654
21
-1.61998
0
LINE
8
BLACK
6
CONTINUOUS
10
0.946654
20
-1.61998
11
0.946654
21
-1.48967
0
LINE
8
BLACK
6
CONTINUOUS
10
0.946654
20
-1.48967
11
0.873819
21
-1.48967
0
LINE
8
BLACK
6
CONTINUOUS
10
2.13268
20
-1.52185
11
2.13337
21
-1.52214
0
LINE
8
BLACK
6
CONTINUOUS
10
2.13337
20
-1.52214
11
2.13366
21
-1.52283
0
LINE
8
BLACK
6
CONTINUOUS
10
2.13366
20
-1.52283
11
2.13366
21
-1.6
0
LINE
8
BLACK
6
CONTINUOUS
10
2.13366
20
-1.6
11
2.13337
21
-1.6007
0
LINE
8
BLACK
6
CONTINUOUS
10
2.13337
20
-1.6007
11
2.13268
21
-1.60098
0
LINE
8
BLACK
6
CONTINUOUS
10
2.13268
20
-1.60098
11
1.99882
21
-1.60098
0
LINE
8
BLACK
6
CONTINUOUS
10
1.99882
20
-1.60098
11
1.99812
21
-1.6007
0
LINE
8
BLACK
6
CONTINUOUS
10
1.99812
20
-1.6007
11
1.99783
21
-1.6
0
LINE
8
BLACK
6
CONTINUOUS
10
1.99783
20
-1.6
11
1.99783
21
-1.52283
0
LINE
8
BLACK
6
CONTINUOUS
10
1.99783
20
-1.52283
11
1.99812
21
-1.52214
0
LINE
8
BLACK
6
CONTINUOUS
10
1.99812
20
-1.52214
11
1.99882
21
-1.52185
0
LINE
8
BLACK
6
CONTINUOUS
10
1.99882
20
-1.52185
11
2.13268
21
-1.52185
0
LINE
8
BLACK
6
CONTINUOUS
10
1.9998
20
-1.52382
11
1.9998
21
-1.59902
0
LINE
8
BLACK
6
CONTINUOUS
10
1.9998
20
-1.59902
11
2.13169
21
-1.59902
0
LINE
8
BLACK
6
CONTINUOUS
10
2.13169
20
-1.59902
11
2.13169
21
-1.52382
0
LINE
8
BLACK
6
CONTINUOUS
10
2.13169
20
-1.52382
11
1.9998
21
-1.52382
0
LINE
8
BLACK
6
CONTINUOUS
10
1.38465
20
-1.41683
11
1.38534
21
-1.41712
0
LINE
8
BLACK
6
CONTINUOUS
10
1.38534
20
-1.41712
11
1.38563
21
-1.41781
0
LINE
8
BLACK
6
CONTINUOUS
10
1.38563
20
-1.41781
11
1.38563
21
-1.5501
0
LINE
8
BLACK
6
CONTINUOUS
10
1.38563
20
-1.5501
11
1.38534
21
-1.55079
0
LINE
8
BLACK
6
CONTINUOUS
10
1.38534
20
-1.55079
11
1.38465
21
-1.55108
0
LINE
8
BLACK
6
CONTINUOUS
10
1.38465
20
-1.55108
11
1.30984
21
-1.55108
0
LINE
8
BLACK
6
CONTINUOUS
10
1.30984
20
-1.55108
11
1.30915
21
-1.55079
0
LINE
8
BLACK
6
CONTINUOUS
10
1.30915
20
-1.55079
11
1.30886
21
-1.5501
0
LINE
8
BLACK
6
CONTINUOUS
10
1.30886
20
-1.5501
11
1.30886
21
-1.41781
0
LINE
8
BLACK
6
CONTINUOUS
10
1.30886
20
-1.41781
11
1.30915
21
-1.41712
0
LINE
8
BLACK
6
CONTINUOUS
10
1.30915
20
-1.41712
11
1.30984
21
-1.41683
0
LINE
8
BLACK
6
CONTINUOUS
10
1.30984
20
-1.41683
11
1.38465
21
-1.41683
0
LINE
8
BLACK
6
CONTINUOUS
10
1.31083
20
-1.4188
11
1.31083
21
-1.54911
0
LINE
8
BLACK
6
CONTINUOUS
10
1.31083
20
-1.54911
11
1.38366
21
-1.54911
0
LINE
8
BLACK
6
CONTINUOUS
10
1.38366
20
-1.54911
11
1.38366
21
-1.4188
0
LINE
8
BLACK
6
CONTINUOUS
10
1.38366
20
-1.4188
11
1.31083
21
-1.4188
0
LINE
8
BLACK
6
CONTINUOUS
10
1.98622
20
-1.40108
11
1.98692
21
-1.40137
0
LINE
8
BLACK
6
CONTINUOUS
10
1.98692
20
-1.40137
11
1.9872
21
-1.40207
0
LINE
8
BLACK
6
CONTINUOUS
10
1.9872
20
-1.40207
11
1.9872
21
-1.53435
0
LINE
8
BLACK
6
CONTINUOUS
10
1.9872
20
-1.53435
11
1.98692
21
-1.53505
0
LINE
8
BLACK
6
CONTINUOUS
10
1.98692
20
-1.53505
11
1.98622
21
-1.53533
0
LINE
8
BLACK
6
CONTINUOUS
10
1.98622
20
-1.53533
11
1.91142
21
-1.53533
0
LINE
8
BLACK
6
CONTINUOUS
10
1.91142
20
-1.53533
11
1.91072
21
-1.53505
0
LINE
8
BLACK
6
CONTINUOUS
10
1.91072
20
-1.53505
11
1.91043
21
-1.53435
0
LINE
8
BLACK
6
CONTINUOUS
10
1.91043
20
-1.53435
11
1.91043
21
-1.40207
0
LINE
8
BLACK
6
CONTINUOUS
10
1.91043
20
-1.40207
11
1.91072
21
-1.40137
0
LINE
8
BLACK
6
CONTINUOUS
10
1.91072
20
-1.40137
11
1.91142
21
-1.40108
0
LINE
8
BLACK
6
CONTINUOUS
10
1.91142
20
-1.40108
11
1.98622
21
-1.40108
0
LINE
8
BLACK
6
CONTINUOUS
10
1.9124
20
-1.40305
11
1.9124
21
-1.53337
0
LINE
8
BLACK
6
CONTINUOUS
10
1.9124
20
-1.53337
11
1.98524
21
-1.53337
0
LINE
8
BLACK
6
CONTINUOUS
10
1.98524
20
-1.53337
11
1.98524
21
-1.40305
0
LINE
8
BLACK
6
CONTINUOUS
10
1.98524
20
-1.40305
11
1.9124
21
-1.40305
0
LINE
8
BLACK
6
CONTINUOUS
10
1.90354
20
-1.40059
11
1.90424
21
-1.40088
0
LINE
8
BLACK
6
CONTINUOUS
10
1.90424
20
-1.40088
11
1.90453
21
-1.40157
0
LINE
8
BLACK
6
CONTINUOUS
10
1.90453
20
-1.40157
11
1.90453
21
-1.53386
0
LINE
8
BLACK
6
CONTINUOUS
10
1.90453
20
-1.53386
11
1.90424
21
-1.53455
0
LINE
8
BLACK
6
CONTINUOUS
10
1.90424
20
-1.53455
11
1.90354
21
-1.53484
0
LINE
8
BLACK
6
CONTINUOUS
10
1.90354
20
-1.53484
11
1.82874
21
-1.53484
0
LINE
8
BLACK
6
CONTINUOUS
10
1.82874
20
-1.53484
11
1.82804
21
-1.53455
0
LINE
8
BLACK
6
CONTINUOUS
10
1.82804
20
-1.53455
11
1.82776
21
-1.53386
0
LINE
8
BLACK
6
CONTINUOUS
10
1.82776
20
-1.53386
11
1.82776
21
-1.40157
0
LINE
8
BLACK
6
CONTINUOUS
10
1.82776
20
-1.40157
11
1.82804
21
-1.40088
0
LINE
8
BLACK
6
CONTINUOUS
10
1.82804
20
-1.40088
11
1.82874
21
-1.40059
0
LINE
8
BLACK
6
CONTINUOUS
10
1.82874
20
-1.40059
11
1.90354
21
-1.40059
0
LINE
8
BLACK
6
CONTINUOUS
10
1.82972
20
-1.40256
11
1.82972
21
-1.53287
0
LINE
8
BLACK
6
CONTINUOUS
10
1.82972
20
-1.53287
11
1.90256
21
-1.53287
0
LINE
8
BLACK
6
CONTINUOUS
10
1.90256
20
-1.53287
11
1.90256
21
-1.40256
0
LINE
8
BLACK
6
CONTINUOUS
10
1.90256
20
-1.40256
11
1.82972
21
-1.40256
0
LINE
8
BLACK
6
CONTINUOUS
10
2.12402
20
-1.38455
11
2.12471
21
-1.38484
0
LINE
8
BLACK
6
CONTINUOUS
10
2.12471
20
-1.38484
11
2.125
21
-1.38553
0
LINE
8
BLACK
6
CONTINUOUS
10
2.125
20
-1.38553
11
2.125
21
-1.51781
0
LINE
8
BLACK
6
CONTINUOUS
10
2.125
20
-1.51781
11
2.12471
21
-1.51851
0
LINE
8
BLACK
6
CONTINUOUS
10
2.12471
20
-1.51851
11
2.12402
21
-1.5188
0
LINE
8
BLACK
6
CONTINUOUS
10
2.12402
20
-1.5188
11
2.04921
21
-1.5188
0
LINE
8
BLACK
6
CONTINUOUS
10
2.04921
20
-1.5188
11
2.04852
21
-1.51851
0
LINE
8
BLACK
6
CONTINUOUS
10
2.04852
20
-1.51851
11
2.04823
21
-1.51781
0
LINE
8
BLACK
6
CONTINUOUS
10
2.04823
20
-1.51781
11
2.04823
21
-1.38553
0
LINE
8
BLACK
6
CONTINUOUS
10
2.04823
20
-1.38553
11
2.04852
21
-1.38484
0
LINE
8
BLACK
6
CONTINUOUS
10
2.04852
20
-1.38484
11
2.04921
21
-1.38455
0
LINE
8
BLACK
6
CONTINUOUS
10
2.04921
20
-1.38455
11
2.12402
21
-1.38455
0
LINE
8
BLACK
6
CONTINUOUS
10
2.0502
20
-1.38652
11
2.0502
21
-1.51683
0
LINE
8
BLACK
6
CONTINUOUS
10
2.0502
20
-1.51683
11
2.12303
21
-1.51683
0
LINE
8
BLACK
6
CONTINUOUS
10
2.12303
20
-1.51683
11
2.12303
21
-1.38652
0
LINE
8
BLACK
6
CONTINUOUS
10
2.12303
20
-1.38652
11
2.0502
21
-1.38652
0
LINE
8
BLACK
6
CONTINUOUS
10
2.67372
20
-1.4372
11
2.67442
21
-1.43749
0
LINE
8
BLACK
6
CONTINUOUS
10
2.67442
20
-1.43749
11
2.6747
21
-1.43819
0
LINE
8
BLACK
6
CONTINUOUS
10
2.6747
20
-1.43819
11
2.6747
21
-1.51299
0
LINE
8
BLACK
6
CONTINUOUS
10
2.6747
20
-1.51299
11
2.67442
21
-1.51369
0
LINE
8
BLACK
6
CONTINUOUS
10
2.67442
20
-1.51369
11
2.67372
21
-1.51398
0
LINE
8
BLACK
6
CONTINUOUS
10
2.67372
20
-1.51398
11
2.54144
21
-1.51398
0
LINE
8
BLACK
6
CONTINUOUS
10
2.54144
20
-1.51398
11
2.54074
21
-1.51369
0
LINE
8
BLACK
6
CONTINUOUS
10
2.54074
20
-1.51369
11
2.54045
21
-1.51299
0
LINE
8
BLACK
6
CONTINUOUS
10
2.54045
20
-1.51299
11
2.54045
21
-1.43819
0
LINE
8
BLACK
6
CONTINUOUS
10
2.54045
20
-1.43819
11
2.54074
21
-1.43749
0
LINE
8
BLACK
6
CONTINUOUS
10
2.54074
20
-1.43749
11
2.54144
21
-1.4372
0
LINE
8
BLACK
6
CONTINUOUS
10
2.54144
20
-1.4372
11
2.67372
21
-1.4372
0
LINE
8
BLACK
6
CONTINUOUS
10
2.54242
20
-1.43917
11
2.54242
21
-1.51201
0
LINE
8
BLACK
6
CONTINUOUS
10
2.54242
20
-1.51201
11
2.67274
21
-1.51201
0
LINE
8
BLACK
6
CONTINUOUS
10
2.67274
20
-1.51201
11
2.67274
21
-1.43917
0
LINE
8
BLACK
6
CONTINUOUS
10
2.67274
20
-1.43917
11
2.54242
21
-1.43917
0
LINE
8
BLACK
6
CONTINUOUS
10
1.03937
20
-1.33484
11
1.04007
21
-1.33513
0
LINE
8
BLACK
6
CONTINUOUS
10
1.04007
20
-1.33513
11
1.04035
21
-1.33583
0
LINE
8
BLACK
6
CONTINUOUS
10
1.04035
20
-1.33583
11
1.04035
21
-1.46969
0
LINE
8
BLACK
6
CONTINUOUS
10
1.04035
20
-1.46969
11
1.04007
21
-1.47038
0
LINE
8
BLACK
6
CONTINUOUS
10
1.04007
20
-1.47038
11
1.03937
21
-1.47067
0
LINE
8
BLACK
6
CONTINUOUS
10
1.03937
20
-1.47067
11
0.962205
21
-1.47067
0
LINE
8
BLACK
6
CONTINUOUS
10
0.962205
20
-1.47067
11
0.961509
21
-1.47038
0
LINE
8
BLACK
6
CONTINUOUS
10
0.961509
20
-1.47038
11
0.96122
21
-1.46969
0
LINE
8
BLACK
6
CONTINUOUS
10
0.96122
20
-1.46969
11
0.96122
21
-1.33583
0
LINE
8
BLACK
6
CONTINUOUS
10
0.96122
20
-1.33583
11
0.961509
21
-1.33513
0
LINE
8
BLACK
6
CONTINUOUS
10
0.961509
20
-1.33513
11
0.962205
21
-1.33484
0
LINE
8
BLACK
6
CONTINUOUS
10
0.962205
20
-1.33484
11
1.03937
21
-1.33484
0
LINE
8
BLACK
6
CONTINUOUS
10
0.963189
20
-1.33681
11
0.963189
21
-1.4687
0
LINE
8
BLACK
6
CONTINUOUS
10
0.963189
20
-1.4687
11
1.03839
21
-1.4687
0
LINE
8
BLACK
6
CONTINUOUS
10
1.03839
20
-1.4687
11
1.03839
21
-1.33681
0
LINE
8
BLACK
6
CONTINUOUS
10
1.03839
20
-1.33681
11
0.963189
21
-1.33681
0
LINE
8
BLACK
6
CONTINUOUS
10
1.59646
20
-1.31447
11
1.59715
21
-1.31476
0
LINE
8
BLACK
6
CONTINUOUS
10
1.59715
20
-1.31476
11
1.59744
21
-1.31545
0
LINE
8
BLACK
6
CONTINUOUS
10
1.59744
20
-1.31545
11
1.59744
21
-1.44774
0
LINE
8
BLACK
6
CONTINUOUS
10
1.59744
20
-1.44774
11
1.59715
21
-1.44843
0
LINE
8
BLACK
6
CONTINUOUS
10
1.59715
20
-1.44843
11
1.59646
21
-1.44872
0
LINE
8
BLACK
6
CONTINUOUS
10
1.59646
20
-1.44872
11
1.52165
21
-1.44872
0
LINE
8
BLACK
6
CONTINUOUS
10
1.52165
20
-1.44872
11
1.52096
21
-1.44843
0
LINE
8
BLACK
6
CONTINUOUS
10
1.52096
20
-1.44843
11
1.52067
21
-1.44774
0
LINE
8
BLACK
6
CONTINUOUS
10
1.52067
20
-1.44774
11
1.52067
21
-1.31545
0
LINE
8
BLACK
6
CONTINUOUS
10
1.52067
20
-1.31545
11
1.52096
21
-1.31476
0
LINE
8
BLACK
6
CONTINUOUS
10
1.52096
20
-1.31476
11
1.52165
21
-1.31447
0
LINE
8
BLACK
6
CONTINUOUS
10
1.52165
20
-1.31447
11
1.59646
21
-1.31447
0
LINE
8
BLACK
6
CONTINUOUS
10
1.52264
20
-1.31644
11
1.52264
21
-1.44675
0
LINE
8
BLACK
6
CONTINUOUS
10
1.52264
20
-1.44675
11
1.59547
21
-1.44675
0
LINE
8
BLACK
6
CONTINUOUS
10
1.59547
20
-1.44675
11
1.59547
21
-1.31644
0
LINE
8
BLACK
6
CONTINUOUS
10
1.59547
20
-1.31644
11
1.52264
21
-1.31644
0
LINE
8
BLACK
6
CONTINUOUS
10
2.67372
20
-1.35453
11
2.67442
21
-1.35482
0
LINE
8
BLACK
6
CONTINUOUS
10
2.67442
20
-1.35482
11
2.6747
21
-1.35551
0
LINE
8
BLACK
6
CONTINUOUS
10
2.6747
20
-1.35551
11
2.6747
21
-1.43031
0
LINE
8
BLACK
6
CONTINUOUS
10
2.6747
20
-1.43031
11
2.67442
21
-1.43101
0
LINE
8
BLACK
6
CONTINUOUS
10
2.67442
20
-1.43101
11
2.67372
21
-1.4313
0
LINE
8
BLACK
6
CONTINUOUS
10
2.67372
20
-1.4313
11
2.54144
21
-1.4313
0
LINE
8
BLACK
6
CONTINUOUS
10
2.54144
20
-1.4313
11
2.54074
21
-1.43101
0
LINE
8
BLACK
6
CONTINUOUS
10
2.54074
20
-1.43101
11
2.54045
21
-1.43031
0
LINE
8
BLACK
6
CONTINUOUS
10
2.54045
20
-1.43031
11
2.54045
21
-1.35551
0
LINE
8
BLACK
6
CONTINUOUS
10
2.54045
20
-1.35551
11
2.54074
21
-1.35482
0
LINE
8
BLACK
6
CONTINUOUS
10
2.54074
20
-1.35482
11
2.54144
21
-1.35453
0
LINE
8
BLACK
6
CONTINUOUS
10
2.54144
20
-1.35453
11
2.67372
21
-1.35453
0
LINE
8
BLACK
6
CONTINUOUS
10
2.54242
20
-1.3565
11
2.54242
21
-1.42933
0
LINE
8
BLACK
6
CONTINUOUS
10
2.54242
20
-1.42933
11
2.67274
21
-1.42933
0
LINE
8
BLACK
6
CONTINUOUS
10
2.67274
20
-1.42933
11
2.67274
21
-1.3565
0
LINE
8
BLACK
6
CONTINUOUS
10
2.67274
20
-1.3565
11
2.54242
21
-1.3565
0
LINE
8
BLACK
6
CONTINUOUS
10
0.924016
20
-1.34154
11
0.924712
21
-1.34182
0
LINE
8
BLACK
6
CONTINUOUS
10
0.924712
20
-1.34182
11
0.925
21
-1.34252
0
LINE
8
BLACK
6
CONTINUOUS
10
0.925
20
-1.34252
11
0.925
21
-1.41969
0
LINE
8
BLACK
6
CONTINUOUS
10
0.925
20
-1.41969
11
0.924712
21
-1.42038
0
LINE
8
BLACK
6
CONTINUOUS
10
0.924712
20
-1.42038
11
0.924016
21
-1.42067
0
LINE
8
BLACK
6
CONTINUOUS
10
0.924016
20
-1.42067
11
0.790157
21
-1.42067
0
LINE
8
BLACK
6
CONTINUOUS
10
0.790157
20
-1.42067
11
0.789461
21
-1.42038
0
LINE
8
BLACK
6
CONTINUOUS
10
0.789461
20
-1.42038
11
0.789173
21
-1.41969
0
LINE
8
BLACK
6
CONTINUOUS
10
0.789173
20
-1.41969
11
0.789173
21
-1.34252
0
LINE
8
BLACK
6
CONTINUOUS
10
0.789173
20
-1.34252
11
0.789461
21
-1.34182
0
LINE
8
BLACK
6
CONTINUOUS
10
0.789461
20
-1.34182
11
0.790157
21
-1.34154
0
LINE
8
BLACK
6
CONTINUOUS
10
0.790157
20
-1.34154
11
0.924016
21
-1.34154
0
LINE
8
BLACK
6
CONTINUOUS
10
0.791142
20
-1.3435
11
0.791142
21
-1.4187
0
LINE
8
BLACK
6
CONTINUOUS
10
0.791142
20
-1.4187
11
0.923031
21
-1.4187
0
LINE
8
BLACK
6
CONTINUOUS
10
0.923031
20
-1.4187
11
0.923031
21
-1.3435
0
LINE
8
BLACK
6
CONTINUOUS
10
0.923031
20
-1.3435
11
0.791142
21
-1.3435
0
LINE
8
BLACK
6
CONTINUOUS
10
1.32559
20
-1.33366
11
1.32629
21
-1.33395
0
LINE
8
BLACK
6
CONTINUOUS
10
1.32629
20
-1.33395
11
1.32657
21
-1.33465
0
LINE
8
BLACK
6
CONTINUOUS
10
1.32657
20
-1.33465
11
1.32657
21
-1.41181
0
LINE
8
BLACK
6
CONTINUOUS
10
1.32657
20
-1.41181
11
1.32629
21
-1.41251
0
LINE
8
BLACK
6
CONTINUOUS
10
1.32629
20
-1.41251
11
1.32559
21
-1.4128
0
LINE
8
BLACK
6
CONTINUOUS
10
1.32559
20
-1.4128
11
1.19173
21
-1.4128
0
LINE
8
BLACK
6
CONTINUOUS
10
1.19173
20
-1.4128
11
1.19104
21
-1.41251
0
LINE
8
BLACK
6
CONTINUOUS
10
1.19104
20
-1.41251
11
1.19075
21
-1.41181
0
LINE
8
BLACK
6
CONTINUOUS
10
1.19075
20
-1.41181
11
1.19075
21
-1.33465
0
LINE
8
BLACK
6
CONTINUOUS
10
1.19075
20
-1.33465
11
1.19104
21
-1.33395
0
LINE
8
BLACK
6
CONTINUOUS
10
1.19104
20
-1.33395
11
1.19173
21
-1.33366
0
LINE
8
BLACK
6
CONTINUOUS
10
1.19173
20
-1.33366
11
1.32559
21
-1.33366
0
LINE
8
BLACK
6
CONTINUOUS
10
1.19272
20
-1.33563
11
1.19272
21
-1.41083
0
LINE
8
BLACK
6
CONTINUOUS
10
1.19272
20
-1.41083
11
1.32461
21
-1.41083
0
LINE
8
BLACK
6
CONTINUOUS
10
1.32461
20
-1.41083
11
1.32461
21
-1.33563
0
LINE
8
BLACK
6
CONTINUOUS
10
1.32461
20
-1.33563
11
1.19272
21
-1.33563
0
LINE
8
BLACK
6
CONTINUOUS
10
1.90236
20
-1.31791
11
1.90306
21
-1.3182
0
LINE
8
BLACK
6
CONTINUOUS
10
1.90306
20
-1.3182
11
1.90335
21
-1.3189
0
LINE
8
BLACK
6
CONTINUOUS
10
1.90335
20
-1.3189
11
1.90335
21
-1.39606
0
LINE
8
BLACK
6
CONTINUOUS
10
1.90335
20
-1.39606
11
1.90306
21
-1.39676
0
LINE
8
BLACK
6
CONTINUOUS
10
1.90306
20
-1.39676
11
1.90236
21
-1.39705
0
LINE
8
BLACK
6
CONTINUOUS
10
1.90236
20
-1.39705
11
1.7685
21
-1.39705
0
LINE
8
BLACK
6
CONTINUOUS
10
1.7685
20
-1.39705
11
1.76781
21
-1.39676
0
LINE
8
BLACK
6
CONTINUOUS
10
1.76781
20
-1.39676
11
1.76752
21
-1.39606
0
LINE
8
BLACK
6
CONTINUOUS
10
1.76752
20
-1.39606
11
1.76752
21
-1.3189
0
LINE
8
BLACK
6
CONTINUOUS
10
1.76752
20
-1.3189
11
1.76781
21
-1.3182
0
LINE
8
BLACK
6
CONTINUOUS
10
1.76781
20
-1.3182
11
1.7685
21
-1.31791
0
LINE
8
BLACK
6
CONTINUOUS
10
1.7685
20
-1.31791
11
1.90236
21
-1.31791
0
LINE
8
BLACK
6
CONTINUOUS
10
1.76949
20
-1.31988
11
1.76949
21
-1.39508
0
LINE
8
BLACK
6
CONTINUOUS
10
1.76949
20
-1.39508
11
1.90138
21
-1.39508
0
LINE
8
BLACK
6
CONTINUOUS
10
1.90138
20
-1.39508
11
1.90138
21
-1.31988
0
LINE
8
BLACK
6
CONTINUOUS
10
1.90138
20
-1.31988
11
1.76949
21
-1.31988
0
LINE
8
BLACK
6
CONTINUOUS
10
2.05906
20
-1.24744
11
2.05975
21
-1.24773
0
LINE
8
BLACK
6
CONTINUOUS
10
2.05975
20
-1.24773
11
2.06004
21
-1.24843
0
LINE
8
BLACK
6
CONTINUOUS
10
2.06004
20
-1.24843
11
2.06004
21
-1.38228
0
LINE
8
BLACK
6
CONTINUOUS
10
2.06004
20
-1.38228
11
2.05975
21
-1.38298
0
LINE
8
BLACK
6
CONTINUOUS
10
2.05975
20
-1.38298
11
2.05906
21
-1.38327
0
LINE
8
BLACK
6
CONTINUOUS
10
2.05906
20
-1.38327
11
1.98189
21
-1.38327
0
LINE
8
BLACK
6
CONTINUOUS
10
1.98189
20
-1.38327
11
1.98119
21
-1.38298
0
LINE
8
BLACK
6
CONTINUOUS
10
1.98119
20
-1.38298
11
1.98091
21
-1.38228
0
LINE
8
BLACK
6
CONTINUOUS
10
1.98091
20
-1.38228
11
1.98091
21
-1.24843
0
LINE
8
BLACK
6
CONTINUOUS
10
1.98091
20
-1.24843
11
1.98119
21
-1.24773
0
LINE
8
BLACK
6
CONTINUOUS
10
1.98119
20
-1.24773
11
1.98189
21
-1.24744
0
LINE
8
BLACK
6
CONTINUOUS
10
1.98189
20
-1.24744
11
2.05906
21
-1.24744
0
LINE
8
BLACK
6
CONTINUOUS
10
1.98287
20
-1.24941
11
1.98287
21
-1.3813
0
LINE
8
BLACK
6
CONTINUOUS
10
1.98287
20
-1.3813
11
2.05807
21
-1.3813
0
LINE
8
BLACK
6
CONTINUOUS
10
2.05807
20
-1.3813
11
2.05807
21
-1.24941
0
LINE
8
BLACK
6
CONTINUOUS
10
2.05807
20
-1.24941
11
1.98287
21
-1.24941
0
LINE
8
BLACK
6
CONTINUOUS
10
2.45945
20
-1.22825
11
2.46014
21
-1.22854
0
LINE
8
BLACK
6
CONTINUOUS
10
2.46014
20
-1.22854
11
2.46043
21
-1.22923
0
LINE
8
BLACK
6
CONTINUOUS
10
2.46043
20
-1.22923
11
2.46043
21
-1.38041
0
LINE
8
BLACK
6
CONTINUOUS
10
2.46043
20
-1.38041
11
2.46014
21
-1.38111
0
LINE
8
BLACK
6
CONTINUOUS
10
2.46014
20
-1.38111
11
2.45945
21
-1.3814
0
LINE
8
BLACK
6
CONTINUOUS
10
2.45945
20
-1.3814
11
2.32559
21
-1.3814
0
LINE
8
BLACK
6
CONTINUOUS
10
2.32559
20
-1.3814
11
2.32489
21
-1.38111
0
LINE
8
BLACK
6
CONTINUOUS
10
2.32489
20
-1.38111
11
2.32461
21
-1.38041
0
LINE
8
BLACK
6
CONTINUOUS
10
2.32461
20
-1.38041
11
2.32461
21
-1.22923
0
LINE
8
BLACK
6
CONTINUOUS
10
2.32461
20
-1.22923
11
2.32489
21
-1.22854
0
LINE
8
BLACK
6
CONTINUOUS
10
2.32489
20
-1.22854
11
2.32559
21
-1.22825
0
LINE
8
BLACK
6
CONTINUOUS
10
2.32559
20
-1.22825
11
2.45945
21
-1.22825
0
LINE
8
BLACK
6
CONTINUOUS
10
2.32657
20
-1.23022
11
2.32657
21
-1.37943
0
LINE
8
BLACK
6
CONTINUOUS
10
2.32657
20
-1.37943
11
2.45846
21
-1.37943
0
LINE
8
BLACK
6
CONTINUOUS
10
2.45846
20
-1.37943
11
2.45846
21
-1.23022
0
LINE
8
BLACK
6
CONTINUOUS
10
2.45846
20
-1.23022
11
2.32657
21
-1.23022
0
LINE
8
BLACK
6
CONTINUOUS
10
0.924016
20
-1.25886
11
0.924712
21
-1.25915
0
LINE
8
BLACK
6
CONTINUOUS
10
0.924712
20
-1.25915
11
0.925
21
-1.25984
0
LINE
8
BLACK
6
CONTINUOUS
10
0.925
20
-1.25984
11
0.925
21
-1.33701
0
LINE
8
BLACK
6
CONTINUOUS
10
0.925
20
-1.33701
11
0.924712
21
-1.3377
0
LINE
8
BLACK
6
CONTINUOUS
10
0.924712
20
-1.3377
11
0.924016
21
-1.33799
0
LINE
8
BLACK
6
CONTINUOUS
10
0.924016
20
-1.33799
11
0.790157
21
-1.33799
0
LINE
8
BLACK
6
CONTINUOUS
10
0.790157
20
-1.33799
11
0.789461
21
-1.3377
0
LINE
8
BLACK
6
CONTINUOUS
10
0.789461
20
-1.3377
11
0.789173
21
-1.33701
0
LINE
8
BLACK
6
CONTINUOUS
10
0.789173
20
-1.33701
11
0.789173
21
-1.25984
0
LINE
8
BLACK
6
CONTINUOUS
10
0.789173
20
-1.25984
11
0.789461
21
-1.25915
0
LINE
8
BLACK
6
CONTINUOUS
10
0.789461
20
-1.25915
11
0.790157
21
-1.25886
0
LINE
8
BLACK
6
CONTINUOUS
10
0.790157
20
-1.25886
11
0.924016
21
-1.25886
0
LINE
8
BLACK
6
CONTINUOUS
10
0.791142
20
-1.26083
11
0.791142
21
-1.33602
0
LINE
8
BLACK
6
CONTINUOUS
10
0.791142
20
-1.33602
11
0.923031
21
-1.33602
0
LINE
8
BLACK
6
CONTINUOUS
10
0.923031
20
-1.33602
11
0.923031
21
-1.26083
0
LINE
8
BLACK
6
CONTINUOUS
10
0.923031
20
-1.26083
11
0.791142
21
-1.26083
0
LINE
8
BLACK
6
CONTINUOUS
10
1.48701
20
-1.18002
11
1.4877
21
-1.18031
0
LINE
8
BLACK
6
CONTINUOUS
10
1.4877
20
-1.18031
11
1.48799
21
-1.181
0
LINE
8
BLACK
6
CONTINUOUS
10
1.48799
20
-1.181
11
1.48799
21
-1.33219
0
LINE
8
BLACK
6
CONTINUOUS
10
1.48799
20
-1.33219
11
1.4877
21
-1.33288
0
LINE
8
BLACK
6
CONTINUOUS
10
1.4877
20
-1.33288
11
1.48701
21
-1.33317
0
LINE
8
BLACK
6
CONTINUOUS
10
1.48701
20
-1.33317
11
1.35315
21
-1.33317
0
LINE
8
BLACK
6
CONTINUOUS
10
1.35315
20
-1.33317
11
1.35245
21
-1.33288
0
LINE
8
BLACK
6
CONTINUOUS
10
1.35245
20
-1.33288
11
1.35217
21
-1.33219
0
LINE
8
BLACK
6
CONTINUOUS
10
1.35217
20
-1.33219
11
1.35217
21
-1.181
0
LINE
8
BLACK
6
CONTINUOUS
10
1.35217
20
-1.181
11
1.35245
21
-1.18031
0
LINE
8
BLACK
6
CONTINUOUS
10
1.35245
20
-1.18031
11
1.35315
21
-1.18002
0
LINE
8
BLACK
6
CONTINUOUS
10
1.35315
20
-1.18002
11
1.48701
21
-1.18002
0
LINE
8
BLACK
6
CONTINUOUS
10
1.35413
20
-1.18199
11
1.35413
21
-1.3312
0
LINE
8
BLACK
6
CONTINUOUS
10
1.35413
20
-1.3312
11
1.48602
21
-1.3312
0
LINE
8
BLACK
6
CONTINUOUS
10
1.48602
20
-1.3312
11
1.48602
21
-1.18199
0
LINE
8
BLACK
6
CONTINUOUS
10
1.48602
20
-1.18199
11
1.35413
21
-1.18199
0
LINE
8
BLACK
6
CONTINUOUS
10
0.459449
20
-1.19537
11
0.460145
21
-1.19566
0
LINE
8
BLACK
6
CONTINUOUS
10
0.460145
20
-1.19566
11
0.460433
21
-1.19636
0
LINE
8
BLACK
6
CONTINUOUS
10
0.460433
20
-1.19636
11
0.460433
21
-1.32864
0
LINE
8
BLACK
6
CONTINUOUS
10
0.460433
20
-1.32864
11
0.460145
21
-1.32934
0
LINE
8
BLACK
6
CONTINUOUS
10
0.460145
20
-1.32934
11
0.459449
21
-1.32963
0
LINE
8
BLACK
6
CONTINUOUS
10
0.459449
20
-1.32963
11
0.384646
21
-1.32963
0
LINE
8
BLACK
6
CONTINUOUS
10
0.384646
20
-1.32963
11
0.38395
21
-1.32934
0
LINE
8
BLACK
6
CONTINUOUS
10
0.38395
20
-1.32934
11
0.383661
21
-1.32864
0
LINE
8
BLACK
6
CONTINUOUS
10
0.383661
20
-1.32864
11
0.383661
21
-1.19636
0
LINE
8
BLACK
6
CONTINUOUS
10
0.383661
20
-1.19636
11
0.38395
21
-1.19566
0
LINE
8
BLACK
6
CONTINUOUS
10
0.38395
20
-1.19566
11
0.384646
21
-1.19537
0
LINE
8
BLACK
6
CONTINUOUS
10
0.384646
20
-1.19537
11
0.459449
21
-1.19537
0
LINE
8
BLACK
6
CONTINUOUS
10
0.38563
20
-1.19734
11
0.38563
21
-1.32766
0
LINE
8
BLACK
6
CONTINUOUS
10
0.38563
20
-1.32766
11
0.458465
21
-1.32766
0
LINE
8
BLACK
6
CONTINUOUS
10
0.458465
20
-1.32766
11
0.458465
21
-1.19734
0
LINE
8
BLACK
6
CONTINUOUS
10
0.458465
20
-1.19734
11
0.38563
21
-1.19734
0
LINE
8
BLACK
6
CONTINUOUS
10
1.84567
20
-0.949016
11
1.84637
21
-0.949304
0
LINE
8
BLACK
6
CONTINUOUS
10
1.84637
20
-0.949304
11
1.84665
21
-0.95
0
LINE
8
BLACK
6
CONTINUOUS
10
1.84665
20
-0.95
11
1.84665
21
-1.31614
0
LINE
8
BLACK
6
CONTINUOUS
10
1.84665
20
-1.31614
11
1.84637
21
-1.31684
0
LINE
8
BLACK
6
CONTINUOUS
10
1.84637
20
-1.31684
11
1.84567
21
-1.31713
0
LINE
8
BLACK
6
CONTINUOUS
10
1.84567
20
-1.31713
11
1.62047
21
-1.31713
0
LINE
8
BLACK
6
CONTINUOUS
10
1.62047
20
-1.31713
11
1.61978
21
-1.31684
0
LINE
8
BLACK
6
CONTINUOUS
10
1.61978
20
-1.31684
11
1.61949
21
-1.31614
0
LINE
8
BLACK
6
CONTINUOUS
10
1.61949
20
-1.31614
11
1.61949
21
-1.31614
0
LINE
8
BLACK
6
CONTINUOUS
10
1.61949
20
-1.31614
11
1.61949
21
-0.95
0
LINE
8
BLACK
6
CONTINUOUS
10
1.61949
20
-0.95
11
1.61978
21
-0.949304
0
LINE
8
BLACK
6
CONTINUOUS
10
1.61978
20
-0.949304
11
1.62047
21
-0.949016
0
LINE
8
BLACK
6
CONTINUOUS
10
1.62047
20
-0.949016
11
1.84567
21
-0.949016
0
LINE
8
BLACK
6
CONTINUOUS
10
1.62146
20
-0.950984
11
1.62146
21
-1.31516
0
LINE
8
BLACK
6
CONTINUOUS
10
1.62146
20
-1.31516
11
1.84469
21
-1.31516
0
LINE
8
BLACK
6
CONTINUOUS
10
1.84469
20
-1.31516
11
1.84469
21
-0.950984
0
LINE
8
BLACK
6
CONTINUOUS
10
1.84469
20
-0.950984
11
1.62146
21
-0.950984
0
LINE
8
BLACK
6
CONTINUOUS
10
1.56575
20
-1.18012
11
1.56644
21
-1.18041
0
LINE
8
BLACK
6
CONTINUOUS
10
1.56644
20
-1.18041
11
1.56673
21
-1.1811
0
LINE
8
BLACK
6
CONTINUOUS
10
1.56673
20
-1.1811
11
1.56673
21
-1.31339
0
LINE
8
BLACK
6
CONTINUOUS
10
1.56673
20
-1.31339
11
1.56644
21
-1.31408
0
LINE
8
BLACK
6
CONTINUOUS
10
1.56644
20
-1.31408
11
1.56575
21
-1.31437
0
LINE
8
BLACK
6
CONTINUOUS
10
1.56575
20
-1.31437
11
1.49094
21
-1.31437
0
LINE
8
BLACK
6
CONTINUOUS
10
1.49094
20
-1.31437
11
1.49025
21
-1.31408
0
LINE
8
BLACK
6
CONTINUOUS
10
1.49025
20
-1.31408
11
1.48996
21
-1.31339
0
LINE
8
BLACK
6
CONTINUOUS
10
1.48996
20
-1.31339
11
1.48996
21
-1.1811
0
LINE
8
BLACK
6
CONTINUOUS
10
1.48996
20
-1.1811
11
1.49025
21
-1.18041
0
LINE
8
BLACK
6
CONTINUOUS
10
1.49025
20
-1.18041
11
1.49094
21
-1.18012
0
LINE
8
BLACK
6
CONTINUOUS
10
1.49094
20
-1.18012
11
1.56575
21
-1.18012
0
LINE
8
BLACK
6
CONTINUOUS
10
1.49193
20
-1.18209
11
1.49193
21
-1.3124
0
LINE
8
BLACK
6
CONTINUOUS
10
1.49193
20
-1.3124
11
1.56476
21
-1.3124
0
LINE
8
BLACK
6
CONTINUOUS
10
1.56476
20
-1.3124
11
1.56476
21
-1.18209
0
LINE
8
BLACK
6
CONTINUOUS
10
1.56476
20
-1.18209
11
1.49193
21
-1.18209
0
LINE
8
BLACK
6
CONTINUOUS
10
1.20472
20
-1.17736
11
1.20542
21
-1.17765
0
LINE
8
BLACK
6
CONTINUOUS
10
1.20542
20
-1.17765
11
1.20571
21
-1.17835
0
LINE
8
BLACK
6
CONTINUOUS
10
1.20571
20
-1.17835
11
1.20571
21
-1.3122
0
LINE
8
BLACK
6
CONTINUOUS
10
1.20571
20
-1.3122
11
1.20542
21
-1.3129
0
LINE
8
BLACK
6
CONTINUOUS
10
1.20542
20
-1.3129
11
1.20472
21
-1.31319
0
LINE
8
BLACK
6
CONTINUOUS
10
1.20472
20
-1.31319
11
1.12756
21
-1.31319
0
LINE
8
BLACK
6
CONTINUOUS
10
1.12756
20
-1.31319
11
1.12686
21
-1.3129
0
LINE
8
BLACK
6
CONTINUOUS
10
1.12686
20
-1.3129
11
1.12657
21
-1.3122
0
LINE
8
BLACK
6
CONTINUOUS
10
1.12657
20
-1.3122
11
1.12657
21
-1.17835
0
LINE
8
BLACK
6
CONTINUOUS
10
1.12657
20
-1.17835
11
1.12686
21
-1.17765
0
LINE
8
BLACK
6
CONTINUOUS
10
1.12686
20
-1.17765
11
1.12756
21
-1.17736
0
LINE
8
BLACK
6
CONTINUOUS
10
1.12756
20
-1.17736
11
1.20472
21
-1.17736
0
LINE
8
BLACK
6
CONTINUOUS
10
1.12854
20
-1.17933
11
1.12854
21
-1.31122
0
LINE
8
BLACK
6
CONTINUOUS
10
1.12854
20
-1.31122
11
1.20374
21
-1.31122
0
LINE
8
BLACK
6
CONTINUOUS
10
1.20374
20
-1.31122
11
1.20374
21
-1.17933
0
LINE
8
BLACK
6
CONTINUOUS
10
1.20374
20
-1.17933
11
1.12854
21
-1.17933
0
LINE
8
BLACK
6
CONTINUOUS
10
2.32165
20
-1.14409
11
2.32235
21
-1.14438
0
LINE
8
BLACK
6
CONTINUOUS
10
2.32235
20
-1.14438
11
2.32264
21
-1.14508
0
LINE
8
BLACK
6
CONTINUOUS
10
2.32264
20
-1.14508
11
2.32264
21
-1.29075
0
LINE
8
BLACK
6
CONTINUOUS
10
2.32264
20
-1.29075
11
2.32235
21
-1.29144
0
LINE
8
BLACK
6
CONTINUOUS
10
2.32235
20
-1.29144
11
2.32165
21
-1.29173
0
LINE
8
BLACK
6
CONTINUOUS
10
2.32165
20
-1.29173
11
2.09724
21
-1.29173
0
LINE
8
BLACK
6
CONTINUOUS
10
2.09724
20
-1.29173
11
2.09655
21
-1.29144
0
LINE
8
BLACK
6
CONTINUOUS
10
2.09655
20
-1.29144
11
2.09626
21
-1.29075
0
LINE
8
BLACK
6
CONTINUOUS
10
2.09626
20
-1.29075
11
2.09626
21
-1.29075
0
LINE
8
BLACK
6
CONTINUOUS
10
2.09626
20
-1.29075
11
2.09626
21
-1.14508
0
LINE
8
BLACK
6
CONTINUOUS
10
2.09626
20
-1.14508
11
2.09655
21
-1.14438
0
LINE
8
BLACK
6
CONTINUOUS
10
2.09655
20
-1.14438
11
2.09724
21
-1.14409
0
LINE
8
BLACK
6
CONTINUOUS
10
2.09724
20
-1.14409
11
2.32165
21
-1.14409
0
LINE
8
BLACK
6
CONTINUOUS
10
2.09823
20
-1.14606
11
2.09823
21
-1.28976
0
LINE
8
BLACK
6
CONTINUOUS
10
2.09823
20
-1.28976
11
2.32067
21
-1.28976
0
LINE
8
BLACK
6
CONTINUOUS
10
2.32067
20
-1.28976
11
2.32067
21
-1.14606
0
LINE
8
BLACK
6
CONTINUOUS
10
2.32067
20
-1.14606
11
2.09823
21
-1.14606
0
LINE
8
BLACK
6
CONTINUOUS
10
2.63435
20
-1.20886
11
2.63505
21
-1.20915
0
LINE
8
BLACK
6
CONTINUOUS
10
2.63505
20
-1.20915
11
2.63533
21
-1.20984
0
LINE
8
BLACK
6
CONTINUOUS
10
2.63533
20
-1.20984
11
2.63533
21
-1.28465
0
LINE
8
BLACK
6
CONTINUOUS
10
2.63533
20
-1.28465
11
2.63505
21
-1.28534
0
LINE
8
BLACK
6
CONTINUOUS
10
2.63505
20
-1.28534
11
2.63435
21
-1.28563
0
LINE
8
BLACK
6
CONTINUOUS
10
2.63435
20
-1.28563
11
2.50207
21
-1.28563
0
LINE
8
BLACK
6
CONTINUOUS
10
2.50207
20
-1.28563
11
2.50137
21
-1.28534
0
LINE
8
BLACK
6
CONTINUOUS
10
2.50137
20
-1.28534
11
2.50108
21
-1.28465
0
LINE
8
BLACK
6
CONTINUOUS
10
2.50108
20
-1.28465
11
2.50108
21
-1.20984
0
LINE
8
BLACK
6
CONTINUOUS
10
2.50108
20
-1.20984
11
2.50137
21
-1.20915
0
LINE
8
BLACK
6
CONTINUOUS
10
2.50137
20
-1.20915
11
2.50207
21
-1.20886
0
LINE
8
BLACK
6
CONTINUOUS
10
2.50207
20
-1.20886
11
2.63435
21
-1.20886
0
LINE
8
BLACK
6
CONTINUOUS
10
2.50305
20
-1.21083
11
2.50305
21
-1.28366
0
LINE
8
BLACK
6
CONTINUOUS
10
2.50305
20
-1.28366
11
2.63337
21
-1.28366
0
LINE
8
BLACK
6
CONTINUOUS
10
2.63337
20
-1.28366
11
2.63337
21
-1.21083
0
LINE
8
BLACK
6
CONTINUOUS
10
2.63337
20
-1.21083
11
2.50305
21
-1.21083
0
LINE
8
BLACK
6
CONTINUOUS
10
2.4811
20
-0.793504
11
2.4818
21
-0.793792
0
LINE
8
BLACK
6
CONTINUOUS
10
2.4818
20
-0.793792
11
2.48209
21
-0.794488
0
LINE
8
BLACK
6
CONTINUOUS
10
2.48209
20
-0.794488
11
2.48209
21
-0.813189
0
LINE
8
BLACK
6
CONTINUOUS
10
2.48209
20
-0.813189
11
2.6376
21
-0.813189
0
LINE
8
BLACK
6
CONTINUOUS
10
2.6376
20
-0.813189
11
2.6376
21
-0.794488
0
LINE
8
BLACK
6
CONTINUOUS
10
2.6376
20
-0.794488
11
2.63789
21
-0.793792
0
LINE
8
BLACK
6
CONTINUOUS
10
2.63789
20
-0.793792
11
2.63858
21
-0.793504
0
LINE
8
BLACK
6
CONTINUOUS
10
2.63858
20
-0.793504
11
2.75669
21
-0.793504
0
LINE
8
BLACK
6
CONTINUOUS
10
2.75669
20
-0.793504
11
2.75739
21
-0.793792
0
LINE
8
BLACK
6
CONTINUOUS
10
2.75739
20
-0.793792
11
2.75768
21
-0.794488
0
LINE
8
BLACK
6
CONTINUOUS
10
2.75768
20
-0.794488
11
2.75768
21
-0.912598
0
LINE
8
BLACK
6
CONTINUOUS
10
2.75768
20
-0.912598
11
2.75739
21
-0.913294
0
LINE
8
BLACK
6
CONTINUOUS
10
2.75739
20
-0.913294
11
2.75669
21
-0.913583
0
LINE
8
BLACK
6
CONTINUOUS
10
2.75669
20
-0.913583
11
2.73799
21
-0.913583
0
LINE
8
BLACK
6
CONTINUOUS
10
2.73799
20
-0.913583
11
2.73799
21
-1.06909
0
LINE
8
BLACK
6
CONTINUOUS
10
2.73799
20
-1.06909
11
2.75669
21
-1.06909
0
LINE
8
BLACK
6
CONTINUOUS
10
2.75669
20
-1.06909
11
2.75739
21
-1.06938
0
LINE
8
BLACK
6
CONTINUOUS
10
2.75739
20
-1.06938
11
2.75768
21
-1.07008
0
LINE
8
BLACK
6
CONTINUOUS
10
2.75768
20
-1.07008
11
2.75768
21
-1.18819
0
LINE
8
BLACK
6
CONTINUOUS
10
2.75768
20
-1.18819
11
2.75739
21
-1.18888
0
LINE
8
BLACK
6
CONTINUOUS
10
2.75739
20
-1.18888
11
2.75669
21
-1.18917
0
LINE
8
BLACK
6
CONTINUOUS
10
2.75669
20
-1.18917
11
2.63858
21
-1.18917
0
LINE
8
BLACK
6
CONTINUOUS
10
2.63858
20
-1.18917
11
2.63789
21
-1.18888
0
LINE
8
BLACK
6
CONTINUOUS
10
2.63789
20
-1.18888
11
2.6376
21
-1.18819
0
LINE
8
BLACK
6
CONTINUOUS
10
2.6376
20
-1.18819
11
2.6376
21
-1.16949
0
LINE
8
BLACK
6
CONTINUOUS
10
2.6376
20
-1.16949
11
2.48209
21
-1.16949
0
LINE
8
BLACK
6
CONTINUOUS
10
2.48209
20
-1.16949
11
2.48209
21
-1.18819
0
LINE
8
BLACK
6
CONTINUOUS
10
2.48209
20
-1.18819
11
2.4818
21
-1.18888
0
LINE
8
BLACK
6
CONTINUOUS
10
2.4818
20
-1.18888
11
2.4811
21
-1.18917
0
LINE
8
BLACK
6
CONTINUOUS
10
2.4811
20
-1.18917
11
2.36299
21
-1.18917
0
LINE
8
BLACK
6
CONTINUOUS
10
2.36299
20
-1.18917
11
2.3623
21
-1.18888
0
LINE
8
BLACK
6
CONTINUOUS
10
2.3623
20
-1.18888
11
2.36201
21
-1.18819
0
LINE
8
BLACK
6
CONTINUOUS
10
2.36201
20
-1.18819
11
2.36201
21
-1.07008
0
LINE
8
BLACK
6
CONTINUOUS
10
2.36201
20
-1.07008
11
2.3623
21
-1.06938
0
LINE
8
BLACK
6
CONTINUOUS
10
2.3623
20
-1.06938
11
2.36299
21
-1.06909
0
LINE
8
BLACK
6
CONTINUOUS
10
2.36299
20
-1.06909
11
2.38169
21
-1.06909
0
LINE
8
BLACK
6
CONTINUOUS
10
2.38169
20
-1.06909
11
2.38169
21
-0.913583
0
LINE
8
BLACK
6
CONTINUOUS
10
2.38169
20
-0.913583
11
2.36299
21
-0.913583
0
LINE
8
BLACK
6
CONTINUOUS
10
2.36299
20
-0.913583
11
2.3623
21
-0.913294
0
LINE
8
BLACK
6
CONTINUOUS
10
2.3623
20
-0.913294
11
2.36201
21
-0.912598
0
LINE
8
BLACK
6
CONTINUOUS
10
2.36201
20
-0.912598
11
2.36201
21
-0.794488
0
LINE
8
BLACK
6
CONTINUOUS
10
2.36201
20
-0.794488
11
2.3623
21
-0.793792
0
LINE
8
BLACK
6
CONTINUOUS
10
2.3623
20
-0.793792
11
2.36299
21
-0.793504
0
LINE
8
BLACK
6
CONTINUOUS
10
2.36299
20
-0.793504
11
2.4811
21
-0.793504
0
LINE
8
BLACK
6
CONTINUOUS
10
2.36398
20
-0.795472
11
2.36398
21
-0.911614
0
LINE
8
BLACK
6
CONTINUOUS
10
2.36398
20
-0.911614
11
2.38268
21
-0.911614
0
LINE
8
BLACK
6
CONTINUOUS
10
2.38268
20
-0.911614
11
2.38337
21
-0.911902
0
LINE
8
BLACK
6
CONTINUOUS
10
2.38337
20
-0.911902
11
2.38366
21
-0.912598
0
LINE
8
BLACK
6
CONTINUOUS
10
2.38366
20
-0.912598
11
2.38366
21
-1.07008
0
LINE
8
BLACK
6
CONTINUOUS
10
2.38366
20
-1.07008
11
2.38337
21
-1.07077
0
LINE
8
BLACK
6
CONTINUOUS
10
2.38337
20
-1.07077
11
2.38268
21
-1.07106
0
LINE
8
BLACK
6
CONTINUOUS
10
2.38268
20
-1.07106
11
2.36398
21
-1.07106
0
LINE
8
BLACK
6
CONTINUOUS
10
2.36398
20
-1.07106
11
2.36398
21
-1.1872
0
LINE
8
BLACK
6
CONTINUOUS
10
2.36398
20
-1.1872
11
2.48012
21
-1.1872
0
LINE
8
BLACK
6
CONTINUOUS
10
2.48012
20
-1.1872
11
2.48012
21
-1.1685
0
LINE
8
BLACK
6
CONTINUOUS
10
2.48012
20
-1.1685
11
2.48041
21
-1.16781
0
LINE
8
BLACK
6
CONTINUOUS
10
2.48041
20
-1.16781
11
2.4811
21
-1.16752
0
LINE
8
BLACK
6
CONTINUOUS
10
2.4811
20
-1.16752
11
2.63858
21
-1.16752
0
LINE
8
BLACK
6
CONTINUOUS
10
2.63858
20
-1.16752
11
2.63928
21
-1.16781
0
LINE
8
BLACK
6
CONTINUOUS
10
2.63928
20
-1.16781
11
2.63957
21
-1.1685
0
LINE
8
BLACK
6
CONTINUOUS
10
2.63957
20
-1.1685
11
2.63957
21
-1.1872
0
LINE
8
BLACK
6
CONTINUOUS
10
2.63957
20
-1.1872
11
2.75571
21
-1.1872
0
LINE
8
BLACK
6
CONTINUOUS
10
2.75571
20
-1.1872
11
2.75571
21
-1.07106
0
LINE
8
BLACK
6
CONTINUOUS
10
2.75571
20
-1.07106
11
2.73701
21
-1.07106
0
LINE
8
BLACK
6
CONTINUOUS
10
2.73701
20
-1.07106
11
2.73631
21
-1.07077
0
LINE
8
BLACK
6
CONTINUOUS
10
2.73631
20
-1.07077
11
2.73602
21
-1.07008
0
LINE
8
BLACK
6
CONTINUOUS
10
2.73602
20
-1.07008
11
2.73602
21
-0.912598
0
LINE
8
BLACK
6
CONTINUOUS
10
2.73602
20
-0.912598
11
2.73631
21
-0.911902
0
LINE
8
BLACK
6
CONTINUOUS
10
2.73631
20
-0.911902
11
2.73701
21
-0.911614
0
LINE
8
BLACK
6
CONTINUOUS
10
2.73701
20
-0.911614
11
2.75571
21
-0.911614
0
LINE
8
BLACK
6
CONTINUOUS
10
2.75571
20
-0.911614
11
2.75571
21
-0.795472
0
LINE
8
BLACK
6
CONTINUOUS
10
2.75571
20
-0.795472
11
2.63957
21
-0.795472
0
LINE
8
BLACK
6
CONTINUOUS
10
2.63957
20
-0.795472
11
2.63957
21
-0.814173
0
LINE
8
BLACK
6
CONTINUOUS
10
2.63957
20
-0.814173
11
2.63928
21
-0.814869
0
LINE
8
BLACK
6
CONTINUOUS
10
2.63928
20
-0.814869
11
2.63858
21
-0.815157
0
LINE
8
BLACK
6
CONTINUOUS
10
2.63858
20
-0.815157
11
2.4811
21
-0.815157
0
LINE
8
BLACK
6
CONTINUOUS
10
2.4811
20
-0.815157
11
2.48041
21
-0.814869
0
LINE
8
BLACK
6
CONTINUOUS
10
2.48041
20
-0.814869
11
2.48012
21
-0.814173
0
LINE
8
BLACK
6
CONTINUOUS
10
2.48012
20
-0.814173
11
2.48012
21
-0.795472
0
LINE
8
BLACK
6
CONTINUOUS
10
2.48012
20
-0.795472
11
2.36398
21
-0.795472
0
LINE
8
BLACK
6
CONTINUOUS
10
1.4811
20
-0.752165
11
1.4818
21
-0.752454
0
LINE
8
BLACK
6
CONTINUOUS
10
1.4818
20
-0.752454
11
1.48209
21
-0.75315
0
LINE
8
BLACK
6
CONTINUOUS
10
1.48209
20
-0.75315
11
1.48209
21
-1.02352
0
LINE
8
BLACK
6
CONTINUOUS
10
1.48209
20
-1.02352
11
1.48237
21
-1.02283
0
LINE
8
BLACK
6
CONTINUOUS
10
1.48237
20
-1.02283
11
1.48307
21
-1.02254
0
LINE
8
BLACK
6
CONTINUOUS
10
1.48307
20
-1.02254
11
1.61693
21
-1.02254
0
LINE
8
BLACK
6
CONTINUOUS
10
1.61693
20
-1.02254
11
1.61763
21
-1.02283
0
LINE
8
BLACK
6
CONTINUOUS
10
1.61763
20
-1.02283
11
1.61791
21
-1.02352
0
LINE
8
BLACK
6
CONTINUOUS
10
1.61791
20
-1.02352
11
1.61791
21
-1.1747
0
LINE
8
BLACK
6
CONTINUOUS
10
1.61791
20
-1.1747
11
1.61763
21
-1.1754
0
LINE
8
BLACK
6
CONTINUOUS
10
1.61763
20
-1.1754
11
1.61693
21
-1.17569
0
LINE
8
BLACK
6
CONTINUOUS
10
1.61693
20
-1.17569
11
1.48307
21
-1.17569
0
LINE
8
BLACK
6
CONTINUOUS
10
1.48307
20
-1.17569
11
1.48237
21
-1.1754
0
LINE
8
BLACK
6
CONTINUOUS
10
1.48237
20
-1.1754
11
1.48209
21
-1.1747
0
LINE
8
BLACK
6
CONTINUOUS
10
1.48209
20
-1.1747
11
1.48209
21
-1.09961
0
LINE
8
BLACK
6
CONTINUOUS
10
1.48209
20
-1.09961
11
1.4818
21
-1.1003
0
LINE
8
BLACK
6
CONTINUOUS
10
1.4818
20
-1.1003
11
1.4811
21
-1.10059
0
LINE
8
BLACK
6
CONTINUOUS
10
1.4811
20
-1.10059
11
1.19764
21
-1.10059
0
LINE
8
BLACK
6
CONTINUOUS
10
1.19764
20
-1.10059
11
1.19694
21
-1.1003
0
LINE
8
BLACK
6
CONTINUOUS
10
1.19694
20
-1.1003
11
1.19665
21
-1.09961
0
LINE
8
BLACK
6
CONTINUOUS
10
1.19665
20
-1.09961
11
1.19665
21
-0.75315
0
LINE
8
BLACK
6
CONTINUOUS
10
1.19665
20
-0.75315
11
1.19694
21
-0.752454
0
LINE
8
BLACK
6
CONTINUOUS
10
1.19694
20
-0.752454
11
1.19764
21
-0.752165
0
LINE
8
BLACK
6
CONTINUOUS
10
1.19764
20
-0.752165
11
1.4811
21
-0.752165
0
LINE
8
BLACK
6
CONTINUOUS
10
1.48406
20
-1.02451
11
1.48406
21
-1.17372
0
LINE
8
BLACK
6
CONTINUOUS
10
1.48406
20
-1.17372
11
1.61594
21
-1.17372
0
LINE
8
BLACK
6
CONTINUOUS
10
1.61594
20
-1.17372
11
1.61594
21
-1.02451
0
LINE
8
BLACK
6
CONTINUOUS
10
1.61594
20
-1.02451
11
1.48406
21
-1.02451
0
LINE
8
BLACK
6
CONTINUOUS
10
1.19862
20
-0.754134
11
1.19862
21
-1.09862
0
LINE
8
BLACK
6
CONTINUOUS
10
1.19862
20
-1.09862
11
1.48012
21
-1.09862
0
LINE
8
BLACK
6
CONTINUOUS
10
1.48012
20
-1.09862
11
1.48012
21
-0.754134
0
LINE
8
BLACK
6
CONTINUOUS
10
1.48012
20
-0.754134
11
1.19862
21
-0.754134
0
LINE
8
BLACK
6
CONTINUOUS
10
0.66811
20
-0.974902
11
0.668806
21
-0.97519
0
LINE
8
BLACK
6
CONTINUOUS
10
0.668806
20
-0.97519
11
0.669094
21
-0.975886
0
LINE
8
BLACK
6
CONTINUOUS
10
0.669094
20
-0.975886
11
0.669094
21
-1.10817
0
LINE
8
BLACK
6
CONTINUOUS
10
0.669094
20
-1.10817
11
0.668806
21
-1.10887
0
LINE
8
BLACK
6
CONTINUOUS
10
0.668806
20
-1.10887
11
0.66811
21
-1.10915
0
LINE
8
BLACK
6
CONTINUOUS
10
0.66811
20
-1.10915
11
0.593307
21
-1.10915
0
LINE
8
BLACK
6
CONTINUOUS
10
0.593307
20
-1.10915
11
0.592611
21
-1.10887
0
LINE
8
BLACK
6
CONTINUOUS
10
0.592611
20
-1.10887
11
0.592323
21
-1.10817
0
LINE
8
BLACK
6
CONTINUOUS
10
0.592323
20
-1.10817
11
0.592323
21
-0.975886
0
LINE
8
BLACK
6
CONTINUOUS
10
0.592323
20
-0.975886
11
0.592611
21
-0.97519
0
LINE
8
BLACK
6
CONTINUOUS
10
0.592611
20
-0.97519
11
0.593307
21
-0.974902
0
LINE
8
BLACK
6
CONTINUOUS
10
0.593307
20
-0.974902
11
0.66811
21
-0.974902
0
LINE
8
BLACK
6
CONTINUOUS
10
0.594291
20
-0.97687
11
0.594291
21
-1.10719
0
LINE
8
BLACK
6
CONTINUOUS
10
0.594291
20
-1.10719
11
0.667126
21
-1.10719
0
LINE
8
BLACK
6
CONTINUOUS
10
0.667126
20
-1.10719
11
0.667126
21
-0.97687
0
LINE
8
BLACK
6
CONTINUOUS
10
0.667126
20
-0.97687
11
0.594291
21
-0.97687
0
LINE
8
BLACK
6
CONTINUOUS
10
0.944882
20
-0.972638
11
0.945578
21
-0.972926
0
LINE
8
BLACK
6
CONTINUOUS
10
0.945578
20
-0.972926
11
0.945866
21
-0.973622
0
LINE
8
BLACK
6
CONTINUOUS
10
0.945866
20
-0.973622
11
0.945866
21
-1.10748
0
LINE
8
BLACK
6
CONTINUOUS
10
0.945866
20
-1.10748
11
0.945578
21
-1.10818
0
LINE
8
BLACK
6
CONTINUOUS
10
0.945578
20
-1.10818
11
0.944882
21
-1.10846
0
LINE
8
BLACK
6
CONTINUOUS
10
0.944882
20
-1.10846
11
0.867717
21
-1.10846
0
LINE
8
BLACK
6
CONTINUOUS
10
0.867717
20
-1.10846
11
0.867021
21
-1.10818
0
LINE
8
BLACK
6
CONTINUOUS
10
0.867021
20
-1.10818
11
0.866732
21
-1.10748
0
LINE
8
BLACK
6
CONTINUOUS
10
0.866732
20
-1.10748
11
0.866732
21
-0.973622
0
LINE
8
BLACK
6
CONTINUOUS
10
0.866732
20
-0.973622
11
0.867021
21
-0.972926
0
LINE
8
BLACK
6
CONTINUOUS
10
0.867021
20
-0.972926
11
0.867717
21
-0.972638
0
LINE
8
BLACK
6
CONTINUOUS
10
0.867717
20
-0.972638
11
0.858268
21
-0.972638
0
LINE
8
BLACK
6
CONTINUOUS
10
0.858268
20
-0.972638
11
0.858964
21
-0.972926
0
LINE
8
BLACK
6
CONTINUOUS
10
0.858964
20
-0.972926
11
0.859252
21
-0.973622
0
LINE
8
BLACK
6
CONTINUOUS
10
0.859252
20
-0.973622
11
0.859252
21
-1.10748
0
LINE
8
BLACK
6
CONTINUOUS
10
0.859252
20
-1.10748
11
0.858964
21
-1.10818
0
LINE
8
BLACK
6
CONTINUOUS
10
0.858964
20
-1.10818
11
0.858268
21
-1.10846
0
LINE
8
BLACK
6
CONTINUOUS
10
0.858268
20
-1.10846
11
0.781102
21
-1.10846
0
LINE
8
BLACK
6
CONTINUOUS
10
0.781102
20
-1.10846
11
0.780406
21
-1.10818
0
LINE
8
BLACK
6
CONTINUOUS
10
0.780406
20
-1.10818
11
0.780118
21
-1.10748
0
LINE
8
BLACK
6
CONTINUOUS
10
0.780118
20
-1.10748
11
0.780118
21
-0.973622
0
LINE
8
BLACK
6
CONTINUOUS
10
0.780118
20
-0.973622
11
0.780406
21
-0.972926
0
LINE
8
BLACK
6
CONTINUOUS
10
0.780406
20
-0.972926
11
0.781102
21
-0.972638
0
LINE
8
BLACK
6
CONTINUOUS
10
0.781102
20
-0.972638
11
0.759523
21
-0.972638
0
LINE
8
BLACK
6
CONTINUOUS
10
0.759523
20
-0.972638
11
0.759646
21
-0.972933
0
LINE
8
BLACK
6
CONTINUOUS
10
0.759646
20
-0.972933
11
0.759646
21
-1.10522
0
LINE
8
BLACK
6
CONTINUOUS
10
0.759646
20
-1.10522
11
0.759357
21
-1.10591
0
LINE
8
BLACK
6
CONTINUOUS
10
0.759357
20
-1.10591
11
0.758661
21
-1.1062
0
LINE
8
BLACK
6
CONTINUOUS
10
0.758661
20
-1.1062
11
0.683858
21
-1.1062
0
LINE
8
BLACK
6
CONTINUOUS
10
0.683858
20
-1.1062
11
0.683162
21
-1.10591
0
LINE
8
BLACK
6
CONTINUOUS
10
0.683162
20
-1.10591
11
0.682874
21
-1.10522
0
LINE
8
BLACK
6
CONTINUOUS
10
0.682874
20
-1.10522
11
0.682874
21
-0.972933
0
LINE
8
BLACK
6
CONTINUOUS
10
0.682874
20
-0.972933
11
0.683162
21
-0.972237
0
LINE
8
BLACK
6
CONTINUOUS
10
0.683162
20
-0.972237
11
0.683858
21
-0.971949
0
LINE
8
BLACK
6
CONTINUOUS
10
0.683858
20
-0.971949
11
0.718429
21
-0.971949
0
LINE
8
BLACK
6
CONTINUOUS
10
0.718429
20
-0.971949
11
0.718307
21
-0.971654
0
LINE
8
BLACK
6
CONTINUOUS
10
0.718307
20
-0.971654
11
0.718307
21
-0.688189
0
LINE
8
BLACK
6
CONTINUOUS
10
0.718307
20
-0.688189
11
0.718595
21
-0.687493
0
LINE
8
BLACK
6
CONTINUOUS
10
0.718595
20
-0.687493
11
0.719291
21
-0.687205
0
LINE
8
BLACK
6
CONTINUOUS
10
0.719291
20
-0.687205
11
1.06575
21
-0.687205
0
LINE
8
BLACK
6
CONTINUOUS
10
1.06575
20
-0.687205
11
1.06644
21
-0.687493
0
LINE
8
BLACK
6
CONTINUOUS
10
1.06644
20
-0.687493
11
1.06673
21
-0.688189
0
LINE
8
BLACK
6
CONTINUOUS
10
1.06673
20
-0.688189
11
1.06673
21
-0.971654
0
LINE
8
BLACK
6
CONTINUOUS
10
1.06673
20
-0.971654
11
1.06644
21
-0.97235
0
LINE
8
BLACK
6
CONTINUOUS
10
1.06644
20
-0.97235
11
1.06575
21
-0.972638
0
LINE
8
BLACK
6
CONTINUOUS
10
1.06575
20
-0.972638
11
0.944882
21
-0.972638
0
LINE
8
BLACK
6
CONTINUOUS
10
0.868701
20
-0.974606
11
0.868701
21
-1.1065
0
LINE
8
BLACK
6
CONTINUOUS
10
0.868701
20
-1.1065
11
0.943898
21
-1.1065
0
LINE
8
BLACK
6
CONTINUOUS
10
0.943898
20
-1.1065
11
0.943898
21
-0.974606
0
LINE
8
BLACK
6
CONTINUOUS
10
0.943898
20
-0.974606
11
0.868701
21
-0.974606
0
LINE
8
BLACK
6
CONTINUOUS
10
0.782087
20
-0.974606
11
0.782087
21
-1.1065
0
LINE
8
BLACK
6
CONTINUOUS
10
0.782087
20
-1.1065
11
0.857283
21
-1.1065
0
LINE
8
BLACK
6
CONTINUOUS
10
0.857283
20
-1.1065
11
0.857283
21
-0.974606
0
LINE
8
BLACK
6
CONTINUOUS
10
0.857283
20
-0.974606
11
0.782087
21
-0.974606
0
LINE
8
BLACK
6
CONTINUOUS
10
0.684843
20
-0.973917
11
0.684843
21
-1.10423
0
LINE
8
BLACK
6
CONTINUOUS
10
0.684843
20
-1.10423
11
0.757677
21
-1.10423
0
LINE
8
BLACK
6
CONTINUOUS
10
0.757677
20
-1.10423
11
0.757677
21
-0.973917
0
LINE
8
BLACK
6
CONTINUOUS
10
0.757677
20
-0.973917
11
0.684843
21
-0.973917
0
LINE
8
BLACK
6
CONTINUOUS
10
0.720276
20
-0.689173
11
0.720276
21
-0.970669
0
LINE
8
BLACK
6
CONTINUOUS
10
0.720276
20
-0.970669
11
1.06476
21
-0.970669
0
LINE
8
BLACK
6
CONTINUOUS
10
1.06476
20
-0.970669
11
1.06476
21
-0.689173
0
LINE
8
BLACK
6
CONTINUOUS
10
1.06476
20
-0.689173
11
0.720276
21
-0.689173
0
LINE
8
BLACK
6
CONTINUOUS
10
1.18504
20
-0.937205
11
1.18574
21
-0.937493
0
LINE
8
BLACK
6
CONTINUOUS
10
1.18574
20
-0.937493
11
1.18602
21
-0.938189
0
LINE
8
BLACK
6
CONTINUOUS
10
1.18602
20
-0.938189
11
1.18602
21
-1.07205
0
LINE
8
BLACK
6
CONTINUOUS
10
1.18602
20
-1.07205
11
1.18574
21
-1.07274
0
LINE
8
BLACK
6
CONTINUOUS
10
1.18574
20
-1.07274
11
1.18504
21
-1.07303
0
LINE
8
BLACK
6
CONTINUOUS
10
1.18504
20
-1.07303
11
1.10787
21
-1.07303
0
LINE
8
BLACK
6
CONTINUOUS
10
1.10787
20
-1.07303
11
1.10718
21
-1.07274
0
LINE
8
BLACK
6
CONTINUOUS
10
1.10718
20
-1.07274
11
1.10689
21
-1.07205
0
LINE
8
BLACK
6
CONTINUOUS
10
1.10689
20
-1.07205
11
1.10689
21
-0.938189
0
LINE
8
BLACK
6
CONTINUOUS
10
1.10689
20
-0.938189
11
1.10718
21
-0.937493
0
LINE
8
BLACK
6
CONTINUOUS
10
1.10718
20
-0.937493
11
1.10787
21
-0.937205
0
LINE
8
BLACK
6
CONTINUOUS
10
1.10787
20
-0.937205
11
1.18504
21
-0.937205
0
LINE
8
BLACK
6
CONTINUOUS
10
1.10886
20
-0.939173
11
1.10886
21
-1.07106
0
LINE
8
BLACK
6
CONTINUOUS
10
1.10886
20
-1.07106
11
1.18406
21
-1.07106
0
LINE
8
BLACK
6
CONTINUOUS
10
1.18406
20
-1.07106
11
1.18406
21
-0.939173
0
LINE
8
BLACK
6
CONTINUOUS
10
1.18406
20
-0.939173
11
1.10886
21
-0.939173
0
LINE
8
BLACK
6
CONTINUOUS
10
1.06575
20
-0.974606
11
1.06644
21
-0.974895
0
LINE
8
BLACK
6
CONTINUOUS
10
1.06644
20
-0.974895
11
1.06673
21
-0.975591
0
LINE
8
BLACK
6
CONTINUOUS
10
1.06673
20
-0.975591
11
1.06673
21
-1.03071
0
LINE
8
BLACK
6
CONTINUOUS
10
1.06673
20
-1.03071
11
1.06644
21
-1.0314
0
LINE
8
BLACK
6
CONTINUOUS
10
1.06644
20
-1.0314
11
1.06575
21
-1.03169
0
LINE
8
BLACK
6
CONTINUOUS
10
1.06575
20
-1.03169
11
0.967323
21
-1.03169
0
LINE
8
BLACK
6
CONTINUOUS
10
0.967323
20
-1.03169
11
0.966627
21
-1.0314
0
LINE
8
BLACK
6
CONTINUOUS
10
0.966627
20
-1.0314
11
0.966339
21
-1.03071
0
LINE
8
BLACK
6
CONTINUOUS
10
0.966339
20
-1.03071
11
0.966339
21
-0.975591
0
LINE
8
BLACK
6
CONTINUOUS
10
0.966339
20
-0.975591
11
0.966627
21
-0.974895
0
LINE
8
BLACK
6
CONTINUOUS
10
0.966627
20
-0.974895
11
0.967323
21
-0.974606
0
LINE
8
BLACK
6
CONTINUOUS
10
0.967323
20
-0.974606
11
1.06575
21
-0.974606
0
LINE
8
BLACK
6
CONTINUOUS
10
0.968307
20
-0.976575
11
0.968307
21
-1.02972
0
LINE
8
BLACK
6
CONTINUOUS
10
0.968307
20
-1.02972
11
1.06476
21
-1.02972
0
LINE
8
BLACK
6
CONTINUOUS
10
1.06476
20
-1.02972
11
1.06476
21
-0.976575
0
LINE
8
BLACK
6
CONTINUOUS
10
1.06476
20
-0.976575
11
0.968307
21
-0.976575
0
LINE
8
BLACK
6
CONTINUOUS
10
1.8814
20
-0.858465
11
1.88209
21
-0.858753
0
LINE
8
BLACK
6
CONTINUOUS
10
1.88209
20
-0.858753
11
1.88238
21
-0.859449
0
LINE
8
BLACK
6
CONTINUOUS
10
1.88238
20
-0.859449
11
1.88238
21
-0.934252
0
LINE
8
BLACK
6
CONTINUOUS
10
1.88238
20
-0.934252
11
1.88209
21
-0.934948
0
LINE
8
BLACK
6
CONTINUOUS
10
1.88209
20
-0.934948
11
1.8814
21
-0.935236
0
LINE
8
BLACK
6
CONTINUOUS
10
1.8814
20
-0.935236
11
1.74911
21
-0.935236
0
LINE
8
BLACK
6
CONTINUOUS
10
1.74911
20
-0.935236
11
1.74842
21
-0.934948
0
LINE
8
BLACK
6
CONTINUOUS
10
1.74842
20
-0.934948
11
1.74813
21
-0.934252
0
LINE
8
BLACK
6
CONTINUOUS
10
1.74813
20
-0.934252
11
1.74813
21
-0.859449
0
LINE
8
BLACK
6
CONTINUOUS
10
1.74813
20
-0.859449
11
1.74842
21
-0.858753
0
LINE
8
BLACK
6
CONTINUOUS
10
1.74842
20
-0.858753
11
1.74911
21
-0.858465
0
LINE
8
BLACK
6
CONTINUOUS
10
1.74911
20
-0.858465
11
1.8814
21
-0.858465
0
LINE
8
BLACK
6
CONTINUOUS
10
1.7501
20
-0.860433
11
1.7501
21
-0.933268
0
LINE
8
BLACK
6
CONTINUOUS
10
1.7501
20
-0.933268
11
1.88041
21
-0.933268
0
LINE
8
BLACK
6
CONTINUOUS
10
1.88041
20
-0.933268
11
1.88041
21
-0.860433
0
LINE
8
BLACK
6
CONTINUOUS
10
1.88041
20
-0.860433
11
1.7501
21
-0.860433
0
LINE
8
BLACK
6
CONTINUOUS
10
1.1811
20
-0.73248
11
1.1818
21
-0.732769
0
LINE
8
BLACK
6
CONTINUOUS
10
1.1818
20
-0.732769
11
1.18209
21
-0.733465
0
LINE
8
BLACK
6
CONTINUOUS
10
1.18209
20
-0.733465
11
1.18209
21
-0.867323
0
LINE
8
BLACK
6
CONTINUOUS
10
1.18209
20
-0.867323
11
1.1818
21
-0.868019
0
LINE
8
BLACK
6
CONTINUOUS
10
1.1818
20
-0.868019
11
1.1811
21
-0.868307
0
LINE
8
BLACK
6
CONTINUOUS
10
1.1811
20
-0.868307
11
1.10394
21
-0.868307
0
LINE
8
BLACK
6
CONTINUOUS
10
1.10394
20
-0.868307
11
1.10324
21
-0.868019
0
LINE
8
BLACK
6
CONTINUOUS
10
1.10324
20
-0.868019
11
1.10295
21
-0.867323
0
LINE
8
BLACK
6
CONTINUOUS
10
1.10295
20
-0.867323
11
1.10295
21
-0.733465
0
LINE
8
BLACK
6
CONTINUOUS
10
1.10295
20
-0.733465
11
1.10324
21
-0.732769
0
LINE
8
BLACK
6
CONTINUOUS
10
1.10324
20
-0.732769
11
1.10394
21
-0.73248
0
LINE
8
BLACK
6
CONTINUOUS
10
1.10394
20
-0.73248
11
1.1811
21
-0.73248
0
LINE
8
BLACK
6
CONTINUOUS
10
1.10492
20
-0.734449
11
1.10492
21
-0.866339
0
LINE
8
BLACK
6
CONTINUOUS
10
1.10492
20
-0.866339
11
1.18012
21
-0.866339
0
LINE
8
BLACK
6
CONTINUOUS
10
1.18012
20
-0.866339
11
1.18012
21
-0.734449
0
LINE
8
BLACK
6
CONTINUOUS
10
1.18012
20
-0.734449
11
1.10492
21
-0.734449
0
LINE
8
BLACK
6
CONTINUOUS
10
2.04606
20
-0.795276
11
2.04676
21
-0.795564
0
LINE
8
BLACK
6
CONTINUOUS
10
2.04676
20
-0.795564
11
2.04705
21
-0.79626
0
LINE
8
BLACK
6
CONTINUOUS
10
2.04705
20
-0.79626
11
2.04705
21
-0.851378
0
LINE
8
BLACK
6
CONTINUOUS
10
2.04705
20
-0.851378
11
2.04676
21
-0.852074
0
LINE
8
BLACK
6
CONTINUOUS
10
2.04676
20
-0.852074
11
2.04606
21
-0.852362
0
LINE
8
BLACK
6
CONTINUOUS
10
2.04606
20
-0.852362
11
1.94764
21
-0.852362
0
LINE
8
BLACK
6
CONTINUOUS
10
1.94764
20
-0.852362
11
1.94694
21
-0.852074
0
LINE
8
BLACK
6
CONTINUOUS
10
1.94694
20
-0.852074
11
1.94665
21
-0.851378
0
LINE
8
BLACK
6
CONTINUOUS
10
1.94665
20
-0.851378
11
1.94665
21
-0.79626
0
LINE
8
BLACK
6
CONTINUOUS
10
1.94665
20
-0.79626
11
1.94694
21
-0.795564
0
LINE
8
BLACK
6
CONTINUOUS
10
1.94694
20
-0.795564
11
1.94764
21
-0.795276
0
LINE
8
BLACK
6
CONTINUOUS
10
1.94764
20
-0.795276
11
2.04606
21
-0.795276
0
LINE
8
BLACK
6
CONTINUOUS
10
1.94862
20
-0.797244
11
1.94862
21
-0.850394
0
LINE
8
BLACK
6
CONTINUOUS
10
1.94862
20
-0.850394
11
2.04508
21
-0.850394
0
LINE
8
BLACK
6
CONTINUOUS
10
2.04508
20
-0.850394
11
2.04508
21
-0.797244
0
LINE
8
BLACK
6
CONTINUOUS
10
2.04508
20
-0.797244
11
1.94862
21
-0.797244
0
LINE
8
BLACK
6
CONTINUOUS
10
1.79409
20
-0.640748
11
1.79479
21
-0.641036
0
LINE
8
BLACK
6
CONTINUOUS
10
1.79479
20
-0.641036
11
1.79508
21
-0.641732
0
LINE
8
BLACK
6
CONTINUOUS
10
1.79508
20
-0.641732
11
1.79508
21
-0.774016
0
LINE
8
BLACK
6
CONTINUOUS
10
1.79508
20
-0.774016
11
1.79479
21
-0.774712
0
LINE
8
BLACK
6
CONTINUOUS
10
1.79479
20
-0.774712
11
1.79409
21
-0.775
0
LINE
8
BLACK
6
CONTINUOUS
10
1.79409
20
-0.775
11
1.71929
21
-0.775
0
LINE
8
BLACK
6
CONTINUOUS
10
1.71929
20
-0.775
11
1.7186
21
-0.774712
0
LINE
8
BLACK
6
CONTINUOUS
10
1.7186
20
-0.774712
11
1.71831
21
-0.774016
0
LINE
8
BLACK
6
CONTINUOUS
10
1.71831
20
-0.774016
11
1.71831
21
-0.641732
0
LINE
8
BLACK
6
CONTINUOUS
10
1.71831
20
-0.641732
11
1.7186
21
-0.641036
0
LINE
8
BLACK
6
CONTINUOUS
10
1.7186
20
-0.641036
11
1.71929
21
-0.640748
0
LINE
8
BLACK
6
CONTINUOUS
10
1.71929
20
-0.640748
11
1.79409
21
-0.640748
0
LINE
8
BLACK
6
CONTINUOUS
10
1.72028
20
-0.642717
11
1.72028
21
-0.773031
0
LINE
8
BLACK
6
CONTINUOUS
10
1.72028
20
-0.773031
11
1.79311
21
-0.773031
0
LINE
8
BLACK
6
CONTINUOUS
10
1.79311
20
-0.773031
11
1.79311
21
-0.642717
0
LINE
8
BLACK
6
CONTINUOUS
10
1.79311
20
-0.642717
11
1.72028
21
-0.642717
0
LINE
8
BLACK
6
CONTINUOUS
10
1.88071
20
-0.640748
11
1.8814
21
-0.641036
0
LINE
8
BLACK
6
CONTINUOUS
10
1.8814
20
-0.641036
11
1.88169
21
-0.641732
0
LINE
8
BLACK
6
CONTINUOUS
10
1.88169
20
-0.641732
11
1.88169
21
-0.774016
0
LINE
8
BLACK
6
CONTINUOUS
10
1.88169
20
-0.774016
11
1.8814
21
-0.774712
0
LINE
8
BLACK
6
CONTINUOUS
10
1.8814
20
-0.774712
11
1.88071
21
-0.775
0
LINE
8
BLACK
6
CONTINUOUS
10
1.88071
20
-0.775
11
1.80591
21
-0.775
0
LINE
8
BLACK
6
CONTINUOUS
10
1.80591
20
-0.775
11
1.80521
21
-0.774712
0
LINE
8
BLACK
6
CONTINUOUS
10
1.80521
20
-0.774712
11
1.80492
21
-0.774016
0
LINE
8
BLACK
6
CONTINUOUS
10
1.80492
20
-0.774016
11
1.80492
21
-0.641732
0
LINE
8
BLACK
6
CONTINUOUS
10
1.80492
20
-0.641732
11
1.80521
21
-0.641036
0
LINE
8
BLACK
6
CONTINUOUS
10
1.80521
20
-0.641036
11
1.80591
21
-0.640748
0
LINE
8
BLACK
6
CONTINUOUS
10
1.80591
20
-0.640748
11
1.88071
21
-0.640748
0
LINE
8
BLACK
6
CONTINUOUS
10
1.80689
20
-0.642717
11
1.80689
21
-0.773031
0
LINE
8
BLACK
6
CONTINUOUS
10
1.80689
20
-0.773031
11
1.87972
21
-0.773031
0
LINE
8
BLACK
6
CONTINUOUS
10
1.87972
20
-0.773031
11
1.87972
21
-0.642717
0
LINE
8
BLACK
6
CONTINUOUS
10
1.87972
20
-0.642717
11
1.80689
21
-0.642717
0
LINE
8
BLACK
6
CONTINUOUS
10
1.63583
20
0.0187208
11
1.63652
21
0.0184325
0
LINE
8
BLACK
6
CONTINUOUS
10
1.63652
20
0.0184325
11
1.63681
21
0.0177365
0
LINE
8
BLACK
6
CONTINUOUS
10
1.63681
20
0.0177365
11
1.63681
21
-0.730295
0
LINE
8
BLACK
6
CONTINUOUS
10
1.63681
20
-0.730295
11
1.63652
21
-0.730991
0
LINE
8
BLACK
6
CONTINUOUS
10
1.63652
20
-0.730991
11
1.63583
21
-0.731279
0
LINE
8
BLACK
6
CONTINUOUS
10
1.63583
20
-0.731279
11
1.06811
21
-0.731279
0
LINE
8
BLACK
6
CONTINUOUS
10
1.06811
20
-0.731279
11
1.06741
21
-0.730991
0
LINE
8
BLACK
6
CONTINUOUS
10
1.06741
20
-0.730991
11
1.06713
21
-0.730295
0
LINE
8
BLACK
6
CONTINUOUS
10
1.06713
20
-0.730295
11
1.06713
21
-0.730295
0
LINE
8
BLACK
6
CONTINUOUS
10
1.06713
20
-0.730295
11
1.06713
21
0.0177365
0
LINE
8
BLACK
6
CONTINUOUS
10
1.06713
20
0.0177365
11
1.06741
21
0.0184325
0
LINE
8
BLACK
6
CONTINUOUS
10
1.06741
20
0.0184325
11
1.06811
21
0.0187208
0
LINE
8
BLACK
6
CONTINUOUS
10
1.06811
20
0.0187208
11
1.63583
21
0.0187208
0
LINE
8
BLACK
6
CONTINUOUS
10
1.06909
20
0.0167523
11
1.06909
21
-0.729311
0
LINE
8
BLACK
6
CONTINUOUS
10
1.06909
20
-0.729311
11
1.63484
21
-0.729311
0
LINE
8
BLACK
6
CONTINUOUS
10
1.63484
20
-0.729311
11
1.63484
21
0.0167523
0
LINE
8
BLACK
6
CONTINUOUS
10
1.63484
20
0.0167523
11
1.06909
21
0.0167523
0
LINE
8
BLACK
6
CONTINUOUS
10
2.64055
20
-0.545768
11
2.64125
21
-0.546056
0
LINE
8
BLACK
6
CONTINUOUS
10
2.64125
20
-0.546056
11
2.64154
21
-0.546752
0
LINE
8
BLACK
6
CONTINUOUS
10
2.64154
20
-0.546752
11
2.64154
21
-0.679035
0
LINE
8
BLACK
6
CONTINUOUS
10
2.64154
20
-0.679035
11
2.64125
21
-0.679731
0
LINE
8
BLACK
6
CONTINUOUS
10
2.64125
20
-0.679731
11
2.64055
21
-0.68002
0
LINE
8
BLACK
6
CONTINUOUS
10
2.64055
20
-0.68002
11
2.56575
21
-0.68002
0
LINE
8
BLACK
6
CONTINUOUS
10
2.56575
20
-0.68002
11
2.56505
21
-0.679731
0
LINE
8
BLACK
6
CONTINUOUS
10
2.56505
20
-0.679731
11
2.56476
21
-0.679035
0
LINE
8
BLACK
6
CONTINUOUS
10
2.56476
20
-0.679035
11
2.56476
21
-0.546752
0
LINE
8
BLACK
6
CONTINUOUS
10
2.56476
20
-0.546752
11
2.56505
21
-0.546056
0
LINE
8
BLACK
6
CONTINUOUS
10
2.56505
20
-0.546056
11
2.56575
21
-0.545768
0
LINE
8
BLACK
6
CONTINUOUS
10
2.56575
20
-0.545768
11
2.64055
21
-0.545768
0
LINE
8
BLACK
6
CONTINUOUS
10
2.56673
20
-0.547736
11
2.56673
21
-0.678051
0
LINE
8
BLACK
6
CONTINUOUS
10
2.56673
20
-0.678051
11
2.63957
21
-0.678051
0
LINE
8
BLACK
6
CONTINUOUS
10
2.63957
20
-0.678051
11
2.63957
21
-0.547736
0
LINE
8
BLACK
6
CONTINUOUS
10
2.63957
20
-0.547736
11
2.56673
21
-0.547736
0
LINE
8
BLACK
6
CONTINUOUS
10
1.0185
20
0.0323035
11
1.0199
21
0.0317269
0
LINE
8
BLACK
6
CONTINUOUS
10
1.0199
20
0.0317269
11
1.02047
21
0.030335
0
LINE
8
BLACK
6
CONTINUOUS
10
1.02047
20
0.030335
11
1.02047
21
-0.540076
0
LINE
8
BLACK
6
CONTINUOUS
10
1.02047
20
-0.540076
11
1.02067
21
-0.540551
0
LINE
8
BLACK
6
CONTINUOUS
10
1.02067
20
-0.540551
11
1.02067
21
-0.674409
0
LINE
8
BLACK
6
CONTINUOUS
10
1.02067
20
-0.674409
11
1.02038
21
-0.675105
0
LINE
8
BLACK
6
CONTINUOUS
10
1.02038
20
-0.675105
11
1.01969
21
-0.675394
0
LINE
8
BLACK
6
CONTINUOUS
10
1.01969
20
-0.675394
11
0.94252
21
-0.675394
0
LINE
8
BLACK
6
CONTINUOUS
10
0.94252
20
-0.675394
11
0.941824
21
-0.675105
0
LINE
8
BLACK
6
CONTINUOUS
10
0.941824
20
-0.675105
11
0.941535
21
-0.674409
0
LINE
8
BLACK
6
CONTINUOUS
10
0.941535
20
-0.674409
11
0.941535
21
-0.5425
0
LINE
8
BLACK
6
CONTINUOUS
10
0.941535
20
-0.5425
11
0.930118
21
-0.5425
0
LINE
8
BLACK
6
CONTINUOUS
10
0.930118
20
-0.5425
11
0.930118
21
-0.674409
0
LINE
8
BLACK
6
CONTINUOUS
10
0.930118
20
-0.674409
11
0.92983
21
-0.675105
0
LINE
8
BLACK
6
CONTINUOUS
10
0.92983
20
-0.675105
11
0.929134
21
-0.675394
0
LINE
8
BLACK
6
CONTINUOUS
10
0.929134
20
-0.675394
11
0.851969
21
-0.675394
0
LINE
8
BLACK
6
CONTINUOUS
10
0.851969
20
-0.675394
11
0.851273
21
-0.675105
0
LINE
8
BLACK
6
CONTINUOUS
10
0.851273
20
-0.675105
11
0.850984
21
-0.674409
0
LINE
8
BLACK
6
CONTINUOUS
10
0.850984
20
-0.674409
11
0.850984
21
-0.5425
0
LINE
8
BLACK
6
CONTINUOUS
10
0.850984
20
-0.5425
11
0.388583
21
-0.5425
0
LINE
8
BLACK
6
CONTINUOUS
10
0.388583
20
-0.5425
11
0.387191
21
-0.541923
0
LINE
8
BLACK
6
CONTINUOUS
10
0.387191
20
-0.541923
11
0.386614
21
-0.540531
0
LINE
8
BLACK
6
CONTINUOUS
10
0.386614
20
-0.540531
11
0.386614
21
-0.540531
0
LINE
8
BLACK
6
CONTINUOUS
10
0.386614
20
-0.540531
11
0.386614
21
0.030335
0
LINE
8
BLACK
6
CONTINUOUS
10
0.386614
20
0.030335
11
0.387191
21
0.0317269
0
LINE
8
BLACK
6
CONTINUOUS
10
0.387191
20
0.0317269
11
0.388583
21
0.0323035
0
LINE
8
BLACK
6
CONTINUOUS
10
0.388583
20
0.0323035
11
1.0185
21
0.0323035
0
LINE
8
BLACK
6
CONTINUOUS
10
1.0185
20
-0.5425
11
0.943504
21
-0.5425
0
LINE
8
BLACK
6
CONTINUOUS
10
0.943504
20
-0.5425
11
0.943504
21
-0.673425
0
LINE
8
BLACK
6
CONTINUOUS
10
0.943504
20
-0.673425
11
1.0187
21
-0.673425
0
LINE
8
BLACK
6
CONTINUOUS
10
1.0187
20
-0.673425
11
1.0187
21
-0.542418
0
LINE
8
BLACK
6
CONTINUOUS
10
1.0187
20
-0.542418
11
1.0185
21
-0.5425
0
LINE
8
BLACK
6
CONTINUOUS
10
0.852953
20
-0.5425
11
0.852953
21
-0.673425
0
LINE
8
BLACK
6
CONTINUOUS
10
0.852953
20
-0.673425
11
0.92815
21
-0.673425
0
LINE
8
BLACK
6
CONTINUOUS
10
0.92815
20
-0.673425
11
0.92815
21
-0.5425
0
LINE
8
BLACK
6
CONTINUOUS
10
0.92815
20
-0.5425
11
0.852953
21
-0.5425
0
LINE
8
BLACK
6
CONTINUOUS
10
0.390551
20
0.0283665
11
0.390551
21
-0.538563
0
LINE
8
BLACK
6
CONTINUOUS
10
0.390551
20
-0.538563
11
1.01654
21
-0.538563
0
LINE
8
BLACK
6
CONTINUOUS
10
1.01654
20
-0.538563
11
1.01654
21
0.0283665
0
LINE
8
BLACK
6
CONTINUOUS
10
1.01654
20
0.0283665
11
0.390551
21
0.0283665
0
LINE
8
BLACK
6
CONTINUOUS
10
2.73504
20
-0.441142
11
2.73574
21
-0.44143
0
LINE
8
BLACK
6
CONTINUOUS
10
2.73574
20
-0.44143
11
2.73602
21
-0.442126
0
LINE
8
BLACK
6
CONTINUOUS
10
2.73602
20
-0.442126
11
2.73602
21
-0.620866
0
LINE
8
BLACK
6
CONTINUOUS
10
2.73602
20
-0.620866
11
2.73574
21
-0.621562
0
LINE
8
BLACK
6
CONTINUOUS
10
2.73574
20
-0.621562
11
2.73504
21
-0.62185
0
LINE
8
BLACK
6
CONTINUOUS
10
2.73504
20
-0.62185
11
2.65236
21
-0.62185
0
LINE
8
BLACK
6
CONTINUOUS
10
2.65236
20
-0.62185
11
2.65167
21
-0.621562
0
LINE
8
BLACK
6
CONTINUOUS
10
2.65167
20
-0.621562
11
2.65138
21
-0.620866
0
LINE
8
BLACK
6
CONTINUOUS
10
2.65138
20
-0.620866
11
2.65138
21
-0.442126
0
LINE
8
BLACK
6
CONTINUOUS
10
2.65138
20
-0.442126
11
2.65167
21
-0.44143
0
LINE
8
BLACK
6
CONTINUOUS
10
2.65167
20
-0.44143
11
2.65236
21
-0.441142
0
LINE
8
BLACK
6
CONTINUOUS
10
2.65236
20
-0.441142
11
2.73504
21
-0.441142
0
LINE
8
BLACK
6
CONTINUOUS
10
2.65335
20
-0.44311
11
2.65335
21
-0.619882
0
LINE
8
BLACK
6
CONTINUOUS
10
2.65335
20
-0.619882
11
2.73406
21
-0.619882
0
LINE
8
BLACK
6
CONTINUOUS
10
2.73406
20
-0.619882
11
2.73406
21
-0.44311
0
LINE
8
BLACK
6
CONTINUOUS
10
2.73406
20
-0.44311
11
2.65335
21
-0.44311
0
LINE
8
BLACK
6
CONTINUOUS
10
2.21339
20
-0.45372
11
2.21408
21
-0.454008
0
LINE
8
BLACK
6
CONTINUOUS
10
2.21408
20
-0.454008
11
2.21437
21
-0.454704
0
LINE
8
BLACK
6
CONTINUOUS
10
2.21437
20
-0.454704
11
2.21437
21
-0.616122
0
LINE
8
BLACK
6
CONTINUOUS
10
2.21437
20
-0.616122
11
2.21408
21
-0.616818
0
LINE
8
BLACK
6
CONTINUOUS
10
2.21408
20
-0.616818
11
2.21339
21
-0.617106
0
LINE
8
BLACK
6
CONTINUOUS
10
2.21339
20
-0.617106
11
2.07953
21
-0.617106
0
LINE
8
BLACK
6
CONTINUOUS
10
2.07953
20
-0.617106
11
2.07883
21
-0.616818
0
LINE
8
BLACK
6
CONTINUOUS
10
2.07883
20
-0.616818
11
2.07854
21
-0.616122
0
LINE
8
BLACK
6
CONTINUOUS
10
2.07854
20
-0.616122
11
2.07854
21
-0.454704
0
LINE
8
BLACK
6
CONTINUOUS
10
2.07854
20
-0.454704
11
2.07883
21
-0.454008
0
LINE
8
BLACK
6
CONTINUOUS
10
2.07883
20
-0.454008
11
2.07953
21
-0.45372
0
LINE
8
BLACK
6
CONTINUOUS
10
2.07953
20
-0.45372
11
2.21339
21
-0.45372
0
LINE
8
BLACK
6
CONTINUOUS
10
2.08051
20
-0.455689
11
2.08051
21
-0.615137
0
LINE
8
BLACK
6
CONTINUOUS
10
2.08051
20
-0.615137
11
2.2124
21
-0.615137
0
LINE
8
BLACK
6
CONTINUOUS
10
2.2124
20
-0.615137
11
2.2124
21
-0.455689
0
LINE
8
BLACK
6
CONTINUOUS
10
2.2124
20
-0.455689
11
2.08051
21
-0.455689
0
LINE
8
BLACK
6
CONTINUOUS
10
1.80787
20
0.0135827
11
1.80857
21
0.0132944
0
LINE
8
BLACK
6
CONTINUOUS
10
1.80857
20
0.0132944
11
1.80886
21
0.0125984
0
LINE
8
BLACK
6
CONTINUOUS
10
1.80886
20
0.0125984
11
1.80886
21
-0.574016
0
LINE
8
BLACK
6
CONTINUOUS
10
1.80886
20
-0.574016
11
1.80857
21
-0.574712
0
LINE
8
BLACK
6
CONTINUOUS
10
1.80857
20
-0.574712
11
1.80787
21
-0.575
0
LINE
8
BLACK
6
CONTINUOUS
10
1.80787
20
-0.575
11
1.66614
21
-0.575
0
LINE
8
BLACK
6
CONTINUOUS
10
1.66614
20
-0.575
11
1.66545
21
-0.574712
0
LINE
8
BLACK
6
CONTINUOUS
10
1.66545
20
-0.574712
11
1.66516
21
-0.574016
0
LINE
8
BLACK
6
CONTINUOUS
10
1.66516
20
-0.574016
11
1.66516
21
-0.574016
0
LINE
8
BLACK
6
CONTINUOUS
10
1.66516
20
-0.574016
11
1.66516
21
0.0125984
0
LINE
8
BLACK
6
CONTINUOUS
10
1.66516
20
0.0125984
11
1.66545
21
0.0132944
0
LINE
8
BLACK
6
CONTINUOUS
10
1.66545
20
0.0132944
11
1.66614
21
0.0135827
0
LINE
8
BLACK
6
CONTINUOUS
10
1.66614
20
0.0135827
11
1.80787
21
0.0135827
0
LINE
8
BLACK
6
CONTINUOUS
10
1.66713
20
0.0116142
11
1.66713
21
-0.573031
0
LINE
8
BLACK
6
CONTINUOUS
10
1.66713
20
-0.573031
11
1.80689
21
-0.573031
0
LINE
8
BLACK
6
CONTINUOUS
10
1.80689
20
-0.573031
11
1.80689
21
0.0116142
0
LINE
8
BLACK
6
CONTINUOUS
10
1.80689
20
0.0116142
11
1.66713
21
0.0116142
0
LINE
8
BLACK
6
CONTINUOUS
10
1.95354
20
0.0175197
11
1.95424
21
0.0172314
0
LINE
8
BLACK
6
CONTINUOUS
10
1.95424
20
0.0172314
11
1.95453
21
0.0165354
0
LINE
8
BLACK
6
CONTINUOUS
10
1.95453
20
0.0165354
11
1.95453
21
-0.350886
0
LINE
8
BLACK
6
CONTINUOUS
10
1.95453
20
-0.350886
11
1.95482
21
-0.35019
0
LINE
8
BLACK
6
CONTINUOUS
10
1.95482
20
-0.35019
11
1.95551
21
-0.349902
0
LINE
8
BLACK
6
CONTINUOUS
10
1.95551
20
-0.349902
11
2.03031
21
-0.349902
0
LINE
8
BLACK
6
CONTINUOUS
10
2.03031
20
-0.349902
11
2.03101
21
-0.35019
0
LINE
8
BLACK
6
CONTINUOUS
10
2.03101
20
-0.35019
11
2.0313
21
-0.350886
0
LINE
8
BLACK
6
CONTINUOUS
10
2.0313
20
-0.350886
11
2.0313
21
-0.483169
0
LINE
8
BLACK
6
CONTINUOUS
10
2.0313
20
-0.483169
11
2.03101
21
-0.483865
0
LINE
8
BLACK
6
CONTINUOUS
10
2.03101
20
-0.483865
11
2.03031
21
-0.484154
0
LINE
8
BLACK
6
CONTINUOUS
10
2.03031
20
-0.484154
11
1.95551
21
-0.484154
0
LINE
8
BLACK
6
CONTINUOUS
10
1.95551
20
-0.484154
11
1.95482
21
-0.483865
0
LINE
8
BLACK
6
CONTINUOUS
10
1.95482
20
-0.483865
11
1.95453
21
-0.483169
0
LINE
8
BLACK
6
CONTINUOUS
10
1.95453
20
-0.483169
11
1.95453
21
-0.570079
0
LINE
8
BLACK
6
CONTINUOUS
10
1.95453
20
-0.570079
11
1.95424
21
-0.570775
0
LINE
8
BLACK
6
CONTINUOUS
10
1.95424
20
-0.570775
11
1.95354
21
-0.571063
0
LINE
8
BLACK
6
CONTINUOUS
10
1.95354
20
-0.571063
11
1.81181
21
-0.571063
0
LINE
8
BLACK
6
CONTINUOUS
10
1.81181
20
-0.571063
11
1.81112
21
-0.570775
0
LINE
8
BLACK
6
CONTINUOUS
10
1.81112
20
-0.570775
11
1.81083
21
-0.570079
0
LINE
8
BLACK
6
CONTINUOUS
10
1.81083
20
-0.570079
11
1.81083
21
0.0165354
0
LINE
8
BLACK
6
CONTINUOUS
10
1.81083
20
0.0165354
11
1.81112
21
0.0172314
0
LINE
8
BLACK
6
CONTINUOUS
10
1.81112
20
0.0172314
11
1.81181
21
0.0175197
0
LINE
8
BLACK
6
CONTINUOUS
10
1.81181
20
0.0175197
11
1.95354
21
0.0175197
0
LINE
8
BLACK
6
CONTINUOUS
10
1.8128
20
0.0155512
11
1.8128
21
-0.569094
0
LINE
8
BLACK
6
CONTINUOUS
10
1.8128
20
-0.569094
11
1.95256
21
-0.569094
0
LINE
8
BLACK
6
CONTINUOUS
10
1.95256
20
-0.569094
11
1.95256
21
0.0155512
0
LINE
8
BLACK
6
CONTINUOUS
10
1.95256
20
0.0155512
11
1.8128
21
0.0155512
0
LINE
8
BLACK
6
CONTINUOUS
10
1.9565
20
-0.35187
11
1.9565
21
-0.482185
0
LINE
8
BLACK
6
CONTINUOUS
10
1.9565
20
-0.482185
11
2.02933
21
-0.482185
0
LINE
8
BLACK
6
CONTINUOUS
10
2.02933
20
-0.482185
11
2.02933
21
-0.35187
0
LINE
8
BLACK
6
CONTINUOUS
10
2.02933
20
-0.35187
11
1.9565
21
-0.35187
0
LINE
8
BLACK
6
CONTINUOUS
10
0.349902
20
-0.410433
11
0.350598
21
-0.410721
0
LINE
8
BLACK
6
CONTINUOUS
10
0.350598
20
-0.410721
11
0.350886
21
-0.411417
0
LINE
8
BLACK
6
CONTINUOUS
10
0.350886
20
-0.411417
11
0.350886
21
-0.564961
0
LINE
8
BLACK
6
CONTINUOUS
10
0.350886
20
-0.564961
11
0.350598
21
-0.565657
0
LINE
8
BLACK
6
CONTINUOUS
10
0.350598
20
-0.565657
11
0.349902
21
-0.565945
0
LINE
8
BLACK
6
CONTINUOUS
10
0.349902
20
-0.565945
11
0.117618
21
-0.565945
0
LINE
8
BLACK
6
CONTINUOUS
10
0.117618
20
-0.565945
11
0.116922
21
-0.565657
0
LINE
8
BLACK
6
CONTINUOUS
10
0.116922
20
-0.565657
11
0.116634
21
-0.564961
0
LINE
8
BLACK
6
CONTINUOUS
10
0.116634
20
-0.564961
11
0.116634
21
-0.411417
0
LINE
8
BLACK
6
CONTINUOUS
10
0.116634
20
-0.411417
11
0.116922
21
-0.410721
0
LINE
8
BLACK
6
CONTINUOUS
10
0.116922
20
-0.410721
11
0.117618
21
-0.410433
0
LINE
8
BLACK
6
CONTINUOUS
10
0.117618
20
-0.410433
11
0.349902
21
-0.410433
0
LINE
8
BLACK
6
CONTINUOUS
10
0.118602
20
-0.412402
11
0.118602
21
-0.563976
0
LINE
8
BLACK
6
CONTINUOUS
10
0.118602
20
-0.563976
11
0.348917
21
-0.563976
0
LINE
8
BLACK
6
CONTINUOUS
10
0.348917
20
-0.563976
11
0.348917
21
-0.412402
0
LINE
8
BLACK
6
CONTINUOUS
10
0.348917
20
-0.412402
11
0.118602
21
-0.412402
0
LINE
8
BLACK
6
CONTINUOUS
10
2.37057
20
-0.389961
11
2.37127
21
-0.390249
0
LINE
8
BLACK
6
CONTINUOUS
10
2.37127
20
-0.390249
11
2.37156
21
-0.390945
0
LINE
8
BLACK
6
CONTINUOUS
10
2.37156
20
-0.390945
11
2.37156
21
-0.465748
0
LINE
8
BLACK
6
CONTINUOUS
10
2.37156
20
-0.465748
11
2.37127
21
-0.466444
0
LINE
8
BLACK
6
CONTINUOUS
10
2.37127
20
-0.466444
11
2.37057
21
-0.466732
0
LINE
8
BLACK
6
CONTINUOUS
10
2.37057
20
-0.466732
11
2.23829
21
-0.466732
0
LINE
8
BLACK
6
CONTINUOUS
10
2.23829
20
-0.466732
11
2.23759
21
-0.466444
0
LINE
8
BLACK
6
CONTINUOUS
10
2.23759
20
-0.466444
11
2.2373
21
-0.465748
0
LINE
8
BLACK
6
CONTINUOUS
10
2.2373
20
-0.465748
11
2.2373
21
-0.390945
0
LINE
8
BLACK
6
CONTINUOUS
10
2.2373
20
-0.390945
11
2.23759
21
-0.390249
0
LINE
8
BLACK
6
CONTINUOUS
10
2.23759
20
-0.390249
11
2.23829
21
-0.389961
0
LINE
8
BLACK
6
CONTINUOUS
10
2.23829
20
-0.389961
11
2.37057
21
-0.389961
0
LINE
8
BLACK
6
CONTINUOUS
10
2.23927
20
-0.391929
11
2.23927
21
-0.464764
0
LINE
8
BLACK
6
CONTINUOUS
10
2.23927
20
-0.464764
11
2.36959
21
-0.464764
0
LINE
8
BLACK
6
CONTINUOUS
10
2.36959
20
-0.464764
11
2.36959
21
-0.391929
0
LINE
8
BLACK
6
CONTINUOUS
10
2.36959
20
-0.391929
11
2.23927
21
-0.391929
0
LINE
8
BLACK
6
CONTINUOUS
10
0.210364
20
-0.0600014
11
0.224508
21
-0.0622416
0
LINE
8
BLACK
6
CONTINUOUS
10
0.224508
20
-0.0622416
11
0.23834
21
-0.065948
0
LINE
8
BLACK
6
CONTINUOUS
10
0.23834
20
-0.065948
11
0.251709
21
-0.0710799
0
LINE
8
BLACK
6
CONTINUOUS
10
0.251709
20
-0.0710799
11
0.264469
21
-0.0775812
0
LINE
8
BLACK
6
CONTINUOUS
10
0.264469
20
-0.0775812
11
0.276479
21
-0.0853806
0
LINE
8
BLACK
6
CONTINUOUS
10
0.276479
20
-0.0853806
11
0.287607
21
-0.0943926
0
LINE
8
BLACK
6
CONTINUOUS
10
0.287607
20
-0.0943926
11
0.297733
21
-0.104519
0
LINE
8
BLACK
6
CONTINUOUS
10
0.297733
20
-0.104519
11
0.306745
21
-0.115647
0
LINE
8
BLACK
6
CONTINUOUS
10
0.306745
20
-0.115647
11
0.314545
21
-0.127657
0
LINE
8
BLACK
6
CONTINUOUS
10
0.314545
20
-0.127657
11
0.321046
21
-0.140417
0
LINE
8
BLACK
6
CONTINUOUS
10
0.321046
20
-0.140417
11
0.326178
21
-0.153786
0
LINE
8
BLACK
6
CONTINUOUS
10
0.326178
20
-0.153786
11
0.329884
21
-0.167618
0
LINE
8
BLACK
6
CONTINUOUS
10
0.329884
20
-0.167618
11
0.332125
21
-0.181762
0
LINE
8
BLACK
6
CONTINUOUS
10
0.332125
20
-0.181762
11
0.332874
21
-0.196063
0
LINE
8
BLACK
6
CONTINUOUS
10
0.332874
20
-0.196063
11
0.332125
21
-0.210364
0
LINE
8
BLACK
6
CONTINUOUS
10
0.332125
20
-0.210364
11
0.329884
21
-0.224508
0
LINE
8
BLACK
6
CONTINUOUS
10
0.329884
20
-0.224508
11
0.326178
21
-0.23834
0
LINE
8
BLACK
6
CONTINUOUS
10
0.326178
20
-0.23834
11
0.321046
21
-0.251709
0
LINE
8
BLACK
6
CONTINUOUS
10
0.321046
20
-0.251709
11
0.314545
21
-0.264469
0
LINE
8
BLACK
6
CONTINUOUS
10
0.314545
20
-0.264469
11
0.306745
21
-0.276479
0
LINE
8
BLACK
6
CONTINUOUS
10
0.306745
20
-0.276479
11
0.297733
21
-0.287607
0
LINE
8
BLACK
6
CONTINUOUS
10
0.297733
20
-0.287607
11
0.287607
21
-0.297733
0
LINE
8
BLACK
6
CONTINUOUS
10
0.287607
20
-0.297733
11
0.276479
21
-0.306745
0
LINE
8
BLACK
6
CONTINUOUS
10
0.276479
20
-0.306745
11
0.264469
21
-0.314545
0
LINE
8
BLACK
6
CONTINUOUS
10
0.264469
20
-0.314545
11
0.251709
21
-0.321046
0
LINE
8
BLACK
6
CONTINUOUS
10
0.251709
20
-0.321046
11
0.23834
21
-0.326178
0
LINE
8
BLACK
6
CONTINUOUS
10
0.23834
20
-0.326178
11
0.224508
21
-0.329884
0
LINE
8
BLACK
6
CONTINUOUS
10
0.224508
20
-0.329884
11
0.210364
21
-0.332125
0
LINE
8
BLACK
6
CONTINUOUS
10
0.210364
20
-0.332125
11
0.196063
21
-0.332874
0
LINE
8
BLACK
6
CONTINUOUS
10
0.196063
20
-0.332874
11
0.181762
21
-0.332125
0
LINE
8
BLACK
6
CONTINUOUS
10
0.181762
20
-0.332125
11
0.167618
21
-0.329884
0
LINE
8
BLACK
6
CONTINUOUS
10
0.167618
20
-0.329884
11
0.153786
21
-0.326178
0
LINE
8
BLACK
6
CONTINUOUS
10
0.153786
20
-0.326178
11
0.140417
21
-0.321046
0
LINE
8
BLACK
6
CONTINUOUS
10
0.140417
20
-0.321046
11
0.127657
21
-0.314545
0
LINE
8
BLACK
6
CONTINUOUS
10
0.127657
20
-0.314545
11
0.115647
21
-0.306745
0
LINE
8
BLACK
6
CONTINUOUS
10
0.115647
20
-0.306745
11
0.104519
21
-0.297733
0
LINE
8
BLACK
6
CONTINUOUS
10
0.104519
20
-0.297733
11
0.0943926
21
-0.287607
0
LINE
8
BLACK
6
CONTINUOUS
10
0.0943926
20
-0.287607
11
0.0853806
21
-0.276479
0
LINE
8
BLACK
6
CONTINUOUS
10
0.0853806
20
-0.276479
11
0.0775812
21
-0.264469
0
LINE
8
BLACK
6
CONTINUOUS
10
0.0775812
20
-0.264469
11
0.0710799
21
-0.251709
0
LINE
8
BLACK
6
CONTINUOUS
10
0.0710799
20
-0.251709
11
0.065948
21
-0.23834
0
LINE
8
BLACK
6
CONTINUOUS
10
0.065948
20
-0.23834
11
0.0622416
21
-0.224508
0
LINE
8
BLACK
6
CONTINUOUS
10
0.0622416
20
-0.224508
11
0.0600014
21
-0.210364
0
LINE
8
BLACK
6
CONTINUOUS
10
0.0600014
20
-0.210364
11
0.059252
21
-0.196063
0
LINE
8
BLACK
6
CONTINUOUS
10
0.059252
20
-0.196063
11
0.0600014
21
-0.181762
0
LINE
8
BLACK
6
CONTINUOUS
10
0.0600014
20
-0.181762
11
0.0622416
21
-0.167618
0
LINE
8
BLACK
6
CONTINUOUS
10
0.0622416
20
-0.167618
11
0.065948
21
-0.153786
0
LINE
8
BLACK
6
CONTINUOUS
10
0.065948
20
-0.153786
11
0.0710799
21
-0.140417
0
LINE
8
BLACK
6
CONTINUOUS
10
0.0710799
20
-0.140417
11
0.0775812
21
-0.127657
0
LINE
8
BLACK
6
CONTINUOUS
10
0.0775812
20
-0.127657
11
0.0853806
21
-0.115647
0
LINE
8
BLACK
6
CONTINUOUS
10
0.0853806
20
-0.115647
11
0.0943926
21
-0.104519
0
LINE
8
BLACK
6
CONTINUOUS
10
0.0943926
20
-0.104519
11
0.104519
21
-0.0943926
0
LINE
8
BLACK
6
CONTINUOUS
10
0.104519
20
-0.0943926
11
0.115647
21
-0.0853806
0
LINE
8
BLACK
6
CONTINUOUS
10
0.115647
20
-0.0853806
11
0.127657
21
-0.0775812
0
LINE
8
BLACK
6
CONTINUOUS
10
0.127657
20
-0.0775812
11
0.140417
21
-0.0710799
0
LINE
8
BLACK
6
CONTINUOUS
10
0.140417
20
-0.0710799
11
0.153786
21
-0.065948
0
LINE
8
BLACK
6
CONTINUOUS
10
0.153786
20
-0.065948
11
0.167618
21
-0.0622416
0
LINE
8
BLACK
6
CONTINUOUS
10
0.167618
20
-0.0622416
11
0.181762
21
-0.0600014
0
LINE
8
BLACK
6
CONTINUOUS
10
0.181762
20
-0.0600014
11
0.196063
21
-0.059252
0
LINE
8
BLACK
6
CONTINUOUS
10
0.196063
20
-0.059252
11
0.210364
21
-0.0600014
0
LINE
8
BLACK
6
CONTINUOUS
10
0.0618141
20
-0.210663
11
0.0641796
21
-0.225093
0
LINE
8
BLACK
6
CONTINUOUS
10
0.0641796
20
-0.225093
11
0.0680914
21
-0.239182
0
LINE
8
BLACK
6
CONTINUOUS
10
0.0680914
20
-0.239182
11
0.0735035
21
-0.252765
0
LINE
8
BLACK
6
CONTINUOUS
10
0.0735035
20
-0.252765
11
0.0803525
21
-0.265684
0
LINE
8
BLACK
6
CONTINUOUS
10
0.0803525
20
-0.265684
11
0.0885581
21
-0.277786
0
LINE
8
BLACK
6
CONTINUOUS
10
0.0885581
20
-0.277786
11
0.0980242
21
-0.28893
0
LINE
8
BLACK
6
CONTINUOUS
10
0.0980242
20
-0.28893
11
0.10864
21
-0.298986
0
LINE
8
BLACK
6
CONTINUOUS
10
0.10864
20
-0.298986
11
0.12028
21
-0.307835
0
LINE
8
BLACK
6
CONTINUOUS
10
0.12028
20
-0.307835
11
0.132809
21
-0.315373
0
LINE
8
BLACK
6
CONTINUOUS
10
0.132809
20
-0.315373
11
0.146079
21
-0.321513
0
LINE
8
BLACK
6
CONTINUOUS
10
0.146079
20
-0.321513
11
0.159936
21
-0.326181
0
LINE
8
BLACK
6
CONTINUOUS
10
0.159936
20
-0.326181
11
0.174216
21
-0.329325
0
LINE
8
BLACK
6
CONTINUOUS
10
0.174216
20
-0.329325
11
0.188752
21
-0.330906
0
LINE
8
BLACK
6
CONTINUOUS
10
0.188752
20
-0.330906
11
0.203374
21
-0.330906
0
LINE
8
BLACK
6
CONTINUOUS
10
0.203374
20
-0.330906
11
0.21791
21
-0.329325
0
LINE
8
BLACK
6
CONTINUOUS
10
0.21791
20
-0.329325
11
0.23219
21
-0.326181
0
LINE
8
BLACK
6
CONTINUOUS
10
0.23219
20
-0.326181
11
0.246047
21
-0.321513
0
LINE
8
BLACK
6
CONTINUOUS
10
0.246047
20
-0.321513
11
0.259317
21
-0.315373
0
LINE
8
BLACK
6
CONTINUOUS
10
0.259317
20
-0.315373
11
0.271846
21
-0.307835
0
LINE
8
BLACK
6
CONTINUOUS
10
0.271846
20
-0.307835
11
0.283486
21
-0.298986
0
LINE
8
BLACK
6
CONTINUOUS
10
0.283486
20
-0.298986
11
0.294102
21
-0.28893
0
LINE
8
BLACK
6
CONTINUOUS
10
0.294102
20
-0.28893
11
0.303568
21
-0.277786
0
LINE
8
BLACK
6
CONTINUOUS
10
0.303568
20
-0.277786
11
0.311773
21
-0.265684
0
LINE
8
BLACK
6
CONTINUOUS
10
0.311773
20
-0.265684
11
0.318622
21
-0.252765
0
LINE
8
BLACK
6
CONTINUOUS
10
0.318622
20
-0.252765
11
0.324035
21
-0.239182
0
LINE
8
BLACK
6
CONTINUOUS
10
0.324035
20
-0.239182
11
0.327946
21
-0.225093
0
LINE
8
BLACK
6
CONTINUOUS
10
0.327946
20
-0.225093
11
0.330312
21
-0.210663
0
LINE
8
BLACK
6
CONTINUOUS
10
0.330312
20
-0.210663
11
0.331104
21
-0.196063
0
LINE
8
BLACK
6
CONTINUOUS
10
0.331104
20
-0.196063
11
0.330312
21
-0.181463
0
LINE
8
BLACK
6
CONTINUOUS
10
0.330312
20
-0.181463
11
0.327946
21
-0.167033
0
LINE
8
BLACK
6
CONTINUOUS
10
0.327946
20
-0.167033
11
0.324035
21
-0.152944
0
LINE
8
BLACK
6
CONTINUOUS
10
0.324035
20
-0.152944
11
0.318622
21
-0.139361
0
LINE
8
BLACK
6
CONTINUOUS
10
0.318622
20
-0.139361
11
0.311773
21
-0.126442
0
LINE
8
BLACK
6
CONTINUOUS
10
0.311773
20
-0.126442
11
0.303568
21
-0.11434
0
LINE
8
BLACK
6
CONTINUOUS
10
0.303568
20
-0.11434
11
0.294102
21
-0.103196
0
LINE
8
BLACK
6
CONTINUOUS
10
0.294102
20
-0.103196
11
0.283486
21
-0.0931402
0
LINE
8
BLACK
6
CONTINUOUS
10
0.283486
20
-0.0931402
11
0.271846
21
-0.0842914
0
LINE
8
BLACK
6
CONTINUOUS
10
0.271846
20
-0.0842914
11
0.259317
21
-0.076753
0
LINE
8
BLACK
6
CONTINUOUS
10
0.259317
20
-0.076753
11
0.246047
21
-0.0706135
0
LINE
8
BLACK
6
CONTINUOUS
10
0.246047
20
-0.0706135
11
0.23219
21
-0.0659447
0
LINE
8
BLACK
6
CONTINUOUS
10
0.23219
20
-0.0659447
11
0.21791
21
-0.0628014
0
LINE
8
BLACK
6
CONTINUOUS
10
0.21791
20
-0.0628014
11
0.203374
21
-0.0612205
0
LINE
8
BLACK
6
CONTINUOUS
10
0.203374
20
-0.0612205
11
0.188752
21
-0.0612205
0
LINE
8
BLACK
6
CONTINUOUS
10
0.188752
20
-0.0612205
11
0.174216
21
-0.0628014
0
LINE
8
BLACK
6
CONTINUOUS
10
0.174216
20
-0.0628014
11
0.159936
21
-0.0659447
0
LINE
8
BLACK
6
CONTINUOUS
10
0.159936
20
-0.0659447
11
0.146079
21
-0.0706135
0
LINE
8
BLACK
6
CONTINUOUS
10
0.146079
20
-0.0706135
11
0.132809
21
-0.076753
0
LINE
8
BLACK
6
CONTINUOUS
10
0.132809
20
-0.076753
11
0.12028
21
-0.0842914
0
LINE
8
BLACK
6
CONTINUOUS
10
0.12028
20
-0.0842914
11
0.10864
21
-0.0931402
0
LINE
8
BLACK
6
CONTINUOUS
10
0.10864
20
-0.0931402
11
0.0980242
21
-0.103196
0
LINE
8
BLACK
6
CONTINUOUS
10
0.0980242
20
-0.103196
11
0.0885581
21
-0.11434
0
LINE
8
BLACK
6
CONTINUOUS
10
0.0885581
20
-0.11434
11
0.0803525
21
-0.126442
0
LINE
8
BLACK
6
CONTINUOUS
10
0.0803525
20
-0.126442
11
0.0735035
21
-0.139361
0
LINE
8
BLACK
6
CONTINUOUS
10
0.0735035
20
-0.139361
11
0.0680914
21
-0.152944
0
LINE
8
BLACK
6
CONTINUOUS
10
0.0680914
20
-0.152944
11
0.0641796
21
-0.167033
0
LINE
8
BLACK
6
CONTINUOUS
10
0.0641796
20
-0.167033
11
0.0618141
21
-0.181463
0
LINE
8
BLACK
6
CONTINUOUS
10
0.0618141
20
-0.181463
11
0.0610224
21
-0.196063
0
LINE
8
BLACK
6
CONTINUOUS
10
0.0610224
20
-0.196063
11
0.0618141
21
-0.210663
0
LINE
8
BLACK
6
CONTINUOUS
10
2.61036
20
-0.0600014
11
2.62451
21
-0.0622416
0
LINE
8
BLACK
6
CONTINUOUS
10
2.62451
20
-0.0622416
11
2.63834
21
-0.065948
0
LINE
8
BLACK
6
CONTINUOUS
10
2.63834
20
-0.065948
11
2.65171
21
-0.0710799
0
LINE
8
BLACK
6
CONTINUOUS
10
2.65171
20
-0.0710799
11
2.66447
21
-0.0775812
0
LINE
8
BLACK
6
CONTINUOUS
10
2.66447
20
-0.0775812
11
2.67648
21
-0.0853806
0
LINE
8
BLACK
6
CONTINUOUS
10
2.67648
20
-0.0853806
11
2.68761
21
-0.0943926
0
LINE
8
BLACK
6
CONTINUOUS
10
2.68761
20
-0.0943926
11
2.69773
21
-0.104519
0
LINE
8
BLACK
6
CONTINUOUS
10
2.69773
20
-0.104519
11
2.70675
21
-0.115647
0
LINE
8
BLACK
6
CONTINUOUS
10
2.70675
20
-0.115647
11
2.71454
21
-0.127657
0
LINE
8
BLACK
6
CONTINUOUS
10
2.71454
20
-0.127657
11
2.72105
21
-0.140417
0
LINE
8
BLACK
6
CONTINUOUS
10
2.72105
20
-0.140417
11
2.72618
21
-0.153786
0
LINE
8
BLACK
6
CONTINUOUS
10
2.72618
20
-0.153786
11
2.72988
21
-0.167618
0
LINE
8
BLACK
6
CONTINUOUS
10
2.72988
20
-0.167618
11
2.73212
21
-0.181762
0
LINE
8
BLACK
6
CONTINUOUS
10
2.73212
20
-0.181762
11
2.73287
21
-0.196063
0
LINE
8
BLACK
6
CONTINUOUS
10
2.73287
20
-0.196063
11
2.73212
21
-0.210364
0
LINE
8
BLACK
6
CONTINUOUS
10
2.73212
20
-0.210364
11
2.72988
21
-0.224508
0
LINE
8
BLACK
6
CONTINUOUS
10
2.72988
20
-0.224508
11
2.72618
21
-0.23834
0
LINE
8
BLACK
6
CONTINUOUS
10
2.72618
20
-0.23834
11
2.72105
21
-0.251709
0
LINE
8
BLACK
6
CONTINUOUS
10
2.72105
20
-0.251709
11
2.71454
21
-0.264469
0
LINE
8
BLACK
6
CONTINUOUS
10
2.71454
20
-0.264469
11
2.70675
21
-0.276479
0
LINE
8
BLACK
6
CONTINUOUS
10
2.70675
20
-0.276479
11
2.69773
21
-0.287607
0
LINE
8
BLACK
6
CONTINUOUS
10
2.69773
20
-0.287607
11
2.68761
21
-0.297733
0
LINE
8
BLACK
6
CONTINUOUS
10
2.68761
20
-0.297733
11
2.67648
21
-0.306745
0
LINE
8
BLACK
6
CONTINUOUS
10
2.67648
20
-0.306745
11
2.66447
21
-0.314545
0
LINE
8
BLACK
6
CONTINUOUS
10
2.66447
20
-0.314545
11
2.65171
21
-0.321046
0
LINE
8
BLACK
6
CONTINUOUS
10
2.65171
20
-0.321046
11
2.63834
21
-0.326178
0
LINE
8
BLACK
6
CONTINUOUS
10
2.63834
20
-0.326178
11
2.62451
21
-0.329884
0
LINE
8
BLACK
6
CONTINUOUS
10
2.62451
20
-0.329884
11
2.61036
21
-0.332125
0
LINE
8
BLACK
6
CONTINUOUS
10
2.61036
20
-0.332125
11
2.59606
21
-0.332874
0
LINE
8
BLACK
6
CONTINUOUS
10
2.59606
20
-0.332874
11
2.58176
21
-0.332125
0
LINE
8
BLACK
6
CONTINUOUS
10
2.58176
20
-0.332125
11
2.56762
21
-0.329884
0
LINE
8
BLACK
6
CONTINUOUS
10
2.56762
20
-0.329884
11
2.55379
21
-0.326178
0
LINE
8
BLACK
6
CONTINUOUS
10
2.55379
20
-0.326178
11
2.54042
21
-0.321046
0
LINE
8
BLACK
6
CONTINUOUS
10
2.54042
20
-0.321046
11
2.52766
21
-0.314545
0
LINE
8
BLACK
6
CONTINUOUS
10
2.52766
20
-0.314545
11
2.51565
21
-0.306745
0
LINE
8
BLACK
6
CONTINUOUS
10
2.51565
20
-0.306745
11
2.50452
21
-0.297733
0
LINE
8
BLACK
6
CONTINUOUS
10
2.50452
20
-0.297733
11
2.49439
21
-0.287607
0
LINE
8
BLACK
6
CONTINUOUS
10
2.49439
20
-0.287607
11
2.48538
21
-0.276479
0
LINE
8
BLACK
6
CONTINUOUS
10
2.48538
20
-0.276479
11
2.47758
21
-0.264469
0
LINE
8
BLACK
6
CONTINUOUS
10
2.47758
20
-0.264469
11
2.47108
21
-0.251709
0
LINE
8
BLACK
6
CONTINUOUS
10
2.47108
20
-0.251709
11
2.46595
21
-0.23834
0
LINE
8
BLACK
6
CONTINUOUS
10
2.46595
20
-0.23834
11
2.46224
21
-0.224508
0
LINE
8
BLACK
6
CONTINUOUS
10
2.46224
20
-0.224508
11
2.46
21
-0.210364
0
LINE
8
BLACK
6
CONTINUOUS
10
2.46
20
-0.210364
11
2.45925
21
-0.196063
0
LINE
8
BLACK
6
CONTINUOUS
10
2.45925
20
-0.196063
11
2.46
21
-0.181762
0
LINE
8
BLACK
6
CONTINUOUS
10
2.46
20
-0.181762
11
2.46224
21
-0.167618
0
LINE
8
BLACK
6
CONTINUOUS
10
2.46224
20
-0.167618
11
2.46595
21
-0.153786
0
LINE
8
BLACK
6
CONTINUOUS
10
2.46595
20
-0.153786
11
2.47108
21
-0.140417
0
LINE
8
BLACK
6
CONTINUOUS
10
2.47108
20
-0.140417
11
2.47758
21
-0.127657
0
LINE
8
BLACK
6
CONTINUOUS
10
2.47758
20
-0.127657
11
2.48538
21
-0.115647
0
LINE
8
BLACK
6
CONTINUOUS
10
2.48538
20
-0.115647
11
2.49439
21
-0.104519
0
LINE
8
BLACK
6
CONTINUOUS
10
2.49439
20
-0.104519
11
2.50452
21
-0.0943926
0
LINE
8
BLACK
6
CONTINUOUS
10
2.50452
20
-0.0943926
11
2.51565
21
-0.0853806
0
LINE
8
BLACK
6
CONTINUOUS
10
2.51565
20
-0.0853806
11
2.52766
21
-0.0775812
0
LINE
8
BLACK
6
CONTINUOUS
10
2.52766
20
-0.0775812
11
2.54042
21
-0.0710799
0
LINE
8
BLACK
6
CONTINUOUS
10
2.54042
20
-0.0710799
11
2.55379
21
-0.065948
0
LINE
8
BLACK
6
CONTINUOUS
10
2.55379
20
-0.065948
11
2.56762
21
-0.0622416
0
LINE
8
BLACK
6
CONTINUOUS
10
2.56762
20
-0.0622416
11
2.58176
21
-0.0600014
0
LINE
8
BLACK
6
CONTINUOUS
10
2.58176
20
-0.0600014
11
2.59606
21
-0.059252
0
LINE
8
BLACK
6
CONTINUOUS
10
2.59606
20
-0.059252
11
2.61036
21
-0.0600014
0
LINE
8
BLACK
6
CONTINUOUS
10
2.46181
20
-0.210663
11
2.46418
21
-0.225093
0
LINE
8
BLACK
6
CONTINUOUS
10
2.46418
20
-0.225093
11
2.46809
21
-0.239182
0
LINE
8
BLACK
6
CONTINUOUS
10
2.46809
20
-0.239182
11
2.4735
21
-0.252765
0
LINE
8
BLACK
6
CONTINUOUS
10
2.4735
20
-0.252765
11
2.48035
21
-0.265684
0
LINE
8
BLACK
6
CONTINUOUS
10
2.48035
20
-0.265684
11
2.48856
21
-0.277786
0
LINE
8
BLACK
6
CONTINUOUS
10
2.48856
20
-0.277786
11
2.49802
21
-0.28893
0
LINE
8
BLACK
6
CONTINUOUS
10
2.49802
20
-0.28893
11
2.50864
21
-0.298986
0
LINE
8
BLACK
6
CONTINUOUS
10
2.50864
20
-0.298986
11
2.52028
21
-0.307835
0
LINE
8
BLACK
6
CONTINUOUS
10
2.52028
20
-0.307835
11
2.53281
21
-0.315373
0
LINE
8
BLACK
6
CONTINUOUS
10
2.53281
20
-0.315373
11
2.54608
21
-0.321513
0
LINE
8
BLACK
6
CONTINUOUS
10
2.54608
20
-0.321513
11
2.55994
21
-0.326181
0
LINE
8
BLACK
6
CONTINUOUS
10
2.55994
20
-0.326181
11
2.57422
21
-0.329325
0
LINE
8
BLACK
6
CONTINUOUS
10
2.57422
20
-0.329325
11
2.58875
21
-0.330906
0
LINE
8
BLACK
6
CONTINUOUS
10
2.58875
20
-0.330906
11
2.60337
21
-0.330906
0
LINE
8
BLACK
6
CONTINUOUS
10
2.60337
20
-0.330906
11
2.61791
21
-0.329325
0
LINE
8
BLACK
6
CONTINUOUS
10
2.61791
20
-0.329325
11
2.63219
21
-0.326181
0
LINE
8
BLACK
6
CONTINUOUS
10
2.63219
20
-0.326181
11
2.64605
21
-0.321513
0
LINE
8
BLACK
6
CONTINUOUS
10
2.64605
20
-0.321513
11
2.65932
21
-0.315373
0
LINE
8
BLACK
6
CONTINUOUS
10
2.65932
20
-0.315373
11
2.67185
21
-0.307835
0
LINE
8
BLACK
6
CONTINUOUS
10
2.67185
20
-0.307835
11
2.68349
21
-0.298986
0
LINE
8
BLACK
6
CONTINUOUS
10
2.68349
20
-0.298986
11
2.6941
21
-0.28893
0
LINE
8
BLACK
6
CONTINUOUS
10
2.6941
20
-0.28893
11
2.70357
21
-0.277786
0
LINE
8
BLACK
6
CONTINUOUS
10
2.70357
20
-0.277786
11
2.71177
21
-0.265684
0
LINE
8
BLACK
6
CONTINUOUS
10
2.71177
20
-0.265684
11
2.71862
21
-0.252765
0
LINE
8
BLACK
6
CONTINUOUS
10
2.71862
20
-0.252765
11
2.72403
21
-0.239182
0
LINE
8
BLACK
6
CONTINUOUS
10
2.72403
20
-0.239182
11
2.72795
21
-0.225093
0
LINE
8
BLACK
6
CONTINUOUS
10
2.72795
20
-0.225093
11
2.73031
21
-0.210663
0
LINE
8
BLACK
6
CONTINUOUS
10
2.73031
20
-0.210663
11
2.7311
21
-0.196063
0
LINE
8
BLACK
6
CONTINUOUS
10
2.7311
20
-0.196063
11
2.73031
21
-0.181463
0
LINE
8
BLACK
6
CONTINUOUS
10
2.73031
20
-0.181463
11
2.72795
21
-0.167033
0
LINE
8
BLACK
6
CONTINUOUS
10
2.72795
20
-0.167033
11
2.72403
21
-0.152944
0
LINE
8
BLACK
6
CONTINUOUS
10
2.72403
20
-0.152944
11
2.71862
21
-0.139361
0
LINE
8
BLACK
6
CONTINUOUS
10
2.71862
20
-0.139361
11
2.71177
21
-0.126442
0
LINE
8
BLACK
6
CONTINUOUS
10
2.71177
20
-0.126442
11
2.70357
21
-0.11434
0
LINE
8
BLACK
6
CONTINUOUS
10
2.70357
20
-0.11434
11
2.6941
21
-0.103196
0
LINE
8
BLACK
6
CONTINUOUS
10
2.6941
20
-0.103196
11
2.68349
21
-0.0931402
0
LINE
8
BLACK
6
CONTINUOUS
10
2.68349
20
-0.0931402
11
2.67185
21
-0.0842914
0
LINE
8
BLACK
6
CONTINUOUS
10
2.67185
20
-0.0842914
11
2.65932
21
-0.076753
0
LINE
8
BLACK
6
CONTINUOUS
10
2.65932
20
-0.076753
11
2.64605
21
-0.0706135
0
LINE
8
BLACK
6
CONTINUOUS
10
2.64605
20
-0.0706135
11
2.63219
21
-0.0659447
0
LINE
8
BLACK
6
CONTINUOUS
10
2.63219
20
-0.0659447
11
2.61791
21
-0.0628014
0
LINE
8
BLACK
6
CONTINUOUS
10
2.61791
20
-0.0628014
11
2.60337
21
-0.0612205
0
LINE
8
BLACK
6
CONTINUOUS
10
2.60337
20
-0.0612205
11
2.58875
21
-0.0612205
0
LINE
8
BLACK
6
CONTINUOUS
10
2.58875
20
-0.0612205
11
2.57422
21
-0.0628014
0
LINE
8
BLACK
6
CONTINUOUS
10
2.57422
20
-0.0628014
11
2.55994
21
-0.0659447
0
LINE
8
BLACK
6
CONTINUOUS
10
2.55994
20
-0.0659447
11
2.54608
21
-0.0706135
0
LINE
8
BLACK
6
CONTINUOUS
10
2.54608
20
-0.0706135
11
2.53281
21
-0.076753
0
LINE
8
BLACK
6
CONTINUOUS
10
2.53281
20
-0.076753
11
2.52028
21
-0.0842914
0
LINE
8
BLACK
6
CONTINUOUS
10
2.52028
20
-0.0842914
11
2.50864
21
-0.0931402
0
LINE
8
BLACK
6
CONTINUOUS
10
2.50864
20
-0.0931402
11
2.49802
21
-0.103196
0
LINE
8
BLACK
6
CONTINUOUS
10
2.49802
20
-0.103196
11
2.48856
21
-0.11434
0
LINE
8
BLACK
6
CONTINUOUS
10
2.48856
20
-0.11434
11
2.48035
21
-0.126442
0
LINE
8
BLACK
6
CONTINUOUS
10
2.48035
20
-0.126442
11
2.4735
21
-0.139361
0
LINE
8
BLACK
6
CONTINUOUS
10
2.4735
20
-0.139361
11
2.46809
21
-0.152944
0
LINE
8
BLACK
6
CONTINUOUS
10
2.46809
20
-0.152944
11
2.46418
21
-0.167033
0
LINE
8
BLACK
6
CONTINUOUS
10
2.46418
20
-0.167033
11
2.46181
21
-0.181463
0
LINE
8
BLACK
6
CONTINUOUS
10
2.46181
20
-0.181463
11
2.46102
21
-0.196063
0
LINE
8
BLACK
6
CONTINUOUS
10
2.46102
20
-0.196063
11
2.46181
21
-0.210663
  0
ENDSEC
  0
EOF
