  0
SECTION
  2
HEADER
  9
$ANGBASE
  50
0.0
  9
$ANGDIR
  70
1
  9
$MEASUREMENT
  70
0
  0
ENDSEC
  0
SECTION
  2
TABLES
  0
TABLE
  2
LTYPE
  70
4
  0
LTYPE
  5
40F
  2
CONTINUOUS
  70
0
  3
Solid line
  72
65
  73
0
  40
0.0
  0
LTYPE
  5
410
  2
DASHDOT
 70
0
  3
Dash Dot ____ _ ____ _
 72
65
 73
4
 40
2.0
 49
1.25
 49
-0.25
 49
0.25
 49
-0.25
  0
LTYPE
  5
411
  2
DASHED
 70
0
  3
Dashed __ __ __ __ __
 72
65
 73
2
 40
0.75
 49
0.5
 49
-0.25
  0
LTYPE
  5
43B
  2
DOTTED
 70
0
  3
Dotted .  .  .  .
 72
65
 73
2
 40
0.2
 49
0.0
 49
-0.2
  0
ENDTAB
  0
TABLE
  2
STYLE
  70
4
  0
STYLE
  2
KICAD
  70
0
  40
0
  41
1
  42
1
  50
0
  71
0
  3
isocp.shx
  0
STYLE
  2
KICADB
  70
0
  40
0
  41
1
  42
1
  50
0
  71
0
  3
isocp.shx
  0
STYLE
  2
KICADI
  70
0
  40
0
  41
1
  42
1
  50
15
  71
0
  3
isocp.shx
  0
STYLE
  2
KICADBI
  70
0
  40
0
  41
1
  42
1
  50
15
  71
0
  3
isocp.shx
  0
ENDTAB
  0
TABLE
  2
LAYER
  70
1
  0
LAYER
  2
BLACK
  70
0
  62
7
  6
CONTINUOUS
  0
ENDTAB
  0
ENDSEC
  0
SECTION
  2
ENTITIES
0
LINE
8
BLACK
6
CONTINUOUS
10
0.214106
20
-1.67481
11
0.228034
21
-1.67717
0
LINE
8
BLACK
6
CONTINUOUS
10
0.228034
20
-1.67717
11
0.24161
21
-1.68109
0
LINE
8
BLACK
6
CONTINUOUS
10
0.24161
20
-1.68109
11
0.254663
21
-1.68649
0
LINE
8
BLACK
6
CONTINUOUS
10
0.254663
20
-1.68649
11
0.267028
21
-1.69333
0
LINE
8
BLACK
6
CONTINUOUS
10
0.267028
20
-1.69333
11
0.27855
21
-1.7015
0
LINE
8
BLACK
6
CONTINUOUS
10
0.27855
20
-1.7015
11
0.289084
21
-1.71092
0
LINE
8
BLACK
6
CONTINUOUS
10
0.289084
20
-1.71092
11
0.298498
21
-1.72145
0
LINE
8
BLACK
6
CONTINUOUS
10
0.298498
20
-1.72145
11
0.306674
21
-1.73297
0
LINE
8
BLACK
6
CONTINUOUS
10
0.306674
20
-1.73297
11
0.313508
21
-1.74534
0
LINE
8
BLACK
6
CONTINUOUS
10
0.313508
20
-1.74534
11
0.318914
21
-1.75839
0
LINE
8
BLACK
6
CONTINUOUS
10
0.318914
20
-1.75839
11
0.322826
21
-1.77197
0
LINE
8
BLACK
6
CONTINUOUS
10
0.322826
20
-1.77197
11
0.325192
21
-1.78589
0
LINE
8
BLACK
6
CONTINUOUS
10
0.325192
20
-1.78589
11
0.325984
21
-1.8
0
LINE
8
BLACK
6
CONTINUOUS
10
0.325984
20
-1.8
11
0.325192
21
-1.81411
0
LINE
8
BLACK
6
CONTINUOUS
10
0.325192
20
-1.81411
11
0.322826
21
-1.82803
0
LINE
8
BLACK
6
CONTINUOUS
10
0.322826
20
-1.82803
11
0.318914
21
-1.84161
0
LINE
8
BLACK
6
CONTINUOUS
10
0.318914
20
-1.84161
11
0.313508
21
-1.85466
0
LINE
8
BLACK
6
CONTINUOUS
10
0.313508
20
-1.85466
11
0.306674
21
-1.86703
0
LINE
8
BLACK
6
CONTINUOUS
10
0.306674
20
-1.86703
11
0.298498
21
-1.87855
0
LINE
8
BLACK
6
CONTINUOUS
10
0.298498
20
-1.87855
11
0.289084
21
-1.88908
0
LINE
8
BLACK
6
CONTINUOUS
10
0.289084
20
-1.88908
11
0.27855
21
-1.8985
0
LINE
8
BLACK
6
CONTINUOUS
10
0.27855
20
-1.8985
11
0.267028
21
-1.90667
0
LINE
8
BLACK
6
CONTINUOUS
10
0.267028
20
-1.90667
11
0.254663
21
-1.91351
0
LINE
8
BLACK
6
CONTINUOUS
10
0.254663
20
-1.91351
11
0.24161
21
-1.91891
0
LINE
8
BLACK
6
CONTINUOUS
10
0.24161
20
-1.91891
11
0.228034
21
-1.92283
0
LINE
8
BLACK
6
CONTINUOUS
10
0.228034
20
-1.92283
11
0.214106
21
-1.92519
0
LINE
8
BLACK
6
CONTINUOUS
10
0.214106
20
-1.92519
11
0.2
21
-1.92598
0
LINE
8
BLACK
6
CONTINUOUS
10
0.2
20
-1.92598
11
0.185894
21
-1.92519
0
LINE
8
BLACK
6
CONTINUOUS
10
0.185894
20
-1.92519
11
0.171966
21
-1.92283
0
LINE
8
BLACK
6
CONTINUOUS
10
0.171966
20
-1.92283
11
0.15839
21
-1.91891
0
LINE
8
BLACK
6
CONTINUOUS
10
0.15839
20
-1.91891
11
0.145337
21
-1.91351
0
LINE
8
BLACK
6
CONTINUOUS
10
0.145337
20
-1.91351
11
0.132972
21
-1.90667
0
LINE
8
BLACK
6
CONTINUOUS
10
0.132972
20
-1.90667
11
0.12145
21
-1.8985
0
LINE
8
BLACK
6
CONTINUOUS
10
0.12145
20
-1.8985
11
0.110916
21
-1.88908
0
LINE
8
BLACK
6
CONTINUOUS
10
0.110916
20
-1.88908
11
0.101502
21
-1.87855
0
LINE
8
BLACK
6
CONTINUOUS
10
0.101502
20
-1.87855
11
0.0933261
21
-1.86703
0
LINE
8
BLACK
6
CONTINUOUS
10
0.0933261
20
-1.86703
11
0.0864921
21
-1.85466
0
LINE
8
BLACK
6
CONTINUOUS
10
0.0864921
20
-1.85466
11
0.0810856
21
-1.84161
0
LINE
8
BLACK
6
CONTINUOUS
10
0.0810856
20
-1.84161
11
0.0771744
21
-1.82803
0
LINE
8
BLACK
6
CONTINUOUS
10
0.0771744
20
-1.82803
11
0.0748079
21
-1.81411
0
LINE
8
BLACK
6
CONTINUOUS
10
0.0748079
20
-1.81411
11
0.0740157
21
-1.8
0
LINE
8
BLACK
6
CONTINUOUS
10
0.0740157
20
-1.8
11
0.0748079
21
-1.78589
0
LINE
8
BLACK
6
CONTINUOUS
10
0.0748079
20
-1.78589
11
0.0771744
21
-1.77197
0
LINE
8
BLACK
6
CONTINUOUS
10
0.0771744
20
-1.77197
11
0.0810856
21
-1.75839
0
LINE
8
BLACK
6
CONTINUOUS
10
0.0810856
20
-1.75839
11
0.0864921
21
-1.74534
0
LINE
8
BLACK
6
CONTINUOUS
10
0.0864921
20
-1.74534
11
0.0933261
21
-1.73297
0
LINE
8
BLACK
6
CONTINUOUS
10
0.0933261
20
-1.73297
11
0.101502
21
-1.72145
0
LINE
8
BLACK
6
CONTINUOUS
10
0.101502
20
-1.72145
11
0.110916
21
-1.71092
0
LINE
8
BLACK
6
CONTINUOUS
10
0.110916
20
-1.71092
11
0.12145
21
-1.7015
0
LINE
8
BLACK
6
CONTINUOUS
10
0.12145
20
-1.7015
11
0.132972
21
-1.69333
0
LINE
8
BLACK
6
CONTINUOUS
10
0.132972
20
-1.69333
11
0.145337
21
-1.68649
0
LINE
8
BLACK
6
CONTINUOUS
10
0.145337
20
-1.68649
11
0.15839
21
-1.68109
0
LINE
8
BLACK
6
CONTINUOUS
10
0.15839
20
-1.68109
11
0.171966
21
-1.67717
0
LINE
8
BLACK
6
CONTINUOUS
10
0.171966
20
-1.67717
11
0.185894
21
-1.67481
0
LINE
8
BLACK
6
CONTINUOUS
10
0.185894
20
-1.67481
11
0.2
21
-1.67402
0
LINE
8
BLACK
6
CONTINUOUS
10
0.2
20
-1.67402
11
0.214106
21
-1.67481
0
LINE
8
BLACK
6
CONTINUOUS
10
2.61411
20
-1.67481
11
2.62803
21
-1.67717
0
LINE
8
BLACK
6
CONTINUOUS
10
2.62803
20
-1.67717
11
2.64161
21
-1.68109
0
LINE
8
BLACK
6
CONTINUOUS
10
2.64161
20
-1.68109
11
2.65466
21
-1.68649
0
LINE
8
BLACK
6
CONTINUOUS
10
2.65466
20
-1.68649
11
2.66703
21
-1.69333
0
LINE
8
BLACK
6
CONTINUOUS
10
2.66703
20
-1.69333
11
2.67855
21
-1.7015
0
LINE
8
BLACK
6
CONTINUOUS
10
2.67855
20
-1.7015
11
2.68908
21
-1.71092
0
LINE
8
BLACK
6
CONTINUOUS
10
2.68908
20
-1.71092
11
2.6985
21
-1.72145
0
LINE
8
BLACK
6
CONTINUOUS
10
2.6985
20
-1.72145
11
2.70667
21
-1.73297
0
LINE
8
BLACK
6
CONTINUOUS
10
2.70667
20
-1.73297
11
2.71351
21
-1.74534
0
LINE
8
BLACK
6
CONTINUOUS
10
2.71351
20
-1.74534
11
2.71891
21
-1.75839
0
LINE
8
BLACK
6
CONTINUOUS
10
2.71891
20
-1.75839
11
2.72283
21
-1.77197
0
LINE
8
BLACK
6
CONTINUOUS
10
2.72283
20
-1.77197
11
2.72519
21
-1.78589
0
LINE
8
BLACK
6
CONTINUOUS
10
2.72519
20
-1.78589
11
2.72598
21
-1.8
0
LINE
8
BLACK
6
CONTINUOUS
10
2.72598
20
-1.8
11
2.72519
21
-1.81411
0
LINE
8
BLACK
6
CONTINUOUS
10
2.72519
20
-1.81411
11
2.72283
21
-1.82803
0
LINE
8
BLACK
6
CONTINUOUS
10
2.72283
20
-1.82803
11
2.71891
21
-1.84161
0
LINE
8
BLACK
6
CONTINUOUS
10
2.71891
20
-1.84161
11
2.71351
21
-1.85466
0
LINE
8
BLACK
6
CONTINUOUS
10
2.71351
20
-1.85466
11
2.70667
21
-1.86703
0
LINE
8
BLACK
6
CONTINUOUS
10
2.70667
20
-1.86703
11
2.6985
21
-1.87855
0
LINE
8
BLACK
6
CONTINUOUS
10
2.6985
20
-1.87855
11
2.68908
21
-1.88908
0
LINE
8
BLACK
6
CONTINUOUS
10
2.68908
20
-1.88908
11
2.67855
21
-1.8985
0
LINE
8
BLACK
6
CONTINUOUS
10
2.67855
20
-1.8985
11
2.66703
21
-1.90667
0
LINE
8
BLACK
6
CONTINUOUS
10
2.66703
20
-1.90667
11
2.65466
21
-1.91351
0
LINE
8
BLACK
6
CONTINUOUS
10
2.65466
20
-1.91351
11
2.64161
21
-1.91891
0
LINE
8
BLACK
6
CONTINUOUS
10
2.64161
20
-1.91891
11
2.62803
21
-1.92283
0
LINE
8
BLACK
6
CONTINUOUS
10
2.62803
20
-1.92283
11
2.61411
21
-1.92519
0
LINE
8
BLACK
6
CONTINUOUS
10
2.61411
20
-1.92519
11
2.6
21
-1.92598
0
LINE
8
BLACK
6
CONTINUOUS
10
2.6
20
-1.92598
11
2.58589
21
-1.92519
0
LINE
8
BLACK
6
CONTINUOUS
10
2.58589
20
-1.92519
11
2.57197
21
-1.92283
0
LINE
8
BLACK
6
CONTINUOUS
10
2.57197
20
-1.92283
11
2.55839
21
-1.91891
0
LINE
8
BLACK
6
CONTINUOUS
10
2.55839
20
-1.91891
11
2.54534
21
-1.91351
0
LINE
8
BLACK
6
CONTINUOUS
10
2.54534
20
-1.91351
11
2.53297
21
-1.90667
0
LINE
8
BLACK
6
CONTINUOUS
10
2.53297
20
-1.90667
11
2.52145
21
-1.8985
0
LINE
8
BLACK
6
CONTINUOUS
10
2.52145
20
-1.8985
11
2.51092
21
-1.88908
0
LINE
8
BLACK
6
CONTINUOUS
10
2.51092
20
-1.88908
11
2.5015
21
-1.87855
0
LINE
8
BLACK
6
CONTINUOUS
10
2.5015
20
-1.87855
11
2.49333
21
-1.86703
0
LINE
8
BLACK
6
CONTINUOUS
10
2.49333
20
-1.86703
11
2.48649
21
-1.85466
0
LINE
8
BLACK
6
CONTINUOUS
10
2.48649
20
-1.85466
11
2.48109
21
-1.84161
0
LINE
8
BLACK
6
CONTINUOUS
10
2.48109
20
-1.84161
11
2.47717
21
-1.82803
0
LINE
8
BLACK
6
CONTINUOUS
10
2.47717
20
-1.82803
11
2.47481
21
-1.81411
0
LINE
8
BLACK
6
CONTINUOUS
10
2.47481
20
-1.81411
11
2.47402
21
-1.8
0
LINE
8
BLACK
6
CONTINUOUS
10
2.47402
20
-1.8
11
2.47481
21
-1.78589
0
LINE
8
BLACK
6
CONTINUOUS
10
2.47481
20
-1.78589
11
2.47717
21
-1.77197
0
LINE
8
BLACK
6
CONTINUOUS
10
2.47717
20
-1.77197
11
2.48109
21
-1.75839
0
LINE
8
BLACK
6
CONTINUOUS
10
2.48109
20
-1.75839
11
2.48649
21
-1.74534
0
LINE
8
BLACK
6
CONTINUOUS
10
2.48649
20
-1.74534
11
2.49333
21
-1.73297
0
LINE
8
BLACK
6
CONTINUOUS
10
2.49333
20
-1.73297
11
2.5015
21
-1.72145
0
LINE
8
BLACK
6
CONTINUOUS
10
2.5015
20
-1.72145
11
2.51092
21
-1.71092
0
LINE
8
BLACK
6
CONTINUOUS
10
2.51092
20
-1.71092
11
2.52145
21
-1.7015
0
LINE
8
BLACK
6
CONTINUOUS
10
2.52145
20
-1.7015
11
2.53297
21
-1.69333
0
LINE
8
BLACK
6
CONTINUOUS
10
2.53297
20
-1.69333
11
2.54534
21
-1.68649
0
LINE
8
BLACK
6
CONTINUOUS
10
2.54534
20
-1.68649
11
2.55839
21
-1.68109
0
LINE
8
BLACK
6
CONTINUOUS
10
2.55839
20
-1.68109
11
2.57197
21
-1.67717
0
LINE
8
BLACK
6
CONTINUOUS
10
2.57197
20
-1.67717
11
2.58589
21
-1.67481
0
LINE
8
BLACK
6
CONTINUOUS
10
2.58589
20
-1.67481
11
2.6
21
-1.67402
0
LINE
8
BLACK
6
CONTINUOUS
10
2.6
20
-1.67402
11
2.61411
21
-1.67481
0
LINE
8
BLACK
6
CONTINUOUS
10
1.01933
20
-1.66857
11
1.02045
21
-1.66932
0
LINE
8
BLACK
6
CONTINUOUS
10
1.02045
20
-1.66932
11
1.02119
21
-1.67043
0
LINE
8
BLACK
6
CONTINUOUS
10
1.02119
20
-1.67043
11
1.02146
21
-1.67175
0
LINE
8
BLACK
6
CONTINUOUS
10
1.02146
20
-1.67175
11
1.02146
21
-1.90108
0
LINE
8
BLACK
6
CONTINUOUS
10
1.02146
20
-1.90108
11
1.02119
21
-1.9024
0
LINE
8
BLACK
6
CONTINUOUS
10
1.02119
20
-1.9024
11
1.02045
21
-1.90352
0
LINE
8
BLACK
6
CONTINUOUS
10
1.02045
20
-1.90352
11
1.01933
21
-1.90427
0
LINE
8
BLACK
6
CONTINUOUS
10
1.01933
20
-1.90427
11
1.01801
21
-1.90453
0
LINE
8
BLACK
6
CONTINUOUS
10
1.01801
20
-1.90453
11
1.01112
21
-1.90453
0
LINE
8
BLACK
6
CONTINUOUS
10
1.01112
20
-1.90453
11
1.0098
21
-1.90427
0
LINE
8
BLACK
6
CONTINUOUS
10
1.0098
20
-1.90427
11
1.00869
21
-1.90352
0
LINE
8
BLACK
6
CONTINUOUS
10
1.00869
20
-1.90352
11
1.00794
21
-1.9024
0
LINE
8
BLACK
6
CONTINUOUS
10
1.00794
20
-1.9024
11
1.00768
21
-1.90108
0
LINE
8
BLACK
6
CONTINUOUS
10
1.00768
20
-1.90108
11
1.00768
21
-1.67175
0
LINE
8
BLACK
6
CONTINUOUS
10
1.00768
20
-1.67175
11
1.00794
21
-1.67043
0
LINE
8
BLACK
6
CONTINUOUS
10
1.00794
20
-1.67043
11
1.00869
21
-1.66932
0
LINE
8
BLACK
6
CONTINUOUS
10
1.00869
20
-1.66932
11
1.0098
21
-1.66857
0
LINE
8
BLACK
6
CONTINUOUS
10
1.0098
20
-1.66857
11
1.01112
21
-1.66831
0
LINE
8
BLACK
6
CONTINUOUS
10
1.01112
20
-1.66831
11
1.01801
21
-1.66831
0
LINE
8
BLACK
6
CONTINUOUS
10
1.01801
20
-1.66831
11
1.01933
21
-1.66857
0
LINE
8
BLACK
6
CONTINUOUS
10
1.04689
20
-1.66857
11
1.04801
21
-1.66932
0
LINE
8
BLACK
6
CONTINUOUS
10
1.04801
20
-1.66932
11
1.04875
21
-1.67043
0
LINE
8
BLACK
6
CONTINUOUS
10
1.04875
20
-1.67043
11
1.04902
21
-1.67175
0
LINE
8
BLACK
6
CONTINUOUS
10
1.04902
20
-1.67175
11
1.04902
21
-1.90108
0
LINE
8
BLACK
6
CONTINUOUS
10
1.04902
20
-1.90108
11
1.04875
21
-1.9024
0
LINE
8
BLACK
6
CONTINUOUS
10
1.04875
20
-1.9024
11
1.04801
21
-1.90352
0
LINE
8
BLACK
6
CONTINUOUS
10
1.04801
20
-1.90352
11
1.04689
21
-1.90427
0
LINE
8
BLACK
6
CONTINUOUS
10
1.04689
20
-1.90427
11
1.04557
21
-1.90453
0
LINE
8
BLACK
6
CONTINUOUS
10
1.04557
20
-1.90453
11
1.03868
21
-1.90453
0
LINE
8
BLACK
6
CONTINUOUS
10
1.03868
20
-1.90453
11
1.03736
21
-1.90427
0
LINE
8
BLACK
6
CONTINUOUS
10
1.03736
20
-1.90427
11
1.03625
21
-1.90352
0
LINE
8
BLACK
6
CONTINUOUS
10
1.03625
20
-1.90352
11
1.0355
21
-1.9024
0
LINE
8
BLACK
6
CONTINUOUS
10
1.0355
20
-1.9024
11
1.03524
21
-1.90108
0
LINE
8
BLACK
6
CONTINUOUS
10
1.03524
20
-1.90108
11
1.03524
21
-1.67175
0
LINE
8
BLACK
6
CONTINUOUS
10
1.03524
20
-1.67175
11
1.0355
21
-1.67043
0
LINE
8
BLACK
6
CONTINUOUS
10
1.0355
20
-1.67043
11
1.03625
21
-1.66932
0
LINE
8
BLACK
6
CONTINUOUS
10
1.03625
20
-1.66932
11
1.03736
21
-1.66857
0
LINE
8
BLACK
6
CONTINUOUS
10
1.03736
20
-1.66857
11
1.03868
21
-1.66831
0
LINE
8
BLACK
6
CONTINUOUS
10
1.03868
20
-1.66831
11
1.04557
21
-1.66831
0
LINE
8
BLACK
6
CONTINUOUS
10
1.04557
20
-1.66831
11
1.04689
21
-1.66857
0
LINE
8
BLACK
6
CONTINUOUS
10
1.07445
20
-1.66857
11
1.07557
21
-1.66932
0
LINE
8
BLACK
6
CONTINUOUS
10
1.07557
20
-1.66932
11
1.07631
21
-1.67043
0
LINE
8
BLACK
6
CONTINUOUS
10
1.07631
20
-1.67043
11
1.07657
21
-1.67175
0
LINE
8
BLACK
6
CONTINUOUS
10
1.07657
20
-1.67175
11
1.07657
21
-1.90108
0
LINE
8
BLACK
6
CONTINUOUS
10
1.07657
20
-1.90108
11
1.07631
21
-1.9024
0
LINE
8
BLACK
6
CONTINUOUS
10
1.07631
20
-1.9024
11
1.07557
21
-1.90352
0
LINE
8
BLACK
6
CONTINUOUS
10
1.07557
20
-1.90352
11
1.07445
21
-1.90427
0
LINE
8
BLACK
6
CONTINUOUS
10
1.07445
20
-1.90427
11
1.07313
21
-1.90453
0
LINE
8
BLACK
6
CONTINUOUS
10
1.07313
20
-1.90453
11
1.06624
21
-1.90453
0
LINE
8
BLACK
6
CONTINUOUS
10
1.06624
20
-1.90453
11
1.06492
21
-1.90427
0
LINE
8
BLACK
6
CONTINUOUS
10
1.06492
20
-1.90427
11
1.0638
21
-1.90352
0
LINE
8
BLACK
6
CONTINUOUS
10
1.0638
20
-1.90352
11
1.06306
21
-1.9024
0
LINE
8
BLACK
6
CONTINUOUS
10
1.06306
20
-1.9024
11
1.0628
21
-1.90108
0
LINE
8
BLACK
6
CONTINUOUS
10
1.0628
20
-1.90108
11
1.0628
21
-1.67175
0
LINE
8
BLACK
6
CONTINUOUS
10
1.0628
20
-1.67175
11
1.06306
21
-1.67043
0
LINE
8
BLACK
6
CONTINUOUS
10
1.06306
20
-1.67043
11
1.0638
21
-1.66932
0
LINE
8
BLACK
6
CONTINUOUS
10
1.0638
20
-1.66932
11
1.06492
21
-1.66857
0
LINE
8
BLACK
6
CONTINUOUS
10
1.06492
20
-1.66857
11
1.06624
21
-1.66831
0
LINE
8
BLACK
6
CONTINUOUS
10
1.06624
20
-1.66831
11
1.07313
21
-1.66831
0
LINE
8
BLACK
6
CONTINUOUS
10
1.07313
20
-1.66831
11
1.07445
21
-1.66857
0
LINE
8
BLACK
6
CONTINUOUS
10
1.10201
20
-1.66857
11
1.10312
21
-1.66932
0
LINE
8
BLACK
6
CONTINUOUS
10
1.10312
20
-1.66932
11
1.10387
21
-1.67043
0
LINE
8
BLACK
6
CONTINUOUS
10
1.10387
20
-1.67043
11
1.10413
21
-1.67175
0
LINE
8
BLACK
6
CONTINUOUS
10
1.10413
20
-1.67175
11
1.10413
21
-1.90108
0
LINE
8
BLACK
6
CONTINUOUS
10
1.10413
20
-1.90108
11
1.10387
21
-1.9024
0
LINE
8
BLACK
6
CONTINUOUS
10
1.10387
20
-1.9024
11
1.10312
21
-1.90352
0
LINE
8
BLACK
6
CONTINUOUS
10
1.10312
20
-1.90352
11
1.10201
21
-1.90427
0
LINE
8
BLACK
6
CONTINUOUS
10
1.10201
20
-1.90427
11
1.10069
21
-1.90453
0
LINE
8
BLACK
6
CONTINUOUS
10
1.10069
20
-1.90453
11
1.0938
21
-1.90453
0
LINE
8
BLACK
6
CONTINUOUS
10
1.0938
20
-1.90453
11
1.09248
21
-1.90427
0
LINE
8
BLACK
6
CONTINUOUS
10
1.09248
20
-1.90427
11
1.09136
21
-1.90352
0
LINE
8
BLACK
6
CONTINUOUS
10
1.09136
20
-1.90352
11
1.09062
21
-1.9024
0
LINE
8
BLACK
6
CONTINUOUS
10
1.09062
20
-1.9024
11
1.09035
21
-1.90108
0
LINE
8
BLACK
6
CONTINUOUS
10
1.09035
20
-1.90108
11
1.09035
21
-1.67175
0
LINE
8
BLACK
6
CONTINUOUS
10
1.09035
20
-1.67175
11
1.09062
21
-1.67043
0
LINE
8
BLACK
6
CONTINUOUS
10
1.09062
20
-1.67043
11
1.09136
21
-1.66932
0
LINE
8
BLACK
6
CONTINUOUS
10
1.09136
20
-1.66932
11
1.09248
21
-1.66857
0
LINE
8
BLACK
6
CONTINUOUS
10
1.09248
20
-1.66857
11
1.0938
21
-1.66831
0
LINE
8
BLACK
6
CONTINUOUS
10
1.0938
20
-1.66831
11
1.10069
21
-1.66831
0
LINE
8
BLACK
6
CONTINUOUS
10
1.10069
20
-1.66831
11
1.10201
21
-1.66857
0
LINE
8
BLACK
6
CONTINUOUS
10
1.12957
20
-1.66857
11
1.13068
21
-1.66932
0
LINE
8
BLACK
6
CONTINUOUS
10
1.13068
20
-1.66932
11
1.13143
21
-1.67043
0
LINE
8
BLACK
6
CONTINUOUS
10
1.13143
20
-1.67043
11
1.13169
21
-1.67175
0
LINE
8
BLACK
6
CONTINUOUS
10
1.13169
20
-1.67175
11
1.13169
21
-1.90108
0
LINE
8
BLACK
6
CONTINUOUS
10
1.13169
20
-1.90108
11
1.13143
21
-1.9024
0
LINE
8
BLACK
6
CONTINUOUS
10
1.13143
20
-1.9024
11
1.13068
21
-1.90352
0
LINE
8
BLACK
6
CONTINUOUS
10
1.13068
20
-1.90352
11
1.12957
21
-1.90427
0
LINE
8
BLACK
6
CONTINUOUS
10
1.12957
20
-1.90427
11
1.12825
21
-1.90453
0
LINE
8
BLACK
6
CONTINUOUS
10
1.12825
20
-1.90453
11
1.12136
21
-1.90453
0
LINE
8
BLACK
6
CONTINUOUS
10
1.12136
20
-1.90453
11
1.12004
21
-1.90427
0
LINE
8
BLACK
6
CONTINUOUS
10
1.12004
20
-1.90427
11
1.11892
21
-1.90352
0
LINE
8
BLACK
6
CONTINUOUS
10
1.11892
20
-1.90352
11
1.11818
21
-1.9024
0
LINE
8
BLACK
6
CONTINUOUS
10
1.11818
20
-1.9024
11
1.11791
21
-1.90108
0
LINE
8
BLACK
6
CONTINUOUS
10
1.11791
20
-1.90108
11
1.11791
21
-1.67175
0
LINE
8
BLACK
6
CONTINUOUS
10
1.11791
20
-1.67175
11
1.11818
21
-1.67043
0
LINE
8
BLACK
6
CONTINUOUS
10
1.11818
20
-1.67043
11
1.11892
21
-1.66932
0
LINE
8
BLACK
6
CONTINUOUS
10
1.11892
20
-1.66932
11
1.12004
21
-1.66857
0
LINE
8
BLACK
6
CONTINUOUS
10
1.12004
20
-1.66857
11
1.12136
21
-1.66831
0
LINE
8
BLACK
6
CONTINUOUS
10
1.12136
20
-1.66831
11
1.12825
21
-1.66831
0
LINE
8
BLACK
6
CONTINUOUS
10
1.12825
20
-1.66831
11
1.12957
21
-1.66857
0
LINE
8
BLACK
6
CONTINUOUS
10
1.15713
20
-1.66857
11
1.15824
21
-1.66932
0
LINE
8
BLACK
6
CONTINUOUS
10
1.15824
20
-1.66932
11
1.15899
21
-1.67043
0
LINE
8
BLACK
6
CONTINUOUS
10
1.15899
20
-1.67043
11
1.15925
21
-1.67175
0
LINE
8
BLACK
6
CONTINUOUS
10
1.15925
20
-1.67175
11
1.15925
21
-1.90108
0
LINE
8
BLACK
6
CONTINUOUS
10
1.15925
20
-1.90108
11
1.15899
21
-1.9024
0
LINE
8
BLACK
6
CONTINUOUS
10
1.15899
20
-1.9024
11
1.15824
21
-1.90352
0
LINE
8
BLACK
6
CONTINUOUS
10
1.15824
20
-1.90352
11
1.15713
21
-1.90427
0
LINE
8
BLACK
6
CONTINUOUS
10
1.15713
20
-1.90427
11
1.15581
21
-1.90453
0
LINE
8
BLACK
6
CONTINUOUS
10
1.15581
20
-1.90453
11
1.14892
21
-1.90453
0
LINE
8
BLACK
6
CONTINUOUS
10
1.14892
20
-1.90453
11
1.1476
21
-1.90427
0
LINE
8
BLACK
6
CONTINUOUS
10
1.1476
20
-1.90427
11
1.14648
21
-1.90352
0
LINE
8
BLACK
6
CONTINUOUS
10
1.14648
20
-1.90352
11
1.14573
21
-1.9024
0
LINE
8
BLACK
6
CONTINUOUS
10
1.14573
20
-1.9024
11
1.14547
21
-1.90108
0
LINE
8
BLACK
6
CONTINUOUS
10
1.14547
20
-1.90108
11
1.14547
21
-1.67175
0
LINE
8
BLACK
6
CONTINUOUS
10
1.14547
20
-1.67175
11
1.14573
21
-1.67043
0
LINE
8
BLACK
6
CONTINUOUS
10
1.14573
20
-1.67043
11
1.14648
21
-1.66932
0
LINE
8
BLACK
6
CONTINUOUS
10
1.14648
20
-1.66932
11
1.1476
21
-1.66857
0
LINE
8
BLACK
6
CONTINUOUS
10
1.1476
20
-1.66857
11
1.14892
21
-1.66831
0
LINE
8
BLACK
6
CONTINUOUS
10
1.14892
20
-1.66831
11
1.15581
21
-1.66831
0
LINE
8
BLACK
6
CONTINUOUS
10
1.15581
20
-1.66831
11
1.15713
21
-1.66857
0
LINE
8
BLACK
6
CONTINUOUS
10
1.18468
20
-1.66857
11
1.1858
21
-1.66932
0
LINE
8
BLACK
6
CONTINUOUS
10
1.1858
20
-1.66932
11
1.18655
21
-1.67043
0
LINE
8
BLACK
6
CONTINUOUS
10
1.18655
20
-1.67043
11
1.18681
21
-1.67175
0
LINE
8
BLACK
6
CONTINUOUS
10
1.18681
20
-1.67175
11
1.18681
21
-1.90108
0
LINE
8
BLACK
6
CONTINUOUS
10
1.18681
20
-1.90108
11
1.18655
21
-1.9024
0
LINE
8
BLACK
6
CONTINUOUS
10
1.18655
20
-1.9024
11
1.1858
21
-1.90352
0
LINE
8
BLACK
6
CONTINUOUS
10
1.1858
20
-1.90352
11
1.18468
21
-1.90427
0
LINE
8
BLACK
6
CONTINUOUS
10
1.18468
20
-1.90427
11
1.18337
21
-1.90453
0
LINE
8
BLACK
6
CONTINUOUS
10
1.18337
20
-1.90453
11
1.17648
21
-1.90453
0
LINE
8
BLACK
6
CONTINUOUS
10
1.17648
20
-1.90453
11
1.17516
21
-1.90427
0
LINE
8
BLACK
6
CONTINUOUS
10
1.17516
20
-1.90427
11
1.17404
21
-1.90352
0
LINE
8
BLACK
6
CONTINUOUS
10
1.17404
20
-1.90352
11
1.17329
21
-1.9024
0
LINE
8
BLACK
6
CONTINUOUS
10
1.17329
20
-1.9024
11
1.17303
21
-1.90108
0
LINE
8
BLACK
6
CONTINUOUS
10
1.17303
20
-1.90108
11
1.17303
21
-1.67175
0
LINE
8
BLACK
6
CONTINUOUS
10
1.17303
20
-1.67175
11
1.17329
21
-1.67043
0
LINE
8
BLACK
6
CONTINUOUS
10
1.17329
20
-1.67043
11
1.17404
21
-1.66932
0
LINE
8
BLACK
6
CONTINUOUS
10
1.17404
20
-1.66932
11
1.17516
21
-1.66857
0
LINE
8
BLACK
6
CONTINUOUS
10
1.17516
20
-1.66857
11
1.17648
21
-1.66831
0
LINE
8
BLACK
6
CONTINUOUS
10
1.17648
20
-1.66831
11
1.18337
21
-1.66831
0
LINE
8
BLACK
6
CONTINUOUS
10
1.18337
20
-1.66831
11
1.18468
21
-1.66857
0
LINE
8
BLACK
6
CONTINUOUS
10
1.21224
20
-1.66857
11
1.21336
21
-1.66932
0
LINE
8
BLACK
6
CONTINUOUS
10
1.21336
20
-1.66932
11
1.21411
21
-1.67043
0
LINE
8
BLACK
6
CONTINUOUS
10
1.21411
20
-1.67043
11
1.21437
21
-1.67175
0
LINE
8
BLACK
6
CONTINUOUS
10
1.21437
20
-1.67175
11
1.21437
21
-1.90108
0
LINE
8
BLACK
6
CONTINUOUS
10
1.21437
20
-1.90108
11
1.21411
21
-1.9024
0
LINE
8
BLACK
6
CONTINUOUS
10
1.21411
20
-1.9024
11
1.21336
21
-1.90352
0
LINE
8
BLACK
6
CONTINUOUS
10
1.21336
20
-1.90352
11
1.21224
21
-1.90427
0
LINE
8
BLACK
6
CONTINUOUS
10
1.21224
20
-1.90427
11
1.21093
21
-1.90453
0
LINE
8
BLACK
6
CONTINUOUS
10
1.21093
20
-1.90453
11
1.20404
21
-1.90453
0
LINE
8
BLACK
6
CONTINUOUS
10
1.20404
20
-1.90453
11
1.20272
21
-1.90427
0
LINE
8
BLACK
6
CONTINUOUS
10
1.20272
20
-1.90427
11
1.2016
21
-1.90352
0
LINE
8
BLACK
6
CONTINUOUS
10
1.2016
20
-1.90352
11
1.20085
21
-1.9024
0
LINE
8
BLACK
6
CONTINUOUS
10
1.20085
20
-1.9024
11
1.20059
21
-1.90108
0
LINE
8
BLACK
6
CONTINUOUS
10
1.20059
20
-1.90108
11
1.20059
21
-1.67175
0
LINE
8
BLACK
6
CONTINUOUS
10
1.20059
20
-1.67175
11
1.20085
21
-1.67043
0
LINE
8
BLACK
6
CONTINUOUS
10
1.20085
20
-1.67043
11
1.2016
21
-1.66932
0
LINE
8
BLACK
6
CONTINUOUS
10
1.2016
20
-1.66932
11
1.20272
21
-1.66857
0
LINE
8
BLACK
6
CONTINUOUS
10
1.20272
20
-1.66857
11
1.20404
21
-1.66831
0
LINE
8
BLACK
6
CONTINUOUS
10
1.20404
20
-1.66831
11
1.21093
21
-1.66831
0
LINE
8
BLACK
6
CONTINUOUS
10
1.21093
20
-1.66831
11
1.21224
21
-1.66857
0
LINE
8
BLACK
6
CONTINUOUS
10
1.2398
20
-1.66857
11
1.24092
21
-1.66932
0
LINE
8
BLACK
6
CONTINUOUS
10
1.24092
20
-1.66932
11
1.24167
21
-1.67043
0
LINE
8
BLACK
6
CONTINUOUS
10
1.24167
20
-1.67043
11
1.24193
21
-1.67175
0
LINE
8
BLACK
6
CONTINUOUS
10
1.24193
20
-1.67175
11
1.24193
21
-1.90108
0
LINE
8
BLACK
6
CONTINUOUS
10
1.24193
20
-1.90108
11
1.24167
21
-1.9024
0
LINE
8
BLACK
6
CONTINUOUS
10
1.24167
20
-1.9024
11
1.24092
21
-1.90352
0
LINE
8
BLACK
6
CONTINUOUS
10
1.24092
20
-1.90352
11
1.2398
21
-1.90427
0
LINE
8
BLACK
6
CONTINUOUS
10
1.2398
20
-1.90427
11
1.23848
21
-1.90453
0
LINE
8
BLACK
6
CONTINUOUS
10
1.23848
20
-1.90453
11
1.23159
21
-1.90453
0
LINE
8
BLACK
6
CONTINUOUS
10
1.23159
20
-1.90453
11
1.23028
21
-1.90427
0
LINE
8
BLACK
6
CONTINUOUS
10
1.23028
20
-1.90427
11
1.22916
21
-1.90352
0
LINE
8
BLACK
6
CONTINUOUS
10
1.22916
20
-1.90352
11
1.22841
21
-1.9024
0
LINE
8
BLACK
6
CONTINUOUS
10
1.22841
20
-1.9024
11
1.22815
21
-1.90108
0
LINE
8
BLACK
6
CONTINUOUS
10
1.22815
20
-1.90108
11
1.22815
21
-1.67175
0
LINE
8
BLACK
6
CONTINUOUS
10
1.22815
20
-1.67175
11
1.22841
21
-1.67043
0
LINE
8
BLACK
6
CONTINUOUS
10
1.22841
20
-1.67043
11
1.22916
21
-1.66932
0
LINE
8
BLACK
6
CONTINUOUS
10
1.22916
20
-1.66932
11
1.23028
21
-1.66857
0
LINE
8
BLACK
6
CONTINUOUS
10
1.23028
20
-1.66857
11
1.23159
21
-1.66831
0
LINE
8
BLACK
6
CONTINUOUS
10
1.23159
20
-1.66831
11
1.23848
21
-1.66831
0
LINE
8
BLACK
6
CONTINUOUS
10
1.23848
20
-1.66831
11
1.2398
21
-1.66857
0
LINE
8
BLACK
6
CONTINUOUS
10
1.26736
20
-1.66857
11
1.26848
21
-1.66932
0
LINE
8
BLACK
6
CONTINUOUS
10
1.26848
20
-1.66932
11
1.26923
21
-1.67043
0
LINE
8
BLACK
6
CONTINUOUS
10
1.26923
20
-1.67043
11
1.26949
21
-1.67175
0
LINE
8
BLACK
6
CONTINUOUS
10
1.26949
20
-1.67175
11
1.26949
21
-1.90108
0
LINE
8
BLACK
6
CONTINUOUS
10
1.26949
20
-1.90108
11
1.26923
21
-1.9024
0
LINE
8
BLACK
6
CONTINUOUS
10
1.26923
20
-1.9024
11
1.26848
21
-1.90352
0
LINE
8
BLACK
6
CONTINUOUS
10
1.26848
20
-1.90352
11
1.26736
21
-1.90427
0
LINE
8
BLACK
6
CONTINUOUS
10
1.26736
20
-1.90427
11
1.26604
21
-1.90453
0
LINE
8
BLACK
6
CONTINUOUS
10
1.26604
20
-1.90453
11
1.25915
21
-1.90453
0
LINE
8
BLACK
6
CONTINUOUS
10
1.25915
20
-1.90453
11
1.25784
21
-1.90427
0
LINE
8
BLACK
6
CONTINUOUS
10
1.25784
20
-1.90427
11
1.25672
21
-1.90352
0
LINE
8
BLACK
6
CONTINUOUS
10
1.25672
20
-1.90352
11
1.25597
21
-1.9024
0
LINE
8
BLACK
6
CONTINUOUS
10
1.25597
20
-1.9024
11
1.25571
21
-1.90108
0
LINE
8
BLACK
6
CONTINUOUS
10
1.25571
20
-1.90108
11
1.25571
21
-1.67175
0
LINE
8
BLACK
6
CONTINUOUS
10
1.25571
20
-1.67175
11
1.25597
21
-1.67043
0
LINE
8
BLACK
6
CONTINUOUS
10
1.25597
20
-1.67043
11
1.25672
21
-1.66932
0
LINE
8
BLACK
6
CONTINUOUS
10
1.25672
20
-1.66932
11
1.25784
21
-1.66857
0
LINE
8
BLACK
6
CONTINUOUS
10
1.25784
20
-1.66857
11
1.25915
21
-1.66831
0
LINE
8
BLACK
6
CONTINUOUS
10
1.25915
20
-1.66831
11
1.26604
21
-1.66831
0
LINE
8
BLACK
6
CONTINUOUS
10
1.26604
20
-1.66831
11
1.26736
21
-1.66857
0
LINE
8
BLACK
6
CONTINUOUS
10
1.29492
20
-1.66857
11
1.29604
21
-1.66932
0
LINE
8
BLACK
6
CONTINUOUS
10
1.29604
20
-1.66932
11
1.29679
21
-1.67043
0
LINE
8
BLACK
6
CONTINUOUS
10
1.29679
20
-1.67043
11
1.29705
21
-1.67175
0
LINE
8
BLACK
6
CONTINUOUS
10
1.29705
20
-1.67175
11
1.29705
21
-1.90108
0
LINE
8
BLACK
6
CONTINUOUS
10
1.29705
20
-1.90108
11
1.29679
21
-1.9024
0
LINE
8
BLACK
6
CONTINUOUS
10
1.29679
20
-1.9024
11
1.29604
21
-1.90352
0
LINE
8
BLACK
6
CONTINUOUS
10
1.29604
20
-1.90352
11
1.29492
21
-1.90427
0
LINE
8
BLACK
6
CONTINUOUS
10
1.29492
20
-1.90427
11
1.2936
21
-1.90453
0
LINE
8
BLACK
6
CONTINUOUS
10
1.2936
20
-1.90453
11
1.28671
21
-1.90453
0
LINE
8
BLACK
6
CONTINUOUS
10
1.28671
20
-1.90453
11
1.28539
21
-1.90427
0
LINE
8
BLACK
6
CONTINUOUS
10
1.28539
20
-1.90427
11
1.28428
21
-1.90352
0
LINE
8
BLACK
6
CONTINUOUS
10
1.28428
20
-1.90352
11
1.28353
21
-1.9024
0
LINE
8
BLACK
6
CONTINUOUS
10
1.28353
20
-1.9024
11
1.28327
21
-1.90108
0
LINE
8
BLACK
6
CONTINUOUS
10
1.28327
20
-1.90108
11
1.28327
21
-1.67175
0
LINE
8
BLACK
6
CONTINUOUS
10
1.28327
20
-1.67175
11
1.28353
21
-1.67043
0
LINE
8
BLACK
6
CONTINUOUS
10
1.28353
20
-1.67043
11
1.28428
21
-1.66932
0
LINE
8
BLACK
6
CONTINUOUS
10
1.28428
20
-1.66932
11
1.28539
21
-1.66857
0
LINE
8
BLACK
6
CONTINUOUS
10
1.28539
20
-1.66857
11
1.28671
21
-1.66831
0
LINE
8
BLACK
6
CONTINUOUS
10
1.28671
20
-1.66831
11
1.2936
21
-1.66831
0
LINE
8
BLACK
6
CONTINUOUS
10
1.2936
20
-1.66831
11
1.29492
21
-1.66857
0
LINE
8
BLACK
6
CONTINUOUS
10
1.32248
20
-1.66857
11
1.3236
21
-1.66932
0
LINE
8
BLACK
6
CONTINUOUS
10
1.3236
20
-1.66932
11
1.32434
21
-1.67043
0
LINE
8
BLACK
6
CONTINUOUS
10
1.32434
20
-1.67043
11
1.32461
21
-1.67175
0
LINE
8
BLACK
6
CONTINUOUS
10
1.32461
20
-1.67175
11
1.32461
21
-1.90108
0
LINE
8
BLACK
6
CONTINUOUS
10
1.32461
20
-1.90108
11
1.32434
21
-1.9024
0
LINE
8
BLACK
6
CONTINUOUS
10
1.32434
20
-1.9024
11
1.3236
21
-1.90352
0
LINE
8
BLACK
6
CONTINUOUS
10
1.3236
20
-1.90352
11
1.32248
21
-1.90427
0
LINE
8
BLACK
6
CONTINUOUS
10
1.32248
20
-1.90427
11
1.32116
21
-1.90453
0
LINE
8
BLACK
6
CONTINUOUS
10
1.32116
20
-1.90453
11
1.31427
21
-1.90453
0
LINE
8
BLACK
6
CONTINUOUS
10
1.31427
20
-1.90453
11
1.31295
21
-1.90427
0
LINE
8
BLACK
6
CONTINUOUS
10
1.31295
20
-1.90427
11
1.31184
21
-1.90352
0
LINE
8
BLACK
6
CONTINUOUS
10
1.31184
20
-1.90352
11
1.31109
21
-1.9024
0
LINE
8
BLACK
6
CONTINUOUS
10
1.31109
20
-1.9024
11
1.31083
21
-1.90108
0
LINE
8
BLACK
6
CONTINUOUS
10
1.31083
20
-1.90108
11
1.31083
21
-1.67175
0
LINE
8
BLACK
6
CONTINUOUS
10
1.31083
20
-1.67175
11
1.31109
21
-1.67043
0
LINE
8
BLACK
6
CONTINUOUS
10
1.31109
20
-1.67043
11
1.31184
21
-1.66932
0
LINE
8
BLACK
6
CONTINUOUS
10
1.31184
20
-1.66932
11
1.31295
21
-1.66857
0
LINE
8
BLACK
6
CONTINUOUS
10
1.31295
20
-1.66857
11
1.31427
21
-1.66831
0
LINE
8
BLACK
6
CONTINUOUS
10
1.31427
20
-1.66831
11
1.32116
21
-1.66831
0
LINE
8
BLACK
6
CONTINUOUS
10
1.32116
20
-1.66831
11
1.32248
21
-1.66857
0
LINE
8
BLACK
6
CONTINUOUS
10
1.35004
20
-1.66857
11
1.35116
21
-1.66932
0
LINE
8
BLACK
6
CONTINUOUS
10
1.35116
20
-1.66932
11
1.3519
21
-1.67043
0
LINE
8
BLACK
6
CONTINUOUS
10
1.3519
20
-1.67043
11
1.35217
21
-1.67175
0
LINE
8
BLACK
6
CONTINUOUS
10
1.35217
20
-1.67175
11
1.35217
21
-1.90108
0
LINE
8
BLACK
6
CONTINUOUS
10
1.35217
20
-1.90108
11
1.3519
21
-1.9024
0
LINE
8
BLACK
6
CONTINUOUS
10
1.3519
20
-1.9024
11
1.35116
21
-1.90352
0
LINE
8
BLACK
6
CONTINUOUS
10
1.35116
20
-1.90352
11
1.35004
21
-1.90427
0
LINE
8
BLACK
6
CONTINUOUS
10
1.35004
20
-1.90427
11
1.34872
21
-1.90453
0
LINE
8
BLACK
6
CONTINUOUS
10
1.34872
20
-1.90453
11
1.34183
21
-1.90453
0
LINE
8
BLACK
6
CONTINUOUS
10
1.34183
20
-1.90453
11
1.34051
21
-1.90427
0
LINE
8
BLACK
6
CONTINUOUS
10
1.34051
20
-1.90427
11
1.33939
21
-1.90352
0
LINE
8
BLACK
6
CONTINUOUS
10
1.33939
20
-1.90352
11
1.33865
21
-1.9024
0
LINE
8
BLACK
6
CONTINUOUS
10
1.33865
20
-1.9024
11
1.33839
21
-1.90108
0
LINE
8
BLACK
6
CONTINUOUS
10
1.33839
20
-1.90108
11
1.33839
21
-1.67175
0
LINE
8
BLACK
6
CONTINUOUS
10
1.33839
20
-1.67175
11
1.33865
21
-1.67043
0
LINE
8
BLACK
6
CONTINUOUS
10
1.33865
20
-1.67043
11
1.33939
21
-1.66932
0
LINE
8
BLACK
6
CONTINUOUS
10
1.33939
20
-1.66932
11
1.34051
21
-1.66857
0
LINE
8
BLACK
6
CONTINUOUS
10
1.34051
20
-1.66857
11
1.34183
21
-1.66831
0
LINE
8
BLACK
6
CONTINUOUS
10
1.34183
20
-1.66831
11
1.34872
21
-1.66831
0
LINE
8
BLACK
6
CONTINUOUS
10
1.34872
20
-1.66831
11
1.35004
21
-1.66857
0
LINE
8
BLACK
6
CONTINUOUS
10
1.3776
20
-1.66857
11
1.37872
21
-1.66932
0
LINE
8
BLACK
6
CONTINUOUS
10
1.37872
20
-1.66932
11
1.37946
21
-1.67043
0
LINE
8
BLACK
6
CONTINUOUS
10
1.37946
20
-1.67043
11
1.37972
21
-1.67175
0
LINE
8
BLACK
6
CONTINUOUS
10
1.37972
20
-1.67175
11
1.37972
21
-1.90108
0
LINE
8
BLACK
6
CONTINUOUS
10
1.37972
20
-1.90108
11
1.37946
21
-1.9024
0
LINE
8
BLACK
6
CONTINUOUS
10
1.37946
20
-1.9024
11
1.37872
21
-1.90352
0
LINE
8
BLACK
6
CONTINUOUS
10
1.37872
20
-1.90352
11
1.3776
21
-1.90427
0
LINE
8
BLACK
6
CONTINUOUS
10
1.3776
20
-1.90427
11
1.37628
21
-1.90453
0
LINE
8
BLACK
6
CONTINUOUS
10
1.37628
20
-1.90453
11
1.36939
21
-1.90453
0
LINE
8
BLACK
6
CONTINUOUS
10
1.36939
20
-1.90453
11
1.36807
21
-1.90427
0
LINE
8
BLACK
6
CONTINUOUS
10
1.36807
20
-1.90427
11
1.36695
21
-1.90352
0
LINE
8
BLACK
6
CONTINUOUS
10
1.36695
20
-1.90352
11
1.36621
21
-1.9024
0
LINE
8
BLACK
6
CONTINUOUS
10
1.36621
20
-1.9024
11
1.36594
21
-1.90108
0
LINE
8
BLACK
6
CONTINUOUS
10
1.36594
20
-1.90108
11
1.36594
21
-1.67175
0
LINE
8
BLACK
6
CONTINUOUS
10
1.36594
20
-1.67175
11
1.36621
21
-1.67043
0
LINE
8
BLACK
6
CONTINUOUS
10
1.36621
20
-1.67043
11
1.36695
21
-1.66932
0
LINE
8
BLACK
6
CONTINUOUS
10
1.36695
20
-1.66932
11
1.36807
21
-1.66857
0
LINE
8
BLACK
6
CONTINUOUS
10
1.36807
20
-1.66857
11
1.36939
21
-1.66831
0
LINE
8
BLACK
6
CONTINUOUS
10
1.36939
20
-1.66831
11
1.37628
21
-1.66831
0
LINE
8
BLACK
6
CONTINUOUS
10
1.37628
20
-1.66831
11
1.3776
21
-1.66857
0
LINE
8
BLACK
6
CONTINUOUS
10
1.40516
20
-1.66857
11
1.40627
21
-1.66932
0
LINE
8
BLACK
6
CONTINUOUS
10
1.40627
20
-1.66932
11
1.40702
21
-1.67043
0
LINE
8
BLACK
6
CONTINUOUS
10
1.40702
20
-1.67043
11
1.40728
21
-1.67175
0
LINE
8
BLACK
6
CONTINUOUS
10
1.40728
20
-1.67175
11
1.40728
21
-1.90108
0
LINE
8
BLACK
6
CONTINUOUS
10
1.40728
20
-1.90108
11
1.40702
21
-1.9024
0
LINE
8
BLACK
6
CONTINUOUS
10
1.40702
20
-1.9024
11
1.40627
21
-1.90352
0
LINE
8
BLACK
6
CONTINUOUS
10
1.40627
20
-1.90352
11
1.40516
21
-1.90427
0
LINE
8
BLACK
6
CONTINUOUS
10
1.40516
20
-1.90427
11
1.40384
21
-1.90453
0
LINE
8
BLACK
6
CONTINUOUS
10
1.40384
20
-1.90453
11
1.39695
21
-1.90453
0
LINE
8
BLACK
6
CONTINUOUS
10
1.39695
20
-1.90453
11
1.39563
21
-1.90427
0
LINE
8
BLACK
6
CONTINUOUS
10
1.39563
20
-1.90427
11
1.39451
21
-1.90352
0
LINE
8
BLACK
6
CONTINUOUS
10
1.39451
20
-1.90352
11
1.39377
21
-1.9024
0
LINE
8
BLACK
6
CONTINUOUS
10
1.39377
20
-1.9024
11
1.3935
21
-1.90108
0
LINE
8
BLACK
6
CONTINUOUS
10
1.3935
20
-1.90108
11
1.3935
21
-1.67175
0
LINE
8
BLACK
6
CONTINUOUS
10
1.3935
20
-1.67175
11
1.39377
21
-1.67043
0
LINE
8
BLACK
6
CONTINUOUS
10
1.39377
20
-1.67043
11
1.39451
21
-1.66932
0
LINE
8
BLACK
6
CONTINUOUS
10
1.39451
20
-1.66932
11
1.39563
21
-1.66857
0
LINE
8
BLACK
6
CONTINUOUS
10
1.39563
20
-1.66857
11
1.39695
21
-1.66831
0
LINE
8
BLACK
6
CONTINUOUS
10
1.39695
20
-1.66831
11
1.40384
21
-1.66831
0
LINE
8
BLACK
6
CONTINUOUS
10
1.40384
20
-1.66831
11
1.40516
21
-1.66857
0
LINE
8
BLACK
6
CONTINUOUS
10
1.43272
20
-1.66857
11
1.43383
21
-1.66932
0
LINE
8
BLACK
6
CONTINUOUS
10
1.43383
20
-1.66932
11
1.43458
21
-1.67043
0
LINE
8
BLACK
6
CONTINUOUS
10
1.43458
20
-1.67043
11
1.43484
21
-1.67175
0
LINE
8
BLACK
6
CONTINUOUS
10
1.43484
20
-1.67175
11
1.43484
21
-1.90108
0
LINE
8
BLACK
6
CONTINUOUS
10
1.43484
20
-1.90108
11
1.43458
21
-1.9024
0
LINE
8
BLACK
6
CONTINUOUS
10
1.43458
20
-1.9024
11
1.43383
21
-1.90352
0
LINE
8
BLACK
6
CONTINUOUS
10
1.43383
20
-1.90352
11
1.43272
21
-1.90427
0
LINE
8
BLACK
6
CONTINUOUS
10
1.43272
20
-1.90427
11
1.4314
21
-1.90453
0
LINE
8
BLACK
6
CONTINUOUS
10
1.4314
20
-1.90453
11
1.42451
21
-1.90453
0
LINE
8
BLACK
6
CONTINUOUS
10
1.42451
20
-1.90453
11
1.42319
21
-1.90427
0
LINE
8
BLACK
6
CONTINUOUS
10
1.42319
20
-1.90427
11
1.42207
21
-1.90352
0
LINE
8
BLACK
6
CONTINUOUS
10
1.42207
20
-1.90352
11
1.42133
21
-1.9024
0
LINE
8
BLACK
6
CONTINUOUS
10
1.42133
20
-1.9024
11
1.42106
21
-1.90108
0
LINE
8
BLACK
6
CONTINUOUS
10
1.42106
20
-1.90108
11
1.42106
21
-1.67175
0
LINE
8
BLACK
6
CONTINUOUS
10
1.42106
20
-1.67175
11
1.42133
21
-1.67043
0
LINE
8
BLACK
6
CONTINUOUS
10
1.42133
20
-1.67043
11
1.42207
21
-1.66932
0
LINE
8
BLACK
6
CONTINUOUS
10
1.42207
20
-1.66932
11
1.42319
21
-1.66857
0
LINE
8
BLACK
6
CONTINUOUS
10
1.42319
20
-1.66857
11
1.42451
21
-1.66831
0
LINE
8
BLACK
6
CONTINUOUS
10
1.42451
20
-1.66831
11
1.4314
21
-1.66831
0
LINE
8
BLACK
6
CONTINUOUS
10
1.4314
20
-1.66831
11
1.43272
21
-1.66857
0
LINE
8
BLACK
6
CONTINUOUS
10
1.46027
20
-1.66857
11
1.46139
21
-1.66932
0
LINE
8
BLACK
6
CONTINUOUS
10
1.46139
20
-1.66932
11
1.46214
21
-1.67043
0
LINE
8
BLACK
6
CONTINUOUS
10
1.46214
20
-1.67043
11
1.4624
21
-1.67175
0
LINE
8
BLACK
6
CONTINUOUS
10
1.4624
20
-1.67175
11
1.4624
21
-1.90108
0
LINE
8
BLACK
6
CONTINUOUS
10
1.4624
20
-1.90108
11
1.46214
21
-1.9024
0
LINE
8
BLACK
6
CONTINUOUS
10
1.46214
20
-1.9024
11
1.46139
21
-1.90352
0
LINE
8
BLACK
6
CONTINUOUS
10
1.46139
20
-1.90352
11
1.46027
21
-1.90427
0
LINE
8
BLACK
6
CONTINUOUS
10
1.46027
20
-1.90427
11
1.45896
21
-1.90453
0
LINE
8
BLACK
6
CONTINUOUS
10
1.45896
20
-1.90453
11
1.45207
21
-1.90453
0
LINE
8
BLACK
6
CONTINUOUS
10
1.45207
20
-1.90453
11
1.45075
21
-1.90427
0
LINE
8
BLACK
6
CONTINUOUS
10
1.45075
20
-1.90427
11
1.44963
21
-1.90352
0
LINE
8
BLACK
6
CONTINUOUS
10
1.44963
20
-1.90352
11
1.44888
21
-1.9024
0
LINE
8
BLACK
6
CONTINUOUS
10
1.44888
20
-1.9024
11
1.44862
21
-1.90108
0
LINE
8
BLACK
6
CONTINUOUS
10
1.44862
20
-1.90108
11
1.44862
21
-1.67175
0
LINE
8
BLACK
6
CONTINUOUS
10
1.44862
20
-1.67175
11
1.44888
21
-1.67043
0
LINE
8
BLACK
6
CONTINUOUS
10
1.44888
20
-1.67043
11
1.44963
21
-1.66932
0
LINE
8
BLACK
6
CONTINUOUS
10
1.44963
20
-1.66932
11
1.45075
21
-1.66857
0
LINE
8
BLACK
6
CONTINUOUS
10
1.45075
20
-1.66857
11
1.45207
21
-1.66831
0
LINE
8
BLACK
6
CONTINUOUS
10
1.45207
20
-1.66831
11
1.45896
21
-1.66831
0
LINE
8
BLACK
6
CONTINUOUS
10
1.45896
20
-1.66831
11
1.46027
21
-1.66857
0
LINE
8
BLACK
6
CONTINUOUS
10
1.48783
20
-1.66857
11
1.48895
21
-1.66932
0
LINE
8
BLACK
6
CONTINUOUS
10
1.48895
20
-1.66932
11
1.4897
21
-1.67043
0
LINE
8
BLACK
6
CONTINUOUS
10
1.4897
20
-1.67043
11
1.48996
21
-1.67175
0
LINE
8
BLACK
6
CONTINUOUS
10
1.48996
20
-1.67175
11
1.48996
21
-1.90108
0
LINE
8
BLACK
6
CONTINUOUS
10
1.48996
20
-1.90108
11
1.4897
21
-1.9024
0
LINE
8
BLACK
6
CONTINUOUS
10
1.4897
20
-1.9024
11
1.48895
21
-1.90352
0
LINE
8
BLACK
6
CONTINUOUS
10
1.48895
20
-1.90352
11
1.48783
21
-1.90427
0
LINE
8
BLACK
6
CONTINUOUS
10
1.48783
20
-1.90427
11
1.48652
21
-1.90453
0
LINE
8
BLACK
6
CONTINUOUS
10
1.48652
20
-1.90453
11
1.47963
21
-1.90453
0
LINE
8
BLACK
6
CONTINUOUS
10
1.47963
20
-1.90453
11
1.47831
21
-1.90427
0
LINE
8
BLACK
6
CONTINUOUS
10
1.47831
20
-1.90427
11
1.47719
21
-1.90352
0
LINE
8
BLACK
6
CONTINUOUS
10
1.47719
20
-1.90352
11
1.47644
21
-1.9024
0
LINE
8
BLACK
6
CONTINUOUS
10
1.47644
20
-1.9024
11
1.47618
21
-1.90108
0
LINE
8
BLACK
6
CONTINUOUS
10
1.47618
20
-1.90108
11
1.47618
21
-1.67175
0
LINE
8
BLACK
6
CONTINUOUS
10
1.47618
20
-1.67175
11
1.47644
21
-1.67043
0
LINE
8
BLACK
6
CONTINUOUS
10
1.47644
20
-1.67043
11
1.47719
21
-1.66932
0
LINE
8
BLACK
6
CONTINUOUS
10
1.47719
20
-1.66932
11
1.47831
21
-1.66857
0
LINE
8
BLACK
6
CONTINUOUS
10
1.47831
20
-1.66857
11
1.47963
21
-1.66831
0
LINE
8
BLACK
6
CONTINUOUS
10
1.47963
20
-1.66831
11
1.48652
21
-1.66831
0
LINE
8
BLACK
6
CONTINUOUS
10
1.48652
20
-1.66831
11
1.48783
21
-1.66857
0
LINE
8
BLACK
6
CONTINUOUS
10
1.51539
20
-1.66857
11
1.51651
21
-1.66932
0
LINE
8
BLACK
6
CONTINUOUS
10
1.51651
20
-1.66932
11
1.51726
21
-1.67043
0
LINE
8
BLACK
6
CONTINUOUS
10
1.51726
20
-1.67043
11
1.51752
21
-1.67175
0
LINE
8
BLACK
6
CONTINUOUS
10
1.51752
20
-1.67175
11
1.51752
21
-1.90108
0
LINE
8
BLACK
6
CONTINUOUS
10
1.51752
20
-1.90108
11
1.51726
21
-1.9024
0
LINE
8
BLACK
6
CONTINUOUS
10
1.51726
20
-1.9024
11
1.51651
21
-1.90352
0
LINE
8
BLACK
6
CONTINUOUS
10
1.51651
20
-1.90352
11
1.51539
21
-1.90427
0
LINE
8
BLACK
6
CONTINUOUS
10
1.51539
20
-1.90427
11
1.51407
21
-1.90453
0
LINE
8
BLACK
6
CONTINUOUS
10
1.51407
20
-1.90453
11
1.50719
21
-1.90453
0
LINE
8
BLACK
6
CONTINUOUS
10
1.50719
20
-1.90453
11
1.50587
21
-1.90427
0
LINE
8
BLACK
6
CONTINUOUS
10
1.50587
20
-1.90427
11
1.50475
21
-1.90352
0
LINE
8
BLACK
6
CONTINUOUS
10
1.50475
20
-1.90352
11
1.504
21
-1.9024
0
LINE
8
BLACK
6
CONTINUOUS
10
1.504
20
-1.9024
11
1.50374
21
-1.90108
0
LINE
8
BLACK
6
CONTINUOUS
10
1.50374
20
-1.90108
11
1.50374
21
-1.67175
0
LINE
8
BLACK
6
CONTINUOUS
10
1.50374
20
-1.67175
11
1.504
21
-1.67043
0
LINE
8
BLACK
6
CONTINUOUS
10
1.504
20
-1.67043
11
1.50475
21
-1.66932
0
LINE
8
BLACK
6
CONTINUOUS
10
1.50475
20
-1.66932
11
1.50587
21
-1.66857
0
LINE
8
BLACK
6
CONTINUOUS
10
1.50587
20
-1.66857
11
1.50719
21
-1.66831
0
LINE
8
BLACK
6
CONTINUOUS
10
1.50719
20
-1.66831
11
1.51407
21
-1.66831
0
LINE
8
BLACK
6
CONTINUOUS
10
1.51407
20
-1.66831
11
1.51539
21
-1.66857
0
LINE
8
BLACK
6
CONTINUOUS
10
1.54295
20
-1.66857
11
1.54407
21
-1.66932
0
LINE
8
BLACK
6
CONTINUOUS
10
1.54407
20
-1.66932
11
1.54482
21
-1.67043
0
LINE
8
BLACK
6
CONTINUOUS
10
1.54482
20
-1.67043
11
1.54508
21
-1.67175
0
LINE
8
BLACK
6
CONTINUOUS
10
1.54508
20
-1.67175
11
1.54508
21
-1.90108
0
LINE
8
BLACK
6
CONTINUOUS
10
1.54508
20
-1.90108
11
1.54482
21
-1.9024
0
LINE
8
BLACK
6
CONTINUOUS
10
1.54482
20
-1.9024
11
1.54407
21
-1.90352
0
LINE
8
BLACK
6
CONTINUOUS
10
1.54407
20
-1.90352
11
1.54295
21
-1.90427
0
LINE
8
BLACK
6
CONTINUOUS
10
1.54295
20
-1.90427
11
1.54163
21
-1.90453
0
LINE
8
BLACK
6
CONTINUOUS
10
1.54163
20
-1.90453
11
1.53474
21
-1.90453
0
LINE
8
BLACK
6
CONTINUOUS
10
1.53474
20
-1.90453
11
1.53343
21
-1.90427
0
LINE
8
BLACK
6
CONTINUOUS
10
1.53343
20
-1.90427
11
1.53231
21
-1.90352
0
LINE
8
BLACK
6
CONTINUOUS
10
1.53231
20
-1.90352
11
1.53156
21
-1.9024
0
LINE
8
BLACK
6
CONTINUOUS
10
1.53156
20
-1.9024
11
1.5313
21
-1.90108
0
LINE
8
BLACK
6
CONTINUOUS
10
1.5313
20
-1.90108
11
1.5313
21
-1.67175
0
LINE
8
BLACK
6
CONTINUOUS
10
1.5313
20
-1.67175
11
1.53156
21
-1.67043
0
LINE
8
BLACK
6
CONTINUOUS
10
1.53156
20
-1.67043
11
1.53231
21
-1.66932
0
LINE
8
BLACK
6
CONTINUOUS
10
1.53231
20
-1.66932
11
1.53343
21
-1.66857
0
LINE
8
BLACK
6
CONTINUOUS
10
1.53343
20
-1.66857
11
1.53474
21
-1.66831
0
LINE
8
BLACK
6
CONTINUOUS
10
1.53474
20
-1.66831
11
1.54163
21
-1.66831
0
LINE
8
BLACK
6
CONTINUOUS
10
1.54163
20
-1.66831
11
1.54295
21
-1.66857
0
LINE
8
BLACK
6
CONTINUOUS
10
1.57051
20
-1.66857
11
1.57163
21
-1.66932
0
LINE
8
BLACK
6
CONTINUOUS
10
1.57163
20
-1.66932
11
1.57238
21
-1.67043
0
LINE
8
BLACK
6
CONTINUOUS
10
1.57238
20
-1.67043
11
1.57264
21
-1.67175
0
LINE
8
BLACK
6
CONTINUOUS
10
1.57264
20
-1.67175
11
1.57264
21
-1.90108
0
LINE
8
BLACK
6
CONTINUOUS
10
1.57264
20
-1.90108
11
1.57238
21
-1.9024
0
LINE
8
BLACK
6
CONTINUOUS
10
1.57238
20
-1.9024
11
1.57163
21
-1.90352
0
LINE
8
BLACK
6
CONTINUOUS
10
1.57163
20
-1.90352
11
1.57051
21
-1.90427
0
LINE
8
BLACK
6
CONTINUOUS
10
1.57051
20
-1.90427
11
1.56919
21
-1.90453
0
LINE
8
BLACK
6
CONTINUOUS
10
1.56919
20
-1.90453
11
1.5623
21
-1.90453
0
LINE
8
BLACK
6
CONTINUOUS
10
1.5623
20
-1.90453
11
1.56098
21
-1.90427
0
LINE
8
BLACK
6
CONTINUOUS
10
1.56098
20
-1.90427
11
1.55987
21
-1.90352
0
LINE
8
BLACK
6
CONTINUOUS
10
1.55987
20
-1.90352
11
1.55912
21
-1.9024
0
LINE
8
BLACK
6
CONTINUOUS
10
1.55912
20
-1.9024
11
1.55886
21
-1.90108
0
LINE
8
BLACK
6
CONTINUOUS
10
1.55886
20
-1.90108
11
1.55886
21
-1.67175
0
LINE
8
BLACK
6
CONTINUOUS
10
1.55886
20
-1.67175
11
1.55912
21
-1.67043
0
LINE
8
BLACK
6
CONTINUOUS
10
1.55912
20
-1.67043
11
1.55987
21
-1.66932
0
LINE
8
BLACK
6
CONTINUOUS
10
1.55987
20
-1.66932
11
1.56098
21
-1.66857
0
LINE
8
BLACK
6
CONTINUOUS
10
1.56098
20
-1.66857
11
1.5623
21
-1.66831
0
LINE
8
BLACK
6
CONTINUOUS
10
1.5623
20
-1.66831
11
1.56919
21
-1.66831
0
LINE
8
BLACK
6
CONTINUOUS
10
1.56919
20
-1.66831
11
1.57051
21
-1.66857
0
LINE
8
BLACK
6
CONTINUOUS
10
1.59807
20
-1.66857
11
1.59919
21
-1.66932
0
LINE
8
BLACK
6
CONTINUOUS
10
1.59919
20
-1.66932
11
1.59993
21
-1.67043
0
LINE
8
BLACK
6
CONTINUOUS
10
1.59993
20
-1.67043
11
1.6002
21
-1.67175
0
LINE
8
BLACK
6
CONTINUOUS
10
1.6002
20
-1.67175
11
1.6002
21
-1.90108
0
LINE
8
BLACK
6
CONTINUOUS
10
1.6002
20
-1.90108
11
1.59993
21
-1.9024
0
LINE
8
BLACK
6
CONTINUOUS
10
1.59993
20
-1.9024
11
1.59919
21
-1.90352
0
LINE
8
BLACK
6
CONTINUOUS
10
1.59919
20
-1.90352
11
1.59807
21
-1.90427
0
LINE
8
BLACK
6
CONTINUOUS
10
1.59807
20
-1.90427
11
1.59675
21
-1.90453
0
LINE
8
BLACK
6
CONTINUOUS
10
1.59675
20
-1.90453
11
1.58986
21
-1.90453
0
LINE
8
BLACK
6
CONTINUOUS
10
1.58986
20
-1.90453
11
1.58854
21
-1.90427
0
LINE
8
BLACK
6
CONTINUOUS
10
1.58854
20
-1.90427
11
1.58743
21
-1.90352
0
LINE
8
BLACK
6
CONTINUOUS
10
1.58743
20
-1.90352
11
1.58668
21
-1.9024
0
LINE
8
BLACK
6
CONTINUOUS
10
1.58668
20
-1.9024
11
1.58642
21
-1.90108
0
LINE
8
BLACK
6
CONTINUOUS
10
1.58642
20
-1.90108
11
1.58642
21
-1.67175
0
LINE
8
BLACK
6
CONTINUOUS
10
1.58642
20
-1.67175
11
1.58668
21
-1.67043
0
LINE
8
BLACK
6
CONTINUOUS
10
1.58668
20
-1.67043
11
1.58743
21
-1.66932
0
LINE
8
BLACK
6
CONTINUOUS
10
1.58743
20
-1.66932
11
1.58854
21
-1.66857
0
LINE
8
BLACK
6
CONTINUOUS
10
1.58854
20
-1.66857
11
1.58986
21
-1.66831
0
LINE
8
BLACK
6
CONTINUOUS
10
1.58986
20
-1.66831
11
1.59675
21
-1.66831
0
LINE
8
BLACK
6
CONTINUOUS
10
1.59675
20
-1.66831
11
1.59807
21
-1.66857
0
LINE
8
BLACK
6
CONTINUOUS
10
1.62563
20
-1.66857
11
1.62675
21
-1.66932
0
LINE
8
BLACK
6
CONTINUOUS
10
1.62675
20
-1.66932
11
1.62749
21
-1.67043
0
LINE
8
BLACK
6
CONTINUOUS
10
1.62749
20
-1.67043
11
1.62776
21
-1.67175
0
LINE
8
BLACK
6
CONTINUOUS
10
1.62776
20
-1.67175
11
1.62776
21
-1.90108
0
LINE
8
BLACK
6
CONTINUOUS
10
1.62776
20
-1.90108
11
1.62749
21
-1.9024
0
LINE
8
BLACK
6
CONTINUOUS
10
1.62749
20
-1.9024
11
1.62675
21
-1.90352
0
LINE
8
BLACK
6
CONTINUOUS
10
1.62675
20
-1.90352
11
1.62563
21
-1.90427
0
LINE
8
BLACK
6
CONTINUOUS
10
1.62563
20
-1.90427
11
1.62431
21
-1.90453
0
LINE
8
BLACK
6
CONTINUOUS
10
1.62431
20
-1.90453
11
1.61742
21
-1.90453
0
LINE
8
BLACK
6
CONTINUOUS
10
1.61742
20
-1.90453
11
1.6161
21
-1.90427
0
LINE
8
BLACK
6
CONTINUOUS
10
1.6161
20
-1.90427
11
1.61499
21
-1.90352
0
LINE
8
BLACK
6
CONTINUOUS
10
1.61499
20
-1.90352
11
1.61424
21
-1.9024
0
LINE
8
BLACK
6
CONTINUOUS
10
1.61424
20
-1.9024
11
1.61398
21
-1.90108
0
LINE
8
BLACK
6
CONTINUOUS
10
1.61398
20
-1.90108
11
1.61398
21
-1.67175
0
LINE
8
BLACK
6
CONTINUOUS
10
1.61398
20
-1.67175
11
1.61424
21
-1.67043
0
LINE
8
BLACK
6
CONTINUOUS
10
1.61424
20
-1.67043
11
1.61499
21
-1.66932
0
LINE
8
BLACK
6
CONTINUOUS
10
1.61499
20
-1.66932
11
1.6161
21
-1.66857
0
LINE
8
BLACK
6
CONTINUOUS
10
1.6161
20
-1.66857
11
1.61742
21
-1.66831
0
LINE
8
BLACK
6
CONTINUOUS
10
1.61742
20
-1.66831
11
1.62431
21
-1.66831
0
LINE
8
BLACK
6
CONTINUOUS
10
1.62431
20
-1.66831
11
1.62563
21
-1.66857
0
LINE
8
BLACK
6
CONTINUOUS
10
1.65319
20
-1.66857
11
1.65431
21
-1.66932
0
LINE
8
BLACK
6
CONTINUOUS
10
1.65431
20
-1.66932
11
1.65505
21
-1.67043
0
LINE
8
BLACK
6
CONTINUOUS
10
1.65505
20
-1.67043
11
1.65531
21
-1.67175
0
LINE
8
BLACK
6
CONTINUOUS
10
1.65531
20
-1.67175
11
1.65531
21
-1.90108
0
LINE
8
BLACK
6
CONTINUOUS
10
1.65531
20
-1.90108
11
1.65505
21
-1.9024
0
LINE
8
BLACK
6
CONTINUOUS
10
1.65505
20
-1.9024
11
1.65431
21
-1.90352
0
LINE
8
BLACK
6
CONTINUOUS
10
1.65431
20
-1.90352
11
1.65319
21
-1.90427
0
LINE
8
BLACK
6
CONTINUOUS
10
1.65319
20
-1.90427
11
1.65187
21
-1.90453
0
LINE
8
BLACK
6
CONTINUOUS
10
1.65187
20
-1.90453
11
1.64498
21
-1.90453
0
LINE
8
BLACK
6
CONTINUOUS
10
1.64498
20
-1.90453
11
1.64366
21
-1.90427
0
LINE
8
BLACK
6
CONTINUOUS
10
1.64366
20
-1.90427
11
1.64254
21
-1.90352
0
LINE
8
BLACK
6
CONTINUOUS
10
1.64254
20
-1.90352
11
1.6418
21
-1.9024
0
LINE
8
BLACK
6
CONTINUOUS
10
1.6418
20
-1.9024
11
1.64154
21
-1.90108
0
LINE
8
BLACK
6
CONTINUOUS
10
1.64154
20
-1.90108
11
1.64154
21
-1.67175
0
LINE
8
BLACK
6
CONTINUOUS
10
1.64154
20
-1.67175
11
1.6418
21
-1.67043
0
LINE
8
BLACK
6
CONTINUOUS
10
1.6418
20
-1.67043
11
1.64254
21
-1.66932
0
LINE
8
BLACK
6
CONTINUOUS
10
1.64254
20
-1.66932
11
1.64366
21
-1.66857
0
LINE
8
BLACK
6
CONTINUOUS
10
1.64366
20
-1.66857
11
1.64498
21
-1.66831
0
LINE
8
BLACK
6
CONTINUOUS
10
1.64498
20
-1.66831
11
1.65187
21
-1.66831
0
LINE
8
BLACK
6
CONTINUOUS
10
1.65187
20
-1.66831
11
1.65319
21
-1.66857
0
LINE
8
BLACK
6
CONTINUOUS
10
1.68075
20
-1.66857
11
1.68187
21
-1.66932
0
LINE
8
BLACK
6
CONTINUOUS
10
1.68187
20
-1.66932
11
1.68261
21
-1.67043
0
LINE
8
BLACK
6
CONTINUOUS
10
1.68261
20
-1.67043
11
1.68287
21
-1.67175
0
LINE
8
BLACK
6
CONTINUOUS
10
1.68287
20
-1.67175
11
1.68287
21
-1.90108
0
LINE
8
BLACK
6
CONTINUOUS
10
1.68287
20
-1.90108
11
1.68261
21
-1.9024
0
LINE
8
BLACK
6
CONTINUOUS
10
1.68261
20
-1.9024
11
1.68187
21
-1.90352
0
LINE
8
BLACK
6
CONTINUOUS
10
1.68187
20
-1.90352
11
1.68075
21
-1.90427
0
LINE
8
BLACK
6
CONTINUOUS
10
1.68075
20
-1.90427
11
1.67943
21
-1.90453
0
LINE
8
BLACK
6
CONTINUOUS
10
1.67943
20
-1.90453
11
1.67254
21
-1.90453
0
LINE
8
BLACK
6
CONTINUOUS
10
1.67254
20
-1.90453
11
1.67122
21
-1.90427
0
LINE
8
BLACK
6
CONTINUOUS
10
1.67122
20
-1.90427
11
1.6701
21
-1.90352
0
LINE
8
BLACK
6
CONTINUOUS
10
1.6701
20
-1.90352
11
1.66936
21
-1.9024
0
LINE
8
BLACK
6
CONTINUOUS
10
1.66936
20
-1.9024
11
1.66909
21
-1.90108
0
LINE
8
BLACK
6
CONTINUOUS
10
1.66909
20
-1.90108
11
1.66909
21
-1.67175
0
LINE
8
BLACK
6
CONTINUOUS
10
1.66909
20
-1.67175
11
1.66936
21
-1.67043
0
LINE
8
BLACK
6
CONTINUOUS
10
1.66936
20
-1.67043
11
1.6701
21
-1.66932
0
LINE
8
BLACK
6
CONTINUOUS
10
1.6701
20
-1.66932
11
1.67122
21
-1.66857
0
LINE
8
BLACK
6
CONTINUOUS
10
1.67122
20
-1.66857
11
1.67254
21
-1.66831
0
LINE
8
BLACK
6
CONTINUOUS
10
1.67254
20
-1.66831
11
1.67943
21
-1.66831
0
LINE
8
BLACK
6
CONTINUOUS
10
1.67943
20
-1.66831
11
1.68075
21
-1.66857
0
LINE
8
BLACK
6
CONTINUOUS
10
1.70831
20
-1.66857
11
1.70942
21
-1.66932
0
LINE
8
BLACK
6
CONTINUOUS
10
1.70942
20
-1.66932
11
1.71017
21
-1.67043
0
LINE
8
BLACK
6
CONTINUOUS
10
1.71017
20
-1.67043
11
1.71043
21
-1.67175
0
LINE
8
BLACK
6
CONTINUOUS
10
1.71043
20
-1.67175
11
1.71043
21
-1.90108
0
LINE
8
BLACK
6
CONTINUOUS
10
1.71043
20
-1.90108
11
1.71017
21
-1.9024
0
LINE
8
BLACK
6
CONTINUOUS
10
1.71017
20
-1.9024
11
1.70942
21
-1.90352
0
LINE
8
BLACK
6
CONTINUOUS
10
1.70942
20
-1.90352
11
1.70831
21
-1.90427
0
LINE
8
BLACK
6
CONTINUOUS
10
1.70831
20
-1.90427
11
1.70699
21
-1.90453
0
LINE
8
BLACK
6
CONTINUOUS
10
1.70699
20
-1.90453
11
1.7001
21
-1.90453
0
LINE
8
BLACK
6
CONTINUOUS
10
1.7001
20
-1.90453
11
1.69878
21
-1.90427
0
LINE
8
BLACK
6
CONTINUOUS
10
1.69878
20
-1.90427
11
1.69766
21
-1.90352
0
LINE
8
BLACK
6
CONTINUOUS
10
1.69766
20
-1.90352
11
1.69692
21
-1.9024
0
LINE
8
BLACK
6
CONTINUOUS
10
1.69692
20
-1.9024
11
1.69665
21
-1.90108
0
LINE
8
BLACK
6
CONTINUOUS
10
1.69665
20
-1.90108
11
1.69665
21
-1.67175
0
LINE
8
BLACK
6
CONTINUOUS
10
1.69665
20
-1.67175
11
1.69692
21
-1.67043
0
LINE
8
BLACK
6
CONTINUOUS
10
1.69692
20
-1.67043
11
1.69766
21
-1.66932
0
LINE
8
BLACK
6
CONTINUOUS
10
1.69766
20
-1.66932
11
1.69878
21
-1.66857
0
LINE
8
BLACK
6
CONTINUOUS
10
1.69878
20
-1.66857
11
1.7001
21
-1.66831
0
LINE
8
BLACK
6
CONTINUOUS
10
1.7001
20
-1.66831
11
1.70699
21
-1.66831
0
LINE
8
BLACK
6
CONTINUOUS
10
1.70699
20
-1.66831
11
1.70831
21
-1.66857
0
LINE
8
BLACK
6
CONTINUOUS
10
1.73587
20
-1.66857
11
1.73698
21
-1.66932
0
LINE
8
BLACK
6
CONTINUOUS
10
1.73698
20
-1.66932
11
1.73773
21
-1.67043
0
LINE
8
BLACK
6
CONTINUOUS
10
1.73773
20
-1.67043
11
1.73799
21
-1.67175
0
LINE
8
BLACK
6
CONTINUOUS
10
1.73799
20
-1.67175
11
1.73799
21
-1.90108
0
LINE
8
BLACK
6
CONTINUOUS
10
1.73799
20
-1.90108
11
1.73773
21
-1.9024
0
LINE
8
BLACK
6
CONTINUOUS
10
1.73773
20
-1.9024
11
1.73698
21
-1.90352
0
LINE
8
BLACK
6
CONTINUOUS
10
1.73698
20
-1.90352
11
1.73587
21
-1.90427
0
LINE
8
BLACK
6
CONTINUOUS
10
1.73587
20
-1.90427
11
1.73455
21
-1.90453
0
LINE
8
BLACK
6
CONTINUOUS
10
1.73455
20
-1.90453
11
1.72766
21
-1.90453
0
LINE
8
BLACK
6
CONTINUOUS
10
1.72766
20
-1.90453
11
1.72634
21
-1.90427
0
LINE
8
BLACK
6
CONTINUOUS
10
1.72634
20
-1.90427
11
1.72522
21
-1.90352
0
LINE
8
BLACK
6
CONTINUOUS
10
1.72522
20
-1.90352
11
1.72447
21
-1.9024
0
LINE
8
BLACK
6
CONTINUOUS
10
1.72447
20
-1.9024
11
1.72421
21
-1.90108
0
LINE
8
BLACK
6
CONTINUOUS
10
1.72421
20
-1.90108
11
1.72421
21
-1.67175
0
LINE
8
BLACK
6
CONTINUOUS
10
1.72421
20
-1.67175
11
1.72447
21
-1.67043
0
LINE
8
BLACK
6
CONTINUOUS
10
1.72447
20
-1.67043
11
1.72522
21
-1.66932
0
LINE
8
BLACK
6
CONTINUOUS
10
1.72522
20
-1.66932
11
1.72634
21
-1.66857
0
LINE
8
BLACK
6
CONTINUOUS
10
1.72634
20
-1.66857
11
1.72766
21
-1.66831
0
LINE
8
BLACK
6
CONTINUOUS
10
1.72766
20
-1.66831
11
1.73455
21
-1.66831
0
LINE
8
BLACK
6
CONTINUOUS
10
1.73455
20
-1.66831
11
1.73587
21
-1.66857
0
LINE
8
BLACK
6
CONTINUOUS
10
1.76342
20
-1.66857
11
1.76454
21
-1.66932
0
LINE
8
BLACK
6
CONTINUOUS
10
1.76454
20
-1.66932
11
1.76529
21
-1.67043
0
LINE
8
BLACK
6
CONTINUOUS
10
1.76529
20
-1.67043
11
1.76555
21
-1.67175
0
LINE
8
BLACK
6
CONTINUOUS
10
1.76555
20
-1.67175
11
1.76555
21
-1.90108
0
LINE
8
BLACK
6
CONTINUOUS
10
1.76555
20
-1.90108
11
1.76529
21
-1.9024
0
LINE
8
BLACK
6
CONTINUOUS
10
1.76529
20
-1.9024
11
1.76454
21
-1.90352
0
LINE
8
BLACK
6
CONTINUOUS
10
1.76454
20
-1.90352
11
1.76342
21
-1.90427
0
LINE
8
BLACK
6
CONTINUOUS
10
1.76342
20
-1.90427
11
1.76211
21
-1.90453
0
LINE
8
BLACK
6
CONTINUOUS
10
1.76211
20
-1.90453
11
1.75522
21
-1.90453
0
LINE
8
BLACK
6
CONTINUOUS
10
1.75522
20
-1.90453
11
1.7539
21
-1.90427
0
LINE
8
BLACK
6
CONTINUOUS
10
1.7539
20
-1.90427
11
1.75278
21
-1.90352
0
LINE
8
BLACK
6
CONTINUOUS
10
1.75278
20
-1.90352
11
1.75203
21
-1.9024
0
LINE
8
BLACK
6
CONTINUOUS
10
1.75203
20
-1.9024
11
1.75177
21
-1.90108
0
LINE
8
BLACK
6
CONTINUOUS
10
1.75177
20
-1.90108
11
1.75177
21
-1.67175
0
LINE
8
BLACK
6
CONTINUOUS
10
1.75177
20
-1.67175
11
1.75203
21
-1.67043
0
LINE
8
BLACK
6
CONTINUOUS
10
1.75203
20
-1.67043
11
1.75278
21
-1.66932
0
LINE
8
BLACK
6
CONTINUOUS
10
1.75278
20
-1.66932
11
1.7539
21
-1.66857
0
LINE
8
BLACK
6
CONTINUOUS
10
1.7539
20
-1.66857
11
1.75522
21
-1.66831
0
LINE
8
BLACK
6
CONTINUOUS
10
1.75522
20
-1.66831
11
1.76211
21
-1.66831
0
LINE
8
BLACK
6
CONTINUOUS
10
1.76211
20
-1.66831
11
1.76342
21
-1.66857
0
LINE
8
BLACK
6
CONTINUOUS
10
1.79098
20
-1.66857
11
1.7921
21
-1.66932
0
LINE
8
BLACK
6
CONTINUOUS
10
1.7921
20
-1.66932
11
1.79285
21
-1.67043
0
LINE
8
BLACK
6
CONTINUOUS
10
1.79285
20
-1.67043
11
1.79311
21
-1.67175
0
LINE
8
BLACK
6
CONTINUOUS
10
1.79311
20
-1.67175
11
1.79311
21
-1.90108
0
LINE
8
BLACK
6
CONTINUOUS
10
1.79311
20
-1.90108
11
1.79285
21
-1.9024
0
LINE
8
BLACK
6
CONTINUOUS
10
1.79285
20
-1.9024
11
1.7921
21
-1.90352
0
LINE
8
BLACK
6
CONTINUOUS
10
1.7921
20
-1.90352
11
1.79098
21
-1.90427
0
LINE
8
BLACK
6
CONTINUOUS
10
1.79098
20
-1.90427
11
1.78967
21
-1.90453
0
LINE
8
BLACK
6
CONTINUOUS
10
1.78967
20
-1.90453
11
1.78278
21
-1.90453
0
LINE
8
BLACK
6
CONTINUOUS
10
1.78278
20
-1.90453
11
1.78146
21
-1.90427
0
LINE
8
BLACK
6
CONTINUOUS
10
1.78146
20
-1.90427
11
1.78034
21
-1.90352
0
LINE
8
BLACK
6
CONTINUOUS
10
1.78034
20
-1.90352
11
1.77959
21
-1.9024
0
LINE
8
BLACK
6
CONTINUOUS
10
1.77959
20
-1.9024
11
1.77933
21
-1.90108
0
LINE
8
BLACK
6
CONTINUOUS
10
1.77933
20
-1.90108
11
1.77933
21
-1.67175
0
LINE
8
BLACK
6
CONTINUOUS
10
1.77933
20
-1.67175
11
1.77959
21
-1.67043
0
LINE
8
BLACK
6
CONTINUOUS
10
1.77959
20
-1.67043
11
1.78034
21
-1.66932
0
LINE
8
BLACK
6
CONTINUOUS
10
1.78034
20
-1.66932
11
1.78146
21
-1.66857
0
LINE
8
BLACK
6
CONTINUOUS
10
1.78146
20
-1.66857
11
1.78278
21
-1.66831
0
LINE
8
BLACK
6
CONTINUOUS
10
1.78278
20
-1.66831
11
1.78967
21
-1.66831
0
LINE
8
BLACK
6
CONTINUOUS
10
1.78967
20
-1.66831
11
1.79098
21
-1.66857
0
LINE
8
BLACK
6
CONTINUOUS
10
1.81854
20
-1.66857
11
1.81966
21
-1.66932
0
LINE
8
BLACK
6
CONTINUOUS
10
1.81966
20
-1.66932
11
1.82041
21
-1.67043
0
LINE
8
BLACK
6
CONTINUOUS
10
1.82041
20
-1.67043
11
1.82067
21
-1.67175
0
LINE
8
BLACK
6
CONTINUOUS
10
1.82067
20
-1.67175
11
1.82067
21
-1.90108
0
LINE
8
BLACK
6
CONTINUOUS
10
1.82067
20
-1.90108
11
1.82041
21
-1.9024
0
LINE
8
BLACK
6
CONTINUOUS
10
1.82041
20
-1.9024
11
1.81966
21
-1.90352
0
LINE
8
BLACK
6
CONTINUOUS
10
1.81966
20
-1.90352
11
1.81854
21
-1.90427
0
LINE
8
BLACK
6
CONTINUOUS
10
1.81854
20
-1.90427
11
1.81722
21
-1.90453
0
LINE
8
BLACK
6
CONTINUOUS
10
1.81722
20
-1.90453
11
1.81033
21
-1.90453
0
LINE
8
BLACK
6
CONTINUOUS
10
1.81033
20
-1.90453
11
1.80902
21
-1.90427
0
LINE
8
BLACK
6
CONTINUOUS
10
1.80902
20
-1.90427
11
1.8079
21
-1.90352
0
LINE
8
BLACK
6
CONTINUOUS
10
1.8079
20
-1.90352
11
1.80715
21
-1.9024
0
LINE
8
BLACK
6
CONTINUOUS
10
1.80715
20
-1.9024
11
1.80689
21
-1.90108
0
LINE
8
BLACK
6
CONTINUOUS
10
1.80689
20
-1.90108
11
1.80689
21
-1.67175
0
LINE
8
BLACK
6
CONTINUOUS
10
1.80689
20
-1.67175
11
1.80715
21
-1.67043
0
LINE
8
BLACK
6
CONTINUOUS
10
1.80715
20
-1.67043
11
1.8079
21
-1.66932
0
LINE
8
BLACK
6
CONTINUOUS
10
1.8079
20
-1.66932
11
1.80902
21
-1.66857
0
LINE
8
BLACK
6
CONTINUOUS
10
1.80902
20
-1.66857
11
1.81033
21
-1.66831
0
LINE
8
BLACK
6
CONTINUOUS
10
1.81033
20
-1.66831
11
1.81722
21
-1.66831
0
LINE
8
BLACK
6
CONTINUOUS
10
1.81722
20
-1.66831
11
1.81854
21
-1.66857
0
LINE
8
BLACK
6
CONTINUOUS
10
2.10754
20
-1.59195
11
2.11225
21
-1.59498
0
LINE
8
BLACK
6
CONTINUOUS
10
2.11225
20
-1.59498
11
2.11592
21
-1.59921
0
LINE
8
BLACK
6
CONTINUOUS
10
2.11592
20
-1.59921
11
2.11825
21
-1.60431
0
LINE
8
BLACK
6
CONTINUOUS
10
2.11825
20
-1.60431
11
2.11905
21
-1.60985
0
LINE
8
BLACK
6
CONTINUOUS
10
2.11905
20
-1.60985
11
2.11825
21
-1.6154
0
LINE
8
BLACK
6
CONTINUOUS
10
2.11825
20
-1.6154
11
2.11592
21
-1.6205
0
LINE
8
BLACK
6
CONTINUOUS
10
2.11592
20
-1.6205
11
2.11225
21
-1.62473
0
LINE
8
BLACK
6
CONTINUOUS
10
2.11225
20
-1.62473
11
2.10754
21
-1.62776
0
LINE
8
BLACK
6
CONTINUOUS
10
2.10754
20
-1.62776
11
2.10216
21
-1.62934
0
LINE
8
BLACK
6
CONTINUOUS
10
2.10216
20
-1.62934
11
2.09656
21
-1.62934
0
LINE
8
BLACK
6
CONTINUOUS
10
2.09656
20
-1.62934
11
2.09118
21
-1.62776
0
LINE
8
BLACK
6
CONTINUOUS
10
2.09118
20
-1.62776
11
2.08647
21
-1.62473
0
LINE
8
BLACK
6
CONTINUOUS
10
2.08647
20
-1.62473
11
2.0828
21
-1.6205
0
LINE
8
BLACK
6
CONTINUOUS
10
2.0828
20
-1.6205
11
2.08047
21
-1.6154
0
LINE
8
BLACK
6
CONTINUOUS
10
2.08047
20
-1.6154
11
2.07968
21
-1.60985
0
LINE
8
BLACK
6
CONTINUOUS
10
2.07968
20
-1.60985
11
2.08047
21
-1.60431
0
LINE
8
BLACK
6
CONTINUOUS
10
2.08047
20
-1.60431
11
2.0828
21
-1.59921
0
LINE
8
BLACK
6
CONTINUOUS
10
2.0828
20
-1.59921
11
2.08647
21
-1.59498
0
LINE
8
BLACK
6
CONTINUOUS
10
2.08647
20
-1.59498
11
2.09118
21
-1.59195
0
LINE
8
BLACK
6
CONTINUOUS
10
2.09118
20
-1.59195
11
2.09656
21
-1.59037
0
LINE
8
BLACK
6
CONTINUOUS
10
2.09656
20
-1.59037
11
2.10216
21
-1.59037
0
LINE
8
BLACK
6
CONTINUOUS
10
2.10216
20
-1.59037
11
2.10754
21
-1.59195
0
LINE
8
BLACK
6
CONTINUOUS
10
2.19415
20
-1.59195
11
2.19887
21
-1.59498
0
LINE
8
BLACK
6
CONTINUOUS
10
2.19887
20
-1.59498
11
2.20254
21
-1.59921
0
LINE
8
BLACK
6
CONTINUOUS
10
2.20254
20
-1.59921
11
2.20486
21
-1.60431
0
LINE
8
BLACK
6
CONTINUOUS
10
2.20486
20
-1.60431
11
2.20566
21
-1.60985
0
LINE
8
BLACK
6
CONTINUOUS
10
2.20566
20
-1.60985
11
2.20486
21
-1.6154
0
LINE
8
BLACK
6
CONTINUOUS
10
2.20486
20
-1.6154
11
2.20254
21
-1.6205
0
LINE
8
BLACK
6
CONTINUOUS
10
2.20254
20
-1.6205
11
2.19887
21
-1.62473
0
LINE
8
BLACK
6
CONTINUOUS
10
2.19887
20
-1.62473
11
2.19415
21
-1.62776
0
LINE
8
BLACK
6
CONTINUOUS
10
2.19415
20
-1.62776
11
2.18878
21
-1.62934
0
LINE
8
BLACK
6
CONTINUOUS
10
2.18878
20
-1.62934
11
2.18317
21
-1.62934
0
LINE
8
BLACK
6
CONTINUOUS
10
2.18317
20
-1.62934
11
2.1778
21
-1.62776
0
LINE
8
BLACK
6
CONTINUOUS
10
2.1778
20
-1.62776
11
2.17309
21
-1.62473
0
LINE
8
BLACK
6
CONTINUOUS
10
2.17309
20
-1.62473
11
2.16942
21
-1.6205
0
LINE
8
BLACK
6
CONTINUOUS
10
2.16942
20
-1.6205
11
2.16709
21
-1.6154
0
LINE
8
BLACK
6
CONTINUOUS
10
2.16709
20
-1.6154
11
2.16629
21
-1.60985
0
LINE
8
BLACK
6
CONTINUOUS
10
2.16629
20
-1.60985
11
2.16709
21
-1.60431
0
LINE
8
BLACK
6
CONTINUOUS
10
2.16709
20
-1.60431
11
2.16942
21
-1.59921
0
LINE
8
BLACK
6
CONTINUOUS
10
2.16942
20
-1.59921
11
2.17309
21
-1.59498
0
LINE
8
BLACK
6
CONTINUOUS
10
2.17309
20
-1.59498
11
2.1778
21
-1.59195
0
LINE
8
BLACK
6
CONTINUOUS
10
2.1778
20
-1.59195
11
2.18317
21
-1.59037
0
LINE
8
BLACK
6
CONTINUOUS
10
2.18317
20
-1.59037
11
2.18878
21
-1.59037
0
LINE
8
BLACK
6
CONTINUOUS
10
2.18878
20
-1.59037
11
2.19415
21
-1.59195
0
LINE
8
BLACK
6
CONTINUOUS
10
2.28077
20
-1.59195
11
2.28548
21
-1.59498
0
LINE
8
BLACK
6
CONTINUOUS
10
2.28548
20
-1.59498
11
2.28915
21
-1.59921
0
LINE
8
BLACK
6
CONTINUOUS
10
2.28915
20
-1.59921
11
2.29148
21
-1.60431
0
LINE
8
BLACK
6
CONTINUOUS
10
2.29148
20
-1.60431
11
2.29228
21
-1.60985
0
LINE
8
BLACK
6
CONTINUOUS
10
2.29228
20
-1.60985
11
2.29148
21
-1.6154
0
LINE
8
BLACK
6
CONTINUOUS
10
2.29148
20
-1.6154
11
2.28915
21
-1.6205
0
LINE
8
BLACK
6
CONTINUOUS
10
2.28915
20
-1.6205
11
2.28548
21
-1.62473
0
LINE
8
BLACK
6
CONTINUOUS
10
2.28548
20
-1.62473
11
2.28077
21
-1.62776
0
LINE
8
BLACK
6
CONTINUOUS
10
2.28077
20
-1.62776
11
2.27539
21
-1.62934
0
LINE
8
BLACK
6
CONTINUOUS
10
2.27539
20
-1.62934
11
2.26979
21
-1.62934
0
LINE
8
BLACK
6
CONTINUOUS
10
2.26979
20
-1.62934
11
2.26441
21
-1.62776
0
LINE
8
BLACK
6
CONTINUOUS
10
2.26441
20
-1.62776
11
2.2597
21
-1.62473
0
LINE
8
BLACK
6
CONTINUOUS
10
2.2597
20
-1.62473
11
2.25603
21
-1.6205
0
LINE
8
BLACK
6
CONTINUOUS
10
2.25603
20
-1.6205
11
2.2537
21
-1.6154
0
LINE
8
BLACK
6
CONTINUOUS
10
2.2537
20
-1.6154
11
2.25291
21
-1.60985
0
LINE
8
BLACK
6
CONTINUOUS
10
2.25291
20
-1.60985
11
2.2537
21
-1.60431
0
LINE
8
BLACK
6
CONTINUOUS
10
2.2537
20
-1.60431
11
2.25603
21
-1.59921
0
LINE
8
BLACK
6
CONTINUOUS
10
2.25603
20
-1.59921
11
2.2597
21
-1.59498
0
LINE
8
BLACK
6
CONTINUOUS
10
2.2597
20
-1.59498
11
2.26441
21
-1.59195
0
LINE
8
BLACK
6
CONTINUOUS
10
2.26441
20
-1.59195
11
2.26979
21
-1.59037
0
LINE
8
BLACK
6
CONTINUOUS
10
2.26979
20
-1.59037
11
2.27539
21
-1.59037
0
LINE
8
BLACK
6
CONTINUOUS
10
2.27539
20
-1.59037
11
2.28077
21
-1.59195
0
LINE
8
BLACK
6
CONTINUOUS
10
0.440748
20
-1.58215
11
0.399409
21
-1.58215
0
LINE
8
BLACK
6
CONTINUOUS
10
0.399409
20
-1.58215
11
0.399409
21
-1.55656
0
LINE
8
BLACK
6
CONTINUOUS
10
0.399409
20
-1.55656
11
0.440748
21
-1.55656
0
LINE
8
BLACK
6
CONTINUOUS
10
0.440748
20
-1.55656
11
0.440748
21
-1.58215
0
LINE
8
BLACK
6
CONTINUOUS
10
0.60315
20
-1.58215
11
0.561811
21
-1.58215
0
LINE
8
BLACK
6
CONTINUOUS
10
0.561811
20
-1.58215
11
0.561811
21
-1.55656
0
LINE
8
BLACK
6
CONTINUOUS
10
0.561811
20
-1.55656
11
0.60315
21
-1.55656
0
LINE
8
BLACK
6
CONTINUOUS
10
0.60315
20
-1.55656
11
0.60315
21
-1.58215
0
LINE
8
BLACK
6
CONTINUOUS
10
2.6752
20
-1.5374
11
2.60827
21
-1.5374
0
LINE
8
BLACK
6
CONTINUOUS
10
2.60827
20
-1.5374
11
2.60827
21
-1.47047
0
LINE
8
BLACK
6
CONTINUOUS
10
2.60827
20
-1.47047
11
2.6752
21
-1.47047
0
LINE
8
BLACK
6
CONTINUOUS
10
2.6752
20
-1.47047
11
2.6752
21
-1.5374
0
LINE
8
BLACK
6
CONTINUOUS
10
0.439764
20
-1.49751
11
0.398425
21
-1.49751
0
LINE
8
BLACK
6
CONTINUOUS
10
0.398425
20
-1.49751
11
0.398425
21
-1.47192
0
LINE
8
BLACK
6
CONTINUOUS
10
0.398425
20
-1.47192
11
0.439764
21
-1.47192
0
LINE
8
BLACK
6
CONTINUOUS
10
0.439764
20
-1.47192
11
0.439764
21
-1.49751
0
LINE
8
BLACK
6
CONTINUOUS
10
0.60315
20
-1.49751
11
0.561811
21
-1.49751
0
LINE
8
BLACK
6
CONTINUOUS
10
0.561811
20
-1.49751
11
0.561811
21
-1.47192
0
LINE
8
BLACK
6
CONTINUOUS
10
0.561811
20
-1.47192
11
0.60315
21
-1.47192
0
LINE
8
BLACK
6
CONTINUOUS
10
0.60315
20
-1.47192
11
0.60315
21
-1.49751
0
LINE
8
BLACK
6
CONTINUOUS
10
2.65207
20
-1.37211
11
2.65846
21
-1.37496
0
LINE
8
BLACK
6
CONTINUOUS
10
2.65846
20
-1.37496
11
2.66412
21
-1.37907
0
LINE
8
BLACK
6
CONTINUOUS
10
2.66412
20
-1.37907
11
2.66881
21
-1.38427
0
LINE
8
BLACK
6
CONTINUOUS
10
2.66881
20
-1.38427
11
2.6723
21
-1.39033
0
LINE
8
BLACK
6
CONTINUOUS
10
2.6723
20
-1.39033
11
2.67447
21
-1.39698
0
LINE
8
BLACK
6
CONTINUOUS
10
2.67447
20
-1.39698
11
2.6752
21
-1.40394
0
LINE
8
BLACK
6
CONTINUOUS
10
2.6752
20
-1.40394
11
2.67447
21
-1.41089
0
LINE
8
BLACK
6
CONTINUOUS
10
2.67447
20
-1.41089
11
2.6723
21
-1.41755
0
LINE
8
BLACK
6
CONTINUOUS
10
2.6723
20
-1.41755
11
2.66881
21
-1.42361
0
LINE
8
BLACK
6
CONTINUOUS
10
2.66881
20
-1.42361
11
2.66412
21
-1.42881
0
LINE
8
BLACK
6
CONTINUOUS
10
2.66412
20
-1.42881
11
2.65846
21
-1.43292
0
LINE
8
BLACK
6
CONTINUOUS
10
2.65846
20
-1.43292
11
2.65207
21
-1.43576
0
LINE
8
BLACK
6
CONTINUOUS
10
2.65207
20
-1.43576
11
2.64523
21
-1.43722
0
LINE
8
BLACK
6
CONTINUOUS
10
2.64523
20
-1.43722
11
2.63823
21
-1.43722
0
LINE
8
BLACK
6
CONTINUOUS
10
2.63823
20
-1.43722
11
2.63139
21
-1.43576
0
LINE
8
BLACK
6
CONTINUOUS
10
2.63139
20
-1.43576
11
2.625
21
-1.43292
0
LINE
8
BLACK
6
CONTINUOUS
10
2.625
20
-1.43292
11
2.61934
21
-1.42881
0
LINE
8
BLACK
6
CONTINUOUS
10
2.61934
20
-1.42881
11
2.61466
21
-1.42361
0
LINE
8
BLACK
6
CONTINUOUS
10
2.61466
20
-1.42361
11
2.61116
21
-1.41755
0
LINE
8
BLACK
6
CONTINUOUS
10
2.61116
20
-1.41755
11
2.609
21
-1.41089
0
LINE
8
BLACK
6
CONTINUOUS
10
2.609
20
-1.41089
11
2.60827
21
-1.40394
0
LINE
8
BLACK
6
CONTINUOUS
10
2.60827
20
-1.40394
11
2.609
21
-1.39698
0
LINE
8
BLACK
6
CONTINUOUS
10
2.609
20
-1.39698
11
2.61116
21
-1.39033
0
LINE
8
BLACK
6
CONTINUOUS
10
2.61116
20
-1.39033
11
2.61466
21
-1.38427
0
LINE
8
BLACK
6
CONTINUOUS
10
2.61466
20
-1.38427
11
2.61934
21
-1.37907
0
LINE
8
BLACK
6
CONTINUOUS
10
2.61934
20
-1.37907
11
2.625
21
-1.37496
0
LINE
8
BLACK
6
CONTINUOUS
10
2.625
20
-1.37496
11
2.63139
21
-1.37211
0
LINE
8
BLACK
6
CONTINUOUS
10
2.63139
20
-1.37211
11
2.63823
21
-1.37066
0
LINE
8
BLACK
6
CONTINUOUS
10
2.63823
20
-1.37066
11
2.64523
21
-1.37066
0
LINE
8
BLACK
6
CONTINUOUS
10
2.64523
20
-1.37066
11
2.65207
21
-1.37211
0
LINE
8
BLACK
6
CONTINUOUS
10
2.65207
20
-1.27211
11
2.65846
21
-1.27496
0
LINE
8
BLACK
6
CONTINUOUS
10
2.65846
20
-1.27496
11
2.66412
21
-1.27907
0
LINE
8
BLACK
6
CONTINUOUS
10
2.66412
20
-1.27907
11
2.66881
21
-1.28427
0
LINE
8
BLACK
6
CONTINUOUS
10
2.66881
20
-1.28427
11
2.6723
21
-1.29033
0
LINE
8
BLACK
6
CONTINUOUS
10
2.6723
20
-1.29033
11
2.67447
21
-1.29698
0
LINE
8
BLACK
6
CONTINUOUS
10
2.67447
20
-1.29698
11
2.6752
21
-1.30394
0
LINE
8
BLACK
6
CONTINUOUS
10
2.6752
20
-1.30394
11
2.67447
21
-1.31089
0
LINE
8
BLACK
6
CONTINUOUS
10
2.67447
20
-1.31089
11
2.6723
21
-1.31755
0
LINE
8
BLACK
6
CONTINUOUS
10
2.6723
20
-1.31755
11
2.66881
21
-1.32361
0
LINE
8
BLACK
6
CONTINUOUS
10
2.66881
20
-1.32361
11
2.66412
21
-1.32881
0
LINE
8
BLACK
6
CONTINUOUS
10
2.66412
20
-1.32881
11
2.65846
21
-1.33292
0
LINE
8
BLACK
6
CONTINUOUS
10
2.65846
20
-1.33292
11
2.65207
21
-1.33576
0
LINE
8
BLACK
6
CONTINUOUS
10
2.65207
20
-1.33576
11
2.64523
21
-1.33722
0
LINE
8
BLACK
6
CONTINUOUS
10
2.64523
20
-1.33722
11
2.63823
21
-1.33722
0
LINE
8
BLACK
6
CONTINUOUS
10
2.63823
20
-1.33722
11
2.63139
21
-1.33576
0
LINE
8
BLACK
6
CONTINUOUS
10
2.63139
20
-1.33576
11
2.625
21
-1.33292
0
LINE
8
BLACK
6
CONTINUOUS
10
2.625
20
-1.33292
11
2.61934
21
-1.32881
0
LINE
8
BLACK
6
CONTINUOUS
10
2.61934
20
-1.32881
11
2.61466
21
-1.32361
0
LINE
8
BLACK
6
CONTINUOUS
10
2.61466
20
-1.32361
11
2.61116
21
-1.31755
0
LINE
8
BLACK
6
CONTINUOUS
10
2.61116
20
-1.31755
11
2.609
21
-1.31089
0
LINE
8
BLACK
6
CONTINUOUS
10
2.609
20
-1.31089
11
2.60827
21
-1.30394
0
LINE
8
BLACK
6
CONTINUOUS
10
2.60827
20
-1.30394
11
2.609
21
-1.29698
0
LINE
8
BLACK
6
CONTINUOUS
10
2.609
20
-1.29698
11
2.61116
21
-1.29033
0
LINE
8
BLACK
6
CONTINUOUS
10
2.61116
20
-1.29033
11
2.61466
21
-1.28427
0
LINE
8
BLACK
6
CONTINUOUS
10
2.61466
20
-1.28427
11
2.61934
21
-1.27907
0
LINE
8
BLACK
6
CONTINUOUS
10
2.61934
20
-1.27907
11
2.625
21
-1.27496
0
LINE
8
BLACK
6
CONTINUOUS
10
2.625
20
-1.27496
11
2.63139
21
-1.27211
0
LINE
8
BLACK
6
CONTINUOUS
10
2.63139
20
-1.27211
11
2.63823
21
-1.27066
0
LINE
8
BLACK
6
CONTINUOUS
10
2.63823
20
-1.27066
11
2.64523
21
-1.27066
0
LINE
8
BLACK
6
CONTINUOUS
10
2.64523
20
-1.27066
11
2.65207
21
-1.27211
0
LINE
8
BLACK
6
CONTINUOUS
10
0.440748
20
-1.32012
11
0.399409
21
-1.32012
0
LINE
8
BLACK
6
CONTINUOUS
10
0.399409
20
-1.32012
11
0.399409
21
-1.29453
0
LINE
8
BLACK
6
CONTINUOUS
10
0.399409
20
-1.29453
11
0.440748
21
-1.29453
0
LINE
8
BLACK
6
CONTINUOUS
10
0.440748
20
-1.29453
11
0.440748
21
-1.32012
0
LINE
8
BLACK
6
CONTINUOUS
10
0.60315
20
-1.32012
11
0.561811
21
-1.32012
0
LINE
8
BLACK
6
CONTINUOUS
10
0.561811
20
-1.32012
11
0.561811
21
-1.29453
0
LINE
8
BLACK
6
CONTINUOUS
10
0.561811
20
-1.29453
11
0.60315
21
-1.29453
0
LINE
8
BLACK
6
CONTINUOUS
10
0.60315
20
-1.29453
11
0.60315
21
-1.32012
0
LINE
8
BLACK
6
CONTINUOUS
10
2.65207
20
-1.17211
11
2.65846
21
-1.17496
0
LINE
8
BLACK
6
CONTINUOUS
10
2.65846
20
-1.17496
11
2.66412
21
-1.17907
0
LINE
8
BLACK
6
CONTINUOUS
10
2.66412
20
-1.17907
11
2.66881
21
-1.18427
0
LINE
8
BLACK
6
CONTINUOUS
10
2.66881
20
-1.18427
11
2.6723
21
-1.19033
0
LINE
8
BLACK
6
CONTINUOUS
10
2.6723
20
-1.19033
11
2.67447
21
-1.19698
0
LINE
8
BLACK
6
CONTINUOUS
10
2.67447
20
-1.19698
11
2.6752
21
-1.20394
0
LINE
8
BLACK
6
CONTINUOUS
10
2.6752
20
-1.20394
11
2.67447
21
-1.21089
0
LINE
8
BLACK
6
CONTINUOUS
10
2.67447
20
-1.21089
11
2.6723
21
-1.21755
0
LINE
8
BLACK
6
CONTINUOUS
10
2.6723
20
-1.21755
11
2.66881
21
-1.22361
0
LINE
8
BLACK
6
CONTINUOUS
10
2.66881
20
-1.22361
11
2.66412
21
-1.22881
0
LINE
8
BLACK
6
CONTINUOUS
10
2.66412
20
-1.22881
11
2.65846
21
-1.23292
0
LINE
8
BLACK
6
CONTINUOUS
10
2.65846
20
-1.23292
11
2.65207
21
-1.23576
0
LINE
8
BLACK
6
CONTINUOUS
10
2.65207
20
-1.23576
11
2.64523
21
-1.23722
0
LINE
8
BLACK
6
CONTINUOUS
10
2.64523
20
-1.23722
11
2.63823
21
-1.23722
0
LINE
8
BLACK
6
CONTINUOUS
10
2.63823
20
-1.23722
11
2.63139
21
-1.23576
0
LINE
8
BLACK
6
CONTINUOUS
10
2.63139
20
-1.23576
11
2.625
21
-1.23292
0
LINE
8
BLACK
6
CONTINUOUS
10
2.625
20
-1.23292
11
2.61934
21
-1.22881
0
LINE
8
BLACK
6
CONTINUOUS
10
2.61934
20
-1.22881
11
2.61466
21
-1.22361
0
LINE
8
BLACK
6
CONTINUOUS
10
2.61466
20
-1.22361
11
2.61116
21
-1.21755
0
LINE
8
BLACK
6
CONTINUOUS
10
2.61116
20
-1.21755
11
2.609
21
-1.21089
0
LINE
8
BLACK
6
CONTINUOUS
10
2.609
20
-1.21089
11
2.60827
21
-1.20394
0
LINE
8
BLACK
6
CONTINUOUS
10
2.60827
20
-1.20394
11
2.609
21
-1.19698
0
LINE
8
BLACK
6
CONTINUOUS
10
2.609
20
-1.19698
11
2.61116
21
-1.19033
0
LINE
8
BLACK
6
CONTINUOUS
10
2.61116
20
-1.19033
11
2.61466
21
-1.18427
0
LINE
8
BLACK
6
CONTINUOUS
10
2.61466
20
-1.18427
11
2.61934
21
-1.17907
0
LINE
8
BLACK
6
CONTINUOUS
10
2.61934
20
-1.17907
11
2.625
21
-1.17496
0
LINE
8
BLACK
6
CONTINUOUS
10
2.625
20
-1.17496
11
2.63139
21
-1.17211
0
LINE
8
BLACK
6
CONTINUOUS
10
2.63139
20
-1.17211
11
2.63823
21
-1.17066
0
LINE
8
BLACK
6
CONTINUOUS
10
2.63823
20
-1.17066
11
2.64523
21
-1.17066
0
LINE
8
BLACK
6
CONTINUOUS
10
2.64523
20
-1.17066
11
2.65207
21
-1.17211
0
LINE
8
BLACK
6
CONTINUOUS
10
0.439764
20
-1.23548
11
0.398425
21
-1.23548
0
LINE
8
BLACK
6
CONTINUOUS
10
0.398425
20
-1.23548
11
0.398425
21
-1.20989
0
LINE
8
BLACK
6
CONTINUOUS
10
0.398425
20
-1.20989
11
0.439764
21
-1.20989
0
LINE
8
BLACK
6
CONTINUOUS
10
0.439764
20
-1.20989
11
0.439764
21
-1.23548
0
LINE
8
BLACK
6
CONTINUOUS
10
0.60315
20
-1.23548
11
0.561811
21
-1.23548
0
LINE
8
BLACK
6
CONTINUOUS
10
0.561811
20
-1.23548
11
0.561811
21
-1.20989
0
LINE
8
BLACK
6
CONTINUOUS
10
0.561811
20
-1.20989
11
0.60315
21
-1.20989
0
LINE
8
BLACK
6
CONTINUOUS
10
0.60315
20
-1.20989
11
0.60315
21
-1.23548
0
LINE
8
BLACK
6
CONTINUOUS
10
0.439764
20
-1.05809
11
0.398425
21
-1.05809
0
LINE
8
BLACK
6
CONTINUOUS
10
0.398425
20
-1.05809
11
0.398425
21
-1.0325
0
LINE
8
BLACK
6
CONTINUOUS
10
0.398425
20
-1.0325
11
0.439764
21
-1.0325
0
LINE
8
BLACK
6
CONTINUOUS
10
0.439764
20
-1.0325
11
0.439764
21
-1.05809
0
LINE
8
BLACK
6
CONTINUOUS
10
0.60315
20
-1.05809
11
0.561811
21
-1.05809
0
LINE
8
BLACK
6
CONTINUOUS
10
0.561811
20
-1.05809
11
0.561811
21
-1.0325
0
LINE
8
BLACK
6
CONTINUOUS
10
0.561811
20
-1.0325
11
0.60315
21
-1.0325
0
LINE
8
BLACK
6
CONTINUOUS
10
0.60315
20
-1.0325
11
0.60315
21
-1.05809
0
LINE
8
BLACK
6
CONTINUOUS
10
0.439764
20
-0.973447
11
0.398425
21
-0.973447
0
LINE
8
BLACK
6
CONTINUOUS
10
0.398425
20
-0.973447
11
0.398425
21
-0.947857
0
LINE
8
BLACK
6
CONTINUOUS
10
0.398425
20
-0.947857
11
0.439764
21
-0.947857
0
LINE
8
BLACK
6
CONTINUOUS
10
0.439764
20
-0.947857
11
0.439764
21
-0.973447
0
LINE
8
BLACK
6
CONTINUOUS
10
0.602165
20
-0.973447
11
0.560827
21
-0.973447
0
LINE
8
BLACK
6
CONTINUOUS
10
0.560827
20
-0.973447
11
0.560827
21
-0.947857
0
LINE
8
BLACK
6
CONTINUOUS
10
0.560827
20
-0.947857
11
0.602165
21
-0.947857
0
LINE
8
BLACK
6
CONTINUOUS
10
0.602165
20
-0.947857
11
0.602165
21
-0.973447
0
LINE
8
BLACK
6
CONTINUOUS
10
0.439764
20
-0.796063
11
0.398425
21
-0.796063
0
LINE
8
BLACK
6
CONTINUOUS
10
0.398425
20
-0.796063
11
0.398425
21
-0.770472
0
LINE
8
BLACK
6
CONTINUOUS
10
0.398425
20
-0.770472
11
0.439764
21
-0.770472
0
LINE
8
BLACK
6
CONTINUOUS
10
0.439764
20
-0.770472
11
0.439764
21
-0.796063
0
LINE
8
BLACK
6
CONTINUOUS
10
0.60315
20
-0.796063
11
0.561811
21
-0.796063
0
LINE
8
BLACK
6
CONTINUOUS
10
0.561811
20
-0.796063
11
0.561811
21
-0.770472
0
LINE
8
BLACK
6
CONTINUOUS
10
0.561811
20
-0.770472
11
0.60315
21
-0.770472
0
LINE
8
BLACK
6
CONTINUOUS
10
0.60315
20
-0.770472
11
0.60315
21
-0.796063
0
LINE
8
BLACK
6
CONTINUOUS
10
0.439764
20
-0.711417
11
0.398425
21
-0.711417
0
LINE
8
BLACK
6
CONTINUOUS
10
0.398425
20
-0.711417
11
0.398425
21
-0.685827
0
LINE
8
BLACK
6
CONTINUOUS
10
0.398425
20
-0.685827
11
0.439764
21
-0.685827
0
LINE
8
BLACK
6
CONTINUOUS
10
0.439764
20
-0.685827
11
0.439764
21
-0.711417
0
LINE
8
BLACK
6
CONTINUOUS
10
0.602165
20
-0.711417
11
0.560827
21
-0.711417
0
LINE
8
BLACK
6
CONTINUOUS
10
0.560827
20
-0.711417
11
0.560827
21
-0.685827
0
LINE
8
BLACK
6
CONTINUOUS
10
0.560827
20
-0.685827
11
0.602165
21
-0.685827
0
LINE
8
BLACK
6
CONTINUOUS
10
0.602165
20
-0.685827
11
0.602165
21
-0.711417
0
LINE
8
BLACK
6
CONTINUOUS
10
0.599409
20
-0.575787
11
0.449409
21
-0.575787
0
LINE
8
BLACK
6
CONTINUOUS
10
0.449409
20
-0.575787
11
0.449409
21
-0.425787
0
LINE
8
BLACK
6
CONTINUOUS
10
0.449409
20
-0.425787
11
0.599409
21
-0.425787
0
LINE
8
BLACK
6
CONTINUOUS
10
0.599409
20
-0.425787
11
0.599409
21
-0.575787
0
LINE
8
BLACK
6
CONTINUOUS
10
1.29589
20
-0.456852
11
1.29909
21
-0.458985
0
LINE
8
BLACK
6
CONTINUOUS
10
1.29909
20
-0.458985
11
1.30122
21
-0.462178
0
LINE
8
BLACK
6
CONTINUOUS
10
1.30122
20
-0.462178
11
1.30197
21
-0.465945
0
LINE
8
BLACK
6
CONTINUOUS
10
1.30197
20
-0.465945
11
1.30197
21
-0.513189
0
LINE
8
BLACK
6
CONTINUOUS
10
1.30197
20
-0.513189
11
1.30122
21
-0.516956
0
LINE
8
BLACK
6
CONTINUOUS
10
1.30122
20
-0.516956
11
1.29909
21
-0.520149
0
LINE
8
BLACK
6
CONTINUOUS
10
1.29909
20
-0.520149
11
1.29589
21
-0.522282
0
LINE
8
BLACK
6
CONTINUOUS
10
1.29589
20
-0.522282
11
1.29213
21
-0.523031
0
LINE
8
BLACK
6
CONTINUOUS
10
1.29213
20
-0.523031
11
1.24488
21
-0.523031
0
LINE
8
BLACK
6
CONTINUOUS
10
1.24488
20
-0.523031
11
1.24112
21
-0.522282
0
LINE
8
BLACK
6
CONTINUOUS
10
1.24112
20
-0.522282
11
1.23792
21
-0.520149
0
LINE
8
BLACK
6
CONTINUOUS
10
1.23792
20
-0.520149
11
1.23579
21
-0.516956
0
LINE
8
BLACK
6
CONTINUOUS
10
1.23579
20
-0.516956
11
1.23504
21
-0.513189
0
LINE
8
BLACK
6
CONTINUOUS
10
1.23504
20
-0.513189
11
1.23504
21
-0.465945
0
LINE
8
BLACK
6
CONTINUOUS
10
1.23504
20
-0.465945
11
1.23579
21
-0.462178
0
LINE
8
BLACK
6
CONTINUOUS
10
1.23579
20
-0.462178
11
1.23792
21
-0.458985
0
LINE
8
BLACK
6
CONTINUOUS
10
1.23792
20
-0.458985
11
1.24112
21
-0.456852
0
LINE
8
BLACK
6
CONTINUOUS
10
1.24112
20
-0.456852
11
1.24488
21
-0.456102
0
LINE
8
BLACK
6
CONTINUOUS
10
1.24488
20
-0.456102
11
1.29213
21
-0.456102
0
LINE
8
BLACK
6
CONTINUOUS
10
1.29213
20
-0.456102
11
1.29589
21
-0.456852
0
LINE
8
BLACK
6
CONTINUOUS
10
1.37727
20
-0.45774
11
1.38366
21
-0.460586
0
LINE
8
BLACK
6
CONTINUOUS
10
1.38366
20
-0.460586
11
1.38932
21
-0.464698
0
LINE
8
BLACK
6
CONTINUOUS
10
1.38932
20
-0.464698
11
1.394
21
-0.469897
0
LINE
8
BLACK
6
CONTINUOUS
10
1.394
20
-0.469897
11
1.3975
21
-0.475956
0
LINE
8
BLACK
6
CONTINUOUS
10
1.3975
20
-0.475956
11
1.39966
21
-0.482609
0
LINE
8
BLACK
6
CONTINUOUS
10
1.39966
20
-0.482609
11
1.40039
21
-0.489567
0
LINE
8
BLACK
6
CONTINUOUS
10
1.40039
20
-0.489567
11
1.39966
21
-0.496525
0
LINE
8
BLACK
6
CONTINUOUS
10
1.39966
20
-0.496525
11
1.3975
21
-0.503178
0
LINE
8
BLACK
6
CONTINUOUS
10
1.3975
20
-0.503178
11
1.394
21
-0.509237
0
LINE
8
BLACK
6
CONTINUOUS
10
1.394
20
-0.509237
11
1.38932
21
-0.514436
0
LINE
8
BLACK
6
CONTINUOUS
10
1.38932
20
-0.514436
11
1.38366
21
-0.518548
0
LINE
8
BLACK
6
CONTINUOUS
10
1.38366
20
-0.518548
11
1.37727
21
-0.521394
0
LINE
8
BLACK
6
CONTINUOUS
10
1.37727
20
-0.521394
11
1.37043
21
-0.522848
0
LINE
8
BLACK
6
CONTINUOUS
10
1.37043
20
-0.522848
11
1.36343
21
-0.522848
0
LINE
8
BLACK
6
CONTINUOUS
10
1.36343
20
-0.522848
11
1.35659
21
-0.521394
0
LINE
8
BLACK
6
CONTINUOUS
10
1.35659
20
-0.521394
11
1.3502
21
-0.518548
0
LINE
8
BLACK
6
CONTINUOUS
10
1.3502
20
-0.518548
11
1.34454
21
-0.514436
0
LINE
8
BLACK
6
CONTINUOUS
10
1.34454
20
-0.514436
11
1.33986
21
-0.509237
0
LINE
8
BLACK
6
CONTINUOUS
10
1.33986
20
-0.509237
11
1.33636
21
-0.503178
0
LINE
8
BLACK
6
CONTINUOUS
10
1.33636
20
-0.503178
11
1.3342
21
-0.496525
0
LINE
8
BLACK
6
CONTINUOUS
10
1.3342
20
-0.496525
11
1.33346
21
-0.489567
0
LINE
8
BLACK
6
CONTINUOUS
10
1.33346
20
-0.489567
11
1.3342
21
-0.482609
0
LINE
8
BLACK
6
CONTINUOUS
10
1.3342
20
-0.482609
11
1.33636
21
-0.475956
0
LINE
8
BLACK
6
CONTINUOUS
10
1.33636
20
-0.475956
11
1.33986
21
-0.469897
0
LINE
8
BLACK
6
CONTINUOUS
10
1.33986
20
-0.469897
11
1.34454
21
-0.464698
0
LINE
8
BLACK
6
CONTINUOUS
10
1.34454
20
-0.464698
11
1.3502
21
-0.460586
0
LINE
8
BLACK
6
CONTINUOUS
10
1.3502
20
-0.460586
11
1.35659
21
-0.45774
0
LINE
8
BLACK
6
CONTINUOUS
10
1.35659
20
-0.45774
11
1.36343
21
-0.456286
0
LINE
8
BLACK
6
CONTINUOUS
10
1.36343
20
-0.456286
11
1.37043
21
-0.456286
0
LINE
8
BLACK
6
CONTINUOUS
10
1.37043
20
-0.456286
11
1.37727
21
-0.45774
0
LINE
8
BLACK
6
CONTINUOUS
10
1.5815
20
-0.512008
11
1.51457
21
-0.512008
0
LINE
8
BLACK
6
CONTINUOUS
10
1.51457
20
-0.512008
11
1.51457
21
-0.445079
0
LINE
8
BLACK
6
CONTINUOUS
10
1.51457
20
-0.445079
11
1.5815
21
-0.445079
0
LINE
8
BLACK
6
CONTINUOUS
10
1.5815
20
-0.445079
11
1.5815
21
-0.512008
0
LINE
8
BLACK
6
CONTINUOUS
10
1.72638
20
-0.511811
11
1.65945
21
-0.511811
0
LINE
8
BLACK
6
CONTINUOUS
10
1.65945
20
-0.511811
11
1.65945
21
-0.444882
0
LINE
8
BLACK
6
CONTINUOUS
10
1.65945
20
-0.444882
11
1.72638
21
-0.444882
0
LINE
8
BLACK
6
CONTINUOUS
10
1.72638
20
-0.444882
11
1.72638
21
-0.511811
0
LINE
8
BLACK
6
CONTINUOUS
10
0.889248
20
-0.422984
11
0.895489
21
-0.425168
0
LINE
8
BLACK
6
CONTINUOUS
10
0.895489
20
-0.425168
11
0.901087
21
-0.428686
0
LINE
8
BLACK
6
CONTINUOUS
10
0.901087
20
-0.428686
11
0.905763
21
-0.433362
0
LINE
8
BLACK
6
CONTINUOUS
10
0.905763
20
-0.433362
11
0.909281
21
-0.43896
0
LINE
8
BLACK
6
CONTINUOUS
10
0.909281
20
-0.43896
11
0.911464
21
-0.445201
0
LINE
8
BLACK
6
CONTINUOUS
10
0.911464
20
-0.445201
11
0.912205
21
-0.451772
0
LINE
8
BLACK
6
CONTINUOUS
10
0.912205
20
-0.451772
11
0.911464
21
-0.458342
0
LINE
8
BLACK
6
CONTINUOUS
10
0.911464
20
-0.458342
11
0.909281
21
-0.464583
0
LINE
8
BLACK
6
CONTINUOUS
10
0.909281
20
-0.464583
11
0.905763
21
-0.470182
0
LINE
8
BLACK
6
CONTINUOUS
10
0.905763
20
-0.470182
11
0.901087
21
-0.474857
0
LINE
8
BLACK
6
CONTINUOUS
10
0.901087
20
-0.474857
11
0.895489
21
-0.478375
0
LINE
8
BLACK
6
CONTINUOUS
10
0.895489
20
-0.478375
11
0.889248
21
-0.480559
0
LINE
8
BLACK
6
CONTINUOUS
10
0.889248
20
-0.480559
11
0.882677
21
-0.481299
0
LINE
8
BLACK
6
CONTINUOUS
10
0.882677
20
-0.481299
11
0.876107
21
-0.480559
0
LINE
8
BLACK
6
CONTINUOUS
10
0.876107
20
-0.480559
11
0.869866
21
-0.478375
0
LINE
8
BLACK
6
CONTINUOUS
10
0.869866
20
-0.478375
11
0.864267
21
-0.474857
0
LINE
8
BLACK
6
CONTINUOUS
10
0.864267
20
-0.474857
11
0.859592
21
-0.470182
0
LINE
8
BLACK
6
CONTINUOUS
10
0.859592
20
-0.470182
11
0.856074
21
-0.464583
0
LINE
8
BLACK
6
CONTINUOUS
10
0.856074
20
-0.464583
11
0.85389
21
-0.458342
0
LINE
8
BLACK
6
CONTINUOUS
10
0.85389
20
-0.458342
11
0.85315
21
-0.451772
0
LINE
8
BLACK
6
CONTINUOUS
10
0.85315
20
-0.451772
11
0.85389
21
-0.445201
0
LINE
8
BLACK
6
CONTINUOUS
10
0.85389
20
-0.445201
11
0.856074
21
-0.43896
0
LINE
8
BLACK
6
CONTINUOUS
10
0.856074
20
-0.43896
11
0.859592
21
-0.433362
0
LINE
8
BLACK
6
CONTINUOUS
10
0.859592
20
-0.433362
11
0.864267
21
-0.428686
0
LINE
8
BLACK
6
CONTINUOUS
10
0.864267
20
-0.428686
11
0.869866
21
-0.425168
0
LINE
8
BLACK
6
CONTINUOUS
10
0.869866
20
-0.425168
11
0.876107
21
-0.422984
0
LINE
8
BLACK
6
CONTINUOUS
10
0.876107
20
-0.422984
11
0.882677
21
-0.422244
0
LINE
8
BLACK
6
CONTINUOUS
10
0.882677
20
-0.422244
11
0.889248
21
-0.422984
0
LINE
8
BLACK
6
CONTINUOUS
10
1.00736
20
-0.422984
11
1.0136
21
-0.425168
0
LINE
8
BLACK
6
CONTINUOUS
10
1.0136
20
-0.425168
11
1.0192
21
-0.428686
0
LINE
8
BLACK
6
CONTINUOUS
10
1.0192
20
-0.428686
11
1.02387
21
-0.433362
0
LINE
8
BLACK
6
CONTINUOUS
10
1.02387
20
-0.433362
11
1.02739
21
-0.43896
0
LINE
8
BLACK
6
CONTINUOUS
10
1.02739
20
-0.43896
11
1.02957
21
-0.445201
0
LINE
8
BLACK
6
CONTINUOUS
10
1.02957
20
-0.445201
11
1.03031
21
-0.451772
0
LINE
8
BLACK
6
CONTINUOUS
10
1.03031
20
-0.451772
11
1.02957
21
-0.458342
0
LINE
8
BLACK
6
CONTINUOUS
10
1.02957
20
-0.458342
11
1.02739
21
-0.464583
0
LINE
8
BLACK
6
CONTINUOUS
10
1.02739
20
-0.464583
11
1.02387
21
-0.470182
0
LINE
8
BLACK
6
CONTINUOUS
10
1.02387
20
-0.470182
11
1.0192
21
-0.474857
0
LINE
8
BLACK
6
CONTINUOUS
10
1.0192
20
-0.474857
11
1.0136
21
-0.478375
0
LINE
8
BLACK
6
CONTINUOUS
10
1.0136
20
-0.478375
11
1.00736
21
-0.480559
0
LINE
8
BLACK
6
CONTINUOUS
10
1.00736
20
-0.480559
11
1.00079
21
-0.481299
0
LINE
8
BLACK
6
CONTINUOUS
10
1.00079
20
-0.481299
11
0.994217
21
-0.480559
0
LINE
8
BLACK
6
CONTINUOUS
10
0.994217
20
-0.480559
11
0.987976
21
-0.478375
0
LINE
8
BLACK
6
CONTINUOUS
10
0.987976
20
-0.478375
11
0.982377
21
-0.474857
0
LINE
8
BLACK
6
CONTINUOUS
10
0.982377
20
-0.474857
11
0.977702
21
-0.470182
0
LINE
8
BLACK
6
CONTINUOUS
10
0.977702
20
-0.470182
11
0.974184
21
-0.464583
0
LINE
8
BLACK
6
CONTINUOUS
10
0.974184
20
-0.464583
11
0.972
21
-0.458342
0
LINE
8
BLACK
6
CONTINUOUS
10
0.972
20
-0.458342
11
0.97126
21
-0.451772
0
LINE
8
BLACK
6
CONTINUOUS
10
0.97126
20
-0.451772
11
0.972
21
-0.445201
0
LINE
8
BLACK
6
CONTINUOUS
10
0.972
20
-0.445201
11
0.974184
21
-0.43896
0
LINE
8
BLACK
6
CONTINUOUS
10
0.974184
20
-0.43896
11
0.977702
21
-0.433362
0
LINE
8
BLACK
6
CONTINUOUS
10
0.977702
20
-0.433362
11
0.982377
21
-0.428686
0
LINE
8
BLACK
6
CONTINUOUS
10
0.982377
20
-0.428686
11
0.987976
21
-0.425168
0
LINE
8
BLACK
6
CONTINUOUS
10
0.987976
20
-0.425168
11
0.994217
21
-0.422984
0
LINE
8
BLACK
6
CONTINUOUS
10
0.994217
20
-0.422984
11
1.00079
21
-0.422244
0
LINE
8
BLACK
6
CONTINUOUS
10
1.00079
20
-0.422244
11
1.00736
21
-0.422984
0
LINE
8
BLACK
6
CONTINUOUS
10
0.214106
20
-0.0748079
11
0.228034
21
-0.0771744
0
LINE
8
BLACK
6
CONTINUOUS
10
0.228034
20
-0.0771744
11
0.24161
21
-0.0810856
0
LINE
8
BLACK
6
CONTINUOUS
10
0.24161
20
-0.0810856
11
0.254663
21
-0.0864921
0
LINE
8
BLACK
6
CONTINUOUS
10
0.254663
20
-0.0864921
11
0.267028
21
-0.0933261
0
LINE
8
BLACK
6
CONTINUOUS
10
0.267028
20
-0.0933261
11
0.27855
21
-0.101502
0
LINE
8
BLACK
6
CONTINUOUS
10
0.27855
20
-0.101502
11
0.289084
21
-0.110916
0
LINE
8
BLACK
6
CONTINUOUS
10
0.289084
20
-0.110916
11
0.298498
21
-0.12145
0
LINE
8
BLACK
6
CONTINUOUS
10
0.298498
20
-0.12145
11
0.306674
21
-0.132972
0
LINE
8
BLACK
6
CONTINUOUS
10
0.306674
20
-0.132972
11
0.313508
21
-0.145337
0
LINE
8
BLACK
6
CONTINUOUS
10
0.313508
20
-0.145337
11
0.318914
21
-0.15839
0
LINE
8
BLACK
6
CONTINUOUS
10
0.318914
20
-0.15839
11
0.322826
21
-0.171966
0
LINE
8
BLACK
6
CONTINUOUS
10
0.322826
20
-0.171966
11
0.325192
21
-0.185894
0
LINE
8
BLACK
6
CONTINUOUS
10
0.325192
20
-0.185894
11
0.325984
21
-0.2
0
LINE
8
BLACK
6
CONTINUOUS
10
0.325984
20
-0.2
11
0.325192
21
-0.214106
0
LINE
8
BLACK
6
CONTINUOUS
10
0.325192
20
-0.214106
11
0.322826
21
-0.228034
0
LINE
8
BLACK
6
CONTINUOUS
10
0.322826
20
-0.228034
11
0.318914
21
-0.24161
0
LINE
8
BLACK
6
CONTINUOUS
10
0.318914
20
-0.24161
11
0.313508
21
-0.254663
0
LINE
8
BLACK
6
CONTINUOUS
10
0.313508
20
-0.254663
11
0.306674
21
-0.267028
0
LINE
8
BLACK
6
CONTINUOUS
10
0.306674
20
-0.267028
11
0.298498
21
-0.27855
0
LINE
8
BLACK
6
CONTINUOUS
10
0.298498
20
-0.27855
11
0.289084
21
-0.289084
0
LINE
8
BLACK
6
CONTINUOUS
10
0.289084
20
-0.289084
11
0.27855
21
-0.298498
0
LINE
8
BLACK
6
CONTINUOUS
10
0.27855
20
-0.298498
11
0.271162
21
-0.30374
0
LINE
8
BLACK
6
CONTINUOUS
10
0.271162
20
-0.30374
11
0.402559
21
-0.30374
0
LINE
8
BLACK
6
CONTINUOUS
10
0.402559
20
-0.30374
11
0.402559
21
-0.45374
0
LINE
8
BLACK
6
CONTINUOUS
10
0.402559
20
-0.45374
11
0.252559
21
-0.45374
0
LINE
8
BLACK
6
CONTINUOUS
10
0.252559
20
-0.45374
11
0.252559
21
-0.314379
0
LINE
8
BLACK
6
CONTINUOUS
10
0.252559
20
-0.314379
11
0.24161
21
-0.318914
0
LINE
8
BLACK
6
CONTINUOUS
10
0.24161
20
-0.318914
11
0.228034
21
-0.322826
0
LINE
8
BLACK
6
CONTINUOUS
10
0.228034
20
-0.322826
11
0.214106
21
-0.325192
0
LINE
8
BLACK
6
CONTINUOUS
10
0.214106
20
-0.325192
11
0.2
21
-0.325984
0
LINE
8
BLACK
6
CONTINUOUS
10
0.2
20
-0.325984
11
0.185894
21
-0.325192
0
LINE
8
BLACK
6
CONTINUOUS
10
0.185894
20
-0.325192
11
0.171966
21
-0.322826
0
LINE
8
BLACK
6
CONTINUOUS
10
0.171966
20
-0.322826
11
0.15839
21
-0.318914
0
LINE
8
BLACK
6
CONTINUOUS
10
0.15839
20
-0.318914
11
0.145337
21
-0.313508
0
LINE
8
BLACK
6
CONTINUOUS
10
0.145337
20
-0.313508
11
0.132972
21
-0.306674
0
LINE
8
BLACK
6
CONTINUOUS
10
0.132972
20
-0.306674
11
0.12145
21
-0.298498
0
LINE
8
BLACK
6
CONTINUOUS
10
0.12145
20
-0.298498
11
0.110916
21
-0.289084
0
LINE
8
BLACK
6
CONTINUOUS
10
0.110916
20
-0.289084
11
0.101502
21
-0.27855
0
LINE
8
BLACK
6
CONTINUOUS
10
0.101502
20
-0.27855
11
0.0933261
21
-0.267028
0
LINE
8
BLACK
6
CONTINUOUS
10
0.0933261
20
-0.267028
11
0.0864921
21
-0.254663
0
LINE
8
BLACK
6
CONTINUOUS
10
0.0864921
20
-0.254663
11
0.0810856
21
-0.24161
0
LINE
8
BLACK
6
CONTINUOUS
10
0.0810856
20
-0.24161
11
0.0771744
21
-0.228034
0
LINE
8
BLACK
6
CONTINUOUS
10
0.0771744
20
-0.228034
11
0.0748079
21
-0.214106
0
LINE
8
BLACK
6
CONTINUOUS
10
0.0748079
20
-0.214106
11
0.0740157
21
-0.2
0
LINE
8
BLACK
6
CONTINUOUS
10
0.0740157
20
-0.2
11
0.0748079
21
-0.185894
0
LINE
8
BLACK
6
CONTINUOUS
10
0.0748079
20
-0.185894
11
0.0771744
21
-0.171966
0
LINE
8
BLACK
6
CONTINUOUS
10
0.0771744
20
-0.171966
11
0.0810856
21
-0.15839
0
LINE
8
BLACK
6
CONTINUOUS
10
0.0810856
20
-0.15839
11
0.0864921
21
-0.145337
0
LINE
8
BLACK
6
CONTINUOUS
10
0.0864921
20
-0.145337
11
0.0933261
21
-0.132972
0
LINE
8
BLACK
6
CONTINUOUS
10
0.0933261
20
-0.132972
11
0.101502
21
-0.12145
0
LINE
8
BLACK
6
CONTINUOUS
10
0.101502
20
-0.12145
11
0.110916
21
-0.110916
0
LINE
8
BLACK
6
CONTINUOUS
10
0.110916
20
-0.110916
11
0.12145
21
-0.101502
0
LINE
8
BLACK
6
CONTINUOUS
10
0.12145
20
-0.101502
11
0.132972
21
-0.0933261
0
LINE
8
BLACK
6
CONTINUOUS
10
0.132972
20
-0.0933261
11
0.145337
21
-0.0864921
0
LINE
8
BLACK
6
CONTINUOUS
10
0.145337
20
-0.0864921
11
0.15839
21
-0.0810856
0
LINE
8
BLACK
6
CONTINUOUS
10
0.15839
20
-0.0810856
11
0.171966
21
-0.0771744
0
LINE
8
BLACK
6
CONTINUOUS
10
0.171966
20
-0.0771744
11
0.185894
21
-0.0748079
0
LINE
8
BLACK
6
CONTINUOUS
10
0.185894
20
-0.0748079
11
0.2
21
-0.0740157
0
LINE
8
BLACK
6
CONTINUOUS
10
0.2
20
-0.0740157
11
0.214106
21
-0.0748079
0
LINE
8
BLACK
6
CONTINUOUS
10
1.27885
20
-0.359315
11
1.28524
21
-0.362161
0
LINE
8
BLACK
6
CONTINUOUS
10
1.28524
20
-0.362161
11
1.2909
21
-0.366273
0
LINE
8
BLACK
6
CONTINUOUS
10
1.2909
20
-0.366273
11
1.29558
21
-0.371472
0
LINE
8
BLACK
6
CONTINUOUS
10
1.29558
20
-0.371472
11
1.29908
21
-0.37753
0
LINE
8
BLACK
6
CONTINUOUS
10
1.29908
20
-0.37753
11
1.30124
21
-0.384184
0
LINE
8
BLACK
6
CONTINUOUS
10
1.30124
20
-0.384184
11
1.30197
21
-0.391142
0
LINE
8
BLACK
6
CONTINUOUS
10
1.30197
20
-0.391142
11
1.30124
21
-0.398099
0
LINE
8
BLACK
6
CONTINUOUS
10
1.30124
20
-0.398099
11
1.29908
21
-0.404753
0
LINE
8
BLACK
6
CONTINUOUS
10
1.29908
20
-0.404753
11
1.29558
21
-0.410812
0
LINE
8
BLACK
6
CONTINUOUS
10
1.29558
20
-0.410812
11
1.2909
21
-0.416011
0
LINE
8
BLACK
6
CONTINUOUS
10
1.2909
20
-0.416011
11
1.28524
21
-0.420123
0
LINE
8
BLACK
6
CONTINUOUS
10
1.28524
20
-0.420123
11
1.27885
21
-0.422968
0
LINE
8
BLACK
6
CONTINUOUS
10
1.27885
20
-0.422968
11
1.272
21
-0.424423
0
LINE
8
BLACK
6
CONTINUOUS
10
1.272
20
-0.424423
11
1.26501
21
-0.424423
0
LINE
8
BLACK
6
CONTINUOUS
10
1.26501
20
-0.424423
11
1.25816
21
-0.422968
0
LINE
8
BLACK
6
CONTINUOUS
10
1.25816
20
-0.422968
11
1.25177
21
-0.420123
0
LINE
8
BLACK
6
CONTINUOUS
10
1.25177
20
-0.420123
11
1.24611
21
-0.416011
0
LINE
8
BLACK
6
CONTINUOUS
10
1.24611
20
-0.416011
11
1.24143
21
-0.410812
0
LINE
8
BLACK
6
CONTINUOUS
10
1.24143
20
-0.410812
11
1.23793
21
-0.404753
0
LINE
8
BLACK
6
CONTINUOUS
10
1.23793
20
-0.404753
11
1.23577
21
-0.398099
0
LINE
8
BLACK
6
CONTINUOUS
10
1.23577
20
-0.398099
11
1.23504
21
-0.391142
0
LINE
8
BLACK
6
CONTINUOUS
10
1.23504
20
-0.391142
11
1.23577
21
-0.384184
0
LINE
8
BLACK
6
CONTINUOUS
10
1.23577
20
-0.384184
11
1.23793
21
-0.37753
0
LINE
8
BLACK
6
CONTINUOUS
10
1.23793
20
-0.37753
11
1.24143
21
-0.371472
0
LINE
8
BLACK
6
CONTINUOUS
10
1.24143
20
-0.371472
11
1.24611
21
-0.366273
0
LINE
8
BLACK
6
CONTINUOUS
10
1.24611
20
-0.366273
11
1.25177
21
-0.362161
0
LINE
8
BLACK
6
CONTINUOUS
10
1.25177
20
-0.362161
11
1.25816
21
-0.359315
0
LINE
8
BLACK
6
CONTINUOUS
10
1.25816
20
-0.359315
11
1.26501
21
-0.35786
0
LINE
8
BLACK
6
CONTINUOUS
10
1.26501
20
-0.35786
11
1.272
21
-0.35786
0
LINE
8
BLACK
6
CONTINUOUS
10
1.272
20
-0.35786
11
1.27885
21
-0.359315
0
LINE
8
BLACK
6
CONTINUOUS
10
1.37727
20
-0.359315
11
1.38366
21
-0.362161
0
LINE
8
BLACK
6
CONTINUOUS
10
1.38366
20
-0.362161
11
1.38932
21
-0.366273
0
LINE
8
BLACK
6
CONTINUOUS
10
1.38932
20
-0.366273
11
1.394
21
-0.371472
0
LINE
8
BLACK
6
CONTINUOUS
10
1.394
20
-0.371472
11
1.3975
21
-0.37753
0
LINE
8
BLACK
6
CONTINUOUS
10
1.3975
20
-0.37753
11
1.39966
21
-0.384184
0
LINE
8
BLACK
6
CONTINUOUS
10
1.39966
20
-0.384184
11
1.40039
21
-0.391142
0
LINE
8
BLACK
6
CONTINUOUS
10
1.40039
20
-0.391142
11
1.39966
21
-0.398099
0
LINE
8
BLACK
6
CONTINUOUS
10
1.39966
20
-0.398099
11
1.3975
21
-0.404753
0
LINE
8
BLACK
6
CONTINUOUS
10
1.3975
20
-0.404753
11
1.394
21
-0.410812
0
LINE
8
BLACK
6
CONTINUOUS
10
1.394
20
-0.410812
11
1.38932
21
-0.416011
0
LINE
8
BLACK
6
CONTINUOUS
10
1.38932
20
-0.416011
11
1.38366
21
-0.420123
0
LINE
8
BLACK
6
CONTINUOUS
10
1.38366
20
-0.420123
11
1.37727
21
-0.422968
0
LINE
8
BLACK
6
CONTINUOUS
10
1.37727
20
-0.422968
11
1.37043
21
-0.424423
0
LINE
8
BLACK
6
CONTINUOUS
10
1.37043
20
-0.424423
11
1.36343
21
-0.424423
0
LINE
8
BLACK
6
CONTINUOUS
10
1.36343
20
-0.424423
11
1.35659
21
-0.422968
0
LINE
8
BLACK
6
CONTINUOUS
10
1.35659
20
-0.422968
11
1.3502
21
-0.420123
0
LINE
8
BLACK
6
CONTINUOUS
10
1.3502
20
-0.420123
11
1.34454
21
-0.416011
0
LINE
8
BLACK
6
CONTINUOUS
10
1.34454
20
-0.416011
11
1.33986
21
-0.410812
0
LINE
8
BLACK
6
CONTINUOUS
10
1.33986
20
-0.410812
11
1.33636
21
-0.404753
0
LINE
8
BLACK
6
CONTINUOUS
10
1.33636
20
-0.404753
11
1.3342
21
-0.398099
0
LINE
8
BLACK
6
CONTINUOUS
10
1.3342
20
-0.398099
11
1.33346
21
-0.391142
0
LINE
8
BLACK
6
CONTINUOUS
10
1.33346
20
-0.391142
11
1.3342
21
-0.384184
0
LINE
8
BLACK
6
CONTINUOUS
10
1.3342
20
-0.384184
11
1.33636
21
-0.37753
0
LINE
8
BLACK
6
CONTINUOUS
10
1.33636
20
-0.37753
11
1.33986
21
-0.371472
0
LINE
8
BLACK
6
CONTINUOUS
10
1.33986
20
-0.371472
11
1.34454
21
-0.366273
0
LINE
8
BLACK
6
CONTINUOUS
10
1.34454
20
-0.366273
11
1.3502
21
-0.362161
0
LINE
8
BLACK
6
CONTINUOUS
10
1.3502
20
-0.362161
11
1.35659
21
-0.359315
0
LINE
8
BLACK
6
CONTINUOUS
10
1.35659
20
-0.359315
11
1.36343
21
-0.35786
0
LINE
8
BLACK
6
CONTINUOUS
10
1.36343
20
-0.35786
11
1.37043
21
-0.35786
0
LINE
8
BLACK
6
CONTINUOUS
10
1.37043
20
-0.35786
11
1.37727
21
-0.359315
0
LINE
8
BLACK
6
CONTINUOUS
10
1.55837
20
-0.346717
11
1.56476
21
-0.349562
0
LINE
8
BLACK
6
CONTINUOUS
10
1.56476
20
-0.349562
11
1.57042
21
-0.353674
0
LINE
8
BLACK
6
CONTINUOUS
10
1.57042
20
-0.353674
11
1.5751
21
-0.358873
0
LINE
8
BLACK
6
CONTINUOUS
10
1.5751
20
-0.358873
11
1.5786
21
-0.364932
0
LINE
8
BLACK
6
CONTINUOUS
10
1.5786
20
-0.364932
11
1.58076
21
-0.371586
0
LINE
8
BLACK
6
CONTINUOUS
10
1.58076
20
-0.371586
11
1.5815
21
-0.378543
0
LINE
8
BLACK
6
CONTINUOUS
10
1.5815
20
-0.378543
11
1.58076
21
-0.385501
0
LINE
8
BLACK
6
CONTINUOUS
10
1.58076
20
-0.385501
11
1.5786
21
-0.392155
0
LINE
8
BLACK
6
CONTINUOUS
10
1.5786
20
-0.392155
11
1.5751
21
-0.398213
0
LINE
8
BLACK
6
CONTINUOUS
10
1.5751
20
-0.398213
11
1.57042
21
-0.403412
0
LINE
8
BLACK
6
CONTINUOUS
10
1.57042
20
-0.403412
11
1.56476
21
-0.407524
0
LINE
8
BLACK
6
CONTINUOUS
10
1.56476
20
-0.407524
11
1.55837
21
-0.41037
0
LINE
8
BLACK
6
CONTINUOUS
10
1.55837
20
-0.41037
11
1.55153
21
-0.411825
0
LINE
8
BLACK
6
CONTINUOUS
10
1.55153
20
-0.411825
11
1.54453
21
-0.411825
0
LINE
8
BLACK
6
CONTINUOUS
10
1.54453
20
-0.411825
11
1.53769
21
-0.41037
0
LINE
8
BLACK
6
CONTINUOUS
10
1.53769
20
-0.41037
11
1.5313
21
-0.407524
0
LINE
8
BLACK
6
CONTINUOUS
10
1.5313
20
-0.407524
11
1.52564
21
-0.403412
0
LINE
8
BLACK
6
CONTINUOUS
10
1.52564
20
-0.403412
11
1.52096
21
-0.398213
0
LINE
8
BLACK
6
CONTINUOUS
10
1.52096
20
-0.398213
11
1.51746
21
-0.392155
0
LINE
8
BLACK
6
CONTINUOUS
10
1.51746
20
-0.392155
11
1.5153
21
-0.385501
0
LINE
8
BLACK
6
CONTINUOUS
10
1.5153
20
-0.385501
11
1.51457
21
-0.378543
0
LINE
8
BLACK
6
CONTINUOUS
10
1.51457
20
-0.378543
11
1.5153
21
-0.371586
0
LINE
8
BLACK
6
CONTINUOUS
10
1.5153
20
-0.371586
11
1.51746
21
-0.364932
0
LINE
8
BLACK
6
CONTINUOUS
10
1.51746
20
-0.364932
11
1.52096
21
-0.358873
0
LINE
8
BLACK
6
CONTINUOUS
10
1.52096
20
-0.358873
11
1.52564
21
-0.353674
0
LINE
8
BLACK
6
CONTINUOUS
10
1.52564
20
-0.353674
11
1.5313
21
-0.349562
0
LINE
8
BLACK
6
CONTINUOUS
10
1.5313
20
-0.349562
11
1.53769
21
-0.346717
0
LINE
8
BLACK
6
CONTINUOUS
10
1.53769
20
-0.346717
11
1.54453
21
-0.345262
0
LINE
8
BLACK
6
CONTINUOUS
10
1.54453
20
-0.345262
11
1.55153
21
-0.345262
0
LINE
8
BLACK
6
CONTINUOUS
10
1.55153
20
-0.345262
11
1.55837
21
-0.346717
0
LINE
8
BLACK
6
CONTINUOUS
10
1.70325
20
-0.34652
11
1.70965
21
-0.349365
0
LINE
8
BLACK
6
CONTINUOUS
10
1.70965
20
-0.349365
11
1.71531
21
-0.353477
0
LINE
8
BLACK
6
CONTINUOUS
10
1.71531
20
-0.353477
11
1.71999
21
-0.358676
0
LINE
8
BLACK
6
CONTINUOUS
10
1.71999
20
-0.358676
11
1.72348
21
-0.364735
0
LINE
8
BLACK
6
CONTINUOUS
10
1.72348
20
-0.364735
11
1.72565
21
-0.371389
0
LINE
8
BLACK
6
CONTINUOUS
10
1.72565
20
-0.371389
11
1.72638
21
-0.378346
0
LINE
8
BLACK
6
CONTINUOUS
10
1.72638
20
-0.378346
11
1.72565
21
-0.385304
0
LINE
8
BLACK
6
CONTINUOUS
10
1.72565
20
-0.385304
11
1.72348
21
-0.391958
0
LINE
8
BLACK
6
CONTINUOUS
10
1.72348
20
-0.391958
11
1.71999
21
-0.398016
0
LINE
8
BLACK
6
CONTINUOUS
10
1.71999
20
-0.398016
11
1.71531
21
-0.403215
0
LINE
8
BLACK
6
CONTINUOUS
10
1.71531
20
-0.403215
11
1.70965
21
-0.407328
0
LINE
8
BLACK
6
CONTINUOUS
10
1.70965
20
-0.407328
11
1.70325
21
-0.410173
0
LINE
8
BLACK
6
CONTINUOUS
10
1.70325
20
-0.410173
11
1.69641
21
-0.411628
0
LINE
8
BLACK
6
CONTINUOUS
10
1.69641
20
-0.411628
11
1.68942
21
-0.411628
0
LINE
8
BLACK
6
CONTINUOUS
10
1.68942
20
-0.411628
11
1.68257
21
-0.410173
0
LINE
8
BLACK
6
CONTINUOUS
10
1.68257
20
-0.410173
11
1.67618
21
-0.407328
0
LINE
8
BLACK
6
CONTINUOUS
10
1.67618
20
-0.407328
11
1.67052
21
-0.403215
0
LINE
8
BLACK
6
CONTINUOUS
10
1.67052
20
-0.403215
11
1.66584
21
-0.398016
0
LINE
8
BLACK
6
CONTINUOUS
10
1.66584
20
-0.398016
11
1.66234
21
-0.391958
0
LINE
8
BLACK
6
CONTINUOUS
10
1.66234
20
-0.391958
11
1.66018
21
-0.385304
0
LINE
8
BLACK
6
CONTINUOUS
10
1.66018
20
-0.385304
11
1.65945
21
-0.378346
0
LINE
8
BLACK
6
CONTINUOUS
10
1.65945
20
-0.378346
11
1.66018
21
-0.371389
0
LINE
8
BLACK
6
CONTINUOUS
10
1.66018
20
-0.371389
11
1.66234
21
-0.364735
0
LINE
8
BLACK
6
CONTINUOUS
10
1.66234
20
-0.364735
11
1.66584
21
-0.358676
0
LINE
8
BLACK
6
CONTINUOUS
10
1.66584
20
-0.358676
11
1.67052
21
-0.353477
0
LINE
8
BLACK
6
CONTINUOUS
10
1.67052
20
-0.353477
11
1.67618
21
-0.349365
0
LINE
8
BLACK
6
CONTINUOUS
10
1.67618
20
-0.349365
11
1.68257
21
-0.34652
0
LINE
8
BLACK
6
CONTINUOUS
10
1.68257
20
-0.34652
11
1.68942
21
-0.345065
0
LINE
8
BLACK
6
CONTINUOUS
10
1.68942
20
-0.345065
11
1.69641
21
-0.345065
0
LINE
8
BLACK
6
CONTINUOUS
10
1.69641
20
-0.345065
11
1.70325
21
-0.34652
0
LINE
8
BLACK
6
CONTINUOUS
10
0.906129
20
-0.304883
11
0.909322
21
-0.307017
0
LINE
8
BLACK
6
CONTINUOUS
10
0.909322
20
-0.307017
11
0.911456
21
-0.31021
0
LINE
8
BLACK
6
CONTINUOUS
10
0.911456
20
-0.31021
11
0.912205
21
-0.313976
0
LINE
8
BLACK
6
CONTINUOUS
10
0.912205
20
-0.313976
11
0.912205
21
-0.353346
0
LINE
8
BLACK
6
CONTINUOUS
10
0.912205
20
-0.353346
11
0.911456
21
-0.357113
0
LINE
8
BLACK
6
CONTINUOUS
10
0.911456
20
-0.357113
11
0.909322
21
-0.360306
0
LINE
8
BLACK
6
CONTINUOUS
10
0.909322
20
-0.360306
11
0.906129
21
-0.36244
0
LINE
8
BLACK
6
CONTINUOUS
10
0.906129
20
-0.36244
11
0.902362
21
-0.363189
0
LINE
8
BLACK
6
CONTINUOUS
10
0.902362
20
-0.363189
11
0.862992
21
-0.363189
0
LINE
8
BLACK
6
CONTINUOUS
10
0.862992
20
-0.363189
11
0.859226
21
-0.36244
0
LINE
8
BLACK
6
CONTINUOUS
10
0.859226
20
-0.36244
11
0.856032
21
-0.360306
0
LINE
8
BLACK
6
CONTINUOUS
10
0.856032
20
-0.360306
11
0.853899
21
-0.357113
0
LINE
8
BLACK
6
CONTINUOUS
10
0.853899
20
-0.357113
11
0.85315
21
-0.353346
0
LINE
8
BLACK
6
CONTINUOUS
10
0.85315
20
-0.353346
11
0.85315
21
-0.313976
0
LINE
8
BLACK
6
CONTINUOUS
10
0.85315
20
-0.313976
11
0.853899
21
-0.31021
0
LINE
8
BLACK
6
CONTINUOUS
10
0.853899
20
-0.31021
11
0.856032
21
-0.307017
0
LINE
8
BLACK
6
CONTINUOUS
10
0.856032
20
-0.307017
11
0.859226
21
-0.304883
0
LINE
8
BLACK
6
CONTINUOUS
10
0.859226
20
-0.304883
11
0.862992
21
-0.304134
0
LINE
8
BLACK
6
CONTINUOUS
10
0.862992
20
-0.304134
11
0.902362
21
-0.304134
0
LINE
8
BLACK
6
CONTINUOUS
10
0.902362
20
-0.304134
11
0.906129
21
-0.304883
0
LINE
8
BLACK
6
CONTINUOUS
10
1.00736
20
-0.304874
11
1.0136
21
-0.307058
0
LINE
8
BLACK
6
CONTINUOUS
10
1.0136
20
-0.307058
11
1.0192
21
-0.310576
0
LINE
8
BLACK
6
CONTINUOUS
10
1.0192
20
-0.310576
11
1.02387
21
-0.315251
0
LINE
8
BLACK
6
CONTINUOUS
10
1.02387
20
-0.315251
11
1.02739
21
-0.32085
0
LINE
8
BLACK
6
CONTINUOUS
10
1.02739
20
-0.32085
11
1.02957
21
-0.327091
0
LINE
8
BLACK
6
CONTINUOUS
10
1.02957
20
-0.327091
11
1.03031
21
-0.333661
0
LINE
8
BLACK
6
CONTINUOUS
10
1.03031
20
-0.333661
11
1.02957
21
-0.340232
0
LINE
8
BLACK
6
CONTINUOUS
10
1.02957
20
-0.340232
11
1.02739
21
-0.346473
0
LINE
8
BLACK
6
CONTINUOUS
10
1.02739
20
-0.346473
11
1.02387
21
-0.352072
0
LINE
8
BLACK
6
CONTINUOUS
10
1.02387
20
-0.352072
11
1.0192
21
-0.356747
0
LINE
8
BLACK
6
CONTINUOUS
10
1.0192
20
-0.356747
11
1.0136
21
-0.360265
0
LINE
8
BLACK
6
CONTINUOUS
10
1.0136
20
-0.360265
11
1.00736
21
-0.362449
0
LINE
8
BLACK
6
CONTINUOUS
10
1.00736
20
-0.362449
11
1.00079
21
-0.363189
0
LINE
8
BLACK
6
CONTINUOUS
10
1.00079
20
-0.363189
11
0.994217
21
-0.362449
0
LINE
8
BLACK
6
CONTINUOUS
10
0.994217
20
-0.362449
11
0.987976
21
-0.360265
0
LINE
8
BLACK
6
CONTINUOUS
10
0.987976
20
-0.360265
11
0.982377
21
-0.356747
0
LINE
8
BLACK
6
CONTINUOUS
10
0.982377
20
-0.356747
11
0.977702
21
-0.352072
0
LINE
8
BLACK
6
CONTINUOUS
10
0.977702
20
-0.352072
11
0.974184
21
-0.346473
0
LINE
8
BLACK
6
CONTINUOUS
10
0.974184
20
-0.346473
11
0.972
21
-0.340232
0
LINE
8
BLACK
6
CONTINUOUS
10
0.972
20
-0.340232
11
0.97126
21
-0.333661
0
LINE
8
BLACK
6
CONTINUOUS
10
0.97126
20
-0.333661
11
0.972
21
-0.327091
0
LINE
8
BLACK
6
CONTINUOUS
10
0.972
20
-0.327091
11
0.974184
21
-0.32085
0
LINE
8
BLACK
6
CONTINUOUS
10
0.974184
20
-0.32085
11
0.977702
21
-0.315251
0
LINE
8
BLACK
6
CONTINUOUS
10
0.977702
20
-0.315251
11
0.982377
21
-0.310576
0
LINE
8
BLACK
6
CONTINUOUS
10
0.982377
20
-0.310576
11
0.987976
21
-0.307058
0
LINE
8
BLACK
6
CONTINUOUS
10
0.987976
20
-0.307058
11
0.994217
21
-0.304874
0
LINE
8
BLACK
6
CONTINUOUS
10
0.994217
20
-0.304874
11
1.00079
21
-0.304134
0
LINE
8
BLACK
6
CONTINUOUS
10
1.00079
20
-0.304134
11
1.00736
21
-0.304874
0
LINE
8
BLACK
6
CONTINUOUS
10
0.599409
20
-0.331693
11
0.449409
21
-0.331693
0
LINE
8
BLACK
6
CONTINUOUS
10
0.449409
20
-0.331693
11
0.449409
21
-0.181693
0
LINE
8
BLACK
6
CONTINUOUS
10
0.449409
20
-0.181693
11
0.599409
21
-0.181693
0
LINE
8
BLACK
6
CONTINUOUS
10
0.599409
20
-0.181693
11
0.599409
21
-0.331693
0
LINE
8
BLACK
6
CONTINUOUS
10
2.11939
20
-0.302699
11
2.12279
21
-0.305555
0
LINE
8
BLACK
6
CONTINUOUS
10
2.12279
20
-0.305555
11
2.12502
21
-0.309403
0
LINE
8
BLACK
6
CONTINUOUS
10
2.12502
20
-0.309403
11
2.12579
21
-0.31378
0
LINE
8
BLACK
6
CONTINUOUS
10
2.12579
20
-0.31378
11
2.12502
21
-0.318156
0
LINE
8
BLACK
6
CONTINUOUS
10
2.12502
20
-0.318156
11
2.12279
21
-0.322004
0
LINE
8
BLACK
6
CONTINUOUS
10
2.12279
20
-0.322004
11
2.11939
21
-0.324861
0
LINE
8
BLACK
6
CONTINUOUS
10
2.11939
20
-0.324861
11
2.11521
21
-0.32638
0
LINE
8
BLACK
6
CONTINUOUS
10
2.11521
20
-0.32638
11
2.11077
21
-0.32638
0
LINE
8
BLACK
6
CONTINUOUS
10
2.11077
20
-0.32638
11
2.10659
21
-0.324861
0
LINE
8
BLACK
6
CONTINUOUS
10
2.10659
20
-0.324861
11
2.10319
21
-0.322004
0
LINE
8
BLACK
6
CONTINUOUS
10
2.10319
20
-0.322004
11
2.10097
21
-0.318156
0
LINE
8
BLACK
6
CONTINUOUS
10
2.10097
20
-0.318156
11
2.1002
21
-0.31378
0
LINE
8
BLACK
6
CONTINUOUS
10
2.1002
20
-0.31378
11
2.10097
21
-0.309403
0
LINE
8
BLACK
6
CONTINUOUS
10
2.10097
20
-0.309403
11
2.10319
21
-0.305555
0
LINE
8
BLACK
6
CONTINUOUS
10
2.10319
20
-0.305555
11
2.10659
21
-0.302699
0
LINE
8
BLACK
6
CONTINUOUS
10
2.10659
20
-0.302699
11
2.11077
21
-0.301179
0
LINE
8
BLACK
6
CONTINUOUS
10
2.11077
20
-0.301179
11
2.11521
21
-0.301179
0
LINE
8
BLACK
6
CONTINUOUS
10
2.11521
20
-0.301179
11
2.11939
21
-0.302699
0
LINE
8
BLACK
6
CONTINUOUS
10
2.15285
20
-0.302699
11
2.15626
21
-0.305555
0
LINE
8
BLACK
6
CONTINUOUS
10
2.15626
20
-0.305555
11
2.15848
21
-0.309403
0
LINE
8
BLACK
6
CONTINUOUS
10
2.15848
20
-0.309403
11
2.15925
21
-0.31378
0
LINE
8
BLACK
6
CONTINUOUS
10
2.15925
20
-0.31378
11
2.15848
21
-0.318156
0
LINE
8
BLACK
6
CONTINUOUS
10
2.15848
20
-0.318156
11
2.15626
21
-0.322004
0
LINE
8
BLACK
6
CONTINUOUS
10
2.15626
20
-0.322004
11
2.15285
21
-0.324861
0
LINE
8
BLACK
6
CONTINUOUS
10
2.15285
20
-0.324861
11
2.14868
21
-0.32638
0
LINE
8
BLACK
6
CONTINUOUS
10
2.14868
20
-0.32638
11
2.14423
21
-0.32638
0
LINE
8
BLACK
6
CONTINUOUS
10
2.14423
20
-0.32638
11
2.14006
21
-0.324861
0
LINE
8
BLACK
6
CONTINUOUS
10
2.14006
20
-0.324861
11
2.13665
21
-0.322004
0
LINE
8
BLACK
6
CONTINUOUS
10
2.13665
20
-0.322004
11
2.13443
21
-0.318156
0
LINE
8
BLACK
6
CONTINUOUS
10
2.13443
20
-0.318156
11
2.13366
21
-0.31378
0
LINE
8
BLACK
6
CONTINUOUS
10
2.13366
20
-0.31378
11
2.13443
21
-0.309403
0
LINE
8
BLACK
6
CONTINUOUS
10
2.13443
20
-0.309403
11
2.13665
21
-0.305555
0
LINE
8
BLACK
6
CONTINUOUS
10
2.13665
20
-0.305555
11
2.14006
21
-0.302699
0
LINE
8
BLACK
6
CONTINUOUS
10
2.14006
20
-0.302699
11
2.14423
21
-0.301179
0
LINE
8
BLACK
6
CONTINUOUS
10
2.14423
20
-0.301179
11
2.14868
21
-0.301179
0
LINE
8
BLACK
6
CONTINUOUS
10
2.14868
20
-0.301179
11
2.15285
21
-0.302699
0
LINE
8
BLACK
6
CONTINUOUS
10
2.18632
20
-0.302699
11
2.18972
21
-0.305555
0
LINE
8
BLACK
6
CONTINUOUS
10
2.18972
20
-0.305555
11
2.19194
21
-0.309403
0
LINE
8
BLACK
6
CONTINUOUS
10
2.19194
20
-0.309403
11
2.19272
21
-0.31378
0
LINE
8
BLACK
6
CONTINUOUS
10
2.19272
20
-0.31378
11
2.19194
21
-0.318156
0
LINE
8
BLACK
6
CONTINUOUS
10
2.19194
20
-0.318156
11
2.18972
21
-0.322004
0
LINE
8
BLACK
6
CONTINUOUS
10
2.18972
20
-0.322004
11
2.18632
21
-0.324861
0
LINE
8
BLACK
6
CONTINUOUS
10
2.18632
20
-0.324861
11
2.18214
21
-0.32638
0
LINE
8
BLACK
6
CONTINUOUS
10
2.18214
20
-0.32638
11
2.1777
21
-0.32638
0
LINE
8
BLACK
6
CONTINUOUS
10
2.1777
20
-0.32638
11
2.17352
21
-0.324861
0
LINE
8
BLACK
6
CONTINUOUS
10
2.17352
20
-0.324861
11
2.17012
21
-0.322004
0
LINE
8
BLACK
6
CONTINUOUS
10
2.17012
20
-0.322004
11
2.1679
21
-0.318156
0
LINE
8
BLACK
6
CONTINUOUS
10
2.1679
20
-0.318156
11
2.16713
21
-0.31378
0
LINE
8
BLACK
6
CONTINUOUS
10
2.16713
20
-0.31378
11
2.1679
21
-0.309403
0
LINE
8
BLACK
6
CONTINUOUS
10
2.1679
20
-0.309403
11
2.17012
21
-0.305555
0
LINE
8
BLACK
6
CONTINUOUS
10
2.17012
20
-0.305555
11
2.17352
21
-0.302699
0
LINE
8
BLACK
6
CONTINUOUS
10
2.17352
20
-0.302699
11
2.1777
21
-0.301179
0
LINE
8
BLACK
6
CONTINUOUS
10
2.1777
20
-0.301179
11
2.18214
21
-0.301179
0
LINE
8
BLACK
6
CONTINUOUS
10
2.18214
20
-0.301179
11
2.18632
21
-0.302699
0
LINE
8
BLACK
6
CONTINUOUS
10
2.21978
20
-0.302699
11
2.22319
21
-0.305555
0
LINE
8
BLACK
6
CONTINUOUS
10
2.22319
20
-0.305555
11
2.22541
21
-0.309403
0
LINE
8
BLACK
6
CONTINUOUS
10
2.22541
20
-0.309403
11
2.22618
21
-0.31378
0
LINE
8
BLACK
6
CONTINUOUS
10
2.22618
20
-0.31378
11
2.22541
21
-0.318156
0
LINE
8
BLACK
6
CONTINUOUS
10
2.22541
20
-0.318156
11
2.22319
21
-0.322004
0
LINE
8
BLACK
6
CONTINUOUS
10
2.22319
20
-0.322004
11
2.21978
21
-0.324861
0
LINE
8
BLACK
6
CONTINUOUS
10
2.21978
20
-0.324861
11
2.21561
21
-0.32638
0
LINE
8
BLACK
6
CONTINUOUS
10
2.21561
20
-0.32638
11
2.21116
21
-0.32638
0
LINE
8
BLACK
6
CONTINUOUS
10
2.21116
20
-0.32638
11
2.20699
21
-0.324861
0
LINE
8
BLACK
6
CONTINUOUS
10
2.20699
20
-0.324861
11
2.20358
21
-0.322004
0
LINE
8
BLACK
6
CONTINUOUS
10
2.20358
20
-0.322004
11
2.20136
21
-0.318156
0
LINE
8
BLACK
6
CONTINUOUS
10
2.20136
20
-0.318156
11
2.20059
21
-0.31378
0
LINE
8
BLACK
6
CONTINUOUS
10
2.20059
20
-0.31378
11
2.20136
21
-0.309403
0
LINE
8
BLACK
6
CONTINUOUS
10
2.20136
20
-0.309403
11
2.20358
21
-0.305555
0
LINE
8
BLACK
6
CONTINUOUS
10
2.20358
20
-0.305555
11
2.20699
21
-0.302699
0
LINE
8
BLACK
6
CONTINUOUS
10
2.20699
20
-0.302699
11
2.21116
21
-0.301179
0
LINE
8
BLACK
6
CONTINUOUS
10
2.21116
20
-0.301179
11
2.21561
21
-0.301179
0
LINE
8
BLACK
6
CONTINUOUS
10
2.21561
20
-0.301179
11
2.21978
21
-0.302699
0
LINE
8
BLACK
6
CONTINUOUS
10
2.25325
20
-0.302699
11
2.25665
21
-0.305555
0
LINE
8
BLACK
6
CONTINUOUS
10
2.25665
20
-0.305555
11
2.25887
21
-0.309403
0
LINE
8
BLACK
6
CONTINUOUS
10
2.25887
20
-0.309403
11
2.25965
21
-0.31378
0
LINE
8
BLACK
6
CONTINUOUS
10
2.25965
20
-0.31378
11
2.25887
21
-0.318156
0
LINE
8
BLACK
6
CONTINUOUS
10
2.25887
20
-0.318156
11
2.25665
21
-0.322004
0
LINE
8
BLACK
6
CONTINUOUS
10
2.25665
20
-0.322004
11
2.25325
21
-0.324861
0
LINE
8
BLACK
6
CONTINUOUS
10
2.25325
20
-0.324861
11
2.24907
21
-0.32638
0
LINE
8
BLACK
6
CONTINUOUS
10
2.24907
20
-0.32638
11
2.24463
21
-0.32638
0
LINE
8
BLACK
6
CONTINUOUS
10
2.24463
20
-0.32638
11
2.24045
21
-0.324861
0
LINE
8
BLACK
6
CONTINUOUS
10
2.24045
20
-0.324861
11
2.23705
21
-0.322004
0
LINE
8
BLACK
6
CONTINUOUS
10
2.23705
20
-0.322004
11
2.23483
21
-0.318156
0
LINE
8
BLACK
6
CONTINUOUS
10
2.23483
20
-0.318156
11
2.23406
21
-0.31378
0
LINE
8
BLACK
6
CONTINUOUS
10
2.23406
20
-0.31378
11
2.23483
21
-0.309403
0
LINE
8
BLACK
6
CONTINUOUS
10
2.23483
20
-0.309403
11
2.23705
21
-0.305555
0
LINE
8
BLACK
6
CONTINUOUS
10
2.23705
20
-0.305555
11
2.24045
21
-0.302699
0
LINE
8
BLACK
6
CONTINUOUS
10
2.24045
20
-0.302699
11
2.24463
21
-0.301179
0
LINE
8
BLACK
6
CONTINUOUS
10
2.24463
20
-0.301179
11
2.24907
21
-0.301179
0
LINE
8
BLACK
6
CONTINUOUS
10
2.24907
20
-0.301179
11
2.25325
21
-0.302699
0
LINE
8
BLACK
6
CONTINUOUS
10
2.28671
20
-0.302699
11
2.29012
21
-0.305555
0
LINE
8
BLACK
6
CONTINUOUS
10
2.29012
20
-0.305555
11
2.29234
21
-0.309403
0
LINE
8
BLACK
6
CONTINUOUS
10
2.29234
20
-0.309403
11
2.29311
21
-0.31378
0
LINE
8
BLACK
6
CONTINUOUS
10
2.29311
20
-0.31378
11
2.29234
21
-0.318156
0
LINE
8
BLACK
6
CONTINUOUS
10
2.29234
20
-0.318156
11
2.29012
21
-0.322004
0
LINE
8
BLACK
6
CONTINUOUS
10
2.29012
20
-0.322004
11
2.28671
21
-0.324861
0
LINE
8
BLACK
6
CONTINUOUS
10
2.28671
20
-0.324861
11
2.28254
21
-0.32638
0
LINE
8
BLACK
6
CONTINUOUS
10
2.28254
20
-0.32638
11
2.27809
21
-0.32638
0
LINE
8
BLACK
6
CONTINUOUS
10
2.27809
20
-0.32638
11
2.27392
21
-0.324861
0
LINE
8
BLACK
6
CONTINUOUS
10
2.27392
20
-0.324861
11
2.27051
21
-0.322004
0
LINE
8
BLACK
6
CONTINUOUS
10
2.27051
20
-0.322004
11
2.26829
21
-0.318156
0
LINE
8
BLACK
6
CONTINUOUS
10
2.26829
20
-0.318156
11
2.26752
21
-0.31378
0
LINE
8
BLACK
6
CONTINUOUS
10
2.26752
20
-0.31378
11
2.26829
21
-0.309403
0
LINE
8
BLACK
6
CONTINUOUS
10
2.26829
20
-0.309403
11
2.27051
21
-0.305555
0
LINE
8
BLACK
6
CONTINUOUS
10
2.27051
20
-0.305555
11
2.27392
21
-0.302699
0
LINE
8
BLACK
6
CONTINUOUS
10
2.27392
20
-0.302699
11
2.27809
21
-0.301179
0
LINE
8
BLACK
6
CONTINUOUS
10
2.27809
20
-0.301179
11
2.28254
21
-0.301179
0
LINE
8
BLACK
6
CONTINUOUS
10
2.28254
20
-0.301179
11
2.28671
21
-0.302699
0
LINE
8
BLACK
6
CONTINUOUS
10
2.32018
20
-0.302699
11
2.32358
21
-0.305555
0
LINE
8
BLACK
6
CONTINUOUS
10
2.32358
20
-0.305555
11
2.3258
21
-0.309403
0
LINE
8
BLACK
6
CONTINUOUS
10
2.3258
20
-0.309403
11
2.32657
21
-0.31378
0
LINE
8
BLACK
6
CONTINUOUS
10
2.32657
20
-0.31378
11
2.3258
21
-0.318156
0
LINE
8
BLACK
6
CONTINUOUS
10
2.3258
20
-0.318156
11
2.32358
21
-0.322004
0
LINE
8
BLACK
6
CONTINUOUS
10
2.32358
20
-0.322004
11
2.32018
21
-0.324861
0
LINE
8
BLACK
6
CONTINUOUS
10
2.32018
20
-0.324861
11
2.316
21
-0.32638
0
LINE
8
BLACK
6
CONTINUOUS
10
2.316
20
-0.32638
11
2.31156
21
-0.32638
0
LINE
8
BLACK
6
CONTINUOUS
10
2.31156
20
-0.32638
11
2.30738
21
-0.324861
0
LINE
8
BLACK
6
CONTINUOUS
10
2.30738
20
-0.324861
11
2.30398
21
-0.322004
0
LINE
8
BLACK
6
CONTINUOUS
10
2.30398
20
-0.322004
11
2.30176
21
-0.318156
0
LINE
8
BLACK
6
CONTINUOUS
10
2.30176
20
-0.318156
11
2.30098
21
-0.31378
0
LINE
8
BLACK
6
CONTINUOUS
10
2.30098
20
-0.31378
11
2.30176
21
-0.309403
0
LINE
8
BLACK
6
CONTINUOUS
10
2.30176
20
-0.309403
11
2.30398
21
-0.305555
0
LINE
8
BLACK
6
CONTINUOUS
10
2.30398
20
-0.305555
11
2.30738
21
-0.302699
0
LINE
8
BLACK
6
CONTINUOUS
10
2.30738
20
-0.302699
11
2.31156
21
-0.301179
0
LINE
8
BLACK
6
CONTINUOUS
10
2.31156
20
-0.301179
11
2.316
21
-0.301179
0
LINE
8
BLACK
6
CONTINUOUS
10
2.316
20
-0.301179
11
2.32018
21
-0.302699
0
LINE
8
BLACK
6
CONTINUOUS
10
2.35364
20
-0.302699
11
2.35705
21
-0.305555
0
LINE
8
BLACK
6
CONTINUOUS
10
2.35705
20
-0.305555
11
2.35927
21
-0.309403
0
LINE
8
BLACK
6
CONTINUOUS
10
2.35927
20
-0.309403
11
2.36004
21
-0.31378
0
LINE
8
BLACK
6
CONTINUOUS
10
2.36004
20
-0.31378
11
2.35927
21
-0.318156
0
LINE
8
BLACK
6
CONTINUOUS
10
2.35927
20
-0.318156
11
2.35705
21
-0.322004
0
LINE
8
BLACK
6
CONTINUOUS
10
2.35705
20
-0.322004
11
2.35364
21
-0.324861
0
LINE
8
BLACK
6
CONTINUOUS
10
2.35364
20
-0.324861
11
2.34947
21
-0.32638
0
LINE
8
BLACK
6
CONTINUOUS
10
2.34947
20
-0.32638
11
2.34502
21
-0.32638
0
LINE
8
BLACK
6
CONTINUOUS
10
2.34502
20
-0.32638
11
2.34085
21
-0.324861
0
LINE
8
BLACK
6
CONTINUOUS
10
2.34085
20
-0.324861
11
2.33744
21
-0.322004
0
LINE
8
BLACK
6
CONTINUOUS
10
2.33744
20
-0.322004
11
2.33522
21
-0.318156
0
LINE
8
BLACK
6
CONTINUOUS
10
2.33522
20
-0.318156
11
2.33445
21
-0.31378
0
LINE
8
BLACK
6
CONTINUOUS
10
2.33445
20
-0.31378
11
2.33522
21
-0.309403
0
LINE
8
BLACK
6
CONTINUOUS
10
2.33522
20
-0.309403
11
2.33744
21
-0.305555
0
LINE
8
BLACK
6
CONTINUOUS
10
2.33744
20
-0.305555
11
2.34085
21
-0.302699
0
LINE
8
BLACK
6
CONTINUOUS
10
2.34085
20
-0.302699
11
2.34502
21
-0.301179
0
LINE
8
BLACK
6
CONTINUOUS
10
2.34502
20
-0.301179
11
2.34947
21
-0.301179
0
LINE
8
BLACK
6
CONTINUOUS
10
2.34947
20
-0.301179
11
2.35364
21
-0.302699
0
LINE
8
BLACK
6
CONTINUOUS
10
2.61411
20
-0.0748079
11
2.62803
21
-0.0771744
0
LINE
8
BLACK
6
CONTINUOUS
10
2.62803
20
-0.0771744
11
2.64161
21
-0.0810856
0
LINE
8
BLACK
6
CONTINUOUS
10
2.64161
20
-0.0810856
11
2.65466
21
-0.0864921
0
LINE
8
BLACK
6
CONTINUOUS
10
2.65466
20
-0.0864921
11
2.66703
21
-0.0933261
0
LINE
8
BLACK
6
CONTINUOUS
10
2.66703
20
-0.0933261
11
2.67855
21
-0.101502
0
LINE
8
BLACK
6
CONTINUOUS
10
2.67855
20
-0.101502
11
2.68908
21
-0.110916
0
LINE
8
BLACK
6
CONTINUOUS
10
2.68908
20
-0.110916
11
2.6985
21
-0.12145
0
LINE
8
BLACK
6
CONTINUOUS
10
2.6985
20
-0.12145
11
2.70667
21
-0.132972
0
LINE
8
BLACK
6
CONTINUOUS
10
2.70667
20
-0.132972
11
2.71351
21
-0.145337
0
LINE
8
BLACK
6
CONTINUOUS
10
2.71351
20
-0.145337
11
2.71891
21
-0.15839
0
LINE
8
BLACK
6
CONTINUOUS
10
2.71891
20
-0.15839
11
2.72283
21
-0.171966
0
LINE
8
BLACK
6
CONTINUOUS
10
2.72283
20
-0.171966
11
2.72519
21
-0.185894
0
LINE
8
BLACK
6
CONTINUOUS
10
2.72519
20
-0.185894
11
2.72598
21
-0.2
0
LINE
8
BLACK
6
CONTINUOUS
10
2.72598
20
-0.2
11
2.72519
21
-0.214106
0
LINE
8
BLACK
6
CONTINUOUS
10
2.72519
20
-0.214106
11
2.72283
21
-0.228034
0
LINE
8
BLACK
6
CONTINUOUS
10
2.72283
20
-0.228034
11
2.71891
21
-0.24161
0
LINE
8
BLACK
6
CONTINUOUS
10
2.71891
20
-0.24161
11
2.71351
21
-0.254663
0
LINE
8
BLACK
6
CONTINUOUS
10
2.71351
20
-0.254663
11
2.70667
21
-0.267028
0
LINE
8
BLACK
6
CONTINUOUS
10
2.70667
20
-0.267028
11
2.6985
21
-0.27855
0
LINE
8
BLACK
6
CONTINUOUS
10
2.6985
20
-0.27855
11
2.68908
21
-0.289084
0
LINE
8
BLACK
6
CONTINUOUS
10
2.68908
20
-0.289084
11
2.67855
21
-0.298498
0
LINE
8
BLACK
6
CONTINUOUS
10
2.67855
20
-0.298498
11
2.66703
21
-0.306674
0
LINE
8
BLACK
6
CONTINUOUS
10
2.66703
20
-0.306674
11
2.65466
21
-0.313508
0
LINE
8
BLACK
6
CONTINUOUS
10
2.65466
20
-0.313508
11
2.64161
21
-0.318914
0
LINE
8
BLACK
6
CONTINUOUS
10
2.64161
20
-0.318914
11
2.62803
21
-0.322826
0
LINE
8
BLACK
6
CONTINUOUS
10
2.62803
20
-0.322826
11
2.61411
21
-0.325192
0
LINE
8
BLACK
6
CONTINUOUS
10
2.61411
20
-0.325192
11
2.6
21
-0.325984
0
LINE
8
BLACK
6
CONTINUOUS
10
2.6
20
-0.325984
11
2.58589
21
-0.325192
0
LINE
8
BLACK
6
CONTINUOUS
10
2.58589
20
-0.325192
11
2.57197
21
-0.322826
0
LINE
8
BLACK
6
CONTINUOUS
10
2.57197
20
-0.322826
11
2.55839
21
-0.318914
0
LINE
8
BLACK
6
CONTINUOUS
10
2.55839
20
-0.318914
11
2.54534
21
-0.313508
0
LINE
8
BLACK
6
CONTINUOUS
10
2.54534
20
-0.313508
11
2.53297
21
-0.306674
0
LINE
8
BLACK
6
CONTINUOUS
10
2.53297
20
-0.306674
11
2.52145
21
-0.298498
0
LINE
8
BLACK
6
CONTINUOUS
10
2.52145
20
-0.298498
11
2.51092
21
-0.289084
0
LINE
8
BLACK
6
CONTINUOUS
10
2.51092
20
-0.289084
11
2.5015
21
-0.27855
0
LINE
8
BLACK
6
CONTINUOUS
10
2.5015
20
-0.27855
11
2.49333
21
-0.267028
0
LINE
8
BLACK
6
CONTINUOUS
10
2.49333
20
-0.267028
11
2.48649
21
-0.254663
0
LINE
8
BLACK
6
CONTINUOUS
10
2.48649
20
-0.254663
11
2.48109
21
-0.24161
0
LINE
8
BLACK
6
CONTINUOUS
10
2.48109
20
-0.24161
11
2.47717
21
-0.228034
0
LINE
8
BLACK
6
CONTINUOUS
10
2.47717
20
-0.228034
11
2.47481
21
-0.214106
0
LINE
8
BLACK
6
CONTINUOUS
10
2.47481
20
-0.214106
11
2.47402
21
-0.2
0
LINE
8
BLACK
6
CONTINUOUS
10
2.47402
20
-0.2
11
2.47481
21
-0.185894
0
LINE
8
BLACK
6
CONTINUOUS
10
2.47481
20
-0.185894
11
2.47717
21
-0.171966
0
LINE
8
BLACK
6
CONTINUOUS
10
2.47717
20
-0.171966
11
2.48109
21
-0.15839
0
LINE
8
BLACK
6
CONTINUOUS
10
2.48109
20
-0.15839
11
2.48649
21
-0.145337
0
LINE
8
BLACK
6
CONTINUOUS
10
2.48649
20
-0.145337
11
2.49333
21
-0.132972
0
LINE
8
BLACK
6
CONTINUOUS
10
2.49333
20
-0.132972
11
2.5015
21
-0.12145
0
LINE
8
BLACK
6
CONTINUOUS
10
2.5015
20
-0.12145
11
2.51092
21
-0.110916
0
LINE
8
BLACK
6
CONTINUOUS
10
2.51092
20
-0.110916
11
2.52145
21
-0.101502
0
LINE
8
BLACK
6
CONTINUOUS
10
2.52145
20
-0.101502
11
2.53297
21
-0.0933261
0
LINE
8
BLACK
6
CONTINUOUS
10
2.53297
20
-0.0933261
11
2.54534
21
-0.0864921
0
LINE
8
BLACK
6
CONTINUOUS
10
2.54534
20
-0.0864921
11
2.55839
21
-0.0810856
0
LINE
8
BLACK
6
CONTINUOUS
10
2.55839
20
-0.0810856
11
2.57197
21
-0.0771744
0
LINE
8
BLACK
6
CONTINUOUS
10
2.57197
20
-0.0771744
11
2.58589
21
-0.0748079
0
LINE
8
BLACK
6
CONTINUOUS
10
2.58589
20
-0.0748079
11
2.6
21
-0.0740157
0
LINE
8
BLACK
6
CONTINUOUS
10
2.6
20
-0.0740157
11
2.61411
21
-0.0748079
0
LINE
8
BLACK
6
CONTINUOUS
10
2.06632
20
-0.229177
11
2.07089
21
-0.231818
0
LINE
8
BLACK
6
CONTINUOUS
10
2.07089
20
-0.231818
11
2.07448
21
-0.235689
0
LINE
8
BLACK
6
CONTINUOUS
10
2.07448
20
-0.235689
11
2.07677
21
-0.240447
0
LINE
8
BLACK
6
CONTINUOUS
10
2.07677
20
-0.240447
11
2.07756
21
-0.245669
0
LINE
8
BLACK
6
CONTINUOUS
10
2.07756
20
-0.245669
11
2.07756
21
-0.304724
0
LINE
8
BLACK
6
CONTINUOUS
10
2.07756
20
-0.304724
11
2.07736
21
-0.307365
0
LINE
8
BLACK
6
CONTINUOUS
10
2.07736
20
-0.307365
11
2.0758
21
-0.312411
0
LINE
8
BLACK
6
CONTINUOUS
10
2.0758
20
-0.312411
11
2.07283
21
-0.316775
0
LINE
8
BLACK
6
CONTINUOUS
10
2.07283
20
-0.316775
11
2.0687
21
-0.320067
0
LINE
8
BLACK
6
CONTINUOUS
10
2.0687
20
-0.320067
11
2.06378
21
-0.321997
0
LINE
8
BLACK
6
CONTINUOUS
10
2.06378
20
-0.321997
11
2.05852
21
-0.322391
0
LINE
8
BLACK
6
CONTINUOUS
10
2.05852
20
-0.322391
11
2.05337
21
-0.321216
0
LINE
8
BLACK
6
CONTINUOUS
10
2.05337
20
-0.321216
11
2.0488
21
-0.318576
0
LINE
8
BLACK
6
CONTINUOUS
10
2.0488
20
-0.318576
11
2.0452
21
-0.314704
0
LINE
8
BLACK
6
CONTINUOUS
10
2.0452
20
-0.314704
11
2.04291
21
-0.309946
0
LINE
8
BLACK
6
CONTINUOUS
10
2.04291
20
-0.309946
11
2.04213
21
-0.304724
0
LINE
8
BLACK
6
CONTINUOUS
10
2.04213
20
-0.304724
11
2.04213
21
-0.245669
0
LINE
8
BLACK
6
CONTINUOUS
10
2.04213
20
-0.245669
11
2.04232
21
-0.243029
0
LINE
8
BLACK
6
CONTINUOUS
10
2.04232
20
-0.243029
11
2.04388
21
-0.237982
0
LINE
8
BLACK
6
CONTINUOUS
10
2.04388
20
-0.237982
11
2.04686
21
-0.233619
0
LINE
8
BLACK
6
CONTINUOUS
10
2.04686
20
-0.233619
11
2.05098
21
-0.230326
0
LINE
8
BLACK
6
CONTINUOUS
10
2.05098
20
-0.230326
11
2.0559
21
-0.228397
0
LINE
8
BLACK
6
CONTINUOUS
10
2.0559
20
-0.228397
11
2.06117
21
-0.228002
0
LINE
8
BLACK
6
CONTINUOUS
10
2.06117
20
-0.228002
11
2.06632
21
-0.229177
0
LINE
8
BLACK
6
CONTINUOUS
10
2.40687
20
-0.229177
11
2.41144
21
-0.231818
0
LINE
8
BLACK
6
CONTINUOUS
10
2.41144
20
-0.231818
11
2.41503
21
-0.235689
0
LINE
8
BLACK
6
CONTINUOUS
10
2.41503
20
-0.235689
11
2.41732
21
-0.240447
0
LINE
8
BLACK
6
CONTINUOUS
10
2.41732
20
-0.240447
11
2.41811
21
-0.245669
0
LINE
8
BLACK
6
CONTINUOUS
10
2.41811
20
-0.245669
11
2.41811
21
-0.304724
0
LINE
8
BLACK
6
CONTINUOUS
10
2.41811
20
-0.304724
11
2.41791
21
-0.307365
0
LINE
8
BLACK
6
CONTINUOUS
10
2.41791
20
-0.307365
11
2.41636
21
-0.312411
0
LINE
8
BLACK
6
CONTINUOUS
10
2.41636
20
-0.312411
11
2.41338
21
-0.316775
0
LINE
8
BLACK
6
CONTINUOUS
10
2.41338
20
-0.316775
11
2.40925
21
-0.320067
0
LINE
8
BLACK
6
CONTINUOUS
10
2.40925
20
-0.320067
11
2.40434
21
-0.321997
0
LINE
8
BLACK
6
CONTINUOUS
10
2.40434
20
-0.321997
11
2.39907
21
-0.322391
0
LINE
8
BLACK
6
CONTINUOUS
10
2.39907
20
-0.322391
11
2.39392
21
-0.321216
0
LINE
8
BLACK
6
CONTINUOUS
10
2.39392
20
-0.321216
11
2.38935
21
-0.318576
0
LINE
8
BLACK
6
CONTINUOUS
10
2.38935
20
-0.318576
11
2.38576
21
-0.314704
0
LINE
8
BLACK
6
CONTINUOUS
10
2.38576
20
-0.314704
11
2.38346
21
-0.309946
0
LINE
8
BLACK
6
CONTINUOUS
10
2.38346
20
-0.309946
11
2.38268
21
-0.304724
0
LINE
8
BLACK
6
CONTINUOUS
10
2.38268
20
-0.304724
11
2.38268
21
-0.245669
0
LINE
8
BLACK
6
CONTINUOUS
10
2.38268
20
-0.245669
11
2.38288
21
-0.243029
0
LINE
8
BLACK
6
CONTINUOUS
10
2.38288
20
-0.243029
11
2.38443
21
-0.237982
0
LINE
8
BLACK
6
CONTINUOUS
10
2.38443
20
-0.237982
11
2.38741
21
-0.233619
0
LINE
8
BLACK
6
CONTINUOUS
10
2.38741
20
-0.233619
11
2.39154
21
-0.230326
0
LINE
8
BLACK
6
CONTINUOUS
10
2.39154
20
-0.230326
11
2.39645
21
-0.228397
0
LINE
8
BLACK
6
CONTINUOUS
10
2.39645
20
-0.228397
11
2.40172
21
-0.228002
0
LINE
8
BLACK
6
CONTINUOUS
10
2.40172
20
-0.228002
11
2.40687
21
-0.229177
0
LINE
8
BLACK
6
CONTINUOUS
10
1.81686
20
-0.230137
11
1.82274
21
-0.233225
0
LINE
8
BLACK
6
CONTINUOUS
10
1.82274
20
-0.233225
11
1.82771
21
-0.23763
0
LINE
8
BLACK
6
CONTINUOUS
10
1.82771
20
-0.23763
11
1.83149
21
-0.243098
0
LINE
8
BLACK
6
CONTINUOUS
10
1.83149
20
-0.243098
11
1.83384
21
-0.24931
0
LINE
8
BLACK
6
CONTINUOUS
10
1.83384
20
-0.24931
11
1.83465
21
-0.255906
0
LINE
8
BLACK
6
CONTINUOUS
10
1.83465
20
-0.255906
11
1.83384
21
-0.262501
0
LINE
8
BLACK
6
CONTINUOUS
10
1.83384
20
-0.262501
11
1.83149
21
-0.268713
0
LINE
8
BLACK
6
CONTINUOUS
10
1.83149
20
-0.268713
11
1.82771
21
-0.274181
0
LINE
8
BLACK
6
CONTINUOUS
10
1.82771
20
-0.274181
11
1.82274
21
-0.278586
0
LINE
8
BLACK
6
CONTINUOUS
10
1.82274
20
-0.278586
11
1.81686
21
-0.281674
0
LINE
8
BLACK
6
CONTINUOUS
10
1.81686
20
-0.281674
11
1.81041
21
-0.283264
0
LINE
8
BLACK
6
CONTINUOUS
10
1.81041
20
-0.283264
11
1.80376
21
-0.283264
0
LINE
8
BLACK
6
CONTINUOUS
10
1.80376
20
-0.283264
11
1.79731
21
-0.281674
0
LINE
8
BLACK
6
CONTINUOUS
10
1.79731
20
-0.281674
11
1.79143
21
-0.278586
0
LINE
8
BLACK
6
CONTINUOUS
10
1.79143
20
-0.278586
11
1.78646
21
-0.274181
0
LINE
8
BLACK
6
CONTINUOUS
10
1.78646
20
-0.274181
11
1.78268
21
-0.268713
0
LINE
8
BLACK
6
CONTINUOUS
10
1.78268
20
-0.268713
11
1.78033
21
-0.262501
0
LINE
8
BLACK
6
CONTINUOUS
10
1.78033
20
-0.262501
11
1.77953
21
-0.255906
0
LINE
8
BLACK
6
CONTINUOUS
10
1.77953
20
-0.255906
11
1.78033
21
-0.24931
0
LINE
8
BLACK
6
CONTINUOUS
10
1.78033
20
-0.24931
11
1.78268
21
-0.243098
0
LINE
8
BLACK
6
CONTINUOUS
10
1.78268
20
-0.243098
11
1.78646
21
-0.23763
0
LINE
8
BLACK
6
CONTINUOUS
10
1.78646
20
-0.23763
11
1.79143
21
-0.233225
0
LINE
8
BLACK
6
CONTINUOUS
10
1.79143
20
-0.233225
11
1.79731
21
-0.230137
0
LINE
8
BLACK
6
CONTINUOUS
10
1.79731
20
-0.230137
11
1.80376
21
-0.228547
0
LINE
8
BLACK
6
CONTINUOUS
10
1.80376
20
-0.228547
11
1.81041
21
-0.228547
0
LINE
8
BLACK
6
CONTINUOUS
10
1.81041
20
-0.228547
11
1.81686
21
-0.230137
0
LINE
8
BLACK
6
CONTINUOUS
10
1.91686
20
-0.230137
11
1.92274
21
-0.233225
0
LINE
8
BLACK
6
CONTINUOUS
10
1.92274
20
-0.233225
11
1.92771
21
-0.23763
0
LINE
8
BLACK
6
CONTINUOUS
10
1.92771
20
-0.23763
11
1.93149
21
-0.243098
0
LINE
8
BLACK
6
CONTINUOUS
10
1.93149
20
-0.243098
11
1.93384
21
-0.24931
0
LINE
8
BLACK
6
CONTINUOUS
10
1.93384
20
-0.24931
11
1.93465
21
-0.255906
0
LINE
8
BLACK
6
CONTINUOUS
10
1.93465
20
-0.255906
11
1.93384
21
-0.262501
0
LINE
8
BLACK
6
CONTINUOUS
10
1.93384
20
-0.262501
11
1.93149
21
-0.268713
0
LINE
8
BLACK
6
CONTINUOUS
10
1.93149
20
-0.268713
11
1.92771
21
-0.274181
0
LINE
8
BLACK
6
CONTINUOUS
10
1.92771
20
-0.274181
11
1.92274
21
-0.278586
0
LINE
8
BLACK
6
CONTINUOUS
10
1.92274
20
-0.278586
11
1.91686
21
-0.281674
0
LINE
8
BLACK
6
CONTINUOUS
10
1.91686
20
-0.281674
11
1.91041
21
-0.283264
0
LINE
8
BLACK
6
CONTINUOUS
10
1.91041
20
-0.283264
11
1.90376
21
-0.283264
0
LINE
8
BLACK
6
CONTINUOUS
10
1.90376
20
-0.283264
11
1.89731
21
-0.281674
0
LINE
8
BLACK
6
CONTINUOUS
10
1.89731
20
-0.281674
11
1.89143
21
-0.278586
0
LINE
8
BLACK
6
CONTINUOUS
10
1.89143
20
-0.278586
11
1.88646
21
-0.274181
0
LINE
8
BLACK
6
CONTINUOUS
10
1.88646
20
-0.274181
11
1.88268
21
-0.268713
0
LINE
8
BLACK
6
CONTINUOUS
10
1.88268
20
-0.268713
11
1.88033
21
-0.262501
0
LINE
8
BLACK
6
CONTINUOUS
10
1.88033
20
-0.262501
11
1.87953
21
-0.255906
0
LINE
8
BLACK
6
CONTINUOUS
10
1.87953
20
-0.255906
11
1.88033
21
-0.24931
0
LINE
8
BLACK
6
CONTINUOUS
10
1.88033
20
-0.24931
11
1.88268
21
-0.243098
0
LINE
8
BLACK
6
CONTINUOUS
10
1.88268
20
-0.243098
11
1.88646
21
-0.23763
0
LINE
8
BLACK
6
CONTINUOUS
10
1.88646
20
-0.23763
11
1.89143
21
-0.233225
0
LINE
8
BLACK
6
CONTINUOUS
10
1.89143
20
-0.233225
11
1.89731
21
-0.230137
0
LINE
8
BLACK
6
CONTINUOUS
10
1.89731
20
-0.230137
11
1.90376
21
-0.228547
0
LINE
8
BLACK
6
CONTINUOUS
10
1.90376
20
-0.228547
11
1.91041
21
-0.228547
0
LINE
8
BLACK
6
CONTINUOUS
10
1.91041
20
-0.228547
11
1.91686
21
-0.230137
0
LINE
8
BLACK
6
CONTINUOUS
10
2.11939
20
-0.249549
11
2.12279
21
-0.252405
0
LINE
8
BLACK
6
CONTINUOUS
10
2.12279
20
-0.252405
11
2.12502
21
-0.256254
0
LINE
8
BLACK
6
CONTINUOUS
10
2.12502
20
-0.256254
11
2.12579
21
-0.26063
0
LINE
8
BLACK
6
CONTINUOUS
10
2.12579
20
-0.26063
11
2.12502
21
-0.265006
0
LINE
8
BLACK
6
CONTINUOUS
10
2.12502
20
-0.265006
11
2.12279
21
-0.268855
0
LINE
8
BLACK
6
CONTINUOUS
10
2.12279
20
-0.268855
11
2.11939
21
-0.271711
0
LINE
8
BLACK
6
CONTINUOUS
10
2.11939
20
-0.271711
11
2.11521
21
-0.273231
0
LINE
8
BLACK
6
CONTINUOUS
10
2.11521
20
-0.273231
11
2.11077
21
-0.273231
0
LINE
8
BLACK
6
CONTINUOUS
10
2.11077
20
-0.273231
11
2.10659
21
-0.271711
0
LINE
8
BLACK
6
CONTINUOUS
10
2.10659
20
-0.271711
11
2.10319
21
-0.268855
0
LINE
8
BLACK
6
CONTINUOUS
10
2.10319
20
-0.268855
11
2.10097
21
-0.265006
0
LINE
8
BLACK
6
CONTINUOUS
10
2.10097
20
-0.265006
11
2.1002
21
-0.26063
0
LINE
8
BLACK
6
CONTINUOUS
10
2.1002
20
-0.26063
11
2.10097
21
-0.256254
0
LINE
8
BLACK
6
CONTINUOUS
10
2.10097
20
-0.256254
11
2.10319
21
-0.252405
0
LINE
8
BLACK
6
CONTINUOUS
10
2.10319
20
-0.252405
11
2.10659
21
-0.249549
0
LINE
8
BLACK
6
CONTINUOUS
10
2.10659
20
-0.249549
11
2.11077
21
-0.248029
0
LINE
8
BLACK
6
CONTINUOUS
10
2.11077
20
-0.248029
11
2.11521
21
-0.248029
0
LINE
8
BLACK
6
CONTINUOUS
10
2.11521
20
-0.248029
11
2.11939
21
-0.249549
0
LINE
8
BLACK
6
CONTINUOUS
10
2.15285
20
-0.249549
11
2.15626
21
-0.252405
0
LINE
8
BLACK
6
CONTINUOUS
10
2.15626
20
-0.252405
11
2.15848
21
-0.256254
0
LINE
8
BLACK
6
CONTINUOUS
10
2.15848
20
-0.256254
11
2.15925
21
-0.26063
0
LINE
8
BLACK
6
CONTINUOUS
10
2.15925
20
-0.26063
11
2.15848
21
-0.265006
0
LINE
8
BLACK
6
CONTINUOUS
10
2.15848
20
-0.265006
11
2.15626
21
-0.268855
0
LINE
8
BLACK
6
CONTINUOUS
10
2.15626
20
-0.268855
11
2.15285
21
-0.271711
0
LINE
8
BLACK
6
CONTINUOUS
10
2.15285
20
-0.271711
11
2.14868
21
-0.273231
0
LINE
8
BLACK
6
CONTINUOUS
10
2.14868
20
-0.273231
11
2.14423
21
-0.273231
0
LINE
8
BLACK
6
CONTINUOUS
10
2.14423
20
-0.273231
11
2.14006
21
-0.271711
0
LINE
8
BLACK
6
CONTINUOUS
10
2.14006
20
-0.271711
11
2.13665
21
-0.268855
0
LINE
8
BLACK
6
CONTINUOUS
10
2.13665
20
-0.268855
11
2.13443
21
-0.265006
0
LINE
8
BLACK
6
CONTINUOUS
10
2.13443
20
-0.265006
11
2.13366
21
-0.26063
0
LINE
8
BLACK
6
CONTINUOUS
10
2.13366
20
-0.26063
11
2.13443
21
-0.256254
0
LINE
8
BLACK
6
CONTINUOUS
10
2.13443
20
-0.256254
11
2.13665
21
-0.252405
0
LINE
8
BLACK
6
CONTINUOUS
10
2.13665
20
-0.252405
11
2.14006
21
-0.249549
0
LINE
8
BLACK
6
CONTINUOUS
10
2.14006
20
-0.249549
11
2.14423
21
-0.248029
0
LINE
8
BLACK
6
CONTINUOUS
10
2.14423
20
-0.248029
11
2.14868
21
-0.248029
0
LINE
8
BLACK
6
CONTINUOUS
10
2.14868
20
-0.248029
11
2.15285
21
-0.249549
0
LINE
8
BLACK
6
CONTINUOUS
10
2.18632
20
-0.249549
11
2.18972
21
-0.252405
0
LINE
8
BLACK
6
CONTINUOUS
10
2.18972
20
-0.252405
11
2.19194
21
-0.256254
0
LINE
8
BLACK
6
CONTINUOUS
10
2.19194
20
-0.256254
11
2.19272
21
-0.26063
0
LINE
8
BLACK
6
CONTINUOUS
10
2.19272
20
-0.26063
11
2.19194
21
-0.265006
0
LINE
8
BLACK
6
CONTINUOUS
10
2.19194
20
-0.265006
11
2.18972
21
-0.268855
0
LINE
8
BLACK
6
CONTINUOUS
10
2.18972
20
-0.268855
11
2.18632
21
-0.271711
0
LINE
8
BLACK
6
CONTINUOUS
10
2.18632
20
-0.271711
11
2.18214
21
-0.273231
0
LINE
8
BLACK
6
CONTINUOUS
10
2.18214
20
-0.273231
11
2.1777
21
-0.273231
0
LINE
8
BLACK
6
CONTINUOUS
10
2.1777
20
-0.273231
11
2.17352
21
-0.271711
0
LINE
8
BLACK
6
CONTINUOUS
10
2.17352
20
-0.271711
11
2.17012
21
-0.268855
0
LINE
8
BLACK
6
CONTINUOUS
10
2.17012
20
-0.268855
11
2.1679
21
-0.265006
0
LINE
8
BLACK
6
CONTINUOUS
10
2.1679
20
-0.265006
11
2.16713
21
-0.26063
0
LINE
8
BLACK
6
CONTINUOUS
10
2.16713
20
-0.26063
11
2.1679
21
-0.256254
0
LINE
8
BLACK
6
CONTINUOUS
10
2.1679
20
-0.256254
11
2.17012
21
-0.252405
0
LINE
8
BLACK
6
CONTINUOUS
10
2.17012
20
-0.252405
11
2.17352
21
-0.249549
0
LINE
8
BLACK
6
CONTINUOUS
10
2.17352
20
-0.249549
11
2.1777
21
-0.248029
0
LINE
8
BLACK
6
CONTINUOUS
10
2.1777
20
-0.248029
11
2.18214
21
-0.248029
0
LINE
8
BLACK
6
CONTINUOUS
10
2.18214
20
-0.248029
11
2.18632
21
-0.249549
0
LINE
8
BLACK
6
CONTINUOUS
10
2.21978
20
-0.249549
11
2.22319
21
-0.252405
0
LINE
8
BLACK
6
CONTINUOUS
10
2.22319
20
-0.252405
11
2.22541
21
-0.256254
0
LINE
8
BLACK
6
CONTINUOUS
10
2.22541
20
-0.256254
11
2.22618
21
-0.26063
0
LINE
8
BLACK
6
CONTINUOUS
10
2.22618
20
-0.26063
11
2.22541
21
-0.265006
0
LINE
8
BLACK
6
CONTINUOUS
10
2.22541
20
-0.265006
11
2.22319
21
-0.268855
0
LINE
8
BLACK
6
CONTINUOUS
10
2.22319
20
-0.268855
11
2.21978
21
-0.271711
0
LINE
8
BLACK
6
CONTINUOUS
10
2.21978
20
-0.271711
11
2.21561
21
-0.273231
0
LINE
8
BLACK
6
CONTINUOUS
10
2.21561
20
-0.273231
11
2.21116
21
-0.273231
0
LINE
8
BLACK
6
CONTINUOUS
10
2.21116
20
-0.273231
11
2.20699
21
-0.271711
0
LINE
8
BLACK
6
CONTINUOUS
10
2.20699
20
-0.271711
11
2.20358
21
-0.268855
0
LINE
8
BLACK
6
CONTINUOUS
10
2.20358
20
-0.268855
11
2.20136
21
-0.265006
0
LINE
8
BLACK
6
CONTINUOUS
10
2.20136
20
-0.265006
11
2.20059
21
-0.26063
0
LINE
8
BLACK
6
CONTINUOUS
10
2.20059
20
-0.26063
11
2.20136
21
-0.256254
0
LINE
8
BLACK
6
CONTINUOUS
10
2.20136
20
-0.256254
11
2.20358
21
-0.252405
0
LINE
8
BLACK
6
CONTINUOUS
10
2.20358
20
-0.252405
11
2.20699
21
-0.249549
0
LINE
8
BLACK
6
CONTINUOUS
10
2.20699
20
-0.249549
11
2.21116
21
-0.248029
0
LINE
8
BLACK
6
CONTINUOUS
10
2.21116
20
-0.248029
11
2.21561
21
-0.248029
0
LINE
8
BLACK
6
CONTINUOUS
10
2.21561
20
-0.248029
11
2.21978
21
-0.249549
0
LINE
8
BLACK
6
CONTINUOUS
10
2.25325
20
-0.249549
11
2.25665
21
-0.252405
0
LINE
8
BLACK
6
CONTINUOUS
10
2.25665
20
-0.252405
11
2.25887
21
-0.256254
0
LINE
8
BLACK
6
CONTINUOUS
10
2.25887
20
-0.256254
11
2.25965
21
-0.26063
0
LINE
8
BLACK
6
CONTINUOUS
10
2.25965
20
-0.26063
11
2.25887
21
-0.265006
0
LINE
8
BLACK
6
CONTINUOUS
10
2.25887
20
-0.265006
11
2.25665
21
-0.268855
0
LINE
8
BLACK
6
CONTINUOUS
10
2.25665
20
-0.268855
11
2.25325
21
-0.271711
0
LINE
8
BLACK
6
CONTINUOUS
10
2.25325
20
-0.271711
11
2.24907
21
-0.273231
0
LINE
8
BLACK
6
CONTINUOUS
10
2.24907
20
-0.273231
11
2.24463
21
-0.273231
0
LINE
8
BLACK
6
CONTINUOUS
10
2.24463
20
-0.273231
11
2.24045
21
-0.271711
0
LINE
8
BLACK
6
CONTINUOUS
10
2.24045
20
-0.271711
11
2.23705
21
-0.268855
0
LINE
8
BLACK
6
CONTINUOUS
10
2.23705
20
-0.268855
11
2.23483
21
-0.265006
0
LINE
8
BLACK
6
CONTINUOUS
10
2.23483
20
-0.265006
11
2.23406
21
-0.26063
0
LINE
8
BLACK
6
CONTINUOUS
10
2.23406
20
-0.26063
11
2.23483
21
-0.256254
0
LINE
8
BLACK
6
CONTINUOUS
10
2.23483
20
-0.256254
11
2.23705
21
-0.252405
0
LINE
8
BLACK
6
CONTINUOUS
10
2.23705
20
-0.252405
11
2.24045
21
-0.249549
0
LINE
8
BLACK
6
CONTINUOUS
10
2.24045
20
-0.249549
11
2.24463
21
-0.248029
0
LINE
8
BLACK
6
CONTINUOUS
10
2.24463
20
-0.248029
11
2.24907
21
-0.248029
0
LINE
8
BLACK
6
CONTINUOUS
10
2.24907
20
-0.248029
11
2.25325
21
-0.249549
0
LINE
8
BLACK
6
CONTINUOUS
10
2.28671
20
-0.249549
11
2.29012
21
-0.252405
0
LINE
8
BLACK
6
CONTINUOUS
10
2.29012
20
-0.252405
11
2.29234
21
-0.256254
0
LINE
8
BLACK
6
CONTINUOUS
10
2.29234
20
-0.256254
11
2.29311
21
-0.26063
0
LINE
8
BLACK
6
CONTINUOUS
10
2.29311
20
-0.26063
11
2.29234
21
-0.265006
0
LINE
8
BLACK
6
CONTINUOUS
10
2.29234
20
-0.265006
11
2.29012
21
-0.268855
0
LINE
8
BLACK
6
CONTINUOUS
10
2.29012
20
-0.268855
11
2.28671
21
-0.271711
0
LINE
8
BLACK
6
CONTINUOUS
10
2.28671
20
-0.271711
11
2.28254
21
-0.273231
0
LINE
8
BLACK
6
CONTINUOUS
10
2.28254
20
-0.273231
11
2.27809
21
-0.273231
0
LINE
8
BLACK
6
CONTINUOUS
10
2.27809
20
-0.273231
11
2.27392
21
-0.271711
0
LINE
8
BLACK
6
CONTINUOUS
10
2.27392
20
-0.271711
11
2.27051
21
-0.268855
0
LINE
8
BLACK
6
CONTINUOUS
10
2.27051
20
-0.268855
11
2.26829
21
-0.265006
0
LINE
8
BLACK
6
CONTINUOUS
10
2.26829
20
-0.265006
11
2.26752
21
-0.26063
0
LINE
8
BLACK
6
CONTINUOUS
10
2.26752
20
-0.26063
11
2.26829
21
-0.256254
0
LINE
8
BLACK
6
CONTINUOUS
10
2.26829
20
-0.256254
11
2.27051
21
-0.252405
0
LINE
8
BLACK
6
CONTINUOUS
10
2.27051
20
-0.252405
11
2.27392
21
-0.249549
0
LINE
8
BLACK
6
CONTINUOUS
10
2.27392
20
-0.249549
11
2.27809
21
-0.248029
0
LINE
8
BLACK
6
CONTINUOUS
10
2.27809
20
-0.248029
11
2.28254
21
-0.248029
0
LINE
8
BLACK
6
CONTINUOUS
10
2.28254
20
-0.248029
11
2.28671
21
-0.249549
0
LINE
8
BLACK
6
CONTINUOUS
10
2.32018
20
-0.249549
11
2.32358
21
-0.252405
0
LINE
8
BLACK
6
CONTINUOUS
10
2.32358
20
-0.252405
11
2.3258
21
-0.256254
0
LINE
8
BLACK
6
CONTINUOUS
10
2.3258
20
-0.256254
11
2.32657
21
-0.26063
0
LINE
8
BLACK
6
CONTINUOUS
10
2.32657
20
-0.26063
11
2.3258
21
-0.265006
0
LINE
8
BLACK
6
CONTINUOUS
10
2.3258
20
-0.265006
11
2.32358
21
-0.268855
0
LINE
8
BLACK
6
CONTINUOUS
10
2.32358
20
-0.268855
11
2.32018
21
-0.271711
0
LINE
8
BLACK
6
CONTINUOUS
10
2.32018
20
-0.271711
11
2.316
21
-0.273231
0
LINE
8
BLACK
6
CONTINUOUS
10
2.316
20
-0.273231
11
2.31156
21
-0.273231
0
LINE
8
BLACK
6
CONTINUOUS
10
2.31156
20
-0.273231
11
2.30738
21
-0.271711
0
LINE
8
BLACK
6
CONTINUOUS
10
2.30738
20
-0.271711
11
2.30398
21
-0.268855
0
LINE
8
BLACK
6
CONTINUOUS
10
2.30398
20
-0.268855
11
2.30176
21
-0.265006
0
LINE
8
BLACK
6
CONTINUOUS
10
2.30176
20
-0.265006
11
2.30098
21
-0.26063
0
LINE
8
BLACK
6
CONTINUOUS
10
2.30098
20
-0.26063
11
2.30176
21
-0.256254
0
LINE
8
BLACK
6
CONTINUOUS
10
2.30176
20
-0.256254
11
2.30398
21
-0.252405
0
LINE
8
BLACK
6
CONTINUOUS
10
2.30398
20
-0.252405
11
2.30738
21
-0.249549
0
LINE
8
BLACK
6
CONTINUOUS
10
2.30738
20
-0.249549
11
2.31156
21
-0.248029
0
LINE
8
BLACK
6
CONTINUOUS
10
2.31156
20
-0.248029
11
2.316
21
-0.248029
0
LINE
8
BLACK
6
CONTINUOUS
10
2.316
20
-0.248029
11
2.32018
21
-0.249549
0
LINE
8
BLACK
6
CONTINUOUS
10
2.35364
20
-0.249549
11
2.35705
21
-0.252405
0
LINE
8
BLACK
6
CONTINUOUS
10
2.35705
20
-0.252405
11
2.35927
21
-0.256254
0
LINE
8
BLACK
6
CONTINUOUS
10
2.35927
20
-0.256254
11
2.36004
21
-0.26063
0
LINE
8
BLACK
6
CONTINUOUS
10
2.36004
20
-0.26063
11
2.35927
21
-0.265006
0
LINE
8
BLACK
6
CONTINUOUS
10
2.35927
20
-0.265006
11
2.35705
21
-0.268855
0
LINE
8
BLACK
6
CONTINUOUS
10
2.35705
20
-0.268855
11
2.35364
21
-0.271711
0
LINE
8
BLACK
6
CONTINUOUS
10
2.35364
20
-0.271711
11
2.34947
21
-0.273231
0
LINE
8
BLACK
6
CONTINUOUS
10
2.34947
20
-0.273231
11
2.34502
21
-0.273231
0
LINE
8
BLACK
6
CONTINUOUS
10
2.34502
20
-0.273231
11
2.34085
21
-0.271711
0
LINE
8
BLACK
6
CONTINUOUS
10
2.34085
20
-0.271711
11
2.33744
21
-0.268855
0
LINE
8
BLACK
6
CONTINUOUS
10
2.33744
20
-0.268855
11
2.33522
21
-0.265006
0
LINE
8
BLACK
6
CONTINUOUS
10
2.33522
20
-0.265006
11
2.33445
21
-0.26063
0
LINE
8
BLACK
6
CONTINUOUS
10
2.33445
20
-0.26063
11
2.33522
21
-0.256254
0
LINE
8
BLACK
6
CONTINUOUS
10
2.33522
20
-0.256254
11
2.33744
21
-0.252405
0
LINE
8
BLACK
6
CONTINUOUS
10
2.33744
20
-0.252405
11
2.34085
21
-0.249549
0
LINE
8
BLACK
6
CONTINUOUS
10
2.34085
20
-0.249549
11
2.34502
21
-0.248029
0
LINE
8
BLACK
6
CONTINUOUS
10
2.34502
20
-0.248029
11
2.34947
21
-0.248029
0
LINE
8
BLACK
6
CONTINUOUS
10
2.34947
20
-0.248029
11
2.35364
21
-0.249549
0
LINE
8
BLACK
6
CONTINUOUS
10
0.956229
20
-0.106335
11
0.965454
21
-0.109502
0
LINE
8
BLACK
6
CONTINUOUS
10
0.965454
20
-0.109502
11
0.974032
21
-0.114144
0
LINE
8
BLACK
6
CONTINUOUS
10
0.974032
20
-0.114144
11
0.981729
21
-0.120134
0
LINE
8
BLACK
6
CONTINUOUS
10
0.981729
20
-0.120134
11
0.988335
21
-0.12731
0
LINE
8
BLACK
6
CONTINUOUS
10
0.988335
20
-0.12731
11
0.99367
21
-0.135476
0
LINE
8
BLACK
6
CONTINUOUS
10
0.99367
20
-0.135476
11
0.997588
21
-0.144408
0
LINE
8
BLACK
6
CONTINUOUS
10
0.997588
20
-0.144408
11
0.999982
21
-0.153863
0
LINE
8
BLACK
6
CONTINUOUS
10
0.999982
20
-0.153863
11
1.00079
21
-0.163583
0
LINE
8
BLACK
6
CONTINUOUS
10
1.00079
20
-0.163583
11
0.999982
21
-0.173303
0
LINE
8
BLACK
6
CONTINUOUS
10
0.999982
20
-0.173303
11
0.997588
21
-0.182758
0
LINE
8
BLACK
6
CONTINUOUS
10
0.997588
20
-0.182758
11
0.99367
21
-0.19169
0
LINE
8
BLACK
6
CONTINUOUS
10
0.99367
20
-0.19169
11
0.988335
21
-0.199855
0
LINE
8
BLACK
6
CONTINUOUS
10
0.988335
20
-0.199855
11
0.981729
21
-0.207031
0
LINE
8
BLACK
6
CONTINUOUS
10
0.981729
20
-0.207031
11
0.974032
21
-0.213022
0
LINE
8
BLACK
6
CONTINUOUS
10
0.974032
20
-0.213022
11
0.965454
21
-0.217664
0
LINE
8
BLACK
6
CONTINUOUS
10
0.965454
20
-0.217664
11
0.956229
21
-0.220831
0
LINE
8
BLACK
6
CONTINUOUS
10
0.956229
20
-0.220831
11
0.946609
21
-0.222436
0
LINE
8
BLACK
6
CONTINUOUS
10
0.946609
20
-0.222436
11
0.936856
21
-0.222436
0
LINE
8
BLACK
6
CONTINUOUS
10
0.936856
20
-0.222436
11
0.927235
21
-0.220831
0
LINE
8
BLACK
6
CONTINUOUS
10
0.927235
20
-0.220831
11
0.91801
21
-0.217664
0
LINE
8
BLACK
6
CONTINUOUS
10
0.91801
20
-0.217664
11
0.909432
21
-0.213022
0
LINE
8
BLACK
6
CONTINUOUS
10
0.909432
20
-0.213022
11
0.901735
21
-0.207031
0
LINE
8
BLACK
6
CONTINUOUS
10
0.901735
20
-0.207031
11
0.895129
21
-0.199855
0
LINE
8
BLACK
6
CONTINUOUS
10
0.895129
20
-0.199855
11
0.889795
21
-0.19169
0
LINE
8
BLACK
6
CONTINUOUS
10
0.889795
20
-0.19169
11
0.885877
21
-0.182758
0
LINE
8
BLACK
6
CONTINUOUS
10
0.885877
20
-0.182758
11
0.883483
21
-0.173303
0
LINE
8
BLACK
6
CONTINUOUS
10
0.883483
20
-0.173303
11
0.882677
21
-0.163583
0
LINE
8
BLACK
6
CONTINUOUS
10
0.882677
20
-0.163583
11
0.883483
21
-0.153863
0
LINE
8
BLACK
6
CONTINUOUS
10
0.883483
20
-0.153863
11
0.885877
21
-0.144408
0
LINE
8
BLACK
6
CONTINUOUS
10
0.885877
20
-0.144408
11
0.889795
21
-0.135476
0
LINE
8
BLACK
6
CONTINUOUS
10
0.889795
20
-0.135476
11
0.895129
21
-0.12731
0
LINE
8
BLACK
6
CONTINUOUS
10
0.895129
20
-0.12731
11
0.901735
21
-0.120134
0
LINE
8
BLACK
6
CONTINUOUS
10
0.901735
20
-0.120134
11
0.909432
21
-0.114144
0
LINE
8
BLACK
6
CONTINUOUS
10
0.909432
20
-0.114144
11
0.91801
21
-0.109502
0
LINE
8
BLACK
6
CONTINUOUS
10
0.91801
20
-0.109502
11
0.927235
21
-0.106335
0
LINE
8
BLACK
6
CONTINUOUS
10
0.927235
20
-0.106335
11
0.936856
21
-0.104729
0
LINE
8
BLACK
6
CONTINUOUS
10
0.936856
20
-0.104729
11
0.946609
21
-0.104729
0
LINE
8
BLACK
6
CONTINUOUS
10
0.946609
20
-0.104729
11
0.956229
21
-0.106335
0
LINE
8
BLACK
6
CONTINUOUS
10
2.06632
20
-0.109886
11
2.07089
21
-0.112527
0
LINE
8
BLACK
6
CONTINUOUS
10
2.07089
20
-0.112527
11
2.07448
21
-0.116398
0
LINE
8
BLACK
6
CONTINUOUS
10
2.07448
20
-0.116398
11
2.07677
21
-0.121156
0
LINE
8
BLACK
6
CONTINUOUS
10
2.07677
20
-0.121156
11
2.07756
21
-0.126378
0
LINE
8
BLACK
6
CONTINUOUS
10
2.07756
20
-0.126378
11
2.07756
21
-0.157874
0
LINE
8
BLACK
6
CONTINUOUS
10
2.07756
20
-0.157874
11
2.07736
21
-0.160515
0
LINE
8
BLACK
6
CONTINUOUS
10
2.07736
20
-0.160515
11
2.0758
21
-0.165561
0
LINE
8
BLACK
6
CONTINUOUS
10
2.0758
20
-0.165561
11
2.07283
21
-0.169924
0
LINE
8
BLACK
6
CONTINUOUS
10
2.07283
20
-0.169924
11
2.0687
21
-0.173217
0
LINE
8
BLACK
6
CONTINUOUS
10
2.0687
20
-0.173217
11
2.06378
21
-0.175146
0
LINE
8
BLACK
6
CONTINUOUS
10
2.06378
20
-0.175146
11
2.05852
21
-0.175541
0
LINE
8
BLACK
6
CONTINUOUS
10
2.05852
20
-0.175541
11
2.05337
21
-0.174366
0
LINE
8
BLACK
6
CONTINUOUS
10
2.05337
20
-0.174366
11
2.0488
21
-0.171725
0
LINE
8
BLACK
6
CONTINUOUS
10
2.0488
20
-0.171725
11
2.0452
21
-0.167854
0
LINE
8
BLACK
6
CONTINUOUS
10
2.0452
20
-0.167854
11
2.04291
21
-0.163096
0
LINE
8
BLACK
6
CONTINUOUS
10
2.04291
20
-0.163096
11
2.04213
21
-0.157874
0
LINE
8
BLACK
6
CONTINUOUS
10
2.04213
20
-0.157874
11
2.04213
21
-0.126378
0
LINE
8
BLACK
6
CONTINUOUS
10
2.04213
20
-0.126378
11
2.04232
21
-0.123737
0
LINE
8
BLACK
6
CONTINUOUS
10
2.04232
20
-0.123737
11
2.04388
21
-0.118691
0
LINE
8
BLACK
6
CONTINUOUS
10
2.04388
20
-0.118691
11
2.04686
21
-0.114328
0
LINE
8
BLACK
6
CONTINUOUS
10
2.04686
20
-0.114328
11
2.05098
21
-0.111035
0
LINE
8
BLACK
6
CONTINUOUS
10
2.05098
20
-0.111035
11
2.0559
21
-0.109106
0
LINE
8
BLACK
6
CONTINUOUS
10
2.0559
20
-0.109106
11
2.06117
21
-0.108711
0
LINE
8
BLACK
6
CONTINUOUS
10
2.06117
20
-0.108711
11
2.06632
21
-0.109886
0
LINE
8
BLACK
6
CONTINUOUS
10
2.40687
20
-0.109886
11
2.41144
21
-0.112527
0
LINE
8
BLACK
6
CONTINUOUS
10
2.41144
20
-0.112527
11
2.41503
21
-0.116398
0
LINE
8
BLACK
6
CONTINUOUS
10
2.41503
20
-0.116398
11
2.41732
21
-0.121156
0
LINE
8
BLACK
6
CONTINUOUS
10
2.41732
20
-0.121156
11
2.41811
21
-0.126378
0
LINE
8
BLACK
6
CONTINUOUS
10
2.41811
20
-0.126378
11
2.41811
21
-0.157874
0
LINE
8
BLACK
6
CONTINUOUS
10
2.41811
20
-0.157874
11
2.41791
21
-0.160515
0
LINE
8
BLACK
6
CONTINUOUS
10
2.41791
20
-0.160515
11
2.41636
21
-0.165561
0
LINE
8
BLACK
6
CONTINUOUS
10
2.41636
20
-0.165561
11
2.41338
21
-0.169924
0
LINE
8
BLACK
6
CONTINUOUS
10
2.41338
20
-0.169924
11
2.40925
21
-0.173217
0
LINE
8
BLACK
6
CONTINUOUS
10
2.40925
20
-0.173217
11
2.40434
21
-0.175146
0
LINE
8
BLACK
6
CONTINUOUS
10
2.40434
20
-0.175146
11
2.39907
21
-0.175541
0
LINE
8
BLACK
6
CONTINUOUS
10
2.39907
20
-0.175541
11
2.39392
21
-0.174366
0
LINE
8
BLACK
6
CONTINUOUS
10
2.39392
20
-0.174366
11
2.38935
21
-0.171725
0
LINE
8
BLACK
6
CONTINUOUS
10
2.38935
20
-0.171725
11
2.38576
21
-0.167854
0
LINE
8
BLACK
6
CONTINUOUS
10
2.38576
20
-0.167854
11
2.38346
21
-0.163096
0
LINE
8
BLACK
6
CONTINUOUS
10
2.38346
20
-0.163096
11
2.38268
21
-0.157874
0
LINE
8
BLACK
6
CONTINUOUS
10
2.38268
20
-0.157874
11
2.38268
21
-0.126378
0
LINE
8
BLACK
6
CONTINUOUS
10
2.38268
20
-0.126378
11
2.38288
21
-0.123737
0
LINE
8
BLACK
6
CONTINUOUS
10
2.38288
20
-0.123737
11
2.38443
21
-0.118691
0
LINE
8
BLACK
6
CONTINUOUS
10
2.38443
20
-0.118691
11
2.38741
21
-0.114328
0
LINE
8
BLACK
6
CONTINUOUS
10
2.38741
20
-0.114328
11
2.39154
21
-0.111035
0
LINE
8
BLACK
6
CONTINUOUS
10
2.39154
20
-0.111035
11
2.39645
21
-0.109106
0
LINE
8
BLACK
6
CONTINUOUS
10
2.39645
20
-0.109106
11
2.40172
21
-0.108711
0
LINE
8
BLACK
6
CONTINUOUS
10
2.40172
20
-0.108711
11
2.40687
21
-0.109886
0
LINE
8
BLACK
6
CONTINUOUS
10
1.27885
20
-0.0766379
11
1.28524
21
-0.0794834
0
LINE
8
BLACK
6
CONTINUOUS
10
1.28524
20
-0.0794834
11
1.2909
21
-0.0835956
0
LINE
8
BLACK
6
CONTINUOUS
10
1.2909
20
-0.0835956
11
1.29558
21
-0.0887946
0
LINE
8
BLACK
6
CONTINUOUS
10
1.29558
20
-0.0887946
11
1.29908
21
-0.0948533
0
LINE
8
BLACK
6
CONTINUOUS
10
1.29908
20
-0.0948533
11
1.30124
21
-0.101507
0
LINE
8
BLACK
6
CONTINUOUS
10
1.30124
20
-0.101507
11
1.30197
21
-0.108465
0
LINE
8
BLACK
6
CONTINUOUS
10
1.30197
20
-0.108465
11
1.30124
21
-0.115422
0
LINE
8
BLACK
6
CONTINUOUS
10
1.30124
20
-0.115422
11
1.29908
21
-0.122076
0
LINE
8
BLACK
6
CONTINUOUS
10
1.29908
20
-0.122076
11
1.29558
21
-0.128135
0
LINE
8
BLACK
6
CONTINUOUS
10
1.29558
20
-0.128135
11
1.2909
21
-0.133334
0
LINE
8
BLACK
6
CONTINUOUS
10
1.2909
20
-0.133334
11
1.28524
21
-0.137446
0
LINE
8
BLACK
6
CONTINUOUS
10
1.28524
20
-0.137446
11
1.27885
21
-0.140291
0
LINE
8
BLACK
6
CONTINUOUS
10
1.27885
20
-0.140291
11
1.272
21
-0.141746
0
LINE
8
BLACK
6
CONTINUOUS
10
1.272
20
-0.141746
11
1.26501
21
-0.141746
0
LINE
8
BLACK
6
CONTINUOUS
10
1.26501
20
-0.141746
11
1.25816
21
-0.140291
0
LINE
8
BLACK
6
CONTINUOUS
10
1.25816
20
-0.140291
11
1.25177
21
-0.137446
0
LINE
8
BLACK
6
CONTINUOUS
10
1.25177
20
-0.137446
11
1.24611
21
-0.133334
0
LINE
8
BLACK
6
CONTINUOUS
10
1.24611
20
-0.133334
11
1.24143
21
-0.128135
0
LINE
8
BLACK
6
CONTINUOUS
10
1.24143
20
-0.128135
11
1.23793
21
-0.122076
0
LINE
8
BLACK
6
CONTINUOUS
10
1.23793
20
-0.122076
11
1.23577
21
-0.115422
0
LINE
8
BLACK
6
CONTINUOUS
10
1.23577
20
-0.115422
11
1.23504
21
-0.108465
0
LINE
8
BLACK
6
CONTINUOUS
10
1.23504
20
-0.108465
11
1.23577
21
-0.101507
0
LINE
8
BLACK
6
CONTINUOUS
10
1.23577
20
-0.101507
11
1.23793
21
-0.0948533
0
LINE
8
BLACK
6
CONTINUOUS
10
1.23793
20
-0.0948533
11
1.24143
21
-0.0887946
0
LINE
8
BLACK
6
CONTINUOUS
10
1.24143
20
-0.0887946
11
1.24611
21
-0.0835956
0
LINE
8
BLACK
6
CONTINUOUS
10
1.24611
20
-0.0835956
11
1.25177
21
-0.0794834
0
LINE
8
BLACK
6
CONTINUOUS
10
1.25177
20
-0.0794834
11
1.25816
21
-0.0766379
0
LINE
8
BLACK
6
CONTINUOUS
10
1.25816
20
-0.0766379
11
1.26501
21
-0.0751833
0
LINE
8
BLACK
6
CONTINUOUS
10
1.26501
20
-0.0751833
11
1.272
21
-0.0751833
0
LINE
8
BLACK
6
CONTINUOUS
10
1.272
20
-0.0751833
11
1.27885
21
-0.0766379
0
LINE
8
BLACK
6
CONTINUOUS
10
1.37727
20
-0.0766379
11
1.38366
21
-0.0794834
0
LINE
8
BLACK
6
CONTINUOUS
10
1.38366
20
-0.0794834
11
1.38932
21
-0.0835956
0
LINE
8
BLACK
6
CONTINUOUS
10
1.38932
20
-0.0835956
11
1.394
21
-0.0887946
0
LINE
8
BLACK
6
CONTINUOUS
10
1.394
20
-0.0887946
11
1.3975
21
-0.0948533
0
LINE
8
BLACK
6
CONTINUOUS
10
1.3975
20
-0.0948533
11
1.39966
21
-0.101507
0
LINE
8
BLACK
6
CONTINUOUS
10
1.39966
20
-0.101507
11
1.40039
21
-0.108465
0
LINE
8
BLACK
6
CONTINUOUS
10
1.40039
20
-0.108465
11
1.39966
21
-0.115422
0
LINE
8
BLACK
6
CONTINUOUS
10
1.39966
20
-0.115422
11
1.3975
21
-0.122076
0
LINE
8
BLACK
6
CONTINUOUS
10
1.3975
20
-0.122076
11
1.394
21
-0.128135
0
LINE
8
BLACK
6
CONTINUOUS
10
1.394
20
-0.128135
11
1.38932
21
-0.133334
0
LINE
8
BLACK
6
CONTINUOUS
10
1.38932
20
-0.133334
11
1.38366
21
-0.137446
0
LINE
8
BLACK
6
CONTINUOUS
10
1.38366
20
-0.137446
11
1.37727
21
-0.140291
0
LINE
8
BLACK
6
CONTINUOUS
10
1.37727
20
-0.140291
11
1.37043
21
-0.141746
0
LINE
8
BLACK
6
CONTINUOUS
10
1.37043
20
-0.141746
11
1.36343
21
-0.141746
0
LINE
8
BLACK
6
CONTINUOUS
10
1.36343
20
-0.141746
11
1.35659
21
-0.140291
0
LINE
8
BLACK
6
CONTINUOUS
10
1.35659
20
-0.140291
11
1.3502
21
-0.137446
0
LINE
8
BLACK
6
CONTINUOUS
10
1.3502
20
-0.137446
11
1.34454
21
-0.133334
0
LINE
8
BLACK
6
CONTINUOUS
10
1.34454
20
-0.133334
11
1.33986
21
-0.128135
0
LINE
8
BLACK
6
CONTINUOUS
10
1.33986
20
-0.128135
11
1.33636
21
-0.122076
0
LINE
8
BLACK
6
CONTINUOUS
10
1.33636
20
-0.122076
11
1.3342
21
-0.115422
0
LINE
8
BLACK
6
CONTINUOUS
10
1.3342
20
-0.115422
11
1.33346
21
-0.108465
0
LINE
8
BLACK
6
CONTINUOUS
10
1.33346
20
-0.108465
11
1.3342
21
-0.101507
0
LINE
8
BLACK
6
CONTINUOUS
10
1.3342
20
-0.101507
11
1.33636
21
-0.0948533
0
LINE
8
BLACK
6
CONTINUOUS
10
1.33636
20
-0.0948533
11
1.33986
21
-0.0887946
0
LINE
8
BLACK
6
CONTINUOUS
10
1.33986
20
-0.0887946
11
1.34454
21
-0.0835956
0
LINE
8
BLACK
6
CONTINUOUS
10
1.34454
20
-0.0835956
11
1.3502
21
-0.0794834
0
LINE
8
BLACK
6
CONTINUOUS
10
1.3502
20
-0.0794834
11
1.35659
21
-0.0766379
0
LINE
8
BLACK
6
CONTINUOUS
10
1.35659
20
-0.0766379
11
1.36343
21
-0.0751833
0
LINE
8
BLACK
6
CONTINUOUS
10
1.36343
20
-0.0751833
11
1.37043
21
-0.0751833
0
LINE
8
BLACK
6
CONTINUOUS
10
1.37043
20
-0.0751833
11
1.37727
21
-0.0766379
0
LINE
8
BLACK
6
CONTINUOUS
10
0.964489
20
0.42362
11
0.971146
21
0.42129
0
LINE
8
BLACK
6
CONTINUOUS
10
0.971146
20
0.42129
11
0.977118
21
0.417538
0
LINE
8
BLACK
6
CONTINUOUS
10
0.977118
20
0.417538
11
0.982105
21
0.412551
0
LINE
8
BLACK
6
CONTINUOUS
10
0.982105
20
0.412551
11
0.985857
21
0.406579
0
LINE
8
BLACK
6
CONTINUOUS
10
0.985857
20
0.406579
11
0.988187
21
0.399922
0
LINE
8
BLACK
6
CONTINUOUS
10
0.988187
20
0.399922
11
0.988976
21
0.392913
0
LINE
8
BLACK
6
CONTINUOUS
10
0.988976
20
0.392913
11
0.988187
21
0.385905
0
LINE
8
BLACK
6
CONTINUOUS
10
0.988187
20
0.385905
11
0.985857
21
0.379248
0
LINE
8
BLACK
6
CONTINUOUS
10
0.985857
20
0.379248
11
0.982105
21
0.373276
0
LINE
8
BLACK
6
CONTINUOUS
10
0.982105
20
0.373276
11
0.977118
21
0.368289
0
LINE
8
BLACK
6
CONTINUOUS
10
0.977118
20
0.368289
11
0.971146
21
0.364536
0
LINE
8
BLACK
6
CONTINUOUS
10
0.971146
20
0.364536
11
0.964489
21
0.362207
0
LINE
8
BLACK
6
CONTINUOUS
10
0.964489
20
0.362207
11
0.95748
21
0.361417
0
LINE
8
BLACK
6
CONTINUOUS
10
0.95748
20
0.361417
11
0.950472
21
0.362207
0
LINE
8
BLACK
6
CONTINUOUS
10
0.950472
20
0.362207
11
0.943815
21
0.364536
0
LINE
8
BLACK
6
CONTINUOUS
10
0.943815
20
0.364536
11
0.937843
21
0.368289
0
LINE
8
BLACK
6
CONTINUOUS
10
0.937843
20
0.368289
11
0.932856
21
0.373276
0
LINE
8
BLACK
6
CONTINUOUS
10
0.932856
20
0.373276
11
0.929103
21
0.379248
0
LINE
8
BLACK
6
CONTINUOUS
10
0.929103
20
0.379248
11
0.926774
21
0.385905
0
LINE
8
BLACK
6
CONTINUOUS
10
0.926774
20
0.385905
11
0.925984
21
0.392913
0
LINE
8
BLACK
6
CONTINUOUS
10
0.925984
20
0.392913
11
0.926774
21
0.399922
0
LINE
8
BLACK
6
CONTINUOUS
10
0.926774
20
0.399922
11
0.929103
21
0.406579
0
LINE
8
BLACK
6
CONTINUOUS
10
0.929103
20
0.406579
11
0.932856
21
0.412551
0
LINE
8
BLACK
6
CONTINUOUS
10
0.932856
20
0.412551
11
0.937843
21
0.417538
0
LINE
8
BLACK
6
CONTINUOUS
10
0.937843
20
0.417538
11
0.943815
21
0.42129
0
LINE
8
BLACK
6
CONTINUOUS
10
0.943815
20
0.42129
11
0.950472
21
0.42362
0
LINE
8
BLACK
6
CONTINUOUS
10
0.950472
20
0.42362
11
0.95748
21
0.424409
0
LINE
8
BLACK
6
CONTINUOUS
10
0.95748
20
0.424409
11
0.964489
21
0.42362
0
LINE
8
BLACK
6
CONTINUOUS
10
1.23221
20
0.42362
11
1.23886
21
0.42129
0
LINE
8
BLACK
6
CONTINUOUS
10
1.23886
20
0.42129
11
1.24483
21
0.417538
0
LINE
8
BLACK
6
CONTINUOUS
10
1.24483
20
0.417538
11
1.24982
21
0.412551
0
LINE
8
BLACK
6
CONTINUOUS
10
1.24982
20
0.412551
11
1.25357
21
0.406579
0
LINE
8
BLACK
6
CONTINUOUS
10
1.25357
20
0.406579
11
1.2559
21
0.399922
0
LINE
8
BLACK
6
CONTINUOUS
10
1.2559
20
0.399922
11
1.25669
21
0.392913
0
LINE
8
BLACK
6
CONTINUOUS
10
1.25669
20
0.392913
11
1.2559
21
0.385905
0
LINE
8
BLACK
6
CONTINUOUS
10
1.2559
20
0.385905
11
1.25357
21
0.379248
0
LINE
8
BLACK
6
CONTINUOUS
10
1.25357
20
0.379248
11
1.24982
21
0.373276
0
LINE
8
BLACK
6
CONTINUOUS
10
1.24982
20
0.373276
11
1.24483
21
0.368289
0
LINE
8
BLACK
6
CONTINUOUS
10
1.24483
20
0.368289
11
1.23886
21
0.364536
0
LINE
8
BLACK
6
CONTINUOUS
10
1.23886
20
0.364536
11
1.23221
21
0.362207
0
LINE
8
BLACK
6
CONTINUOUS
10
1.23221
20
0.362207
11
1.2252
21
0.361417
0
LINE
8
BLACK
6
CONTINUOUS
10
1.2252
20
0.361417
11
1.21819
21
0.362207
0
LINE
8
BLACK
6
CONTINUOUS
10
1.21819
20
0.362207
11
1.21153
21
0.364536
0
LINE
8
BLACK
6
CONTINUOUS
10
1.21153
20
0.364536
11
1.20556
21
0.368289
0
LINE
8
BLACK
6
CONTINUOUS
10
1.20556
20
0.368289
11
1.20057
21
0.373276
0
LINE
8
BLACK
6
CONTINUOUS
10
1.20057
20
0.373276
11
1.19682
21
0.379248
0
LINE
8
BLACK
6
CONTINUOUS
10
1.19682
20
0.379248
11
1.19449
21
0.385905
0
LINE
8
BLACK
6
CONTINUOUS
10
1.19449
20
0.385905
11
1.1937
21
0.392913
0
LINE
8
BLACK
6
CONTINUOUS
10
1.1937
20
0.392913
11
1.19449
21
0.399922
0
LINE
8
BLACK
6
CONTINUOUS
10
1.19449
20
0.399922
11
1.19682
21
0.406579
0
LINE
8
BLACK
6
CONTINUOUS
10
1.19682
20
0.406579
11
1.20057
21
0.412551
0
LINE
8
BLACK
6
CONTINUOUS
10
1.20057
20
0.412551
11
1.20556
21
0.417538
0
LINE
8
BLACK
6
CONTINUOUS
10
1.20556
20
0.417538
11
1.21153
21
0.42129
0
LINE
8
BLACK
6
CONTINUOUS
10
1.21153
20
0.42129
11
1.21819
21
0.42362
0
LINE
8
BLACK
6
CONTINUOUS
10
1.21819
20
0.42362
11
1.2252
21
0.424409
0
LINE
8
BLACK
6
CONTINUOUS
10
1.2252
20
0.424409
11
1.23221
21
0.42362
0
LINE
8
BLACK
6
CONTINUOUS
10
0.964489
20
0.533856
11
0.971146
21
0.531527
0
LINE
8
BLACK
6
CONTINUOUS
10
0.971146
20
0.531527
11
0.977118
21
0.527774
0
LINE
8
BLACK
6
CONTINUOUS
10
0.977118
20
0.527774
11
0.982105
21
0.522787
0
LINE
8
BLACK
6
CONTINUOUS
10
0.982105
20
0.522787
11
0.985857
21
0.516815
0
LINE
8
BLACK
6
CONTINUOUS
10
0.985857
20
0.516815
11
0.988187
21
0.510158
0
LINE
8
BLACK
6
CONTINUOUS
10
0.988187
20
0.510158
11
0.988976
21
0.50315
0
LINE
8
BLACK
6
CONTINUOUS
10
0.988976
20
0.50315
11
0.988187
21
0.496141
0
LINE
8
BLACK
6
CONTINUOUS
10
0.988187
20
0.496141
11
0.985857
21
0.489484
0
LINE
8
BLACK
6
CONTINUOUS
10
0.985857
20
0.489484
11
0.982105
21
0.483512
0
LINE
8
BLACK
6
CONTINUOUS
10
0.982105
20
0.483512
11
0.977118
21
0.478525
0
LINE
8
BLACK
6
CONTINUOUS
10
0.977118
20
0.478525
11
0.971146
21
0.474773
0
LINE
8
BLACK
6
CONTINUOUS
10
0.971146
20
0.474773
11
0.964489
21
0.472443
0
LINE
8
BLACK
6
CONTINUOUS
10
0.964489
20
0.472443
11
0.95748
21
0.471654
0
LINE
8
BLACK
6
CONTINUOUS
10
0.95748
20
0.471654
11
0.950472
21
0.472443
0
LINE
8
BLACK
6
CONTINUOUS
10
0.950472
20
0.472443
11
0.943815
21
0.474773
0
LINE
8
BLACK
6
CONTINUOUS
10
0.943815
20
0.474773
11
0.937843
21
0.478525
0
LINE
8
BLACK
6
CONTINUOUS
10
0.937843
20
0.478525
11
0.932856
21
0.483512
0
LINE
8
BLACK
6
CONTINUOUS
10
0.932856
20
0.483512
11
0.929103
21
0.489484
0
LINE
8
BLACK
6
CONTINUOUS
10
0.929103
20
0.489484
11
0.926774
21
0.496141
0
LINE
8
BLACK
6
CONTINUOUS
10
0.926774
20
0.496141
11
0.925984
21
0.50315
0
LINE
8
BLACK
6
CONTINUOUS
10
0.925984
20
0.50315
11
0.926774
21
0.510158
0
LINE
8
BLACK
6
CONTINUOUS
10
0.926774
20
0.510158
11
0.929103
21
0.516815
0
LINE
8
BLACK
6
CONTINUOUS
10
0.929103
20
0.516815
11
0.932856
21
0.522787
0
LINE
8
BLACK
6
CONTINUOUS
10
0.932856
20
0.522787
11
0.937843
21
0.527774
0
LINE
8
BLACK
6
CONTINUOUS
10
0.937843
20
0.527774
11
0.943815
21
0.531527
0
LINE
8
BLACK
6
CONTINUOUS
10
0.943815
20
0.531527
11
0.950472
21
0.533856
0
LINE
8
BLACK
6
CONTINUOUS
10
0.950472
20
0.533856
11
0.95748
21
0.534646
0
LINE
8
BLACK
6
CONTINUOUS
10
0.95748
20
0.534646
11
0.964489
21
0.533856
0
LINE
8
BLACK
6
CONTINUOUS
10
1.07165
20
0.471654
11
1.00866
21
0.471654
0
LINE
8
BLACK
6
CONTINUOUS
10
1.00866
20
0.471654
11
1.00866
21
0.534646
0
LINE
8
BLACK
6
CONTINUOUS
10
1.00866
20
0.534646
11
1.07165
21
0.534646
0
LINE
8
BLACK
6
CONTINUOUS
10
1.07165
20
0.534646
11
1.07165
21
0.471654
0
LINE
8
BLACK
6
CONTINUOUS
10
1.14953
20
0.533856
11
1.15619
21
0.531527
0
LINE
8
BLACK
6
CONTINUOUS
10
1.15619
20
0.531527
11
1.16216
21
0.527774
0
LINE
8
BLACK
6
CONTINUOUS
10
1.16216
20
0.527774
11
1.16714
21
0.522787
0
LINE
8
BLACK
6
CONTINUOUS
10
1.16714
20
0.522787
11
1.1709
21
0.516815
0
LINE
8
BLACK
6
CONTINUOUS
10
1.1709
20
0.516815
11
1.17323
21
0.510158
0
LINE
8
BLACK
6
CONTINUOUS
10
1.17323
20
0.510158
11
1.17402
21
0.50315
0
LINE
8
BLACK
6
CONTINUOUS
10
1.17402
20
0.50315
11
1.17323
21
0.496141
0
LINE
8
BLACK
6
CONTINUOUS
10
1.17323
20
0.496141
11
1.1709
21
0.489484
0
LINE
8
BLACK
6
CONTINUOUS
10
1.1709
20
0.489484
11
1.16714
21
0.483512
0
LINE
8
BLACK
6
CONTINUOUS
10
1.16714
20
0.483512
11
1.16216
21
0.478525
0
LINE
8
BLACK
6
CONTINUOUS
10
1.16216
20
0.478525
11
1.15619
21
0.474773
0
LINE
8
BLACK
6
CONTINUOUS
10
1.15619
20
0.474773
11
1.14953
21
0.472443
0
LINE
8
BLACK
6
CONTINUOUS
10
1.14953
20
0.472443
11
1.14252
21
0.471654
0
LINE
8
BLACK
6
CONTINUOUS
10
1.14252
20
0.471654
11
1.13551
21
0.472443
0
LINE
8
BLACK
6
CONTINUOUS
10
1.13551
20
0.472443
11
1.12885
21
0.474773
0
LINE
8
BLACK
6
CONTINUOUS
10
1.12885
20
0.474773
11
1.12288
21
0.478525
0
LINE
8
BLACK
6
CONTINUOUS
10
1.12288
20
0.478525
11
1.1179
21
0.483512
0
LINE
8
BLACK
6
CONTINUOUS
10
1.1179
20
0.483512
11
1.11414
21
0.489484
0
LINE
8
BLACK
6
CONTINUOUS
10
1.11414
20
0.489484
11
1.11181
21
0.496141
0
LINE
8
BLACK
6
CONTINUOUS
10
1.11181
20
0.496141
11
1.11102
21
0.50315
0
LINE
8
BLACK
6
CONTINUOUS
10
1.11102
20
0.50315
11
1.11181
21
0.510158
0
LINE
8
BLACK
6
CONTINUOUS
10
1.11181
20
0.510158
11
1.11414
21
0.516815
0
LINE
8
BLACK
6
CONTINUOUS
10
1.11414
20
0.516815
11
1.1179
21
0.522787
0
LINE
8
BLACK
6
CONTINUOUS
10
1.1179
20
0.522787
11
1.12288
21
0.527774
0
LINE
8
BLACK
6
CONTINUOUS
10
1.12288
20
0.527774
11
1.12885
21
0.531527
0
LINE
8
BLACK
6
CONTINUOUS
10
1.12885
20
0.531527
11
1.13551
21
0.533856
0
LINE
8
BLACK
6
CONTINUOUS
10
1.13551
20
0.533856
11
1.14252
21
0.534646
0
LINE
8
BLACK
6
CONTINUOUS
10
1.14252
20
0.534646
11
1.14953
21
0.533856
0
LINE
8
BLACK
6
CONTINUOUS
10
1.23221
20
0.533856
11
1.23886
21
0.531527
0
LINE
8
BLACK
6
CONTINUOUS
10
1.23886
20
0.531527
11
1.24483
21
0.527774
0
LINE
8
BLACK
6
CONTINUOUS
10
1.24483
20
0.527774
11
1.24982
21
0.522787
0
LINE
8
BLACK
6
CONTINUOUS
10
1.24982
20
0.522787
11
1.25357
21
0.516815
0
LINE
8
BLACK
6
CONTINUOUS
10
1.25357
20
0.516815
11
1.2559
21
0.510158
0
LINE
8
BLACK
6
CONTINUOUS
10
1.2559
20
0.510158
11
1.25669
21
0.50315
0
LINE
8
BLACK
6
CONTINUOUS
10
1.25669
20
0.50315
11
1.2559
21
0.496141
0
LINE
8
BLACK
6
CONTINUOUS
10
1.2559
20
0.496141
11
1.25357
21
0.489484
0
LINE
8
BLACK
6
CONTINUOUS
10
1.25357
20
0.489484
11
1.24982
21
0.483512
0
LINE
8
BLACK
6
CONTINUOUS
10
1.24982
20
0.483512
11
1.24483
21
0.478525
0
LINE
8
BLACK
6
CONTINUOUS
10
1.24483
20
0.478525
11
1.23886
21
0.474773
0
LINE
8
BLACK
6
CONTINUOUS
10
1.23886
20
0.474773
11
1.23221
21
0.472443
0
LINE
8
BLACK
6
CONTINUOUS
10
1.23221
20
0.472443
11
1.2252
21
0.471654
0
LINE
8
BLACK
6
CONTINUOUS
10
1.2252
20
0.471654
11
1.21819
21
0.472443
0
LINE
8
BLACK
6
CONTINUOUS
10
1.21819
20
0.472443
11
1.21153
21
0.474773
0
LINE
8
BLACK
6
CONTINUOUS
10
1.21153
20
0.474773
11
1.20556
21
0.478525
0
LINE
8
BLACK
6
CONTINUOUS
10
1.20556
20
0.478525
11
1.20057
21
0.483512
0
LINE
8
BLACK
6
CONTINUOUS
10
1.20057
20
0.483512
11
1.19682
21
0.489484
0
LINE
8
BLACK
6
CONTINUOUS
10
1.19682
20
0.489484
11
1.19449
21
0.496141
0
LINE
8
BLACK
6
CONTINUOUS
10
1.19449
20
0.496141
11
1.1937
21
0.50315
0
LINE
8
BLACK
6
CONTINUOUS
10
1.1937
20
0.50315
11
1.19449
21
0.510158
0
LINE
8
BLACK
6
CONTINUOUS
10
1.19449
20
0.510158
11
1.19682
21
0.516815
0
LINE
8
BLACK
6
CONTINUOUS
10
1.19682
20
0.516815
11
1.20057
21
0.522787
0
LINE
8
BLACK
6
CONTINUOUS
10
1.20057
20
0.522787
11
1.20556
21
0.527774
0
LINE
8
BLACK
6
CONTINUOUS
10
1.20556
20
0.527774
11
1.21153
21
0.531527
0
LINE
8
BLACK
6
CONTINUOUS
10
1.21153
20
0.531527
11
1.21819
21
0.533856
0
LINE
8
BLACK
6
CONTINUOUS
10
1.21819
20
0.533856
11
1.2252
21
0.534646
0
LINE
8
BLACK
6
CONTINUOUS
10
1.2252
20
0.534646
11
1.23221
21
0.533856
0
LINE
8
BLACK
6
CONTINUOUS
10
0.827615
20
0.683798
11
0.835327
21
0.681801
0
LINE
8
BLACK
6
CONTINUOUS
10
0.835327
20
0.681801
11
0.842479
21
0.678293
0
LINE
8
BLACK
6
CONTINUOUS
10
0.842479
20
0.678293
11
0.848778
21
0.673417
0
LINE
8
BLACK
6
CONTINUOUS
10
0.848778
20
0.673417
11
0.853967
21
0.667373
0
LINE
8
BLACK
6
CONTINUOUS
10
0.853967
20
0.667373
11
0.857833
21
0.660408
0
LINE
8
BLACK
6
CONTINUOUS
10
0.857833
20
0.660408
11
0.860218
21
0.652807
0
LINE
8
BLACK
6
CONTINUOUS
10
0.860218
20
0.652807
11
0.861024
21
0.644882
0
LINE
8
BLACK
6
CONTINUOUS
10
0.861024
20
0.644882
11
0.861024
21
0.585827
0
LINE
8
BLACK
6
CONTINUOUS
10
0.861024
20
0.585827
11
0.860822
21
0.581844
0
LINE
8
BLACK
6
CONTINUOUS
10
0.860822
20
0.581844
11
0.859218
21
0.574041
0
LINE
8
BLACK
6
CONTINUOUS
10
0.859218
20
0.574041
11
0.856077
21
0.56672
0
LINE
8
BLACK
6
CONTINUOUS
10
0.856077
20
0.56672
11
0.851526
21
0.560182
0
LINE
8
BLACK
6
CONTINUOUS
10
0.851526
20
0.560182
11
0.845752
21
0.554694
0
LINE
8
BLACK
6
CONTINUOUS
10
0.845752
20
0.554694
11
0.838992
21
0.55048
0
LINE
8
BLACK
6
CONTINUOUS
10
0.838992
20
0.55048
11
0.831522
21
0.547714
0
LINE
8
BLACK
6
CONTINUOUS
10
0.831522
20
0.547714
11
0.823648
21
0.546507
0
LINE
8
BLACK
6
CONTINUOUS
10
0.823648
20
0.546507
11
0.815692
21
0.546911
0
LINE
8
BLACK
6
CONTINUOUS
10
0.815692
20
0.546911
11
0.80798
21
0.548907
0
LINE
8
BLACK
6
CONTINUOUS
10
0.80798
20
0.548907
11
0.800828
21
0.552416
0
LINE
8
BLACK
6
CONTINUOUS
10
0.800828
20
0.552416
11
0.794529
21
0.557292
0
LINE
8
BLACK
6
CONTINUOUS
10
0.794529
20
0.557292
11
0.78934
21
0.563336
0
LINE
8
BLACK
6
CONTINUOUS
10
0.78934
20
0.563336
11
0.785474
21
0.570301
0
LINE
8
BLACK
6
CONTINUOUS
10
0.785474
20
0.570301
11
0.783089
21
0.577902
0
LINE
8
BLACK
6
CONTINUOUS
10
0.783089
20
0.577902
11
0.782283
21
0.585827
0
LINE
8
BLACK
6
CONTINUOUS
10
0.782283
20
0.585827
11
0.782283
21
0.644882
0
LINE
8
BLACK
6
CONTINUOUS
10
0.782283
20
0.644882
11
0.782485
21
0.648865
0
LINE
8
BLACK
6
CONTINUOUS
10
0.782485
20
0.648865
11
0.784089
21
0.656668
0
LINE
8
BLACK
6
CONTINUOUS
10
0.784089
20
0.656668
11
0.78723
21
0.663988
0
LINE
8
BLACK
6
CONTINUOUS
10
0.78723
20
0.663988
11
0.791781
21
0.670526
0
LINE
8
BLACK
6
CONTINUOUS
10
0.791781
20
0.670526
11
0.797555
21
0.676015
0
LINE
8
BLACK
6
CONTINUOUS
10
0.797555
20
0.676015
11
0.804315
21
0.680229
0
LINE
8
BLACK
6
CONTINUOUS
10
0.804315
20
0.680229
11
0.811785
21
0.682995
0
LINE
8
BLACK
6
CONTINUOUS
10
0.811785
20
0.682995
11
0.819659
21
0.684201
0
LINE
8
BLACK
6
CONTINUOUS
10
0.819659
20
0.684201
11
0.827615
21
0.683798
0
LINE
8
BLACK
6
CONTINUOUS
10
1.36699
20
0.683798
11
1.3747
21
0.681801
0
LINE
8
BLACK
6
CONTINUOUS
10
1.3747
20
0.681801
11
1.38185
21
0.678293
0
LINE
8
BLACK
6
CONTINUOUS
10
1.38185
20
0.678293
11
1.38815
21
0.673417
0
LINE
8
BLACK
6
CONTINUOUS
10
1.38815
20
0.673417
11
1.39334
21
0.667373
0
LINE
8
BLACK
6
CONTINUOUS
10
1.39334
20
0.667373
11
1.3972
21
0.660408
0
LINE
8
BLACK
6
CONTINUOUS
10
1.3972
20
0.660408
11
1.39959
21
0.652807
0
LINE
8
BLACK
6
CONTINUOUS
10
1.39959
20
0.652807
11
1.40039
21
0.644882
0
LINE
8
BLACK
6
CONTINUOUS
10
1.40039
20
0.644882
11
1.40039
21
0.585827
0
LINE
8
BLACK
6
CONTINUOUS
10
1.40039
20
0.585827
11
1.40019
21
0.581844
0
LINE
8
BLACK
6
CONTINUOUS
10
1.40019
20
0.581844
11
1.39859
21
0.574041
0
LINE
8
BLACK
6
CONTINUOUS
10
1.39859
20
0.574041
11
1.39545
21
0.56672
0
LINE
8
BLACK
6
CONTINUOUS
10
1.39545
20
0.56672
11
1.3909
21
0.560182
0
LINE
8
BLACK
6
CONTINUOUS
10
1.3909
20
0.560182
11
1.38512
21
0.554694
0
LINE
8
BLACK
6
CONTINUOUS
10
1.38512
20
0.554694
11
1.37836
21
0.55048
0
LINE
8
BLACK
6
CONTINUOUS
10
1.37836
20
0.55048
11
1.37089
21
0.547714
0
LINE
8
BLACK
6
CONTINUOUS
10
1.37089
20
0.547714
11
1.36302
21
0.546507
0
LINE
8
BLACK
6
CONTINUOUS
10
1.36302
20
0.546507
11
1.35506
21
0.546911
0
LINE
8
BLACK
6
CONTINUOUS
10
1.35506
20
0.546911
11
1.34735
21
0.548907
0
LINE
8
BLACK
6
CONTINUOUS
10
1.34735
20
0.548907
11
1.3402
21
0.552416
0
LINE
8
BLACK
6
CONTINUOUS
10
1.3402
20
0.552416
11
1.3339
21
0.557292
0
LINE
8
BLACK
6
CONTINUOUS
10
1.3339
20
0.557292
11
1.32871
21
0.563336
0
LINE
8
BLACK
6
CONTINUOUS
10
1.32871
20
0.563336
11
1.32484
21
0.570301
0
LINE
8
BLACK
6
CONTINUOUS
10
1.32484
20
0.570301
11
1.32246
21
0.577902
0
LINE
8
BLACK
6
CONTINUOUS
10
1.32246
20
0.577902
11
1.32165
21
0.585827
0
LINE
8
BLACK
6
CONTINUOUS
10
1.32165
20
0.585827
11
1.32165
21
0.644882
0
LINE
8
BLACK
6
CONTINUOUS
10
1.32165
20
0.644882
11
1.32186
21
0.648865
0
LINE
8
BLACK
6
CONTINUOUS
10
1.32186
20
0.648865
11
1.32346
21
0.656668
0
LINE
8
BLACK
6
CONTINUOUS
10
1.32346
20
0.656668
11
1.3266
21
0.663988
0
LINE
8
BLACK
6
CONTINUOUS
10
1.3266
20
0.663988
11
1.33115
21
0.670526
0
LINE
8
BLACK
6
CONTINUOUS
10
1.33115
20
0.670526
11
1.33692
21
0.676015
0
LINE
8
BLACK
6
CONTINUOUS
10
1.33692
20
0.676015
11
1.34369
21
0.680229
0
LINE
8
BLACK
6
CONTINUOUS
10
1.34369
20
0.680229
11
1.35116
21
0.682995
0
LINE
8
BLACK
6
CONTINUOUS
10
1.35116
20
0.682995
11
1.35903
21
0.684201
0
LINE
8
BLACK
6
CONTINUOUS
10
1.35903
20
0.684201
11
1.36699
21
0.683798
0
LINE
8
BLACK
6
CONTINUOUS
10
1.13469
20
0.686018
11
1.14249
21
0.684415
0
LINE
8
BLACK
6
CONTINUOUS
10
1.14249
20
0.684415
11
1.14982
21
0.681274
0
LINE
8
BLACK
6
CONTINUOUS
10
1.14982
20
0.681274
11
1.15635
21
0.676723
0
LINE
8
BLACK
6
CONTINUOUS
10
1.15635
20
0.676723
11
1.16184
21
0.670949
0
LINE
8
BLACK
6
CONTINUOUS
10
1.16184
20
0.670949
11
1.16606
21
0.664189
0
LINE
8
BLACK
6
CONTINUOUS
10
1.16606
20
0.664189
11
1.16882
21
0.656719
0
LINE
8
BLACK
6
CONTINUOUS
10
1.16882
20
0.656719
11
1.17003
21
0.648844
0
LINE
8
BLACK
6
CONTINUOUS
10
1.17003
20
0.648844
11
1.16962
21
0.640889
0
LINE
8
BLACK
6
CONTINUOUS
10
1.16962
20
0.640889
11
1.16763
21
0.633177
0
LINE
8
BLACK
6
CONTINUOUS
10
1.16763
20
0.633177
11
1.16412
21
0.626025
0
LINE
8
BLACK
6
CONTINUOUS
10
1.16412
20
0.626025
11
1.15924
21
0.619726
0
LINE
8
BLACK
6
CONTINUOUS
10
1.15924
20
0.619726
11
1.1532
21
0.614537
0
LINE
8
BLACK
6
CONTINUOUS
10
1.1532
20
0.614537
11
1.14623
21
0.610671
0
LINE
8
BLACK
6
CONTINUOUS
10
1.14623
20
0.610671
11
1.13863
21
0.608286
0
LINE
8
BLACK
6
CONTINUOUS
10
1.13863
20
0.608286
11
1.13071
21
0.60748
0
LINE
8
BLACK
6
CONTINUOUS
10
1.13071
20
0.60748
11
1.05197
21
0.60748
0
LINE
8
BLACK
6
CONTINUOUS
10
1.05197
20
0.60748
11
1.04799
21
0.607682
0
LINE
8
BLACK
6
CONTINUOUS
10
1.04799
20
0.607682
11
1.04018
21
0.609286
0
LINE
8
BLACK
6
CONTINUOUS
10
1.04018
20
0.609286
11
1.03286
21
0.612427
0
LINE
8
BLACK
6
CONTINUOUS
10
1.03286
20
0.612427
11
1.02632
21
0.616978
0
LINE
8
BLACK
6
CONTINUOUS
10
1.02632
20
0.616978
11
1.02084
21
0.622752
0
LINE
8
BLACK
6
CONTINUOUS
10
1.02084
20
0.622752
11
1.01662
21
0.629512
0
LINE
8
BLACK
6
CONTINUOUS
10
1.01662
20
0.629512
11
1.01386
21
0.636982
0
LINE
8
BLACK
6
CONTINUOUS
10
1.01386
20
0.636982
11
1.01265
21
0.644856
0
LINE
8
BLACK
6
CONTINUOUS
10
1.01265
20
0.644856
11
1.01305
21
0.652812
0
LINE
8
BLACK
6
CONTINUOUS
10
1.01305
20
0.652812
11
1.01505
21
0.660524
0
LINE
8
BLACK
6
CONTINUOUS
10
1.01505
20
0.660524
11
1.01856
21
0.667676
0
LINE
8
BLACK
6
CONTINUOUS
10
1.01856
20
0.667676
11
1.02343
21
0.673975
0
LINE
8
BLACK
6
CONTINUOUS
10
1.02343
20
0.673975
11
1.02948
21
0.679164
0
LINE
8
BLACK
6
CONTINUOUS
10
1.02948
20
0.679164
11
1.03644
21
0.68303
0
LINE
8
BLACK
6
CONTINUOUS
10
1.03644
20
0.68303
11
1.04404
21
0.685415
0
LINE
8
BLACK
6
CONTINUOUS
10
1.04404
20
0.685415
11
1.05197
21
0.68622
0
LINE
8
BLACK
6
CONTINUOUS
10
1.05197
20
0.68622
11
1.13071
21
0.68622
0
LINE
8
BLACK
6
CONTINUOUS
10
1.13071
20
0.68622
11
1.13469
21
0.686018
  0
ENDSEC
  0
EOF
