  0
SECTION
  2
HEADER
  9
$ANGBASE
  50
0.0
  9
$ANGDIR
  70
1
  9
$MEASUREMENT
  70
0
  0
ENDSEC
  0
SECTION
  2
TABLES
  0
TABLE
  2
LTYPE
  70
4
  0
LTYPE
  5
40F
  2
CONTINUOUS
  70
0
  3
Solid line
  72
65
  73
0
  40
0.0
  0
LTYPE
  5
410
  2
DASHDOT
 70
0
  3
Dash Dot ____ _ ____ _
 72
65
 73
4
 40
2.0
 49
1.25
 49
-0.25
 49
0.25
 49
-0.25
  0
LTYPE
  5
411
  2
DASHED
 70
0
  3
Dashed __ __ __ __ __
 72
65
 73
2
 40
0.75
 49
0.5
 49
-0.25
  0
LTYPE
  5
43B
  2
DOTTED
 70
0
  3
Dotted .  .  .  .
 72
65
 73
2
 40
0.2
 49
0.0
 49
-0.2
  0
ENDTAB
  0
TABLE
  2
STYLE
  70
4
  0
STYLE
  2
KICAD
  70
0
  40
0
  41
1
  42
1
  50
0
  71
0
  3
isocp.shx
  0
STYLE
  2
KICADB
  70
0
  40
0
  41
1
  42
1
  50
0
  71
0
  3
isocp.shx
  0
STYLE
  2
KICADI
  70
0
  40
0
  41
1
  42
1
  50
15
  71
0
  3
isocp.shx
  0
STYLE
  2
KICADBI
  70
0
  40
0
  41
1
  42
1
  50
15
  71
0
  3
isocp.shx
  0
ENDTAB
  0
TABLE
  2
LAYER
  70
1
  0
LAYER
  2
BLACK
  70
0
  62
7
  6
CONTINUOUS
  0
ENDTAB
  0
ENDSEC
  0
SECTION
  2
ENTITIES
0
LINE
8
BLACK
6
CONTINUOUS
10
0.210169
20
-2.07087
11
0.224097
21
-2.07324
0
LINE
8
BLACK
6
CONTINUOUS
10
0.224097
20
-2.07324
11
0.237673
21
-2.07715
0
LINE
8
BLACK
6
CONTINUOUS
10
0.237673
20
-2.07715
11
0.250726
21
-2.08256
0
LINE
8
BLACK
6
CONTINUOUS
10
0.250726
20
-2.08256
11
0.263091
21
-2.08939
0
LINE
8
BLACK
6
CONTINUOUS
10
0.263091
20
-2.08939
11
0.274613
21
-2.09756
0
LINE
8
BLACK
6
CONTINUOUS
10
0.274613
20
-2.09756
11
0.285147
21
-2.10698
0
LINE
8
BLACK
6
CONTINUOUS
10
0.285147
20
-2.10698
11
0.294561
21
-2.11751
0
LINE
8
BLACK
6
CONTINUOUS
10
0.294561
20
-2.11751
11
0.302737
21
-2.12904
0
LINE
8
BLACK
6
CONTINUOUS
10
0.302737
20
-2.12904
11
0.309571
21
-2.1414
0
LINE
8
BLACK
6
CONTINUOUS
10
0.309571
20
-2.1414
11
0.314977
21
-2.15445
0
LINE
8
BLACK
6
CONTINUOUS
10
0.314977
20
-2.15445
11
0.318889
21
-2.16803
0
LINE
8
BLACK
6
CONTINUOUS
10
0.318889
20
-2.16803
11
0.321255
21
-2.18196
0
LINE
8
BLACK
6
CONTINUOUS
10
0.321255
20
-2.18196
11
0.322047
21
-2.19606
0
LINE
8
BLACK
6
CONTINUOUS
10
0.322047
20
-2.19606
11
0.321255
21
-2.21017
0
LINE
8
BLACK
6
CONTINUOUS
10
0.321255
20
-2.21017
11
0.318889
21
-2.2241
0
LINE
8
BLACK
6
CONTINUOUS
10
0.318889
20
-2.2241
11
0.314977
21
-2.23767
0
LINE
8
BLACK
6
CONTINUOUS
10
0.314977
20
-2.23767
11
0.309571
21
-2.25073
0
LINE
8
BLACK
6
CONTINUOUS
10
0.309571
20
-2.25073
11
0.302737
21
-2.26309
0
LINE
8
BLACK
6
CONTINUOUS
10
0.302737
20
-2.26309
11
0.294561
21
-2.27461
0
LINE
8
BLACK
6
CONTINUOUS
10
0.294561
20
-2.27461
11
0.285147
21
-2.28515
0
LINE
8
BLACK
6
CONTINUOUS
10
0.285147
20
-2.28515
11
0.274613
21
-2.29456
0
LINE
8
BLACK
6
CONTINUOUS
10
0.274613
20
-2.29456
11
0.263091
21
-2.30274
0
LINE
8
BLACK
6
CONTINUOUS
10
0.263091
20
-2.30274
11
0.250726
21
-2.30957
0
LINE
8
BLACK
6
CONTINUOUS
10
0.250726
20
-2.30957
11
0.237673
21
-2.31498
0
LINE
8
BLACK
6
CONTINUOUS
10
0.237673
20
-2.31498
11
0.224097
21
-2.31889
0
LINE
8
BLACK
6
CONTINUOUS
10
0.224097
20
-2.31889
11
0.210169
21
-2.32126
0
LINE
8
BLACK
6
CONTINUOUS
10
0.210169
20
-2.32126
11
0.196063
21
-2.32205
0
LINE
8
BLACK
6
CONTINUOUS
10
0.196063
20
-2.32205
11
0.181957
21
-2.32126
0
LINE
8
BLACK
6
CONTINUOUS
10
0.181957
20
-2.32126
11
0.168029
21
-2.31889
0
LINE
8
BLACK
6
CONTINUOUS
10
0.168029
20
-2.31889
11
0.154453
21
-2.31498
0
LINE
8
BLACK
6
CONTINUOUS
10
0.154453
20
-2.31498
11
0.1414
21
-2.30957
0
LINE
8
BLACK
6
CONTINUOUS
10
0.1414
20
-2.30957
11
0.129035
21
-2.30274
0
LINE
8
BLACK
6
CONTINUOUS
10
0.129035
20
-2.30274
11
0.117513
21
-2.29456
0
LINE
8
BLACK
6
CONTINUOUS
10
0.117513
20
-2.29456
11
0.106979
21
-2.28515
0
LINE
8
BLACK
6
CONTINUOUS
10
0.106979
20
-2.28515
11
0.0975645
21
-2.27461
0
LINE
8
BLACK
6
CONTINUOUS
10
0.0975645
20
-2.27461
11
0.0893891
21
-2.26309
0
LINE
8
BLACK
6
CONTINUOUS
10
0.0893891
20
-2.26309
11
0.0825551
21
-2.25073
0
LINE
8
BLACK
6
CONTINUOUS
10
0.0825551
20
-2.25073
11
0.0771485
21
-2.23767
0
LINE
8
BLACK
6
CONTINUOUS
10
0.0771485
20
-2.23767
11
0.0732374
21
-2.2241
0
LINE
8
BLACK
6
CONTINUOUS
10
0.0732374
20
-2.2241
11
0.0708709
21
-2.21017
0
LINE
8
BLACK
6
CONTINUOUS
10
0.0708709
20
-2.21017
11
0.0700787
21
-2.19606
0
LINE
8
BLACK
6
CONTINUOUS
10
0.0700787
20
-2.19606
11
0.0708709
21
-2.18196
0
LINE
8
BLACK
6
CONTINUOUS
10
0.0708709
20
-2.18196
11
0.0732374
21
-2.16803
0
LINE
8
BLACK
6
CONTINUOUS
10
0.0732374
20
-2.16803
11
0.0771485
21
-2.15445
0
LINE
8
BLACK
6
CONTINUOUS
10
0.0771485
20
-2.15445
11
0.0825551
21
-2.1414
0
LINE
8
BLACK
6
CONTINUOUS
10
0.0825551
20
-2.1414
11
0.0893891
21
-2.12904
0
LINE
8
BLACK
6
CONTINUOUS
10
0.0893891
20
-2.12904
11
0.0975645
21
-2.11751
0
LINE
8
BLACK
6
CONTINUOUS
10
0.0975645
20
-2.11751
11
0.106979
21
-2.10698
0
LINE
8
BLACK
6
CONTINUOUS
10
0.106979
20
-2.10698
11
0.117513
21
-2.09756
0
LINE
8
BLACK
6
CONTINUOUS
10
0.117513
20
-2.09756
11
0.129035
21
-2.08939
0
LINE
8
BLACK
6
CONTINUOUS
10
0.129035
20
-2.08939
11
0.1414
21
-2.08256
0
LINE
8
BLACK
6
CONTINUOUS
10
0.1414
20
-2.08256
11
0.154453
21
-2.07715
0
LINE
8
BLACK
6
CONTINUOUS
10
0.154453
20
-2.07715
11
0.168029
21
-2.07324
0
LINE
8
BLACK
6
CONTINUOUS
10
0.168029
20
-2.07324
11
0.181957
21
-2.07087
0
LINE
8
BLACK
6
CONTINUOUS
10
0.181957
20
-2.07087
11
0.196063
21
-2.07008
0
LINE
8
BLACK
6
CONTINUOUS
10
0.196063
20
-2.07008
11
0.210169
21
-2.07087
0
LINE
8
BLACK
6
CONTINUOUS
10
2.61017
20
-2.07087
11
2.6241
21
-2.07324
0
LINE
8
BLACK
6
CONTINUOUS
10
2.6241
20
-2.07324
11
2.63767
21
-2.07715
0
LINE
8
BLACK
6
CONTINUOUS
10
2.63767
20
-2.07715
11
2.65073
21
-2.08256
0
LINE
8
BLACK
6
CONTINUOUS
10
2.65073
20
-2.08256
11
2.66309
21
-2.08939
0
LINE
8
BLACK
6
CONTINUOUS
10
2.66309
20
-2.08939
11
2.67461
21
-2.09756
0
LINE
8
BLACK
6
CONTINUOUS
10
2.67461
20
-2.09756
11
2.68515
21
-2.10698
0
LINE
8
BLACK
6
CONTINUOUS
10
2.68515
20
-2.10698
11
2.69456
21
-2.11751
0
LINE
8
BLACK
6
CONTINUOUS
10
2.69456
20
-2.11751
11
2.70274
21
-2.12904
0
LINE
8
BLACK
6
CONTINUOUS
10
2.70274
20
-2.12904
11
2.70957
21
-2.1414
0
LINE
8
BLACK
6
CONTINUOUS
10
2.70957
20
-2.1414
11
2.71498
21
-2.15445
0
LINE
8
BLACK
6
CONTINUOUS
10
2.71498
20
-2.15445
11
2.71889
21
-2.16803
0
LINE
8
BLACK
6
CONTINUOUS
10
2.71889
20
-2.16803
11
2.72126
21
-2.18196
0
LINE
8
BLACK
6
CONTINUOUS
10
2.72126
20
-2.18196
11
2.72205
21
-2.19606
0
LINE
8
BLACK
6
CONTINUOUS
10
2.72205
20
-2.19606
11
2.72126
21
-2.21017
0
LINE
8
BLACK
6
CONTINUOUS
10
2.72126
20
-2.21017
11
2.71889
21
-2.2241
0
LINE
8
BLACK
6
CONTINUOUS
10
2.71889
20
-2.2241
11
2.71498
21
-2.23767
0
LINE
8
BLACK
6
CONTINUOUS
10
2.71498
20
-2.23767
11
2.70957
21
-2.25073
0
LINE
8
BLACK
6
CONTINUOUS
10
2.70957
20
-2.25073
11
2.70274
21
-2.26309
0
LINE
8
BLACK
6
CONTINUOUS
10
2.70274
20
-2.26309
11
2.69456
21
-2.27461
0
LINE
8
BLACK
6
CONTINUOUS
10
2.69456
20
-2.27461
11
2.68515
21
-2.28515
0
LINE
8
BLACK
6
CONTINUOUS
10
2.68515
20
-2.28515
11
2.67461
21
-2.29456
0
LINE
8
BLACK
6
CONTINUOUS
10
2.67461
20
-2.29456
11
2.66309
21
-2.30274
0
LINE
8
BLACK
6
CONTINUOUS
10
2.66309
20
-2.30274
11
2.65073
21
-2.30957
0
LINE
8
BLACK
6
CONTINUOUS
10
2.65073
20
-2.30957
11
2.63767
21
-2.31498
0
LINE
8
BLACK
6
CONTINUOUS
10
2.63767
20
-2.31498
11
2.6241
21
-2.31889
0
LINE
8
BLACK
6
CONTINUOUS
10
2.6241
20
-2.31889
11
2.61017
21
-2.32126
0
LINE
8
BLACK
6
CONTINUOUS
10
2.61017
20
-2.32126
11
2.59606
21
-2.32205
0
LINE
8
BLACK
6
CONTINUOUS
10
2.59606
20
-2.32205
11
2.58196
21
-2.32126
0
LINE
8
BLACK
6
CONTINUOUS
10
2.58196
20
-2.32126
11
2.56803
21
-2.31889
0
LINE
8
BLACK
6
CONTINUOUS
10
2.56803
20
-2.31889
11
2.55445
21
-2.31498
0
LINE
8
BLACK
6
CONTINUOUS
10
2.55445
20
-2.31498
11
2.5414
21
-2.30957
0
LINE
8
BLACK
6
CONTINUOUS
10
2.5414
20
-2.30957
11
2.52904
21
-2.30274
0
LINE
8
BLACK
6
CONTINUOUS
10
2.52904
20
-2.30274
11
2.51751
21
-2.29456
0
LINE
8
BLACK
6
CONTINUOUS
10
2.51751
20
-2.29456
11
2.50698
21
-2.28515
0
LINE
8
BLACK
6
CONTINUOUS
10
2.50698
20
-2.28515
11
2.49756
21
-2.27461
0
LINE
8
BLACK
6
CONTINUOUS
10
2.49756
20
-2.27461
11
2.48939
21
-2.26309
0
LINE
8
BLACK
6
CONTINUOUS
10
2.48939
20
-2.26309
11
2.48256
21
-2.25073
0
LINE
8
BLACK
6
CONTINUOUS
10
2.48256
20
-2.25073
11
2.47715
21
-2.23767
0
LINE
8
BLACK
6
CONTINUOUS
10
2.47715
20
-2.23767
11
2.47324
21
-2.2241
0
LINE
8
BLACK
6
CONTINUOUS
10
2.47324
20
-2.2241
11
2.47087
21
-2.21017
0
LINE
8
BLACK
6
CONTINUOUS
10
2.47087
20
-2.21017
11
2.47008
21
-2.19606
0
LINE
8
BLACK
6
CONTINUOUS
10
2.47008
20
-2.19606
11
2.47087
21
-2.18196
0
LINE
8
BLACK
6
CONTINUOUS
10
2.47087
20
-2.18196
11
2.47324
21
-2.16803
0
LINE
8
BLACK
6
CONTINUOUS
10
2.47324
20
-2.16803
11
2.47715
21
-2.15445
0
LINE
8
BLACK
6
CONTINUOUS
10
2.47715
20
-2.15445
11
2.48256
21
-2.1414
0
LINE
8
BLACK
6
CONTINUOUS
10
2.48256
20
-2.1414
11
2.48939
21
-2.12904
0
LINE
8
BLACK
6
CONTINUOUS
10
2.48939
20
-2.12904
11
2.49756
21
-2.11751
0
LINE
8
BLACK
6
CONTINUOUS
10
2.49756
20
-2.11751
11
2.50698
21
-2.10698
0
LINE
8
BLACK
6
CONTINUOUS
10
2.50698
20
-2.10698
11
2.51751
21
-2.09756
0
LINE
8
BLACK
6
CONTINUOUS
10
2.51751
20
-2.09756
11
2.52904
21
-2.08939
0
LINE
8
BLACK
6
CONTINUOUS
10
2.52904
20
-2.08939
11
2.5414
21
-2.08256
0
LINE
8
BLACK
6
CONTINUOUS
10
2.5414
20
-2.08256
11
2.55445
21
-2.07715
0
LINE
8
BLACK
6
CONTINUOUS
10
2.55445
20
-2.07715
11
2.56803
21
-2.07324
0
LINE
8
BLACK
6
CONTINUOUS
10
2.56803
20
-2.07324
11
2.58196
21
-2.07087
0
LINE
8
BLACK
6
CONTINUOUS
10
2.58196
20
-2.07087
11
2.59606
21
-2.07008
0
LINE
8
BLACK
6
CONTINUOUS
10
2.59606
20
-2.07008
11
2.61017
21
-2.07087
0
LINE
8
BLACK
6
CONTINUOUS
10
1.01539
20
-2.06463
11
1.01651
21
-2.06538
0
LINE
8
BLACK
6
CONTINUOUS
10
1.01651
20
-2.06538
11
1.01726
21
-2.0665
0
LINE
8
BLACK
6
CONTINUOUS
10
1.01726
20
-2.0665
11
1.01752
21
-2.06781
0
LINE
8
BLACK
6
CONTINUOUS
10
1.01752
20
-2.06781
11
1.01752
21
-2.29715
0
LINE
8
BLACK
6
CONTINUOUS
10
1.01752
20
-2.29715
11
1.01726
21
-2.29846
0
LINE
8
BLACK
6
CONTINUOUS
10
1.01726
20
-2.29846
11
1.01651
21
-2.29958
0
LINE
8
BLACK
6
CONTINUOUS
10
1.01651
20
-2.29958
11
1.01539
21
-2.30033
0
LINE
8
BLACK
6
CONTINUOUS
10
1.01539
20
-2.30033
11
1.01407
21
-2.30059
0
LINE
8
BLACK
6
CONTINUOUS
10
1.01407
20
-2.30059
11
1.00719
21
-2.30059
0
LINE
8
BLACK
6
CONTINUOUS
10
1.00719
20
-2.30059
11
1.00587
21
-2.30033
0
LINE
8
BLACK
6
CONTINUOUS
10
1.00587
20
-2.30033
11
1.00475
21
-2.29958
0
LINE
8
BLACK
6
CONTINUOUS
10
1.00475
20
-2.29958
11
1.004
21
-2.29846
0
LINE
8
BLACK
6
CONTINUOUS
10
1.004
20
-2.29846
11
1.00374
21
-2.29715
0
LINE
8
BLACK
6
CONTINUOUS
10
1.00374
20
-2.29715
11
1.00374
21
-2.06781
0
LINE
8
BLACK
6
CONTINUOUS
10
1.00374
20
-2.06781
11
1.004
21
-2.0665
0
LINE
8
BLACK
6
CONTINUOUS
10
1.004
20
-2.0665
11
1.00475
21
-2.06538
0
LINE
8
BLACK
6
CONTINUOUS
10
1.00475
20
-2.06538
11
1.00587
21
-2.06463
0
LINE
8
BLACK
6
CONTINUOUS
10
1.00587
20
-2.06463
11
1.00719
21
-2.06437
0
LINE
8
BLACK
6
CONTINUOUS
10
1.00719
20
-2.06437
11
1.01407
21
-2.06437
0
LINE
8
BLACK
6
CONTINUOUS
10
1.01407
20
-2.06437
11
1.01539
21
-2.06463
0
LINE
8
BLACK
6
CONTINUOUS
10
1.04295
20
-2.06463
11
1.04407
21
-2.06538
0
LINE
8
BLACK
6
CONTINUOUS
10
1.04407
20
-2.06538
11
1.04482
21
-2.0665
0
LINE
8
BLACK
6
CONTINUOUS
10
1.04482
20
-2.0665
11
1.04508
21
-2.06781
0
LINE
8
BLACK
6
CONTINUOUS
10
1.04508
20
-2.06781
11
1.04508
21
-2.29715
0
LINE
8
BLACK
6
CONTINUOUS
10
1.04508
20
-2.29715
11
1.04482
21
-2.29846
0
LINE
8
BLACK
6
CONTINUOUS
10
1.04482
20
-2.29846
11
1.04407
21
-2.29958
0
LINE
8
BLACK
6
CONTINUOUS
10
1.04407
20
-2.29958
11
1.04295
21
-2.30033
0
LINE
8
BLACK
6
CONTINUOUS
10
1.04295
20
-2.30033
11
1.04163
21
-2.30059
0
LINE
8
BLACK
6
CONTINUOUS
10
1.04163
20
-2.30059
11
1.03474
21
-2.30059
0
LINE
8
BLACK
6
CONTINUOUS
10
1.03474
20
-2.30059
11
1.03343
21
-2.30033
0
LINE
8
BLACK
6
CONTINUOUS
10
1.03343
20
-2.30033
11
1.03231
21
-2.29958
0
LINE
8
BLACK
6
CONTINUOUS
10
1.03231
20
-2.29958
11
1.03156
21
-2.29846
0
LINE
8
BLACK
6
CONTINUOUS
10
1.03156
20
-2.29846
11
1.0313
21
-2.29715
0
LINE
8
BLACK
6
CONTINUOUS
10
1.0313
20
-2.29715
11
1.0313
21
-2.06781
0
LINE
8
BLACK
6
CONTINUOUS
10
1.0313
20
-2.06781
11
1.03156
21
-2.0665
0
LINE
8
BLACK
6
CONTINUOUS
10
1.03156
20
-2.0665
11
1.03231
21
-2.06538
0
LINE
8
BLACK
6
CONTINUOUS
10
1.03231
20
-2.06538
11
1.03343
21
-2.06463
0
LINE
8
BLACK
6
CONTINUOUS
10
1.03343
20
-2.06463
11
1.03474
21
-2.06437
0
LINE
8
BLACK
6
CONTINUOUS
10
1.03474
20
-2.06437
11
1.04163
21
-2.06437
0
LINE
8
BLACK
6
CONTINUOUS
10
1.04163
20
-2.06437
11
1.04295
21
-2.06463
0
LINE
8
BLACK
6
CONTINUOUS
10
1.07051
20
-2.06463
11
1.07163
21
-2.06538
0
LINE
8
BLACK
6
CONTINUOUS
10
1.07163
20
-2.06538
11
1.07238
21
-2.0665
0
LINE
8
BLACK
6
CONTINUOUS
10
1.07238
20
-2.0665
11
1.07264
21
-2.06781
0
LINE
8
BLACK
6
CONTINUOUS
10
1.07264
20
-2.06781
11
1.07264
21
-2.29715
0
LINE
8
BLACK
6
CONTINUOUS
10
1.07264
20
-2.29715
11
1.07238
21
-2.29846
0
LINE
8
BLACK
6
CONTINUOUS
10
1.07238
20
-2.29846
11
1.07163
21
-2.29958
0
LINE
8
BLACK
6
CONTINUOUS
10
1.07163
20
-2.29958
11
1.07051
21
-2.30033
0
LINE
8
BLACK
6
CONTINUOUS
10
1.07051
20
-2.30033
11
1.06919
21
-2.30059
0
LINE
8
BLACK
6
CONTINUOUS
10
1.06919
20
-2.30059
11
1.0623
21
-2.30059
0
LINE
8
BLACK
6
CONTINUOUS
10
1.0623
20
-2.30059
11
1.06098
21
-2.30033
0
LINE
8
BLACK
6
CONTINUOUS
10
1.06098
20
-2.30033
11
1.05987
21
-2.29958
0
LINE
8
BLACK
6
CONTINUOUS
10
1.05987
20
-2.29958
11
1.05912
21
-2.29846
0
LINE
8
BLACK
6
CONTINUOUS
10
1.05912
20
-2.29846
11
1.05886
21
-2.29715
0
LINE
8
BLACK
6
CONTINUOUS
10
1.05886
20
-2.29715
11
1.05886
21
-2.06781
0
LINE
8
BLACK
6
CONTINUOUS
10
1.05886
20
-2.06781
11
1.05912
21
-2.0665
0
LINE
8
BLACK
6
CONTINUOUS
10
1.05912
20
-2.0665
11
1.05987
21
-2.06538
0
LINE
8
BLACK
6
CONTINUOUS
10
1.05987
20
-2.06538
11
1.06098
21
-2.06463
0
LINE
8
BLACK
6
CONTINUOUS
10
1.06098
20
-2.06463
11
1.0623
21
-2.06437
0
LINE
8
BLACK
6
CONTINUOUS
10
1.0623
20
-2.06437
11
1.06919
21
-2.06437
0
LINE
8
BLACK
6
CONTINUOUS
10
1.06919
20
-2.06437
11
1.07051
21
-2.06463
0
LINE
8
BLACK
6
CONTINUOUS
10
1.09807
20
-2.06463
11
1.09919
21
-2.06538
0
LINE
8
BLACK
6
CONTINUOUS
10
1.09919
20
-2.06538
11
1.09993
21
-2.0665
0
LINE
8
BLACK
6
CONTINUOUS
10
1.09993
20
-2.0665
11
1.1002
21
-2.06781
0
LINE
8
BLACK
6
CONTINUOUS
10
1.1002
20
-2.06781
11
1.1002
21
-2.29715
0
LINE
8
BLACK
6
CONTINUOUS
10
1.1002
20
-2.29715
11
1.09993
21
-2.29846
0
LINE
8
BLACK
6
CONTINUOUS
10
1.09993
20
-2.29846
11
1.09919
21
-2.29958
0
LINE
8
BLACK
6
CONTINUOUS
10
1.09919
20
-2.29958
11
1.09807
21
-2.30033
0
LINE
8
BLACK
6
CONTINUOUS
10
1.09807
20
-2.30033
11
1.09675
21
-2.30059
0
LINE
8
BLACK
6
CONTINUOUS
10
1.09675
20
-2.30059
11
1.08986
21
-2.30059
0
LINE
8
BLACK
6
CONTINUOUS
10
1.08986
20
-2.30059
11
1.08854
21
-2.30033
0
LINE
8
BLACK
6
CONTINUOUS
10
1.08854
20
-2.30033
11
1.08743
21
-2.29958
0
LINE
8
BLACK
6
CONTINUOUS
10
1.08743
20
-2.29958
11
1.08668
21
-2.29846
0
LINE
8
BLACK
6
CONTINUOUS
10
1.08668
20
-2.29846
11
1.08642
21
-2.29715
0
LINE
8
BLACK
6
CONTINUOUS
10
1.08642
20
-2.29715
11
1.08642
21
-2.06781
0
LINE
8
BLACK
6
CONTINUOUS
10
1.08642
20
-2.06781
11
1.08668
21
-2.0665
0
LINE
8
BLACK
6
CONTINUOUS
10
1.08668
20
-2.0665
11
1.08743
21
-2.06538
0
LINE
8
BLACK
6
CONTINUOUS
10
1.08743
20
-2.06538
11
1.08854
21
-2.06463
0
LINE
8
BLACK
6
CONTINUOUS
10
1.08854
20
-2.06463
11
1.08986
21
-2.06437
0
LINE
8
BLACK
6
CONTINUOUS
10
1.08986
20
-2.06437
11
1.09675
21
-2.06437
0
LINE
8
BLACK
6
CONTINUOUS
10
1.09675
20
-2.06437
11
1.09807
21
-2.06463
0
LINE
8
BLACK
6
CONTINUOUS
10
1.12563
20
-2.06463
11
1.12675
21
-2.06538
0
LINE
8
BLACK
6
CONTINUOUS
10
1.12675
20
-2.06538
11
1.12749
21
-2.0665
0
LINE
8
BLACK
6
CONTINUOUS
10
1.12749
20
-2.0665
11
1.12776
21
-2.06781
0
LINE
8
BLACK
6
CONTINUOUS
10
1.12776
20
-2.06781
11
1.12776
21
-2.29715
0
LINE
8
BLACK
6
CONTINUOUS
10
1.12776
20
-2.29715
11
1.12749
21
-2.29846
0
LINE
8
BLACK
6
CONTINUOUS
10
1.12749
20
-2.29846
11
1.12675
21
-2.29958
0
LINE
8
BLACK
6
CONTINUOUS
10
1.12675
20
-2.29958
11
1.12563
21
-2.30033
0
LINE
8
BLACK
6
CONTINUOUS
10
1.12563
20
-2.30033
11
1.12431
21
-2.30059
0
LINE
8
BLACK
6
CONTINUOUS
10
1.12431
20
-2.30059
11
1.11742
21
-2.30059
0
LINE
8
BLACK
6
CONTINUOUS
10
1.11742
20
-2.30059
11
1.1161
21
-2.30033
0
LINE
8
BLACK
6
CONTINUOUS
10
1.1161
20
-2.30033
11
1.11499
21
-2.29958
0
LINE
8
BLACK
6
CONTINUOUS
10
1.11499
20
-2.29958
11
1.11424
21
-2.29846
0
LINE
8
BLACK
6
CONTINUOUS
10
1.11424
20
-2.29846
11
1.11398
21
-2.29715
0
LINE
8
BLACK
6
CONTINUOUS
10
1.11398
20
-2.29715
11
1.11398
21
-2.06781
0
LINE
8
BLACK
6
CONTINUOUS
10
1.11398
20
-2.06781
11
1.11424
21
-2.0665
0
LINE
8
BLACK
6
CONTINUOUS
10
1.11424
20
-2.0665
11
1.11499
21
-2.06538
0
LINE
8
BLACK
6
CONTINUOUS
10
1.11499
20
-2.06538
11
1.1161
21
-2.06463
0
LINE
8
BLACK
6
CONTINUOUS
10
1.1161
20
-2.06463
11
1.11742
21
-2.06437
0
LINE
8
BLACK
6
CONTINUOUS
10
1.11742
20
-2.06437
11
1.12431
21
-2.06437
0
LINE
8
BLACK
6
CONTINUOUS
10
1.12431
20
-2.06437
11
1.12563
21
-2.06463
0
LINE
8
BLACK
6
CONTINUOUS
10
1.15319
20
-2.06463
11
1.15431
21
-2.06538
0
LINE
8
BLACK
6
CONTINUOUS
10
1.15431
20
-2.06538
11
1.15505
21
-2.0665
0
LINE
8
BLACK
6
CONTINUOUS
10
1.15505
20
-2.0665
11
1.15531
21
-2.06781
0
LINE
8
BLACK
6
CONTINUOUS
10
1.15531
20
-2.06781
11
1.15531
21
-2.29715
0
LINE
8
BLACK
6
CONTINUOUS
10
1.15531
20
-2.29715
11
1.15505
21
-2.29846
0
LINE
8
BLACK
6
CONTINUOUS
10
1.15505
20
-2.29846
11
1.15431
21
-2.29958
0
LINE
8
BLACK
6
CONTINUOUS
10
1.15431
20
-2.29958
11
1.15319
21
-2.30033
0
LINE
8
BLACK
6
CONTINUOUS
10
1.15319
20
-2.30033
11
1.15187
21
-2.30059
0
LINE
8
BLACK
6
CONTINUOUS
10
1.15187
20
-2.30059
11
1.14498
21
-2.30059
0
LINE
8
BLACK
6
CONTINUOUS
10
1.14498
20
-2.30059
11
1.14366
21
-2.30033
0
LINE
8
BLACK
6
CONTINUOUS
10
1.14366
20
-2.30033
11
1.14254
21
-2.29958
0
LINE
8
BLACK
6
CONTINUOUS
10
1.14254
20
-2.29958
11
1.1418
21
-2.29846
0
LINE
8
BLACK
6
CONTINUOUS
10
1.1418
20
-2.29846
11
1.14154
21
-2.29715
0
LINE
8
BLACK
6
CONTINUOUS
10
1.14154
20
-2.29715
11
1.14154
21
-2.06781
0
LINE
8
BLACK
6
CONTINUOUS
10
1.14154
20
-2.06781
11
1.1418
21
-2.0665
0
LINE
8
BLACK
6
CONTINUOUS
10
1.1418
20
-2.0665
11
1.14254
21
-2.06538
0
LINE
8
BLACK
6
CONTINUOUS
10
1.14254
20
-2.06538
11
1.14366
21
-2.06463
0
LINE
8
BLACK
6
CONTINUOUS
10
1.14366
20
-2.06463
11
1.14498
21
-2.06437
0
LINE
8
BLACK
6
CONTINUOUS
10
1.14498
20
-2.06437
11
1.15187
21
-2.06437
0
LINE
8
BLACK
6
CONTINUOUS
10
1.15187
20
-2.06437
11
1.15319
21
-2.06463
0
LINE
8
BLACK
6
CONTINUOUS
10
1.18075
20
-2.06463
11
1.18187
21
-2.06538
0
LINE
8
BLACK
6
CONTINUOUS
10
1.18187
20
-2.06538
11
1.18261
21
-2.0665
0
LINE
8
BLACK
6
CONTINUOUS
10
1.18261
20
-2.0665
11
1.18287
21
-2.06781
0
LINE
8
BLACK
6
CONTINUOUS
10
1.18287
20
-2.06781
11
1.18287
21
-2.29715
0
LINE
8
BLACK
6
CONTINUOUS
10
1.18287
20
-2.29715
11
1.18261
21
-2.29846
0
LINE
8
BLACK
6
CONTINUOUS
10
1.18261
20
-2.29846
11
1.18187
21
-2.29958
0
LINE
8
BLACK
6
CONTINUOUS
10
1.18187
20
-2.29958
11
1.18075
21
-2.30033
0
LINE
8
BLACK
6
CONTINUOUS
10
1.18075
20
-2.30033
11
1.17943
21
-2.30059
0
LINE
8
BLACK
6
CONTINUOUS
10
1.17943
20
-2.30059
11
1.17254
21
-2.30059
0
LINE
8
BLACK
6
CONTINUOUS
10
1.17254
20
-2.30059
11
1.17122
21
-2.30033
0
LINE
8
BLACK
6
CONTINUOUS
10
1.17122
20
-2.30033
11
1.1701
21
-2.29958
0
LINE
8
BLACK
6
CONTINUOUS
10
1.1701
20
-2.29958
11
1.16936
21
-2.29846
0
LINE
8
BLACK
6
CONTINUOUS
10
1.16936
20
-2.29846
11
1.16909
21
-2.29715
0
LINE
8
BLACK
6
CONTINUOUS
10
1.16909
20
-2.29715
11
1.16909
21
-2.06781
0
LINE
8
BLACK
6
CONTINUOUS
10
1.16909
20
-2.06781
11
1.16936
21
-2.0665
0
LINE
8
BLACK
6
CONTINUOUS
10
1.16936
20
-2.0665
11
1.1701
21
-2.06538
0
LINE
8
BLACK
6
CONTINUOUS
10
1.1701
20
-2.06538
11
1.17122
21
-2.06463
0
LINE
8
BLACK
6
CONTINUOUS
10
1.17122
20
-2.06463
11
1.17254
21
-2.06437
0
LINE
8
BLACK
6
CONTINUOUS
10
1.17254
20
-2.06437
11
1.17943
21
-2.06437
0
LINE
8
BLACK
6
CONTINUOUS
10
1.17943
20
-2.06437
11
1.18075
21
-2.06463
0
LINE
8
BLACK
6
CONTINUOUS
10
1.20831
20
-2.06463
11
1.20942
21
-2.06538
0
LINE
8
BLACK
6
CONTINUOUS
10
1.20942
20
-2.06538
11
1.21017
21
-2.0665
0
LINE
8
BLACK
6
CONTINUOUS
10
1.21017
20
-2.0665
11
1.21043
21
-2.06781
0
LINE
8
BLACK
6
CONTINUOUS
10
1.21043
20
-2.06781
11
1.21043
21
-2.29715
0
LINE
8
BLACK
6
CONTINUOUS
10
1.21043
20
-2.29715
11
1.21017
21
-2.29846
0
LINE
8
BLACK
6
CONTINUOUS
10
1.21017
20
-2.29846
11
1.20942
21
-2.29958
0
LINE
8
BLACK
6
CONTINUOUS
10
1.20942
20
-2.29958
11
1.20831
21
-2.30033
0
LINE
8
BLACK
6
CONTINUOUS
10
1.20831
20
-2.30033
11
1.20699
21
-2.30059
0
LINE
8
BLACK
6
CONTINUOUS
10
1.20699
20
-2.30059
11
1.2001
21
-2.30059
0
LINE
8
BLACK
6
CONTINUOUS
10
1.2001
20
-2.30059
11
1.19878
21
-2.30033
0
LINE
8
BLACK
6
CONTINUOUS
10
1.19878
20
-2.30033
11
1.19766
21
-2.29958
0
LINE
8
BLACK
6
CONTINUOUS
10
1.19766
20
-2.29958
11
1.19692
21
-2.29846
0
LINE
8
BLACK
6
CONTINUOUS
10
1.19692
20
-2.29846
11
1.19665
21
-2.29715
0
LINE
8
BLACK
6
CONTINUOUS
10
1.19665
20
-2.29715
11
1.19665
21
-2.06781
0
LINE
8
BLACK
6
CONTINUOUS
10
1.19665
20
-2.06781
11
1.19692
21
-2.0665
0
LINE
8
BLACK
6
CONTINUOUS
10
1.19692
20
-2.0665
11
1.19766
21
-2.06538
0
LINE
8
BLACK
6
CONTINUOUS
10
1.19766
20
-2.06538
11
1.19878
21
-2.06463
0
LINE
8
BLACK
6
CONTINUOUS
10
1.19878
20
-2.06463
11
1.2001
21
-2.06437
0
LINE
8
BLACK
6
CONTINUOUS
10
1.2001
20
-2.06437
11
1.20699
21
-2.06437
0
LINE
8
BLACK
6
CONTINUOUS
10
1.20699
20
-2.06437
11
1.20831
21
-2.06463
0
LINE
8
BLACK
6
CONTINUOUS
10
1.23587
20
-2.06463
11
1.23698
21
-2.06538
0
LINE
8
BLACK
6
CONTINUOUS
10
1.23698
20
-2.06538
11
1.23773
21
-2.0665
0
LINE
8
BLACK
6
CONTINUOUS
10
1.23773
20
-2.0665
11
1.23799
21
-2.06781
0
LINE
8
BLACK
6
CONTINUOUS
10
1.23799
20
-2.06781
11
1.23799
21
-2.29715
0
LINE
8
BLACK
6
CONTINUOUS
10
1.23799
20
-2.29715
11
1.23773
21
-2.29846
0
LINE
8
BLACK
6
CONTINUOUS
10
1.23773
20
-2.29846
11
1.23698
21
-2.29958
0
LINE
8
BLACK
6
CONTINUOUS
10
1.23698
20
-2.29958
11
1.23587
21
-2.30033
0
LINE
8
BLACK
6
CONTINUOUS
10
1.23587
20
-2.30033
11
1.23455
21
-2.30059
0
LINE
8
BLACK
6
CONTINUOUS
10
1.23455
20
-2.30059
11
1.22766
21
-2.30059
0
LINE
8
BLACK
6
CONTINUOUS
10
1.22766
20
-2.30059
11
1.22634
21
-2.30033
0
LINE
8
BLACK
6
CONTINUOUS
10
1.22634
20
-2.30033
11
1.22522
21
-2.29958
0
LINE
8
BLACK
6
CONTINUOUS
10
1.22522
20
-2.29958
11
1.22447
21
-2.29846
0
LINE
8
BLACK
6
CONTINUOUS
10
1.22447
20
-2.29846
11
1.22421
21
-2.29715
0
LINE
8
BLACK
6
CONTINUOUS
10
1.22421
20
-2.29715
11
1.22421
21
-2.06781
0
LINE
8
BLACK
6
CONTINUOUS
10
1.22421
20
-2.06781
11
1.22447
21
-2.0665
0
LINE
8
BLACK
6
CONTINUOUS
10
1.22447
20
-2.0665
11
1.22522
21
-2.06538
0
LINE
8
BLACK
6
CONTINUOUS
10
1.22522
20
-2.06538
11
1.22634
21
-2.06463
0
LINE
8
BLACK
6
CONTINUOUS
10
1.22634
20
-2.06463
11
1.22766
21
-2.06437
0
LINE
8
BLACK
6
CONTINUOUS
10
1.22766
20
-2.06437
11
1.23455
21
-2.06437
0
LINE
8
BLACK
6
CONTINUOUS
10
1.23455
20
-2.06437
11
1.23587
21
-2.06463
0
LINE
8
BLACK
6
CONTINUOUS
10
1.26342
20
-2.06463
11
1.26454
21
-2.06538
0
LINE
8
BLACK
6
CONTINUOUS
10
1.26454
20
-2.06538
11
1.26529
21
-2.0665
0
LINE
8
BLACK
6
CONTINUOUS
10
1.26529
20
-2.0665
11
1.26555
21
-2.06781
0
LINE
8
BLACK
6
CONTINUOUS
10
1.26555
20
-2.06781
11
1.26555
21
-2.29715
0
LINE
8
BLACK
6
CONTINUOUS
10
1.26555
20
-2.29715
11
1.26529
21
-2.29846
0
LINE
8
BLACK
6
CONTINUOUS
10
1.26529
20
-2.29846
11
1.26454
21
-2.29958
0
LINE
8
BLACK
6
CONTINUOUS
10
1.26454
20
-2.29958
11
1.26342
21
-2.30033
0
LINE
8
BLACK
6
CONTINUOUS
10
1.26342
20
-2.30033
11
1.26211
21
-2.30059
0
LINE
8
BLACK
6
CONTINUOUS
10
1.26211
20
-2.30059
11
1.25522
21
-2.30059
0
LINE
8
BLACK
6
CONTINUOUS
10
1.25522
20
-2.30059
11
1.2539
21
-2.30033
0
LINE
8
BLACK
6
CONTINUOUS
10
1.2539
20
-2.30033
11
1.25278
21
-2.29958
0
LINE
8
BLACK
6
CONTINUOUS
10
1.25278
20
-2.29958
11
1.25203
21
-2.29846
0
LINE
8
BLACK
6
CONTINUOUS
10
1.25203
20
-2.29846
11
1.25177
21
-2.29715
0
LINE
8
BLACK
6
CONTINUOUS
10
1.25177
20
-2.29715
11
1.25177
21
-2.06781
0
LINE
8
BLACK
6
CONTINUOUS
10
1.25177
20
-2.06781
11
1.25203
21
-2.0665
0
LINE
8
BLACK
6
CONTINUOUS
10
1.25203
20
-2.0665
11
1.25278
21
-2.06538
0
LINE
8
BLACK
6
CONTINUOUS
10
1.25278
20
-2.06538
11
1.2539
21
-2.06463
0
LINE
8
BLACK
6
CONTINUOUS
10
1.2539
20
-2.06463
11
1.25522
21
-2.06437
0
LINE
8
BLACK
6
CONTINUOUS
10
1.25522
20
-2.06437
11
1.26211
21
-2.06437
0
LINE
8
BLACK
6
CONTINUOUS
10
1.26211
20
-2.06437
11
1.26342
21
-2.06463
0
LINE
8
BLACK
6
CONTINUOUS
10
1.29098
20
-2.06463
11
1.2921
21
-2.06538
0
LINE
8
BLACK
6
CONTINUOUS
10
1.2921
20
-2.06538
11
1.29285
21
-2.0665
0
LINE
8
BLACK
6
CONTINUOUS
10
1.29285
20
-2.0665
11
1.29311
21
-2.06781
0
LINE
8
BLACK
6
CONTINUOUS
10
1.29311
20
-2.06781
11
1.29311
21
-2.29715
0
LINE
8
BLACK
6
CONTINUOUS
10
1.29311
20
-2.29715
11
1.29285
21
-2.29846
0
LINE
8
BLACK
6
CONTINUOUS
10
1.29285
20
-2.29846
11
1.2921
21
-2.29958
0
LINE
8
BLACK
6
CONTINUOUS
10
1.2921
20
-2.29958
11
1.29098
21
-2.30033
0
LINE
8
BLACK
6
CONTINUOUS
10
1.29098
20
-2.30033
11
1.28967
21
-2.30059
0
LINE
8
BLACK
6
CONTINUOUS
10
1.28967
20
-2.30059
11
1.28278
21
-2.30059
0
LINE
8
BLACK
6
CONTINUOUS
10
1.28278
20
-2.30059
11
1.28146
21
-2.30033
0
LINE
8
BLACK
6
CONTINUOUS
10
1.28146
20
-2.30033
11
1.28034
21
-2.29958
0
LINE
8
BLACK
6
CONTINUOUS
10
1.28034
20
-2.29958
11
1.27959
21
-2.29846
0
LINE
8
BLACK
6
CONTINUOUS
10
1.27959
20
-2.29846
11
1.27933
21
-2.29715
0
LINE
8
BLACK
6
CONTINUOUS
10
1.27933
20
-2.29715
11
1.27933
21
-2.06781
0
LINE
8
BLACK
6
CONTINUOUS
10
1.27933
20
-2.06781
11
1.27959
21
-2.0665
0
LINE
8
BLACK
6
CONTINUOUS
10
1.27959
20
-2.0665
11
1.28034
21
-2.06538
0
LINE
8
BLACK
6
CONTINUOUS
10
1.28034
20
-2.06538
11
1.28146
21
-2.06463
0
LINE
8
BLACK
6
CONTINUOUS
10
1.28146
20
-2.06463
11
1.28278
21
-2.06437
0
LINE
8
BLACK
6
CONTINUOUS
10
1.28278
20
-2.06437
11
1.28967
21
-2.06437
0
LINE
8
BLACK
6
CONTINUOUS
10
1.28967
20
-2.06437
11
1.29098
21
-2.06463
0
LINE
8
BLACK
6
CONTINUOUS
10
1.31854
20
-2.06463
11
1.31966
21
-2.06538
0
LINE
8
BLACK
6
CONTINUOUS
10
1.31966
20
-2.06538
11
1.32041
21
-2.0665
0
LINE
8
BLACK
6
CONTINUOUS
10
1.32041
20
-2.0665
11
1.32067
21
-2.06781
0
LINE
8
BLACK
6
CONTINUOUS
10
1.32067
20
-2.06781
11
1.32067
21
-2.29715
0
LINE
8
BLACK
6
CONTINUOUS
10
1.32067
20
-2.29715
11
1.32041
21
-2.29846
0
LINE
8
BLACK
6
CONTINUOUS
10
1.32041
20
-2.29846
11
1.31966
21
-2.29958
0
LINE
8
BLACK
6
CONTINUOUS
10
1.31966
20
-2.29958
11
1.31854
21
-2.30033
0
LINE
8
BLACK
6
CONTINUOUS
10
1.31854
20
-2.30033
11
1.31722
21
-2.30059
0
LINE
8
BLACK
6
CONTINUOUS
10
1.31722
20
-2.30059
11
1.31033
21
-2.30059
0
LINE
8
BLACK
6
CONTINUOUS
10
1.31033
20
-2.30059
11
1.30902
21
-2.30033
0
LINE
8
BLACK
6
CONTINUOUS
10
1.30902
20
-2.30033
11
1.3079
21
-2.29958
0
LINE
8
BLACK
6
CONTINUOUS
10
1.3079
20
-2.29958
11
1.30715
21
-2.29846
0
LINE
8
BLACK
6
CONTINUOUS
10
1.30715
20
-2.29846
11
1.30689
21
-2.29715
0
LINE
8
BLACK
6
CONTINUOUS
10
1.30689
20
-2.29715
11
1.30689
21
-2.06781
0
LINE
8
BLACK
6
CONTINUOUS
10
1.30689
20
-2.06781
11
1.30715
21
-2.0665
0
LINE
8
BLACK
6
CONTINUOUS
10
1.30715
20
-2.0665
11
1.3079
21
-2.06538
0
LINE
8
BLACK
6
CONTINUOUS
10
1.3079
20
-2.06538
11
1.30902
21
-2.06463
0
LINE
8
BLACK
6
CONTINUOUS
10
1.30902
20
-2.06463
11
1.31033
21
-2.06437
0
LINE
8
BLACK
6
CONTINUOUS
10
1.31033
20
-2.06437
11
1.31722
21
-2.06437
0
LINE
8
BLACK
6
CONTINUOUS
10
1.31722
20
-2.06437
11
1.31854
21
-2.06463
0
LINE
8
BLACK
6
CONTINUOUS
10
1.3461
20
-2.06463
11
1.34722
21
-2.06538
0
LINE
8
BLACK
6
CONTINUOUS
10
1.34722
20
-2.06538
11
1.34797
21
-2.0665
0
LINE
8
BLACK
6
CONTINUOUS
10
1.34797
20
-2.0665
11
1.34823
21
-2.06781
0
LINE
8
BLACK
6
CONTINUOUS
10
1.34823
20
-2.06781
11
1.34823
21
-2.29715
0
LINE
8
BLACK
6
CONTINUOUS
10
1.34823
20
-2.29715
11
1.34797
21
-2.29846
0
LINE
8
BLACK
6
CONTINUOUS
10
1.34797
20
-2.29846
11
1.34722
21
-2.29958
0
LINE
8
BLACK
6
CONTINUOUS
10
1.34722
20
-2.29958
11
1.3461
21
-2.30033
0
LINE
8
BLACK
6
CONTINUOUS
10
1.3461
20
-2.30033
11
1.34478
21
-2.30059
0
LINE
8
BLACK
6
CONTINUOUS
10
1.34478
20
-2.30059
11
1.33789
21
-2.30059
0
LINE
8
BLACK
6
CONTINUOUS
10
1.33789
20
-2.30059
11
1.33658
21
-2.30033
0
LINE
8
BLACK
6
CONTINUOUS
10
1.33658
20
-2.30033
11
1.33546
21
-2.29958
0
LINE
8
BLACK
6
CONTINUOUS
10
1.33546
20
-2.29958
11
1.33471
21
-2.29846
0
LINE
8
BLACK
6
CONTINUOUS
10
1.33471
20
-2.29846
11
1.33445
21
-2.29715
0
LINE
8
BLACK
6
CONTINUOUS
10
1.33445
20
-2.29715
11
1.33445
21
-2.06781
0
LINE
8
BLACK
6
CONTINUOUS
10
1.33445
20
-2.06781
11
1.33471
21
-2.0665
0
LINE
8
BLACK
6
CONTINUOUS
10
1.33471
20
-2.0665
11
1.33546
21
-2.06538
0
LINE
8
BLACK
6
CONTINUOUS
10
1.33546
20
-2.06538
11
1.33658
21
-2.06463
0
LINE
8
BLACK
6
CONTINUOUS
10
1.33658
20
-2.06463
11
1.33789
21
-2.06437
0
LINE
8
BLACK
6
CONTINUOUS
10
1.33789
20
-2.06437
11
1.34478
21
-2.06437
0
LINE
8
BLACK
6
CONTINUOUS
10
1.34478
20
-2.06437
11
1.3461
21
-2.06463
0
LINE
8
BLACK
6
CONTINUOUS
10
1.37366
20
-2.06463
11
1.37478
21
-2.06538
0
LINE
8
BLACK
6
CONTINUOUS
10
1.37478
20
-2.06538
11
1.37553
21
-2.0665
0
LINE
8
BLACK
6
CONTINUOUS
10
1.37553
20
-2.0665
11
1.37579
21
-2.06781
0
LINE
8
BLACK
6
CONTINUOUS
10
1.37579
20
-2.06781
11
1.37579
21
-2.29715
0
LINE
8
BLACK
6
CONTINUOUS
10
1.37579
20
-2.29715
11
1.37553
21
-2.29846
0
LINE
8
BLACK
6
CONTINUOUS
10
1.37553
20
-2.29846
11
1.37478
21
-2.29958
0
LINE
8
BLACK
6
CONTINUOUS
10
1.37478
20
-2.29958
11
1.37366
21
-2.30033
0
LINE
8
BLACK
6
CONTINUOUS
10
1.37366
20
-2.30033
11
1.37234
21
-2.30059
0
LINE
8
BLACK
6
CONTINUOUS
10
1.37234
20
-2.30059
11
1.36545
21
-2.30059
0
LINE
8
BLACK
6
CONTINUOUS
10
1.36545
20
-2.30059
11
1.36413
21
-2.30033
0
LINE
8
BLACK
6
CONTINUOUS
10
1.36413
20
-2.30033
11
1.36302
21
-2.29958
0
LINE
8
BLACK
6
CONTINUOUS
10
1.36302
20
-2.29958
11
1.36227
21
-2.29846
0
LINE
8
BLACK
6
CONTINUOUS
10
1.36227
20
-2.29846
11
1.36201
21
-2.29715
0
LINE
8
BLACK
6
CONTINUOUS
10
1.36201
20
-2.29715
11
1.36201
21
-2.06781
0
LINE
8
BLACK
6
CONTINUOUS
10
1.36201
20
-2.06781
11
1.36227
21
-2.0665
0
LINE
8
BLACK
6
CONTINUOUS
10
1.36227
20
-2.0665
11
1.36302
21
-2.06538
0
LINE
8
BLACK
6
CONTINUOUS
10
1.36302
20
-2.06538
11
1.36413
21
-2.06463
0
LINE
8
BLACK
6
CONTINUOUS
10
1.36413
20
-2.06463
11
1.36545
21
-2.06437
0
LINE
8
BLACK
6
CONTINUOUS
10
1.36545
20
-2.06437
11
1.37234
21
-2.06437
0
LINE
8
BLACK
6
CONTINUOUS
10
1.37234
20
-2.06437
11
1.37366
21
-2.06463
0
LINE
8
BLACK
6
CONTINUOUS
10
1.40122
20
-2.06463
11
1.40234
21
-2.06538
0
LINE
8
BLACK
6
CONTINUOUS
10
1.40234
20
-2.06538
11
1.40308
21
-2.0665
0
LINE
8
BLACK
6
CONTINUOUS
10
1.40308
20
-2.0665
11
1.40335
21
-2.06781
0
LINE
8
BLACK
6
CONTINUOUS
10
1.40335
20
-2.06781
11
1.40335
21
-2.29715
0
LINE
8
BLACK
6
CONTINUOUS
10
1.40335
20
-2.29715
11
1.40308
21
-2.29846
0
LINE
8
BLACK
6
CONTINUOUS
10
1.40308
20
-2.29846
11
1.40234
21
-2.29958
0
LINE
8
BLACK
6
CONTINUOUS
10
1.40234
20
-2.29958
11
1.40122
21
-2.30033
0
LINE
8
BLACK
6
CONTINUOUS
10
1.40122
20
-2.30033
11
1.3999
21
-2.30059
0
LINE
8
BLACK
6
CONTINUOUS
10
1.3999
20
-2.30059
11
1.39301
21
-2.30059
0
LINE
8
BLACK
6
CONTINUOUS
10
1.39301
20
-2.30059
11
1.39169
21
-2.30033
0
LINE
8
BLACK
6
CONTINUOUS
10
1.39169
20
-2.30033
11
1.39058
21
-2.29958
0
LINE
8
BLACK
6
CONTINUOUS
10
1.39058
20
-2.29958
11
1.38983
21
-2.29846
0
LINE
8
BLACK
6
CONTINUOUS
10
1.38983
20
-2.29846
11
1.38957
21
-2.29715
0
LINE
8
BLACK
6
CONTINUOUS
10
1.38957
20
-2.29715
11
1.38957
21
-2.06781
0
LINE
8
BLACK
6
CONTINUOUS
10
1.38957
20
-2.06781
11
1.38983
21
-2.0665
0
LINE
8
BLACK
6
CONTINUOUS
10
1.38983
20
-2.0665
11
1.39058
21
-2.06538
0
LINE
8
BLACK
6
CONTINUOUS
10
1.39058
20
-2.06538
11
1.39169
21
-2.06463
0
LINE
8
BLACK
6
CONTINUOUS
10
1.39169
20
-2.06463
11
1.39301
21
-2.06437
0
LINE
8
BLACK
6
CONTINUOUS
10
1.39301
20
-2.06437
11
1.3999
21
-2.06437
0
LINE
8
BLACK
6
CONTINUOUS
10
1.3999
20
-2.06437
11
1.40122
21
-2.06463
0
LINE
8
BLACK
6
CONTINUOUS
10
1.42878
20
-2.06463
11
1.4299
21
-2.06538
0
LINE
8
BLACK
6
CONTINUOUS
10
1.4299
20
-2.06538
11
1.43064
21
-2.0665
0
LINE
8
BLACK
6
CONTINUOUS
10
1.43064
20
-2.0665
11
1.43091
21
-2.06781
0
LINE
8
BLACK
6
CONTINUOUS
10
1.43091
20
-2.06781
11
1.43091
21
-2.29715
0
LINE
8
BLACK
6
CONTINUOUS
10
1.43091
20
-2.29715
11
1.43064
21
-2.29846
0
LINE
8
BLACK
6
CONTINUOUS
10
1.43064
20
-2.29846
11
1.4299
21
-2.29958
0
LINE
8
BLACK
6
CONTINUOUS
10
1.4299
20
-2.29958
11
1.42878
21
-2.30033
0
LINE
8
BLACK
6
CONTINUOUS
10
1.42878
20
-2.30033
11
1.42746
21
-2.30059
0
LINE
8
BLACK
6
CONTINUOUS
10
1.42746
20
-2.30059
11
1.42057
21
-2.30059
0
LINE
8
BLACK
6
CONTINUOUS
10
1.42057
20
-2.30059
11
1.41925
21
-2.30033
0
LINE
8
BLACK
6
CONTINUOUS
10
1.41925
20
-2.30033
11
1.41813
21
-2.29958
0
LINE
8
BLACK
6
CONTINUOUS
10
1.41813
20
-2.29958
11
1.41739
21
-2.29846
0
LINE
8
BLACK
6
CONTINUOUS
10
1.41739
20
-2.29846
11
1.41713
21
-2.29715
0
LINE
8
BLACK
6
CONTINUOUS
10
1.41713
20
-2.29715
11
1.41713
21
-2.06781
0
LINE
8
BLACK
6
CONTINUOUS
10
1.41713
20
-2.06781
11
1.41739
21
-2.0665
0
LINE
8
BLACK
6
CONTINUOUS
10
1.41739
20
-2.0665
11
1.41813
21
-2.06538
0
LINE
8
BLACK
6
CONTINUOUS
10
1.41813
20
-2.06538
11
1.41925
21
-2.06463
0
LINE
8
BLACK
6
CONTINUOUS
10
1.41925
20
-2.06463
11
1.42057
21
-2.06437
0
LINE
8
BLACK
6
CONTINUOUS
10
1.42057
20
-2.06437
11
1.42746
21
-2.06437
0
LINE
8
BLACK
6
CONTINUOUS
10
1.42746
20
-2.06437
11
1.42878
21
-2.06463
0
LINE
8
BLACK
6
CONTINUOUS
10
1.45634
20
-2.06463
11
1.45746
21
-2.06538
0
LINE
8
BLACK
6
CONTINUOUS
10
1.45746
20
-2.06538
11
1.4582
21
-2.0665
0
LINE
8
BLACK
6
CONTINUOUS
10
1.4582
20
-2.0665
11
1.45846
21
-2.06781
0
LINE
8
BLACK
6
CONTINUOUS
10
1.45846
20
-2.06781
11
1.45846
21
-2.29715
0
LINE
8
BLACK
6
CONTINUOUS
10
1.45846
20
-2.29715
11
1.4582
21
-2.29846
0
LINE
8
BLACK
6
CONTINUOUS
10
1.4582
20
-2.29846
11
1.45746
21
-2.29958
0
LINE
8
BLACK
6
CONTINUOUS
10
1.45746
20
-2.29958
11
1.45634
21
-2.30033
0
LINE
8
BLACK
6
CONTINUOUS
10
1.45634
20
-2.30033
11
1.45502
21
-2.30059
0
LINE
8
BLACK
6
CONTINUOUS
10
1.45502
20
-2.30059
11
1.44813
21
-2.30059
0
LINE
8
BLACK
6
CONTINUOUS
10
1.44813
20
-2.30059
11
1.44681
21
-2.30033
0
LINE
8
BLACK
6
CONTINUOUS
10
1.44681
20
-2.30033
11
1.44569
21
-2.29958
0
LINE
8
BLACK
6
CONTINUOUS
10
1.44569
20
-2.29958
11
1.44495
21
-2.29846
0
LINE
8
BLACK
6
CONTINUOUS
10
1.44495
20
-2.29846
11
1.44469
21
-2.29715
0
LINE
8
BLACK
6
CONTINUOUS
10
1.44469
20
-2.29715
11
1.44469
21
-2.06781
0
LINE
8
BLACK
6
CONTINUOUS
10
1.44469
20
-2.06781
11
1.44495
21
-2.0665
0
LINE
8
BLACK
6
CONTINUOUS
10
1.44495
20
-2.0665
11
1.44569
21
-2.06538
0
LINE
8
BLACK
6
CONTINUOUS
10
1.44569
20
-2.06538
11
1.44681
21
-2.06463
0
LINE
8
BLACK
6
CONTINUOUS
10
1.44681
20
-2.06463
11
1.44813
21
-2.06437
0
LINE
8
BLACK
6
CONTINUOUS
10
1.44813
20
-2.06437
11
1.45502
21
-2.06437
0
LINE
8
BLACK
6
CONTINUOUS
10
1.45502
20
-2.06437
11
1.45634
21
-2.06463
0
LINE
8
BLACK
6
CONTINUOUS
10
1.4839
20
-2.06463
11
1.48501
21
-2.06538
0
LINE
8
BLACK
6
CONTINUOUS
10
1.48501
20
-2.06538
11
1.48576
21
-2.0665
0
LINE
8
BLACK
6
CONTINUOUS
10
1.48576
20
-2.0665
11
1.48602
21
-2.06781
0
LINE
8
BLACK
6
CONTINUOUS
10
1.48602
20
-2.06781
11
1.48602
21
-2.29715
0
LINE
8
BLACK
6
CONTINUOUS
10
1.48602
20
-2.29715
11
1.48576
21
-2.29846
0
LINE
8
BLACK
6
CONTINUOUS
10
1.48576
20
-2.29846
11
1.48501
21
-2.29958
0
LINE
8
BLACK
6
CONTINUOUS
10
1.48501
20
-2.29958
11
1.4839
21
-2.30033
0
LINE
8
BLACK
6
CONTINUOUS
10
1.4839
20
-2.30033
11
1.48258
21
-2.30059
0
LINE
8
BLACK
6
CONTINUOUS
10
1.48258
20
-2.30059
11
1.47569
21
-2.30059
0
LINE
8
BLACK
6
CONTINUOUS
10
1.47569
20
-2.30059
11
1.47437
21
-2.30033
0
LINE
8
BLACK
6
CONTINUOUS
10
1.47437
20
-2.30033
11
1.47325
21
-2.29958
0
LINE
8
BLACK
6
CONTINUOUS
10
1.47325
20
-2.29958
11
1.47251
21
-2.29846
0
LINE
8
BLACK
6
CONTINUOUS
10
1.47251
20
-2.29846
11
1.47224
21
-2.29715
0
LINE
8
BLACK
6
CONTINUOUS
10
1.47224
20
-2.29715
11
1.47224
21
-2.06781
0
LINE
8
BLACK
6
CONTINUOUS
10
1.47224
20
-2.06781
11
1.47251
21
-2.0665
0
LINE
8
BLACK
6
CONTINUOUS
10
1.47251
20
-2.0665
11
1.47325
21
-2.06538
0
LINE
8
BLACK
6
CONTINUOUS
10
1.47325
20
-2.06538
11
1.47437
21
-2.06463
0
LINE
8
BLACK
6
CONTINUOUS
10
1.47437
20
-2.06463
11
1.47569
21
-2.06437
0
LINE
8
BLACK
6
CONTINUOUS
10
1.47569
20
-2.06437
11
1.48258
21
-2.06437
0
LINE
8
BLACK
6
CONTINUOUS
10
1.48258
20
-2.06437
11
1.4839
21
-2.06463
0
LINE
8
BLACK
6
CONTINUOUS
10
1.51146
20
-2.06463
11
1.51257
21
-2.06538
0
LINE
8
BLACK
6
CONTINUOUS
10
1.51257
20
-2.06538
11
1.51332
21
-2.0665
0
LINE
8
BLACK
6
CONTINUOUS
10
1.51332
20
-2.0665
11
1.51358
21
-2.06781
0
LINE
8
BLACK
6
CONTINUOUS
10
1.51358
20
-2.06781
11
1.51358
21
-2.29715
0
LINE
8
BLACK
6
CONTINUOUS
10
1.51358
20
-2.29715
11
1.51332
21
-2.29846
0
LINE
8
BLACK
6
CONTINUOUS
10
1.51332
20
-2.29846
11
1.51257
21
-2.29958
0
LINE
8
BLACK
6
CONTINUOUS
10
1.51257
20
-2.29958
11
1.51146
21
-2.30033
0
LINE
8
BLACK
6
CONTINUOUS
10
1.51146
20
-2.30033
11
1.51014
21
-2.30059
0
LINE
8
BLACK
6
CONTINUOUS
10
1.51014
20
-2.30059
11
1.50325
21
-2.30059
0
LINE
8
BLACK
6
CONTINUOUS
10
1.50325
20
-2.30059
11
1.50193
21
-2.30033
0
LINE
8
BLACK
6
CONTINUOUS
10
1.50193
20
-2.30033
11
1.50081
21
-2.29958
0
LINE
8
BLACK
6
CONTINUOUS
10
1.50081
20
-2.29958
11
1.50007
21
-2.29846
0
LINE
8
BLACK
6
CONTINUOUS
10
1.50007
20
-2.29846
11
1.4998
21
-2.29715
0
LINE
8
BLACK
6
CONTINUOUS
10
1.4998
20
-2.29715
11
1.4998
21
-2.06781
0
LINE
8
BLACK
6
CONTINUOUS
10
1.4998
20
-2.06781
11
1.50007
21
-2.0665
0
LINE
8
BLACK
6
CONTINUOUS
10
1.50007
20
-2.0665
11
1.50081
21
-2.06538
0
LINE
8
BLACK
6
CONTINUOUS
10
1.50081
20
-2.06538
11
1.50193
21
-2.06463
0
LINE
8
BLACK
6
CONTINUOUS
10
1.50193
20
-2.06463
11
1.50325
21
-2.06437
0
LINE
8
BLACK
6
CONTINUOUS
10
1.50325
20
-2.06437
11
1.51014
21
-2.06437
0
LINE
8
BLACK
6
CONTINUOUS
10
1.51014
20
-2.06437
11
1.51146
21
-2.06463
0
LINE
8
BLACK
6
CONTINUOUS
10
1.53902
20
-2.06463
11
1.54013
21
-2.06538
0
LINE
8
BLACK
6
CONTINUOUS
10
1.54013
20
-2.06538
11
1.54088
21
-2.0665
0
LINE
8
BLACK
6
CONTINUOUS
10
1.54088
20
-2.0665
11
1.54114
21
-2.06781
0
LINE
8
BLACK
6
CONTINUOUS
10
1.54114
20
-2.06781
11
1.54114
21
-2.29715
0
LINE
8
BLACK
6
CONTINUOUS
10
1.54114
20
-2.29715
11
1.54088
21
-2.29846
0
LINE
8
BLACK
6
CONTINUOUS
10
1.54088
20
-2.29846
11
1.54013
21
-2.29958
0
LINE
8
BLACK
6
CONTINUOUS
10
1.54013
20
-2.29958
11
1.53902
21
-2.30033
0
LINE
8
BLACK
6
CONTINUOUS
10
1.53902
20
-2.30033
11
1.5377
21
-2.30059
0
LINE
8
BLACK
6
CONTINUOUS
10
1.5377
20
-2.30059
11
1.53081
21
-2.30059
0
LINE
8
BLACK
6
CONTINUOUS
10
1.53081
20
-2.30059
11
1.52949
21
-2.30033
0
LINE
8
BLACK
6
CONTINUOUS
10
1.52949
20
-2.30033
11
1.52837
21
-2.29958
0
LINE
8
BLACK
6
CONTINUOUS
10
1.52837
20
-2.29958
11
1.52762
21
-2.29846
0
LINE
8
BLACK
6
CONTINUOUS
10
1.52762
20
-2.29846
11
1.52736
21
-2.29715
0
LINE
8
BLACK
6
CONTINUOUS
10
1.52736
20
-2.29715
11
1.52736
21
-2.06781
0
LINE
8
BLACK
6
CONTINUOUS
10
1.52736
20
-2.06781
11
1.52762
21
-2.0665
0
LINE
8
BLACK
6
CONTINUOUS
10
1.52762
20
-2.0665
11
1.52837
21
-2.06538
0
LINE
8
BLACK
6
CONTINUOUS
10
1.52837
20
-2.06538
11
1.52949
21
-2.06463
0
LINE
8
BLACK
6
CONTINUOUS
10
1.52949
20
-2.06463
11
1.53081
21
-2.06437
0
LINE
8
BLACK
6
CONTINUOUS
10
1.53081
20
-2.06437
11
1.5377
21
-2.06437
0
LINE
8
BLACK
6
CONTINUOUS
10
1.5377
20
-2.06437
11
1.53902
21
-2.06463
0
LINE
8
BLACK
6
CONTINUOUS
10
1.56657
20
-2.06463
11
1.56769
21
-2.06538
0
LINE
8
BLACK
6
CONTINUOUS
10
1.56769
20
-2.06538
11
1.56844
21
-2.0665
0
LINE
8
BLACK
6
CONTINUOUS
10
1.56844
20
-2.0665
11
1.5687
21
-2.06781
0
LINE
8
BLACK
6
CONTINUOUS
10
1.5687
20
-2.06781
11
1.5687
21
-2.29715
0
LINE
8
BLACK
6
CONTINUOUS
10
1.5687
20
-2.29715
11
1.56844
21
-2.29846
0
LINE
8
BLACK
6
CONTINUOUS
10
1.56844
20
-2.29846
11
1.56769
21
-2.29958
0
LINE
8
BLACK
6
CONTINUOUS
10
1.56769
20
-2.29958
11
1.56657
21
-2.30033
0
LINE
8
BLACK
6
CONTINUOUS
10
1.56657
20
-2.30033
11
1.56526
21
-2.30059
0
LINE
8
BLACK
6
CONTINUOUS
10
1.56526
20
-2.30059
11
1.55837
21
-2.30059
0
LINE
8
BLACK
6
CONTINUOUS
10
1.55837
20
-2.30059
11
1.55705
21
-2.30033
0
LINE
8
BLACK
6
CONTINUOUS
10
1.55705
20
-2.30033
11
1.55593
21
-2.29958
0
LINE
8
BLACK
6
CONTINUOUS
10
1.55593
20
-2.29958
11
1.55518
21
-2.29846
0
LINE
8
BLACK
6
CONTINUOUS
10
1.55518
20
-2.29846
11
1.55492
21
-2.29715
0
LINE
8
BLACK
6
CONTINUOUS
10
1.55492
20
-2.29715
11
1.55492
21
-2.06781
0
LINE
8
BLACK
6
CONTINUOUS
10
1.55492
20
-2.06781
11
1.55518
21
-2.0665
0
LINE
8
BLACK
6
CONTINUOUS
10
1.55518
20
-2.0665
11
1.55593
21
-2.06538
0
LINE
8
BLACK
6
CONTINUOUS
10
1.55593
20
-2.06538
11
1.55705
21
-2.06463
0
LINE
8
BLACK
6
CONTINUOUS
10
1.55705
20
-2.06463
11
1.55837
21
-2.06437
0
LINE
8
BLACK
6
CONTINUOUS
10
1.55837
20
-2.06437
11
1.56526
21
-2.06437
0
LINE
8
BLACK
6
CONTINUOUS
10
1.56526
20
-2.06437
11
1.56657
21
-2.06463
0
LINE
8
BLACK
6
CONTINUOUS
10
1.59413
20
-2.06463
11
1.59525
21
-2.06538
0
LINE
8
BLACK
6
CONTINUOUS
10
1.59525
20
-2.06538
11
1.596
21
-2.0665
0
LINE
8
BLACK
6
CONTINUOUS
10
1.596
20
-2.0665
11
1.59626
21
-2.06781
0
LINE
8
BLACK
6
CONTINUOUS
10
1.59626
20
-2.06781
11
1.59626
21
-2.29715
0
LINE
8
BLACK
6
CONTINUOUS
10
1.59626
20
-2.29715
11
1.596
21
-2.29846
0
LINE
8
BLACK
6
CONTINUOUS
10
1.596
20
-2.29846
11
1.59525
21
-2.29958
0
LINE
8
BLACK
6
CONTINUOUS
10
1.59525
20
-2.29958
11
1.59413
21
-2.30033
0
LINE
8
BLACK
6
CONTINUOUS
10
1.59413
20
-2.30033
11
1.59281
21
-2.30059
0
LINE
8
BLACK
6
CONTINUOUS
10
1.59281
20
-2.30059
11
1.58593
21
-2.30059
0
LINE
8
BLACK
6
CONTINUOUS
10
1.58593
20
-2.30059
11
1.58461
21
-2.30033
0
LINE
8
BLACK
6
CONTINUOUS
10
1.58461
20
-2.30033
11
1.58349
21
-2.29958
0
LINE
8
BLACK
6
CONTINUOUS
10
1.58349
20
-2.29958
11
1.58274
21
-2.29846
0
LINE
8
BLACK
6
CONTINUOUS
10
1.58274
20
-2.29846
11
1.58248
21
-2.29715
0
LINE
8
BLACK
6
CONTINUOUS
10
1.58248
20
-2.29715
11
1.58248
21
-2.06781
0
LINE
8
BLACK
6
CONTINUOUS
10
1.58248
20
-2.06781
11
1.58274
21
-2.0665
0
LINE
8
BLACK
6
CONTINUOUS
10
1.58274
20
-2.0665
11
1.58349
21
-2.06538
0
LINE
8
BLACK
6
CONTINUOUS
10
1.58349
20
-2.06538
11
1.58461
21
-2.06463
0
LINE
8
BLACK
6
CONTINUOUS
10
1.58461
20
-2.06463
11
1.58593
21
-2.06437
0
LINE
8
BLACK
6
CONTINUOUS
10
1.58593
20
-2.06437
11
1.59281
21
-2.06437
0
LINE
8
BLACK
6
CONTINUOUS
10
1.59281
20
-2.06437
11
1.59413
21
-2.06463
0
LINE
8
BLACK
6
CONTINUOUS
10
1.62169
20
-2.06463
11
1.62281
21
-2.06538
0
LINE
8
BLACK
6
CONTINUOUS
10
1.62281
20
-2.06538
11
1.62356
21
-2.0665
0
LINE
8
BLACK
6
CONTINUOUS
10
1.62356
20
-2.0665
11
1.62382
21
-2.06781
0
LINE
8
BLACK
6
CONTINUOUS
10
1.62382
20
-2.06781
11
1.62382
21
-2.29715
0
LINE
8
BLACK
6
CONTINUOUS
10
1.62382
20
-2.29715
11
1.62356
21
-2.29846
0
LINE
8
BLACK
6
CONTINUOUS
10
1.62356
20
-2.29846
11
1.62281
21
-2.29958
0
LINE
8
BLACK
6
CONTINUOUS
10
1.62281
20
-2.29958
11
1.62169
21
-2.30033
0
LINE
8
BLACK
6
CONTINUOUS
10
1.62169
20
-2.30033
11
1.62037
21
-2.30059
0
LINE
8
BLACK
6
CONTINUOUS
10
1.62037
20
-2.30059
11
1.61348
21
-2.30059
0
LINE
8
BLACK
6
CONTINUOUS
10
1.61348
20
-2.30059
11
1.61217
21
-2.30033
0
LINE
8
BLACK
6
CONTINUOUS
10
1.61217
20
-2.30033
11
1.61105
21
-2.29958
0
LINE
8
BLACK
6
CONTINUOUS
10
1.61105
20
-2.29958
11
1.6103
21
-2.29846
0
LINE
8
BLACK
6
CONTINUOUS
10
1.6103
20
-2.29846
11
1.61004
21
-2.29715
0
LINE
8
BLACK
6
CONTINUOUS
10
1.61004
20
-2.29715
11
1.61004
21
-2.06781
0
LINE
8
BLACK
6
CONTINUOUS
10
1.61004
20
-2.06781
11
1.6103
21
-2.0665
0
LINE
8
BLACK
6
CONTINUOUS
10
1.6103
20
-2.0665
11
1.61105
21
-2.06538
0
LINE
8
BLACK
6
CONTINUOUS
10
1.61105
20
-2.06538
11
1.61217
21
-2.06463
0
LINE
8
BLACK
6
CONTINUOUS
10
1.61217
20
-2.06463
11
1.61348
21
-2.06437
0
LINE
8
BLACK
6
CONTINUOUS
10
1.61348
20
-2.06437
11
1.62037
21
-2.06437
0
LINE
8
BLACK
6
CONTINUOUS
10
1.62037
20
-2.06437
11
1.62169
21
-2.06463
0
LINE
8
BLACK
6
CONTINUOUS
10
1.64925
20
-2.06463
11
1.65037
21
-2.06538
0
LINE
8
BLACK
6
CONTINUOUS
10
1.65037
20
-2.06538
11
1.65112
21
-2.0665
0
LINE
8
BLACK
6
CONTINUOUS
10
1.65112
20
-2.0665
11
1.65138
21
-2.06781
0
LINE
8
BLACK
6
CONTINUOUS
10
1.65138
20
-2.06781
11
1.65138
21
-2.29715
0
LINE
8
BLACK
6
CONTINUOUS
10
1.65138
20
-2.29715
11
1.65112
21
-2.29846
0
LINE
8
BLACK
6
CONTINUOUS
10
1.65112
20
-2.29846
11
1.65037
21
-2.29958
0
LINE
8
BLACK
6
CONTINUOUS
10
1.65037
20
-2.29958
11
1.64925
21
-2.30033
0
LINE
8
BLACK
6
CONTINUOUS
10
1.64925
20
-2.30033
11
1.64793
21
-2.30059
0
LINE
8
BLACK
6
CONTINUOUS
10
1.64793
20
-2.30059
11
1.64104
21
-2.30059
0
LINE
8
BLACK
6
CONTINUOUS
10
1.64104
20
-2.30059
11
1.63972
21
-2.30033
0
LINE
8
BLACK
6
CONTINUOUS
10
1.63972
20
-2.30033
11
1.63861
21
-2.29958
0
LINE
8
BLACK
6
CONTINUOUS
10
1.63861
20
-2.29958
11
1.63786
21
-2.29846
0
LINE
8
BLACK
6
CONTINUOUS
10
1.63786
20
-2.29846
11
1.6376
21
-2.29715
0
LINE
8
BLACK
6
CONTINUOUS
10
1.6376
20
-2.29715
11
1.6376
21
-2.06781
0
LINE
8
BLACK
6
CONTINUOUS
10
1.6376
20
-2.06781
11
1.63786
21
-2.0665
0
LINE
8
BLACK
6
CONTINUOUS
10
1.63786
20
-2.0665
11
1.63861
21
-2.06538
0
LINE
8
BLACK
6
CONTINUOUS
10
1.63861
20
-2.06538
11
1.63972
21
-2.06463
0
LINE
8
BLACK
6
CONTINUOUS
10
1.63972
20
-2.06463
11
1.64104
21
-2.06437
0
LINE
8
BLACK
6
CONTINUOUS
10
1.64104
20
-2.06437
11
1.64793
21
-2.06437
0
LINE
8
BLACK
6
CONTINUOUS
10
1.64793
20
-2.06437
11
1.64925
21
-2.06463
0
LINE
8
BLACK
6
CONTINUOUS
10
1.67681
20
-2.06463
11
1.67793
21
-2.06538
0
LINE
8
BLACK
6
CONTINUOUS
10
1.67793
20
-2.06538
11
1.67867
21
-2.0665
0
LINE
8
BLACK
6
CONTINUOUS
10
1.67867
20
-2.0665
11
1.67894
21
-2.06781
0
LINE
8
BLACK
6
CONTINUOUS
10
1.67894
20
-2.06781
11
1.67894
21
-2.29715
0
LINE
8
BLACK
6
CONTINUOUS
10
1.67894
20
-2.29715
11
1.67867
21
-2.29846
0
LINE
8
BLACK
6
CONTINUOUS
10
1.67867
20
-2.29846
11
1.67793
21
-2.29958
0
LINE
8
BLACK
6
CONTINUOUS
10
1.67793
20
-2.29958
11
1.67681
21
-2.30033
0
LINE
8
BLACK
6
CONTINUOUS
10
1.67681
20
-2.30033
11
1.67549
21
-2.30059
0
LINE
8
BLACK
6
CONTINUOUS
10
1.67549
20
-2.30059
11
1.6686
21
-2.30059
0
LINE
8
BLACK
6
CONTINUOUS
10
1.6686
20
-2.30059
11
1.66728
21
-2.30033
0
LINE
8
BLACK
6
CONTINUOUS
10
1.66728
20
-2.30033
11
1.66617
21
-2.29958
0
LINE
8
BLACK
6
CONTINUOUS
10
1.66617
20
-2.29958
11
1.66542
21
-2.29846
0
LINE
8
BLACK
6
CONTINUOUS
10
1.66542
20
-2.29846
11
1.66516
21
-2.29715
0
LINE
8
BLACK
6
CONTINUOUS
10
1.66516
20
-2.29715
11
1.66516
21
-2.06781
0
LINE
8
BLACK
6
CONTINUOUS
10
1.66516
20
-2.06781
11
1.66542
21
-2.0665
0
LINE
8
BLACK
6
CONTINUOUS
10
1.66542
20
-2.0665
11
1.66617
21
-2.06538
0
LINE
8
BLACK
6
CONTINUOUS
10
1.66617
20
-2.06538
11
1.66728
21
-2.06463
0
LINE
8
BLACK
6
CONTINUOUS
10
1.66728
20
-2.06463
11
1.6686
21
-2.06437
0
LINE
8
BLACK
6
CONTINUOUS
10
1.6686
20
-2.06437
11
1.67549
21
-2.06437
0
LINE
8
BLACK
6
CONTINUOUS
10
1.67549
20
-2.06437
11
1.67681
21
-2.06463
0
LINE
8
BLACK
6
CONTINUOUS
10
1.70437
20
-2.06463
11
1.70549
21
-2.06538
0
LINE
8
BLACK
6
CONTINUOUS
10
1.70549
20
-2.06538
11
1.70623
21
-2.0665
0
LINE
8
BLACK
6
CONTINUOUS
10
1.70623
20
-2.0665
11
1.7065
21
-2.06781
0
LINE
8
BLACK
6
CONTINUOUS
10
1.7065
20
-2.06781
11
1.7065
21
-2.29715
0
LINE
8
BLACK
6
CONTINUOUS
10
1.7065
20
-2.29715
11
1.70623
21
-2.29846
0
LINE
8
BLACK
6
CONTINUOUS
10
1.70623
20
-2.29846
11
1.70549
21
-2.29958
0
LINE
8
BLACK
6
CONTINUOUS
10
1.70549
20
-2.29958
11
1.70437
21
-2.30033
0
LINE
8
BLACK
6
CONTINUOUS
10
1.70437
20
-2.30033
11
1.70305
21
-2.30059
0
LINE
8
BLACK
6
CONTINUOUS
10
1.70305
20
-2.30059
11
1.69616
21
-2.30059
0
LINE
8
BLACK
6
CONTINUOUS
10
1.69616
20
-2.30059
11
1.69484
21
-2.30033
0
LINE
8
BLACK
6
CONTINUOUS
10
1.69484
20
-2.30033
11
1.69373
21
-2.29958
0
LINE
8
BLACK
6
CONTINUOUS
10
1.69373
20
-2.29958
11
1.69298
21
-2.29846
0
LINE
8
BLACK
6
CONTINUOUS
10
1.69298
20
-2.29846
11
1.69272
21
-2.29715
0
LINE
8
BLACK
6
CONTINUOUS
10
1.69272
20
-2.29715
11
1.69272
21
-2.06781
0
LINE
8
BLACK
6
CONTINUOUS
10
1.69272
20
-2.06781
11
1.69298
21
-2.0665
0
LINE
8
BLACK
6
CONTINUOUS
10
1.69298
20
-2.0665
11
1.69373
21
-2.06538
0
LINE
8
BLACK
6
CONTINUOUS
10
1.69373
20
-2.06538
11
1.69484
21
-2.06463
0
LINE
8
BLACK
6
CONTINUOUS
10
1.69484
20
-2.06463
11
1.69616
21
-2.06437
0
LINE
8
BLACK
6
CONTINUOUS
10
1.69616
20
-2.06437
11
1.70305
21
-2.06437
0
LINE
8
BLACK
6
CONTINUOUS
10
1.70305
20
-2.06437
11
1.70437
21
-2.06463
0
LINE
8
BLACK
6
CONTINUOUS
10
1.73193
20
-2.06463
11
1.73305
21
-2.06538
0
LINE
8
BLACK
6
CONTINUOUS
10
1.73305
20
-2.06538
11
1.73379
21
-2.0665
0
LINE
8
BLACK
6
CONTINUOUS
10
1.73379
20
-2.0665
11
1.73406
21
-2.06781
0
LINE
8
BLACK
6
CONTINUOUS
10
1.73406
20
-2.06781
11
1.73406
21
-2.29715
0
LINE
8
BLACK
6
CONTINUOUS
10
1.73406
20
-2.29715
11
1.73379
21
-2.29846
0
LINE
8
BLACK
6
CONTINUOUS
10
1.73379
20
-2.29846
11
1.73305
21
-2.29958
0
LINE
8
BLACK
6
CONTINUOUS
10
1.73305
20
-2.29958
11
1.73193
21
-2.30033
0
LINE
8
BLACK
6
CONTINUOUS
10
1.73193
20
-2.30033
11
1.73061
21
-2.30059
0
LINE
8
BLACK
6
CONTINUOUS
10
1.73061
20
-2.30059
11
1.72372
21
-2.30059
0
LINE
8
BLACK
6
CONTINUOUS
10
1.72372
20
-2.30059
11
1.7224
21
-2.30033
0
LINE
8
BLACK
6
CONTINUOUS
10
1.7224
20
-2.30033
11
1.72128
21
-2.29958
0
LINE
8
BLACK
6
CONTINUOUS
10
1.72128
20
-2.29958
11
1.72054
21
-2.29846
0
LINE
8
BLACK
6
CONTINUOUS
10
1.72054
20
-2.29846
11
1.72028
21
-2.29715
0
LINE
8
BLACK
6
CONTINUOUS
10
1.72028
20
-2.29715
11
1.72028
21
-2.06781
0
LINE
8
BLACK
6
CONTINUOUS
10
1.72028
20
-2.06781
11
1.72054
21
-2.0665
0
LINE
8
BLACK
6
CONTINUOUS
10
1.72054
20
-2.0665
11
1.72128
21
-2.06538
0
LINE
8
BLACK
6
CONTINUOUS
10
1.72128
20
-2.06538
11
1.7224
21
-2.06463
0
LINE
8
BLACK
6
CONTINUOUS
10
1.7224
20
-2.06463
11
1.72372
21
-2.06437
0
LINE
8
BLACK
6
CONTINUOUS
10
1.72372
20
-2.06437
11
1.73061
21
-2.06437
0
LINE
8
BLACK
6
CONTINUOUS
10
1.73061
20
-2.06437
11
1.73193
21
-2.06463
0
LINE
8
BLACK
6
CONTINUOUS
10
1.75949
20
-2.06463
11
1.76061
21
-2.06538
0
LINE
8
BLACK
6
CONTINUOUS
10
1.76061
20
-2.06538
11
1.76135
21
-2.0665
0
LINE
8
BLACK
6
CONTINUOUS
10
1.76135
20
-2.0665
11
1.76161
21
-2.06781
0
LINE
8
BLACK
6
CONTINUOUS
10
1.76161
20
-2.06781
11
1.76161
21
-2.29715
0
LINE
8
BLACK
6
CONTINUOUS
10
1.76161
20
-2.29715
11
1.76135
21
-2.29846
0
LINE
8
BLACK
6
CONTINUOUS
10
1.76135
20
-2.29846
11
1.76061
21
-2.29958
0
LINE
8
BLACK
6
CONTINUOUS
10
1.76061
20
-2.29958
11
1.75949
21
-2.30033
0
LINE
8
BLACK
6
CONTINUOUS
10
1.75949
20
-2.30033
11
1.75817
21
-2.30059
0
LINE
8
BLACK
6
CONTINUOUS
10
1.75817
20
-2.30059
11
1.75128
21
-2.30059
0
LINE
8
BLACK
6
CONTINUOUS
10
1.75128
20
-2.30059
11
1.74996
21
-2.30033
0
LINE
8
BLACK
6
CONTINUOUS
10
1.74996
20
-2.30033
11
1.74884
21
-2.29958
0
LINE
8
BLACK
6
CONTINUOUS
10
1.74884
20
-2.29958
11
1.7481
21
-2.29846
0
LINE
8
BLACK
6
CONTINUOUS
10
1.7481
20
-2.29846
11
1.74783
21
-2.29715
0
LINE
8
BLACK
6
CONTINUOUS
10
1.74783
20
-2.29715
11
1.74783
21
-2.06781
0
LINE
8
BLACK
6
CONTINUOUS
10
1.74783
20
-2.06781
11
1.7481
21
-2.0665
0
LINE
8
BLACK
6
CONTINUOUS
10
1.7481
20
-2.0665
11
1.74884
21
-2.06538
0
LINE
8
BLACK
6
CONTINUOUS
10
1.74884
20
-2.06538
11
1.74996
21
-2.06463
0
LINE
8
BLACK
6
CONTINUOUS
10
1.74996
20
-2.06463
11
1.75128
21
-2.06437
0
LINE
8
BLACK
6
CONTINUOUS
10
1.75128
20
-2.06437
11
1.75817
21
-2.06437
0
LINE
8
BLACK
6
CONTINUOUS
10
1.75817
20
-2.06437
11
1.75949
21
-2.06463
0
LINE
8
BLACK
6
CONTINUOUS
10
1.78705
20
-2.06463
11
1.78816
21
-2.06538
0
LINE
8
BLACK
6
CONTINUOUS
10
1.78816
20
-2.06538
11
1.78891
21
-2.0665
0
LINE
8
BLACK
6
CONTINUOUS
10
1.78891
20
-2.0665
11
1.78917
21
-2.06781
0
LINE
8
BLACK
6
CONTINUOUS
10
1.78917
20
-2.06781
11
1.78917
21
-2.29715
0
LINE
8
BLACK
6
CONTINUOUS
10
1.78917
20
-2.29715
11
1.78891
21
-2.29846
0
LINE
8
BLACK
6
CONTINUOUS
10
1.78891
20
-2.29846
11
1.78816
21
-2.29958
0
LINE
8
BLACK
6
CONTINUOUS
10
1.78816
20
-2.29958
11
1.78705
21
-2.30033
0
LINE
8
BLACK
6
CONTINUOUS
10
1.78705
20
-2.30033
11
1.78573
21
-2.30059
0
LINE
8
BLACK
6
CONTINUOUS
10
1.78573
20
-2.30059
11
1.77884
21
-2.30059
0
LINE
8
BLACK
6
CONTINUOUS
10
1.77884
20
-2.30059
11
1.77752
21
-2.30033
0
LINE
8
BLACK
6
CONTINUOUS
10
1.77752
20
-2.30033
11
1.7764
21
-2.29958
0
LINE
8
BLACK
6
CONTINUOUS
10
1.7764
20
-2.29958
11
1.77566
21
-2.29846
0
LINE
8
BLACK
6
CONTINUOUS
10
1.77566
20
-2.29846
11
1.77539
21
-2.29715
0
LINE
8
BLACK
6
CONTINUOUS
10
1.77539
20
-2.29715
11
1.77539
21
-2.06781
0
LINE
8
BLACK
6
CONTINUOUS
10
1.77539
20
-2.06781
11
1.77566
21
-2.0665
0
LINE
8
BLACK
6
CONTINUOUS
10
1.77566
20
-2.0665
11
1.7764
21
-2.06538
0
LINE
8
BLACK
6
CONTINUOUS
10
1.7764
20
-2.06538
11
1.77752
21
-2.06463
0
LINE
8
BLACK
6
CONTINUOUS
10
1.77752
20
-2.06463
11
1.77884
21
-2.06437
0
LINE
8
BLACK
6
CONTINUOUS
10
1.77884
20
-2.06437
11
1.78573
21
-2.06437
0
LINE
8
BLACK
6
CONTINUOUS
10
1.78573
20
-2.06437
11
1.78705
21
-2.06463
0
LINE
8
BLACK
6
CONTINUOUS
10
1.81461
20
-2.06463
11
1.81572
21
-2.06538
0
LINE
8
BLACK
6
CONTINUOUS
10
1.81572
20
-2.06538
11
1.81647
21
-2.0665
0
LINE
8
BLACK
6
CONTINUOUS
10
1.81647
20
-2.0665
11
1.81673
21
-2.06781
0
LINE
8
BLACK
6
CONTINUOUS
10
1.81673
20
-2.06781
11
1.81673
21
-2.29715
0
LINE
8
BLACK
6
CONTINUOUS
10
1.81673
20
-2.29715
11
1.81647
21
-2.29846
0
LINE
8
BLACK
6
CONTINUOUS
10
1.81647
20
-2.29846
11
1.81572
21
-2.29958
0
LINE
8
BLACK
6
CONTINUOUS
10
1.81572
20
-2.29958
11
1.81461
21
-2.30033
0
LINE
8
BLACK
6
CONTINUOUS
10
1.81461
20
-2.30033
11
1.81329
21
-2.30059
0
LINE
8
BLACK
6
CONTINUOUS
10
1.81329
20
-2.30059
11
1.8064
21
-2.30059
0
LINE
8
BLACK
6
CONTINUOUS
10
1.8064
20
-2.30059
11
1.80508
21
-2.30033
0
LINE
8
BLACK
6
CONTINUOUS
10
1.80508
20
-2.30033
11
1.80396
21
-2.29958
0
LINE
8
BLACK
6
CONTINUOUS
10
1.80396
20
-2.29958
11
1.80322
21
-2.29846
0
LINE
8
BLACK
6
CONTINUOUS
10
1.80322
20
-2.29846
11
1.80295
21
-2.29715
0
LINE
8
BLACK
6
CONTINUOUS
10
1.80295
20
-2.29715
11
1.80295
21
-2.06781
0
LINE
8
BLACK
6
CONTINUOUS
10
1.80295
20
-2.06781
11
1.80322
21
-2.0665
0
LINE
8
BLACK
6
CONTINUOUS
10
1.80322
20
-2.0665
11
1.80396
21
-2.06538
0
LINE
8
BLACK
6
CONTINUOUS
10
1.80396
20
-2.06538
11
1.80508
21
-2.06463
0
LINE
8
BLACK
6
CONTINUOUS
10
1.80508
20
-2.06463
11
1.8064
21
-2.06437
0
LINE
8
BLACK
6
CONTINUOUS
10
1.8064
20
-2.06437
11
1.81329
21
-2.06437
0
LINE
8
BLACK
6
CONTINUOUS
10
1.81329
20
-2.06437
11
1.81461
21
-2.06463
0
LINE
8
BLACK
6
CONTINUOUS
10
2.1036
20
-1.98801
11
2.10832
21
-1.99104
0
LINE
8
BLACK
6
CONTINUOUS
10
2.10832
20
-1.99104
11
2.11199
21
-1.99527
0
LINE
8
BLACK
6
CONTINUOUS
10
2.11199
20
-1.99527
11
2.11431
21
-2.00037
0
LINE
8
BLACK
6
CONTINUOUS
10
2.11431
20
-2.00037
11
2.11511
21
-2.00592
0
LINE
8
BLACK
6
CONTINUOUS
10
2.11511
20
-2.00592
11
2.11431
21
-2.01146
0
LINE
8
BLACK
6
CONTINUOUS
10
2.11431
20
-2.01146
11
2.11199
21
-2.01656
0
LINE
8
BLACK
6
CONTINUOUS
10
2.11199
20
-2.01656
11
2.10832
21
-2.02079
0
LINE
8
BLACK
6
CONTINUOUS
10
2.10832
20
-2.02079
11
2.1036
21
-2.02382
0
LINE
8
BLACK
6
CONTINUOUS
10
2.1036
20
-2.02382
11
2.09823
21
-2.0254
0
LINE
8
BLACK
6
CONTINUOUS
10
2.09823
20
-2.0254
11
2.09262
21
-2.0254
0
LINE
8
BLACK
6
CONTINUOUS
10
2.09262
20
-2.0254
11
2.08725
21
-2.02382
0
LINE
8
BLACK
6
CONTINUOUS
10
2.08725
20
-2.02382
11
2.08253
21
-2.02079
0
LINE
8
BLACK
6
CONTINUOUS
10
2.08253
20
-2.02079
11
2.07887
21
-2.01656
0
LINE
8
BLACK
6
CONTINUOUS
10
2.07887
20
-2.01656
11
2.07654
21
-2.01146
0
LINE
8
BLACK
6
CONTINUOUS
10
2.07654
20
-2.01146
11
2.07574
21
-2.00592
0
LINE
8
BLACK
6
CONTINUOUS
10
2.07574
20
-2.00592
11
2.07654
21
-2.00037
0
LINE
8
BLACK
6
CONTINUOUS
10
2.07654
20
-2.00037
11
2.07887
21
-1.99527
0
LINE
8
BLACK
6
CONTINUOUS
10
2.07887
20
-1.99527
11
2.08253
21
-1.99104
0
LINE
8
BLACK
6
CONTINUOUS
10
2.08253
20
-1.99104
11
2.08725
21
-1.98801
0
LINE
8
BLACK
6
CONTINUOUS
10
2.08725
20
-1.98801
11
2.09262
21
-1.98643
0
LINE
8
BLACK
6
CONTINUOUS
10
2.09262
20
-1.98643
11
2.09823
21
-1.98643
0
LINE
8
BLACK
6
CONTINUOUS
10
2.09823
20
-1.98643
11
2.1036
21
-1.98801
0
LINE
8
BLACK
6
CONTINUOUS
10
2.19022
20
-1.98801
11
2.19493
21
-1.99104
0
LINE
8
BLACK
6
CONTINUOUS
10
2.19493
20
-1.99104
11
2.1986
21
-1.99527
0
LINE
8
BLACK
6
CONTINUOUS
10
2.1986
20
-1.99527
11
2.20093
21
-2.00037
0
LINE
8
BLACK
6
CONTINUOUS
10
2.20093
20
-2.00037
11
2.20172
21
-2.00592
0
LINE
8
BLACK
6
CONTINUOUS
10
2.20172
20
-2.00592
11
2.20093
21
-2.01146
0
LINE
8
BLACK
6
CONTINUOUS
10
2.20093
20
-2.01146
11
2.1986
21
-2.01656
0
LINE
8
BLACK
6
CONTINUOUS
10
2.1986
20
-2.01656
11
2.19493
21
-2.02079
0
LINE
8
BLACK
6
CONTINUOUS
10
2.19493
20
-2.02079
11
2.19022
21
-2.02382
0
LINE
8
BLACK
6
CONTINUOUS
10
2.19022
20
-2.02382
11
2.18484
21
-2.0254
0
LINE
8
BLACK
6
CONTINUOUS
10
2.18484
20
-2.0254
11
2.17924
21
-2.0254
0
LINE
8
BLACK
6
CONTINUOUS
10
2.17924
20
-2.0254
11
2.17386
21
-2.02382
0
LINE
8
BLACK
6
CONTINUOUS
10
2.17386
20
-2.02382
11
2.16915
21
-2.02079
0
LINE
8
BLACK
6
CONTINUOUS
10
2.16915
20
-2.02079
11
2.16548
21
-2.01656
0
LINE
8
BLACK
6
CONTINUOUS
10
2.16548
20
-2.01656
11
2.16315
21
-2.01146
0
LINE
8
BLACK
6
CONTINUOUS
10
2.16315
20
-2.01146
11
2.16235
21
-2.00592
0
LINE
8
BLACK
6
CONTINUOUS
10
2.16235
20
-2.00592
11
2.16315
21
-2.00037
0
LINE
8
BLACK
6
CONTINUOUS
10
2.16315
20
-2.00037
11
2.16548
21
-1.99527
0
LINE
8
BLACK
6
CONTINUOUS
10
2.16548
20
-1.99527
11
2.16915
21
-1.99104
0
LINE
8
BLACK
6
CONTINUOUS
10
2.16915
20
-1.99104
11
2.17386
21
-1.98801
0
LINE
8
BLACK
6
CONTINUOUS
10
2.17386
20
-1.98801
11
2.17924
21
-1.98643
0
LINE
8
BLACK
6
CONTINUOUS
10
2.17924
20
-1.98643
11
2.18484
21
-1.98643
0
LINE
8
BLACK
6
CONTINUOUS
10
2.18484
20
-1.98643
11
2.19022
21
-1.98801
0
LINE
8
BLACK
6
CONTINUOUS
10
2.27683
20
-1.98801
11
2.28154
21
-1.99104
0
LINE
8
BLACK
6
CONTINUOUS
10
2.28154
20
-1.99104
11
2.28521
21
-1.99527
0
LINE
8
BLACK
6
CONTINUOUS
10
2.28521
20
-1.99527
11
2.28754
21
-2.00037
0
LINE
8
BLACK
6
CONTINUOUS
10
2.28754
20
-2.00037
11
2.28834
21
-2.00592
0
LINE
8
BLACK
6
CONTINUOUS
10
2.28834
20
-2.00592
11
2.28754
21
-2.01146
0
LINE
8
BLACK
6
CONTINUOUS
10
2.28754
20
-2.01146
11
2.28521
21
-2.01656
0
LINE
8
BLACK
6
CONTINUOUS
10
2.28521
20
-2.01656
11
2.28154
21
-2.02079
0
LINE
8
BLACK
6
CONTINUOUS
10
2.28154
20
-2.02079
11
2.27683
21
-2.02382
0
LINE
8
BLACK
6
CONTINUOUS
10
2.27683
20
-2.02382
11
2.27146
21
-2.0254
0
LINE
8
BLACK
6
CONTINUOUS
10
2.27146
20
-2.0254
11
2.26585
21
-2.0254
0
LINE
8
BLACK
6
CONTINUOUS
10
2.26585
20
-2.0254
11
2.26048
21
-2.02382
0
LINE
8
BLACK
6
CONTINUOUS
10
2.26048
20
-2.02382
11
2.25576
21
-2.02079
0
LINE
8
BLACK
6
CONTINUOUS
10
2.25576
20
-2.02079
11
2.25209
21
-2.01656
0
LINE
8
BLACK
6
CONTINUOUS
10
2.25209
20
-2.01656
11
2.24977
21
-2.01146
0
LINE
8
BLACK
6
CONTINUOUS
10
2.24977
20
-2.01146
11
2.24897
21
-2.00592
0
LINE
8
BLACK
6
CONTINUOUS
10
2.24897
20
-2.00592
11
2.24977
21
-2.00037
0
LINE
8
BLACK
6
CONTINUOUS
10
2.24977
20
-2.00037
11
2.25209
21
-1.99527
0
LINE
8
BLACK
6
CONTINUOUS
10
2.25209
20
-1.99527
11
2.25576
21
-1.99104
0
LINE
8
BLACK
6
CONTINUOUS
10
2.25576
20
-1.99104
11
2.26048
21
-1.98801
0
LINE
8
BLACK
6
CONTINUOUS
10
2.26048
20
-1.98801
11
2.26585
21
-1.98643
0
LINE
8
BLACK
6
CONTINUOUS
10
2.26585
20
-1.98643
11
2.27146
21
-1.98643
0
LINE
8
BLACK
6
CONTINUOUS
10
2.27146
20
-1.98643
11
2.27683
21
-1.98801
0
LINE
8
BLACK
6
CONTINUOUS
10
0.436811
20
-1.97822
11
0.395472
21
-1.97822
0
LINE
8
BLACK
6
CONTINUOUS
10
0.395472
20
-1.97822
11
0.395472
21
-1.95262
0
LINE
8
BLACK
6
CONTINUOUS
10
0.395472
20
-1.95262
11
0.436811
21
-1.95262
0
LINE
8
BLACK
6
CONTINUOUS
10
0.436811
20
-1.95262
11
0.436811
21
-1.97822
0
LINE
8
BLACK
6
CONTINUOUS
10
0.599213
20
-1.97822
11
0.557874
21
-1.97822
0
LINE
8
BLACK
6
CONTINUOUS
10
0.557874
20
-1.97822
11
0.557874
21
-1.95262
0
LINE
8
BLACK
6
CONTINUOUS
10
0.557874
20
-1.95262
11
0.599213
21
-1.95262
0
LINE
8
BLACK
6
CONTINUOUS
10
0.599213
20
-1.95262
11
0.599213
21
-1.97822
0
LINE
8
BLACK
6
CONTINUOUS
10
2.67126
20
-1.93346
11
2.60433
21
-1.93346
0
LINE
8
BLACK
6
CONTINUOUS
10
2.60433
20
-1.93346
11
2.60433
21
-1.86654
0
LINE
8
BLACK
6
CONTINUOUS
10
2.60433
20
-1.86654
11
2.67126
21
-1.86654
0
LINE
8
BLACK
6
CONTINUOUS
10
2.67126
20
-1.86654
11
2.67126
21
-1.93346
0
LINE
8
BLACK
6
CONTINUOUS
10
0.435827
20
-1.89357
11
0.394488
21
-1.89357
0
LINE
8
BLACK
6
CONTINUOUS
10
0.394488
20
-1.89357
11
0.394488
21
-1.86798
0
LINE
8
BLACK
6
CONTINUOUS
10
0.394488
20
-1.86798
11
0.435827
21
-1.86798
0
LINE
8
BLACK
6
CONTINUOUS
10
0.435827
20
-1.86798
11
0.435827
21
-1.89357
0
LINE
8
BLACK
6
CONTINUOUS
10
0.599213
20
-1.89357
11
0.557874
21
-1.89357
0
LINE
8
BLACK
6
CONTINUOUS
10
0.557874
20
-1.89357
11
0.557874
21
-1.86798
0
LINE
8
BLACK
6
CONTINUOUS
10
0.557874
20
-1.86798
11
0.599213
21
-1.86798
0
LINE
8
BLACK
6
CONTINUOUS
10
0.599213
20
-1.86798
11
0.599213
21
-1.89357
0
LINE
8
BLACK
6
CONTINUOUS
10
2.64814
20
-1.76817
11
2.65453
21
-1.77102
0
LINE
8
BLACK
6
CONTINUOUS
10
2.65453
20
-1.77102
11
2.66019
21
-1.77513
0
LINE
8
BLACK
6
CONTINUOUS
10
2.66019
20
-1.77513
11
2.66487
21
-1.78033
0
LINE
8
BLACK
6
CONTINUOUS
10
2.66487
20
-1.78033
11
2.66837
21
-1.78639
0
LINE
8
BLACK
6
CONTINUOUS
10
2.66837
20
-1.78639
11
2.67053
21
-1.79304
0
LINE
8
BLACK
6
CONTINUOUS
10
2.67053
20
-1.79304
11
2.67126
21
-1.8
0
LINE
8
BLACK
6
CONTINUOUS
10
2.67126
20
-1.8
11
2.67053
21
-1.80696
0
LINE
8
BLACK
6
CONTINUOUS
10
2.67053
20
-1.80696
11
2.66837
21
-1.81361
0
LINE
8
BLACK
6
CONTINUOUS
10
2.66837
20
-1.81361
11
2.66487
21
-1.81967
0
LINE
8
BLACK
6
CONTINUOUS
10
2.66487
20
-1.81967
11
2.66019
21
-1.82487
0
LINE
8
BLACK
6
CONTINUOUS
10
2.66019
20
-1.82487
11
2.65453
21
-1.82898
0
LINE
8
BLACK
6
CONTINUOUS
10
2.65453
20
-1.82898
11
2.64814
21
-1.83183
0
LINE
8
BLACK
6
CONTINUOUS
10
2.64814
20
-1.83183
11
2.64129
21
-1.83328
0
LINE
8
BLACK
6
CONTINUOUS
10
2.64129
20
-1.83328
11
2.6343
21
-1.83328
0
LINE
8
BLACK
6
CONTINUOUS
10
2.6343
20
-1.83328
11
2.62745
21
-1.83183
0
LINE
8
BLACK
6
CONTINUOUS
10
2.62745
20
-1.83183
11
2.62106
21
-1.82898
0
LINE
8
BLACK
6
CONTINUOUS
10
2.62106
20
-1.82898
11
2.6154
21
-1.82487
0
LINE
8
BLACK
6
CONTINUOUS
10
2.6154
20
-1.82487
11
2.61072
21
-1.81967
0
LINE
8
BLACK
6
CONTINUOUS
10
2.61072
20
-1.81967
11
2.60722
21
-1.81361
0
LINE
8
BLACK
6
CONTINUOUS
10
2.60722
20
-1.81361
11
2.60506
21
-1.80696
0
LINE
8
BLACK
6
CONTINUOUS
10
2.60506
20
-1.80696
11
2.60433
21
-1.8
0
LINE
8
BLACK
6
CONTINUOUS
10
2.60433
20
-1.8
11
2.60506
21
-1.79304
0
LINE
8
BLACK
6
CONTINUOUS
10
2.60506
20
-1.79304
11
2.60722
21
-1.78639
0
LINE
8
BLACK
6
CONTINUOUS
10
2.60722
20
-1.78639
11
2.61072
21
-1.78033
0
LINE
8
BLACK
6
CONTINUOUS
10
2.61072
20
-1.78033
11
2.6154
21
-1.77513
0
LINE
8
BLACK
6
CONTINUOUS
10
2.6154
20
-1.77513
11
2.62106
21
-1.77102
0
LINE
8
BLACK
6
CONTINUOUS
10
2.62106
20
-1.77102
11
2.62745
21
-1.76817
0
LINE
8
BLACK
6
CONTINUOUS
10
2.62745
20
-1.76817
11
2.6343
21
-1.76672
0
LINE
8
BLACK
6
CONTINUOUS
10
2.6343
20
-1.76672
11
2.64129
21
-1.76672
0
LINE
8
BLACK
6
CONTINUOUS
10
2.64129
20
-1.76672
11
2.64814
21
-1.76817
0
LINE
8
BLACK
6
CONTINUOUS
10
2.64814
20
-1.66817
11
2.65453
21
-1.67102
0
LINE
8
BLACK
6
CONTINUOUS
10
2.65453
20
-1.67102
11
2.66019
21
-1.67513
0
LINE
8
BLACK
6
CONTINUOUS
10
2.66019
20
-1.67513
11
2.66487
21
-1.68033
0
LINE
8
BLACK
6
CONTINUOUS
10
2.66487
20
-1.68033
11
2.66837
21
-1.68639
0
LINE
8
BLACK
6
CONTINUOUS
10
2.66837
20
-1.68639
11
2.67053
21
-1.69304
0
LINE
8
BLACK
6
CONTINUOUS
10
2.67053
20
-1.69304
11
2.67126
21
-1.7
0
LINE
8
BLACK
6
CONTINUOUS
10
2.67126
20
-1.7
11
2.67053
21
-1.70696
0
LINE
8
BLACK
6
CONTINUOUS
10
2.67053
20
-1.70696
11
2.66837
21
-1.71361
0
LINE
8
BLACK
6
CONTINUOUS
10
2.66837
20
-1.71361
11
2.66487
21
-1.71967
0
LINE
8
BLACK
6
CONTINUOUS
10
2.66487
20
-1.71967
11
2.66019
21
-1.72487
0
LINE
8
BLACK
6
CONTINUOUS
10
2.66019
20
-1.72487
11
2.65453
21
-1.72898
0
LINE
8
BLACK
6
CONTINUOUS
10
2.65453
20
-1.72898
11
2.64814
21
-1.73183
0
LINE
8
BLACK
6
CONTINUOUS
10
2.64814
20
-1.73183
11
2.64129
21
-1.73328
0
LINE
8
BLACK
6
CONTINUOUS
10
2.64129
20
-1.73328
11
2.6343
21
-1.73328
0
LINE
8
BLACK
6
CONTINUOUS
10
2.6343
20
-1.73328
11
2.62745
21
-1.73183
0
LINE
8
BLACK
6
CONTINUOUS
10
2.62745
20
-1.73183
11
2.62106
21
-1.72898
0
LINE
8
BLACK
6
CONTINUOUS
10
2.62106
20
-1.72898
11
2.6154
21
-1.72487
0
LINE
8
BLACK
6
CONTINUOUS
10
2.6154
20
-1.72487
11
2.61072
21
-1.71967
0
LINE
8
BLACK
6
CONTINUOUS
10
2.61072
20
-1.71967
11
2.60722
21
-1.71361
0
LINE
8
BLACK
6
CONTINUOUS
10
2.60722
20
-1.71361
11
2.60506
21
-1.70696
0
LINE
8
BLACK
6
CONTINUOUS
10
2.60506
20
-1.70696
11
2.60433
21
-1.7
0
LINE
8
BLACK
6
CONTINUOUS
10
2.60433
20
-1.7
11
2.60506
21
-1.69304
0
LINE
8
BLACK
6
CONTINUOUS
10
2.60506
20
-1.69304
11
2.60722
21
-1.68639
0
LINE
8
BLACK
6
CONTINUOUS
10
2.60722
20
-1.68639
11
2.61072
21
-1.68033
0
LINE
8
BLACK
6
CONTINUOUS
10
2.61072
20
-1.68033
11
2.6154
21
-1.67513
0
LINE
8
BLACK
6
CONTINUOUS
10
2.6154
20
-1.67513
11
2.62106
21
-1.67102
0
LINE
8
BLACK
6
CONTINUOUS
10
2.62106
20
-1.67102
11
2.62745
21
-1.66817
0
LINE
8
BLACK
6
CONTINUOUS
10
2.62745
20
-1.66817
11
2.6343
21
-1.66672
0
LINE
8
BLACK
6
CONTINUOUS
10
2.6343
20
-1.66672
11
2.64129
21
-1.66672
0
LINE
8
BLACK
6
CONTINUOUS
10
2.64129
20
-1.66672
11
2.64814
21
-1.66817
0
LINE
8
BLACK
6
CONTINUOUS
10
0.436811
20
-1.71619
11
0.395472
21
-1.71619
0
LINE
8
BLACK
6
CONTINUOUS
10
0.395472
20
-1.71619
11
0.395472
21
-1.69059
0
LINE
8
BLACK
6
CONTINUOUS
10
0.395472
20
-1.69059
11
0.436811
21
-1.69059
0
LINE
8
BLACK
6
CONTINUOUS
10
0.436811
20
-1.69059
11
0.436811
21
-1.71619
0
LINE
8
BLACK
6
CONTINUOUS
10
0.599213
20
-1.71619
11
0.557874
21
-1.71619
0
LINE
8
BLACK
6
CONTINUOUS
10
0.557874
20
-1.71619
11
0.557874
21
-1.69059
0
LINE
8
BLACK
6
CONTINUOUS
10
0.557874
20
-1.69059
11
0.599213
21
-1.69059
0
LINE
8
BLACK
6
CONTINUOUS
10
0.599213
20
-1.69059
11
0.599213
21
-1.71619
0
LINE
8
BLACK
6
CONTINUOUS
10
2.64814
20
-1.56817
11
2.65453
21
-1.57102
0
LINE
8
BLACK
6
CONTINUOUS
10
2.65453
20
-1.57102
11
2.66019
21
-1.57513
0
LINE
8
BLACK
6
CONTINUOUS
10
2.66019
20
-1.57513
11
2.66487
21
-1.58033
0
LINE
8
BLACK
6
CONTINUOUS
10
2.66487
20
-1.58033
11
2.66837
21
-1.58639
0
LINE
8
BLACK
6
CONTINUOUS
10
2.66837
20
-1.58639
11
2.67053
21
-1.59304
0
LINE
8
BLACK
6
CONTINUOUS
10
2.67053
20
-1.59304
11
2.67126
21
-1.6
0
LINE
8
BLACK
6
CONTINUOUS
10
2.67126
20
-1.6
11
2.67053
21
-1.60696
0
LINE
8
BLACK
6
CONTINUOUS
10
2.67053
20
-1.60696
11
2.66837
21
-1.61361
0
LINE
8
BLACK
6
CONTINUOUS
10
2.66837
20
-1.61361
11
2.66487
21
-1.61967
0
LINE
8
BLACK
6
CONTINUOUS
10
2.66487
20
-1.61967
11
2.66019
21
-1.62487
0
LINE
8
BLACK
6
CONTINUOUS
10
2.66019
20
-1.62487
11
2.65453
21
-1.62898
0
LINE
8
BLACK
6
CONTINUOUS
10
2.65453
20
-1.62898
11
2.64814
21
-1.63183
0
LINE
8
BLACK
6
CONTINUOUS
10
2.64814
20
-1.63183
11
2.64129
21
-1.63328
0
LINE
8
BLACK
6
CONTINUOUS
10
2.64129
20
-1.63328
11
2.6343
21
-1.63328
0
LINE
8
BLACK
6
CONTINUOUS
10
2.6343
20
-1.63328
11
2.62745
21
-1.63183
0
LINE
8
BLACK
6
CONTINUOUS
10
2.62745
20
-1.63183
11
2.62106
21
-1.62898
0
LINE
8
BLACK
6
CONTINUOUS
10
2.62106
20
-1.62898
11
2.6154
21
-1.62487
0
LINE
8
BLACK
6
CONTINUOUS
10
2.6154
20
-1.62487
11
2.61072
21
-1.61967
0
LINE
8
BLACK
6
CONTINUOUS
10
2.61072
20
-1.61967
11
2.60722
21
-1.61361
0
LINE
8
BLACK
6
CONTINUOUS
10
2.60722
20
-1.61361
11
2.60506
21
-1.60696
0
LINE
8
BLACK
6
CONTINUOUS
10
2.60506
20
-1.60696
11
2.60433
21
-1.6
0
LINE
8
BLACK
6
CONTINUOUS
10
2.60433
20
-1.6
11
2.60506
21
-1.59304
0
LINE
8
BLACK
6
CONTINUOUS
10
2.60506
20
-1.59304
11
2.60722
21
-1.58639
0
LINE
8
BLACK
6
CONTINUOUS
10
2.60722
20
-1.58639
11
2.61072
21
-1.58033
0
LINE
8
BLACK
6
CONTINUOUS
10
2.61072
20
-1.58033
11
2.6154
21
-1.57513
0
LINE
8
BLACK
6
CONTINUOUS
10
2.6154
20
-1.57513
11
2.62106
21
-1.57102
0
LINE
8
BLACK
6
CONTINUOUS
10
2.62106
20
-1.57102
11
2.62745
21
-1.56817
0
LINE
8
BLACK
6
CONTINUOUS
10
2.62745
20
-1.56817
11
2.6343
21
-1.56672
0
LINE
8
BLACK
6
CONTINUOUS
10
2.6343
20
-1.56672
11
2.64129
21
-1.56672
0
LINE
8
BLACK
6
CONTINUOUS
10
2.64129
20
-1.56672
11
2.64814
21
-1.56817
0
LINE
8
BLACK
6
CONTINUOUS
10
0.435827
20
-1.63154
11
0.394488
21
-1.63154
0
LINE
8
BLACK
6
CONTINUOUS
10
0.394488
20
-1.63154
11
0.394488
21
-1.60595
0
LINE
8
BLACK
6
CONTINUOUS
10
0.394488
20
-1.60595
11
0.435827
21
-1.60595
0
LINE
8
BLACK
6
CONTINUOUS
10
0.435827
20
-1.60595
11
0.435827
21
-1.63154
0
LINE
8
BLACK
6
CONTINUOUS
10
0.599213
20
-1.63154
11
0.557874
21
-1.63154
0
LINE
8
BLACK
6
CONTINUOUS
10
0.557874
20
-1.63154
11
0.557874
21
-1.60595
0
LINE
8
BLACK
6
CONTINUOUS
10
0.557874
20
-1.60595
11
0.599213
21
-1.60595
0
LINE
8
BLACK
6
CONTINUOUS
10
0.599213
20
-1.60595
11
0.599213
21
-1.63154
0
LINE
8
BLACK
6
CONTINUOUS
10
0.435827
20
-1.45416
11
0.394488
21
-1.45416
0
LINE
8
BLACK
6
CONTINUOUS
10
0.394488
20
-1.45416
11
0.394488
21
-1.42857
0
LINE
8
BLACK
6
CONTINUOUS
10
0.394488
20
-1.42857
11
0.435827
21
-1.42857
0
LINE
8
BLACK
6
CONTINUOUS
10
0.435827
20
-1.42857
11
0.435827
21
-1.45416
0
LINE
8
BLACK
6
CONTINUOUS
10
0.599213
20
-1.45416
11
0.557874
21
-1.45416
0
LINE
8
BLACK
6
CONTINUOUS
10
0.557874
20
-1.45416
11
0.557874
21
-1.42857
0
LINE
8
BLACK
6
CONTINUOUS
10
0.557874
20
-1.42857
11
0.599213
21
-1.42857
0
LINE
8
BLACK
6
CONTINUOUS
10
0.599213
20
-1.42857
11
0.599213
21
-1.45416
0
LINE
8
BLACK
6
CONTINUOUS
10
0.435827
20
-1.36951
11
0.394488
21
-1.36951
0
LINE
8
BLACK
6
CONTINUOUS
10
0.394488
20
-1.36951
11
0.394488
21
-1.34392
0
LINE
8
BLACK
6
CONTINUOUS
10
0.394488
20
-1.34392
11
0.435827
21
-1.34392
0
LINE
8
BLACK
6
CONTINUOUS
10
0.435827
20
-1.34392
11
0.435827
21
-1.36951
0
LINE
8
BLACK
6
CONTINUOUS
10
0.598228
20
-1.36951
11
0.55689
21
-1.36951
0
LINE
8
BLACK
6
CONTINUOUS
10
0.55689
20
-1.36951
11
0.55689
21
-1.34392
0
LINE
8
BLACK
6
CONTINUOUS
10
0.55689
20
-1.34392
11
0.598228
21
-1.34392
0
LINE
8
BLACK
6
CONTINUOUS
10
0.598228
20
-1.34392
11
0.598228
21
-1.36951
0
LINE
8
BLACK
6
CONTINUOUS
10
0.496654
20
-1.05531
11
0.346654
21
-1.05531
0
LINE
8
BLACK
6
CONTINUOUS
10
0.346654
20
-1.05531
11
0.346654
21
-0.905315
0
LINE
8
BLACK
6
CONTINUOUS
10
0.346654
20
-0.905315
11
0.496654
21
-0.905315
0
LINE
8
BLACK
6
CONTINUOUS
10
0.496654
20
-0.905315
11
0.496654
21
-1.05531
0
LINE
8
BLACK
6
CONTINUOUS
10
0.374606
20
-0.858465
11
0.224606
21
-0.858465
0
LINE
8
BLACK
6
CONTINUOUS
10
0.224606
20
-0.858465
11
0.224606
21
-0.708465
0
LINE
8
BLACK
6
CONTINUOUS
10
0.224606
20
-0.708465
11
0.374606
21
-0.708465
0
LINE
8
BLACK
6
CONTINUOUS
10
0.374606
20
-0.708465
11
0.374606
21
-0.858465
0
LINE
8
BLACK
6
CONTINUOUS
10
0.618701
20
-0.858465
11
0.468701
21
-0.858465
0
LINE
8
BLACK
6
CONTINUOUS
10
0.468701
20
-0.858465
11
0.468701
21
-0.708465
0
LINE
8
BLACK
6
CONTINUOUS
10
0.468701
20
-0.708465
11
0.618701
21
-0.708465
0
LINE
8
BLACK
6
CONTINUOUS
10
0.618701
20
-0.708465
11
0.618701
21
-0.858465
0
LINE
8
BLACK
6
CONTINUOUS
10
1.28343
20
-0.633014
11
1.28975
21
-0.635227
0
LINE
8
BLACK
6
CONTINUOUS
10
1.28975
20
-0.635227
11
1.29543
21
-0.638791
0
LINE
8
BLACK
6
CONTINUOUS
10
1.29543
20
-0.638791
11
1.30017
21
-0.643529
0
LINE
8
BLACK
6
CONTINUOUS
10
1.30017
20
-0.643529
11
1.30373
21
-0.649202
0
LINE
8
BLACK
6
CONTINUOUS
10
1.30373
20
-0.649202
11
1.30594
21
-0.655527
0
LINE
8
BLACK
6
CONTINUOUS
10
1.30594
20
-0.655527
11
1.30669
21
-0.662185
0
LINE
8
BLACK
6
CONTINUOUS
10
1.30669
20
-0.662185
11
1.30594
21
-0.668843
0
LINE
8
BLACK
6
CONTINUOUS
10
1.30594
20
-0.668843
11
1.30373
21
-0.675167
0
LINE
8
BLACK
6
CONTINUOUS
10
1.30373
20
-0.675167
11
1.30017
21
-0.68084
0
LINE
8
BLACK
6
CONTINUOUS
10
1.30017
20
-0.68084
11
1.29543
21
-0.685578
0
LINE
8
BLACK
6
CONTINUOUS
10
1.29543
20
-0.685578
11
1.28975
21
-0.689143
0
LINE
8
BLACK
6
CONTINUOUS
10
1.28975
20
-0.689143
11
1.28343
21
-0.691356
0
LINE
8
BLACK
6
CONTINUOUS
10
1.28343
20
-0.691356
11
1.27677
21
-0.692106
0
LINE
8
BLACK
6
CONTINUOUS
10
1.27677
20
-0.692106
11
1.27011
21
-0.691356
0
LINE
8
BLACK
6
CONTINUOUS
10
1.27011
20
-0.691356
11
1.26379
21
-0.689143
0
LINE
8
BLACK
6
CONTINUOUS
10
1.26379
20
-0.689143
11
1.25812
21
-0.685578
0
LINE
8
BLACK
6
CONTINUOUS
10
1.25812
20
-0.685578
11
1.25338
21
-0.68084
0
LINE
8
BLACK
6
CONTINUOUS
10
1.25338
20
-0.68084
11
1.24981
21
-0.675167
0
LINE
8
BLACK
6
CONTINUOUS
10
1.24981
20
-0.675167
11
1.2476
21
-0.668843
0
LINE
8
BLACK
6
CONTINUOUS
10
1.2476
20
-0.668843
11
1.24685
21
-0.662185
0
LINE
8
BLACK
6
CONTINUOUS
10
1.24685
20
-0.662185
11
1.2476
21
-0.655527
0
LINE
8
BLACK
6
CONTINUOUS
10
1.2476
20
-0.655527
11
1.24981
21
-0.649202
0
LINE
8
BLACK
6
CONTINUOUS
10
1.24981
20
-0.649202
11
1.25338
21
-0.643529
0
LINE
8
BLACK
6
CONTINUOUS
10
1.25338
20
-0.643529
11
1.25812
21
-0.638791
0
LINE
8
BLACK
6
CONTINUOUS
10
1.25812
20
-0.638791
11
1.26379
21
-0.635227
0
LINE
8
BLACK
6
CONTINUOUS
10
1.26379
20
-0.635227
11
1.27011
21
-0.633014
0
LINE
8
BLACK
6
CONTINUOUS
10
1.27011
20
-0.633014
11
1.27677
21
-0.632263
0
LINE
8
BLACK
6
CONTINUOUS
10
1.27677
20
-0.632263
11
1.28343
21
-0.633014
0
LINE
8
BLACK
6
CONTINUOUS
10
1.38343
20
-0.633014
11
1.38975
21
-0.635227
0
LINE
8
BLACK
6
CONTINUOUS
10
1.38975
20
-0.635227
11
1.39543
21
-0.638791
0
LINE
8
BLACK
6
CONTINUOUS
10
1.39543
20
-0.638791
11
1.40017
21
-0.643529
0
LINE
8
BLACK
6
CONTINUOUS
10
1.40017
20
-0.643529
11
1.40373
21
-0.649202
0
LINE
8
BLACK
6
CONTINUOUS
10
1.40373
20
-0.649202
11
1.40594
21
-0.655527
0
LINE
8
BLACK
6
CONTINUOUS
10
1.40594
20
-0.655527
11
1.40669
21
-0.662185
0
LINE
8
BLACK
6
CONTINUOUS
10
1.40669
20
-0.662185
11
1.40594
21
-0.668843
0
LINE
8
BLACK
6
CONTINUOUS
10
1.40594
20
-0.668843
11
1.40373
21
-0.675167
0
LINE
8
BLACK
6
CONTINUOUS
10
1.40373
20
-0.675167
11
1.40017
21
-0.68084
0
LINE
8
BLACK
6
CONTINUOUS
10
1.40017
20
-0.68084
11
1.39543
21
-0.685578
0
LINE
8
BLACK
6
CONTINUOUS
10
1.39543
20
-0.685578
11
1.38975
21
-0.689143
0
LINE
8
BLACK
6
CONTINUOUS
10
1.38975
20
-0.689143
11
1.38343
21
-0.691356
0
LINE
8
BLACK
6
CONTINUOUS
10
1.38343
20
-0.691356
11
1.37677
21
-0.692106
0
LINE
8
BLACK
6
CONTINUOUS
10
1.37677
20
-0.692106
11
1.37011
21
-0.691356
0
LINE
8
BLACK
6
CONTINUOUS
10
1.37011
20
-0.691356
11
1.36379
21
-0.689143
0
LINE
8
BLACK
6
CONTINUOUS
10
1.36379
20
-0.689143
11
1.35812
21
-0.685578
0
LINE
8
BLACK
6
CONTINUOUS
10
1.35812
20
-0.685578
11
1.35338
21
-0.68084
0
LINE
8
BLACK
6
CONTINUOUS
10
1.35338
20
-0.68084
11
1.34981
21
-0.675167
0
LINE
8
BLACK
6
CONTINUOUS
10
1.34981
20
-0.675167
11
1.3476
21
-0.668843
0
LINE
8
BLACK
6
CONTINUOUS
10
1.3476
20
-0.668843
11
1.34685
21
-0.662185
0
LINE
8
BLACK
6
CONTINUOUS
10
1.34685
20
-0.662185
11
1.3476
21
-0.655527
0
LINE
8
BLACK
6
CONTINUOUS
10
1.3476
20
-0.655527
11
1.34981
21
-0.649202
0
LINE
8
BLACK
6
CONTINUOUS
10
1.34981
20
-0.649202
11
1.35338
21
-0.643529
0
LINE
8
BLACK
6
CONTINUOUS
10
1.35338
20
-0.643529
11
1.35812
21
-0.638791
0
LINE
8
BLACK
6
CONTINUOUS
10
1.35812
20
-0.638791
11
1.36379
21
-0.635227
0
LINE
8
BLACK
6
CONTINUOUS
10
1.36379
20
-0.635227
11
1.37011
21
-0.633014
0
LINE
8
BLACK
6
CONTINUOUS
10
1.37011
20
-0.633014
11
1.37677
21
-0.632263
0
LINE
8
BLACK
6
CONTINUOUS
10
1.37677
20
-0.632263
11
1.38343
21
-0.633014
0
LINE
8
BLACK
6
CONTINUOUS
10
1.50669
20
-0.692106
11
1.44685
21
-0.692106
0
LINE
8
BLACK
6
CONTINUOUS
10
1.44685
20
-0.692106
11
1.44685
21
-0.632263
0
LINE
8
BLACK
6
CONTINUOUS
10
1.44685
20
-0.632263
11
1.50669
21
-0.632263
0
LINE
8
BLACK
6
CONTINUOUS
10
1.50669
20
-0.632263
11
1.50669
21
-0.692106
0
LINE
8
BLACK
6
CONTINUOUS
10
2.70347
20
-0.557696
11
2.70936
21
-0.560784
0
LINE
8
BLACK
6
CONTINUOUS
10
2.70936
20
-0.560784
11
2.71433
21
-0.56519
0
LINE
8
BLACK
6
CONTINUOUS
10
2.71433
20
-0.56519
11
2.7181
21
-0.570657
0
LINE
8
BLACK
6
CONTINUOUS
10
2.7181
20
-0.570657
11
2.72046
21
-0.576869
0
LINE
8
BLACK
6
CONTINUOUS
10
2.72046
20
-0.576869
11
2.72126
21
-0.583465
0
LINE
8
BLACK
6
CONTINUOUS
10
2.72126
20
-0.583465
11
2.72046
21
-0.59006
0
LINE
8
BLACK
6
CONTINUOUS
10
2.72046
20
-0.59006
11
2.7181
21
-0.596272
0
LINE
8
BLACK
6
CONTINUOUS
10
2.7181
20
-0.596272
11
2.71433
21
-0.60174
0
LINE
8
BLACK
6
CONTINUOUS
10
2.71433
20
-0.60174
11
2.70936
21
-0.606145
0
LINE
8
BLACK
6
CONTINUOUS
10
2.70936
20
-0.606145
11
2.70347
21
-0.609233
0
LINE
8
BLACK
6
CONTINUOUS
10
2.70347
20
-0.609233
11
2.69702
21
-0.610823
0
LINE
8
BLACK
6
CONTINUOUS
10
2.69702
20
-0.610823
11
2.69038
21
-0.610823
0
LINE
8
BLACK
6
CONTINUOUS
10
2.69038
20
-0.610823
11
2.68393
21
-0.609233
0
LINE
8
BLACK
6
CONTINUOUS
10
2.68393
20
-0.609233
11
2.67805
21
-0.606145
0
LINE
8
BLACK
6
CONTINUOUS
10
2.67805
20
-0.606145
11
2.67307
21
-0.60174
0
LINE
8
BLACK
6
CONTINUOUS
10
2.67307
20
-0.60174
11
2.6693
21
-0.596272
0
LINE
8
BLACK
6
CONTINUOUS
10
2.6693
20
-0.596272
11
2.66694
21
-0.59006
0
LINE
8
BLACK
6
CONTINUOUS
10
2.66694
20
-0.59006
11
2.66614
21
-0.583465
0
LINE
8
BLACK
6
CONTINUOUS
10
2.66614
20
-0.583465
11
2.66694
21
-0.576869
0
LINE
8
BLACK
6
CONTINUOUS
10
2.66694
20
-0.576869
11
2.6693
21
-0.570657
0
LINE
8
BLACK
6
CONTINUOUS
10
2.6693
20
-0.570657
11
2.67307
21
-0.56519
0
LINE
8
BLACK
6
CONTINUOUS
10
2.67307
20
-0.56519
11
2.67805
21
-0.560784
0
LINE
8
BLACK
6
CONTINUOUS
10
2.67805
20
-0.560784
11
2.68393
21
-0.557696
0
LINE
8
BLACK
6
CONTINUOUS
10
2.68393
20
-0.557696
11
2.69038
21
-0.556106
0
LINE
8
BLACK
6
CONTINUOUS
10
2.69038
20
-0.556106
11
2.69702
21
-0.556106
0
LINE
8
BLACK
6
CONTINUOUS
10
2.69702
20
-0.556106
11
2.70347
21
-0.557696
0
LINE
8
BLACK
6
CONTINUOUS
10
1.23343
20
-0.533014
11
1.23975
21
-0.535227
0
LINE
8
BLACK
6
CONTINUOUS
10
1.23975
20
-0.535227
11
1.24543
21
-0.538791
0
LINE
8
BLACK
6
CONTINUOUS
10
1.24543
20
-0.538791
11
1.25017
21
-0.543529
0
LINE
8
BLACK
6
CONTINUOUS
10
1.25017
20
-0.543529
11
1.25373
21
-0.549202
0
LINE
8
BLACK
6
CONTINUOUS
10
1.25373
20
-0.549202
11
1.25594
21
-0.555527
0
LINE
8
BLACK
6
CONTINUOUS
10
1.25594
20
-0.555527
11
1.25669
21
-0.562185
0
LINE
8
BLACK
6
CONTINUOUS
10
1.25669
20
-0.562185
11
1.25594
21
-0.568843
0
LINE
8
BLACK
6
CONTINUOUS
10
1.25594
20
-0.568843
11
1.25373
21
-0.575167
0
LINE
8
BLACK
6
CONTINUOUS
10
1.25373
20
-0.575167
11
1.25017
21
-0.58084
0
LINE
8
BLACK
6
CONTINUOUS
10
1.25017
20
-0.58084
11
1.24543
21
-0.585578
0
LINE
8
BLACK
6
CONTINUOUS
10
1.24543
20
-0.585578
11
1.23975
21
-0.589143
0
LINE
8
BLACK
6
CONTINUOUS
10
1.23975
20
-0.589143
11
1.23343
21
-0.591356
0
LINE
8
BLACK
6
CONTINUOUS
10
1.23343
20
-0.591356
11
1.22677
21
-0.592106
0
LINE
8
BLACK
6
CONTINUOUS
10
1.22677
20
-0.592106
11
1.22011
21
-0.591356
0
LINE
8
BLACK
6
CONTINUOUS
10
1.22011
20
-0.591356
11
1.21379
21
-0.589143
0
LINE
8
BLACK
6
CONTINUOUS
10
1.21379
20
-0.589143
11
1.20812
21
-0.585578
0
LINE
8
BLACK
6
CONTINUOUS
10
1.20812
20
-0.585578
11
1.20338
21
-0.58084
0
LINE
8
BLACK
6
CONTINUOUS
10
1.20338
20
-0.58084
11
1.19981
21
-0.575167
0
LINE
8
BLACK
6
CONTINUOUS
10
1.19981
20
-0.575167
11
1.1976
21
-0.568843
0
LINE
8
BLACK
6
CONTINUOUS
10
1.1976
20
-0.568843
11
1.19685
21
-0.562185
0
LINE
8
BLACK
6
CONTINUOUS
10
1.19685
20
-0.562185
11
1.1976
21
-0.555527
0
LINE
8
BLACK
6
CONTINUOUS
10
1.1976
20
-0.555527
11
1.19981
21
-0.549202
0
LINE
8
BLACK
6
CONTINUOUS
10
1.19981
20
-0.549202
11
1.20338
21
-0.543529
0
LINE
8
BLACK
6
CONTINUOUS
10
1.20338
20
-0.543529
11
1.20812
21
-0.538791
0
LINE
8
BLACK
6
CONTINUOUS
10
1.20812
20
-0.538791
11
1.21379
21
-0.535227
0
LINE
8
BLACK
6
CONTINUOUS
10
1.21379
20
-0.535227
11
1.22011
21
-0.533014
0
LINE
8
BLACK
6
CONTINUOUS
10
1.22011
20
-0.533014
11
1.22677
21
-0.532263
0
LINE
8
BLACK
6
CONTINUOUS
10
1.22677
20
-0.532263
11
1.23343
21
-0.533014
0
LINE
8
BLACK
6
CONTINUOUS
10
1.33343
20
-0.533014
11
1.33975
21
-0.535227
0
LINE
8
BLACK
6
CONTINUOUS
10
1.33975
20
-0.535227
11
1.34543
21
-0.538791
0
LINE
8
BLACK
6
CONTINUOUS
10
1.34543
20
-0.538791
11
1.35017
21
-0.543529
0
LINE
8
BLACK
6
CONTINUOUS
10
1.35017
20
-0.543529
11
1.35373
21
-0.549202
0
LINE
8
BLACK
6
CONTINUOUS
10
1.35373
20
-0.549202
11
1.35594
21
-0.555527
0
LINE
8
BLACK
6
CONTINUOUS
10
1.35594
20
-0.555527
11
1.35669
21
-0.562185
0
LINE
8
BLACK
6
CONTINUOUS
10
1.35669
20
-0.562185
11
1.35594
21
-0.568843
0
LINE
8
BLACK
6
CONTINUOUS
10
1.35594
20
-0.568843
11
1.35373
21
-0.575167
0
LINE
8
BLACK
6
CONTINUOUS
10
1.35373
20
-0.575167
11
1.35017
21
-0.58084
0
LINE
8
BLACK
6
CONTINUOUS
10
1.35017
20
-0.58084
11
1.34543
21
-0.585578
0
LINE
8
BLACK
6
CONTINUOUS
10
1.34543
20
-0.585578
11
1.33975
21
-0.589143
0
LINE
8
BLACK
6
CONTINUOUS
10
1.33975
20
-0.589143
11
1.33343
21
-0.591356
0
LINE
8
BLACK
6
CONTINUOUS
10
1.33343
20
-0.591356
11
1.32677
21
-0.592106
0
LINE
8
BLACK
6
CONTINUOUS
10
1.32677
20
-0.592106
11
1.32011
21
-0.591356
0
LINE
8
BLACK
6
CONTINUOUS
10
1.32011
20
-0.591356
11
1.31379
21
-0.589143
0
LINE
8
BLACK
6
CONTINUOUS
10
1.31379
20
-0.589143
11
1.30812
21
-0.585578
0
LINE
8
BLACK
6
CONTINUOUS
10
1.30812
20
-0.585578
11
1.30338
21
-0.58084
0
LINE
8
BLACK
6
CONTINUOUS
10
1.30338
20
-0.58084
11
1.29981
21
-0.575167
0
LINE
8
BLACK
6
CONTINUOUS
10
1.29981
20
-0.575167
11
1.2976
21
-0.568843
0
LINE
8
BLACK
6
CONTINUOUS
10
1.2976
20
-0.568843
11
1.29685
21
-0.562185
0
LINE
8
BLACK
6
CONTINUOUS
10
1.29685
20
-0.562185
11
1.2976
21
-0.555527
0
LINE
8
BLACK
6
CONTINUOUS
10
1.2976
20
-0.555527
11
1.29981
21
-0.549202
0
LINE
8
BLACK
6
CONTINUOUS
10
1.29981
20
-0.549202
11
1.30338
21
-0.543529
0
LINE
8
BLACK
6
CONTINUOUS
10
1.30338
20
-0.543529
11
1.30812
21
-0.538791
0
LINE
8
BLACK
6
CONTINUOUS
10
1.30812
20
-0.538791
11
1.31379
21
-0.535227
0
LINE
8
BLACK
6
CONTINUOUS
10
1.31379
20
-0.535227
11
1.32011
21
-0.533014
0
LINE
8
BLACK
6
CONTINUOUS
10
1.32011
20
-0.533014
11
1.32677
21
-0.532263
0
LINE
8
BLACK
6
CONTINUOUS
10
1.32677
20
-0.532263
11
1.33343
21
-0.533014
0
LINE
8
BLACK
6
CONTINUOUS
10
1.43343
20
-0.533014
11
1.43975
21
-0.535227
0
LINE
8
BLACK
6
CONTINUOUS
10
1.43975
20
-0.535227
11
1.44543
21
-0.538791
0
LINE
8
BLACK
6
CONTINUOUS
10
1.44543
20
-0.538791
11
1.45017
21
-0.543529
0
LINE
8
BLACK
6
CONTINUOUS
10
1.45017
20
-0.543529
11
1.45373
21
-0.549202
0
LINE
8
BLACK
6
CONTINUOUS
10
1.45373
20
-0.549202
11
1.45594
21
-0.555527
0
LINE
8
BLACK
6
CONTINUOUS
10
1.45594
20
-0.555527
11
1.45669
21
-0.562185
0
LINE
8
BLACK
6
CONTINUOUS
10
1.45669
20
-0.562185
11
1.45594
21
-0.568843
0
LINE
8
BLACK
6
CONTINUOUS
10
1.45594
20
-0.568843
11
1.45373
21
-0.575167
0
LINE
8
BLACK
6
CONTINUOUS
10
1.45373
20
-0.575167
11
1.45017
21
-0.58084
0
LINE
8
BLACK
6
CONTINUOUS
10
1.45017
20
-0.58084
11
1.44543
21
-0.585578
0
LINE
8
BLACK
6
CONTINUOUS
10
1.44543
20
-0.585578
11
1.43975
21
-0.589143
0
LINE
8
BLACK
6
CONTINUOUS
10
1.43975
20
-0.589143
11
1.43343
21
-0.591356
0
LINE
8
BLACK
6
CONTINUOUS
10
1.43343
20
-0.591356
11
1.42677
21
-0.592106
0
LINE
8
BLACK
6
CONTINUOUS
10
1.42677
20
-0.592106
11
1.42011
21
-0.591356
0
LINE
8
BLACK
6
CONTINUOUS
10
1.42011
20
-0.591356
11
1.41379
21
-0.589143
0
LINE
8
BLACK
6
CONTINUOUS
10
1.41379
20
-0.589143
11
1.40812
21
-0.585578
0
LINE
8
BLACK
6
CONTINUOUS
10
1.40812
20
-0.585578
11
1.40338
21
-0.58084
0
LINE
8
BLACK
6
CONTINUOUS
10
1.40338
20
-0.58084
11
1.39981
21
-0.575167
0
LINE
8
BLACK
6
CONTINUOUS
10
1.39981
20
-0.575167
11
1.3976
21
-0.568843
0
LINE
8
BLACK
6
CONTINUOUS
10
1.3976
20
-0.568843
11
1.39685
21
-0.562185
0
LINE
8
BLACK
6
CONTINUOUS
10
1.39685
20
-0.562185
11
1.3976
21
-0.555527
0
LINE
8
BLACK
6
CONTINUOUS
10
1.3976
20
-0.555527
11
1.39981
21
-0.549202
0
LINE
8
BLACK
6
CONTINUOUS
10
1.39981
20
-0.549202
11
1.40338
21
-0.543529
0
LINE
8
BLACK
6
CONTINUOUS
10
1.40338
20
-0.543529
11
1.40812
21
-0.538791
0
LINE
8
BLACK
6
CONTINUOUS
10
1.40812
20
-0.538791
11
1.41379
21
-0.535227
0
LINE
8
BLACK
6
CONTINUOUS
10
1.41379
20
-0.535227
11
1.42011
21
-0.533014
0
LINE
8
BLACK
6
CONTINUOUS
10
1.42011
20
-0.533014
11
1.42677
21
-0.532263
0
LINE
8
BLACK
6
CONTINUOUS
10
1.42677
20
-0.532263
11
1.43343
21
-0.533014
0
LINE
8
BLACK
6
CONTINUOUS
10
1.77047
20
-0.536614
11
1.70354
21
-0.536614
0
LINE
8
BLACK
6
CONTINUOUS
10
1.70354
20
-0.536614
11
1.70354
21
-0.469685
0
LINE
8
BLACK
6
CONTINUOUS
10
1.70354
20
-0.469685
11
1.77047
21
-0.469685
0
LINE
8
BLACK
6
CONTINUOUS
10
1.77047
20
-0.469685
11
1.77047
21
-0.536614
0
LINE
8
BLACK
6
CONTINUOUS
10
1.91614
20
-0.532677
11
1.84921
21
-0.532677
0
LINE
8
BLACK
6
CONTINUOUS
10
1.84921
20
-0.532677
11
1.84921
21
-0.465748
0
LINE
8
BLACK
6
CONTINUOUS
10
1.84921
20
-0.465748
11
1.91614
21
-0.465748
0
LINE
8
BLACK
6
CONTINUOUS
10
1.91614
20
-0.465748
11
1.91614
21
-0.532677
0
LINE
8
BLACK
6
CONTINUOUS
10
2.70347
20
-0.457696
11
2.70936
21
-0.460784
0
LINE
8
BLACK
6
CONTINUOUS
10
2.70936
20
-0.460784
11
2.71433
21
-0.46519
0
LINE
8
BLACK
6
CONTINUOUS
10
2.71433
20
-0.46519
11
2.7181
21
-0.470657
0
LINE
8
BLACK
6
CONTINUOUS
10
2.7181
20
-0.470657
11
2.72046
21
-0.476869
0
LINE
8
BLACK
6
CONTINUOUS
10
2.72046
20
-0.476869
11
2.72126
21
-0.483465
0
LINE
8
BLACK
6
CONTINUOUS
10
2.72126
20
-0.483465
11
2.72046
21
-0.49006
0
LINE
8
BLACK
6
CONTINUOUS
10
2.72046
20
-0.49006
11
2.7181
21
-0.496272
0
LINE
8
BLACK
6
CONTINUOUS
10
2.7181
20
-0.496272
11
2.71433
21
-0.50174
0
LINE
8
BLACK
6
CONTINUOUS
10
2.71433
20
-0.50174
11
2.70936
21
-0.506145
0
LINE
8
BLACK
6
CONTINUOUS
10
2.70936
20
-0.506145
11
2.70347
21
-0.509233
0
LINE
8
BLACK
6
CONTINUOUS
10
2.70347
20
-0.509233
11
2.69702
21
-0.510823
0
LINE
8
BLACK
6
CONTINUOUS
10
2.69702
20
-0.510823
11
2.69038
21
-0.510823
0
LINE
8
BLACK
6
CONTINUOUS
10
2.69038
20
-0.510823
11
2.68393
21
-0.509233
0
LINE
8
BLACK
6
CONTINUOUS
10
2.68393
20
-0.509233
11
2.67805
21
-0.506145
0
LINE
8
BLACK
6
CONTINUOUS
10
2.67805
20
-0.506145
11
2.67307
21
-0.50174
0
LINE
8
BLACK
6
CONTINUOUS
10
2.67307
20
-0.50174
11
2.6693
21
-0.496272
0
LINE
8
BLACK
6
CONTINUOUS
10
2.6693
20
-0.496272
11
2.66694
21
-0.49006
0
LINE
8
BLACK
6
CONTINUOUS
10
2.66694
20
-0.49006
11
2.66614
21
-0.483465
0
LINE
8
BLACK
6
CONTINUOUS
10
2.66614
20
-0.483465
11
2.66694
21
-0.476869
0
LINE
8
BLACK
6
CONTINUOUS
10
2.66694
20
-0.476869
11
2.6693
21
-0.470657
0
LINE
8
BLACK
6
CONTINUOUS
10
2.6693
20
-0.470657
11
2.67307
21
-0.46519
0
LINE
8
BLACK
6
CONTINUOUS
10
2.67307
20
-0.46519
11
2.67805
21
-0.460784
0
LINE
8
BLACK
6
CONTINUOUS
10
2.67805
20
-0.460784
11
2.68393
21
-0.457696
0
LINE
8
BLACK
6
CONTINUOUS
10
2.68393
20
-0.457696
11
2.69038
21
-0.456106
0
LINE
8
BLACK
6
CONTINUOUS
10
2.69038
20
-0.456106
11
2.69702
21
-0.456106
0
LINE
8
BLACK
6
CONTINUOUS
10
2.69702
20
-0.456106
11
2.70347
21
-0.457696
0
LINE
8
BLACK
6
CONTINUOUS
10
0.579722
20
-0.411215
11
0.585925
21
-0.413977
0
LINE
8
BLACK
6
CONTINUOUS
10
0.585925
20
-0.413977
11
0.591419
21
-0.417968
0
LINE
8
BLACK
6
CONTINUOUS
10
0.591419
20
-0.417968
11
0.595962
21
-0.423015
0
LINE
8
BLACK
6
CONTINUOUS
10
0.595962
20
-0.423015
11
0.599357
21
-0.428895
0
LINE
8
BLACK
6
CONTINUOUS
10
0.599357
20
-0.428895
11
0.601456
21
-0.435353
0
LINE
8
BLACK
6
CONTINUOUS
10
0.601456
20
-0.435353
11
0.602165
21
-0.442106
0
LINE
8
BLACK
6
CONTINUOUS
10
0.602165
20
-0.442106
11
0.601456
21
-0.448859
0
LINE
8
BLACK
6
CONTINUOUS
10
0.601456
20
-0.448859
11
0.599357
21
-0.455317
0
LINE
8
BLACK
6
CONTINUOUS
10
0.599357
20
-0.455317
11
0.595962
21
-0.461197
0
LINE
8
BLACK
6
CONTINUOUS
10
0.595962
20
-0.461197
11
0.591419
21
-0.466244
0
LINE
8
BLACK
6
CONTINUOUS
10
0.591419
20
-0.466244
11
0.585925
21
-0.470235
0
LINE
8
BLACK
6
CONTINUOUS
10
0.585925
20
-0.470235
11
0.579722
21
-0.472997
0
LINE
8
BLACK
6
CONTINUOUS
10
0.579722
20
-0.472997
11
0.57308
21
-0.474408
0
LINE
8
BLACK
6
CONTINUOUS
10
0.57308
20
-0.474408
11
0.56629
21
-0.474408
0
LINE
8
BLACK
6
CONTINUOUS
10
0.56629
20
-0.474408
11
0.559648
21
-0.472997
0
LINE
8
BLACK
6
CONTINUOUS
10
0.559648
20
-0.472997
11
0.553445
21
-0.470235
0
LINE
8
BLACK
6
CONTINUOUS
10
0.553445
20
-0.470235
11
0.547951
21
-0.466244
0
LINE
8
BLACK
6
CONTINUOUS
10
0.547951
20
-0.466244
11
0.543408
21
-0.461197
0
LINE
8
BLACK
6
CONTINUOUS
10
0.543408
20
-0.461197
11
0.540013
21
-0.455317
0
LINE
8
BLACK
6
CONTINUOUS
10
0.540013
20
-0.455317
11
0.537914
21
-0.448859
0
LINE
8
BLACK
6
CONTINUOUS
10
0.537914
20
-0.448859
11
0.537205
21
-0.442106
0
LINE
8
BLACK
6
CONTINUOUS
10
0.537205
20
-0.442106
11
0.537914
21
-0.435353
0
LINE
8
BLACK
6
CONTINUOUS
10
0.537914
20
-0.435353
11
0.540013
21
-0.428895
0
LINE
8
BLACK
6
CONTINUOUS
10
0.540013
20
-0.428895
11
0.543408
21
-0.423015
0
LINE
8
BLACK
6
CONTINUOUS
10
0.543408
20
-0.423015
11
0.547951
21
-0.417968
0
LINE
8
BLACK
6
CONTINUOUS
10
0.547951
20
-0.417968
11
0.553445
21
-0.413977
0
LINE
8
BLACK
6
CONTINUOUS
10
0.553445
20
-0.413977
11
0.559648
21
-0.411215
0
LINE
8
BLACK
6
CONTINUOUS
10
0.559648
20
-0.411215
11
0.56629
21
-0.409804
0
LINE
8
BLACK
6
CONTINUOUS
10
0.56629
20
-0.409804
11
0.57308
21
-0.409804
0
LINE
8
BLACK
6
CONTINUOUS
10
0.57308
20
-0.409804
11
0.579722
21
-0.411215
0
LINE
8
BLACK
6
CONTINUOUS
10
0.847439
20
-0.411215
11
0.853642
21
-0.413977
0
LINE
8
BLACK
6
CONTINUOUS
10
0.853642
20
-0.413977
11
0.859135
21
-0.417968
0
LINE
8
BLACK
6
CONTINUOUS
10
0.859135
20
-0.417968
11
0.863679
21
-0.423015
0
LINE
8
BLACK
6
CONTINUOUS
10
0.863679
20
-0.423015
11
0.867074
21
-0.428895
0
LINE
8
BLACK
6
CONTINUOUS
10
0.867074
20
-0.428895
11
0.869172
21
-0.435353
0
LINE
8
BLACK
6
CONTINUOUS
10
0.869172
20
-0.435353
11
0.869882
21
-0.442106
0
LINE
8
BLACK
6
CONTINUOUS
10
0.869882
20
-0.442106
11
0.869172
21
-0.448859
0
LINE
8
BLACK
6
CONTINUOUS
10
0.869172
20
-0.448859
11
0.867074
21
-0.455317
0
LINE
8
BLACK
6
CONTINUOUS
10
0.867074
20
-0.455317
11
0.863679
21
-0.461197
0
LINE
8
BLACK
6
CONTINUOUS
10
0.863679
20
-0.461197
11
0.859135
21
-0.466244
0
LINE
8
BLACK
6
CONTINUOUS
10
0.859135
20
-0.466244
11
0.853642
21
-0.470235
0
LINE
8
BLACK
6
CONTINUOUS
10
0.853642
20
-0.470235
11
0.847439
21
-0.472997
0
LINE
8
BLACK
6
CONTINUOUS
10
0.847439
20
-0.472997
11
0.840797
21
-0.474408
0
LINE
8
BLACK
6
CONTINUOUS
10
0.840797
20
-0.474408
11
0.834006
21
-0.474408
0
LINE
8
BLACK
6
CONTINUOUS
10
0.834006
20
-0.474408
11
0.827365
21
-0.472997
0
LINE
8
BLACK
6
CONTINUOUS
10
0.827365
20
-0.472997
11
0.821161
21
-0.470235
0
LINE
8
BLACK
6
CONTINUOUS
10
0.821161
20
-0.470235
11
0.815668
21
-0.466244
0
LINE
8
BLACK
6
CONTINUOUS
10
0.815668
20
-0.466244
11
0.811124
21
-0.461197
0
LINE
8
BLACK
6
CONTINUOUS
10
0.811124
20
-0.461197
11
0.807729
21
-0.455317
0
LINE
8
BLACK
6
CONTINUOUS
10
0.807729
20
-0.455317
11
0.805631
21
-0.448859
0
LINE
8
BLACK
6
CONTINUOUS
10
0.805631
20
-0.448859
11
0.804921
21
-0.442106
0
LINE
8
BLACK
6
CONTINUOUS
10
0.804921
20
-0.442106
11
0.805631
21
-0.435353
0
LINE
8
BLACK
6
CONTINUOUS
10
0.805631
20
-0.435353
11
0.807729
21
-0.428895
0
LINE
8
BLACK
6
CONTINUOUS
10
0.807729
20
-0.428895
11
0.811124
21
-0.423015
0
LINE
8
BLACK
6
CONTINUOUS
10
0.811124
20
-0.423015
11
0.815668
21
-0.417968
0
LINE
8
BLACK
6
CONTINUOUS
10
0.815668
20
-0.417968
11
0.821161
21
-0.413977
0
LINE
8
BLACK
6
CONTINUOUS
10
0.821161
20
-0.413977
11
0.827365
21
-0.411215
0
LINE
8
BLACK
6
CONTINUOUS
10
0.827365
20
-0.411215
11
0.834006
21
-0.409804
0
LINE
8
BLACK
6
CONTINUOUS
10
0.834006
20
-0.409804
11
0.840797
21
-0.409804
0
LINE
8
BLACK
6
CONTINUOUS
10
0.840797
20
-0.409804
11
0.847439
21
-0.411215
0
LINE
8
BLACK
6
CONTINUOUS
10
1.74735
20
-0.371323
11
1.75374
21
-0.374168
0
LINE
8
BLACK
6
CONTINUOUS
10
1.75374
20
-0.374168
11
1.7594
21
-0.378281
0
LINE
8
BLACK
6
CONTINUOUS
10
1.7594
20
-0.378281
11
1.76408
21
-0.38348
0
LINE
8
BLACK
6
CONTINUOUS
10
1.76408
20
-0.38348
11
1.76758
21
-0.389538
0
LINE
8
BLACK
6
CONTINUOUS
10
1.76758
20
-0.389538
11
1.76974
21
-0.396192
0
LINE
8
BLACK
6
CONTINUOUS
10
1.76974
20
-0.396192
11
1.77047
21
-0.40315
0
LINE
8
BLACK
6
CONTINUOUS
10
1.77047
20
-0.40315
11
1.76974
21
-0.410107
0
LINE
8
BLACK
6
CONTINUOUS
10
1.76974
20
-0.410107
11
1.76758
21
-0.416761
0
LINE
8
BLACK
6
CONTINUOUS
10
1.76758
20
-0.416761
11
1.76408
21
-0.42282
0
LINE
8
BLACK
6
CONTINUOUS
10
1.76408
20
-0.42282
11
1.7594
21
-0.428019
0
LINE
8
BLACK
6
CONTINUOUS
10
1.7594
20
-0.428019
11
1.75374
21
-0.432131
0
LINE
8
BLACK
6
CONTINUOUS
10
1.75374
20
-0.432131
11
1.74735
21
-0.434976
0
LINE
8
BLACK
6
CONTINUOUS
10
1.74735
20
-0.434976
11
1.74051
21
-0.436431
0
LINE
8
BLACK
6
CONTINUOUS
10
1.74051
20
-0.436431
11
1.73351
21
-0.436431
0
LINE
8
BLACK
6
CONTINUOUS
10
1.73351
20
-0.436431
11
1.72667
21
-0.434976
0
LINE
8
BLACK
6
CONTINUOUS
10
1.72667
20
-0.434976
11
1.72028
21
-0.432131
0
LINE
8
BLACK
6
CONTINUOUS
10
1.72028
20
-0.432131
11
1.71462
21
-0.428019
0
LINE
8
BLACK
6
CONTINUOUS
10
1.71462
20
-0.428019
11
1.70993
21
-0.42282
0
LINE
8
BLACK
6
CONTINUOUS
10
1.70993
20
-0.42282
11
1.70644
21
-0.416761
0
LINE
8
BLACK
6
CONTINUOUS
10
1.70644
20
-0.416761
11
1.70427
21
-0.410107
0
LINE
8
BLACK
6
CONTINUOUS
10
1.70427
20
-0.410107
11
1.70354
21
-0.40315
0
LINE
8
BLACK
6
CONTINUOUS
10
1.70354
20
-0.40315
11
1.70427
21
-0.396192
0
LINE
8
BLACK
6
CONTINUOUS
10
1.70427
20
-0.396192
11
1.70644
21
-0.389538
0
LINE
8
BLACK
6
CONTINUOUS
10
1.70644
20
-0.389538
11
1.70993
21
-0.38348
0
LINE
8
BLACK
6
CONTINUOUS
10
1.70993
20
-0.38348
11
1.71462
21
-0.378281
0
LINE
8
BLACK
6
CONTINUOUS
10
1.71462
20
-0.378281
11
1.72028
21
-0.374168
0
LINE
8
BLACK
6
CONTINUOUS
10
1.72028
20
-0.374168
11
1.72667
21
-0.371323
0
LINE
8
BLACK
6
CONTINUOUS
10
1.72667
20
-0.371323
11
1.73351
21
-0.369868
0
LINE
8
BLACK
6
CONTINUOUS
10
1.73351
20
-0.369868
11
1.74051
21
-0.369868
0
LINE
8
BLACK
6
CONTINUOUS
10
1.74051
20
-0.369868
11
1.74735
21
-0.371323
0
LINE
8
BLACK
6
CONTINUOUS
10
1.89302
20
-0.367386
11
1.89941
21
-0.370231
0
LINE
8
BLACK
6
CONTINUOUS
10
1.89941
20
-0.370231
11
1.90507
21
-0.374344
0
LINE
8
BLACK
6
CONTINUOUS
10
1.90507
20
-0.374344
11
1.90975
21
-0.379543
0
LINE
8
BLACK
6
CONTINUOUS
10
1.90975
20
-0.379543
11
1.91325
21
-0.385601
0
LINE
8
BLACK
6
CONTINUOUS
10
1.91325
20
-0.385601
11
1.91541
21
-0.392255
0
LINE
8
BLACK
6
CONTINUOUS
10
1.91541
20
-0.392255
11
1.91614
21
-0.399213
0
LINE
8
BLACK
6
CONTINUOUS
10
1.91614
20
-0.399213
11
1.91541
21
-0.40617
0
LINE
8
BLACK
6
CONTINUOUS
10
1.91541
20
-0.40617
11
1.91325
21
-0.412824
0
LINE
8
BLACK
6
CONTINUOUS
10
1.91325
20
-0.412824
11
1.90975
21
-0.418883
0
LINE
8
BLACK
6
CONTINUOUS
10
1.90975
20
-0.418883
11
1.90507
21
-0.424082
0
LINE
8
BLACK
6
CONTINUOUS
10
1.90507
20
-0.424082
11
1.89941
21
-0.428194
0
LINE
8
BLACK
6
CONTINUOUS
10
1.89941
20
-0.428194
11
1.89302
21
-0.431039
0
LINE
8
BLACK
6
CONTINUOUS
10
1.89302
20
-0.431039
11
1.88618
21
-0.432494
0
LINE
8
BLACK
6
CONTINUOUS
10
1.88618
20
-0.432494
11
1.87918
21
-0.432494
0
LINE
8
BLACK
6
CONTINUOUS
10
1.87918
20
-0.432494
11
1.87234
21
-0.431039
0
LINE
8
BLACK
6
CONTINUOUS
10
1.87234
20
-0.431039
11
1.86594
21
-0.428194
0
LINE
8
BLACK
6
CONTINUOUS
10
1.86594
20
-0.428194
11
1.86028
21
-0.424082
0
LINE
8
BLACK
6
CONTINUOUS
10
1.86028
20
-0.424082
11
1.8556
21
-0.418883
0
LINE
8
BLACK
6
CONTINUOUS
10
1.8556
20
-0.418883
11
1.85211
21
-0.412824
0
LINE
8
BLACK
6
CONTINUOUS
10
1.85211
20
-0.412824
11
1.84994
21
-0.40617
0
LINE
8
BLACK
6
CONTINUOUS
10
1.84994
20
-0.40617
11
1.84921
21
-0.399213
0
LINE
8
BLACK
6
CONTINUOUS
10
1.84921
20
-0.399213
11
1.84994
21
-0.392255
0
LINE
8
BLACK
6
CONTINUOUS
10
1.84994
20
-0.392255
11
1.85211
21
-0.385601
0
LINE
8
BLACK
6
CONTINUOUS
10
1.85211
20
-0.385601
11
1.8556
21
-0.379543
0
LINE
8
BLACK
6
CONTINUOUS
10
1.8556
20
-0.379543
11
1.86028
21
-0.374344
0
LINE
8
BLACK
6
CONTINUOUS
10
1.86028
20
-0.374344
11
1.86594
21
-0.370231
0
LINE
8
BLACK
6
CONTINUOUS
10
1.86594
20
-0.370231
11
1.87234
21
-0.367386
0
LINE
8
BLACK
6
CONTINUOUS
10
1.87234
20
-0.367386
11
1.87918
21
-0.365931
0
LINE
8
BLACK
6
CONTINUOUS
10
1.87918
20
-0.365931
11
1.88618
21
-0.365931
0
LINE
8
BLACK
6
CONTINUOUS
10
1.88618
20
-0.365931
11
1.89302
21
-0.367386
0
LINE
8
BLACK
6
CONTINUOUS
10
1.16198
20
-0.248996
11
1.17174
21
-0.25134
0
LINE
8
BLACK
6
CONTINUOUS
10
1.17174
20
-0.25134
11
1.18101
21
-0.255181
0
LINE
8
BLACK
6
CONTINUOUS
10
1.18101
20
-0.255181
11
1.18957
21
-0.260427
0
LINE
8
BLACK
6
CONTINUOUS
10
1.18957
20
-0.260427
11
1.19721
21
-0.266947
0
LINE
8
BLACK
6
CONTINUOUS
10
1.19721
20
-0.266947
11
1.20373
21
-0.27458
0
LINE
8
BLACK
6
CONTINUOUS
10
1.20373
20
-0.27458
11
1.20897
21
-0.28314
0
LINE
8
BLACK
6
CONTINUOUS
10
1.20897
20
-0.28314
11
1.21281
21
-0.292415
0
LINE
8
BLACK
6
CONTINUOUS
10
1.21281
20
-0.292415
11
1.21516
21
-0.302177
0
LINE
8
BLACK
6
CONTINUOUS
10
1.21516
20
-0.302177
11
1.21594
21
-0.312185
0
LINE
8
BLACK
6
CONTINUOUS
10
1.21594
20
-0.312185
11
1.21516
21
-0.322193
0
LINE
8
BLACK
6
CONTINUOUS
10
1.21516
20
-0.322193
11
1.21281
21
-0.331955
0
LINE
8
BLACK
6
CONTINUOUS
10
1.21281
20
-0.331955
11
1.20897
21
-0.341229
0
LINE
8
BLACK
6
CONTINUOUS
10
1.20897
20
-0.341229
11
1.20373
21
-0.349789
0
LINE
8
BLACK
6
CONTINUOUS
10
1.20373
20
-0.349789
11
1.19721
21
-0.357423
0
LINE
8
BLACK
6
CONTINUOUS
10
1.19721
20
-0.357423
11
1.18957
21
-0.363943
0
LINE
8
BLACK
6
CONTINUOUS
10
1.18957
20
-0.363943
11
1.18101
21
-0.369188
0
LINE
8
BLACK
6
CONTINUOUS
10
1.18101
20
-0.369188
11
1.17174
21
-0.37303
0
LINE
8
BLACK
6
CONTINUOUS
10
1.17174
20
-0.37303
11
1.16198
21
-0.375373
0
LINE
8
BLACK
6
CONTINUOUS
10
1.16198
20
-0.375373
11
1.15197
21
-0.376161
0
LINE
8
BLACK
6
CONTINUOUS
10
1.15197
20
-0.376161
11
1.14196
21
-0.375373
0
LINE
8
BLACK
6
CONTINUOUS
10
1.14196
20
-0.375373
11
1.1322
21
-0.37303
0
LINE
8
BLACK
6
CONTINUOUS
10
1.1322
20
-0.37303
11
1.12292
21
-0.369188
0
LINE
8
BLACK
6
CONTINUOUS
10
1.12292
20
-0.369188
11
1.11436
21
-0.363943
0
LINE
8
BLACK
6
CONTINUOUS
10
1.11436
20
-0.363943
11
1.10673
21
-0.357423
0
LINE
8
BLACK
6
CONTINUOUS
10
1.10673
20
-0.357423
11
1.10021
21
-0.349789
0
LINE
8
BLACK
6
CONTINUOUS
10
1.10021
20
-0.349789
11
1.09497
21
-0.341229
0
LINE
8
BLACK
6
CONTINUOUS
10
1.09497
20
-0.341229
11
1.09112
21
-0.331955
0
LINE
8
BLACK
6
CONTINUOUS
10
1.09112
20
-0.331955
11
1.08878
21
-0.322193
0
LINE
8
BLACK
6
CONTINUOUS
10
1.08878
20
-0.322193
11
1.08799
21
-0.312185
0
LINE
8
BLACK
6
CONTINUOUS
10
1.08799
20
-0.312185
11
1.08878
21
-0.302177
0
LINE
8
BLACK
6
CONTINUOUS
10
1.08878
20
-0.302177
11
1.09112
21
-0.292415
0
LINE
8
BLACK
6
CONTINUOUS
10
1.09112
20
-0.292415
11
1.09497
21
-0.28314
0
LINE
8
BLACK
6
CONTINUOUS
10
1.09497
20
-0.28314
11
1.10021
21
-0.27458
0
LINE
8
BLACK
6
CONTINUOUS
10
1.10021
20
-0.27458
11
1.10673
21
-0.266947
0
LINE
8
BLACK
6
CONTINUOUS
10
1.10673
20
-0.266947
11
1.11436
21
-0.260427
0
LINE
8
BLACK
6
CONTINUOUS
10
1.11436
20
-0.260427
11
1.12292
21
-0.255181
0
LINE
8
BLACK
6
CONTINUOUS
10
1.12292
20
-0.255181
11
1.1322
21
-0.25134
0
LINE
8
BLACK
6
CONTINUOUS
10
1.1322
20
-0.25134
11
1.14196
21
-0.248996
0
LINE
8
BLACK
6
CONTINUOUS
10
1.14196
20
-0.248996
11
1.15197
21
-0.248208
0
LINE
8
BLACK
6
CONTINUOUS
10
1.15197
20
-0.248208
11
1.16198
21
-0.248996
0
LINE
8
BLACK
6
CONTINUOUS
10
1.56198
20
-0.248996
11
1.57174
21
-0.25134
0
LINE
8
BLACK
6
CONTINUOUS
10
1.57174
20
-0.25134
11
1.58101
21
-0.255181
0
LINE
8
BLACK
6
CONTINUOUS
10
1.58101
20
-0.255181
11
1.58957
21
-0.260427
0
LINE
8
BLACK
6
CONTINUOUS
10
1.58957
20
-0.260427
11
1.59721
21
-0.266947
0
LINE
8
BLACK
6
CONTINUOUS
10
1.59721
20
-0.266947
11
1.60373
21
-0.27458
0
LINE
8
BLACK
6
CONTINUOUS
10
1.60373
20
-0.27458
11
1.60897
21
-0.28314
0
LINE
8
BLACK
6
CONTINUOUS
10
1.60897
20
-0.28314
11
1.61281
21
-0.292415
0
LINE
8
BLACK
6
CONTINUOUS
10
1.61281
20
-0.292415
11
1.61516
21
-0.302177
0
LINE
8
BLACK
6
CONTINUOUS
10
1.61516
20
-0.302177
11
1.61594
21
-0.312185
0
LINE
8
BLACK
6
CONTINUOUS
10
1.61594
20
-0.312185
11
1.61516
21
-0.322193
0
LINE
8
BLACK
6
CONTINUOUS
10
1.61516
20
-0.322193
11
1.61281
21
-0.331955
0
LINE
8
BLACK
6
CONTINUOUS
10
1.61281
20
-0.331955
11
1.60897
21
-0.341229
0
LINE
8
BLACK
6
CONTINUOUS
10
1.60897
20
-0.341229
11
1.60373
21
-0.349789
0
LINE
8
BLACK
6
CONTINUOUS
10
1.60373
20
-0.349789
11
1.59721
21
-0.357423
0
LINE
8
BLACK
6
CONTINUOUS
10
1.59721
20
-0.357423
11
1.58957
21
-0.363943
0
LINE
8
BLACK
6
CONTINUOUS
10
1.58957
20
-0.363943
11
1.58101
21
-0.369188
0
LINE
8
BLACK
6
CONTINUOUS
10
1.58101
20
-0.369188
11
1.57174
21
-0.37303
0
LINE
8
BLACK
6
CONTINUOUS
10
1.57174
20
-0.37303
11
1.56198
21
-0.375373
0
LINE
8
BLACK
6
CONTINUOUS
10
1.56198
20
-0.375373
11
1.55197
21
-0.376161
0
LINE
8
BLACK
6
CONTINUOUS
10
1.55197
20
-0.376161
11
1.54196
21
-0.375373
0
LINE
8
BLACK
6
CONTINUOUS
10
1.54196
20
-0.375373
11
1.5322
21
-0.37303
0
LINE
8
BLACK
6
CONTINUOUS
10
1.5322
20
-0.37303
11
1.52292
21
-0.369188
0
LINE
8
BLACK
6
CONTINUOUS
10
1.52292
20
-0.369188
11
1.51436
21
-0.363943
0
LINE
8
BLACK
6
CONTINUOUS
10
1.51436
20
-0.363943
11
1.50673
21
-0.357423
0
LINE
8
BLACK
6
CONTINUOUS
10
1.50673
20
-0.357423
11
1.50021
21
-0.349789
0
LINE
8
BLACK
6
CONTINUOUS
10
1.50021
20
-0.349789
11
1.49497
21
-0.341229
0
LINE
8
BLACK
6
CONTINUOUS
10
1.49497
20
-0.341229
11
1.49112
21
-0.331955
0
LINE
8
BLACK
6
CONTINUOUS
10
1.49112
20
-0.331955
11
1.48878
21
-0.322193
0
LINE
8
BLACK
6
CONTINUOUS
10
1.48878
20
-0.322193
11
1.48799
21
-0.312185
0
LINE
8
BLACK
6
CONTINUOUS
10
1.48799
20
-0.312185
11
1.48878
21
-0.302177
0
LINE
8
BLACK
6
CONTINUOUS
10
1.48878
20
-0.302177
11
1.49112
21
-0.292415
0
LINE
8
BLACK
6
CONTINUOUS
10
1.49112
20
-0.292415
11
1.49497
21
-0.28314
0
LINE
8
BLACK
6
CONTINUOUS
10
1.49497
20
-0.28314
11
1.50021
21
-0.27458
0
LINE
8
BLACK
6
CONTINUOUS
10
1.50021
20
-0.27458
11
1.50673
21
-0.266947
0
LINE
8
BLACK
6
CONTINUOUS
10
1.50673
20
-0.266947
11
1.51436
21
-0.260427
0
LINE
8
BLACK
6
CONTINUOUS
10
1.51436
20
-0.260427
11
1.52292
21
-0.255181
0
LINE
8
BLACK
6
CONTINUOUS
10
1.52292
20
-0.255181
11
1.5322
21
-0.25134
0
LINE
8
BLACK
6
CONTINUOUS
10
1.5322
20
-0.25134
11
1.54196
21
-0.248996
0
LINE
8
BLACK
6
CONTINUOUS
10
1.54196
20
-0.248996
11
1.55197
21
-0.248208
0
LINE
8
BLACK
6
CONTINUOUS
10
1.55197
20
-0.248208
11
1.56198
21
-0.248996
0
LINE
8
BLACK
6
CONTINUOUS
10
0.579722
20
-0.31279
11
0.585925
21
-0.315552
0
LINE
8
BLACK
6
CONTINUOUS
10
0.585925
20
-0.315552
11
0.591419
21
-0.319543
0
LINE
8
BLACK
6
CONTINUOUS
10
0.591419
20
-0.319543
11
0.595962
21
-0.324589
0
LINE
8
BLACK
6
CONTINUOUS
10
0.595962
20
-0.324589
11
0.599357
21
-0.33047
0
LINE
8
BLACK
6
CONTINUOUS
10
0.599357
20
-0.33047
11
0.601456
21
-0.336928
0
LINE
8
BLACK
6
CONTINUOUS
10
0.601456
20
-0.336928
11
0.602165
21
-0.343681
0
LINE
8
BLACK
6
CONTINUOUS
10
0.602165
20
-0.343681
11
0.601456
21
-0.350434
0
LINE
8
BLACK
6
CONTINUOUS
10
0.601456
20
-0.350434
11
0.599357
21
-0.356892
0
LINE
8
BLACK
6
CONTINUOUS
10
0.599357
20
-0.356892
11
0.595962
21
-0.362772
0
LINE
8
BLACK
6
CONTINUOUS
10
0.595962
20
-0.362772
11
0.591419
21
-0.367818
0
LINE
8
BLACK
6
CONTINUOUS
10
0.591419
20
-0.367818
11
0.585925
21
-0.37181
0
LINE
8
BLACK
6
CONTINUOUS
10
0.585925
20
-0.37181
11
0.579722
21
-0.374571
0
LINE
8
BLACK
6
CONTINUOUS
10
0.579722
20
-0.374571
11
0.57308
21
-0.375983
0
LINE
8
BLACK
6
CONTINUOUS
10
0.57308
20
-0.375983
11
0.56629
21
-0.375983
0
LINE
8
BLACK
6
CONTINUOUS
10
0.56629
20
-0.375983
11
0.559648
21
-0.374571
0
LINE
8
BLACK
6
CONTINUOUS
10
0.559648
20
-0.374571
11
0.553445
21
-0.37181
0
LINE
8
BLACK
6
CONTINUOUS
10
0.553445
20
-0.37181
11
0.547951
21
-0.367818
0
LINE
8
BLACK
6
CONTINUOUS
10
0.547951
20
-0.367818
11
0.543408
21
-0.362772
0
LINE
8
BLACK
6
CONTINUOUS
10
0.543408
20
-0.362772
11
0.540013
21
-0.356892
0
LINE
8
BLACK
6
CONTINUOUS
10
0.540013
20
-0.356892
11
0.537914
21
-0.350434
0
LINE
8
BLACK
6
CONTINUOUS
10
0.537914
20
-0.350434
11
0.537205
21
-0.343681
0
LINE
8
BLACK
6
CONTINUOUS
10
0.537205
20
-0.343681
11
0.537914
21
-0.336928
0
LINE
8
BLACK
6
CONTINUOUS
10
0.537914
20
-0.336928
11
0.540013
21
-0.33047
0
LINE
8
BLACK
6
CONTINUOUS
10
0.540013
20
-0.33047
11
0.543408
21
-0.324589
0
LINE
8
BLACK
6
CONTINUOUS
10
0.543408
20
-0.324589
11
0.547951
21
-0.319543
0
LINE
8
BLACK
6
CONTINUOUS
10
0.547951
20
-0.319543
11
0.553445
21
-0.315552
0
LINE
8
BLACK
6
CONTINUOUS
10
0.553445
20
-0.315552
11
0.559648
21
-0.31279
0
LINE
8
BLACK
6
CONTINUOUS
10
0.559648
20
-0.31279
11
0.56629
21
-0.311378
0
LINE
8
BLACK
6
CONTINUOUS
10
0.56629
20
-0.311378
11
0.57308
21
-0.311378
0
LINE
8
BLACK
6
CONTINUOUS
10
0.57308
20
-0.311378
11
0.579722
21
-0.31279
0
LINE
8
BLACK
6
CONTINUOUS
10
0.847439
20
-0.31279
11
0.853642
21
-0.315552
0
LINE
8
BLACK
6
CONTINUOUS
10
0.853642
20
-0.315552
11
0.859135
21
-0.319543
0
LINE
8
BLACK
6
CONTINUOUS
10
0.859135
20
-0.319543
11
0.863679
21
-0.324589
0
LINE
8
BLACK
6
CONTINUOUS
10
0.863679
20
-0.324589
11
0.867074
21
-0.33047
0
LINE
8
BLACK
6
CONTINUOUS
10
0.867074
20
-0.33047
11
0.869172
21
-0.336928
0
LINE
8
BLACK
6
CONTINUOUS
10
0.869172
20
-0.336928
11
0.869882
21
-0.343681
0
LINE
8
BLACK
6
CONTINUOUS
10
0.869882
20
-0.343681
11
0.869172
21
-0.350434
0
LINE
8
BLACK
6
CONTINUOUS
10
0.869172
20
-0.350434
11
0.867074
21
-0.356892
0
LINE
8
BLACK
6
CONTINUOUS
10
0.867074
20
-0.356892
11
0.863679
21
-0.362772
0
LINE
8
BLACK
6
CONTINUOUS
10
0.863679
20
-0.362772
11
0.859135
21
-0.367818
0
LINE
8
BLACK
6
CONTINUOUS
10
0.859135
20
-0.367818
11
0.853642
21
-0.37181
0
LINE
8
BLACK
6
CONTINUOUS
10
0.853642
20
-0.37181
11
0.847439
21
-0.374571
0
LINE
8
BLACK
6
CONTINUOUS
10
0.847439
20
-0.374571
11
0.840797
21
-0.375983
0
LINE
8
BLACK
6
CONTINUOUS
10
0.840797
20
-0.375983
11
0.834006
21
-0.375983
0
LINE
8
BLACK
6
CONTINUOUS
10
0.834006
20
-0.375983
11
0.827365
21
-0.374571
0
LINE
8
BLACK
6
CONTINUOUS
10
0.827365
20
-0.374571
11
0.821161
21
-0.37181
0
LINE
8
BLACK
6
CONTINUOUS
10
0.821161
20
-0.37181
11
0.815668
21
-0.367818
0
LINE
8
BLACK
6
CONTINUOUS
10
0.815668
20
-0.367818
11
0.811124
21
-0.362772
0
LINE
8
BLACK
6
CONTINUOUS
10
0.811124
20
-0.362772
11
0.807729
21
-0.356892
0
LINE
8
BLACK
6
CONTINUOUS
10
0.807729
20
-0.356892
11
0.805631
21
-0.350434
0
LINE
8
BLACK
6
CONTINUOUS
10
0.805631
20
-0.350434
11
0.804921
21
-0.343681
0
LINE
8
BLACK
6
CONTINUOUS
10
0.804921
20
-0.343681
11
0.805631
21
-0.336928
0
LINE
8
BLACK
6
CONTINUOUS
10
0.805631
20
-0.336928
11
0.807729
21
-0.33047
0
LINE
8
BLACK
6
CONTINUOUS
10
0.807729
20
-0.33047
11
0.811124
21
-0.324589
0
LINE
8
BLACK
6
CONTINUOUS
10
0.811124
20
-0.324589
11
0.815668
21
-0.319543
0
LINE
8
BLACK
6
CONTINUOUS
10
0.815668
20
-0.319543
11
0.821161
21
-0.315552
0
LINE
8
BLACK
6
CONTINUOUS
10
0.821161
20
-0.315552
11
0.827365
21
-0.31279
0
LINE
8
BLACK
6
CONTINUOUS
10
0.827365
20
-0.31279
11
0.834006
21
-0.311378
0
LINE
8
BLACK
6
CONTINUOUS
10
0.834006
20
-0.311378
11
0.840797
21
-0.311378
0
LINE
8
BLACK
6
CONTINUOUS
10
0.840797
20
-0.311378
11
0.847439
21
-0.31279
0
LINE
8
BLACK
6
CONTINUOUS
10
2.11545
20
-0.325927
11
2.11886
21
-0.328783
0
LINE
8
BLACK
6
CONTINUOUS
10
2.11886
20
-0.328783
11
2.12108
21
-0.332632
0
LINE
8
BLACK
6
CONTINUOUS
10
2.12108
20
-0.332632
11
2.12185
21
-0.337008
0
LINE
8
BLACK
6
CONTINUOUS
10
2.12185
20
-0.337008
11
2.12108
21
-0.341384
0
LINE
8
BLACK
6
CONTINUOUS
10
2.12108
20
-0.341384
11
2.11886
21
-0.345233
0
LINE
8
BLACK
6
CONTINUOUS
10
2.11886
20
-0.345233
11
2.11545
21
-0.348089
0
LINE
8
BLACK
6
CONTINUOUS
10
2.11545
20
-0.348089
11
2.11128
21
-0.349609
0
LINE
8
BLACK
6
CONTINUOUS
10
2.11128
20
-0.349609
11
2.10683
21
-0.349609
0
LINE
8
BLACK
6
CONTINUOUS
10
2.10683
20
-0.349609
11
2.10266
21
-0.348089
0
LINE
8
BLACK
6
CONTINUOUS
10
2.10266
20
-0.348089
11
2.09925
21
-0.345233
0
LINE
8
BLACK
6
CONTINUOUS
10
2.09925
20
-0.345233
11
2.09703
21
-0.341384
0
LINE
8
BLACK
6
CONTINUOUS
10
2.09703
20
-0.341384
11
2.09626
21
-0.337008
0
LINE
8
BLACK
6
CONTINUOUS
10
2.09626
20
-0.337008
11
2.09703
21
-0.332632
0
LINE
8
BLACK
6
CONTINUOUS
10
2.09703
20
-0.332632
11
2.09925
21
-0.328783
0
LINE
8
BLACK
6
CONTINUOUS
10
2.09925
20
-0.328783
11
2.10266
21
-0.325927
0
LINE
8
BLACK
6
CONTINUOUS
10
2.10266
20
-0.325927
11
2.10683
21
-0.324407
0
LINE
8
BLACK
6
CONTINUOUS
10
2.10683
20
-0.324407
11
2.11128
21
-0.324407
0
LINE
8
BLACK
6
CONTINUOUS
10
2.11128
20
-0.324407
11
2.11545
21
-0.325927
0
LINE
8
BLACK
6
CONTINUOUS
10
2.14892
20
-0.325927
11
2.15232
21
-0.328783
0
LINE
8
BLACK
6
CONTINUOUS
10
2.15232
20
-0.328783
11
2.15454
21
-0.332632
0
LINE
8
BLACK
6
CONTINUOUS
10
2.15454
20
-0.332632
11
2.15531
21
-0.337008
0
LINE
8
BLACK
6
CONTINUOUS
10
2.15531
20
-0.337008
11
2.15454
21
-0.341384
0
LINE
8
BLACK
6
CONTINUOUS
10
2.15454
20
-0.341384
11
2.15232
21
-0.345233
0
LINE
8
BLACK
6
CONTINUOUS
10
2.15232
20
-0.345233
11
2.14892
21
-0.348089
0
LINE
8
BLACK
6
CONTINUOUS
10
2.14892
20
-0.348089
11
2.14474
21
-0.349609
0
LINE
8
BLACK
6
CONTINUOUS
10
2.14474
20
-0.349609
11
2.1403
21
-0.349609
0
LINE
8
BLACK
6
CONTINUOUS
10
2.1403
20
-0.349609
11
2.13612
21
-0.348089
0
LINE
8
BLACK
6
CONTINUOUS
10
2.13612
20
-0.348089
11
2.13272
21
-0.345233
0
LINE
8
BLACK
6
CONTINUOUS
10
2.13272
20
-0.345233
11
2.1305
21
-0.341384
0
LINE
8
BLACK
6
CONTINUOUS
10
2.1305
20
-0.341384
11
2.12972
21
-0.337008
0
LINE
8
BLACK
6
CONTINUOUS
10
2.12972
20
-0.337008
11
2.1305
21
-0.332632
0
LINE
8
BLACK
6
CONTINUOUS
10
2.1305
20
-0.332632
11
2.13272
21
-0.328783
0
LINE
8
BLACK
6
CONTINUOUS
10
2.13272
20
-0.328783
11
2.13612
21
-0.325927
0
LINE
8
BLACK
6
CONTINUOUS
10
2.13612
20
-0.325927
11
2.1403
21
-0.324407
0
LINE
8
BLACK
6
CONTINUOUS
10
2.1403
20
-0.324407
11
2.14474
21
-0.324407
0
LINE
8
BLACK
6
CONTINUOUS
10
2.14474
20
-0.324407
11
2.14892
21
-0.325927
0
LINE
8
BLACK
6
CONTINUOUS
10
2.18238
20
-0.325927
11
2.18579
21
-0.328783
0
LINE
8
BLACK
6
CONTINUOUS
10
2.18579
20
-0.328783
11
2.18801
21
-0.332632
0
LINE
8
BLACK
6
CONTINUOUS
10
2.18801
20
-0.332632
11
2.18878
21
-0.337008
0
LINE
8
BLACK
6
CONTINUOUS
10
2.18878
20
-0.337008
11
2.18801
21
-0.341384
0
LINE
8
BLACK
6
CONTINUOUS
10
2.18801
20
-0.341384
11
2.18579
21
-0.345233
0
LINE
8
BLACK
6
CONTINUOUS
10
2.18579
20
-0.345233
11
2.18238
21
-0.348089
0
LINE
8
BLACK
6
CONTINUOUS
10
2.18238
20
-0.348089
11
2.17821
21
-0.349609
0
LINE
8
BLACK
6
CONTINUOUS
10
2.17821
20
-0.349609
11
2.17376
21
-0.349609
0
LINE
8
BLACK
6
CONTINUOUS
10
2.17376
20
-0.349609
11
2.16959
21
-0.348089
0
LINE
8
BLACK
6
CONTINUOUS
10
2.16959
20
-0.348089
11
2.16618
21
-0.345233
0
LINE
8
BLACK
6
CONTINUOUS
10
2.16618
20
-0.345233
11
2.16396
21
-0.341384
0
LINE
8
BLACK
6
CONTINUOUS
10
2.16396
20
-0.341384
11
2.16319
21
-0.337008
0
LINE
8
BLACK
6
CONTINUOUS
10
2.16319
20
-0.337008
11
2.16396
21
-0.332632
0
LINE
8
BLACK
6
CONTINUOUS
10
2.16396
20
-0.332632
11
2.16618
21
-0.328783
0
LINE
8
BLACK
6
CONTINUOUS
10
2.16618
20
-0.328783
11
2.16959
21
-0.325927
0
LINE
8
BLACK
6
CONTINUOUS
10
2.16959
20
-0.325927
11
2.17376
21
-0.324407
0
LINE
8
BLACK
6
CONTINUOUS
10
2.17376
20
-0.324407
11
2.17821
21
-0.324407
0
LINE
8
BLACK
6
CONTINUOUS
10
2.17821
20
-0.324407
11
2.18238
21
-0.325927
0
LINE
8
BLACK
6
CONTINUOUS
10
2.21585
20
-0.325927
11
2.21925
21
-0.328783
0
LINE
8
BLACK
6
CONTINUOUS
10
2.21925
20
-0.328783
11
2.22147
21
-0.332632
0
LINE
8
BLACK
6
CONTINUOUS
10
2.22147
20
-0.332632
11
2.22224
21
-0.337008
0
LINE
8
BLACK
6
CONTINUOUS
10
2.22224
20
-0.337008
11
2.22147
21
-0.341384
0
LINE
8
BLACK
6
CONTINUOUS
10
2.22147
20
-0.341384
11
2.21925
21
-0.345233
0
LINE
8
BLACK
6
CONTINUOUS
10
2.21925
20
-0.345233
11
2.21585
21
-0.348089
0
LINE
8
BLACK
6
CONTINUOUS
10
2.21585
20
-0.348089
11
2.21167
21
-0.349609
0
LINE
8
BLACK
6
CONTINUOUS
10
2.21167
20
-0.349609
11
2.20723
21
-0.349609
0
LINE
8
BLACK
6
CONTINUOUS
10
2.20723
20
-0.349609
11
2.20305
21
-0.348089
0
LINE
8
BLACK
6
CONTINUOUS
10
2.20305
20
-0.348089
11
2.19965
21
-0.345233
0
LINE
8
BLACK
6
CONTINUOUS
10
2.19965
20
-0.345233
11
2.19743
21
-0.341384
0
LINE
8
BLACK
6
CONTINUOUS
10
2.19743
20
-0.341384
11
2.19665
21
-0.337008
0
LINE
8
BLACK
6
CONTINUOUS
10
2.19665
20
-0.337008
11
2.19743
21
-0.332632
0
LINE
8
BLACK
6
CONTINUOUS
10
2.19743
20
-0.332632
11
2.19965
21
-0.328783
0
LINE
8
BLACK
6
CONTINUOUS
10
2.19965
20
-0.328783
11
2.20305
21
-0.325927
0
LINE
8
BLACK
6
CONTINUOUS
10
2.20305
20
-0.325927
11
2.20723
21
-0.324407
0
LINE
8
BLACK
6
CONTINUOUS
10
2.20723
20
-0.324407
11
2.21167
21
-0.324407
0
LINE
8
BLACK
6
CONTINUOUS
10
2.21167
20
-0.324407
11
2.21585
21
-0.325927
0
LINE
8
BLACK
6
CONTINUOUS
10
2.24931
20
-0.325927
11
2.25272
21
-0.328783
0
LINE
8
BLACK
6
CONTINUOUS
10
2.25272
20
-0.328783
11
2.25494
21
-0.332632
0
LINE
8
BLACK
6
CONTINUOUS
10
2.25494
20
-0.332632
11
2.25571
21
-0.337008
0
LINE
8
BLACK
6
CONTINUOUS
10
2.25571
20
-0.337008
11
2.25494
21
-0.341384
0
LINE
8
BLACK
6
CONTINUOUS
10
2.25494
20
-0.341384
11
2.25272
21
-0.345233
0
LINE
8
BLACK
6
CONTINUOUS
10
2.25272
20
-0.345233
11
2.24931
21
-0.348089
0
LINE
8
BLACK
6
CONTINUOUS
10
2.24931
20
-0.348089
11
2.24514
21
-0.349609
0
LINE
8
BLACK
6
CONTINUOUS
10
2.24514
20
-0.349609
11
2.24069
21
-0.349609
0
LINE
8
BLACK
6
CONTINUOUS
10
2.24069
20
-0.349609
11
2.23652
21
-0.348089
0
LINE
8
BLACK
6
CONTINUOUS
10
2.23652
20
-0.348089
11
2.23311
21
-0.345233
0
LINE
8
BLACK
6
CONTINUOUS
10
2.23311
20
-0.345233
11
2.23089
21
-0.341384
0
LINE
8
BLACK
6
CONTINUOUS
10
2.23089
20
-0.341384
11
2.23012
21
-0.337008
0
LINE
8
BLACK
6
CONTINUOUS
10
2.23012
20
-0.337008
11
2.23089
21
-0.332632
0
LINE
8
BLACK
6
CONTINUOUS
10
2.23089
20
-0.332632
11
2.23311
21
-0.328783
0
LINE
8
BLACK
6
CONTINUOUS
10
2.23311
20
-0.328783
11
2.23652
21
-0.325927
0
LINE
8
BLACK
6
CONTINUOUS
10
2.23652
20
-0.325927
11
2.24069
21
-0.324407
0
LINE
8
BLACK
6
CONTINUOUS
10
2.24069
20
-0.324407
11
2.24514
21
-0.324407
0
LINE
8
BLACK
6
CONTINUOUS
10
2.24514
20
-0.324407
11
2.24931
21
-0.325927
0
LINE
8
BLACK
6
CONTINUOUS
10
2.28278
20
-0.325927
11
2.28618
21
-0.328783
0
LINE
8
BLACK
6
CONTINUOUS
10
2.28618
20
-0.328783
11
2.2884
21
-0.332632
0
LINE
8
BLACK
6
CONTINUOUS
10
2.2884
20
-0.332632
11
2.28917
21
-0.337008
0
LINE
8
BLACK
6
CONTINUOUS
10
2.28917
20
-0.337008
11
2.2884
21
-0.341384
0
LINE
8
BLACK
6
CONTINUOUS
10
2.2884
20
-0.341384
11
2.28618
21
-0.345233
0
LINE
8
BLACK
6
CONTINUOUS
10
2.28618
20
-0.345233
11
2.28278
21
-0.348089
0
LINE
8
BLACK
6
CONTINUOUS
10
2.28278
20
-0.348089
11
2.2786
21
-0.349609
0
LINE
8
BLACK
6
CONTINUOUS
10
2.2786
20
-0.349609
11
2.27416
21
-0.349609
0
LINE
8
BLACK
6
CONTINUOUS
10
2.27416
20
-0.349609
11
2.26998
21
-0.348089
0
LINE
8
BLACK
6
CONTINUOUS
10
2.26998
20
-0.348089
11
2.26658
21
-0.345233
0
LINE
8
BLACK
6
CONTINUOUS
10
2.26658
20
-0.345233
11
2.26435
21
-0.341384
0
LINE
8
BLACK
6
CONTINUOUS
10
2.26435
20
-0.341384
11
2.26358
21
-0.337008
0
LINE
8
BLACK
6
CONTINUOUS
10
2.26358
20
-0.337008
11
2.26435
21
-0.332632
0
LINE
8
BLACK
6
CONTINUOUS
10
2.26435
20
-0.332632
11
2.26658
21
-0.328783
0
LINE
8
BLACK
6
CONTINUOUS
10
2.26658
20
-0.328783
11
2.26998
21
-0.325927
0
LINE
8
BLACK
6
CONTINUOUS
10
2.26998
20
-0.325927
11
2.27416
21
-0.324407
0
LINE
8
BLACK
6
CONTINUOUS
10
2.27416
20
-0.324407
11
2.2786
21
-0.324407
0
LINE
8
BLACK
6
CONTINUOUS
10
2.2786
20
-0.324407
11
2.28278
21
-0.325927
0
LINE
8
BLACK
6
CONTINUOUS
10
2.31624
20
-0.325927
11
2.31964
21
-0.328783
0
LINE
8
BLACK
6
CONTINUOUS
10
2.31964
20
-0.328783
11
2.32187
21
-0.332632
0
LINE
8
BLACK
6
CONTINUOUS
10
2.32187
20
-0.332632
11
2.32264
21
-0.337008
0
LINE
8
BLACK
6
CONTINUOUS
10
2.32264
20
-0.337008
11
2.32187
21
-0.341384
0
LINE
8
BLACK
6
CONTINUOUS
10
2.32187
20
-0.341384
11
2.31964
21
-0.345233
0
LINE
8
BLACK
6
CONTINUOUS
10
2.31964
20
-0.345233
11
2.31624
21
-0.348089
0
LINE
8
BLACK
6
CONTINUOUS
10
2.31624
20
-0.348089
11
2.31206
21
-0.349609
0
LINE
8
BLACK
6
CONTINUOUS
10
2.31206
20
-0.349609
11
2.30762
21
-0.349609
0
LINE
8
BLACK
6
CONTINUOUS
10
2.30762
20
-0.349609
11
2.30344
21
-0.348089
0
LINE
8
BLACK
6
CONTINUOUS
10
2.30344
20
-0.348089
11
2.30004
21
-0.345233
0
LINE
8
BLACK
6
CONTINUOUS
10
2.30004
20
-0.345233
11
2.29782
21
-0.341384
0
LINE
8
BLACK
6
CONTINUOUS
10
2.29782
20
-0.341384
11
2.29705
21
-0.337008
0
LINE
8
BLACK
6
CONTINUOUS
10
2.29705
20
-0.337008
11
2.29782
21
-0.332632
0
LINE
8
BLACK
6
CONTINUOUS
10
2.29782
20
-0.332632
11
2.30004
21
-0.328783
0
LINE
8
BLACK
6
CONTINUOUS
10
2.30004
20
-0.328783
11
2.30344
21
-0.325927
0
LINE
8
BLACK
6
CONTINUOUS
10
2.30344
20
-0.325927
11
2.30762
21
-0.324407
0
LINE
8
BLACK
6
CONTINUOUS
10
2.30762
20
-0.324407
11
2.31206
21
-0.324407
0
LINE
8
BLACK
6
CONTINUOUS
10
2.31206
20
-0.324407
11
2.31624
21
-0.325927
0
LINE
8
BLACK
6
CONTINUOUS
10
2.3497
20
-0.325927
11
2.35311
21
-0.328783
0
LINE
8
BLACK
6
CONTINUOUS
10
2.35311
20
-0.328783
11
2.35533
21
-0.332632
0
LINE
8
BLACK
6
CONTINUOUS
10
2.35533
20
-0.332632
11
2.3561
21
-0.337008
0
LINE
8
BLACK
6
CONTINUOUS
10
2.3561
20
-0.337008
11
2.35533
21
-0.341384
0
LINE
8
BLACK
6
CONTINUOUS
10
2.35533
20
-0.341384
11
2.35311
21
-0.345233
0
LINE
8
BLACK
6
CONTINUOUS
10
2.35311
20
-0.345233
11
2.3497
21
-0.348089
0
LINE
8
BLACK
6
CONTINUOUS
10
2.3497
20
-0.348089
11
2.34553
21
-0.349609
0
LINE
8
BLACK
6
CONTINUOUS
10
2.34553
20
-0.349609
11
2.34109
21
-0.349609
0
LINE
8
BLACK
6
CONTINUOUS
10
2.34109
20
-0.349609
11
2.33691
21
-0.348089
0
LINE
8
BLACK
6
CONTINUOUS
10
2.33691
20
-0.348089
11
2.33351
21
-0.345233
0
LINE
8
BLACK
6
CONTINUOUS
10
2.33351
20
-0.345233
11
2.33128
21
-0.341384
0
LINE
8
BLACK
6
CONTINUOUS
10
2.33128
20
-0.341384
11
2.33051
21
-0.337008
0
LINE
8
BLACK
6
CONTINUOUS
10
2.33051
20
-0.337008
11
2.33128
21
-0.332632
0
LINE
8
BLACK
6
CONTINUOUS
10
2.33128
20
-0.332632
11
2.33351
21
-0.328783
0
LINE
8
BLACK
6
CONTINUOUS
10
2.33351
20
-0.328783
11
2.33691
21
-0.325927
0
LINE
8
BLACK
6
CONTINUOUS
10
2.33691
20
-0.325927
11
2.34109
21
-0.324407
0
LINE
8
BLACK
6
CONTINUOUS
10
2.34109
20
-0.324407
11
2.34553
21
-0.324407
0
LINE
8
BLACK
6
CONTINUOUS
10
2.34553
20
-0.324407
11
2.3497
21
-0.325927
0
LINE
8
BLACK
6
CONTINUOUS
10
2.06238
20
-0.252406
11
2.06695
21
-0.255046
0
LINE
8
BLACK
6
CONTINUOUS
10
2.06695
20
-0.255046
11
2.07054
21
-0.258918
0
LINE
8
BLACK
6
CONTINUOUS
10
2.07054
20
-0.258918
11
2.07283
21
-0.263676
0
LINE
8
BLACK
6
CONTINUOUS
10
2.07283
20
-0.263676
11
2.07362
21
-0.268898
0
LINE
8
BLACK
6
CONTINUOUS
10
2.07362
20
-0.268898
11
2.07362
21
-0.327953
0
LINE
8
BLACK
6
CONTINUOUS
10
2.07362
20
-0.327953
11
2.07342
21
-0.330593
0
LINE
8
BLACK
6
CONTINUOUS
10
2.07342
20
-0.330593
11
2.07187
21
-0.33564
0
LINE
8
BLACK
6
CONTINUOUS
10
2.07187
20
-0.33564
11
2.06889
21
-0.340003
0
LINE
8
BLACK
6
CONTINUOUS
10
2.06889
20
-0.340003
11
2.06476
21
-0.343296
0
LINE
8
BLACK
6
CONTINUOUS
10
2.06476
20
-0.343296
11
2.05985
21
-0.345225
0
LINE
8
BLACK
6
CONTINUOUS
10
2.05985
20
-0.345225
11
2.05458
21
-0.34562
0
LINE
8
BLACK
6
CONTINUOUS
10
2.05458
20
-0.34562
11
2.04943
21
-0.344445
0
LINE
8
BLACK
6
CONTINUOUS
10
2.04943
20
-0.344445
11
2.04486
21
-0.341804
0
LINE
8
BLACK
6
CONTINUOUS
10
2.04486
20
-0.341804
11
2.04127
21
-0.337933
0
LINE
8
BLACK
6
CONTINUOUS
10
2.04127
20
-0.337933
11
2.03898
21
-0.333175
0
LINE
8
BLACK
6
CONTINUOUS
10
2.03898
20
-0.333175
11
2.03819
21
-0.327953
0
LINE
8
BLACK
6
CONTINUOUS
10
2.03819
20
-0.327953
11
2.03819
21
-0.268898
0
LINE
8
BLACK
6
CONTINUOUS
10
2.03819
20
-0.268898
11
2.03839
21
-0.266257
0
LINE
8
BLACK
6
CONTINUOUS
10
2.03839
20
-0.266257
11
2.03994
21
-0.261211
0
LINE
8
BLACK
6
CONTINUOUS
10
2.03994
20
-0.261211
11
2.04292
21
-0.256847
0
LINE
8
BLACK
6
CONTINUOUS
10
2.04292
20
-0.256847
11
2.04705
21
-0.253555
0
LINE
8
BLACK
6
CONTINUOUS
10
2.04705
20
-0.253555
11
2.05196
21
-0.251625
0
LINE
8
BLACK
6
CONTINUOUS
10
2.05196
20
-0.251625
11
2.05723
21
-0.251231
0
LINE
8
BLACK
6
CONTINUOUS
10
2.05723
20
-0.251231
11
2.06238
21
-0.252406
0
LINE
8
BLACK
6
CONTINUOUS
10
2.40293
20
-0.252406
11
2.4075
21
-0.255046
0
LINE
8
BLACK
6
CONTINUOUS
10
2.4075
20
-0.255046
11
2.41109
21
-0.258918
0
LINE
8
BLACK
6
CONTINUOUS
10
2.41109
20
-0.258918
11
2.41339
21
-0.263676
0
LINE
8
BLACK
6
CONTINUOUS
10
2.41339
20
-0.263676
11
2.41417
21
-0.268898
0
LINE
8
BLACK
6
CONTINUOUS
10
2.41417
20
-0.268898
11
2.41417
21
-0.327953
0
LINE
8
BLACK
6
CONTINUOUS
10
2.41417
20
-0.327953
11
2.41398
21
-0.330593
0
LINE
8
BLACK
6
CONTINUOUS
10
2.41398
20
-0.330593
11
2.41242
21
-0.33564
0
LINE
8
BLACK
6
CONTINUOUS
10
2.41242
20
-0.33564
11
2.40944
21
-0.340003
0
LINE
8
BLACK
6
CONTINUOUS
10
2.40944
20
-0.340003
11
2.40531
21
-0.343296
0
LINE
8
BLACK
6
CONTINUOUS
10
2.40531
20
-0.343296
11
2.4004
21
-0.345225
0
LINE
8
BLACK
6
CONTINUOUS
10
2.4004
20
-0.345225
11
2.39513
21
-0.34562
0
LINE
8
BLACK
6
CONTINUOUS
10
2.39513
20
-0.34562
11
2.38998
21
-0.344445
0
LINE
8
BLACK
6
CONTINUOUS
10
2.38998
20
-0.344445
11
2.38541
21
-0.341804
0
LINE
8
BLACK
6
CONTINUOUS
10
2.38541
20
-0.341804
11
2.38182
21
-0.337933
0
LINE
8
BLACK
6
CONTINUOUS
10
2.38182
20
-0.337933
11
2.37953
21
-0.333175
0
LINE
8
BLACK
6
CONTINUOUS
10
2.37953
20
-0.333175
11
2.37874
21
-0.327953
0
LINE
8
BLACK
6
CONTINUOUS
10
2.37874
20
-0.327953
11
2.37874
21
-0.268898
0
LINE
8
BLACK
6
CONTINUOUS
10
2.37874
20
-0.268898
11
2.37894
21
-0.266257
0
LINE
8
BLACK
6
CONTINUOUS
10
2.37894
20
-0.266257
11
2.38049
21
-0.261211
0
LINE
8
BLACK
6
CONTINUOUS
10
2.38049
20
-0.261211
11
2.38347
21
-0.256847
0
LINE
8
BLACK
6
CONTINUOUS
10
2.38347
20
-0.256847
11
2.3876
21
-0.253555
0
LINE
8
BLACK
6
CONTINUOUS
10
2.3876
20
-0.253555
11
2.39251
21
-0.251625
0
LINE
8
BLACK
6
CONTINUOUS
10
2.39251
20
-0.251625
11
2.39778
21
-0.251231
0
LINE
8
BLACK
6
CONTINUOUS
10
2.39778
20
-0.251231
11
2.40293
21
-0.252406
0
LINE
8
BLACK
6
CONTINUOUS
10
0.210169
20
-0.0708709
11
0.224097
21
-0.0732374
0
LINE
8
BLACK
6
CONTINUOUS
10
0.224097
20
-0.0732374
11
0.237673
21
-0.0771485
0
LINE
8
BLACK
6
CONTINUOUS
10
0.237673
20
-0.0771485
11
0.250726
21
-0.0825551
0
LINE
8
BLACK
6
CONTINUOUS
10
0.250726
20
-0.0825551
11
0.263091
21
-0.0893891
0
LINE
8
BLACK
6
CONTINUOUS
10
0.263091
20
-0.0893891
11
0.274613
21
-0.0975645
0
LINE
8
BLACK
6
CONTINUOUS
10
0.274613
20
-0.0975645
11
0.285147
21
-0.106979
0
LINE
8
BLACK
6
CONTINUOUS
10
0.285147
20
-0.106979
11
0.294561
21
-0.117513
0
LINE
8
BLACK
6
CONTINUOUS
10
0.294561
20
-0.117513
11
0.302737
21
-0.129035
0
LINE
8
BLACK
6
CONTINUOUS
10
0.302737
20
-0.129035
11
0.309571
21
-0.1414
0
LINE
8
BLACK
6
CONTINUOUS
10
0.309571
20
-0.1414
11
0.314977
21
-0.154453
0
LINE
8
BLACK
6
CONTINUOUS
10
0.314977
20
-0.154453
11
0.318889
21
-0.168029
0
LINE
8
BLACK
6
CONTINUOUS
10
0.318889
20
-0.168029
11
0.321255
21
-0.181957
0
LINE
8
BLACK
6
CONTINUOUS
10
0.321255
20
-0.181957
11
0.322047
21
-0.196063
0
LINE
8
BLACK
6
CONTINUOUS
10
0.322047
20
-0.196063
11
0.321255
21
-0.210169
0
LINE
8
BLACK
6
CONTINUOUS
10
0.321255
20
-0.210169
11
0.318889
21
-0.224097
0
LINE
8
BLACK
6
CONTINUOUS
10
0.318889
20
-0.224097
11
0.314977
21
-0.237673
0
LINE
8
BLACK
6
CONTINUOUS
10
0.314977
20
-0.237673
11
0.309571
21
-0.250726
0
LINE
8
BLACK
6
CONTINUOUS
10
0.309571
20
-0.250726
11
0.302737
21
-0.263091
0
LINE
8
BLACK
6
CONTINUOUS
10
0.302737
20
-0.263091
11
0.294561
21
-0.274613
0
LINE
8
BLACK
6
CONTINUOUS
10
0.294561
20
-0.274613
11
0.285147
21
-0.285147
0
LINE
8
BLACK
6
CONTINUOUS
10
0.285147
20
-0.285147
11
0.274613
21
-0.294561
0
LINE
8
BLACK
6
CONTINUOUS
10
0.274613
20
-0.294561
11
0.263091
21
-0.302737
0
LINE
8
BLACK
6
CONTINUOUS
10
0.263091
20
-0.302737
11
0.250726
21
-0.309571
0
LINE
8
BLACK
6
CONTINUOUS
10
0.250726
20
-0.309571
11
0.237673
21
-0.314977
0
LINE
8
BLACK
6
CONTINUOUS
10
0.237673
20
-0.314977
11
0.224097
21
-0.318889
0
LINE
8
BLACK
6
CONTINUOUS
10
0.224097
20
-0.318889
11
0.210169
21
-0.321255
0
LINE
8
BLACK
6
CONTINUOUS
10
0.210169
20
-0.321255
11
0.196063
21
-0.322047
0
LINE
8
BLACK
6
CONTINUOUS
10
0.196063
20
-0.322047
11
0.181957
21
-0.321255
0
LINE
8
BLACK
6
CONTINUOUS
10
0.181957
20
-0.321255
11
0.168029
21
-0.318889
0
LINE
8
BLACK
6
CONTINUOUS
10
0.168029
20
-0.318889
11
0.154453
21
-0.314977
0
LINE
8
BLACK
6
CONTINUOUS
10
0.154453
20
-0.314977
11
0.1414
21
-0.309571
0
LINE
8
BLACK
6
CONTINUOUS
10
0.1414
20
-0.309571
11
0.129035
21
-0.302737
0
LINE
8
BLACK
6
CONTINUOUS
10
0.129035
20
-0.302737
11
0.117513
21
-0.294561
0
LINE
8
BLACK
6
CONTINUOUS
10
0.117513
20
-0.294561
11
0.106979
21
-0.285147
0
LINE
8
BLACK
6
CONTINUOUS
10
0.106979
20
-0.285147
11
0.0975645
21
-0.274613
0
LINE
8
BLACK
6
CONTINUOUS
10
0.0975645
20
-0.274613
11
0.0893891
21
-0.263091
0
LINE
8
BLACK
6
CONTINUOUS
10
0.0893891
20
-0.263091
11
0.0825551
21
-0.250726
0
LINE
8
BLACK
6
CONTINUOUS
10
0.0825551
20
-0.250726
11
0.0771485
21
-0.237673
0
LINE
8
BLACK
6
CONTINUOUS
10
0.0771485
20
-0.237673
11
0.0732374
21
-0.224097
0
LINE
8
BLACK
6
CONTINUOUS
10
0.0732374
20
-0.224097
11
0.0708709
21
-0.210169
0
LINE
8
BLACK
6
CONTINUOUS
10
0.0708709
20
-0.210169
11
0.0700787
21
-0.196063
0
LINE
8
BLACK
6
CONTINUOUS
10
0.0700787
20
-0.196063
11
0.0708709
21
-0.181957
0
LINE
8
BLACK
6
CONTINUOUS
10
0.0708709
20
-0.181957
11
0.0732374
21
-0.168029
0
LINE
8
BLACK
6
CONTINUOUS
10
0.0732374
20
-0.168029
11
0.0771485
21
-0.154453
0
LINE
8
BLACK
6
CONTINUOUS
10
0.0771485
20
-0.154453
11
0.0825551
21
-0.1414
0
LINE
8
BLACK
6
CONTINUOUS
10
0.0825551
20
-0.1414
11
0.0893891
21
-0.129035
0
LINE
8
BLACK
6
CONTINUOUS
10
0.0893891
20
-0.129035
11
0.0975645
21
-0.117513
0
LINE
8
BLACK
6
CONTINUOUS
10
0.0975645
20
-0.117513
11
0.106979
21
-0.106979
0
LINE
8
BLACK
6
CONTINUOUS
10
0.106979
20
-0.106979
11
0.117513
21
-0.0975645
0
LINE
8
BLACK
6
CONTINUOUS
10
0.117513
20
-0.0975645
11
0.129035
21
-0.0893891
0
LINE
8
BLACK
6
CONTINUOUS
10
0.129035
20
-0.0893891
11
0.1414
21
-0.0825551
0
LINE
8
BLACK
6
CONTINUOUS
10
0.1414
20
-0.0825551
11
0.154453
21
-0.0771485
0
LINE
8
BLACK
6
CONTINUOUS
10
0.154453
20
-0.0771485
11
0.168029
21
-0.0732374
0
LINE
8
BLACK
6
CONTINUOUS
10
0.168029
20
-0.0732374
11
0.181957
21
-0.0708709
0
LINE
8
BLACK
6
CONTINUOUS
10
0.181957
20
-0.0708709
11
0.196063
21
-0.0700787
0
LINE
8
BLACK
6
CONTINUOUS
10
0.196063
20
-0.0700787
11
0.210169
21
-0.0708709
0
LINE
8
BLACK
6
CONTINUOUS
10
2.61017
20
-0.0708709
11
2.6241
21
-0.0732374
0
LINE
8
BLACK
6
CONTINUOUS
10
2.6241
20
-0.0732374
11
2.63767
21
-0.0771485
0
LINE
8
BLACK
6
CONTINUOUS
10
2.63767
20
-0.0771485
11
2.65073
21
-0.0825551
0
LINE
8
BLACK
6
CONTINUOUS
10
2.65073
20
-0.0825551
11
2.66309
21
-0.0893891
0
LINE
8
BLACK
6
CONTINUOUS
10
2.66309
20
-0.0893891
11
2.67461
21
-0.0975645
0
LINE
8
BLACK
6
CONTINUOUS
10
2.67461
20
-0.0975645
11
2.68515
21
-0.106979
0
LINE
8
BLACK
6
CONTINUOUS
10
2.68515
20
-0.106979
11
2.69456
21
-0.117513
0
LINE
8
BLACK
6
CONTINUOUS
10
2.69456
20
-0.117513
11
2.70274
21
-0.129035
0
LINE
8
BLACK
6
CONTINUOUS
10
2.70274
20
-0.129035
11
2.70957
21
-0.1414
0
LINE
8
BLACK
6
CONTINUOUS
10
2.70957
20
-0.1414
11
2.71498
21
-0.154453
0
LINE
8
BLACK
6
CONTINUOUS
10
2.71498
20
-0.154453
11
2.71889
21
-0.168029
0
LINE
8
BLACK
6
CONTINUOUS
10
2.71889
20
-0.168029
11
2.72126
21
-0.181957
0
LINE
8
BLACK
6
CONTINUOUS
10
2.72126
20
-0.181957
11
2.72205
21
-0.196063
0
LINE
8
BLACK
6
CONTINUOUS
10
2.72205
20
-0.196063
11
2.72126
21
-0.210169
0
LINE
8
BLACK
6
CONTINUOUS
10
2.72126
20
-0.210169
11
2.71889
21
-0.224097
0
LINE
8
BLACK
6
CONTINUOUS
10
2.71889
20
-0.224097
11
2.71498
21
-0.237673
0
LINE
8
BLACK
6
CONTINUOUS
10
2.71498
20
-0.237673
11
2.70957
21
-0.250726
0
LINE
8
BLACK
6
CONTINUOUS
10
2.70957
20
-0.250726
11
2.70274
21
-0.263091
0
LINE
8
BLACK
6
CONTINUOUS
10
2.70274
20
-0.263091
11
2.69456
21
-0.274613
0
LINE
8
BLACK
6
CONTINUOUS
10
2.69456
20
-0.274613
11
2.68515
21
-0.285147
0
LINE
8
BLACK
6
CONTINUOUS
10
2.68515
20
-0.285147
11
2.67461
21
-0.294561
0
LINE
8
BLACK
6
CONTINUOUS
10
2.67461
20
-0.294561
11
2.66309
21
-0.302737
0
LINE
8
BLACK
6
CONTINUOUS
10
2.66309
20
-0.302737
11
2.65073
21
-0.309571
0
LINE
8
BLACK
6
CONTINUOUS
10
2.65073
20
-0.309571
11
2.63767
21
-0.314977
0
LINE
8
BLACK
6
CONTINUOUS
10
2.63767
20
-0.314977
11
2.6241
21
-0.318889
0
LINE
8
BLACK
6
CONTINUOUS
10
2.6241
20
-0.318889
11
2.61017
21
-0.321255
0
LINE
8
BLACK
6
CONTINUOUS
10
2.61017
20
-0.321255
11
2.59606
21
-0.322047
0
LINE
8
BLACK
6
CONTINUOUS
10
2.59606
20
-0.322047
11
2.58196
21
-0.321255
0
LINE
8
BLACK
6
CONTINUOUS
10
2.58196
20
-0.321255
11
2.56803
21
-0.318889
0
LINE
8
BLACK
6
CONTINUOUS
10
2.56803
20
-0.318889
11
2.55445
21
-0.314977
0
LINE
8
BLACK
6
CONTINUOUS
10
2.55445
20
-0.314977
11
2.5414
21
-0.309571
0
LINE
8
BLACK
6
CONTINUOUS
10
2.5414
20
-0.309571
11
2.52904
21
-0.302737
0
LINE
8
BLACK
6
CONTINUOUS
10
2.52904
20
-0.302737
11
2.51751
21
-0.294561
0
LINE
8
BLACK
6
CONTINUOUS
10
2.51751
20
-0.294561
11
2.50698
21
-0.285147
0
LINE
8
BLACK
6
CONTINUOUS
10
2.50698
20
-0.285147
11
2.49756
21
-0.274613
0
LINE
8
BLACK
6
CONTINUOUS
10
2.49756
20
-0.274613
11
2.48939
21
-0.263091
0
LINE
8
BLACK
6
CONTINUOUS
10
2.48939
20
-0.263091
11
2.48256
21
-0.250726
0
LINE
8
BLACK
6
CONTINUOUS
10
2.48256
20
-0.250726
11
2.47715
21
-0.237673
0
LINE
8
BLACK
6
CONTINUOUS
10
2.47715
20
-0.237673
11
2.47324
21
-0.224097
0
LINE
8
BLACK
6
CONTINUOUS
10
2.47324
20
-0.224097
11
2.47087
21
-0.210169
0
LINE
8
BLACK
6
CONTINUOUS
10
2.47087
20
-0.210169
11
2.47008
21
-0.196063
0
LINE
8
BLACK
6
CONTINUOUS
10
2.47008
20
-0.196063
11
2.47087
21
-0.181957
0
LINE
8
BLACK
6
CONTINUOUS
10
2.47087
20
-0.181957
11
2.47324
21
-0.168029
0
LINE
8
BLACK
6
CONTINUOUS
10
2.47324
20
-0.168029
11
2.47715
21
-0.154453
0
LINE
8
BLACK
6
CONTINUOUS
10
2.47715
20
-0.154453
11
2.48256
21
-0.1414
0
LINE
8
BLACK
6
CONTINUOUS
10
2.48256
20
-0.1414
11
2.48939
21
-0.129035
0
LINE
8
BLACK
6
CONTINUOUS
10
2.48939
20
-0.129035
11
2.49756
21
-0.117513
0
LINE
8
BLACK
6
CONTINUOUS
10
2.49756
20
-0.117513
11
2.50698
21
-0.106979
0
LINE
8
BLACK
6
CONTINUOUS
10
2.50698
20
-0.106979
11
2.51751
21
-0.0975645
0
LINE
8
BLACK
6
CONTINUOUS
10
2.51751
20
-0.0975645
11
2.52904
21
-0.0893891
0
LINE
8
BLACK
6
CONTINUOUS
10
2.52904
20
-0.0893891
11
2.5414
21
-0.0825551
0
LINE
8
BLACK
6
CONTINUOUS
10
2.5414
20
-0.0825551
11
2.55445
21
-0.0771485
0
LINE
8
BLACK
6
CONTINUOUS
10
2.55445
20
-0.0771485
11
2.56803
21
-0.0732374
0
LINE
8
BLACK
6
CONTINUOUS
10
2.56803
20
-0.0732374
11
2.58196
21
-0.0708709
0
LINE
8
BLACK
6
CONTINUOUS
10
2.58196
20
-0.0708709
11
2.59606
21
-0.0700787
0
LINE
8
BLACK
6
CONTINUOUS
10
2.59606
20
-0.0700787
11
2.61017
21
-0.0708709
0
LINE
8
BLACK
6
CONTINUOUS
10
2.11545
20
-0.272777
11
2.11886
21
-0.275634
0
LINE
8
BLACK
6
CONTINUOUS
10
2.11886
20
-0.275634
11
2.12108
21
-0.279482
0
LINE
8
BLACK
6
CONTINUOUS
10
2.12108
20
-0.279482
11
2.12185
21
-0.283858
0
LINE
8
BLACK
6
CONTINUOUS
10
2.12185
20
-0.283858
11
2.12108
21
-0.288235
0
LINE
8
BLACK
6
CONTINUOUS
10
2.12108
20
-0.288235
11
2.11886
21
-0.292083
0
LINE
8
BLACK
6
CONTINUOUS
10
2.11886
20
-0.292083
11
2.11545
21
-0.294939
0
LINE
8
BLACK
6
CONTINUOUS
10
2.11545
20
-0.294939
11
2.11128
21
-0.296459
0
LINE
8
BLACK
6
CONTINUOUS
10
2.11128
20
-0.296459
11
2.10683
21
-0.296459
0
LINE
8
BLACK
6
CONTINUOUS
10
2.10683
20
-0.296459
11
2.10266
21
-0.294939
0
LINE
8
BLACK
6
CONTINUOUS
10
2.10266
20
-0.294939
11
2.09925
21
-0.292083
0
LINE
8
BLACK
6
CONTINUOUS
10
2.09925
20
-0.292083
11
2.09703
21
-0.288235
0
LINE
8
BLACK
6
CONTINUOUS
10
2.09703
20
-0.288235
11
2.09626
21
-0.283858
0
LINE
8
BLACK
6
CONTINUOUS
10
2.09626
20
-0.283858
11
2.09703
21
-0.279482
0
LINE
8
BLACK
6
CONTINUOUS
10
2.09703
20
-0.279482
11
2.09925
21
-0.275634
0
LINE
8
BLACK
6
CONTINUOUS
10
2.09925
20
-0.275634
11
2.10266
21
-0.272777
0
LINE
8
BLACK
6
CONTINUOUS
10
2.10266
20
-0.272777
11
2.10683
21
-0.271257
0
LINE
8
BLACK
6
CONTINUOUS
10
2.10683
20
-0.271257
11
2.11128
21
-0.271257
0
LINE
8
BLACK
6
CONTINUOUS
10
2.11128
20
-0.271257
11
2.11545
21
-0.272777
0
LINE
8
BLACK
6
CONTINUOUS
10
2.14892
20
-0.272777
11
2.15232
21
-0.275634
0
LINE
8
BLACK
6
CONTINUOUS
10
2.15232
20
-0.275634
11
2.15454
21
-0.279482
0
LINE
8
BLACK
6
CONTINUOUS
10
2.15454
20
-0.279482
11
2.15531
21
-0.283858
0
LINE
8
BLACK
6
CONTINUOUS
10
2.15531
20
-0.283858
11
2.15454
21
-0.288235
0
LINE
8
BLACK
6
CONTINUOUS
10
2.15454
20
-0.288235
11
2.15232
21
-0.292083
0
LINE
8
BLACK
6
CONTINUOUS
10
2.15232
20
-0.292083
11
2.14892
21
-0.294939
0
LINE
8
BLACK
6
CONTINUOUS
10
2.14892
20
-0.294939
11
2.14474
21
-0.296459
0
LINE
8
BLACK
6
CONTINUOUS
10
2.14474
20
-0.296459
11
2.1403
21
-0.296459
0
LINE
8
BLACK
6
CONTINUOUS
10
2.1403
20
-0.296459
11
2.13612
21
-0.294939
0
LINE
8
BLACK
6
CONTINUOUS
10
2.13612
20
-0.294939
11
2.13272
21
-0.292083
0
LINE
8
BLACK
6
CONTINUOUS
10
2.13272
20
-0.292083
11
2.1305
21
-0.288235
0
LINE
8
BLACK
6
CONTINUOUS
10
2.1305
20
-0.288235
11
2.12972
21
-0.283858
0
LINE
8
BLACK
6
CONTINUOUS
10
2.12972
20
-0.283858
11
2.1305
21
-0.279482
0
LINE
8
BLACK
6
CONTINUOUS
10
2.1305
20
-0.279482
11
2.13272
21
-0.275634
0
LINE
8
BLACK
6
CONTINUOUS
10
2.13272
20
-0.275634
11
2.13612
21
-0.272777
0
LINE
8
BLACK
6
CONTINUOUS
10
2.13612
20
-0.272777
11
2.1403
21
-0.271257
0
LINE
8
BLACK
6
CONTINUOUS
10
2.1403
20
-0.271257
11
2.14474
21
-0.271257
0
LINE
8
BLACK
6
CONTINUOUS
10
2.14474
20
-0.271257
11
2.14892
21
-0.272777
0
LINE
8
BLACK
6
CONTINUOUS
10
2.18238
20
-0.272777
11
2.18579
21
-0.275634
0
LINE
8
BLACK
6
CONTINUOUS
10
2.18579
20
-0.275634
11
2.18801
21
-0.279482
0
LINE
8
BLACK
6
CONTINUOUS
10
2.18801
20
-0.279482
11
2.18878
21
-0.283858
0
LINE
8
BLACK
6
CONTINUOUS
10
2.18878
20
-0.283858
11
2.18801
21
-0.288235
0
LINE
8
BLACK
6
CONTINUOUS
10
2.18801
20
-0.288235
11
2.18579
21
-0.292083
0
LINE
8
BLACK
6
CONTINUOUS
10
2.18579
20
-0.292083
11
2.18238
21
-0.294939
0
LINE
8
BLACK
6
CONTINUOUS
10
2.18238
20
-0.294939
11
2.17821
21
-0.296459
0
LINE
8
BLACK
6
CONTINUOUS
10
2.17821
20
-0.296459
11
2.17376
21
-0.296459
0
LINE
8
BLACK
6
CONTINUOUS
10
2.17376
20
-0.296459
11
2.16959
21
-0.294939
0
LINE
8
BLACK
6
CONTINUOUS
10
2.16959
20
-0.294939
11
2.16618
21
-0.292083
0
LINE
8
BLACK
6
CONTINUOUS
10
2.16618
20
-0.292083
11
2.16396
21
-0.288235
0
LINE
8
BLACK
6
CONTINUOUS
10
2.16396
20
-0.288235
11
2.16319
21
-0.283858
0
LINE
8
BLACK
6
CONTINUOUS
10
2.16319
20
-0.283858
11
2.16396
21
-0.279482
0
LINE
8
BLACK
6
CONTINUOUS
10
2.16396
20
-0.279482
11
2.16618
21
-0.275634
0
LINE
8
BLACK
6
CONTINUOUS
10
2.16618
20
-0.275634
11
2.16959
21
-0.272777
0
LINE
8
BLACK
6
CONTINUOUS
10
2.16959
20
-0.272777
11
2.17376
21
-0.271257
0
LINE
8
BLACK
6
CONTINUOUS
10
2.17376
20
-0.271257
11
2.17821
21
-0.271257
0
LINE
8
BLACK
6
CONTINUOUS
10
2.17821
20
-0.271257
11
2.18238
21
-0.272777
0
LINE
8
BLACK
6
CONTINUOUS
10
2.21585
20
-0.272777
11
2.21925
21
-0.275634
0
LINE
8
BLACK
6
CONTINUOUS
10
2.21925
20
-0.275634
11
2.22147
21
-0.279482
0
LINE
8
BLACK
6
CONTINUOUS
10
2.22147
20
-0.279482
11
2.22224
21
-0.283858
0
LINE
8
BLACK
6
CONTINUOUS
10
2.22224
20
-0.283858
11
2.22147
21
-0.288235
0
LINE
8
BLACK
6
CONTINUOUS
10
2.22147
20
-0.288235
11
2.21925
21
-0.292083
0
LINE
8
BLACK
6
CONTINUOUS
10
2.21925
20
-0.292083
11
2.21585
21
-0.294939
0
LINE
8
BLACK
6
CONTINUOUS
10
2.21585
20
-0.294939
11
2.21167
21
-0.296459
0
LINE
8
BLACK
6
CONTINUOUS
10
2.21167
20
-0.296459
11
2.20723
21
-0.296459
0
LINE
8
BLACK
6
CONTINUOUS
10
2.20723
20
-0.296459
11
2.20305
21
-0.294939
0
LINE
8
BLACK
6
CONTINUOUS
10
2.20305
20
-0.294939
11
2.19965
21
-0.292083
0
LINE
8
BLACK
6
CONTINUOUS
10
2.19965
20
-0.292083
11
2.19743
21
-0.288235
0
LINE
8
BLACK
6
CONTINUOUS
10
2.19743
20
-0.288235
11
2.19665
21
-0.283858
0
LINE
8
BLACK
6
CONTINUOUS
10
2.19665
20
-0.283858
11
2.19743
21
-0.279482
0
LINE
8
BLACK
6
CONTINUOUS
10
2.19743
20
-0.279482
11
2.19965
21
-0.275634
0
LINE
8
BLACK
6
CONTINUOUS
10
2.19965
20
-0.275634
11
2.20305
21
-0.272777
0
LINE
8
BLACK
6
CONTINUOUS
10
2.20305
20
-0.272777
11
2.20723
21
-0.271257
0
LINE
8
BLACK
6
CONTINUOUS
10
2.20723
20
-0.271257
11
2.21167
21
-0.271257
0
LINE
8
BLACK
6
CONTINUOUS
10
2.21167
20
-0.271257
11
2.21585
21
-0.272777
0
LINE
8
BLACK
6
CONTINUOUS
10
2.24931
20
-0.272777
11
2.25272
21
-0.275634
0
LINE
8
BLACK
6
CONTINUOUS
10
2.25272
20
-0.275634
11
2.25494
21
-0.279482
0
LINE
8
BLACK
6
CONTINUOUS
10
2.25494
20
-0.279482
11
2.25571
21
-0.283858
0
LINE
8
BLACK
6
CONTINUOUS
10
2.25571
20
-0.283858
11
2.25494
21
-0.288235
0
LINE
8
BLACK
6
CONTINUOUS
10
2.25494
20
-0.288235
11
2.25272
21
-0.292083
0
LINE
8
BLACK
6
CONTINUOUS
10
2.25272
20
-0.292083
11
2.24931
21
-0.294939
0
LINE
8
BLACK
6
CONTINUOUS
10
2.24931
20
-0.294939
11
2.24514
21
-0.296459
0
LINE
8
BLACK
6
CONTINUOUS
10
2.24514
20
-0.296459
11
2.24069
21
-0.296459
0
LINE
8
BLACK
6
CONTINUOUS
10
2.24069
20
-0.296459
11
2.23652
21
-0.294939
0
LINE
8
BLACK
6
CONTINUOUS
10
2.23652
20
-0.294939
11
2.23311
21
-0.292083
0
LINE
8
BLACK
6
CONTINUOUS
10
2.23311
20
-0.292083
11
2.23089
21
-0.288235
0
LINE
8
BLACK
6
CONTINUOUS
10
2.23089
20
-0.288235
11
2.23012
21
-0.283858
0
LINE
8
BLACK
6
CONTINUOUS
10
2.23012
20
-0.283858
11
2.23089
21
-0.279482
0
LINE
8
BLACK
6
CONTINUOUS
10
2.23089
20
-0.279482
11
2.23311
21
-0.275634
0
LINE
8
BLACK
6
CONTINUOUS
10
2.23311
20
-0.275634
11
2.23652
21
-0.272777
0
LINE
8
BLACK
6
CONTINUOUS
10
2.23652
20
-0.272777
11
2.24069
21
-0.271257
0
LINE
8
BLACK
6
CONTINUOUS
10
2.24069
20
-0.271257
11
2.24514
21
-0.271257
0
LINE
8
BLACK
6
CONTINUOUS
10
2.24514
20
-0.271257
11
2.24931
21
-0.272777
0
LINE
8
BLACK
6
CONTINUOUS
10
2.28278
20
-0.272777
11
2.28618
21
-0.275634
0
LINE
8
BLACK
6
CONTINUOUS
10
2.28618
20
-0.275634
11
2.2884
21
-0.279482
0
LINE
8
BLACK
6
CONTINUOUS
10
2.2884
20
-0.279482
11
2.28917
21
-0.283858
0
LINE
8
BLACK
6
CONTINUOUS
10
2.28917
20
-0.283858
11
2.2884
21
-0.288235
0
LINE
8
BLACK
6
CONTINUOUS
10
2.2884
20
-0.288235
11
2.28618
21
-0.292083
0
LINE
8
BLACK
6
CONTINUOUS
10
2.28618
20
-0.292083
11
2.28278
21
-0.294939
0
LINE
8
BLACK
6
CONTINUOUS
10
2.28278
20
-0.294939
11
2.2786
21
-0.296459
0
LINE
8
BLACK
6
CONTINUOUS
10
2.2786
20
-0.296459
11
2.27416
21
-0.296459
0
LINE
8
BLACK
6
CONTINUOUS
10
2.27416
20
-0.296459
11
2.26998
21
-0.294939
0
LINE
8
BLACK
6
CONTINUOUS
10
2.26998
20
-0.294939
11
2.26658
21
-0.292083
0
LINE
8
BLACK
6
CONTINUOUS
10
2.26658
20
-0.292083
11
2.26435
21
-0.288235
0
LINE
8
BLACK
6
CONTINUOUS
10
2.26435
20
-0.288235
11
2.26358
21
-0.283858
0
LINE
8
BLACK
6
CONTINUOUS
10
2.26358
20
-0.283858
11
2.26435
21
-0.279482
0
LINE
8
BLACK
6
CONTINUOUS
10
2.26435
20
-0.279482
11
2.26658
21
-0.275634
0
LINE
8
BLACK
6
CONTINUOUS
10
2.26658
20
-0.275634
11
2.26998
21
-0.272777
0
LINE
8
BLACK
6
CONTINUOUS
10
2.26998
20
-0.272777
11
2.27416
21
-0.271257
0
LINE
8
BLACK
6
CONTINUOUS
10
2.27416
20
-0.271257
11
2.2786
21
-0.271257
0
LINE
8
BLACK
6
CONTINUOUS
10
2.2786
20
-0.271257
11
2.28278
21
-0.272777
0
LINE
8
BLACK
6
CONTINUOUS
10
2.31624
20
-0.272777
11
2.31964
21
-0.275634
0
LINE
8
BLACK
6
CONTINUOUS
10
2.31964
20
-0.275634
11
2.32187
21
-0.279482
0
LINE
8
BLACK
6
CONTINUOUS
10
2.32187
20
-0.279482
11
2.32264
21
-0.283858
0
LINE
8
BLACK
6
CONTINUOUS
10
2.32264
20
-0.283858
11
2.32187
21
-0.288235
0
LINE
8
BLACK
6
CONTINUOUS
10
2.32187
20
-0.288235
11
2.31964
21
-0.292083
0
LINE
8
BLACK
6
CONTINUOUS
10
2.31964
20
-0.292083
11
2.31624
21
-0.294939
0
LINE
8
BLACK
6
CONTINUOUS
10
2.31624
20
-0.294939
11
2.31206
21
-0.296459
0
LINE
8
BLACK
6
CONTINUOUS
10
2.31206
20
-0.296459
11
2.30762
21
-0.296459
0
LINE
8
BLACK
6
CONTINUOUS
10
2.30762
20
-0.296459
11
2.30344
21
-0.294939
0
LINE
8
BLACK
6
CONTINUOUS
10
2.30344
20
-0.294939
11
2.30004
21
-0.292083
0
LINE
8
BLACK
6
CONTINUOUS
10
2.30004
20
-0.292083
11
2.29782
21
-0.288235
0
LINE
8
BLACK
6
CONTINUOUS
10
2.29782
20
-0.288235
11
2.29705
21
-0.283858
0
LINE
8
BLACK
6
CONTINUOUS
10
2.29705
20
-0.283858
11
2.29782
21
-0.279482
0
LINE
8
BLACK
6
CONTINUOUS
10
2.29782
20
-0.279482
11
2.30004
21
-0.275634
0
LINE
8
BLACK
6
CONTINUOUS
10
2.30004
20
-0.275634
11
2.30344
21
-0.272777
0
LINE
8
BLACK
6
CONTINUOUS
10
2.30344
20
-0.272777
11
2.30762
21
-0.271257
0
LINE
8
BLACK
6
CONTINUOUS
10
2.30762
20
-0.271257
11
2.31206
21
-0.271257
0
LINE
8
BLACK
6
CONTINUOUS
10
2.31206
20
-0.271257
11
2.31624
21
-0.272777
0
LINE
8
BLACK
6
CONTINUOUS
10
2.3497
20
-0.272777
11
2.35311
21
-0.275634
0
LINE
8
BLACK
6
CONTINUOUS
10
2.35311
20
-0.275634
11
2.35533
21
-0.279482
0
LINE
8
BLACK
6
CONTINUOUS
10
2.35533
20
-0.279482
11
2.3561
21
-0.283858
0
LINE
8
BLACK
6
CONTINUOUS
10
2.3561
20
-0.283858
11
2.35533
21
-0.288235
0
LINE
8
BLACK
6
CONTINUOUS
10
2.35533
20
-0.288235
11
2.35311
21
-0.292083
0
LINE
8
BLACK
6
CONTINUOUS
10
2.35311
20
-0.292083
11
2.3497
21
-0.294939
0
LINE
8
BLACK
6
CONTINUOUS
10
2.3497
20
-0.294939
11
2.34553
21
-0.296459
0
LINE
8
BLACK
6
CONTINUOUS
10
2.34553
20
-0.296459
11
2.34109
21
-0.296459
0
LINE
8
BLACK
6
CONTINUOUS
10
2.34109
20
-0.296459
11
2.33691
21
-0.294939
0
LINE
8
BLACK
6
CONTINUOUS
10
2.33691
20
-0.294939
11
2.33351
21
-0.292083
0
LINE
8
BLACK
6
CONTINUOUS
10
2.33351
20
-0.292083
11
2.33128
21
-0.288235
0
LINE
8
BLACK
6
CONTINUOUS
10
2.33128
20
-0.288235
11
2.33051
21
-0.283858
0
LINE
8
BLACK
6
CONTINUOUS
10
2.33051
20
-0.283858
11
2.33128
21
-0.279482
0
LINE
8
BLACK
6
CONTINUOUS
10
2.33128
20
-0.279482
11
2.33351
21
-0.275634
0
LINE
8
BLACK
6
CONTINUOUS
10
2.33351
20
-0.275634
11
2.33691
21
-0.272777
0
LINE
8
BLACK
6
CONTINUOUS
10
2.33691
20
-0.272777
11
2.34109
21
-0.271257
0
LINE
8
BLACK
6
CONTINUOUS
10
2.34109
20
-0.271257
11
2.34553
21
-0.271257
0
LINE
8
BLACK
6
CONTINUOUS
10
2.34553
20
-0.271257
11
2.3497
21
-0.272777
0
LINE
8
BLACK
6
CONTINUOUS
10
0.452907
20
-0.15936
11
0.462607
21
-0.162352
0
LINE
8
BLACK
6
CONTINUOUS
10
0.462607
20
-0.162352
11
0.471752
21
-0.166756
0
LINE
8
BLACK
6
CONTINUOUS
10
0.471752
20
-0.166756
11
0.480139
21
-0.172474
0
LINE
8
BLACK
6
CONTINUOUS
10
0.480139
20
-0.172474
11
0.487579
21
-0.179378
0
LINE
8
BLACK
6
CONTINUOUS
10
0.487579
20
-0.179378
11
0.493908
21
-0.187314
0
LINE
8
BLACK
6
CONTINUOUS
10
0.493908
20
-0.187314
11
0.498983
21
-0.196104
0
LINE
8
BLACK
6
CONTINUOUS
10
0.498983
20
-0.196104
11
0.502691
21
-0.205553
0
LINE
8
BLACK
6
CONTINUOUS
10
0.502691
20
-0.205553
11
0.50495
21
-0.215449
0
LINE
8
BLACK
6
CONTINUOUS
10
0.50495
20
-0.215449
11
0.505709
21
-0.225571
0
LINE
8
BLACK
6
CONTINUOUS
10
0.505709
20
-0.225571
11
0.50495
21
-0.235693
0
LINE
8
BLACK
6
CONTINUOUS
10
0.50495
20
-0.235693
11
0.502691
21
-0.245588
0
LINE
8
BLACK
6
CONTINUOUS
10
0.502691
20
-0.245588
11
0.498983
21
-0.255037
0
LINE
8
BLACK
6
CONTINUOUS
10
0.498983
20
-0.255037
11
0.493908
21
-0.263828
0
LINE
8
BLACK
6
CONTINUOUS
10
0.493908
20
-0.263828
11
0.487579
21
-0.271763
0
LINE
8
BLACK
6
CONTINUOUS
10
0.487579
20
-0.271763
11
0.480139
21
-0.278667
0
LINE
8
BLACK
6
CONTINUOUS
10
0.480139
20
-0.278667
11
0.471752
21
-0.284385
0
LINE
8
BLACK
6
CONTINUOUS
10
0.471752
20
-0.284385
11
0.462607
21
-0.288789
0
LINE
8
BLACK
6
CONTINUOUS
10
0.462607
20
-0.288789
11
0.452907
21
-0.291781
0
LINE
8
BLACK
6
CONTINUOUS
10
0.452907
20
-0.291781
11
0.44287
21
-0.293294
0
LINE
8
BLACK
6
CONTINUOUS
10
0.44287
20
-0.293294
11
0.43272
21
-0.293294
0
LINE
8
BLACK
6
CONTINUOUS
10
0.43272
20
-0.293294
11
0.422683
21
-0.291781
0
LINE
8
BLACK
6
CONTINUOUS
10
0.422683
20
-0.291781
11
0.412984
21
-0.288789
0
LINE
8
BLACK
6
CONTINUOUS
10
0.412984
20
-0.288789
11
0.403839
21
-0.284385
0
LINE
8
BLACK
6
CONTINUOUS
10
0.403839
20
-0.284385
11
0.395452
21
-0.278667
0
LINE
8
BLACK
6
CONTINUOUS
10
0.395452
20
-0.278667
11
0.388011
21
-0.271763
0
LINE
8
BLACK
6
CONTINUOUS
10
0.388011
20
-0.271763
11
0.381683
21
-0.263828
0
LINE
8
BLACK
6
CONTINUOUS
10
0.381683
20
-0.263828
11
0.376607
21
-0.255037
0
LINE
8
BLACK
6
CONTINUOUS
10
0.376607
20
-0.255037
11
0.372899
21
-0.245588
0
LINE
8
BLACK
6
CONTINUOUS
10
0.372899
20
-0.245588
11
0.37064
21
-0.235693
0
LINE
8
BLACK
6
CONTINUOUS
10
0.37064
20
-0.235693
11
0.369882
21
-0.225571
0
LINE
8
BLACK
6
CONTINUOUS
10
0.369882
20
-0.225571
11
0.37064
21
-0.215449
0
LINE
8
BLACK
6
CONTINUOUS
10
0.37064
20
-0.215449
11
0.372899
21
-0.205553
0
LINE
8
BLACK
6
CONTINUOUS
10
0.372899
20
-0.205553
11
0.376607
21
-0.196104
0
LINE
8
BLACK
6
CONTINUOUS
10
0.376607
20
-0.196104
11
0.381683
21
-0.187314
0
LINE
8
BLACK
6
CONTINUOUS
10
0.381683
20
-0.187314
11
0.388011
21
-0.179378
0
LINE
8
BLACK
6
CONTINUOUS
10
0.388011
20
-0.179378
11
0.395452
21
-0.172474
0
LINE
8
BLACK
6
CONTINUOUS
10
0.395452
20
-0.172474
11
0.403839
21
-0.166756
0
LINE
8
BLACK
6
CONTINUOUS
10
0.403839
20
-0.166756
11
0.412984
21
-0.162352
0
LINE
8
BLACK
6
CONTINUOUS
10
0.412984
20
-0.162352
11
0.422683
21
-0.15936
0
LINE
8
BLACK
6
CONTINUOUS
10
0.422683
20
-0.15936
11
0.43272
21
-0.157847
0
LINE
8
BLACK
6
CONTINUOUS
10
0.43272
20
-0.157847
11
0.44287
21
-0.157847
0
LINE
8
BLACK
6
CONTINUOUS
10
0.44287
20
-0.157847
11
0.452907
21
-0.15936
0
LINE
8
BLACK
6
CONTINUOUS
10
0.984404
20
-0.15936
11
0.994103
21
-0.162352
0
LINE
8
BLACK
6
CONTINUOUS
10
0.994103
20
-0.162352
11
1.00325
21
-0.166756
0
LINE
8
BLACK
6
CONTINUOUS
10
1.00325
20
-0.166756
11
1.01163
21
-0.172474
0
LINE
8
BLACK
6
CONTINUOUS
10
1.01163
20
-0.172474
11
1.01908
21
-0.179378
0
LINE
8
BLACK
6
CONTINUOUS
10
1.01908
20
-0.179378
11
1.0254
21
-0.187314
0
LINE
8
BLACK
6
CONTINUOUS
10
1.0254
20
-0.187314
11
1.03048
21
-0.196104
0
LINE
8
BLACK
6
CONTINUOUS
10
1.03048
20
-0.196104
11
1.03419
21
-0.205553
0
LINE
8
BLACK
6
CONTINUOUS
10
1.03419
20
-0.205553
11
1.03645
21
-0.215449
0
LINE
8
BLACK
6
CONTINUOUS
10
1.03645
20
-0.215449
11
1.0372
21
-0.225571
0
LINE
8
BLACK
6
CONTINUOUS
10
1.0372
20
-0.225571
11
1.03645
21
-0.235693
0
LINE
8
BLACK
6
CONTINUOUS
10
1.03645
20
-0.235693
11
1.03419
21
-0.245588
0
LINE
8
BLACK
6
CONTINUOUS
10
1.03419
20
-0.245588
11
1.03048
21
-0.255037
0
LINE
8
BLACK
6
CONTINUOUS
10
1.03048
20
-0.255037
11
1.0254
21
-0.263828
0
LINE
8
BLACK
6
CONTINUOUS
10
1.0254
20
-0.263828
11
1.01908
21
-0.271763
0
LINE
8
BLACK
6
CONTINUOUS
10
1.01908
20
-0.271763
11
1.01163
21
-0.278667
0
LINE
8
BLACK
6
CONTINUOUS
10
1.01163
20
-0.278667
11
1.00325
21
-0.284385
0
LINE
8
BLACK
6
CONTINUOUS
10
1.00325
20
-0.284385
11
0.994103
21
-0.288789
0
LINE
8
BLACK
6
CONTINUOUS
10
0.994103
20
-0.288789
11
0.984404
21
-0.291781
0
LINE
8
BLACK
6
CONTINUOUS
10
0.984404
20
-0.291781
11
0.974366
21
-0.293294
0
LINE
8
BLACK
6
CONTINUOUS
10
0.974366
20
-0.293294
11
0.964216
21
-0.293294
0
LINE
8
BLACK
6
CONTINUOUS
10
0.964216
20
-0.293294
11
0.954179
21
-0.291781
0
LINE
8
BLACK
6
CONTINUOUS
10
0.954179
20
-0.291781
11
0.94448
21
-0.288789
0
LINE
8
BLACK
6
CONTINUOUS
10
0.94448
20
-0.288789
11
0.935335
21
-0.284385
0
LINE
8
BLACK
6
CONTINUOUS
10
0.935335
20
-0.284385
11
0.926948
21
-0.278667
0
LINE
8
BLACK
6
CONTINUOUS
10
0.926948
20
-0.278667
11
0.919507
21
-0.271763
0
LINE
8
BLACK
6
CONTINUOUS
10
0.919507
20
-0.271763
11
0.913179
21
-0.263828
0
LINE
8
BLACK
6
CONTINUOUS
10
0.913179
20
-0.263828
11
0.908104
21
-0.255037
0
LINE
8
BLACK
6
CONTINUOUS
10
0.908104
20
-0.255037
11
0.904395
21
-0.245588
0
LINE
8
BLACK
6
CONTINUOUS
10
0.904395
20
-0.245588
11
0.902136
21
-0.235693
0
LINE
8
BLACK
6
CONTINUOUS
10
0.902136
20
-0.235693
11
0.901378
21
-0.225571
0
LINE
8
BLACK
6
CONTINUOUS
10
0.901378
20
-0.225571
11
0.902136
21
-0.215449
0
LINE
8
BLACK
6
CONTINUOUS
10
0.902136
20
-0.215449
11
0.904395
21
-0.205553
0
LINE
8
BLACK
6
CONTINUOUS
10
0.904395
20
-0.205553
11
0.908104
21
-0.196104
0
LINE
8
BLACK
6
CONTINUOUS
10
0.908104
20
-0.196104
11
0.913179
21
-0.187314
0
LINE
8
BLACK
6
CONTINUOUS
10
0.913179
20
-0.187314
11
0.919507
21
-0.179378
0
LINE
8
BLACK
6
CONTINUOUS
10
0.919507
20
-0.179378
11
0.926948
21
-0.172474
0
LINE
8
BLACK
6
CONTINUOUS
10
0.926948
20
-0.172474
11
0.935335
21
-0.166756
0
LINE
8
BLACK
6
CONTINUOUS
10
0.935335
20
-0.166756
11
0.94448
21
-0.162352
0
LINE
8
BLACK
6
CONTINUOUS
10
0.94448
20
-0.162352
11
0.954179
21
-0.15936
0
LINE
8
BLACK
6
CONTINUOUS
10
0.954179
20
-0.15936
11
0.964216
21
-0.157847
0
LINE
8
BLACK
6
CONTINUOUS
10
0.964216
20
-0.157847
11
0.974366
21
-0.157847
0
LINE
8
BLACK
6
CONTINUOUS
10
0.974366
20
-0.157847
11
0.984404
21
-0.15936
0
LINE
8
BLACK
6
CONTINUOUS
10
0.718655
20
-0.127864
11
0.728355
21
-0.130856
0
LINE
8
BLACK
6
CONTINUOUS
10
0.728355
20
-0.130856
11
0.7375
21
-0.13526
0
LINE
8
BLACK
6
CONTINUOUS
10
0.7375
20
-0.13526
11
0.745887
21
-0.140978
0
LINE
8
BLACK
6
CONTINUOUS
10
0.745887
20
-0.140978
11
0.753327
21
-0.147882
0
LINE
8
BLACK
6
CONTINUOUS
10
0.753327
20
-0.147882
11
0.759656
21
-0.155818
0
LINE
8
BLACK
6
CONTINUOUS
10
0.759656
20
-0.155818
11
0.764731
21
-0.164608
0
LINE
8
BLACK
6
CONTINUOUS
10
0.764731
20
-0.164608
11
0.768439
21
-0.174057
0
LINE
8
BLACK
6
CONTINUOUS
10
0.768439
20
-0.174057
11
0.770698
21
-0.183953
0
LINE
8
BLACK
6
CONTINUOUS
10
0.770698
20
-0.183953
11
0.771457
21
-0.194074
0
LINE
8
BLACK
6
CONTINUOUS
10
0.771457
20
-0.194074
11
0.770698
21
-0.204196
0
LINE
8
BLACK
6
CONTINUOUS
10
0.770698
20
-0.204196
11
0.768439
21
-0.214092
0
LINE
8
BLACK
6
CONTINUOUS
10
0.768439
20
-0.214092
11
0.764731
21
-0.223541
0
LINE
8
BLACK
6
CONTINUOUS
10
0.764731
20
-0.223541
11
0.759656
21
-0.232331
0
LINE
8
BLACK
6
CONTINUOUS
10
0.759656
20
-0.232331
11
0.753327
21
-0.240267
0
LINE
8
BLACK
6
CONTINUOUS
10
0.753327
20
-0.240267
11
0.745887
21
-0.247171
0
LINE
8
BLACK
6
CONTINUOUS
10
0.745887
20
-0.247171
11
0.7375
21
-0.252889
0
LINE
8
BLACK
6
CONTINUOUS
10
0.7375
20
-0.252889
11
0.728355
21
-0.257293
0
LINE
8
BLACK
6
CONTINUOUS
10
0.728355
20
-0.257293
11
0.718655
21
-0.260285
0
LINE
8
BLACK
6
CONTINUOUS
10
0.718655
20
-0.260285
11
0.708618
21
-0.261798
0
LINE
8
BLACK
6
CONTINUOUS
10
0.708618
20
-0.261798
11
0.698468
21
-0.261798
0
LINE
8
BLACK
6
CONTINUOUS
10
0.698468
20
-0.261798
11
0.688431
21
-0.260285
0
LINE
8
BLACK
6
CONTINUOUS
10
0.688431
20
-0.260285
11
0.678732
21
-0.257293
0
LINE
8
BLACK
6
CONTINUOUS
10
0.678732
20
-0.257293
11
0.669587
21
-0.252889
0
LINE
8
BLACK
6
CONTINUOUS
10
0.669587
20
-0.252889
11
0.6612
21
-0.247171
0
LINE
8
BLACK
6
CONTINUOUS
10
0.6612
20
-0.247171
11
0.653759
21
-0.240267
0
LINE
8
BLACK
6
CONTINUOUS
10
0.653759
20
-0.240267
11
0.647431
21
-0.232331
0
LINE
8
BLACK
6
CONTINUOUS
10
0.647431
20
-0.232331
11
0.642355
21
-0.223541
0
LINE
8
BLACK
6
CONTINUOUS
10
0.642355
20
-0.223541
11
0.638647
21
-0.214092
0
LINE
8
BLACK
6
CONTINUOUS
10
0.638647
20
-0.214092
11
0.636388
21
-0.204196
0
LINE
8
BLACK
6
CONTINUOUS
10
0.636388
20
-0.204196
11
0.63563
21
-0.194074
0
LINE
8
BLACK
6
CONTINUOUS
10
0.63563
20
-0.194074
11
0.636388
21
-0.183953
0
LINE
8
BLACK
6
CONTINUOUS
10
0.636388
20
-0.183953
11
0.638647
21
-0.174057
0
LINE
8
BLACK
6
CONTINUOUS
10
0.638647
20
-0.174057
11
0.642355
21
-0.164608
0
LINE
8
BLACK
6
CONTINUOUS
10
0.642355
20
-0.164608
11
0.647431
21
-0.155818
0
LINE
8
BLACK
6
CONTINUOUS
10
0.647431
20
-0.155818
11
0.653759
21
-0.147882
0
LINE
8
BLACK
6
CONTINUOUS
10
0.653759
20
-0.147882
11
0.6612
21
-0.140978
0
LINE
8
BLACK
6
CONTINUOUS
10
0.6612
20
-0.140978
11
0.669587
21
-0.13526
0
LINE
8
BLACK
6
CONTINUOUS
10
0.669587
20
-0.13526
11
0.678732
21
-0.130856
0
LINE
8
BLACK
6
CONTINUOUS
10
0.678732
20
-0.130856
11
0.688431
21
-0.127864
0
LINE
8
BLACK
6
CONTINUOUS
10
0.688431
20
-0.127864
11
0.698468
21
-0.126351
0
LINE
8
BLACK
6
CONTINUOUS
10
0.698468
20
-0.126351
11
0.708618
21
-0.126351
0
LINE
8
BLACK
6
CONTINUOUS
10
0.708618
20
-0.126351
11
0.718655
21
-0.127864
0
LINE
8
BLACK
6
CONTINUOUS
10
2.06238
20
-0.133114
11
2.06695
21
-0.135755
0
LINE
8
BLACK
6
CONTINUOUS
10
2.06695
20
-0.135755
11
2.07054
21
-0.139626
0
LINE
8
BLACK
6
CONTINUOUS
10
2.07054
20
-0.139626
11
2.07283
21
-0.144384
0
LINE
8
BLACK
6
CONTINUOUS
10
2.07283
20
-0.144384
11
2.07362
21
-0.149606
0
LINE
8
BLACK
6
CONTINUOUS
10
2.07362
20
-0.149606
11
2.07362
21
-0.181102
0
LINE
8
BLACK
6
CONTINUOUS
10
2.07362
20
-0.181102
11
2.07342
21
-0.183743
0
LINE
8
BLACK
6
CONTINUOUS
10
2.07342
20
-0.183743
11
2.07187
21
-0.188789
0
LINE
8
BLACK
6
CONTINUOUS
10
2.07187
20
-0.188789
11
2.06889
21
-0.193153
0
LINE
8
BLACK
6
CONTINUOUS
10
2.06889
20
-0.193153
11
2.06476
21
-0.196445
0
LINE
8
BLACK
6
CONTINUOUS
10
2.06476
20
-0.196445
11
2.05985
21
-0.198375
0
LINE
8
BLACK
6
CONTINUOUS
10
2.05985
20
-0.198375
11
2.05458
21
-0.198769
0
LINE
8
BLACK
6
CONTINUOUS
10
2.05458
20
-0.198769
11
2.04943
21
-0.197594
0
LINE
8
BLACK
6
CONTINUOUS
10
2.04943
20
-0.197594
11
2.04486
21
-0.194954
0
LINE
8
BLACK
6
CONTINUOUS
10
2.04486
20
-0.194954
11
2.04127
21
-0.191082
0
LINE
8
BLACK
6
CONTINUOUS
10
2.04127
20
-0.191082
11
2.03898
21
-0.186324
0
LINE
8
BLACK
6
CONTINUOUS
10
2.03898
20
-0.186324
11
2.03819
21
-0.181102
0
LINE
8
BLACK
6
CONTINUOUS
10
2.03819
20
-0.181102
11
2.03819
21
-0.149606
0
LINE
8
BLACK
6
CONTINUOUS
10
2.03819
20
-0.149606
11
2.03839
21
-0.146966
0
LINE
8
BLACK
6
CONTINUOUS
10
2.03839
20
-0.146966
11
2.03994
21
-0.141919
0
LINE
8
BLACK
6
CONTINUOUS
10
2.03994
20
-0.141919
11
2.04292
21
-0.137556
0
LINE
8
BLACK
6
CONTINUOUS
10
2.04292
20
-0.137556
11
2.04705
21
-0.134263
0
LINE
8
BLACK
6
CONTINUOUS
10
2.04705
20
-0.134263
11
2.05196
21
-0.132334
0
LINE
8
BLACK
6
CONTINUOUS
10
2.05196
20
-0.132334
11
2.05723
21
-0.131939
0
LINE
8
BLACK
6
CONTINUOUS
10
2.05723
20
-0.131939
11
2.06238
21
-0.133114
0
LINE
8
BLACK
6
CONTINUOUS
10
2.40293
20
-0.133114
11
2.4075
21
-0.135755
0
LINE
8
BLACK
6
CONTINUOUS
10
2.4075
20
-0.135755
11
2.41109
21
-0.139626
0
LINE
8
BLACK
6
CONTINUOUS
10
2.41109
20
-0.139626
11
2.41339
21
-0.144384
0
LINE
8
BLACK
6
CONTINUOUS
10
2.41339
20
-0.144384
11
2.41417
21
-0.149606
0
LINE
8
BLACK
6
CONTINUOUS
10
2.41417
20
-0.149606
11
2.41417
21
-0.181102
0
LINE
8
BLACK
6
CONTINUOUS
10
2.41417
20
-0.181102
11
2.41398
21
-0.183743
0
LINE
8
BLACK
6
CONTINUOUS
10
2.41398
20
-0.183743
11
2.41242
21
-0.188789
0
LINE
8
BLACK
6
CONTINUOUS
10
2.41242
20
-0.188789
11
2.40944
21
-0.193153
0
LINE
8
BLACK
6
CONTINUOUS
10
2.40944
20
-0.193153
11
2.40531
21
-0.196445
0
LINE
8
BLACK
6
CONTINUOUS
10
2.40531
20
-0.196445
11
2.4004
21
-0.198375
0
LINE
8
BLACK
6
CONTINUOUS
10
2.4004
20
-0.198375
11
2.39513
21
-0.198769
0
LINE
8
BLACK
6
CONTINUOUS
10
2.39513
20
-0.198769
11
2.38998
21
-0.197594
0
LINE
8
BLACK
6
CONTINUOUS
10
2.38998
20
-0.197594
11
2.38541
21
-0.194954
0
LINE
8
BLACK
6
CONTINUOUS
10
2.38541
20
-0.194954
11
2.38182
21
-0.191082
0
LINE
8
BLACK
6
CONTINUOUS
10
2.38182
20
-0.191082
11
2.37953
21
-0.186324
0
LINE
8
BLACK
6
CONTINUOUS
10
2.37953
20
-0.186324
11
2.37874
21
-0.181102
0
LINE
8
BLACK
6
CONTINUOUS
10
2.37874
20
-0.181102
11
2.37874
21
-0.149606
0
LINE
8
BLACK
6
CONTINUOUS
10
2.37874
20
-0.149606
11
2.37894
21
-0.146966
0
LINE
8
BLACK
6
CONTINUOUS
10
2.37894
20
-0.146966
11
2.38049
21
-0.141919
0
LINE
8
BLACK
6
CONTINUOUS
10
2.38049
20
-0.141919
11
2.38347
21
-0.137556
0
LINE
8
BLACK
6
CONTINUOUS
10
2.38347
20
-0.137556
11
2.3876
21
-0.134263
0
LINE
8
BLACK
6
CONTINUOUS
10
2.3876
20
-0.134263
11
2.39251
21
-0.132334
0
LINE
8
BLACK
6
CONTINUOUS
10
2.39251
20
-0.132334
11
2.39778
21
-0.131939
0
LINE
8
BLACK
6
CONTINUOUS
10
2.39778
20
-0.131939
11
2.40293
21
-0.133114
  0
ENDSEC
  0
EOF
