  0
SECTION
  2
HEADER
  9
$ANGBASE
  50
0.0
  9
$ANGDIR
  70
1
  9
$MEASUREMENT
  70
0
  0
ENDSEC
  0
SECTION
  2
TABLES
  0
TABLE
  2
LTYPE
  70
4
  0
LTYPE
  5
40F
  2
CONTINUOUS
  70
0
  3
Solid line
  72
65
  73
0
  40
0.0
  0
LTYPE
  5
410
  2
DASHDOT
 70
0
  3
Dash Dot ____ _ ____ _
 72
65
 73
4
 40
2.0
 49
1.25
 49
-0.25
 49
0.25
 49
-0.25
  0
LTYPE
  5
411
  2
DASHED
 70
0
  3
Dashed __ __ __ __ __
 72
65
 73
2
 40
0.75
 49
0.5
 49
-0.25
  0
LTYPE
  5
43B
  2
DOTTED
 70
0
  3
Dotted .  .  .  .
 72
65
 73
2
 40
0.2
 49
0.0
 49
-0.2
  0
ENDTAB
  0
TABLE
  2
STYLE
  70
4
  0
STYLE
  2
KICAD
  70
0
  40
0
  41
1
  42
1
  50
0
  71
0
  3
isocp.shx
  0
STYLE
  2
KICADB
  70
0
  40
0
  41
1
  42
1
  50
0
  71
0
  3
isocp.shx
  0
STYLE
  2
KICADI
  70
0
  40
0
  41
1
  42
1
  50
15
  71
0
  3
isocp.shx
  0
STYLE
  2
KICADBI
  70
0
  40
0
  41
1
  42
1
  50
15
  71
0
  3
isocp.shx
  0
ENDTAB
  0
TABLE
  2
LAYER
  70
1
  0
LAYER
  2
BLACK
  70
0
  62
7
  6
CONTINUOUS
  0
ENDTAB
  0
ENDSEC
  0
SECTION
  2
ENTITIES
0
LINE
8
BLACK
6
CONTINUOUS
10
0.22086
20
-1.67276
11
0.234494
21
-1.67576
0
LINE
8
BLACK
6
CONTINUOUS
10
0.234494
20
-1.67576
11
0.247724
21
-1.68022
0
LINE
8
BLACK
6
CONTINUOUS
10
0.247724
20
-1.68022
11
0.260395
21
-1.68608
0
LINE
8
BLACK
6
CONTINUOUS
10
0.260395
20
-1.68608
11
0.272358
21
-1.69328
0
LINE
8
BLACK
6
CONTINUOUS
10
0.272358
20
-1.69328
11
0.283472
21
-1.70173
0
LINE
8
BLACK
6
CONTINUOUS
10
0.283472
20
-1.70173
11
0.293608
21
-1.71133
0
LINE
8
BLACK
6
CONTINUOUS
10
0.293608
20
-1.71133
11
0.302646
21
-1.72197
0
LINE
8
BLACK
6
CONTINUOUS
10
0.302646
20
-1.72197
11
0.310481
21
-1.73353
0
LINE
8
BLACK
6
CONTINUOUS
10
0.310481
20
-1.73353
11
0.31702
21
-1.74586
0
LINE
8
BLACK
6
CONTINUOUS
10
0.31702
20
-1.74586
11
0.322188
21
-1.75883
0
LINE
8
BLACK
6
CONTINUOUS
10
0.322188
20
-1.75883
11
0.325923
21
-1.77228
0
LINE
8
BLACK
6
CONTINUOUS
10
0.325923
20
-1.77228
11
0.328181
21
-1.78606
0
LINE
8
BLACK
6
CONTINUOUS
10
0.328181
20
-1.78606
11
0.328937
21
-1.8
0
LINE
8
BLACK
6
CONTINUOUS
10
0.328937
20
-1.8
11
0.328181
21
-1.81394
0
LINE
8
BLACK
6
CONTINUOUS
10
0.328181
20
-1.81394
11
0.325923
21
-1.82772
0
LINE
8
BLACK
6
CONTINUOUS
10
0.325923
20
-1.82772
11
0.322188
21
-1.84117
0
LINE
8
BLACK
6
CONTINUOUS
10
0.322188
20
-1.84117
11
0.31702
21
-1.85414
0
LINE
8
BLACK
6
CONTINUOUS
10
0.31702
20
-1.85414
11
0.310481
21
-1.86647
0
LINE
8
BLACK
6
CONTINUOUS
10
0.310481
20
-1.86647
11
0.302646
21
-1.87803
0
LINE
8
BLACK
6
CONTINUOUS
10
0.302646
20
-1.87803
11
0.293608
21
-1.88867
0
LINE
8
BLACK
6
CONTINUOUS
10
0.293608
20
-1.88867
11
0.283472
21
-1.89827
0
LINE
8
BLACK
6
CONTINUOUS
10
0.283472
20
-1.89827
11
0.272358
21
-1.90672
0
LINE
8
BLACK
6
CONTINUOUS
10
0.272358
20
-1.90672
11
0.260395
21
-1.91392
0
LINE
8
BLACK
6
CONTINUOUS
10
0.260395
20
-1.91392
11
0.247724
21
-1.91978
0
LINE
8
BLACK
6
CONTINUOUS
10
0.247724
20
-1.91978
11
0.234494
21
-1.92424
0
LINE
8
BLACK
6
CONTINUOUS
10
0.234494
20
-1.92424
11
0.22086
21
-1.92724
0
LINE
8
BLACK
6
CONTINUOUS
10
0.22086
20
-1.92724
11
0.206981
21
-1.92875
0
LINE
8
BLACK
6
CONTINUOUS
10
0.206981
20
-1.92875
11
0.193019
21
-1.92875
0
LINE
8
BLACK
6
CONTINUOUS
10
0.193019
20
-1.92875
11
0.17914
21
-1.92724
0
LINE
8
BLACK
6
CONTINUOUS
10
0.17914
20
-1.92724
11
0.165506
21
-1.92424
0
LINE
8
BLACK
6
CONTINUOUS
10
0.165506
20
-1.92424
11
0.152276
21
-1.91978
0
LINE
8
BLACK
6
CONTINUOUS
10
0.152276
20
-1.91978
11
0.139605
21
-1.91392
0
LINE
8
BLACK
6
CONTINUOUS
10
0.139605
20
-1.91392
11
0.127642
21
-1.90672
0
LINE
8
BLACK
6
CONTINUOUS
10
0.127642
20
-1.90672
11
0.116528
21
-1.89827
0
LINE
8
BLACK
6
CONTINUOUS
10
0.116528
20
-1.89827
11
0.106392
21
-1.88867
0
LINE
8
BLACK
6
CONTINUOUS
10
0.106392
20
-1.88867
11
0.0973541
21
-1.87803
0
LINE
8
BLACK
6
CONTINUOUS
10
0.0973541
20
-1.87803
11
0.0895194
21
-1.86647
0
LINE
8
BLACK
6
CONTINUOUS
10
0.0895194
20
-1.86647
11
0.08298
21
-1.85414
0
LINE
8
BLACK
6
CONTINUOUS
10
0.08298
20
-1.85414
11
0.0778124
21
-1.84117
0
LINE
8
BLACK
6
CONTINUOUS
10
0.0778124
20
-1.84117
11
0.0740775
21
-1.82772
0
LINE
8
BLACK
6
CONTINUOUS
10
0.0740775
20
-1.82772
11
0.0718188
21
-1.81394
0
LINE
8
BLACK
6
CONTINUOUS
10
0.0718188
20
-1.81394
11
0.071063
21
-1.8
0
LINE
8
BLACK
6
CONTINUOUS
10
0.071063
20
-1.8
11
0.0718188
21
-1.78606
0
LINE
8
BLACK
6
CONTINUOUS
10
0.0718188
20
-1.78606
11
0.0740775
21
-1.77228
0
LINE
8
BLACK
6
CONTINUOUS
10
0.0740775
20
-1.77228
11
0.0778124
21
-1.75883
0
LINE
8
BLACK
6
CONTINUOUS
10
0.0778124
20
-1.75883
11
0.08298
21
-1.74586
0
LINE
8
BLACK
6
CONTINUOUS
10
0.08298
20
-1.74586
11
0.0895194
21
-1.73353
0
LINE
8
BLACK
6
CONTINUOUS
10
0.0895194
20
-1.73353
11
0.0973541
21
-1.72197
0
LINE
8
BLACK
6
CONTINUOUS
10
0.0973541
20
-1.72197
11
0.106392
21
-1.71133
0
LINE
8
BLACK
6
CONTINUOUS
10
0.106392
20
-1.71133
11
0.116528
21
-1.70173
0
LINE
8
BLACK
6
CONTINUOUS
10
0.116528
20
-1.70173
11
0.127642
21
-1.69328
0
LINE
8
BLACK
6
CONTINUOUS
10
0.127642
20
-1.69328
11
0.139605
21
-1.68608
0
LINE
8
BLACK
6
CONTINUOUS
10
0.139605
20
-1.68608
11
0.152276
21
-1.68022
0
LINE
8
BLACK
6
CONTINUOUS
10
0.152276
20
-1.68022
11
0.165506
21
-1.67576
0
LINE
8
BLACK
6
CONTINUOUS
10
0.165506
20
-1.67576
11
0.17914
21
-1.67276
0
LINE
8
BLACK
6
CONTINUOUS
10
0.17914
20
-1.67276
11
0.193019
21
-1.67125
0
LINE
8
BLACK
6
CONTINUOUS
10
0.193019
20
-1.67125
11
0.206981
21
-1.67125
0
LINE
8
BLACK
6
CONTINUOUS
10
0.206981
20
-1.67125
11
0.22086
21
-1.67276
0
LINE
8
BLACK
6
CONTINUOUS
10
0.0775494
20
-1.8138
11
0.0798642
21
-1.82742
0
LINE
8
BLACK
6
CONTINUOUS
10
0.0798642
20
-1.82742
11
0.0836896
21
-1.8407
0
LINE
8
BLACK
6
CONTINUOUS
10
0.0836896
20
-1.8407
11
0.0889778
21
-1.85347
0
LINE
8
BLACK
6
CONTINUOUS
10
0.0889778
20
-1.85347
11
0.0956621
21
-1.86556
0
LINE
8
BLACK
6
CONTINUOUS
10
0.0956621
20
-1.86556
11
0.103659
21
-1.87683
0
LINE
8
BLACK
6
CONTINUOUS
10
0.103659
20
-1.87683
11
0.112867
21
-1.88713
0
LINE
8
BLACK
6
CONTINUOUS
10
0.112867
20
-1.88713
11
0.12317
21
-1.89634
0
LINE
8
BLACK
6
CONTINUOUS
10
0.12317
20
-1.89634
11
0.13444
21
-1.90434
0
LINE
8
BLACK
6
CONTINUOUS
10
0.13444
20
-1.90434
11
0.146535
21
-1.91102
0
LINE
8
BLACK
6
CONTINUOUS
10
0.146535
20
-1.91102
11
0.159301
21
-1.91631
0
LINE
8
BLACK
6
CONTINUOUS
10
0.159301
20
-1.91631
11
0.17258
21
-1.92014
0
LINE
8
BLACK
6
CONTINUOUS
10
0.17258
20
-1.92014
11
0.186203
21
-1.92245
0
LINE
8
BLACK
6
CONTINUOUS
10
0.186203
20
-1.92245
11
0.2
21
-1.92323
0
LINE
8
BLACK
6
CONTINUOUS
10
0.2
20
-1.92323
11
0.213797
21
-1.92245
0
LINE
8
BLACK
6
CONTINUOUS
10
0.213797
20
-1.92245
11
0.22742
21
-1.92014
0
LINE
8
BLACK
6
CONTINUOUS
10
0.22742
20
-1.92014
11
0.240699
21
-1.91631
0
LINE
8
BLACK
6
CONTINUOUS
10
0.240699
20
-1.91631
11
0.253465
21
-1.91102
0
LINE
8
BLACK
6
CONTINUOUS
10
0.253465
20
-1.91102
11
0.26556
21
-1.90434
0
LINE
8
BLACK
6
CONTINUOUS
10
0.26556
20
-1.90434
11
0.27683
21
-1.89634
0
LINE
8
BLACK
6
CONTINUOUS
10
0.27683
20
-1.89634
11
0.287133
21
-1.88713
0
LINE
8
BLACK
6
CONTINUOUS
10
0.287133
20
-1.88713
11
0.296341
21
-1.87683
0
LINE
8
BLACK
6
CONTINUOUS
10
0.296341
20
-1.87683
11
0.304338
21
-1.86556
0
LINE
8
BLACK
6
CONTINUOUS
10
0.304338
20
-1.86556
11
0.311022
21
-1.85347
0
LINE
8
BLACK
6
CONTINUOUS
10
0.311022
20
-1.85347
11
0.31631
21
-1.8407
0
LINE
8
BLACK
6
CONTINUOUS
10
0.31631
20
-1.8407
11
0.320136
21
-1.82742
0
LINE
8
BLACK
6
CONTINUOUS
10
0.320136
20
-1.82742
11
0.322451
21
-1.8138
0
LINE
8
BLACK
6
CONTINUOUS
10
0.322451
20
-1.8138
11
0.323225
21
-1.8
0
LINE
8
BLACK
6
CONTINUOUS
10
0.323225
20
-1.8
11
0.322451
21
-1.7862
0
LINE
8
BLACK
6
CONTINUOUS
10
0.322451
20
-1.7862
11
0.320136
21
-1.77258
0
LINE
8
BLACK
6
CONTINUOUS
10
0.320136
20
-1.77258
11
0.31631
21
-1.7593
0
LINE
8
BLACK
6
CONTINUOUS
10
0.31631
20
-1.7593
11
0.311022
21
-1.74653
0
LINE
8
BLACK
6
CONTINUOUS
10
0.311022
20
-1.74653
11
0.304338
21
-1.73444
0
LINE
8
BLACK
6
CONTINUOUS
10
0.304338
20
-1.73444
11
0.296341
21
-1.72317
0
LINE
8
BLACK
6
CONTINUOUS
10
0.296341
20
-1.72317
11
0.287133
21
-1.71287
0
LINE
8
BLACK
6
CONTINUOUS
10
0.287133
20
-1.71287
11
0.27683
21
-1.70366
0
LINE
8
BLACK
6
CONTINUOUS
10
0.27683
20
-1.70366
11
0.26556
21
-1.69566
0
LINE
8
BLACK
6
CONTINUOUS
10
0.26556
20
-1.69566
11
0.253465
21
-1.68898
0
LINE
8
BLACK
6
CONTINUOUS
10
0.253465
20
-1.68898
11
0.240699
21
-1.68369
0
LINE
8
BLACK
6
CONTINUOUS
10
0.240699
20
-1.68369
11
0.22742
21
-1.67986
0
LINE
8
BLACK
6
CONTINUOUS
10
0.22742
20
-1.67986
11
0.213797
21
-1.67755
0
LINE
8
BLACK
6
CONTINUOUS
10
0.213797
20
-1.67755
11
0.2
21
-1.67677
0
LINE
8
BLACK
6
CONTINUOUS
10
0.2
20
-1.67677
11
0.186203
21
-1.67755
0
LINE
8
BLACK
6
CONTINUOUS
10
0.186203
20
-1.67755
11
0.17258
21
-1.67986
0
LINE
8
BLACK
6
CONTINUOUS
10
0.17258
20
-1.67986
11
0.159301
21
-1.68369
0
LINE
8
BLACK
6
CONTINUOUS
10
0.159301
20
-1.68369
11
0.146535
21
-1.68898
0
LINE
8
BLACK
6
CONTINUOUS
10
0.146535
20
-1.68898
11
0.13444
21
-1.69566
0
LINE
8
BLACK
6
CONTINUOUS
10
0.13444
20
-1.69566
11
0.12317
21
-1.70366
0
LINE
8
BLACK
6
CONTINUOUS
10
0.12317
20
-1.70366
11
0.112867
21
-1.71287
0
LINE
8
BLACK
6
CONTINUOUS
10
0.112867
20
-1.71287
11
0.103659
21
-1.72317
0
LINE
8
BLACK
6
CONTINUOUS
10
0.103659
20
-1.72317
11
0.0956621
21
-1.73444
0
LINE
8
BLACK
6
CONTINUOUS
10
0.0956621
20
-1.73444
11
0.0889778
21
-1.74653
0
LINE
8
BLACK
6
CONTINUOUS
10
0.0889778
20
-1.74653
11
0.0836896
21
-1.7593
0
LINE
8
BLACK
6
CONTINUOUS
10
0.0836896
20
-1.7593
11
0.0798642
21
-1.77258
0
LINE
8
BLACK
6
CONTINUOUS
10
0.0798642
20
-1.77258
11
0.0775494
21
-1.7862
0
LINE
8
BLACK
6
CONTINUOUS
10
0.0775494
20
-1.7862
11
0.0767746
21
-1.8
0
LINE
8
BLACK
6
CONTINUOUS
10
0.0767746
20
-1.8
11
0.0775494
21
-1.8138
0
LINE
8
BLACK
6
CONTINUOUS
10
2.62086
20
-1.67276
11
2.63449
21
-1.67576
0
LINE
8
BLACK
6
CONTINUOUS
10
2.63449
20
-1.67576
11
2.64772
21
-1.68022
0
LINE
8
BLACK
6
CONTINUOUS
10
2.64772
20
-1.68022
11
2.6604
21
-1.68608
0
LINE
8
BLACK
6
CONTINUOUS
10
2.6604
20
-1.68608
11
2.67236
21
-1.69328
0
LINE
8
BLACK
6
CONTINUOUS
10
2.67236
20
-1.69328
11
2.68347
21
-1.70173
0
LINE
8
BLACK
6
CONTINUOUS
10
2.68347
20
-1.70173
11
2.69361
21
-1.71133
0
LINE
8
BLACK
6
CONTINUOUS
10
2.69361
20
-1.71133
11
2.70265
21
-1.72197
0
LINE
8
BLACK
6
CONTINUOUS
10
2.70265
20
-1.72197
11
2.71048
21
-1.73353
0
LINE
8
BLACK
6
CONTINUOUS
10
2.71048
20
-1.73353
11
2.71702
21
-1.74586
0
LINE
8
BLACK
6
CONTINUOUS
10
2.71702
20
-1.74586
11
2.72219
21
-1.75883
0
LINE
8
BLACK
6
CONTINUOUS
10
2.72219
20
-1.75883
11
2.72592
21
-1.77228
0
LINE
8
BLACK
6
CONTINUOUS
10
2.72592
20
-1.77228
11
2.72818
21
-1.78606
0
LINE
8
BLACK
6
CONTINUOUS
10
2.72818
20
-1.78606
11
2.72894
21
-1.8
0
LINE
8
BLACK
6
CONTINUOUS
10
2.72894
20
-1.8
11
2.72818
21
-1.81394
0
LINE
8
BLACK
6
CONTINUOUS
10
2.72818
20
-1.81394
11
2.72592
21
-1.82772
0
LINE
8
BLACK
6
CONTINUOUS
10
2.72592
20
-1.82772
11
2.72219
21
-1.84117
0
LINE
8
BLACK
6
CONTINUOUS
10
2.72219
20
-1.84117
11
2.71702
21
-1.85414
0
LINE
8
BLACK
6
CONTINUOUS
10
2.71702
20
-1.85414
11
2.71048
21
-1.86647
0
LINE
8
BLACK
6
CONTINUOUS
10
2.71048
20
-1.86647
11
2.70265
21
-1.87803
0
LINE
8
BLACK
6
CONTINUOUS
10
2.70265
20
-1.87803
11
2.69361
21
-1.88867
0
LINE
8
BLACK
6
CONTINUOUS
10
2.69361
20
-1.88867
11
2.68347
21
-1.89827
0
LINE
8
BLACK
6
CONTINUOUS
10
2.68347
20
-1.89827
11
2.67236
21
-1.90672
0
LINE
8
BLACK
6
CONTINUOUS
10
2.67236
20
-1.90672
11
2.6604
21
-1.91392
0
LINE
8
BLACK
6
CONTINUOUS
10
2.6604
20
-1.91392
11
2.64772
21
-1.91978
0
LINE
8
BLACK
6
CONTINUOUS
10
2.64772
20
-1.91978
11
2.63449
21
-1.92424
0
LINE
8
BLACK
6
CONTINUOUS
10
2.63449
20
-1.92424
11
2.62086
21
-1.92724
0
LINE
8
BLACK
6
CONTINUOUS
10
2.62086
20
-1.92724
11
2.60698
21
-1.92875
0
LINE
8
BLACK
6
CONTINUOUS
10
2.60698
20
-1.92875
11
2.59302
21
-1.92875
0
LINE
8
BLACK
6
CONTINUOUS
10
2.59302
20
-1.92875
11
2.57914
21
-1.92724
0
LINE
8
BLACK
6
CONTINUOUS
10
2.57914
20
-1.92724
11
2.56551
21
-1.92424
0
LINE
8
BLACK
6
CONTINUOUS
10
2.56551
20
-1.92424
11
2.55228
21
-1.91978
0
LINE
8
BLACK
6
CONTINUOUS
10
2.55228
20
-1.91978
11
2.5396
21
-1.91392
0
LINE
8
BLACK
6
CONTINUOUS
10
2.5396
20
-1.91392
11
2.52764
21
-1.90672
0
LINE
8
BLACK
6
CONTINUOUS
10
2.52764
20
-1.90672
11
2.51653
21
-1.89827
0
LINE
8
BLACK
6
CONTINUOUS
10
2.51653
20
-1.89827
11
2.50639
21
-1.88867
0
LINE
8
BLACK
6
CONTINUOUS
10
2.50639
20
-1.88867
11
2.49735
21
-1.87803
0
LINE
8
BLACK
6
CONTINUOUS
10
2.49735
20
-1.87803
11
2.48952
21
-1.86647
0
LINE
8
BLACK
6
CONTINUOUS
10
2.48952
20
-1.86647
11
2.48298
21
-1.85414
0
LINE
8
BLACK
6
CONTINUOUS
10
2.48298
20
-1.85414
11
2.47781
21
-1.84117
0
LINE
8
BLACK
6
CONTINUOUS
10
2.47781
20
-1.84117
11
2.47408
21
-1.82772
0
LINE
8
BLACK
6
CONTINUOUS
10
2.47408
20
-1.82772
11
2.47182
21
-1.81394
0
LINE
8
BLACK
6
CONTINUOUS
10
2.47182
20
-1.81394
11
2.47106
21
-1.8
0
LINE
8
BLACK
6
CONTINUOUS
10
2.47106
20
-1.8
11
2.47182
21
-1.78606
0
LINE
8
BLACK
6
CONTINUOUS
10
2.47182
20
-1.78606
11
2.47408
21
-1.77228
0
LINE
8
BLACK
6
CONTINUOUS
10
2.47408
20
-1.77228
11
2.47781
21
-1.75883
0
LINE
8
BLACK
6
CONTINUOUS
10
2.47781
20
-1.75883
11
2.48298
21
-1.74586
0
LINE
8
BLACK
6
CONTINUOUS
10
2.48298
20
-1.74586
11
2.48952
21
-1.73353
0
LINE
8
BLACK
6
CONTINUOUS
10
2.48952
20
-1.73353
11
2.49735
21
-1.72197
0
LINE
8
BLACK
6
CONTINUOUS
10
2.49735
20
-1.72197
11
2.50639
21
-1.71133
0
LINE
8
BLACK
6
CONTINUOUS
10
2.50639
20
-1.71133
11
2.51653
21
-1.70173
0
LINE
8
BLACK
6
CONTINUOUS
10
2.51653
20
-1.70173
11
2.52764
21
-1.69328
0
LINE
8
BLACK
6
CONTINUOUS
10
2.52764
20
-1.69328
11
2.5396
21
-1.68608
0
LINE
8
BLACK
6
CONTINUOUS
10
2.5396
20
-1.68608
11
2.55228
21
-1.68022
0
LINE
8
BLACK
6
CONTINUOUS
10
2.55228
20
-1.68022
11
2.56551
21
-1.67576
0
LINE
8
BLACK
6
CONTINUOUS
10
2.56551
20
-1.67576
11
2.57914
21
-1.67276
0
LINE
8
BLACK
6
CONTINUOUS
10
2.57914
20
-1.67276
11
2.59302
21
-1.67125
0
LINE
8
BLACK
6
CONTINUOUS
10
2.59302
20
-1.67125
11
2.60698
21
-1.67125
0
LINE
8
BLACK
6
CONTINUOUS
10
2.60698
20
-1.67125
11
2.62086
21
-1.67276
0
LINE
8
BLACK
6
CONTINUOUS
10
2.47755
20
-1.8138
11
2.47986
21
-1.82742
0
LINE
8
BLACK
6
CONTINUOUS
10
2.47986
20
-1.82742
11
2.48369
21
-1.8407
0
LINE
8
BLACK
6
CONTINUOUS
10
2.48369
20
-1.8407
11
2.48898
21
-1.85347
0
LINE
8
BLACK
6
CONTINUOUS
10
2.48898
20
-1.85347
11
2.49566
21
-1.86556
0
LINE
8
BLACK
6
CONTINUOUS
10
2.49566
20
-1.86556
11
2.50366
21
-1.87683
0
LINE
8
BLACK
6
CONTINUOUS
10
2.50366
20
-1.87683
11
2.51287
21
-1.88713
0
LINE
8
BLACK
6
CONTINUOUS
10
2.51287
20
-1.88713
11
2.52317
21
-1.89634
0
LINE
8
BLACK
6
CONTINUOUS
10
2.52317
20
-1.89634
11
2.53444
21
-1.90434
0
LINE
8
BLACK
6
CONTINUOUS
10
2.53444
20
-1.90434
11
2.54653
21
-1.91102
0
LINE
8
BLACK
6
CONTINUOUS
10
2.54653
20
-1.91102
11
2.5593
21
-1.91631
0
LINE
8
BLACK
6
CONTINUOUS
10
2.5593
20
-1.91631
11
2.57258
21
-1.92014
0
LINE
8
BLACK
6
CONTINUOUS
10
2.57258
20
-1.92014
11
2.5862
21
-1.92245
0
LINE
8
BLACK
6
CONTINUOUS
10
2.5862
20
-1.92245
11
2.6
21
-1.92323
0
LINE
8
BLACK
6
CONTINUOUS
10
2.6
20
-1.92323
11
2.6138
21
-1.92245
0
LINE
8
BLACK
6
CONTINUOUS
10
2.6138
20
-1.92245
11
2.62742
21
-1.92014
0
LINE
8
BLACK
6
CONTINUOUS
10
2.62742
20
-1.92014
11
2.6407
21
-1.91631
0
LINE
8
BLACK
6
CONTINUOUS
10
2.6407
20
-1.91631
11
2.65347
21
-1.91102
0
LINE
8
BLACK
6
CONTINUOUS
10
2.65347
20
-1.91102
11
2.66556
21
-1.90434
0
LINE
8
BLACK
6
CONTINUOUS
10
2.66556
20
-1.90434
11
2.67683
21
-1.89634
0
LINE
8
BLACK
6
CONTINUOUS
10
2.67683
20
-1.89634
11
2.68713
21
-1.88713
0
LINE
8
BLACK
6
CONTINUOUS
10
2.68713
20
-1.88713
11
2.69634
21
-1.87683
0
LINE
8
BLACK
6
CONTINUOUS
10
2.69634
20
-1.87683
11
2.70434
21
-1.86556
0
LINE
8
BLACK
6
CONTINUOUS
10
2.70434
20
-1.86556
11
2.71102
21
-1.85347
0
LINE
8
BLACK
6
CONTINUOUS
10
2.71102
20
-1.85347
11
2.71631
21
-1.8407
0
LINE
8
BLACK
6
CONTINUOUS
10
2.71631
20
-1.8407
11
2.72014
21
-1.82742
0
LINE
8
BLACK
6
CONTINUOUS
10
2.72014
20
-1.82742
11
2.72245
21
-1.8138
0
LINE
8
BLACK
6
CONTINUOUS
10
2.72245
20
-1.8138
11
2.72323
21
-1.8
0
LINE
8
BLACK
6
CONTINUOUS
10
2.72323
20
-1.8
11
2.72245
21
-1.7862
0
LINE
8
BLACK
6
CONTINUOUS
10
2.72245
20
-1.7862
11
2.72014
21
-1.77258
0
LINE
8
BLACK
6
CONTINUOUS
10
2.72014
20
-1.77258
11
2.71631
21
-1.7593
0
LINE
8
BLACK
6
CONTINUOUS
10
2.71631
20
-1.7593
11
2.71102
21
-1.74653
0
LINE
8
BLACK
6
CONTINUOUS
10
2.71102
20
-1.74653
11
2.70434
21
-1.73444
0
LINE
8
BLACK
6
CONTINUOUS
10
2.70434
20
-1.73444
11
2.69634
21
-1.72317
0
LINE
8
BLACK
6
CONTINUOUS
10
2.69634
20
-1.72317
11
2.68713
21
-1.71287
0
LINE
8
BLACK
6
CONTINUOUS
10
2.68713
20
-1.71287
11
2.67683
21
-1.70366
0
LINE
8
BLACK
6
CONTINUOUS
10
2.67683
20
-1.70366
11
2.66556
21
-1.69566
0
LINE
8
BLACK
6
CONTINUOUS
10
2.66556
20
-1.69566
11
2.65347
21
-1.68898
0
LINE
8
BLACK
6
CONTINUOUS
10
2.65347
20
-1.68898
11
2.6407
21
-1.68369
0
LINE
8
BLACK
6
CONTINUOUS
10
2.6407
20
-1.68369
11
2.62742
21
-1.67986
0
LINE
8
BLACK
6
CONTINUOUS
10
2.62742
20
-1.67986
11
2.6138
21
-1.67755
0
LINE
8
BLACK
6
CONTINUOUS
10
2.6138
20
-1.67755
11
2.6
21
-1.67677
0
LINE
8
BLACK
6
CONTINUOUS
10
2.6
20
-1.67677
11
2.5862
21
-1.67755
0
LINE
8
BLACK
6
CONTINUOUS
10
2.5862
20
-1.67755
11
2.57258
21
-1.67986
0
LINE
8
BLACK
6
CONTINUOUS
10
2.57258
20
-1.67986
11
2.5593
21
-1.68369
0
LINE
8
BLACK
6
CONTINUOUS
10
2.5593
20
-1.68369
11
2.54653
21
-1.68898
0
LINE
8
BLACK
6
CONTINUOUS
10
2.54653
20
-1.68898
11
2.53444
21
-1.69566
0
LINE
8
BLACK
6
CONTINUOUS
10
2.53444
20
-1.69566
11
2.52317
21
-1.70366
0
LINE
8
BLACK
6
CONTINUOUS
10
2.52317
20
-1.70366
11
2.51287
21
-1.71287
0
LINE
8
BLACK
6
CONTINUOUS
10
2.51287
20
-1.71287
11
2.50366
21
-1.72317
0
LINE
8
BLACK
6
CONTINUOUS
10
2.50366
20
-1.72317
11
2.49566
21
-1.73444
0
LINE
8
BLACK
6
CONTINUOUS
10
2.49566
20
-1.73444
11
2.48898
21
-1.74653
0
LINE
8
BLACK
6
CONTINUOUS
10
2.48898
20
-1.74653
11
2.48369
21
-1.7593
0
LINE
8
BLACK
6
CONTINUOUS
10
2.48369
20
-1.7593
11
2.47986
21
-1.77258
0
LINE
8
BLACK
6
CONTINUOUS
10
2.47986
20
-1.77258
11
2.47755
21
-1.7862
0
LINE
8
BLACK
6
CONTINUOUS
10
2.47755
20
-1.7862
11
2.47677
21
-1.8
0
LINE
8
BLACK
6
CONTINUOUS
10
2.47677
20
-1.8
11
2.47755
21
-1.8138
0
LINE
8
BLACK
6
CONTINUOUS
10
0.22086
20
-0.0727615
11
0.234494
21
-0.0757628
0
LINE
8
BLACK
6
CONTINUOUS
10
0.234494
20
-0.0757628
11
0.247724
21
-0.0802205
0
LINE
8
BLACK
6
CONTINUOUS
10
0.247724
20
-0.0802205
11
0.260395
21
-0.0860826
0
LINE
8
BLACK
6
CONTINUOUS
10
0.260395
20
-0.0860826
11
0.272358
21
-0.0932803
0
LINE
8
BLACK
6
CONTINUOUS
10
0.272358
20
-0.0932803
11
0.283472
21
-0.101729
0
LINE
8
BLACK
6
CONTINUOUS
10
0.283472
20
-0.101729
11
0.293608
21
-0.11133
0
LINE
8
BLACK
6
CONTINUOUS
10
0.293608
20
-0.11133
11
0.302646
21
-0.121971
0
LINE
8
BLACK
6
CONTINUOUS
10
0.302646
20
-0.121971
11
0.310481
21
-0.133526
0
LINE
8
BLACK
6
CONTINUOUS
10
0.310481
20
-0.133526
11
0.31702
21
-0.145861
0
LINE
8
BLACK
6
CONTINUOUS
10
0.31702
20
-0.145861
11
0.322188
21
-0.15883
0
LINE
8
BLACK
6
CONTINUOUS
10
0.322188
20
-0.15883
11
0.325923
21
-0.172282
0
LINE
8
BLACK
6
CONTINUOUS
10
0.325923
20
-0.172282
11
0.328181
21
-0.186059
0
LINE
8
BLACK
6
CONTINUOUS
10
0.328181
20
-0.186059
11
0.328937
21
-0.2
0
LINE
8
BLACK
6
CONTINUOUS
10
0.328937
20
-0.2
11
0.328181
21
-0.213941
0
LINE
8
BLACK
6
CONTINUOUS
10
0.328181
20
-0.213941
11
0.325923
21
-0.227718
0
LINE
8
BLACK
6
CONTINUOUS
10
0.325923
20
-0.227718
11
0.322188
21
-0.24117
0
LINE
8
BLACK
6
CONTINUOUS
10
0.322188
20
-0.24117
11
0.31702
21
-0.254139
0
LINE
8
BLACK
6
CONTINUOUS
10
0.31702
20
-0.254139
11
0.310481
21
-0.266474
0
LINE
8
BLACK
6
CONTINUOUS
10
0.310481
20
-0.266474
11
0.302646
21
-0.278029
0
LINE
8
BLACK
6
CONTINUOUS
10
0.302646
20
-0.278029
11
0.293608
21
-0.28867
0
LINE
8
BLACK
6
CONTINUOUS
10
0.293608
20
-0.28867
11
0.283472
21
-0.298271
0
LINE
8
BLACK
6
CONTINUOUS
10
0.283472
20
-0.298271
11
0.272358
21
-0.30672
0
LINE
8
BLACK
6
CONTINUOUS
10
0.272358
20
-0.30672
11
0.260395
21
-0.313917
0
LINE
8
BLACK
6
CONTINUOUS
10
0.260395
20
-0.313917
11
0.247724
21
-0.319779
0
LINE
8
BLACK
6
CONTINUOUS
10
0.247724
20
-0.319779
11
0.234494
21
-0.324237
0
LINE
8
BLACK
6
CONTINUOUS
10
0.234494
20
-0.324237
11
0.22086
21
-0.327238
0
LINE
8
BLACK
6
CONTINUOUS
10
0.22086
20
-0.327238
11
0.206981
21
-0.328748
0
LINE
8
BLACK
6
CONTINUOUS
10
0.206981
20
-0.328748
11
0.193019
21
-0.328748
0
LINE
8
BLACK
6
CONTINUOUS
10
0.193019
20
-0.328748
11
0.17914
21
-0.327238
0
LINE
8
BLACK
6
CONTINUOUS
10
0.17914
20
-0.327238
11
0.165506
21
-0.324237
0
LINE
8
BLACK
6
CONTINUOUS
10
0.165506
20
-0.324237
11
0.152276
21
-0.319779
0
LINE
8
BLACK
6
CONTINUOUS
10
0.152276
20
-0.319779
11
0.139605
21
-0.313917
0
LINE
8
BLACK
6
CONTINUOUS
10
0.139605
20
-0.313917
11
0.127642
21
-0.30672
0
LINE
8
BLACK
6
CONTINUOUS
10
0.127642
20
-0.30672
11
0.116528
21
-0.298271
0
LINE
8
BLACK
6
CONTINUOUS
10
0.116528
20
-0.298271
11
0.106392
21
-0.28867
0
LINE
8
BLACK
6
CONTINUOUS
10
0.106392
20
-0.28867
11
0.0973541
21
-0.278029
0
LINE
8
BLACK
6
CONTINUOUS
10
0.0973541
20
-0.278029
11
0.0895194
21
-0.266474
0
LINE
8
BLACK
6
CONTINUOUS
10
0.0895194
20
-0.266474
11
0.08298
21
-0.254139
0
LINE
8
BLACK
6
CONTINUOUS
10
0.08298
20
-0.254139
11
0.0778124
21
-0.24117
0
LINE
8
BLACK
6
CONTINUOUS
10
0.0778124
20
-0.24117
11
0.0740775
21
-0.227718
0
LINE
8
BLACK
6
CONTINUOUS
10
0.0740775
20
-0.227718
11
0.0718188
21
-0.213941
0
LINE
8
BLACK
6
CONTINUOUS
10
0.0718188
20
-0.213941
11
0.071063
21
-0.2
0
LINE
8
BLACK
6
CONTINUOUS
10
0.071063
20
-0.2
11
0.0718188
21
-0.186059
0
LINE
8
BLACK
6
CONTINUOUS
10
0.0718188
20
-0.186059
11
0.0740775
21
-0.172282
0
LINE
8
BLACK
6
CONTINUOUS
10
0.0740775
20
-0.172282
11
0.0778124
21
-0.15883
0
LINE
8
BLACK
6
CONTINUOUS
10
0.0778124
20
-0.15883
11
0.08298
21
-0.145861
0
LINE
8
BLACK
6
CONTINUOUS
10
0.08298
20
-0.145861
11
0.0895194
21
-0.133526
0
LINE
8
BLACK
6
CONTINUOUS
10
0.0895194
20
-0.133526
11
0.0973541
21
-0.121971
0
LINE
8
BLACK
6
CONTINUOUS
10
0.0973541
20
-0.121971
11
0.106392
21
-0.11133
0
LINE
8
BLACK
6
CONTINUOUS
10
0.106392
20
-0.11133
11
0.116528
21
-0.101729
0
LINE
8
BLACK
6
CONTINUOUS
10
0.116528
20
-0.101729
11
0.127642
21
-0.0932803
0
LINE
8
BLACK
6
CONTINUOUS
10
0.127642
20
-0.0932803
11
0.139605
21
-0.0860826
0
LINE
8
BLACK
6
CONTINUOUS
10
0.139605
20
-0.0860826
11
0.152276
21
-0.0802205
0
LINE
8
BLACK
6
CONTINUOUS
10
0.152276
20
-0.0802205
11
0.165506
21
-0.0757628
0
LINE
8
BLACK
6
CONTINUOUS
10
0.165506
20
-0.0757628
11
0.17914
21
-0.0727615
0
LINE
8
BLACK
6
CONTINUOUS
10
0.17914
20
-0.0727615
11
0.193019
21
-0.0712521
0
LINE
8
BLACK
6
CONTINUOUS
10
0.193019
20
-0.0712521
11
0.206981
21
-0.0712521
0
LINE
8
BLACK
6
CONTINUOUS
10
0.206981
20
-0.0712521
11
0.22086
21
-0.0727615
0
LINE
8
BLACK
6
CONTINUOUS
10
0.0775494
20
-0.213797
11
0.0798642
21
-0.22742
0
LINE
8
BLACK
6
CONTINUOUS
10
0.0798642
20
-0.22742
11
0.0836896
21
-0.240699
0
LINE
8
BLACK
6
CONTINUOUS
10
0.0836896
20
-0.240699
11
0.0889778
21
-0.253465
0
LINE
8
BLACK
6
CONTINUOUS
10
0.0889778
20
-0.253465
11
0.0956621
21
-0.26556
0
LINE
8
BLACK
6
CONTINUOUS
10
0.0956621
20
-0.26556
11
0.103659
21
-0.27683
0
LINE
8
BLACK
6
CONTINUOUS
10
0.103659
20
-0.27683
11
0.112867
21
-0.287133
0
LINE
8
BLACK
6
CONTINUOUS
10
0.112867
20
-0.287133
11
0.12317
21
-0.296341
0
LINE
8
BLACK
6
CONTINUOUS
10
0.12317
20
-0.296341
11
0.13444
21
-0.304338
0
LINE
8
BLACK
6
CONTINUOUS
10
0.13444
20
-0.304338
11
0.146535
21
-0.311022
0
LINE
8
BLACK
6
CONTINUOUS
10
0.146535
20
-0.311022
11
0.159301
21
-0.31631
0
LINE
8
BLACK
6
CONTINUOUS
10
0.159301
20
-0.31631
11
0.17258
21
-0.320136
0
LINE
8
BLACK
6
CONTINUOUS
10
0.17258
20
-0.320136
11
0.186203
21
-0.322451
0
LINE
8
BLACK
6
CONTINUOUS
10
0.186203
20
-0.322451
11
0.2
21
-0.323225
0
LINE
8
BLACK
6
CONTINUOUS
10
0.2
20
-0.323225
11
0.213797
21
-0.322451
0
LINE
8
BLACK
6
CONTINUOUS
10
0.213797
20
-0.322451
11
0.22742
21
-0.320136
0
LINE
8
BLACK
6
CONTINUOUS
10
0.22742
20
-0.320136
11
0.240699
21
-0.31631
0
LINE
8
BLACK
6
CONTINUOUS
10
0.240699
20
-0.31631
11
0.253465
21
-0.311022
0
LINE
8
BLACK
6
CONTINUOUS
10
0.253465
20
-0.311022
11
0.26556
21
-0.304338
0
LINE
8
BLACK
6
CONTINUOUS
10
0.26556
20
-0.304338
11
0.27683
21
-0.296341
0
LINE
8
BLACK
6
CONTINUOUS
10
0.27683
20
-0.296341
11
0.287133
21
-0.287133
0
LINE
8
BLACK
6
CONTINUOUS
10
0.287133
20
-0.287133
11
0.296341
21
-0.27683
0
LINE
8
BLACK
6
CONTINUOUS
10
0.296341
20
-0.27683
11
0.304338
21
-0.26556
0
LINE
8
BLACK
6
CONTINUOUS
10
0.304338
20
-0.26556
11
0.311022
21
-0.253465
0
LINE
8
BLACK
6
CONTINUOUS
10
0.311022
20
-0.253465
11
0.31631
21
-0.240699
0
LINE
8
BLACK
6
CONTINUOUS
10
0.31631
20
-0.240699
11
0.320136
21
-0.22742
0
LINE
8
BLACK
6
CONTINUOUS
10
0.320136
20
-0.22742
11
0.322451
21
-0.213797
0
LINE
8
BLACK
6
CONTINUOUS
10
0.322451
20
-0.213797
11
0.323225
21
-0.2
0
LINE
8
BLACK
6
CONTINUOUS
10
0.323225
20
-0.2
11
0.322451
21
-0.186203
0
LINE
8
BLACK
6
CONTINUOUS
10
0.322451
20
-0.186203
11
0.320136
21
-0.17258
0
LINE
8
BLACK
6
CONTINUOUS
10
0.320136
20
-0.17258
11
0.31631
21
-0.159301
0
LINE
8
BLACK
6
CONTINUOUS
10
0.31631
20
-0.159301
11
0.311022
21
-0.146535
0
LINE
8
BLACK
6
CONTINUOUS
10
0.311022
20
-0.146535
11
0.304338
21
-0.13444
0
LINE
8
BLACK
6
CONTINUOUS
10
0.304338
20
-0.13444
11
0.296341
21
-0.12317
0
LINE
8
BLACK
6
CONTINUOUS
10
0.296341
20
-0.12317
11
0.287133
21
-0.112867
0
LINE
8
BLACK
6
CONTINUOUS
10
0.287133
20
-0.112867
11
0.27683
21
-0.103659
0
LINE
8
BLACK
6
CONTINUOUS
10
0.27683
20
-0.103659
11
0.26556
21
-0.0956621
0
LINE
8
BLACK
6
CONTINUOUS
10
0.26556
20
-0.0956621
11
0.253465
21
-0.0889778
0
LINE
8
BLACK
6
CONTINUOUS
10
0.253465
20
-0.0889778
11
0.240699
21
-0.0836896
0
LINE
8
BLACK
6
CONTINUOUS
10
0.240699
20
-0.0836896
11
0.22742
21
-0.0798642
0
LINE
8
BLACK
6
CONTINUOUS
10
0.22742
20
-0.0798642
11
0.213797
21
-0.0775494
0
LINE
8
BLACK
6
CONTINUOUS
10
0.213797
20
-0.0775494
11
0.2
21
-0.0767746
0
LINE
8
BLACK
6
CONTINUOUS
10
0.2
20
-0.0767746
11
0.186203
21
-0.0775494
0
LINE
8
BLACK
6
CONTINUOUS
10
0.186203
20
-0.0775494
11
0.17258
21
-0.0798642
0
LINE
8
BLACK
6
CONTINUOUS
10
0.17258
20
-0.0798642
11
0.159301
21
-0.0836896
0
LINE
8
BLACK
6
CONTINUOUS
10
0.159301
20
-0.0836896
11
0.146535
21
-0.0889778
0
LINE
8
BLACK
6
CONTINUOUS
10
0.146535
20
-0.0889778
11
0.13444
21
-0.0956621
0
LINE
8
BLACK
6
CONTINUOUS
10
0.13444
20
-0.0956621
11
0.12317
21
-0.103659
0
LINE
8
BLACK
6
CONTINUOUS
10
0.12317
20
-0.103659
11
0.112867
21
-0.112867
0
LINE
8
BLACK
6
CONTINUOUS
10
0.112867
20
-0.112867
11
0.103659
21
-0.12317
0
LINE
8
BLACK
6
CONTINUOUS
10
0.103659
20
-0.12317
11
0.0956621
21
-0.13444
0
LINE
8
BLACK
6
CONTINUOUS
10
0.0956621
20
-0.13444
11
0.0889778
21
-0.146535
0
LINE
8
BLACK
6
CONTINUOUS
10
0.0889778
20
-0.146535
11
0.0836896
21
-0.159301
0
LINE
8
BLACK
6
CONTINUOUS
10
0.0836896
20
-0.159301
11
0.0798642
21
-0.17258
0
LINE
8
BLACK
6
CONTINUOUS
10
0.0798642
20
-0.17258
11
0.0775494
21
-0.186203
0
LINE
8
BLACK
6
CONTINUOUS
10
0.0775494
20
-0.186203
11
0.0767746
21
-0.2
0
LINE
8
BLACK
6
CONTINUOUS
10
0.0767746
20
-0.2
11
0.0775494
21
-0.213797
0
LINE
8
BLACK
6
CONTINUOUS
10
2.62086
20
-0.0727615
11
2.63449
21
-0.0757628
0
LINE
8
BLACK
6
CONTINUOUS
10
2.63449
20
-0.0757628
11
2.64772
21
-0.0802205
0
LINE
8
BLACK
6
CONTINUOUS
10
2.64772
20
-0.0802205
11
2.6604
21
-0.0860826
0
LINE
8
BLACK
6
CONTINUOUS
10
2.6604
20
-0.0860826
11
2.67236
21
-0.0932803
0
LINE
8
BLACK
6
CONTINUOUS
10
2.67236
20
-0.0932803
11
2.68347
21
-0.101729
0
LINE
8
BLACK
6
CONTINUOUS
10
2.68347
20
-0.101729
11
2.69361
21
-0.11133
0
LINE
8
BLACK
6
CONTINUOUS
10
2.69361
20
-0.11133
11
2.70265
21
-0.121971
0
LINE
8
BLACK
6
CONTINUOUS
10
2.70265
20
-0.121971
11
2.71048
21
-0.133526
0
LINE
8
BLACK
6
CONTINUOUS
10
2.71048
20
-0.133526
11
2.71702
21
-0.145861
0
LINE
8
BLACK
6
CONTINUOUS
10
2.71702
20
-0.145861
11
2.72219
21
-0.15883
0
LINE
8
BLACK
6
CONTINUOUS
10
2.72219
20
-0.15883
11
2.72592
21
-0.172282
0
LINE
8
BLACK
6
CONTINUOUS
10
2.72592
20
-0.172282
11
2.72818
21
-0.186059
0
LINE
8
BLACK
6
CONTINUOUS
10
2.72818
20
-0.186059
11
2.72894
21
-0.2
0
LINE
8
BLACK
6
CONTINUOUS
10
2.72894
20
-0.2
11
2.72818
21
-0.213941
0
LINE
8
BLACK
6
CONTINUOUS
10
2.72818
20
-0.213941
11
2.72592
21
-0.227718
0
LINE
8
BLACK
6
CONTINUOUS
10
2.72592
20
-0.227718
11
2.72219
21
-0.24117
0
LINE
8
BLACK
6
CONTINUOUS
10
2.72219
20
-0.24117
11
2.71702
21
-0.254139
0
LINE
8
BLACK
6
CONTINUOUS
10
2.71702
20
-0.254139
11
2.71048
21
-0.266474
0
LINE
8
BLACK
6
CONTINUOUS
10
2.71048
20
-0.266474
11
2.70265
21
-0.278029
0
LINE
8
BLACK
6
CONTINUOUS
10
2.70265
20
-0.278029
11
2.69361
21
-0.28867
0
LINE
8
BLACK
6
CONTINUOUS
10
2.69361
20
-0.28867
11
2.68347
21
-0.298271
0
LINE
8
BLACK
6
CONTINUOUS
10
2.68347
20
-0.298271
11
2.67236
21
-0.30672
0
LINE
8
BLACK
6
CONTINUOUS
10
2.67236
20
-0.30672
11
2.6604
21
-0.313917
0
LINE
8
BLACK
6
CONTINUOUS
10
2.6604
20
-0.313917
11
2.64772
21
-0.319779
0
LINE
8
BLACK
6
CONTINUOUS
10
2.64772
20
-0.319779
11
2.63449
21
-0.324237
0
LINE
8
BLACK
6
CONTINUOUS
10
2.63449
20
-0.324237
11
2.62086
21
-0.327238
0
LINE
8
BLACK
6
CONTINUOUS
10
2.62086
20
-0.327238
11
2.60698
21
-0.328748
0
LINE
8
BLACK
6
CONTINUOUS
10
2.60698
20
-0.328748
11
2.59302
21
-0.328748
0
LINE
8
BLACK
6
CONTINUOUS
10
2.59302
20
-0.328748
11
2.57914
21
-0.327238
0
LINE
8
BLACK
6
CONTINUOUS
10
2.57914
20
-0.327238
11
2.56551
21
-0.324237
0
LINE
8
BLACK
6
CONTINUOUS
10
2.56551
20
-0.324237
11
2.55228
21
-0.319779
0
LINE
8
BLACK
6
CONTINUOUS
10
2.55228
20
-0.319779
11
2.5396
21
-0.313917
0
LINE
8
BLACK
6
CONTINUOUS
10
2.5396
20
-0.313917
11
2.52764
21
-0.30672
0
LINE
8
BLACK
6
CONTINUOUS
10
2.52764
20
-0.30672
11
2.51653
21
-0.298271
0
LINE
8
BLACK
6
CONTINUOUS
10
2.51653
20
-0.298271
11
2.50639
21
-0.28867
0
LINE
8
BLACK
6
CONTINUOUS
10
2.50639
20
-0.28867
11
2.49735
21
-0.278029
0
LINE
8
BLACK
6
CONTINUOUS
10
2.49735
20
-0.278029
11
2.48952
21
-0.266474
0
LINE
8
BLACK
6
CONTINUOUS
10
2.48952
20
-0.266474
11
2.48298
21
-0.254139
0
LINE
8
BLACK
6
CONTINUOUS
10
2.48298
20
-0.254139
11
2.47781
21
-0.24117
0
LINE
8
BLACK
6
CONTINUOUS
10
2.47781
20
-0.24117
11
2.47408
21
-0.227718
0
LINE
8
BLACK
6
CONTINUOUS
10
2.47408
20
-0.227718
11
2.47182
21
-0.213941
0
LINE
8
BLACK
6
CONTINUOUS
10
2.47182
20
-0.213941
11
2.47106
21
-0.2
0
LINE
8
BLACK
6
CONTINUOUS
10
2.47106
20
-0.2
11
2.47182
21
-0.186059
0
LINE
8
BLACK
6
CONTINUOUS
10
2.47182
20
-0.186059
11
2.47408
21
-0.172282
0
LINE
8
BLACK
6
CONTINUOUS
10
2.47408
20
-0.172282
11
2.47781
21
-0.15883
0
LINE
8
BLACK
6
CONTINUOUS
10
2.47781
20
-0.15883
11
2.48298
21
-0.145861
0
LINE
8
BLACK
6
CONTINUOUS
10
2.48298
20
-0.145861
11
2.48952
21
-0.133526
0
LINE
8
BLACK
6
CONTINUOUS
10
2.48952
20
-0.133526
11
2.49735
21
-0.121971
0
LINE
8
BLACK
6
CONTINUOUS
10
2.49735
20
-0.121971
11
2.50639
21
-0.11133
0
LINE
8
BLACK
6
CONTINUOUS
10
2.50639
20
-0.11133
11
2.51653
21
-0.101729
0
LINE
8
BLACK
6
CONTINUOUS
10
2.51653
20
-0.101729
11
2.52764
21
-0.0932803
0
LINE
8
BLACK
6
CONTINUOUS
10
2.52764
20
-0.0932803
11
2.5396
21
-0.0860826
0
LINE
8
BLACK
6
CONTINUOUS
10
2.5396
20
-0.0860826
11
2.55228
21
-0.0802205
0
LINE
8
BLACK
6
CONTINUOUS
10
2.55228
20
-0.0802205
11
2.56551
21
-0.0757628
0
LINE
8
BLACK
6
CONTINUOUS
10
2.56551
20
-0.0757628
11
2.57914
21
-0.0727615
0
LINE
8
BLACK
6
CONTINUOUS
10
2.57914
20
-0.0727615
11
2.59302
21
-0.0712521
0
LINE
8
BLACK
6
CONTINUOUS
10
2.59302
20
-0.0712521
11
2.60698
21
-0.0712521
0
LINE
8
BLACK
6
CONTINUOUS
10
2.60698
20
-0.0712521
11
2.62086
21
-0.0727615
0
LINE
8
BLACK
6
CONTINUOUS
10
2.47755
20
-0.213797
11
2.47986
21
-0.22742
0
LINE
8
BLACK
6
CONTINUOUS
10
2.47986
20
-0.22742
11
2.48369
21
-0.240699
0
LINE
8
BLACK
6
CONTINUOUS
10
2.48369
20
-0.240699
11
2.48898
21
-0.253465
0
LINE
8
BLACK
6
CONTINUOUS
10
2.48898
20
-0.253465
11
2.49566
21
-0.26556
0
LINE
8
BLACK
6
CONTINUOUS
10
2.49566
20
-0.26556
11
2.50366
21
-0.27683
0
LINE
8
BLACK
6
CONTINUOUS
10
2.50366
20
-0.27683
11
2.51287
21
-0.287133
0
LINE
8
BLACK
6
CONTINUOUS
10
2.51287
20
-0.287133
11
2.52317
21
-0.296341
0
LINE
8
BLACK
6
CONTINUOUS
10
2.52317
20
-0.296341
11
2.53444
21
-0.304338
0
LINE
8
BLACK
6
CONTINUOUS
10
2.53444
20
-0.304338
11
2.54653
21
-0.311022
0
LINE
8
BLACK
6
CONTINUOUS
10
2.54653
20
-0.311022
11
2.5593
21
-0.31631
0
LINE
8
BLACK
6
CONTINUOUS
10
2.5593
20
-0.31631
11
2.57258
21
-0.320136
0
LINE
8
BLACK
6
CONTINUOUS
10
2.57258
20
-0.320136
11
2.5862
21
-0.322451
0
LINE
8
BLACK
6
CONTINUOUS
10
2.5862
20
-0.322451
11
2.6
21
-0.323225
0
LINE
8
BLACK
6
CONTINUOUS
10
2.6
20
-0.323225
11
2.6138
21
-0.322451
0
LINE
8
BLACK
6
CONTINUOUS
10
2.6138
20
-0.322451
11
2.62742
21
-0.320136
0
LINE
8
BLACK
6
CONTINUOUS
10
2.62742
20
-0.320136
11
2.6407
21
-0.31631
0
LINE
8
BLACK
6
CONTINUOUS
10
2.6407
20
-0.31631
11
2.65347
21
-0.311022
0
LINE
8
BLACK
6
CONTINUOUS
10
2.65347
20
-0.311022
11
2.66556
21
-0.304338
0
LINE
8
BLACK
6
CONTINUOUS
10
2.66556
20
-0.304338
11
2.67683
21
-0.296341
0
LINE
8
BLACK
6
CONTINUOUS
10
2.67683
20
-0.296341
11
2.68713
21
-0.287133
0
LINE
8
BLACK
6
CONTINUOUS
10
2.68713
20
-0.287133
11
2.69634
21
-0.27683
0
LINE
8
BLACK
6
CONTINUOUS
10
2.69634
20
-0.27683
11
2.70434
21
-0.26556
0
LINE
8
BLACK
6
CONTINUOUS
10
2.70434
20
-0.26556
11
2.71102
21
-0.253465
0
LINE
8
BLACK
6
CONTINUOUS
10
2.71102
20
-0.253465
11
2.71631
21
-0.240699
0
LINE
8
BLACK
6
CONTINUOUS
10
2.71631
20
-0.240699
11
2.72014
21
-0.22742
0
LINE
8
BLACK
6
CONTINUOUS
10
2.72014
20
-0.22742
11
2.72245
21
-0.213797
0
LINE
8
BLACK
6
CONTINUOUS
10
2.72245
20
-0.213797
11
2.72323
21
-0.2
0
LINE
8
BLACK
6
CONTINUOUS
10
2.72323
20
-0.2
11
2.72245
21
-0.186203
0
LINE
8
BLACK
6
CONTINUOUS
10
2.72245
20
-0.186203
11
2.72014
21
-0.17258
0
LINE
8
BLACK
6
CONTINUOUS
10
2.72014
20
-0.17258
11
2.71631
21
-0.159301
0
LINE
8
BLACK
6
CONTINUOUS
10
2.71631
20
-0.159301
11
2.71102
21
-0.146535
0
LINE
8
BLACK
6
CONTINUOUS
10
2.71102
20
-0.146535
11
2.70434
21
-0.13444
0
LINE
8
BLACK
6
CONTINUOUS
10
2.70434
20
-0.13444
11
2.69634
21
-0.12317
0
LINE
8
BLACK
6
CONTINUOUS
10
2.69634
20
-0.12317
11
2.68713
21
-0.112867
0
LINE
8
BLACK
6
CONTINUOUS
10
2.68713
20
-0.112867
11
2.67683
21
-0.103659
0
LINE
8
BLACK
6
CONTINUOUS
10
2.67683
20
-0.103659
11
2.66556
21
-0.0956621
0
LINE
8
BLACK
6
CONTINUOUS
10
2.66556
20
-0.0956621
11
2.65347
21
-0.0889778
0
LINE
8
BLACK
6
CONTINUOUS
10
2.65347
20
-0.0889778
11
2.6407
21
-0.0836896
0
LINE
8
BLACK
6
CONTINUOUS
10
2.6407
20
-0.0836896
11
2.62742
21
-0.0798642
0
LINE
8
BLACK
6
CONTINUOUS
10
2.62742
20
-0.0798642
11
2.6138
21
-0.0775494
0
LINE
8
BLACK
6
CONTINUOUS
10
2.6138
20
-0.0775494
11
2.6
21
-0.0767746
0
LINE
8
BLACK
6
CONTINUOUS
10
2.6
20
-0.0767746
11
2.5862
21
-0.0775494
0
LINE
8
BLACK
6
CONTINUOUS
10
2.5862
20
-0.0775494
11
2.57258
21
-0.0798642
0
LINE
8
BLACK
6
CONTINUOUS
10
2.57258
20
-0.0798642
11
2.5593
21
-0.0836896
0
LINE
8
BLACK
6
CONTINUOUS
10
2.5593
20
-0.0836896
11
2.54653
21
-0.0889778
0
LINE
8
BLACK
6
CONTINUOUS
10
2.54653
20
-0.0889778
11
2.53444
21
-0.0956621
0
LINE
8
BLACK
6
CONTINUOUS
10
2.53444
20
-0.0956621
11
2.52317
21
-0.103659
0
LINE
8
BLACK
6
CONTINUOUS
10
2.52317
20
-0.103659
11
2.51287
21
-0.112867
0
LINE
8
BLACK
6
CONTINUOUS
10
2.51287
20
-0.112867
11
2.50366
21
-0.12317
0
LINE
8
BLACK
6
CONTINUOUS
10
2.50366
20
-0.12317
11
2.49566
21
-0.13444
0
LINE
8
BLACK
6
CONTINUOUS
10
2.49566
20
-0.13444
11
2.48898
21
-0.146535
0
LINE
8
BLACK
6
CONTINUOUS
10
2.48898
20
-0.146535
11
2.48369
21
-0.159301
0
LINE
8
BLACK
6
CONTINUOUS
10
2.48369
20
-0.159301
11
2.47986
21
-0.17258
0
LINE
8
BLACK
6
CONTINUOUS
10
2.47986
20
-0.17258
11
2.47755
21
-0.186203
0
LINE
8
BLACK
6
CONTINUOUS
10
2.47755
20
-0.186203
11
2.47677
21
-0.2
0
LINE
8
BLACK
6
CONTINUOUS
10
2.47677
20
-0.2
11
2.47755
21
-0.213797
  0
ENDSEC
  0
EOF
