  0
SECTION
  2
HEADER
  9
$ANGBASE
  50
0.0
  9
$ANGDIR
  70
1
  9
$MEASUREMENT
  70
0
  0
ENDSEC
  0
SECTION
  2
TABLES
  0
TABLE
  2
LTYPE
  70
4
  0
LTYPE
  5
40F
  2
CONTINUOUS
  70
0
  3
Solid line
  72
65
  73
0
  40
0.0
  0
LTYPE
  5
410
  2
DASHDOT
 70
0
  3
Dash Dot ____ _ ____ _
 72
65
 73
4
 40
2.0
 49
1.25
 49
-0.25
 49
0.25
 49
-0.25
  0
LTYPE
  5
411
  2
DASHED
 70
0
  3
Dashed __ __ __ __ __
 72
65
 73
2
 40
0.75
 49
0.5
 49
-0.25
  0
LTYPE
  5
43B
  2
DOTTED
 70
0
  3
Dotted .  .  .  .
 72
65
 73
2
 40
0.2
 49
0.0
 49
-0.2
  0
ENDTAB
  0
TABLE
  2
STYLE
  70
4
  0
STYLE
  2
KICAD
  70
0
  40
0
  41
1
  42
1
  50
0
  71
0
  3
isocp.shx
  0
STYLE
  2
KICADB
  70
0
  40
0
  41
1
  42
1
  50
0
  71
0
  3
isocp.shx
  0
STYLE
  2
KICADI
  70
0
  40
0
  41
1
  42
1
  50
15
  71
0
  3
isocp.shx
  0
STYLE
  2
KICADBI
  70
0
  40
0
  41
1
  42
1
  50
15
  71
0
  3
isocp.shx
  0
ENDTAB
  0
TABLE
  2
LAYER
  70
1
  0
LAYER
  2
BLACK
  70
0
  62
7
  6
CONTINUOUS
  0
ENDTAB
  0
ENDSEC
  0
SECTION
  2
ENTITIES
0
LINE
8
BLACK
6
CONTINUOUS
10
0.210169
20
-2.07087
11
0.224097
21
-2.07324
0
LINE
8
BLACK
6
CONTINUOUS
10
0.224097
20
-2.07324
11
0.237673
21
-2.07715
0
LINE
8
BLACK
6
CONTINUOUS
10
0.237673
20
-2.07715
11
0.250726
21
-2.08256
0
LINE
8
BLACK
6
CONTINUOUS
10
0.250726
20
-2.08256
11
0.263091
21
-2.08939
0
LINE
8
BLACK
6
CONTINUOUS
10
0.263091
20
-2.08939
11
0.274613
21
-2.09756
0
LINE
8
BLACK
6
CONTINUOUS
10
0.274613
20
-2.09756
11
0.285147
21
-2.10698
0
LINE
8
BLACK
6
CONTINUOUS
10
0.285147
20
-2.10698
11
0.294561
21
-2.11751
0
LINE
8
BLACK
6
CONTINUOUS
10
0.294561
20
-2.11751
11
0.302737
21
-2.12904
0
LINE
8
BLACK
6
CONTINUOUS
10
0.302737
20
-2.12904
11
0.309571
21
-2.1414
0
LINE
8
BLACK
6
CONTINUOUS
10
0.309571
20
-2.1414
11
0.314977
21
-2.15445
0
LINE
8
BLACK
6
CONTINUOUS
10
0.314977
20
-2.15445
11
0.318889
21
-2.16803
0
LINE
8
BLACK
6
CONTINUOUS
10
0.318889
20
-2.16803
11
0.321255
21
-2.18196
0
LINE
8
BLACK
6
CONTINUOUS
10
0.321255
20
-2.18196
11
0.322047
21
-2.19606
0
LINE
8
BLACK
6
CONTINUOUS
10
0.322047
20
-2.19606
11
0.321255
21
-2.21017
0
LINE
8
BLACK
6
CONTINUOUS
10
0.321255
20
-2.21017
11
0.318889
21
-2.2241
0
LINE
8
BLACK
6
CONTINUOUS
10
0.318889
20
-2.2241
11
0.314977
21
-2.23767
0
LINE
8
BLACK
6
CONTINUOUS
10
0.314977
20
-2.23767
11
0.309571
21
-2.25073
0
LINE
8
BLACK
6
CONTINUOUS
10
0.309571
20
-2.25073
11
0.302737
21
-2.26309
0
LINE
8
BLACK
6
CONTINUOUS
10
0.302737
20
-2.26309
11
0.294561
21
-2.27461
0
LINE
8
BLACK
6
CONTINUOUS
10
0.294561
20
-2.27461
11
0.285147
21
-2.28515
0
LINE
8
BLACK
6
CONTINUOUS
10
0.285147
20
-2.28515
11
0.274613
21
-2.29456
0
LINE
8
BLACK
6
CONTINUOUS
10
0.274613
20
-2.29456
11
0.263091
21
-2.30274
0
LINE
8
BLACK
6
CONTINUOUS
10
0.263091
20
-2.30274
11
0.250726
21
-2.30957
0
LINE
8
BLACK
6
CONTINUOUS
10
0.250726
20
-2.30957
11
0.237673
21
-2.31498
0
LINE
8
BLACK
6
CONTINUOUS
10
0.237673
20
-2.31498
11
0.224097
21
-2.31889
0
LINE
8
BLACK
6
CONTINUOUS
10
0.224097
20
-2.31889
11
0.210169
21
-2.32126
0
LINE
8
BLACK
6
CONTINUOUS
10
0.210169
20
-2.32126
11
0.196063
21
-2.32205
0
LINE
8
BLACK
6
CONTINUOUS
10
0.196063
20
-2.32205
11
0.181957
21
-2.32126
0
LINE
8
BLACK
6
CONTINUOUS
10
0.181957
20
-2.32126
11
0.168029
21
-2.31889
0
LINE
8
BLACK
6
CONTINUOUS
10
0.168029
20
-2.31889
11
0.154453
21
-2.31498
0
LINE
8
BLACK
6
CONTINUOUS
10
0.154453
20
-2.31498
11
0.1414
21
-2.30957
0
LINE
8
BLACK
6
CONTINUOUS
10
0.1414
20
-2.30957
11
0.129035
21
-2.30274
0
LINE
8
BLACK
6
CONTINUOUS
10
0.129035
20
-2.30274
11
0.117513
21
-2.29456
0
LINE
8
BLACK
6
CONTINUOUS
10
0.117513
20
-2.29456
11
0.106979
21
-2.28515
0
LINE
8
BLACK
6
CONTINUOUS
10
0.106979
20
-2.28515
11
0.0975645
21
-2.27461
0
LINE
8
BLACK
6
CONTINUOUS
10
0.0975645
20
-2.27461
11
0.0893891
21
-2.26309
0
LINE
8
BLACK
6
CONTINUOUS
10
0.0893891
20
-2.26309
11
0.0825551
21
-2.25073
0
LINE
8
BLACK
6
CONTINUOUS
10
0.0825551
20
-2.25073
11
0.0771485
21
-2.23767
0
LINE
8
BLACK
6
CONTINUOUS
10
0.0771485
20
-2.23767
11
0.0732374
21
-2.2241
0
LINE
8
BLACK
6
CONTINUOUS
10
0.0732374
20
-2.2241
11
0.0708709
21
-2.21017
0
LINE
8
BLACK
6
CONTINUOUS
10
0.0708709
20
-2.21017
11
0.0700787
21
-2.19606
0
LINE
8
BLACK
6
CONTINUOUS
10
0.0700787
20
-2.19606
11
0.0708709
21
-2.18196
0
LINE
8
BLACK
6
CONTINUOUS
10
0.0708709
20
-2.18196
11
0.0732374
21
-2.16803
0
LINE
8
BLACK
6
CONTINUOUS
10
0.0732374
20
-2.16803
11
0.0771485
21
-2.15445
0
LINE
8
BLACK
6
CONTINUOUS
10
0.0771485
20
-2.15445
11
0.0825551
21
-2.1414
0
LINE
8
BLACK
6
CONTINUOUS
10
0.0825551
20
-2.1414
11
0.0893891
21
-2.12904
0
LINE
8
BLACK
6
CONTINUOUS
10
0.0893891
20
-2.12904
11
0.0975645
21
-2.11751
0
LINE
8
BLACK
6
CONTINUOUS
10
0.0975645
20
-2.11751
11
0.106979
21
-2.10698
0
LINE
8
BLACK
6
CONTINUOUS
10
0.106979
20
-2.10698
11
0.117513
21
-2.09756
0
LINE
8
BLACK
6
CONTINUOUS
10
0.117513
20
-2.09756
11
0.129035
21
-2.08939
0
LINE
8
BLACK
6
CONTINUOUS
10
0.129035
20
-2.08939
11
0.1414
21
-2.08256
0
LINE
8
BLACK
6
CONTINUOUS
10
0.1414
20
-2.08256
11
0.154453
21
-2.07715
0
LINE
8
BLACK
6
CONTINUOUS
10
0.154453
20
-2.07715
11
0.168029
21
-2.07324
0
LINE
8
BLACK
6
CONTINUOUS
10
0.168029
20
-2.07324
11
0.181957
21
-2.07087
0
LINE
8
BLACK
6
CONTINUOUS
10
0.181957
20
-2.07087
11
0.196063
21
-2.07008
0
LINE
8
BLACK
6
CONTINUOUS
10
0.196063
20
-2.07008
11
0.210169
21
-2.07087
0
LINE
8
BLACK
6
CONTINUOUS
10
2.61017
20
-2.07087
11
2.6241
21
-2.07324
0
LINE
8
BLACK
6
CONTINUOUS
10
2.6241
20
-2.07324
11
2.63767
21
-2.07715
0
LINE
8
BLACK
6
CONTINUOUS
10
2.63767
20
-2.07715
11
2.65073
21
-2.08256
0
LINE
8
BLACK
6
CONTINUOUS
10
2.65073
20
-2.08256
11
2.66309
21
-2.08939
0
LINE
8
BLACK
6
CONTINUOUS
10
2.66309
20
-2.08939
11
2.67461
21
-2.09756
0
LINE
8
BLACK
6
CONTINUOUS
10
2.67461
20
-2.09756
11
2.68515
21
-2.10698
0
LINE
8
BLACK
6
CONTINUOUS
10
2.68515
20
-2.10698
11
2.69456
21
-2.11751
0
LINE
8
BLACK
6
CONTINUOUS
10
2.69456
20
-2.11751
11
2.70274
21
-2.12904
0
LINE
8
BLACK
6
CONTINUOUS
10
2.70274
20
-2.12904
11
2.70957
21
-2.1414
0
LINE
8
BLACK
6
CONTINUOUS
10
2.70957
20
-2.1414
11
2.71498
21
-2.15445
0
LINE
8
BLACK
6
CONTINUOUS
10
2.71498
20
-2.15445
11
2.71889
21
-2.16803
0
LINE
8
BLACK
6
CONTINUOUS
10
2.71889
20
-2.16803
11
2.72126
21
-2.18196
0
LINE
8
BLACK
6
CONTINUOUS
10
2.72126
20
-2.18196
11
2.72205
21
-2.19606
0
LINE
8
BLACK
6
CONTINUOUS
10
2.72205
20
-2.19606
11
2.72126
21
-2.21017
0
LINE
8
BLACK
6
CONTINUOUS
10
2.72126
20
-2.21017
11
2.71889
21
-2.2241
0
LINE
8
BLACK
6
CONTINUOUS
10
2.71889
20
-2.2241
11
2.71498
21
-2.23767
0
LINE
8
BLACK
6
CONTINUOUS
10
2.71498
20
-2.23767
11
2.70957
21
-2.25073
0
LINE
8
BLACK
6
CONTINUOUS
10
2.70957
20
-2.25073
11
2.70274
21
-2.26309
0
LINE
8
BLACK
6
CONTINUOUS
10
2.70274
20
-2.26309
11
2.69456
21
-2.27461
0
LINE
8
BLACK
6
CONTINUOUS
10
2.69456
20
-2.27461
11
2.68515
21
-2.28515
0
LINE
8
BLACK
6
CONTINUOUS
10
2.68515
20
-2.28515
11
2.67461
21
-2.29456
0
LINE
8
BLACK
6
CONTINUOUS
10
2.67461
20
-2.29456
11
2.66309
21
-2.30274
0
LINE
8
BLACK
6
CONTINUOUS
10
2.66309
20
-2.30274
11
2.65073
21
-2.30957
0
LINE
8
BLACK
6
CONTINUOUS
10
2.65073
20
-2.30957
11
2.63767
21
-2.31498
0
LINE
8
BLACK
6
CONTINUOUS
10
2.63767
20
-2.31498
11
2.6241
21
-2.31889
0
LINE
8
BLACK
6
CONTINUOUS
10
2.6241
20
-2.31889
11
2.61017
21
-2.32126
0
LINE
8
BLACK
6
CONTINUOUS
10
2.61017
20
-2.32126
11
2.59606
21
-2.32205
0
LINE
8
BLACK
6
CONTINUOUS
10
2.59606
20
-2.32205
11
2.58196
21
-2.32126
0
LINE
8
BLACK
6
CONTINUOUS
10
2.58196
20
-2.32126
11
2.56803
21
-2.31889
0
LINE
8
BLACK
6
CONTINUOUS
10
2.56803
20
-2.31889
11
2.55445
21
-2.31498
0
LINE
8
BLACK
6
CONTINUOUS
10
2.55445
20
-2.31498
11
2.5414
21
-2.30957
0
LINE
8
BLACK
6
CONTINUOUS
10
2.5414
20
-2.30957
11
2.52904
21
-2.30274
0
LINE
8
BLACK
6
CONTINUOUS
10
2.52904
20
-2.30274
11
2.51751
21
-2.29456
0
LINE
8
BLACK
6
CONTINUOUS
10
2.51751
20
-2.29456
11
2.50698
21
-2.28515
0
LINE
8
BLACK
6
CONTINUOUS
10
2.50698
20
-2.28515
11
2.49756
21
-2.27461
0
LINE
8
BLACK
6
CONTINUOUS
10
2.49756
20
-2.27461
11
2.48939
21
-2.26309
0
LINE
8
BLACK
6
CONTINUOUS
10
2.48939
20
-2.26309
11
2.48256
21
-2.25073
0
LINE
8
BLACK
6
CONTINUOUS
10
2.48256
20
-2.25073
11
2.47715
21
-2.23767
0
LINE
8
BLACK
6
CONTINUOUS
10
2.47715
20
-2.23767
11
2.47324
21
-2.2241
0
LINE
8
BLACK
6
CONTINUOUS
10
2.47324
20
-2.2241
11
2.47087
21
-2.21017
0
LINE
8
BLACK
6
CONTINUOUS
10
2.47087
20
-2.21017
11
2.47008
21
-2.19606
0
LINE
8
BLACK
6
CONTINUOUS
10
2.47008
20
-2.19606
11
2.47087
21
-2.18196
0
LINE
8
BLACK
6
CONTINUOUS
10
2.47087
20
-2.18196
11
2.47324
21
-2.16803
0
LINE
8
BLACK
6
CONTINUOUS
10
2.47324
20
-2.16803
11
2.47715
21
-2.15445
0
LINE
8
BLACK
6
CONTINUOUS
10
2.47715
20
-2.15445
11
2.48256
21
-2.1414
0
LINE
8
BLACK
6
CONTINUOUS
10
2.48256
20
-2.1414
11
2.48939
21
-2.12904
0
LINE
8
BLACK
6
CONTINUOUS
10
2.48939
20
-2.12904
11
2.49756
21
-2.11751
0
LINE
8
BLACK
6
CONTINUOUS
10
2.49756
20
-2.11751
11
2.50698
21
-2.10698
0
LINE
8
BLACK
6
CONTINUOUS
10
2.50698
20
-2.10698
11
2.51751
21
-2.09756
0
LINE
8
BLACK
6
CONTINUOUS
10
2.51751
20
-2.09756
11
2.52904
21
-2.08939
0
LINE
8
BLACK
6
CONTINUOUS
10
2.52904
20
-2.08939
11
2.5414
21
-2.08256
0
LINE
8
BLACK
6
CONTINUOUS
10
2.5414
20
-2.08256
11
2.55445
21
-2.07715
0
LINE
8
BLACK
6
CONTINUOUS
10
2.55445
20
-2.07715
11
2.56803
21
-2.07324
0
LINE
8
BLACK
6
CONTINUOUS
10
2.56803
20
-2.07324
11
2.58196
21
-2.07087
0
LINE
8
BLACK
6
CONTINUOUS
10
2.58196
20
-2.07087
11
2.59606
21
-2.07008
0
LINE
8
BLACK
6
CONTINUOUS
10
2.59606
20
-2.07008
11
2.61017
21
-2.07087
0
LINE
8
BLACK
6
CONTINUOUS
10
1.01539
20
-2.07251
11
1.01651
21
-2.07325
0
LINE
8
BLACK
6
CONTINUOUS
10
1.01651
20
-2.07325
11
1.01726
21
-2.07437
0
LINE
8
BLACK
6
CONTINUOUS
10
1.01726
20
-2.07437
11
1.01752
21
-2.07569
0
LINE
8
BLACK
6
CONTINUOUS
10
1.01752
20
-2.07569
11
1.01752
21
-2.22628
0
LINE
8
BLACK
6
CONTINUOUS
10
1.01752
20
-2.22628
11
1.01726
21
-2.2276
0
LINE
8
BLACK
6
CONTINUOUS
10
1.01726
20
-2.2276
11
1.01651
21
-2.22872
0
LINE
8
BLACK
6
CONTINUOUS
10
1.01651
20
-2.22872
11
1.01539
21
-2.22946
0
LINE
8
BLACK
6
CONTINUOUS
10
1.01539
20
-2.22946
11
1.01407
21
-2.22972
0
LINE
8
BLACK
6
CONTINUOUS
10
1.01407
20
-2.22972
11
1.00719
21
-2.22972
0
LINE
8
BLACK
6
CONTINUOUS
10
1.00719
20
-2.22972
11
1.00587
21
-2.22946
0
LINE
8
BLACK
6
CONTINUOUS
10
1.00587
20
-2.22946
11
1.00475
21
-2.22872
0
LINE
8
BLACK
6
CONTINUOUS
10
1.00475
20
-2.22872
11
1.004
21
-2.2276
0
LINE
8
BLACK
6
CONTINUOUS
10
1.004
20
-2.2276
11
1.00374
21
-2.22628
0
LINE
8
BLACK
6
CONTINUOUS
10
1.00374
20
-2.22628
11
1.00374
21
-2.07569
0
LINE
8
BLACK
6
CONTINUOUS
10
1.00374
20
-2.07569
11
1.004
21
-2.07437
0
LINE
8
BLACK
6
CONTINUOUS
10
1.004
20
-2.07437
11
1.00475
21
-2.07325
0
LINE
8
BLACK
6
CONTINUOUS
10
1.00475
20
-2.07325
11
1.00587
21
-2.07251
0
LINE
8
BLACK
6
CONTINUOUS
10
1.00587
20
-2.07251
11
1.00719
21
-2.07224
0
LINE
8
BLACK
6
CONTINUOUS
10
1.00719
20
-2.07224
11
1.01407
21
-2.07224
0
LINE
8
BLACK
6
CONTINUOUS
10
1.01407
20
-2.07224
11
1.01539
21
-2.07251
0
LINE
8
BLACK
6
CONTINUOUS
10
1.04295
20
-2.07251
11
1.04407
21
-2.07325
0
LINE
8
BLACK
6
CONTINUOUS
10
1.04407
20
-2.07325
11
1.04482
21
-2.07437
0
LINE
8
BLACK
6
CONTINUOUS
10
1.04482
20
-2.07437
11
1.04508
21
-2.07569
0
LINE
8
BLACK
6
CONTINUOUS
10
1.04508
20
-2.07569
11
1.04508
21
-2.22628
0
LINE
8
BLACK
6
CONTINUOUS
10
1.04508
20
-2.22628
11
1.04482
21
-2.2276
0
LINE
8
BLACK
6
CONTINUOUS
10
1.04482
20
-2.2276
11
1.04407
21
-2.22872
0
LINE
8
BLACK
6
CONTINUOUS
10
1.04407
20
-2.22872
11
1.04295
21
-2.22946
0
LINE
8
BLACK
6
CONTINUOUS
10
1.04295
20
-2.22946
11
1.04163
21
-2.22972
0
LINE
8
BLACK
6
CONTINUOUS
10
1.04163
20
-2.22972
11
1.03474
21
-2.22972
0
LINE
8
BLACK
6
CONTINUOUS
10
1.03474
20
-2.22972
11
1.03343
21
-2.22946
0
LINE
8
BLACK
6
CONTINUOUS
10
1.03343
20
-2.22946
11
1.03231
21
-2.22872
0
LINE
8
BLACK
6
CONTINUOUS
10
1.03231
20
-2.22872
11
1.03156
21
-2.2276
0
LINE
8
BLACK
6
CONTINUOUS
10
1.03156
20
-2.2276
11
1.0313
21
-2.22628
0
LINE
8
BLACK
6
CONTINUOUS
10
1.0313
20
-2.22628
11
1.0313
21
-2.07569
0
LINE
8
BLACK
6
CONTINUOUS
10
1.0313
20
-2.07569
11
1.03156
21
-2.07437
0
LINE
8
BLACK
6
CONTINUOUS
10
1.03156
20
-2.07437
11
1.03231
21
-2.07325
0
LINE
8
BLACK
6
CONTINUOUS
10
1.03231
20
-2.07325
11
1.03343
21
-2.07251
0
LINE
8
BLACK
6
CONTINUOUS
10
1.03343
20
-2.07251
11
1.03474
21
-2.07224
0
LINE
8
BLACK
6
CONTINUOUS
10
1.03474
20
-2.07224
11
1.04163
21
-2.07224
0
LINE
8
BLACK
6
CONTINUOUS
10
1.04163
20
-2.07224
11
1.04295
21
-2.07251
0
LINE
8
BLACK
6
CONTINUOUS
10
1.07051
20
-2.07251
11
1.07163
21
-2.07325
0
LINE
8
BLACK
6
CONTINUOUS
10
1.07163
20
-2.07325
11
1.07238
21
-2.07437
0
LINE
8
BLACK
6
CONTINUOUS
10
1.07238
20
-2.07437
11
1.07264
21
-2.07569
0
LINE
8
BLACK
6
CONTINUOUS
10
1.07264
20
-2.07569
11
1.07264
21
-2.22628
0
LINE
8
BLACK
6
CONTINUOUS
10
1.07264
20
-2.22628
11
1.07238
21
-2.2276
0
LINE
8
BLACK
6
CONTINUOUS
10
1.07238
20
-2.2276
11
1.07163
21
-2.22872
0
LINE
8
BLACK
6
CONTINUOUS
10
1.07163
20
-2.22872
11
1.07051
21
-2.22946
0
LINE
8
BLACK
6
CONTINUOUS
10
1.07051
20
-2.22946
11
1.06919
21
-2.22972
0
LINE
8
BLACK
6
CONTINUOUS
10
1.06919
20
-2.22972
11
1.0623
21
-2.22972
0
LINE
8
BLACK
6
CONTINUOUS
10
1.0623
20
-2.22972
11
1.06098
21
-2.22946
0
LINE
8
BLACK
6
CONTINUOUS
10
1.06098
20
-2.22946
11
1.05987
21
-2.22872
0
LINE
8
BLACK
6
CONTINUOUS
10
1.05987
20
-2.22872
11
1.05912
21
-2.2276
0
LINE
8
BLACK
6
CONTINUOUS
10
1.05912
20
-2.2276
11
1.05886
21
-2.22628
0
LINE
8
BLACK
6
CONTINUOUS
10
1.05886
20
-2.22628
11
1.05886
21
-2.07569
0
LINE
8
BLACK
6
CONTINUOUS
10
1.05886
20
-2.07569
11
1.05912
21
-2.07437
0
LINE
8
BLACK
6
CONTINUOUS
10
1.05912
20
-2.07437
11
1.05987
21
-2.07325
0
LINE
8
BLACK
6
CONTINUOUS
10
1.05987
20
-2.07325
11
1.06098
21
-2.07251
0
LINE
8
BLACK
6
CONTINUOUS
10
1.06098
20
-2.07251
11
1.0623
21
-2.07224
0
LINE
8
BLACK
6
CONTINUOUS
10
1.0623
20
-2.07224
11
1.06919
21
-2.07224
0
LINE
8
BLACK
6
CONTINUOUS
10
1.06919
20
-2.07224
11
1.07051
21
-2.07251
0
LINE
8
BLACK
6
CONTINUOUS
10
1.09807
20
-2.07251
11
1.09919
21
-2.07325
0
LINE
8
BLACK
6
CONTINUOUS
10
1.09919
20
-2.07325
11
1.09993
21
-2.07437
0
LINE
8
BLACK
6
CONTINUOUS
10
1.09993
20
-2.07437
11
1.1002
21
-2.07569
0
LINE
8
BLACK
6
CONTINUOUS
10
1.1002
20
-2.07569
11
1.1002
21
-2.22628
0
LINE
8
BLACK
6
CONTINUOUS
10
1.1002
20
-2.22628
11
1.09993
21
-2.2276
0
LINE
8
BLACK
6
CONTINUOUS
10
1.09993
20
-2.2276
11
1.09919
21
-2.22872
0
LINE
8
BLACK
6
CONTINUOUS
10
1.09919
20
-2.22872
11
1.09807
21
-2.22946
0
LINE
8
BLACK
6
CONTINUOUS
10
1.09807
20
-2.22946
11
1.09675
21
-2.22972
0
LINE
8
BLACK
6
CONTINUOUS
10
1.09675
20
-2.22972
11
1.08986
21
-2.22972
0
LINE
8
BLACK
6
CONTINUOUS
10
1.08986
20
-2.22972
11
1.08854
21
-2.22946
0
LINE
8
BLACK
6
CONTINUOUS
10
1.08854
20
-2.22946
11
1.08743
21
-2.22872
0
LINE
8
BLACK
6
CONTINUOUS
10
1.08743
20
-2.22872
11
1.08668
21
-2.2276
0
LINE
8
BLACK
6
CONTINUOUS
10
1.08668
20
-2.2276
11
1.08642
21
-2.22628
0
LINE
8
BLACK
6
CONTINUOUS
10
1.08642
20
-2.22628
11
1.08642
21
-2.07569
0
LINE
8
BLACK
6
CONTINUOUS
10
1.08642
20
-2.07569
11
1.08668
21
-2.07437
0
LINE
8
BLACK
6
CONTINUOUS
10
1.08668
20
-2.07437
11
1.08743
21
-2.07325
0
LINE
8
BLACK
6
CONTINUOUS
10
1.08743
20
-2.07325
11
1.08854
21
-2.07251
0
LINE
8
BLACK
6
CONTINUOUS
10
1.08854
20
-2.07251
11
1.08986
21
-2.07224
0
LINE
8
BLACK
6
CONTINUOUS
10
1.08986
20
-2.07224
11
1.09675
21
-2.07224
0
LINE
8
BLACK
6
CONTINUOUS
10
1.09675
20
-2.07224
11
1.09807
21
-2.07251
0
LINE
8
BLACK
6
CONTINUOUS
10
1.12563
20
-2.07251
11
1.12675
21
-2.07325
0
LINE
8
BLACK
6
CONTINUOUS
10
1.12675
20
-2.07325
11
1.12749
21
-2.07437
0
LINE
8
BLACK
6
CONTINUOUS
10
1.12749
20
-2.07437
11
1.12776
21
-2.07569
0
LINE
8
BLACK
6
CONTINUOUS
10
1.12776
20
-2.07569
11
1.12776
21
-2.22628
0
LINE
8
BLACK
6
CONTINUOUS
10
1.12776
20
-2.22628
11
1.12749
21
-2.2276
0
LINE
8
BLACK
6
CONTINUOUS
10
1.12749
20
-2.2276
11
1.12675
21
-2.22872
0
LINE
8
BLACK
6
CONTINUOUS
10
1.12675
20
-2.22872
11
1.12563
21
-2.22946
0
LINE
8
BLACK
6
CONTINUOUS
10
1.12563
20
-2.22946
11
1.12431
21
-2.22972
0
LINE
8
BLACK
6
CONTINUOUS
10
1.12431
20
-2.22972
11
1.11742
21
-2.22972
0
LINE
8
BLACK
6
CONTINUOUS
10
1.11742
20
-2.22972
11
1.1161
21
-2.22946
0
LINE
8
BLACK
6
CONTINUOUS
10
1.1161
20
-2.22946
11
1.11499
21
-2.22872
0
LINE
8
BLACK
6
CONTINUOUS
10
1.11499
20
-2.22872
11
1.11424
21
-2.2276
0
LINE
8
BLACK
6
CONTINUOUS
10
1.11424
20
-2.2276
11
1.11398
21
-2.22628
0
LINE
8
BLACK
6
CONTINUOUS
10
1.11398
20
-2.22628
11
1.11398
21
-2.07569
0
LINE
8
BLACK
6
CONTINUOUS
10
1.11398
20
-2.07569
11
1.11424
21
-2.07437
0
LINE
8
BLACK
6
CONTINUOUS
10
1.11424
20
-2.07437
11
1.11499
21
-2.07325
0
LINE
8
BLACK
6
CONTINUOUS
10
1.11499
20
-2.07325
11
1.1161
21
-2.07251
0
LINE
8
BLACK
6
CONTINUOUS
10
1.1161
20
-2.07251
11
1.11742
21
-2.07224
0
LINE
8
BLACK
6
CONTINUOUS
10
1.11742
20
-2.07224
11
1.12431
21
-2.07224
0
LINE
8
BLACK
6
CONTINUOUS
10
1.12431
20
-2.07224
11
1.12563
21
-2.07251
0
LINE
8
BLACK
6
CONTINUOUS
10
1.15319
20
-2.07251
11
1.15431
21
-2.07325
0
LINE
8
BLACK
6
CONTINUOUS
10
1.15431
20
-2.07325
11
1.15505
21
-2.07437
0
LINE
8
BLACK
6
CONTINUOUS
10
1.15505
20
-2.07437
11
1.15531
21
-2.07569
0
LINE
8
BLACK
6
CONTINUOUS
10
1.15531
20
-2.07569
11
1.15531
21
-2.22628
0
LINE
8
BLACK
6
CONTINUOUS
10
1.15531
20
-2.22628
11
1.15505
21
-2.2276
0
LINE
8
BLACK
6
CONTINUOUS
10
1.15505
20
-2.2276
11
1.15431
21
-2.22872
0
LINE
8
BLACK
6
CONTINUOUS
10
1.15431
20
-2.22872
11
1.15319
21
-2.22946
0
LINE
8
BLACK
6
CONTINUOUS
10
1.15319
20
-2.22946
11
1.15187
21
-2.22972
0
LINE
8
BLACK
6
CONTINUOUS
10
1.15187
20
-2.22972
11
1.14498
21
-2.22972
0
LINE
8
BLACK
6
CONTINUOUS
10
1.14498
20
-2.22972
11
1.14366
21
-2.22946
0
LINE
8
BLACK
6
CONTINUOUS
10
1.14366
20
-2.22946
11
1.14254
21
-2.22872
0
LINE
8
BLACK
6
CONTINUOUS
10
1.14254
20
-2.22872
11
1.1418
21
-2.2276
0
LINE
8
BLACK
6
CONTINUOUS
10
1.1418
20
-2.2276
11
1.14154
21
-2.22628
0
LINE
8
BLACK
6
CONTINUOUS
10
1.14154
20
-2.22628
11
1.14154
21
-2.07569
0
LINE
8
BLACK
6
CONTINUOUS
10
1.14154
20
-2.07569
11
1.1418
21
-2.07437
0
LINE
8
BLACK
6
CONTINUOUS
10
1.1418
20
-2.07437
11
1.14254
21
-2.07325
0
LINE
8
BLACK
6
CONTINUOUS
10
1.14254
20
-2.07325
11
1.14366
21
-2.07251
0
LINE
8
BLACK
6
CONTINUOUS
10
1.14366
20
-2.07251
11
1.14498
21
-2.07224
0
LINE
8
BLACK
6
CONTINUOUS
10
1.14498
20
-2.07224
11
1.15187
21
-2.07224
0
LINE
8
BLACK
6
CONTINUOUS
10
1.15187
20
-2.07224
11
1.15319
21
-2.07251
0
LINE
8
BLACK
6
CONTINUOUS
10
1.18075
20
-2.07251
11
1.18187
21
-2.07325
0
LINE
8
BLACK
6
CONTINUOUS
10
1.18187
20
-2.07325
11
1.18261
21
-2.07437
0
LINE
8
BLACK
6
CONTINUOUS
10
1.18261
20
-2.07437
11
1.18287
21
-2.07569
0
LINE
8
BLACK
6
CONTINUOUS
10
1.18287
20
-2.07569
11
1.18287
21
-2.22628
0
LINE
8
BLACK
6
CONTINUOUS
10
1.18287
20
-2.22628
11
1.18261
21
-2.2276
0
LINE
8
BLACK
6
CONTINUOUS
10
1.18261
20
-2.2276
11
1.18187
21
-2.22872
0
LINE
8
BLACK
6
CONTINUOUS
10
1.18187
20
-2.22872
11
1.18075
21
-2.22946
0
LINE
8
BLACK
6
CONTINUOUS
10
1.18075
20
-2.22946
11
1.17943
21
-2.22972
0
LINE
8
BLACK
6
CONTINUOUS
10
1.17943
20
-2.22972
11
1.17254
21
-2.22972
0
LINE
8
BLACK
6
CONTINUOUS
10
1.17254
20
-2.22972
11
1.17122
21
-2.22946
0
LINE
8
BLACK
6
CONTINUOUS
10
1.17122
20
-2.22946
11
1.1701
21
-2.22872
0
LINE
8
BLACK
6
CONTINUOUS
10
1.1701
20
-2.22872
11
1.16936
21
-2.2276
0
LINE
8
BLACK
6
CONTINUOUS
10
1.16936
20
-2.2276
11
1.16909
21
-2.22628
0
LINE
8
BLACK
6
CONTINUOUS
10
1.16909
20
-2.22628
11
1.16909
21
-2.07569
0
LINE
8
BLACK
6
CONTINUOUS
10
1.16909
20
-2.07569
11
1.16936
21
-2.07437
0
LINE
8
BLACK
6
CONTINUOUS
10
1.16936
20
-2.07437
11
1.1701
21
-2.07325
0
LINE
8
BLACK
6
CONTINUOUS
10
1.1701
20
-2.07325
11
1.17122
21
-2.07251
0
LINE
8
BLACK
6
CONTINUOUS
10
1.17122
20
-2.07251
11
1.17254
21
-2.07224
0
LINE
8
BLACK
6
CONTINUOUS
10
1.17254
20
-2.07224
11
1.17943
21
-2.07224
0
LINE
8
BLACK
6
CONTINUOUS
10
1.17943
20
-2.07224
11
1.18075
21
-2.07251
0
LINE
8
BLACK
6
CONTINUOUS
10
1.20831
20
-2.07251
11
1.20942
21
-2.07325
0
LINE
8
BLACK
6
CONTINUOUS
10
1.20942
20
-2.07325
11
1.21017
21
-2.07437
0
LINE
8
BLACK
6
CONTINUOUS
10
1.21017
20
-2.07437
11
1.21043
21
-2.07569
0
LINE
8
BLACK
6
CONTINUOUS
10
1.21043
20
-2.07569
11
1.21043
21
-2.22628
0
LINE
8
BLACK
6
CONTINUOUS
10
1.21043
20
-2.22628
11
1.21017
21
-2.2276
0
LINE
8
BLACK
6
CONTINUOUS
10
1.21017
20
-2.2276
11
1.20942
21
-2.22872
0
LINE
8
BLACK
6
CONTINUOUS
10
1.20942
20
-2.22872
11
1.20831
21
-2.22946
0
LINE
8
BLACK
6
CONTINUOUS
10
1.20831
20
-2.22946
11
1.20699
21
-2.22972
0
LINE
8
BLACK
6
CONTINUOUS
10
1.20699
20
-2.22972
11
1.2001
21
-2.22972
0
LINE
8
BLACK
6
CONTINUOUS
10
1.2001
20
-2.22972
11
1.19878
21
-2.22946
0
LINE
8
BLACK
6
CONTINUOUS
10
1.19878
20
-2.22946
11
1.19766
21
-2.22872
0
LINE
8
BLACK
6
CONTINUOUS
10
1.19766
20
-2.22872
11
1.19692
21
-2.2276
0
LINE
8
BLACK
6
CONTINUOUS
10
1.19692
20
-2.2276
11
1.19665
21
-2.22628
0
LINE
8
BLACK
6
CONTINUOUS
10
1.19665
20
-2.22628
11
1.19665
21
-2.07569
0
LINE
8
BLACK
6
CONTINUOUS
10
1.19665
20
-2.07569
11
1.19692
21
-2.07437
0
LINE
8
BLACK
6
CONTINUOUS
10
1.19692
20
-2.07437
11
1.19766
21
-2.07325
0
LINE
8
BLACK
6
CONTINUOUS
10
1.19766
20
-2.07325
11
1.19878
21
-2.07251
0
LINE
8
BLACK
6
CONTINUOUS
10
1.19878
20
-2.07251
11
1.2001
21
-2.07224
0
LINE
8
BLACK
6
CONTINUOUS
10
1.2001
20
-2.07224
11
1.20699
21
-2.07224
0
LINE
8
BLACK
6
CONTINUOUS
10
1.20699
20
-2.07224
11
1.20831
21
-2.07251
0
LINE
8
BLACK
6
CONTINUOUS
10
1.23587
20
-2.07251
11
1.23698
21
-2.07325
0
LINE
8
BLACK
6
CONTINUOUS
10
1.23698
20
-2.07325
11
1.23773
21
-2.07437
0
LINE
8
BLACK
6
CONTINUOUS
10
1.23773
20
-2.07437
11
1.23799
21
-2.07569
0
LINE
8
BLACK
6
CONTINUOUS
10
1.23799
20
-2.07569
11
1.23799
21
-2.22628
0
LINE
8
BLACK
6
CONTINUOUS
10
1.23799
20
-2.22628
11
1.23773
21
-2.2276
0
LINE
8
BLACK
6
CONTINUOUS
10
1.23773
20
-2.2276
11
1.23698
21
-2.22872
0
LINE
8
BLACK
6
CONTINUOUS
10
1.23698
20
-2.22872
11
1.23587
21
-2.22946
0
LINE
8
BLACK
6
CONTINUOUS
10
1.23587
20
-2.22946
11
1.23455
21
-2.22972
0
LINE
8
BLACK
6
CONTINUOUS
10
1.23455
20
-2.22972
11
1.22766
21
-2.22972
0
LINE
8
BLACK
6
CONTINUOUS
10
1.22766
20
-2.22972
11
1.22634
21
-2.22946
0
LINE
8
BLACK
6
CONTINUOUS
10
1.22634
20
-2.22946
11
1.22522
21
-2.22872
0
LINE
8
BLACK
6
CONTINUOUS
10
1.22522
20
-2.22872
11
1.22447
21
-2.2276
0
LINE
8
BLACK
6
CONTINUOUS
10
1.22447
20
-2.2276
11
1.22421
21
-2.22628
0
LINE
8
BLACK
6
CONTINUOUS
10
1.22421
20
-2.22628
11
1.22421
21
-2.07569
0
LINE
8
BLACK
6
CONTINUOUS
10
1.22421
20
-2.07569
11
1.22447
21
-2.07437
0
LINE
8
BLACK
6
CONTINUOUS
10
1.22447
20
-2.07437
11
1.22522
21
-2.07325
0
LINE
8
BLACK
6
CONTINUOUS
10
1.22522
20
-2.07325
11
1.22634
21
-2.07251
0
LINE
8
BLACK
6
CONTINUOUS
10
1.22634
20
-2.07251
11
1.22766
21
-2.07224
0
LINE
8
BLACK
6
CONTINUOUS
10
1.22766
20
-2.07224
11
1.23455
21
-2.07224
0
LINE
8
BLACK
6
CONTINUOUS
10
1.23455
20
-2.07224
11
1.23587
21
-2.07251
0
LINE
8
BLACK
6
CONTINUOUS
10
1.26342
20
-2.07251
11
1.26454
21
-2.07325
0
LINE
8
BLACK
6
CONTINUOUS
10
1.26454
20
-2.07325
11
1.26529
21
-2.07437
0
LINE
8
BLACK
6
CONTINUOUS
10
1.26529
20
-2.07437
11
1.26555
21
-2.07569
0
LINE
8
BLACK
6
CONTINUOUS
10
1.26555
20
-2.07569
11
1.26555
21
-2.22628
0
LINE
8
BLACK
6
CONTINUOUS
10
1.26555
20
-2.22628
11
1.26529
21
-2.2276
0
LINE
8
BLACK
6
CONTINUOUS
10
1.26529
20
-2.2276
11
1.26454
21
-2.22872
0
LINE
8
BLACK
6
CONTINUOUS
10
1.26454
20
-2.22872
11
1.26342
21
-2.22946
0
LINE
8
BLACK
6
CONTINUOUS
10
1.26342
20
-2.22946
11
1.26211
21
-2.22972
0
LINE
8
BLACK
6
CONTINUOUS
10
1.26211
20
-2.22972
11
1.25522
21
-2.22972
0
LINE
8
BLACK
6
CONTINUOUS
10
1.25522
20
-2.22972
11
1.2539
21
-2.22946
0
LINE
8
BLACK
6
CONTINUOUS
10
1.2539
20
-2.22946
11
1.25278
21
-2.22872
0
LINE
8
BLACK
6
CONTINUOUS
10
1.25278
20
-2.22872
11
1.25203
21
-2.2276
0
LINE
8
BLACK
6
CONTINUOUS
10
1.25203
20
-2.2276
11
1.25177
21
-2.22628
0
LINE
8
BLACK
6
CONTINUOUS
10
1.25177
20
-2.22628
11
1.25177
21
-2.07569
0
LINE
8
BLACK
6
CONTINUOUS
10
1.25177
20
-2.07569
11
1.25203
21
-2.07437
0
LINE
8
BLACK
6
CONTINUOUS
10
1.25203
20
-2.07437
11
1.25278
21
-2.07325
0
LINE
8
BLACK
6
CONTINUOUS
10
1.25278
20
-2.07325
11
1.2539
21
-2.07251
0
LINE
8
BLACK
6
CONTINUOUS
10
1.2539
20
-2.07251
11
1.25522
21
-2.07224
0
LINE
8
BLACK
6
CONTINUOUS
10
1.25522
20
-2.07224
11
1.26211
21
-2.07224
0
LINE
8
BLACK
6
CONTINUOUS
10
1.26211
20
-2.07224
11
1.26342
21
-2.07251
0
LINE
8
BLACK
6
CONTINUOUS
10
1.29098
20
-2.07251
11
1.2921
21
-2.07325
0
LINE
8
BLACK
6
CONTINUOUS
10
1.2921
20
-2.07325
11
1.29285
21
-2.07437
0
LINE
8
BLACK
6
CONTINUOUS
10
1.29285
20
-2.07437
11
1.29311
21
-2.07569
0
LINE
8
BLACK
6
CONTINUOUS
10
1.29311
20
-2.07569
11
1.29311
21
-2.22628
0
LINE
8
BLACK
6
CONTINUOUS
10
1.29311
20
-2.22628
11
1.29285
21
-2.2276
0
LINE
8
BLACK
6
CONTINUOUS
10
1.29285
20
-2.2276
11
1.2921
21
-2.22872
0
LINE
8
BLACK
6
CONTINUOUS
10
1.2921
20
-2.22872
11
1.29098
21
-2.22946
0
LINE
8
BLACK
6
CONTINUOUS
10
1.29098
20
-2.22946
11
1.28967
21
-2.22972
0
LINE
8
BLACK
6
CONTINUOUS
10
1.28967
20
-2.22972
11
1.28278
21
-2.22972
0
LINE
8
BLACK
6
CONTINUOUS
10
1.28278
20
-2.22972
11
1.28146
21
-2.22946
0
LINE
8
BLACK
6
CONTINUOUS
10
1.28146
20
-2.22946
11
1.28034
21
-2.22872
0
LINE
8
BLACK
6
CONTINUOUS
10
1.28034
20
-2.22872
11
1.27959
21
-2.2276
0
LINE
8
BLACK
6
CONTINUOUS
10
1.27959
20
-2.2276
11
1.27933
21
-2.22628
0
LINE
8
BLACK
6
CONTINUOUS
10
1.27933
20
-2.22628
11
1.27933
21
-2.07569
0
LINE
8
BLACK
6
CONTINUOUS
10
1.27933
20
-2.07569
11
1.27959
21
-2.07437
0
LINE
8
BLACK
6
CONTINUOUS
10
1.27959
20
-2.07437
11
1.28034
21
-2.07325
0
LINE
8
BLACK
6
CONTINUOUS
10
1.28034
20
-2.07325
11
1.28146
21
-2.07251
0
LINE
8
BLACK
6
CONTINUOUS
10
1.28146
20
-2.07251
11
1.28278
21
-2.07224
0
LINE
8
BLACK
6
CONTINUOUS
10
1.28278
20
-2.07224
11
1.28967
21
-2.07224
0
LINE
8
BLACK
6
CONTINUOUS
10
1.28967
20
-2.07224
11
1.29098
21
-2.07251
0
LINE
8
BLACK
6
CONTINUOUS
10
1.31854
20
-2.07251
11
1.31966
21
-2.07325
0
LINE
8
BLACK
6
CONTINUOUS
10
1.31966
20
-2.07325
11
1.32041
21
-2.07437
0
LINE
8
BLACK
6
CONTINUOUS
10
1.32041
20
-2.07437
11
1.32067
21
-2.07569
0
LINE
8
BLACK
6
CONTINUOUS
10
1.32067
20
-2.07569
11
1.32067
21
-2.22628
0
LINE
8
BLACK
6
CONTINUOUS
10
1.32067
20
-2.22628
11
1.32041
21
-2.2276
0
LINE
8
BLACK
6
CONTINUOUS
10
1.32041
20
-2.2276
11
1.31966
21
-2.22872
0
LINE
8
BLACK
6
CONTINUOUS
10
1.31966
20
-2.22872
11
1.31854
21
-2.22946
0
LINE
8
BLACK
6
CONTINUOUS
10
1.31854
20
-2.22946
11
1.31722
21
-2.22972
0
LINE
8
BLACK
6
CONTINUOUS
10
1.31722
20
-2.22972
11
1.31033
21
-2.22972
0
LINE
8
BLACK
6
CONTINUOUS
10
1.31033
20
-2.22972
11
1.30902
21
-2.22946
0
LINE
8
BLACK
6
CONTINUOUS
10
1.30902
20
-2.22946
11
1.3079
21
-2.22872
0
LINE
8
BLACK
6
CONTINUOUS
10
1.3079
20
-2.22872
11
1.30715
21
-2.2276
0
LINE
8
BLACK
6
CONTINUOUS
10
1.30715
20
-2.2276
11
1.30689
21
-2.22628
0
LINE
8
BLACK
6
CONTINUOUS
10
1.30689
20
-2.22628
11
1.30689
21
-2.07569
0
LINE
8
BLACK
6
CONTINUOUS
10
1.30689
20
-2.07569
11
1.30715
21
-2.07437
0
LINE
8
BLACK
6
CONTINUOUS
10
1.30715
20
-2.07437
11
1.3079
21
-2.07325
0
LINE
8
BLACK
6
CONTINUOUS
10
1.3079
20
-2.07325
11
1.30902
21
-2.07251
0
LINE
8
BLACK
6
CONTINUOUS
10
1.30902
20
-2.07251
11
1.31033
21
-2.07224
0
LINE
8
BLACK
6
CONTINUOUS
10
1.31033
20
-2.07224
11
1.31722
21
-2.07224
0
LINE
8
BLACK
6
CONTINUOUS
10
1.31722
20
-2.07224
11
1.31854
21
-2.07251
0
LINE
8
BLACK
6
CONTINUOUS
10
1.3461
20
-2.07251
11
1.34722
21
-2.07325
0
LINE
8
BLACK
6
CONTINUOUS
10
1.34722
20
-2.07325
11
1.34797
21
-2.07437
0
LINE
8
BLACK
6
CONTINUOUS
10
1.34797
20
-2.07437
11
1.34823
21
-2.07569
0
LINE
8
BLACK
6
CONTINUOUS
10
1.34823
20
-2.07569
11
1.34823
21
-2.22628
0
LINE
8
BLACK
6
CONTINUOUS
10
1.34823
20
-2.22628
11
1.34797
21
-2.2276
0
LINE
8
BLACK
6
CONTINUOUS
10
1.34797
20
-2.2276
11
1.34722
21
-2.22872
0
LINE
8
BLACK
6
CONTINUOUS
10
1.34722
20
-2.22872
11
1.3461
21
-2.22946
0
LINE
8
BLACK
6
CONTINUOUS
10
1.3461
20
-2.22946
11
1.34478
21
-2.22972
0
LINE
8
BLACK
6
CONTINUOUS
10
1.34478
20
-2.22972
11
1.33789
21
-2.22972
0
LINE
8
BLACK
6
CONTINUOUS
10
1.33789
20
-2.22972
11
1.33658
21
-2.22946
0
LINE
8
BLACK
6
CONTINUOUS
10
1.33658
20
-2.22946
11
1.33546
21
-2.22872
0
LINE
8
BLACK
6
CONTINUOUS
10
1.33546
20
-2.22872
11
1.33471
21
-2.2276
0
LINE
8
BLACK
6
CONTINUOUS
10
1.33471
20
-2.2276
11
1.33445
21
-2.22628
0
LINE
8
BLACK
6
CONTINUOUS
10
1.33445
20
-2.22628
11
1.33445
21
-2.07569
0
LINE
8
BLACK
6
CONTINUOUS
10
1.33445
20
-2.07569
11
1.33471
21
-2.07437
0
LINE
8
BLACK
6
CONTINUOUS
10
1.33471
20
-2.07437
11
1.33546
21
-2.07325
0
LINE
8
BLACK
6
CONTINUOUS
10
1.33546
20
-2.07325
11
1.33658
21
-2.07251
0
LINE
8
BLACK
6
CONTINUOUS
10
1.33658
20
-2.07251
11
1.33789
21
-2.07224
0
LINE
8
BLACK
6
CONTINUOUS
10
1.33789
20
-2.07224
11
1.34478
21
-2.07224
0
LINE
8
BLACK
6
CONTINUOUS
10
1.34478
20
-2.07224
11
1.3461
21
-2.07251
0
LINE
8
BLACK
6
CONTINUOUS
10
1.37366
20
-2.07251
11
1.37478
21
-2.07325
0
LINE
8
BLACK
6
CONTINUOUS
10
1.37478
20
-2.07325
11
1.37553
21
-2.07437
0
LINE
8
BLACK
6
CONTINUOUS
10
1.37553
20
-2.07437
11
1.37579
21
-2.07569
0
LINE
8
BLACK
6
CONTINUOUS
10
1.37579
20
-2.07569
11
1.37579
21
-2.22628
0
LINE
8
BLACK
6
CONTINUOUS
10
1.37579
20
-2.22628
11
1.37553
21
-2.2276
0
LINE
8
BLACK
6
CONTINUOUS
10
1.37553
20
-2.2276
11
1.37478
21
-2.22872
0
LINE
8
BLACK
6
CONTINUOUS
10
1.37478
20
-2.22872
11
1.37366
21
-2.22946
0
LINE
8
BLACK
6
CONTINUOUS
10
1.37366
20
-2.22946
11
1.37234
21
-2.22972
0
LINE
8
BLACK
6
CONTINUOUS
10
1.37234
20
-2.22972
11
1.36545
21
-2.22972
0
LINE
8
BLACK
6
CONTINUOUS
10
1.36545
20
-2.22972
11
1.36413
21
-2.22946
0
LINE
8
BLACK
6
CONTINUOUS
10
1.36413
20
-2.22946
11
1.36302
21
-2.22872
0
LINE
8
BLACK
6
CONTINUOUS
10
1.36302
20
-2.22872
11
1.36227
21
-2.2276
0
LINE
8
BLACK
6
CONTINUOUS
10
1.36227
20
-2.2276
11
1.36201
21
-2.22628
0
LINE
8
BLACK
6
CONTINUOUS
10
1.36201
20
-2.22628
11
1.36201
21
-2.07569
0
LINE
8
BLACK
6
CONTINUOUS
10
1.36201
20
-2.07569
11
1.36227
21
-2.07437
0
LINE
8
BLACK
6
CONTINUOUS
10
1.36227
20
-2.07437
11
1.36302
21
-2.07325
0
LINE
8
BLACK
6
CONTINUOUS
10
1.36302
20
-2.07325
11
1.36413
21
-2.07251
0
LINE
8
BLACK
6
CONTINUOUS
10
1.36413
20
-2.07251
11
1.36545
21
-2.07224
0
LINE
8
BLACK
6
CONTINUOUS
10
1.36545
20
-2.07224
11
1.37234
21
-2.07224
0
LINE
8
BLACK
6
CONTINUOUS
10
1.37234
20
-2.07224
11
1.37366
21
-2.07251
0
LINE
8
BLACK
6
CONTINUOUS
10
1.40122
20
-2.07251
11
1.40234
21
-2.07325
0
LINE
8
BLACK
6
CONTINUOUS
10
1.40234
20
-2.07325
11
1.40308
21
-2.07437
0
LINE
8
BLACK
6
CONTINUOUS
10
1.40308
20
-2.07437
11
1.40335
21
-2.07569
0
LINE
8
BLACK
6
CONTINUOUS
10
1.40335
20
-2.07569
11
1.40335
21
-2.22628
0
LINE
8
BLACK
6
CONTINUOUS
10
1.40335
20
-2.22628
11
1.40308
21
-2.2276
0
LINE
8
BLACK
6
CONTINUOUS
10
1.40308
20
-2.2276
11
1.40234
21
-2.22872
0
LINE
8
BLACK
6
CONTINUOUS
10
1.40234
20
-2.22872
11
1.40122
21
-2.22946
0
LINE
8
BLACK
6
CONTINUOUS
10
1.40122
20
-2.22946
11
1.3999
21
-2.22972
0
LINE
8
BLACK
6
CONTINUOUS
10
1.3999
20
-2.22972
11
1.39301
21
-2.22972
0
LINE
8
BLACK
6
CONTINUOUS
10
1.39301
20
-2.22972
11
1.39169
21
-2.22946
0
LINE
8
BLACK
6
CONTINUOUS
10
1.39169
20
-2.22946
11
1.39058
21
-2.22872
0
LINE
8
BLACK
6
CONTINUOUS
10
1.39058
20
-2.22872
11
1.38983
21
-2.2276
0
LINE
8
BLACK
6
CONTINUOUS
10
1.38983
20
-2.2276
11
1.38957
21
-2.22628
0
LINE
8
BLACK
6
CONTINUOUS
10
1.38957
20
-2.22628
11
1.38957
21
-2.07569
0
LINE
8
BLACK
6
CONTINUOUS
10
1.38957
20
-2.07569
11
1.38983
21
-2.07437
0
LINE
8
BLACK
6
CONTINUOUS
10
1.38983
20
-2.07437
11
1.39058
21
-2.07325
0
LINE
8
BLACK
6
CONTINUOUS
10
1.39058
20
-2.07325
11
1.39169
21
-2.07251
0
LINE
8
BLACK
6
CONTINUOUS
10
1.39169
20
-2.07251
11
1.39301
21
-2.07224
0
LINE
8
BLACK
6
CONTINUOUS
10
1.39301
20
-2.07224
11
1.3999
21
-2.07224
0
LINE
8
BLACK
6
CONTINUOUS
10
1.3999
20
-2.07224
11
1.40122
21
-2.07251
0
LINE
8
BLACK
6
CONTINUOUS
10
1.42878
20
-2.07251
11
1.4299
21
-2.07325
0
LINE
8
BLACK
6
CONTINUOUS
10
1.4299
20
-2.07325
11
1.43064
21
-2.07437
0
LINE
8
BLACK
6
CONTINUOUS
10
1.43064
20
-2.07437
11
1.43091
21
-2.07569
0
LINE
8
BLACK
6
CONTINUOUS
10
1.43091
20
-2.07569
11
1.43091
21
-2.22628
0
LINE
8
BLACK
6
CONTINUOUS
10
1.43091
20
-2.22628
11
1.43064
21
-2.2276
0
LINE
8
BLACK
6
CONTINUOUS
10
1.43064
20
-2.2276
11
1.4299
21
-2.22872
0
LINE
8
BLACK
6
CONTINUOUS
10
1.4299
20
-2.22872
11
1.42878
21
-2.22946
0
LINE
8
BLACK
6
CONTINUOUS
10
1.42878
20
-2.22946
11
1.42746
21
-2.22972
0
LINE
8
BLACK
6
CONTINUOUS
10
1.42746
20
-2.22972
11
1.42057
21
-2.22972
0
LINE
8
BLACK
6
CONTINUOUS
10
1.42057
20
-2.22972
11
1.41925
21
-2.22946
0
LINE
8
BLACK
6
CONTINUOUS
10
1.41925
20
-2.22946
11
1.41813
21
-2.22872
0
LINE
8
BLACK
6
CONTINUOUS
10
1.41813
20
-2.22872
11
1.41739
21
-2.2276
0
LINE
8
BLACK
6
CONTINUOUS
10
1.41739
20
-2.2276
11
1.41713
21
-2.22628
0
LINE
8
BLACK
6
CONTINUOUS
10
1.41713
20
-2.22628
11
1.41713
21
-2.07569
0
LINE
8
BLACK
6
CONTINUOUS
10
1.41713
20
-2.07569
11
1.41739
21
-2.07437
0
LINE
8
BLACK
6
CONTINUOUS
10
1.41739
20
-2.07437
11
1.41813
21
-2.07325
0
LINE
8
BLACK
6
CONTINUOUS
10
1.41813
20
-2.07325
11
1.41925
21
-2.07251
0
LINE
8
BLACK
6
CONTINUOUS
10
1.41925
20
-2.07251
11
1.42057
21
-2.07224
0
LINE
8
BLACK
6
CONTINUOUS
10
1.42057
20
-2.07224
11
1.42746
21
-2.07224
0
LINE
8
BLACK
6
CONTINUOUS
10
1.42746
20
-2.07224
11
1.42878
21
-2.07251
0
LINE
8
BLACK
6
CONTINUOUS
10
1.45634
20
-2.07251
11
1.45746
21
-2.07325
0
LINE
8
BLACK
6
CONTINUOUS
10
1.45746
20
-2.07325
11
1.4582
21
-2.07437
0
LINE
8
BLACK
6
CONTINUOUS
10
1.4582
20
-2.07437
11
1.45846
21
-2.07569
0
LINE
8
BLACK
6
CONTINUOUS
10
1.45846
20
-2.07569
11
1.45846
21
-2.22628
0
LINE
8
BLACK
6
CONTINUOUS
10
1.45846
20
-2.22628
11
1.4582
21
-2.2276
0
LINE
8
BLACK
6
CONTINUOUS
10
1.4582
20
-2.2276
11
1.45746
21
-2.22872
0
LINE
8
BLACK
6
CONTINUOUS
10
1.45746
20
-2.22872
11
1.45634
21
-2.22946
0
LINE
8
BLACK
6
CONTINUOUS
10
1.45634
20
-2.22946
11
1.45502
21
-2.22972
0
LINE
8
BLACK
6
CONTINUOUS
10
1.45502
20
-2.22972
11
1.44813
21
-2.22972
0
LINE
8
BLACK
6
CONTINUOUS
10
1.44813
20
-2.22972
11
1.44681
21
-2.22946
0
LINE
8
BLACK
6
CONTINUOUS
10
1.44681
20
-2.22946
11
1.44569
21
-2.22872
0
LINE
8
BLACK
6
CONTINUOUS
10
1.44569
20
-2.22872
11
1.44495
21
-2.2276
0
LINE
8
BLACK
6
CONTINUOUS
10
1.44495
20
-2.2276
11
1.44469
21
-2.22628
0
LINE
8
BLACK
6
CONTINUOUS
10
1.44469
20
-2.22628
11
1.44469
21
-2.07569
0
LINE
8
BLACK
6
CONTINUOUS
10
1.44469
20
-2.07569
11
1.44495
21
-2.07437
0
LINE
8
BLACK
6
CONTINUOUS
10
1.44495
20
-2.07437
11
1.44569
21
-2.07325
0
LINE
8
BLACK
6
CONTINUOUS
10
1.44569
20
-2.07325
11
1.44681
21
-2.07251
0
LINE
8
BLACK
6
CONTINUOUS
10
1.44681
20
-2.07251
11
1.44813
21
-2.07224
0
LINE
8
BLACK
6
CONTINUOUS
10
1.44813
20
-2.07224
11
1.45502
21
-2.07224
0
LINE
8
BLACK
6
CONTINUOUS
10
1.45502
20
-2.07224
11
1.45634
21
-2.07251
0
LINE
8
BLACK
6
CONTINUOUS
10
1.4839
20
-2.07251
11
1.48501
21
-2.07325
0
LINE
8
BLACK
6
CONTINUOUS
10
1.48501
20
-2.07325
11
1.48576
21
-2.07437
0
LINE
8
BLACK
6
CONTINUOUS
10
1.48576
20
-2.07437
11
1.48602
21
-2.07569
0
LINE
8
BLACK
6
CONTINUOUS
10
1.48602
20
-2.07569
11
1.48602
21
-2.22628
0
LINE
8
BLACK
6
CONTINUOUS
10
1.48602
20
-2.22628
11
1.48576
21
-2.2276
0
LINE
8
BLACK
6
CONTINUOUS
10
1.48576
20
-2.2276
11
1.48501
21
-2.22872
0
LINE
8
BLACK
6
CONTINUOUS
10
1.48501
20
-2.22872
11
1.4839
21
-2.22946
0
LINE
8
BLACK
6
CONTINUOUS
10
1.4839
20
-2.22946
11
1.48258
21
-2.22972
0
LINE
8
BLACK
6
CONTINUOUS
10
1.48258
20
-2.22972
11
1.47569
21
-2.22972
0
LINE
8
BLACK
6
CONTINUOUS
10
1.47569
20
-2.22972
11
1.47437
21
-2.22946
0
LINE
8
BLACK
6
CONTINUOUS
10
1.47437
20
-2.22946
11
1.47325
21
-2.22872
0
LINE
8
BLACK
6
CONTINUOUS
10
1.47325
20
-2.22872
11
1.47251
21
-2.2276
0
LINE
8
BLACK
6
CONTINUOUS
10
1.47251
20
-2.2276
11
1.47224
21
-2.22628
0
LINE
8
BLACK
6
CONTINUOUS
10
1.47224
20
-2.22628
11
1.47224
21
-2.07569
0
LINE
8
BLACK
6
CONTINUOUS
10
1.47224
20
-2.07569
11
1.47251
21
-2.07437
0
LINE
8
BLACK
6
CONTINUOUS
10
1.47251
20
-2.07437
11
1.47325
21
-2.07325
0
LINE
8
BLACK
6
CONTINUOUS
10
1.47325
20
-2.07325
11
1.47437
21
-2.07251
0
LINE
8
BLACK
6
CONTINUOUS
10
1.47437
20
-2.07251
11
1.47569
21
-2.07224
0
LINE
8
BLACK
6
CONTINUOUS
10
1.47569
20
-2.07224
11
1.48258
21
-2.07224
0
LINE
8
BLACK
6
CONTINUOUS
10
1.48258
20
-2.07224
11
1.4839
21
-2.07251
0
LINE
8
BLACK
6
CONTINUOUS
10
1.51146
20
-2.07251
11
1.51257
21
-2.07325
0
LINE
8
BLACK
6
CONTINUOUS
10
1.51257
20
-2.07325
11
1.51332
21
-2.07437
0
LINE
8
BLACK
6
CONTINUOUS
10
1.51332
20
-2.07437
11
1.51358
21
-2.07569
0
LINE
8
BLACK
6
CONTINUOUS
10
1.51358
20
-2.07569
11
1.51358
21
-2.22628
0
LINE
8
BLACK
6
CONTINUOUS
10
1.51358
20
-2.22628
11
1.51332
21
-2.2276
0
LINE
8
BLACK
6
CONTINUOUS
10
1.51332
20
-2.2276
11
1.51257
21
-2.22872
0
LINE
8
BLACK
6
CONTINUOUS
10
1.51257
20
-2.22872
11
1.51146
21
-2.22946
0
LINE
8
BLACK
6
CONTINUOUS
10
1.51146
20
-2.22946
11
1.51014
21
-2.22972
0
LINE
8
BLACK
6
CONTINUOUS
10
1.51014
20
-2.22972
11
1.50325
21
-2.22972
0
LINE
8
BLACK
6
CONTINUOUS
10
1.50325
20
-2.22972
11
1.50193
21
-2.22946
0
LINE
8
BLACK
6
CONTINUOUS
10
1.50193
20
-2.22946
11
1.50081
21
-2.22872
0
LINE
8
BLACK
6
CONTINUOUS
10
1.50081
20
-2.22872
11
1.50007
21
-2.2276
0
LINE
8
BLACK
6
CONTINUOUS
10
1.50007
20
-2.2276
11
1.4998
21
-2.22628
0
LINE
8
BLACK
6
CONTINUOUS
10
1.4998
20
-2.22628
11
1.4998
21
-2.07569
0
LINE
8
BLACK
6
CONTINUOUS
10
1.4998
20
-2.07569
11
1.50007
21
-2.07437
0
LINE
8
BLACK
6
CONTINUOUS
10
1.50007
20
-2.07437
11
1.50081
21
-2.07325
0
LINE
8
BLACK
6
CONTINUOUS
10
1.50081
20
-2.07325
11
1.50193
21
-2.07251
0
LINE
8
BLACK
6
CONTINUOUS
10
1.50193
20
-2.07251
11
1.50325
21
-2.07224
0
LINE
8
BLACK
6
CONTINUOUS
10
1.50325
20
-2.07224
11
1.51014
21
-2.07224
0
LINE
8
BLACK
6
CONTINUOUS
10
1.51014
20
-2.07224
11
1.51146
21
-2.07251
0
LINE
8
BLACK
6
CONTINUOUS
10
1.53902
20
-2.07251
11
1.54013
21
-2.07325
0
LINE
8
BLACK
6
CONTINUOUS
10
1.54013
20
-2.07325
11
1.54088
21
-2.07437
0
LINE
8
BLACK
6
CONTINUOUS
10
1.54088
20
-2.07437
11
1.54114
21
-2.07569
0
LINE
8
BLACK
6
CONTINUOUS
10
1.54114
20
-2.07569
11
1.54114
21
-2.22628
0
LINE
8
BLACK
6
CONTINUOUS
10
1.54114
20
-2.22628
11
1.54088
21
-2.2276
0
LINE
8
BLACK
6
CONTINUOUS
10
1.54088
20
-2.2276
11
1.54013
21
-2.22872
0
LINE
8
BLACK
6
CONTINUOUS
10
1.54013
20
-2.22872
11
1.53902
21
-2.22946
0
LINE
8
BLACK
6
CONTINUOUS
10
1.53902
20
-2.22946
11
1.5377
21
-2.22972
0
LINE
8
BLACK
6
CONTINUOUS
10
1.5377
20
-2.22972
11
1.53081
21
-2.22972
0
LINE
8
BLACK
6
CONTINUOUS
10
1.53081
20
-2.22972
11
1.52949
21
-2.22946
0
LINE
8
BLACK
6
CONTINUOUS
10
1.52949
20
-2.22946
11
1.52837
21
-2.22872
0
LINE
8
BLACK
6
CONTINUOUS
10
1.52837
20
-2.22872
11
1.52762
21
-2.2276
0
LINE
8
BLACK
6
CONTINUOUS
10
1.52762
20
-2.2276
11
1.52736
21
-2.22628
0
LINE
8
BLACK
6
CONTINUOUS
10
1.52736
20
-2.22628
11
1.52736
21
-2.07569
0
LINE
8
BLACK
6
CONTINUOUS
10
1.52736
20
-2.07569
11
1.52762
21
-2.07437
0
LINE
8
BLACK
6
CONTINUOUS
10
1.52762
20
-2.07437
11
1.52837
21
-2.07325
0
LINE
8
BLACK
6
CONTINUOUS
10
1.52837
20
-2.07325
11
1.52949
21
-2.07251
0
LINE
8
BLACK
6
CONTINUOUS
10
1.52949
20
-2.07251
11
1.53081
21
-2.07224
0
LINE
8
BLACK
6
CONTINUOUS
10
1.53081
20
-2.07224
11
1.5377
21
-2.07224
0
LINE
8
BLACK
6
CONTINUOUS
10
1.5377
20
-2.07224
11
1.53902
21
-2.07251
0
LINE
8
BLACK
6
CONTINUOUS
10
1.56657
20
-2.07251
11
1.56769
21
-2.07325
0
LINE
8
BLACK
6
CONTINUOUS
10
1.56769
20
-2.07325
11
1.56844
21
-2.07437
0
LINE
8
BLACK
6
CONTINUOUS
10
1.56844
20
-2.07437
11
1.5687
21
-2.07569
0
LINE
8
BLACK
6
CONTINUOUS
10
1.5687
20
-2.07569
11
1.5687
21
-2.22628
0
LINE
8
BLACK
6
CONTINUOUS
10
1.5687
20
-2.22628
11
1.56844
21
-2.2276
0
LINE
8
BLACK
6
CONTINUOUS
10
1.56844
20
-2.2276
11
1.56769
21
-2.22872
0
LINE
8
BLACK
6
CONTINUOUS
10
1.56769
20
-2.22872
11
1.56657
21
-2.22946
0
LINE
8
BLACK
6
CONTINUOUS
10
1.56657
20
-2.22946
11
1.56526
21
-2.22972
0
LINE
8
BLACK
6
CONTINUOUS
10
1.56526
20
-2.22972
11
1.55837
21
-2.22972
0
LINE
8
BLACK
6
CONTINUOUS
10
1.55837
20
-2.22972
11
1.55705
21
-2.22946
0
LINE
8
BLACK
6
CONTINUOUS
10
1.55705
20
-2.22946
11
1.55593
21
-2.22872
0
LINE
8
BLACK
6
CONTINUOUS
10
1.55593
20
-2.22872
11
1.55518
21
-2.2276
0
LINE
8
BLACK
6
CONTINUOUS
10
1.55518
20
-2.2276
11
1.55492
21
-2.22628
0
LINE
8
BLACK
6
CONTINUOUS
10
1.55492
20
-2.22628
11
1.55492
21
-2.07569
0
LINE
8
BLACK
6
CONTINUOUS
10
1.55492
20
-2.07569
11
1.55518
21
-2.07437
0
LINE
8
BLACK
6
CONTINUOUS
10
1.55518
20
-2.07437
11
1.55593
21
-2.07325
0
LINE
8
BLACK
6
CONTINUOUS
10
1.55593
20
-2.07325
11
1.55705
21
-2.07251
0
LINE
8
BLACK
6
CONTINUOUS
10
1.55705
20
-2.07251
11
1.55837
21
-2.07224
0
LINE
8
BLACK
6
CONTINUOUS
10
1.55837
20
-2.07224
11
1.56526
21
-2.07224
0
LINE
8
BLACK
6
CONTINUOUS
10
1.56526
20
-2.07224
11
1.56657
21
-2.07251
0
LINE
8
BLACK
6
CONTINUOUS
10
1.59413
20
-2.07251
11
1.59525
21
-2.07325
0
LINE
8
BLACK
6
CONTINUOUS
10
1.59525
20
-2.07325
11
1.596
21
-2.07437
0
LINE
8
BLACK
6
CONTINUOUS
10
1.596
20
-2.07437
11
1.59626
21
-2.07569
0
LINE
8
BLACK
6
CONTINUOUS
10
1.59626
20
-2.07569
11
1.59626
21
-2.22628
0
LINE
8
BLACK
6
CONTINUOUS
10
1.59626
20
-2.22628
11
1.596
21
-2.2276
0
LINE
8
BLACK
6
CONTINUOUS
10
1.596
20
-2.2276
11
1.59525
21
-2.22872
0
LINE
8
BLACK
6
CONTINUOUS
10
1.59525
20
-2.22872
11
1.59413
21
-2.22946
0
LINE
8
BLACK
6
CONTINUOUS
10
1.59413
20
-2.22946
11
1.59281
21
-2.22972
0
LINE
8
BLACK
6
CONTINUOUS
10
1.59281
20
-2.22972
11
1.58593
21
-2.22972
0
LINE
8
BLACK
6
CONTINUOUS
10
1.58593
20
-2.22972
11
1.58461
21
-2.22946
0
LINE
8
BLACK
6
CONTINUOUS
10
1.58461
20
-2.22946
11
1.58349
21
-2.22872
0
LINE
8
BLACK
6
CONTINUOUS
10
1.58349
20
-2.22872
11
1.58274
21
-2.2276
0
LINE
8
BLACK
6
CONTINUOUS
10
1.58274
20
-2.2276
11
1.58248
21
-2.22628
0
LINE
8
BLACK
6
CONTINUOUS
10
1.58248
20
-2.22628
11
1.58248
21
-2.07569
0
LINE
8
BLACK
6
CONTINUOUS
10
1.58248
20
-2.07569
11
1.58274
21
-2.07437
0
LINE
8
BLACK
6
CONTINUOUS
10
1.58274
20
-2.07437
11
1.58349
21
-2.07325
0
LINE
8
BLACK
6
CONTINUOUS
10
1.58349
20
-2.07325
11
1.58461
21
-2.07251
0
LINE
8
BLACK
6
CONTINUOUS
10
1.58461
20
-2.07251
11
1.58593
21
-2.07224
0
LINE
8
BLACK
6
CONTINUOUS
10
1.58593
20
-2.07224
11
1.59281
21
-2.07224
0
LINE
8
BLACK
6
CONTINUOUS
10
1.59281
20
-2.07224
11
1.59413
21
-2.07251
0
LINE
8
BLACK
6
CONTINUOUS
10
1.62169
20
-2.07251
11
1.62281
21
-2.07325
0
LINE
8
BLACK
6
CONTINUOUS
10
1.62281
20
-2.07325
11
1.62356
21
-2.07437
0
LINE
8
BLACK
6
CONTINUOUS
10
1.62356
20
-2.07437
11
1.62382
21
-2.07569
0
LINE
8
BLACK
6
CONTINUOUS
10
1.62382
20
-2.07569
11
1.62382
21
-2.22628
0
LINE
8
BLACK
6
CONTINUOUS
10
1.62382
20
-2.22628
11
1.62356
21
-2.2276
0
LINE
8
BLACK
6
CONTINUOUS
10
1.62356
20
-2.2276
11
1.62281
21
-2.22872
0
LINE
8
BLACK
6
CONTINUOUS
10
1.62281
20
-2.22872
11
1.62169
21
-2.22946
0
LINE
8
BLACK
6
CONTINUOUS
10
1.62169
20
-2.22946
11
1.62037
21
-2.22972
0
LINE
8
BLACK
6
CONTINUOUS
10
1.62037
20
-2.22972
11
1.61348
21
-2.22972
0
LINE
8
BLACK
6
CONTINUOUS
10
1.61348
20
-2.22972
11
1.61217
21
-2.22946
0
LINE
8
BLACK
6
CONTINUOUS
10
1.61217
20
-2.22946
11
1.61105
21
-2.22872
0
LINE
8
BLACK
6
CONTINUOUS
10
1.61105
20
-2.22872
11
1.6103
21
-2.2276
0
LINE
8
BLACK
6
CONTINUOUS
10
1.6103
20
-2.2276
11
1.61004
21
-2.22628
0
LINE
8
BLACK
6
CONTINUOUS
10
1.61004
20
-2.22628
11
1.61004
21
-2.07569
0
LINE
8
BLACK
6
CONTINUOUS
10
1.61004
20
-2.07569
11
1.6103
21
-2.07437
0
LINE
8
BLACK
6
CONTINUOUS
10
1.6103
20
-2.07437
11
1.61105
21
-2.07325
0
LINE
8
BLACK
6
CONTINUOUS
10
1.61105
20
-2.07325
11
1.61217
21
-2.07251
0
LINE
8
BLACK
6
CONTINUOUS
10
1.61217
20
-2.07251
11
1.61348
21
-2.07224
0
LINE
8
BLACK
6
CONTINUOUS
10
1.61348
20
-2.07224
11
1.62037
21
-2.07224
0
LINE
8
BLACK
6
CONTINUOUS
10
1.62037
20
-2.07224
11
1.62169
21
-2.07251
0
LINE
8
BLACK
6
CONTINUOUS
10
1.64925
20
-2.07251
11
1.65037
21
-2.07325
0
LINE
8
BLACK
6
CONTINUOUS
10
1.65037
20
-2.07325
11
1.65112
21
-2.07437
0
LINE
8
BLACK
6
CONTINUOUS
10
1.65112
20
-2.07437
11
1.65138
21
-2.07569
0
LINE
8
BLACK
6
CONTINUOUS
10
1.65138
20
-2.07569
11
1.65138
21
-2.22628
0
LINE
8
BLACK
6
CONTINUOUS
10
1.65138
20
-2.22628
11
1.65112
21
-2.2276
0
LINE
8
BLACK
6
CONTINUOUS
10
1.65112
20
-2.2276
11
1.65037
21
-2.22872
0
LINE
8
BLACK
6
CONTINUOUS
10
1.65037
20
-2.22872
11
1.64925
21
-2.22946
0
LINE
8
BLACK
6
CONTINUOUS
10
1.64925
20
-2.22946
11
1.64793
21
-2.22972
0
LINE
8
BLACK
6
CONTINUOUS
10
1.64793
20
-2.22972
11
1.64104
21
-2.22972
0
LINE
8
BLACK
6
CONTINUOUS
10
1.64104
20
-2.22972
11
1.63972
21
-2.22946
0
LINE
8
BLACK
6
CONTINUOUS
10
1.63972
20
-2.22946
11
1.63861
21
-2.22872
0
LINE
8
BLACK
6
CONTINUOUS
10
1.63861
20
-2.22872
11
1.63786
21
-2.2276
0
LINE
8
BLACK
6
CONTINUOUS
10
1.63786
20
-2.2276
11
1.6376
21
-2.22628
0
LINE
8
BLACK
6
CONTINUOUS
10
1.6376
20
-2.22628
11
1.6376
21
-2.07569
0
LINE
8
BLACK
6
CONTINUOUS
10
1.6376
20
-2.07569
11
1.63786
21
-2.07437
0
LINE
8
BLACK
6
CONTINUOUS
10
1.63786
20
-2.07437
11
1.63861
21
-2.07325
0
LINE
8
BLACK
6
CONTINUOUS
10
1.63861
20
-2.07325
11
1.63972
21
-2.07251
0
LINE
8
BLACK
6
CONTINUOUS
10
1.63972
20
-2.07251
11
1.64104
21
-2.07224
0
LINE
8
BLACK
6
CONTINUOUS
10
1.64104
20
-2.07224
11
1.64793
21
-2.07224
0
LINE
8
BLACK
6
CONTINUOUS
10
1.64793
20
-2.07224
11
1.64925
21
-2.07251
0
LINE
8
BLACK
6
CONTINUOUS
10
1.67681
20
-2.07251
11
1.67793
21
-2.07325
0
LINE
8
BLACK
6
CONTINUOUS
10
1.67793
20
-2.07325
11
1.67867
21
-2.07437
0
LINE
8
BLACK
6
CONTINUOUS
10
1.67867
20
-2.07437
11
1.67894
21
-2.07569
0
LINE
8
BLACK
6
CONTINUOUS
10
1.67894
20
-2.07569
11
1.67894
21
-2.22628
0
LINE
8
BLACK
6
CONTINUOUS
10
1.67894
20
-2.22628
11
1.67867
21
-2.2276
0
LINE
8
BLACK
6
CONTINUOUS
10
1.67867
20
-2.2276
11
1.67793
21
-2.22872
0
LINE
8
BLACK
6
CONTINUOUS
10
1.67793
20
-2.22872
11
1.67681
21
-2.22946
0
LINE
8
BLACK
6
CONTINUOUS
10
1.67681
20
-2.22946
11
1.67549
21
-2.22972
0
LINE
8
BLACK
6
CONTINUOUS
10
1.67549
20
-2.22972
11
1.6686
21
-2.22972
0
LINE
8
BLACK
6
CONTINUOUS
10
1.6686
20
-2.22972
11
1.66728
21
-2.22946
0
LINE
8
BLACK
6
CONTINUOUS
10
1.66728
20
-2.22946
11
1.66617
21
-2.22872
0
LINE
8
BLACK
6
CONTINUOUS
10
1.66617
20
-2.22872
11
1.66542
21
-2.2276
0
LINE
8
BLACK
6
CONTINUOUS
10
1.66542
20
-2.2276
11
1.66516
21
-2.22628
0
LINE
8
BLACK
6
CONTINUOUS
10
1.66516
20
-2.22628
11
1.66516
21
-2.07569
0
LINE
8
BLACK
6
CONTINUOUS
10
1.66516
20
-2.07569
11
1.66542
21
-2.07437
0
LINE
8
BLACK
6
CONTINUOUS
10
1.66542
20
-2.07437
11
1.66617
21
-2.07325
0
LINE
8
BLACK
6
CONTINUOUS
10
1.66617
20
-2.07325
11
1.66728
21
-2.07251
0
LINE
8
BLACK
6
CONTINUOUS
10
1.66728
20
-2.07251
11
1.6686
21
-2.07224
0
LINE
8
BLACK
6
CONTINUOUS
10
1.6686
20
-2.07224
11
1.67549
21
-2.07224
0
LINE
8
BLACK
6
CONTINUOUS
10
1.67549
20
-2.07224
11
1.67681
21
-2.07251
0
LINE
8
BLACK
6
CONTINUOUS
10
1.70437
20
-2.07251
11
1.70549
21
-2.07325
0
LINE
8
BLACK
6
CONTINUOUS
10
1.70549
20
-2.07325
11
1.70623
21
-2.07437
0
LINE
8
BLACK
6
CONTINUOUS
10
1.70623
20
-2.07437
11
1.7065
21
-2.07569
0
LINE
8
BLACK
6
CONTINUOUS
10
1.7065
20
-2.07569
11
1.7065
21
-2.22628
0
LINE
8
BLACK
6
CONTINUOUS
10
1.7065
20
-2.22628
11
1.70623
21
-2.2276
0
LINE
8
BLACK
6
CONTINUOUS
10
1.70623
20
-2.2276
11
1.70549
21
-2.22872
0
LINE
8
BLACK
6
CONTINUOUS
10
1.70549
20
-2.22872
11
1.70437
21
-2.22946
0
LINE
8
BLACK
6
CONTINUOUS
10
1.70437
20
-2.22946
11
1.70305
21
-2.22972
0
LINE
8
BLACK
6
CONTINUOUS
10
1.70305
20
-2.22972
11
1.69616
21
-2.22972
0
LINE
8
BLACK
6
CONTINUOUS
10
1.69616
20
-2.22972
11
1.69484
21
-2.22946
0
LINE
8
BLACK
6
CONTINUOUS
10
1.69484
20
-2.22946
11
1.69373
21
-2.22872
0
LINE
8
BLACK
6
CONTINUOUS
10
1.69373
20
-2.22872
11
1.69298
21
-2.2276
0
LINE
8
BLACK
6
CONTINUOUS
10
1.69298
20
-2.2276
11
1.69272
21
-2.22628
0
LINE
8
BLACK
6
CONTINUOUS
10
1.69272
20
-2.22628
11
1.69272
21
-2.07569
0
LINE
8
BLACK
6
CONTINUOUS
10
1.69272
20
-2.07569
11
1.69298
21
-2.07437
0
LINE
8
BLACK
6
CONTINUOUS
10
1.69298
20
-2.07437
11
1.69373
21
-2.07325
0
LINE
8
BLACK
6
CONTINUOUS
10
1.69373
20
-2.07325
11
1.69484
21
-2.07251
0
LINE
8
BLACK
6
CONTINUOUS
10
1.69484
20
-2.07251
11
1.69616
21
-2.07224
0
LINE
8
BLACK
6
CONTINUOUS
10
1.69616
20
-2.07224
11
1.70305
21
-2.07224
0
LINE
8
BLACK
6
CONTINUOUS
10
1.70305
20
-2.07224
11
1.70437
21
-2.07251
0
LINE
8
BLACK
6
CONTINUOUS
10
1.73193
20
-2.07251
11
1.73305
21
-2.07325
0
LINE
8
BLACK
6
CONTINUOUS
10
1.73305
20
-2.07325
11
1.73379
21
-2.07437
0
LINE
8
BLACK
6
CONTINUOUS
10
1.73379
20
-2.07437
11
1.73406
21
-2.07569
0
LINE
8
BLACK
6
CONTINUOUS
10
1.73406
20
-2.07569
11
1.73406
21
-2.22628
0
LINE
8
BLACK
6
CONTINUOUS
10
1.73406
20
-2.22628
11
1.73379
21
-2.2276
0
LINE
8
BLACK
6
CONTINUOUS
10
1.73379
20
-2.2276
11
1.73305
21
-2.22872
0
LINE
8
BLACK
6
CONTINUOUS
10
1.73305
20
-2.22872
11
1.73193
21
-2.22946
0
LINE
8
BLACK
6
CONTINUOUS
10
1.73193
20
-2.22946
11
1.73061
21
-2.22972
0
LINE
8
BLACK
6
CONTINUOUS
10
1.73061
20
-2.22972
11
1.72372
21
-2.22972
0
LINE
8
BLACK
6
CONTINUOUS
10
1.72372
20
-2.22972
11
1.7224
21
-2.22946
0
LINE
8
BLACK
6
CONTINUOUS
10
1.7224
20
-2.22946
11
1.72128
21
-2.22872
0
LINE
8
BLACK
6
CONTINUOUS
10
1.72128
20
-2.22872
11
1.72054
21
-2.2276
0
LINE
8
BLACK
6
CONTINUOUS
10
1.72054
20
-2.2276
11
1.72028
21
-2.22628
0
LINE
8
BLACK
6
CONTINUOUS
10
1.72028
20
-2.22628
11
1.72028
21
-2.07569
0
LINE
8
BLACK
6
CONTINUOUS
10
1.72028
20
-2.07569
11
1.72054
21
-2.07437
0
LINE
8
BLACK
6
CONTINUOUS
10
1.72054
20
-2.07437
11
1.72128
21
-2.07325
0
LINE
8
BLACK
6
CONTINUOUS
10
1.72128
20
-2.07325
11
1.7224
21
-2.07251
0
LINE
8
BLACK
6
CONTINUOUS
10
1.7224
20
-2.07251
11
1.72372
21
-2.07224
0
LINE
8
BLACK
6
CONTINUOUS
10
1.72372
20
-2.07224
11
1.73061
21
-2.07224
0
LINE
8
BLACK
6
CONTINUOUS
10
1.73061
20
-2.07224
11
1.73193
21
-2.07251
0
LINE
8
BLACK
6
CONTINUOUS
10
1.75949
20
-2.07251
11
1.76061
21
-2.07325
0
LINE
8
BLACK
6
CONTINUOUS
10
1.76061
20
-2.07325
11
1.76135
21
-2.07437
0
LINE
8
BLACK
6
CONTINUOUS
10
1.76135
20
-2.07437
11
1.76161
21
-2.07569
0
LINE
8
BLACK
6
CONTINUOUS
10
1.76161
20
-2.07569
11
1.76161
21
-2.22628
0
LINE
8
BLACK
6
CONTINUOUS
10
1.76161
20
-2.22628
11
1.76135
21
-2.2276
0
LINE
8
BLACK
6
CONTINUOUS
10
1.76135
20
-2.2276
11
1.76061
21
-2.22872
0
LINE
8
BLACK
6
CONTINUOUS
10
1.76061
20
-2.22872
11
1.75949
21
-2.22946
0
LINE
8
BLACK
6
CONTINUOUS
10
1.75949
20
-2.22946
11
1.75817
21
-2.22972
0
LINE
8
BLACK
6
CONTINUOUS
10
1.75817
20
-2.22972
11
1.75128
21
-2.22972
0
LINE
8
BLACK
6
CONTINUOUS
10
1.75128
20
-2.22972
11
1.74996
21
-2.22946
0
LINE
8
BLACK
6
CONTINUOUS
10
1.74996
20
-2.22946
11
1.74884
21
-2.22872
0
LINE
8
BLACK
6
CONTINUOUS
10
1.74884
20
-2.22872
11
1.7481
21
-2.2276
0
LINE
8
BLACK
6
CONTINUOUS
10
1.7481
20
-2.2276
11
1.74783
21
-2.22628
0
LINE
8
BLACK
6
CONTINUOUS
10
1.74783
20
-2.22628
11
1.74783
21
-2.07569
0
LINE
8
BLACK
6
CONTINUOUS
10
1.74783
20
-2.07569
11
1.7481
21
-2.07437
0
LINE
8
BLACK
6
CONTINUOUS
10
1.7481
20
-2.07437
11
1.74884
21
-2.07325
0
LINE
8
BLACK
6
CONTINUOUS
10
1.74884
20
-2.07325
11
1.74996
21
-2.07251
0
LINE
8
BLACK
6
CONTINUOUS
10
1.74996
20
-2.07251
11
1.75128
21
-2.07224
0
LINE
8
BLACK
6
CONTINUOUS
10
1.75128
20
-2.07224
11
1.75817
21
-2.07224
0
LINE
8
BLACK
6
CONTINUOUS
10
1.75817
20
-2.07224
11
1.75949
21
-2.07251
0
LINE
8
BLACK
6
CONTINUOUS
10
1.78705
20
-2.07251
11
1.78816
21
-2.07325
0
LINE
8
BLACK
6
CONTINUOUS
10
1.78816
20
-2.07325
11
1.78891
21
-2.07437
0
LINE
8
BLACK
6
CONTINUOUS
10
1.78891
20
-2.07437
11
1.78917
21
-2.07569
0
LINE
8
BLACK
6
CONTINUOUS
10
1.78917
20
-2.07569
11
1.78917
21
-2.22628
0
LINE
8
BLACK
6
CONTINUOUS
10
1.78917
20
-2.22628
11
1.78891
21
-2.2276
0
LINE
8
BLACK
6
CONTINUOUS
10
1.78891
20
-2.2276
11
1.78816
21
-2.22872
0
LINE
8
BLACK
6
CONTINUOUS
10
1.78816
20
-2.22872
11
1.78705
21
-2.22946
0
LINE
8
BLACK
6
CONTINUOUS
10
1.78705
20
-2.22946
11
1.78573
21
-2.22972
0
LINE
8
BLACK
6
CONTINUOUS
10
1.78573
20
-2.22972
11
1.77884
21
-2.22972
0
LINE
8
BLACK
6
CONTINUOUS
10
1.77884
20
-2.22972
11
1.77752
21
-2.22946
0
LINE
8
BLACK
6
CONTINUOUS
10
1.77752
20
-2.22946
11
1.7764
21
-2.22872
0
LINE
8
BLACK
6
CONTINUOUS
10
1.7764
20
-2.22872
11
1.77566
21
-2.2276
0
LINE
8
BLACK
6
CONTINUOUS
10
1.77566
20
-2.2276
11
1.77539
21
-2.22628
0
LINE
8
BLACK
6
CONTINUOUS
10
1.77539
20
-2.22628
11
1.77539
21
-2.07569
0
LINE
8
BLACK
6
CONTINUOUS
10
1.77539
20
-2.07569
11
1.77566
21
-2.07437
0
LINE
8
BLACK
6
CONTINUOUS
10
1.77566
20
-2.07437
11
1.7764
21
-2.07325
0
LINE
8
BLACK
6
CONTINUOUS
10
1.7764
20
-2.07325
11
1.77752
21
-2.07251
0
LINE
8
BLACK
6
CONTINUOUS
10
1.77752
20
-2.07251
11
1.77884
21
-2.07224
0
LINE
8
BLACK
6
CONTINUOUS
10
1.77884
20
-2.07224
11
1.78573
21
-2.07224
0
LINE
8
BLACK
6
CONTINUOUS
10
1.78573
20
-2.07224
11
1.78705
21
-2.07251
0
LINE
8
BLACK
6
CONTINUOUS
10
1.81461
20
-2.07251
11
1.81572
21
-2.07325
0
LINE
8
BLACK
6
CONTINUOUS
10
1.81572
20
-2.07325
11
1.81647
21
-2.07437
0
LINE
8
BLACK
6
CONTINUOUS
10
1.81647
20
-2.07437
11
1.81673
21
-2.07569
0
LINE
8
BLACK
6
CONTINUOUS
10
1.81673
20
-2.07569
11
1.81673
21
-2.22628
0
LINE
8
BLACK
6
CONTINUOUS
10
1.81673
20
-2.22628
11
1.81647
21
-2.2276
0
LINE
8
BLACK
6
CONTINUOUS
10
1.81647
20
-2.2276
11
1.81572
21
-2.22872
0
LINE
8
BLACK
6
CONTINUOUS
10
1.81572
20
-2.22872
11
1.81461
21
-2.22946
0
LINE
8
BLACK
6
CONTINUOUS
10
1.81461
20
-2.22946
11
1.81329
21
-2.22972
0
LINE
8
BLACK
6
CONTINUOUS
10
1.81329
20
-2.22972
11
1.8064
21
-2.22972
0
LINE
8
BLACK
6
CONTINUOUS
10
1.8064
20
-2.22972
11
1.80508
21
-2.22946
0
LINE
8
BLACK
6
CONTINUOUS
10
1.80508
20
-2.22946
11
1.80396
21
-2.22872
0
LINE
8
BLACK
6
CONTINUOUS
10
1.80396
20
-2.22872
11
1.80322
21
-2.2276
0
LINE
8
BLACK
6
CONTINUOUS
10
1.80322
20
-2.2276
11
1.80295
21
-2.22628
0
LINE
8
BLACK
6
CONTINUOUS
10
1.80295
20
-2.22628
11
1.80295
21
-2.07569
0
LINE
8
BLACK
6
CONTINUOUS
10
1.80295
20
-2.07569
11
1.80322
21
-2.07437
0
LINE
8
BLACK
6
CONTINUOUS
10
1.80322
20
-2.07437
11
1.80396
21
-2.07325
0
LINE
8
BLACK
6
CONTINUOUS
10
1.80396
20
-2.07325
11
1.80508
21
-2.07251
0
LINE
8
BLACK
6
CONTINUOUS
10
1.80508
20
-2.07251
11
1.8064
21
-2.07224
0
LINE
8
BLACK
6
CONTINUOUS
10
1.8064
20
-2.07224
11
1.81329
21
-2.07224
0
LINE
8
BLACK
6
CONTINUOUS
10
1.81329
20
-2.07224
11
1.81461
21
-2.07251
0
LINE
8
BLACK
6
CONTINUOUS
10
2.1036
20
-1.98801
11
2.10832
21
-1.99104
0
LINE
8
BLACK
6
CONTINUOUS
10
2.10832
20
-1.99104
11
2.11199
21
-1.99527
0
LINE
8
BLACK
6
CONTINUOUS
10
2.11199
20
-1.99527
11
2.11431
21
-2.00037
0
LINE
8
BLACK
6
CONTINUOUS
10
2.11431
20
-2.00037
11
2.11511
21
-2.00592
0
LINE
8
BLACK
6
CONTINUOUS
10
2.11511
20
-2.00592
11
2.11431
21
-2.01146
0
LINE
8
BLACK
6
CONTINUOUS
10
2.11431
20
-2.01146
11
2.11199
21
-2.01656
0
LINE
8
BLACK
6
CONTINUOUS
10
2.11199
20
-2.01656
11
2.10832
21
-2.02079
0
LINE
8
BLACK
6
CONTINUOUS
10
2.10832
20
-2.02079
11
2.1036
21
-2.02382
0
LINE
8
BLACK
6
CONTINUOUS
10
2.1036
20
-2.02382
11
2.09823
21
-2.0254
0
LINE
8
BLACK
6
CONTINUOUS
10
2.09823
20
-2.0254
11
2.09262
21
-2.0254
0
LINE
8
BLACK
6
CONTINUOUS
10
2.09262
20
-2.0254
11
2.08725
21
-2.02382
0
LINE
8
BLACK
6
CONTINUOUS
10
2.08725
20
-2.02382
11
2.08253
21
-2.02079
0
LINE
8
BLACK
6
CONTINUOUS
10
2.08253
20
-2.02079
11
2.07887
21
-2.01656
0
LINE
8
BLACK
6
CONTINUOUS
10
2.07887
20
-2.01656
11
2.07654
21
-2.01146
0
LINE
8
BLACK
6
CONTINUOUS
10
2.07654
20
-2.01146
11
2.07574
21
-2.00592
0
LINE
8
BLACK
6
CONTINUOUS
10
2.07574
20
-2.00592
11
2.07654
21
-2.00037
0
LINE
8
BLACK
6
CONTINUOUS
10
2.07654
20
-2.00037
11
2.07887
21
-1.99527
0
LINE
8
BLACK
6
CONTINUOUS
10
2.07887
20
-1.99527
11
2.08253
21
-1.99104
0
LINE
8
BLACK
6
CONTINUOUS
10
2.08253
20
-1.99104
11
2.08725
21
-1.98801
0
LINE
8
BLACK
6
CONTINUOUS
10
2.08725
20
-1.98801
11
2.09262
21
-1.98643
0
LINE
8
BLACK
6
CONTINUOUS
10
2.09262
20
-1.98643
11
2.09823
21
-1.98643
0
LINE
8
BLACK
6
CONTINUOUS
10
2.09823
20
-1.98643
11
2.1036
21
-1.98801
0
LINE
8
BLACK
6
CONTINUOUS
10
2.19022
20
-1.98801
11
2.19493
21
-1.99104
0
LINE
8
BLACK
6
CONTINUOUS
10
2.19493
20
-1.99104
11
2.1986
21
-1.99527
0
LINE
8
BLACK
6
CONTINUOUS
10
2.1986
20
-1.99527
11
2.20093
21
-2.00037
0
LINE
8
BLACK
6
CONTINUOUS
10
2.20093
20
-2.00037
11
2.20172
21
-2.00592
0
LINE
8
BLACK
6
CONTINUOUS
10
2.20172
20
-2.00592
11
2.20093
21
-2.01146
0
LINE
8
BLACK
6
CONTINUOUS
10
2.20093
20
-2.01146
11
2.1986
21
-2.01656
0
LINE
8
BLACK
6
CONTINUOUS
10
2.1986
20
-2.01656
11
2.19493
21
-2.02079
0
LINE
8
BLACK
6
CONTINUOUS
10
2.19493
20
-2.02079
11
2.19022
21
-2.02382
0
LINE
8
BLACK
6
CONTINUOUS
10
2.19022
20
-2.02382
11
2.18484
21
-2.0254
0
LINE
8
BLACK
6
CONTINUOUS
10
2.18484
20
-2.0254
11
2.17924
21
-2.0254
0
LINE
8
BLACK
6
CONTINUOUS
10
2.17924
20
-2.0254
11
2.17386
21
-2.02382
0
LINE
8
BLACK
6
CONTINUOUS
10
2.17386
20
-2.02382
11
2.16915
21
-2.02079
0
LINE
8
BLACK
6
CONTINUOUS
10
2.16915
20
-2.02079
11
2.16548
21
-2.01656
0
LINE
8
BLACK
6
CONTINUOUS
10
2.16548
20
-2.01656
11
2.16315
21
-2.01146
0
LINE
8
BLACK
6
CONTINUOUS
10
2.16315
20
-2.01146
11
2.16235
21
-2.00592
0
LINE
8
BLACK
6
CONTINUOUS
10
2.16235
20
-2.00592
11
2.16315
21
-2.00037
0
LINE
8
BLACK
6
CONTINUOUS
10
2.16315
20
-2.00037
11
2.16548
21
-1.99527
0
LINE
8
BLACK
6
CONTINUOUS
10
2.16548
20
-1.99527
11
2.16915
21
-1.99104
0
LINE
8
BLACK
6
CONTINUOUS
10
2.16915
20
-1.99104
11
2.17386
21
-1.98801
0
LINE
8
BLACK
6
CONTINUOUS
10
2.17386
20
-1.98801
11
2.17924
21
-1.98643
0
LINE
8
BLACK
6
CONTINUOUS
10
2.17924
20
-1.98643
11
2.18484
21
-1.98643
0
LINE
8
BLACK
6
CONTINUOUS
10
2.18484
20
-1.98643
11
2.19022
21
-1.98801
0
LINE
8
BLACK
6
CONTINUOUS
10
2.27683
20
-1.98801
11
2.28154
21
-1.99104
0
LINE
8
BLACK
6
CONTINUOUS
10
2.28154
20
-1.99104
11
2.28521
21
-1.99527
0
LINE
8
BLACK
6
CONTINUOUS
10
2.28521
20
-1.99527
11
2.28754
21
-2.00037
0
LINE
8
BLACK
6
CONTINUOUS
10
2.28754
20
-2.00037
11
2.28834
21
-2.00592
0
LINE
8
BLACK
6
CONTINUOUS
10
2.28834
20
-2.00592
11
2.28754
21
-2.01146
0
LINE
8
BLACK
6
CONTINUOUS
10
2.28754
20
-2.01146
11
2.28521
21
-2.01656
0
LINE
8
BLACK
6
CONTINUOUS
10
2.28521
20
-2.01656
11
2.28154
21
-2.02079
0
LINE
8
BLACK
6
CONTINUOUS
10
2.28154
20
-2.02079
11
2.27683
21
-2.02382
0
LINE
8
BLACK
6
CONTINUOUS
10
2.27683
20
-2.02382
11
2.27146
21
-2.0254
0
LINE
8
BLACK
6
CONTINUOUS
10
2.27146
20
-2.0254
11
2.26585
21
-2.0254
0
LINE
8
BLACK
6
CONTINUOUS
10
2.26585
20
-2.0254
11
2.26048
21
-2.02382
0
LINE
8
BLACK
6
CONTINUOUS
10
2.26048
20
-2.02382
11
2.25576
21
-2.02079
0
LINE
8
BLACK
6
CONTINUOUS
10
2.25576
20
-2.02079
11
2.25209
21
-2.01656
0
LINE
8
BLACK
6
CONTINUOUS
10
2.25209
20
-2.01656
11
2.24977
21
-2.01146
0
LINE
8
BLACK
6
CONTINUOUS
10
2.24977
20
-2.01146
11
2.24897
21
-2.00592
0
LINE
8
BLACK
6
CONTINUOUS
10
2.24897
20
-2.00592
11
2.24977
21
-2.00037
0
LINE
8
BLACK
6
CONTINUOUS
10
2.24977
20
-2.00037
11
2.25209
21
-1.99527
0
LINE
8
BLACK
6
CONTINUOUS
10
2.25209
20
-1.99527
11
2.25576
21
-1.99104
0
LINE
8
BLACK
6
CONTINUOUS
10
2.25576
20
-1.99104
11
2.26048
21
-1.98801
0
LINE
8
BLACK
6
CONTINUOUS
10
2.26048
20
-1.98801
11
2.26585
21
-1.98643
0
LINE
8
BLACK
6
CONTINUOUS
10
2.26585
20
-1.98643
11
2.27146
21
-1.98643
0
LINE
8
BLACK
6
CONTINUOUS
10
2.27146
20
-1.98643
11
2.27683
21
-1.98801
0
LINE
8
BLACK
6
CONTINUOUS
10
2.67126
20
-1.93346
11
2.60433
21
-1.93346
0
LINE
8
BLACK
6
CONTINUOUS
10
2.60433
20
-1.93346
11
2.60433
21
-1.86654
0
LINE
8
BLACK
6
CONTINUOUS
10
2.60433
20
-1.86654
11
2.67126
21
-1.86654
0
LINE
8
BLACK
6
CONTINUOUS
10
2.67126
20
-1.86654
11
2.67126
21
-1.93346
0
LINE
8
BLACK
6
CONTINUOUS
10
0.518504
20
-1.85354
11
0.492913
21
-1.85354
0
LINE
8
BLACK
6
CONTINUOUS
10
0.492913
20
-1.85354
11
0.492913
21
-1.8122
0
LINE
8
BLACK
6
CONTINUOUS
10
0.492913
20
-1.8122
11
0.518504
21
-1.8122
0
LINE
8
BLACK
6
CONTINUOUS
10
0.518504
20
-1.8122
11
0.518504
21
-1.85354
0
LINE
8
BLACK
6
CONTINUOUS
10
0.60315
20
-1.85256
11
0.577559
21
-1.85256
0
LINE
8
BLACK
6
CONTINUOUS
10
0.577559
20
-1.85256
11
0.577559
21
-1.81122
0
LINE
8
BLACK
6
CONTINUOUS
10
0.577559
20
-1.81122
11
0.60315
21
-1.81122
0
LINE
8
BLACK
6
CONTINUOUS
10
0.60315
20
-1.81122
11
0.60315
21
-1.85256
0
LINE
8
BLACK
6
CONTINUOUS
10
0.203543
20
-1.84961
11
0.177953
21
-1.84961
0
LINE
8
BLACK
6
CONTINUOUS
10
0.177953
20
-1.84961
11
0.177953
21
-1.80827
0
LINE
8
BLACK
6
CONTINUOUS
10
0.177953
20
-1.80827
11
0.203543
21
-1.80827
0
LINE
8
BLACK
6
CONTINUOUS
10
0.203543
20
-1.80827
11
0.203543
21
-1.84961
0
LINE
8
BLACK
6
CONTINUOUS
10
0.288189
20
-1.84862
11
0.262598
21
-1.84862
0
LINE
8
BLACK
6
CONTINUOUS
10
0.262598
20
-1.84862
11
0.262598
21
-1.80728
0
LINE
8
BLACK
6
CONTINUOUS
10
0.262598
20
-1.80728
11
0.288189
21
-1.80728
0
LINE
8
BLACK
6
CONTINUOUS
10
0.288189
20
-1.80728
11
0.288189
21
-1.84862
0
LINE
8
BLACK
6
CONTINUOUS
10
2.64814
20
-1.76817
11
2.65453
21
-1.77102
0
LINE
8
BLACK
6
CONTINUOUS
10
2.65453
20
-1.77102
11
2.66019
21
-1.77513
0
LINE
8
BLACK
6
CONTINUOUS
10
2.66019
20
-1.77513
11
2.66487
21
-1.78033
0
LINE
8
BLACK
6
CONTINUOUS
10
2.66487
20
-1.78033
11
2.66837
21
-1.78639
0
LINE
8
BLACK
6
CONTINUOUS
10
2.66837
20
-1.78639
11
2.67053
21
-1.79304
0
LINE
8
BLACK
6
CONTINUOUS
10
2.67053
20
-1.79304
11
2.67126
21
-1.8
0
LINE
8
BLACK
6
CONTINUOUS
10
2.67126
20
-1.8
11
2.67053
21
-1.80696
0
LINE
8
BLACK
6
CONTINUOUS
10
2.67053
20
-1.80696
11
2.66837
21
-1.81361
0
LINE
8
BLACK
6
CONTINUOUS
10
2.66837
20
-1.81361
11
2.66487
21
-1.81967
0
LINE
8
BLACK
6
CONTINUOUS
10
2.66487
20
-1.81967
11
2.66019
21
-1.82487
0
LINE
8
BLACK
6
CONTINUOUS
10
2.66019
20
-1.82487
11
2.65453
21
-1.82898
0
LINE
8
BLACK
6
CONTINUOUS
10
2.65453
20
-1.82898
11
2.64814
21
-1.83183
0
LINE
8
BLACK
6
CONTINUOUS
10
2.64814
20
-1.83183
11
2.64129
21
-1.83328
0
LINE
8
BLACK
6
CONTINUOUS
10
2.64129
20
-1.83328
11
2.6343
21
-1.83328
0
LINE
8
BLACK
6
CONTINUOUS
10
2.6343
20
-1.83328
11
2.62745
21
-1.83183
0
LINE
8
BLACK
6
CONTINUOUS
10
2.62745
20
-1.83183
11
2.62106
21
-1.82898
0
LINE
8
BLACK
6
CONTINUOUS
10
2.62106
20
-1.82898
11
2.6154
21
-1.82487
0
LINE
8
BLACK
6
CONTINUOUS
10
2.6154
20
-1.82487
11
2.61072
21
-1.81967
0
LINE
8
BLACK
6
CONTINUOUS
10
2.61072
20
-1.81967
11
2.60722
21
-1.81361
0
LINE
8
BLACK
6
CONTINUOUS
10
2.60722
20
-1.81361
11
2.60506
21
-1.80696
0
LINE
8
BLACK
6
CONTINUOUS
10
2.60506
20
-1.80696
11
2.60433
21
-1.8
0
LINE
8
BLACK
6
CONTINUOUS
10
2.60433
20
-1.8
11
2.60506
21
-1.79304
0
LINE
8
BLACK
6
CONTINUOUS
10
2.60506
20
-1.79304
11
2.60722
21
-1.78639
0
LINE
8
BLACK
6
CONTINUOUS
10
2.60722
20
-1.78639
11
2.61072
21
-1.78033
0
LINE
8
BLACK
6
CONTINUOUS
10
2.61072
20
-1.78033
11
2.6154
21
-1.77513
0
LINE
8
BLACK
6
CONTINUOUS
10
2.6154
20
-1.77513
11
2.62106
21
-1.77102
0
LINE
8
BLACK
6
CONTINUOUS
10
2.62106
20
-1.77102
11
2.62745
21
-1.76817
0
LINE
8
BLACK
6
CONTINUOUS
10
2.62745
20
-1.76817
11
2.6343
21
-1.76672
0
LINE
8
BLACK
6
CONTINUOUS
10
2.6343
20
-1.76672
11
2.64129
21
-1.76672
0
LINE
8
BLACK
6
CONTINUOUS
10
2.64129
20
-1.76672
11
2.64814
21
-1.76817
0
LINE
8
BLACK
6
CONTINUOUS
10
2.64814
20
-1.66817
11
2.65453
21
-1.67102
0
LINE
8
BLACK
6
CONTINUOUS
10
2.65453
20
-1.67102
11
2.66019
21
-1.67513
0
LINE
8
BLACK
6
CONTINUOUS
10
2.66019
20
-1.67513
11
2.66487
21
-1.68033
0
LINE
8
BLACK
6
CONTINUOUS
10
2.66487
20
-1.68033
11
2.66837
21
-1.68639
0
LINE
8
BLACK
6
CONTINUOUS
10
2.66837
20
-1.68639
11
2.67053
21
-1.69304
0
LINE
8
BLACK
6
CONTINUOUS
10
2.67053
20
-1.69304
11
2.67126
21
-1.7
0
LINE
8
BLACK
6
CONTINUOUS
10
2.67126
20
-1.7
11
2.67053
21
-1.70696
0
LINE
8
BLACK
6
CONTINUOUS
10
2.67053
20
-1.70696
11
2.66837
21
-1.71361
0
LINE
8
BLACK
6
CONTINUOUS
10
2.66837
20
-1.71361
11
2.66487
21
-1.71967
0
LINE
8
BLACK
6
CONTINUOUS
10
2.66487
20
-1.71967
11
2.66019
21
-1.72487
0
LINE
8
BLACK
6
CONTINUOUS
10
2.66019
20
-1.72487
11
2.65453
21
-1.72898
0
LINE
8
BLACK
6
CONTINUOUS
10
2.65453
20
-1.72898
11
2.64814
21
-1.73183
0
LINE
8
BLACK
6
CONTINUOUS
10
2.64814
20
-1.73183
11
2.64129
21
-1.73328
0
LINE
8
BLACK
6
CONTINUOUS
10
2.64129
20
-1.73328
11
2.6343
21
-1.73328
0
LINE
8
BLACK
6
CONTINUOUS
10
2.6343
20
-1.73328
11
2.62745
21
-1.73183
0
LINE
8
BLACK
6
CONTINUOUS
10
2.62745
20
-1.73183
11
2.62106
21
-1.72898
0
LINE
8
BLACK
6
CONTINUOUS
10
2.62106
20
-1.72898
11
2.6154
21
-1.72487
0
LINE
8
BLACK
6
CONTINUOUS
10
2.6154
20
-1.72487
11
2.61072
21
-1.71967
0
LINE
8
BLACK
6
CONTINUOUS
10
2.61072
20
-1.71967
11
2.60722
21
-1.71361
0
LINE
8
BLACK
6
CONTINUOUS
10
2.60722
20
-1.71361
11
2.60506
21
-1.70696
0
LINE
8
BLACK
6
CONTINUOUS
10
2.60506
20
-1.70696
11
2.60433
21
-1.7
0
LINE
8
BLACK
6
CONTINUOUS
10
2.60433
20
-1.7
11
2.60506
21
-1.69304
0
LINE
8
BLACK
6
CONTINUOUS
10
2.60506
20
-1.69304
11
2.60722
21
-1.68639
0
LINE
8
BLACK
6
CONTINUOUS
10
2.60722
20
-1.68639
11
2.61072
21
-1.68033
0
LINE
8
BLACK
6
CONTINUOUS
10
2.61072
20
-1.68033
11
2.6154
21
-1.67513
0
LINE
8
BLACK
6
CONTINUOUS
10
2.6154
20
-1.67513
11
2.62106
21
-1.67102
0
LINE
8
BLACK
6
CONTINUOUS
10
2.62106
20
-1.67102
11
2.62745
21
-1.66817
0
LINE
8
BLACK
6
CONTINUOUS
10
2.62745
20
-1.66817
11
2.6343
21
-1.66672
0
LINE
8
BLACK
6
CONTINUOUS
10
2.6343
20
-1.66672
11
2.64129
21
-1.66672
0
LINE
8
BLACK
6
CONTINUOUS
10
2.64129
20
-1.66672
11
2.64814
21
-1.66817
0
LINE
8
BLACK
6
CONTINUOUS
10
0.518504
20
-1.69016
11
0.492913
21
-1.69016
0
LINE
8
BLACK
6
CONTINUOUS
10
0.492913
20
-1.69016
11
0.492913
21
-1.64882
0
LINE
8
BLACK
6
CONTINUOUS
10
0.492913
20
-1.64882
11
0.518504
21
-1.64882
0
LINE
8
BLACK
6
CONTINUOUS
10
0.518504
20
-1.64882
11
0.518504
21
-1.69016
0
LINE
8
BLACK
6
CONTINUOUS
10
0.60315
20
-1.69016
11
0.577559
21
-1.69016
0
LINE
8
BLACK
6
CONTINUOUS
10
0.577559
20
-1.69016
11
0.577559
21
-1.64882
0
LINE
8
BLACK
6
CONTINUOUS
10
0.577559
20
-1.64882
11
0.60315
21
-1.64882
0
LINE
8
BLACK
6
CONTINUOUS
10
0.60315
20
-1.64882
11
0.60315
21
-1.69016
0
LINE
8
BLACK
6
CONTINUOUS
10
0.203543
20
-1.68622
11
0.177953
21
-1.68622
0
LINE
8
BLACK
6
CONTINUOUS
10
0.177953
20
-1.68622
11
0.177953
21
-1.64488
0
LINE
8
BLACK
6
CONTINUOUS
10
0.177953
20
-1.64488
11
0.203543
21
-1.64488
0
LINE
8
BLACK
6
CONTINUOUS
10
0.203543
20
-1.64488
11
0.203543
21
-1.68622
0
LINE
8
BLACK
6
CONTINUOUS
10
0.288189
20
-1.68622
11
0.262598
21
-1.68622
0
LINE
8
BLACK
6
CONTINUOUS
10
0.262598
20
-1.68622
11
0.262598
21
-1.64488
0
LINE
8
BLACK
6
CONTINUOUS
10
0.262598
20
-1.64488
11
0.288189
21
-1.64488
0
LINE
8
BLACK
6
CONTINUOUS
10
0.288189
20
-1.64488
11
0.288189
21
-1.68622
0
LINE
8
BLACK
6
CONTINUOUS
10
2.64814
20
-1.56817
11
2.65453
21
-1.57102
0
LINE
8
BLACK
6
CONTINUOUS
10
2.65453
20
-1.57102
11
2.66019
21
-1.57513
0
LINE
8
BLACK
6
CONTINUOUS
10
2.66019
20
-1.57513
11
2.66487
21
-1.58033
0
LINE
8
BLACK
6
CONTINUOUS
10
2.66487
20
-1.58033
11
2.66837
21
-1.58639
0
LINE
8
BLACK
6
CONTINUOUS
10
2.66837
20
-1.58639
11
2.67053
21
-1.59304
0
LINE
8
BLACK
6
CONTINUOUS
10
2.67053
20
-1.59304
11
2.67126
21
-1.6
0
LINE
8
BLACK
6
CONTINUOUS
10
2.67126
20
-1.6
11
2.67053
21
-1.60696
0
LINE
8
BLACK
6
CONTINUOUS
10
2.67053
20
-1.60696
11
2.66837
21
-1.61361
0
LINE
8
BLACK
6
CONTINUOUS
10
2.66837
20
-1.61361
11
2.66487
21
-1.61967
0
LINE
8
BLACK
6
CONTINUOUS
10
2.66487
20
-1.61967
11
2.66019
21
-1.62487
0
LINE
8
BLACK
6
CONTINUOUS
10
2.66019
20
-1.62487
11
2.65453
21
-1.62898
0
LINE
8
BLACK
6
CONTINUOUS
10
2.65453
20
-1.62898
11
2.64814
21
-1.63183
0
LINE
8
BLACK
6
CONTINUOUS
10
2.64814
20
-1.63183
11
2.64129
21
-1.63328
0
LINE
8
BLACK
6
CONTINUOUS
10
2.64129
20
-1.63328
11
2.6343
21
-1.63328
0
LINE
8
BLACK
6
CONTINUOUS
10
2.6343
20
-1.63328
11
2.62745
21
-1.63183
0
LINE
8
BLACK
6
CONTINUOUS
10
2.62745
20
-1.63183
11
2.62106
21
-1.62898
0
LINE
8
BLACK
6
CONTINUOUS
10
2.62106
20
-1.62898
11
2.6154
21
-1.62487
0
LINE
8
BLACK
6
CONTINUOUS
10
2.6154
20
-1.62487
11
2.61072
21
-1.61967
0
LINE
8
BLACK
6
CONTINUOUS
10
2.61072
20
-1.61967
11
2.60722
21
-1.61361
0
LINE
8
BLACK
6
CONTINUOUS
10
2.60722
20
-1.61361
11
2.60506
21
-1.60696
0
LINE
8
BLACK
6
CONTINUOUS
10
2.60506
20
-1.60696
11
2.60433
21
-1.6
0
LINE
8
BLACK
6
CONTINUOUS
10
2.60433
20
-1.6
11
2.60506
21
-1.59304
0
LINE
8
BLACK
6
CONTINUOUS
10
2.60506
20
-1.59304
11
2.60722
21
-1.58639
0
LINE
8
BLACK
6
CONTINUOUS
10
2.60722
20
-1.58639
11
2.61072
21
-1.58033
0
LINE
8
BLACK
6
CONTINUOUS
10
2.61072
20
-1.58033
11
2.6154
21
-1.57513
0
LINE
8
BLACK
6
CONTINUOUS
10
2.6154
20
-1.57513
11
2.62106
21
-1.57102
0
LINE
8
BLACK
6
CONTINUOUS
10
2.62106
20
-1.57102
11
2.62745
21
-1.56817
0
LINE
8
BLACK
6
CONTINUOUS
10
2.62745
20
-1.56817
11
2.6343
21
-1.56672
0
LINE
8
BLACK
6
CONTINUOUS
10
2.6343
20
-1.56672
11
2.64129
21
-1.56672
0
LINE
8
BLACK
6
CONTINUOUS
10
2.64129
20
-1.56672
11
2.64814
21
-1.56817
0
LINE
8
BLACK
6
CONTINUOUS
10
0.519488
20
-1.54055
11
0.493898
21
-1.54055
0
LINE
8
BLACK
6
CONTINUOUS
10
0.493898
20
-1.54055
11
0.493898
21
-1.49921
0
LINE
8
BLACK
6
CONTINUOUS
10
0.493898
20
-1.49921
11
0.519488
21
-1.49921
0
LINE
8
BLACK
6
CONTINUOUS
10
0.519488
20
-1.49921
11
0.519488
21
-1.54055
0
LINE
8
BLACK
6
CONTINUOUS
10
0.604134
20
-1.53957
11
0.578543
21
-1.53957
0
LINE
8
BLACK
6
CONTINUOUS
10
0.578543
20
-1.53957
11
0.578543
21
-1.49823
0
LINE
8
BLACK
6
CONTINUOUS
10
0.578543
20
-1.49823
11
0.604134
21
-1.49823
0
LINE
8
BLACK
6
CONTINUOUS
10
0.604134
20
-1.49823
11
0.604134
21
-1.53957
0
LINE
8
BLACK
6
CONTINUOUS
10
0.204528
20
-1.53661
11
0.178937
21
-1.53661
0
LINE
8
BLACK
6
CONTINUOUS
10
0.178937
20
-1.53661
11
0.178937
21
-1.49528
0
LINE
8
BLACK
6
CONTINUOUS
10
0.178937
20
-1.49528
11
0.204528
21
-1.49528
0
LINE
8
BLACK
6
CONTINUOUS
10
0.204528
20
-1.49528
11
0.204528
21
-1.53661
0
LINE
8
BLACK
6
CONTINUOUS
10
0.289173
20
-1.53563
11
0.263583
21
-1.53563
0
LINE
8
BLACK
6
CONTINUOUS
10
0.263583
20
-1.53563
11
0.263583
21
-1.49429
0
LINE
8
BLACK
6
CONTINUOUS
10
0.263583
20
-1.49429
11
0.289173
21
-1.49429
0
LINE
8
BLACK
6
CONTINUOUS
10
0.289173
20
-1.49429
11
0.289173
21
-1.53563
0
LINE
8
BLACK
6
CONTINUOUS
10
0.519488
20
-1.37717
11
0.493898
21
-1.37717
0
LINE
8
BLACK
6
CONTINUOUS
10
0.493898
20
-1.37717
11
0.493898
21
-1.33583
0
LINE
8
BLACK
6
CONTINUOUS
10
0.493898
20
-1.33583
11
0.519488
21
-1.33583
0
LINE
8
BLACK
6
CONTINUOUS
10
0.519488
20
-1.33583
11
0.519488
21
-1.37717
0
LINE
8
BLACK
6
CONTINUOUS
10
0.604134
20
-1.37717
11
0.578543
21
-1.37717
0
LINE
8
BLACK
6
CONTINUOUS
10
0.578543
20
-1.37717
11
0.578543
21
-1.33583
0
LINE
8
BLACK
6
CONTINUOUS
10
0.578543
20
-1.33583
11
0.604134
21
-1.33583
0
LINE
8
BLACK
6
CONTINUOUS
10
0.604134
20
-1.33583
11
0.604134
21
-1.37717
0
LINE
8
BLACK
6
CONTINUOUS
10
0.204528
20
-1.37323
11
0.178937
21
-1.37323
0
LINE
8
BLACK
6
CONTINUOUS
10
0.178937
20
-1.37323
11
0.178937
21
-1.33189
0
LINE
8
BLACK
6
CONTINUOUS
10
0.178937
20
-1.33189
11
0.204528
21
-1.33189
0
LINE
8
BLACK
6
CONTINUOUS
10
0.204528
20
-1.33189
11
0.204528
21
-1.37323
0
LINE
8
BLACK
6
CONTINUOUS
10
0.289173
20
-1.37323
11
0.263583
21
-1.37323
0
LINE
8
BLACK
6
CONTINUOUS
10
0.263583
20
-1.37323
11
0.263583
21
-1.33189
0
LINE
8
BLACK
6
CONTINUOUS
10
0.263583
20
-1.33189
11
0.289173
21
-1.33189
0
LINE
8
BLACK
6
CONTINUOUS
10
0.289173
20
-1.33189
11
0.289173
21
-1.37323
0
LINE
8
BLACK
6
CONTINUOUS
10
0.496654
20
-1.05531
11
0.346654
21
-1.05531
0
LINE
8
BLACK
6
CONTINUOUS
10
0.346654
20
-1.05531
11
0.346654
21
-0.905315
0
LINE
8
BLACK
6
CONTINUOUS
10
0.346654
20
-0.905315
11
0.496654
21
-0.905315
0
LINE
8
BLACK
6
CONTINUOUS
10
0.496654
20
-0.905315
11
0.496654
21
-1.05531
0
LINE
8
BLACK
6
CONTINUOUS
10
0.374606
20
-0.858465
11
0.224606
21
-0.858465
0
LINE
8
BLACK
6
CONTINUOUS
10
0.224606
20
-0.858465
11
0.224606
21
-0.708465
0
LINE
8
BLACK
6
CONTINUOUS
10
0.224606
20
-0.708465
11
0.374606
21
-0.708465
0
LINE
8
BLACK
6
CONTINUOUS
10
0.374606
20
-0.708465
11
0.374606
21
-0.858465
0
LINE
8
BLACK
6
CONTINUOUS
10
0.618701
20
-0.858465
11
0.468701
21
-0.858465
0
LINE
8
BLACK
6
CONTINUOUS
10
0.468701
20
-0.858465
11
0.468701
21
-0.708465
0
LINE
8
BLACK
6
CONTINUOUS
10
0.468701
20
-0.708465
11
0.618701
21
-0.708465
0
LINE
8
BLACK
6
CONTINUOUS
10
0.618701
20
-0.708465
11
0.618701
21
-0.858465
0
LINE
8
BLACK
6
CONTINUOUS
10
1.28185
20
-0.638939
11
1.28818
21
-0.641152
0
LINE
8
BLACK
6
CONTINUOUS
10
1.28818
20
-0.641152
11
1.29385
21
-0.644717
0
LINE
8
BLACK
6
CONTINUOUS
10
1.29385
20
-0.644717
11
1.29859
21
-0.649455
0
LINE
8
BLACK
6
CONTINUOUS
10
1.29859
20
-0.649455
11
1.30215
21
-0.655128
0
LINE
8
BLACK
6
CONTINUOUS
10
1.30215
20
-0.655128
11
1.30437
21
-0.661452
0
LINE
8
BLACK
6
CONTINUOUS
10
1.30437
20
-0.661452
11
1.30512
21
-0.66811
0
LINE
8
BLACK
6
CONTINUOUS
10
1.30512
20
-0.66811
11
1.30437
21
-0.674768
0
LINE
8
BLACK
6
CONTINUOUS
10
1.30437
20
-0.674768
11
1.30215
21
-0.681093
0
LINE
8
BLACK
6
CONTINUOUS
10
1.30215
20
-0.681093
11
1.29859
21
-0.686766
0
LINE
8
BLACK
6
CONTINUOUS
10
1.29859
20
-0.686766
11
1.29385
21
-0.691504
0
LINE
8
BLACK
6
CONTINUOUS
10
1.29385
20
-0.691504
11
1.28818
21
-0.695068
0
LINE
8
BLACK
6
CONTINUOUS
10
1.28818
20
-0.695068
11
1.28185
21
-0.697281
0
LINE
8
BLACK
6
CONTINUOUS
10
1.28185
20
-0.697281
11
1.2752
21
-0.698031
0
LINE
8
BLACK
6
CONTINUOUS
10
1.2752
20
-0.698031
11
1.26854
21
-0.697281
0
LINE
8
BLACK
6
CONTINUOUS
10
1.26854
20
-0.697281
11
1.26221
21
-0.695068
0
LINE
8
BLACK
6
CONTINUOUS
10
1.26221
20
-0.695068
11
1.25654
21
-0.691504
0
LINE
8
BLACK
6
CONTINUOUS
10
1.25654
20
-0.691504
11
1.2518
21
-0.686766
0
LINE
8
BLACK
6
CONTINUOUS
10
1.2518
20
-0.686766
11
1.24824
21
-0.681093
0
LINE
8
BLACK
6
CONTINUOUS
10
1.24824
20
-0.681093
11
1.24603
21
-0.674768
0
LINE
8
BLACK
6
CONTINUOUS
10
1.24603
20
-0.674768
11
1.24528
21
-0.66811
0
LINE
8
BLACK
6
CONTINUOUS
10
1.24528
20
-0.66811
11
1.24603
21
-0.661452
0
LINE
8
BLACK
6
CONTINUOUS
10
1.24603
20
-0.661452
11
1.24824
21
-0.655128
0
LINE
8
BLACK
6
CONTINUOUS
10
1.24824
20
-0.655128
11
1.2518
21
-0.649455
0
LINE
8
BLACK
6
CONTINUOUS
10
1.2518
20
-0.649455
11
1.25654
21
-0.644717
0
LINE
8
BLACK
6
CONTINUOUS
10
1.25654
20
-0.644717
11
1.26221
21
-0.641152
0
LINE
8
BLACK
6
CONTINUOUS
10
1.26221
20
-0.641152
11
1.26854
21
-0.638939
0
LINE
8
BLACK
6
CONTINUOUS
10
1.26854
20
-0.638939
11
1.2752
21
-0.638189
0
LINE
8
BLACK
6
CONTINUOUS
10
1.2752
20
-0.638189
11
1.28185
21
-0.638939
0
LINE
8
BLACK
6
CONTINUOUS
10
1.38185
20
-0.638939
11
1.38818
21
-0.641152
0
LINE
8
BLACK
6
CONTINUOUS
10
1.38818
20
-0.641152
11
1.39385
21
-0.644717
0
LINE
8
BLACK
6
CONTINUOUS
10
1.39385
20
-0.644717
11
1.39859
21
-0.649455
0
LINE
8
BLACK
6
CONTINUOUS
10
1.39859
20
-0.649455
11
1.40215
21
-0.655128
0
LINE
8
BLACK
6
CONTINUOUS
10
1.40215
20
-0.655128
11
1.40437
21
-0.661452
0
LINE
8
BLACK
6
CONTINUOUS
10
1.40437
20
-0.661452
11
1.40512
21
-0.66811
0
LINE
8
BLACK
6
CONTINUOUS
10
1.40512
20
-0.66811
11
1.40437
21
-0.674768
0
LINE
8
BLACK
6
CONTINUOUS
10
1.40437
20
-0.674768
11
1.40215
21
-0.681093
0
LINE
8
BLACK
6
CONTINUOUS
10
1.40215
20
-0.681093
11
1.39859
21
-0.686766
0
LINE
8
BLACK
6
CONTINUOUS
10
1.39859
20
-0.686766
11
1.39385
21
-0.691504
0
LINE
8
BLACK
6
CONTINUOUS
10
1.39385
20
-0.691504
11
1.38818
21
-0.695068
0
LINE
8
BLACK
6
CONTINUOUS
10
1.38818
20
-0.695068
11
1.38185
21
-0.697281
0
LINE
8
BLACK
6
CONTINUOUS
10
1.38185
20
-0.697281
11
1.3752
21
-0.698031
0
LINE
8
BLACK
6
CONTINUOUS
10
1.3752
20
-0.698031
11
1.36854
21
-0.697281
0
LINE
8
BLACK
6
CONTINUOUS
10
1.36854
20
-0.697281
11
1.36221
21
-0.695068
0
LINE
8
BLACK
6
CONTINUOUS
10
1.36221
20
-0.695068
11
1.35654
21
-0.691504
0
LINE
8
BLACK
6
CONTINUOUS
10
1.35654
20
-0.691504
11
1.3518
21
-0.686766
0
LINE
8
BLACK
6
CONTINUOUS
10
1.3518
20
-0.686766
11
1.34824
21
-0.681093
0
LINE
8
BLACK
6
CONTINUOUS
10
1.34824
20
-0.681093
11
1.34603
21
-0.674768
0
LINE
8
BLACK
6
CONTINUOUS
10
1.34603
20
-0.674768
11
1.34528
21
-0.66811
0
LINE
8
BLACK
6
CONTINUOUS
10
1.34528
20
-0.66811
11
1.34603
21
-0.661452
0
LINE
8
BLACK
6
CONTINUOUS
10
1.34603
20
-0.661452
11
1.34824
21
-0.655128
0
LINE
8
BLACK
6
CONTINUOUS
10
1.34824
20
-0.655128
11
1.3518
21
-0.649455
0
LINE
8
BLACK
6
CONTINUOUS
10
1.3518
20
-0.649455
11
1.35654
21
-0.644717
0
LINE
8
BLACK
6
CONTINUOUS
10
1.35654
20
-0.644717
11
1.36221
21
-0.641152
0
LINE
8
BLACK
6
CONTINUOUS
10
1.36221
20
-0.641152
11
1.36854
21
-0.638939
0
LINE
8
BLACK
6
CONTINUOUS
10
1.36854
20
-0.638939
11
1.3752
21
-0.638189
0
LINE
8
BLACK
6
CONTINUOUS
10
1.3752
20
-0.638189
11
1.38185
21
-0.638939
0
LINE
8
BLACK
6
CONTINUOUS
10
1.50512
20
-0.698031
11
1.44528
21
-0.698031
0
LINE
8
BLACK
6
CONTINUOUS
10
1.44528
20
-0.698031
11
1.44528
21
-0.638189
0
LINE
8
BLACK
6
CONTINUOUS
10
1.44528
20
-0.638189
11
1.50512
21
-0.638189
0
LINE
8
BLACK
6
CONTINUOUS
10
1.50512
20
-0.638189
11
1.50512
21
-0.698031
0
LINE
8
BLACK
6
CONTINUOUS
10
2.72717
20
-0.694094
11
2.66024
21
-0.694094
0
LINE
8
BLACK
6
CONTINUOUS
10
2.66024
20
-0.694094
11
2.66024
21
-0.627165
0
LINE
8
BLACK
6
CONTINUOUS
10
2.66024
20
-0.627165
11
2.72717
21
-0.627165
0
LINE
8
BLACK
6
CONTINUOUS
10
2.72717
20
-0.627165
11
2.72717
21
-0.694094
0
LINE
8
BLACK
6
CONTINUOUS
10
1.23185
20
-0.538939
11
1.23818
21
-0.541152
0
LINE
8
BLACK
6
CONTINUOUS
10
1.23818
20
-0.541152
11
1.24385
21
-0.544717
0
LINE
8
BLACK
6
CONTINUOUS
10
1.24385
20
-0.544717
11
1.24859
21
-0.549455
0
LINE
8
BLACK
6
CONTINUOUS
10
1.24859
20
-0.549455
11
1.25215
21
-0.555128
0
LINE
8
BLACK
6
CONTINUOUS
10
1.25215
20
-0.555128
11
1.25437
21
-0.561452
0
LINE
8
BLACK
6
CONTINUOUS
10
1.25437
20
-0.561452
11
1.25512
21
-0.56811
0
LINE
8
BLACK
6
CONTINUOUS
10
1.25512
20
-0.56811
11
1.25437
21
-0.574768
0
LINE
8
BLACK
6
CONTINUOUS
10
1.25437
20
-0.574768
11
1.25215
21
-0.581093
0
LINE
8
BLACK
6
CONTINUOUS
10
1.25215
20
-0.581093
11
1.24859
21
-0.586766
0
LINE
8
BLACK
6
CONTINUOUS
10
1.24859
20
-0.586766
11
1.24385
21
-0.591504
0
LINE
8
BLACK
6
CONTINUOUS
10
1.24385
20
-0.591504
11
1.23818
21
-0.595068
0
LINE
8
BLACK
6
CONTINUOUS
10
1.23818
20
-0.595068
11
1.23185
21
-0.597281
0
LINE
8
BLACK
6
CONTINUOUS
10
1.23185
20
-0.597281
11
1.2252
21
-0.598031
0
LINE
8
BLACK
6
CONTINUOUS
10
1.2252
20
-0.598031
11
1.21854
21
-0.597281
0
LINE
8
BLACK
6
CONTINUOUS
10
1.21854
20
-0.597281
11
1.21221
21
-0.595068
0
LINE
8
BLACK
6
CONTINUOUS
10
1.21221
20
-0.595068
11
1.20654
21
-0.591504
0
LINE
8
BLACK
6
CONTINUOUS
10
1.20654
20
-0.591504
11
1.2018
21
-0.586766
0
LINE
8
BLACK
6
CONTINUOUS
10
1.2018
20
-0.586766
11
1.19824
21
-0.581093
0
LINE
8
BLACK
6
CONTINUOUS
10
1.19824
20
-0.581093
11
1.19603
21
-0.574768
0
LINE
8
BLACK
6
CONTINUOUS
10
1.19603
20
-0.574768
11
1.19528
21
-0.56811
0
LINE
8
BLACK
6
CONTINUOUS
10
1.19528
20
-0.56811
11
1.19603
21
-0.561452
0
LINE
8
BLACK
6
CONTINUOUS
10
1.19603
20
-0.561452
11
1.19824
21
-0.555128
0
LINE
8
BLACK
6
CONTINUOUS
10
1.19824
20
-0.555128
11
1.2018
21
-0.549455
0
LINE
8
BLACK
6
CONTINUOUS
10
1.2018
20
-0.549455
11
1.20654
21
-0.544717
0
LINE
8
BLACK
6
CONTINUOUS
10
1.20654
20
-0.544717
11
1.21221
21
-0.541152
0
LINE
8
BLACK
6
CONTINUOUS
10
1.21221
20
-0.541152
11
1.21854
21
-0.538939
0
LINE
8
BLACK
6
CONTINUOUS
10
1.21854
20
-0.538939
11
1.2252
21
-0.538189
0
LINE
8
BLACK
6
CONTINUOUS
10
1.2252
20
-0.538189
11
1.23185
21
-0.538939
0
LINE
8
BLACK
6
CONTINUOUS
10
1.33185
20
-0.538939
11
1.33818
21
-0.541152
0
LINE
8
BLACK
6
CONTINUOUS
10
1.33818
20
-0.541152
11
1.34385
21
-0.544717
0
LINE
8
BLACK
6
CONTINUOUS
10
1.34385
20
-0.544717
11
1.34859
21
-0.549455
0
LINE
8
BLACK
6
CONTINUOUS
10
1.34859
20
-0.549455
11
1.35215
21
-0.555128
0
LINE
8
BLACK
6
CONTINUOUS
10
1.35215
20
-0.555128
11
1.35437
21
-0.561452
0
LINE
8
BLACK
6
CONTINUOUS
10
1.35437
20
-0.561452
11
1.35512
21
-0.56811
0
LINE
8
BLACK
6
CONTINUOUS
10
1.35512
20
-0.56811
11
1.35437
21
-0.574768
0
LINE
8
BLACK
6
CONTINUOUS
10
1.35437
20
-0.574768
11
1.35215
21
-0.581093
0
LINE
8
BLACK
6
CONTINUOUS
10
1.35215
20
-0.581093
11
1.34859
21
-0.586766
0
LINE
8
BLACK
6
CONTINUOUS
10
1.34859
20
-0.586766
11
1.34385
21
-0.591504
0
LINE
8
BLACK
6
CONTINUOUS
10
1.34385
20
-0.591504
11
1.33818
21
-0.595068
0
LINE
8
BLACK
6
CONTINUOUS
10
1.33818
20
-0.595068
11
1.33185
21
-0.597281
0
LINE
8
BLACK
6
CONTINUOUS
10
1.33185
20
-0.597281
11
1.3252
21
-0.598031
0
LINE
8
BLACK
6
CONTINUOUS
10
1.3252
20
-0.598031
11
1.31854
21
-0.597281
0
LINE
8
BLACK
6
CONTINUOUS
10
1.31854
20
-0.597281
11
1.31221
21
-0.595068
0
LINE
8
BLACK
6
CONTINUOUS
10
1.31221
20
-0.595068
11
1.30654
21
-0.591504
0
LINE
8
BLACK
6
CONTINUOUS
10
1.30654
20
-0.591504
11
1.3018
21
-0.586766
0
LINE
8
BLACK
6
CONTINUOUS
10
1.3018
20
-0.586766
11
1.29824
21
-0.581093
0
LINE
8
BLACK
6
CONTINUOUS
10
1.29824
20
-0.581093
11
1.29603
21
-0.574768
0
LINE
8
BLACK
6
CONTINUOUS
10
1.29603
20
-0.574768
11
1.29528
21
-0.56811
0
LINE
8
BLACK
6
CONTINUOUS
10
1.29528
20
-0.56811
11
1.29603
21
-0.561452
0
LINE
8
BLACK
6
CONTINUOUS
10
1.29603
20
-0.561452
11
1.29824
21
-0.555128
0
LINE
8
BLACK
6
CONTINUOUS
10
1.29824
20
-0.555128
11
1.3018
21
-0.549455
0
LINE
8
BLACK
6
CONTINUOUS
10
1.3018
20
-0.549455
11
1.30654
21
-0.544717
0
LINE
8
BLACK
6
CONTINUOUS
10
1.30654
20
-0.544717
11
1.31221
21
-0.541152
0
LINE
8
BLACK
6
CONTINUOUS
10
1.31221
20
-0.541152
11
1.31854
21
-0.538939
0
LINE
8
BLACK
6
CONTINUOUS
10
1.31854
20
-0.538939
11
1.3252
21
-0.538189
0
LINE
8
BLACK
6
CONTINUOUS
10
1.3252
20
-0.538189
11
1.33185
21
-0.538939
0
LINE
8
BLACK
6
CONTINUOUS
10
1.43185
20
-0.538939
11
1.43818
21
-0.541152
0
LINE
8
BLACK
6
CONTINUOUS
10
1.43818
20
-0.541152
11
1.44385
21
-0.544717
0
LINE
8
BLACK
6
CONTINUOUS
10
1.44385
20
-0.544717
11
1.44859
21
-0.549455
0
LINE
8
BLACK
6
CONTINUOUS
10
1.44859
20
-0.549455
11
1.45215
21
-0.555128
0
LINE
8
BLACK
6
CONTINUOUS
10
1.45215
20
-0.555128
11
1.45437
21
-0.561452
0
LINE
8
BLACK
6
CONTINUOUS
10
1.45437
20
-0.561452
11
1.45512
21
-0.56811
0
LINE
8
BLACK
6
CONTINUOUS
10
1.45512
20
-0.56811
11
1.45437
21
-0.574768
0
LINE
8
BLACK
6
CONTINUOUS
10
1.45437
20
-0.574768
11
1.45215
21
-0.581093
0
LINE
8
BLACK
6
CONTINUOUS
10
1.45215
20
-0.581093
11
1.44859
21
-0.586766
0
LINE
8
BLACK
6
CONTINUOUS
10
1.44859
20
-0.586766
11
1.44385
21
-0.591504
0
LINE
8
BLACK
6
CONTINUOUS
10
1.44385
20
-0.591504
11
1.43818
21
-0.595068
0
LINE
8
BLACK
6
CONTINUOUS
10
1.43818
20
-0.595068
11
1.43185
21
-0.597281
0
LINE
8
BLACK
6
CONTINUOUS
10
1.43185
20
-0.597281
11
1.4252
21
-0.598031
0
LINE
8
BLACK
6
CONTINUOUS
10
1.4252
20
-0.598031
11
1.41854
21
-0.597281
0
LINE
8
BLACK
6
CONTINUOUS
10
1.41854
20
-0.597281
11
1.41221
21
-0.595068
0
LINE
8
BLACK
6
CONTINUOUS
10
1.41221
20
-0.595068
11
1.40654
21
-0.591504
0
LINE
8
BLACK
6
CONTINUOUS
10
1.40654
20
-0.591504
11
1.4018
21
-0.586766
0
LINE
8
BLACK
6
CONTINUOUS
10
1.4018
20
-0.586766
11
1.39824
21
-0.581093
0
LINE
8
BLACK
6
CONTINUOUS
10
1.39824
20
-0.581093
11
1.39603
21
-0.574768
0
LINE
8
BLACK
6
CONTINUOUS
10
1.39603
20
-0.574768
11
1.39528
21
-0.56811
0
LINE
8
BLACK
6
CONTINUOUS
10
1.39528
20
-0.56811
11
1.39603
21
-0.561452
0
LINE
8
BLACK
6
CONTINUOUS
10
1.39603
20
-0.561452
11
1.39824
21
-0.555128
0
LINE
8
BLACK
6
CONTINUOUS
10
1.39824
20
-0.555128
11
1.4018
21
-0.549455
0
LINE
8
BLACK
6
CONTINUOUS
10
1.4018
20
-0.549455
11
1.40654
21
-0.544717
0
LINE
8
BLACK
6
CONTINUOUS
10
1.40654
20
-0.544717
11
1.41221
21
-0.541152
0
LINE
8
BLACK
6
CONTINUOUS
10
1.41221
20
-0.541152
11
1.41854
21
-0.538939
0
LINE
8
BLACK
6
CONTINUOUS
10
1.41854
20
-0.538939
11
1.4252
21
-0.538189
0
LINE
8
BLACK
6
CONTINUOUS
10
1.4252
20
-0.538189
11
1.43185
21
-0.538939
0
LINE
8
BLACK
6
CONTINUOUS
10
2.70404
20
-0.528803
11
2.71043
21
-0.531649
0
LINE
8
BLACK
6
CONTINUOUS
10
2.71043
20
-0.531649
11
2.71609
21
-0.535761
0
LINE
8
BLACK
6
CONTINUOUS
10
2.71609
20
-0.535761
11
2.72077
21
-0.54096
0
LINE
8
BLACK
6
CONTINUOUS
10
2.72077
20
-0.54096
11
2.72427
21
-0.547019
0
LINE
8
BLACK
6
CONTINUOUS
10
2.72427
20
-0.547019
11
2.72643
21
-0.553672
0
LINE
8
BLACK
6
CONTINUOUS
10
2.72643
20
-0.553672
11
2.72717
21
-0.56063
0
LINE
8
BLACK
6
CONTINUOUS
10
2.72717
20
-0.56063
11
2.72643
21
-0.567588
0
LINE
8
BLACK
6
CONTINUOUS
10
2.72643
20
-0.567588
11
2.72427
21
-0.574241
0
LINE
8
BLACK
6
CONTINUOUS
10
2.72427
20
-0.574241
11
2.72077
21
-0.5803
0
LINE
8
BLACK
6
CONTINUOUS
10
2.72077
20
-0.5803
11
2.71609
21
-0.585499
0
LINE
8
BLACK
6
CONTINUOUS
10
2.71609
20
-0.585499
11
2.71043
21
-0.589611
0
LINE
8
BLACK
6
CONTINUOUS
10
2.71043
20
-0.589611
11
2.70404
21
-0.592457
0
LINE
8
BLACK
6
CONTINUOUS
10
2.70404
20
-0.592457
11
2.6972
21
-0.593911
0
LINE
8
BLACK
6
CONTINUOUS
10
2.6972
20
-0.593911
11
2.6902
21
-0.593911
0
LINE
8
BLACK
6
CONTINUOUS
10
2.6902
20
-0.593911
11
2.68336
21
-0.592457
0
LINE
8
BLACK
6
CONTINUOUS
10
2.68336
20
-0.592457
11
2.67697
21
-0.589611
0
LINE
8
BLACK
6
CONTINUOUS
10
2.67697
20
-0.589611
11
2.67131
21
-0.585499
0
LINE
8
BLACK
6
CONTINUOUS
10
2.67131
20
-0.585499
11
2.66663
21
-0.5803
0
LINE
8
BLACK
6
CONTINUOUS
10
2.66663
20
-0.5803
11
2.66313
21
-0.574241
0
LINE
8
BLACK
6
CONTINUOUS
10
2.66313
20
-0.574241
11
2.66097
21
-0.567588
0
LINE
8
BLACK
6
CONTINUOUS
10
2.66097
20
-0.567588
11
2.66024
21
-0.56063
0
LINE
8
BLACK
6
CONTINUOUS
10
2.66024
20
-0.56063
11
2.66097
21
-0.553672
0
LINE
8
BLACK
6
CONTINUOUS
10
2.66097
20
-0.553672
11
2.66313
21
-0.547019
0
LINE
8
BLACK
6
CONTINUOUS
10
2.66313
20
-0.547019
11
2.66663
21
-0.54096
0
LINE
8
BLACK
6
CONTINUOUS
10
2.66663
20
-0.54096
11
2.67131
21
-0.535761
0
LINE
8
BLACK
6
CONTINUOUS
10
2.67131
20
-0.535761
11
2.67697
21
-0.531649
0
LINE
8
BLACK
6
CONTINUOUS
10
2.67697
20
-0.531649
11
2.68336
21
-0.528803
0
LINE
8
BLACK
6
CONTINUOUS
10
2.68336
20
-0.528803
11
2.6902
21
-0.527349
0
LINE
8
BLACK
6
CONTINUOUS
10
2.6902
20
-0.527349
11
2.6972
21
-0.527349
0
LINE
8
BLACK
6
CONTINUOUS
10
2.6972
20
-0.527349
11
2.70404
21
-0.528803
0
LINE
8
BLACK
6
CONTINUOUS
10
1.77047
20
-0.538583
11
1.70354
21
-0.538583
0
LINE
8
BLACK
6
CONTINUOUS
10
1.70354
20
-0.538583
11
1.70354
21
-0.471654
0
LINE
8
BLACK
6
CONTINUOUS
10
1.70354
20
-0.471654
11
1.77047
21
-0.471654
0
LINE
8
BLACK
6
CONTINUOUS
10
1.77047
20
-0.471654
11
1.77047
21
-0.538583
0
LINE
8
BLACK
6
CONTINUOUS
10
1.91614
20
-0.538583
11
1.84921
21
-0.538583
0
LINE
8
BLACK
6
CONTINUOUS
10
1.84921
20
-0.538583
11
1.84921
21
-0.471654
0
LINE
8
BLACK
6
CONTINUOUS
10
1.84921
20
-0.471654
11
1.91614
21
-0.471654
0
LINE
8
BLACK
6
CONTINUOUS
10
1.91614
20
-0.471654
11
1.91614
21
-0.538583
0
LINE
8
BLACK
6
CONTINUOUS
10
2.70404
20
-0.428803
11
2.71043
21
-0.431649
0
LINE
8
BLACK
6
CONTINUOUS
10
2.71043
20
-0.431649
11
2.71609
21
-0.435761
0
LINE
8
BLACK
6
CONTINUOUS
10
2.71609
20
-0.435761
11
2.72077
21
-0.44096
0
LINE
8
BLACK
6
CONTINUOUS
10
2.72077
20
-0.44096
11
2.72427
21
-0.447019
0
LINE
8
BLACK
6
CONTINUOUS
10
2.72427
20
-0.447019
11
2.72643
21
-0.453672
0
LINE
8
BLACK
6
CONTINUOUS
10
2.72643
20
-0.453672
11
2.72717
21
-0.46063
0
LINE
8
BLACK
6
CONTINUOUS
10
2.72717
20
-0.46063
11
2.72643
21
-0.467588
0
LINE
8
BLACK
6
CONTINUOUS
10
2.72643
20
-0.467588
11
2.72427
21
-0.474241
0
LINE
8
BLACK
6
CONTINUOUS
10
2.72427
20
-0.474241
11
2.72077
21
-0.4803
0
LINE
8
BLACK
6
CONTINUOUS
10
2.72077
20
-0.4803
11
2.71609
21
-0.485499
0
LINE
8
BLACK
6
CONTINUOUS
10
2.71609
20
-0.485499
11
2.71043
21
-0.489611
0
LINE
8
BLACK
6
CONTINUOUS
10
2.71043
20
-0.489611
11
2.70404
21
-0.492457
0
LINE
8
BLACK
6
CONTINUOUS
10
2.70404
20
-0.492457
11
2.6972
21
-0.493911
0
LINE
8
BLACK
6
CONTINUOUS
10
2.6972
20
-0.493911
11
2.6902
21
-0.493911
0
LINE
8
BLACK
6
CONTINUOUS
10
2.6902
20
-0.493911
11
2.68336
21
-0.492457
0
LINE
8
BLACK
6
CONTINUOUS
10
2.68336
20
-0.492457
11
2.67697
21
-0.489611
0
LINE
8
BLACK
6
CONTINUOUS
10
2.67697
20
-0.489611
11
2.67131
21
-0.485499
0
LINE
8
BLACK
6
CONTINUOUS
10
2.67131
20
-0.485499
11
2.66663
21
-0.4803
0
LINE
8
BLACK
6
CONTINUOUS
10
2.66663
20
-0.4803
11
2.66313
21
-0.474241
0
LINE
8
BLACK
6
CONTINUOUS
10
2.66313
20
-0.474241
11
2.66097
21
-0.467588
0
LINE
8
BLACK
6
CONTINUOUS
10
2.66097
20
-0.467588
11
2.66024
21
-0.46063
0
LINE
8
BLACK
6
CONTINUOUS
10
2.66024
20
-0.46063
11
2.66097
21
-0.453672
0
LINE
8
BLACK
6
CONTINUOUS
10
2.66097
20
-0.453672
11
2.66313
21
-0.447019
0
LINE
8
BLACK
6
CONTINUOUS
10
2.66313
20
-0.447019
11
2.66663
21
-0.44096
0
LINE
8
BLACK
6
CONTINUOUS
10
2.66663
20
-0.44096
11
2.67131
21
-0.435761
0
LINE
8
BLACK
6
CONTINUOUS
10
2.67131
20
-0.435761
11
2.67697
21
-0.431649
0
LINE
8
BLACK
6
CONTINUOUS
10
2.67697
20
-0.431649
11
2.68336
21
-0.428803
0
LINE
8
BLACK
6
CONTINUOUS
10
2.68336
20
-0.428803
11
2.6902
21
-0.427349
0
LINE
8
BLACK
6
CONTINUOUS
10
2.6902
20
-0.427349
11
2.6972
21
-0.427349
0
LINE
8
BLACK
6
CONTINUOUS
10
2.6972
20
-0.427349
11
2.70404
21
-0.428803
0
LINE
8
BLACK
6
CONTINUOUS
10
0.579722
20
-0.411215
11
0.585925
21
-0.413977
0
LINE
8
BLACK
6
CONTINUOUS
10
0.585925
20
-0.413977
11
0.591419
21
-0.417968
0
LINE
8
BLACK
6
CONTINUOUS
10
0.591419
20
-0.417968
11
0.595962
21
-0.423015
0
LINE
8
BLACK
6
CONTINUOUS
10
0.595962
20
-0.423015
11
0.599357
21
-0.428895
0
LINE
8
BLACK
6
CONTINUOUS
10
0.599357
20
-0.428895
11
0.601456
21
-0.435353
0
LINE
8
BLACK
6
CONTINUOUS
10
0.601456
20
-0.435353
11
0.602165
21
-0.442106
0
LINE
8
BLACK
6
CONTINUOUS
10
0.602165
20
-0.442106
11
0.601456
21
-0.448859
0
LINE
8
BLACK
6
CONTINUOUS
10
0.601456
20
-0.448859
11
0.599357
21
-0.455317
0
LINE
8
BLACK
6
CONTINUOUS
10
0.599357
20
-0.455317
11
0.595962
21
-0.461197
0
LINE
8
BLACK
6
CONTINUOUS
10
0.595962
20
-0.461197
11
0.591419
21
-0.466244
0
LINE
8
BLACK
6
CONTINUOUS
10
0.591419
20
-0.466244
11
0.585925
21
-0.470235
0
LINE
8
BLACK
6
CONTINUOUS
10
0.585925
20
-0.470235
11
0.579722
21
-0.472997
0
LINE
8
BLACK
6
CONTINUOUS
10
0.579722
20
-0.472997
11
0.57308
21
-0.474408
0
LINE
8
BLACK
6
CONTINUOUS
10
0.57308
20
-0.474408
11
0.56629
21
-0.474408
0
LINE
8
BLACK
6
CONTINUOUS
10
0.56629
20
-0.474408
11
0.559648
21
-0.472997
0
LINE
8
BLACK
6
CONTINUOUS
10
0.559648
20
-0.472997
11
0.553445
21
-0.470235
0
LINE
8
BLACK
6
CONTINUOUS
10
0.553445
20
-0.470235
11
0.547951
21
-0.466244
0
LINE
8
BLACK
6
CONTINUOUS
10
0.547951
20
-0.466244
11
0.543408
21
-0.461197
0
LINE
8
BLACK
6
CONTINUOUS
10
0.543408
20
-0.461197
11
0.540013
21
-0.455317
0
LINE
8
BLACK
6
CONTINUOUS
10
0.540013
20
-0.455317
11
0.537914
21
-0.448859
0
LINE
8
BLACK
6
CONTINUOUS
10
0.537914
20
-0.448859
11
0.537205
21
-0.442106
0
LINE
8
BLACK
6
CONTINUOUS
10
0.537205
20
-0.442106
11
0.537914
21
-0.435353
0
LINE
8
BLACK
6
CONTINUOUS
10
0.537914
20
-0.435353
11
0.540013
21
-0.428895
0
LINE
8
BLACK
6
CONTINUOUS
10
0.540013
20
-0.428895
11
0.543408
21
-0.423015
0
LINE
8
BLACK
6
CONTINUOUS
10
0.543408
20
-0.423015
11
0.547951
21
-0.417968
0
LINE
8
BLACK
6
CONTINUOUS
10
0.547951
20
-0.417968
11
0.553445
21
-0.413977
0
LINE
8
BLACK
6
CONTINUOUS
10
0.553445
20
-0.413977
11
0.559648
21
-0.411215
0
LINE
8
BLACK
6
CONTINUOUS
10
0.559648
20
-0.411215
11
0.56629
21
-0.409804
0
LINE
8
BLACK
6
CONTINUOUS
10
0.56629
20
-0.409804
11
0.57308
21
-0.409804
0
LINE
8
BLACK
6
CONTINUOUS
10
0.57308
20
-0.409804
11
0.579722
21
-0.411215
0
LINE
8
BLACK
6
CONTINUOUS
10
0.847439
20
-0.411215
11
0.853642
21
-0.413977
0
LINE
8
BLACK
6
CONTINUOUS
10
0.853642
20
-0.413977
11
0.859135
21
-0.417968
0
LINE
8
BLACK
6
CONTINUOUS
10
0.859135
20
-0.417968
11
0.863679
21
-0.423015
0
LINE
8
BLACK
6
CONTINUOUS
10
0.863679
20
-0.423015
11
0.867074
21
-0.428895
0
LINE
8
BLACK
6
CONTINUOUS
10
0.867074
20
-0.428895
11
0.869172
21
-0.435353
0
LINE
8
BLACK
6
CONTINUOUS
10
0.869172
20
-0.435353
11
0.869882
21
-0.442106
0
LINE
8
BLACK
6
CONTINUOUS
10
0.869882
20
-0.442106
11
0.869172
21
-0.448859
0
LINE
8
BLACK
6
CONTINUOUS
10
0.869172
20
-0.448859
11
0.867074
21
-0.455317
0
LINE
8
BLACK
6
CONTINUOUS
10
0.867074
20
-0.455317
11
0.863679
21
-0.461197
0
LINE
8
BLACK
6
CONTINUOUS
10
0.863679
20
-0.461197
11
0.859135
21
-0.466244
0
LINE
8
BLACK
6
CONTINUOUS
10
0.859135
20
-0.466244
11
0.853642
21
-0.470235
0
LINE
8
BLACK
6
CONTINUOUS
10
0.853642
20
-0.470235
11
0.847439
21
-0.472997
0
LINE
8
BLACK
6
CONTINUOUS
10
0.847439
20
-0.472997
11
0.840797
21
-0.474408
0
LINE
8
BLACK
6
CONTINUOUS
10
0.840797
20
-0.474408
11
0.834006
21
-0.474408
0
LINE
8
BLACK
6
CONTINUOUS
10
0.834006
20
-0.474408
11
0.827365
21
-0.472997
0
LINE
8
BLACK
6
CONTINUOUS
10
0.827365
20
-0.472997
11
0.821161
21
-0.470235
0
LINE
8
BLACK
6
CONTINUOUS
10
0.821161
20
-0.470235
11
0.815668
21
-0.466244
0
LINE
8
BLACK
6
CONTINUOUS
10
0.815668
20
-0.466244
11
0.811124
21
-0.461197
0
LINE
8
BLACK
6
CONTINUOUS
10
0.811124
20
-0.461197
11
0.807729
21
-0.455317
0
LINE
8
BLACK
6
CONTINUOUS
10
0.807729
20
-0.455317
11
0.805631
21
-0.448859
0
LINE
8
BLACK
6
CONTINUOUS
10
0.805631
20
-0.448859
11
0.804921
21
-0.442106
0
LINE
8
BLACK
6
CONTINUOUS
10
0.804921
20
-0.442106
11
0.805631
21
-0.435353
0
LINE
8
BLACK
6
CONTINUOUS
10
0.805631
20
-0.435353
11
0.807729
21
-0.428895
0
LINE
8
BLACK
6
CONTINUOUS
10
0.807729
20
-0.428895
11
0.811124
21
-0.423015
0
LINE
8
BLACK
6
CONTINUOUS
10
0.811124
20
-0.423015
11
0.815668
21
-0.417968
0
LINE
8
BLACK
6
CONTINUOUS
10
0.815668
20
-0.417968
11
0.821161
21
-0.413977
0
LINE
8
BLACK
6
CONTINUOUS
10
0.821161
20
-0.413977
11
0.827365
21
-0.411215
0
LINE
8
BLACK
6
CONTINUOUS
10
0.827365
20
-0.411215
11
0.834006
21
-0.409804
0
LINE
8
BLACK
6
CONTINUOUS
10
0.834006
20
-0.409804
11
0.840797
21
-0.409804
0
LINE
8
BLACK
6
CONTINUOUS
10
0.840797
20
-0.409804
11
0.847439
21
-0.411215
0
LINE
8
BLACK
6
CONTINUOUS
10
1.74735
20
-0.373291
11
1.75374
21
-0.376137
0
LINE
8
BLACK
6
CONTINUOUS
10
1.75374
20
-0.376137
11
1.7594
21
-0.380249
0
LINE
8
BLACK
6
CONTINUOUS
10
1.7594
20
-0.380249
11
1.76408
21
-0.385448
0
LINE
8
BLACK
6
CONTINUOUS
10
1.76408
20
-0.385448
11
1.76758
21
-0.391507
0
LINE
8
BLACK
6
CONTINUOUS
10
1.76758
20
-0.391507
11
1.76974
21
-0.39816
0
LINE
8
BLACK
6
CONTINUOUS
10
1.76974
20
-0.39816
11
1.77047
21
-0.405118
0
LINE
8
BLACK
6
CONTINUOUS
10
1.77047
20
-0.405118
11
1.76974
21
-0.412076
0
LINE
8
BLACK
6
CONTINUOUS
10
1.76974
20
-0.412076
11
1.76758
21
-0.418729
0
LINE
8
BLACK
6
CONTINUOUS
10
1.76758
20
-0.418729
11
1.76408
21
-0.424788
0
LINE
8
BLACK
6
CONTINUOUS
10
1.76408
20
-0.424788
11
1.7594
21
-0.429987
0
LINE
8
BLACK
6
CONTINUOUS
10
1.7594
20
-0.429987
11
1.75374
21
-0.434099
0
LINE
8
BLACK
6
CONTINUOUS
10
1.75374
20
-0.434099
11
1.74735
21
-0.436945
0
LINE
8
BLACK
6
CONTINUOUS
10
1.74735
20
-0.436945
11
1.74051
21
-0.438399
0
LINE
8
BLACK
6
CONTINUOUS
10
1.74051
20
-0.438399
11
1.73351
21
-0.438399
0
LINE
8
BLACK
6
CONTINUOUS
10
1.73351
20
-0.438399
11
1.72667
21
-0.436945
0
LINE
8
BLACK
6
CONTINUOUS
10
1.72667
20
-0.436945
11
1.72028
21
-0.434099
0
LINE
8
BLACK
6
CONTINUOUS
10
1.72028
20
-0.434099
11
1.71462
21
-0.429987
0
LINE
8
BLACK
6
CONTINUOUS
10
1.71462
20
-0.429987
11
1.70993
21
-0.424788
0
LINE
8
BLACK
6
CONTINUOUS
10
1.70993
20
-0.424788
11
1.70644
21
-0.418729
0
LINE
8
BLACK
6
CONTINUOUS
10
1.70644
20
-0.418729
11
1.70427
21
-0.412076
0
LINE
8
BLACK
6
CONTINUOUS
10
1.70427
20
-0.412076
11
1.70354
21
-0.405118
0
LINE
8
BLACK
6
CONTINUOUS
10
1.70354
20
-0.405118
11
1.70427
21
-0.39816
0
LINE
8
BLACK
6
CONTINUOUS
10
1.70427
20
-0.39816
11
1.70644
21
-0.391507
0
LINE
8
BLACK
6
CONTINUOUS
10
1.70644
20
-0.391507
11
1.70993
21
-0.385448
0
LINE
8
BLACK
6
CONTINUOUS
10
1.70993
20
-0.385448
11
1.71462
21
-0.380249
0
LINE
8
BLACK
6
CONTINUOUS
10
1.71462
20
-0.380249
11
1.72028
21
-0.376137
0
LINE
8
BLACK
6
CONTINUOUS
10
1.72028
20
-0.376137
11
1.72667
21
-0.373291
0
LINE
8
BLACK
6
CONTINUOUS
10
1.72667
20
-0.373291
11
1.73351
21
-0.371837
0
LINE
8
BLACK
6
CONTINUOUS
10
1.73351
20
-0.371837
11
1.74051
21
-0.371837
0
LINE
8
BLACK
6
CONTINUOUS
10
1.74051
20
-0.371837
11
1.74735
21
-0.373291
0
LINE
8
BLACK
6
CONTINUOUS
10
1.89302
20
-0.373291
11
1.89941
21
-0.376137
0
LINE
8
BLACK
6
CONTINUOUS
10
1.89941
20
-0.376137
11
1.90507
21
-0.380249
0
LINE
8
BLACK
6
CONTINUOUS
10
1.90507
20
-0.380249
11
1.90975
21
-0.385448
0
LINE
8
BLACK
6
CONTINUOUS
10
1.90975
20
-0.385448
11
1.91325
21
-0.391507
0
LINE
8
BLACK
6
CONTINUOUS
10
1.91325
20
-0.391507
11
1.91541
21
-0.39816
0
LINE
8
BLACK
6
CONTINUOUS
10
1.91541
20
-0.39816
11
1.91614
21
-0.405118
0
LINE
8
BLACK
6
CONTINUOUS
10
1.91614
20
-0.405118
11
1.91541
21
-0.412076
0
LINE
8
BLACK
6
CONTINUOUS
10
1.91541
20
-0.412076
11
1.91325
21
-0.418729
0
LINE
8
BLACK
6
CONTINUOUS
10
1.91325
20
-0.418729
11
1.90975
21
-0.424788
0
LINE
8
BLACK
6
CONTINUOUS
10
1.90975
20
-0.424788
11
1.90507
21
-0.429987
0
LINE
8
BLACK
6
CONTINUOUS
10
1.90507
20
-0.429987
11
1.89941
21
-0.434099
0
LINE
8
BLACK
6
CONTINUOUS
10
1.89941
20
-0.434099
11
1.89302
21
-0.436945
0
LINE
8
BLACK
6
CONTINUOUS
10
1.89302
20
-0.436945
11
1.88618
21
-0.438399
0
LINE
8
BLACK
6
CONTINUOUS
10
1.88618
20
-0.438399
11
1.87918
21
-0.438399
0
LINE
8
BLACK
6
CONTINUOUS
10
1.87918
20
-0.438399
11
1.87234
21
-0.436945
0
LINE
8
BLACK
6
CONTINUOUS
10
1.87234
20
-0.436945
11
1.86594
21
-0.434099
0
LINE
8
BLACK
6
CONTINUOUS
10
1.86594
20
-0.434099
11
1.86028
21
-0.429987
0
LINE
8
BLACK
6
CONTINUOUS
10
1.86028
20
-0.429987
11
1.8556
21
-0.424788
0
LINE
8
BLACK
6
CONTINUOUS
10
1.8556
20
-0.424788
11
1.85211
21
-0.418729
0
LINE
8
BLACK
6
CONTINUOUS
10
1.85211
20
-0.418729
11
1.84994
21
-0.412076
0
LINE
8
BLACK
6
CONTINUOUS
10
1.84994
20
-0.412076
11
1.84921
21
-0.405118
0
LINE
8
BLACK
6
CONTINUOUS
10
1.84921
20
-0.405118
11
1.84994
21
-0.39816
0
LINE
8
BLACK
6
CONTINUOUS
10
1.84994
20
-0.39816
11
1.85211
21
-0.391507
0
LINE
8
BLACK
6
CONTINUOUS
10
1.85211
20
-0.391507
11
1.8556
21
-0.385448
0
LINE
8
BLACK
6
CONTINUOUS
10
1.8556
20
-0.385448
11
1.86028
21
-0.380249
0
LINE
8
BLACK
6
CONTINUOUS
10
1.86028
20
-0.380249
11
1.86594
21
-0.376137
0
LINE
8
BLACK
6
CONTINUOUS
10
1.86594
20
-0.376137
11
1.87234
21
-0.373291
0
LINE
8
BLACK
6
CONTINUOUS
10
1.87234
20
-0.373291
11
1.87918
21
-0.371837
0
LINE
8
BLACK
6
CONTINUOUS
10
1.87918
20
-0.371837
11
1.88618
21
-0.371837
0
LINE
8
BLACK
6
CONTINUOUS
10
1.88618
20
-0.371837
11
1.89302
21
-0.373291
0
LINE
8
BLACK
6
CONTINUOUS
10
1.1604
20
-0.254921
11
1.17016
21
-0.257265
0
LINE
8
BLACK
6
CONTINUOUS
10
1.17016
20
-0.257265
11
1.17944
21
-0.261107
0
LINE
8
BLACK
6
CONTINUOUS
10
1.17944
20
-0.261107
11
1.188
21
-0.266352
0
LINE
8
BLACK
6
CONTINUOUS
10
1.188
20
-0.266352
11
1.19563
21
-0.272872
0
LINE
8
BLACK
6
CONTINUOUS
10
1.19563
20
-0.272872
11
1.20215
21
-0.280506
0
LINE
8
BLACK
6
CONTINUOUS
10
1.20215
20
-0.280506
11
1.2074
21
-0.289066
0
LINE
8
BLACK
6
CONTINUOUS
10
1.2074
20
-0.289066
11
1.21124
21
-0.29834
0
LINE
8
BLACK
6
CONTINUOUS
10
1.21124
20
-0.29834
11
1.21358
21
-0.308102
0
LINE
8
BLACK
6
CONTINUOUS
10
1.21358
20
-0.308102
11
1.21437
21
-0.31811
0
LINE
8
BLACK
6
CONTINUOUS
10
1.21437
20
-0.31811
11
1.21358
21
-0.328118
0
LINE
8
BLACK
6
CONTINUOUS
10
1.21358
20
-0.328118
11
1.21124
21
-0.33788
0
LINE
8
BLACK
6
CONTINUOUS
10
1.21124
20
-0.33788
11
1.2074
21
-0.347155
0
LINE
8
BLACK
6
CONTINUOUS
10
1.2074
20
-0.347155
11
1.20215
21
-0.355715
0
LINE
8
BLACK
6
CONTINUOUS
10
1.20215
20
-0.355715
11
1.19563
21
-0.363348
0
LINE
8
BLACK
6
CONTINUOUS
10
1.19563
20
-0.363348
11
1.188
21
-0.369868
0
LINE
8
BLACK
6
CONTINUOUS
10
1.188
20
-0.369868
11
1.17944
21
-0.375114
0
LINE
8
BLACK
6
CONTINUOUS
10
1.17944
20
-0.375114
11
1.17016
21
-0.378955
0
LINE
8
BLACK
6
CONTINUOUS
10
1.17016
20
-0.378955
11
1.1604
21
-0.381299
0
LINE
8
BLACK
6
CONTINUOUS
10
1.1604
20
-0.381299
11
1.15039
21
-0.382087
0
LINE
8
BLACK
6
CONTINUOUS
10
1.15039
20
-0.382087
11
1.14039
21
-0.381299
0
LINE
8
BLACK
6
CONTINUOUS
10
1.14039
20
-0.381299
11
1.13062
21
-0.378955
0
LINE
8
BLACK
6
CONTINUOUS
10
1.13062
20
-0.378955
11
1.12135
21
-0.375114
0
LINE
8
BLACK
6
CONTINUOUS
10
1.12135
20
-0.375114
11
1.11279
21
-0.369868
0
LINE
8
BLACK
6
CONTINUOUS
10
1.11279
20
-0.369868
11
1.10516
21
-0.363348
0
LINE
8
BLACK
6
CONTINUOUS
10
1.10516
20
-0.363348
11
1.09864
21
-0.355715
0
LINE
8
BLACK
6
CONTINUOUS
10
1.09864
20
-0.355715
11
1.09339
21
-0.347155
0
LINE
8
BLACK
6
CONTINUOUS
10
1.09339
20
-0.347155
11
1.08955
21
-0.33788
0
LINE
8
BLACK
6
CONTINUOUS
10
1.08955
20
-0.33788
11
1.0872
21
-0.328118
0
LINE
8
BLACK
6
CONTINUOUS
10
1.0872
20
-0.328118
11
1.08642
21
-0.31811
0
LINE
8
BLACK
6
CONTINUOUS
10
1.08642
20
-0.31811
11
1.0872
21
-0.308102
0
LINE
8
BLACK
6
CONTINUOUS
10
1.0872
20
-0.308102
11
1.08955
21
-0.29834
0
LINE
8
BLACK
6
CONTINUOUS
10
1.08955
20
-0.29834
11
1.09339
21
-0.289066
0
LINE
8
BLACK
6
CONTINUOUS
10
1.09339
20
-0.289066
11
1.09864
21
-0.280506
0
LINE
8
BLACK
6
CONTINUOUS
10
1.09864
20
-0.280506
11
1.10516
21
-0.272872
0
LINE
8
BLACK
6
CONTINUOUS
10
1.10516
20
-0.272872
11
1.11279
21
-0.266352
0
LINE
8
BLACK
6
CONTINUOUS
10
1.11279
20
-0.266352
11
1.12135
21
-0.261107
0
LINE
8
BLACK
6
CONTINUOUS
10
1.12135
20
-0.261107
11
1.13062
21
-0.257265
0
LINE
8
BLACK
6
CONTINUOUS
10
1.13062
20
-0.257265
11
1.14039
21
-0.254921
0
LINE
8
BLACK
6
CONTINUOUS
10
1.14039
20
-0.254921
11
1.15039
21
-0.254134
0
LINE
8
BLACK
6
CONTINUOUS
10
1.15039
20
-0.254134
11
1.1604
21
-0.254921
0
LINE
8
BLACK
6
CONTINUOUS
10
1.5604
20
-0.254921
11
1.57016
21
-0.257265
0
LINE
8
BLACK
6
CONTINUOUS
10
1.57016
20
-0.257265
11
1.57944
21
-0.261107
0
LINE
8
BLACK
6
CONTINUOUS
10
1.57944
20
-0.261107
11
1.588
21
-0.266352
0
LINE
8
BLACK
6
CONTINUOUS
10
1.588
20
-0.266352
11
1.59563
21
-0.272872
0
LINE
8
BLACK
6
CONTINUOUS
10
1.59563
20
-0.272872
11
1.60215
21
-0.280506
0
LINE
8
BLACK
6
CONTINUOUS
10
1.60215
20
-0.280506
11
1.6074
21
-0.289066
0
LINE
8
BLACK
6
CONTINUOUS
10
1.6074
20
-0.289066
11
1.61124
21
-0.29834
0
LINE
8
BLACK
6
CONTINUOUS
10
1.61124
20
-0.29834
11
1.61358
21
-0.308102
0
LINE
8
BLACK
6
CONTINUOUS
10
1.61358
20
-0.308102
11
1.61437
21
-0.31811
0
LINE
8
BLACK
6
CONTINUOUS
10
1.61437
20
-0.31811
11
1.61358
21
-0.328118
0
LINE
8
BLACK
6
CONTINUOUS
10
1.61358
20
-0.328118
11
1.61124
21
-0.33788
0
LINE
8
BLACK
6
CONTINUOUS
10
1.61124
20
-0.33788
11
1.6074
21
-0.347155
0
LINE
8
BLACK
6
CONTINUOUS
10
1.6074
20
-0.347155
11
1.60215
21
-0.355715
0
LINE
8
BLACK
6
CONTINUOUS
10
1.60215
20
-0.355715
11
1.59563
21
-0.363348
0
LINE
8
BLACK
6
CONTINUOUS
10
1.59563
20
-0.363348
11
1.588
21
-0.369868
0
LINE
8
BLACK
6
CONTINUOUS
10
1.588
20
-0.369868
11
1.57944
21
-0.375114
0
LINE
8
BLACK
6
CONTINUOUS
10
1.57944
20
-0.375114
11
1.57016
21
-0.378955
0
LINE
8
BLACK
6
CONTINUOUS
10
1.57016
20
-0.378955
11
1.5604
21
-0.381299
0
LINE
8
BLACK
6
CONTINUOUS
10
1.5604
20
-0.381299
11
1.55039
21
-0.382087
0
LINE
8
BLACK
6
CONTINUOUS
10
1.55039
20
-0.382087
11
1.54039
21
-0.381299
0
LINE
8
BLACK
6
CONTINUOUS
10
1.54039
20
-0.381299
11
1.53062
21
-0.378955
0
LINE
8
BLACK
6
CONTINUOUS
10
1.53062
20
-0.378955
11
1.52135
21
-0.375114
0
LINE
8
BLACK
6
CONTINUOUS
10
1.52135
20
-0.375114
11
1.51279
21
-0.369868
0
LINE
8
BLACK
6
CONTINUOUS
10
1.51279
20
-0.369868
11
1.50516
21
-0.363348
0
LINE
8
BLACK
6
CONTINUOUS
10
1.50516
20
-0.363348
11
1.49864
21
-0.355715
0
LINE
8
BLACK
6
CONTINUOUS
10
1.49864
20
-0.355715
11
1.49339
21
-0.347155
0
LINE
8
BLACK
6
CONTINUOUS
10
1.49339
20
-0.347155
11
1.48955
21
-0.33788
0
LINE
8
BLACK
6
CONTINUOUS
10
1.48955
20
-0.33788
11
1.4872
21
-0.328118
0
LINE
8
BLACK
6
CONTINUOUS
10
1.4872
20
-0.328118
11
1.48642
21
-0.31811
0
LINE
8
BLACK
6
CONTINUOUS
10
1.48642
20
-0.31811
11
1.4872
21
-0.308102
0
LINE
8
BLACK
6
CONTINUOUS
10
1.4872
20
-0.308102
11
1.48955
21
-0.29834
0
LINE
8
BLACK
6
CONTINUOUS
10
1.48955
20
-0.29834
11
1.49339
21
-0.289066
0
LINE
8
BLACK
6
CONTINUOUS
10
1.49339
20
-0.289066
11
1.49864
21
-0.280506
0
LINE
8
BLACK
6
CONTINUOUS
10
1.49864
20
-0.280506
11
1.50516
21
-0.272872
0
LINE
8
BLACK
6
CONTINUOUS
10
1.50516
20
-0.272872
11
1.51279
21
-0.266352
0
LINE
8
BLACK
6
CONTINUOUS
10
1.51279
20
-0.266352
11
1.52135
21
-0.261107
0
LINE
8
BLACK
6
CONTINUOUS
10
1.52135
20
-0.261107
11
1.53062
21
-0.257265
0
LINE
8
BLACK
6
CONTINUOUS
10
1.53062
20
-0.257265
11
1.54039
21
-0.254921
0
LINE
8
BLACK
6
CONTINUOUS
10
1.54039
20
-0.254921
11
1.55039
21
-0.254134
0
LINE
8
BLACK
6
CONTINUOUS
10
1.55039
20
-0.254134
11
1.5604
21
-0.254921
0
LINE
8
BLACK
6
CONTINUOUS
10
0.579722
20
-0.31279
11
0.585925
21
-0.315552
0
LINE
8
BLACK
6
CONTINUOUS
10
0.585925
20
-0.315552
11
0.591419
21
-0.319543
0
LINE
8
BLACK
6
CONTINUOUS
10
0.591419
20
-0.319543
11
0.595962
21
-0.324589
0
LINE
8
BLACK
6
CONTINUOUS
10
0.595962
20
-0.324589
11
0.599357
21
-0.33047
0
LINE
8
BLACK
6
CONTINUOUS
10
0.599357
20
-0.33047
11
0.601456
21
-0.336928
0
LINE
8
BLACK
6
CONTINUOUS
10
0.601456
20
-0.336928
11
0.602165
21
-0.343681
0
LINE
8
BLACK
6
CONTINUOUS
10
0.602165
20
-0.343681
11
0.601456
21
-0.350434
0
LINE
8
BLACK
6
CONTINUOUS
10
0.601456
20
-0.350434
11
0.599357
21
-0.356892
0
LINE
8
BLACK
6
CONTINUOUS
10
0.599357
20
-0.356892
11
0.595962
21
-0.362772
0
LINE
8
BLACK
6
CONTINUOUS
10
0.595962
20
-0.362772
11
0.591419
21
-0.367818
0
LINE
8
BLACK
6
CONTINUOUS
10
0.591419
20
-0.367818
11
0.585925
21
-0.37181
0
LINE
8
BLACK
6
CONTINUOUS
10
0.585925
20
-0.37181
11
0.579722
21
-0.374571
0
LINE
8
BLACK
6
CONTINUOUS
10
0.579722
20
-0.374571
11
0.57308
21
-0.375983
0
LINE
8
BLACK
6
CONTINUOUS
10
0.57308
20
-0.375983
11
0.56629
21
-0.375983
0
LINE
8
BLACK
6
CONTINUOUS
10
0.56629
20
-0.375983
11
0.559648
21
-0.374571
0
LINE
8
BLACK
6
CONTINUOUS
10
0.559648
20
-0.374571
11
0.553445
21
-0.37181
0
LINE
8
BLACK
6
CONTINUOUS
10
0.553445
20
-0.37181
11
0.547951
21
-0.367818
0
LINE
8
BLACK
6
CONTINUOUS
10
0.547951
20
-0.367818
11
0.543408
21
-0.362772
0
LINE
8
BLACK
6
CONTINUOUS
10
0.543408
20
-0.362772
11
0.540013
21
-0.356892
0
LINE
8
BLACK
6
CONTINUOUS
10
0.540013
20
-0.356892
11
0.537914
21
-0.350434
0
LINE
8
BLACK
6
CONTINUOUS
10
0.537914
20
-0.350434
11
0.537205
21
-0.343681
0
LINE
8
BLACK
6
CONTINUOUS
10
0.537205
20
-0.343681
11
0.537914
21
-0.336928
0
LINE
8
BLACK
6
CONTINUOUS
10
0.537914
20
-0.336928
11
0.540013
21
-0.33047
0
LINE
8
BLACK
6
CONTINUOUS
10
0.540013
20
-0.33047
11
0.543408
21
-0.324589
0
LINE
8
BLACK
6
CONTINUOUS
10
0.543408
20
-0.324589
11
0.547951
21
-0.319543
0
LINE
8
BLACK
6
CONTINUOUS
10
0.547951
20
-0.319543
11
0.553445
21
-0.315552
0
LINE
8
BLACK
6
CONTINUOUS
10
0.553445
20
-0.315552
11
0.559648
21
-0.31279
0
LINE
8
BLACK
6
CONTINUOUS
10
0.559648
20
-0.31279
11
0.56629
21
-0.311378
0
LINE
8
BLACK
6
CONTINUOUS
10
0.56629
20
-0.311378
11
0.57308
21
-0.311378
0
LINE
8
BLACK
6
CONTINUOUS
10
0.57308
20
-0.311378
11
0.579722
21
-0.31279
0
LINE
8
BLACK
6
CONTINUOUS
10
0.847439
20
-0.31279
11
0.853642
21
-0.315552
0
LINE
8
BLACK
6
CONTINUOUS
10
0.853642
20
-0.315552
11
0.859135
21
-0.319543
0
LINE
8
BLACK
6
CONTINUOUS
10
0.859135
20
-0.319543
11
0.863679
21
-0.324589
0
LINE
8
BLACK
6
CONTINUOUS
10
0.863679
20
-0.324589
11
0.867074
21
-0.33047
0
LINE
8
BLACK
6
CONTINUOUS
10
0.867074
20
-0.33047
11
0.869172
21
-0.336928
0
LINE
8
BLACK
6
CONTINUOUS
10
0.869172
20
-0.336928
11
0.869882
21
-0.343681
0
LINE
8
BLACK
6
CONTINUOUS
10
0.869882
20
-0.343681
11
0.869172
21
-0.350434
0
LINE
8
BLACK
6
CONTINUOUS
10
0.869172
20
-0.350434
11
0.867074
21
-0.356892
0
LINE
8
BLACK
6
CONTINUOUS
10
0.867074
20
-0.356892
11
0.863679
21
-0.362772
0
LINE
8
BLACK
6
CONTINUOUS
10
0.863679
20
-0.362772
11
0.859135
21
-0.367818
0
LINE
8
BLACK
6
CONTINUOUS
10
0.859135
20
-0.367818
11
0.853642
21
-0.37181
0
LINE
8
BLACK
6
CONTINUOUS
10
0.853642
20
-0.37181
11
0.847439
21
-0.374571
0
LINE
8
BLACK
6
CONTINUOUS
10
0.847439
20
-0.374571
11
0.840797
21
-0.375983
0
LINE
8
BLACK
6
CONTINUOUS
10
0.840797
20
-0.375983
11
0.834006
21
-0.375983
0
LINE
8
BLACK
6
CONTINUOUS
10
0.834006
20
-0.375983
11
0.827365
21
-0.374571
0
LINE
8
BLACK
6
CONTINUOUS
10
0.827365
20
-0.374571
11
0.821161
21
-0.37181
0
LINE
8
BLACK
6
CONTINUOUS
10
0.821161
20
-0.37181
11
0.815668
21
-0.367818
0
LINE
8
BLACK
6
CONTINUOUS
10
0.815668
20
-0.367818
11
0.811124
21
-0.362772
0
LINE
8
BLACK
6
CONTINUOUS
10
0.811124
20
-0.362772
11
0.807729
21
-0.356892
0
LINE
8
BLACK
6
CONTINUOUS
10
0.807729
20
-0.356892
11
0.805631
21
-0.350434
0
LINE
8
BLACK
6
CONTINUOUS
10
0.805631
20
-0.350434
11
0.804921
21
-0.343681
0
LINE
8
BLACK
6
CONTINUOUS
10
0.804921
20
-0.343681
11
0.805631
21
-0.336928
0
LINE
8
BLACK
6
CONTINUOUS
10
0.805631
20
-0.336928
11
0.807729
21
-0.33047
0
LINE
8
BLACK
6
CONTINUOUS
10
0.807729
20
-0.33047
11
0.811124
21
-0.324589
0
LINE
8
BLACK
6
CONTINUOUS
10
0.811124
20
-0.324589
11
0.815668
21
-0.319543
0
LINE
8
BLACK
6
CONTINUOUS
10
0.815668
20
-0.319543
11
0.821161
21
-0.315552
0
LINE
8
BLACK
6
CONTINUOUS
10
0.821161
20
-0.315552
11
0.827365
21
-0.31279
0
LINE
8
BLACK
6
CONTINUOUS
10
0.827365
20
-0.31279
11
0.834006
21
-0.311378
0
LINE
8
BLACK
6
CONTINUOUS
10
0.834006
20
-0.311378
11
0.840797
21
-0.311378
0
LINE
8
BLACK
6
CONTINUOUS
10
0.840797
20
-0.311378
11
0.847439
21
-0.31279
0
LINE
8
BLACK
6
CONTINUOUS
10
0.210169
20
-0.0708709
11
0.224097
21
-0.0732374
0
LINE
8
BLACK
6
CONTINUOUS
10
0.224097
20
-0.0732374
11
0.237673
21
-0.0771485
0
LINE
8
BLACK
6
CONTINUOUS
10
0.237673
20
-0.0771485
11
0.250726
21
-0.0825551
0
LINE
8
BLACK
6
CONTINUOUS
10
0.250726
20
-0.0825551
11
0.263091
21
-0.0893891
0
LINE
8
BLACK
6
CONTINUOUS
10
0.263091
20
-0.0893891
11
0.274613
21
-0.0975645
0
LINE
8
BLACK
6
CONTINUOUS
10
0.274613
20
-0.0975645
11
0.285147
21
-0.106979
0
LINE
8
BLACK
6
CONTINUOUS
10
0.285147
20
-0.106979
11
0.294561
21
-0.117513
0
LINE
8
BLACK
6
CONTINUOUS
10
0.294561
20
-0.117513
11
0.302737
21
-0.129035
0
LINE
8
BLACK
6
CONTINUOUS
10
0.302737
20
-0.129035
11
0.309571
21
-0.1414
0
LINE
8
BLACK
6
CONTINUOUS
10
0.309571
20
-0.1414
11
0.314977
21
-0.154453
0
LINE
8
BLACK
6
CONTINUOUS
10
0.314977
20
-0.154453
11
0.318889
21
-0.168029
0
LINE
8
BLACK
6
CONTINUOUS
10
0.318889
20
-0.168029
11
0.321255
21
-0.181957
0
LINE
8
BLACK
6
CONTINUOUS
10
0.321255
20
-0.181957
11
0.322047
21
-0.196063
0
LINE
8
BLACK
6
CONTINUOUS
10
0.322047
20
-0.196063
11
0.321255
21
-0.210169
0
LINE
8
BLACK
6
CONTINUOUS
10
0.321255
20
-0.210169
11
0.318889
21
-0.224097
0
LINE
8
BLACK
6
CONTINUOUS
10
0.318889
20
-0.224097
11
0.314977
21
-0.237673
0
LINE
8
BLACK
6
CONTINUOUS
10
0.314977
20
-0.237673
11
0.309571
21
-0.250726
0
LINE
8
BLACK
6
CONTINUOUS
10
0.309571
20
-0.250726
11
0.302737
21
-0.263091
0
LINE
8
BLACK
6
CONTINUOUS
10
0.302737
20
-0.263091
11
0.294561
21
-0.274613
0
LINE
8
BLACK
6
CONTINUOUS
10
0.294561
20
-0.274613
11
0.285147
21
-0.285147
0
LINE
8
BLACK
6
CONTINUOUS
10
0.285147
20
-0.285147
11
0.274613
21
-0.294561
0
LINE
8
BLACK
6
CONTINUOUS
10
0.274613
20
-0.294561
11
0.263091
21
-0.302737
0
LINE
8
BLACK
6
CONTINUOUS
10
0.263091
20
-0.302737
11
0.250726
21
-0.309571
0
LINE
8
BLACK
6
CONTINUOUS
10
0.250726
20
-0.309571
11
0.237673
21
-0.314977
0
LINE
8
BLACK
6
CONTINUOUS
10
0.237673
20
-0.314977
11
0.224097
21
-0.318889
0
LINE
8
BLACK
6
CONTINUOUS
10
0.224097
20
-0.318889
11
0.210169
21
-0.321255
0
LINE
8
BLACK
6
CONTINUOUS
10
0.210169
20
-0.321255
11
0.196063
21
-0.322047
0
LINE
8
BLACK
6
CONTINUOUS
10
0.196063
20
-0.322047
11
0.181957
21
-0.321255
0
LINE
8
BLACK
6
CONTINUOUS
10
0.181957
20
-0.321255
11
0.168029
21
-0.318889
0
LINE
8
BLACK
6
CONTINUOUS
10
0.168029
20
-0.318889
11
0.154453
21
-0.314977
0
LINE
8
BLACK
6
CONTINUOUS
10
0.154453
20
-0.314977
11
0.1414
21
-0.309571
0
LINE
8
BLACK
6
CONTINUOUS
10
0.1414
20
-0.309571
11
0.129035
21
-0.302737
0
LINE
8
BLACK
6
CONTINUOUS
10
0.129035
20
-0.302737
11
0.117513
21
-0.294561
0
LINE
8
BLACK
6
CONTINUOUS
10
0.117513
20
-0.294561
11
0.106979
21
-0.285147
0
LINE
8
BLACK
6
CONTINUOUS
10
0.106979
20
-0.285147
11
0.0975645
21
-0.274613
0
LINE
8
BLACK
6
CONTINUOUS
10
0.0975645
20
-0.274613
11
0.0893891
21
-0.263091
0
LINE
8
BLACK
6
CONTINUOUS
10
0.0893891
20
-0.263091
11
0.0825551
21
-0.250726
0
LINE
8
BLACK
6
CONTINUOUS
10
0.0825551
20
-0.250726
11
0.0771485
21
-0.237673
0
LINE
8
BLACK
6
CONTINUOUS
10
0.0771485
20
-0.237673
11
0.0732374
21
-0.224097
0
LINE
8
BLACK
6
CONTINUOUS
10
0.0732374
20
-0.224097
11
0.0708709
21
-0.210169
0
LINE
8
BLACK
6
CONTINUOUS
10
0.0708709
20
-0.210169
11
0.0700787
21
-0.196063
0
LINE
8
BLACK
6
CONTINUOUS
10
0.0700787
20
-0.196063
11
0.0708709
21
-0.181957
0
LINE
8
BLACK
6
CONTINUOUS
10
0.0708709
20
-0.181957
11
0.0732374
21
-0.168029
0
LINE
8
BLACK
6
CONTINUOUS
10
0.0732374
20
-0.168029
11
0.0771485
21
-0.154453
0
LINE
8
BLACK
6
CONTINUOUS
10
0.0771485
20
-0.154453
11
0.0825551
21
-0.1414
0
LINE
8
BLACK
6
CONTINUOUS
10
0.0825551
20
-0.1414
11
0.0893891
21
-0.129035
0
LINE
8
BLACK
6
CONTINUOUS
10
0.0893891
20
-0.129035
11
0.0975645
21
-0.117513
0
LINE
8
BLACK
6
CONTINUOUS
10
0.0975645
20
-0.117513
11
0.106979
21
-0.106979
0
LINE
8
BLACK
6
CONTINUOUS
10
0.106979
20
-0.106979
11
0.117513
21
-0.0975645
0
LINE
8
BLACK
6
CONTINUOUS
10
0.117513
20
-0.0975645
11
0.129035
21
-0.0893891
0
LINE
8
BLACK
6
CONTINUOUS
10
0.129035
20
-0.0893891
11
0.1414
21
-0.0825551
0
LINE
8
BLACK
6
CONTINUOUS
10
0.1414
20
-0.0825551
11
0.154453
21
-0.0771485
0
LINE
8
BLACK
6
CONTINUOUS
10
0.154453
20
-0.0771485
11
0.168029
21
-0.0732374
0
LINE
8
BLACK
6
CONTINUOUS
10
0.168029
20
-0.0732374
11
0.181957
21
-0.0708709
0
LINE
8
BLACK
6
CONTINUOUS
10
0.181957
20
-0.0708709
11
0.196063
21
-0.0700787
0
LINE
8
BLACK
6
CONTINUOUS
10
0.196063
20
-0.0700787
11
0.210169
21
-0.0708709
0
LINE
8
BLACK
6
CONTINUOUS
10
2.61017
20
-0.0708709
11
2.6241
21
-0.0732374
0
LINE
8
BLACK
6
CONTINUOUS
10
2.6241
20
-0.0732374
11
2.63767
21
-0.0771485
0
LINE
8
BLACK
6
CONTINUOUS
10
2.63767
20
-0.0771485
11
2.65073
21
-0.0825551
0
LINE
8
BLACK
6
CONTINUOUS
10
2.65073
20
-0.0825551
11
2.66309
21
-0.0893891
0
LINE
8
BLACK
6
CONTINUOUS
10
2.66309
20
-0.0893891
11
2.67461
21
-0.0975645
0
LINE
8
BLACK
6
CONTINUOUS
10
2.67461
20
-0.0975645
11
2.68515
21
-0.106979
0
LINE
8
BLACK
6
CONTINUOUS
10
2.68515
20
-0.106979
11
2.69456
21
-0.117513
0
LINE
8
BLACK
6
CONTINUOUS
10
2.69456
20
-0.117513
11
2.70274
21
-0.129035
0
LINE
8
BLACK
6
CONTINUOUS
10
2.70274
20
-0.129035
11
2.70957
21
-0.1414
0
LINE
8
BLACK
6
CONTINUOUS
10
2.70957
20
-0.1414
11
2.71498
21
-0.154453
0
LINE
8
BLACK
6
CONTINUOUS
10
2.71498
20
-0.154453
11
2.71889
21
-0.168029
0
LINE
8
BLACK
6
CONTINUOUS
10
2.71889
20
-0.168029
11
2.72126
21
-0.181957
0
LINE
8
BLACK
6
CONTINUOUS
10
2.72126
20
-0.181957
11
2.72205
21
-0.196063
0
LINE
8
BLACK
6
CONTINUOUS
10
2.72205
20
-0.196063
11
2.72126
21
-0.210169
0
LINE
8
BLACK
6
CONTINUOUS
10
2.72126
20
-0.210169
11
2.71889
21
-0.224097
0
LINE
8
BLACK
6
CONTINUOUS
10
2.71889
20
-0.224097
11
2.71498
21
-0.237673
0
LINE
8
BLACK
6
CONTINUOUS
10
2.71498
20
-0.237673
11
2.70957
21
-0.250726
0
LINE
8
BLACK
6
CONTINUOUS
10
2.70957
20
-0.250726
11
2.70274
21
-0.263091
0
LINE
8
BLACK
6
CONTINUOUS
10
2.70274
20
-0.263091
11
2.69456
21
-0.274613
0
LINE
8
BLACK
6
CONTINUOUS
10
2.69456
20
-0.274613
11
2.68515
21
-0.285147
0
LINE
8
BLACK
6
CONTINUOUS
10
2.68515
20
-0.285147
11
2.67461
21
-0.294561
0
LINE
8
BLACK
6
CONTINUOUS
10
2.67461
20
-0.294561
11
2.66309
21
-0.302737
0
LINE
8
BLACK
6
CONTINUOUS
10
2.66309
20
-0.302737
11
2.65073
21
-0.309571
0
LINE
8
BLACK
6
CONTINUOUS
10
2.65073
20
-0.309571
11
2.63767
21
-0.314977
0
LINE
8
BLACK
6
CONTINUOUS
10
2.63767
20
-0.314977
11
2.6241
21
-0.318889
0
LINE
8
BLACK
6
CONTINUOUS
10
2.6241
20
-0.318889
11
2.61017
21
-0.321255
0
LINE
8
BLACK
6
CONTINUOUS
10
2.61017
20
-0.321255
11
2.59606
21
-0.322047
0
LINE
8
BLACK
6
CONTINUOUS
10
2.59606
20
-0.322047
11
2.58196
21
-0.321255
0
LINE
8
BLACK
6
CONTINUOUS
10
2.58196
20
-0.321255
11
2.56803
21
-0.318889
0
LINE
8
BLACK
6
CONTINUOUS
10
2.56803
20
-0.318889
11
2.55445
21
-0.314977
0
LINE
8
BLACK
6
CONTINUOUS
10
2.55445
20
-0.314977
11
2.5414
21
-0.309571
0
LINE
8
BLACK
6
CONTINUOUS
10
2.5414
20
-0.309571
11
2.52904
21
-0.302737
0
LINE
8
BLACK
6
CONTINUOUS
10
2.52904
20
-0.302737
11
2.51751
21
-0.294561
0
LINE
8
BLACK
6
CONTINUOUS
10
2.51751
20
-0.294561
11
2.50698
21
-0.285147
0
LINE
8
BLACK
6
CONTINUOUS
10
2.50698
20
-0.285147
11
2.49756
21
-0.274613
0
LINE
8
BLACK
6
CONTINUOUS
10
2.49756
20
-0.274613
11
2.48939
21
-0.263091
0
LINE
8
BLACK
6
CONTINUOUS
10
2.48939
20
-0.263091
11
2.48256
21
-0.250726
0
LINE
8
BLACK
6
CONTINUOUS
10
2.48256
20
-0.250726
11
2.47715
21
-0.237673
0
LINE
8
BLACK
6
CONTINUOUS
10
2.47715
20
-0.237673
11
2.47324
21
-0.224097
0
LINE
8
BLACK
6
CONTINUOUS
10
2.47324
20
-0.224097
11
2.47087
21
-0.210169
0
LINE
8
BLACK
6
CONTINUOUS
10
2.47087
20
-0.210169
11
2.47008
21
-0.196063
0
LINE
8
BLACK
6
CONTINUOUS
10
2.47008
20
-0.196063
11
2.47087
21
-0.181957
0
LINE
8
BLACK
6
CONTINUOUS
10
2.47087
20
-0.181957
11
2.47324
21
-0.168029
0
LINE
8
BLACK
6
CONTINUOUS
10
2.47324
20
-0.168029
11
2.47715
21
-0.154453
0
LINE
8
BLACK
6
CONTINUOUS
10
2.47715
20
-0.154453
11
2.48256
21
-0.1414
0
LINE
8
BLACK
6
CONTINUOUS
10
2.48256
20
-0.1414
11
2.48939
21
-0.129035
0
LINE
8
BLACK
6
CONTINUOUS
10
2.48939
20
-0.129035
11
2.49756
21
-0.117513
0
LINE
8
BLACK
6
CONTINUOUS
10
2.49756
20
-0.117513
11
2.50698
21
-0.106979
0
LINE
8
BLACK
6
CONTINUOUS
10
2.50698
20
-0.106979
11
2.51751
21
-0.0975645
0
LINE
8
BLACK
6
CONTINUOUS
10
2.51751
20
-0.0975645
11
2.52904
21
-0.0893891
0
LINE
8
BLACK
6
CONTINUOUS
10
2.52904
20
-0.0893891
11
2.5414
21
-0.0825551
0
LINE
8
BLACK
6
CONTINUOUS
10
2.5414
20
-0.0825551
11
2.55445
21
-0.0771485
0
LINE
8
BLACK
6
CONTINUOUS
10
2.55445
20
-0.0771485
11
2.56803
21
-0.0732374
0
LINE
8
BLACK
6
CONTINUOUS
10
2.56803
20
-0.0732374
11
2.58196
21
-0.0708709
0
LINE
8
BLACK
6
CONTINUOUS
10
2.58196
20
-0.0708709
11
2.59606
21
-0.0700787
0
LINE
8
BLACK
6
CONTINUOUS
10
2.59606
20
-0.0700787
11
2.61017
21
-0.0708709
0
LINE
8
BLACK
6
CONTINUOUS
10
2.05932
20
-0.233109
11
2.06463
21
-0.234994
0
LINE
8
BLACK
6
CONTINUOUS
10
2.06463
20
-0.234994
11
2.06923
21
-0.238241
0
LINE
8
BLACK
6
CONTINUOUS
10
2.06923
20
-0.238241
11
2.07278
21
-0.242607
0
LINE
8
BLACK
6
CONTINUOUS
10
2.07278
20
-0.242607
11
2.07502
21
-0.24777
0
LINE
8
BLACK
6
CONTINUOUS
10
2.07502
20
-0.24777
11
2.07579
21
-0.253346
0
LINE
8
BLACK
6
CONTINUOUS
10
2.07579
20
-0.253346
11
2.07579
21
-0.294685
0
LINE
8
BLACK
6
CONTINUOUS
10
2.07579
20
-0.294685
11
2.07559
21
-0.297499
0
LINE
8
BLACK
6
CONTINUOUS
10
2.07559
20
-0.297499
11
2.07408
21
-0.30292
0
LINE
8
BLACK
6
CONTINUOUS
10
2.07408
20
-0.30292
11
2.07115
21
-0.307729
0
LINE
8
BLACK
6
CONTINUOUS
10
2.07115
20
-0.307729
11
2.06704
21
-0.311571
0
LINE
8
BLACK
6
CONTINUOUS
10
2.06704
20
-0.311571
11
2.06204
21
-0.314161
0
LINE
8
BLACK
6
CONTINUOUS
10
2.06204
20
-0.314161
11
2.05653
21
-0.315306
0
LINE
8
BLACK
6
CONTINUOUS
10
2.05653
20
-0.315306
11
2.05091
21
-0.314922
0
LINE
8
BLACK
6
CONTINUOUS
10
2.05091
20
-0.314922
11
2.04561
21
-0.313037
0
LINE
8
BLACK
6
CONTINUOUS
10
2.04561
20
-0.313037
11
2.04101
21
-0.309791
0
LINE
8
BLACK
6
CONTINUOUS
10
2.04101
20
-0.309791
11
2.03746
21
-0.305424
0
LINE
8
BLACK
6
CONTINUOUS
10
2.03746
20
-0.305424
11
2.03522
21
-0.300262
0
LINE
8
BLACK
6
CONTINUOUS
10
2.03522
20
-0.300262
11
2.03445
21
-0.294685
0
LINE
8
BLACK
6
CONTINUOUS
10
2.03445
20
-0.294685
11
2.03445
21
-0.253346
0
LINE
8
BLACK
6
CONTINUOUS
10
2.03445
20
-0.253346
11
2.03464
21
-0.250532
0
LINE
8
BLACK
6
CONTINUOUS
10
2.03464
20
-0.250532
11
2.03616
21
-0.245112
0
LINE
8
BLACK
6
CONTINUOUS
10
2.03616
20
-0.245112
11
2.03908
21
-0.240302
0
LINE
8
BLACK
6
CONTINUOUS
10
2.03908
20
-0.240302
11
2.0432
21
-0.23646
0
LINE
8
BLACK
6
CONTINUOUS
10
2.0432
20
-0.23646
11
2.0482
21
-0.233871
0
LINE
8
BLACK
6
CONTINUOUS
10
2.0482
20
-0.233871
11
2.05371
21
-0.232725
0
LINE
8
BLACK
6
CONTINUOUS
10
2.05371
20
-0.232725
11
2.05932
21
-0.233109
0
LINE
8
BLACK
6
CONTINUOUS
10
2.39948
20
-0.233109
11
2.40478
21
-0.234994
0
LINE
8
BLACK
6
CONTINUOUS
10
2.40478
20
-0.234994
11
2.40938
21
-0.238241
0
LINE
8
BLACK
6
CONTINUOUS
10
2.40938
20
-0.238241
11
2.41294
21
-0.242607
0
LINE
8
BLACK
6
CONTINUOUS
10
2.41294
20
-0.242607
11
2.41518
21
-0.24777
0
LINE
8
BLACK
6
CONTINUOUS
10
2.41518
20
-0.24777
11
2.41594
21
-0.253346
0
LINE
8
BLACK
6
CONTINUOUS
10
2.41594
20
-0.253346
11
2.41594
21
-0.294685
0
LINE
8
BLACK
6
CONTINUOUS
10
2.41594
20
-0.294685
11
2.41575
21
-0.297499
0
LINE
8
BLACK
6
CONTINUOUS
10
2.41575
20
-0.297499
11
2.41423
21
-0.30292
0
LINE
8
BLACK
6
CONTINUOUS
10
2.41423
20
-0.30292
11
2.41131
21
-0.307729
0
LINE
8
BLACK
6
CONTINUOUS
10
2.41131
20
-0.307729
11
2.4072
21
-0.311571
0
LINE
8
BLACK
6
CONTINUOUS
10
2.4072
20
-0.311571
11
2.4022
21
-0.314161
0
LINE
8
BLACK
6
CONTINUOUS
10
2.4022
20
-0.314161
11
2.39669
21
-0.315306
0
LINE
8
BLACK
6
CONTINUOUS
10
2.39669
20
-0.315306
11
2.39107
21
-0.314922
0
LINE
8
BLACK
6
CONTINUOUS
10
2.39107
20
-0.314922
11
2.38577
21
-0.313037
0
LINE
8
BLACK
6
CONTINUOUS
10
2.38577
20
-0.313037
11
2.38117
21
-0.309791
0
LINE
8
BLACK
6
CONTINUOUS
10
2.38117
20
-0.309791
11
2.37762
21
-0.305424
0
LINE
8
BLACK
6
CONTINUOUS
10
2.37762
20
-0.305424
11
2.37537
21
-0.300262
0
LINE
8
BLACK
6
CONTINUOUS
10
2.37537
20
-0.300262
11
2.37461
21
-0.294685
0
LINE
8
BLACK
6
CONTINUOUS
10
2.37461
20
-0.294685
11
2.37461
21
-0.253346
0
LINE
8
BLACK
6
CONTINUOUS
10
2.37461
20
-0.253346
11
2.3748
21
-0.250532
0
LINE
8
BLACK
6
CONTINUOUS
10
2.3748
20
-0.250532
11
2.37632
21
-0.245112
0
LINE
8
BLACK
6
CONTINUOUS
10
2.37632
20
-0.245112
11
2.37924
21
-0.240302
0
LINE
8
BLACK
6
CONTINUOUS
10
2.37924
20
-0.240302
11
2.38336
21
-0.23646
0
LINE
8
BLACK
6
CONTINUOUS
10
2.38336
20
-0.23646
11
2.38835
21
-0.233871
0
LINE
8
BLACK
6
CONTINUOUS
10
2.38835
20
-0.233871
11
2.39387
21
-0.232725
0
LINE
8
BLACK
6
CONTINUOUS
10
2.39387
20
-0.232725
11
2.39948
21
-0.233109
0
LINE
8
BLACK
6
CONTINUOUS
10
0.452907
20
-0.15936
11
0.462607
21
-0.162352
0
LINE
8
BLACK
6
CONTINUOUS
10
0.462607
20
-0.162352
11
0.471752
21
-0.166756
0
LINE
8
BLACK
6
CONTINUOUS
10
0.471752
20
-0.166756
11
0.480139
21
-0.172474
0
LINE
8
BLACK
6
CONTINUOUS
10
0.480139
20
-0.172474
11
0.487579
21
-0.179378
0
LINE
8
BLACK
6
CONTINUOUS
10
0.487579
20
-0.179378
11
0.493908
21
-0.187314
0
LINE
8
BLACK
6
CONTINUOUS
10
0.493908
20
-0.187314
11
0.498983
21
-0.196104
0
LINE
8
BLACK
6
CONTINUOUS
10
0.498983
20
-0.196104
11
0.502691
21
-0.205553
0
LINE
8
BLACK
6
CONTINUOUS
10
0.502691
20
-0.205553
11
0.50495
21
-0.215449
0
LINE
8
BLACK
6
CONTINUOUS
10
0.50495
20
-0.215449
11
0.505709
21
-0.225571
0
LINE
8
BLACK
6
CONTINUOUS
10
0.505709
20
-0.225571
11
0.50495
21
-0.235693
0
LINE
8
BLACK
6
CONTINUOUS
10
0.50495
20
-0.235693
11
0.502691
21
-0.245588
0
LINE
8
BLACK
6
CONTINUOUS
10
0.502691
20
-0.245588
11
0.498983
21
-0.255037
0
LINE
8
BLACK
6
CONTINUOUS
10
0.498983
20
-0.255037
11
0.493908
21
-0.263828
0
LINE
8
BLACK
6
CONTINUOUS
10
0.493908
20
-0.263828
11
0.487579
21
-0.271763
0
LINE
8
BLACK
6
CONTINUOUS
10
0.487579
20
-0.271763
11
0.480139
21
-0.278667
0
LINE
8
BLACK
6
CONTINUOUS
10
0.480139
20
-0.278667
11
0.471752
21
-0.284385
0
LINE
8
BLACK
6
CONTINUOUS
10
0.471752
20
-0.284385
11
0.462607
21
-0.288789
0
LINE
8
BLACK
6
CONTINUOUS
10
0.462607
20
-0.288789
11
0.452907
21
-0.291781
0
LINE
8
BLACK
6
CONTINUOUS
10
0.452907
20
-0.291781
11
0.44287
21
-0.293294
0
LINE
8
BLACK
6
CONTINUOUS
10
0.44287
20
-0.293294
11
0.43272
21
-0.293294
0
LINE
8
BLACK
6
CONTINUOUS
10
0.43272
20
-0.293294
11
0.422683
21
-0.291781
0
LINE
8
BLACK
6
CONTINUOUS
10
0.422683
20
-0.291781
11
0.412984
21
-0.288789
0
LINE
8
BLACK
6
CONTINUOUS
10
0.412984
20
-0.288789
11
0.403839
21
-0.284385
0
LINE
8
BLACK
6
CONTINUOUS
10
0.403839
20
-0.284385
11
0.395452
21
-0.278667
0
LINE
8
BLACK
6
CONTINUOUS
10
0.395452
20
-0.278667
11
0.388011
21
-0.271763
0
LINE
8
BLACK
6
CONTINUOUS
10
0.388011
20
-0.271763
11
0.381683
21
-0.263828
0
LINE
8
BLACK
6
CONTINUOUS
10
0.381683
20
-0.263828
11
0.376607
21
-0.255037
0
LINE
8
BLACK
6
CONTINUOUS
10
0.376607
20
-0.255037
11
0.372899
21
-0.245588
0
LINE
8
BLACK
6
CONTINUOUS
10
0.372899
20
-0.245588
11
0.37064
21
-0.235693
0
LINE
8
BLACK
6
CONTINUOUS
10
0.37064
20
-0.235693
11
0.369882
21
-0.225571
0
LINE
8
BLACK
6
CONTINUOUS
10
0.369882
20
-0.225571
11
0.37064
21
-0.215449
0
LINE
8
BLACK
6
CONTINUOUS
10
0.37064
20
-0.215449
11
0.372899
21
-0.205553
0
LINE
8
BLACK
6
CONTINUOUS
10
0.372899
20
-0.205553
11
0.376607
21
-0.196104
0
LINE
8
BLACK
6
CONTINUOUS
10
0.376607
20
-0.196104
11
0.381683
21
-0.187314
0
LINE
8
BLACK
6
CONTINUOUS
10
0.381683
20
-0.187314
11
0.388011
21
-0.179378
0
LINE
8
BLACK
6
CONTINUOUS
10
0.388011
20
-0.179378
11
0.395452
21
-0.172474
0
LINE
8
BLACK
6
CONTINUOUS
10
0.395452
20
-0.172474
11
0.403839
21
-0.166756
0
LINE
8
BLACK
6
CONTINUOUS
10
0.403839
20
-0.166756
11
0.412984
21
-0.162352
0
LINE
8
BLACK
6
CONTINUOUS
10
0.412984
20
-0.162352
11
0.422683
21
-0.15936
0
LINE
8
BLACK
6
CONTINUOUS
10
0.422683
20
-0.15936
11
0.43272
21
-0.157847
0
LINE
8
BLACK
6
CONTINUOUS
10
0.43272
20
-0.157847
11
0.44287
21
-0.157847
0
LINE
8
BLACK
6
CONTINUOUS
10
0.44287
20
-0.157847
11
0.452907
21
-0.15936
0
LINE
8
BLACK
6
CONTINUOUS
10
0.984404
20
-0.15936
11
0.994103
21
-0.162352
0
LINE
8
BLACK
6
CONTINUOUS
10
0.994103
20
-0.162352
11
1.00325
21
-0.166756
0
LINE
8
BLACK
6
CONTINUOUS
10
1.00325
20
-0.166756
11
1.01163
21
-0.172474
0
LINE
8
BLACK
6
CONTINUOUS
10
1.01163
20
-0.172474
11
1.01908
21
-0.179378
0
LINE
8
BLACK
6
CONTINUOUS
10
1.01908
20
-0.179378
11
1.0254
21
-0.187314
0
LINE
8
BLACK
6
CONTINUOUS
10
1.0254
20
-0.187314
11
1.03048
21
-0.196104
0
LINE
8
BLACK
6
CONTINUOUS
10
1.03048
20
-0.196104
11
1.03419
21
-0.205553
0
LINE
8
BLACK
6
CONTINUOUS
10
1.03419
20
-0.205553
11
1.03645
21
-0.215449
0
LINE
8
BLACK
6
CONTINUOUS
10
1.03645
20
-0.215449
11
1.0372
21
-0.225571
0
LINE
8
BLACK
6
CONTINUOUS
10
1.0372
20
-0.225571
11
1.03645
21
-0.235693
0
LINE
8
BLACK
6
CONTINUOUS
10
1.03645
20
-0.235693
11
1.03419
21
-0.245588
0
LINE
8
BLACK
6
CONTINUOUS
10
1.03419
20
-0.245588
11
1.03048
21
-0.255037
0
LINE
8
BLACK
6
CONTINUOUS
10
1.03048
20
-0.255037
11
1.0254
21
-0.263828
0
LINE
8
BLACK
6
CONTINUOUS
10
1.0254
20
-0.263828
11
1.01908
21
-0.271763
0
LINE
8
BLACK
6
CONTINUOUS
10
1.01908
20
-0.271763
11
1.01163
21
-0.278667
0
LINE
8
BLACK
6
CONTINUOUS
10
1.01163
20
-0.278667
11
1.00325
21
-0.284385
0
LINE
8
BLACK
6
CONTINUOUS
10
1.00325
20
-0.284385
11
0.994103
21
-0.288789
0
LINE
8
BLACK
6
CONTINUOUS
10
0.994103
20
-0.288789
11
0.984404
21
-0.291781
0
LINE
8
BLACK
6
CONTINUOUS
10
0.984404
20
-0.291781
11
0.974366
21
-0.293294
0
LINE
8
BLACK
6
CONTINUOUS
10
0.974366
20
-0.293294
11
0.964216
21
-0.293294
0
LINE
8
BLACK
6
CONTINUOUS
10
0.964216
20
-0.293294
11
0.954179
21
-0.291781
0
LINE
8
BLACK
6
CONTINUOUS
10
0.954179
20
-0.291781
11
0.94448
21
-0.288789
0
LINE
8
BLACK
6
CONTINUOUS
10
0.94448
20
-0.288789
11
0.935335
21
-0.284385
0
LINE
8
BLACK
6
CONTINUOUS
10
0.935335
20
-0.284385
11
0.926948
21
-0.278667
0
LINE
8
BLACK
6
CONTINUOUS
10
0.926948
20
-0.278667
11
0.919507
21
-0.271763
0
LINE
8
BLACK
6
CONTINUOUS
10
0.919507
20
-0.271763
11
0.913179
21
-0.263828
0
LINE
8
BLACK
6
CONTINUOUS
10
0.913179
20
-0.263828
11
0.908104
21
-0.255037
0
LINE
8
BLACK
6
CONTINUOUS
10
0.908104
20
-0.255037
11
0.904395
21
-0.245588
0
LINE
8
BLACK
6
CONTINUOUS
10
0.904395
20
-0.245588
11
0.902136
21
-0.235693
0
LINE
8
BLACK
6
CONTINUOUS
10
0.902136
20
-0.235693
11
0.901378
21
-0.225571
0
LINE
8
BLACK
6
CONTINUOUS
10
0.901378
20
-0.225571
11
0.902136
21
-0.215449
0
LINE
8
BLACK
6
CONTINUOUS
10
0.902136
20
-0.215449
11
0.904395
21
-0.205553
0
LINE
8
BLACK
6
CONTINUOUS
10
0.904395
20
-0.205553
11
0.908104
21
-0.196104
0
LINE
8
BLACK
6
CONTINUOUS
10
0.908104
20
-0.196104
11
0.913179
21
-0.187314
0
LINE
8
BLACK
6
CONTINUOUS
10
0.913179
20
-0.187314
11
0.919507
21
-0.179378
0
LINE
8
BLACK
6
CONTINUOUS
10
0.919507
20
-0.179378
11
0.926948
21
-0.172474
0
LINE
8
BLACK
6
CONTINUOUS
10
0.926948
20
-0.172474
11
0.935335
21
-0.166756
0
LINE
8
BLACK
6
CONTINUOUS
10
0.935335
20
-0.166756
11
0.94448
21
-0.162352
0
LINE
8
BLACK
6
CONTINUOUS
10
0.94448
20
-0.162352
11
0.954179
21
-0.15936
0
LINE
8
BLACK
6
CONTINUOUS
10
0.954179
20
-0.15936
11
0.964216
21
-0.157847
0
LINE
8
BLACK
6
CONTINUOUS
10
0.964216
20
-0.157847
11
0.974366
21
-0.157847
0
LINE
8
BLACK
6
CONTINUOUS
10
0.974366
20
-0.157847
11
0.984404
21
-0.15936
0
LINE
8
BLACK
6
CONTINUOUS
10
2.11781
20
-0.24325
11
2.12122
21
-0.246106
0
LINE
8
BLACK
6
CONTINUOUS
10
2.12122
20
-0.246106
11
2.12344
21
-0.249954
0
LINE
8
BLACK
6
CONTINUOUS
10
2.12344
20
-0.249954
11
2.12421
21
-0.254331
0
LINE
8
BLACK
6
CONTINUOUS
10
2.12421
20
-0.254331
11
2.12344
21
-0.258707
0
LINE
8
BLACK
6
CONTINUOUS
10
2.12344
20
-0.258707
11
2.12122
21
-0.262555
0
LINE
8
BLACK
6
CONTINUOUS
10
2.12122
20
-0.262555
11
2.11781
21
-0.265412
0
LINE
8
BLACK
6
CONTINUOUS
10
2.11781
20
-0.265412
11
2.11364
21
-0.266932
0
LINE
8
BLACK
6
CONTINUOUS
10
2.11364
20
-0.266932
11
2.1092
21
-0.266932
0
LINE
8
BLACK
6
CONTINUOUS
10
2.1092
20
-0.266932
11
2.10502
21
-0.265412
0
LINE
8
BLACK
6
CONTINUOUS
10
2.10502
20
-0.265412
11
2.10162
21
-0.262555
0
LINE
8
BLACK
6
CONTINUOUS
10
2.10162
20
-0.262555
11
2.09939
21
-0.258707
0
LINE
8
BLACK
6
CONTINUOUS
10
2.09939
20
-0.258707
11
2.09862
21
-0.254331
0
LINE
8
BLACK
6
CONTINUOUS
10
2.09862
20
-0.254331
11
2.09939
21
-0.249954
0
LINE
8
BLACK
6
CONTINUOUS
10
2.09939
20
-0.249954
11
2.10162
21
-0.246106
0
LINE
8
BLACK
6
CONTINUOUS
10
2.10162
20
-0.246106
11
2.10502
21
-0.24325
0
LINE
8
BLACK
6
CONTINUOUS
10
2.10502
20
-0.24325
11
2.1092
21
-0.24173
0
LINE
8
BLACK
6
CONTINUOUS
10
2.1092
20
-0.24173
11
2.11364
21
-0.24173
0
LINE
8
BLACK
6
CONTINUOUS
10
2.11364
20
-0.24173
11
2.11781
21
-0.24325
0
LINE
8
BLACK
6
CONTINUOUS
10
2.34537
20
-0.24325
11
2.34878
21
-0.246106
0
LINE
8
BLACK
6
CONTINUOUS
10
2.34878
20
-0.246106
11
2.351
21
-0.249954
0
LINE
8
BLACK
6
CONTINUOUS
10
2.351
20
-0.249954
11
2.35177
21
-0.254331
0
LINE
8
BLACK
6
CONTINUOUS
10
2.35177
20
-0.254331
11
2.351
21
-0.258707
0
LINE
8
BLACK
6
CONTINUOUS
10
2.351
20
-0.258707
11
2.34878
21
-0.262555
0
LINE
8
BLACK
6
CONTINUOUS
10
2.34878
20
-0.262555
11
2.34537
21
-0.265412
0
LINE
8
BLACK
6
CONTINUOUS
10
2.34537
20
-0.265412
11
2.3412
21
-0.266932
0
LINE
8
BLACK
6
CONTINUOUS
10
2.3412
20
-0.266932
11
2.33675
21
-0.266932
0
LINE
8
BLACK
6
CONTINUOUS
10
2.33675
20
-0.266932
11
2.33258
21
-0.265412
0
LINE
8
BLACK
6
CONTINUOUS
10
2.33258
20
-0.265412
11
2.32917
21
-0.262555
0
LINE
8
BLACK
6
CONTINUOUS
10
2.32917
20
-0.262555
11
2.32695
21
-0.258707
0
LINE
8
BLACK
6
CONTINUOUS
10
2.32695
20
-0.258707
11
2.32618
21
-0.254331
0
LINE
8
BLACK
6
CONTINUOUS
10
2.32618
20
-0.254331
11
2.32695
21
-0.249954
0
LINE
8
BLACK
6
CONTINUOUS
10
2.32695
20
-0.249954
11
2.32917
21
-0.246106
0
LINE
8
BLACK
6
CONTINUOUS
10
2.32917
20
-0.246106
11
2.33258
21
-0.24325
0
LINE
8
BLACK
6
CONTINUOUS
10
2.33258
20
-0.24325
11
2.33675
21
-0.24173
0
LINE
8
BLACK
6
CONTINUOUS
10
2.33675
20
-0.24173
11
2.3412
21
-0.24173
0
LINE
8
BLACK
6
CONTINUOUS
10
2.3412
20
-0.24173
11
2.34537
21
-0.24325
0
LINE
8
BLACK
6
CONTINUOUS
10
0.718655
20
-0.127864
11
0.728355
21
-0.130856
0
LINE
8
BLACK
6
CONTINUOUS
10
0.728355
20
-0.130856
11
0.7375
21
-0.13526
0
LINE
8
BLACK
6
CONTINUOUS
10
0.7375
20
-0.13526
11
0.745887
21
-0.140978
0
LINE
8
BLACK
6
CONTINUOUS
10
0.745887
20
-0.140978
11
0.753327
21
-0.147882
0
LINE
8
BLACK
6
CONTINUOUS
10
0.753327
20
-0.147882
11
0.759656
21
-0.155818
0
LINE
8
BLACK
6
CONTINUOUS
10
0.759656
20
-0.155818
11
0.764731
21
-0.164608
0
LINE
8
BLACK
6
CONTINUOUS
10
0.764731
20
-0.164608
11
0.768439
21
-0.174057
0
LINE
8
BLACK
6
CONTINUOUS
10
0.768439
20
-0.174057
11
0.770698
21
-0.183953
0
LINE
8
BLACK
6
CONTINUOUS
10
0.770698
20
-0.183953
11
0.771457
21
-0.194074
0
LINE
8
BLACK
6
CONTINUOUS
10
0.771457
20
-0.194074
11
0.770698
21
-0.204196
0
LINE
8
BLACK
6
CONTINUOUS
10
0.770698
20
-0.204196
11
0.768439
21
-0.214092
0
LINE
8
BLACK
6
CONTINUOUS
10
0.768439
20
-0.214092
11
0.764731
21
-0.223541
0
LINE
8
BLACK
6
CONTINUOUS
10
0.764731
20
-0.223541
11
0.759656
21
-0.232331
0
LINE
8
BLACK
6
CONTINUOUS
10
0.759656
20
-0.232331
11
0.753327
21
-0.240267
0
LINE
8
BLACK
6
CONTINUOUS
10
0.753327
20
-0.240267
11
0.745887
21
-0.247171
0
LINE
8
BLACK
6
CONTINUOUS
10
0.745887
20
-0.247171
11
0.7375
21
-0.252889
0
LINE
8
BLACK
6
CONTINUOUS
10
0.7375
20
-0.252889
11
0.728355
21
-0.257293
0
LINE
8
BLACK
6
CONTINUOUS
10
0.728355
20
-0.257293
11
0.718655
21
-0.260285
0
LINE
8
BLACK
6
CONTINUOUS
10
0.718655
20
-0.260285
11
0.708618
21
-0.261798
0
LINE
8
BLACK
6
CONTINUOUS
10
0.708618
20
-0.261798
11
0.698468
21
-0.261798
0
LINE
8
BLACK
6
CONTINUOUS
10
0.698468
20
-0.261798
11
0.688431
21
-0.260285
0
LINE
8
BLACK
6
CONTINUOUS
10
0.688431
20
-0.260285
11
0.678732
21
-0.257293
0
LINE
8
BLACK
6
CONTINUOUS
10
0.678732
20
-0.257293
11
0.669587
21
-0.252889
0
LINE
8
BLACK
6
CONTINUOUS
10
0.669587
20
-0.252889
11
0.6612
21
-0.247171
0
LINE
8
BLACK
6
CONTINUOUS
10
0.6612
20
-0.247171
11
0.653759
21
-0.240267
0
LINE
8
BLACK
6
CONTINUOUS
10
0.653759
20
-0.240267
11
0.647431
21
-0.232331
0
LINE
8
BLACK
6
CONTINUOUS
10
0.647431
20
-0.232331
11
0.642355
21
-0.223541
0
LINE
8
BLACK
6
CONTINUOUS
10
0.642355
20
-0.223541
11
0.638647
21
-0.214092
0
LINE
8
BLACK
6
CONTINUOUS
10
0.638647
20
-0.214092
11
0.636388
21
-0.204196
0
LINE
8
BLACK
6
CONTINUOUS
10
0.636388
20
-0.204196
11
0.63563
21
-0.194074
0
LINE
8
BLACK
6
CONTINUOUS
10
0.63563
20
-0.194074
11
0.636388
21
-0.183953
0
LINE
8
BLACK
6
CONTINUOUS
10
0.636388
20
-0.183953
11
0.638647
21
-0.174057
0
LINE
8
BLACK
6
CONTINUOUS
10
0.638647
20
-0.174057
11
0.642355
21
-0.164608
0
LINE
8
BLACK
6
CONTINUOUS
10
0.642355
20
-0.164608
11
0.647431
21
-0.155818
0
LINE
8
BLACK
6
CONTINUOUS
10
0.647431
20
-0.155818
11
0.653759
21
-0.147882
0
LINE
8
BLACK
6
CONTINUOUS
10
0.653759
20
-0.147882
11
0.6612
21
-0.140978
0
LINE
8
BLACK
6
CONTINUOUS
10
0.6612
20
-0.140978
11
0.669587
21
-0.13526
0
LINE
8
BLACK
6
CONTINUOUS
10
0.669587
20
-0.13526
11
0.678732
21
-0.130856
0
LINE
8
BLACK
6
CONTINUOUS
10
0.678732
20
-0.130856
11
0.688431
21
-0.127864
0
LINE
8
BLACK
6
CONTINUOUS
10
0.688431
20
-0.127864
11
0.698468
21
-0.126351
0
LINE
8
BLACK
6
CONTINUOUS
10
0.698468
20
-0.126351
11
0.708618
21
-0.126351
0
LINE
8
BLACK
6
CONTINUOUS
10
0.708618
20
-0.126351
11
0.718655
21
-0.127864
0
LINE
8
BLACK
6
CONTINUOUS
10
2.0633
20
-0.0718576
11
2.06801
21
-0.0748868
0
LINE
8
BLACK
6
CONTINUOUS
10
2.06801
20
-0.0748868
11
2.07168
21
-0.0791213
0
LINE
8
BLACK
6
CONTINUOUS
10
2.07168
20
-0.0791213
11
2.07401
21
-0.0842179
0
LINE
8
BLACK
6
CONTINUOUS
10
2.07401
20
-0.0842179
11
2.0748
21
-0.0897638
0
LINE
8
BLACK
6
CONTINUOUS
10
2.0748
20
-0.0897638
11
2.0748
21
-0.129134
0
LINE
8
BLACK
6
CONTINUOUS
10
2.0748
20
-0.129134
11
2.07401
21
-0.13468
0
LINE
8
BLACK
6
CONTINUOUS
10
2.07401
20
-0.13468
11
2.07168
21
-0.139776
0
LINE
8
BLACK
6
CONTINUOUS
10
2.07168
20
-0.139776
11
2.06801
21
-0.144011
0
LINE
8
BLACK
6
CONTINUOUS
10
2.06801
20
-0.144011
11
2.0633
21
-0.14704
0
LINE
8
BLACK
6
CONTINUOUS
10
2.0633
20
-0.14704
11
2.05792
21
-0.148619
0
LINE
8
BLACK
6
CONTINUOUS
10
2.05792
20
-0.148619
11
2.05232
21
-0.148619
0
LINE
8
BLACK
6
CONTINUOUS
10
2.05232
20
-0.148619
11
2.04694
21
-0.14704
0
LINE
8
BLACK
6
CONTINUOUS
10
2.04694
20
-0.14704
11
2.04223
21
-0.144011
0
LINE
8
BLACK
6
CONTINUOUS
10
2.04223
20
-0.144011
11
2.03856
21
-0.139776
0
LINE
8
BLACK
6
CONTINUOUS
10
2.03856
20
-0.139776
11
2.03623
21
-0.13468
0
LINE
8
BLACK
6
CONTINUOUS
10
2.03623
20
-0.13468
11
2.03543
21
-0.129134
0
LINE
8
BLACK
6
CONTINUOUS
10
2.03543
20
-0.129134
11
2.03543
21
-0.0897638
0
LINE
8
BLACK
6
CONTINUOUS
10
2.03543
20
-0.0897638
11
2.03623
21
-0.0842179
0
LINE
8
BLACK
6
CONTINUOUS
10
2.03623
20
-0.0842179
11
2.03856
21
-0.0791213
0
LINE
8
BLACK
6
CONTINUOUS
10
2.03856
20
-0.0791213
11
2.04223
21
-0.0748868
0
LINE
8
BLACK
6
CONTINUOUS
10
2.04223
20
-0.0748868
11
2.04694
21
-0.0718576
0
LINE
8
BLACK
6
CONTINUOUS
10
2.04694
20
-0.0718576
11
2.05232
21
-0.0702791
0
LINE
8
BLACK
6
CONTINUOUS
10
2.05232
20
-0.0702791
11
2.05792
21
-0.0702791
0
LINE
8
BLACK
6
CONTINUOUS
10
2.05792
20
-0.0702791
11
2.0633
21
-0.0718576
0
LINE
8
BLACK
6
CONTINUOUS
10
2.40345
20
-0.0718576
11
2.40817
21
-0.0748868
0
LINE
8
BLACK
6
CONTINUOUS
10
2.40817
20
-0.0748868
11
2.41184
21
-0.0791213
0
LINE
8
BLACK
6
CONTINUOUS
10
2.41184
20
-0.0791213
11
2.41416
21
-0.0842179
0
LINE
8
BLACK
6
CONTINUOUS
10
2.41416
20
-0.0842179
11
2.41496
21
-0.0897638
0
LINE
8
BLACK
6
CONTINUOUS
10
2.41496
20
-0.0897638
11
2.41496
21
-0.129134
0
LINE
8
BLACK
6
CONTINUOUS
10
2.41496
20
-0.129134
11
2.41416
21
-0.13468
0
LINE
8
BLACK
6
CONTINUOUS
10
2.41416
20
-0.13468
11
2.41184
21
-0.139776
0
LINE
8
BLACK
6
CONTINUOUS
10
2.41184
20
-0.139776
11
2.40817
21
-0.144011
0
LINE
8
BLACK
6
CONTINUOUS
10
2.40817
20
-0.144011
11
2.40345
21
-0.14704
0
LINE
8
BLACK
6
CONTINUOUS
10
2.40345
20
-0.14704
11
2.39808
21
-0.148619
0
LINE
8
BLACK
6
CONTINUOUS
10
2.39808
20
-0.148619
11
2.39247
21
-0.148619
0
LINE
8
BLACK
6
CONTINUOUS
10
2.39247
20
-0.148619
11
2.3871
21
-0.14704
0
LINE
8
BLACK
6
CONTINUOUS
10
2.3871
20
-0.14704
11
2.38238
21
-0.144011
0
LINE
8
BLACK
6
CONTINUOUS
10
2.38238
20
-0.144011
11
2.37872
21
-0.139776
0
LINE
8
BLACK
6
CONTINUOUS
10
2.37872
20
-0.139776
11
2.37639
21
-0.13468
0
LINE
8
BLACK
6
CONTINUOUS
10
2.37639
20
-0.13468
11
2.37559
21
-0.129134
0
LINE
8
BLACK
6
CONTINUOUS
10
2.37559
20
-0.129134
11
2.37559
21
-0.0897638
0
LINE
8
BLACK
6
CONTINUOUS
10
2.37559
20
-0.0897638
11
2.37639
21
-0.0842179
0
LINE
8
BLACK
6
CONTINUOUS
10
2.37639
20
-0.0842179
11
2.37872
21
-0.0791213
0
LINE
8
BLACK
6
CONTINUOUS
10
2.37872
20
-0.0791213
11
2.38238
21
-0.0748868
0
LINE
8
BLACK
6
CONTINUOUS
10
2.38238
20
-0.0748868
11
2.3871
21
-0.0718576
0
LINE
8
BLACK
6
CONTINUOUS
10
2.3871
20
-0.0718576
11
2.39247
21
-0.0702791
0
LINE
8
BLACK
6
CONTINUOUS
10
2.39247
20
-0.0702791
11
2.39808
21
-0.0702791
0
LINE
8
BLACK
6
CONTINUOUS
10
2.39808
20
-0.0702791
11
2.40345
21
-0.0718576
  0
ENDSEC
  0
EOF
