  0
SECTION
  2
HEADER
  9
$ANGBASE
  50
0.0
  9
$ANGDIR
  70
1
  9
$MEASUREMENT
  70
0
  0
ENDSEC
  0
SECTION
  2
TABLES
  0
TABLE
  2
LTYPE
  70
4
  0
LTYPE
  5
40F
  2
CONTINUOUS
  70
0
  3
Solid line
  72
65
  73
0
  40
0.0
  0
LTYPE
  5
410
  2
DASHDOT
 70
0
  3
Dash Dot ____ _ ____ _
 72
65
 73
4
 40
2.0
 49
1.25
 49
-0.25
 49
0.25
 49
-0.25
  0
LTYPE
  5
411
  2
DASHED
 70
0
  3
Dashed __ __ __ __ __
 72
65
 73
2
 40
0.75
 49
0.5
 49
-0.25
  0
LTYPE
  5
43B
  2
DOTTED
 70
0
  3
Dotted .  .  .  .
 72
65
 73
2
 40
0.2
 49
0.0
 49
-0.2
  0
ENDTAB
  0
TABLE
  2
STYLE
  70
4
  0
STYLE
  2
KICAD
  70
0
  40
0
  41
1
  42
1
  50
0
  71
0
  3
isocp.shx
  0
STYLE
  2
KICADB
  70
0
  40
0
  41
1
  42
1
  50
0
  71
0
  3
isocp.shx
  0
STYLE
  2
KICADI
  70
0
  40
0
  41
1
  42
1
  50
15
  71
0
  3
isocp.shx
  0
STYLE
  2
KICADBI
  70
0
  40
0
  41
1
  42
1
  50
15
  71
0
  3
isocp.shx
  0
ENDTAB
  0
TABLE
  2
LAYER
  70
1
  0
LAYER
  2
BLACK
  70
0
  62
7
  6
CONTINUOUS
  0
ENDTAB
  0
ENDSEC
  0
SECTION
  2
ENTITIES
0
LINE
8
BLACK
6
CONTINUOUS
10
2.10723
20
-1.57027
11
2.11481
21
-1.57257
0
LINE
8
BLACK
6
CONTINUOUS
10
2.11481
20
-1.57257
11
2.12178
21
-1.5763
0
LINE
8
BLACK
6
CONTINUOUS
10
2.12178
20
-1.5763
11
2.1279
21
-1.58132
0
LINE
8
BLACK
6
CONTINUOUS
10
2.1279
20
-1.58132
11
2.13292
21
-1.58743
0
LINE
8
BLACK
6
CONTINUOUS
10
2.13292
20
-1.58743
11
2.13664
21
-1.59441
0
LINE
8
BLACK
6
CONTINUOUS
10
2.13664
20
-1.59441
11
2.13894
21
-1.60198
0
LINE
8
BLACK
6
CONTINUOUS
10
2.13894
20
-1.60198
11
2.13972
21
-1.60985
0
LINE
8
BLACK
6
CONTINUOUS
10
2.13972
20
-1.60985
11
2.13894
21
-1.61773
0
LINE
8
BLACK
6
CONTINUOUS
10
2.13894
20
-1.61773
11
2.13664
21
-1.6253
0
LINE
8
BLACK
6
CONTINUOUS
10
2.13664
20
-1.6253
11
2.13292
21
-1.63227
0
LINE
8
BLACK
6
CONTINUOUS
10
2.13292
20
-1.63227
11
2.1279
21
-1.63839
0
LINE
8
BLACK
6
CONTINUOUS
10
2.1279
20
-1.63839
11
2.12178
21
-1.64341
0
LINE
8
BLACK
6
CONTINUOUS
10
2.12178
20
-1.64341
11
2.11481
21
-1.64714
0
LINE
8
BLACK
6
CONTINUOUS
10
2.11481
20
-1.64714
11
2.10723
21
-1.64943
0
LINE
8
BLACK
6
CONTINUOUS
10
2.10723
20
-1.64943
11
2.09936
21
-1.65021
0
LINE
8
BLACK
6
CONTINUOUS
10
2.09936
20
-1.65021
11
2.09149
21
-1.64943
0
LINE
8
BLACK
6
CONTINUOUS
10
2.09149
20
-1.64943
11
2.08392
21
-1.64714
0
LINE
8
BLACK
6
CONTINUOUS
10
2.08392
20
-1.64714
11
2.07694
21
-1.64341
0
LINE
8
BLACK
6
CONTINUOUS
10
2.07694
20
-1.64341
11
2.07083
21
-1.63839
0
LINE
8
BLACK
6
CONTINUOUS
10
2.07083
20
-1.63839
11
2.06581
21
-1.63227
0
LINE
8
BLACK
6
CONTINUOUS
10
2.06581
20
-1.63227
11
2.06208
21
-1.6253
0
LINE
8
BLACK
6
CONTINUOUS
10
2.06208
20
-1.6253
11
2.05978
21
-1.61773
0
LINE
8
BLACK
6
CONTINUOUS
10
2.05978
20
-1.61773
11
2.05901
21
-1.60985
0
LINE
8
BLACK
6
CONTINUOUS
10
2.05901
20
-1.60985
11
2.05978
21
-1.60198
0
LINE
8
BLACK
6
CONTINUOUS
10
2.05978
20
-1.60198
11
2.06208
21
-1.59441
0
LINE
8
BLACK
6
CONTINUOUS
10
2.06208
20
-1.59441
11
2.06581
21
-1.58743
0
LINE
8
BLACK
6
CONTINUOUS
10
2.06581
20
-1.58743
11
2.07083
21
-1.58132
0
LINE
8
BLACK
6
CONTINUOUS
10
2.07083
20
-1.58132
11
2.07694
21
-1.5763
0
LINE
8
BLACK
6
CONTINUOUS
10
2.07694
20
-1.5763
11
2.08392
21
-1.57257
0
LINE
8
BLACK
6
CONTINUOUS
10
2.08392
20
-1.57257
11
2.09149
21
-1.57027
0
LINE
8
BLACK
6
CONTINUOUS
10
2.09149
20
-1.57027
11
2.09936
21
-1.5695
0
LINE
8
BLACK
6
CONTINUOUS
10
2.09936
20
-1.5695
11
2.10723
21
-1.57027
0
LINE
8
BLACK
6
CONTINUOUS
10
2.06153
20
-1.61738
11
2.06373
21
-1.62461
0
LINE
8
BLACK
6
CONTINUOUS
10
2.06373
20
-1.62461
11
2.06729
21
-1.63128
0
LINE
8
BLACK
6
CONTINUOUS
10
2.06729
20
-1.63128
11
2.07209
21
-1.63713
0
LINE
8
BLACK
6
CONTINUOUS
10
2.07209
20
-1.63713
11
2.07793
21
-1.64192
0
LINE
8
BLACK
6
CONTINUOUS
10
2.07793
20
-1.64192
11
2.0846
21
-1.64549
0
LINE
8
BLACK
6
CONTINUOUS
10
2.0846
20
-1.64549
11
2.09184
21
-1.64768
0
LINE
8
BLACK
6
CONTINUOUS
10
2.09184
20
-1.64768
11
2.09936
21
-1.64842
0
LINE
8
BLACK
6
CONTINUOUS
10
2.09936
20
-1.64842
11
2.10689
21
-1.64768
0
LINE
8
BLACK
6
CONTINUOUS
10
2.10689
20
-1.64768
11
2.11412
21
-1.64549
0
LINE
8
BLACK
6
CONTINUOUS
10
2.11412
20
-1.64549
11
2.12079
21
-1.64192
0
LINE
8
BLACK
6
CONTINUOUS
10
2.12079
20
-1.64192
11
2.12664
21
-1.63713
0
LINE
8
BLACK
6
CONTINUOUS
10
2.12664
20
-1.63713
11
2.13143
21
-1.63128
0
LINE
8
BLACK
6
CONTINUOUS
10
2.13143
20
-1.63128
11
2.135
21
-1.62461
0
LINE
8
BLACK
6
CONTINUOUS
10
2.135
20
-1.62461
11
2.13719
21
-1.61738
0
LINE
8
BLACK
6
CONTINUOUS
10
2.13719
20
-1.61738
11
2.13793
21
-1.60985
0
LINE
8
BLACK
6
CONTINUOUS
10
2.13793
20
-1.60985
11
2.13719
21
-1.60233
0
LINE
8
BLACK
6
CONTINUOUS
10
2.13719
20
-1.60233
11
2.135
21
-1.59509
0
LINE
8
BLACK
6
CONTINUOUS
10
2.135
20
-1.59509
11
2.13143
21
-1.58842
0
LINE
8
BLACK
6
CONTINUOUS
10
2.13143
20
-1.58842
11
2.12664
21
-1.58258
0
LINE
8
BLACK
6
CONTINUOUS
10
2.12664
20
-1.58258
11
2.12079
21
-1.57778
0
LINE
8
BLACK
6
CONTINUOUS
10
2.12079
20
-1.57778
11
2.11412
21
-1.57422
0
LINE
8
BLACK
6
CONTINUOUS
10
2.11412
20
-1.57422
11
2.10689
21
-1.57202
0
LINE
8
BLACK
6
CONTINUOUS
10
2.10689
20
-1.57202
11
2.09936
21
-1.57128
0
LINE
8
BLACK
6
CONTINUOUS
10
2.09936
20
-1.57128
11
2.09184
21
-1.57202
0
LINE
8
BLACK
6
CONTINUOUS
10
2.09184
20
-1.57202
11
2.0846
21
-1.57422
0
LINE
8
BLACK
6
CONTINUOUS
10
2.0846
20
-1.57422
11
2.07793
21
-1.57778
0
LINE
8
BLACK
6
CONTINUOUS
10
2.07793
20
-1.57778
11
2.07209
21
-1.58258
0
LINE
8
BLACK
6
CONTINUOUS
10
2.07209
20
-1.58258
11
2.06729
21
-1.58842
0
LINE
8
BLACK
6
CONTINUOUS
10
2.06729
20
-1.58842
11
2.06373
21
-1.59509
0
LINE
8
BLACK
6
CONTINUOUS
10
2.06373
20
-1.59509
11
2.06153
21
-1.60233
0
LINE
8
BLACK
6
CONTINUOUS
10
2.06153
20
-1.60233
11
2.06079
21
-1.60985
0
LINE
8
BLACK
6
CONTINUOUS
10
2.06079
20
-1.60985
11
2.06153
21
-1.61738
0
LINE
8
BLACK
6
CONTINUOUS
10
2.19385
20
-1.57027
11
2.20142
21
-1.57257
0
LINE
8
BLACK
6
CONTINUOUS
10
2.20142
20
-1.57257
11
2.2084
21
-1.5763
0
LINE
8
BLACK
6
CONTINUOUS
10
2.2084
20
-1.5763
11
2.21451
21
-1.58132
0
LINE
8
BLACK
6
CONTINUOUS
10
2.21451
20
-1.58132
11
2.21953
21
-1.58743
0
LINE
8
BLACK
6
CONTINUOUS
10
2.21953
20
-1.58743
11
2.22326
21
-1.59441
0
LINE
8
BLACK
6
CONTINUOUS
10
2.22326
20
-1.59441
11
2.22556
21
-1.60198
0
LINE
8
BLACK
6
CONTINUOUS
10
2.22556
20
-1.60198
11
2.22633
21
-1.60985
0
LINE
8
BLACK
6
CONTINUOUS
10
2.22633
20
-1.60985
11
2.22556
21
-1.61773
0
LINE
8
BLACK
6
CONTINUOUS
10
2.22556
20
-1.61773
11
2.22326
21
-1.6253
0
LINE
8
BLACK
6
CONTINUOUS
10
2.22326
20
-1.6253
11
2.21953
21
-1.63227
0
LINE
8
BLACK
6
CONTINUOUS
10
2.21953
20
-1.63227
11
2.21451
21
-1.63839
0
LINE
8
BLACK
6
CONTINUOUS
10
2.21451
20
-1.63839
11
2.2084
21
-1.64341
0
LINE
8
BLACK
6
CONTINUOUS
10
2.2084
20
-1.64341
11
2.20142
21
-1.64714
0
LINE
8
BLACK
6
CONTINUOUS
10
2.20142
20
-1.64714
11
2.19385
21
-1.64943
0
LINE
8
BLACK
6
CONTINUOUS
10
2.19385
20
-1.64943
11
2.18598
21
-1.65021
0
LINE
8
BLACK
6
CONTINUOUS
10
2.18598
20
-1.65021
11
2.1781
21
-1.64943
0
LINE
8
BLACK
6
CONTINUOUS
10
2.1781
20
-1.64943
11
2.17053
21
-1.64714
0
LINE
8
BLACK
6
CONTINUOUS
10
2.17053
20
-1.64714
11
2.16356
21
-1.64341
0
LINE
8
BLACK
6
CONTINUOUS
10
2.16356
20
-1.64341
11
2.15744
21
-1.63839
0
LINE
8
BLACK
6
CONTINUOUS
10
2.15744
20
-1.63839
11
2.15242
21
-1.63227
0
LINE
8
BLACK
6
CONTINUOUS
10
2.15242
20
-1.63227
11
2.14869
21
-1.6253
0
LINE
8
BLACK
6
CONTINUOUS
10
2.14869
20
-1.6253
11
2.1464
21
-1.61773
0
LINE
8
BLACK
6
CONTINUOUS
10
2.1464
20
-1.61773
11
2.14562
21
-1.60985
0
LINE
8
BLACK
6
CONTINUOUS
10
2.14562
20
-1.60985
11
2.1464
21
-1.60198
0
LINE
8
BLACK
6
CONTINUOUS
10
2.1464
20
-1.60198
11
2.14869
21
-1.59441
0
LINE
8
BLACK
6
CONTINUOUS
10
2.14869
20
-1.59441
11
2.15242
21
-1.58743
0
LINE
8
BLACK
6
CONTINUOUS
10
2.15242
20
-1.58743
11
2.15744
21
-1.58132
0
LINE
8
BLACK
6
CONTINUOUS
10
2.15744
20
-1.58132
11
2.16356
21
-1.5763
0
LINE
8
BLACK
6
CONTINUOUS
10
2.16356
20
-1.5763
11
2.17053
21
-1.57257
0
LINE
8
BLACK
6
CONTINUOUS
10
2.17053
20
-1.57257
11
2.1781
21
-1.57027
0
LINE
8
BLACK
6
CONTINUOUS
10
2.1781
20
-1.57027
11
2.18598
21
-1.5695
0
LINE
8
BLACK
6
CONTINUOUS
10
2.18598
20
-1.5695
11
2.19385
21
-1.57027
0
LINE
8
BLACK
6
CONTINUOUS
10
2.14815
20
-1.61738
11
2.15034
21
-1.62461
0
LINE
8
BLACK
6
CONTINUOUS
10
2.15034
20
-1.62461
11
2.15391
21
-1.63128
0
LINE
8
BLACK
6
CONTINUOUS
10
2.15391
20
-1.63128
11
2.1587
21
-1.63713
0
LINE
8
BLACK
6
CONTINUOUS
10
2.1587
20
-1.63713
11
2.16455
21
-1.64192
0
LINE
8
BLACK
6
CONTINUOUS
10
2.16455
20
-1.64192
11
2.17122
21
-1.64549
0
LINE
8
BLACK
6
CONTINUOUS
10
2.17122
20
-1.64549
11
2.17845
21
-1.64768
0
LINE
8
BLACK
6
CONTINUOUS
10
2.17845
20
-1.64768
11
2.18598
21
-1.64842
0
LINE
8
BLACK
6
CONTINUOUS
10
2.18598
20
-1.64842
11
2.1935
21
-1.64768
0
LINE
8
BLACK
6
CONTINUOUS
10
2.1935
20
-1.64768
11
2.20074
21
-1.64549
0
LINE
8
BLACK
6
CONTINUOUS
10
2.20074
20
-1.64549
11
2.20741
21
-1.64192
0
LINE
8
BLACK
6
CONTINUOUS
10
2.20741
20
-1.64192
11
2.21325
21
-1.63713
0
LINE
8
BLACK
6
CONTINUOUS
10
2.21325
20
-1.63713
11
2.21805
21
-1.63128
0
LINE
8
BLACK
6
CONTINUOUS
10
2.21805
20
-1.63128
11
2.22161
21
-1.62461
0
LINE
8
BLACK
6
CONTINUOUS
10
2.22161
20
-1.62461
11
2.22381
21
-1.61738
0
LINE
8
BLACK
6
CONTINUOUS
10
2.22381
20
-1.61738
11
2.22455
21
-1.60985
0
LINE
8
BLACK
6
CONTINUOUS
10
2.22455
20
-1.60985
11
2.22381
21
-1.60233
0
LINE
8
BLACK
6
CONTINUOUS
10
2.22381
20
-1.60233
11
2.22161
21
-1.59509
0
LINE
8
BLACK
6
CONTINUOUS
10
2.22161
20
-1.59509
11
2.21805
21
-1.58842
0
LINE
8
BLACK
6
CONTINUOUS
10
2.21805
20
-1.58842
11
2.21325
21
-1.58258
0
LINE
8
BLACK
6
CONTINUOUS
10
2.21325
20
-1.58258
11
2.20741
21
-1.57778
0
LINE
8
BLACK
6
CONTINUOUS
10
2.20741
20
-1.57778
11
2.20074
21
-1.57422
0
LINE
8
BLACK
6
CONTINUOUS
10
2.20074
20
-1.57422
11
2.1935
21
-1.57202
0
LINE
8
BLACK
6
CONTINUOUS
10
2.1935
20
-1.57202
11
2.18598
21
-1.57128
0
LINE
8
BLACK
6
CONTINUOUS
10
2.18598
20
-1.57128
11
2.17845
21
-1.57202
0
LINE
8
BLACK
6
CONTINUOUS
10
2.17845
20
-1.57202
11
2.17122
21
-1.57422
0
LINE
8
BLACK
6
CONTINUOUS
10
2.17122
20
-1.57422
11
2.16455
21
-1.57778
0
LINE
8
BLACK
6
CONTINUOUS
10
2.16455
20
-1.57778
11
2.1587
21
-1.58258
0
LINE
8
BLACK
6
CONTINUOUS
10
2.1587
20
-1.58258
11
2.15391
21
-1.58842
0
LINE
8
BLACK
6
CONTINUOUS
10
2.15391
20
-1.58842
11
2.15034
21
-1.59509
0
LINE
8
BLACK
6
CONTINUOUS
10
2.15034
20
-1.59509
11
2.14815
21
-1.60233
0
LINE
8
BLACK
6
CONTINUOUS
10
2.14815
20
-1.60233
11
2.1474
21
-1.60985
0
LINE
8
BLACK
6
CONTINUOUS
10
2.1474
20
-1.60985
11
2.14815
21
-1.61738
0
LINE
8
BLACK
6
CONTINUOUS
10
2.28046
20
-1.57027
11
2.28803
21
-1.57257
0
LINE
8
BLACK
6
CONTINUOUS
10
2.28803
20
-1.57257
11
2.29501
21
-1.5763
0
LINE
8
BLACK
6
CONTINUOUS
10
2.29501
20
-1.5763
11
2.30113
21
-1.58132
0
LINE
8
BLACK
6
CONTINUOUS
10
2.30113
20
-1.58132
11
2.30614
21
-1.58743
0
LINE
8
BLACK
6
CONTINUOUS
10
2.30614
20
-1.58743
11
2.30987
21
-1.59441
0
LINE
8
BLACK
6
CONTINUOUS
10
2.30987
20
-1.59441
11
2.31217
21
-1.60198
0
LINE
8
BLACK
6
CONTINUOUS
10
2.31217
20
-1.60198
11
2.31294
21
-1.60985
0
LINE
8
BLACK
6
CONTINUOUS
10
2.31294
20
-1.60985
11
2.31217
21
-1.61773
0
LINE
8
BLACK
6
CONTINUOUS
10
2.31217
20
-1.61773
11
2.30987
21
-1.6253
0
LINE
8
BLACK
6
CONTINUOUS
10
2.30987
20
-1.6253
11
2.30614
21
-1.63227
0
LINE
8
BLACK
6
CONTINUOUS
10
2.30614
20
-1.63227
11
2.30113
21
-1.63839
0
LINE
8
BLACK
6
CONTINUOUS
10
2.30113
20
-1.63839
11
2.29501
21
-1.64341
0
LINE
8
BLACK
6
CONTINUOUS
10
2.29501
20
-1.64341
11
2.28803
21
-1.64714
0
LINE
8
BLACK
6
CONTINUOUS
10
2.28803
20
-1.64714
11
2.28046
21
-1.64943
0
LINE
8
BLACK
6
CONTINUOUS
10
2.28046
20
-1.64943
11
2.27259
21
-1.65021
0
LINE
8
BLACK
6
CONTINUOUS
10
2.27259
20
-1.65021
11
2.26472
21
-1.64943
0
LINE
8
BLACK
6
CONTINUOUS
10
2.26472
20
-1.64943
11
2.25715
21
-1.64714
0
LINE
8
BLACK
6
CONTINUOUS
10
2.25715
20
-1.64714
11
2.25017
21
-1.64341
0
LINE
8
BLACK
6
CONTINUOUS
10
2.25017
20
-1.64341
11
2.24406
21
-1.63839
0
LINE
8
BLACK
6
CONTINUOUS
10
2.24406
20
-1.63839
11
2.23904
21
-1.63227
0
LINE
8
BLACK
6
CONTINUOUS
10
2.23904
20
-1.63227
11
2.23531
21
-1.6253
0
LINE
8
BLACK
6
CONTINUOUS
10
2.23531
20
-1.6253
11
2.23301
21
-1.61773
0
LINE
8
BLACK
6
CONTINUOUS
10
2.23301
20
-1.61773
11
2.23224
21
-1.60985
0
LINE
8
BLACK
6
CONTINUOUS
10
2.23224
20
-1.60985
11
2.23301
21
-1.60198
0
LINE
8
BLACK
6
CONTINUOUS
10
2.23301
20
-1.60198
11
2.23531
21
-1.59441
0
LINE
8
BLACK
6
CONTINUOUS
10
2.23531
20
-1.59441
11
2.23904
21
-1.58743
0
LINE
8
BLACK
6
CONTINUOUS
10
2.23904
20
-1.58743
11
2.24406
21
-1.58132
0
LINE
8
BLACK
6
CONTINUOUS
10
2.24406
20
-1.58132
11
2.25017
21
-1.5763
0
LINE
8
BLACK
6
CONTINUOUS
10
2.25017
20
-1.5763
11
2.25715
21
-1.57257
0
LINE
8
BLACK
6
CONTINUOUS
10
2.25715
20
-1.57257
11
2.26472
21
-1.57027
0
LINE
8
BLACK
6
CONTINUOUS
10
2.26472
20
-1.57027
11
2.27259
21
-1.5695
0
LINE
8
BLACK
6
CONTINUOUS
10
2.27259
20
-1.5695
11
2.28046
21
-1.57027
0
LINE
8
BLACK
6
CONTINUOUS
10
2.23476
20
-1.61738
11
2.23696
21
-1.62461
0
LINE
8
BLACK
6
CONTINUOUS
10
2.23696
20
-1.62461
11
2.24052
21
-1.63128
0
LINE
8
BLACK
6
CONTINUOUS
10
2.24052
20
-1.63128
11
2.24532
21
-1.63713
0
LINE
8
BLACK
6
CONTINUOUS
10
2.24532
20
-1.63713
11
2.25116
21
-1.64192
0
LINE
8
BLACK
6
CONTINUOUS
10
2.25116
20
-1.64192
11
2.25783
21
-1.64549
0
LINE
8
BLACK
6
CONTINUOUS
10
2.25783
20
-1.64549
11
2.26507
21
-1.64768
0
LINE
8
BLACK
6
CONTINUOUS
10
2.26507
20
-1.64768
11
2.27259
21
-1.64842
0
LINE
8
BLACK
6
CONTINUOUS
10
2.27259
20
-1.64842
11
2.28012
21
-1.64768
0
LINE
8
BLACK
6
CONTINUOUS
10
2.28012
20
-1.64768
11
2.28735
21
-1.64549
0
LINE
8
BLACK
6
CONTINUOUS
10
2.28735
20
-1.64549
11
2.29402
21
-1.64192
0
LINE
8
BLACK
6
CONTINUOUS
10
2.29402
20
-1.64192
11
2.29986
21
-1.63713
0
LINE
8
BLACK
6
CONTINUOUS
10
2.29986
20
-1.63713
11
2.30466
21
-1.63128
0
LINE
8
BLACK
6
CONTINUOUS
10
2.30466
20
-1.63128
11
2.30823
21
-1.62461
0
LINE
8
BLACK
6
CONTINUOUS
10
2.30823
20
-1.62461
11
2.31042
21
-1.61738
0
LINE
8
BLACK
6
CONTINUOUS
10
2.31042
20
-1.61738
11
2.31116
21
-1.60985
0
LINE
8
BLACK
6
CONTINUOUS
10
2.31116
20
-1.60985
11
2.31042
21
-1.60233
0
LINE
8
BLACK
6
CONTINUOUS
10
2.31042
20
-1.60233
11
2.30823
21
-1.59509
0
LINE
8
BLACK
6
CONTINUOUS
10
2.30823
20
-1.59509
11
2.30466
21
-1.58842
0
LINE
8
BLACK
6
CONTINUOUS
10
2.30466
20
-1.58842
11
2.29986
21
-1.58258
0
LINE
8
BLACK
6
CONTINUOUS
10
2.29986
20
-1.58258
11
2.29402
21
-1.57778
0
LINE
8
BLACK
6
CONTINUOUS
10
2.29402
20
-1.57778
11
2.28735
21
-1.57422
0
LINE
8
BLACK
6
CONTINUOUS
10
2.28735
20
-1.57422
11
2.28012
21
-1.57202
0
LINE
8
BLACK
6
CONTINUOUS
10
2.28012
20
-1.57202
11
2.27259
21
-1.57128
0
LINE
8
BLACK
6
CONTINUOUS
10
2.27259
20
-1.57128
11
2.26507
21
-1.57202
0
LINE
8
BLACK
6
CONTINUOUS
10
2.26507
20
-1.57202
11
2.25783
21
-1.57422
0
LINE
8
BLACK
6
CONTINUOUS
10
2.25783
20
-1.57422
11
2.25116
21
-1.57778
0
LINE
8
BLACK
6
CONTINUOUS
10
2.25116
20
-1.57778
11
2.24532
21
-1.58258
0
LINE
8
BLACK
6
CONTINUOUS
10
2.24532
20
-1.58258
11
2.24052
21
-1.58842
0
LINE
8
BLACK
6
CONTINUOUS
10
2.24052
20
-1.58842
11
2.23696
21
-1.59509
0
LINE
8
BLACK
6
CONTINUOUS
10
2.23696
20
-1.59509
11
2.23476
21
-1.60233
0
LINE
8
BLACK
6
CONTINUOUS
10
2.23476
20
-1.60233
11
2.23402
21
-1.60985
0
LINE
8
BLACK
6
CONTINUOUS
10
2.23402
20
-1.60985
11
2.23476
21
-1.61738
0
LINE
8
BLACK
6
CONTINUOUS
10
0.612992
20
-1.45322
11
0.613688
21
-1.4535
0
LINE
8
BLACK
6
CONTINUOUS
10
0.613688
20
-1.4535
11
0.613976
21
-1.4542
0
LINE
8
BLACK
6
CONTINUOUS
10
0.613976
20
-1.4542
11
0.613976
21
-1.59987
0
LINE
8
BLACK
6
CONTINUOUS
10
0.613976
20
-1.59987
11
0.613688
21
-1.60056
0
LINE
8
BLACK
6
CONTINUOUS
10
0.613688
20
-1.60056
11
0.612992
21
-1.60085
0
LINE
8
BLACK
6
CONTINUOUS
10
0.612992
20
-1.60085
11
0.388583
21
-1.60085
0
LINE
8
BLACK
6
CONTINUOUS
10
0.388583
20
-1.60085
11
0.387887
21
-1.60056
0
LINE
8
BLACK
6
CONTINUOUS
10
0.387887
20
-1.60056
11
0.387598
21
-1.59987
0
LINE
8
BLACK
6
CONTINUOUS
10
0.387598
20
-1.59987
11
0.387598
21
-1.59987
0
LINE
8
BLACK
6
CONTINUOUS
10
0.387598
20
-1.59987
11
0.387598
21
-1.4542
0
LINE
8
BLACK
6
CONTINUOUS
10
0.387598
20
-1.4542
11
0.387887
21
-1.4535
0
LINE
8
BLACK
6
CONTINUOUS
10
0.387887
20
-1.4535
11
0.388583
21
-1.45322
0
LINE
8
BLACK
6
CONTINUOUS
10
0.388583
20
-1.45322
11
0.612992
21
-1.45322
0
LINE
8
BLACK
6
CONTINUOUS
10
0.389567
20
-1.45518
11
0.389567
21
-1.59888
0
LINE
8
BLACK
6
CONTINUOUS
10
0.389567
20
-1.59888
11
0.612008
21
-1.59888
0
LINE
8
BLACK
6
CONTINUOUS
10
0.612008
20
-1.59888
11
0.612008
21
-1.45518
0
LINE
8
BLACK
6
CONTINUOUS
10
0.612008
20
-1.45518
11
0.389567
21
-1.45518
0
LINE
8
BLACK
6
CONTINUOUS
10
0.612992
20
-1.19119
11
0.613688
21
-1.19147
0
LINE
8
BLACK
6
CONTINUOUS
10
0.613688
20
-1.19147
11
0.613976
21
-1.19217
0
LINE
8
BLACK
6
CONTINUOUS
10
0.613976
20
-1.19217
11
0.613976
21
-1.33784
0
LINE
8
BLACK
6
CONTINUOUS
10
0.613976
20
-1.33784
11
0.613688
21
-1.33854
0
LINE
8
BLACK
6
CONTINUOUS
10
0.613688
20
-1.33854
11
0.612992
21
-1.33882
0
LINE
8
BLACK
6
CONTINUOUS
10
0.612992
20
-1.33882
11
0.388583
21
-1.33882
0
LINE
8
BLACK
6
CONTINUOUS
10
0.388583
20
-1.33882
11
0.387887
21
-1.33854
0
LINE
8
BLACK
6
CONTINUOUS
10
0.387887
20
-1.33854
11
0.387598
21
-1.33784
0
LINE
8
BLACK
6
CONTINUOUS
10
0.387598
20
-1.33784
11
0.387598
21
-1.33784
0
LINE
8
BLACK
6
CONTINUOUS
10
0.387598
20
-1.33784
11
0.387598
21
-1.19217
0
LINE
8
BLACK
6
CONTINUOUS
10
0.387598
20
-1.19217
11
0.387887
21
-1.19147
0
LINE
8
BLACK
6
CONTINUOUS
10
0.387887
20
-1.19147
11
0.388583
21
-1.19119
0
LINE
8
BLACK
6
CONTINUOUS
10
0.388583
20
-1.19119
11
0.612992
21
-1.19119
0
LINE
8
BLACK
6
CONTINUOUS
10
0.389567
20
-1.19315
11
0.389567
21
-1.33685
0
LINE
8
BLACK
6
CONTINUOUS
10
0.389567
20
-1.33685
11
0.612008
21
-1.33685
0
LINE
8
BLACK
6
CONTINUOUS
10
0.612008
20
-1.33685
11
0.612008
21
-1.19315
0
LINE
8
BLACK
6
CONTINUOUS
10
0.612008
20
-1.19315
11
0.389567
21
-1.19315
0
LINE
8
BLACK
6
CONTINUOUS
10
0.612992
20
-0.929156
11
0.613688
21
-0.929444
0
LINE
8
BLACK
6
CONTINUOUS
10
0.613688
20
-0.929444
11
0.613976
21
-0.93014
0
LINE
8
BLACK
6
CONTINUOUS
10
0.613976
20
-0.93014
11
0.613976
21
-1.07581
0
LINE
8
BLACK
6
CONTINUOUS
10
0.613976
20
-1.07581
11
0.613688
21
-1.07651
0
LINE
8
BLACK
6
CONTINUOUS
10
0.613688
20
-1.07651
11
0.612992
21
-1.07679
0
LINE
8
BLACK
6
CONTINUOUS
10
0.612992
20
-1.07679
11
0.388583
21
-1.07679
0
LINE
8
BLACK
6
CONTINUOUS
10
0.388583
20
-1.07679
11
0.387887
21
-1.07651
0
LINE
8
BLACK
6
CONTINUOUS
10
0.387887
20
-1.07651
11
0.387598
21
-1.07581
0
LINE
8
BLACK
6
CONTINUOUS
10
0.387598
20
-1.07581
11
0.387598
21
-1.07581
0
LINE
8
BLACK
6
CONTINUOUS
10
0.387598
20
-1.07581
11
0.387598
21
-0.93014
0
LINE
8
BLACK
6
CONTINUOUS
10
0.387598
20
-0.93014
11
0.387887
21
-0.929444
0
LINE
8
BLACK
6
CONTINUOUS
10
0.387887
20
-0.929444
11
0.388583
21
-0.929156
0
LINE
8
BLACK
6
CONTINUOUS
10
0.388583
20
-0.929156
11
0.612992
21
-0.929156
0
LINE
8
BLACK
6
CONTINUOUS
10
0.389567
20
-0.931124
11
0.389567
21
-1.07483
0
LINE
8
BLACK
6
CONTINUOUS
10
0.389567
20
-1.07483
11
0.612008
21
-1.07483
0
LINE
8
BLACK
6
CONTINUOUS
10
0.612008
20
-1.07483
11
0.612008
21
-0.931124
0
LINE
8
BLACK
6
CONTINUOUS
10
0.612008
20
-0.931124
11
0.389567
21
-0.931124
0
LINE
8
BLACK
6
CONTINUOUS
10
0.612992
20
-0.667126
11
0.613688
21
-0.667414
0
LINE
8
BLACK
6
CONTINUOUS
10
0.613688
20
-0.667414
11
0.613976
21
-0.66811
0
LINE
8
BLACK
6
CONTINUOUS
10
0.613976
20
-0.66811
11
0.613976
21
-0.81378
0
LINE
8
BLACK
6
CONTINUOUS
10
0.613976
20
-0.81378
11
0.613688
21
-0.814476
0
LINE
8
BLACK
6
CONTINUOUS
10
0.613688
20
-0.814476
11
0.612992
21
-0.814764
0
LINE
8
BLACK
6
CONTINUOUS
10
0.612992
20
-0.814764
11
0.388583
21
-0.814764
0
LINE
8
BLACK
6
CONTINUOUS
10
0.388583
20
-0.814764
11
0.387887
21
-0.814476
0
LINE
8
BLACK
6
CONTINUOUS
10
0.387887
20
-0.814476
11
0.387598
21
-0.81378
0
LINE
8
BLACK
6
CONTINUOUS
10
0.387598
20
-0.81378
11
0.387598
21
-0.813779
0
LINE
8
BLACK
6
CONTINUOUS
10
0.387598
20
-0.813779
11
0.387598
21
-0.66811
0
LINE
8
BLACK
6
CONTINUOUS
10
0.387598
20
-0.66811
11
0.387887
21
-0.667414
0
LINE
8
BLACK
6
CONTINUOUS
10
0.387887
20
-0.667414
11
0.388583
21
-0.667126
0
LINE
8
BLACK
6
CONTINUOUS
10
0.388583
20
-0.667126
11
0.612992
21
-0.667126
0
LINE
8
BLACK
6
CONTINUOUS
10
0.389567
20
-0.669094
11
0.389567
21
-0.812795
0
LINE
8
BLACK
6
CONTINUOUS
10
0.389567
20
-0.812795
11
0.612008
21
-0.812795
0
LINE
8
BLACK
6
CONTINUOUS
10
0.612008
20
-0.812795
11
0.612008
21
-0.669094
0
LINE
8
BLACK
6
CONTINUOUS
10
0.612008
20
-0.669094
11
0.389567
21
-0.669094
  0
ENDSEC
  0
EOF
