  0
SECTION
  2
HEADER
  9
$ANGBASE
  50
0.0
  9
$ANGDIR
  70
1
  9
$MEASUREMENT
  70
0
  0
ENDSEC
  0
SECTION
  2
TABLES
  0
TABLE
  2
LTYPE
  70
4
  0
LTYPE
  5
40F
  2
CONTINUOUS
  70
0
  3
Solid line
  72
65
  73
0
  40
0.0
  0
LTYPE
  5
410
  2
DASHDOT
 70
0
  3
Dash Dot ____ _ ____ _
 72
65
 73
4
 40
2.0
 49
1.25
 49
-0.25
 49
0.25
 49
-0.25
  0
LTYPE
  5
411
  2
DASHED
 70
0
  3
Dashed __ __ __ __ __
 72
65
 73
2
 40
0.75
 49
0.5
 49
-0.25
  0
LTYPE
  5
43B
  2
DOTTED
 70
0
  3
Dotted .  .  .  .
 72
65
 73
2
 40
0.2
 49
0.0
 49
-0.2
  0
ENDTAB
  0
TABLE
  2
STYLE
  70
4
  0
STYLE
  2
KICAD
  70
0
  40
0
  41
1
  42
1
  50
0
  71
0
  3
isocp.shx
  0
STYLE
  2
KICADB
  70
0
  40
0
  41
1
  42
1
  50
0
  71
0
  3
isocp.shx
  0
STYLE
  2
KICADI
  70
0
  40
0
  41
1
  42
1
  50
15
  71
0
  3
isocp.shx
  0
STYLE
  2
KICADBI
  70
0
  40
0
  41
1
  42
1
  50
15
  71
0
  3
isocp.shx
  0
ENDTAB
  0
TABLE
  2
LAYER
  70
1
  0
LAYER
  2
BLACK
  70
0
  62
7
  6
CONTINUOUS
  0
ENDTAB
  0
ENDSEC
  0
SECTION
  2
ENTITIES
0
LINE
8
BLACK
6
CONTINUOUS
10
2.1033
20
-1.96634
11
2.11087
21
-1.96863
0
LINE
8
BLACK
6
CONTINUOUS
10
2.11087
20
-1.96863
11
2.11784
21
-1.97236
0
LINE
8
BLACK
6
CONTINUOUS
10
2.11784
20
-1.97236
11
2.12396
21
-1.97738
0
LINE
8
BLACK
6
CONTINUOUS
10
2.12396
20
-1.97738
11
2.12898
21
-1.9835
0
LINE
8
BLACK
6
CONTINUOUS
10
2.12898
20
-1.9835
11
2.13271
21
-1.99047
0
LINE
8
BLACK
6
CONTINUOUS
10
2.13271
20
-1.99047
11
2.135
21
-1.99804
0
LINE
8
BLACK
6
CONTINUOUS
10
2.135
20
-1.99804
11
2.13578
21
-2.00592
0
LINE
8
BLACK
6
CONTINUOUS
10
2.13578
20
-2.00592
11
2.135
21
-2.01379
0
LINE
8
BLACK
6
CONTINUOUS
10
2.135
20
-2.01379
11
2.13271
21
-2.02136
0
LINE
8
BLACK
6
CONTINUOUS
10
2.13271
20
-2.02136
11
2.12898
21
-2.02834
0
LINE
8
BLACK
6
CONTINUOUS
10
2.12898
20
-2.02834
11
2.12396
21
-2.03445
0
LINE
8
BLACK
6
CONTINUOUS
10
2.12396
20
-2.03445
11
2.11784
21
-2.03947
0
LINE
8
BLACK
6
CONTINUOUS
10
2.11784
20
-2.03947
11
2.11087
21
-2.0432
0
LINE
8
BLACK
6
CONTINUOUS
10
2.11087
20
-2.0432
11
2.1033
21
-2.04549
0
LINE
8
BLACK
6
CONTINUOUS
10
2.1033
20
-2.04549
11
2.09543
21
-2.04627
0
LINE
8
BLACK
6
CONTINUOUS
10
2.09543
20
-2.04627
11
2.08755
21
-2.04549
0
LINE
8
BLACK
6
CONTINUOUS
10
2.08755
20
-2.04549
11
2.07998
21
-2.0432
0
LINE
8
BLACK
6
CONTINUOUS
10
2.07998
20
-2.0432
11
2.07301
21
-2.03947
0
LINE
8
BLACK
6
CONTINUOUS
10
2.07301
20
-2.03947
11
2.06689
21
-2.03445
0
LINE
8
BLACK
6
CONTINUOUS
10
2.06689
20
-2.03445
11
2.06187
21
-2.02834
0
LINE
8
BLACK
6
CONTINUOUS
10
2.06187
20
-2.02834
11
2.05814
21
-2.02136
0
LINE
8
BLACK
6
CONTINUOUS
10
2.05814
20
-2.02136
11
2.05585
21
-2.01379
0
LINE
8
BLACK
6
CONTINUOUS
10
2.05585
20
-2.01379
11
2.05507
21
-2.00592
0
LINE
8
BLACK
6
CONTINUOUS
10
2.05507
20
-2.00592
11
2.05585
21
-1.99804
0
LINE
8
BLACK
6
CONTINUOUS
10
2.05585
20
-1.99804
11
2.05814
21
-1.99047
0
LINE
8
BLACK
6
CONTINUOUS
10
2.05814
20
-1.99047
11
2.06187
21
-1.9835
0
LINE
8
BLACK
6
CONTINUOUS
10
2.06187
20
-1.9835
11
2.06689
21
-1.97738
0
LINE
8
BLACK
6
CONTINUOUS
10
2.06689
20
-1.97738
11
2.07301
21
-1.97236
0
LINE
8
BLACK
6
CONTINUOUS
10
2.07301
20
-1.97236
11
2.07998
21
-1.96863
0
LINE
8
BLACK
6
CONTINUOUS
10
2.07998
20
-1.96863
11
2.08755
21
-1.96634
0
LINE
8
BLACK
6
CONTINUOUS
10
2.08755
20
-1.96634
11
2.09543
21
-1.96556
0
LINE
8
BLACK
6
CONTINUOUS
10
2.09543
20
-1.96556
11
2.1033
21
-1.96634
0
LINE
8
BLACK
6
CONTINUOUS
10
2.05759
20
-2.01344
11
2.05979
21
-2.02068
0
LINE
8
BLACK
6
CONTINUOUS
10
2.05979
20
-2.02068
11
2.06335
21
-2.02735
0
LINE
8
BLACK
6
CONTINUOUS
10
2.06335
20
-2.02735
11
2.06815
21
-2.03319
0
LINE
8
BLACK
6
CONTINUOUS
10
2.06815
20
-2.03319
11
2.074
21
-2.03799
0
LINE
8
BLACK
6
CONTINUOUS
10
2.074
20
-2.03799
11
2.08066
21
-2.04155
0
LINE
8
BLACK
6
CONTINUOUS
10
2.08066
20
-2.04155
11
2.0879
21
-2.04375
0
LINE
8
BLACK
6
CONTINUOUS
10
2.0879
20
-2.04375
11
2.09543
21
-2.04449
0
LINE
8
BLACK
6
CONTINUOUS
10
2.09543
20
-2.04449
11
2.10295
21
-2.04375
0
LINE
8
BLACK
6
CONTINUOUS
10
2.10295
20
-2.04375
11
2.11019
21
-2.04155
0
LINE
8
BLACK
6
CONTINUOUS
10
2.11019
20
-2.04155
11
2.11685
21
-2.03799
0
LINE
8
BLACK
6
CONTINUOUS
10
2.11685
20
-2.03799
11
2.1227
21
-2.03319
0
LINE
8
BLACK
6
CONTINUOUS
10
2.1227
20
-2.03319
11
2.1275
21
-2.02735
0
LINE
8
BLACK
6
CONTINUOUS
10
2.1275
20
-2.02735
11
2.13106
21
-2.02068
0
LINE
8
BLACK
6
CONTINUOUS
10
2.13106
20
-2.02068
11
2.13326
21
-2.01344
0
LINE
8
BLACK
6
CONTINUOUS
10
2.13326
20
-2.01344
11
2.134
21
-2.00592
0
LINE
8
BLACK
6
CONTINUOUS
10
2.134
20
-2.00592
11
2.13326
21
-1.99839
0
LINE
8
BLACK
6
CONTINUOUS
10
2.13326
20
-1.99839
11
2.13106
21
-1.99116
0
LINE
8
BLACK
6
CONTINUOUS
10
2.13106
20
-1.99116
11
2.1275
21
-1.98449
0
LINE
8
BLACK
6
CONTINUOUS
10
2.1275
20
-1.98449
11
2.1227
21
-1.97864
0
LINE
8
BLACK
6
CONTINUOUS
10
2.1227
20
-1.97864
11
2.11685
21
-1.97384
0
LINE
8
BLACK
6
CONTINUOUS
10
2.11685
20
-1.97384
11
2.11019
21
-1.97028
0
LINE
8
BLACK
6
CONTINUOUS
10
2.11019
20
-1.97028
11
2.10295
21
-1.96809
0
LINE
8
BLACK
6
CONTINUOUS
10
2.10295
20
-1.96809
11
2.09543
21
-1.96734
0
LINE
8
BLACK
6
CONTINUOUS
10
2.09543
20
-1.96734
11
2.0879
21
-1.96809
0
LINE
8
BLACK
6
CONTINUOUS
10
2.0879
20
-1.96809
11
2.08066
21
-1.97028
0
LINE
8
BLACK
6
CONTINUOUS
10
2.08066
20
-1.97028
11
2.074
21
-1.97384
0
LINE
8
BLACK
6
CONTINUOUS
10
2.074
20
-1.97384
11
2.06815
21
-1.97864
0
LINE
8
BLACK
6
CONTINUOUS
10
2.06815
20
-1.97864
11
2.06335
21
-1.98449
0
LINE
8
BLACK
6
CONTINUOUS
10
2.06335
20
-1.98449
11
2.05979
21
-1.99116
0
LINE
8
BLACK
6
CONTINUOUS
10
2.05979
20
-1.99116
11
2.05759
21
-1.99839
0
LINE
8
BLACK
6
CONTINUOUS
10
2.05759
20
-1.99839
11
2.05685
21
-2.00592
0
LINE
8
BLACK
6
CONTINUOUS
10
2.05685
20
-2.00592
11
2.05759
21
-2.01344
0
LINE
8
BLACK
6
CONTINUOUS
10
2.18991
20
-1.96634
11
2.19748
21
-1.96863
0
LINE
8
BLACK
6
CONTINUOUS
10
2.19748
20
-1.96863
11
2.20446
21
-1.97236
0
LINE
8
BLACK
6
CONTINUOUS
10
2.20446
20
-1.97236
11
2.21057
21
-1.97738
0
LINE
8
BLACK
6
CONTINUOUS
10
2.21057
20
-1.97738
11
2.21559
21
-1.9835
0
LINE
8
BLACK
6
CONTINUOUS
10
2.21559
20
-1.9835
11
2.21932
21
-1.99047
0
LINE
8
BLACK
6
CONTINUOUS
10
2.21932
20
-1.99047
11
2.22162
21
-1.99804
0
LINE
8
BLACK
6
CONTINUOUS
10
2.22162
20
-1.99804
11
2.22239
21
-2.00592
0
LINE
8
BLACK
6
CONTINUOUS
10
2.22239
20
-2.00592
11
2.22162
21
-2.01379
0
LINE
8
BLACK
6
CONTINUOUS
10
2.22162
20
-2.01379
11
2.21932
21
-2.02136
0
LINE
8
BLACK
6
CONTINUOUS
10
2.21932
20
-2.02136
11
2.21559
21
-2.02834
0
LINE
8
BLACK
6
CONTINUOUS
10
2.21559
20
-2.02834
11
2.21057
21
-2.03445
0
LINE
8
BLACK
6
CONTINUOUS
10
2.21057
20
-2.03445
11
2.20446
21
-2.03947
0
LINE
8
BLACK
6
CONTINUOUS
10
2.20446
20
-2.03947
11
2.19748
21
-2.0432
0
LINE
8
BLACK
6
CONTINUOUS
10
2.19748
20
-2.0432
11
2.18991
21
-2.04549
0
LINE
8
BLACK
6
CONTINUOUS
10
2.18991
20
-2.04549
11
2.18204
21
-2.04627
0
LINE
8
BLACK
6
CONTINUOUS
10
2.18204
20
-2.04627
11
2.17417
21
-2.04549
0
LINE
8
BLACK
6
CONTINUOUS
10
2.17417
20
-2.04549
11
2.1666
21
-2.0432
0
LINE
8
BLACK
6
CONTINUOUS
10
2.1666
20
-2.0432
11
2.15962
21
-2.03947
0
LINE
8
BLACK
6
CONTINUOUS
10
2.15962
20
-2.03947
11
2.1535
21
-2.03445
0
LINE
8
BLACK
6
CONTINUOUS
10
2.1535
20
-2.03445
11
2.14849
21
-2.02834
0
LINE
8
BLACK
6
CONTINUOUS
10
2.14849
20
-2.02834
11
2.14476
21
-2.02136
0
LINE
8
BLACK
6
CONTINUOUS
10
2.14476
20
-2.02136
11
2.14246
21
-2.01379
0
LINE
8
BLACK
6
CONTINUOUS
10
2.14246
20
-2.01379
11
2.14169
21
-2.00592
0
LINE
8
BLACK
6
CONTINUOUS
10
2.14169
20
-2.00592
11
2.14246
21
-1.99804
0
LINE
8
BLACK
6
CONTINUOUS
10
2.14246
20
-1.99804
11
2.14476
21
-1.99047
0
LINE
8
BLACK
6
CONTINUOUS
10
2.14476
20
-1.99047
11
2.14849
21
-1.9835
0
LINE
8
BLACK
6
CONTINUOUS
10
2.14849
20
-1.9835
11
2.1535
21
-1.97738
0
LINE
8
BLACK
6
CONTINUOUS
10
2.1535
20
-1.97738
11
2.15962
21
-1.97236
0
LINE
8
BLACK
6
CONTINUOUS
10
2.15962
20
-1.97236
11
2.1666
21
-1.96863
0
LINE
8
BLACK
6
CONTINUOUS
10
2.1666
20
-1.96863
11
2.17417
21
-1.96634
0
LINE
8
BLACK
6
CONTINUOUS
10
2.17417
20
-1.96634
11
2.18204
21
-1.96556
0
LINE
8
BLACK
6
CONTINUOUS
10
2.18204
20
-1.96556
11
2.18991
21
-1.96634
0
LINE
8
BLACK
6
CONTINUOUS
10
2.14421
20
-2.01344
11
2.1464
21
-2.02068
0
LINE
8
BLACK
6
CONTINUOUS
10
2.1464
20
-2.02068
11
2.14997
21
-2.02735
0
LINE
8
BLACK
6
CONTINUOUS
10
2.14997
20
-2.02735
11
2.15477
21
-2.03319
0
LINE
8
BLACK
6
CONTINUOUS
10
2.15477
20
-2.03319
11
2.16061
21
-2.03799
0
LINE
8
BLACK
6
CONTINUOUS
10
2.16061
20
-2.03799
11
2.16728
21
-2.04155
0
LINE
8
BLACK
6
CONTINUOUS
10
2.16728
20
-2.04155
11
2.17451
21
-2.04375
0
LINE
8
BLACK
6
CONTINUOUS
10
2.17451
20
-2.04375
11
2.18204
21
-2.04449
0
LINE
8
BLACK
6
CONTINUOUS
10
2.18204
20
-2.04449
11
2.18956
21
-2.04375
0
LINE
8
BLACK
6
CONTINUOUS
10
2.18956
20
-2.04375
11
2.1968
21
-2.04155
0
LINE
8
BLACK
6
CONTINUOUS
10
2.1968
20
-2.04155
11
2.20347
21
-2.03799
0
LINE
8
BLACK
6
CONTINUOUS
10
2.20347
20
-2.03799
11
2.20931
21
-2.03319
0
LINE
8
BLACK
6
CONTINUOUS
10
2.20931
20
-2.03319
11
2.21411
21
-2.02735
0
LINE
8
BLACK
6
CONTINUOUS
10
2.21411
20
-2.02735
11
2.21767
21
-2.02068
0
LINE
8
BLACK
6
CONTINUOUS
10
2.21767
20
-2.02068
11
2.21987
21
-2.01344
0
LINE
8
BLACK
6
CONTINUOUS
10
2.21987
20
-2.01344
11
2.22061
21
-2.00592
0
LINE
8
BLACK
6
CONTINUOUS
10
2.22061
20
-2.00592
11
2.21987
21
-1.99839
0
LINE
8
BLACK
6
CONTINUOUS
10
2.21987
20
-1.99839
11
2.21767
21
-1.99116
0
LINE
8
BLACK
6
CONTINUOUS
10
2.21767
20
-1.99116
11
2.21411
21
-1.98449
0
LINE
8
BLACK
6
CONTINUOUS
10
2.21411
20
-1.98449
11
2.20931
21
-1.97864
0
LINE
8
BLACK
6
CONTINUOUS
10
2.20931
20
-1.97864
11
2.20347
21
-1.97384
0
LINE
8
BLACK
6
CONTINUOUS
10
2.20347
20
-1.97384
11
2.1968
21
-1.97028
0
LINE
8
BLACK
6
CONTINUOUS
10
2.1968
20
-1.97028
11
2.18956
21
-1.96809
0
LINE
8
BLACK
6
CONTINUOUS
10
2.18956
20
-1.96809
11
2.18204
21
-1.96734
0
LINE
8
BLACK
6
CONTINUOUS
10
2.18204
20
-1.96734
11
2.17451
21
-1.96809
0
LINE
8
BLACK
6
CONTINUOUS
10
2.17451
20
-1.96809
11
2.16728
21
-1.97028
0
LINE
8
BLACK
6
CONTINUOUS
10
2.16728
20
-1.97028
11
2.16061
21
-1.97384
0
LINE
8
BLACK
6
CONTINUOUS
10
2.16061
20
-1.97384
11
2.15477
21
-1.97864
0
LINE
8
BLACK
6
CONTINUOUS
10
2.15477
20
-1.97864
11
2.14997
21
-1.98449
0
LINE
8
BLACK
6
CONTINUOUS
10
2.14997
20
-1.98449
11
2.1464
21
-1.99116
0
LINE
8
BLACK
6
CONTINUOUS
10
2.1464
20
-1.99116
11
2.14421
21
-1.99839
0
LINE
8
BLACK
6
CONTINUOUS
10
2.14421
20
-1.99839
11
2.14347
21
-2.00592
0
LINE
8
BLACK
6
CONTINUOUS
10
2.14347
20
-2.00592
11
2.14421
21
-2.01344
0
LINE
8
BLACK
6
CONTINUOUS
10
2.27653
20
-1.96634
11
2.2841
21
-1.96863
0
LINE
8
BLACK
6
CONTINUOUS
10
2.2841
20
-1.96863
11
2.29107
21
-1.97236
0
LINE
8
BLACK
6
CONTINUOUS
10
2.29107
20
-1.97236
11
2.29719
21
-1.97738
0
LINE
8
BLACK
6
CONTINUOUS
10
2.29719
20
-1.97738
11
2.30221
21
-1.9835
0
LINE
8
BLACK
6
CONTINUOUS
10
2.30221
20
-1.9835
11
2.30594
21
-1.99047
0
LINE
8
BLACK
6
CONTINUOUS
10
2.30594
20
-1.99047
11
2.30823
21
-1.99804
0
LINE
8
BLACK
6
CONTINUOUS
10
2.30823
20
-1.99804
11
2.30901
21
-2.00592
0
LINE
8
BLACK
6
CONTINUOUS
10
2.30901
20
-2.00592
11
2.30823
21
-2.01379
0
LINE
8
BLACK
6
CONTINUOUS
10
2.30823
20
-2.01379
11
2.30594
21
-2.02136
0
LINE
8
BLACK
6
CONTINUOUS
10
2.30594
20
-2.02136
11
2.30221
21
-2.02834
0
LINE
8
BLACK
6
CONTINUOUS
10
2.30221
20
-2.02834
11
2.29719
21
-2.03445
0
LINE
8
BLACK
6
CONTINUOUS
10
2.29719
20
-2.03445
11
2.29107
21
-2.03947
0
LINE
8
BLACK
6
CONTINUOUS
10
2.29107
20
-2.03947
11
2.2841
21
-2.0432
0
LINE
8
BLACK
6
CONTINUOUS
10
2.2841
20
-2.0432
11
2.27653
21
-2.04549
0
LINE
8
BLACK
6
CONTINUOUS
10
2.27653
20
-2.04549
11
2.26865
21
-2.04627
0
LINE
8
BLACK
6
CONTINUOUS
10
2.26865
20
-2.04627
11
2.26078
21
-2.04549
0
LINE
8
BLACK
6
CONTINUOUS
10
2.26078
20
-2.04549
11
2.25321
21
-2.0432
0
LINE
8
BLACK
6
CONTINUOUS
10
2.25321
20
-2.0432
11
2.24623
21
-2.03947
0
LINE
8
BLACK
6
CONTINUOUS
10
2.24623
20
-2.03947
11
2.24012
21
-2.03445
0
LINE
8
BLACK
6
CONTINUOUS
10
2.24012
20
-2.03445
11
2.2351
21
-2.02834
0
LINE
8
BLACK
6
CONTINUOUS
10
2.2351
20
-2.02834
11
2.23137
21
-2.02136
0
LINE
8
BLACK
6
CONTINUOUS
10
2.23137
20
-2.02136
11
2.22907
21
-2.01379
0
LINE
8
BLACK
6
CONTINUOUS
10
2.22907
20
-2.01379
11
2.2283
21
-2.00592
0
LINE
8
BLACK
6
CONTINUOUS
10
2.2283
20
-2.00592
11
2.22907
21
-1.99804
0
LINE
8
BLACK
6
CONTINUOUS
10
2.22907
20
-1.99804
11
2.23137
21
-1.99047
0
LINE
8
BLACK
6
CONTINUOUS
10
2.23137
20
-1.99047
11
2.2351
21
-1.9835
0
LINE
8
BLACK
6
CONTINUOUS
10
2.2351
20
-1.9835
11
2.24012
21
-1.97738
0
LINE
8
BLACK
6
CONTINUOUS
10
2.24012
20
-1.97738
11
2.24623
21
-1.97236
0
LINE
8
BLACK
6
CONTINUOUS
10
2.24623
20
-1.97236
11
2.25321
21
-1.96863
0
LINE
8
BLACK
6
CONTINUOUS
10
2.25321
20
-1.96863
11
2.26078
21
-1.96634
0
LINE
8
BLACK
6
CONTINUOUS
10
2.26078
20
-1.96634
11
2.26865
21
-1.96556
0
LINE
8
BLACK
6
CONTINUOUS
10
2.26865
20
-1.96556
11
2.27653
21
-1.96634
0
LINE
8
BLACK
6
CONTINUOUS
10
2.23082
20
-2.01344
11
2.23302
21
-2.02068
0
LINE
8
BLACK
6
CONTINUOUS
10
2.23302
20
-2.02068
11
2.23658
21
-2.02735
0
LINE
8
BLACK
6
CONTINUOUS
10
2.23658
20
-2.02735
11
2.24138
21
-2.03319
0
LINE
8
BLACK
6
CONTINUOUS
10
2.24138
20
-2.03319
11
2.24722
21
-2.03799
0
LINE
8
BLACK
6
CONTINUOUS
10
2.24722
20
-2.03799
11
2.25389
21
-2.04155
0
LINE
8
BLACK
6
CONTINUOUS
10
2.25389
20
-2.04155
11
2.26113
21
-2.04375
0
LINE
8
BLACK
6
CONTINUOUS
10
2.26113
20
-2.04375
11
2.26865
21
-2.04449
0
LINE
8
BLACK
6
CONTINUOUS
10
2.26865
20
-2.04449
11
2.27618
21
-2.04375
0
LINE
8
BLACK
6
CONTINUOUS
10
2.27618
20
-2.04375
11
2.28341
21
-2.04155
0
LINE
8
BLACK
6
CONTINUOUS
10
2.28341
20
-2.04155
11
2.29008
21
-2.03799
0
LINE
8
BLACK
6
CONTINUOUS
10
2.29008
20
-2.03799
11
2.29593
21
-2.03319
0
LINE
8
BLACK
6
CONTINUOUS
10
2.29593
20
-2.03319
11
2.30072
21
-2.02735
0
LINE
8
BLACK
6
CONTINUOUS
10
2.30072
20
-2.02735
11
2.30429
21
-2.02068
0
LINE
8
BLACK
6
CONTINUOUS
10
2.30429
20
-2.02068
11
2.30648
21
-2.01344
0
LINE
8
BLACK
6
CONTINUOUS
10
2.30648
20
-2.01344
11
2.30723
21
-2.00592
0
LINE
8
BLACK
6
CONTINUOUS
10
2.30723
20
-2.00592
11
2.30648
21
-1.99839
0
LINE
8
BLACK
6
CONTINUOUS
10
2.30648
20
-1.99839
11
2.30429
21
-1.99116
0
LINE
8
BLACK
6
CONTINUOUS
10
2.30429
20
-1.99116
11
2.30072
21
-1.98449
0
LINE
8
BLACK
6
CONTINUOUS
10
2.30072
20
-1.98449
11
2.29593
21
-1.97864
0
LINE
8
BLACK
6
CONTINUOUS
10
2.29593
20
-1.97864
11
2.29008
21
-1.97384
0
LINE
8
BLACK
6
CONTINUOUS
10
2.29008
20
-1.97384
11
2.28341
21
-1.97028
0
LINE
8
BLACK
6
CONTINUOUS
10
2.28341
20
-1.97028
11
2.27618
21
-1.96809
0
LINE
8
BLACK
6
CONTINUOUS
10
2.27618
20
-1.96809
11
2.26865
21
-1.96734
0
LINE
8
BLACK
6
CONTINUOUS
10
2.26865
20
-1.96734
11
2.26113
21
-1.96809
0
LINE
8
BLACK
6
CONTINUOUS
10
2.26113
20
-1.96809
11
2.25389
21
-1.97028
0
LINE
8
BLACK
6
CONTINUOUS
10
2.25389
20
-1.97028
11
2.24722
21
-1.97384
0
LINE
8
BLACK
6
CONTINUOUS
10
2.24722
20
-1.97384
11
2.24138
21
-1.97864
0
LINE
8
BLACK
6
CONTINUOUS
10
2.24138
20
-1.97864
11
2.23658
21
-1.98449
0
LINE
8
BLACK
6
CONTINUOUS
10
2.23658
20
-1.98449
11
2.23302
21
-1.99116
0
LINE
8
BLACK
6
CONTINUOUS
10
2.23302
20
-1.99116
11
2.23082
21
-1.99839
0
LINE
8
BLACK
6
CONTINUOUS
10
2.23082
20
-1.99839
11
2.23008
21
-2.00592
0
LINE
8
BLACK
6
CONTINUOUS
10
2.23008
20
-2.00592
11
2.23082
21
-2.01344
0
LINE
8
BLACK
6
CONTINUOUS
10
0.609055
20
-1.84928
11
0.609751
21
-1.84957
0
LINE
8
BLACK
6
CONTINUOUS
10
0.609751
20
-1.84957
11
0.610039
21
-1.85026
0
LINE
8
BLACK
6
CONTINUOUS
10
0.610039
20
-1.85026
11
0.610039
21
-1.99593
0
LINE
8
BLACK
6
CONTINUOUS
10
0.610039
20
-1.99593
11
0.609751
21
-1.99663
0
LINE
8
BLACK
6
CONTINUOUS
10
0.609751
20
-1.99663
11
0.609055
21
-1.99692
0
LINE
8
BLACK
6
CONTINUOUS
10
0.609055
20
-1.99692
11
0.384646
21
-1.99692
0
LINE
8
BLACK
6
CONTINUOUS
10
0.384646
20
-1.99692
11
0.38395
21
-1.99663
0
LINE
8
BLACK
6
CONTINUOUS
10
0.38395
20
-1.99663
11
0.383661
21
-1.99593
0
LINE
8
BLACK
6
CONTINUOUS
10
0.383661
20
-1.99593
11
0.383661
21
-1.99593
0
LINE
8
BLACK
6
CONTINUOUS
10
0.383661
20
-1.99593
11
0.383661
21
-1.85026
0
LINE
8
BLACK
6
CONTINUOUS
10
0.383661
20
-1.85026
11
0.38395
21
-1.84957
0
LINE
8
BLACK
6
CONTINUOUS
10
0.38395
20
-1.84957
11
0.384646
21
-1.84928
0
LINE
8
BLACK
6
CONTINUOUS
10
0.384646
20
-1.84928
11
0.609055
21
-1.84928
0
LINE
8
BLACK
6
CONTINUOUS
10
0.38563
20
-1.85125
11
0.38563
21
-1.99495
0
LINE
8
BLACK
6
CONTINUOUS
10
0.38563
20
-1.99495
11
0.608071
21
-1.99495
0
LINE
8
BLACK
6
CONTINUOUS
10
0.608071
20
-1.99495
11
0.608071
21
-1.85125
0
LINE
8
BLACK
6
CONTINUOUS
10
0.608071
20
-1.85125
11
0.38563
21
-1.85125
0
LINE
8
BLACK
6
CONTINUOUS
10
0.609055
20
-1.58725
11
0.609751
21
-1.58754
0
LINE
8
BLACK
6
CONTINUOUS
10
0.609751
20
-1.58754
11
0.610039
21
-1.58823
0
LINE
8
BLACK
6
CONTINUOUS
10
0.610039
20
-1.58823
11
0.610039
21
-1.7339
0
LINE
8
BLACK
6
CONTINUOUS
10
0.610039
20
-1.7339
11
0.609751
21
-1.7346
0
LINE
8
BLACK
6
CONTINUOUS
10
0.609751
20
-1.7346
11
0.609055
21
-1.73489
0
LINE
8
BLACK
6
CONTINUOUS
10
0.609055
20
-1.73489
11
0.384646
21
-1.73489
0
LINE
8
BLACK
6
CONTINUOUS
10
0.384646
20
-1.73489
11
0.38395
21
-1.7346
0
LINE
8
BLACK
6
CONTINUOUS
10
0.38395
20
-1.7346
11
0.383661
21
-1.7339
0
LINE
8
BLACK
6
CONTINUOUS
10
0.383661
20
-1.7339
11
0.383661
21
-1.7339
0
LINE
8
BLACK
6
CONTINUOUS
10
0.383661
20
-1.7339
11
0.383661
21
-1.58823
0
LINE
8
BLACK
6
CONTINUOUS
10
0.383661
20
-1.58823
11
0.38395
21
-1.58754
0
LINE
8
BLACK
6
CONTINUOUS
10
0.38395
20
-1.58754
11
0.384646
21
-1.58725
0
LINE
8
BLACK
6
CONTINUOUS
10
0.384646
20
-1.58725
11
0.609055
21
-1.58725
0
LINE
8
BLACK
6
CONTINUOUS
10
0.38563
20
-1.58922
11
0.38563
21
-1.73292
0
LINE
8
BLACK
6
CONTINUOUS
10
0.38563
20
-1.73292
11
0.608071
21
-1.73292
0
LINE
8
BLACK
6
CONTINUOUS
10
0.608071
20
-1.73292
11
0.608071
21
-1.58922
0
LINE
8
BLACK
6
CONTINUOUS
10
0.608071
20
-1.58922
11
0.38563
21
-1.58922
0
LINE
8
BLACK
6
CONTINUOUS
10
0.609055
20
-1.32522
11
0.609751
21
-1.32551
0
LINE
8
BLACK
6
CONTINUOUS
10
0.609751
20
-1.32551
11
0.610039
21
-1.3262
0
LINE
8
BLACK
6
CONTINUOUS
10
0.610039
20
-1.3262
11
0.610039
21
-1.47187
0
LINE
8
BLACK
6
CONTINUOUS
10
0.610039
20
-1.47187
11
0.609751
21
-1.47257
0
LINE
8
BLACK
6
CONTINUOUS
10
0.609751
20
-1.47257
11
0.609055
21
-1.47286
0
LINE
8
BLACK
6
CONTINUOUS
10
0.609055
20
-1.47286
11
0.384646
21
-1.47286
0
LINE
8
BLACK
6
CONTINUOUS
10
0.384646
20
-1.47286
11
0.38395
21
-1.47257
0
LINE
8
BLACK
6
CONTINUOUS
10
0.38395
20
-1.47257
11
0.383661
21
-1.47187
0
LINE
8
BLACK
6
CONTINUOUS
10
0.383661
20
-1.47187
11
0.383661
21
-1.47187
0
LINE
8
BLACK
6
CONTINUOUS
10
0.383661
20
-1.47187
11
0.383661
21
-1.3262
0
LINE
8
BLACK
6
CONTINUOUS
10
0.383661
20
-1.3262
11
0.38395
21
-1.32551
0
LINE
8
BLACK
6
CONTINUOUS
10
0.38395
20
-1.32551
11
0.384646
21
-1.32522
0
LINE
8
BLACK
6
CONTINUOUS
10
0.384646
20
-1.32522
11
0.609055
21
-1.32522
0
LINE
8
BLACK
6
CONTINUOUS
10
0.38563
20
-1.32719
11
0.38563
21
-1.47089
0
LINE
8
BLACK
6
CONTINUOUS
10
0.38563
20
-1.47089
11
0.608071
21
-1.47089
0
LINE
8
BLACK
6
CONTINUOUS
10
0.608071
20
-1.47089
11
0.608071
21
-1.32719
0
LINE
8
BLACK
6
CONTINUOUS
10
0.608071
20
-1.32719
11
0.38563
21
-1.32719
  0
ENDSEC
  0
EOF
