  0
SECTION
  2
HEADER
  9
$ANGBASE
  50
0.0
  9
$ANGDIR
  70
1
  9
$MEASUREMENT
  70
0
  0
ENDSEC
  0
SECTION
  2
TABLES
  0
TABLE
  2
LTYPE
  70
4
  0
LTYPE
  5
40F
  2
CONTINUOUS
  70
0
  3
Solid line
  72
65
  73
0
  40
0.0
  0
LTYPE
  5
410
  2
DASHDOT
 70
0
  3
Dash Dot ____ _ ____ _
 72
65
 73
4
 40
2.0
 49
1.25
 49
-0.25
 49
0.25
 49
-0.25
  0
LTYPE
  5
411
  2
DASHED
 70
0
  3
Dashed __ __ __ __ __
 72
65
 73
2
 40
0.75
 49
0.5
 49
-0.25
  0
LTYPE
  5
43B
  2
DOTTED
 70
0
  3
Dotted .  .  .  .
 72
65
 73
2
 40
0.2
 49
0.0
 49
-0.2
  0
ENDTAB
  0
TABLE
  2
STYLE
  70
4
  0
STYLE
  2
KICAD
  70
0
  40
0
  41
1
  42
1
  50
0
  71
0
  3
isocp.shx
  0
STYLE
  2
KICADB
  70
0
  40
0
  41
1
  42
1
  50
0
  71
0
  3
isocp.shx
  0
STYLE
  2
KICADI
  70
0
  40
0
  41
1
  42
1
  50
15
  71
0
  3
isocp.shx
  0
STYLE
  2
KICADBI
  70
0
  40
0
  41
1
  42
1
  50
15
  71
0
  3
isocp.shx
  0
ENDTAB
  0
TABLE
  2
LAYER
  70
1
  0
LAYER
  2
BLACK
  70
0
  62
7
  6
CONTINUOUS
  0
ENDTAB
  0
ENDSEC
  0
SECTION
  2
ENTITIES
0
LINE
8
BLACK
6
CONTINUOUS
10
0.631004
20
-2.21083
11
0.635603
21
-2.21135
0
LINE
8
BLACK
6
CONTINUOUS
10
0.635603
20
-2.21135
11
0.639972
21
-2.21287
0
LINE
8
BLACK
6
CONTINUOUS
10
0.639972
20
-2.21287
11
0.643891
21
-2.21534
0
LINE
8
BLACK
6
CONTINUOUS
10
0.643891
20
-2.21534
11
0.647164
21
-2.21861
0
LINE
8
BLACK
6
CONTINUOUS
10
0.647164
20
-2.21861
11
0.649626
21
-2.22253
0
LINE
8
BLACK
6
CONTINUOUS
10
0.649626
20
-2.22253
11
0.651155
21
-2.2269
0
LINE
8
BLACK
6
CONTINUOUS
10
0.651155
20
-2.2269
11
0.651673
21
-2.2315
0
LINE
8
BLACK
6
CONTINUOUS
10
0.651673
20
-2.2315
11
0.651673
21
-2.28661
0
LINE
8
BLACK
6
CONTINUOUS
10
0.651673
20
-2.28661
11
0.651155
21
-2.29121
0
LINE
8
BLACK
6
CONTINUOUS
10
0.651155
20
-2.29121
11
0.649626
21
-2.29558
0
LINE
8
BLACK
6
CONTINUOUS
10
0.649626
20
-2.29558
11
0.647164
21
-2.2995
0
LINE
8
BLACK
6
CONTINUOUS
10
0.647164
20
-2.2995
11
0.643891
21
-2.30277
0
LINE
8
BLACK
6
CONTINUOUS
10
0.643891
20
-2.30277
11
0.639972
21
-2.30524
0
LINE
8
BLACK
6
CONTINUOUS
10
0.639972
20
-2.30524
11
0.635603
21
-2.30677
0
LINE
8
BLACK
6
CONTINUOUS
10
0.635603
20
-2.30677
11
0.631004
21
-2.30728
0
LINE
8
BLACK
6
CONTINUOUS
10
0.631004
20
-2.30728
11
0.58376
21
-2.30728
0
LINE
8
BLACK
6
CONTINUOUS
10
0.58376
20
-2.30728
11
0.579161
21
-2.30677
0
LINE
8
BLACK
6
CONTINUOUS
10
0.579161
20
-2.30677
11
0.574792
21
-2.30524
0
LINE
8
BLACK
6
CONTINUOUS
10
0.574792
20
-2.30524
11
0.570873
21
-2.30277
0
LINE
8
BLACK
6
CONTINUOUS
10
0.570873
20
-2.30277
11
0.5676
21
-2.2995
0
LINE
8
BLACK
6
CONTINUOUS
10
0.5676
20
-2.2995
11
0.565137
21
-2.29558
0
LINE
8
BLACK
6
CONTINUOUS
10
0.565137
20
-2.29558
11
0.563609
21
-2.29121
0
LINE
8
BLACK
6
CONTINUOUS
10
0.563609
20
-2.29121
11
0.563091
21
-2.28661
0
LINE
8
BLACK
6
CONTINUOUS
10
0.563091
20
-2.28661
11
0.563091
21
-2.28661
0
LINE
8
BLACK
6
CONTINUOUS
10
0.563091
20
-2.28661
11
0.563091
21
-2.2315
0
LINE
8
BLACK
6
CONTINUOUS
10
0.563091
20
-2.2315
11
0.563609
21
-2.2269
0
LINE
8
BLACK
6
CONTINUOUS
10
0.563609
20
-2.2269
11
0.565137
21
-2.22253
0
LINE
8
BLACK
6
CONTINUOUS
10
0.565137
20
-2.22253
11
0.5676
21
-2.21861
0
LINE
8
BLACK
6
CONTINUOUS
10
0.5676
20
-2.21861
11
0.570873
21
-2.21534
0
LINE
8
BLACK
6
CONTINUOUS
10
0.570873
20
-2.21534
11
0.574792
21
-2.21287
0
LINE
8
BLACK
6
CONTINUOUS
10
0.574792
20
-2.21287
11
0.579161
21
-2.21135
0
LINE
8
BLACK
6
CONTINUOUS
10
0.579161
20
-2.21135
11
0.58376
21
-2.21083
0
LINE
8
BLACK
6
CONTINUOUS
10
0.58376
20
-2.21083
11
0.631004
21
-2.21083
0
LINE
8
BLACK
6
CONTINUOUS
10
0.58376
20
-2.2128
11
0.581298
21
-2.2128
0
LINE
8
BLACK
6
CONTINUOUS
10
0.581298
20
-2.2128
11
0.576542
21
-2.21407
0
LINE
8
BLACK
6
CONTINUOUS
10
0.576542
20
-2.21407
11
0.572277
21
-2.21653
0
LINE
8
BLACK
6
CONTINUOUS
10
0.572277
20
-2.21653
11
0.568795
21
-2.22001
0
LINE
8
BLACK
6
CONTINUOUS
10
0.568795
20
-2.22001
11
0.566333
21
-2.22428
0
LINE
8
BLACK
6
CONTINUOUS
10
0.566333
20
-2.22428
11
0.565059
21
-2.22903
0
LINE
8
BLACK
6
CONTINUOUS
10
0.565059
20
-2.22903
11
0.565059
21
-2.2315
0
LINE
8
BLACK
6
CONTINUOUS
10
0.565059
20
-2.2315
11
0.565059
21
-2.2315
0
LINE
8
BLACK
6
CONTINUOUS
10
0.565059
20
-2.2315
11
0.565059
21
-2.28661
0
LINE
8
BLACK
6
CONTINUOUS
10
0.565059
20
-2.28661
11
0.565059
21
-2.28908
0
LINE
8
BLACK
6
CONTINUOUS
10
0.565059
20
-2.28908
11
0.566333
21
-2.29383
0
LINE
8
BLACK
6
CONTINUOUS
10
0.566333
20
-2.29383
11
0.568795
21
-2.2981
0
LINE
8
BLACK
6
CONTINUOUS
10
0.568795
20
-2.2981
11
0.572277
21
-2.30158
0
LINE
8
BLACK
6
CONTINUOUS
10
0.572277
20
-2.30158
11
0.576542
21
-2.30404
0
LINE
8
BLACK
6
CONTINUOUS
10
0.576542
20
-2.30404
11
0.581298
21
-2.30531
0
LINE
8
BLACK
6
CONTINUOUS
10
0.581298
20
-2.30531
11
0.58376
21
-2.30531
0
LINE
8
BLACK
6
CONTINUOUS
10
0.58376
20
-2.30531
11
0.631004
21
-2.30531
0
LINE
8
BLACK
6
CONTINUOUS
10
0.631004
20
-2.30531
11
0.633466
21
-2.30531
0
LINE
8
BLACK
6
CONTINUOUS
10
0.633466
20
-2.30531
11
0.638222
21
-2.30404
0
LINE
8
BLACK
6
CONTINUOUS
10
0.638222
20
-2.30404
11
0.642486
21
-2.30158
0
LINE
8
BLACK
6
CONTINUOUS
10
0.642486
20
-2.30158
11
0.645968
21
-2.2981
0
LINE
8
BLACK
6
CONTINUOUS
10
0.645968
20
-2.2981
11
0.64843
21
-2.29383
0
LINE
8
BLACK
6
CONTINUOUS
10
0.64843
20
-2.29383
11
0.649705
21
-2.28908
0
LINE
8
BLACK
6
CONTINUOUS
10
0.649705
20
-2.28908
11
0.649705
21
-2.28661
0
LINE
8
BLACK
6
CONTINUOUS
10
0.649705
20
-2.28661
11
0.649705
21
-2.28661
0
LINE
8
BLACK
6
CONTINUOUS
10
0.649705
20
-2.28661
11
0.649705
21
-2.2315
0
LINE
8
BLACK
6
CONTINUOUS
10
0.649705
20
-2.2315
11
0.649705
21
-2.22903
0
LINE
8
BLACK
6
CONTINUOUS
10
0.649705
20
-2.22903
11
0.64843
21
-2.22428
0
LINE
8
BLACK
6
CONTINUOUS
10
0.64843
20
-2.22428
11
0.645968
21
-2.22001
0
LINE
8
BLACK
6
CONTINUOUS
10
0.645968
20
-2.22001
11
0.642486
21
-2.21653
0
LINE
8
BLACK
6
CONTINUOUS
10
0.642486
20
-2.21653
11
0.638222
21
-2.21407
0
LINE
8
BLACK
6
CONTINUOUS
10
0.638222
20
-2.21407
11
0.633466
21
-2.2128
0
LINE
8
BLACK
6
CONTINUOUS
10
0.633466
20
-2.2128
11
0.631004
21
-2.2128
0
LINE
8
BLACK
6
CONTINUOUS
10
0.631004
20
-2.2128
11
0.58376
21
-2.2128
0
LINE
8
BLACK
6
CONTINUOUS
10
0.870079
20
-2.21083
11
0.874678
21
-2.21135
0
LINE
8
BLACK
6
CONTINUOUS
10
0.874678
20
-2.21135
11
0.879047
21
-2.21287
0
LINE
8
BLACK
6
CONTINUOUS
10
0.879047
20
-2.21287
11
0.882966
21
-2.21534
0
LINE
8
BLACK
6
CONTINUOUS
10
0.882966
20
-2.21534
11
0.886239
21
-2.21861
0
LINE
8
BLACK
6
CONTINUOUS
10
0.886239
20
-2.21861
11
0.888701
21
-2.22253
0
LINE
8
BLACK
6
CONTINUOUS
10
0.888701
20
-2.22253
11
0.89023
21
-2.2269
0
LINE
8
BLACK
6
CONTINUOUS
10
0.89023
20
-2.2269
11
0.890748
21
-2.2315
0
LINE
8
BLACK
6
CONTINUOUS
10
0.890748
20
-2.2315
11
0.890748
21
-2.2315
0
LINE
8
BLACK
6
CONTINUOUS
10
0.890748
20
-2.2315
11
0.890748
21
-2.28661
0
LINE
8
BLACK
6
CONTINUOUS
10
0.890748
20
-2.28661
11
0.89023
21
-2.29121
0
LINE
8
BLACK
6
CONTINUOUS
10
0.89023
20
-2.29121
11
0.888701
21
-2.29558
0
LINE
8
BLACK
6
CONTINUOUS
10
0.888701
20
-2.29558
11
0.886239
21
-2.2995
0
LINE
8
BLACK
6
CONTINUOUS
10
0.886239
20
-2.2995
11
0.882966
21
-2.30277
0
LINE
8
BLACK
6
CONTINUOUS
10
0.882966
20
-2.30277
11
0.879047
21
-2.30524
0
LINE
8
BLACK
6
CONTINUOUS
10
0.879047
20
-2.30524
11
0.874678
21
-2.30677
0
LINE
8
BLACK
6
CONTINUOUS
10
0.874678
20
-2.30677
11
0.870079
21
-2.30728
0
LINE
8
BLACK
6
CONTINUOUS
10
0.870079
20
-2.30728
11
0.822835
21
-2.30728
0
LINE
8
BLACK
6
CONTINUOUS
10
0.822835
20
-2.30728
11
0.818235
21
-2.30677
0
LINE
8
BLACK
6
CONTINUOUS
10
0.818235
20
-2.30677
11
0.813867
21
-2.30524
0
LINE
8
BLACK
6
CONTINUOUS
10
0.813867
20
-2.30524
11
0.809948
21
-2.30277
0
LINE
8
BLACK
6
CONTINUOUS
10
0.809948
20
-2.30277
11
0.806675
21
-2.2995
0
LINE
8
BLACK
6
CONTINUOUS
10
0.806675
20
-2.2995
11
0.804212
21
-2.29558
0
LINE
8
BLACK
6
CONTINUOUS
10
0.804212
20
-2.29558
11
0.802684
21
-2.29121
0
LINE
8
BLACK
6
CONTINUOUS
10
0.802684
20
-2.29121
11
0.802165
21
-2.28661
0
LINE
8
BLACK
6
CONTINUOUS
10
0.802165
20
-2.28661
11
0.802165
21
-2.2315
0
LINE
8
BLACK
6
CONTINUOUS
10
0.802165
20
-2.2315
11
0.802684
21
-2.2269
0
LINE
8
BLACK
6
CONTINUOUS
10
0.802684
20
-2.2269
11
0.804212
21
-2.22253
0
LINE
8
BLACK
6
CONTINUOUS
10
0.804212
20
-2.22253
11
0.806675
21
-2.21861
0
LINE
8
BLACK
6
CONTINUOUS
10
0.806675
20
-2.21861
11
0.809948
21
-2.21534
0
LINE
8
BLACK
6
CONTINUOUS
10
0.809948
20
-2.21534
11
0.813867
21
-2.21287
0
LINE
8
BLACK
6
CONTINUOUS
10
0.813867
20
-2.21287
11
0.818235
21
-2.21135
0
LINE
8
BLACK
6
CONTINUOUS
10
0.818235
20
-2.21135
11
0.822835
21
-2.21083
0
LINE
8
BLACK
6
CONTINUOUS
10
0.822835
20
-2.21083
11
0.870079
21
-2.21083
0
LINE
8
BLACK
6
CONTINUOUS
10
0.822835
20
-2.2128
11
0.820373
21
-2.2128
0
LINE
8
BLACK
6
CONTINUOUS
10
0.820373
20
-2.2128
11
0.815616
21
-2.21407
0
LINE
8
BLACK
6
CONTINUOUS
10
0.815616
20
-2.21407
11
0.811352
21
-2.21653
0
LINE
8
BLACK
6
CONTINUOUS
10
0.811352
20
-2.21653
11
0.80787
21
-2.22001
0
LINE
8
BLACK
6
CONTINUOUS
10
0.80787
20
-2.22001
11
0.805408
21
-2.22428
0
LINE
8
BLACK
6
CONTINUOUS
10
0.805408
20
-2.22428
11
0.804134
21
-2.22903
0
LINE
8
BLACK
6
CONTINUOUS
10
0.804134
20
-2.22903
11
0.804134
21
-2.2315
0
LINE
8
BLACK
6
CONTINUOUS
10
0.804134
20
-2.2315
11
0.804134
21
-2.28661
0
LINE
8
BLACK
6
CONTINUOUS
10
0.804134
20
-2.28661
11
0.804134
21
-2.28908
0
LINE
8
BLACK
6
CONTINUOUS
10
0.804134
20
-2.28908
11
0.805408
21
-2.29383
0
LINE
8
BLACK
6
CONTINUOUS
10
0.805408
20
-2.29383
11
0.80787
21
-2.2981
0
LINE
8
BLACK
6
CONTINUOUS
10
0.80787
20
-2.2981
11
0.811352
21
-2.30158
0
LINE
8
BLACK
6
CONTINUOUS
10
0.811352
20
-2.30158
11
0.815616
21
-2.30404
0
LINE
8
BLACK
6
CONTINUOUS
10
0.815616
20
-2.30404
11
0.820373
21
-2.30531
0
LINE
8
BLACK
6
CONTINUOUS
10
0.820373
20
-2.30531
11
0.822835
21
-2.30531
0
LINE
8
BLACK
6
CONTINUOUS
10
0.822835
20
-2.30531
11
0.870079
21
-2.30531
0
LINE
8
BLACK
6
CONTINUOUS
10
0.870079
20
-2.30531
11
0.872541
21
-2.30531
0
LINE
8
BLACK
6
CONTINUOUS
10
0.872541
20
-2.30531
11
0.877297
21
-2.30404
0
LINE
8
BLACK
6
CONTINUOUS
10
0.877297
20
-2.30404
11
0.881561
21
-2.30158
0
LINE
8
BLACK
6
CONTINUOUS
10
0.881561
20
-2.30158
11
0.885043
21
-2.2981
0
LINE
8
BLACK
6
CONTINUOUS
10
0.885043
20
-2.2981
11
0.887505
21
-2.29383
0
LINE
8
BLACK
6
CONTINUOUS
10
0.887505
20
-2.29383
11
0.88878
21
-2.28908
0
LINE
8
BLACK
6
CONTINUOUS
10
0.88878
20
-2.28908
11
0.88878
21
-2.28661
0
LINE
8
BLACK
6
CONTINUOUS
10
0.88878
20
-2.28661
11
0.88878
21
-2.2315
0
LINE
8
BLACK
6
CONTINUOUS
10
0.88878
20
-2.2315
11
0.88878
21
-2.22903
0
LINE
8
BLACK
6
CONTINUOUS
10
0.88878
20
-2.22903
11
0.887505
21
-2.22428
0
LINE
8
BLACK
6
CONTINUOUS
10
0.887505
20
-2.22428
11
0.885043
21
-2.22001
0
LINE
8
BLACK
6
CONTINUOUS
10
0.885043
20
-2.22001
11
0.881561
21
-2.21653
0
LINE
8
BLACK
6
CONTINUOUS
10
0.881561
20
-2.21653
11
0.877297
21
-2.21407
0
LINE
8
BLACK
6
CONTINUOUS
10
0.877297
20
-2.21407
11
0.872541
21
-2.2128
0
LINE
8
BLACK
6
CONTINUOUS
10
0.872541
20
-2.2128
11
0.870079
21
-2.2128
0
LINE
8
BLACK
6
CONTINUOUS
10
0.870079
20
-2.2128
11
0.822835
21
-2.2128
0
LINE
8
BLACK
6
CONTINUOUS
10
2.79213
20
0.0019685
11
2.79352
21
0.00139193
0
LINE
8
BLACK
6
CONTINUOUS
10
2.79352
20
0.00139193
11
2.79409
21
0
0
LINE
8
BLACK
6
CONTINUOUS
10
2.79409
20
0
11
2.79409
21
-2.39213
0
LINE
8
BLACK
6
CONTINUOUS
10
2.79409
20
-2.39213
11
2.79352
21
-2.39352
0
LINE
8
BLACK
6
CONTINUOUS
10
2.79352
20
-2.39352
11
2.79213
21
-2.39409
0
LINE
8
BLACK
6
CONTINUOUS
10
2.79213
20
-2.39409
11
0
21
-2.39409
0
LINE
8
BLACK
6
CONTINUOUS
10
0
20
-2.39409
11
-0.00139193
21
-2.39352
0
LINE
8
BLACK
6
CONTINUOUS
10
-0.00139193
20
-2.39352
11
-0.0019685
21
-2.39213
0
LINE
8
BLACK
6
CONTINUOUS
10
-0.0019685
20
-2.39213
11
-0.0019685
21
-2.39213
0
LINE
8
BLACK
6
CONTINUOUS
10
-0.0019685
20
-2.39213
11
-0.0019685
21
0
0
LINE
8
BLACK
6
CONTINUOUS
10
-0.0019685
20
0
11
-0.00139193
21
0.00139193
0
LINE
8
BLACK
6
CONTINUOUS
10
-0.00139193
20
0.00139193
11
0
21
0.0019685
0
LINE
8
BLACK
6
CONTINUOUS
10
0
20
0.0019685
11
2.79213
21
0.0019685
0
LINE
8
BLACK
6
CONTINUOUS
10
0.0019685
20
-0.0019685
11
0.0019685
21
-2.39016
0
LINE
8
BLACK
6
CONTINUOUS
10
0.0019685
20
-2.39016
11
2.79016
21
-2.39016
0
LINE
8
BLACK
6
CONTINUOUS
10
2.79016
20
-2.39016
11
2.79016
21
-0.0019685
0
LINE
8
BLACK
6
CONTINUOUS
10
2.79016
20
-0.0019685
11
0.0019685
21
-0.0019685
  0
ENDSEC
  0
EOF
