  0
SECTION
  2
HEADER
  9
$ANGBASE
  50
0.0
  9
$ANGDIR
  70
1
  9
$MEASUREMENT
  70
0
  0
ENDSEC
  0
SECTION
  2
TABLES
  0
TABLE
  2
LTYPE
  70
4
  0
LTYPE
  5
40F
  2
CONTINUOUS
  70
0
  3
Solid line
  72
65
  73
0
  40
0.0
  0
LTYPE
  5
410
  2
DASHDOT
 70
0
  3
Dash Dot ____ _ ____ _
 72
65
 73
4
 40
2.0
 49
1.25
 49
-0.25
 49
0.25
 49
-0.25
  0
LTYPE
  5
411
  2
DASHED
 70
0
  3
Dashed __ __ __ __ __
 72
65
 73
2
 40
0.75
 49
0.5
 49
-0.25
  0
LTYPE
  5
43B
  2
DOTTED
 70
0
  3
Dotted .  .  .  .
 72
65
 73
2
 40
0.2
 49
0.0
 49
-0.2
  0
ENDTAB
  0
TABLE
  2
STYLE
  70
4
  0
STYLE
  2
KICAD
  70
0
  40
0
  41
1
  42
1
  50
0
  71
0
  3
isocp.shx
  0
STYLE
  2
KICADB
  70
0
  40
0
  41
1
  42
1
  50
0
  71
0
  3
isocp.shx
  0
STYLE
  2
KICADI
  70
0
  40
0
  41
1
  42
1
  50
15
  71
0
  3
isocp.shx
  0
STYLE
  2
KICADBI
  70
0
  40
0
  41
1
  42
1
  50
15
  71
0
  3
isocp.shx
  0
ENDTAB
  0
TABLE
  2
LAYER
  70
1
  0
LAYER
  2
BLACK
  70
0
  62
7
  6
CONTINUOUS
  0
ENDTAB
  0
ENDSEC
  0
SECTION
  2
ENTITIES
0
LINE
8
BLACK
6
CONTINUOUS
10
1.01539
20
-2.07251
11
1.01651
21
-2.07325
0
LINE
8
BLACK
6
CONTINUOUS
10
1.01651
20
-2.07325
11
1.01726
21
-2.07437
0
LINE
8
BLACK
6
CONTINUOUS
10
1.01726
20
-2.07437
11
1.01752
21
-2.07569
0
LINE
8
BLACK
6
CONTINUOUS
10
1.01752
20
-2.07569
11
1.01752
21
-2.22628
0
LINE
8
BLACK
6
CONTINUOUS
10
1.01752
20
-2.22628
11
1.01726
21
-2.2276
0
LINE
8
BLACK
6
CONTINUOUS
10
1.01726
20
-2.2276
11
1.01651
21
-2.22872
0
LINE
8
BLACK
6
CONTINUOUS
10
1.01651
20
-2.22872
11
1.01539
21
-2.22946
0
LINE
8
BLACK
6
CONTINUOUS
10
1.01539
20
-2.22946
11
1.01407
21
-2.22972
0
LINE
8
BLACK
6
CONTINUOUS
10
1.01407
20
-2.22972
11
1.00719
21
-2.22972
0
LINE
8
BLACK
6
CONTINUOUS
10
1.00719
20
-2.22972
11
1.00587
21
-2.22946
0
LINE
8
BLACK
6
CONTINUOUS
10
1.00587
20
-2.22946
11
1.00475
21
-2.22872
0
LINE
8
BLACK
6
CONTINUOUS
10
1.00475
20
-2.22872
11
1.004
21
-2.2276
0
LINE
8
BLACK
6
CONTINUOUS
10
1.004
20
-2.2276
11
1.00374
21
-2.22628
0
LINE
8
BLACK
6
CONTINUOUS
10
1.00374
20
-2.22628
11
1.00374
21
-2.07569
0
LINE
8
BLACK
6
CONTINUOUS
10
1.00374
20
-2.07569
11
1.004
21
-2.07437
0
LINE
8
BLACK
6
CONTINUOUS
10
1.004
20
-2.07437
11
1.00475
21
-2.07325
0
LINE
8
BLACK
6
CONTINUOUS
10
1.00475
20
-2.07325
11
1.00587
21
-2.07251
0
LINE
8
BLACK
6
CONTINUOUS
10
1.00587
20
-2.07251
11
1.00719
21
-2.07224
0
LINE
8
BLACK
6
CONTINUOUS
10
1.00719
20
-2.07224
11
1.01407
21
-2.07224
0
LINE
8
BLACK
6
CONTINUOUS
10
1.01407
20
-2.07224
11
1.01539
21
-2.07251
0
LINE
8
BLACK
6
CONTINUOUS
10
1.04295
20
-2.07251
11
1.04407
21
-2.07325
0
LINE
8
BLACK
6
CONTINUOUS
10
1.04407
20
-2.07325
11
1.04482
21
-2.07437
0
LINE
8
BLACK
6
CONTINUOUS
10
1.04482
20
-2.07437
11
1.04508
21
-2.07569
0
LINE
8
BLACK
6
CONTINUOUS
10
1.04508
20
-2.07569
11
1.04508
21
-2.22628
0
LINE
8
BLACK
6
CONTINUOUS
10
1.04508
20
-2.22628
11
1.04482
21
-2.2276
0
LINE
8
BLACK
6
CONTINUOUS
10
1.04482
20
-2.2276
11
1.04407
21
-2.22872
0
LINE
8
BLACK
6
CONTINUOUS
10
1.04407
20
-2.22872
11
1.04295
21
-2.22946
0
LINE
8
BLACK
6
CONTINUOUS
10
1.04295
20
-2.22946
11
1.04163
21
-2.22972
0
LINE
8
BLACK
6
CONTINUOUS
10
1.04163
20
-2.22972
11
1.03474
21
-2.22972
0
LINE
8
BLACK
6
CONTINUOUS
10
1.03474
20
-2.22972
11
1.03343
21
-2.22946
0
LINE
8
BLACK
6
CONTINUOUS
10
1.03343
20
-2.22946
11
1.03231
21
-2.22872
0
LINE
8
BLACK
6
CONTINUOUS
10
1.03231
20
-2.22872
11
1.03156
21
-2.2276
0
LINE
8
BLACK
6
CONTINUOUS
10
1.03156
20
-2.2276
11
1.0313
21
-2.22628
0
LINE
8
BLACK
6
CONTINUOUS
10
1.0313
20
-2.22628
11
1.0313
21
-2.07569
0
LINE
8
BLACK
6
CONTINUOUS
10
1.0313
20
-2.07569
11
1.03156
21
-2.07437
0
LINE
8
BLACK
6
CONTINUOUS
10
1.03156
20
-2.07437
11
1.03231
21
-2.07325
0
LINE
8
BLACK
6
CONTINUOUS
10
1.03231
20
-2.07325
11
1.03343
21
-2.07251
0
LINE
8
BLACK
6
CONTINUOUS
10
1.03343
20
-2.07251
11
1.03474
21
-2.07224
0
LINE
8
BLACK
6
CONTINUOUS
10
1.03474
20
-2.07224
11
1.04163
21
-2.07224
0
LINE
8
BLACK
6
CONTINUOUS
10
1.04163
20
-2.07224
11
1.04295
21
-2.07251
0
LINE
8
BLACK
6
CONTINUOUS
10
1.07051
20
-2.07251
11
1.07163
21
-2.07325
0
LINE
8
BLACK
6
CONTINUOUS
10
1.07163
20
-2.07325
11
1.07238
21
-2.07437
0
LINE
8
BLACK
6
CONTINUOUS
10
1.07238
20
-2.07437
11
1.07264
21
-2.07569
0
LINE
8
BLACK
6
CONTINUOUS
10
1.07264
20
-2.07569
11
1.07264
21
-2.22628
0
LINE
8
BLACK
6
CONTINUOUS
10
1.07264
20
-2.22628
11
1.07238
21
-2.2276
0
LINE
8
BLACK
6
CONTINUOUS
10
1.07238
20
-2.2276
11
1.07163
21
-2.22872
0
LINE
8
BLACK
6
CONTINUOUS
10
1.07163
20
-2.22872
11
1.07051
21
-2.22946
0
LINE
8
BLACK
6
CONTINUOUS
10
1.07051
20
-2.22946
11
1.06919
21
-2.22972
0
LINE
8
BLACK
6
CONTINUOUS
10
1.06919
20
-2.22972
11
1.0623
21
-2.22972
0
LINE
8
BLACK
6
CONTINUOUS
10
1.0623
20
-2.22972
11
1.06098
21
-2.22946
0
LINE
8
BLACK
6
CONTINUOUS
10
1.06098
20
-2.22946
11
1.05987
21
-2.22872
0
LINE
8
BLACK
6
CONTINUOUS
10
1.05987
20
-2.22872
11
1.05912
21
-2.2276
0
LINE
8
BLACK
6
CONTINUOUS
10
1.05912
20
-2.2276
11
1.05886
21
-2.22628
0
LINE
8
BLACK
6
CONTINUOUS
10
1.05886
20
-2.22628
11
1.05886
21
-2.07569
0
LINE
8
BLACK
6
CONTINUOUS
10
1.05886
20
-2.07569
11
1.05912
21
-2.07437
0
LINE
8
BLACK
6
CONTINUOUS
10
1.05912
20
-2.07437
11
1.05987
21
-2.07325
0
LINE
8
BLACK
6
CONTINUOUS
10
1.05987
20
-2.07325
11
1.06098
21
-2.07251
0
LINE
8
BLACK
6
CONTINUOUS
10
1.06098
20
-2.07251
11
1.0623
21
-2.07224
0
LINE
8
BLACK
6
CONTINUOUS
10
1.0623
20
-2.07224
11
1.06919
21
-2.07224
0
LINE
8
BLACK
6
CONTINUOUS
10
1.06919
20
-2.07224
11
1.07051
21
-2.07251
0
LINE
8
BLACK
6
CONTINUOUS
10
1.09807
20
-2.07251
11
1.09919
21
-2.07325
0
LINE
8
BLACK
6
CONTINUOUS
10
1.09919
20
-2.07325
11
1.09993
21
-2.07437
0
LINE
8
BLACK
6
CONTINUOUS
10
1.09993
20
-2.07437
11
1.1002
21
-2.07569
0
LINE
8
BLACK
6
CONTINUOUS
10
1.1002
20
-2.07569
11
1.1002
21
-2.22628
0
LINE
8
BLACK
6
CONTINUOUS
10
1.1002
20
-2.22628
11
1.09993
21
-2.2276
0
LINE
8
BLACK
6
CONTINUOUS
10
1.09993
20
-2.2276
11
1.09919
21
-2.22872
0
LINE
8
BLACK
6
CONTINUOUS
10
1.09919
20
-2.22872
11
1.09807
21
-2.22946
0
LINE
8
BLACK
6
CONTINUOUS
10
1.09807
20
-2.22946
11
1.09675
21
-2.22972
0
LINE
8
BLACK
6
CONTINUOUS
10
1.09675
20
-2.22972
11
1.08986
21
-2.22972
0
LINE
8
BLACK
6
CONTINUOUS
10
1.08986
20
-2.22972
11
1.08854
21
-2.22946
0
LINE
8
BLACK
6
CONTINUOUS
10
1.08854
20
-2.22946
11
1.08743
21
-2.22872
0
LINE
8
BLACK
6
CONTINUOUS
10
1.08743
20
-2.22872
11
1.08668
21
-2.2276
0
LINE
8
BLACK
6
CONTINUOUS
10
1.08668
20
-2.2276
11
1.08642
21
-2.22628
0
LINE
8
BLACK
6
CONTINUOUS
10
1.08642
20
-2.22628
11
1.08642
21
-2.07569
0
LINE
8
BLACK
6
CONTINUOUS
10
1.08642
20
-2.07569
11
1.08668
21
-2.07437
0
LINE
8
BLACK
6
CONTINUOUS
10
1.08668
20
-2.07437
11
1.08743
21
-2.07325
0
LINE
8
BLACK
6
CONTINUOUS
10
1.08743
20
-2.07325
11
1.08854
21
-2.07251
0
LINE
8
BLACK
6
CONTINUOUS
10
1.08854
20
-2.07251
11
1.08986
21
-2.07224
0
LINE
8
BLACK
6
CONTINUOUS
10
1.08986
20
-2.07224
11
1.09675
21
-2.07224
0
LINE
8
BLACK
6
CONTINUOUS
10
1.09675
20
-2.07224
11
1.09807
21
-2.07251
0
LINE
8
BLACK
6
CONTINUOUS
10
1.12563
20
-2.07251
11
1.12675
21
-2.07325
0
LINE
8
BLACK
6
CONTINUOUS
10
1.12675
20
-2.07325
11
1.12749
21
-2.07437
0
LINE
8
BLACK
6
CONTINUOUS
10
1.12749
20
-2.07437
11
1.12776
21
-2.07569
0
LINE
8
BLACK
6
CONTINUOUS
10
1.12776
20
-2.07569
11
1.12776
21
-2.22628
0
LINE
8
BLACK
6
CONTINUOUS
10
1.12776
20
-2.22628
11
1.12749
21
-2.2276
0
LINE
8
BLACK
6
CONTINUOUS
10
1.12749
20
-2.2276
11
1.12675
21
-2.22872
0
LINE
8
BLACK
6
CONTINUOUS
10
1.12675
20
-2.22872
11
1.12563
21
-2.22946
0
LINE
8
BLACK
6
CONTINUOUS
10
1.12563
20
-2.22946
11
1.12431
21
-2.22972
0
LINE
8
BLACK
6
CONTINUOUS
10
1.12431
20
-2.22972
11
1.11742
21
-2.22972
0
LINE
8
BLACK
6
CONTINUOUS
10
1.11742
20
-2.22972
11
1.1161
21
-2.22946
0
LINE
8
BLACK
6
CONTINUOUS
10
1.1161
20
-2.22946
11
1.11499
21
-2.22872
0
LINE
8
BLACK
6
CONTINUOUS
10
1.11499
20
-2.22872
11
1.11424
21
-2.2276
0
LINE
8
BLACK
6
CONTINUOUS
10
1.11424
20
-2.2276
11
1.11398
21
-2.22628
0
LINE
8
BLACK
6
CONTINUOUS
10
1.11398
20
-2.22628
11
1.11398
21
-2.07569
0
LINE
8
BLACK
6
CONTINUOUS
10
1.11398
20
-2.07569
11
1.11424
21
-2.07437
0
LINE
8
BLACK
6
CONTINUOUS
10
1.11424
20
-2.07437
11
1.11499
21
-2.07325
0
LINE
8
BLACK
6
CONTINUOUS
10
1.11499
20
-2.07325
11
1.1161
21
-2.07251
0
LINE
8
BLACK
6
CONTINUOUS
10
1.1161
20
-2.07251
11
1.11742
21
-2.07224
0
LINE
8
BLACK
6
CONTINUOUS
10
1.11742
20
-2.07224
11
1.12431
21
-2.07224
0
LINE
8
BLACK
6
CONTINUOUS
10
1.12431
20
-2.07224
11
1.12563
21
-2.07251
0
LINE
8
BLACK
6
CONTINUOUS
10
1.15319
20
-2.07251
11
1.15431
21
-2.07325
0
LINE
8
BLACK
6
CONTINUOUS
10
1.15431
20
-2.07325
11
1.15505
21
-2.07437
0
LINE
8
BLACK
6
CONTINUOUS
10
1.15505
20
-2.07437
11
1.15531
21
-2.07569
0
LINE
8
BLACK
6
CONTINUOUS
10
1.15531
20
-2.07569
11
1.15531
21
-2.22628
0
LINE
8
BLACK
6
CONTINUOUS
10
1.15531
20
-2.22628
11
1.15505
21
-2.2276
0
LINE
8
BLACK
6
CONTINUOUS
10
1.15505
20
-2.2276
11
1.15431
21
-2.22872
0
LINE
8
BLACK
6
CONTINUOUS
10
1.15431
20
-2.22872
11
1.15319
21
-2.22946
0
LINE
8
BLACK
6
CONTINUOUS
10
1.15319
20
-2.22946
11
1.15187
21
-2.22972
0
LINE
8
BLACK
6
CONTINUOUS
10
1.15187
20
-2.22972
11
1.14498
21
-2.22972
0
LINE
8
BLACK
6
CONTINUOUS
10
1.14498
20
-2.22972
11
1.14366
21
-2.22946
0
LINE
8
BLACK
6
CONTINUOUS
10
1.14366
20
-2.22946
11
1.14254
21
-2.22872
0
LINE
8
BLACK
6
CONTINUOUS
10
1.14254
20
-2.22872
11
1.1418
21
-2.2276
0
LINE
8
BLACK
6
CONTINUOUS
10
1.1418
20
-2.2276
11
1.14154
21
-2.22628
0
LINE
8
BLACK
6
CONTINUOUS
10
1.14154
20
-2.22628
11
1.14154
21
-2.07569
0
LINE
8
BLACK
6
CONTINUOUS
10
1.14154
20
-2.07569
11
1.1418
21
-2.07437
0
LINE
8
BLACK
6
CONTINUOUS
10
1.1418
20
-2.07437
11
1.14254
21
-2.07325
0
LINE
8
BLACK
6
CONTINUOUS
10
1.14254
20
-2.07325
11
1.14366
21
-2.07251
0
LINE
8
BLACK
6
CONTINUOUS
10
1.14366
20
-2.07251
11
1.14498
21
-2.07224
0
LINE
8
BLACK
6
CONTINUOUS
10
1.14498
20
-2.07224
11
1.15187
21
-2.07224
0
LINE
8
BLACK
6
CONTINUOUS
10
1.15187
20
-2.07224
11
1.15319
21
-2.07251
0
LINE
8
BLACK
6
CONTINUOUS
10
1.18075
20
-2.07251
11
1.18187
21
-2.07325
0
LINE
8
BLACK
6
CONTINUOUS
10
1.18187
20
-2.07325
11
1.18261
21
-2.07437
0
LINE
8
BLACK
6
CONTINUOUS
10
1.18261
20
-2.07437
11
1.18287
21
-2.07569
0
LINE
8
BLACK
6
CONTINUOUS
10
1.18287
20
-2.07569
11
1.18287
21
-2.22628
0
LINE
8
BLACK
6
CONTINUOUS
10
1.18287
20
-2.22628
11
1.18261
21
-2.2276
0
LINE
8
BLACK
6
CONTINUOUS
10
1.18261
20
-2.2276
11
1.18187
21
-2.22872
0
LINE
8
BLACK
6
CONTINUOUS
10
1.18187
20
-2.22872
11
1.18075
21
-2.22946
0
LINE
8
BLACK
6
CONTINUOUS
10
1.18075
20
-2.22946
11
1.17943
21
-2.22972
0
LINE
8
BLACK
6
CONTINUOUS
10
1.17943
20
-2.22972
11
1.17254
21
-2.22972
0
LINE
8
BLACK
6
CONTINUOUS
10
1.17254
20
-2.22972
11
1.17122
21
-2.22946
0
LINE
8
BLACK
6
CONTINUOUS
10
1.17122
20
-2.22946
11
1.1701
21
-2.22872
0
LINE
8
BLACK
6
CONTINUOUS
10
1.1701
20
-2.22872
11
1.16936
21
-2.2276
0
LINE
8
BLACK
6
CONTINUOUS
10
1.16936
20
-2.2276
11
1.16909
21
-2.22628
0
LINE
8
BLACK
6
CONTINUOUS
10
1.16909
20
-2.22628
11
1.16909
21
-2.07569
0
LINE
8
BLACK
6
CONTINUOUS
10
1.16909
20
-2.07569
11
1.16936
21
-2.07437
0
LINE
8
BLACK
6
CONTINUOUS
10
1.16936
20
-2.07437
11
1.1701
21
-2.07325
0
LINE
8
BLACK
6
CONTINUOUS
10
1.1701
20
-2.07325
11
1.17122
21
-2.07251
0
LINE
8
BLACK
6
CONTINUOUS
10
1.17122
20
-2.07251
11
1.17254
21
-2.07224
0
LINE
8
BLACK
6
CONTINUOUS
10
1.17254
20
-2.07224
11
1.17943
21
-2.07224
0
LINE
8
BLACK
6
CONTINUOUS
10
1.17943
20
-2.07224
11
1.18075
21
-2.07251
0
LINE
8
BLACK
6
CONTINUOUS
10
1.20831
20
-2.07251
11
1.20942
21
-2.07325
0
LINE
8
BLACK
6
CONTINUOUS
10
1.20942
20
-2.07325
11
1.21017
21
-2.07437
0
LINE
8
BLACK
6
CONTINUOUS
10
1.21017
20
-2.07437
11
1.21043
21
-2.07569
0
LINE
8
BLACK
6
CONTINUOUS
10
1.21043
20
-2.07569
11
1.21043
21
-2.22628
0
LINE
8
BLACK
6
CONTINUOUS
10
1.21043
20
-2.22628
11
1.21017
21
-2.2276
0
LINE
8
BLACK
6
CONTINUOUS
10
1.21017
20
-2.2276
11
1.20942
21
-2.22872
0
LINE
8
BLACK
6
CONTINUOUS
10
1.20942
20
-2.22872
11
1.20831
21
-2.22946
0
LINE
8
BLACK
6
CONTINUOUS
10
1.20831
20
-2.22946
11
1.20699
21
-2.22972
0
LINE
8
BLACK
6
CONTINUOUS
10
1.20699
20
-2.22972
11
1.2001
21
-2.22972
0
LINE
8
BLACK
6
CONTINUOUS
10
1.2001
20
-2.22972
11
1.19878
21
-2.22946
0
LINE
8
BLACK
6
CONTINUOUS
10
1.19878
20
-2.22946
11
1.19766
21
-2.22872
0
LINE
8
BLACK
6
CONTINUOUS
10
1.19766
20
-2.22872
11
1.19692
21
-2.2276
0
LINE
8
BLACK
6
CONTINUOUS
10
1.19692
20
-2.2276
11
1.19665
21
-2.22628
0
LINE
8
BLACK
6
CONTINUOUS
10
1.19665
20
-2.22628
11
1.19665
21
-2.07569
0
LINE
8
BLACK
6
CONTINUOUS
10
1.19665
20
-2.07569
11
1.19692
21
-2.07437
0
LINE
8
BLACK
6
CONTINUOUS
10
1.19692
20
-2.07437
11
1.19766
21
-2.07325
0
LINE
8
BLACK
6
CONTINUOUS
10
1.19766
20
-2.07325
11
1.19878
21
-2.07251
0
LINE
8
BLACK
6
CONTINUOUS
10
1.19878
20
-2.07251
11
1.2001
21
-2.07224
0
LINE
8
BLACK
6
CONTINUOUS
10
1.2001
20
-2.07224
11
1.20699
21
-2.07224
0
LINE
8
BLACK
6
CONTINUOUS
10
1.20699
20
-2.07224
11
1.20831
21
-2.07251
0
LINE
8
BLACK
6
CONTINUOUS
10
1.23587
20
-2.07251
11
1.23698
21
-2.07325
0
LINE
8
BLACK
6
CONTINUOUS
10
1.23698
20
-2.07325
11
1.23773
21
-2.07437
0
LINE
8
BLACK
6
CONTINUOUS
10
1.23773
20
-2.07437
11
1.23799
21
-2.07569
0
LINE
8
BLACK
6
CONTINUOUS
10
1.23799
20
-2.07569
11
1.23799
21
-2.22628
0
LINE
8
BLACK
6
CONTINUOUS
10
1.23799
20
-2.22628
11
1.23773
21
-2.2276
0
LINE
8
BLACK
6
CONTINUOUS
10
1.23773
20
-2.2276
11
1.23698
21
-2.22872
0
LINE
8
BLACK
6
CONTINUOUS
10
1.23698
20
-2.22872
11
1.23587
21
-2.22946
0
LINE
8
BLACK
6
CONTINUOUS
10
1.23587
20
-2.22946
11
1.23455
21
-2.22972
0
LINE
8
BLACK
6
CONTINUOUS
10
1.23455
20
-2.22972
11
1.22766
21
-2.22972
0
LINE
8
BLACK
6
CONTINUOUS
10
1.22766
20
-2.22972
11
1.22634
21
-2.22946
0
LINE
8
BLACK
6
CONTINUOUS
10
1.22634
20
-2.22946
11
1.22522
21
-2.22872
0
LINE
8
BLACK
6
CONTINUOUS
10
1.22522
20
-2.22872
11
1.22447
21
-2.2276
0
LINE
8
BLACK
6
CONTINUOUS
10
1.22447
20
-2.2276
11
1.22421
21
-2.22628
0
LINE
8
BLACK
6
CONTINUOUS
10
1.22421
20
-2.22628
11
1.22421
21
-2.07569
0
LINE
8
BLACK
6
CONTINUOUS
10
1.22421
20
-2.07569
11
1.22447
21
-2.07437
0
LINE
8
BLACK
6
CONTINUOUS
10
1.22447
20
-2.07437
11
1.22522
21
-2.07325
0
LINE
8
BLACK
6
CONTINUOUS
10
1.22522
20
-2.07325
11
1.22634
21
-2.07251
0
LINE
8
BLACK
6
CONTINUOUS
10
1.22634
20
-2.07251
11
1.22766
21
-2.07224
0
LINE
8
BLACK
6
CONTINUOUS
10
1.22766
20
-2.07224
11
1.23455
21
-2.07224
0
LINE
8
BLACK
6
CONTINUOUS
10
1.23455
20
-2.07224
11
1.23587
21
-2.07251
0
LINE
8
BLACK
6
CONTINUOUS
10
1.26342
20
-2.07251
11
1.26454
21
-2.07325
0
LINE
8
BLACK
6
CONTINUOUS
10
1.26454
20
-2.07325
11
1.26529
21
-2.07437
0
LINE
8
BLACK
6
CONTINUOUS
10
1.26529
20
-2.07437
11
1.26555
21
-2.07569
0
LINE
8
BLACK
6
CONTINUOUS
10
1.26555
20
-2.07569
11
1.26555
21
-2.22628
0
LINE
8
BLACK
6
CONTINUOUS
10
1.26555
20
-2.22628
11
1.26529
21
-2.2276
0
LINE
8
BLACK
6
CONTINUOUS
10
1.26529
20
-2.2276
11
1.26454
21
-2.22872
0
LINE
8
BLACK
6
CONTINUOUS
10
1.26454
20
-2.22872
11
1.26342
21
-2.22946
0
LINE
8
BLACK
6
CONTINUOUS
10
1.26342
20
-2.22946
11
1.26211
21
-2.22972
0
LINE
8
BLACK
6
CONTINUOUS
10
1.26211
20
-2.22972
11
1.25522
21
-2.22972
0
LINE
8
BLACK
6
CONTINUOUS
10
1.25522
20
-2.22972
11
1.2539
21
-2.22946
0
LINE
8
BLACK
6
CONTINUOUS
10
1.2539
20
-2.22946
11
1.25278
21
-2.22872
0
LINE
8
BLACK
6
CONTINUOUS
10
1.25278
20
-2.22872
11
1.25203
21
-2.2276
0
LINE
8
BLACK
6
CONTINUOUS
10
1.25203
20
-2.2276
11
1.25177
21
-2.22628
0
LINE
8
BLACK
6
CONTINUOUS
10
1.25177
20
-2.22628
11
1.25177
21
-2.07569
0
LINE
8
BLACK
6
CONTINUOUS
10
1.25177
20
-2.07569
11
1.25203
21
-2.07437
0
LINE
8
BLACK
6
CONTINUOUS
10
1.25203
20
-2.07437
11
1.25278
21
-2.07325
0
LINE
8
BLACK
6
CONTINUOUS
10
1.25278
20
-2.07325
11
1.2539
21
-2.07251
0
LINE
8
BLACK
6
CONTINUOUS
10
1.2539
20
-2.07251
11
1.25522
21
-2.07224
0
LINE
8
BLACK
6
CONTINUOUS
10
1.25522
20
-2.07224
11
1.26211
21
-2.07224
0
LINE
8
BLACK
6
CONTINUOUS
10
1.26211
20
-2.07224
11
1.26342
21
-2.07251
0
LINE
8
BLACK
6
CONTINUOUS
10
1.29098
20
-2.07251
11
1.2921
21
-2.07325
0
LINE
8
BLACK
6
CONTINUOUS
10
1.2921
20
-2.07325
11
1.29285
21
-2.07437
0
LINE
8
BLACK
6
CONTINUOUS
10
1.29285
20
-2.07437
11
1.29311
21
-2.07569
0
LINE
8
BLACK
6
CONTINUOUS
10
1.29311
20
-2.07569
11
1.29311
21
-2.22628
0
LINE
8
BLACK
6
CONTINUOUS
10
1.29311
20
-2.22628
11
1.29285
21
-2.2276
0
LINE
8
BLACK
6
CONTINUOUS
10
1.29285
20
-2.2276
11
1.2921
21
-2.22872
0
LINE
8
BLACK
6
CONTINUOUS
10
1.2921
20
-2.22872
11
1.29098
21
-2.22946
0
LINE
8
BLACK
6
CONTINUOUS
10
1.29098
20
-2.22946
11
1.28967
21
-2.22972
0
LINE
8
BLACK
6
CONTINUOUS
10
1.28967
20
-2.22972
11
1.28278
21
-2.22972
0
LINE
8
BLACK
6
CONTINUOUS
10
1.28278
20
-2.22972
11
1.28146
21
-2.22946
0
LINE
8
BLACK
6
CONTINUOUS
10
1.28146
20
-2.22946
11
1.28034
21
-2.22872
0
LINE
8
BLACK
6
CONTINUOUS
10
1.28034
20
-2.22872
11
1.27959
21
-2.2276
0
LINE
8
BLACK
6
CONTINUOUS
10
1.27959
20
-2.2276
11
1.27933
21
-2.22628
0
LINE
8
BLACK
6
CONTINUOUS
10
1.27933
20
-2.22628
11
1.27933
21
-2.07569
0
LINE
8
BLACK
6
CONTINUOUS
10
1.27933
20
-2.07569
11
1.27959
21
-2.07437
0
LINE
8
BLACK
6
CONTINUOUS
10
1.27959
20
-2.07437
11
1.28034
21
-2.07325
0
LINE
8
BLACK
6
CONTINUOUS
10
1.28034
20
-2.07325
11
1.28146
21
-2.07251
0
LINE
8
BLACK
6
CONTINUOUS
10
1.28146
20
-2.07251
11
1.28278
21
-2.07224
0
LINE
8
BLACK
6
CONTINUOUS
10
1.28278
20
-2.07224
11
1.28967
21
-2.07224
0
LINE
8
BLACK
6
CONTINUOUS
10
1.28967
20
-2.07224
11
1.29098
21
-2.07251
0
LINE
8
BLACK
6
CONTINUOUS
10
1.31854
20
-2.07251
11
1.31966
21
-2.07325
0
LINE
8
BLACK
6
CONTINUOUS
10
1.31966
20
-2.07325
11
1.32041
21
-2.07437
0
LINE
8
BLACK
6
CONTINUOUS
10
1.32041
20
-2.07437
11
1.32067
21
-2.07569
0
LINE
8
BLACK
6
CONTINUOUS
10
1.32067
20
-2.07569
11
1.32067
21
-2.22628
0
LINE
8
BLACK
6
CONTINUOUS
10
1.32067
20
-2.22628
11
1.32041
21
-2.2276
0
LINE
8
BLACK
6
CONTINUOUS
10
1.32041
20
-2.2276
11
1.31966
21
-2.22872
0
LINE
8
BLACK
6
CONTINUOUS
10
1.31966
20
-2.22872
11
1.31854
21
-2.22946
0
LINE
8
BLACK
6
CONTINUOUS
10
1.31854
20
-2.22946
11
1.31722
21
-2.22972
0
LINE
8
BLACK
6
CONTINUOUS
10
1.31722
20
-2.22972
11
1.31033
21
-2.22972
0
LINE
8
BLACK
6
CONTINUOUS
10
1.31033
20
-2.22972
11
1.30902
21
-2.22946
0
LINE
8
BLACK
6
CONTINUOUS
10
1.30902
20
-2.22946
11
1.3079
21
-2.22872
0
LINE
8
BLACK
6
CONTINUOUS
10
1.3079
20
-2.22872
11
1.30715
21
-2.2276
0
LINE
8
BLACK
6
CONTINUOUS
10
1.30715
20
-2.2276
11
1.30689
21
-2.22628
0
LINE
8
BLACK
6
CONTINUOUS
10
1.30689
20
-2.22628
11
1.30689
21
-2.07569
0
LINE
8
BLACK
6
CONTINUOUS
10
1.30689
20
-2.07569
11
1.30715
21
-2.07437
0
LINE
8
BLACK
6
CONTINUOUS
10
1.30715
20
-2.07437
11
1.3079
21
-2.07325
0
LINE
8
BLACK
6
CONTINUOUS
10
1.3079
20
-2.07325
11
1.30902
21
-2.07251
0
LINE
8
BLACK
6
CONTINUOUS
10
1.30902
20
-2.07251
11
1.31033
21
-2.07224
0
LINE
8
BLACK
6
CONTINUOUS
10
1.31033
20
-2.07224
11
1.31722
21
-2.07224
0
LINE
8
BLACK
6
CONTINUOUS
10
1.31722
20
-2.07224
11
1.31854
21
-2.07251
0
LINE
8
BLACK
6
CONTINUOUS
10
1.3461
20
-2.07251
11
1.34722
21
-2.07325
0
LINE
8
BLACK
6
CONTINUOUS
10
1.34722
20
-2.07325
11
1.34797
21
-2.07437
0
LINE
8
BLACK
6
CONTINUOUS
10
1.34797
20
-2.07437
11
1.34823
21
-2.07569
0
LINE
8
BLACK
6
CONTINUOUS
10
1.34823
20
-2.07569
11
1.34823
21
-2.22628
0
LINE
8
BLACK
6
CONTINUOUS
10
1.34823
20
-2.22628
11
1.34797
21
-2.2276
0
LINE
8
BLACK
6
CONTINUOUS
10
1.34797
20
-2.2276
11
1.34722
21
-2.22872
0
LINE
8
BLACK
6
CONTINUOUS
10
1.34722
20
-2.22872
11
1.3461
21
-2.22946
0
LINE
8
BLACK
6
CONTINUOUS
10
1.3461
20
-2.22946
11
1.34478
21
-2.22972
0
LINE
8
BLACK
6
CONTINUOUS
10
1.34478
20
-2.22972
11
1.33789
21
-2.22972
0
LINE
8
BLACK
6
CONTINUOUS
10
1.33789
20
-2.22972
11
1.33658
21
-2.22946
0
LINE
8
BLACK
6
CONTINUOUS
10
1.33658
20
-2.22946
11
1.33546
21
-2.22872
0
LINE
8
BLACK
6
CONTINUOUS
10
1.33546
20
-2.22872
11
1.33471
21
-2.2276
0
LINE
8
BLACK
6
CONTINUOUS
10
1.33471
20
-2.2276
11
1.33445
21
-2.22628
0
LINE
8
BLACK
6
CONTINUOUS
10
1.33445
20
-2.22628
11
1.33445
21
-2.07569
0
LINE
8
BLACK
6
CONTINUOUS
10
1.33445
20
-2.07569
11
1.33471
21
-2.07437
0
LINE
8
BLACK
6
CONTINUOUS
10
1.33471
20
-2.07437
11
1.33546
21
-2.07325
0
LINE
8
BLACK
6
CONTINUOUS
10
1.33546
20
-2.07325
11
1.33658
21
-2.07251
0
LINE
8
BLACK
6
CONTINUOUS
10
1.33658
20
-2.07251
11
1.33789
21
-2.07224
0
LINE
8
BLACK
6
CONTINUOUS
10
1.33789
20
-2.07224
11
1.34478
21
-2.07224
0
LINE
8
BLACK
6
CONTINUOUS
10
1.34478
20
-2.07224
11
1.3461
21
-2.07251
0
LINE
8
BLACK
6
CONTINUOUS
10
1.37366
20
-2.07251
11
1.37478
21
-2.07325
0
LINE
8
BLACK
6
CONTINUOUS
10
1.37478
20
-2.07325
11
1.37553
21
-2.07437
0
LINE
8
BLACK
6
CONTINUOUS
10
1.37553
20
-2.07437
11
1.37579
21
-2.07569
0
LINE
8
BLACK
6
CONTINUOUS
10
1.37579
20
-2.07569
11
1.37579
21
-2.22628
0
LINE
8
BLACK
6
CONTINUOUS
10
1.37579
20
-2.22628
11
1.37553
21
-2.2276
0
LINE
8
BLACK
6
CONTINUOUS
10
1.37553
20
-2.2276
11
1.37478
21
-2.22872
0
LINE
8
BLACK
6
CONTINUOUS
10
1.37478
20
-2.22872
11
1.37366
21
-2.22946
0
LINE
8
BLACK
6
CONTINUOUS
10
1.37366
20
-2.22946
11
1.37234
21
-2.22972
0
LINE
8
BLACK
6
CONTINUOUS
10
1.37234
20
-2.22972
11
1.36545
21
-2.22972
0
LINE
8
BLACK
6
CONTINUOUS
10
1.36545
20
-2.22972
11
1.36413
21
-2.22946
0
LINE
8
BLACK
6
CONTINUOUS
10
1.36413
20
-2.22946
11
1.36302
21
-2.22872
0
LINE
8
BLACK
6
CONTINUOUS
10
1.36302
20
-2.22872
11
1.36227
21
-2.2276
0
LINE
8
BLACK
6
CONTINUOUS
10
1.36227
20
-2.2276
11
1.36201
21
-2.22628
0
LINE
8
BLACK
6
CONTINUOUS
10
1.36201
20
-2.22628
11
1.36201
21
-2.07569
0
LINE
8
BLACK
6
CONTINUOUS
10
1.36201
20
-2.07569
11
1.36227
21
-2.07437
0
LINE
8
BLACK
6
CONTINUOUS
10
1.36227
20
-2.07437
11
1.36302
21
-2.07325
0
LINE
8
BLACK
6
CONTINUOUS
10
1.36302
20
-2.07325
11
1.36413
21
-2.07251
0
LINE
8
BLACK
6
CONTINUOUS
10
1.36413
20
-2.07251
11
1.36545
21
-2.07224
0
LINE
8
BLACK
6
CONTINUOUS
10
1.36545
20
-2.07224
11
1.37234
21
-2.07224
0
LINE
8
BLACK
6
CONTINUOUS
10
1.37234
20
-2.07224
11
1.37366
21
-2.07251
0
LINE
8
BLACK
6
CONTINUOUS
10
1.40122
20
-2.07251
11
1.40234
21
-2.07325
0
LINE
8
BLACK
6
CONTINUOUS
10
1.40234
20
-2.07325
11
1.40308
21
-2.07437
0
LINE
8
BLACK
6
CONTINUOUS
10
1.40308
20
-2.07437
11
1.40335
21
-2.07569
0
LINE
8
BLACK
6
CONTINUOUS
10
1.40335
20
-2.07569
11
1.40335
21
-2.22628
0
LINE
8
BLACK
6
CONTINUOUS
10
1.40335
20
-2.22628
11
1.40308
21
-2.2276
0
LINE
8
BLACK
6
CONTINUOUS
10
1.40308
20
-2.2276
11
1.40234
21
-2.22872
0
LINE
8
BLACK
6
CONTINUOUS
10
1.40234
20
-2.22872
11
1.40122
21
-2.22946
0
LINE
8
BLACK
6
CONTINUOUS
10
1.40122
20
-2.22946
11
1.3999
21
-2.22972
0
LINE
8
BLACK
6
CONTINUOUS
10
1.3999
20
-2.22972
11
1.39301
21
-2.22972
0
LINE
8
BLACK
6
CONTINUOUS
10
1.39301
20
-2.22972
11
1.39169
21
-2.22946
0
LINE
8
BLACK
6
CONTINUOUS
10
1.39169
20
-2.22946
11
1.39058
21
-2.22872
0
LINE
8
BLACK
6
CONTINUOUS
10
1.39058
20
-2.22872
11
1.38983
21
-2.2276
0
LINE
8
BLACK
6
CONTINUOUS
10
1.38983
20
-2.2276
11
1.38957
21
-2.22628
0
LINE
8
BLACK
6
CONTINUOUS
10
1.38957
20
-2.22628
11
1.38957
21
-2.07569
0
LINE
8
BLACK
6
CONTINUOUS
10
1.38957
20
-2.07569
11
1.38983
21
-2.07437
0
LINE
8
BLACK
6
CONTINUOUS
10
1.38983
20
-2.07437
11
1.39058
21
-2.07325
0
LINE
8
BLACK
6
CONTINUOUS
10
1.39058
20
-2.07325
11
1.39169
21
-2.07251
0
LINE
8
BLACK
6
CONTINUOUS
10
1.39169
20
-2.07251
11
1.39301
21
-2.07224
0
LINE
8
BLACK
6
CONTINUOUS
10
1.39301
20
-2.07224
11
1.3999
21
-2.07224
0
LINE
8
BLACK
6
CONTINUOUS
10
1.3999
20
-2.07224
11
1.40122
21
-2.07251
0
LINE
8
BLACK
6
CONTINUOUS
10
1.42878
20
-2.07251
11
1.4299
21
-2.07325
0
LINE
8
BLACK
6
CONTINUOUS
10
1.4299
20
-2.07325
11
1.43064
21
-2.07437
0
LINE
8
BLACK
6
CONTINUOUS
10
1.43064
20
-2.07437
11
1.43091
21
-2.07569
0
LINE
8
BLACK
6
CONTINUOUS
10
1.43091
20
-2.07569
11
1.43091
21
-2.22628
0
LINE
8
BLACK
6
CONTINUOUS
10
1.43091
20
-2.22628
11
1.43064
21
-2.2276
0
LINE
8
BLACK
6
CONTINUOUS
10
1.43064
20
-2.2276
11
1.4299
21
-2.22872
0
LINE
8
BLACK
6
CONTINUOUS
10
1.4299
20
-2.22872
11
1.42878
21
-2.22946
0
LINE
8
BLACK
6
CONTINUOUS
10
1.42878
20
-2.22946
11
1.42746
21
-2.22972
0
LINE
8
BLACK
6
CONTINUOUS
10
1.42746
20
-2.22972
11
1.42057
21
-2.22972
0
LINE
8
BLACK
6
CONTINUOUS
10
1.42057
20
-2.22972
11
1.41925
21
-2.22946
0
LINE
8
BLACK
6
CONTINUOUS
10
1.41925
20
-2.22946
11
1.41813
21
-2.22872
0
LINE
8
BLACK
6
CONTINUOUS
10
1.41813
20
-2.22872
11
1.41739
21
-2.2276
0
LINE
8
BLACK
6
CONTINUOUS
10
1.41739
20
-2.2276
11
1.41713
21
-2.22628
0
LINE
8
BLACK
6
CONTINUOUS
10
1.41713
20
-2.22628
11
1.41713
21
-2.07569
0
LINE
8
BLACK
6
CONTINUOUS
10
1.41713
20
-2.07569
11
1.41739
21
-2.07437
0
LINE
8
BLACK
6
CONTINUOUS
10
1.41739
20
-2.07437
11
1.41813
21
-2.07325
0
LINE
8
BLACK
6
CONTINUOUS
10
1.41813
20
-2.07325
11
1.41925
21
-2.07251
0
LINE
8
BLACK
6
CONTINUOUS
10
1.41925
20
-2.07251
11
1.42057
21
-2.07224
0
LINE
8
BLACK
6
CONTINUOUS
10
1.42057
20
-2.07224
11
1.42746
21
-2.07224
0
LINE
8
BLACK
6
CONTINUOUS
10
1.42746
20
-2.07224
11
1.42878
21
-2.07251
0
LINE
8
BLACK
6
CONTINUOUS
10
1.45634
20
-2.07251
11
1.45746
21
-2.07325
0
LINE
8
BLACK
6
CONTINUOUS
10
1.45746
20
-2.07325
11
1.4582
21
-2.07437
0
LINE
8
BLACK
6
CONTINUOUS
10
1.4582
20
-2.07437
11
1.45846
21
-2.07569
0
LINE
8
BLACK
6
CONTINUOUS
10
1.45846
20
-2.07569
11
1.45846
21
-2.22628
0
LINE
8
BLACK
6
CONTINUOUS
10
1.45846
20
-2.22628
11
1.4582
21
-2.2276
0
LINE
8
BLACK
6
CONTINUOUS
10
1.4582
20
-2.2276
11
1.45746
21
-2.22872
0
LINE
8
BLACK
6
CONTINUOUS
10
1.45746
20
-2.22872
11
1.45634
21
-2.22946
0
LINE
8
BLACK
6
CONTINUOUS
10
1.45634
20
-2.22946
11
1.45502
21
-2.22972
0
LINE
8
BLACK
6
CONTINUOUS
10
1.45502
20
-2.22972
11
1.44813
21
-2.22972
0
LINE
8
BLACK
6
CONTINUOUS
10
1.44813
20
-2.22972
11
1.44681
21
-2.22946
0
LINE
8
BLACK
6
CONTINUOUS
10
1.44681
20
-2.22946
11
1.44569
21
-2.22872
0
LINE
8
BLACK
6
CONTINUOUS
10
1.44569
20
-2.22872
11
1.44495
21
-2.2276
0
LINE
8
BLACK
6
CONTINUOUS
10
1.44495
20
-2.2276
11
1.44469
21
-2.22628
0
LINE
8
BLACK
6
CONTINUOUS
10
1.44469
20
-2.22628
11
1.44469
21
-2.07569
0
LINE
8
BLACK
6
CONTINUOUS
10
1.44469
20
-2.07569
11
1.44495
21
-2.07437
0
LINE
8
BLACK
6
CONTINUOUS
10
1.44495
20
-2.07437
11
1.44569
21
-2.07325
0
LINE
8
BLACK
6
CONTINUOUS
10
1.44569
20
-2.07325
11
1.44681
21
-2.07251
0
LINE
8
BLACK
6
CONTINUOUS
10
1.44681
20
-2.07251
11
1.44813
21
-2.07224
0
LINE
8
BLACK
6
CONTINUOUS
10
1.44813
20
-2.07224
11
1.45502
21
-2.07224
0
LINE
8
BLACK
6
CONTINUOUS
10
1.45502
20
-2.07224
11
1.45634
21
-2.07251
0
LINE
8
BLACK
6
CONTINUOUS
10
1.4839
20
-2.07251
11
1.48501
21
-2.07325
0
LINE
8
BLACK
6
CONTINUOUS
10
1.48501
20
-2.07325
11
1.48576
21
-2.07437
0
LINE
8
BLACK
6
CONTINUOUS
10
1.48576
20
-2.07437
11
1.48602
21
-2.07569
0
LINE
8
BLACK
6
CONTINUOUS
10
1.48602
20
-2.07569
11
1.48602
21
-2.22628
0
LINE
8
BLACK
6
CONTINUOUS
10
1.48602
20
-2.22628
11
1.48576
21
-2.2276
0
LINE
8
BLACK
6
CONTINUOUS
10
1.48576
20
-2.2276
11
1.48501
21
-2.22872
0
LINE
8
BLACK
6
CONTINUOUS
10
1.48501
20
-2.22872
11
1.4839
21
-2.22946
0
LINE
8
BLACK
6
CONTINUOUS
10
1.4839
20
-2.22946
11
1.48258
21
-2.22972
0
LINE
8
BLACK
6
CONTINUOUS
10
1.48258
20
-2.22972
11
1.47569
21
-2.22972
0
LINE
8
BLACK
6
CONTINUOUS
10
1.47569
20
-2.22972
11
1.47437
21
-2.22946
0
LINE
8
BLACK
6
CONTINUOUS
10
1.47437
20
-2.22946
11
1.47325
21
-2.22872
0
LINE
8
BLACK
6
CONTINUOUS
10
1.47325
20
-2.22872
11
1.47251
21
-2.2276
0
LINE
8
BLACK
6
CONTINUOUS
10
1.47251
20
-2.2276
11
1.47224
21
-2.22628
0
LINE
8
BLACK
6
CONTINUOUS
10
1.47224
20
-2.22628
11
1.47224
21
-2.07569
0
LINE
8
BLACK
6
CONTINUOUS
10
1.47224
20
-2.07569
11
1.47251
21
-2.07437
0
LINE
8
BLACK
6
CONTINUOUS
10
1.47251
20
-2.07437
11
1.47325
21
-2.07325
0
LINE
8
BLACK
6
CONTINUOUS
10
1.47325
20
-2.07325
11
1.47437
21
-2.07251
0
LINE
8
BLACK
6
CONTINUOUS
10
1.47437
20
-2.07251
11
1.47569
21
-2.07224
0
LINE
8
BLACK
6
CONTINUOUS
10
1.47569
20
-2.07224
11
1.48258
21
-2.07224
0
LINE
8
BLACK
6
CONTINUOUS
10
1.48258
20
-2.07224
11
1.4839
21
-2.07251
0
LINE
8
BLACK
6
CONTINUOUS
10
1.51146
20
-2.07251
11
1.51257
21
-2.07325
0
LINE
8
BLACK
6
CONTINUOUS
10
1.51257
20
-2.07325
11
1.51332
21
-2.07437
0
LINE
8
BLACK
6
CONTINUOUS
10
1.51332
20
-2.07437
11
1.51358
21
-2.07569
0
LINE
8
BLACK
6
CONTINUOUS
10
1.51358
20
-2.07569
11
1.51358
21
-2.22628
0
LINE
8
BLACK
6
CONTINUOUS
10
1.51358
20
-2.22628
11
1.51332
21
-2.2276
0
LINE
8
BLACK
6
CONTINUOUS
10
1.51332
20
-2.2276
11
1.51257
21
-2.22872
0
LINE
8
BLACK
6
CONTINUOUS
10
1.51257
20
-2.22872
11
1.51146
21
-2.22946
0
LINE
8
BLACK
6
CONTINUOUS
10
1.51146
20
-2.22946
11
1.51014
21
-2.22972
0
LINE
8
BLACK
6
CONTINUOUS
10
1.51014
20
-2.22972
11
1.50325
21
-2.22972
0
LINE
8
BLACK
6
CONTINUOUS
10
1.50325
20
-2.22972
11
1.50193
21
-2.22946
0
LINE
8
BLACK
6
CONTINUOUS
10
1.50193
20
-2.22946
11
1.50081
21
-2.22872
0
LINE
8
BLACK
6
CONTINUOUS
10
1.50081
20
-2.22872
11
1.50007
21
-2.2276
0
LINE
8
BLACK
6
CONTINUOUS
10
1.50007
20
-2.2276
11
1.4998
21
-2.22628
0
LINE
8
BLACK
6
CONTINUOUS
10
1.4998
20
-2.22628
11
1.4998
21
-2.07569
0
LINE
8
BLACK
6
CONTINUOUS
10
1.4998
20
-2.07569
11
1.50007
21
-2.07437
0
LINE
8
BLACK
6
CONTINUOUS
10
1.50007
20
-2.07437
11
1.50081
21
-2.07325
0
LINE
8
BLACK
6
CONTINUOUS
10
1.50081
20
-2.07325
11
1.50193
21
-2.07251
0
LINE
8
BLACK
6
CONTINUOUS
10
1.50193
20
-2.07251
11
1.50325
21
-2.07224
0
LINE
8
BLACK
6
CONTINUOUS
10
1.50325
20
-2.07224
11
1.51014
21
-2.07224
0
LINE
8
BLACK
6
CONTINUOUS
10
1.51014
20
-2.07224
11
1.51146
21
-2.07251
0
LINE
8
BLACK
6
CONTINUOUS
10
1.53902
20
-2.07251
11
1.54013
21
-2.07325
0
LINE
8
BLACK
6
CONTINUOUS
10
1.54013
20
-2.07325
11
1.54088
21
-2.07437
0
LINE
8
BLACK
6
CONTINUOUS
10
1.54088
20
-2.07437
11
1.54114
21
-2.07569
0
LINE
8
BLACK
6
CONTINUOUS
10
1.54114
20
-2.07569
11
1.54114
21
-2.22628
0
LINE
8
BLACK
6
CONTINUOUS
10
1.54114
20
-2.22628
11
1.54088
21
-2.2276
0
LINE
8
BLACK
6
CONTINUOUS
10
1.54088
20
-2.2276
11
1.54013
21
-2.22872
0
LINE
8
BLACK
6
CONTINUOUS
10
1.54013
20
-2.22872
11
1.53902
21
-2.22946
0
LINE
8
BLACK
6
CONTINUOUS
10
1.53902
20
-2.22946
11
1.5377
21
-2.22972
0
LINE
8
BLACK
6
CONTINUOUS
10
1.5377
20
-2.22972
11
1.53081
21
-2.22972
0
LINE
8
BLACK
6
CONTINUOUS
10
1.53081
20
-2.22972
11
1.52949
21
-2.22946
0
LINE
8
BLACK
6
CONTINUOUS
10
1.52949
20
-2.22946
11
1.52837
21
-2.22872
0
LINE
8
BLACK
6
CONTINUOUS
10
1.52837
20
-2.22872
11
1.52762
21
-2.2276
0
LINE
8
BLACK
6
CONTINUOUS
10
1.52762
20
-2.2276
11
1.52736
21
-2.22628
0
LINE
8
BLACK
6
CONTINUOUS
10
1.52736
20
-2.22628
11
1.52736
21
-2.07569
0
LINE
8
BLACK
6
CONTINUOUS
10
1.52736
20
-2.07569
11
1.52762
21
-2.07437
0
LINE
8
BLACK
6
CONTINUOUS
10
1.52762
20
-2.07437
11
1.52837
21
-2.07325
0
LINE
8
BLACK
6
CONTINUOUS
10
1.52837
20
-2.07325
11
1.52949
21
-2.07251
0
LINE
8
BLACK
6
CONTINUOUS
10
1.52949
20
-2.07251
11
1.53081
21
-2.07224
0
LINE
8
BLACK
6
CONTINUOUS
10
1.53081
20
-2.07224
11
1.5377
21
-2.07224
0
LINE
8
BLACK
6
CONTINUOUS
10
1.5377
20
-2.07224
11
1.53902
21
-2.07251
0
LINE
8
BLACK
6
CONTINUOUS
10
1.56657
20
-2.07251
11
1.56769
21
-2.07325
0
LINE
8
BLACK
6
CONTINUOUS
10
1.56769
20
-2.07325
11
1.56844
21
-2.07437
0
LINE
8
BLACK
6
CONTINUOUS
10
1.56844
20
-2.07437
11
1.5687
21
-2.07569
0
LINE
8
BLACK
6
CONTINUOUS
10
1.5687
20
-2.07569
11
1.5687
21
-2.22628
0
LINE
8
BLACK
6
CONTINUOUS
10
1.5687
20
-2.22628
11
1.56844
21
-2.2276
0
LINE
8
BLACK
6
CONTINUOUS
10
1.56844
20
-2.2276
11
1.56769
21
-2.22872
0
LINE
8
BLACK
6
CONTINUOUS
10
1.56769
20
-2.22872
11
1.56657
21
-2.22946
0
LINE
8
BLACK
6
CONTINUOUS
10
1.56657
20
-2.22946
11
1.56526
21
-2.22972
0
LINE
8
BLACK
6
CONTINUOUS
10
1.56526
20
-2.22972
11
1.55837
21
-2.22972
0
LINE
8
BLACK
6
CONTINUOUS
10
1.55837
20
-2.22972
11
1.55705
21
-2.22946
0
LINE
8
BLACK
6
CONTINUOUS
10
1.55705
20
-2.22946
11
1.55593
21
-2.22872
0
LINE
8
BLACK
6
CONTINUOUS
10
1.55593
20
-2.22872
11
1.55518
21
-2.2276
0
LINE
8
BLACK
6
CONTINUOUS
10
1.55518
20
-2.2276
11
1.55492
21
-2.22628
0
LINE
8
BLACK
6
CONTINUOUS
10
1.55492
20
-2.22628
11
1.55492
21
-2.07569
0
LINE
8
BLACK
6
CONTINUOUS
10
1.55492
20
-2.07569
11
1.55518
21
-2.07437
0
LINE
8
BLACK
6
CONTINUOUS
10
1.55518
20
-2.07437
11
1.55593
21
-2.07325
0
LINE
8
BLACK
6
CONTINUOUS
10
1.55593
20
-2.07325
11
1.55705
21
-2.07251
0
LINE
8
BLACK
6
CONTINUOUS
10
1.55705
20
-2.07251
11
1.55837
21
-2.07224
0
LINE
8
BLACK
6
CONTINUOUS
10
1.55837
20
-2.07224
11
1.56526
21
-2.07224
0
LINE
8
BLACK
6
CONTINUOUS
10
1.56526
20
-2.07224
11
1.56657
21
-2.07251
0
LINE
8
BLACK
6
CONTINUOUS
10
1.59413
20
-2.07251
11
1.59525
21
-2.07325
0
LINE
8
BLACK
6
CONTINUOUS
10
1.59525
20
-2.07325
11
1.596
21
-2.07437
0
LINE
8
BLACK
6
CONTINUOUS
10
1.596
20
-2.07437
11
1.59626
21
-2.07569
0
LINE
8
BLACK
6
CONTINUOUS
10
1.59626
20
-2.07569
11
1.59626
21
-2.22628
0
LINE
8
BLACK
6
CONTINUOUS
10
1.59626
20
-2.22628
11
1.596
21
-2.2276
0
LINE
8
BLACK
6
CONTINUOUS
10
1.596
20
-2.2276
11
1.59525
21
-2.22872
0
LINE
8
BLACK
6
CONTINUOUS
10
1.59525
20
-2.22872
11
1.59413
21
-2.22946
0
LINE
8
BLACK
6
CONTINUOUS
10
1.59413
20
-2.22946
11
1.59281
21
-2.22972
0
LINE
8
BLACK
6
CONTINUOUS
10
1.59281
20
-2.22972
11
1.58593
21
-2.22972
0
LINE
8
BLACK
6
CONTINUOUS
10
1.58593
20
-2.22972
11
1.58461
21
-2.22946
0
LINE
8
BLACK
6
CONTINUOUS
10
1.58461
20
-2.22946
11
1.58349
21
-2.22872
0
LINE
8
BLACK
6
CONTINUOUS
10
1.58349
20
-2.22872
11
1.58274
21
-2.2276
0
LINE
8
BLACK
6
CONTINUOUS
10
1.58274
20
-2.2276
11
1.58248
21
-2.22628
0
LINE
8
BLACK
6
CONTINUOUS
10
1.58248
20
-2.22628
11
1.58248
21
-2.07569
0
LINE
8
BLACK
6
CONTINUOUS
10
1.58248
20
-2.07569
11
1.58274
21
-2.07437
0
LINE
8
BLACK
6
CONTINUOUS
10
1.58274
20
-2.07437
11
1.58349
21
-2.07325
0
LINE
8
BLACK
6
CONTINUOUS
10
1.58349
20
-2.07325
11
1.58461
21
-2.07251
0
LINE
8
BLACK
6
CONTINUOUS
10
1.58461
20
-2.07251
11
1.58593
21
-2.07224
0
LINE
8
BLACK
6
CONTINUOUS
10
1.58593
20
-2.07224
11
1.59281
21
-2.07224
0
LINE
8
BLACK
6
CONTINUOUS
10
1.59281
20
-2.07224
11
1.59413
21
-2.07251
0
LINE
8
BLACK
6
CONTINUOUS
10
1.62169
20
-2.07251
11
1.62281
21
-2.07325
0
LINE
8
BLACK
6
CONTINUOUS
10
1.62281
20
-2.07325
11
1.62356
21
-2.07437
0
LINE
8
BLACK
6
CONTINUOUS
10
1.62356
20
-2.07437
11
1.62382
21
-2.07569
0
LINE
8
BLACK
6
CONTINUOUS
10
1.62382
20
-2.07569
11
1.62382
21
-2.22628
0
LINE
8
BLACK
6
CONTINUOUS
10
1.62382
20
-2.22628
11
1.62356
21
-2.2276
0
LINE
8
BLACK
6
CONTINUOUS
10
1.62356
20
-2.2276
11
1.62281
21
-2.22872
0
LINE
8
BLACK
6
CONTINUOUS
10
1.62281
20
-2.22872
11
1.62169
21
-2.22946
0
LINE
8
BLACK
6
CONTINUOUS
10
1.62169
20
-2.22946
11
1.62037
21
-2.22972
0
LINE
8
BLACK
6
CONTINUOUS
10
1.62037
20
-2.22972
11
1.61348
21
-2.22972
0
LINE
8
BLACK
6
CONTINUOUS
10
1.61348
20
-2.22972
11
1.61217
21
-2.22946
0
LINE
8
BLACK
6
CONTINUOUS
10
1.61217
20
-2.22946
11
1.61105
21
-2.22872
0
LINE
8
BLACK
6
CONTINUOUS
10
1.61105
20
-2.22872
11
1.6103
21
-2.2276
0
LINE
8
BLACK
6
CONTINUOUS
10
1.6103
20
-2.2276
11
1.61004
21
-2.22628
0
LINE
8
BLACK
6
CONTINUOUS
10
1.61004
20
-2.22628
11
1.61004
21
-2.07569
0
LINE
8
BLACK
6
CONTINUOUS
10
1.61004
20
-2.07569
11
1.6103
21
-2.07437
0
LINE
8
BLACK
6
CONTINUOUS
10
1.6103
20
-2.07437
11
1.61105
21
-2.07325
0
LINE
8
BLACK
6
CONTINUOUS
10
1.61105
20
-2.07325
11
1.61217
21
-2.07251
0
LINE
8
BLACK
6
CONTINUOUS
10
1.61217
20
-2.07251
11
1.61348
21
-2.07224
0
LINE
8
BLACK
6
CONTINUOUS
10
1.61348
20
-2.07224
11
1.62037
21
-2.07224
0
LINE
8
BLACK
6
CONTINUOUS
10
1.62037
20
-2.07224
11
1.62169
21
-2.07251
0
LINE
8
BLACK
6
CONTINUOUS
10
1.64925
20
-2.07251
11
1.65037
21
-2.07325
0
LINE
8
BLACK
6
CONTINUOUS
10
1.65037
20
-2.07325
11
1.65112
21
-2.07437
0
LINE
8
BLACK
6
CONTINUOUS
10
1.65112
20
-2.07437
11
1.65138
21
-2.07569
0
LINE
8
BLACK
6
CONTINUOUS
10
1.65138
20
-2.07569
11
1.65138
21
-2.22628
0
LINE
8
BLACK
6
CONTINUOUS
10
1.65138
20
-2.22628
11
1.65112
21
-2.2276
0
LINE
8
BLACK
6
CONTINUOUS
10
1.65112
20
-2.2276
11
1.65037
21
-2.22872
0
LINE
8
BLACK
6
CONTINUOUS
10
1.65037
20
-2.22872
11
1.64925
21
-2.22946
0
LINE
8
BLACK
6
CONTINUOUS
10
1.64925
20
-2.22946
11
1.64793
21
-2.22972
0
LINE
8
BLACK
6
CONTINUOUS
10
1.64793
20
-2.22972
11
1.64104
21
-2.22972
0
LINE
8
BLACK
6
CONTINUOUS
10
1.64104
20
-2.22972
11
1.63972
21
-2.22946
0
LINE
8
BLACK
6
CONTINUOUS
10
1.63972
20
-2.22946
11
1.63861
21
-2.22872
0
LINE
8
BLACK
6
CONTINUOUS
10
1.63861
20
-2.22872
11
1.63786
21
-2.2276
0
LINE
8
BLACK
6
CONTINUOUS
10
1.63786
20
-2.2276
11
1.6376
21
-2.22628
0
LINE
8
BLACK
6
CONTINUOUS
10
1.6376
20
-2.22628
11
1.6376
21
-2.07569
0
LINE
8
BLACK
6
CONTINUOUS
10
1.6376
20
-2.07569
11
1.63786
21
-2.07437
0
LINE
8
BLACK
6
CONTINUOUS
10
1.63786
20
-2.07437
11
1.63861
21
-2.07325
0
LINE
8
BLACK
6
CONTINUOUS
10
1.63861
20
-2.07325
11
1.63972
21
-2.07251
0
LINE
8
BLACK
6
CONTINUOUS
10
1.63972
20
-2.07251
11
1.64104
21
-2.07224
0
LINE
8
BLACK
6
CONTINUOUS
10
1.64104
20
-2.07224
11
1.64793
21
-2.07224
0
LINE
8
BLACK
6
CONTINUOUS
10
1.64793
20
-2.07224
11
1.64925
21
-2.07251
0
LINE
8
BLACK
6
CONTINUOUS
10
1.67681
20
-2.07251
11
1.67793
21
-2.07325
0
LINE
8
BLACK
6
CONTINUOUS
10
1.67793
20
-2.07325
11
1.67867
21
-2.07437
0
LINE
8
BLACK
6
CONTINUOUS
10
1.67867
20
-2.07437
11
1.67894
21
-2.07569
0
LINE
8
BLACK
6
CONTINUOUS
10
1.67894
20
-2.07569
11
1.67894
21
-2.22628
0
LINE
8
BLACK
6
CONTINUOUS
10
1.67894
20
-2.22628
11
1.67867
21
-2.2276
0
LINE
8
BLACK
6
CONTINUOUS
10
1.67867
20
-2.2276
11
1.67793
21
-2.22872
0
LINE
8
BLACK
6
CONTINUOUS
10
1.67793
20
-2.22872
11
1.67681
21
-2.22946
0
LINE
8
BLACK
6
CONTINUOUS
10
1.67681
20
-2.22946
11
1.67549
21
-2.22972
0
LINE
8
BLACK
6
CONTINUOUS
10
1.67549
20
-2.22972
11
1.6686
21
-2.22972
0
LINE
8
BLACK
6
CONTINUOUS
10
1.6686
20
-2.22972
11
1.66728
21
-2.22946
0
LINE
8
BLACK
6
CONTINUOUS
10
1.66728
20
-2.22946
11
1.66617
21
-2.22872
0
LINE
8
BLACK
6
CONTINUOUS
10
1.66617
20
-2.22872
11
1.66542
21
-2.2276
0
LINE
8
BLACK
6
CONTINUOUS
10
1.66542
20
-2.2276
11
1.66516
21
-2.22628
0
LINE
8
BLACK
6
CONTINUOUS
10
1.66516
20
-2.22628
11
1.66516
21
-2.07569
0
LINE
8
BLACK
6
CONTINUOUS
10
1.66516
20
-2.07569
11
1.66542
21
-2.07437
0
LINE
8
BLACK
6
CONTINUOUS
10
1.66542
20
-2.07437
11
1.66617
21
-2.07325
0
LINE
8
BLACK
6
CONTINUOUS
10
1.66617
20
-2.07325
11
1.66728
21
-2.07251
0
LINE
8
BLACK
6
CONTINUOUS
10
1.66728
20
-2.07251
11
1.6686
21
-2.07224
0
LINE
8
BLACK
6
CONTINUOUS
10
1.6686
20
-2.07224
11
1.67549
21
-2.07224
0
LINE
8
BLACK
6
CONTINUOUS
10
1.67549
20
-2.07224
11
1.67681
21
-2.07251
0
LINE
8
BLACK
6
CONTINUOUS
10
1.70437
20
-2.07251
11
1.70549
21
-2.07325
0
LINE
8
BLACK
6
CONTINUOUS
10
1.70549
20
-2.07325
11
1.70623
21
-2.07437
0
LINE
8
BLACK
6
CONTINUOUS
10
1.70623
20
-2.07437
11
1.7065
21
-2.07569
0
LINE
8
BLACK
6
CONTINUOUS
10
1.7065
20
-2.07569
11
1.7065
21
-2.22628
0
LINE
8
BLACK
6
CONTINUOUS
10
1.7065
20
-2.22628
11
1.70623
21
-2.2276
0
LINE
8
BLACK
6
CONTINUOUS
10
1.70623
20
-2.2276
11
1.70549
21
-2.22872
0
LINE
8
BLACK
6
CONTINUOUS
10
1.70549
20
-2.22872
11
1.70437
21
-2.22946
0
LINE
8
BLACK
6
CONTINUOUS
10
1.70437
20
-2.22946
11
1.70305
21
-2.22972
0
LINE
8
BLACK
6
CONTINUOUS
10
1.70305
20
-2.22972
11
1.69616
21
-2.22972
0
LINE
8
BLACK
6
CONTINUOUS
10
1.69616
20
-2.22972
11
1.69484
21
-2.22946
0
LINE
8
BLACK
6
CONTINUOUS
10
1.69484
20
-2.22946
11
1.69373
21
-2.22872
0
LINE
8
BLACK
6
CONTINUOUS
10
1.69373
20
-2.22872
11
1.69298
21
-2.2276
0
LINE
8
BLACK
6
CONTINUOUS
10
1.69298
20
-2.2276
11
1.69272
21
-2.22628
0
LINE
8
BLACK
6
CONTINUOUS
10
1.69272
20
-2.22628
11
1.69272
21
-2.07569
0
LINE
8
BLACK
6
CONTINUOUS
10
1.69272
20
-2.07569
11
1.69298
21
-2.07437
0
LINE
8
BLACK
6
CONTINUOUS
10
1.69298
20
-2.07437
11
1.69373
21
-2.07325
0
LINE
8
BLACK
6
CONTINUOUS
10
1.69373
20
-2.07325
11
1.69484
21
-2.07251
0
LINE
8
BLACK
6
CONTINUOUS
10
1.69484
20
-2.07251
11
1.69616
21
-2.07224
0
LINE
8
BLACK
6
CONTINUOUS
10
1.69616
20
-2.07224
11
1.70305
21
-2.07224
0
LINE
8
BLACK
6
CONTINUOUS
10
1.70305
20
-2.07224
11
1.70437
21
-2.07251
0
LINE
8
BLACK
6
CONTINUOUS
10
1.73193
20
-2.07251
11
1.73305
21
-2.07325
0
LINE
8
BLACK
6
CONTINUOUS
10
1.73305
20
-2.07325
11
1.73379
21
-2.07437
0
LINE
8
BLACK
6
CONTINUOUS
10
1.73379
20
-2.07437
11
1.73406
21
-2.07569
0
LINE
8
BLACK
6
CONTINUOUS
10
1.73406
20
-2.07569
11
1.73406
21
-2.22628
0
LINE
8
BLACK
6
CONTINUOUS
10
1.73406
20
-2.22628
11
1.73379
21
-2.2276
0
LINE
8
BLACK
6
CONTINUOUS
10
1.73379
20
-2.2276
11
1.73305
21
-2.22872
0
LINE
8
BLACK
6
CONTINUOUS
10
1.73305
20
-2.22872
11
1.73193
21
-2.22946
0
LINE
8
BLACK
6
CONTINUOUS
10
1.73193
20
-2.22946
11
1.73061
21
-2.22972
0
LINE
8
BLACK
6
CONTINUOUS
10
1.73061
20
-2.22972
11
1.72372
21
-2.22972
0
LINE
8
BLACK
6
CONTINUOUS
10
1.72372
20
-2.22972
11
1.7224
21
-2.22946
0
LINE
8
BLACK
6
CONTINUOUS
10
1.7224
20
-2.22946
11
1.72128
21
-2.22872
0
LINE
8
BLACK
6
CONTINUOUS
10
1.72128
20
-2.22872
11
1.72054
21
-2.2276
0
LINE
8
BLACK
6
CONTINUOUS
10
1.72054
20
-2.2276
11
1.72028
21
-2.22628
0
LINE
8
BLACK
6
CONTINUOUS
10
1.72028
20
-2.22628
11
1.72028
21
-2.07569
0
LINE
8
BLACK
6
CONTINUOUS
10
1.72028
20
-2.07569
11
1.72054
21
-2.07437
0
LINE
8
BLACK
6
CONTINUOUS
10
1.72054
20
-2.07437
11
1.72128
21
-2.07325
0
LINE
8
BLACK
6
CONTINUOUS
10
1.72128
20
-2.07325
11
1.7224
21
-2.07251
0
LINE
8
BLACK
6
CONTINUOUS
10
1.7224
20
-2.07251
11
1.72372
21
-2.07224
0
LINE
8
BLACK
6
CONTINUOUS
10
1.72372
20
-2.07224
11
1.73061
21
-2.07224
0
LINE
8
BLACK
6
CONTINUOUS
10
1.73061
20
-2.07224
11
1.73193
21
-2.07251
0
LINE
8
BLACK
6
CONTINUOUS
10
1.75949
20
-2.07251
11
1.76061
21
-2.07325
0
LINE
8
BLACK
6
CONTINUOUS
10
1.76061
20
-2.07325
11
1.76135
21
-2.07437
0
LINE
8
BLACK
6
CONTINUOUS
10
1.76135
20
-2.07437
11
1.76161
21
-2.07569
0
LINE
8
BLACK
6
CONTINUOUS
10
1.76161
20
-2.07569
11
1.76161
21
-2.22628
0
LINE
8
BLACK
6
CONTINUOUS
10
1.76161
20
-2.22628
11
1.76135
21
-2.2276
0
LINE
8
BLACK
6
CONTINUOUS
10
1.76135
20
-2.2276
11
1.76061
21
-2.22872
0
LINE
8
BLACK
6
CONTINUOUS
10
1.76061
20
-2.22872
11
1.75949
21
-2.22946
0
LINE
8
BLACK
6
CONTINUOUS
10
1.75949
20
-2.22946
11
1.75817
21
-2.22972
0
LINE
8
BLACK
6
CONTINUOUS
10
1.75817
20
-2.22972
11
1.75128
21
-2.22972
0
LINE
8
BLACK
6
CONTINUOUS
10
1.75128
20
-2.22972
11
1.74996
21
-2.22946
0
LINE
8
BLACK
6
CONTINUOUS
10
1.74996
20
-2.22946
11
1.74884
21
-2.22872
0
LINE
8
BLACK
6
CONTINUOUS
10
1.74884
20
-2.22872
11
1.7481
21
-2.2276
0
LINE
8
BLACK
6
CONTINUOUS
10
1.7481
20
-2.2276
11
1.74783
21
-2.22628
0
LINE
8
BLACK
6
CONTINUOUS
10
1.74783
20
-2.22628
11
1.74783
21
-2.07569
0
LINE
8
BLACK
6
CONTINUOUS
10
1.74783
20
-2.07569
11
1.7481
21
-2.07437
0
LINE
8
BLACK
6
CONTINUOUS
10
1.7481
20
-2.07437
11
1.74884
21
-2.07325
0
LINE
8
BLACK
6
CONTINUOUS
10
1.74884
20
-2.07325
11
1.74996
21
-2.07251
0
LINE
8
BLACK
6
CONTINUOUS
10
1.74996
20
-2.07251
11
1.75128
21
-2.07224
0
LINE
8
BLACK
6
CONTINUOUS
10
1.75128
20
-2.07224
11
1.75817
21
-2.07224
0
LINE
8
BLACK
6
CONTINUOUS
10
1.75817
20
-2.07224
11
1.75949
21
-2.07251
0
LINE
8
BLACK
6
CONTINUOUS
10
1.78705
20
-2.07251
11
1.78816
21
-2.07325
0
LINE
8
BLACK
6
CONTINUOUS
10
1.78816
20
-2.07325
11
1.78891
21
-2.07437
0
LINE
8
BLACK
6
CONTINUOUS
10
1.78891
20
-2.07437
11
1.78917
21
-2.07569
0
LINE
8
BLACK
6
CONTINUOUS
10
1.78917
20
-2.07569
11
1.78917
21
-2.22628
0
LINE
8
BLACK
6
CONTINUOUS
10
1.78917
20
-2.22628
11
1.78891
21
-2.2276
0
LINE
8
BLACK
6
CONTINUOUS
10
1.78891
20
-2.2276
11
1.78816
21
-2.22872
0
LINE
8
BLACK
6
CONTINUOUS
10
1.78816
20
-2.22872
11
1.78705
21
-2.22946
0
LINE
8
BLACK
6
CONTINUOUS
10
1.78705
20
-2.22946
11
1.78573
21
-2.22972
0
LINE
8
BLACK
6
CONTINUOUS
10
1.78573
20
-2.22972
11
1.77884
21
-2.22972
0
LINE
8
BLACK
6
CONTINUOUS
10
1.77884
20
-2.22972
11
1.77752
21
-2.22946
0
LINE
8
BLACK
6
CONTINUOUS
10
1.77752
20
-2.22946
11
1.7764
21
-2.22872
0
LINE
8
BLACK
6
CONTINUOUS
10
1.7764
20
-2.22872
11
1.77566
21
-2.2276
0
LINE
8
BLACK
6
CONTINUOUS
10
1.77566
20
-2.2276
11
1.77539
21
-2.22628
0
LINE
8
BLACK
6
CONTINUOUS
10
1.77539
20
-2.22628
11
1.77539
21
-2.07569
0
LINE
8
BLACK
6
CONTINUOUS
10
1.77539
20
-2.07569
11
1.77566
21
-2.07437
0
LINE
8
BLACK
6
CONTINUOUS
10
1.77566
20
-2.07437
11
1.7764
21
-2.07325
0
LINE
8
BLACK
6
CONTINUOUS
10
1.7764
20
-2.07325
11
1.77752
21
-2.07251
0
LINE
8
BLACK
6
CONTINUOUS
10
1.77752
20
-2.07251
11
1.77884
21
-2.07224
0
LINE
8
BLACK
6
CONTINUOUS
10
1.77884
20
-2.07224
11
1.78573
21
-2.07224
0
LINE
8
BLACK
6
CONTINUOUS
10
1.78573
20
-2.07224
11
1.78705
21
-2.07251
0
LINE
8
BLACK
6
CONTINUOUS
10
1.81461
20
-2.07251
11
1.81572
21
-2.07325
0
LINE
8
BLACK
6
CONTINUOUS
10
1.81572
20
-2.07325
11
1.81647
21
-2.07437
0
LINE
8
BLACK
6
CONTINUOUS
10
1.81647
20
-2.07437
11
1.81673
21
-2.07569
0
LINE
8
BLACK
6
CONTINUOUS
10
1.81673
20
-2.07569
11
1.81673
21
-2.22628
0
LINE
8
BLACK
6
CONTINUOUS
10
1.81673
20
-2.22628
11
1.81647
21
-2.2276
0
LINE
8
BLACK
6
CONTINUOUS
10
1.81647
20
-2.2276
11
1.81572
21
-2.22872
0
LINE
8
BLACK
6
CONTINUOUS
10
1.81572
20
-2.22872
11
1.81461
21
-2.22946
0
LINE
8
BLACK
6
CONTINUOUS
10
1.81461
20
-2.22946
11
1.81329
21
-2.22972
0
LINE
8
BLACK
6
CONTINUOUS
10
1.81329
20
-2.22972
11
1.8064
21
-2.22972
0
LINE
8
BLACK
6
CONTINUOUS
10
1.8064
20
-2.22972
11
1.80508
21
-2.22946
0
LINE
8
BLACK
6
CONTINUOUS
10
1.80508
20
-2.22946
11
1.80396
21
-2.22872
0
LINE
8
BLACK
6
CONTINUOUS
10
1.80396
20
-2.22872
11
1.80322
21
-2.2276
0
LINE
8
BLACK
6
CONTINUOUS
10
1.80322
20
-2.2276
11
1.80295
21
-2.22628
0
LINE
8
BLACK
6
CONTINUOUS
10
1.80295
20
-2.22628
11
1.80295
21
-2.07569
0
LINE
8
BLACK
6
CONTINUOUS
10
1.80295
20
-2.07569
11
1.80322
21
-2.07437
0
LINE
8
BLACK
6
CONTINUOUS
10
1.80322
20
-2.07437
11
1.80396
21
-2.07325
0
LINE
8
BLACK
6
CONTINUOUS
10
1.80396
20
-2.07325
11
1.80508
21
-2.07251
0
LINE
8
BLACK
6
CONTINUOUS
10
1.80508
20
-2.07251
11
1.8064
21
-2.07224
0
LINE
8
BLACK
6
CONTINUOUS
10
1.8064
20
-2.07224
11
1.81329
21
-2.07224
0
LINE
8
BLACK
6
CONTINUOUS
10
1.81329
20
-2.07224
11
1.81461
21
-2.07251
0
LINE
8
BLACK
6
CONTINUOUS
10
0.518504
20
-1.85354
11
0.492913
21
-1.85354
0
LINE
8
BLACK
6
CONTINUOUS
10
0.492913
20
-1.85354
11
0.492913
21
-1.8122
0
LINE
8
BLACK
6
CONTINUOUS
10
0.492913
20
-1.8122
11
0.518504
21
-1.8122
0
LINE
8
BLACK
6
CONTINUOUS
10
0.518504
20
-1.8122
11
0.518504
21
-1.85354
0
LINE
8
BLACK
6
CONTINUOUS
10
0.60315
20
-1.85256
11
0.577559
21
-1.85256
0
LINE
8
BLACK
6
CONTINUOUS
10
0.577559
20
-1.85256
11
0.577559
21
-1.81122
0
LINE
8
BLACK
6
CONTINUOUS
10
0.577559
20
-1.81122
11
0.60315
21
-1.81122
0
LINE
8
BLACK
6
CONTINUOUS
10
0.60315
20
-1.81122
11
0.60315
21
-1.85256
0
LINE
8
BLACK
6
CONTINUOUS
10
0.203543
20
-1.84961
11
0.177953
21
-1.84961
0
LINE
8
BLACK
6
CONTINUOUS
10
0.177953
20
-1.84961
11
0.177953
21
-1.80827
0
LINE
8
BLACK
6
CONTINUOUS
10
0.177953
20
-1.80827
11
0.203543
21
-1.80827
0
LINE
8
BLACK
6
CONTINUOUS
10
0.203543
20
-1.80827
11
0.203543
21
-1.84961
0
LINE
8
BLACK
6
CONTINUOUS
10
0.288189
20
-1.84862
11
0.262598
21
-1.84862
0
LINE
8
BLACK
6
CONTINUOUS
10
0.262598
20
-1.84862
11
0.262598
21
-1.80728
0
LINE
8
BLACK
6
CONTINUOUS
10
0.262598
20
-1.80728
11
0.288189
21
-1.80728
0
LINE
8
BLACK
6
CONTINUOUS
10
0.288189
20
-1.80728
11
0.288189
21
-1.84862
0
LINE
8
BLACK
6
CONTINUOUS
10
0.518504
20
-1.69016
11
0.492913
21
-1.69016
0
LINE
8
BLACK
6
CONTINUOUS
10
0.492913
20
-1.69016
11
0.492913
21
-1.64882
0
LINE
8
BLACK
6
CONTINUOUS
10
0.492913
20
-1.64882
11
0.518504
21
-1.64882
0
LINE
8
BLACK
6
CONTINUOUS
10
0.518504
20
-1.64882
11
0.518504
21
-1.69016
0
LINE
8
BLACK
6
CONTINUOUS
10
0.60315
20
-1.69016
11
0.577559
21
-1.69016
0
LINE
8
BLACK
6
CONTINUOUS
10
0.577559
20
-1.69016
11
0.577559
21
-1.64882
0
LINE
8
BLACK
6
CONTINUOUS
10
0.577559
20
-1.64882
11
0.60315
21
-1.64882
0
LINE
8
BLACK
6
CONTINUOUS
10
0.60315
20
-1.64882
11
0.60315
21
-1.69016
0
LINE
8
BLACK
6
CONTINUOUS
10
0.203543
20
-1.68622
11
0.177953
21
-1.68622
0
LINE
8
BLACK
6
CONTINUOUS
10
0.177953
20
-1.68622
11
0.177953
21
-1.64488
0
LINE
8
BLACK
6
CONTINUOUS
10
0.177953
20
-1.64488
11
0.203543
21
-1.64488
0
LINE
8
BLACK
6
CONTINUOUS
10
0.203543
20
-1.64488
11
0.203543
21
-1.68622
0
LINE
8
BLACK
6
CONTINUOUS
10
0.288189
20
-1.68622
11
0.262598
21
-1.68622
0
LINE
8
BLACK
6
CONTINUOUS
10
0.262598
20
-1.68622
11
0.262598
21
-1.64488
0
LINE
8
BLACK
6
CONTINUOUS
10
0.262598
20
-1.64488
11
0.288189
21
-1.64488
0
LINE
8
BLACK
6
CONTINUOUS
10
0.288189
20
-1.64488
11
0.288189
21
-1.68622
0
LINE
8
BLACK
6
CONTINUOUS
10
0.519488
20
-1.54055
11
0.493898
21
-1.54055
0
LINE
8
BLACK
6
CONTINUOUS
10
0.493898
20
-1.54055
11
0.493898
21
-1.49921
0
LINE
8
BLACK
6
CONTINUOUS
10
0.493898
20
-1.49921
11
0.519488
21
-1.49921
0
LINE
8
BLACK
6
CONTINUOUS
10
0.519488
20
-1.49921
11
0.519488
21
-1.54055
0
LINE
8
BLACK
6
CONTINUOUS
10
0.604134
20
-1.53957
11
0.578543
21
-1.53957
0
LINE
8
BLACK
6
CONTINUOUS
10
0.578543
20
-1.53957
11
0.578543
21
-1.49823
0
LINE
8
BLACK
6
CONTINUOUS
10
0.578543
20
-1.49823
11
0.604134
21
-1.49823
0
LINE
8
BLACK
6
CONTINUOUS
10
0.604134
20
-1.49823
11
0.604134
21
-1.53957
0
LINE
8
BLACK
6
CONTINUOUS
10
0.204528
20
-1.53661
11
0.178937
21
-1.53661
0
LINE
8
BLACK
6
CONTINUOUS
10
0.178937
20
-1.53661
11
0.178937
21
-1.49528
0
LINE
8
BLACK
6
CONTINUOUS
10
0.178937
20
-1.49528
11
0.204528
21
-1.49528
0
LINE
8
BLACK
6
CONTINUOUS
10
0.204528
20
-1.49528
11
0.204528
21
-1.53661
0
LINE
8
BLACK
6
CONTINUOUS
10
0.289173
20
-1.53563
11
0.263583
21
-1.53563
0
LINE
8
BLACK
6
CONTINUOUS
10
0.263583
20
-1.53563
11
0.263583
21
-1.49429
0
LINE
8
BLACK
6
CONTINUOUS
10
0.263583
20
-1.49429
11
0.289173
21
-1.49429
0
LINE
8
BLACK
6
CONTINUOUS
10
0.289173
20
-1.49429
11
0.289173
21
-1.53563
0
LINE
8
BLACK
6
CONTINUOUS
10
0.519488
20
-1.37717
11
0.493898
21
-1.37717
0
LINE
8
BLACK
6
CONTINUOUS
10
0.493898
20
-1.37717
11
0.493898
21
-1.33583
0
LINE
8
BLACK
6
CONTINUOUS
10
0.493898
20
-1.33583
11
0.519488
21
-1.33583
0
LINE
8
BLACK
6
CONTINUOUS
10
0.519488
20
-1.33583
11
0.519488
21
-1.37717
0
LINE
8
BLACK
6
CONTINUOUS
10
0.604134
20
-1.37717
11
0.578543
21
-1.37717
0
LINE
8
BLACK
6
CONTINUOUS
10
0.578543
20
-1.37717
11
0.578543
21
-1.33583
0
LINE
8
BLACK
6
CONTINUOUS
10
0.578543
20
-1.33583
11
0.604134
21
-1.33583
0
LINE
8
BLACK
6
CONTINUOUS
10
0.604134
20
-1.33583
11
0.604134
21
-1.37717
0
LINE
8
BLACK
6
CONTINUOUS
10
0.204528
20
-1.37323
11
0.178937
21
-1.37323
0
LINE
8
BLACK
6
CONTINUOUS
10
0.178937
20
-1.37323
11
0.178937
21
-1.33189
0
LINE
8
BLACK
6
CONTINUOUS
10
0.178937
20
-1.33189
11
0.204528
21
-1.33189
0
LINE
8
BLACK
6
CONTINUOUS
10
0.204528
20
-1.33189
11
0.204528
21
-1.37323
0
LINE
8
BLACK
6
CONTINUOUS
10
0.289173
20
-1.37323
11
0.263583
21
-1.37323
0
LINE
8
BLACK
6
CONTINUOUS
10
0.263583
20
-1.37323
11
0.263583
21
-1.33189
0
LINE
8
BLACK
6
CONTINUOUS
10
0.263583
20
-1.33189
11
0.289173
21
-1.33189
0
LINE
8
BLACK
6
CONTINUOUS
10
0.289173
20
-1.33189
11
0.289173
21
-1.37323
  0
ENDSEC
  0
EOF
