<?xml version='1.0' encoding='ASCII' standalone='yes'?>
<svg xmlns:svg="http://www.w3.org/2000/svg" xmlns="http://www.w3.org/2000/svg" xmlns:xlink="http://www.w3.org/1999/xlink" version="1.1" width="297.0022mm" height="210.0072mm" viewBox="0.0000 0.0000 297.0022 210.0072">
<title>SVG Image created as AMFOC01-B_Fab.svg date 2023/08/19 22:52:26 </title>
  <desc>Image generated by PCBNEW </desc>
<g style="fill:#000084; fill-opacity:1.0000;stroke:#000084; stroke-opacity:1.0000; stroke-linecap:round; stroke-linejoin:round;" transform="translate(0 0) scale(1 1)">
</g>
<g style="fill:#000084; fill-opacity:0.0;  stroke:#000084; stroke-width:0.0000; stroke-opacity:1;  stroke-linecap:round; stroke-linejoin:round;">
</g>
<g style="fill:#000084; fill-opacity:0.01;  stroke:#000084; stroke-width:0.5176; stroke-opacity:1;  stroke-linecap:round; stroke-linejoin:round;">
<text x="86.3896" y="200.0688" textLength="4.3132" font-size="4.6007" lengthAdjust="spacingAndGlyphs" text-anchor="middle" opacity="0.01" style="font-family:monospace">K</text>
<g class="stroked-text"><desc>K</desc>
<path d="M85.4859 199.9129 L85.4859 196.4624 "/>
<path d="M87.4576 199.9129 L85.9788 197.9412 "/>
<path d="M87.4576 196.4624 L85.4859 198.4341 "/>
</g><text x="107.3430" y="200.0688" textLength="4.3132" font-size="4.6007" lengthAdjust="spacingAndGlyphs" text-anchor="middle" opacity="0.01" style="font-family:monospace">K</text>
<g class="stroked-text"><desc>K</desc>
<path d="M106.4393 199.9129 L106.4393 196.4624 "/>
<path d="M108.4111 199.9129 L106.9323 197.9412 "/>
<path d="M108.4111 196.4624 L106.4393 198.4341 "/>
</g><g transform="rotate(-90.000000 55.3710 153.3112)">
<text x="55.3710" y="155.0365" transform="scale(-1 1) translate(-110.741930 0)" textLength="40.2974" font-size="4.6007" lengthAdjust="spacingAndGlyphs" text-anchor="middle" opacity="0.01" style="font-family:monospace">434133025816</text>
</g>
<g class="stroked-text"><desc>434133025816</desc>
<path d="M54.6400 135.8942 L56.9403 135.8942 "/>
<path d="M53.3255 135.0726 L55.7902 134.2511 "/>
<path d="M55.7902 134.2511 L55.7902 136.3871 "/>
<path d="M53.4898 137.3730 L53.4898 139.5090 "/>
<path d="M53.4898 139.5090 L54.8043 138.3588 "/>
<path d="M54.8043 138.3588 L54.8043 138.8518 "/>
<path d="M54.8043 138.8518 L54.9686 139.1804 "/>
<path d="M54.9686 139.1804 L55.1329 139.3447 "/>
<path d="M55.1329 139.3447 L55.4615 139.5090 "/>
<path d="M55.4615 139.5090 L56.2831 139.5090 "/>
<path d="M56.2831 139.5090 L56.6117 139.3447 "/>
<path d="M56.6117 139.3447 L56.7760 139.1804 "/>
<path d="M56.7760 139.1804 L56.9403 138.8518 "/>
<path d="M56.9403 138.8518 L56.9403 137.8659 "/>
<path d="M56.9403 137.8659 L56.7760 137.5373 "/>
<path d="M56.7760 137.5373 L56.6117 137.3730 "/>
<path d="M54.6400 142.4666 L56.9403 142.4666 "/>
<path d="M53.3255 141.6451 L55.7902 140.8235 "/>
<path d="M55.7902 140.8235 L55.7902 142.9596 "/>
<path d="M56.9403 146.0815 L56.9403 144.1097 "/>
<path d="M56.9403 145.0956 L53.4898 145.0956 "/>
<path d="M53.4898 145.0956 L53.9827 144.7670 "/>
<path d="M53.9827 144.7670 L54.3114 144.4384 "/>
<path d="M54.3114 144.4384 L54.4757 144.1097 "/>
<path d="M53.4898 147.2317 L53.4898 149.3677 "/>
<path d="M53.4898 149.3677 L54.8043 148.2175 "/>
<path d="M54.8043 148.2175 L54.8043 148.7105 "/>
<path d="M54.8043 148.7105 L54.9686 149.0391 "/>
<path d="M54.9686 149.0391 L55.1329 149.2034 "/>
<path d="M55.1329 149.2034 L55.4615 149.3677 "/>
<path d="M55.4615 149.3677 L56.2831 149.3677 "/>
<path d="M56.2831 149.3677 L56.6117 149.2034 "/>
<path d="M56.6117 149.2034 L56.7760 149.0391 "/>
<path d="M56.7760 149.0391 L56.9403 148.7105 "/>
<path d="M56.9403 148.7105 L56.9403 147.7246 "/>
<path d="M56.9403 147.7246 L56.7760 147.3960 "/>
<path d="M56.7760 147.3960 L56.6117 147.2317 "/>
<path d="M53.4898 150.5179 L53.4898 152.6539 "/>
<path d="M53.4898 152.6539 L54.8043 151.5038 "/>
<path d="M54.8043 151.5038 L54.8043 151.9967 "/>
<path d="M54.8043 151.9967 L54.9686 152.3253 "/>
<path d="M54.9686 152.3253 L55.1329 152.4896 "/>
<path d="M55.1329 152.4896 L55.4615 152.6539 "/>
<path d="M55.4615 152.6539 L56.2831 152.6539 "/>
<path d="M56.2831 152.6539 L56.6117 152.4896 "/>
<path d="M56.6117 152.4896 L56.7760 152.3253 "/>
<path d="M56.7760 152.3253 L56.9403 151.9967 "/>
<path d="M56.9403 151.9967 L56.9403 151.0108 "/>
<path d="M56.9403 151.0108 L56.7760 150.6822 "/>
<path d="M56.7760 150.6822 L56.6117 150.5179 "/>
<path d="M53.4898 154.7900 L53.4898 155.1186 "/>
<path d="M53.4898 155.1186 L53.6541 155.4472 "/>
<path d="M53.6541 155.4472 L53.8184 155.6115 "/>
<path d="M53.8184 155.6115 L54.1470 155.7759 "/>
<path d="M54.1470 155.7759 L54.8043 155.9402 "/>
<path d="M54.8043 155.9402 L55.6258 155.9402 "/>
<path d="M55.6258 155.9402 L56.2831 155.7759 "/>
<path d="M56.2831 155.7759 L56.6117 155.6115 "/>
<path d="M56.6117 155.6115 L56.7760 155.4472 "/>
<path d="M56.7760 155.4472 L56.9403 155.1186 "/>
<path d="M56.9403 155.1186 L56.9403 154.7900 "/>
<path d="M56.9403 154.7900 L56.7760 154.4614 "/>
<path d="M56.7760 154.4614 L56.6117 154.2971 "/>
<path d="M56.6117 154.2971 L56.2831 154.1327 "/>
<path d="M56.2831 154.1327 L55.6258 153.9684 "/>
<path d="M55.6258 153.9684 L54.8043 153.9684 "/>
<path d="M54.8043 153.9684 L54.1470 154.1327 "/>
<path d="M54.1470 154.1327 L53.8184 154.2971 "/>
<path d="M53.8184 154.2971 L53.6541 154.4614 "/>
<path d="M53.6541 154.4614 L53.4898 154.7900 "/>
<path d="M53.8184 157.2547 L53.6541 157.4190 "/>
<path d="M53.6541 157.4190 L53.4898 157.7476 "/>
<path d="M53.4898 157.7476 L53.4898 158.5692 "/>
<path d="M53.4898 158.5692 L53.6541 158.8978 "/>
<path d="M53.6541 158.8978 L53.8184 159.0621 "/>
<path d="M53.8184 159.0621 L54.1470 159.2264 "/>
<path d="M54.1470 159.2264 L54.4757 159.2264 "/>
<path d="M54.4757 159.2264 L54.9686 159.0621 "/>
<path d="M54.9686 159.0621 L56.9403 157.0904 "/>
<path d="M56.9403 157.0904 L56.9403 159.2264 "/>
<path d="M53.4898 162.3483 L53.4898 160.7052 "/>
<path d="M53.4898 160.7052 L55.1329 160.5409 "/>
<path d="M55.1329 160.5409 L54.9686 160.7052 "/>
<path d="M54.9686 160.7052 L54.8043 161.0338 "/>
<path d="M54.8043 161.0338 L54.8043 161.8554 "/>
<path d="M54.8043 161.8554 L54.9686 162.1840 "/>
<path d="M54.9686 162.1840 L55.1329 162.3483 "/>
<path d="M55.1329 162.3483 L55.4615 162.5126 "/>
<path d="M55.4615 162.5126 L56.2831 162.5126 "/>
<path d="M56.2831 162.5126 L56.6117 162.3483 "/>
<path d="M56.6117 162.3483 L56.7760 162.1840 "/>
<path d="M56.7760 162.1840 L56.9403 161.8554 "/>
<path d="M56.9403 161.8554 L56.9403 161.0338 "/>
<path d="M56.9403 161.0338 L56.7760 160.7052 "/>
<path d="M56.7760 160.7052 L56.6117 160.5409 "/>
<path d="M54.9686 164.4844 L54.8043 164.1558 "/>
<path d="M54.8043 164.1558 L54.6400 163.9914 "/>
<path d="M54.6400 163.9914 L54.3114 163.8271 "/>
<path d="M54.3114 163.8271 L54.1470 163.8271 "/>
<path d="M54.1470 163.8271 L53.8184 163.9914 "/>
<path d="M53.8184 163.9914 L53.6541 164.1558 "/>
<path d="M53.6541 164.1558 L53.4898 164.4844 "/>
<path d="M53.4898 164.4844 L53.4898 165.1416 "/>
<path d="M53.4898 165.1416 L53.6541 165.4702 "/>
<path d="M53.6541 165.4702 L53.8184 165.6346 "/>
<path d="M53.8184 165.6346 L54.1470 165.7989 "/>
<path d="M54.1470 165.7989 L54.3114 165.7989 "/>
<path d="M54.3114 165.7989 L54.6400 165.6346 "/>
<path d="M54.6400 165.6346 L54.8043 165.4702 "/>
<path d="M54.8043 165.4702 L54.9686 165.1416 "/>
<path d="M54.9686 165.1416 L54.9686 164.4844 "/>
<path d="M54.9686 164.4844 L55.1329 164.1558 "/>
<path d="M55.1329 164.1558 L55.2972 163.9914 "/>
<path d="M55.2972 163.9914 L55.6258 163.8271 "/>
<path d="M55.6258 163.8271 L56.2831 163.8271 "/>
<path d="M56.2831 163.8271 L56.6117 163.9914 "/>
<path d="M56.6117 163.9914 L56.7760 164.1558 "/>
<path d="M56.7760 164.1558 L56.9403 164.4844 "/>
<path d="M56.9403 164.4844 L56.9403 165.1416 "/>
<path d="M56.9403 165.1416 L56.7760 165.4702 "/>
<path d="M56.7760 165.4702 L56.6117 165.6346 "/>
<path d="M56.6117 165.6346 L56.2831 165.7989 "/>
<path d="M56.2831 165.7989 L55.6258 165.7989 "/>
<path d="M55.6258 165.7989 L55.2972 165.6346 "/>
<path d="M55.2972 165.6346 L55.1329 165.4702 "/>
<path d="M55.1329 165.4702 L54.9686 165.1416 "/>
<path d="M56.9403 169.0851 L56.9403 167.1134 "/>
<path d="M56.9403 168.0992 L53.4898 168.0992 "/>
<path d="M53.4898 168.0992 L53.9827 167.7706 "/>
<path d="M53.9827 167.7706 L54.3114 167.4420 "/>
<path d="M54.3114 167.4420 L54.4757 167.1134 "/>
<path d="M53.4898 172.0427 L53.4898 171.3855 "/>
<path d="M53.4898 171.3855 L53.6541 171.0568 "/>
<path d="M53.6541 171.0568 L53.8184 170.8925 "/>
<path d="M53.8184 170.8925 L54.3114 170.5639 "/>
<path d="M54.3114 170.5639 L54.9686 170.3996 "/>
<path d="M54.9686 170.3996 L56.2831 170.3996 "/>
<path d="M56.2831 170.3996 L56.6117 170.5639 "/>
<path d="M56.6117 170.5639 L56.7760 170.7282 "/>
<path d="M56.7760 170.7282 L56.9403 171.0568 "/>
<path d="M56.9403 171.0568 L56.9403 171.7141 "/>
<path d="M56.9403 171.7141 L56.7760 172.0427 "/>
<path d="M56.7760 172.0427 L56.6117 172.2070 "/>
<path d="M56.6117 172.2070 L56.2831 172.3713 "/>
<path d="M56.2831 172.3713 L55.4615 172.3713 "/>
<path d="M55.4615 172.3713 L55.1329 172.2070 "/>
<path d="M55.1329 172.2070 L54.9686 172.0427 "/>
<path d="M54.9686 172.0427 L54.8043 171.7141 "/>
<path d="M54.8043 171.7141 L54.8043 171.0568 "/>
<path d="M54.8043 171.0568 L54.9686 170.7282 "/>
<path d="M54.9686 170.7282 L55.1329 170.5639 "/>
<path d="M55.1329 170.5639 L55.4615 170.3996 "/>
</g><g transform="rotate(-90.000000 46.5721 153.4837)">
<text x="46.5721" y="155.2090" transform="scale(-1 1) translate(-93.144165 0)" textLength="11.3786" font-size="4.6007" lengthAdjust="spacingAndGlyphs" text-anchor="middle" opacity="0.01" style="font-family:monospace">SW5</text>
</g>
<g class="stroked-text"><desc>SW5</desc>
<path d="M47.9771 148.8830 L48.1415 149.3759 "/>
<path d="M48.1415 149.3759 L48.1415 150.1975 "/>
<path d="M48.1415 150.1975 L47.9771 150.5261 "/>
<path d="M47.9771 150.5261 L47.8128 150.6904 "/>
<path d="M47.8128 150.6904 L47.4842 150.8547 "/>
<path d="M47.4842 150.8547 L47.1556 150.8547 "/>
<path d="M47.1556 150.8547 L46.8270 150.6904 "/>
<path d="M46.8270 150.6904 L46.6626 150.5261 "/>
<path d="M46.6626 150.5261 L46.4983 150.1975 "/>
<path d="M46.4983 150.1975 L46.3340 149.5402 "/>
<path d="M46.3340 149.5402 L46.1697 149.2116 "/>
<path d="M46.1697 149.2116 L46.0054 149.0473 "/>
<path d="M46.0054 149.0473 L45.6768 148.8830 "/>
<path d="M45.6768 148.8830 L45.3482 148.8830 "/>
<path d="M45.3482 148.8830 L45.0195 149.0473 "/>
<path d="M45.0195 149.0473 L44.8552 149.2116 "/>
<path d="M44.8552 149.2116 L44.6909 149.5402 "/>
<path d="M44.6909 149.5402 L44.6909 150.3618 "/>
<path d="M44.6909 150.3618 L44.8552 150.8547 "/>
<path d="M44.6909 152.0049 L48.1415 152.8265 "/>
<path d="M48.1415 152.8265 L45.6768 153.4837 "/>
<path d="M45.6768 153.4837 L48.1415 154.1410 "/>
<path d="M48.1415 154.1410 L44.6909 154.9625 "/>
<path d="M44.6909 157.9201 L44.6909 156.2770 "/>
<path d="M44.6909 156.2770 L46.3340 156.1127 "/>
<path d="M46.3340 156.1127 L46.1697 156.2770 "/>
<path d="M46.1697 156.2770 L46.0054 156.6056 "/>
<path d="M46.0054 156.6056 L46.0054 157.4272 "/>
<path d="M46.0054 157.4272 L46.1697 157.7558 "/>
<path d="M46.1697 157.7558 L46.3340 157.9201 "/>
<path d="M46.3340 157.9201 L46.6626 158.0844 "/>
<path d="M46.6626 158.0844 L47.4842 158.0844 "/>
<path d="M47.4842 158.0844 L47.8128 157.9201 "/>
<path d="M47.8128 157.9201 L47.9771 157.7558 "/>
<path d="M47.9771 157.7558 L48.1415 157.4272 "/>
<path d="M48.1415 157.4272 L48.1415 156.6056 "/>
<path d="M48.1415 156.6056 L47.9771 156.2770 "/>
<path d="M47.9771 156.2770 L47.8128 156.1127 "/>
</g><text x="224.9782" y="183.0558" transform="scale(-1 1) translate(-449.956455 0)" textLength="32.2461" font-size="4.6007" lengthAdjust="spacingAndGlyphs" text-anchor="middle" opacity="0.01" style="font-family:monospace">Conn_01x01</text>
<g class="stroked-text"><desc>Conn_01x01</desc>
<path d="M237.8767 182.5712 L238.0410 182.7356 "/>
<path d="M238.0410 182.7356 L238.5339 182.8999 "/>
<path d="M238.5339 182.8999 L238.8626 182.8999 "/>
<path d="M238.8626 182.8999 L239.3555 182.7356 "/>
<path d="M239.3555 182.7356 L239.6841 182.4069 "/>
<path d="M239.6841 182.4069 L239.8484 182.0783 "/>
<path d="M239.8484 182.0783 L240.0127 181.4211 "/>
<path d="M240.0127 181.4211 L240.0127 180.9281 "/>
<path d="M240.0127 180.9281 L239.8484 180.2709 "/>
<path d="M239.8484 180.2709 L239.6841 179.9423 "/>
<path d="M239.6841 179.9423 L239.3555 179.6136 "/>
<path d="M239.3555 179.6136 L238.8626 179.4493 "/>
<path d="M238.8626 179.4493 L238.5339 179.4493 "/>
<path d="M238.5339 179.4493 L238.0410 179.6136 "/>
<path d="M238.0410 179.6136 L237.8767 179.7780 "/>
<path d="M235.9049 182.8999 L236.2336 182.7356 "/>
<path d="M236.2336 182.7356 L236.3979 182.5712 "/>
<path d="M236.3979 182.5712 L236.5622 182.2426 "/>
<path d="M236.5622 182.2426 L236.5622 181.2568 "/>
<path d="M236.5622 181.2568 L236.3979 180.9281 "/>
<path d="M236.3979 180.9281 L236.2336 180.7638 "/>
<path d="M236.2336 180.7638 L235.9049 180.5995 "/>
<path d="M235.9049 180.5995 L235.4120 180.5995 "/>
<path d="M235.4120 180.5995 L235.0834 180.7638 "/>
<path d="M235.0834 180.7638 L234.9191 180.9281 "/>
<path d="M234.9191 180.9281 L234.7548 181.2568 "/>
<path d="M234.7548 181.2568 L234.7548 182.2426 "/>
<path d="M234.7548 182.2426 L234.9191 182.5712 "/>
<path d="M234.9191 182.5712 L235.0834 182.7356 "/>
<path d="M235.0834 182.7356 L235.4120 182.8999 "/>
<path d="M235.4120 182.8999 L235.9049 182.8999 "/>
<path d="M233.2760 180.5995 L233.2760 182.8999 "/>
<path d="M233.2760 180.9281 L233.1116 180.7638 "/>
<path d="M233.1116 180.7638 L232.7830 180.5995 "/>
<path d="M232.7830 180.5995 L232.2901 180.5995 "/>
<path d="M232.2901 180.5995 L231.9615 180.7638 "/>
<path d="M231.9615 180.7638 L231.7972 181.0924 "/>
<path d="M231.7972 181.0924 L231.7972 182.8999 "/>
<path d="M230.1540 180.5995 L230.1540 182.8999 "/>
<path d="M230.1540 180.9281 L229.9897 180.7638 "/>
<path d="M229.9897 180.7638 L229.6611 180.5995 "/>
<path d="M229.6611 180.5995 L229.1682 180.5995 "/>
<path d="M229.1682 180.5995 L228.8395 180.7638 "/>
<path d="M228.8395 180.7638 L228.6752 181.0924 "/>
<path d="M228.6752 181.0924 L228.6752 182.8999 "/>
<path d="M227.8537 183.2285 L225.2247 183.2285 "/>
<path d="M223.7459 179.4493 L223.4173 179.4493 "/>
<path d="M223.4173 179.4493 L223.0886 179.6136 "/>
<path d="M223.0886 179.6136 L222.9243 179.7780 "/>
<path d="M222.9243 179.7780 L222.7600 180.1066 "/>
<path d="M222.7600 180.1066 L222.5957 180.7638 "/>
<path d="M222.5957 180.7638 L222.5957 181.5854 "/>
<path d="M222.5957 181.5854 L222.7600 182.2426 "/>
<path d="M222.7600 182.2426 L222.9243 182.5712 "/>
<path d="M222.9243 182.5712 L223.0886 182.7356 "/>
<path d="M223.0886 182.7356 L223.4173 182.8999 "/>
<path d="M223.4173 182.8999 L223.7459 182.8999 "/>
<path d="M223.7459 182.8999 L224.0745 182.7356 "/>
<path d="M224.0745 182.7356 L224.2388 182.5712 "/>
<path d="M224.2388 182.5712 L224.4031 182.2426 "/>
<path d="M224.4031 182.2426 L224.5674 181.5854 "/>
<path d="M224.5674 181.5854 L224.5674 180.7638 "/>
<path d="M224.5674 180.7638 L224.4031 180.1066 "/>
<path d="M224.4031 180.1066 L224.2388 179.7780 "/>
<path d="M224.2388 179.7780 L224.0745 179.6136 "/>
<path d="M224.0745 179.6136 L223.7459 179.4493 "/>
<path d="M219.3095 182.8999 L221.2812 182.8999 "/>
<path d="M220.2953 182.8999 L220.2953 179.4493 "/>
<path d="M220.2953 179.4493 L220.6240 179.9423 "/>
<path d="M220.6240 179.9423 L220.9526 180.2709 "/>
<path d="M220.9526 180.2709 L221.2812 180.4352 "/>
<path d="M218.1593 182.8999 L216.3519 180.5995 "/>
<path d="M218.1593 180.5995 L216.3519 182.8999 "/>
<path d="M214.3801 179.4493 L214.0515 179.4493 "/>
<path d="M214.0515 179.4493 L213.7229 179.6136 "/>
<path d="M213.7229 179.6136 L213.5586 179.7780 "/>
<path d="M213.5586 179.7780 L213.3943 180.1066 "/>
<path d="M213.3943 180.1066 L213.2299 180.7638 "/>
<path d="M213.2299 180.7638 L213.2299 181.5854 "/>
<path d="M213.2299 181.5854 L213.3943 182.2426 "/>
<path d="M213.3943 182.2426 L213.5586 182.5712 "/>
<path d="M213.5586 182.5712 L213.7229 182.7356 "/>
<path d="M213.7229 182.7356 L214.0515 182.8999 "/>
<path d="M214.0515 182.8999 L214.3801 182.8999 "/>
<path d="M214.3801 182.8999 L214.7088 182.7356 "/>
<path d="M214.7088 182.7356 L214.8731 182.5712 "/>
<path d="M214.8731 182.5712 L215.0374 182.2426 "/>
<path d="M215.0374 182.2426 L215.2017 181.5854 "/>
<path d="M215.2017 181.5854 L215.2017 180.7638 "/>
<path d="M215.2017 180.7638 L215.0374 180.1066 "/>
<path d="M215.0374 180.1066 L214.8731 179.7780 "/>
<path d="M214.8731 179.7780 L214.7088 179.6136 "/>
<path d="M214.7088 179.6136 L214.3801 179.4493 "/>
<path d="M209.9437 182.8999 L211.9155 182.8999 "/>
<path d="M210.9296 182.8999 L210.9296 179.4493 "/>
<path d="M210.9296 179.4493 L211.2582 179.9423 "/>
<path d="M211.2582 179.9423 L211.5868 180.2709 "/>
<path d="M211.5868 180.2709 L211.9155 180.4352 "/>
</g><text x="224.9782" y="172.7041" transform="scale(-1 1) translate(-449.956455 0)" textLength="6.7779" font-size="4.6007" lengthAdjust="spacingAndGlyphs" text-anchor="middle" opacity="0.01" style="font-family:monospace">J5</text>
<g class="stroked-text"><desc>J5</desc>
<path d="M226.1284 169.0977 L226.1284 171.5624 "/>
<path d="M226.1284 171.5624 L226.2927 172.0553 "/>
<path d="M226.2927 172.0553 L226.6213 172.3839 "/>
<path d="M226.6213 172.3839 L227.1143 172.5482 "/>
<path d="M227.1143 172.5482 L227.4429 172.5482 "/>
<path d="M222.8422 169.0977 L224.4853 169.0977 "/>
<path d="M224.4853 169.0977 L224.6496 170.7408 "/>
<path d="M224.6496 170.7408 L224.4853 170.5765 "/>
<path d="M224.4853 170.5765 L224.1567 170.4122 "/>
<path d="M224.1567 170.4122 L223.3351 170.4122 "/>
<path d="M223.3351 170.4122 L223.0065 170.5765 "/>
<path d="M223.0065 170.5765 L222.8422 170.7408 "/>
<path d="M222.8422 170.7408 L222.6779 171.0694 "/>
<path d="M222.6779 171.0694 L222.6779 171.8910 "/>
<path d="M222.6779 171.8910 L222.8422 172.2196 "/>
<path d="M222.8422 172.2196 L223.0065 172.3839 "/>
<path d="M223.0065 172.3839 L223.3351 172.5482 "/>
<path d="M223.3351 172.5482 L224.1567 172.5482 "/>
<path d="M224.1567 172.5482 L224.4853 172.3839 "/>
<path d="M224.4853 172.3839 L224.6496 172.2196 "/>
</g><g transform="rotate(-90.000000 83.0616 126.2244)">
<text x="83.0616" y="127.9497" transform="scale(-1 1) translate(-166.123133 0)" textLength="40.2974" font-size="4.6007" lengthAdjust="spacingAndGlyphs" text-anchor="middle" opacity="0.01" style="font-family:monospace">434133025816</text>
</g>
<g class="stroked-text"><desc>434133025816</desc>
<path d="M82.3306 108.8074 L84.6309 108.8074 "/>
<path d="M81.0161 107.9859 L83.4808 107.1643 "/>
<path d="M83.4808 107.1643 L83.4808 109.3003 "/>
<path d="M81.1804 110.2862 L81.1804 112.4223 "/>
<path d="M81.1804 112.4223 L82.4949 111.2721 "/>
<path d="M82.4949 111.2721 L82.4949 111.7650 "/>
<path d="M82.4949 111.7650 L82.6592 112.0936 "/>
<path d="M82.6592 112.0936 L82.8235 112.2579 "/>
<path d="M82.8235 112.2579 L83.1521 112.4223 "/>
<path d="M83.1521 112.4223 L83.9737 112.4223 "/>
<path d="M83.9737 112.4223 L84.3023 112.2579 "/>
<path d="M84.3023 112.2579 L84.4666 112.0936 "/>
<path d="M84.4666 112.0936 L84.6309 111.7650 "/>
<path d="M84.6309 111.7650 L84.6309 110.7791 "/>
<path d="M84.6309 110.7791 L84.4666 110.4505 "/>
<path d="M84.4666 110.4505 L84.3023 110.2862 "/>
<path d="M82.3306 115.3799 L84.6309 115.3799 "/>
<path d="M81.0161 114.5583 L83.4808 113.7368 "/>
<path d="M83.4808 113.7368 L83.4808 115.8728 "/>
<path d="M84.6309 118.9947 L84.6309 117.0230 "/>
<path d="M84.6309 118.0089 L81.1804 118.0089 "/>
<path d="M81.1804 118.0089 L81.6733 117.6802 "/>
<path d="M81.6733 117.6802 L82.0020 117.3516 "/>
<path d="M82.0020 117.3516 L82.1663 117.0230 "/>
<path d="M81.1804 120.1449 L81.1804 122.2810 "/>
<path d="M81.1804 122.2810 L82.4949 121.1308 "/>
<path d="M82.4949 121.1308 L82.4949 121.6237 "/>
<path d="M82.4949 121.6237 L82.6592 121.9523 "/>
<path d="M82.6592 121.9523 L82.8235 122.1166 "/>
<path d="M82.8235 122.1166 L83.1521 122.2810 "/>
<path d="M83.1521 122.2810 L83.9737 122.2810 "/>
<path d="M83.9737 122.2810 L84.3023 122.1166 "/>
<path d="M84.3023 122.1166 L84.4666 121.9523 "/>
<path d="M84.4666 121.9523 L84.6309 121.6237 "/>
<path d="M84.6309 121.6237 L84.6309 120.6378 "/>
<path d="M84.6309 120.6378 L84.4666 120.3092 "/>
<path d="M84.4666 120.3092 L84.3023 120.1449 "/>
<path d="M81.1804 123.4311 L81.1804 125.5672 "/>
<path d="M81.1804 125.5672 L82.4949 124.4170 "/>
<path d="M82.4949 124.4170 L82.4949 124.9099 "/>
<path d="M82.4949 124.9099 L82.6592 125.2386 "/>
<path d="M82.6592 125.2386 L82.8235 125.4029 "/>
<path d="M82.8235 125.4029 L83.1521 125.5672 "/>
<path d="M83.1521 125.5672 L83.9737 125.5672 "/>
<path d="M83.9737 125.5672 L84.3023 125.4029 "/>
<path d="M84.3023 125.4029 L84.4666 125.2386 "/>
<path d="M84.4666 125.2386 L84.6309 124.9099 "/>
<path d="M84.6309 124.9099 L84.6309 123.9241 "/>
<path d="M84.6309 123.9241 L84.4666 123.5954 "/>
<path d="M84.4666 123.5954 L84.3023 123.4311 "/>
<path d="M81.1804 127.7032 L81.1804 128.0319 "/>
<path d="M81.1804 128.0319 L81.3447 128.3605 "/>
<path d="M81.3447 128.3605 L81.5090 128.5248 "/>
<path d="M81.5090 128.5248 L81.8376 128.6891 "/>
<path d="M81.8376 128.6891 L82.4949 128.8534 "/>
<path d="M82.4949 128.8534 L83.3164 128.8534 "/>
<path d="M83.3164 128.8534 L83.9737 128.6891 "/>
<path d="M83.9737 128.6891 L84.3023 128.5248 "/>
<path d="M84.3023 128.5248 L84.4666 128.3605 "/>
<path d="M84.4666 128.3605 L84.6309 128.0319 "/>
<path d="M84.6309 128.0319 L84.6309 127.7032 "/>
<path d="M84.6309 127.7032 L84.4666 127.3746 "/>
<path d="M84.4666 127.3746 L84.3023 127.2103 "/>
<path d="M84.3023 127.2103 L83.9737 127.0460 "/>
<path d="M83.9737 127.0460 L83.3164 126.8817 "/>
<path d="M83.3164 126.8817 L82.4949 126.8817 "/>
<path d="M82.4949 126.8817 L81.8376 127.0460 "/>
<path d="M81.8376 127.0460 L81.5090 127.2103 "/>
<path d="M81.5090 127.2103 L81.3447 127.3746 "/>
<path d="M81.3447 127.3746 L81.1804 127.7032 "/>
<path d="M81.5090 130.1679 L81.3447 130.3322 "/>
<path d="M81.3447 130.3322 L81.1804 130.6608 "/>
<path d="M81.1804 130.6608 L81.1804 131.4824 "/>
<path d="M81.1804 131.4824 L81.3447 131.8110 "/>
<path d="M81.3447 131.8110 L81.5090 131.9753 "/>
<path d="M81.5090 131.9753 L81.8376 132.1396 "/>
<path d="M81.8376 132.1396 L82.1663 132.1396 "/>
<path d="M82.1663 132.1396 L82.6592 131.9753 "/>
<path d="M82.6592 131.9753 L84.6309 130.0036 "/>
<path d="M84.6309 130.0036 L84.6309 132.1396 "/>
<path d="M81.1804 135.2616 L81.1804 133.6185 "/>
<path d="M81.1804 133.6185 L82.8235 133.4541 "/>
<path d="M82.8235 133.4541 L82.6592 133.6185 "/>
<path d="M82.6592 133.6185 L82.4949 133.9471 "/>
<path d="M82.4949 133.9471 L82.4949 134.7686 "/>
<path d="M82.4949 134.7686 L82.6592 135.0973 "/>
<path d="M82.6592 135.0973 L82.8235 135.2616 "/>
<path d="M82.8235 135.2616 L83.1521 135.4259 "/>
<path d="M83.1521 135.4259 L83.9737 135.4259 "/>
<path d="M83.9737 135.4259 L84.3023 135.2616 "/>
<path d="M84.3023 135.2616 L84.4666 135.0973 "/>
<path d="M84.4666 135.0973 L84.6309 134.7686 "/>
<path d="M84.6309 134.7686 L84.6309 133.9471 "/>
<path d="M84.6309 133.9471 L84.4666 133.6185 "/>
<path d="M84.4666 133.6185 L84.3023 133.4541 "/>
<path d="M82.6592 137.3976 L82.4949 137.0690 "/>
<path d="M82.4949 137.0690 L82.3306 136.9047 "/>
<path d="M82.3306 136.9047 L82.0020 136.7404 "/>
<path d="M82.0020 136.7404 L81.8376 136.7404 "/>
<path d="M81.8376 136.7404 L81.5090 136.9047 "/>
<path d="M81.5090 136.9047 L81.3447 137.0690 "/>
<path d="M81.3447 137.0690 L81.1804 137.3976 "/>
<path d="M81.1804 137.3976 L81.1804 138.0549 "/>
<path d="M81.1804 138.0549 L81.3447 138.3835 "/>
<path d="M81.3447 138.3835 L81.5090 138.5478 "/>
<path d="M81.5090 138.5478 L81.8376 138.7121 "/>
<path d="M81.8376 138.7121 L82.0020 138.7121 "/>
<path d="M82.0020 138.7121 L82.3306 138.5478 "/>
<path d="M82.3306 138.5478 L82.4949 138.3835 "/>
<path d="M82.4949 138.3835 L82.6592 138.0549 "/>
<path d="M82.6592 138.0549 L82.6592 137.3976 "/>
<path d="M82.6592 137.3976 L82.8235 137.0690 "/>
<path d="M82.8235 137.0690 L82.9878 136.9047 "/>
<path d="M82.9878 136.9047 L83.3164 136.7404 "/>
<path d="M83.3164 136.7404 L83.9737 136.7404 "/>
<path d="M83.9737 136.7404 L84.3023 136.9047 "/>
<path d="M84.3023 136.9047 L84.4666 137.0690 "/>
<path d="M84.4666 137.0690 L84.6309 137.3976 "/>
<path d="M84.6309 137.3976 L84.6309 138.0549 "/>
<path d="M84.6309 138.0549 L84.4666 138.3835 "/>
<path d="M84.4666 138.3835 L84.3023 138.5478 "/>
<path d="M84.3023 138.5478 L83.9737 138.7121 "/>
<path d="M83.9737 138.7121 L83.3164 138.7121 "/>
<path d="M83.3164 138.7121 L82.9878 138.5478 "/>
<path d="M82.9878 138.5478 L82.8235 138.3835 "/>
<path d="M82.8235 138.3835 L82.6592 138.0549 "/>
<path d="M84.6309 141.9983 L84.6309 140.0266 "/>
<path d="M84.6309 141.0125 L81.1804 141.0125 "/>
<path d="M81.1804 141.0125 L81.6733 140.6838 "/>
<path d="M81.6733 140.6838 L82.0020 140.3552 "/>
<path d="M82.0020 140.3552 L82.1663 140.0266 "/>
<path d="M81.1804 144.9559 L81.1804 144.2987 "/>
<path d="M81.1804 144.2987 L81.3447 143.9701 "/>
<path d="M81.3447 143.9701 L81.5090 143.8058 "/>
<path d="M81.5090 143.8058 L82.0020 143.4771 "/>
<path d="M82.0020 143.4771 L82.6592 143.3128 "/>
<path d="M82.6592 143.3128 L83.9737 143.3128 "/>
<path d="M83.9737 143.3128 L84.3023 143.4771 "/>
<path d="M84.3023 143.4771 L84.4666 143.6415 "/>
<path d="M84.4666 143.6415 L84.6309 143.9701 "/>
<path d="M84.6309 143.9701 L84.6309 144.6273 "/>
<path d="M84.6309 144.6273 L84.4666 144.9559 "/>
<path d="M84.4666 144.9559 L84.3023 145.1203 "/>
<path d="M84.3023 145.1203 L83.9737 145.2846 "/>
<path d="M83.9737 145.2846 L83.1521 145.2846 "/>
<path d="M83.1521 145.2846 L82.8235 145.1203 "/>
<path d="M82.8235 145.1203 L82.6592 144.9559 "/>
<path d="M82.6592 144.9559 L82.4949 144.6273 "/>
<path d="M82.4949 144.6273 L82.4949 143.9701 "/>
<path d="M82.4949 143.9701 L82.6592 143.6415 "/>
<path d="M82.6592 143.6415 L82.8235 143.4771 "/>
<path d="M82.8235 143.4771 L83.1521 143.3128 "/>
</g><g transform="rotate(-90.000000 74.2627 126.3970)">
<text x="74.2627" y="128.1222" transform="scale(-1 1) translate(-148.525367 0)" textLength="11.3786" font-size="4.6007" lengthAdjust="spacingAndGlyphs" text-anchor="middle" opacity="0.01" style="font-family:monospace">SW2</text>
</g>
<g class="stroked-text"><desc>SW2</desc>
<path d="M75.6677 121.7962 L75.8321 122.2892 "/>
<path d="M75.8321 122.2892 L75.8321 123.1107 "/>
<path d="M75.8321 123.1107 L75.6677 123.4394 "/>
<path d="M75.6677 123.4394 L75.5034 123.6037 "/>
<path d="M75.5034 123.6037 L75.1748 123.7680 "/>
<path d="M75.1748 123.7680 L74.8462 123.7680 "/>
<path d="M74.8462 123.7680 L74.5176 123.6037 "/>
<path d="M74.5176 123.6037 L74.3533 123.4394 "/>
<path d="M74.3533 123.4394 L74.1889 123.1107 "/>
<path d="M74.1889 123.1107 L74.0246 122.4535 "/>
<path d="M74.0246 122.4535 L73.8603 122.1249 "/>
<path d="M73.8603 122.1249 L73.6960 121.9606 "/>
<path d="M73.6960 121.9606 L73.3674 121.7962 "/>
<path d="M73.3674 121.7962 L73.0388 121.7962 "/>
<path d="M73.0388 121.7962 L72.7101 121.9606 "/>
<path d="M72.7101 121.9606 L72.5458 122.1249 "/>
<path d="M72.5458 122.1249 L72.3815 122.4535 "/>
<path d="M72.3815 122.4535 L72.3815 123.2750 "/>
<path d="M72.3815 123.2750 L72.5458 123.7680 "/>
<path d="M72.3815 124.9182 L75.8321 125.7397 "/>
<path d="M75.8321 125.7397 L73.3674 126.3970 "/>
<path d="M73.3674 126.3970 L75.8321 127.0542 "/>
<path d="M75.8321 127.0542 L72.3815 127.8758 "/>
<path d="M72.7101 129.0259 L72.5458 129.1903 "/>
<path d="M72.5458 129.1903 L72.3815 129.5189 "/>
<path d="M72.3815 129.5189 L72.3815 130.3404 "/>
<path d="M72.3815 130.3404 L72.5458 130.6691 "/>
<path d="M72.5458 130.6691 L72.7101 130.8334 "/>
<path d="M72.7101 130.8334 L73.0388 130.9977 "/>
<path d="M73.0388 130.9977 L73.3674 130.9977 "/>
<path d="M73.3674 130.9977 L73.8603 130.8334 "/>
<path d="M73.8603 130.8334 L75.8321 128.8616 "/>
<path d="M75.8321 128.8616 L75.8321 130.9977 "/>
</g><text x="209.7958" y="183.0558" transform="scale(-1 1) translate(-419.591684 0)" textLength="32.2461" font-size="4.6007" lengthAdjust="spacingAndGlyphs" text-anchor="middle" opacity="0.01" style="font-family:monospace">Conn_01x01</text>
<g class="stroked-text"><desc>Conn_01x01</desc>
<path d="M222.6943 182.5712 L222.8586 182.7356 "/>
<path d="M222.8586 182.7356 L223.3515 182.8999 "/>
<path d="M223.3515 182.8999 L223.6802 182.8999 "/>
<path d="M223.6802 182.8999 L224.1731 182.7356 "/>
<path d="M224.1731 182.7356 L224.5017 182.4069 "/>
<path d="M224.5017 182.4069 L224.6660 182.0783 "/>
<path d="M224.6660 182.0783 L224.8303 181.4211 "/>
<path d="M224.8303 181.4211 L224.8303 180.9281 "/>
<path d="M224.8303 180.9281 L224.6660 180.2709 "/>
<path d="M224.6660 180.2709 L224.5017 179.9423 "/>
<path d="M224.5017 179.9423 L224.1731 179.6136 "/>
<path d="M224.1731 179.6136 L223.6802 179.4493 "/>
<path d="M223.6802 179.4493 L223.3515 179.4493 "/>
<path d="M223.3515 179.4493 L222.8586 179.6136 "/>
<path d="M222.8586 179.6136 L222.6943 179.7780 "/>
<path d="M220.7226 182.8999 L221.0512 182.7356 "/>
<path d="M221.0512 182.7356 L221.2155 182.5712 "/>
<path d="M221.2155 182.5712 L221.3798 182.2426 "/>
<path d="M221.3798 182.2426 L221.3798 181.2568 "/>
<path d="M221.3798 181.2568 L221.2155 180.9281 "/>
<path d="M221.2155 180.9281 L221.0512 180.7638 "/>
<path d="M221.0512 180.7638 L220.7226 180.5995 "/>
<path d="M220.7226 180.5995 L220.2296 180.5995 "/>
<path d="M220.2296 180.5995 L219.9010 180.7638 "/>
<path d="M219.9010 180.7638 L219.7367 180.9281 "/>
<path d="M219.7367 180.9281 L219.5724 181.2568 "/>
<path d="M219.5724 181.2568 L219.5724 182.2426 "/>
<path d="M219.5724 182.2426 L219.7367 182.5712 "/>
<path d="M219.7367 182.5712 L219.9010 182.7356 "/>
<path d="M219.9010 182.7356 L220.2296 182.8999 "/>
<path d="M220.2296 182.8999 L220.7226 182.8999 "/>
<path d="M218.0936 180.5995 L218.0936 182.8999 "/>
<path d="M218.0936 180.9281 L217.9293 180.7638 "/>
<path d="M217.9293 180.7638 L217.6006 180.5995 "/>
<path d="M217.6006 180.5995 L217.1077 180.5995 "/>
<path d="M217.1077 180.5995 L216.7791 180.7638 "/>
<path d="M216.7791 180.7638 L216.6148 181.0924 "/>
<path d="M216.6148 181.0924 L216.6148 182.8999 "/>
<path d="M214.9717 180.5995 L214.9717 182.8999 "/>
<path d="M214.9717 180.9281 L214.8073 180.7638 "/>
<path d="M214.8073 180.7638 L214.4787 180.5995 "/>
<path d="M214.4787 180.5995 L213.9858 180.5995 "/>
<path d="M213.9858 180.5995 L213.6572 180.7638 "/>
<path d="M213.6572 180.7638 L213.4928 181.0924 "/>
<path d="M213.4928 181.0924 L213.4928 182.8999 "/>
<path d="M212.6713 183.2285 L210.0423 183.2285 "/>
<path d="M208.5635 179.4493 L208.2349 179.4493 "/>
<path d="M208.2349 179.4493 L207.9063 179.6136 "/>
<path d="M207.9063 179.6136 L207.7419 179.7780 "/>
<path d="M207.7419 179.7780 L207.5776 180.1066 "/>
<path d="M207.5776 180.1066 L207.4133 180.7638 "/>
<path d="M207.4133 180.7638 L207.4133 181.5854 "/>
<path d="M207.4133 181.5854 L207.5776 182.2426 "/>
<path d="M207.5776 182.2426 L207.7419 182.5712 "/>
<path d="M207.7419 182.5712 L207.9063 182.7356 "/>
<path d="M207.9063 182.7356 L208.2349 182.8999 "/>
<path d="M208.2349 182.8999 L208.5635 182.8999 "/>
<path d="M208.5635 182.8999 L208.8921 182.7356 "/>
<path d="M208.8921 182.7356 L209.0564 182.5712 "/>
<path d="M209.0564 182.5712 L209.2207 182.2426 "/>
<path d="M209.2207 182.2426 L209.3851 181.5854 "/>
<path d="M209.3851 181.5854 L209.3851 180.7638 "/>
<path d="M209.3851 180.7638 L209.2207 180.1066 "/>
<path d="M209.2207 180.1066 L209.0564 179.7780 "/>
<path d="M209.0564 179.7780 L208.8921 179.6136 "/>
<path d="M208.8921 179.6136 L208.5635 179.4493 "/>
<path d="M204.1271 182.8999 L206.0988 182.8999 "/>
<path d="M205.1130 182.8999 L205.1130 179.4493 "/>
<path d="M205.1130 179.4493 L205.4416 179.9423 "/>
<path d="M205.4416 179.9423 L205.7702 180.2709 "/>
<path d="M205.7702 180.2709 L206.0988 180.4352 "/>
<path d="M202.9769 182.8999 L201.1695 180.5995 "/>
<path d="M202.9769 180.5995 L201.1695 182.8999 "/>
<path d="M199.1977 179.4493 L198.8691 179.4493 "/>
<path d="M198.8691 179.4493 L198.5405 179.6136 "/>
<path d="M198.5405 179.6136 L198.3762 179.7780 "/>
<path d="M198.3762 179.7780 L198.2119 180.1066 "/>
<path d="M198.2119 180.1066 L198.0476 180.7638 "/>
<path d="M198.0476 180.7638 L198.0476 181.5854 "/>
<path d="M198.0476 181.5854 L198.2119 182.2426 "/>
<path d="M198.2119 182.2426 L198.3762 182.5712 "/>
<path d="M198.3762 182.5712 L198.5405 182.7356 "/>
<path d="M198.5405 182.7356 L198.8691 182.8999 "/>
<path d="M198.8691 182.8999 L199.1977 182.8999 "/>
<path d="M199.1977 182.8999 L199.5264 182.7356 "/>
<path d="M199.5264 182.7356 L199.6907 182.5712 "/>
<path d="M199.6907 182.5712 L199.8550 182.2426 "/>
<path d="M199.8550 182.2426 L200.0193 181.5854 "/>
<path d="M200.0193 181.5854 L200.0193 180.7638 "/>
<path d="M200.0193 180.7638 L199.8550 180.1066 "/>
<path d="M199.8550 180.1066 L199.6907 179.7780 "/>
<path d="M199.6907 179.7780 L199.5264 179.6136 "/>
<path d="M199.5264 179.6136 L199.1977 179.4493 "/>
<path d="M194.7613 182.8999 L196.7331 182.8999 "/>
<path d="M195.7472 182.8999 L195.7472 179.4493 "/>
<path d="M195.7472 179.4493 L196.0758 179.9423 "/>
<path d="M196.0758 179.9423 L196.4044 180.2709 "/>
<path d="M196.4044 180.2709 L196.7331 180.4352 "/>
</g><text x="209.7958" y="172.7041" transform="scale(-1 1) translate(-419.591684 0)" textLength="6.7779" font-size="4.6007" lengthAdjust="spacingAndGlyphs" text-anchor="middle" opacity="0.01" style="font-family:monospace">J3</text>
<g class="stroked-text"><desc>J3</desc>
<path d="M210.9460 169.0977 L210.9460 171.5624 "/>
<path d="M210.9460 171.5624 L211.1103 172.0553 "/>
<path d="M211.1103 172.0553 L211.4390 172.3839 "/>
<path d="M211.4390 172.3839 L211.9319 172.5482 "/>
<path d="M211.9319 172.5482 L212.2605 172.5482 "/>
<path d="M209.6315 169.0977 L207.4955 169.0977 "/>
<path d="M207.4955 169.0977 L208.6457 170.4122 "/>
<path d="M208.6457 170.4122 L208.1527 170.4122 "/>
<path d="M208.1527 170.4122 L207.8241 170.5765 "/>
<path d="M207.8241 170.5765 L207.6598 170.7408 "/>
<path d="M207.6598 170.7408 L207.4955 171.0694 "/>
<path d="M207.4955 171.0694 L207.4955 171.8910 "/>
<path d="M207.4955 171.8910 L207.6598 172.2196 "/>
<path d="M207.6598 172.2196 L207.8241 172.3839 "/>
<path d="M207.8241 172.3839 L208.1527 172.5482 "/>
<path d="M208.1527 172.5482 L209.1386 172.5482 "/>
<path d="M209.1386 172.5482 L209.4672 172.3839 "/>
<path d="M209.4672 172.3839 L209.6315 172.2196 "/>
</g><text x="149.7433" y="111.4044" transform="scale(-1 1) translate(-299.486590 0)" textLength="13.8432" font-size="4.6007" lengthAdjust="spacingAndGlyphs" text-anchor="middle" opacity="0.01" style="font-family:monospace">OLED</text>
<g class="stroked-text"><desc>OLED</desc>
<path d="M154.7548 107.7979 L154.0975 107.7979 "/>
<path d="M154.0975 107.7979 L153.7689 107.9622 "/>
<path d="M153.7689 107.9622 L153.4403 108.2908 "/>
<path d="M153.4403 108.2908 L153.2760 108.9481 "/>
<path d="M153.2760 108.9481 L153.2760 110.0983 "/>
<path d="M153.2760 110.0983 L153.4403 110.7555 "/>
<path d="M153.4403 110.7555 L153.7689 111.0841 "/>
<path d="M153.7689 111.0841 L154.0975 111.2485 "/>
<path d="M154.0975 111.2485 L154.7548 111.2485 "/>
<path d="M154.7548 111.2485 L155.0834 111.0841 "/>
<path d="M155.0834 111.0841 L155.4120 110.7555 "/>
<path d="M155.4120 110.7555 L155.5764 110.0983 "/>
<path d="M155.5764 110.0983 L155.5764 108.9481 "/>
<path d="M155.5764 108.9481 L155.4120 108.2908 "/>
<path d="M155.4120 108.2908 L155.0834 107.9622 "/>
<path d="M155.0834 107.9622 L154.7548 107.7979 "/>
<path d="M150.1541 111.2485 L151.7972 111.2485 "/>
<path d="M151.7972 111.2485 L151.7972 107.7979 "/>
<path d="M149.0039 109.4410 L147.8537 109.4410 "/>
<path d="M147.3608 111.2485 L149.0039 111.2485 "/>
<path d="M149.0039 111.2485 L149.0039 107.7979 "/>
<path d="M149.0039 107.7979 L147.3608 107.7979 "/>
<path d="M145.8820 111.2485 L145.8820 107.7979 "/>
<path d="M145.8820 107.7979 L145.0604 107.7979 "/>
<path d="M145.0604 107.7979 L144.5675 107.9622 "/>
<path d="M144.5675 107.9622 L144.2389 108.2908 "/>
<path d="M144.2389 108.2908 L144.0745 108.6195 "/>
<path d="M144.0745 108.6195 L143.9102 109.2767 "/>
<path d="M143.9102 109.2767 L143.9102 109.7697 "/>
<path d="M143.9102 109.7697 L144.0745 110.4269 "/>
<path d="M144.0745 110.4269 L144.2389 110.7555 "/>
<path d="M144.2389 110.7555 L144.5675 111.0841 "/>
<path d="M144.5675 111.0841 L145.0604 111.2485 "/>
<path d="M145.0604 111.2485 L145.8820 111.2485 "/>
</g><text x="149.7433" y="116.5802" transform="scale(-1 1) translate(-299.486590 0)" textLength="6.7779" font-size="4.6007" lengthAdjust="spacingAndGlyphs" text-anchor="middle" opacity="0.01" style="font-family:monospace">J8</text>
<g class="stroked-text"><desc>J8</desc>
<path d="M150.8935 112.9737 L150.8935 115.4384 "/>
<path d="M150.8935 115.4384 L151.0578 115.9313 "/>
<path d="M151.0578 115.9313 L151.3864 116.2600 "/>
<path d="M151.3864 116.2600 L151.8793 116.4243 "/>
<path d="M151.8793 116.4243 L152.2080 116.4243 "/>
<path d="M148.7574 114.4525 L149.0860 114.2882 "/>
<path d="M149.0860 114.2882 L149.2504 114.1239 "/>
<path d="M149.2504 114.1239 L149.4147 113.7953 "/>
<path d="M149.4147 113.7953 L149.4147 113.6310 "/>
<path d="M149.4147 113.6310 L149.2504 113.3023 "/>
<path d="M149.2504 113.3023 L149.0860 113.1380 "/>
<path d="M149.0860 113.1380 L148.7574 112.9737 "/>
<path d="M148.7574 112.9737 L148.1002 112.9737 "/>
<path d="M148.1002 112.9737 L147.7716 113.1380 "/>
<path d="M147.7716 113.1380 L147.6072 113.3023 "/>
<path d="M147.6072 113.3023 L147.4429 113.6310 "/>
<path d="M147.4429 113.6310 L147.4429 113.7953 "/>
<path d="M147.4429 113.7953 L147.6072 114.1239 "/>
<path d="M147.6072 114.1239 L147.7716 114.2882 "/>
<path d="M147.7716 114.2882 L148.1002 114.4525 "/>
<path d="M148.1002 114.4525 L148.7574 114.4525 "/>
<path d="M148.7574 114.4525 L149.0860 114.6168 "/>
<path d="M149.0860 114.6168 L149.2504 114.7812 "/>
<path d="M149.2504 114.7812 L149.4147 115.1098 "/>
<path d="M149.4147 115.1098 L149.4147 115.7670 "/>
<path d="M149.4147 115.7670 L149.2504 116.0956 "/>
<path d="M149.2504 116.0956 L149.0860 116.2600 "/>
<path d="M149.0860 116.2600 L148.7574 116.4243 "/>
<path d="M148.7574 116.4243 L148.1002 116.4243 "/>
<path d="M148.1002 116.4243 L147.7716 116.2600 "/>
<path d="M147.7716 116.2600 L147.6072 116.0956 "/>
<path d="M147.6072 116.0956 L147.4429 115.7670 "/>
<path d="M147.4429 115.7670 L147.4429 115.1098 "/>
<path d="M147.4429 115.1098 L147.6072 114.7812 "/>
<path d="M147.6072 114.7812 L147.7716 114.6168 "/>
<path d="M147.7716 114.6168 L148.1002 114.4525 "/>
</g><g transform="rotate(-90.000000 55.4572 125.8794)">
<text x="55.4572" y="127.6047" transform="scale(-1 1) translate(-110.914457 0)" textLength="40.2974" font-size="4.6007" lengthAdjust="spacingAndGlyphs" text-anchor="middle" opacity="0.01" style="font-family:monospace">434133025816</text>
</g>
<g class="stroked-text"><desc>434133025816</desc>
<path d="M54.7262 108.4624 L57.0266 108.4624 "/>
<path d="M53.4117 107.6408 L55.8764 106.8192 "/>
<path d="M55.8764 106.8192 L55.8764 108.9553 "/>
<path d="M53.5761 109.9412 L53.5761 112.0772 "/>
<path d="M53.5761 112.0772 L54.8905 110.9270 "/>
<path d="M54.8905 110.9270 L54.8905 111.4200 "/>
<path d="M54.8905 111.4200 L55.0549 111.7486 "/>
<path d="M55.0549 111.7486 L55.2192 111.9129 "/>
<path d="M55.2192 111.9129 L55.5478 112.0772 "/>
<path d="M55.5478 112.0772 L56.3694 112.0772 "/>
<path d="M56.3694 112.0772 L56.6980 111.9129 "/>
<path d="M56.6980 111.9129 L56.8623 111.7486 "/>
<path d="M56.8623 111.7486 L57.0266 111.4200 "/>
<path d="M57.0266 111.4200 L57.0266 110.4341 "/>
<path d="M57.0266 110.4341 L56.8623 110.1055 "/>
<path d="M56.8623 110.1055 L56.6980 109.9412 "/>
<path d="M54.7262 115.0348 L57.0266 115.0348 "/>
<path d="M53.4117 114.2133 L55.8764 113.3917 "/>
<path d="M55.8764 113.3917 L55.8764 115.5277 "/>
<path d="M57.0266 118.6497 L57.0266 116.6779 "/>
<path d="M57.0266 117.6638 L53.5761 117.6638 "/>
<path d="M53.5761 117.6638 L54.0690 117.3352 "/>
<path d="M54.0690 117.3352 L54.3976 117.0066 "/>
<path d="M54.3976 117.0066 L54.5619 116.6779 "/>
<path d="M53.5761 119.7999 L53.5761 121.9359 "/>
<path d="M53.5761 121.9359 L54.8905 120.7857 "/>
<path d="M54.8905 120.7857 L54.8905 121.2787 "/>
<path d="M54.8905 121.2787 L55.0549 121.6073 "/>
<path d="M55.0549 121.6073 L55.2192 121.7716 "/>
<path d="M55.2192 121.7716 L55.5478 121.9359 "/>
<path d="M55.5478 121.9359 L56.3694 121.9359 "/>
<path d="M56.3694 121.9359 L56.6980 121.7716 "/>
<path d="M56.6980 121.7716 L56.8623 121.6073 "/>
<path d="M56.8623 121.6073 L57.0266 121.2787 "/>
<path d="M57.0266 121.2787 L57.0266 120.2928 "/>
<path d="M57.0266 120.2928 L56.8623 119.9642 "/>
<path d="M56.8623 119.9642 L56.6980 119.7999 "/>
<path d="M53.5761 123.0861 L53.5761 125.2221 "/>
<path d="M53.5761 125.2221 L54.8905 124.0720 "/>
<path d="M54.8905 124.0720 L54.8905 124.5649 "/>
<path d="M54.8905 124.5649 L55.0549 124.8935 "/>
<path d="M55.0549 124.8935 L55.2192 125.0578 "/>
<path d="M55.2192 125.0578 L55.5478 125.2221 "/>
<path d="M55.5478 125.2221 L56.3694 125.2221 "/>
<path d="M56.3694 125.2221 L56.6980 125.0578 "/>
<path d="M56.6980 125.0578 L56.8623 124.8935 "/>
<path d="M56.8623 124.8935 L57.0266 124.5649 "/>
<path d="M57.0266 124.5649 L57.0266 123.5790 "/>
<path d="M57.0266 123.5790 L56.8623 123.2504 "/>
<path d="M56.8623 123.2504 L56.6980 123.0861 "/>
<path d="M53.5761 127.3582 L53.5761 127.6868 "/>
<path d="M53.5761 127.6868 L53.7404 128.0154 "/>
<path d="M53.7404 128.0154 L53.9047 128.1797 "/>
<path d="M53.9047 128.1797 L54.2333 128.3440 "/>
<path d="M54.2333 128.3440 L54.8905 128.5084 "/>
<path d="M54.8905 128.5084 L55.7121 128.5084 "/>
<path d="M55.7121 128.5084 L56.3694 128.3440 "/>
<path d="M56.3694 128.3440 L56.6980 128.1797 "/>
<path d="M56.6980 128.1797 L56.8623 128.0154 "/>
<path d="M56.8623 128.0154 L57.0266 127.6868 "/>
<path d="M57.0266 127.6868 L57.0266 127.3582 "/>
<path d="M57.0266 127.3582 L56.8623 127.0296 "/>
<path d="M56.8623 127.0296 L56.6980 126.8652 "/>
<path d="M56.6980 126.8652 L56.3694 126.7009 "/>
<path d="M56.3694 126.7009 L55.7121 126.5366 "/>
<path d="M55.7121 126.5366 L54.8905 126.5366 "/>
<path d="M54.8905 126.5366 L54.2333 126.7009 "/>
<path d="M54.2333 126.7009 L53.9047 126.8652 "/>
<path d="M53.9047 126.8652 L53.7404 127.0296 "/>
<path d="M53.7404 127.0296 L53.5761 127.3582 "/>
<path d="M53.9047 129.8229 L53.7404 129.9872 "/>
<path d="M53.7404 129.9872 L53.5761 130.3158 "/>
<path d="M53.5761 130.3158 L53.5761 131.1373 "/>
<path d="M53.5761 131.1373 L53.7404 131.4660 "/>
<path d="M53.7404 131.4660 L53.9047 131.6303 "/>
<path d="M53.9047 131.6303 L54.2333 131.7946 "/>
<path d="M54.2333 131.7946 L54.5619 131.7946 "/>
<path d="M54.5619 131.7946 L55.0549 131.6303 "/>
<path d="M55.0549 131.6303 L57.0266 129.6585 "/>
<path d="M57.0266 129.6585 L57.0266 131.7946 "/>
<path d="M53.5761 134.9165 L53.5761 133.2734 "/>
<path d="M53.5761 133.2734 L55.2192 133.1091 "/>
<path d="M55.2192 133.1091 L55.0549 133.2734 "/>
<path d="M55.0549 133.2734 L54.8905 133.6020 "/>
<path d="M54.8905 133.6020 L54.8905 134.4236 "/>
<path d="M54.8905 134.4236 L55.0549 134.7522 "/>
<path d="M55.0549 134.7522 L55.2192 134.9165 "/>
<path d="M55.2192 134.9165 L55.5478 135.0808 "/>
<path d="M55.5478 135.0808 L56.3694 135.0808 "/>
<path d="M56.3694 135.0808 L56.6980 134.9165 "/>
<path d="M56.6980 134.9165 L56.8623 134.7522 "/>
<path d="M56.8623 134.7522 L57.0266 134.4236 "/>
<path d="M57.0266 134.4236 L57.0266 133.6020 "/>
<path d="M57.0266 133.6020 L56.8623 133.2734 "/>
<path d="M56.8623 133.2734 L56.6980 133.1091 "/>
<path d="M55.0549 137.0526 L54.8905 136.7239 "/>
<path d="M54.8905 136.7239 L54.7262 136.5596 "/>
<path d="M54.7262 136.5596 L54.3976 136.3953 "/>
<path d="M54.3976 136.3953 L54.2333 136.3953 "/>
<path d="M54.2333 136.3953 L53.9047 136.5596 "/>
<path d="M53.9047 136.5596 L53.7404 136.7239 "/>
<path d="M53.7404 136.7239 L53.5761 137.0526 "/>
<path d="M53.5761 137.0526 L53.5761 137.7098 "/>
<path d="M53.5761 137.7098 L53.7404 138.0384 "/>
<path d="M53.7404 138.0384 L53.9047 138.2027 "/>
<path d="M53.9047 138.2027 L54.2333 138.3671 "/>
<path d="M54.2333 138.3671 L54.3976 138.3671 "/>
<path d="M54.3976 138.3671 L54.7262 138.2027 "/>
<path d="M54.7262 138.2027 L54.8905 138.0384 "/>
<path d="M54.8905 138.0384 L55.0549 137.7098 "/>
<path d="M55.0549 137.7098 L55.0549 137.0526 "/>
<path d="M55.0549 137.0526 L55.2192 136.7239 "/>
<path d="M55.2192 136.7239 L55.3835 136.5596 "/>
<path d="M55.3835 136.5596 L55.7121 136.3953 "/>
<path d="M55.7121 136.3953 L56.3694 136.3953 "/>
<path d="M56.3694 136.3953 L56.6980 136.5596 "/>
<path d="M56.6980 136.5596 L56.8623 136.7239 "/>
<path d="M56.8623 136.7239 L57.0266 137.0526 "/>
<path d="M57.0266 137.0526 L57.0266 137.7098 "/>
<path d="M57.0266 137.7098 L56.8623 138.0384 "/>
<path d="M56.8623 138.0384 L56.6980 138.2027 "/>
<path d="M56.6980 138.2027 L56.3694 138.3671 "/>
<path d="M56.3694 138.3671 L55.7121 138.3671 "/>
<path d="M55.7121 138.3671 L55.3835 138.2027 "/>
<path d="M55.3835 138.2027 L55.2192 138.0384 "/>
<path d="M55.2192 138.0384 L55.0549 137.7098 "/>
<path d="M57.0266 141.6533 L57.0266 139.6815 "/>
<path d="M57.0266 140.6674 L53.5761 140.6674 "/>
<path d="M53.5761 140.6674 L54.0690 140.3388 "/>
<path d="M54.0690 140.3388 L54.3976 140.0102 "/>
<path d="M54.3976 140.0102 L54.5619 139.6815 "/>
<path d="M53.5761 144.6109 L53.5761 143.9536 "/>
<path d="M53.5761 143.9536 L53.7404 143.6250 "/>
<path d="M53.7404 143.6250 L53.9047 143.4607 "/>
<path d="M53.9047 143.4607 L54.3976 143.1321 "/>
<path d="M54.3976 143.1321 L55.0549 142.9678 "/>
<path d="M55.0549 142.9678 L56.3694 142.9678 "/>
<path d="M56.3694 142.9678 L56.6980 143.1321 "/>
<path d="M56.6980 143.1321 L56.8623 143.2964 "/>
<path d="M56.8623 143.2964 L57.0266 143.6250 "/>
<path d="M57.0266 143.6250 L57.0266 144.2823 "/>
<path d="M57.0266 144.2823 L56.8623 144.6109 "/>
<path d="M56.8623 144.6109 L56.6980 144.7752 "/>
<path d="M56.6980 144.7752 L56.3694 144.9395 "/>
<path d="M56.3694 144.9395 L55.5478 144.9395 "/>
<path d="M55.5478 144.9395 L55.2192 144.7752 "/>
<path d="M55.2192 144.7752 L55.0549 144.6109 "/>
<path d="M55.0549 144.6109 L54.8905 144.2823 "/>
<path d="M54.8905 144.2823 L54.8905 143.6250 "/>
<path d="M54.8905 143.6250 L55.0549 143.2964 "/>
<path d="M55.0549 143.2964 L55.2192 143.1321 "/>
<path d="M55.2192 143.1321 L55.5478 142.9678 "/>
</g><g transform="rotate(-90.000000 46.6583 126.0519)">
<text x="46.6583" y="127.7772" transform="scale(-1 1) translate(-93.316692 0)" textLength="11.3786" font-size="4.6007" lengthAdjust="spacingAndGlyphs" text-anchor="middle" opacity="0.01" style="font-family:monospace">SW4</text>
</g>
<g class="stroked-text"><desc>SW4</desc>
<path d="M48.0634 121.4512 L48.2277 121.9441 "/>
<path d="M48.2277 121.9441 L48.2277 122.7657 "/>
<path d="M48.2277 122.7657 L48.0634 123.0943 "/>
<path d="M48.0634 123.0943 L47.8991 123.2586 "/>
<path d="M47.8991 123.2586 L47.5705 123.4229 "/>
<path d="M47.5705 123.4229 L47.2418 123.4229 "/>
<path d="M47.2418 123.4229 L46.9132 123.2586 "/>
<path d="M46.9132 123.2586 L46.7489 123.0943 "/>
<path d="M46.7489 123.0943 L46.5846 122.7657 "/>
<path d="M46.5846 122.7657 L46.4203 122.1084 "/>
<path d="M46.4203 122.1084 L46.2560 121.7798 "/>
<path d="M46.2560 121.7798 L46.0917 121.6155 "/>
<path d="M46.0917 121.6155 L45.7630 121.4512 "/>
<path d="M45.7630 121.4512 L45.4344 121.4512 "/>
<path d="M45.4344 121.4512 L45.1058 121.6155 "/>
<path d="M45.1058 121.6155 L44.9415 121.7798 "/>
<path d="M44.9415 121.7798 L44.7772 122.1084 "/>
<path d="M44.7772 122.1084 L44.7772 122.9300 "/>
<path d="M44.7772 122.9300 L44.9415 123.4229 "/>
<path d="M44.7772 124.5731 L48.2277 125.3947 "/>
<path d="M48.2277 125.3947 L45.7630 126.0519 "/>
<path d="M45.7630 126.0519 L48.2277 126.7092 "/>
<path d="M48.2277 126.7092 L44.7772 127.5307 "/>
<path d="M45.9274 130.3240 L48.2277 130.3240 "/>
<path d="M44.6129 129.5024 L47.0775 128.6809 "/>
<path d="M47.0775 128.6809 L47.0775 130.8169 "/>
</g><g transform="rotate(-90.000000 82.9753 153.6562)">
<text x="82.9753" y="155.3815" transform="scale(-1 1) translate(-165.950606 0)" textLength="40.2974" font-size="4.6007" lengthAdjust="spacingAndGlyphs" text-anchor="middle" opacity="0.01" style="font-family:monospace">434133025816</text>
</g>
<g class="stroked-text"><desc>434133025816</desc>
<path d="M82.2443 136.2392 L84.5447 136.2392 "/>
<path d="M80.9298 135.4177 L83.3945 134.5961 "/>
<path d="M83.3945 134.5961 L83.3945 136.7322 "/>
<path d="M81.0941 137.7180 L81.0941 139.8541 "/>
<path d="M81.0941 139.8541 L82.4086 138.7039 "/>
<path d="M82.4086 138.7039 L82.4086 139.1968 "/>
<path d="M82.4086 139.1968 L82.5729 139.5254 "/>
<path d="M82.5729 139.5254 L82.7372 139.6898 "/>
<path d="M82.7372 139.6898 L83.0659 139.8541 "/>
<path d="M83.0659 139.8541 L83.8874 139.8541 "/>
<path d="M83.8874 139.8541 L84.2160 139.6898 "/>
<path d="M84.2160 139.6898 L84.3804 139.5254 "/>
<path d="M84.3804 139.5254 L84.5447 139.1968 "/>
<path d="M84.5447 139.1968 L84.5447 138.2110 "/>
<path d="M84.5447 138.2110 L84.3804 137.8823 "/>
<path d="M84.3804 137.8823 L84.2160 137.7180 "/>
<path d="M82.2443 142.8117 L84.5447 142.8117 "/>
<path d="M80.9298 141.9901 L83.3945 141.1686 "/>
<path d="M83.3945 141.1686 L83.3945 143.3046 "/>
<path d="M84.5447 146.4265 L84.5447 144.4548 "/>
<path d="M84.5447 145.4407 L81.0941 145.4407 "/>
<path d="M81.0941 145.4407 L81.5871 145.1120 "/>
<path d="M81.5871 145.1120 L81.9157 144.7834 "/>
<path d="M81.9157 144.7834 L82.0800 144.4548 "/>
<path d="M81.0941 147.5767 L81.0941 149.7128 "/>
<path d="M81.0941 149.7128 L82.4086 148.5626 "/>
<path d="M82.4086 148.5626 L82.4086 149.0555 "/>
<path d="M82.4086 149.0555 L82.5729 149.3841 "/>
<path d="M82.5729 149.3841 L82.7372 149.5485 "/>
<path d="M82.7372 149.5485 L83.0659 149.7128 "/>
<path d="M83.0659 149.7128 L83.8874 149.7128 "/>
<path d="M83.8874 149.7128 L84.2160 149.5485 "/>
<path d="M84.2160 149.5485 L84.3804 149.3841 "/>
<path d="M84.3804 149.3841 L84.5447 149.0555 "/>
<path d="M84.5447 149.0555 L84.5447 148.0697 "/>
<path d="M84.5447 148.0697 L84.3804 147.7410 "/>
<path d="M84.3804 147.7410 L84.2160 147.5767 "/>
<path d="M81.0941 150.8629 L81.0941 152.9990 "/>
<path d="M81.0941 152.9990 L82.4086 151.8488 "/>
<path d="M82.4086 151.8488 L82.4086 152.3417 "/>
<path d="M82.4086 152.3417 L82.5729 152.6704 "/>
<path d="M82.5729 152.6704 L82.7372 152.8347 "/>
<path d="M82.7372 152.8347 L83.0659 152.9990 "/>
<path d="M83.0659 152.9990 L83.8874 152.9990 "/>
<path d="M83.8874 152.9990 L84.2160 152.8347 "/>
<path d="M84.2160 152.8347 L84.3804 152.6704 "/>
<path d="M84.3804 152.6704 L84.5447 152.3417 "/>
<path d="M84.5447 152.3417 L84.5447 151.3559 "/>
<path d="M84.5447 151.3559 L84.3804 151.0273 "/>
<path d="M84.3804 151.0273 L84.2160 150.8629 "/>
<path d="M81.0941 155.1350 L81.0941 155.4637 "/>
<path d="M81.0941 155.4637 L81.2584 155.7923 "/>
<path d="M81.2584 155.7923 L81.4228 155.9566 "/>
<path d="M81.4228 155.9566 L81.7514 156.1209 "/>
<path d="M81.7514 156.1209 L82.4086 156.2852 "/>
<path d="M82.4086 156.2852 L83.2302 156.2852 "/>
<path d="M83.2302 156.2852 L83.8874 156.1209 "/>
<path d="M83.8874 156.1209 L84.2160 155.9566 "/>
<path d="M84.2160 155.9566 L84.3804 155.7923 "/>
<path d="M84.3804 155.7923 L84.5447 155.4637 "/>
<path d="M84.5447 155.4637 L84.5447 155.1350 "/>
<path d="M84.5447 155.1350 L84.3804 154.8064 "/>
<path d="M84.3804 154.8064 L84.2160 154.6421 "/>
<path d="M84.2160 154.6421 L83.8874 154.4778 "/>
<path d="M83.8874 154.4778 L83.2302 154.3135 "/>
<path d="M83.2302 154.3135 L82.4086 154.3135 "/>
<path d="M82.4086 154.3135 L81.7514 154.4778 "/>
<path d="M81.7514 154.4778 L81.4228 154.6421 "/>
<path d="M81.4228 154.6421 L81.2584 154.8064 "/>
<path d="M81.2584 154.8064 L81.0941 155.1350 "/>
<path d="M81.4228 157.5997 L81.2584 157.7640 "/>
<path d="M81.2584 157.7640 L81.0941 158.0927 "/>
<path d="M81.0941 158.0927 L81.0941 158.9142 "/>
<path d="M81.0941 158.9142 L81.2584 159.2428 "/>
<path d="M81.2584 159.2428 L81.4228 159.4071 "/>
<path d="M81.4228 159.4071 L81.7514 159.5715 "/>
<path d="M81.7514 159.5715 L82.0800 159.5715 "/>
<path d="M82.0800 159.5715 L82.5729 159.4071 "/>
<path d="M82.5729 159.4071 L84.5447 157.4354 "/>
<path d="M84.5447 157.4354 L84.5447 159.5715 "/>
<path d="M81.0941 162.6934 L81.0941 161.0503 "/>
<path d="M81.0941 161.0503 L82.7372 160.8860 "/>
<path d="M82.7372 160.8860 L82.5729 161.0503 "/>
<path d="M82.5729 161.0503 L82.4086 161.3789 "/>
<path d="M82.4086 161.3789 L82.4086 162.2004 "/>
<path d="M82.4086 162.2004 L82.5729 162.5291 "/>
<path d="M82.5729 162.5291 L82.7372 162.6934 "/>
<path d="M82.7372 162.6934 L83.0659 162.8577 "/>
<path d="M83.0659 162.8577 L83.8874 162.8577 "/>
<path d="M83.8874 162.8577 L84.2160 162.6934 "/>
<path d="M84.2160 162.6934 L84.3804 162.5291 "/>
<path d="M84.3804 162.5291 L84.5447 162.2004 "/>
<path d="M84.5447 162.2004 L84.5447 161.3789 "/>
<path d="M84.5447 161.3789 L84.3804 161.0503 "/>
<path d="M84.3804 161.0503 L84.2160 160.8860 "/>
<path d="M82.5729 164.8294 L82.4086 164.5008 "/>
<path d="M82.4086 164.5008 L82.2443 164.3365 "/>
<path d="M82.2443 164.3365 L81.9157 164.1722 "/>
<path d="M81.9157 164.1722 L81.7514 164.1722 "/>
<path d="M81.7514 164.1722 L81.4228 164.3365 "/>
<path d="M81.4228 164.3365 L81.2584 164.5008 "/>
<path d="M81.2584 164.5008 L81.0941 164.8294 "/>
<path d="M81.0941 164.8294 L81.0941 165.4867 "/>
<path d="M81.0941 165.4867 L81.2584 165.8153 "/>
<path d="M81.2584 165.8153 L81.4228 165.9796 "/>
<path d="M81.4228 165.9796 L81.7514 166.1439 "/>
<path d="M81.7514 166.1439 L81.9157 166.1439 "/>
<path d="M81.9157 166.1439 L82.2443 165.9796 "/>
<path d="M82.2443 165.9796 L82.4086 165.8153 "/>
<path d="M82.4086 165.8153 L82.5729 165.4867 "/>
<path d="M82.5729 165.4867 L82.5729 164.8294 "/>
<path d="M82.5729 164.8294 L82.7372 164.5008 "/>
<path d="M82.7372 164.5008 L82.9016 164.3365 "/>
<path d="M82.9016 164.3365 L83.2302 164.1722 "/>
<path d="M83.2302 164.1722 L83.8874 164.1722 "/>
<path d="M83.8874 164.1722 L84.2160 164.3365 "/>
<path d="M84.2160 164.3365 L84.3804 164.5008 "/>
<path d="M84.3804 164.5008 L84.5447 164.8294 "/>
<path d="M84.5447 164.8294 L84.5447 165.4867 "/>
<path d="M84.5447 165.4867 L84.3804 165.8153 "/>
<path d="M84.3804 165.8153 L84.2160 165.9796 "/>
<path d="M84.2160 165.9796 L83.8874 166.1439 "/>
<path d="M83.8874 166.1439 L83.2302 166.1439 "/>
<path d="M83.2302 166.1439 L82.9016 165.9796 "/>
<path d="M82.9016 165.9796 L82.7372 165.8153 "/>
<path d="M82.7372 165.8153 L82.5729 165.4867 "/>
<path d="M84.5447 169.4301 L84.5447 167.4584 "/>
<path d="M84.5447 168.4443 L81.0941 168.4443 "/>
<path d="M81.0941 168.4443 L81.5871 168.1157 "/>
<path d="M81.5871 168.1157 L81.9157 167.7870 "/>
<path d="M81.9157 167.7870 L82.0800 167.4584 "/>
<path d="M81.0941 172.3878 L81.0941 171.7305 "/>
<path d="M81.0941 171.7305 L81.2584 171.4019 "/>
<path d="M81.2584 171.4019 L81.4228 171.2376 "/>
<path d="M81.4228 171.2376 L81.9157 170.9090 "/>
<path d="M81.9157 170.9090 L82.5729 170.7446 "/>
<path d="M82.5729 170.7446 L83.8874 170.7446 "/>
<path d="M83.8874 170.7446 L84.2160 170.9090 "/>
<path d="M84.2160 170.9090 L84.3804 171.0733 "/>
<path d="M84.3804 171.0733 L84.5447 171.4019 "/>
<path d="M84.5447 171.4019 L84.5447 172.0591 "/>
<path d="M84.5447 172.0591 L84.3804 172.3878 "/>
<path d="M84.3804 172.3878 L84.2160 172.5521 "/>
<path d="M84.2160 172.5521 L83.8874 172.7164 "/>
<path d="M83.8874 172.7164 L83.0659 172.7164 "/>
<path d="M83.0659 172.7164 L82.7372 172.5521 "/>
<path d="M82.7372 172.5521 L82.5729 172.3878 "/>
<path d="M82.5729 172.3878 L82.4086 172.0591 "/>
<path d="M82.4086 172.0591 L82.4086 171.4019 "/>
<path d="M82.4086 171.4019 L82.5729 171.0733 "/>
<path d="M82.5729 171.0733 L82.7372 170.9090 "/>
<path d="M82.7372 170.9090 L83.0659 170.7446 "/>
</g><g transform="rotate(-90.000000 74.1764 153.8288)">
<text x="74.1764" y="155.5540" transform="scale(-1 1) translate(-148.352840 0)" textLength="11.3786" font-size="4.6007" lengthAdjust="spacingAndGlyphs" text-anchor="middle" opacity="0.01" style="font-family:monospace">SW3</text>
</g>
<g class="stroked-text"><desc>SW3</desc>
<path d="M75.5815 149.2280 L75.7458 149.7210 "/>
<path d="M75.7458 149.7210 L75.7458 150.5425 "/>
<path d="M75.7458 150.5425 L75.5815 150.8712 "/>
<path d="M75.5815 150.8712 L75.4172 151.0355 "/>
<path d="M75.4172 151.0355 L75.0885 151.1998 "/>
<path d="M75.0885 151.1998 L74.7599 151.1998 "/>
<path d="M74.7599 151.1998 L74.4313 151.0355 "/>
<path d="M74.4313 151.0355 L74.2670 150.8712 "/>
<path d="M74.2670 150.8712 L74.1027 150.5425 "/>
<path d="M74.1027 150.5425 L73.9384 149.8853 "/>
<path d="M73.9384 149.8853 L73.7741 149.5567 "/>
<path d="M73.7741 149.5567 L73.6097 149.3924 "/>
<path d="M73.6097 149.3924 L73.2811 149.2280 "/>
<path d="M73.2811 149.2280 L72.9525 149.2280 "/>
<path d="M72.9525 149.2280 L72.6239 149.3924 "/>
<path d="M72.6239 149.3924 L72.4596 149.5567 "/>
<path d="M72.4596 149.5567 L72.2953 149.8853 "/>
<path d="M72.2953 149.8853 L72.2953 150.7069 "/>
<path d="M72.2953 150.7069 L72.4596 151.1998 "/>
<path d="M72.2953 152.3500 L75.7458 153.1715 "/>
<path d="M75.7458 153.1715 L73.2811 153.8288 "/>
<path d="M73.2811 153.8288 L75.7458 154.4860 "/>
<path d="M75.7458 154.4860 L72.2953 155.3076 "/>
<path d="M72.2953 156.2934 L72.2953 158.4295 "/>
<path d="M72.2953 158.4295 L73.6097 157.2793 "/>
<path d="M73.6097 157.2793 L73.6097 157.7722 "/>
<path d="M73.6097 157.7722 L73.7741 158.1009 "/>
<path d="M73.7741 158.1009 L73.9384 158.2652 "/>
<path d="M73.9384 158.2652 L74.2670 158.4295 "/>
<path d="M74.2670 158.4295 L75.0885 158.4295 "/>
<path d="M75.0885 158.4295 L75.4172 158.2652 "/>
<path d="M75.4172 158.2652 L75.5815 158.1009 "/>
<path d="M75.5815 158.1009 L75.7458 157.7722 "/>
<path d="M75.7458 157.7722 L75.7458 156.7864 "/>
<path d="M75.7458 156.7864 L75.5815 156.4578 "/>
<path d="M75.5815 156.4578 L75.4172 156.2934 "/>
</g><text x="217.3870" y="183.0558" transform="scale(-1 1) translate(-434.774069 0)" textLength="32.2461" font-size="4.6007" lengthAdjust="spacingAndGlyphs" text-anchor="middle" opacity="0.01" style="font-family:monospace">Conn_01x01</text>
<g class="stroked-text"><desc>Conn_01x01</desc>
<path d="M230.2855 182.5712 L230.4498 182.7356 "/>
<path d="M230.4498 182.7356 L230.9427 182.8999 "/>
<path d="M230.9427 182.8999 L231.2714 182.8999 "/>
<path d="M231.2714 182.8999 L231.7643 182.7356 "/>
<path d="M231.7643 182.7356 L232.0929 182.4069 "/>
<path d="M232.0929 182.4069 L232.2572 182.0783 "/>
<path d="M232.2572 182.0783 L232.4215 181.4211 "/>
<path d="M232.4215 181.4211 L232.4215 180.9281 "/>
<path d="M232.4215 180.9281 L232.2572 180.2709 "/>
<path d="M232.2572 180.2709 L232.0929 179.9423 "/>
<path d="M232.0929 179.9423 L231.7643 179.6136 "/>
<path d="M231.7643 179.6136 L231.2714 179.4493 "/>
<path d="M231.2714 179.4493 L230.9427 179.4493 "/>
<path d="M230.9427 179.4493 L230.4498 179.6136 "/>
<path d="M230.4498 179.6136 L230.2855 179.7780 "/>
<path d="M228.3137 182.8999 L228.6424 182.7356 "/>
<path d="M228.6424 182.7356 L228.8067 182.5712 "/>
<path d="M228.8067 182.5712 L228.9710 182.2426 "/>
<path d="M228.9710 182.2426 L228.9710 181.2568 "/>
<path d="M228.9710 181.2568 L228.8067 180.9281 "/>
<path d="M228.8067 180.9281 L228.6424 180.7638 "/>
<path d="M228.6424 180.7638 L228.3137 180.5995 "/>
<path d="M228.3137 180.5995 L227.8208 180.5995 "/>
<path d="M227.8208 180.5995 L227.4922 180.7638 "/>
<path d="M227.4922 180.7638 L227.3279 180.9281 "/>
<path d="M227.3279 180.9281 L227.1636 181.2568 "/>
<path d="M227.1636 181.2568 L227.1636 182.2426 "/>
<path d="M227.1636 182.2426 L227.3279 182.5712 "/>
<path d="M227.3279 182.5712 L227.4922 182.7356 "/>
<path d="M227.4922 182.7356 L227.8208 182.8999 "/>
<path d="M227.8208 182.8999 L228.3137 182.8999 "/>
<path d="M225.6848 180.5995 L225.6848 182.8999 "/>
<path d="M225.6848 180.9281 L225.5205 180.7638 "/>
<path d="M225.5205 180.7638 L225.1918 180.5995 "/>
<path d="M225.1918 180.5995 L224.6989 180.5995 "/>
<path d="M224.6989 180.5995 L224.3703 180.7638 "/>
<path d="M224.3703 180.7638 L224.2060 181.0924 "/>
<path d="M224.2060 181.0924 L224.2060 182.8999 "/>
<path d="M222.5628 180.5995 L222.5628 182.8999 "/>
<path d="M222.5628 180.9281 L222.3985 180.7638 "/>
<path d="M222.3985 180.7638 L222.0699 180.5995 "/>
<path d="M222.0699 180.5995 L221.5770 180.5995 "/>
<path d="M221.5770 180.5995 L221.2484 180.7638 "/>
<path d="M221.2484 180.7638 L221.0840 181.0924 "/>
<path d="M221.0840 181.0924 L221.0840 182.8999 "/>
<path d="M220.2625 183.2285 L217.6335 183.2285 "/>
<path d="M216.1547 179.4493 L215.8261 179.4493 "/>
<path d="M215.8261 179.4493 L215.4974 179.6136 "/>
<path d="M215.4974 179.6136 L215.3331 179.7780 "/>
<path d="M215.3331 179.7780 L215.1688 180.1066 "/>
<path d="M215.1688 180.1066 L215.0045 180.7638 "/>
<path d="M215.0045 180.7638 L215.0045 181.5854 "/>
<path d="M215.0045 181.5854 L215.1688 182.2426 "/>
<path d="M215.1688 182.2426 L215.3331 182.5712 "/>
<path d="M215.3331 182.5712 L215.4974 182.7356 "/>
<path d="M215.4974 182.7356 L215.8261 182.8999 "/>
<path d="M215.8261 182.8999 L216.1547 182.8999 "/>
<path d="M216.1547 182.8999 L216.4833 182.7356 "/>
<path d="M216.4833 182.7356 L216.6476 182.5712 "/>
<path d="M216.6476 182.5712 L216.8119 182.2426 "/>
<path d="M216.8119 182.2426 L216.9763 181.5854 "/>
<path d="M216.9763 181.5854 L216.9763 180.7638 "/>
<path d="M216.9763 180.7638 L216.8119 180.1066 "/>
<path d="M216.8119 180.1066 L216.6476 179.7780 "/>
<path d="M216.6476 179.7780 L216.4833 179.6136 "/>
<path d="M216.4833 179.6136 L216.1547 179.4493 "/>
<path d="M211.7183 182.8999 L213.6900 182.8999 "/>
<path d="M212.7042 182.8999 L212.7042 179.4493 "/>
<path d="M212.7042 179.4493 L213.0328 179.9423 "/>
<path d="M213.0328 179.9423 L213.3614 180.2709 "/>
<path d="M213.3614 180.2709 L213.6900 180.4352 "/>
<path d="M210.5681 182.8999 L208.7607 180.5995 "/>
<path d="M210.5681 180.5995 L208.7607 182.8999 "/>
<path d="M206.7889 179.4493 L206.4603 179.4493 "/>
<path d="M206.4603 179.4493 L206.1317 179.6136 "/>
<path d="M206.1317 179.6136 L205.9674 179.7780 "/>
<path d="M205.9674 179.7780 L205.8031 180.1066 "/>
<path d="M205.8031 180.1066 L205.6388 180.7638 "/>
<path d="M205.6388 180.7638 L205.6388 181.5854 "/>
<path d="M205.6388 181.5854 L205.8031 182.2426 "/>
<path d="M205.8031 182.2426 L205.9674 182.5712 "/>
<path d="M205.9674 182.5712 L206.1317 182.7356 "/>
<path d="M206.1317 182.7356 L206.4603 182.8999 "/>
<path d="M206.4603 182.8999 L206.7889 182.8999 "/>
<path d="M206.7889 182.8999 L207.1176 182.7356 "/>
<path d="M207.1176 182.7356 L207.2819 182.5712 "/>
<path d="M207.2819 182.5712 L207.4462 182.2426 "/>
<path d="M207.4462 182.2426 L207.6105 181.5854 "/>
<path d="M207.6105 181.5854 L207.6105 180.7638 "/>
<path d="M207.6105 180.7638 L207.4462 180.1066 "/>
<path d="M207.4462 180.1066 L207.2819 179.7780 "/>
<path d="M207.2819 179.7780 L207.1176 179.6136 "/>
<path d="M207.1176 179.6136 L206.7889 179.4493 "/>
<path d="M202.3525 182.8999 L204.3243 182.8999 "/>
<path d="M203.3384 182.8999 L203.3384 179.4493 "/>
<path d="M203.3384 179.4493 L203.6670 179.9423 "/>
<path d="M203.6670 179.9423 L203.9956 180.2709 "/>
<path d="M203.9956 180.2709 L204.3243 180.4352 "/>
</g><text x="217.3870" y="172.7041" transform="scale(-1 1) translate(-434.774069 0)" textLength="6.7779" font-size="4.6007" lengthAdjust="spacingAndGlyphs" text-anchor="middle" opacity="0.01" style="font-family:monospace">J4</text>
<g class="stroked-text"><desc>J4</desc>
<path d="M218.5372 169.0977 L218.5372 171.5624 "/>
<path d="M218.5372 171.5624 L218.7015 172.0553 "/>
<path d="M218.7015 172.0553 L219.0301 172.3839 "/>
<path d="M219.0301 172.3839 L219.5231 172.5482 "/>
<path d="M219.5231 172.5482 L219.8517 172.5482 "/>
<path d="M215.4153 170.2479 L215.4153 172.5482 "/>
<path d="M216.2369 168.9334 L217.0584 171.3981 "/>
<path d="M217.0584 171.3981 L214.9224 171.3981 "/>
</g></g>
<g style="fill:#000084; fill-opacity:0.0;  stroke:#000084; stroke-width:0.3451; stroke-opacity:1;  stroke-linecap:round; stroke-linejoin:round;">
<path d="M52.0929 146.0651 L41.0512 146.0651 "/>
<path d="M50.3677 146.0651 L52.0929 147.7903 "/>
<path d="M42.7765 146.0651 L41.0512 147.7903 "/>
<path d="M41.0512 146.0651 L41.0512 160.5573 "/>
<path d="M42.7765 150.2057 L42.7765 156.0716 "/>
<path d="M50.3677 156.0716 L50.3677 150.2057 "/>
<path d="M52.0929 158.8321 L50.3677 160.5573 "/>
<path d="M41.0512 158.8321 L42.7765 160.5573 "/>
<path d="M52.0929 160.5573 L52.0929 146.0651 "/>
<path d="M41.0512 160.5573 L52.0929 160.5573 "/>
<path d="M50.3677 150.2057 A4.6932 4.6932 0.0 0 0 42.7765 150.2057"/>
<path d="M42.7765 156.0716 A4.4990 4.4990 0.0 0 0 50.3677 156.0716"/>
<path d="M79.7836 118.9783 L68.7418 118.9783 "/>
<path d="M78.0583 118.9783 L79.7836 120.7036 "/>
<path d="M70.4671 118.9783 L68.7418 120.7036 "/>
<path d="M68.7418 118.9783 L68.7418 133.4706 "/>
<path d="M70.4671 123.1189 L70.4671 128.9849 "/>
<path d="M78.0583 128.9849 L78.0583 123.1189 "/>
<path d="M79.7836 131.7453 L78.0583 133.4706 "/>
<path d="M68.7418 131.7453 L70.4671 133.4706 "/>
<path d="M79.7836 133.4706 L79.7836 118.9783 "/>
<path d="M68.7418 133.4706 L79.7836 133.4706 "/>
<path d="M78.0583 123.1189 A4.6932 4.6932 0.0 0 0 70.4671 123.1189"/>
<path d="M70.4671 128.9849 A4.4990 4.4990 0.0 0 0 78.0583 128.9849"/>
<path d="M52.1792 118.6332 L41.1375 118.6332 "/>
<path d="M50.4539 118.6332 L52.1792 120.3585 "/>
<path d="M42.8627 118.6332 L41.1375 120.3585 "/>
<path d="M41.1375 118.6332 L41.1375 133.1255 "/>
<path d="M42.8627 122.7739 L42.8627 128.6398 "/>
<path d="M50.4539 128.6398 L50.4539 122.7739 "/>
<path d="M52.1792 131.4002 L50.4539 133.1255 "/>
<path d="M41.1375 131.4002 L42.8627 133.1255 "/>
<path d="M52.1792 133.1255 L52.1792 118.6332 "/>
<path d="M41.1375 133.1255 L52.1792 133.1255 "/>
<path d="M50.4539 122.7739 A4.6932 4.6932 0.0 0 0 42.8628 122.7739"/>
<path d="M42.8628 128.6398 A4.4990 4.4990 0.0 0 0 50.4539 128.6398"/>
<path d="M79.6973 146.4101 L68.6556 146.4101 "/>
<path d="M77.9720 146.4101 L79.6973 148.1354 "/>
<path d="M70.3808 146.4101 L68.6556 148.1354 "/>
<path d="M68.6556 146.4101 L68.6556 160.9024 "/>
<path d="M70.3808 150.5508 L70.3808 156.4167 "/>
<path d="M77.9720 156.4167 L77.9720 150.5508 "/>
<path d="M79.6973 159.1771 L77.9720 160.9024 "/>
<path d="M68.6556 159.1771 L70.3808 160.9024 "/>
<path d="M79.6973 160.9024 L79.6973 146.4101 "/>
<path d="M68.6556 160.9024 L79.6973 160.9024 "/>
<path d="M77.9720 150.5508 A4.6932 4.6932 0.0 0 0 70.3808 150.5508"/>
<path d="M70.3808 156.4167 A4.4990 4.4990 0.0 0 0 77.9720 156.4167"/>
<g>
</g>
<g>
</g>
<g>
</g>
<g>
</g>
<g>
</g>
<g>
</g>
<g>
</g>
<g>
</g>
<g>
</g>
<g>
</g>
<g>
</g>
<g>
</g>
<g>
</g>
<g>
</g>
<g>
</g>
<g>
</g>
<g>
</g>
<g>
</g>
<g>
</g>
<g>
</g>
<g>
</g>
<g>
</g>
<g>
</g>
<g>
</g>
<g>
</g>
<g>
</g>
<g>
</g>
<g>
</g>
<g>
</g>
<g>
</g>
<g>
</g>
<g>
</g>
<g>
</g>
<g>
</g>
<g>
</g>
<g>
</g>
<g>
</g>
<g>
</g>
<g>
</g>
<g>
</g>
<g>
</g>
<g>
</g>
<g>
</g>
<g>
</g>
<g>
</g>
<g>
</g>
<g>
</g>
<g>
</g>
<g>
</g>
<g>
</g>
<g>
</g>
<g>
</g>
<g>
</g>
<g>
</g>
<g>
</g>
<g>
</g>
<g>
</g>
<g>
</g>
<g>
</g>
<g>
</g>
<g>
</g>
<g>
</g>
<g>
</g>
<g>
</g>
<g>
</g>
<g>
</g>
<g>
</g>
<g>
</g>
<g>
</g>
<g>
</g>
<g>
</g>
<g>
</g>
<g>
</g>
<g>
</g>
<g>
</g>
<g>
</g>
<g>
</g>
<g>
</g>
<g>
</g>
<g>
</g>
<g>
</g>
<g>
</g>
<g>
</g>
<g>
</g>
<g>
</g>
<g>
</g>
<g>
</g>
<g>
</g>
<g>
</g>
<g>
</g>
<g>
</g>
<g>
</g>
<g>
</g>
<g>
</g>
<g>
</g>
<g>
</g>
<g>
</g>
<g>
</g>
<g>
</g>
<g>
</g>
<g>
</g>
<g>
</g>
<g>
</g>
<g>
</g>
<g>
</g>
<g>
</g>
<g>
</g>
<g>
</g>
<g>
</g>
<g>
</g>
<g>
</g>
<g>
</g>
<g>
</g>
<g>
</g>
<g>
</g>
<g>
</g>
<g>
</g>
<g>
</g>
<g>
</g>
</g> 
<svg:g><svg:g><svg:title>SVG Image created as AMFOC01-Edge_Cuts.svg date 2023/08/19 22:52:26 </svg:title>
  <svg:desc>Image generated by PCBNEW </svg:desc>
<svg:g style="fill:#C2C200; fill-opacity:1.0000;stroke:#C2C200; stroke-opacity:1.0000; stroke-linecap:round; stroke-linejoin:round;" transform="translate(0 0) scale(1 1)">
</svg:g>
<svg:g style="fill:#C2C200; fill-opacity:0.0;  stroke:#C2C200; stroke-width:0.0000; stroke-opacity:1;  stroke-linecap:round; stroke-linejoin:round;">
</svg:g>
<svg:g style="fill:#C2C200; fill-opacity:0.0;  stroke:#C2C200; stroke-width:0.3451; stroke-opacity:1;  stroke-linecap:round; stroke-linejoin:round;">
<svg:path style="fill:#C2C200; fill-opacity:0.0;  stroke:#C2C200; stroke-width:0.3451; stroke-opacity:1;  stroke-linecap:round; stroke-linejoin:round;fill:none" d="M 26.1449,0.1761 270.8573,0.1761 270.8573,209.8311 26.1449,209.8311 Z"/> 
</svg:g>
<svg:g style="fill:#C2C200; fill-opacity:0.0;  stroke:#C2C200; stroke-width:0.1725; stroke-opacity:1;  stroke-linecap:round; stroke-linejoin:round;">
<svg:path d="M75.5825 200.5836 L75.5825 195.7529 "/>
<svg:path d="M77.3078 194.0276 L81.4484 194.0276 "/>
<svg:path d="M77.3078 202.3089 L81.4484 202.3089 "/>
<svg:path d="M83.1737 200.5836 L83.1737 195.7529 "/>
<svg:path d="M77.3078 194.0276 A1.7253 1.7253 0.0 0 0 75.5825 195.7529"/>
<svg:path d="M75.5825 200.5836 A1.7253 1.7253 0.0 0 0 77.3078 202.3089"/>
<svg:path d="M83.1737 195.7529 A1.7253 1.7253 0.0 0 0 81.4484 194.0276"/>
<svg:path d="M81.4484 202.3089 A1.7253 1.7253 0.0 0 0 83.1737 200.5836"/>
<svg:path d="M96.5359 200.5836 L96.5359 195.7529 "/>
<svg:path d="M98.2612 194.0276 L102.4019 194.0276 "/>
<svg:path d="M98.2612 202.3089 L102.4019 202.3089 "/>
<svg:path d="M104.1271 200.5836 L104.1271 195.7529 "/>
<svg:path d="M98.2612 194.0276 A1.7253 1.7253 0.0 0 0 96.5359 195.7529"/>
<svg:path d="M96.5359 200.5836 A1.7253 1.7253 0.0 0 0 98.2612 202.3089"/>
<svg:path d="M104.1271 195.7529 A1.7253 1.7253 0.0 0 0 102.4019 194.0276"/>
<svg:path d="M102.4019 202.3089 A1.7253 1.7253 0.0 0 0 104.1271 200.5836"/>
<svg:g>
</svg:g>
<svg:g>
</svg:g>
<svg:g>
</svg:g>
<svg:g>
</svg:g>
<svg:g>
</svg:g>
<svg:g>
</svg:g>
<svg:g>
</svg:g>
<svg:g>
</svg:g>
<svg:g>
</svg:g>
<svg:g>
</svg:g>
<svg:g>
</svg:g>
<svg:g>
</svg:g>
<svg:g>
</svg:g>
<svg:g>
</svg:g>
<svg:g>
</svg:g>
<svg:g>
</svg:g>
<svg:g>
</svg:g>
<svg:g>
</svg:g>
<svg:g>
</svg:g>
<svg:g>
</svg:g>
<svg:g>
</svg:g>
<svg:g>
</svg:g>
<svg:g>
</svg:g>
<svg:g>
</svg:g>
<svg:g>
</svg:g>
<svg:g>
</svg:g>
<svg:g>
</svg:g>
<svg:g>
</svg:g>
<svg:g>
</svg:g>
<svg:g>
</svg:g>
<svg:g>
</svg:g>
<svg:g>
</svg:g>
<svg:g>
</svg:g>
<svg:g>
</svg:g>
<svg:g>
</svg:g>
<svg:g>
</svg:g>
<svg:g>
</svg:g>
<svg:g>
</svg:g>
<svg:g>
</svg:g>
<svg:g>
</svg:g>
<svg:g>
</svg:g>
<svg:g>
</svg:g>
<svg:g>
</svg:g>
<svg:g>
</svg:g>
<svg:g>
</svg:g>
<svg:g>
</svg:g>
<svg:g>
</svg:g>
<svg:g>
</svg:g>
<svg:g>
</svg:g>
<svg:g>
</svg:g>
<svg:g>
</svg:g>
<svg:g>
</svg:g>
<svg:g>
</svg:g>
<svg:g>
</svg:g>
<svg:g>
</svg:g>
<svg:g>
</svg:g>
<svg:g>
</svg:g>
<svg:g>
</svg:g>
<svg:g>
</svg:g>
<svg:g>
</svg:g>
<svg:g>
</svg:g>
<svg:g>
</svg:g>
<svg:g>
</svg:g>
<svg:g>
</svg:g>
<svg:g>
</svg:g>
<svg:g>
</svg:g>
<svg:g>
</svg:g>
<svg:g>
</svg:g>
<svg:g>
</svg:g>
<svg:g>
</svg:g>
<svg:g>
</svg:g>
<svg:g>
</svg:g>
<svg:g>
</svg:g>
<svg:g>
</svg:g>
<svg:g>
</svg:g>
<svg:g>
</svg:g>
<svg:g>
</svg:g>
<svg:g>
</svg:g>
<svg:g>
</svg:g>
<svg:g>
</svg:g>
<svg:g>
</svg:g>
<svg:g>
</svg:g>
<svg:g>
</svg:g>
<svg:g>
</svg:g>
<svg:g>
</svg:g>
<svg:g>
</svg:g>
<svg:g>
</svg:g>
<svg:g>
</svg:g>
<svg:g>
</svg:g>
<svg:g>
</svg:g>
<svg:g>
</svg:g>
<svg:g>
</svg:g>
<svg:g>
</svg:g>
<svg:g>
</svg:g>
<svg:g>
</svg:g>
<svg:g>
</svg:g>
<svg:g>
</svg:g>
<svg:g>
</svg:g>
<svg:g>
</svg:g>
<svg:g>
</svg:g>
<svg:g>
</svg:g>
<svg:g>
</svg:g>
<svg:g>
</svg:g>
<svg:g>
</svg:g>
<svg:g>
</svg:g>
<svg:g>
</svg:g>
<svg:g>
</svg:g>
<svg:g>
</svg:g>
<svg:g>
</svg:g>
<svg:g>
</svg:g>
<svg:g>
</svg:g>
<svg:g>
</svg:g>
<svg:g>
</svg:g>
<svg:g>
</svg:g>
<svg:g>
</svg:g>
<svg:g>
</svg:g>
<svg:g>
</svg:g>
<svg:g>
</svg:g>
<svg:g>
</svg:g>
</svg:g> 
</svg:g></svg:g></svg>
