<?xml version='1.0' encoding='ASCII' standalone='yes'?>
<svg xmlns:svg="http://www.w3.org/2000/svg" xmlns="http://www.w3.org/2000/svg" xmlns:xlink="http://www.w3.org/1999/xlink" version="1.1" width="297.0022mm" height="210.0072mm" viewBox="0.0000 0.0000 297.0022 210.0072">
<title>SVG Image created as AMFOC01-B_Fab.svg date 2023/06/25 19:17:45 </title>
  <desc>Image generated by PCBNEW </desc>
<g style="fill:#000084; fill-opacity:1.0000;stroke:#000084; stroke-opacity:1.0000; stroke-linecap:round; stroke-linejoin:round;" transform="translate(0 0) scale(1 1)">
</g>
<g style="fill:#000084; fill-opacity:0.0;  stroke:#000084; stroke-width:0.0000; stroke-opacity:1;  stroke-linecap:round; stroke-linejoin:round;">
</g>
<g style="fill:#000084; fill-opacity:0.01;  stroke:#000084; stroke-width:0.5176; stroke-opacity:1;  stroke-linecap:round; stroke-linejoin:round;">
<text x="86.3896" y="200.0688" textLength="4.0544" font-size="4.6007" lengthAdjust="spacingAndGlyphs" text-anchor="middle" opacity="0.01" style="font-family:monospace">K</text>
<g class="stroked-text"><desc>K</desc>
<path d="M85.4859 199.9129 L85.4859 196.4624 "/>
<path d="M87.4576 199.9129 L85.9788 197.9412 "/>
<path d="M87.4576 196.4624 L85.4859 198.4341 "/>
</g><text x="107.3430" y="200.0688" textLength="4.0544" font-size="4.6007" lengthAdjust="spacingAndGlyphs" text-anchor="middle" opacity="0.01" style="font-family:monospace">K</text>
<g class="stroked-text"><desc>K</desc>
<path d="M106.4393 199.9129 L106.4393 196.4624 "/>
<path d="M108.4111 199.9129 L106.9323 197.9412 "/>
<path d="M108.4111 196.4624 L106.4393 198.4341 "/>
</g><text x="224.9782" y="183.0558" transform="scale(-1 1) translate(-449.956455 0)" textLength="31.9874" font-size="4.6007" lengthAdjust="spacingAndGlyphs" text-anchor="middle" opacity="0.01" style="font-family:monospace">Conn_01x01</text>
<g class="stroked-text"><desc>Conn_01x01</desc>
<path d="M237.8767 182.5712 L238.0410 182.7356 "/>
<path d="M238.0410 182.7356 L238.5339 182.8999 "/>
<path d="M238.5339 182.8999 L238.8626 182.8999 "/>
<path d="M238.8626 182.8999 L239.3555 182.7356 "/>
<path d="M239.3555 182.7356 L239.6841 182.4069 "/>
<path d="M239.6841 182.4069 L239.8484 182.0783 "/>
<path d="M239.8484 182.0783 L240.0127 181.4211 "/>
<path d="M240.0127 181.4211 L240.0127 180.9281 "/>
<path d="M240.0127 180.9281 L239.8484 180.2709 "/>
<path d="M239.8484 180.2709 L239.6841 179.9423 "/>
<path d="M239.6841 179.9423 L239.3555 179.6136 "/>
<path d="M239.3555 179.6136 L238.8626 179.4493 "/>
<path d="M238.8626 179.4493 L238.5339 179.4493 "/>
<path d="M238.5339 179.4493 L238.0410 179.6136 "/>
<path d="M238.0410 179.6136 L237.8767 179.7780 "/>
<path d="M235.9049 182.8999 L236.2336 182.7356 "/>
<path d="M236.2336 182.7356 L236.3979 182.5712 "/>
<path d="M236.3979 182.5712 L236.5622 182.2426 "/>
<path d="M236.5622 182.2426 L236.5622 181.2568 "/>
<path d="M236.5622 181.2568 L236.3979 180.9281 "/>
<path d="M236.3979 180.9281 L236.2336 180.7638 "/>
<path d="M236.2336 180.7638 L235.9049 180.5995 "/>
<path d="M235.9049 180.5995 L235.4120 180.5995 "/>
<path d="M235.4120 180.5995 L235.0834 180.7638 "/>
<path d="M235.0834 180.7638 L234.9191 180.9281 "/>
<path d="M234.9191 180.9281 L234.7548 181.2568 "/>
<path d="M234.7548 181.2568 L234.7548 182.2426 "/>
<path d="M234.7548 182.2426 L234.9191 182.5712 "/>
<path d="M234.9191 182.5712 L235.0834 182.7356 "/>
<path d="M235.0834 182.7356 L235.4120 182.8999 "/>
<path d="M235.4120 182.8999 L235.9049 182.8999 "/>
<path d="M233.2760 180.5995 L233.2760 182.8999 "/>
<path d="M233.2760 180.9281 L233.1116 180.7638 "/>
<path d="M233.1116 180.7638 L232.7830 180.5995 "/>
<path d="M232.7830 180.5995 L232.2901 180.5995 "/>
<path d="M232.2901 180.5995 L231.9615 180.7638 "/>
<path d="M231.9615 180.7638 L231.7972 181.0924 "/>
<path d="M231.7972 181.0924 L231.7972 182.8999 "/>
<path d="M230.1540 180.5995 L230.1540 182.8999 "/>
<path d="M230.1540 180.9281 L229.9897 180.7638 "/>
<path d="M229.9897 180.7638 L229.6611 180.5995 "/>
<path d="M229.6611 180.5995 L229.1682 180.5995 "/>
<path d="M229.1682 180.5995 L228.8395 180.7638 "/>
<path d="M228.8395 180.7638 L228.6752 181.0924 "/>
<path d="M228.6752 181.0924 L228.6752 182.8999 "/>
<path d="M227.8537 183.2285 L225.2247 183.2285 "/>
<path d="M223.7459 179.4493 L223.4173 179.4493 "/>
<path d="M223.4173 179.4493 L223.0886 179.6136 "/>
<path d="M223.0886 179.6136 L222.9243 179.7780 "/>
<path d="M222.9243 179.7780 L222.7600 180.1066 "/>
<path d="M222.7600 180.1066 L222.5957 180.7638 "/>
<path d="M222.5957 180.7638 L222.5957 181.5854 "/>
<path d="M222.5957 181.5854 L222.7600 182.2426 "/>
<path d="M222.7600 182.2426 L222.9243 182.5712 "/>
<path d="M222.9243 182.5712 L223.0886 182.7356 "/>
<path d="M223.0886 182.7356 L223.4173 182.8999 "/>
<path d="M223.4173 182.8999 L223.7459 182.8999 "/>
<path d="M223.7459 182.8999 L224.0745 182.7356 "/>
<path d="M224.0745 182.7356 L224.2388 182.5712 "/>
<path d="M224.2388 182.5712 L224.4031 182.2426 "/>
<path d="M224.4031 182.2426 L224.5674 181.5854 "/>
<path d="M224.5674 181.5854 L224.5674 180.7638 "/>
<path d="M224.5674 180.7638 L224.4031 180.1066 "/>
<path d="M224.4031 180.1066 L224.2388 179.7780 "/>
<path d="M224.2388 179.7780 L224.0745 179.6136 "/>
<path d="M224.0745 179.6136 L223.7459 179.4493 "/>
<path d="M219.3095 182.8999 L221.2812 182.8999 "/>
<path d="M220.2953 182.8999 L220.2953 179.4493 "/>
<path d="M220.2953 179.4493 L220.6240 179.9423 "/>
<path d="M220.6240 179.9423 L220.9526 180.2709 "/>
<path d="M220.9526 180.2709 L221.2812 180.4352 "/>
<path d="M218.1593 182.8999 L216.3519 180.5995 "/>
<path d="M218.1593 180.5995 L216.3519 182.8999 "/>
<path d="M214.3801 179.4493 L214.0515 179.4493 "/>
<path d="M214.0515 179.4493 L213.7229 179.6136 "/>
<path d="M213.7229 179.6136 L213.5586 179.7780 "/>
<path d="M213.5586 179.7780 L213.3943 180.1066 "/>
<path d="M213.3943 180.1066 L213.2299 180.7638 "/>
<path d="M213.2299 180.7638 L213.2299 181.5854 "/>
<path d="M213.2299 181.5854 L213.3943 182.2426 "/>
<path d="M213.3943 182.2426 L213.5586 182.5712 "/>
<path d="M213.5586 182.5712 L213.7229 182.7356 "/>
<path d="M213.7229 182.7356 L214.0515 182.8999 "/>
<path d="M214.0515 182.8999 L214.3801 182.8999 "/>
<path d="M214.3801 182.8999 L214.7088 182.7356 "/>
<path d="M214.7088 182.7356 L214.8731 182.5712 "/>
<path d="M214.8731 182.5712 L215.0374 182.2426 "/>
<path d="M215.0374 182.2426 L215.2017 181.5854 "/>
<path d="M215.2017 181.5854 L215.2017 180.7638 "/>
<path d="M215.2017 180.7638 L215.0374 180.1066 "/>
<path d="M215.0374 180.1066 L214.8731 179.7780 "/>
<path d="M214.8731 179.7780 L214.7088 179.6136 "/>
<path d="M214.7088 179.6136 L214.3801 179.4493 "/>
<path d="M209.9437 182.8999 L211.9155 182.8999 "/>
<path d="M210.9296 182.8999 L210.9296 179.4493 "/>
<path d="M210.9296 179.4493 L211.2582 179.9423 "/>
<path d="M211.2582 179.9423 L211.5868 180.2709 "/>
<path d="M211.5868 180.2709 L211.9155 180.4352 "/>
</g><text x="224.9782" y="172.7041" transform="scale(-1 1) translate(-449.956455 0)" textLength="6.5191" font-size="4.6007" lengthAdjust="spacingAndGlyphs" text-anchor="middle" opacity="0.01" style="font-family:monospace">J4</text>
<g class="stroked-text"><desc>J4</desc>
<path d="M226.1284 169.0977 L226.1284 171.5624 "/>
<path d="M226.1284 171.5624 L226.2927 172.0553 "/>
<path d="M226.2927 172.0553 L226.6213 172.3839 "/>
<path d="M226.6213 172.3839 L227.1143 172.5482 "/>
<path d="M227.1143 172.5482 L227.4429 172.5482 "/>
<path d="M223.0065 170.2479 L223.0065 172.5482 "/>
<path d="M223.8280 168.9334 L224.6496 171.3981 "/>
<path d="M224.6496 171.3981 L222.5136 171.3981 "/>
</g><text x="69.6907" y="115.7195" transform="scale(-1 1) translate(-139.381430 0)" textLength="40.0386" font-size="4.6007" lengthAdjust="spacingAndGlyphs" text-anchor="middle" opacity="0.01" style="font-family:monospace">434133025816</text>
<g class="stroked-text"><desc>434133025816</desc>
<path d="M87.1077 113.2632 L87.1077 115.5636 "/>
<path d="M87.9293 111.9487 L88.7509 114.4134 "/>
<path d="M88.7509 114.4134 L86.6148 114.4134 "/>
<path d="M85.6289 112.1130 L83.4929 112.1130 "/>
<path d="M83.4929 112.1130 L84.6431 113.4275 "/>
<path d="M84.6431 113.4275 L84.1501 113.4275 "/>
<path d="M84.1501 113.4275 L83.8215 113.5918 "/>
<path d="M83.8215 113.5918 L83.6572 113.7561 "/>
<path d="M83.6572 113.7561 L83.4929 114.0847 "/>
<path d="M83.4929 114.0847 L83.4929 114.9063 "/>
<path d="M83.4929 114.9063 L83.6572 115.2349 "/>
<path d="M83.6572 115.2349 L83.8215 115.3992 "/>
<path d="M83.8215 115.3992 L84.1501 115.5636 "/>
<path d="M84.1501 115.5636 L85.1360 115.5636 "/>
<path d="M85.1360 115.5636 L85.4646 115.3992 "/>
<path d="M85.4646 115.3992 L85.6289 115.2349 "/>
<path d="M80.5353 113.2632 L80.5353 115.5636 "/>
<path d="M81.3568 111.9487 L82.1784 114.4134 "/>
<path d="M82.1784 114.4134 L80.0423 114.4134 "/>
<path d="M76.9204 115.5636 L78.8922 115.5636 "/>
<path d="M77.9063 115.5636 L77.9063 112.1130 "/>
<path d="M77.9063 112.1130 L78.2349 112.6059 "/>
<path d="M78.2349 112.6059 L78.5635 112.9346 "/>
<path d="M78.5635 112.9346 L78.8922 113.0989 "/>
<path d="M75.7702 112.1130 L73.6342 112.1130 "/>
<path d="M73.6342 112.1130 L74.7844 113.4275 "/>
<path d="M74.7844 113.4275 L74.2914 113.4275 "/>
<path d="M74.2914 113.4275 L73.9628 113.5918 "/>
<path d="M73.9628 113.5918 L73.7985 113.7561 "/>
<path d="M73.7985 113.7561 L73.6342 114.0847 "/>
<path d="M73.6342 114.0847 L73.6342 114.9063 "/>
<path d="M73.6342 114.9063 L73.7985 115.2349 "/>
<path d="M73.7985 115.2349 L73.9628 115.3992 "/>
<path d="M73.9628 115.3992 L74.2914 115.5636 "/>
<path d="M74.2914 115.5636 L75.2773 115.5636 "/>
<path d="M75.2773 115.5636 L75.6059 115.3992 "/>
<path d="M75.6059 115.3992 L75.7702 115.2349 "/>
<path d="M72.4840 112.1130 L70.3480 112.1130 "/>
<path d="M70.3480 112.1130 L71.4981 113.4275 "/>
<path d="M71.4981 113.4275 L71.0052 113.4275 "/>
<path d="M71.0052 113.4275 L70.6766 113.5918 "/>
<path d="M70.6766 113.5918 L70.5123 113.7561 "/>
<path d="M70.5123 113.7561 L70.3480 114.0847 "/>
<path d="M70.3480 114.0847 L70.3480 114.9063 "/>
<path d="M70.3480 114.9063 L70.5123 115.2349 "/>
<path d="M70.5123 115.2349 L70.6766 115.3992 "/>
<path d="M70.6766 115.3992 L71.0052 115.5636 "/>
<path d="M71.0052 115.5636 L71.9911 115.5636 "/>
<path d="M71.9911 115.5636 L72.3197 115.3992 "/>
<path d="M72.3197 115.3992 L72.4840 115.2349 "/>
<path d="M68.2119 112.1130 L67.8833 112.1130 "/>
<path d="M67.8833 112.1130 L67.5547 112.2773 "/>
<path d="M67.5547 112.2773 L67.3904 112.4416 "/>
<path d="M67.3904 112.4416 L67.2260 112.7703 "/>
<path d="M67.2260 112.7703 L67.0617 113.4275 "/>
<path d="M67.0617 113.4275 L67.0617 114.2491 "/>
<path d="M67.0617 114.2491 L67.2260 114.9063 "/>
<path d="M67.2260 114.9063 L67.3904 115.2349 "/>
<path d="M67.3904 115.2349 L67.5547 115.3992 "/>
<path d="M67.5547 115.3992 L67.8833 115.5636 "/>
<path d="M67.8833 115.5636 L68.2119 115.5636 "/>
<path d="M68.2119 115.5636 L68.5405 115.3992 "/>
<path d="M68.5405 115.3992 L68.7048 115.2349 "/>
<path d="M68.7048 115.2349 L68.8692 114.9063 "/>
<path d="M68.8692 114.9063 L69.0335 114.2491 "/>
<path d="M69.0335 114.2491 L69.0335 113.4275 "/>
<path d="M69.0335 113.4275 L68.8692 112.7703 "/>
<path d="M68.8692 112.7703 L68.7048 112.4416 "/>
<path d="M68.7048 112.4416 L68.5405 112.2773 "/>
<path d="M68.5405 112.2773 L68.2119 112.1130 "/>
<path d="M65.7472 112.4416 L65.5829 112.2773 "/>
<path d="M65.5829 112.2773 L65.2543 112.1130 "/>
<path d="M65.2543 112.1130 L64.4327 112.1130 "/>
<path d="M64.4327 112.1130 L64.1041 112.2773 "/>
<path d="M64.1041 112.2773 L63.9398 112.4416 "/>
<path d="M63.9398 112.4416 L63.7755 112.7703 "/>
<path d="M63.7755 112.7703 L63.7755 113.0989 "/>
<path d="M63.7755 113.0989 L63.9398 113.5918 "/>
<path d="M63.9398 113.5918 L65.9115 115.5636 "/>
<path d="M65.9115 115.5636 L63.7755 115.5636 "/>
<path d="M60.6536 112.1130 L62.2967 112.1130 "/>
<path d="M62.2967 112.1130 L62.4610 113.7561 "/>
<path d="M62.4610 113.7561 L62.2967 113.5918 "/>
<path d="M62.2967 113.5918 L61.9681 113.4275 "/>
<path d="M61.9681 113.4275 L61.1465 113.4275 "/>
<path d="M61.1465 113.4275 L60.8179 113.5918 "/>
<path d="M60.8179 113.5918 L60.6536 113.7561 "/>
<path d="M60.6536 113.7561 L60.4893 114.0847 "/>
<path d="M60.4893 114.0847 L60.4893 114.9063 "/>
<path d="M60.4893 114.9063 L60.6536 115.2349 "/>
<path d="M60.6536 115.2349 L60.8179 115.3992 "/>
<path d="M60.8179 115.3992 L61.1465 115.5636 "/>
<path d="M61.1465 115.5636 L61.9681 115.5636 "/>
<path d="M61.9681 115.5636 L62.2967 115.3992 "/>
<path d="M62.2967 115.3992 L62.4610 115.2349 "/>
<path d="M58.5175 113.5918 L58.8462 113.4275 "/>
<path d="M58.8462 113.4275 L59.0105 113.2632 "/>
<path d="M59.0105 113.2632 L59.1748 112.9346 "/>
<path d="M59.1748 112.9346 L59.1748 112.7703 "/>
<path d="M59.1748 112.7703 L59.0105 112.4416 "/>
<path d="M59.0105 112.4416 L58.8462 112.2773 "/>
<path d="M58.8462 112.2773 L58.5175 112.1130 "/>
<path d="M58.5175 112.1130 L57.8603 112.1130 "/>
<path d="M57.8603 112.1130 L57.5317 112.2773 "/>
<path d="M57.5317 112.2773 L57.3673 112.4416 "/>
<path d="M57.3673 112.4416 L57.2030 112.7703 "/>
<path d="M57.2030 112.7703 L57.2030 112.9346 "/>
<path d="M57.2030 112.9346 L57.3673 113.2632 "/>
<path d="M57.3673 113.2632 L57.5317 113.4275 "/>
<path d="M57.5317 113.4275 L57.8603 113.5918 "/>
<path d="M57.8603 113.5918 L58.5175 113.5918 "/>
<path d="M58.5175 113.5918 L58.8462 113.7561 "/>
<path d="M58.8462 113.7561 L59.0105 113.9204 "/>
<path d="M59.0105 113.9204 L59.1748 114.2491 "/>
<path d="M59.1748 114.2491 L59.1748 114.9063 "/>
<path d="M59.1748 114.9063 L59.0105 115.2349 "/>
<path d="M59.0105 115.2349 L58.8462 115.3992 "/>
<path d="M58.8462 115.3992 L58.5175 115.5636 "/>
<path d="M58.5175 115.5636 L57.8603 115.5636 "/>
<path d="M57.8603 115.5636 L57.5317 115.3992 "/>
<path d="M57.5317 115.3992 L57.3673 115.2349 "/>
<path d="M57.3673 115.2349 L57.2030 114.9063 "/>
<path d="M57.2030 114.9063 L57.2030 114.2491 "/>
<path d="M57.2030 114.2491 L57.3673 113.9204 "/>
<path d="M57.3673 113.9204 L57.5317 113.7561 "/>
<path d="M57.5317 113.7561 L57.8603 113.5918 "/>
<path d="M53.9168 115.5636 L55.8885 115.5636 "/>
<path d="M54.9027 115.5636 L54.9027 112.1130 "/>
<path d="M54.9027 112.1130 L55.2313 112.6059 "/>
<path d="M55.2313 112.6059 L55.5599 112.9346 "/>
<path d="M55.5599 112.9346 L55.8885 113.0989 "/>
<path d="M50.9592 112.1130 L51.6164 112.1130 "/>
<path d="M51.6164 112.1130 L51.9451 112.2773 "/>
<path d="M51.9451 112.2773 L52.1094 112.4416 "/>
<path d="M52.1094 112.4416 L52.4380 112.9346 "/>
<path d="M52.4380 112.9346 L52.6023 113.5918 "/>
<path d="M52.6023 113.5918 L52.6023 114.9063 "/>
<path d="M52.6023 114.9063 L52.4380 115.2349 "/>
<path d="M52.4380 115.2349 L52.2737 115.3992 "/>
<path d="M52.2737 115.3992 L51.9451 115.5636 "/>
<path d="M51.9451 115.5636 L51.2878 115.5636 "/>
<path d="M51.2878 115.5636 L50.9592 115.3992 "/>
<path d="M50.9592 115.3992 L50.7949 115.2349 "/>
<path d="M50.7949 115.2349 L50.6306 114.9063 "/>
<path d="M50.6306 114.9063 L50.6306 114.0847 "/>
<path d="M50.6306 114.0847 L50.7949 113.7561 "/>
<path d="M50.7949 113.7561 L50.9592 113.5918 "/>
<path d="M50.9592 113.5918 L51.2878 113.4275 "/>
<path d="M51.2878 113.4275 L51.9451 113.4275 "/>
<path d="M51.9451 113.4275 L52.2737 113.5918 "/>
<path d="M52.2737 113.5918 L52.4380 113.7561 "/>
<path d="M52.4380 113.7561 L52.6023 114.0847 "/>
</g><text x="69.8632" y="124.5183" transform="scale(-1 1) translate(-139.726485 0)" textLength="11.1198" font-size="4.6007" lengthAdjust="spacingAndGlyphs" text-anchor="middle" opacity="0.01" style="font-family:monospace">SW4</text>
<g class="stroked-text"><desc>SW4</desc>
<path d="M74.4640 124.1981 L73.9710 124.3624 "/>
<path d="M73.9710 124.3624 L73.1495 124.3624 "/>
<path d="M73.1495 124.3624 L72.8208 124.1981 "/>
<path d="M72.8208 124.1981 L72.6565 124.0338 "/>
<path d="M72.6565 124.0338 L72.4922 123.7052 "/>
<path d="M72.4922 123.7052 L72.4922 123.3766 "/>
<path d="M72.4922 123.3766 L72.6565 123.0479 "/>
<path d="M72.6565 123.0479 L72.8208 122.8836 "/>
<path d="M72.8208 122.8836 L73.1495 122.7193 "/>
<path d="M73.1495 122.7193 L73.8067 122.5550 "/>
<path d="M73.8067 122.5550 L74.1353 122.3907 "/>
<path d="M74.1353 122.3907 L74.2996 122.2264 "/>
<path d="M74.2996 122.2264 L74.4640 121.8978 "/>
<path d="M74.4640 121.8978 L74.4640 121.5691 "/>
<path d="M74.4640 121.5691 L74.2996 121.2405 "/>
<path d="M74.2996 121.2405 L74.1353 121.0762 "/>
<path d="M74.1353 121.0762 L73.8067 120.9119 "/>
<path d="M73.8067 120.9119 L72.9852 120.9119 "/>
<path d="M72.9852 120.9119 L72.4922 121.0762 "/>
<path d="M71.3420 120.9119 L70.5205 124.3624 "/>
<path d="M70.5205 124.3624 L69.8632 121.8978 "/>
<path d="M69.8632 121.8978 L69.2060 124.3624 "/>
<path d="M69.2060 124.3624 L68.3844 120.9119 "/>
<path d="M65.5911 122.0621 L65.5911 124.3624 "/>
<path d="M66.4127 120.7476 L67.2343 123.2123 "/>
<path d="M67.2343 123.2123 L65.0982 123.2123 "/>
</g><text x="69.6907" y="179.2478" transform="scale(-1 1) translate(-139.381430 0)" textLength="40.0386" font-size="4.6007" lengthAdjust="spacingAndGlyphs" text-anchor="middle" opacity="0.01" style="font-family:monospace">434133025816</text>
<g class="stroked-text"><desc>434133025816</desc>
<path d="M87.1077 176.7915 L87.1077 179.0919 "/>
<path d="M87.9293 175.4770 L88.7509 177.9417 "/>
<path d="M88.7509 177.9417 L86.6148 177.9417 "/>
<path d="M85.6289 175.6413 L83.4929 175.6413 "/>
<path d="M83.4929 175.6413 L84.6431 176.9558 "/>
<path d="M84.6431 176.9558 L84.1501 176.9558 "/>
<path d="M84.1501 176.9558 L83.8215 177.1201 "/>
<path d="M83.8215 177.1201 L83.6572 177.2844 "/>
<path d="M83.6572 177.2844 L83.4929 177.6131 "/>
<path d="M83.4929 177.6131 L83.4929 178.4346 "/>
<path d="M83.4929 178.4346 L83.6572 178.7632 "/>
<path d="M83.6572 178.7632 L83.8215 178.9276 "/>
<path d="M83.8215 178.9276 L84.1501 179.0919 "/>
<path d="M84.1501 179.0919 L85.1360 179.0919 "/>
<path d="M85.1360 179.0919 L85.4646 178.9276 "/>
<path d="M85.4646 178.9276 L85.6289 178.7632 "/>
<path d="M80.5353 176.7915 L80.5353 179.0919 "/>
<path d="M81.3568 175.4770 L82.1784 177.9417 "/>
<path d="M82.1784 177.9417 L80.0423 177.9417 "/>
<path d="M76.9204 179.0919 L78.8922 179.0919 "/>
<path d="M77.9063 179.0919 L77.9063 175.6413 "/>
<path d="M77.9063 175.6413 L78.2349 176.1343 "/>
<path d="M78.2349 176.1343 L78.5635 176.4629 "/>
<path d="M78.5635 176.4629 L78.8922 176.6272 "/>
<path d="M75.7702 175.6413 L73.6342 175.6413 "/>
<path d="M73.6342 175.6413 L74.7844 176.9558 "/>
<path d="M74.7844 176.9558 L74.2914 176.9558 "/>
<path d="M74.2914 176.9558 L73.9628 177.1201 "/>
<path d="M73.9628 177.1201 L73.7985 177.2844 "/>
<path d="M73.7985 177.2844 L73.6342 177.6131 "/>
<path d="M73.6342 177.6131 L73.6342 178.4346 "/>
<path d="M73.6342 178.4346 L73.7985 178.7632 "/>
<path d="M73.7985 178.7632 L73.9628 178.9276 "/>
<path d="M73.9628 178.9276 L74.2914 179.0919 "/>
<path d="M74.2914 179.0919 L75.2773 179.0919 "/>
<path d="M75.2773 179.0919 L75.6059 178.9276 "/>
<path d="M75.6059 178.9276 L75.7702 178.7632 "/>
<path d="M72.4840 175.6413 L70.3480 175.6413 "/>
<path d="M70.3480 175.6413 L71.4981 176.9558 "/>
<path d="M71.4981 176.9558 L71.0052 176.9558 "/>
<path d="M71.0052 176.9558 L70.6766 177.1201 "/>
<path d="M70.6766 177.1201 L70.5123 177.2844 "/>
<path d="M70.5123 177.2844 L70.3480 177.6131 "/>
<path d="M70.3480 177.6131 L70.3480 178.4346 "/>
<path d="M70.3480 178.4346 L70.5123 178.7632 "/>
<path d="M70.5123 178.7632 L70.6766 178.9276 "/>
<path d="M70.6766 178.9276 L71.0052 179.0919 "/>
<path d="M71.0052 179.0919 L71.9911 179.0919 "/>
<path d="M71.9911 179.0919 L72.3197 178.9276 "/>
<path d="M72.3197 178.9276 L72.4840 178.7632 "/>
<path d="M68.2119 175.6413 L67.8833 175.6413 "/>
<path d="M67.8833 175.6413 L67.5547 175.8056 "/>
<path d="M67.5547 175.8056 L67.3904 175.9700 "/>
<path d="M67.3904 175.9700 L67.2260 176.2986 "/>
<path d="M67.2260 176.2986 L67.0617 176.9558 "/>
<path d="M67.0617 176.9558 L67.0617 177.7774 "/>
<path d="M67.0617 177.7774 L67.2260 178.4346 "/>
<path d="M67.2260 178.4346 L67.3904 178.7632 "/>
<path d="M67.3904 178.7632 L67.5547 178.9276 "/>
<path d="M67.5547 178.9276 L67.8833 179.0919 "/>
<path d="M67.8833 179.0919 L68.2119 179.0919 "/>
<path d="M68.2119 179.0919 L68.5405 178.9276 "/>
<path d="M68.5405 178.9276 L68.7048 178.7632 "/>
<path d="M68.7048 178.7632 L68.8692 178.4346 "/>
<path d="M68.8692 178.4346 L69.0335 177.7774 "/>
<path d="M69.0335 177.7774 L69.0335 176.9558 "/>
<path d="M69.0335 176.9558 L68.8692 176.2986 "/>
<path d="M68.8692 176.2986 L68.7048 175.9700 "/>
<path d="M68.7048 175.9700 L68.5405 175.8056 "/>
<path d="M68.5405 175.8056 L68.2119 175.6413 "/>
<path d="M65.7472 175.9700 L65.5829 175.8056 "/>
<path d="M65.5829 175.8056 L65.2543 175.6413 "/>
<path d="M65.2543 175.6413 L64.4327 175.6413 "/>
<path d="M64.4327 175.6413 L64.1041 175.8056 "/>
<path d="M64.1041 175.8056 L63.9398 175.9700 "/>
<path d="M63.9398 175.9700 L63.7755 176.2986 "/>
<path d="M63.7755 176.2986 L63.7755 176.6272 "/>
<path d="M63.7755 176.6272 L63.9398 177.1201 "/>
<path d="M63.9398 177.1201 L65.9115 179.0919 "/>
<path d="M65.9115 179.0919 L63.7755 179.0919 "/>
<path d="M60.6536 175.6413 L62.2967 175.6413 "/>
<path d="M62.2967 175.6413 L62.4610 177.2844 "/>
<path d="M62.4610 177.2844 L62.2967 177.1201 "/>
<path d="M62.2967 177.1201 L61.9681 176.9558 "/>
<path d="M61.9681 176.9558 L61.1465 176.9558 "/>
<path d="M61.1465 176.9558 L60.8179 177.1201 "/>
<path d="M60.8179 177.1201 L60.6536 177.2844 "/>
<path d="M60.6536 177.2844 L60.4893 177.6131 "/>
<path d="M60.4893 177.6131 L60.4893 178.4346 "/>
<path d="M60.4893 178.4346 L60.6536 178.7632 "/>
<path d="M60.6536 178.7632 L60.8179 178.9276 "/>
<path d="M60.8179 178.9276 L61.1465 179.0919 "/>
<path d="M61.1465 179.0919 L61.9681 179.0919 "/>
<path d="M61.9681 179.0919 L62.2967 178.9276 "/>
<path d="M62.2967 178.9276 L62.4610 178.7632 "/>
<path d="M58.5175 177.1201 L58.8462 176.9558 "/>
<path d="M58.8462 176.9558 L59.0105 176.7915 "/>
<path d="M59.0105 176.7915 L59.1748 176.4629 "/>
<path d="M59.1748 176.4629 L59.1748 176.2986 "/>
<path d="M59.1748 176.2986 L59.0105 175.9700 "/>
<path d="M59.0105 175.9700 L58.8462 175.8056 "/>
<path d="M58.8462 175.8056 L58.5175 175.6413 "/>
<path d="M58.5175 175.6413 L57.8603 175.6413 "/>
<path d="M57.8603 175.6413 L57.5317 175.8056 "/>
<path d="M57.5317 175.8056 L57.3673 175.9700 "/>
<path d="M57.3673 175.9700 L57.2030 176.2986 "/>
<path d="M57.2030 176.2986 L57.2030 176.4629 "/>
<path d="M57.2030 176.4629 L57.3673 176.7915 "/>
<path d="M57.3673 176.7915 L57.5317 176.9558 "/>
<path d="M57.5317 176.9558 L57.8603 177.1201 "/>
<path d="M57.8603 177.1201 L58.5175 177.1201 "/>
<path d="M58.5175 177.1201 L58.8462 177.2844 "/>
<path d="M58.8462 177.2844 L59.0105 177.4488 "/>
<path d="M59.0105 177.4488 L59.1748 177.7774 "/>
<path d="M59.1748 177.7774 L59.1748 178.4346 "/>
<path d="M59.1748 178.4346 L59.0105 178.7632 "/>
<path d="M59.0105 178.7632 L58.8462 178.9276 "/>
<path d="M58.8462 178.9276 L58.5175 179.0919 "/>
<path d="M58.5175 179.0919 L57.8603 179.0919 "/>
<path d="M57.8603 179.0919 L57.5317 178.9276 "/>
<path d="M57.5317 178.9276 L57.3673 178.7632 "/>
<path d="M57.3673 178.7632 L57.2030 178.4346 "/>
<path d="M57.2030 178.4346 L57.2030 177.7774 "/>
<path d="M57.2030 177.7774 L57.3673 177.4488 "/>
<path d="M57.3673 177.4488 L57.5317 177.2844 "/>
<path d="M57.5317 177.2844 L57.8603 177.1201 "/>
<path d="M53.9168 179.0919 L55.8885 179.0919 "/>
<path d="M54.9027 179.0919 L54.9027 175.6413 "/>
<path d="M54.9027 175.6413 L55.2313 176.1343 "/>
<path d="M55.2313 176.1343 L55.5599 176.4629 "/>
<path d="M55.5599 176.4629 L55.8885 176.6272 "/>
<path d="M50.9592 175.6413 L51.6164 175.6413 "/>
<path d="M51.6164 175.6413 L51.9451 175.8056 "/>
<path d="M51.9451 175.8056 L52.1094 175.9700 "/>
<path d="M52.1094 175.9700 L52.4380 176.4629 "/>
<path d="M52.4380 176.4629 L52.6023 177.1201 "/>
<path d="M52.6023 177.1201 L52.6023 178.4346 "/>
<path d="M52.6023 178.4346 L52.4380 178.7632 "/>
<path d="M52.4380 178.7632 L52.2737 178.9276 "/>
<path d="M52.2737 178.9276 L51.9451 179.0919 "/>
<path d="M51.9451 179.0919 L51.2878 179.0919 "/>
<path d="M51.2878 179.0919 L50.9592 178.9276 "/>
<path d="M50.9592 178.9276 L50.7949 178.7632 "/>
<path d="M50.7949 178.7632 L50.6306 178.4346 "/>
<path d="M50.6306 178.4346 L50.6306 177.6131 "/>
<path d="M50.6306 177.6131 L50.7949 177.2844 "/>
<path d="M50.7949 177.2844 L50.9592 177.1201 "/>
<path d="M50.9592 177.1201 L51.2878 176.9558 "/>
<path d="M51.2878 176.9558 L51.9451 176.9558 "/>
<path d="M51.9451 176.9558 L52.2737 177.1201 "/>
<path d="M52.2737 177.1201 L52.4380 177.2844 "/>
<path d="M52.4380 177.2844 L52.6023 177.6131 "/>
</g><text x="69.5182" y="170.4489" transform="scale(-1 1) translate(-139.036376 0)" textLength="11.1198" font-size="4.6007" lengthAdjust="spacingAndGlyphs" text-anchor="middle" opacity="0.01" style="font-family:monospace">SW2</text>
<g class="stroked-text"><desc>SW2</desc>
<path d="M74.1189 170.1287 L73.6260 170.2930 "/>
<path d="M73.6260 170.2930 L72.8044 170.2930 "/>
<path d="M72.8044 170.2930 L72.4758 170.1287 "/>
<path d="M72.4758 170.1287 L72.3115 169.9644 "/>
<path d="M72.3115 169.9644 L72.1472 169.6357 "/>
<path d="M72.1472 169.6357 L72.1472 169.3071 "/>
<path d="M72.1472 169.3071 L72.3115 168.9785 "/>
<path d="M72.3115 168.9785 L72.4758 168.8142 "/>
<path d="M72.4758 168.8142 L72.8044 168.6499 "/>
<path d="M72.8044 168.6499 L73.4617 168.4856 "/>
<path d="M73.4617 168.4856 L73.7903 168.3212 "/>
<path d="M73.7903 168.3212 L73.9546 168.1569 "/>
<path d="M73.9546 168.1569 L74.1189 167.8283 "/>
<path d="M74.1189 167.8283 L74.1189 167.4997 "/>
<path d="M74.1189 167.4997 L73.9546 167.1711 "/>
<path d="M73.9546 167.1711 L73.7903 167.0068 "/>
<path d="M73.7903 167.0068 L73.4617 166.8424 "/>
<path d="M73.4617 166.8424 L72.6401 166.8424 "/>
<path d="M72.6401 166.8424 L72.1472 167.0068 "/>
<path d="M70.9970 166.8424 L70.1754 170.2930 "/>
<path d="M70.1754 170.2930 L69.5182 167.8283 "/>
<path d="M69.5182 167.8283 L68.8609 170.2930 "/>
<path d="M68.8609 170.2930 L68.0394 166.8424 "/>
<path d="M66.8892 167.1711 L66.7249 167.0068 "/>
<path d="M66.7249 167.0068 L66.3963 166.8424 "/>
<path d="M66.3963 166.8424 L65.5747 166.8424 "/>
<path d="M65.5747 166.8424 L65.2461 167.0068 "/>
<path d="M65.2461 167.0068 L65.0818 167.1711 "/>
<path d="M65.0818 167.1711 L64.9175 167.4997 "/>
<path d="M64.9175 167.4997 L64.9175 167.8283 "/>
<path d="M64.9175 167.8283 L65.0818 168.3212 "/>
<path d="M65.0818 168.3212 L67.0535 170.2930 "/>
<path d="M67.0535 170.2930 L64.9175 170.2930 "/>
</g><text x="209.7958" y="183.0558" transform="scale(-1 1) translate(-419.591684 0)" textLength="31.9874" font-size="4.6007" lengthAdjust="spacingAndGlyphs" text-anchor="middle" opacity="0.01" style="font-family:monospace">Conn_01x01</text>
<g class="stroked-text"><desc>Conn_01x01</desc>
<path d="M222.6943 182.5712 L222.8586 182.7356 "/>
<path d="M222.8586 182.7356 L223.3515 182.8999 "/>
<path d="M223.3515 182.8999 L223.6802 182.8999 "/>
<path d="M223.6802 182.8999 L224.1731 182.7356 "/>
<path d="M224.1731 182.7356 L224.5017 182.4069 "/>
<path d="M224.5017 182.4069 L224.6660 182.0783 "/>
<path d="M224.6660 182.0783 L224.8303 181.4211 "/>
<path d="M224.8303 181.4211 L224.8303 180.9281 "/>
<path d="M224.8303 180.9281 L224.6660 180.2709 "/>
<path d="M224.6660 180.2709 L224.5017 179.9423 "/>
<path d="M224.5017 179.9423 L224.1731 179.6136 "/>
<path d="M224.1731 179.6136 L223.6802 179.4493 "/>
<path d="M223.6802 179.4493 L223.3515 179.4493 "/>
<path d="M223.3515 179.4493 L222.8586 179.6136 "/>
<path d="M222.8586 179.6136 L222.6943 179.7780 "/>
<path d="M220.7226 182.8999 L221.0512 182.7356 "/>
<path d="M221.0512 182.7356 L221.2155 182.5712 "/>
<path d="M221.2155 182.5712 L221.3798 182.2426 "/>
<path d="M221.3798 182.2426 L221.3798 181.2568 "/>
<path d="M221.3798 181.2568 L221.2155 180.9281 "/>
<path d="M221.2155 180.9281 L221.0512 180.7638 "/>
<path d="M221.0512 180.7638 L220.7226 180.5995 "/>
<path d="M220.7226 180.5995 L220.2296 180.5995 "/>
<path d="M220.2296 180.5995 L219.9010 180.7638 "/>
<path d="M219.9010 180.7638 L219.7367 180.9281 "/>
<path d="M219.7367 180.9281 L219.5724 181.2568 "/>
<path d="M219.5724 181.2568 L219.5724 182.2426 "/>
<path d="M219.5724 182.2426 L219.7367 182.5712 "/>
<path d="M219.7367 182.5712 L219.9010 182.7356 "/>
<path d="M219.9010 182.7356 L220.2296 182.8999 "/>
<path d="M220.2296 182.8999 L220.7226 182.8999 "/>
<path d="M218.0936 180.5995 L218.0936 182.8999 "/>
<path d="M218.0936 180.9281 L217.9293 180.7638 "/>
<path d="M217.9293 180.7638 L217.6006 180.5995 "/>
<path d="M217.6006 180.5995 L217.1077 180.5995 "/>
<path d="M217.1077 180.5995 L216.7791 180.7638 "/>
<path d="M216.7791 180.7638 L216.6148 181.0924 "/>
<path d="M216.6148 181.0924 L216.6148 182.8999 "/>
<path d="M214.9717 180.5995 L214.9717 182.8999 "/>
<path d="M214.9717 180.9281 L214.8073 180.7638 "/>
<path d="M214.8073 180.7638 L214.4787 180.5995 "/>
<path d="M214.4787 180.5995 L213.9858 180.5995 "/>
<path d="M213.9858 180.5995 L213.6572 180.7638 "/>
<path d="M213.6572 180.7638 L213.4928 181.0924 "/>
<path d="M213.4928 181.0924 L213.4928 182.8999 "/>
<path d="M212.6713 183.2285 L210.0423 183.2285 "/>
<path d="M208.5635 179.4493 L208.2349 179.4493 "/>
<path d="M208.2349 179.4493 L207.9063 179.6136 "/>
<path d="M207.9063 179.6136 L207.7419 179.7780 "/>
<path d="M207.7419 179.7780 L207.5776 180.1066 "/>
<path d="M207.5776 180.1066 L207.4133 180.7638 "/>
<path d="M207.4133 180.7638 L207.4133 181.5854 "/>
<path d="M207.4133 181.5854 L207.5776 182.2426 "/>
<path d="M207.5776 182.2426 L207.7419 182.5712 "/>
<path d="M207.7419 182.5712 L207.9063 182.7356 "/>
<path d="M207.9063 182.7356 L208.2349 182.8999 "/>
<path d="M208.2349 182.8999 L208.5635 182.8999 "/>
<path d="M208.5635 182.8999 L208.8921 182.7356 "/>
<path d="M208.8921 182.7356 L209.0564 182.5712 "/>
<path d="M209.0564 182.5712 L209.2207 182.2426 "/>
<path d="M209.2207 182.2426 L209.3851 181.5854 "/>
<path d="M209.3851 181.5854 L209.3851 180.7638 "/>
<path d="M209.3851 180.7638 L209.2207 180.1066 "/>
<path d="M209.2207 180.1066 L209.0564 179.7780 "/>
<path d="M209.0564 179.7780 L208.8921 179.6136 "/>
<path d="M208.8921 179.6136 L208.5635 179.4493 "/>
<path d="M204.1271 182.8999 L206.0988 182.8999 "/>
<path d="M205.1130 182.8999 L205.1130 179.4493 "/>
<path d="M205.1130 179.4493 L205.4416 179.9423 "/>
<path d="M205.4416 179.9423 L205.7702 180.2709 "/>
<path d="M205.7702 180.2709 L206.0988 180.4352 "/>
<path d="M202.9769 182.8999 L201.1695 180.5995 "/>
<path d="M202.9769 180.5995 L201.1695 182.8999 "/>
<path d="M199.1977 179.4493 L198.8691 179.4493 "/>
<path d="M198.8691 179.4493 L198.5405 179.6136 "/>
<path d="M198.5405 179.6136 L198.3762 179.7780 "/>
<path d="M198.3762 179.7780 L198.2119 180.1066 "/>
<path d="M198.2119 180.1066 L198.0476 180.7638 "/>
<path d="M198.0476 180.7638 L198.0476 181.5854 "/>
<path d="M198.0476 181.5854 L198.2119 182.2426 "/>
<path d="M198.2119 182.2426 L198.3762 182.5712 "/>
<path d="M198.3762 182.5712 L198.5405 182.7356 "/>
<path d="M198.5405 182.7356 L198.8691 182.8999 "/>
<path d="M198.8691 182.8999 L199.1977 182.8999 "/>
<path d="M199.1977 182.8999 L199.5264 182.7356 "/>
<path d="M199.5264 182.7356 L199.6907 182.5712 "/>
<path d="M199.6907 182.5712 L199.8550 182.2426 "/>
<path d="M199.8550 182.2426 L200.0193 181.5854 "/>
<path d="M200.0193 181.5854 L200.0193 180.7638 "/>
<path d="M200.0193 180.7638 L199.8550 180.1066 "/>
<path d="M199.8550 180.1066 L199.6907 179.7780 "/>
<path d="M199.6907 179.7780 L199.5264 179.6136 "/>
<path d="M199.5264 179.6136 L199.1977 179.4493 "/>
<path d="M194.7613 182.8999 L196.7331 182.8999 "/>
<path d="M195.7472 182.8999 L195.7472 179.4493 "/>
<path d="M195.7472 179.4493 L196.0758 179.9423 "/>
<path d="M196.0758 179.9423 L196.4044 180.2709 "/>
<path d="M196.4044 180.2709 L196.7331 180.4352 "/>
</g><text x="209.7958" y="172.7041" transform="scale(-1 1) translate(-419.591684 0)" textLength="6.5191" font-size="4.6007" lengthAdjust="spacingAndGlyphs" text-anchor="middle" opacity="0.01" style="font-family:monospace">J2</text>
<g class="stroked-text"><desc>J2</desc>
<path d="M210.9460 169.0977 L210.9460 171.5624 "/>
<path d="M210.9460 171.5624 L211.1103 172.0553 "/>
<path d="M211.1103 172.0553 L211.4390 172.3839 "/>
<path d="M211.4390 172.3839 L211.9319 172.5482 "/>
<path d="M211.9319 172.5482 L212.2605 172.5482 "/>
<path d="M209.4672 169.4263 L209.3029 169.2620 "/>
<path d="M209.3029 169.2620 L208.9743 169.0977 "/>
<path d="M208.9743 169.0977 L208.1527 169.0977 "/>
<path d="M208.1527 169.0977 L207.8241 169.2620 "/>
<path d="M207.8241 169.2620 L207.6598 169.4263 "/>
<path d="M207.6598 169.4263 L207.4955 169.7549 "/>
<path d="M207.4955 169.7549 L207.4955 170.0836 "/>
<path d="M207.4955 170.0836 L207.6598 170.5765 "/>
<path d="M207.6598 170.5765 L209.6315 172.5482 "/>
<path d="M209.6315 172.5482 L207.4955 172.5482 "/>
</g><text x="149.7433" y="111.4044" transform="scale(-1 1) translate(-299.486590 0)" textLength="13.5845" font-size="4.6007" lengthAdjust="spacingAndGlyphs" text-anchor="middle" opacity="0.01" style="font-family:monospace">OLED</text>
<g class="stroked-text"><desc>OLED</desc>
<path d="M154.7548 107.7979 L154.0975 107.7979 "/>
<path d="M154.0975 107.7979 L153.7689 107.9622 "/>
<path d="M153.7689 107.9622 L153.4403 108.2908 "/>
<path d="M153.4403 108.2908 L153.2760 108.9481 "/>
<path d="M153.2760 108.9481 L153.2760 110.0983 "/>
<path d="M153.2760 110.0983 L153.4403 110.7555 "/>
<path d="M153.4403 110.7555 L153.7689 111.0841 "/>
<path d="M153.7689 111.0841 L154.0975 111.2485 "/>
<path d="M154.0975 111.2485 L154.7548 111.2485 "/>
<path d="M154.7548 111.2485 L155.0834 111.0841 "/>
<path d="M155.0834 111.0841 L155.4120 110.7555 "/>
<path d="M155.4120 110.7555 L155.5764 110.0983 "/>
<path d="M155.5764 110.0983 L155.5764 108.9481 "/>
<path d="M155.5764 108.9481 L155.4120 108.2908 "/>
<path d="M155.4120 108.2908 L155.0834 107.9622 "/>
<path d="M155.0834 107.9622 L154.7548 107.7979 "/>
<path d="M150.1541 111.2485 L151.7972 111.2485 "/>
<path d="M151.7972 111.2485 L151.7972 107.7979 "/>
<path d="M149.0039 109.4410 L147.8537 109.4410 "/>
<path d="M147.3608 111.2485 L149.0039 111.2485 "/>
<path d="M149.0039 111.2485 L149.0039 107.7979 "/>
<path d="M149.0039 107.7979 L147.3608 107.7979 "/>
<path d="M145.8820 111.2485 L145.8820 107.7979 "/>
<path d="M145.8820 107.7979 L145.0604 107.7979 "/>
<path d="M145.0604 107.7979 L144.5675 107.9622 "/>
<path d="M144.5675 107.9622 L144.2389 108.2908 "/>
<path d="M144.2389 108.2908 L144.0745 108.6195 "/>
<path d="M144.0745 108.6195 L143.9102 109.2767 "/>
<path d="M143.9102 109.2767 L143.9102 109.7697 "/>
<path d="M143.9102 109.7697 L144.0745 110.4269 "/>
<path d="M144.0745 110.4269 L144.2389 110.7555 "/>
<path d="M144.2389 110.7555 L144.5675 111.0841 "/>
<path d="M144.5675 111.0841 L145.0604 111.2485 "/>
<path d="M145.0604 111.2485 L145.8820 111.2485 "/>
</g><text x="149.7433" y="116.5802" transform="scale(-1 1) translate(-299.486590 0)" textLength="9.8053" font-size="4.6007" lengthAdjust="spacingAndGlyphs" text-anchor="middle" opacity="0.01" style="font-family:monospace">J10</text>
<g class="stroked-text"><desc>J10</desc>
<path d="M152.5366 112.9737 L152.5366 115.4384 "/>
<path d="M152.5366 115.4384 L152.7009 115.9313 "/>
<path d="M152.7009 115.9313 L153.0295 116.2600 "/>
<path d="M153.0295 116.2600 L153.5225 116.4243 "/>
<path d="M153.5225 116.4243 L153.8511 116.4243 "/>
<path d="M149.0860 116.4243 L151.0578 116.4243 "/>
<path d="M150.0719 116.4243 L150.0719 112.9737 "/>
<path d="M150.0719 112.9737 L150.4005 113.4667 "/>
<path d="M150.4005 113.4667 L150.7292 113.7953 "/>
<path d="M150.7292 113.7953 L151.0578 113.9596 "/>
<path d="M146.9500 112.9737 L146.6214 112.9737 "/>
<path d="M146.6214 112.9737 L146.2927 113.1380 "/>
<path d="M146.2927 113.1380 L146.1284 113.3023 "/>
<path d="M146.1284 113.3023 L145.9641 113.6310 "/>
<path d="M145.9641 113.6310 L145.7998 114.2882 "/>
<path d="M145.7998 114.2882 L145.7998 115.1098 "/>
<path d="M145.7998 115.1098 L145.9641 115.7670 "/>
<path d="M145.9641 115.7670 L146.1284 116.0956 "/>
<path d="M146.1284 116.0956 L146.2927 116.2600 "/>
<path d="M146.2927 116.2600 L146.6214 116.4243 "/>
<path d="M146.6214 116.4243 L146.9500 116.4243 "/>
<path d="M146.9500 116.4243 L147.2786 116.2600 "/>
<path d="M147.2786 116.2600 L147.4429 116.0956 "/>
<path d="M147.4429 116.0956 L147.6072 115.7670 "/>
<path d="M147.6072 115.7670 L147.7716 115.1098 "/>
<path d="M147.7716 115.1098 L147.7716 114.2882 "/>
<path d="M147.7716 114.2882 L147.6072 113.6310 "/>
<path d="M147.6072 113.6310 L147.4429 113.3023 "/>
<path d="M147.4429 113.3023 L147.2786 113.1380 "/>
<path d="M147.2786 113.1380 L146.9500 112.9737 "/>
</g><text x="69.6907" y="156.2825" transform="scale(-1 1) translate(-139.381430 0)" textLength="40.0386" font-size="4.6007" lengthAdjust="spacingAndGlyphs" text-anchor="middle" opacity="0.01" style="font-family:monospace">434133025816</text>
<g class="stroked-text"><desc>434133025816</desc>
<path d="M87.1077 153.8262 L87.1077 156.1266 "/>
<path d="M87.9293 152.5117 L88.7509 154.9764 "/>
<path d="M88.7509 154.9764 L86.6148 154.9764 "/>
<path d="M85.6289 152.6761 L83.4929 152.6761 "/>
<path d="M83.4929 152.6761 L84.6431 153.9905 "/>
<path d="M84.6431 153.9905 L84.1501 153.9905 "/>
<path d="M84.1501 153.9905 L83.8215 154.1549 "/>
<path d="M83.8215 154.1549 L83.6572 154.3192 "/>
<path d="M83.6572 154.3192 L83.4929 154.6478 "/>
<path d="M83.4929 154.6478 L83.4929 155.4693 "/>
<path d="M83.4929 155.4693 L83.6572 155.7980 "/>
<path d="M83.6572 155.7980 L83.8215 155.9623 "/>
<path d="M83.8215 155.9623 L84.1501 156.1266 "/>
<path d="M84.1501 156.1266 L85.1360 156.1266 "/>
<path d="M85.1360 156.1266 L85.4646 155.9623 "/>
<path d="M85.4646 155.9623 L85.6289 155.7980 "/>
<path d="M80.5353 153.8262 L80.5353 156.1266 "/>
<path d="M81.3568 152.5117 L82.1784 154.9764 "/>
<path d="M82.1784 154.9764 L80.0423 154.9764 "/>
<path d="M76.9204 156.1266 L78.8922 156.1266 "/>
<path d="M77.9063 156.1266 L77.9063 152.6761 "/>
<path d="M77.9063 152.6761 L78.2349 153.1690 "/>
<path d="M78.2349 153.1690 L78.5635 153.4976 "/>
<path d="M78.5635 153.4976 L78.8922 153.6619 "/>
<path d="M75.7702 152.6761 L73.6342 152.6761 "/>
<path d="M73.6342 152.6761 L74.7844 153.9905 "/>
<path d="M74.7844 153.9905 L74.2914 153.9905 "/>
<path d="M74.2914 153.9905 L73.9628 154.1549 "/>
<path d="M73.9628 154.1549 L73.7985 154.3192 "/>
<path d="M73.7985 154.3192 L73.6342 154.6478 "/>
<path d="M73.6342 154.6478 L73.6342 155.4693 "/>
<path d="M73.6342 155.4693 L73.7985 155.7980 "/>
<path d="M73.7985 155.7980 L73.9628 155.9623 "/>
<path d="M73.9628 155.9623 L74.2914 156.1266 "/>
<path d="M74.2914 156.1266 L75.2773 156.1266 "/>
<path d="M75.2773 156.1266 L75.6059 155.9623 "/>
<path d="M75.6059 155.9623 L75.7702 155.7980 "/>
<path d="M72.4840 152.6761 L70.3480 152.6761 "/>
<path d="M70.3480 152.6761 L71.4981 153.9905 "/>
<path d="M71.4981 153.9905 L71.0052 153.9905 "/>
<path d="M71.0052 153.9905 L70.6766 154.1549 "/>
<path d="M70.6766 154.1549 L70.5123 154.3192 "/>
<path d="M70.5123 154.3192 L70.3480 154.6478 "/>
<path d="M70.3480 154.6478 L70.3480 155.4693 "/>
<path d="M70.3480 155.4693 L70.5123 155.7980 "/>
<path d="M70.5123 155.7980 L70.6766 155.9623 "/>
<path d="M70.6766 155.9623 L71.0052 156.1266 "/>
<path d="M71.0052 156.1266 L71.9911 156.1266 "/>
<path d="M71.9911 156.1266 L72.3197 155.9623 "/>
<path d="M72.3197 155.9623 L72.4840 155.7980 "/>
<path d="M68.2119 152.6761 L67.8833 152.6761 "/>
<path d="M67.8833 152.6761 L67.5547 152.8404 "/>
<path d="M67.5547 152.8404 L67.3904 153.0047 "/>
<path d="M67.3904 153.0047 L67.2260 153.3333 "/>
<path d="M67.2260 153.3333 L67.0617 153.9905 "/>
<path d="M67.0617 153.9905 L67.0617 154.8121 "/>
<path d="M67.0617 154.8121 L67.2260 155.4693 "/>
<path d="M67.2260 155.4693 L67.3904 155.7980 "/>
<path d="M67.3904 155.7980 L67.5547 155.9623 "/>
<path d="M67.5547 155.9623 L67.8833 156.1266 "/>
<path d="M67.8833 156.1266 L68.2119 156.1266 "/>
<path d="M68.2119 156.1266 L68.5405 155.9623 "/>
<path d="M68.5405 155.9623 L68.7048 155.7980 "/>
<path d="M68.7048 155.7980 L68.8692 155.4693 "/>
<path d="M68.8692 155.4693 L69.0335 154.8121 "/>
<path d="M69.0335 154.8121 L69.0335 153.9905 "/>
<path d="M69.0335 153.9905 L68.8692 153.3333 "/>
<path d="M68.8692 153.3333 L68.7048 153.0047 "/>
<path d="M68.7048 153.0047 L68.5405 152.8404 "/>
<path d="M68.5405 152.8404 L68.2119 152.6761 "/>
<path d="M65.7472 153.0047 L65.5829 152.8404 "/>
<path d="M65.5829 152.8404 L65.2543 152.6761 "/>
<path d="M65.2543 152.6761 L64.4327 152.6761 "/>
<path d="M64.4327 152.6761 L64.1041 152.8404 "/>
<path d="M64.1041 152.8404 L63.9398 153.0047 "/>
<path d="M63.9398 153.0047 L63.7755 153.3333 "/>
<path d="M63.7755 153.3333 L63.7755 153.6619 "/>
<path d="M63.7755 153.6619 L63.9398 154.1549 "/>
<path d="M63.9398 154.1549 L65.9115 156.1266 "/>
<path d="M65.9115 156.1266 L63.7755 156.1266 "/>
<path d="M60.6536 152.6761 L62.2967 152.6761 "/>
<path d="M62.2967 152.6761 L62.4610 154.3192 "/>
<path d="M62.4610 154.3192 L62.2967 154.1549 "/>
<path d="M62.2967 154.1549 L61.9681 153.9905 "/>
<path d="M61.9681 153.9905 L61.1465 153.9905 "/>
<path d="M61.1465 153.9905 L60.8179 154.1549 "/>
<path d="M60.8179 154.1549 L60.6536 154.3192 "/>
<path d="M60.6536 154.3192 L60.4893 154.6478 "/>
<path d="M60.4893 154.6478 L60.4893 155.4693 "/>
<path d="M60.4893 155.4693 L60.6536 155.7980 "/>
<path d="M60.6536 155.7980 L60.8179 155.9623 "/>
<path d="M60.8179 155.9623 L61.1465 156.1266 "/>
<path d="M61.1465 156.1266 L61.9681 156.1266 "/>
<path d="M61.9681 156.1266 L62.2967 155.9623 "/>
<path d="M62.2967 155.9623 L62.4610 155.7980 "/>
<path d="M58.5175 154.1549 L58.8462 153.9905 "/>
<path d="M58.8462 153.9905 L59.0105 153.8262 "/>
<path d="M59.0105 153.8262 L59.1748 153.4976 "/>
<path d="M59.1748 153.4976 L59.1748 153.3333 "/>
<path d="M59.1748 153.3333 L59.0105 153.0047 "/>
<path d="M59.0105 153.0047 L58.8462 152.8404 "/>
<path d="M58.8462 152.8404 L58.5175 152.6761 "/>
<path d="M58.5175 152.6761 L57.8603 152.6761 "/>
<path d="M57.8603 152.6761 L57.5317 152.8404 "/>
<path d="M57.5317 152.8404 L57.3673 153.0047 "/>
<path d="M57.3673 153.0047 L57.2030 153.3333 "/>
<path d="M57.2030 153.3333 L57.2030 153.4976 "/>
<path d="M57.2030 153.4976 L57.3673 153.8262 "/>
<path d="M57.3673 153.8262 L57.5317 153.9905 "/>
<path d="M57.5317 153.9905 L57.8603 154.1549 "/>
<path d="M57.8603 154.1549 L58.5175 154.1549 "/>
<path d="M58.5175 154.1549 L58.8462 154.3192 "/>
<path d="M58.8462 154.3192 L59.0105 154.4835 "/>
<path d="M59.0105 154.4835 L59.1748 154.8121 "/>
<path d="M59.1748 154.8121 L59.1748 155.4693 "/>
<path d="M59.1748 155.4693 L59.0105 155.7980 "/>
<path d="M59.0105 155.7980 L58.8462 155.9623 "/>
<path d="M58.8462 155.9623 L58.5175 156.1266 "/>
<path d="M58.5175 156.1266 L57.8603 156.1266 "/>
<path d="M57.8603 156.1266 L57.5317 155.9623 "/>
<path d="M57.5317 155.9623 L57.3673 155.7980 "/>
<path d="M57.3673 155.7980 L57.2030 155.4693 "/>
<path d="M57.2030 155.4693 L57.2030 154.8121 "/>
<path d="M57.2030 154.8121 L57.3673 154.4835 "/>
<path d="M57.3673 154.4835 L57.5317 154.3192 "/>
<path d="M57.5317 154.3192 L57.8603 154.1549 "/>
<path d="M53.9168 156.1266 L55.8885 156.1266 "/>
<path d="M54.9027 156.1266 L54.9027 152.6761 "/>
<path d="M54.9027 152.6761 L55.2313 153.1690 "/>
<path d="M55.2313 153.1690 L55.5599 153.4976 "/>
<path d="M55.5599 153.4976 L55.8885 153.6619 "/>
<path d="M50.9592 152.6761 L51.6164 152.6761 "/>
<path d="M51.6164 152.6761 L51.9451 152.8404 "/>
<path d="M51.9451 152.8404 L52.1094 153.0047 "/>
<path d="M52.1094 153.0047 L52.4380 153.4976 "/>
<path d="M52.4380 153.4976 L52.6023 154.1549 "/>
<path d="M52.6023 154.1549 L52.6023 155.4693 "/>
<path d="M52.6023 155.4693 L52.4380 155.7980 "/>
<path d="M52.4380 155.7980 L52.2737 155.9623 "/>
<path d="M52.2737 155.9623 L51.9451 156.1266 "/>
<path d="M51.9451 156.1266 L51.2878 156.1266 "/>
<path d="M51.2878 156.1266 L50.9592 155.9623 "/>
<path d="M50.9592 155.9623 L50.7949 155.7980 "/>
<path d="M50.7949 155.7980 L50.6306 155.4693 "/>
<path d="M50.6306 155.4693 L50.6306 154.6478 "/>
<path d="M50.6306 154.6478 L50.7949 154.3192 "/>
<path d="M50.7949 154.3192 L50.9592 154.1549 "/>
<path d="M50.9592 154.1549 L51.2878 153.9905 "/>
<path d="M51.2878 153.9905 L51.9451 153.9905 "/>
<path d="M51.9451 153.9905 L52.2737 154.1549 "/>
<path d="M52.2737 154.1549 L52.4380 154.3192 "/>
<path d="M52.4380 154.3192 L52.6023 154.6478 "/>
</g><text x="69.5182" y="147.4836" transform="scale(-1 1) translate(-139.036376 0)" textLength="11.1198" font-size="4.6007" lengthAdjust="spacingAndGlyphs" text-anchor="middle" opacity="0.01" style="font-family:monospace">SW3</text>
<g class="stroked-text"><desc>SW3</desc>
<path d="M74.1189 147.1634 L73.6260 147.3277 "/>
<path d="M73.6260 147.3277 L72.8044 147.3277 "/>
<path d="M72.8044 147.3277 L72.4758 147.1634 "/>
<path d="M72.4758 147.1634 L72.3115 146.9991 "/>
<path d="M72.3115 146.9991 L72.1472 146.6705 "/>
<path d="M72.1472 146.6705 L72.1472 146.3418 "/>
<path d="M72.1472 146.3418 L72.3115 146.0132 "/>
<path d="M72.3115 146.0132 L72.4758 145.8489 "/>
<path d="M72.4758 145.8489 L72.8044 145.6846 "/>
<path d="M72.8044 145.6846 L73.4617 145.5203 "/>
<path d="M73.4617 145.5203 L73.7903 145.3560 "/>
<path d="M73.7903 145.3560 L73.9546 145.1917 "/>
<path d="M73.9546 145.1917 L74.1189 144.8630 "/>
<path d="M74.1189 144.8630 L74.1189 144.5344 "/>
<path d="M74.1189 144.5344 L73.9546 144.2058 "/>
<path d="M73.9546 144.2058 L73.7903 144.0415 "/>
<path d="M73.7903 144.0415 L73.4617 143.8772 "/>
<path d="M73.4617 143.8772 L72.6401 143.8772 "/>
<path d="M72.6401 143.8772 L72.1472 144.0415 "/>
<path d="M70.9970 143.8772 L70.1754 147.3277 "/>
<path d="M70.1754 147.3277 L69.5182 144.8630 "/>
<path d="M69.5182 144.8630 L68.8609 147.3277 "/>
<path d="M68.8609 147.3277 L68.0394 143.8772 "/>
<path d="M67.0535 143.8772 L64.9175 143.8772 "/>
<path d="M64.9175 143.8772 L66.0676 145.1917 "/>
<path d="M66.0676 145.1917 L65.5747 145.1917 "/>
<path d="M65.5747 145.1917 L65.2461 145.3560 "/>
<path d="M65.2461 145.3560 L65.0818 145.5203 "/>
<path d="M65.0818 145.5203 L64.9175 145.8489 "/>
<path d="M64.9175 145.8489 L64.9175 146.6705 "/>
<path d="M64.9175 146.6705 L65.0818 146.9991 "/>
<path d="M65.0818 146.9991 L65.2461 147.1634 "/>
<path d="M65.2461 147.1634 L65.5747 147.3277 "/>
<path d="M65.5747 147.3277 L66.5606 147.3277 "/>
<path d="M66.5606 147.3277 L66.8892 147.1634 "/>
<path d="M66.8892 147.1634 L67.0535 146.9991 "/>
</g><text x="217.3870" y="183.0558" transform="scale(-1 1) translate(-434.774069 0)" textLength="31.9874" font-size="4.6007" lengthAdjust="spacingAndGlyphs" text-anchor="middle" opacity="0.01" style="font-family:monospace">Conn_01x01</text>
<g class="stroked-text"><desc>Conn_01x01</desc>
<path d="M230.2855 182.5712 L230.4498 182.7356 "/>
<path d="M230.4498 182.7356 L230.9427 182.8999 "/>
<path d="M230.9427 182.8999 L231.2714 182.8999 "/>
<path d="M231.2714 182.8999 L231.7643 182.7356 "/>
<path d="M231.7643 182.7356 L232.0929 182.4069 "/>
<path d="M232.0929 182.4069 L232.2572 182.0783 "/>
<path d="M232.2572 182.0783 L232.4215 181.4211 "/>
<path d="M232.4215 181.4211 L232.4215 180.9281 "/>
<path d="M232.4215 180.9281 L232.2572 180.2709 "/>
<path d="M232.2572 180.2709 L232.0929 179.9423 "/>
<path d="M232.0929 179.9423 L231.7643 179.6136 "/>
<path d="M231.7643 179.6136 L231.2714 179.4493 "/>
<path d="M231.2714 179.4493 L230.9427 179.4493 "/>
<path d="M230.9427 179.4493 L230.4498 179.6136 "/>
<path d="M230.4498 179.6136 L230.2855 179.7780 "/>
<path d="M228.3137 182.8999 L228.6424 182.7356 "/>
<path d="M228.6424 182.7356 L228.8067 182.5712 "/>
<path d="M228.8067 182.5712 L228.9710 182.2426 "/>
<path d="M228.9710 182.2426 L228.9710 181.2568 "/>
<path d="M228.9710 181.2568 L228.8067 180.9281 "/>
<path d="M228.8067 180.9281 L228.6424 180.7638 "/>
<path d="M228.6424 180.7638 L228.3137 180.5995 "/>
<path d="M228.3137 180.5995 L227.8208 180.5995 "/>
<path d="M227.8208 180.5995 L227.4922 180.7638 "/>
<path d="M227.4922 180.7638 L227.3279 180.9281 "/>
<path d="M227.3279 180.9281 L227.1636 181.2568 "/>
<path d="M227.1636 181.2568 L227.1636 182.2426 "/>
<path d="M227.1636 182.2426 L227.3279 182.5712 "/>
<path d="M227.3279 182.5712 L227.4922 182.7356 "/>
<path d="M227.4922 182.7356 L227.8208 182.8999 "/>
<path d="M227.8208 182.8999 L228.3137 182.8999 "/>
<path d="M225.6848 180.5995 L225.6848 182.8999 "/>
<path d="M225.6848 180.9281 L225.5205 180.7638 "/>
<path d="M225.5205 180.7638 L225.1918 180.5995 "/>
<path d="M225.1918 180.5995 L224.6989 180.5995 "/>
<path d="M224.6989 180.5995 L224.3703 180.7638 "/>
<path d="M224.3703 180.7638 L224.2060 181.0924 "/>
<path d="M224.2060 181.0924 L224.2060 182.8999 "/>
<path d="M222.5628 180.5995 L222.5628 182.8999 "/>
<path d="M222.5628 180.9281 L222.3985 180.7638 "/>
<path d="M222.3985 180.7638 L222.0699 180.5995 "/>
<path d="M222.0699 180.5995 L221.5770 180.5995 "/>
<path d="M221.5770 180.5995 L221.2484 180.7638 "/>
<path d="M221.2484 180.7638 L221.0840 181.0924 "/>
<path d="M221.0840 181.0924 L221.0840 182.8999 "/>
<path d="M220.2625 183.2285 L217.6335 183.2285 "/>
<path d="M216.1547 179.4493 L215.8261 179.4493 "/>
<path d="M215.8261 179.4493 L215.4974 179.6136 "/>
<path d="M215.4974 179.6136 L215.3331 179.7780 "/>
<path d="M215.3331 179.7780 L215.1688 180.1066 "/>
<path d="M215.1688 180.1066 L215.0045 180.7638 "/>
<path d="M215.0045 180.7638 L215.0045 181.5854 "/>
<path d="M215.0045 181.5854 L215.1688 182.2426 "/>
<path d="M215.1688 182.2426 L215.3331 182.5712 "/>
<path d="M215.3331 182.5712 L215.4974 182.7356 "/>
<path d="M215.4974 182.7356 L215.8261 182.8999 "/>
<path d="M215.8261 182.8999 L216.1547 182.8999 "/>
<path d="M216.1547 182.8999 L216.4833 182.7356 "/>
<path d="M216.4833 182.7356 L216.6476 182.5712 "/>
<path d="M216.6476 182.5712 L216.8119 182.2426 "/>
<path d="M216.8119 182.2426 L216.9763 181.5854 "/>
<path d="M216.9763 181.5854 L216.9763 180.7638 "/>
<path d="M216.9763 180.7638 L216.8119 180.1066 "/>
<path d="M216.8119 180.1066 L216.6476 179.7780 "/>
<path d="M216.6476 179.7780 L216.4833 179.6136 "/>
<path d="M216.4833 179.6136 L216.1547 179.4493 "/>
<path d="M211.7183 182.8999 L213.6900 182.8999 "/>
<path d="M212.7042 182.8999 L212.7042 179.4493 "/>
<path d="M212.7042 179.4493 L213.0328 179.9423 "/>
<path d="M213.0328 179.9423 L213.3614 180.2709 "/>
<path d="M213.3614 180.2709 L213.6900 180.4352 "/>
<path d="M210.5681 182.8999 L208.7607 180.5995 "/>
<path d="M210.5681 180.5995 L208.7607 182.8999 "/>
<path d="M206.7889 179.4493 L206.4603 179.4493 "/>
<path d="M206.4603 179.4493 L206.1317 179.6136 "/>
<path d="M206.1317 179.6136 L205.9674 179.7780 "/>
<path d="M205.9674 179.7780 L205.8031 180.1066 "/>
<path d="M205.8031 180.1066 L205.6388 180.7638 "/>
<path d="M205.6388 180.7638 L205.6388 181.5854 "/>
<path d="M205.6388 181.5854 L205.8031 182.2426 "/>
<path d="M205.8031 182.2426 L205.9674 182.5712 "/>
<path d="M205.9674 182.5712 L206.1317 182.7356 "/>
<path d="M206.1317 182.7356 L206.4603 182.8999 "/>
<path d="M206.4603 182.8999 L206.7889 182.8999 "/>
<path d="M206.7889 182.8999 L207.1176 182.7356 "/>
<path d="M207.1176 182.7356 L207.2819 182.5712 "/>
<path d="M207.2819 182.5712 L207.4462 182.2426 "/>
<path d="M207.4462 182.2426 L207.6105 181.5854 "/>
<path d="M207.6105 181.5854 L207.6105 180.7638 "/>
<path d="M207.6105 180.7638 L207.4462 180.1066 "/>
<path d="M207.4462 180.1066 L207.2819 179.7780 "/>
<path d="M207.2819 179.7780 L207.1176 179.6136 "/>
<path d="M207.1176 179.6136 L206.7889 179.4493 "/>
<path d="M202.3525 182.8999 L204.3243 182.8999 "/>
<path d="M203.3384 182.8999 L203.3384 179.4493 "/>
<path d="M203.3384 179.4493 L203.6670 179.9423 "/>
<path d="M203.6670 179.9423 L203.9956 180.2709 "/>
<path d="M203.9956 180.2709 L204.3243 180.4352 "/>
</g><text x="217.3870" y="172.7041" transform="scale(-1 1) translate(-434.774069 0)" textLength="6.5191" font-size="4.6007" lengthAdjust="spacingAndGlyphs" text-anchor="middle" opacity="0.01" style="font-family:monospace">J3</text>
<g class="stroked-text"><desc>J3</desc>
<path d="M218.5372 169.0977 L218.5372 171.5624 "/>
<path d="M218.5372 171.5624 L218.7015 172.0553 "/>
<path d="M218.7015 172.0553 L219.0301 172.3839 "/>
<path d="M219.0301 172.3839 L219.5231 172.5482 "/>
<path d="M219.5231 172.5482 L219.8517 172.5482 "/>
<path d="M217.2227 169.0977 L215.0867 169.0977 "/>
<path d="M215.0867 169.0977 L216.2369 170.4122 "/>
<path d="M216.2369 170.4122 L215.7439 170.4122 "/>
<path d="M215.7439 170.4122 L215.4153 170.5765 "/>
<path d="M215.4153 170.5765 L215.2510 170.7408 "/>
<path d="M215.2510 170.7408 L215.0867 171.0694 "/>
<path d="M215.0867 171.0694 L215.0867 171.8910 "/>
<path d="M215.0867 171.8910 L215.2510 172.2196 "/>
<path d="M215.2510 172.2196 L215.4153 172.3839 "/>
<path d="M215.4153 172.3839 L215.7439 172.5482 "/>
<path d="M215.7439 172.5482 L216.7298 172.5482 "/>
<path d="M216.7298 172.5482 L217.0584 172.3839 "/>
<path d="M217.0584 172.3839 L217.2227 172.2196 "/>
</g></g>
<g style="fill:#000084; fill-opacity:0.0;  stroke:#000084; stroke-width:0.3451; stroke-opacity:1;  stroke-linecap:round; stroke-linejoin:round;">
<path d="M62.4446 117.2722 L62.4446 128.3139 "/>
<path d="M62.4446 118.9975 L64.1698 117.2722 "/>
<path d="M62.4446 126.5887 L64.1698 128.3139 "/>
<path d="M62.4446 128.3139 L76.9369 128.3139 "/>
<path d="M66.5852 126.5887 L72.4511 126.5887 "/>
<path d="M72.4511 118.9975 L66.5852 118.9975 "/>
<path d="M75.2116 117.2722 L76.9369 118.9975 "/>
<path d="M75.2116 128.3139 L76.9369 126.5887 "/>
<path d="M76.9369 117.2722 L62.4446 117.2722 "/>
<path d="M76.9369 128.3139 L76.9369 117.2722 "/>
<path d="M66.5852 118.9975 A4.6932 4.6932 0.0 0 0 66.5852 126.5887"/>
<path d="M72.4511 126.5887 A4.4990 4.4990 0.0 0 0 72.4511 118.9975"/>
<path d="M76.9369 174.2445 L76.9369 163.2027 "/>
<path d="M76.9369 172.5192 L75.2116 174.2445 "/>
<path d="M76.9369 164.9280 L75.2116 163.2027 "/>
<path d="M76.9369 163.2027 L62.4446 163.2027 "/>
<path d="M72.7962 164.9280 L66.9303 164.9280 "/>
<path d="M66.9303 172.5192 L72.7962 172.5192 "/>
<path d="M64.1698 174.2445 L62.4446 172.5192 "/>
<path d="M64.1698 163.2027 L62.4446 164.9280 "/>
<path d="M62.4446 174.2445 L76.9369 174.2445 "/>
<path d="M62.4446 163.2027 L62.4446 174.2445 "/>
<path d="M72.7962 172.5192 A4.6932 4.6932 0.0 0 0 72.7962 164.9280"/>
<path d="M66.9303 164.9280 A4.4990 4.4990 0.0 0 0 66.9303 172.5192"/>
<path d="M76.9369 151.2792 L76.9369 140.2375 "/>
<path d="M76.9369 149.5539 L75.2116 151.2792 "/>
<path d="M76.9369 141.9627 L75.2116 140.2375 "/>
<path d="M76.9369 140.2375 L62.4446 140.2375 "/>
<path d="M72.7962 141.9627 L66.9303 141.9627 "/>
<path d="M66.9303 149.5539 L72.7962 149.5539 "/>
<path d="M64.1698 151.2792 L62.4446 149.5539 "/>
<path d="M64.1698 140.2375 L62.4446 141.9627 "/>
<path d="M62.4446 151.2792 L76.9369 151.2792 "/>
<path d="M62.4446 140.2375 L62.4446 151.2792 "/>
<path d="M72.7962 149.5539 A4.6932 4.6932 0.0 0 0 72.7962 141.9627"/>
<path d="M66.9303 141.9627 A4.4990 4.4990 0.0 0 0 66.9303 149.5539"/>
<g>
</g>
<g>
</g>
<g>
</g>
<g>
</g>
<g>
</g>
<g>
</g>
<g>
</g>
<g>
</g>
<g>
</g>
<g>
</g>
<g>
</g>
<g>
</g>
<g>
</g>
<g>
</g>
<g>
</g>
<g>
</g>
<g>
</g>
<g>
</g>
<g>
</g>
<g>
</g>
<g>
</g>
<g>
</g>
<g>
</g>
<g>
</g>
<g>
</g>
<g>
</g>
<g>
</g>
<g>
</g>
<g>
</g>
<g>
</g>
<g>
</g>
<g>
</g>
<g>
</g>
<g>
</g>
<g>
</g>
<g>
</g>
<g>
</g>
<g>
</g>
<g>
</g>
<g>
</g>
<g>
</g>
<g>
</g>
<g>
</g>
<g>
</g>
<g>
</g>
<g>
</g>
<g>
</g>
<g>
</g>
<g>
</g>
<g>
</g>
<g>
</g>
<g>
</g>
<g>
</g>
<g>
</g>
<g>
</g>
<g>
</g>
<g>
</g>
<g>
</g>
<g>
</g>
<g>
</g>
<g>
</g>
<g>
</g>
<g>
</g>
<g>
</g>
<g>
</g>
<g>
</g>
<g>
</g>
<g>
</g>
<g>
</g>
<g>
</g>
<g>
</g>
<g>
</g>
<g>
</g>
<g>
</g>
<g>
</g>
<g>
</g>
<g>
</g>
<g>
</g>
<g>
</g>
<g>
</g>
<g>
</g>
<g>
</g>
<g>
</g>
<g>
</g>
<g>
</g>
<g>
</g>
<g>
</g>
<g>
</g>
<g>
</g>
<g>
</g>
<g>
</g>
<g>
</g>
<g>
</g>
<g>
</g>
<g>
</g>
<g>
</g>
<g>
</g>
<g>
</g>
<g>
</g>
<g>
</g>
<g>
</g>
<g>
</g>
<g>
</g>
<g>
</g>
<g>
</g>
</g> 
<svg:g><svg:g><svg:title>SVG Image created as AMFOC01-Edge_Cuts.svg date 2023/06/25 19:17:45 </svg:title>
  <svg:desc>Image generated by PCBNEW </svg:desc>
<svg:g style="fill:#C2C200; fill-opacity:1.0000;stroke:#C2C200; stroke-opacity:1.0000; stroke-linecap:round; stroke-linejoin:round;" transform="translate(0 0) scale(1 1)">
</svg:g>
<svg:g style="fill:#C2C200; fill-opacity:0.0;  stroke:#C2C200; stroke-width:0.0000; stroke-opacity:1;  stroke-linecap:round; stroke-linejoin:round;">
</svg:g>
<svg:g style="fill:#C2C200; fill-opacity:0.0;  stroke:#C2C200; stroke-width:0.3451; stroke-opacity:1;  stroke-linecap:round; stroke-linejoin:round;">
<svg:path style="fill:#C2C200; fill-opacity:0.0;  stroke:#C2C200; stroke-width:0.3451; stroke-opacity:1;  stroke-linecap:round; stroke-linejoin:round;fill:none" d="M 26.1449,0.1761 270.8573,0.1761 270.8573,209.8311 26.1449,209.8311 Z"/> 
</svg:g>
<svg:g style="fill:#C2C200; fill-opacity:0.0;  stroke:#C2C200; stroke-width:0.1725; stroke-opacity:1;  stroke-linecap:round; stroke-linejoin:round;">
<svg:path d="M75.5825 200.5836 L75.5825 195.7529 "/>
<svg:path d="M77.3078 194.0276 L81.4484 194.0276 "/>
<svg:path d="M77.3078 202.3089 L81.4484 202.3089 "/>
<svg:path d="M83.1737 200.5836 L83.1737 195.7529 "/>
<svg:path d="M77.3078 194.0276 A1.7253 1.7253 0.0 0 0 75.5825 195.7529"/>
<svg:path d="M75.5825 200.5836 A1.7253 1.7253 0.0 0 0 77.3078 202.3089"/>
<svg:path d="M83.1737 195.7529 A1.7253 1.7253 0.0 0 0 81.4484 194.0276"/>
<svg:path d="M81.4484 202.3089 A1.7253 1.7253 0.0 0 0 83.1737 200.5836"/>
<svg:path d="M96.5359 200.5836 L96.5359 195.7529 "/>
<svg:path d="M98.2612 194.0276 L102.4019 194.0276 "/>
<svg:path d="M98.2612 202.3089 L102.4019 202.3089 "/>
<svg:path d="M104.1271 200.5836 L104.1271 195.7529 "/>
<svg:path d="M98.2612 194.0276 A1.7253 1.7253 0.0 0 0 96.5359 195.7529"/>
<svg:path d="M96.5359 200.5836 A1.7253 1.7253 0.0 0 0 98.2612 202.3089"/>
<svg:path d="M104.1271 195.7529 A1.7253 1.7253 0.0 0 0 102.4019 194.0276"/>
<svg:path d="M102.4019 202.3089 A1.7253 1.7253 0.0 0 0 104.1271 200.5836"/>
<svg:g>
</svg:g>
<svg:g>
</svg:g>
<svg:g>
</svg:g>
<svg:g>
</svg:g>
<svg:g>
</svg:g>
<svg:g>
</svg:g>
<svg:g>
</svg:g>
<svg:g>
</svg:g>
<svg:g>
</svg:g>
<svg:g>
</svg:g>
<svg:g>
</svg:g>
<svg:g>
</svg:g>
<svg:g>
</svg:g>
<svg:g>
</svg:g>
<svg:g>
</svg:g>
<svg:g>
</svg:g>
<svg:g>
</svg:g>
<svg:g>
</svg:g>
<svg:g>
</svg:g>
<svg:g>
</svg:g>
<svg:g>
</svg:g>
<svg:g>
</svg:g>
<svg:g>
</svg:g>
<svg:g>
</svg:g>
<svg:g>
</svg:g>
<svg:g>
</svg:g>
<svg:g>
</svg:g>
<svg:g>
</svg:g>
<svg:g>
</svg:g>
<svg:g>
</svg:g>
<svg:g>
</svg:g>
<svg:g>
</svg:g>
<svg:g>
</svg:g>
<svg:g>
</svg:g>
<svg:g>
</svg:g>
<svg:g>
</svg:g>
<svg:g>
</svg:g>
<svg:g>
</svg:g>
<svg:g>
</svg:g>
<svg:g>
</svg:g>
<svg:g>
</svg:g>
<svg:g>
</svg:g>
<svg:g>
</svg:g>
<svg:g>
</svg:g>
<svg:g>
</svg:g>
<svg:g>
</svg:g>
<svg:g>
</svg:g>
<svg:g>
</svg:g>
<svg:g>
</svg:g>
<svg:g>
</svg:g>
<svg:g>
</svg:g>
<svg:g>
</svg:g>
<svg:g>
</svg:g>
<svg:g>
</svg:g>
<svg:g>
</svg:g>
<svg:g>
</svg:g>
<svg:g>
</svg:g>
<svg:g>
</svg:g>
<svg:g>
</svg:g>
<svg:g>
</svg:g>
<svg:g>
</svg:g>
<svg:g>
</svg:g>
<svg:g>
</svg:g>
<svg:g>
</svg:g>
<svg:g>
</svg:g>
<svg:g>
</svg:g>
<svg:g>
</svg:g>
<svg:g>
</svg:g>
<svg:g>
</svg:g>
<svg:g>
</svg:g>
<svg:g>
</svg:g>
<svg:g>
</svg:g>
<svg:g>
</svg:g>
<svg:g>
</svg:g>
<svg:g>
</svg:g>
<svg:g>
</svg:g>
<svg:g>
</svg:g>
<svg:g>
</svg:g>
<svg:g>
</svg:g>
<svg:g>
</svg:g>
<svg:g>
</svg:g>
<svg:g>
</svg:g>
<svg:g>
</svg:g>
<svg:g>
</svg:g>
<svg:g>
</svg:g>
<svg:g>
</svg:g>
<svg:g>
</svg:g>
<svg:g>
</svg:g>
<svg:g>
</svg:g>
<svg:g>
</svg:g>
<svg:g>
</svg:g>
<svg:g>
</svg:g>
<svg:g>
</svg:g>
<svg:g>
</svg:g>
<svg:g>
</svg:g>
<svg:g>
</svg:g>
<svg:g>
</svg:g>
<svg:g>
</svg:g>
<svg:g>
</svg:g>
<svg:g>
</svg:g>
<svg:g>
</svg:g>
<svg:g>
</svg:g>
<svg:g>
</svg:g>
<svg:g>
</svg:g>
<svg:g>
</svg:g>
</svg:g> 
</svg:g></svg:g></svg>
