<?xml version='1.0' encoding='ASCII' standalone='yes'?>
<svg xmlns:svg="http://www.w3.org/2000/svg" xmlns="http://www.w3.org/2000/svg" xmlns:xlink="http://www.w3.org/1999/xlink" version="1.1" width="297.0022mm" height="210.0072mm" viewBox="0.0000 0.0000 297.0022 210.0072">
<title>SVG Image created as AMFOC01-B_Fab.svg date 2023/06/19 19:11:31 </title>
  <desc>Image generated by PCBNEW </desc>
<g style="fill:#000084; fill-opacity:1.0000;stroke:#000084; stroke-opacity:1.0000; stroke-linecap:round; stroke-linejoin:round;" transform="translate(0 0) scale(1 1)">
</g>
<g style="fill:#000084; fill-opacity:0.0;  stroke:#000084; stroke-width:0.0000; stroke-opacity:1;  stroke-linecap:round; stroke-linejoin:round;">
</g>
<g style="fill:#000084; fill-opacity:0.01;  stroke:#000084; stroke-width:0.6213; stroke-opacity:1;  stroke-linecap:round; stroke-linejoin:round;">
<text x="53.8975" y="69.2580" transform="scale(-1 1) translate(-107.795096 0)" textLength="48.0621" font-size="5.5227" lengthAdjust="spacingAndGlyphs" text-anchor="middle" opacity="0.01" style="font-family:monospace">434133025816</text>
<g class="stroked-text"><desc>434133025816</desc>
<path d="M74.8048 66.3096 L74.8048 69.0709 "/>
<path d="M75.7910 64.7316 L76.7772 67.6902 "/>
<path d="M76.7772 67.6902 L74.2131 67.6902 "/>
<path d="M73.0297 64.9289 L70.4656 64.9289 "/>
<path d="M70.4656 64.9289 L71.8463 66.5068 "/>
<path d="M71.8463 66.5068 L71.2545 66.5068 "/>
<path d="M71.2545 66.5068 L70.8601 66.7040 "/>
<path d="M70.8601 66.7040 L70.6628 66.9013 "/>
<path d="M70.6628 66.9013 L70.4656 67.2957 "/>
<path d="M70.4656 67.2957 L70.4656 68.2819 "/>
<path d="M70.4656 68.2819 L70.6628 68.6764 "/>
<path d="M70.6628 68.6764 L70.8601 68.8737 "/>
<path d="M70.8601 68.8737 L71.2545 69.0709 "/>
<path d="M71.2545 69.0709 L72.4380 69.0709 "/>
<path d="M72.4380 69.0709 L72.8325 68.8737 "/>
<path d="M72.8325 68.8737 L73.0297 68.6764 "/>
<path d="M66.9153 66.3096 L66.9153 69.0709 "/>
<path d="M67.9015 64.7316 L68.8877 67.6902 "/>
<path d="M68.8877 67.6902 L66.3236 67.6902 "/>
<path d="M62.5760 69.0709 L64.9429 69.0709 "/>
<path d="M63.7595 69.0709 L63.7595 64.9289 "/>
<path d="M63.7595 64.9289 L64.1540 65.5206 "/>
<path d="M64.1540 65.5206 L64.5484 65.9151 "/>
<path d="M64.5484 65.9151 L64.9429 66.1123 "/>
<path d="M61.1954 64.9289 L58.6313 64.9289 "/>
<path d="M58.6313 64.9289 L60.0119 66.5068 "/>
<path d="M60.0119 66.5068 L59.4202 66.5068 "/>
<path d="M59.4202 66.5068 L59.0258 66.7040 "/>
<path d="M59.0258 66.7040 L58.8285 66.9013 "/>
<path d="M58.8285 66.9013 L58.6313 67.2957 "/>
<path d="M58.6313 67.2957 L58.6313 68.2819 "/>
<path d="M58.6313 68.2819 L58.8285 68.6764 "/>
<path d="M58.8285 68.6764 L59.0258 68.8737 "/>
<path d="M59.0258 68.8737 L59.4202 69.0709 "/>
<path d="M59.4202 69.0709 L60.6037 69.0709 "/>
<path d="M60.6037 69.0709 L60.9981 68.8737 "/>
<path d="M60.9981 68.8737 L61.1954 68.6764 "/>
<path d="M57.2506 64.9289 L54.6865 64.9289 "/>
<path d="M54.6865 64.9289 L56.0672 66.5068 "/>
<path d="M56.0672 66.5068 L55.4755 66.5068 "/>
<path d="M55.4755 66.5068 L55.0810 66.7040 "/>
<path d="M55.0810 66.7040 L54.8837 66.9013 "/>
<path d="M54.8837 66.9013 L54.6865 67.2957 "/>
<path d="M54.6865 67.2957 L54.6865 68.2819 "/>
<path d="M54.6865 68.2819 L54.8837 68.6764 "/>
<path d="M54.8837 68.6764 L55.0810 68.8737 "/>
<path d="M55.0810 68.8737 L55.4755 69.0709 "/>
<path d="M55.4755 69.0709 L56.6589 69.0709 "/>
<path d="M56.6589 69.0709 L57.0534 68.8737 "/>
<path d="M57.0534 68.8737 L57.2506 68.6764 "/>
<path d="M52.1224 64.9289 L51.7279 64.9289 "/>
<path d="M51.7279 64.9289 L51.3334 65.1261 "/>
<path d="M51.3334 65.1261 L51.1362 65.3234 "/>
<path d="M51.1362 65.3234 L50.9390 65.7178 "/>
<path d="M50.9390 65.7178 L50.7417 66.5068 "/>
<path d="M50.7417 66.5068 L50.7417 67.4930 "/>
<path d="M50.7417 67.4930 L50.9390 68.2819 "/>
<path d="M50.9390 68.2819 L51.1362 68.6764 "/>
<path d="M51.1362 68.6764 L51.3334 68.8737 "/>
<path d="M51.3334 68.8737 L51.7279 69.0709 "/>
<path d="M51.7279 69.0709 L52.1224 69.0709 "/>
<path d="M52.1224 69.0709 L52.5169 68.8737 "/>
<path d="M52.5169 68.8737 L52.7141 68.6764 "/>
<path d="M52.7141 68.6764 L52.9114 68.2819 "/>
<path d="M52.9114 68.2819 L53.1086 67.4930 "/>
<path d="M53.1086 67.4930 L53.1086 66.5068 "/>
<path d="M53.1086 66.5068 L52.9114 65.7178 "/>
<path d="M52.9114 65.7178 L52.7141 65.3234 "/>
<path d="M52.7141 65.3234 L52.5169 65.1261 "/>
<path d="M52.5169 65.1261 L52.1224 64.9289 "/>
<path d="M49.1638 65.3234 L48.9666 65.1261 "/>
<path d="M48.9666 65.1261 L48.5721 64.9289 "/>
<path d="M48.5721 64.9289 L47.5859 64.9289 "/>
<path d="M47.5859 64.9289 L47.1914 65.1261 "/>
<path d="M47.1914 65.1261 L46.9942 65.3234 "/>
<path d="M46.9942 65.3234 L46.7970 65.7178 "/>
<path d="M46.7970 65.7178 L46.7970 66.1123 "/>
<path d="M46.7970 66.1123 L46.9942 66.7040 "/>
<path d="M46.9942 66.7040 L49.3611 69.0709 "/>
<path d="M49.3611 69.0709 L46.7970 69.0709 "/>
<path d="M43.0494 64.9289 L45.0218 64.9289 "/>
<path d="M45.0218 64.9289 L45.2190 66.9013 "/>
<path d="M45.2190 66.9013 L45.0218 66.7040 "/>
<path d="M45.0218 66.7040 L44.6273 66.5068 "/>
<path d="M44.6273 66.5068 L43.6411 66.5068 "/>
<path d="M43.6411 66.5068 L43.2467 66.7040 "/>
<path d="M43.2467 66.7040 L43.0494 66.9013 "/>
<path d="M43.0494 66.9013 L42.8522 67.2957 "/>
<path d="M42.8522 67.2957 L42.8522 68.2819 "/>
<path d="M42.8522 68.2819 L43.0494 68.6764 "/>
<path d="M43.0494 68.6764 L43.2467 68.8737 "/>
<path d="M43.2467 68.8737 L43.6411 69.0709 "/>
<path d="M43.6411 69.0709 L44.6273 69.0709 "/>
<path d="M44.6273 69.0709 L45.0218 68.8737 "/>
<path d="M45.0218 68.8737 L45.2190 68.6764 "/>
<path d="M40.4853 66.7040 L40.8798 66.5068 "/>
<path d="M40.8798 66.5068 L41.0770 66.3096 "/>
<path d="M41.0770 66.3096 L41.2743 65.9151 "/>
<path d="M41.2743 65.9151 L41.2743 65.7178 "/>
<path d="M41.2743 65.7178 L41.0770 65.3234 "/>
<path d="M41.0770 65.3234 L40.8798 65.1261 "/>
<path d="M40.8798 65.1261 L40.4853 64.9289 "/>
<path d="M40.4853 64.9289 L39.6964 64.9289 "/>
<path d="M39.6964 64.9289 L39.3019 65.1261 "/>
<path d="M39.3019 65.1261 L39.1046 65.3234 "/>
<path d="M39.1046 65.3234 L38.9074 65.7178 "/>
<path d="M38.9074 65.7178 L38.9074 65.9151 "/>
<path d="M38.9074 65.9151 L39.1046 66.3096 "/>
<path d="M39.1046 66.3096 L39.3019 66.5068 "/>
<path d="M39.3019 66.5068 L39.6964 66.7040 "/>
<path d="M39.6964 66.7040 L40.4853 66.7040 "/>
<path d="M40.4853 66.7040 L40.8798 66.9013 "/>
<path d="M40.8798 66.9013 L41.0770 67.0985 "/>
<path d="M41.0770 67.0985 L41.2743 67.4930 "/>
<path d="M41.2743 67.4930 L41.2743 68.2819 "/>
<path d="M41.2743 68.2819 L41.0770 68.6764 "/>
<path d="M41.0770 68.6764 L40.8798 68.8737 "/>
<path d="M40.8798 68.8737 L40.4853 69.0709 "/>
<path d="M40.4853 69.0709 L39.6964 69.0709 "/>
<path d="M39.6964 69.0709 L39.3019 68.8737 "/>
<path d="M39.3019 68.8737 L39.1046 68.6764 "/>
<path d="M39.1046 68.6764 L38.9074 68.2819 "/>
<path d="M38.9074 68.2819 L38.9074 67.4930 "/>
<path d="M38.9074 67.4930 L39.1046 67.0985 "/>
<path d="M39.1046 67.0985 L39.3019 66.9013 "/>
<path d="M39.3019 66.9013 L39.6964 66.7040 "/>
<path d="M34.9626 69.0709 L37.3295 69.0709 "/>
<path d="M36.1461 69.0709 L36.1461 64.9289 "/>
<path d="M36.1461 64.9289 L36.5405 65.5206 "/>
<path d="M36.5405 65.5206 L36.9350 65.9151 "/>
<path d="M36.9350 65.9151 L37.3295 66.1123 "/>
<path d="M31.4123 64.9289 L32.2013 64.9289 "/>
<path d="M32.2013 64.9289 L32.5958 65.1261 "/>
<path d="M32.5958 65.1261 L32.7930 65.3234 "/>
<path d="M32.7930 65.3234 L33.1875 65.9151 "/>
<path d="M33.1875 65.9151 L33.3847 66.7040 "/>
<path d="M33.3847 66.7040 L33.3847 68.2819 "/>
<path d="M33.3847 68.2819 L33.1875 68.6764 "/>
<path d="M33.1875 68.6764 L32.9902 68.8737 "/>
<path d="M32.9902 68.8737 L32.5958 69.0709 "/>
<path d="M32.5958 69.0709 L31.8068 69.0709 "/>
<path d="M31.8068 69.0709 L31.4123 68.8737 "/>
<path d="M31.4123 68.8737 L31.2151 68.6764 "/>
<path d="M31.2151 68.6764 L31.0179 68.2819 "/>
<path d="M31.0179 68.2819 L31.0179 67.2957 "/>
<path d="M31.0179 67.2957 L31.2151 66.9013 "/>
<path d="M31.2151 66.9013 L31.4123 66.7040 "/>
<path d="M31.4123 66.7040 L31.8068 66.5068 "/>
<path d="M31.8068 66.5068 L32.5958 66.5068 "/>
<path d="M32.5958 66.5068 L32.9902 66.7040 "/>
<path d="M32.9902 66.7040 L33.1875 66.9013 "/>
<path d="M33.1875 66.9013 L33.3847 67.2957 "/>
</g><text x="54.1046" y="79.8202" transform="scale(-1 1) translate(-108.209297 0)" textLength="13.3481" font-size="5.5227" lengthAdjust="spacingAndGlyphs" text-anchor="middle" opacity="0.01" style="font-family:monospace">SW5</text>
<g class="stroked-text"><desc>SW5</desc>
<path d="M59.6273 79.4358 L59.0356 79.6330 "/>
<path d="M59.0356 79.6330 L58.0494 79.6330 "/>
<path d="M58.0494 79.6330 L57.6549 79.4358 "/>
<path d="M57.6549 79.4358 L57.4577 79.2385 "/>
<path d="M57.4577 79.2385 L57.2605 78.8441 "/>
<path d="M57.2605 78.8441 L57.2605 78.4496 "/>
<path d="M57.2605 78.4496 L57.4577 78.0551 "/>
<path d="M57.4577 78.0551 L57.6549 77.8579 "/>
<path d="M57.6549 77.8579 L58.0494 77.6606 "/>
<path d="M58.0494 77.6606 L58.8384 77.4634 "/>
<path d="M58.8384 77.4634 L59.2328 77.2662 "/>
<path d="M59.2328 77.2662 L59.4301 77.0689 "/>
<path d="M59.4301 77.0689 L59.6273 76.6744 "/>
<path d="M59.6273 76.6744 L59.6273 76.2800 "/>
<path d="M59.6273 76.2800 L59.4301 75.8855 "/>
<path d="M59.4301 75.8855 L59.2328 75.6883 "/>
<path d="M59.2328 75.6883 L58.8384 75.4910 "/>
<path d="M58.8384 75.4910 L57.8522 75.4910 "/>
<path d="M57.8522 75.4910 L57.2605 75.6883 "/>
<path d="M55.8798 75.4910 L54.8936 79.6330 "/>
<path d="M54.8936 79.6330 L54.1046 76.6744 "/>
<path d="M54.1046 76.6744 L53.3157 79.6330 "/>
<path d="M53.3157 79.6330 L52.3295 75.4910 "/>
<path d="M48.7792 75.4910 L50.7516 75.4910 "/>
<path d="M50.7516 75.4910 L50.9488 77.4634 "/>
<path d="M50.9488 77.4634 L50.7516 77.2662 "/>
<path d="M50.7516 77.2662 L50.3571 77.0689 "/>
<path d="M50.3571 77.0689 L49.3709 77.0689 "/>
<path d="M49.3709 77.0689 L48.9764 77.2662 "/>
<path d="M48.9764 77.2662 L48.7792 77.4634 "/>
<path d="M48.7792 77.4634 L48.5820 77.8579 "/>
<path d="M48.5820 77.8579 L48.5820 78.8441 "/>
<path d="M48.5820 78.8441 L48.7792 79.2385 "/>
<path d="M48.7792 79.2385 L48.9764 79.4358 "/>
<path d="M48.9764 79.4358 L49.3709 79.6330 "/>
<path d="M49.3709 79.6330 L50.3571 79.6330 "/>
<path d="M50.3571 79.6330 L50.7516 79.4358 "/>
<path d="M50.7516 79.4358 L50.9488 79.2385 "/>
</g><text x="240.3038" y="177.6556" transform="scale(-1 1) translate(-480.607640 0)" textLength="38.3974" font-size="5.5227" lengthAdjust="spacingAndGlyphs" text-anchor="middle" opacity="0.01" style="font-family:monospace">Conn_01x01</text>
<g class="stroked-text"><desc>Conn_01x01</desc>
<path d="M255.7871 177.0740 L255.9843 177.2712 "/>
<path d="M255.9843 177.2712 L256.5760 177.4684 "/>
<path d="M256.5760 177.4684 L256.9705 177.4684 "/>
<path d="M256.9705 177.4684 L257.5622 177.2712 "/>
<path d="M257.5622 177.2712 L257.9567 176.8767 "/>
<path d="M257.9567 176.8767 L258.1539 176.4822 "/>
<path d="M258.1539 176.4822 L258.3512 175.6933 "/>
<path d="M258.3512 175.6933 L258.3512 175.1016 "/>
<path d="M258.3512 175.1016 L258.1539 174.3126 "/>
<path d="M258.1539 174.3126 L257.9567 173.9181 "/>
<path d="M257.9567 173.9181 L257.5622 173.5237 "/>
<path d="M257.5622 173.5237 L256.9705 173.3264 "/>
<path d="M256.9705 173.3264 L256.5760 173.3264 "/>
<path d="M256.5760 173.3264 L255.9843 173.5237 "/>
<path d="M255.9843 173.5237 L255.7871 173.7209 "/>
<path d="M253.4202 177.4684 L253.8147 177.2712 "/>
<path d="M253.8147 177.2712 L254.0119 177.0740 "/>
<path d="M254.0119 177.0740 L254.2091 176.6795 "/>
<path d="M254.2091 176.6795 L254.2091 175.4960 "/>
<path d="M254.2091 175.4960 L254.0119 175.1016 "/>
<path d="M254.0119 175.1016 L253.8147 174.9043 "/>
<path d="M253.8147 174.9043 L253.4202 174.7071 "/>
<path d="M253.4202 174.7071 L252.8285 174.7071 "/>
<path d="M252.8285 174.7071 L252.4340 174.9043 "/>
<path d="M252.4340 174.9043 L252.2368 175.1016 "/>
<path d="M252.2368 175.1016 L252.0395 175.4960 "/>
<path d="M252.0395 175.4960 L252.0395 176.6795 "/>
<path d="M252.0395 176.6795 L252.2368 177.0740 "/>
<path d="M252.2368 177.0740 L252.4340 177.2712 "/>
<path d="M252.4340 177.2712 L252.8285 177.4684 "/>
<path d="M252.8285 177.4684 L253.4202 177.4684 "/>
<path d="M250.2644 174.7071 L250.2644 177.4684 "/>
<path d="M250.2644 175.1016 L250.0671 174.9043 "/>
<path d="M250.0671 174.9043 L249.6727 174.7071 "/>
<path d="M249.6727 174.7071 L249.0809 174.7071 "/>
<path d="M249.0809 174.7071 L248.6865 174.9043 "/>
<path d="M248.6865 174.9043 L248.4892 175.2988 "/>
<path d="M248.4892 175.2988 L248.4892 177.4684 "/>
<path d="M246.5168 174.7071 L246.5168 177.4684 "/>
<path d="M246.5168 175.1016 L246.3196 174.9043 "/>
<path d="M246.3196 174.9043 L245.9251 174.7071 "/>
<path d="M245.9251 174.7071 L245.3334 174.7071 "/>
<path d="M245.3334 174.7071 L244.9389 174.9043 "/>
<path d="M244.9389 174.9043 L244.7417 175.2988 "/>
<path d="M244.7417 175.2988 L244.7417 177.4684 "/>
<path d="M243.7555 177.8629 L240.5997 177.8629 "/>
<path d="M238.8245 173.3264 L238.4300 173.3264 "/>
<path d="M238.4300 173.3264 L238.0356 173.5237 "/>
<path d="M238.0356 173.5237 L237.8383 173.7209 "/>
<path d="M237.8383 173.7209 L237.6411 174.1154 "/>
<path d="M237.6411 174.1154 L237.4439 174.9043 "/>
<path d="M237.4439 174.9043 L237.4439 175.8905 "/>
<path d="M237.4439 175.8905 L237.6411 176.6795 "/>
<path d="M237.6411 176.6795 L237.8383 177.0740 "/>
<path d="M237.8383 177.0740 L238.0356 177.2712 "/>
<path d="M238.0356 177.2712 L238.4300 177.4684 "/>
<path d="M238.4300 177.4684 L238.8245 177.4684 "/>
<path d="M238.8245 177.4684 L239.2190 177.2712 "/>
<path d="M239.2190 177.2712 L239.4162 177.0740 "/>
<path d="M239.4162 177.0740 L239.6135 176.6795 "/>
<path d="M239.6135 176.6795 L239.8107 175.8905 "/>
<path d="M239.8107 175.8905 L239.8107 174.9043 "/>
<path d="M239.8107 174.9043 L239.6135 174.1154 "/>
<path d="M239.6135 174.1154 L239.4162 173.7209 "/>
<path d="M239.4162 173.7209 L239.2190 173.5237 "/>
<path d="M239.2190 173.5237 L238.8245 173.3264 "/>
<path d="M233.4991 177.4684 L235.8659 177.4684 "/>
<path d="M234.6825 177.4684 L234.6825 173.3264 "/>
<path d="M234.6825 173.3264 L235.0770 173.9181 "/>
<path d="M235.0770 173.9181 L235.4715 174.3126 "/>
<path d="M235.4715 174.3126 L235.8659 174.5099 "/>
<path d="M232.1184 177.4684 L229.9488 174.7071 "/>
<path d="M232.1184 174.7071 L229.9488 177.4684 "/>
<path d="M227.5819 173.3264 L227.1874 173.3264 "/>
<path d="M227.1874 173.3264 L226.7930 173.5237 "/>
<path d="M226.7930 173.5237 L226.5957 173.7209 "/>
<path d="M226.5957 173.7209 L226.3985 174.1154 "/>
<path d="M226.3985 174.1154 L226.2013 174.9043 "/>
<path d="M226.2013 174.9043 L226.2013 175.8905 "/>
<path d="M226.2013 175.8905 L226.3985 176.6795 "/>
<path d="M226.3985 176.6795 L226.5957 177.0740 "/>
<path d="M226.5957 177.0740 L226.7930 177.2712 "/>
<path d="M226.7930 177.2712 L227.1874 177.4684 "/>
<path d="M227.1874 177.4684 L227.5819 177.4684 "/>
<path d="M227.5819 177.4684 L227.9764 177.2712 "/>
<path d="M227.9764 177.2712 L228.1736 177.0740 "/>
<path d="M228.1736 177.0740 L228.3709 176.6795 "/>
<path d="M228.3709 176.6795 L228.5681 175.8905 "/>
<path d="M228.5681 175.8905 L228.5681 174.9043 "/>
<path d="M228.5681 174.9043 L228.3709 174.1154 "/>
<path d="M228.3709 174.1154 L228.1736 173.7209 "/>
<path d="M228.1736 173.7209 L227.9764 173.5237 "/>
<path d="M227.9764 173.5237 L227.5819 173.3264 "/>
<path d="M222.2565 177.4684 L224.6233 177.4684 "/>
<path d="M223.4399 177.4684 L223.4399 173.3264 "/>
<path d="M223.4399 173.3264 L223.8344 173.9181 "/>
<path d="M223.8344 173.9181 L224.2289 174.3126 "/>
<path d="M224.2289 174.3126 L224.6233 174.5099 "/>
</g><text x="240.3038" y="165.2295" transform="scale(-1 1) translate(-480.607640 0)" textLength="7.8254" font-size="5.5227" lengthAdjust="spacingAndGlyphs" text-anchor="middle" opacity="0.01" style="font-family:monospace">J4</text>
<g class="stroked-text"><desc>J4</desc>
<path d="M241.6845 160.9004 L241.6845 163.8590 "/>
<path d="M241.6845 163.8590 L241.8817 164.4507 "/>
<path d="M241.8817 164.4507 L242.2762 164.8452 "/>
<path d="M242.2762 164.8452 L242.8679 165.0424 "/>
<path d="M242.8679 165.0424 L243.2624 165.0424 "/>
<path d="M237.9370 162.2811 L237.9370 165.0424 "/>
<path d="M238.9231 160.7032 L239.9093 163.6617 "/>
<path d="M239.9093 163.6617 L237.3452 163.6617 "/>
</g><text x="53.8975" y="96.8254" transform="scale(-1 1) translate(-107.795096 0)" textLength="48.0621" font-size="5.5227" lengthAdjust="spacingAndGlyphs" text-anchor="middle" opacity="0.01" style="font-family:monospace">434133025816</text>
<g class="stroked-text"><desc>434133025816</desc>
<path d="M74.8048 93.8769 L74.8048 96.6383 "/>
<path d="M75.7910 92.2990 L76.7772 95.2576 "/>
<path d="M76.7772 95.2576 L74.2131 95.2576 "/>
<path d="M73.0297 92.4963 L70.4656 92.4963 "/>
<path d="M70.4656 92.4963 L71.8463 94.0742 "/>
<path d="M71.8463 94.0742 L71.2545 94.0742 "/>
<path d="M71.2545 94.0742 L70.8601 94.2714 "/>
<path d="M70.8601 94.2714 L70.6628 94.4687 "/>
<path d="M70.6628 94.4687 L70.4656 94.8631 "/>
<path d="M70.4656 94.8631 L70.4656 95.8493 "/>
<path d="M70.4656 95.8493 L70.6628 96.2438 "/>
<path d="M70.6628 96.2438 L70.8601 96.4411 "/>
<path d="M70.8601 96.4411 L71.2545 96.6383 "/>
<path d="M71.2545 96.6383 L72.4380 96.6383 "/>
<path d="M72.4380 96.6383 L72.8325 96.4411 "/>
<path d="M72.8325 96.4411 L73.0297 96.2438 "/>
<path d="M66.9153 93.8769 L66.9153 96.6383 "/>
<path d="M67.9015 92.2990 L68.8877 95.2576 "/>
<path d="M68.8877 95.2576 L66.3236 95.2576 "/>
<path d="M62.5760 96.6383 L64.9429 96.6383 "/>
<path d="M63.7595 96.6383 L63.7595 92.4963 "/>
<path d="M63.7595 92.4963 L64.1540 93.0880 "/>
<path d="M64.1540 93.0880 L64.5484 93.4825 "/>
<path d="M64.5484 93.4825 L64.9429 93.6797 "/>
<path d="M61.1954 92.4963 L58.6313 92.4963 "/>
<path d="M58.6313 92.4963 L60.0119 94.0742 "/>
<path d="M60.0119 94.0742 L59.4202 94.0742 "/>
<path d="M59.4202 94.0742 L59.0258 94.2714 "/>
<path d="M59.0258 94.2714 L58.8285 94.4687 "/>
<path d="M58.8285 94.4687 L58.6313 94.8631 "/>
<path d="M58.6313 94.8631 L58.6313 95.8493 "/>
<path d="M58.6313 95.8493 L58.8285 96.2438 "/>
<path d="M58.8285 96.2438 L59.0258 96.4411 "/>
<path d="M59.0258 96.4411 L59.4202 96.6383 "/>
<path d="M59.4202 96.6383 L60.6037 96.6383 "/>
<path d="M60.6037 96.6383 L60.9981 96.4411 "/>
<path d="M60.9981 96.4411 L61.1954 96.2438 "/>
<path d="M57.2506 92.4963 L54.6865 92.4963 "/>
<path d="M54.6865 92.4963 L56.0672 94.0742 "/>
<path d="M56.0672 94.0742 L55.4755 94.0742 "/>
<path d="M55.4755 94.0742 L55.0810 94.2714 "/>
<path d="M55.0810 94.2714 L54.8837 94.4687 "/>
<path d="M54.8837 94.4687 L54.6865 94.8631 "/>
<path d="M54.6865 94.8631 L54.6865 95.8493 "/>
<path d="M54.6865 95.8493 L54.8837 96.2438 "/>
<path d="M54.8837 96.2438 L55.0810 96.4411 "/>
<path d="M55.0810 96.4411 L55.4755 96.6383 "/>
<path d="M55.4755 96.6383 L56.6589 96.6383 "/>
<path d="M56.6589 96.6383 L57.0534 96.4411 "/>
<path d="M57.0534 96.4411 L57.2506 96.2438 "/>
<path d="M52.1224 92.4963 L51.7279 92.4963 "/>
<path d="M51.7279 92.4963 L51.3334 92.6935 "/>
<path d="M51.3334 92.6935 L51.1362 92.8908 "/>
<path d="M51.1362 92.8908 L50.9390 93.2852 "/>
<path d="M50.9390 93.2852 L50.7417 94.0742 "/>
<path d="M50.7417 94.0742 L50.7417 95.0604 "/>
<path d="M50.7417 95.0604 L50.9390 95.8493 "/>
<path d="M50.9390 95.8493 L51.1362 96.2438 "/>
<path d="M51.1362 96.2438 L51.3334 96.4411 "/>
<path d="M51.3334 96.4411 L51.7279 96.6383 "/>
<path d="M51.7279 96.6383 L52.1224 96.6383 "/>
<path d="M52.1224 96.6383 L52.5169 96.4411 "/>
<path d="M52.5169 96.4411 L52.7141 96.2438 "/>
<path d="M52.7141 96.2438 L52.9114 95.8493 "/>
<path d="M52.9114 95.8493 L53.1086 95.0604 "/>
<path d="M53.1086 95.0604 L53.1086 94.0742 "/>
<path d="M53.1086 94.0742 L52.9114 93.2852 "/>
<path d="M52.9114 93.2852 L52.7141 92.8908 "/>
<path d="M52.7141 92.8908 L52.5169 92.6935 "/>
<path d="M52.5169 92.6935 L52.1224 92.4963 "/>
<path d="M49.1638 92.8908 L48.9666 92.6935 "/>
<path d="M48.9666 92.6935 L48.5721 92.4963 "/>
<path d="M48.5721 92.4963 L47.5859 92.4963 "/>
<path d="M47.5859 92.4963 L47.1914 92.6935 "/>
<path d="M47.1914 92.6935 L46.9942 92.8908 "/>
<path d="M46.9942 92.8908 L46.7970 93.2852 "/>
<path d="M46.7970 93.2852 L46.7970 93.6797 "/>
<path d="M46.7970 93.6797 L46.9942 94.2714 "/>
<path d="M46.9942 94.2714 L49.3611 96.6383 "/>
<path d="M49.3611 96.6383 L46.7970 96.6383 "/>
<path d="M43.0494 92.4963 L45.0218 92.4963 "/>
<path d="M45.0218 92.4963 L45.2190 94.4687 "/>
<path d="M45.2190 94.4687 L45.0218 94.2714 "/>
<path d="M45.0218 94.2714 L44.6273 94.0742 "/>
<path d="M44.6273 94.0742 L43.6411 94.0742 "/>
<path d="M43.6411 94.0742 L43.2467 94.2714 "/>
<path d="M43.2467 94.2714 L43.0494 94.4687 "/>
<path d="M43.0494 94.4687 L42.8522 94.8631 "/>
<path d="M42.8522 94.8631 L42.8522 95.8493 "/>
<path d="M42.8522 95.8493 L43.0494 96.2438 "/>
<path d="M43.0494 96.2438 L43.2467 96.4411 "/>
<path d="M43.2467 96.4411 L43.6411 96.6383 "/>
<path d="M43.6411 96.6383 L44.6273 96.6383 "/>
<path d="M44.6273 96.6383 L45.0218 96.4411 "/>
<path d="M45.0218 96.4411 L45.2190 96.2438 "/>
<path d="M40.4853 94.2714 L40.8798 94.0742 "/>
<path d="M40.8798 94.0742 L41.0770 93.8769 "/>
<path d="M41.0770 93.8769 L41.2743 93.4825 "/>
<path d="M41.2743 93.4825 L41.2743 93.2852 "/>
<path d="M41.2743 93.2852 L41.0770 92.8908 "/>
<path d="M41.0770 92.8908 L40.8798 92.6935 "/>
<path d="M40.8798 92.6935 L40.4853 92.4963 "/>
<path d="M40.4853 92.4963 L39.6964 92.4963 "/>
<path d="M39.6964 92.4963 L39.3019 92.6935 "/>
<path d="M39.3019 92.6935 L39.1046 92.8908 "/>
<path d="M39.1046 92.8908 L38.9074 93.2852 "/>
<path d="M38.9074 93.2852 L38.9074 93.4825 "/>
<path d="M38.9074 93.4825 L39.1046 93.8769 "/>
<path d="M39.1046 93.8769 L39.3019 94.0742 "/>
<path d="M39.3019 94.0742 L39.6964 94.2714 "/>
<path d="M39.6964 94.2714 L40.4853 94.2714 "/>
<path d="M40.4853 94.2714 L40.8798 94.4687 "/>
<path d="M40.8798 94.4687 L41.0770 94.6659 "/>
<path d="M41.0770 94.6659 L41.2743 95.0604 "/>
<path d="M41.2743 95.0604 L41.2743 95.8493 "/>
<path d="M41.2743 95.8493 L41.0770 96.2438 "/>
<path d="M41.0770 96.2438 L40.8798 96.4411 "/>
<path d="M40.8798 96.4411 L40.4853 96.6383 "/>
<path d="M40.4853 96.6383 L39.6964 96.6383 "/>
<path d="M39.6964 96.6383 L39.3019 96.4411 "/>
<path d="M39.3019 96.4411 L39.1046 96.2438 "/>
<path d="M39.1046 96.2438 L38.9074 95.8493 "/>
<path d="M38.9074 95.8493 L38.9074 95.0604 "/>
<path d="M38.9074 95.0604 L39.1046 94.6659 "/>
<path d="M39.1046 94.6659 L39.3019 94.4687 "/>
<path d="M39.3019 94.4687 L39.6964 94.2714 "/>
<path d="M34.9626 96.6383 L37.3295 96.6383 "/>
<path d="M36.1461 96.6383 L36.1461 92.4963 "/>
<path d="M36.1461 92.4963 L36.5405 93.0880 "/>
<path d="M36.5405 93.0880 L36.9350 93.4825 "/>
<path d="M36.9350 93.4825 L37.3295 93.6797 "/>
<path d="M31.4123 92.4963 L32.2013 92.4963 "/>
<path d="M32.2013 92.4963 L32.5958 92.6935 "/>
<path d="M32.5958 92.6935 L32.7930 92.8908 "/>
<path d="M32.7930 92.8908 L33.1875 93.4825 "/>
<path d="M33.1875 93.4825 L33.3847 94.2714 "/>
<path d="M33.3847 94.2714 L33.3847 95.8493 "/>
<path d="M33.3847 95.8493 L33.1875 96.2438 "/>
<path d="M33.1875 96.2438 L32.9902 96.4411 "/>
<path d="M32.9902 96.4411 L32.5958 96.6383 "/>
<path d="M32.5958 96.6383 L31.8068 96.6383 "/>
<path d="M31.8068 96.6383 L31.4123 96.4411 "/>
<path d="M31.4123 96.4411 L31.2151 96.2438 "/>
<path d="M31.2151 96.2438 L31.0179 95.8493 "/>
<path d="M31.0179 95.8493 L31.0179 94.8631 "/>
<path d="M31.0179 94.8631 L31.2151 94.4687 "/>
<path d="M31.2151 94.4687 L31.4123 94.2714 "/>
<path d="M31.4123 94.2714 L31.8068 94.0742 "/>
<path d="M31.8068 94.0742 L32.5958 94.0742 "/>
<path d="M32.5958 94.0742 L32.9902 94.2714 "/>
<path d="M32.9902 94.2714 L33.1875 94.4687 "/>
<path d="M33.1875 94.4687 L33.3847 94.8631 "/>
</g><text x="54.1046" y="107.3876" transform="scale(-1 1) translate(-108.209297 0)" textLength="13.3481" font-size="5.5227" lengthAdjust="spacingAndGlyphs" text-anchor="middle" opacity="0.01" style="font-family:monospace">SW4</text>
<g class="stroked-text"><desc>SW4</desc>
<path d="M59.6273 107.0032 L59.0356 107.2004 "/>
<path d="M59.0356 107.2004 L58.0494 107.2004 "/>
<path d="M58.0494 107.2004 L57.6549 107.0032 "/>
<path d="M57.6549 107.0032 L57.4577 106.8059 "/>
<path d="M57.4577 106.8059 L57.2605 106.4115 "/>
<path d="M57.2605 106.4115 L57.2605 106.0170 "/>
<path d="M57.2605 106.0170 L57.4577 105.6225 "/>
<path d="M57.4577 105.6225 L57.6549 105.4253 "/>
<path d="M57.6549 105.4253 L58.0494 105.2280 "/>
<path d="M58.0494 105.2280 L58.8384 105.0308 "/>
<path d="M58.8384 105.0308 L59.2328 104.8336 "/>
<path d="M59.2328 104.8336 L59.4301 104.6363 "/>
<path d="M59.4301 104.6363 L59.6273 104.2418 "/>
<path d="M59.6273 104.2418 L59.6273 103.8474 "/>
<path d="M59.6273 103.8474 L59.4301 103.4529 "/>
<path d="M59.4301 103.4529 L59.2328 103.2556 "/>
<path d="M59.2328 103.2556 L58.8384 103.0584 "/>
<path d="M58.8384 103.0584 L57.8522 103.0584 "/>
<path d="M57.8522 103.0584 L57.2605 103.2556 "/>
<path d="M55.8798 103.0584 L54.8936 107.2004 "/>
<path d="M54.8936 107.2004 L54.1046 104.2418 "/>
<path d="M54.1046 104.2418 L53.3157 107.2004 "/>
<path d="M53.3157 107.2004 L52.3295 103.0584 "/>
<path d="M48.9764 104.4391 L48.9764 107.2004 "/>
<path d="M49.9626 102.8612 L50.9488 105.8197 "/>
<path d="M50.9488 105.8197 L48.3847 105.8197 "/>
</g><text x="53.8975" y="173.0845" transform="scale(-1 1) translate(-107.795096 0)" textLength="48.0621" font-size="5.5227" lengthAdjust="spacingAndGlyphs" text-anchor="middle" opacity="0.01" style="font-family:monospace">434133025816</text>
<g class="stroked-text"><desc>434133025816</desc>
<path d="M74.8048 170.1360 L74.8048 172.8973 "/>
<path d="M75.7910 168.5581 L76.7772 171.5167 "/>
<path d="M76.7772 171.5167 L74.2131 171.5167 "/>
<path d="M73.0297 168.7553 L70.4656 168.7553 "/>
<path d="M70.4656 168.7553 L71.8463 170.3332 "/>
<path d="M71.8463 170.3332 L71.2545 170.3332 "/>
<path d="M71.2545 170.3332 L70.8601 170.5305 "/>
<path d="M70.8601 170.5305 L70.6628 170.7277 "/>
<path d="M70.6628 170.7277 L70.4656 171.1222 "/>
<path d="M70.4656 171.1222 L70.4656 172.1084 "/>
<path d="M70.4656 172.1084 L70.6628 172.5029 "/>
<path d="M70.6628 172.5029 L70.8601 172.7001 "/>
<path d="M70.8601 172.7001 L71.2545 172.8973 "/>
<path d="M71.2545 172.8973 L72.4380 172.8973 "/>
<path d="M72.4380 172.8973 L72.8325 172.7001 "/>
<path d="M72.8325 172.7001 L73.0297 172.5029 "/>
<path d="M66.9153 170.1360 L66.9153 172.8973 "/>
<path d="M67.9015 168.5581 L68.8877 171.5167 "/>
<path d="M68.8877 171.5167 L66.3236 171.5167 "/>
<path d="M62.5760 172.8973 L64.9429 172.8973 "/>
<path d="M63.7595 172.8973 L63.7595 168.7553 "/>
<path d="M63.7595 168.7553 L64.1540 169.3470 "/>
<path d="M64.1540 169.3470 L64.5484 169.7415 "/>
<path d="M64.5484 169.7415 L64.9429 169.9388 "/>
<path d="M61.1954 168.7553 L58.6313 168.7553 "/>
<path d="M58.6313 168.7553 L60.0119 170.3332 "/>
<path d="M60.0119 170.3332 L59.4202 170.3332 "/>
<path d="M59.4202 170.3332 L59.0258 170.5305 "/>
<path d="M59.0258 170.5305 L58.8285 170.7277 "/>
<path d="M58.8285 170.7277 L58.6313 171.1222 "/>
<path d="M58.6313 171.1222 L58.6313 172.1084 "/>
<path d="M58.6313 172.1084 L58.8285 172.5029 "/>
<path d="M58.8285 172.5029 L59.0258 172.7001 "/>
<path d="M59.0258 172.7001 L59.4202 172.8973 "/>
<path d="M59.4202 172.8973 L60.6037 172.8973 "/>
<path d="M60.6037 172.8973 L60.9981 172.7001 "/>
<path d="M60.9981 172.7001 L61.1954 172.5029 "/>
<path d="M57.2506 168.7553 L54.6865 168.7553 "/>
<path d="M54.6865 168.7553 L56.0672 170.3332 "/>
<path d="M56.0672 170.3332 L55.4755 170.3332 "/>
<path d="M55.4755 170.3332 L55.0810 170.5305 "/>
<path d="M55.0810 170.5305 L54.8837 170.7277 "/>
<path d="M54.8837 170.7277 L54.6865 171.1222 "/>
<path d="M54.6865 171.1222 L54.6865 172.1084 "/>
<path d="M54.6865 172.1084 L54.8837 172.5029 "/>
<path d="M54.8837 172.5029 L55.0810 172.7001 "/>
<path d="M55.0810 172.7001 L55.4755 172.8973 "/>
<path d="M55.4755 172.8973 L56.6589 172.8973 "/>
<path d="M56.6589 172.8973 L57.0534 172.7001 "/>
<path d="M57.0534 172.7001 L57.2506 172.5029 "/>
<path d="M52.1224 168.7553 L51.7279 168.7553 "/>
<path d="M51.7279 168.7553 L51.3334 168.9526 "/>
<path d="M51.3334 168.9526 L51.1362 169.1498 "/>
<path d="M51.1362 169.1498 L50.9390 169.5443 "/>
<path d="M50.9390 169.5443 L50.7417 170.3332 "/>
<path d="M50.7417 170.3332 L50.7417 171.3194 "/>
<path d="M50.7417 171.3194 L50.9390 172.1084 "/>
<path d="M50.9390 172.1084 L51.1362 172.5029 "/>
<path d="M51.1362 172.5029 L51.3334 172.7001 "/>
<path d="M51.3334 172.7001 L51.7279 172.8973 "/>
<path d="M51.7279 172.8973 L52.1224 172.8973 "/>
<path d="M52.1224 172.8973 L52.5169 172.7001 "/>
<path d="M52.5169 172.7001 L52.7141 172.5029 "/>
<path d="M52.7141 172.5029 L52.9114 172.1084 "/>
<path d="M52.9114 172.1084 L53.1086 171.3194 "/>
<path d="M53.1086 171.3194 L53.1086 170.3332 "/>
<path d="M53.1086 170.3332 L52.9114 169.5443 "/>
<path d="M52.9114 169.5443 L52.7141 169.1498 "/>
<path d="M52.7141 169.1498 L52.5169 168.9526 "/>
<path d="M52.5169 168.9526 L52.1224 168.7553 "/>
<path d="M49.1638 169.1498 L48.9666 168.9526 "/>
<path d="M48.9666 168.9526 L48.5721 168.7553 "/>
<path d="M48.5721 168.7553 L47.5859 168.7553 "/>
<path d="M47.5859 168.7553 L47.1914 168.9526 "/>
<path d="M47.1914 168.9526 L46.9942 169.1498 "/>
<path d="M46.9942 169.1498 L46.7970 169.5443 "/>
<path d="M46.7970 169.5443 L46.7970 169.9388 "/>
<path d="M46.7970 169.9388 L46.9942 170.5305 "/>
<path d="M46.9942 170.5305 L49.3611 172.8973 "/>
<path d="M49.3611 172.8973 L46.7970 172.8973 "/>
<path d="M43.0494 168.7553 L45.0218 168.7553 "/>
<path d="M45.0218 168.7553 L45.2190 170.7277 "/>
<path d="M45.2190 170.7277 L45.0218 170.5305 "/>
<path d="M45.0218 170.5305 L44.6273 170.3332 "/>
<path d="M44.6273 170.3332 L43.6411 170.3332 "/>
<path d="M43.6411 170.3332 L43.2467 170.5305 "/>
<path d="M43.2467 170.5305 L43.0494 170.7277 "/>
<path d="M43.0494 170.7277 L42.8522 171.1222 "/>
<path d="M42.8522 171.1222 L42.8522 172.1084 "/>
<path d="M42.8522 172.1084 L43.0494 172.5029 "/>
<path d="M43.0494 172.5029 L43.2467 172.7001 "/>
<path d="M43.2467 172.7001 L43.6411 172.8973 "/>
<path d="M43.6411 172.8973 L44.6273 172.8973 "/>
<path d="M44.6273 172.8973 L45.0218 172.7001 "/>
<path d="M45.0218 172.7001 L45.2190 172.5029 "/>
<path d="M40.4853 170.5305 L40.8798 170.3332 "/>
<path d="M40.8798 170.3332 L41.0770 170.1360 "/>
<path d="M41.0770 170.1360 L41.2743 169.7415 "/>
<path d="M41.2743 169.7415 L41.2743 169.5443 "/>
<path d="M41.2743 169.5443 L41.0770 169.1498 "/>
<path d="M41.0770 169.1498 L40.8798 168.9526 "/>
<path d="M40.8798 168.9526 L40.4853 168.7553 "/>
<path d="M40.4853 168.7553 L39.6964 168.7553 "/>
<path d="M39.6964 168.7553 L39.3019 168.9526 "/>
<path d="M39.3019 168.9526 L39.1046 169.1498 "/>
<path d="M39.1046 169.1498 L38.9074 169.5443 "/>
<path d="M38.9074 169.5443 L38.9074 169.7415 "/>
<path d="M38.9074 169.7415 L39.1046 170.1360 "/>
<path d="M39.1046 170.1360 L39.3019 170.3332 "/>
<path d="M39.3019 170.3332 L39.6964 170.5305 "/>
<path d="M39.6964 170.5305 L40.4853 170.5305 "/>
<path d="M40.4853 170.5305 L40.8798 170.7277 "/>
<path d="M40.8798 170.7277 L41.0770 170.9249 "/>
<path d="M41.0770 170.9249 L41.2743 171.3194 "/>
<path d="M41.2743 171.3194 L41.2743 172.1084 "/>
<path d="M41.2743 172.1084 L41.0770 172.5029 "/>
<path d="M41.0770 172.5029 L40.8798 172.7001 "/>
<path d="M40.8798 172.7001 L40.4853 172.8973 "/>
<path d="M40.4853 172.8973 L39.6964 172.8973 "/>
<path d="M39.6964 172.8973 L39.3019 172.7001 "/>
<path d="M39.3019 172.7001 L39.1046 172.5029 "/>
<path d="M39.1046 172.5029 L38.9074 172.1084 "/>
<path d="M38.9074 172.1084 L38.9074 171.3194 "/>
<path d="M38.9074 171.3194 L39.1046 170.9249 "/>
<path d="M39.1046 170.9249 L39.3019 170.7277 "/>
<path d="M39.3019 170.7277 L39.6964 170.5305 "/>
<path d="M34.9626 172.8973 L37.3295 172.8973 "/>
<path d="M36.1461 172.8973 L36.1461 168.7553 "/>
<path d="M36.1461 168.7553 L36.5405 169.3470 "/>
<path d="M36.5405 169.3470 L36.9350 169.7415 "/>
<path d="M36.9350 169.7415 L37.3295 169.9388 "/>
<path d="M31.4123 168.7553 L32.2013 168.7553 "/>
<path d="M32.2013 168.7553 L32.5958 168.9526 "/>
<path d="M32.5958 168.9526 L32.7930 169.1498 "/>
<path d="M32.7930 169.1498 L33.1875 169.7415 "/>
<path d="M33.1875 169.7415 L33.3847 170.5305 "/>
<path d="M33.3847 170.5305 L33.3847 172.1084 "/>
<path d="M33.3847 172.1084 L33.1875 172.5029 "/>
<path d="M33.1875 172.5029 L32.9902 172.7001 "/>
<path d="M32.9902 172.7001 L32.5958 172.8973 "/>
<path d="M32.5958 172.8973 L31.8068 172.8973 "/>
<path d="M31.8068 172.8973 L31.4123 172.7001 "/>
<path d="M31.4123 172.7001 L31.2151 172.5029 "/>
<path d="M31.2151 172.5029 L31.0179 172.1084 "/>
<path d="M31.0179 172.1084 L31.0179 171.1222 "/>
<path d="M31.0179 171.1222 L31.2151 170.7277 "/>
<path d="M31.2151 170.7277 L31.4123 170.5305 "/>
<path d="M31.4123 170.5305 L31.8068 170.3332 "/>
<path d="M31.8068 170.3332 L32.5958 170.3332 "/>
<path d="M32.5958 170.3332 L32.9902 170.5305 "/>
<path d="M32.9902 170.5305 L33.1875 170.7277 "/>
<path d="M33.1875 170.7277 L33.3847 171.1222 "/>
</g><text x="53.6904" y="162.5223" transform="scale(-1 1) translate(-107.380895 0)" textLength="13.3481" font-size="5.5227" lengthAdjust="spacingAndGlyphs" text-anchor="middle" opacity="0.01" style="font-family:monospace">SW2</text>
<g class="stroked-text"><desc>SW2</desc>
<path d="M59.2131 162.1380 L58.6214 162.3352 "/>
<path d="M58.6214 162.3352 L57.6352 162.3352 "/>
<path d="M57.6352 162.3352 L57.2407 162.1380 "/>
<path d="M57.2407 162.1380 L57.0435 161.9407 "/>
<path d="M57.0435 161.9407 L56.8463 161.5462 "/>
<path d="M56.8463 161.5462 L56.8463 161.1518 "/>
<path d="M56.8463 161.1518 L57.0435 160.7573 "/>
<path d="M57.0435 160.7573 L57.2407 160.5601 "/>
<path d="M57.2407 160.5601 L57.6352 160.3628 "/>
<path d="M57.6352 160.3628 L58.4242 160.1656 "/>
<path d="M58.4242 160.1656 L58.8186 159.9683 "/>
<path d="M58.8186 159.9683 L59.0159 159.7711 "/>
<path d="M59.0159 159.7711 L59.2131 159.3766 "/>
<path d="M59.2131 159.3766 L59.2131 158.9821 "/>
<path d="M59.2131 158.9821 L59.0159 158.5877 "/>
<path d="M59.0159 158.5877 L58.8186 158.3904 "/>
<path d="M58.8186 158.3904 L58.4242 158.1932 "/>
<path d="M58.4242 158.1932 L57.4380 158.1932 "/>
<path d="M57.4380 158.1932 L56.8463 158.3904 "/>
<path d="M55.4656 158.1932 L54.4794 162.3352 "/>
<path d="M54.4794 162.3352 L53.6904 159.3766 "/>
<path d="M53.6904 159.3766 L52.9015 162.3352 "/>
<path d="M52.9015 162.3352 L51.9153 158.1932 "/>
<path d="M50.5346 158.5877 L50.3374 158.3904 "/>
<path d="M50.3374 158.3904 L49.9429 158.1932 "/>
<path d="M49.9429 158.1932 L48.9567 158.1932 "/>
<path d="M48.9567 158.1932 L48.5622 158.3904 "/>
<path d="M48.5622 158.3904 L48.3650 158.5877 "/>
<path d="M48.3650 158.5877 L48.1678 158.9821 "/>
<path d="M48.1678 158.9821 L48.1678 159.3766 "/>
<path d="M48.1678 159.3766 L48.3650 159.9683 "/>
<path d="M48.3650 159.9683 L50.7319 162.3352 "/>
<path d="M50.7319 162.3352 L48.1678 162.3352 "/>
</g><text x="222.0790" y="177.6556" transform="scale(-1 1) translate(-444.157936 0)" textLength="38.3974" font-size="5.5227" lengthAdjust="spacingAndGlyphs" text-anchor="middle" opacity="0.01" style="font-family:monospace">Conn_01x01</text>
<g class="stroked-text"><desc>Conn_01x01</desc>
<path d="M237.5622 177.0740 L237.7594 177.2712 "/>
<path d="M237.7594 177.2712 L238.3512 177.4684 "/>
<path d="M238.3512 177.4684 L238.7456 177.4684 "/>
<path d="M238.7456 177.4684 L239.3373 177.2712 "/>
<path d="M239.3373 177.2712 L239.7318 176.8767 "/>
<path d="M239.7318 176.8767 L239.9291 176.4822 "/>
<path d="M239.9291 176.4822 L240.1263 175.6933 "/>
<path d="M240.1263 175.6933 L240.1263 175.1016 "/>
<path d="M240.1263 175.1016 L239.9291 174.3126 "/>
<path d="M239.9291 174.3126 L239.7318 173.9181 "/>
<path d="M239.7318 173.9181 L239.3373 173.5237 "/>
<path d="M239.3373 173.5237 L238.7456 173.3264 "/>
<path d="M238.7456 173.3264 L238.3512 173.3264 "/>
<path d="M238.3512 173.3264 L237.7594 173.5237 "/>
<path d="M237.7594 173.5237 L237.5622 173.7209 "/>
<path d="M235.1953 177.4684 L235.5898 177.2712 "/>
<path d="M235.5898 177.2712 L235.7871 177.0740 "/>
<path d="M235.7871 177.0740 L235.9843 176.6795 "/>
<path d="M235.9843 176.6795 L235.9843 175.4960 "/>
<path d="M235.9843 175.4960 L235.7871 175.1016 "/>
<path d="M235.7871 175.1016 L235.5898 174.9043 "/>
<path d="M235.5898 174.9043 L235.1953 174.7071 "/>
<path d="M235.1953 174.7071 L234.6036 174.7071 "/>
<path d="M234.6036 174.7071 L234.2091 174.9043 "/>
<path d="M234.2091 174.9043 L234.0119 175.1016 "/>
<path d="M234.0119 175.1016 L233.8147 175.4960 "/>
<path d="M233.8147 175.4960 L233.8147 176.6795 "/>
<path d="M233.8147 176.6795 L234.0119 177.0740 "/>
<path d="M234.0119 177.0740 L234.2091 177.2712 "/>
<path d="M234.2091 177.2712 L234.6036 177.4684 "/>
<path d="M234.6036 177.4684 L235.1953 177.4684 "/>
<path d="M232.0395 174.7071 L232.0395 177.4684 "/>
<path d="M232.0395 175.1016 L231.8423 174.9043 "/>
<path d="M231.8423 174.9043 L231.4478 174.7071 "/>
<path d="M231.4478 174.7071 L230.8561 174.7071 "/>
<path d="M230.8561 174.7071 L230.4616 174.9043 "/>
<path d="M230.4616 174.9043 L230.2644 175.2988 "/>
<path d="M230.2644 175.2988 L230.2644 177.4684 "/>
<path d="M228.2920 174.7071 L228.2920 177.4684 "/>
<path d="M228.2920 175.1016 L228.0947 174.9043 "/>
<path d="M228.0947 174.9043 L227.7003 174.7071 "/>
<path d="M227.7003 174.7071 L227.1086 174.7071 "/>
<path d="M227.1086 174.7071 L226.7141 174.9043 "/>
<path d="M226.7141 174.9043 L226.5168 175.2988 "/>
<path d="M226.5168 175.2988 L226.5168 177.4684 "/>
<path d="M225.5306 177.8629 L222.3748 177.8629 "/>
<path d="M220.5997 173.3264 L220.2052 173.3264 "/>
<path d="M220.2052 173.3264 L219.8107 173.5237 "/>
<path d="M219.8107 173.5237 L219.6135 173.7209 "/>
<path d="M219.6135 173.7209 L219.4162 174.1154 "/>
<path d="M219.4162 174.1154 L219.2190 174.9043 "/>
<path d="M219.2190 174.9043 L219.2190 175.8905 "/>
<path d="M219.2190 175.8905 L219.4162 176.6795 "/>
<path d="M219.4162 176.6795 L219.6135 177.0740 "/>
<path d="M219.6135 177.0740 L219.8107 177.2712 "/>
<path d="M219.8107 177.2712 L220.2052 177.4684 "/>
<path d="M220.2052 177.4684 L220.5997 177.4684 "/>
<path d="M220.5997 177.4684 L220.9942 177.2712 "/>
<path d="M220.9942 177.2712 L221.1914 177.0740 "/>
<path d="M221.1914 177.0740 L221.3886 176.6795 "/>
<path d="M221.3886 176.6795 L221.5859 175.8905 "/>
<path d="M221.5859 175.8905 L221.5859 174.9043 "/>
<path d="M221.5859 174.9043 L221.3886 174.1154 "/>
<path d="M221.3886 174.1154 L221.1914 173.7209 "/>
<path d="M221.1914 173.7209 L220.9942 173.5237 "/>
<path d="M220.9942 173.5237 L220.5997 173.3264 "/>
<path d="M215.2742 177.4684 L217.6411 177.4684 "/>
<path d="M216.4577 177.4684 L216.4577 173.3264 "/>
<path d="M216.4577 173.3264 L216.8521 173.9181 "/>
<path d="M216.8521 173.9181 L217.2466 174.3126 "/>
<path d="M217.2466 174.3126 L217.6411 174.5099 "/>
<path d="M213.8936 177.4684 L211.7239 174.7071 "/>
<path d="M213.8936 174.7071 L211.7239 177.4684 "/>
<path d="M209.3571 173.3264 L208.9626 173.3264 "/>
<path d="M208.9626 173.3264 L208.5681 173.5237 "/>
<path d="M208.5681 173.5237 L208.3709 173.7209 "/>
<path d="M208.3709 173.7209 L208.1736 174.1154 "/>
<path d="M208.1736 174.1154 L207.9764 174.9043 "/>
<path d="M207.9764 174.9043 L207.9764 175.8905 "/>
<path d="M207.9764 175.8905 L208.1736 176.6795 "/>
<path d="M208.1736 176.6795 L208.3709 177.0740 "/>
<path d="M208.3709 177.0740 L208.5681 177.2712 "/>
<path d="M208.5681 177.2712 L208.9626 177.4684 "/>
<path d="M208.9626 177.4684 L209.3571 177.4684 "/>
<path d="M209.3571 177.4684 L209.7515 177.2712 "/>
<path d="M209.7515 177.2712 L209.9488 177.0740 "/>
<path d="M209.9488 177.0740 L210.1460 176.6795 "/>
<path d="M210.1460 176.6795 L210.3433 175.8905 "/>
<path d="M210.3433 175.8905 L210.3433 174.9043 "/>
<path d="M210.3433 174.9043 L210.1460 174.1154 "/>
<path d="M210.1460 174.1154 L209.9488 173.7209 "/>
<path d="M209.9488 173.7209 L209.7515 173.5237 "/>
<path d="M209.7515 173.5237 L209.3571 173.3264 "/>
<path d="M204.0316 177.4684 L206.3985 177.4684 "/>
<path d="M205.2151 177.4684 L205.2151 173.3264 "/>
<path d="M205.2151 173.3264 L205.6095 173.9181 "/>
<path d="M205.6095 173.9181 L206.0040 174.3126 "/>
<path d="M206.0040 174.3126 L206.3985 174.5099 "/>
</g><text x="222.0790" y="165.2295" transform="scale(-1 1) translate(-444.157936 0)" textLength="7.8254" font-size="5.5227" lengthAdjust="spacingAndGlyphs" text-anchor="middle" opacity="0.01" style="font-family:monospace">J2</text>
<g class="stroked-text"><desc>J2</desc>
<path d="M223.4596 160.9004 L223.4596 163.8590 "/>
<path d="M223.4596 163.8590 L223.6569 164.4507 "/>
<path d="M223.6569 164.4507 L224.0514 164.8452 "/>
<path d="M224.0514 164.8452 L224.6431 165.0424 "/>
<path d="M224.6431 165.0424 L225.0375 165.0424 "/>
<path d="M221.6845 161.2949 L221.4872 161.0976 "/>
<path d="M221.4872 161.0976 L221.0928 160.9004 "/>
<path d="M221.0928 160.9004 L220.1066 160.9004 "/>
<path d="M220.1066 160.9004 L219.7121 161.0976 "/>
<path d="M219.7121 161.0976 L219.5149 161.2949 "/>
<path d="M219.5149 161.2949 L219.3176 161.6893 "/>
<path d="M219.3176 161.6893 L219.3176 162.0838 "/>
<path d="M219.3176 162.0838 L219.5149 162.6755 "/>
<path d="M219.5149 162.6755 L221.8817 165.0424 "/>
<path d="M221.8817 165.0424 L219.3176 165.0424 "/>
</g><text x="149.9922" y="91.6456" transform="scale(-1 1) translate(-299.984445 0)" textLength="16.3067" font-size="5.5227" lengthAdjust="spacingAndGlyphs" text-anchor="middle" opacity="0.01" style="font-family:monospace">OLED</text>
<g class="stroked-text"><desc>OLED</desc>
<path d="M156.0080 87.3165 L155.2190 87.3165 "/>
<path d="M155.2190 87.3165 L154.8246 87.5137 "/>
<path d="M154.8246 87.5137 L154.4301 87.9082 "/>
<path d="M154.4301 87.9082 L154.2329 88.6971 "/>
<path d="M154.2329 88.6971 L154.2329 90.0778 "/>
<path d="M154.2329 90.0778 L154.4301 90.8668 "/>
<path d="M154.4301 90.8668 L154.8246 91.2612 "/>
<path d="M154.8246 91.2612 L155.2190 91.4585 "/>
<path d="M155.2190 91.4585 L156.0080 91.4585 "/>
<path d="M156.0080 91.4585 L156.4025 91.2612 "/>
<path d="M156.4025 91.2612 L156.7970 90.8668 "/>
<path d="M156.7970 90.8668 L156.9942 90.0778 "/>
<path d="M156.9942 90.0778 L156.9942 88.6971 "/>
<path d="M156.9942 88.6971 L156.7970 87.9082 "/>
<path d="M156.7970 87.9082 L156.4025 87.5137 "/>
<path d="M156.4025 87.5137 L156.0080 87.3165 "/>
<path d="M150.4853 91.4585 L152.4577 91.4585 "/>
<path d="M152.4577 91.4585 L152.4577 87.3165 "/>
<path d="M149.1046 89.2888 L147.7240 89.2888 "/>
<path d="M147.1323 91.4585 L149.1046 91.4585 "/>
<path d="M149.1046 91.4585 L149.1046 87.3165 "/>
<path d="M149.1046 87.3165 L147.1323 87.3165 "/>
<path d="M145.3571 91.4585 L145.3571 87.3165 "/>
<path d="M145.3571 87.3165 L144.3709 87.3165 "/>
<path d="M144.3709 87.3165 L143.7792 87.5137 "/>
<path d="M143.7792 87.5137 L143.3847 87.9082 "/>
<path d="M143.3847 87.9082 L143.1875 88.3027 "/>
<path d="M143.1875 88.3027 L142.9902 89.0916 "/>
<path d="M142.9902 89.0916 L142.9902 89.6833 "/>
<path d="M142.9902 89.6833 L143.1875 90.4723 "/>
<path d="M143.1875 90.4723 L143.3847 90.8668 "/>
<path d="M143.3847 90.8668 L143.7792 91.2612 "/>
<path d="M143.7792 91.2612 L144.3709 91.4585 "/>
<path d="M144.3709 91.4585 L145.3571 91.4585 "/>
</g><text x="149.9922" y="97.8586" transform="scale(-1 1) translate(-299.984445 0)" textLength="11.7702" font-size="5.5227" lengthAdjust="spacingAndGlyphs" text-anchor="middle" opacity="0.01" style="font-family:monospace">J10</text>
<g class="stroked-text"><desc>J10</desc>
<path d="M153.3453 93.5295 L153.3453 96.4881 "/>
<path d="M153.3453 96.4881 L153.5425 97.0798 "/>
<path d="M153.5425 97.0798 L153.9370 97.4743 "/>
<path d="M153.9370 97.4743 L154.5287 97.6715 "/>
<path d="M154.5287 97.6715 L154.9232 97.6715 "/>
<path d="M149.2033 97.6715 L151.5701 97.6715 "/>
<path d="M150.3867 97.6715 L150.3867 93.5295 "/>
<path d="M150.3867 93.5295 L150.7812 94.1212 "/>
<path d="M150.7812 94.1212 L151.1756 94.5157 "/>
<path d="M151.1756 94.5157 L151.5701 94.7129 "/>
<path d="M146.6392 93.5295 L146.2447 93.5295 "/>
<path d="M146.2447 93.5295 L145.8502 93.7267 "/>
<path d="M145.8502 93.7267 L145.6530 93.9240 "/>
<path d="M145.6530 93.9240 L145.4557 94.3184 "/>
<path d="M145.4557 94.3184 L145.2585 95.1074 "/>
<path d="M145.2585 95.1074 L145.2585 96.0936 "/>
<path d="M145.2585 96.0936 L145.4557 96.8825 "/>
<path d="M145.4557 96.8825 L145.6530 97.2770 "/>
<path d="M145.6530 97.2770 L145.8502 97.4743 "/>
<path d="M145.8502 97.4743 L146.2447 97.6715 "/>
<path d="M146.2447 97.6715 L146.6392 97.6715 "/>
<path d="M146.6392 97.6715 L147.0336 97.4743 "/>
<path d="M147.0336 97.4743 L147.2309 97.2770 "/>
<path d="M147.2309 97.2770 L147.4281 96.8825 "/>
<path d="M147.4281 96.8825 L147.6254 96.0936 "/>
<path d="M147.6254 96.0936 L147.6254 95.1074 "/>
<path d="M147.6254 95.1074 L147.4281 94.3184 "/>
<path d="M147.4281 94.3184 L147.2309 93.9240 "/>
<path d="M147.2309 93.9240 L147.0336 93.7267 "/>
<path d="M147.0336 93.7267 L146.6392 93.5295 "/>
</g><text x="53.8975" y="145.5171" transform="scale(-1 1) translate(-107.795096 0)" textLength="48.0621" font-size="5.5227" lengthAdjust="spacingAndGlyphs" text-anchor="middle" opacity="0.01" style="font-family:monospace">434133025816</text>
<g class="stroked-text"><desc>434133025816</desc>
<path d="M74.8048 142.5686 L74.8048 145.3299 "/>
<path d="M75.7910 140.9907 L76.7772 143.9493 "/>
<path d="M76.7772 143.9493 L74.2131 143.9493 "/>
<path d="M73.0297 141.1879 L70.4656 141.1879 "/>
<path d="M70.4656 141.1879 L71.8463 142.7658 "/>
<path d="M71.8463 142.7658 L71.2545 142.7658 "/>
<path d="M71.2545 142.7658 L70.8601 142.9631 "/>
<path d="M70.8601 142.9631 L70.6628 143.1603 "/>
<path d="M70.6628 143.1603 L70.4656 143.5548 "/>
<path d="M70.4656 143.5548 L70.4656 144.5410 "/>
<path d="M70.4656 144.5410 L70.6628 144.9355 "/>
<path d="M70.6628 144.9355 L70.8601 145.1327 "/>
<path d="M70.8601 145.1327 L71.2545 145.3299 "/>
<path d="M71.2545 145.3299 L72.4380 145.3299 "/>
<path d="M72.4380 145.3299 L72.8325 145.1327 "/>
<path d="M72.8325 145.1327 L73.0297 144.9355 "/>
<path d="M66.9153 142.5686 L66.9153 145.3299 "/>
<path d="M67.9015 140.9907 L68.8877 143.9493 "/>
<path d="M68.8877 143.9493 L66.3236 143.9493 "/>
<path d="M62.5760 145.3299 L64.9429 145.3299 "/>
<path d="M63.7595 145.3299 L63.7595 141.1879 "/>
<path d="M63.7595 141.1879 L64.1540 141.7796 "/>
<path d="M64.1540 141.7796 L64.5484 142.1741 "/>
<path d="M64.5484 142.1741 L64.9429 142.3714 "/>
<path d="M61.1954 141.1879 L58.6313 141.1879 "/>
<path d="M58.6313 141.1879 L60.0119 142.7658 "/>
<path d="M60.0119 142.7658 L59.4202 142.7658 "/>
<path d="M59.4202 142.7658 L59.0258 142.9631 "/>
<path d="M59.0258 142.9631 L58.8285 143.1603 "/>
<path d="M58.8285 143.1603 L58.6313 143.5548 "/>
<path d="M58.6313 143.5548 L58.6313 144.5410 "/>
<path d="M58.6313 144.5410 L58.8285 144.9355 "/>
<path d="M58.8285 144.9355 L59.0258 145.1327 "/>
<path d="M59.0258 145.1327 L59.4202 145.3299 "/>
<path d="M59.4202 145.3299 L60.6037 145.3299 "/>
<path d="M60.6037 145.3299 L60.9981 145.1327 "/>
<path d="M60.9981 145.1327 L61.1954 144.9355 "/>
<path d="M57.2506 141.1879 L54.6865 141.1879 "/>
<path d="M54.6865 141.1879 L56.0672 142.7658 "/>
<path d="M56.0672 142.7658 L55.4755 142.7658 "/>
<path d="M55.4755 142.7658 L55.0810 142.9631 "/>
<path d="M55.0810 142.9631 L54.8837 143.1603 "/>
<path d="M54.8837 143.1603 L54.6865 143.5548 "/>
<path d="M54.6865 143.5548 L54.6865 144.5410 "/>
<path d="M54.6865 144.5410 L54.8837 144.9355 "/>
<path d="M54.8837 144.9355 L55.0810 145.1327 "/>
<path d="M55.0810 145.1327 L55.4755 145.3299 "/>
<path d="M55.4755 145.3299 L56.6589 145.3299 "/>
<path d="M56.6589 145.3299 L57.0534 145.1327 "/>
<path d="M57.0534 145.1327 L57.2506 144.9355 "/>
<path d="M52.1224 141.1879 L51.7279 141.1879 "/>
<path d="M51.7279 141.1879 L51.3334 141.3852 "/>
<path d="M51.3334 141.3852 L51.1362 141.5824 "/>
<path d="M51.1362 141.5824 L50.9390 141.9769 "/>
<path d="M50.9390 141.9769 L50.7417 142.7658 "/>
<path d="M50.7417 142.7658 L50.7417 143.7520 "/>
<path d="M50.7417 143.7520 L50.9390 144.5410 "/>
<path d="M50.9390 144.5410 L51.1362 144.9355 "/>
<path d="M51.1362 144.9355 L51.3334 145.1327 "/>
<path d="M51.3334 145.1327 L51.7279 145.3299 "/>
<path d="M51.7279 145.3299 L52.1224 145.3299 "/>
<path d="M52.1224 145.3299 L52.5169 145.1327 "/>
<path d="M52.5169 145.1327 L52.7141 144.9355 "/>
<path d="M52.7141 144.9355 L52.9114 144.5410 "/>
<path d="M52.9114 144.5410 L53.1086 143.7520 "/>
<path d="M53.1086 143.7520 L53.1086 142.7658 "/>
<path d="M53.1086 142.7658 L52.9114 141.9769 "/>
<path d="M52.9114 141.9769 L52.7141 141.5824 "/>
<path d="M52.7141 141.5824 L52.5169 141.3852 "/>
<path d="M52.5169 141.3852 L52.1224 141.1879 "/>
<path d="M49.1638 141.5824 L48.9666 141.3852 "/>
<path d="M48.9666 141.3852 L48.5721 141.1879 "/>
<path d="M48.5721 141.1879 L47.5859 141.1879 "/>
<path d="M47.5859 141.1879 L47.1914 141.3852 "/>
<path d="M47.1914 141.3852 L46.9942 141.5824 "/>
<path d="M46.9942 141.5824 L46.7970 141.9769 "/>
<path d="M46.7970 141.9769 L46.7970 142.3714 "/>
<path d="M46.7970 142.3714 L46.9942 142.9631 "/>
<path d="M46.9942 142.9631 L49.3611 145.3299 "/>
<path d="M49.3611 145.3299 L46.7970 145.3299 "/>
<path d="M43.0494 141.1879 L45.0218 141.1879 "/>
<path d="M45.0218 141.1879 L45.2190 143.1603 "/>
<path d="M45.2190 143.1603 L45.0218 142.9631 "/>
<path d="M45.0218 142.9631 L44.6273 142.7658 "/>
<path d="M44.6273 142.7658 L43.6411 142.7658 "/>
<path d="M43.6411 142.7658 L43.2467 142.9631 "/>
<path d="M43.2467 142.9631 L43.0494 143.1603 "/>
<path d="M43.0494 143.1603 L42.8522 143.5548 "/>
<path d="M42.8522 143.5548 L42.8522 144.5410 "/>
<path d="M42.8522 144.5410 L43.0494 144.9355 "/>
<path d="M43.0494 144.9355 L43.2467 145.1327 "/>
<path d="M43.2467 145.1327 L43.6411 145.3299 "/>
<path d="M43.6411 145.3299 L44.6273 145.3299 "/>
<path d="M44.6273 145.3299 L45.0218 145.1327 "/>
<path d="M45.0218 145.1327 L45.2190 144.9355 "/>
<path d="M40.4853 142.9631 L40.8798 142.7658 "/>
<path d="M40.8798 142.7658 L41.0770 142.5686 "/>
<path d="M41.0770 142.5686 L41.2743 142.1741 "/>
<path d="M41.2743 142.1741 L41.2743 141.9769 "/>
<path d="M41.2743 141.9769 L41.0770 141.5824 "/>
<path d="M41.0770 141.5824 L40.8798 141.3852 "/>
<path d="M40.8798 141.3852 L40.4853 141.1879 "/>
<path d="M40.4853 141.1879 L39.6964 141.1879 "/>
<path d="M39.6964 141.1879 L39.3019 141.3852 "/>
<path d="M39.3019 141.3852 L39.1046 141.5824 "/>
<path d="M39.1046 141.5824 L38.9074 141.9769 "/>
<path d="M38.9074 141.9769 L38.9074 142.1741 "/>
<path d="M38.9074 142.1741 L39.1046 142.5686 "/>
<path d="M39.1046 142.5686 L39.3019 142.7658 "/>
<path d="M39.3019 142.7658 L39.6964 142.9631 "/>
<path d="M39.6964 142.9631 L40.4853 142.9631 "/>
<path d="M40.4853 142.9631 L40.8798 143.1603 "/>
<path d="M40.8798 143.1603 L41.0770 143.3576 "/>
<path d="M41.0770 143.3576 L41.2743 143.7520 "/>
<path d="M41.2743 143.7520 L41.2743 144.5410 "/>
<path d="M41.2743 144.5410 L41.0770 144.9355 "/>
<path d="M41.0770 144.9355 L40.8798 145.1327 "/>
<path d="M40.8798 145.1327 L40.4853 145.3299 "/>
<path d="M40.4853 145.3299 L39.6964 145.3299 "/>
<path d="M39.6964 145.3299 L39.3019 145.1327 "/>
<path d="M39.3019 145.1327 L39.1046 144.9355 "/>
<path d="M39.1046 144.9355 L38.9074 144.5410 "/>
<path d="M38.9074 144.5410 L38.9074 143.7520 "/>
<path d="M38.9074 143.7520 L39.1046 143.3576 "/>
<path d="M39.1046 143.3576 L39.3019 143.1603 "/>
<path d="M39.3019 143.1603 L39.6964 142.9631 "/>
<path d="M34.9626 145.3299 L37.3295 145.3299 "/>
<path d="M36.1461 145.3299 L36.1461 141.1879 "/>
<path d="M36.1461 141.1879 L36.5405 141.7796 "/>
<path d="M36.5405 141.7796 L36.9350 142.1741 "/>
<path d="M36.9350 142.1741 L37.3295 142.3714 "/>
<path d="M31.4123 141.1879 L32.2013 141.1879 "/>
<path d="M32.2013 141.1879 L32.5958 141.3852 "/>
<path d="M32.5958 141.3852 L32.7930 141.5824 "/>
<path d="M32.7930 141.5824 L33.1875 142.1741 "/>
<path d="M33.1875 142.1741 L33.3847 142.9631 "/>
<path d="M33.3847 142.9631 L33.3847 144.5410 "/>
<path d="M33.3847 144.5410 L33.1875 144.9355 "/>
<path d="M33.1875 144.9355 L32.9902 145.1327 "/>
<path d="M32.9902 145.1327 L32.5958 145.3299 "/>
<path d="M32.5958 145.3299 L31.8068 145.3299 "/>
<path d="M31.8068 145.3299 L31.4123 145.1327 "/>
<path d="M31.4123 145.1327 L31.2151 144.9355 "/>
<path d="M31.2151 144.9355 L31.0179 144.5410 "/>
<path d="M31.0179 144.5410 L31.0179 143.5548 "/>
<path d="M31.0179 143.5548 L31.2151 143.1603 "/>
<path d="M31.2151 143.1603 L31.4123 142.9631 "/>
<path d="M31.4123 142.9631 L31.8068 142.7658 "/>
<path d="M31.8068 142.7658 L32.5958 142.7658 "/>
<path d="M32.5958 142.7658 L32.9902 142.9631 "/>
<path d="M32.9902 142.9631 L33.1875 143.1603 "/>
<path d="M33.1875 143.1603 L33.3847 143.5548 "/>
</g><text x="53.6904" y="134.9550" transform="scale(-1 1) translate(-107.380895 0)" textLength="13.3481" font-size="5.5227" lengthAdjust="spacingAndGlyphs" text-anchor="middle" opacity="0.01" style="font-family:monospace">SW3</text>
<g class="stroked-text"><desc>SW3</desc>
<path d="M59.2131 134.5706 L58.6214 134.7678 "/>
<path d="M58.6214 134.7678 L57.6352 134.7678 "/>
<path d="M57.6352 134.7678 L57.2407 134.5706 "/>
<path d="M57.2407 134.5706 L57.0435 134.3733 "/>
<path d="M57.0435 134.3733 L56.8463 133.9789 "/>
<path d="M56.8463 133.9789 L56.8463 133.5844 "/>
<path d="M56.8463 133.5844 L57.0435 133.1899 "/>
<path d="M57.0435 133.1899 L57.2407 132.9927 "/>
<path d="M57.2407 132.9927 L57.6352 132.7954 "/>
<path d="M57.6352 132.7954 L58.4242 132.5982 "/>
<path d="M58.4242 132.5982 L58.8186 132.4009 "/>
<path d="M58.8186 132.4009 L59.0159 132.2037 "/>
<path d="M59.0159 132.2037 L59.2131 131.8092 "/>
<path d="M59.2131 131.8092 L59.2131 131.4148 "/>
<path d="M59.2131 131.4148 L59.0159 131.0203 "/>
<path d="M59.0159 131.0203 L58.8186 130.8230 "/>
<path d="M58.8186 130.8230 L58.4242 130.6258 "/>
<path d="M58.4242 130.6258 L57.4380 130.6258 "/>
<path d="M57.4380 130.6258 L56.8463 130.8230 "/>
<path d="M55.4656 130.6258 L54.4794 134.7678 "/>
<path d="M54.4794 134.7678 L53.6904 131.8092 "/>
<path d="M53.6904 131.8092 L52.9015 134.7678 "/>
<path d="M52.9015 134.7678 L51.9153 130.6258 "/>
<path d="M50.7319 130.6258 L48.1678 130.6258 "/>
<path d="M48.1678 130.6258 L49.5484 132.2037 "/>
<path d="M49.5484 132.2037 L48.9567 132.2037 "/>
<path d="M48.9567 132.2037 L48.5622 132.4009 "/>
<path d="M48.5622 132.4009 L48.3650 132.5982 "/>
<path d="M48.3650 132.5982 L48.1678 132.9927 "/>
<path d="M48.1678 132.9927 L48.1678 133.9789 "/>
<path d="M48.1678 133.9789 L48.3650 134.3733 "/>
<path d="M48.3650 134.3733 L48.5622 134.5706 "/>
<path d="M48.5622 134.5706 L48.9567 134.7678 "/>
<path d="M48.9567 134.7678 L50.1401 134.7678 "/>
<path d="M50.1401 134.7678 L50.5346 134.5706 "/>
<path d="M50.5346 134.5706 L50.7319 134.3733 "/>
</g><text x="231.1914" y="177.6556" transform="scale(-1 1) translate(-462.382788 0)" textLength="38.3974" font-size="5.5227" lengthAdjust="spacingAndGlyphs" text-anchor="middle" opacity="0.01" style="font-family:monospace">Conn_01x01</text>
<g class="stroked-text"><desc>Conn_01x01</desc>
<path d="M246.6746 177.0740 L246.8719 177.2712 "/>
<path d="M246.8719 177.2712 L247.4636 177.4684 "/>
<path d="M247.4636 177.4684 L247.8581 177.4684 "/>
<path d="M247.8581 177.4684 L248.4498 177.2712 "/>
<path d="M248.4498 177.2712 L248.8443 176.8767 "/>
<path d="M248.8443 176.8767 L249.0415 176.4822 "/>
<path d="M249.0415 176.4822 L249.2387 175.6933 "/>
<path d="M249.2387 175.6933 L249.2387 175.1016 "/>
<path d="M249.2387 175.1016 L249.0415 174.3126 "/>
<path d="M249.0415 174.3126 L248.8443 173.9181 "/>
<path d="M248.8443 173.9181 L248.4498 173.5237 "/>
<path d="M248.4498 173.5237 L247.8581 173.3264 "/>
<path d="M247.8581 173.3264 L247.4636 173.3264 "/>
<path d="M247.4636 173.3264 L246.8719 173.5237 "/>
<path d="M246.8719 173.5237 L246.6746 173.7209 "/>
<path d="M244.3078 177.4684 L244.7022 177.2712 "/>
<path d="M244.7022 177.2712 L244.8995 177.0740 "/>
<path d="M244.8995 177.0740 L245.0967 176.6795 "/>
<path d="M245.0967 176.6795 L245.0967 175.4960 "/>
<path d="M245.0967 175.4960 L244.8995 175.1016 "/>
<path d="M244.8995 175.1016 L244.7022 174.9043 "/>
<path d="M244.7022 174.9043 L244.3078 174.7071 "/>
<path d="M244.3078 174.7071 L243.7160 174.7071 "/>
<path d="M243.7160 174.7071 L243.3216 174.9043 "/>
<path d="M243.3216 174.9043 L243.1243 175.1016 "/>
<path d="M243.1243 175.1016 L242.9271 175.4960 "/>
<path d="M242.9271 175.4960 L242.9271 176.6795 "/>
<path d="M242.9271 176.6795 L243.1243 177.0740 "/>
<path d="M243.1243 177.0740 L243.3216 177.2712 "/>
<path d="M243.3216 177.2712 L243.7160 177.4684 "/>
<path d="M243.7160 177.4684 L244.3078 177.4684 "/>
<path d="M241.1519 174.7071 L241.1519 177.4684 "/>
<path d="M241.1519 175.1016 L240.9547 174.9043 "/>
<path d="M240.9547 174.9043 L240.5602 174.7071 "/>
<path d="M240.5602 174.7071 L239.9685 174.7071 "/>
<path d="M239.9685 174.7071 L239.5740 174.9043 "/>
<path d="M239.5740 174.9043 L239.3768 175.2988 "/>
<path d="M239.3768 175.2988 L239.3768 177.4684 "/>
<path d="M237.4044 174.7071 L237.4044 177.4684 "/>
<path d="M237.4044 175.1016 L237.2072 174.9043 "/>
<path d="M237.2072 174.9043 L236.8127 174.7071 "/>
<path d="M236.8127 174.7071 L236.2210 174.7071 "/>
<path d="M236.2210 174.7071 L235.8265 174.9043 "/>
<path d="M235.8265 174.9043 L235.6293 175.2988 "/>
<path d="M235.6293 175.2988 L235.6293 177.4684 "/>
<path d="M234.6431 177.8629 L231.4872 177.8629 "/>
<path d="M229.7121 173.3264 L229.3176 173.3264 "/>
<path d="M229.3176 173.3264 L228.9231 173.5237 "/>
<path d="M228.9231 173.5237 L228.7259 173.7209 "/>
<path d="M228.7259 173.7209 L228.5287 174.1154 "/>
<path d="M228.5287 174.1154 L228.3314 174.9043 "/>
<path d="M228.3314 174.9043 L228.3314 175.8905 "/>
<path d="M228.3314 175.8905 L228.5287 176.6795 "/>
<path d="M228.5287 176.6795 L228.7259 177.0740 "/>
<path d="M228.7259 177.0740 L228.9231 177.2712 "/>
<path d="M228.9231 177.2712 L229.3176 177.4684 "/>
<path d="M229.3176 177.4684 L229.7121 177.4684 "/>
<path d="M229.7121 177.4684 L230.1066 177.2712 "/>
<path d="M230.1066 177.2712 L230.3038 177.0740 "/>
<path d="M230.3038 177.0740 L230.5011 176.6795 "/>
<path d="M230.5011 176.6795 L230.6983 175.8905 "/>
<path d="M230.6983 175.8905 L230.6983 174.9043 "/>
<path d="M230.6983 174.9043 L230.5011 174.1154 "/>
<path d="M230.5011 174.1154 L230.3038 173.7209 "/>
<path d="M230.3038 173.7209 L230.1066 173.5237 "/>
<path d="M230.1066 173.5237 L229.7121 173.3264 "/>
<path d="M224.3867 177.4684 L226.7535 177.4684 "/>
<path d="M225.5701 177.4684 L225.5701 173.3264 "/>
<path d="M225.5701 173.3264 L225.9646 173.9181 "/>
<path d="M225.9646 173.9181 L226.3590 174.3126 "/>
<path d="M226.3590 174.3126 L226.7535 174.5099 "/>
<path d="M223.0060 177.4684 L220.8364 174.7071 "/>
<path d="M223.0060 174.7071 L220.8364 177.4684 "/>
<path d="M218.4695 173.3264 L218.0750 173.3264 "/>
<path d="M218.0750 173.3264 L217.6805 173.5237 "/>
<path d="M217.6805 173.5237 L217.4833 173.7209 "/>
<path d="M217.4833 173.7209 L217.2861 174.1154 "/>
<path d="M217.2861 174.1154 L217.0888 174.9043 "/>
<path d="M217.0888 174.9043 L217.0888 175.8905 "/>
<path d="M217.0888 175.8905 L217.2861 176.6795 "/>
<path d="M217.2861 176.6795 L217.4833 177.0740 "/>
<path d="M217.4833 177.0740 L217.6805 177.2712 "/>
<path d="M217.6805 177.2712 L218.0750 177.4684 "/>
<path d="M218.0750 177.4684 L218.4695 177.4684 "/>
<path d="M218.4695 177.4684 L218.8640 177.2712 "/>
<path d="M218.8640 177.2712 L219.0612 177.0740 "/>
<path d="M219.0612 177.0740 L219.2584 176.6795 "/>
<path d="M219.2584 176.6795 L219.4557 175.8905 "/>
<path d="M219.4557 175.8905 L219.4557 174.9043 "/>
<path d="M219.4557 174.9043 L219.2584 174.1154 "/>
<path d="M219.2584 174.1154 L219.0612 173.7209 "/>
<path d="M219.0612 173.7209 L218.8640 173.5237 "/>
<path d="M218.8640 173.5237 L218.4695 173.3264 "/>
<path d="M213.1441 177.4684 L215.5109 177.4684 "/>
<path d="M214.3275 177.4684 L214.3275 173.3264 "/>
<path d="M214.3275 173.3264 L214.7220 173.9181 "/>
<path d="M214.7220 173.9181 L215.1164 174.3126 "/>
<path d="M215.1164 174.3126 L215.5109 174.5099 "/>
</g><text x="231.1914" y="165.2295" transform="scale(-1 1) translate(-462.382788 0)" textLength="7.8254" font-size="5.5227" lengthAdjust="spacingAndGlyphs" text-anchor="middle" opacity="0.01" style="font-family:monospace">J3</text>
<g class="stroked-text"><desc>J3</desc>
<path d="M232.5721 160.9004 L232.5721 163.8590 "/>
<path d="M232.5721 163.8590 L232.7693 164.4507 "/>
<path d="M232.7693 164.4507 L233.1638 164.8452 "/>
<path d="M233.1638 164.8452 L233.7555 165.0424 "/>
<path d="M233.7555 165.0424 L234.1500 165.0424 "/>
<path d="M230.9942 160.9004 L228.4301 160.9004 "/>
<path d="M228.4301 160.9004 L229.8107 162.4783 "/>
<path d="M229.8107 162.4783 L229.2190 162.4783 "/>
<path d="M229.2190 162.4783 L228.8245 162.6755 "/>
<path d="M228.8245 162.6755 L228.6273 162.8728 "/>
<path d="M228.6273 162.8728 L228.4301 163.2673 "/>
<path d="M228.4301 163.2673 L228.4301 164.2534 "/>
<path d="M228.4301 164.2534 L228.6273 164.6479 "/>
<path d="M228.6273 164.6479 L228.8245 164.8452 "/>
<path d="M228.8245 164.8452 L229.2190 165.0424 "/>
<path d="M229.2190 165.0424 L230.4024 165.0424 "/>
<path d="M230.4024 165.0424 L230.7969 164.8452 "/>
<path d="M230.7969 164.8452 L230.9942 164.6479 "/>
</g></g>
<g style="fill:#000084; fill-opacity:0.0;  stroke:#000084; stroke-width:0.4142; stroke-opacity:1;  stroke-linecap:round; stroke-linejoin:round;">
<path d="M57.2112 73.1929 L50.1697 73.1929 "/>
<path d="M50.1697 82.3054 L57.2112 82.3054 "/>
<path d="M62.5958 71.1219 L45.1993 71.1219 "/>
<path d="M45.1993 82.3054 L47.2703 84.3764 "/>
<path d="M45.1993 84.3764 L62.5958 84.3764 "/>
<path d="M60.5248 84.3764 L62.5958 82.3054 "/>
<path d="M45.1993 71.1219 L45.1993 84.3764 "/>
<path d="M60.5248 71.1219 L62.5958 73.1929 "/>
<path d="M45.1993 73.1929 L47.2703 71.1219 "/>
<path d="M62.5958 84.3764 L62.5958 71.1219 "/>
<path d="M50.1697 73.1930 A5.6337 5.6337 0.0 0 0 50.1697 82.3054"/>
<path d="M57.2112 82.3054 A5.4005 5.4005 0.0 0 0 57.2112 73.1930"/>
<path d="M60.5248 98.6893 L62.5958 100.7603 "/>
<path d="M60.5248 111.9438 L62.5958 109.8728 "/>
<path d="M50.1697 109.8728 L57.2112 109.8728 "/>
<path d="M62.5958 98.6893 L45.1993 98.6893 "/>
<path d="M45.1993 109.8728 L47.2703 111.9438 "/>
<path d="M62.5958 111.9438 L62.5958 98.6893 "/>
<path d="M45.1993 100.7603 L47.2703 98.6893 "/>
<path d="M45.1993 111.9438 L62.5958 111.9438 "/>
<path d="M45.1993 98.6893 L45.1993 111.9438 "/>
<path d="M57.2112 100.7603 L50.1697 100.7603 "/>
<path d="M50.1697 100.7603 A5.6337 5.6337 0.0 0 0 50.1697 109.8728"/>
<path d="M57.2112 109.8728 A5.4005 5.4005 0.0 0 0 57.2112 100.7603"/>
<path d="M47.2703 153.8241 L45.1993 155.8951 "/>
<path d="M50.5839 165.0075 L57.6254 165.0075 "/>
<path d="M57.6254 155.8951 L50.5839 155.8951 "/>
<path d="M62.5958 153.8241 L45.1993 153.8241 "/>
<path d="M47.2703 167.0786 L45.1993 165.0075 "/>
<path d="M45.1993 167.0786 L62.5958 167.0786 "/>
<path d="M62.5958 155.8951 L60.5248 153.8241 "/>
<path d="M45.1993 153.8241 L45.1993 167.0786 "/>
<path d="M62.5958 165.0075 L60.5248 167.0786 "/>
<path d="M62.5958 167.0786 L62.5958 153.8241 "/>
<path d="M50.5839 155.8951 A5.4005 5.4005 0.0 0 0 50.5839 165.0075"/>
<path d="M57.6254 165.0075 A5.6337 5.6337 0.0 0 0 57.6254 155.8951"/>
<path d="M62.5958 139.5112 L62.5958 126.2567 "/>
<path d="M47.2703 126.2567 L45.1993 128.3277 "/>
<path d="M50.5839 137.4402 L57.6254 137.4402 "/>
<path d="M45.1993 139.5112 L62.5958 139.5112 "/>
<path d="M47.2703 139.5112 L45.1993 137.4402 "/>
<path d="M62.5958 137.4402 L60.5248 139.5112 "/>
<path d="M62.5958 128.3277 L60.5248 126.2567 "/>
<path d="M57.6254 128.3277 L50.5839 128.3277 "/>
<path d="M62.5958 126.2567 L45.1993 126.2567 "/>
<path d="M45.1993 126.2567 L45.1993 139.5112 "/>
<path d="M50.5839 128.3277 A5.4005 5.4005 0.0 0 0 50.5839 137.4402"/>
<path d="M57.6254 137.4402 A5.6337 5.6337 0.0 0 0 57.6254 128.3277"/>
<g>
</g>
<g>
</g>
<g>
</g>
<g>
</g>
<g>
</g>
<g>
</g>
<g>
</g>
<g>
</g>
<g>
</g>
<g>
</g>
<g>
</g>
<g>
</g>
<g>
</g>
<g>
</g>
<g>
</g>
<g>
</g>
<g>
</g>
<g>
</g>
<g>
</g>
<g>
</g>
<g>
</g>
<g>
</g>
<g>
</g>
<g>
</g>
<g>
</g>
<g>
</g>
<g>
</g>
<g>
</g>
<g>
</g>
<g>
</g>
<g>
</g>
<g>
</g>
<g>
</g>
<g>
</g>
<g>
</g>
<g>
</g>
<g>
</g>
<g>
</g>
<g>
</g>
<g>
</g>
<g>
</g>
<g>
</g>
<g>
</g>
<g>
</g>
<g>
</g>
<g>
</g>
<g>
</g>
<g>
</g>
<g>
</g>
<g>
</g>
<g>
</g>
<g>
</g>
<g>
</g>
<g>
</g>
<g>
</g>
<g>
</g>
<g>
</g>
<g>
</g>
<g>
</g>
<g>
</g>
<g>
</g>
<g>
</g>
<g>
</g>
<g>
</g>
<g>
</g>
<g>
</g>
<g>
</g>
<g>
</g>
<g>
</g>
<g>
</g>
<g>
</g>
<g>
</g>
<g>
</g>
<g>
</g>
<g>
</g>
<g>
</g>
<g>
</g>
<g>
</g>
<g>
</g>
<g>
</g>
<g>
</g>
<g>
</g>
<g>
</g>
<g>
</g>
<g>
</g>
<g>
</g>
<g>
</g>
<g>
</g>
<g>
</g>
<g>
</g>
<g>
</g>
<g>
</g>
<g>
</g>
<g>
</g>
<g>
</g>
<g>
</g>
<g>
</g>
<g>
</g>
<g>
</g>
<g>
</g>
<g>
</g>
<g>
</g>
<g>
</g>
<g>
</g>
<g>
</g>
<g>
</g>
<g>
</g>
</g> 
<svg:g><svg:g><svg:title>SVG Image created as AMFOC01-Edge_Cuts.svg date 2023/06/19 19:11:31 </svg:title>
  <svg:desc>Image generated by PCBNEW </svg:desc>
<svg:g style="fill:#C2C200; fill-opacity:1.0000;stroke:#C2C200; stroke-opacity:1.0000; stroke-linecap:round; stroke-linejoin:round;" transform="translate(0 0) scale(1 1)">
</svg:g>
<svg:g style="fill:#C2C200; fill-opacity:0.0;  stroke:#C2C200; stroke-width:0.0000; stroke-opacity:1;  stroke-linecap:round; stroke-linejoin:round;">
</svg:g>
<svg:g style="fill:#C2C200; fill-opacity:0.0;  stroke:#C2C200; stroke-width:0.4142; stroke-opacity:1;  stroke-linecap:round; stroke-linejoin:round;">
<svg:path style="fill:#C2C200; fill-opacity:0.0;  stroke:#C2C200; stroke-width:0.4142; stroke-opacity:1;  stroke-linecap:round; stroke-linejoin:round;fill:none" d="M 1.6254,0.2107 295.3768,0.2107 295.3768,209.7965 1.6254,209.7965 Z"/> 
<svg:g>
</svg:g>
<svg:g>
</svg:g>
<svg:g>
</svg:g>
<svg:g>
</svg:g>
<svg:g>
</svg:g>
<svg:g>
</svg:g>
<svg:g>
</svg:g>
<svg:g>
</svg:g>
<svg:g>
</svg:g>
<svg:g>
</svg:g>
<svg:g>
</svg:g>
<svg:g>
</svg:g>
<svg:g>
</svg:g>
<svg:g>
</svg:g>
<svg:g>
</svg:g>
<svg:g>
</svg:g>
<svg:g>
</svg:g>
<svg:g>
</svg:g>
<svg:g>
</svg:g>
<svg:g>
</svg:g>
<svg:g>
</svg:g>
<svg:g>
</svg:g>
<svg:g>
</svg:g>
<svg:g>
</svg:g>
<svg:g>
</svg:g>
<svg:g>
</svg:g>
<svg:g>
</svg:g>
<svg:g>
</svg:g>
<svg:g>
</svg:g>
<svg:g>
</svg:g>
<svg:g>
</svg:g>
<svg:g>
</svg:g>
<svg:g>
</svg:g>
<svg:g>
</svg:g>
<svg:g>
</svg:g>
<svg:g>
</svg:g>
<svg:g>
</svg:g>
<svg:g>
</svg:g>
<svg:g>
</svg:g>
<svg:g>
</svg:g>
<svg:g>
</svg:g>
<svg:g>
</svg:g>
<svg:g>
</svg:g>
<svg:g>
</svg:g>
<svg:g>
</svg:g>
<svg:g>
</svg:g>
<svg:g>
</svg:g>
<svg:g>
</svg:g>
<svg:g>
</svg:g>
<svg:g>
</svg:g>
<svg:g>
</svg:g>
<svg:g>
</svg:g>
<svg:g>
</svg:g>
<svg:g>
</svg:g>
<svg:g>
</svg:g>
<svg:g>
</svg:g>
<svg:g>
</svg:g>
<svg:g>
</svg:g>
<svg:g>
</svg:g>
<svg:g>
</svg:g>
<svg:g>
</svg:g>
<svg:g>
</svg:g>
<svg:g>
</svg:g>
<svg:g>
</svg:g>
<svg:g>
</svg:g>
<svg:g>
</svg:g>
<svg:g>
</svg:g>
<svg:g>
</svg:g>
<svg:g>
</svg:g>
<svg:g>
</svg:g>
<svg:g>
</svg:g>
<svg:g>
</svg:g>
<svg:g>
</svg:g>
<svg:g>
</svg:g>
<svg:g>
</svg:g>
<svg:g>
</svg:g>
<svg:g>
</svg:g>
<svg:g>
</svg:g>
<svg:g>
</svg:g>
<svg:g>
</svg:g>
<svg:g>
</svg:g>
<svg:g>
</svg:g>
<svg:g>
</svg:g>
<svg:g>
</svg:g>
<svg:g>
</svg:g>
<svg:g>
</svg:g>
<svg:g>
</svg:g>
<svg:g>
</svg:g>
<svg:g>
</svg:g>
<svg:g>
</svg:g>
<svg:g>
</svg:g>
<svg:g>
</svg:g>
<svg:g>
</svg:g>
<svg:g>
</svg:g>
<svg:g>
</svg:g>
<svg:g>
</svg:g>
<svg:g>
</svg:g>
<svg:g>
</svg:g>
<svg:g>
</svg:g>
<svg:g>
</svg:g>
<svg:g>
</svg:g>
<svg:g>
</svg:g>
<svg:g>
</svg:g>
<svg:g>
</svg:g>
<svg:g>
</svg:g>
<svg:g>
</svg:g>
<svg:g>
</svg:g>
</svg:g> 
</svg:g></svg:g></svg>
